<svg xmlns="http://www.w3.org/2000/svg" viewBox="0 0 720 960"><g style="fill:#171d24"><path d="m0 0h720v960h-720z"/><path d="m0 959v1h23.5 23.5 24.5 24.5 24.5 24.5 20.5 20.5v-.5-.5-2.5-2.5-1-1l.5-1 .5-1 .5-1.5.5-1.5v-1-1l.5-1 .5-1 1-1 1-1 14 9.5 14 9.5h3.5 3.5 2 2 2.5 2.5 2 2 2.5 2.5 2 2 1 1v-.5-.5l3 .5 3 .5h2.5 2.5 2 2 2 2 2.5 2.5 2 2 2.5 2.5 2 2v-.5-.5l16.5-5.5 16.5-5.5 18.5-6 18.5-6 17-9 17-9-1 1-1 1-1.5-.5-1.5-.5-1.5-1-1.5-1-1-1-1-1-.5-2-.5-2v-2-2l.5-1.5.5-1.5.5-.5.5-.5.5-1 .5-1 .5-1.5.5-1.5v-1-1l1-1.5 1-1.5 13-7.5 13-7.5 5.5 9 5.5 9 12.5-8 12.5-8 13.5-1 13.5-1 18.5-1.5 18.5-1.5 18 15 18 15 1 .5 1 .5.5 1 .5 1 .5.5.5.5v1.5 1.5l.5 1.5.5 1.5.5.5.5.5.5 1 .5 1 .5 1.5.5 1.5.5 2.5.5 2.5.5 1.5.5 1.5v2.5 2.5l.5 1.5.5 1.5v1.5 1.5 2 2 2.5 2.5l-.5 1.5-.5 1.5-1 1-1 1-1 1.5-1 1.5v1.5 1.5h25 25 24.5 24.5 24.5 24.5 9 9v-15.5-15.5-24-24-24.5-24.5-24.5-24.5-24.5-24.5-24.5-24.5-2-2l-14 11-14 11-10.5-4-10.5-4-12 2.5-12 2.5-9.5-3-9.5-3-16.5-3-16.5-3 14 9.5 14 9.5 18 10.5 18 10.5 1-.5 1-.5.5.5.5.5h1.5 1.5l.5-1.5.5-1.5.5.5.5.5.5.5.5.5v1 1l.5 1 .5 1h1 1l-.5.5-.5.5v1 1l1-.5 1-.5.5.5.5.5-.5.5-.5.5-1 .5-1 .5 1 1 1 1v1 1l.5.5.5.5.5 1 .5 1 1 1 1 1v1 1l.5.5.5.5v1 1l.5 1 .5 1v1 1 1 1l.5 1 .5 1-13.5 30.5-13.5 30.5-13.5 7-13.5 7-27 5.5-27 5.5v1.5 1.5l-.5 1-.5 1-1 1.5-1 1.5-1 1-1 1-2 .5-2 .5h-2-2-1-1-1.5-1.5l-1-.5-1-.5-1.5-.5-1.5-.5-1-1-1-1-10 6.5-10 6.5-1.5-.5-1.5-.5h-2-2l-1.5-1-1.5-1-1.5-1-1.5-1-14.5 2.5-14.5 2.5-16.5 4.5-16.5 4.5-12-5-12-5-19.5 4.5-19.5 4.5-7 14-7 14v1.5 1.5 1.5 1.5l-.5 1.5-.5 1.5-.5.5-.5.5-1 .5-1 .5-1.5.5-1.5.5-.5.5-.5.5-.5 1-.5 1h-2-2l-1.5-.5-1.5-.5-.5-1-.5-1-1.5-.5-1.5-.5-.5-1.5-.5-1.5-1-1-1-1-.5-2.5-.5-2.5-12.5-2.5-12.5-2.5-15 4.5-15 4.5-15 2.5-15 2.5 6-13 6-13-9.5-2-9.5-2h-16.5-16.5v-17.5-17.5l12.5-11.5 12.5-11.5 11-12.5 11-12.5 11.5-12 11.5-12 12-20.5 12-20.5-.5-.5-.5-.5-6.5-14.5-6.5-14.5 15-25.5 15-25.5 1.5.5 1.5.5 2-.5 2-.5 1.5-.5 1.5-.5 2 .5 2 .5h1 1 1 1l2-.5 2-.5 1-1 1-1h1.5 1.5 1 1 1.5 1.5l13 15 13 15 6.5 17.5 6.5 17.5 15.5-5 15.5-5 .5-26 .5-26v-1.5-1.5l.5-1 .5-1v-1-1-1.5-1.5l.5-1.5.5-1.5.5-.5.5-.5v-1-1-1-1l1-1.5 1-1.5 1-.5 1-.5 1-1.5 1-1.5 1.5-.5 1.5-.5 1.5-1 1.5-1 1.5-.5 1.5-.5 1.5-.5 1.5-.5 1.5-1 1.5-1 1.5-.5 1.5-.5 2-.5 2-.5h2 2 1 1l2-.5 2-.5 2-1 2-1 .5-1 .5-1 1-1 1-1 16.5-2.5 16.5-2.5-2.5-4.5-2.5-4.5 7.5-7 7.5-7-10.5 4-10.5 4-17.5-2-17.5-2 7.5-15 7.5-15-3.5-11.5-3.5-11.5-7.5-12-7.5-12-11.5-7-11.5-7-4 12.5-4 12.5-5 11.5-5 11.5-11 6.5-11 6.5-7-10.5-7-10.5-4-15-4-15-10.5-2-10.5-2-.5 17-.5 17 6.5 9 6.5 9-5 4.5-5 4.5-7.5-5-7.5-5-12-2.5-12-2.5 3.5-14.5 3.5-14.5 12.5-12 12.5-12 20-4.5 20-4.5 17.5 2 17.5 2 .5-8 .5-8-11-10.5-11-10.5-13.5-6-13.5-6-13.5-9.5-13.5-9.5-16 6.5-16 6.5-6 15.5-6 15.5-1.5 16-1.5 16-4.5 14-4.5 14 6.5 13 6.5 13-4.5 8-4.5 8 2.5 13.5 2.5 13.5 8 22.5 8 22.5-1.5.5-1.5.5-1.5-.5-1.5-.5-.5-.5-.5-.5-10 12-10 12-10 9.5-10 9.5-26.5 15-26.5 15-15.5 9.5-15.5 9.5-15 9.5-15 9.5-14.5 10-14.5 10-12 12.5-12 12.5-17 15.5-17 15.5 9.5-13.5 9.5-13.5 10-12.5 10-12.5 5-20 5-20-.5 1.5-.5 1.5-1 1-1 1 .5 2 .5 2-1.5.5-1.5.5h-1-1-1.5-1.5l-1.5-1-1.5-1-1-1-1-1-1.5.5-1.5.5-.5.5-.5.5v-1.5-1.5l.5-1.5.5-1.5v-1-1l-1.5 1-1.5 1-2.5-.5-2.5-.5-1.5-.5-1.5-.5-1-.5-1-.5-1.5.5-1.5.5-1 1.5-1 1.5-.5 1.5-.5 1.5-16 19.5-16 19.5.5-1 .5-1 .5-1 .5-1v-1-1-1-1-1-1l-.5-1-.5-1-.5.5-.5.5-.5.5-.5.5h-1-1l-1 .5-1 .5-.5 1-.5 1-1.5 1-1.5 1-1.5.5-1.5.5-.5 1.5-.5 1.5-1 2-1 2-9.5 14-9.5 14-11 12.5-11 12.5v24 24 24 24 14.5 14.5" style="stroke:#171d24;stroke-linejoin:round;stroke-width:.7"/></g><g style="stroke-linejoin:round;stroke-width:.7"><path d="m186 959v1h1.5 1.5.5.5v-.5-.5l1-.5 1-.5-1-1-1-1v-2-2-2.5-2.5l.5-1.5.5-1.5 1-1.5 1-1.5h-1-1l-1 1-1 1-.5 1-.5 1v1 1l-.5 1.5-.5 1.5-.5 1-.5 1v1 1 2.5 2.5" style="fill:#3d628b;stroke:#3d628b"/><path d="m190 959v1h1.5 1.5 2 2 2.5 2.5 2 2 2.5 2.5 2 2 .5.5v-.5-.5-.5-.5-1.5-1.5-2-2-2.5-2.5l-.5-1.5-.5-1.5-1-1.5-1-1.5-1.5-.5-1.5-.5h-2.5-2.5-2-2-2-2l-.5.5-.5.5-1.5.5-1.5.5-1 1.5-1 1.5-.5 1.5-.5 1.5v2.5 2.5 2 2l1 1 1 1-1 .5-1 .5" style="fill:#477aae;stroke:#477aae"/><g style="fill:#2e4767;stroke:#2e4767"><path d="m216 959v1h1.5 1.5l-14-9.5-14-9.5h1 1l1.5-.5 1.5-.5.5-.5.5-.5h2 2 2 2 2.5 2.5l1.5.5 1.5.5 1 1.5 1 1.5.5 1.5.5 1.5v2.5 2.5 2 2 1.5 1.5.5.5"/><path d="m250 959v1h1.5 1.5 1.5 1.5l-3-.5-3-.5"/><path d="m287 959v1h1.5 1.5 1 1v-.5-.5l.5-1 .5-1 1-.5 1-.5h1 1 1 1l.5.5.5.5 1 .5 1 .5h1 1v-1-1l.5-.5.5-.5 1-.5 1-.5h1 1 1 1l.5.5.5.5h1 1l.5-1 .5-1 1.5-.5 1.5-.5 2.5-.5 2.5-.5 2-1 2-1v-.5-.5l23.5-1 23.5-1 1-.5 1-.5 1-1 1-1 1.5-.5 1.5-.5 17 9 17 9h3.5 3.5 2 2 2.5 2.5 2 2 2.5 2.5 2 2 2.5 2.5.5.5v-.5-.5l-1-.5-1-.5h-1.5-1.5l-1.5-1-1.5-1-1-1-1-1-2-.5-2-.5-1 1-1 1-1.5 1-1.5 1-1.5-.5-1.5-.5h-2.5-2.5-2-2l-1-1-1-1h-2.5-2.5l-1.5-.5-1.5-.5-1-.5-1-.5h-1-1-1.5-1.5l-1-1-1-1h-1-1l-1-.5-1-.5-1-1-1-1-1-1-1-1-.5-.5-.5-.5h-1-1l-.5-.5-.5-.5 9-14.5 9-14.5.5-.5.5-.5v-.5-.5l14.5-10.5 14.5-10.5 17.5-5 17.5-5 24-1 24-1 14.5 13 14.5 13-18-15-18-15-18.5 1.5-18.5 1.5-13.5 1-13.5 1-12.5 8-12.5 8-5.5-9-5.5-9-13 7.5-13 7.5h1 1l1-1.5 1-1.5 11.5-.5 11.5-.5-11 14.5-11 14.5-17 9-17 9-18.5 6-18.5 6-16.5 5.5-16.5 5.5"/></g><path d="m292 959v1h1.5 1.5 2 2 2.5 2.5 2 2 2.5 2.5.5.5v-.5-.5l1.5-2.5 1.5-2.5.5-1 .5-1-1.5.5-1.5.5-.5 1-.5 1h-1-1l-.5-.5-.5-.5h-1-1-1-1l-1 .5-1 .5-.5.5-.5.5v1 1h-1-1l-1-.5-1-.5-.5-.5-.5-.5h-1-1-1-1l-1 .5-1 .5-.5 1-.5 1" style="fill:#3d628b;stroke:#3d628b"/><path d="m314 959v1h1.5 1.5 2 2 2.5 2.5 1.5 1.5v-.5-.5l-6-2.5-6-2.5-1.5 2.5-1.5 2.5" style="fill:#5b96ce;stroke:#5b96ce"/><path d="m329 959v1h1.5 1.5 2 2 2.5 2.5 2 2 1.5 1.5v-.5-.5l1.5-.5 1.5-.5-1.5-.5-1.5-.5 4-.5 4-.5 1.5-1 1.5-1 1-1 1-1 1.5-1 1.5-1 2-.5 2-.5h-20.5-20.5l-2 1-2 1-2.5.5-2.5.5-.5 1-.5 1 6 2.5 6 2.5" style="fill:#477aae;stroke:#477aae"/><path d="m348 959v1h1.5 1.5 2 2 2.5 2.5v-.5-.5l1-.5 1-.5 1-.5 1-.5.5-.5.5-.5 1-.5 1-.5 1-1 1-1 .5-.5.5-.5 1-.5 1-.5.5-1.5.5-1.5 2-.5 2-.5 1-1 1-1 1-1.5 1-1.5-1.5.5-1.5.5-1 1-1 1-1 .5-1 .5-1.5.5-1.5.5-.5.5-.5.5-1 .5-1 .5-2 .5-2 .5-1.5 1-1.5 1-1 1-1 1-1.5 1-1.5 1-1 .5-1 .5-1.5.5-1.5.5-1.5.5-1.5.5" style="fill:#443a44;stroke:#443a44"/><path d="m360 959v1h26 26 1.5 1.5l-17-9-17-9-1 1.5-1 1.5-1 1-1 1-2 .5-2 .5-.5 1.5-.5 1.5-1 .5-1 .5-.5.5-.5.5-1 1-1 1-1 .5-1 .5-.5.5-.5.5-1 .5-1 .5-1 .5-1 .5" style="fill:#171d24;stroke:#171d24"/><path d="m450 959v1h1.5 1.5 2 2 2.5 2.5 2 2 1 1v-.5-.5-.5-.5l-.5-1-.5-1-1-1.5-1-1.5-1-1-1-1-1.5.5-1.5.5v1 1l-.5 1-.5 1-1.5.5-1.5.5-.5.5-.5.5-1-.5-1-.5-2.5.5-2.5.5 1 .5 1 .5" style="fill:#3d628b;stroke:#3d628b"/><path d="m468 959v1h1 1v-.5-.5l-4.5-5.5-4.5-5.5-8-3.5-8-3.5-14 6.5-14 6.5 1 1 1 1h2 2 2.5 2.5l1.5.5 1.5.5 1.5-1 1.5-1 1-1 1-1 2 .5 2 .5 1 1 1 1 1.5 1 1.5 1h1.5 1.5l2.5-.5 2.5-.5 1 .5 1 .5.5-.5.5-.5 1.5-.5 1.5-.5.5-1 .5-1v-1-1l1.5-.5 1.5-.5 1 1 1 1 1 1.5 1 1.5.5 1 .5 1v.5.5" style="fill:#477aae;stroke:#477aae"/><path d="m470 959v1h1.5 1.5 1.5 1.5v-.5-.5l12.5-1 12.5-1 17-2.5 17-2.5-2.5-18-2.5-18 5.5 3 5.5 3 4-2.5 4-2.5-18.5-19-18.5-19h-.5-.5l-20.5 2.5-20.5 2.5 3.5 7 3.5 7 5 12.5 5 12.5-5.5 2-5.5 2-11.5-9-11.5-9 6-6 6-6h-12.5-12.5l-7 2.5-7 2.5-17.5 21-17.5 21 .5.5.5.5 1.5 1 1.5 1 2-.5 2-.5 1 1 1 1 1 1 1 1 2-.5 2-.5 1 1 1 1 1.5 1 1.5 1 1.5-.5 1.5-.5 1 1 1 1 14-6.5 14-6.5 8 3.5 8 3.5 4.5 5.5 4.5 5.5" style="fill:#5b96ce;stroke:#5b96ce"/><path d="m476 959v1h26 26 2.5 2.5v-.5-.5l11.5-14 11.5-14v-1.5-1.5l.5-1 .5-1-.5-2.5-.5-2.5-.5-1.5-.5-1.5-.5-1-.5-1-.5-.5-.5-.5-.5-1.5-.5-1.5v-1.5-1.5l-.5-.5-.5-.5-.5-1-.5-1-1-.5-1-.5-14.5-13-14.5-13h-3.5-3.5l18.5 19 18.5 19-4 2.5-4 2.5-5.5-3-5.5-3 2.5 18 2.5 18-17 2.5-17 2.5-12.5 1-12.5 1" style="fill:#477aae;stroke:#477aae"/><path d="m533 959v1h1.5 1.5 2 2 2.5 2.5v-.5-.5l5.5-14 5.5-14-11.5 14-11.5 14" style="fill:#3d628b;stroke:#3d628b"/><path d="m545 959v1h1.5 1.5 2 2 1 1v-1.5-1.5l1-1.5 1-1.5 1-1 1-1 .5-1.5.5-1.5v-2.5-2.5-2-2-1.5-1.5l-.5-1.5-.5-1.5v-2.5-2.5l-.5-1.5-.5-1.5-.5 1-.5 1v1.5 1.5l-5.5 14-5.5 14" style="fill:#2e4767;stroke:#2e4767"/><path d="m348 957l3 1 1.5-.5 1.5-.5 1-.5 1-.5-4 .5-4 .5" style="fill:#5b96ce;stroke:#5b96ce"/><path d="m409 953l3 1h2.5 2.5l-1-1-1-1-1.5.5-1.5.5-1.5-1-1.5-1-1-1-1-1-2 .5-2 .5-1-1-1-1-1-1-1-1-2 .5-2 .5-1.5-1-1.5-1 1 1 1 1 1 1 1 1 1 .5 1 .5h1 1l1 1 1 1h1.5 1.5 1 1l1 .5 1 .5" style="fill:#477aae;stroke:#477aae"/><path d="m240 949l21-25-12.5 3-12.5 3 2 9.5 2 9.5" style="fill:#2e4767;stroke:#2e4767"/><g style="fill:#3d628b;stroke:#3d628b"><path d="m327 948v1h20.5 20.5l1-.5 1-.5.5-.5.5-.5 1.5-.5 1.5-.5-23.5 1-23.5 1"/><path d="m241 945l15-25-8 12.5-8 12.5h.5.5"/><path d="m388 943l1 1v-.5-.5l-.5-2-.5-2v-1-1l.5-1 .5-1 1.5-.5 1.5-.5.5-.5.5-.5.5-1 .5-1 .5-1.5.5-1.5 1-1.5 1-1.5 1-1 1-1 1-1 1-1v-1-1l1-.5 1-.5 1-1 1-1 .5-1 .5-1-9 14.5-9 14.5"/></g><path d="m389 943v1h1 1l17.5-21 17.5-21 7-2.5 7-2.5h12.5 12.5l-6 6-6 6 11.5 9 11.5 9 5.5-2 5.5-2-5-12.5-5-12.5-3.5-7-3.5-7 20.5-2.5 20.5-2.5-20.5 1.5-20.5 1.5-9.5 3.5-9.5 3.5-22 12-22 12-.5.5-.5.5-.5 1-.5 1-1 1-1 1-1 .5-1 .5v1 1l-1 1-1 1-1 1-1 1-1 1.5-1 1.5-.5 1.5-.5 1.5-.5 1-.5 1-.5.5-.5.5-1.5.5-1.5.5-.5 1-.5 1v1 1l.5 2 .5 2" style="fill:#477aae;stroke:#477aae"/><path d="m329 936l3 1 1.5-.5 1.5-.5 2-.5 2-.5h1 1l1.5-1 1.5-1h1 1l-1.5-1-1.5-1h-2-2-1-1l-1 .5-1 .5-1.5.5-1.5.5h-1.5-1.5-.5-.5-.5-.5l-1 .5-1 .5 1.5 1 1.5 1h.5.5" style="fill:#443a44;stroke:#443a44"/><path d="m324 933l1 1 1-.5 1-.5-1-.5-1-.5-.5-1.5-.5-1.5-.5-1.5-.5-1.5.5-2 .5-2 1-1 1-1 1 1 1 1h1 1 1.5 1.5l-.5-1.5-.5-1.5-.5-2-.5-2 1.5-.5 1.5-.5 2 .5 2 .5 1.5-.5 1.5-.5 1.5.5 1.5.5h1 1l1 .5 1 .5 1 .5 1 .5 1 .5 1 .5 1 1 1 1 1 1 1 1 .5.5.5.5-.5 1-.5 1-1 1-1 1-2 .5-2 .5-1.5.5-1.5.5-2 1-2 1 1.5 1 1.5 1-.5-11-.5-11-11 9.5-11 9.5.5 1.5.5 1.5" style="fill:#2e4767;stroke:#2e4767"/><path d="m328 933h1v-.5-.5l-.5-1-.5-1-1-1.5-1-1.5-.5-1.5-.5-1.5 1-.5 1-.5.5 1.5.5 1.5h1.5 1.5l.5-1.5.5-1.5 1-1 1-1 .5-2 .5-2 1.5-1 1.5-1-2-.5-2-.5-1.5.5-1.5.5.5 2 .5 2 .5 1.5.5 1.5h-1.5-1.5-1-1l-1-1-1-1-1 1-1 1-.5 2-.5 2 .5 1.5.5 1.5.5 1.5.5 1.5 1 .5 1 .5h.5.5" style="fill:#3d628b;stroke:#3d628b"/><path d="m329 932v1h1.5 1.5l1.5-.5 1.5-.5 1-.5 1-.5h1 1 2 2l2-1 2-1 1.5-.5 1.5-.5 2-.5 2-.5 1-1 1-1 .5-1 .5-1-.5-.5-.5-.5-1-1-1-1-1-1-1-1-1-.5-1-.5 1 1.5 1 1.5v1 1 1.5 1.5l-1 1-1 1-.5-.5-.5-.5h-1.5-1.5l-1.5.5-1.5.5v1 1l-.5.5-.5.5h-1-1l-1.5-.5-1.5-.5-.5-1-.5-1-.5-1.5-.5-1.5.5-1.5.5-1.5 1-1.5 1-1.5 1-1 1-1 2 .5 2 .5h3 3l-1-.5-1-.5-1-.5-1-.5h-1-1l-1.5-.5-1.5-.5-1.5.5-1.5.5-1.5 1-1.5 1-.5 2-.5 2-1 1-1 1-.5 1.5-.5 1.5h-1.5-1.5l-.5-1.5-.5-1.5-1 .5-1 .5.5 1.5.5 1.5 1 1.5 1 1.5.5 1 .5 1" style="fill:#477aae;stroke:#477aae"/><path d="m337 929l3 1h1 1l.5-.5.5-.5v-1-1l1.5-.5 1.5-.5h1.5 1.5l.5.5.5.5 1-1 1-1v-1.5-1.5-1-1l-1-1.5-1-1.5h-3-3l-2-.5-2-.5-1 1-1 1-1 1.5-1 1.5-.5 1.5-.5 1.5.5 1.5.5 1.5.5 1 .5 1" style="fill:#5b96ce;stroke:#5b96ce"/><path d="m386 919l3 1 1-1 1-1 11-14.5 11-14.5-11.5.5-11.5.5 1-.5 1-.5 6 8 6 8-.5 1-.5 1-1 .5-1 .5h-1.5-1.5l-.5-1.5-.5-1.5-1.5-1-1.5-1-.5 1.5-.5 1.5-.5 1.5-.5 1.5-.5 1-.5 1v1 1l-.5.5-.5.5h-1-1l-.5-1-.5-1-1-1-1-1-.5-2-.5-2 .5-1.5.5-1.5.5-2 .5-2 1-2 1-2v-1-1h-1-1l-1 1.5-1 1.5v1 1l-.5 1.5-.5 1.5-.5 1-.5 1-.5.5-.5.5-.5 1.5-.5 1.5v2 2l.5 2 .5 2 1 1 1 1 1.5 1 1.5 1" style="fill:#3d628b;stroke:#3d628b"/><path d="m358 914l3 1h2 2l.5-1 .5-1 .5-.5.5-.5 1.5-.5 1.5-.5 1-.5 1-.5.5-.5.5-.5.5-1.5.5-1.5v-1.5-1.5-1.5-1.5l-.5-.5-.5-.5v-2.5-2.5l-.5-2-.5-2v-2-2l-1.5-1-1.5-1-1.5-.5-1.5-.5h-1-1-1.5-1.5l-2 1-2 1 1 11.5 1 11.5-1-1-1-1-1-1-1-1-.5-.5-.5-.5v-1.5-1.5l-.5-1.5-.5-1.5-.5-.5-.5-.5v-1-1-1-1-.5-.5l1-1 1-1 .5-.5.5-.5.5-1 .5-1h-1-1l-1 1-1 1-.5 1.5-.5 1.5-.5.5-.5.5v1.5 1.5l.5 1.5.5 1.5-.5 1.5-.5 1.5.5 2.5.5 2.5 1 1 1 1 .5 1.5.5 1.5 1.5.5 1.5.5.5 1 .5 1" style="fill:#477aae;stroke:#477aae"/><path d="m388 914h2l.5-.5.5-.5v-1-1l.5-1 .5-1v-.5-.5-1.5-1.5-1-1l-.5-1-.5-1-.5-.5-.5-.5v-1-1l-.5-.5-.5-.5.5-1 .5-1h-1-1l-1 2-1 2-.5 2-.5 2-.5 1.5-.5 1.5.5 2 .5 2 1 1 1 1 .5 1 .5 1" style="fill:#5b96ce;stroke:#5b96ce"/><path d="m407 912v1l22-12 22-12 9.5-3.5 9.5-3.5 20.5-1.5 20.5-1.5h.5.5 3.5 3.5l-24 1-24 1-17.5 5-17.5 5-14.5 10.5-14.5 10.5" style="fill:#3d628b;stroke:#3d628b"/><path d="m265 910l30-5 15-4.5 15-4.5 12.5 2.5 12.5 2.5.5-1.5.5-1.5-.5-1.5-.5-1.5v-1.5-1.5l.5-.5.5-.5.5-1.5.5-1.5 1-1 1-1-31 7.5-31 7.5v-7-7l6-7 6-7h-16.5-16.5l-15 3-15 3-11-9.5-11-9.5 15.5-17 15.5-17 1-.5 1-.5.5-2 .5-2 1-.5 1-.5 13-14.5 13-14.5v-.5-.5l15-13.5 15-13.5 1-1 1-1 .5-.5.5-.5.5-.5.5-.5 2-.5 2-.5 1.5-1.5 1.5-1.5 1.5-1 1.5-1 1-1 1-1 1.5-1 1.5-1 1.5-.5 1.5-.5 1-1.5 1-1.5-.5-1-.5-1v-.5-.5l-1-1-1-1v-2.5-2.5h-1-1l-1.5 1-1.5 1-1-1-1-1-1.5-1-1.5-1-1-1.5-1-1.5-.5 1-.5 1-12 20.5-12 20.5-11.5 12-11.5 12-11 12.5-11 12.5-12.5 11.5-12.5 11.5v17.5 17.5h16.5 16.5l9.5 2 9.5 2-6 13-6 13" style="fill:#2e4767;stroke:#2e4767"/><path d="m359 908l-2-23-.5.5-.5.5-.5 1-.5 1-.5.5-.5.5-1 1-1 1v.5.5 1 1 1 1l.5.5.5.5.5 1.5.5 1.5v1.5 1.5l.5.5.5.5 1 1 1 1 1 1 1 1" style="fill:#5b96ce;stroke:#5b96ce"/><path d="m392 908v1l.5-1.5.5-1.5.5-1.5.5-1.5 1.5 1 1.5 1 .5 1.5.5 1.5h1.5 1.5l1-.5 1-.5.5-1 .5-1-1 .5-1 .5-1.5-.5-1.5-.5.5-1 .5-1v-1-1l-.5-2-.5-2-1.5.5-1.5.5-1-1.5-1-1.5-1-1-1-1v-2-2l-1 .5-1 .5-1 1.5-1 1.5v1 1h1 1l-.5 1-.5 1 .5.5.5.5v1 1l.5.5.5.5.5 1 .5 1v1 1 1.5 1.5" style="fill:#477aae;stroke:#477aae"/><path d="m399 905l3 1 1-.5 1-.5-6-8-6-8v2 2l1 1 1 1 1 1.5 1 1.5 1.5-.5 1.5-.5.5 2 .5 2v1 1l-.5 1-.5 1" style="fill:#5b96ce;stroke:#5b96ce"/><path d="m292 901l62-15h1 1l.5-.5.5-.5 2-1 2-1h1.5 1.5 1 1l1.5.5 1.5.5-.5-1-.5-1h-1-1l-.5-.5-.5-.5.5-1.5.5-1.5-1.5.5-1.5.5-2 .5-2 .5-1.5.5-1.5.5h-2-2l-.5-.5-.5-.5-.5-1-.5-1v-1-1l-1 .5-1 .5.5 1.5.5 1.5-1.5 1-1.5 1-1.5.5-1.5.5h-1-1l-9.5-11-9.5-11-10 3-10 3-9-6.5-9-6.5-8.5 7-8.5 7-14.5 4-14.5 4-7-3.5-7-3.5 13-21.5 13-21.5-15.5 17-15.5 17 11 9.5 11 9.5 15-3 15-3h16.5 16.5l-6 7-6 7v7 7" style="fill:#3d628b;stroke:#3d628b"/><path d="m373 899l1 1 7-14 7-14h-1.5-1.5l-1.5.5-1.5.5-2 .5-2 .5-1.5.5-1.5.5-2 .5-2 .5-1 1-1 1h-1.5-1.5l-.5 1.5-.5 1.5.5.5.5.5h1 1l.5 1 .5 1 1.5 1 1.5 1v2 2l.5 2 .5 2v2.5 2.5" style="fill:#2e4767;stroke:#2e4767"/><g style="fill:#477aae;stroke:#477aae"><path d="m491 892l3 1 1-1 1-1 2-.5 2-.5.5-1.5.5-1.5-1-.5-1-.5h-1-1-1.5-1.5l-1.5.5-1.5.5v2 2 .5.5"/><path d="m318 891l16-10-11.5 1-11.5 1 3.5 4 3.5 4"/></g><path d="m601 886l3 1h2 2l2-.5 2-.5 1.5-.5 1.5-.5.5-.5.5-.5v-.5-.5l-2.5-.5-2.5-.5-2 .5-2 .5-1.5.5-1.5.5-1.5-.5-1.5-.5 3-11.5 3-11.5 5.5 12 5.5 12-1.5-14-1.5-14-11.5 8-11.5 8 4.5 7 4.5 7" style="fill:#2e4767;stroke:#2e4767"/><path d="m341 883h2l1.5-.5 1.5-.5 1.5-1 1.5-1-.5-1.5-.5-1.5 1-.5 1-.5v1 1l.5 1 .5 1 .5.5.5.5h2 2l1.5-.5 1.5-.5 2-.5 2-.5 1.5-.5 1.5-.5v-.5-.5l22-6 22-6v-.5-.5l13-10 13-10 2.5-10 2.5-10 1-1 1-1-11.5-1-11.5-1-5 6-5 6 5 2.5 5 2.5-9.5 13-9.5 13-6-18.5-6-18.5-1-18.5-1-18.5 8.5-5 8.5-5-4 11.5-4 11.5 6.5-9 6.5-9 4.5-11 4.5-11h-13-13l-5 16.5-5 16.5-1.5-12-1.5-12-5 13.5-5 13.5 6.5 13 6.5 13-10 7.5-10 7.5-6.5 5.5-6.5 5.5-5-5.5-5-5.5-10.5 4-10.5 4-11-4.5-11-4.5-1 2-1 2-.5 1.5-.5 1.5-1.5-.5-1.5-.5v-.5-.5l-.5-1-.5-1v-2-2l.5-.5.5-.5.5-1 .5-1 .5-1.5.5-1.5v-1-1l-1-1.5-1-1.5-.5 1-.5 1 .5 1 .5 1v1 1l-.5 1-.5 1-.5 1.5-.5 1.5-.5 2-.5 2v2 2l-1.5 1-1.5 1-1 1-1 1v2.5 2.5l-.5 1.5-.5 1.5-1 .5-1 .5 5-20.5 5-20.5.5-1 .5-1v-1-1l.5-.5.5-.5 1-.5 1-.5.5-.5.5-.5 1-.5 1-.5-10 1.5-10 1.5-10.5 4-10.5 4-1 .5-1 .5-.5 2-.5 2-1 .5-1 .5-13 21.5-13 21.5 7 3.5 7 3.5 14.5-4 14.5-4 8.5-7 8.5-7 9 6.5 9 6.5 10-3 10-3 9.5 11 9.5 11" style="fill:#477aae;stroke:#477aae"/><path d="m601 883l3 1 1.5-.5 1.5-.5 2-.5 2-.5 2.5.5 2.5.5v-.5-.5l-1-1.5-1-1.5.5-1.5.5-1.5.5-.5.5-.5.5-1 .5-1 1-1 1-1 1 1.5 1 1.5.5 1.5.5 1.5-1 1.5-1 1.5-1 1-1 1-1 .5-1 .5v.5.5h1 1l-5.5-12-5.5-12-3 11.5-3 11.5" style="fill:#3d628b;stroke:#3d628b"/><path d="m616 882v1l1-.5 1-.5 1-1 1-1 1-1.5 1-1.5-.5-1.5-.5-1.5-1-1.5-1-1.5-1 1-1 1-.5 1-.5 1-.5.5-.5.5-.5 1.5-.5 1.5 1 1.5 1 1.5" style="fill:#477aae;stroke:#477aae"/><path d="m366 877v1h1.5 1.5l1-1 1-1 2-.5 2-.5 1.5-.5 1.5-.5 2-.5 2-.5 1.5-.5 1.5-.5h1.5 1.5l1-.5 1-.5 1-.5 1-.5.5-.5.5-.5.5-.5.5-.5.5-.5.5-.5 1 .5 1 .5 1.5-.5 1.5-.5.5.5.5.5 1-.5 1-.5 1.5-.5 1.5-.5h1 1l1-.5 1-.5-22 6-22 6" style="fill:#3d628b;stroke:#3d628b"/><path d="m603 875l3 1 1-1 1-1v-1.5-1.5l-1.5-.5-1.5-.5 1.5-1 1.5-1v-2-2l-2-.5-2-.5-.5 1.5-.5 1.5-.5 1.5-.5 1.5.5 2 .5 2v1 1" style="fill:#5b96ce;stroke:#5b96ce"/><path d="m451 873l33-9 14.5-2.5 14.5-2.5.5-.5.5-.5-.5-1-.5-1-17.5 1-17.5 1v-2-2l.5-1 .5-1 .5-.5.5-.5 1-.5 1-.5-1-1-1-1h-1-1l-.5.5-.5.5h-1-1l-1 .5-1 .5-.5.5-.5.5-.5.5-.5.5v1 1l-1 .5-1 .5h-1-1v1 1l-.5.5-.5.5-.5 1-.5 1-.5.5-.5.5-.5 1.5-.5 1.5-1 .5-1 .5-1 .5-1 .5-1 .5-1 .5-1.5.5-1.5.5h-1-1l-1 .5-1 .5h-1.5-1.5-1.5-1.5l-.5-1.5-.5-1.5v-2.5-2.5l1-1.5 1-1.5-17.5 3.5-17.5 3.5-1 .5-1 .5h-1-1l-1.5.5-1.5.5-1 .5-1 .5-.5-.5-.5-.5-1.5.5-1.5.5-1-.5-1-.5-.5.5-.5.5-.5.5-.5.5-.5.5-.5.5-1 .5-1 .5-1 .5-1 .5 19.5-4.5 19.5-4.5 12 5 12 5" style="fill:#2e4767;stroke:#2e4767"/><path d="m447 869h3l1-.5 1-.5h1 1l1.5-.5 1.5-.5 1-.5 1-.5 1-.5 1-.5h-1-1-1-1l-.5-.5-.5-.5-1 .5-1 .5h-1-1l-.5.5-.5.5-.5.5-.5.5-1.5-.5-1.5-.5 8.5-2.5 8.5-2.5.5-.5.5-.5-5.5-9-5.5-9-4.5 8-4.5 8-1 1.5-1 1.5v2.5 2.5l.5 1.5.5 1.5h1.5 1.5" style="fill:#477aae;stroke:#477aae"/><g style="fill:#5b96ce;stroke:#5b96ce"><path d="m227 868h20l13-11.5 13-11.5-2-8.5-2-8.5-10.5 9-10.5 9-9 5.5-9 5.5-1.5 5.5-1.5 5.5"/><path d="m447 866l3 1 .5-.5.5-.5.5-.5.5-.5h1 1l1-.5 1-.5.5.5.5.5h1 1 1 1l1-.5 1-.5.5-1.5.5-1.5-8.5 2.5-8.5 2.5"/></g><path d="m410 864v1l17.5-3.5 17.5-3.5 4.5-8 4.5-8 5.5 9 5.5 9 .5-1 .5-1 .5-.5.5-.5v-1-1h1 1l1-.5 1-.5v-1-1l.5-.5.5-.5.5-.5.5-.5 1-.5 1-.5h1 1l.5-.5.5-.5h1 1l1 1 1 1-1 .5-1 .5-.5.5-.5.5-.5 1-.5 1 1-1 1-1h1 1l.5-.5.5-.5h1 1 1 1l1-.5 1-.5h1 1l.5.5.5.5h1 1 1 1l.5 1 .5 1 .5.5.5.5v1 1l.5.5.5.5v1.5 1.5h-1-1l-.5.5-.5.5-1.5-.5-1.5-.5-1-.5-1-.5-1-.5-1-.5h-1.5-1.5l-1.5.5-1.5.5-2.5-.5-2.5-.5 17.5-1 17.5-1v-2-2-1-1l.5-1 .5-1 .5-.5.5-.5.5-.5.5-.5.5.5.5.5h2 2l-19-5.5-19-5.5-23.5 4-23.5 4-13 10-13 10" style="fill:#3d628b;stroke:#3d628b"/><path d="m526 864l20-13v-1-1l-.5-.5-.5-.5-18.5-9-18.5-9-2-.5-2-.5-12.5-8.5-12.5-8.5-.5 1-.5 1-1 .5-1 .5h-2-2-1.5-1.5l-.5 1.5-.5 1.5-1.5 1-1.5 1-1.5.5-1.5.5-2.5 1-2.5 1 16-7.5 16-7.5-3 6.5-3 6.5 13.5 6 13.5 6h-14-14l-17.5 3-17.5 3-3-7.5-3-7.5-2.5 10-2.5 10 23.5-4 23.5-4 19 5.5 19 5.5 1 .5 1 .5.5.5.5.5.5.5.5.5.5.5.5.5.5.5.5.5 1 .5 1 .5.5.5.5.5v1 1 1 1 1.5 1.5l-.5.5-.5.5-.5.5-.5.5-1.5-.5-1.5-.5h-1.5-1.5-2-2l-1-.5-1-.5 1.5 1 1.5 1h2 2l1.5.5 1.5.5" style="fill:#2e4767;stroke:#2e4767"/><path d="m401 863l19-26-5-2.5-5-2.5 5-6 5-6 11.5 1 11.5 1 1-.5 1-.5h2 2 2 2l2 .5 2 .5h1 1l.5-.5.5-.5.5-1 .5-1v-.5-.5l5-16 5-16-12 .5-12 .5 5.5-5.5 5.5-5.5-4.5-4-4.5-4-3.5-11-3.5-11v-10-10l-6 4.5-6 4.5-7-6.5-7-6.5-12.5-18.5-12.5-18.5.5 2 .5 2 .5 2 .5 2-1-1-1-1-1 1-1 1-.5.5-.5.5-1 .5-1 .5h-2-2l-.5.5-.5.5-1 .5-1 .5h-1.5-1.5l-1-.5-1-.5v-1-1l1.5-1 1.5-1 1-1 1-1 1-1.5 1-1.5.5.5.5.5 1.5-1 1.5-1 .5-1.5.5-1.5 2.5 1 2.5 1-18-11-18-11-1 3-1 3-.5 1-.5 1-.5 1.5-.5 1.5v1 1l1 1.5 1 1.5v1 1l-.5 2-.5 2-.5 1.5-.5 1.5h-1-1l-.5-2-.5-2v-1-1l.5-1 .5-1-1.5-1.5-1.5-1.5-1 .5-1 .5-1 1-1 1-1.5.5-1.5.5-2 .5-2 .5-1.5.5-1.5.5h-1.5-1.5l-1.5-.5-1.5-.5h-1-1l-2-.5-2-.5h-1-1l-1.5-1-1.5-1-1-1-1-1-1.5 1.5-1.5 1.5 4 22.5 4 22.5 1.5 1.5 1.5 1.5 1 1 1 1 1-1 1-1 1 1.5 1 1.5h2 2l1 1.5 1 1.5v1 1l.5 2 .5 2 1 1.5 1 1.5 11.5-5.5 11.5-5.5 3 11.5 3 11.5 2.5-2 2.5-2-.5-13-.5-13-8-5-8-5 15-2.5 15-2.5-3.5 15-3.5 15 4.5 12 4.5 12h-17.5-17.5l1 10.5 1 10.5-7 14.5-7 14.5-.5-16.5-.5-16.5 8-13 8-13-8.5-6-8.5-6h-1-1l.5 1 .5 1-1 1.5-1 1.5-1.5.5-1.5.5-1.5 1-1.5 1-1 1-1 1-1.5 1-1.5 1-1.5 1.5-1.5 1.5 2-1 2-1 1.5-.5 1.5-.5v.5.5 2 2l-.5 2-.5 2-1 1-1 1h-1-1l-.5-1-.5-1v-1.5-1.5l-.5-1.5-.5-1.5-2 .5-2 .5-.5.5-.5.5-.5.5-.5.5-1 1-1 1-15 14-15 14-13 14.5-13 14.5 10.5-4 10.5-4 10-1.5 10-1.5 1.5-.5 1.5-.5 1-1 1-1 2-.5 2-.5.5-1 .5-1 7-9 7-9 6 1.5 6 1.5-17 21.5-17 21.5-1 2-1 2v1.5 1.5l11 4.5 11 4.5 10.5-4 10.5-4 5 5.5 5 5.5 6.5-5.5 6.5-5.5 10-7.5 10-7.5-6.5-13-6.5-13 5-13.5 5-13.5 1.5 12 1.5 12 5-16.5 5-16.5h13 13l-4.5 11-4.5 11-6.5 9-6.5 9 4-11.5 4-11.5-8.5 5-8.5 5 1 18.5 1 18.5 6 18.5 6 18.5" style="fill:#5b96ce;stroke:#5b96ce"/><g style="fill:#477aae;stroke:#477aae"><path d="m525 862l3 1 .5-.5.5-.5.5-.5.5-.5v-1.5-1.5-1-1-1-1l-.5-.5-.5-.5-1-.5-1-.5-.5-.5-.5-.5-.5-.5-.5-.5-.5-.5-.5-.5-.5-.5-.5-.5-1-.5-1-.5h-2-2l-.5-.5-.5-.5-.5.5-.5.5-.5.5-.5.5-.5 1-.5 1v1 1 2 2l.5 1 .5 1-.5.5-.5.5 1.5 1 1.5 1 1 .5 1 .5h2 2 1.5 1.5"/><path d="m493 860l3 1 .5-.5.5-.5h1 1v-1.5-1.5l-.5-.5-.5-.5v-1-1l-.5-.5-.5-.5-.5-1-.5-1h-1-1-1-1l-.5-.5-.5-.5h-1-1l-1 .5-1 .5h-1-1-1-1l-.5.5-.5.5h-1-1l-1 1-1 1v2 2l2.5.5 2.5.5 1.5-.5 1.5-.5h1.5 1.5l1 .5 1 .5 1 .5 1 .5"/></g><path d="m279 858l2-1 .5-1.5.5-1.5v-2.5-2.5l1-1 1-1 1.5-1 1.5-1v-2-2l.5-2 .5-2 .5-1.5.5-1.5.5-1 .5-1v-1-1l-.5-1-.5-1 .5-1 .5-1-.5-2.5-.5-2.5v-2-2l-5 20.5-5 20.5" style="fill:#5b96ce;stroke:#5b96ce"/><path d="m556 855h2 2 2l2-.5 2-.5 1-1 1-1 1-1.5 1-1.5.5-1 .5-1v-1.5-1.5l-.5 1-.5 1v1 1h-1-1v-1-1-.5-.5l7.5-11.5 7.5-11.5 11.5 4 11.5 4 10-3.5 10-3.5 13.5-4.5 13.5-4.5 11-19 11-19-9-3-9-3-2 5-2 5-5 10.5-5 10.5-9.5-14.5-9.5-14.5h-5.5-5.5l-1.5 3-1.5 3 3 14.5 3 14.5-11 2.5-11 2.5 2.5-6 2.5-6-7.5-8.5-7.5-8.5-7-1.5-7-1.5-4.5 5-4.5 5 8.5 10 8.5 10-10-.5-10-.5-5.5-9-5.5-9 .5 2.5.5 2.5-11.5 19.5-11.5 19.5 2.5-10.5 2.5-10.5-5.5-13-5.5-13-1 2.5-1 2.5-3 18-3 18 20.5 6.5 20.5 6.5 2-.5 2-.5h1 1l2-.5 2-.5h2 2l.5 2 .5 2-.5 1.5-.5 1.5-1 1.5-1 1.5-1.5.5-1.5.5-1.5-.5-1.5-.5-1.5-1.5-1.5-1.5-1.5.5-1.5.5-2-.5-2-.5 1-1 1-1 .5-1 .5-1-2 1-2 1-.5 2-.5 2v1 1l1 1 1 1 1.5.5 1.5.5 1 .5 1 .5h1.5 1.5" style="fill:#477aae;stroke:#477aae"/><path d="m558 850l3 1 1.5-.5 1.5-.5 1-1.5 1-1.5.5-1.5.5-1.5-.5-2-.5-2h-2-2l-2 .5-2 .5h-1-1l-2 .5-2 .5-.5.5-.5.5-.5 1-.5 1-1 1-1 1 2 .5 2 .5 1.5-.5 1.5-.5 1.5 1.5 1.5 1.5" style="fill:#5b96ce;stroke:#5b96ce"/><path d="m545 848l1 1 .5-2 .5-2 2-1 2-1 .5-.5.5-.5-20.5-6.5-20.5-6.5-1.5.5-1.5.5 18.5 9 18.5 9" style="fill:#3d628b;stroke:#3d628b"/><path d="m568 848h2v-1-1l.5-1 .5-1 27-5.5 27-5.5 13.5-7 13.5-7-15 5-15 5-17.5 3-17.5 3-9.5 5.5-9.5 5.5v1 1" style="fill:#2e4767;stroke:#2e4767"/><g style="fill:#3d628b;stroke:#3d628b"><path d="m568 845v1l9.5-5.5 9.5-5.5 17.5-3 17.5-3 15-5 15-5 13.5-30.5 13.5-30.5v2 2 1 1 1 1l-.5.5-.5.5v-1.5-1.5-2-2l-.5-2-.5-2-.5-1.5-.5-1.5-.5-2-.5-2-.5-1.5-.5-1.5-1.5-1.5-1.5-1.5.5 1 .5 1v1 1l1 .5 1 .5.5 1.5.5 1.5v1 1 1 1 1 1l.5 1 .5 1v1 1 1 1 1 1 1.5 1.5 1 1 1 1 1 1l-.5 1-.5 1-11 19-11 19-13.5 4.5-13.5 4.5-10 3.5-10 3.5-11.5-4-11.5-4-7.5 11.5-7.5 11.5"/><path d="m290 844l3 1 .5-1.5.5-1.5 1-2 1-2v-1.5-1.5l1-2 1-2v-.5-.5l3-1 3-1h-1.5-1.5-1-1l-.5.5-.5.5-.5.5-.5.5-1.5-.5-1.5-.5-.5-1-.5-1-1.5-.5-1.5-.5 1 1.5 1 1.5v1 1l-.5 1.5-.5 1.5-.5 1-.5 1-.5.5-.5.5v2 2l.5 1 .5 1v.5.5"/></g><path d="m447 839l35-6h14 14l-13.5-6-13.5-6 3-6.5 3-6.5-16 7.5-16 7.5-1-.5-1-.5h-1-1v-.5-.5h-2-2-2-2l-1 .5-1 .5-1 1-1 1 3 7.5 3 7.5" style="fill:#171d24;stroke:#171d24"/><path d="m525 835l23-39-.5-2.5-.5-2.5 5.5 9 5.5 9 10 .5 10 .5-8.5-10-8.5-10 4.5-5 4.5-5 7 1.5 7 1.5 7.5 8.5 7.5 8.5-2.5 6-2.5 6 11-2.5 11-2.5-3-14.5-3-14.5 1.5-3 1.5-3h5.5 5.5l9.5 14.5 9.5 14.5 5-10.5 5-10.5 2-5 2-5 9 3 9 3v-.5-.5l-5-19-5-19-15 .5-15 .5-8-11-8-11-14.5-12.5-14.5-12.5-2-.5-2-.5h-1-1l-1-.5-1-.5-1.5.5-1.5.5-2-.5-2-.5-1.5-.5-1.5-.5-1.5.5-1.5.5-.5-.5-.5-.5-1-.5-1-.5-1.5-.5-1.5-.5h-1-1l-1-.5-1-.5-1.5-1-1.5-1-13 5.5-13 5.5-3-.5-3-.5-12.5-6-12.5-6 4-4.5 4-4.5-7-2.5-7-2.5-9 5.5-9 5.5-8.5 3.5-8.5 3.5 3 14.5 3 14.5-1 12.5-1 12.5 7 5.5 7 5.5-.5 15-.5 15v-.5-.5.5.5l-.5 1-.5 1-.5 1.5-.5 1.5v2 2l.5 2 .5 2-1 1-1 1v2.5 2.5 2 2l.5 2 .5 2 .5 1.5.5 1.5 1.5.5 1.5.5 12-2.5 12-2.5 5 11 5 11 3-18 3-18 1-2.5 1-2.5 5.5 13 5.5 13-2.5 10.5-2.5 10.5" style="fill:#5b96ce;stroke:#5b96ce"/><path d="m345 834l3 1 .5-1.5.5-1.5 1-1.5 1-1.5-.5-1.5-.5-1.5-1.5-1-1.5-1-1.5.5-1.5.5-1-1.5-1-1.5-.5 1.5-.5 1.5 1.5.5 1.5.5v2.5 2.5l.5 1.5.5 1.5" style="fill:#477aae;stroke:#477aae"/><path d="m0 833v1l11-12.5 11-12.5 9.5-14 9.5-14-20.5 24-20.5 24v2 2" style="fill:#443a44;stroke:#443a44"/><path d="m298 830v1l17-21.5 17-21.5-6-1.5-6-1.5-7 9-7 9-1 12.5-1 12.5-3 1-3 1" style="fill:#477aae;stroke:#477aae"/><path d="m294 829l3 1 .5-.5.5-.5.5-.5.5-.5h1 1 1.5 1.5l1-12.5 1-12.5-.5 1-.5 1-2 .5-2 .5-1 1-1 1-1.5.5-1.5.5-1 .5-1 .5-.5.5-.5.5-1 .5-1 .5-.5.5-.5.5v1 1l-.5 1-.5 1v2 2l.5 2.5.5 2.5 1.5.5 1.5.5.5 1 .5 1" style="fill:#2e4767;stroke:#2e4767"/><path d="m504 829l4 1 1.5-.5 1.5-.5-5-11-5-11-12 2.5-12 2.5h1 1l12.5 8.5 12.5 8.5" style="fill:#477aae;stroke:#477aae"/><path d="m0 828v1l20.5-24 20.5-24 1-2 1-2 .5-1.5.5-1.5 1.5-.5 1.5-.5 1.5-1 1.5-1 .5-1 .5-1 18.5-15 18.5-15 .5-1.5.5-1.5 1-1.5 1-1.5 1.5-.5 1.5-.5 1 .5 1 .5 1.5.5 1.5.5 2.5.5 2.5.5 10.5-1 10.5-1 5.5 12 5.5 12 1 1 1 1v1 1l-.5.5-.5.5-.5.5-.5.5-1 .5-1 .5-.5.5-.5.5-.5.5-.5.5-.5.5-.5.5-1 .5-1 .5-.5.5-.5.5-.5.5-.5.5h-1-1l-.5-.5-.5-.5 12-6.5 12-6.5 5.5-11.5 5.5-11.5 13-1.5 13-1.5 19.5-9.5 19.5-9.5v-.5-.5l14-10.5 14-10.5 11-10.5 11-10.5 21.5-15 21.5-15 .5-2 .5-2 .5-1.5.5-1.5 2-.5 2-.5-7.5-13.5-7.5-13.5-7-11.5-7-11.5-11-12.5-11-12.5-13.5-7-13.5-7-17.5-5.5-17.5-5.5-15-9.5-15-9.5-10.5-11-10.5-11-9-13.5-9-13.5-4.5-19.5-4.5-19.5 2.5-36.5 2.5-36.5v-.5-.5l.5-1 .5-1 .5-.5.5-.5v-1-1l.5-1 .5-1 .5-.5.5-.5-.5-1.5-.5-1.5-5.5 18.5-5.5 18.5-.5 21-.5 21v9 9l-7-.5-7-.5 8 22.5 8 22.5-1.5-12-1.5-12-2.5 2-2.5 2-8-9-8-9-6-3.5-6-3.5 3 4.5 3 4.5-7-2-7-2-12 6.5-12 6.5-2-6.5-2-6.5-7-5-7-5 10-.5 10-.5-2.5-2-2.5-2-10 2.5-10 2.5-7.5-5.5-7.5-5.5-12 3.5-12 3.5v25.5 25.5 24.5 24.5 24.5 24.5 24.5 24.5 24 24 24.5 24.5 24.5 24.5 24.5 24.5.5.5l1-.5 1-.5 2-.5 2-.5 1-1 1-1 1.5 1 1.5 1-.5 1.5-.5 1.5-1 1.5-1 1.5-1.5.5-1.5.5-1 .5-1 .5-.5-1.5-.5-1.5-1-.5-1-.5v3 3 .5.5" style="fill:#6e5834;stroke:#6e5834"/><path d="m295 826l20-22-11.5 10-11.5 10 1.5 1 1.5 1" style="fill:#171d24;stroke:#171d24"/><path d="m3 825l2-1 1.5-.5 1.5-.5 1-1.5 1-1.5.5-1.5.5-1.5-1.5-1-1.5-1-1 1-1 1-2 .5-2 .5-1 .5-1 .5v1 1l1 .5 1 .5.5 1.5.5 1.5" style="fill:#977241;stroke:#977241"/><path d="m76 825l34-31 12-12.5 12-12.5 14.5-10 14.5-10 15-9.5 15-9.5 15.5-9.5 15.5-9.5-19.5 9.5-19.5 9.5-13 1.5-13 1.5-5.5 11.5-5.5 11.5-12 6.5-12 6.5 1-1.5 1-1.5 1-1 1-1 1-1.5 1-1.5 1-1 1-1 2-1 2-1-5.5-12-5.5-12-5 20-5 20-10 12.5-10 12.5-9.5 13.5-9.5 13.5" style="fill:#443a44;stroke:#443a44"/><path d="m453 822h2l1 .5 1 .5 2.5-1 2.5-1 1.5-.5 1.5-.5 1.5-1 1.5-1 .5-1.5.5-1.5h1.5 1.5 2 2l1-.5 1-.5.5-1 .5-1h-1-1l-1 1-1 1-1.5-1-1.5-1-.5-1.5-.5-1.5-1.5-1-1.5-1 .5 1.5.5 1.5-.5 2-.5 2-.5 1.5-.5 1.5-1.5.5-1.5.5-1.5.5-1.5.5-.5 1-.5 1-.5.5-.5.5h-1-1l-2-.5-2-.5v.5.5" style="fill:#3d628b;stroke:#3d628b"/><g style="fill:#477aae;stroke:#477aae"><path d="m461 818v1l1.5-.5 1.5-.5 1.5-.5 1.5-.5.5-1.5.5-1.5.5-2 .5-2-.5-1.5-.5-1.5 1.5 1 1.5 1 .5 1.5.5 1.5 1.5 1 1.5 1 1-1 1-1-1.5-.5-1.5-.5-.5-1.5-.5-1.5-.5-2-.5-2v-2-2-2.5-2.5l1-1 1-1-.5-2-.5-2v-2-2l.5-1.5.5-1.5.5-1 .5-1 .5-15 .5-15-7-5.5-7-5.5 1-12.5 1-12.5-3-14.5-3-14.5 8.5-3.5 8.5-3.5 9-5.5 9-5.5 7 2.5 7 2.5-4 4.5-4 4.5 12.5 6 12.5 6 3 .5 3 .5 13-5.5 13-5.5v-.5-.5h-1.5-1.5l-1-.5-1-.5h-1.5-1.5l-1-1-1-1-1.5-.5-1.5-.5v-1-1l-.5-1-.5-1-1-1-1-1-2-1-2-1h-1.5-1.5l-2-.5-2-.5-1.5-.5-1.5-.5-1.5.5-1.5.5h-1-1l-1 .5-1 .5-1 1-1 1h-1-1l-1 .5-1 .5-2-.5-2-.5v-1-1-1-1l.5-.5.5-.5 1-1.5 1-1.5-14.5 2-14.5 2-1.5-.5-1.5-.5-.5-1.5-.5-1.5-.5-2-.5-2-1-1.5-1-1.5h-1.5-1.5l-1.5-1-1.5-1v-2.5-2.5l-1 1-1 1h-1-1l-1-1-1-1-1.5.5-1.5.5-1.5-1-1.5-1v-2-2l-.5-2-.5-2-1-1-1-1-.5-2-.5-2-.5-1.5-.5-1.5v-1.5-1.5-1.5-1.5l-1 1-1 1-1.5 1-1.5 1-.5 1.5-.5 1.5-1 14.5-1 14.5.5-1 .5-1-1.5-.5-1.5-.5-.5-1.5-.5-1.5-.5-2-.5-2v-1.5-1.5l7 10 7 10-5 3.5-5 3.5-2.5 8-2.5 8-15.5 13.5-15.5 13.5-8-20.5-8-20.5-13-15-13-15 .5 1.5.5 1.5.5 1 .5 1 2 1 2 1-.5 1-.5 1-1.5-.5-1.5-.5-1-1-1-1-1.5-1-1.5-1-1 1-1 1-.5 2-.5 2-1 1-1 1-2 1.5-2 1.5 18 11 18 11 12.5 18.5 12.5 18.5 7 6.5 7 6.5 6-4.5 6-4.5v10 10l3.5 11 3.5 11 4.5 4 4.5 4-5.5 5.5-5.5 5.5 12-.5 12-.5-5 16-5 16"/><path d="m338 814l14-29-1-10.5-1-10.5h17.5 17.5l-4.5-12-4.5-12 3.5-15 3.5-15-15 2.5-15 2.5 8 5 8 5 .5 13 .5 13-2.5 2-2.5 2-3-11.5-3-11.5-11.5 5.5-11.5 5.5 8.5 6 8.5 6-8 13-8 13 .5 16.5.5 16.5"/><path d="m422 805l3 1v-2-2l.5-2 .5-2 .5-1.5.5-1.5v-1.5-1.5l-1.5-.5-1.5-.5-1.5 1-1.5 1-.5.5-.5.5.5 1.5.5 1.5.5 2 .5 2v2 2"/></g><path d="m590 800h2l1-1 1-1v-1.5-1.5l-.5-1.5-.5-1.5-2 .5-2 .5-1-1-1-1-.5 1-.5 1v1 1l.5 1.5.5 1.5 1.5 1 1.5 1" style="fill:#3d628b;stroke:#3d628b"/><path d="m281 790v1l15-14 15-14-15 13.5-15 13.5" style="fill:#477aae;stroke:#477aae"/><path d="m56 778l32-39-18.5 15-18.5 15 1-.5 1-.5h1 1l.5-.5.5-.5.5-.5.5-.5.5 1 .5 1v1 1 1 1 1 1l-.5 1-.5 1-.5 1-.5 1" style="fill:#443a44;stroke:#443a44"/><path d="m675 775v1l.5-1 .5-1v-1-1-1-1-1-1-1.5-1.5-1-1-1-1-1-1l-.5-1-.5-1v-1-1-1-1-1-1l-.5-1.5-.5-1.5-1-.5-1-.5v-1-1l-.5-1-.5-1-1-.5-1-.5-1-1.5-1-1.5-1-1-1-1 5 19 5 19" style="fill:#477aae;stroke:#477aae"/><path d="m34 772l15-19-5 2.5-5 2.5 2-.5 2-.5 1-1 1-1 1 .5 1 .5 1 1 1 1-1 1.5-1 1.5-1 1-1 1-1.5 1-1.5 1-1 1-1 1h-1-1l-.5-1.5-.5-1.5v-2-2l-1 2-1 2-.5 2-.5 2-.5 1.5-.5 1.5.5.5.5.5" style="fill:#443a44;stroke:#443a44"/><path d="m125 770h2l.5-.5.5-.5.5-.5.5-.5 1-.5 1-.5.5-.5.5-.5.5-.5.5-.5.5-.5.5-.5 1-.5 1-.5.5-.5.5-.5.5-.5.5-.5v-1-1l-1-1-1-1-2 1-2 1-1 1-1 1-1 1.5-1 1.5-1 1-1 1-1 1.5-1 1.5.5.5.5.5" style="fill:#7c6f67;stroke:#7c6f67"/><path d="m38 767h2l1-1 1-1 1.5-1 1.5-1 1-1 1-1 1-1.5 1-1.5-1-1-1-1-1-.5-1-.5-1 1-1 1-2 .5-2 .5-1 1-1 1v2 2l.5 1.5.5 1.5" style="fill:#171d24;stroke:#171d24"/><path d="m678 767l1-1v-1-1-1-1-2-2l-.5-1-.5-1v-1-1-1-1l-.5-1-.5-1v-1-1l-.5-.5-.5-.5v-1-1l-1-1-1-1-.5-1-.5-1-.5-.5-.5-.5v-1-1l-1-1-1-1-1-.5-1-.5-1.5-.5-1.5-.5-.5-1-.5-1 1.5-.5 1.5-.5-.5-.5-.5-.5-1 .5-1 .5-1.5-.5-1.5-.5v1 1l-1-.5-1-.5v-1.5-1.5l-18-10.5-18-10.5-14-9.5-14-9.5-1.5-.5-1.5-.5h-1-1l-3-.5-3-.5h-1.5-1.5l-1-.5-1-.5-18-7-18-7-9-7.5-9-7.5-3.5-14-3.5-14-.5-.5-.5-.5-1-1-1-1-1-.5-1-.5-.5-1.5-.5-1.5-.5-.5-.5-.5-.5-1-.5-1-1-1-1-1-.5-1-.5-1-1-.5-1-.5-.5-.5-.5-.5-.5-1-.5-1-1-1-1-1-.5.5-.5.5h-.5-.5l-1 1-1 1h-1-1-1-1-1-1-1.5-1.5l-1-.5-1-.5-1 1-1 1-.5 1-.5 1h1.5 1.5l.5-1 .5-1h2 2l.5.5.5.5 1 .5 1 .5 1.5-.5 1.5-.5 1.5-.5 1.5-.5h1 1l1 1 1 1 1 .5 1 .5.5 1 .5 1 1 2 1 2 1 1.5 1 1.5 1 1.5 1 1.5 1 1.5 1 1.5-1.5 17-1.5 17-.5 2.5-.5 2.5.5 1 .5 1h2 2l1-1.5 1-1.5 1.5-.5 1.5-.5h2.5 2.5l1.5.5 1.5.5 2 .5 2 .5 1.5.5 1.5.5 2 1 2 1 1 1 1 1 .5 1 .5 1v1 1l1.5.5 1.5.5 1 1 1 1h1.5 1.5l1 .5 1 .5h1.5 1.5l1 .5 1 .5 1 .5 1 .5 2 .5 2 .5h2 2l1.5.5 1.5.5 2 .5 2 .5 1.5.5 1.5.5h2.5 2.5 2 2l1.5 1 1.5 1 2 1 2 1 15.5 9.5 15.5 9.5 1.5 1 1.5 1 1 1 1 1 1 1 1 1 .5.5.5.5.5 1 .5 1 1.5.5 1.5.5.5 1.5.5 1.5 1 2 1 2 2 .5 2 .5 1.5.5 1.5.5 1.5 1 1.5 1h1 1l2 .5 2 .5 1.5.5 1.5.5 2 .5 2 .5 1 1 1 1 1 1 1 1 1 1.5 1 1.5 1 .5 1 .5 1.5 1.5 1.5 1.5.5 1.5.5 1.5.5 2 .5 2 .5 1.5.5 1.5.5 2 .5 2v2 2 1.5 1.5" style="fill:#2e4767;stroke:#2e4767"/><g style="fill:#477aae;stroke:#477aae"><path d="m321 766h2l1-1 1-1 .5-2 .5-2v-2-2-.5-.5l-1.5.5-1.5.5-2 1-2 1 .5 1.5.5 1.5v1.5 1.5l.5 1 .5 1"/><path d="m431 766l2-6h-.5-.5l-.5 1.5-.5 1.5v1.5 1.5"/><path d="m575 765h2 2 2l-.5-2-.5-2 1.5-.5 1.5-.5v-1.5-1.5l-1-1-1-1-.5-2-.5-2v-1-1l-.5-.5-.5-.5-.5 1.5-.5 1.5-1 .5-1 .5-1 1-1 1-.5.5-.5.5-.5 1-.5 1-2-.5-2-.5-1-.5-1-.5h-2.5-2.5l-1.5-.5-1.5-.5-2-.5-2-.5-1.5-.5-1.5-.5-1-1-1-1v-1.5-1.5l1-1 1-1 1-.5 1-.5.5-1 .5-1 6.5 8.5 6.5 8.5 4 3 4 3"/><path d="m427 760l3 1 1-.5 1-.5-1-2-1-2-1.5-.5-1.5-.5-1-1.5-1-1.5-1-1-1-1-1 1.5-1 1.5.5 1.5.5 1.5 1 1 1 1 1.5 1 1.5 1"/></g><path d="m568 756l4 1 .5-1 .5-1 .5-.5.5-.5 1-1 1-1h-1.5-1.5l-1.5 1-1.5 1h-1-1l-1-.5-1-.5-.5.5-.5.5-.5-.5-.5-.5h-1-1-1-1-1-1l-1-.5-1-.5h-1-1l-.5-.5-.5-.5h-1-1l-.5-1-.5-1v-1-1l.5-.5.5-.5 1-1 1-1-1 .5-1 .5-1 1-1 1v1.5 1.5l1 1 1 1 1.5.5 1.5.5 2 .5 2 .5 1.5.5 1.5.5h2.5 2.5l1 .5 1 .5" style="fill:#3d628b;stroke:#3d628b"/><path d="m568 754h2l1.5-1 1.5-1h1.5 1.5v-.5-.5l1-1 1-1-1-.5-1-.5-.5-.5-.5-.5h-1-1l-.5-.5-.5-.5-.5-.5-.5-.5-1-.5-1-.5-.5-.5-.5-.5h-1-1-1-1-1-1-1.5-1.5-1-1-1-1l-1 .5-1 .5-1 1-1 1-.5.5-.5.5v1 1l.5 1 .5 1h1 1l.5.5.5.5h1 1l1 .5 1 .5h1 1 1 1 1 1l.5.5.5.5.5-.5.5-.5 1 .5 1 .5" style="fill:#2e4767;stroke:#2e4767"/><path d="m62 751l23-19-1 .5-1 .5.5 1 .5 1-.5 1-.5 1-1.5 1-1.5 1-1.5-.5-1.5-.5-1 1.5-1 1.5-1.5.5-1.5.5-1-.5-1-.5-1 1-1 1-.5 1.5-.5 1.5-1 1.5-1 1.5-1 1-1 1h-.5-.5" style="fill:#977241;stroke:#977241"/><path d="m576 751v1l1-.5 1-.5.5-1.5.5-1.5-1.5-1-1.5-1-1.5-.5-1.5-.5-1.5-1-1.5-1-1-1-1-1-2-.5-2-.5-1.5-.5-1.5-.5h-1-1l-1.5 1-1.5 1-1 .5-1 .5-.5 1-.5 1 1-.5 1-.5h1 1 1 1 1.5 1.5 1 1 1 1 1 1l.5.5.5.5 1 .5 1 .5.5.5.5.5.5.5.5.5h1 1l.5.5.5.5 1 .5 1 .5-1 1-1 1" style="fill:#3d628b;stroke:#3d628b"/><path d="m118 743h2l1.5-.5 1.5-.5-.5-2-.5-2 1-1 1-1 .5-1.5.5-1.5-10.5 1-10.5 1 1.5-1 1.5-1v1 1l-.5 1.5-.5 1.5v1.5 1.5l.5-.5.5-.5 1.5-.5 1.5-.5 1 1 1 1 1.5 1 1.5 1h1.5 1.5" style="fill:#443a44;stroke:#443a44"/><path d="m334 742v1h1 1l-1-1.5-1-1.5-.5-2-.5-2v-1-1l-1-1.5-1-1.5h-2-2l-1-1.5-1-1.5-1 1-1 1-1-1-1-1-1.5-1.5-1.5-1.5.5 1 .5 1 .5 1.5.5 1.5 1 1.5 1 1.5 1.5 1 1.5 1 1 1 1 1 1.5-1 1.5-1h1 1v2.5 2.5l1 1 1 1" style="fill:#477aae;stroke:#477aae"/><path d="m70 741l2 1 1.5-.5 1.5-.5 1-1.5 1-1.5 1.5.5 1.5.5 1.5-1 1.5-1 .5-1 .5-1-.5-1-.5-1-2 1-2 1-1.5.5-1.5.5-1.5 1-1.5 1-1 1-1 1-.5.5-.5.5" style="fill:#7c6f67;stroke:#7c6f67"/><path d="m635 738l30-1-1-1-1-1-2-.5-2-.5-1.5-.5-1.5-.5-2-.5-2-.5h-1-1l-1.5-1-1.5-1-1.5-.5-1.5-.5-2-.5-2-.5-1-2-1-2-1 .5-1 .5.5.5.5.5-.5 1-.5 1-.5 1.5-.5 1.5-.5.5-.5.5-1.5-1.5-1.5-1.5-.5-2-.5-2-1-1-1-1-1-1-1-1-.5-2-.5-2-.5-1.5-.5-1.5 1 .5 1 .5 1.5.5 1.5.5-1-1.5-1-1.5-1-1-1-1-15.5-9.5-15.5-9.5-1-.5-1-.5h-1-1l14.5 12.5 14.5 12.5 8 11 8 11" style="fill:#477aae;stroke:#477aae"/><path d="m668 735l2 1 1-.5 1-.5.5-.5.5-.5-.5-.5-.5-.5-1 .5-1 .5v-1-1l.5-.5.5-.5h-1-1l-.5-1-.5-1v-1-1l-.5-.5-.5-.5-.5-.5-.5-.5-.5 1.5-.5 1.5h-1.5-1.5l-.5-.5-.5-.5-1 .5-1 .5v1.5 1.5l1 .5 1 .5v-1-1l1.5.5 1.5.5 1-.5 1-.5.5.5.5.5-1.5.5-1.5.5.5 1 .5 1 1.5.5 1.5.5" style="fill:#443a44;stroke:#443a44"/><path d="m634 732l1-1 .5-1.5.5-1.5.5-1 .5-1-.5-.5-.5-.5 1-.5 1-.5-.5-1.5-.5-1.5-1.5-.5-1.5-.5-.5-1-.5-1-.5-.5-.5-.5-1-1-1-1-1-1-1-1-1.5-1-1.5-1 1 1 1 1 1 1.5 1 1.5-1.5-.5-1.5-.5-1-.5-1-.5.5 1.5.5 1.5.5 2 .5 2 1 1 1 1 1 1 1 1 .5 2 .5 2 1.5 1.5 1.5 1.5" style="fill:#5b96ce;stroke:#5b96ce"/><path d="m318 731l1 1 .5-1 .5-1-.5-1.5-.5-1.5-.5-1-.5-1-4-22.5-4-22.5v-1.5-1.5l.5-2 .5-2v-.5-.5l.5-1 .5-1 .5-.5.5-.5.5-1 .5-1 .5.5.5.5.5.5.5.5.5-.5.5-.5.5-1 .5-1v-1-1l-.5-.5-.5-.5h1 1 1.5 1.5l-.5-1-.5-1v-1.5-1.5l1.5-.5 1.5-.5 1 1 1 1 2-.5 2-.5h1.5 1.5l-1.5-.5-1.5-.5-.5-1-.5-1 .5-.5.5-.5v-1-1h1 1l1.5-.5 1.5-.5-15 25.5-15 25.5 6.5 14.5 6.5 14.5" style="fill:#443a44;stroke:#443a44"/><g style="fill:#977241;stroke:#977241"><path d="m100 730l29-7 17.5-1 17.5-1h9 9l.5-1 .5-1 1-1 1-1v-.5-.5l1-.5 1-.5 1.5-.5 1.5-.5h1 1l.5-.5.5-.5h-1-1v-.5-.5l.5-.5.5-.5h1 1l.5-.5.5-.5 1-.5 1-.5 1.5-.5 1.5-.5h1 1l1 .5 1 .5 1.5-.5 1.5-.5v-1-1l2 .5 2 .5v-.5-.5l-.5-.5-.5-.5h-2.5-2.5-2-2l.5-.5.5-.5-1-.5-1-.5-1.5.5-1.5.5-27.5 10-27.5 10-1-.5-1-.5h-1.5-1.5l-1-1-1-1h-2.5-2.5l-1-1-1-1-1.5.5-1.5.5-1.5-1-1.5-1-1-1-1-1-2-.5-2-.5-1-1.5-1-1.5-1 1.5-1 1.5h-2-2l-1 1-1 1-1.5 1-1.5 1-1.5.5-1.5.5-1.5 1-1.5 1-1 1-1 1v1.5 1.5l1.5.5 1.5.5 1 1 1 1"/><path d="m190 727l28-18 2.5-1.5 2.5-1.5h-1-1l-1 1-1 1-1.5.5-1.5.5-1.5 1-1.5 1-1 1-1 1h-2-2l-2 1.5-2 1.5-1.5 1.5-1.5 1.5-.5 1.5-.5 1.5-1.5 1-1.5 1-1.5.5-1.5.5-1.5-.5-1.5-.5-2-1-2-1h-2-2l.5 1 .5 1 1.5.5 1.5.5 1.5 1 1.5 1h.5.5"/></g><path d="m142 724l55-20h-1-1l-1 .5-1 .5-1.5 1-1.5 1-1.5.5-1.5.5-1.5 1-1.5 1-1.5.5-1.5.5h-1-1l-1.5-1.5-1.5-1.5-1 1-1 1-1.5.5-1.5.5-1 .5-1 .5h-2-2l-1 2-1 2-1 .5-1 .5-1 .5-1 .5-.5.5-.5.5-1 .5-1 .5-1.5.5-1.5.5h-1.5-1.5l-1.5.5-1.5.5-1.5-.5-1.5-.5-2-1-2-1-1.5-.5-1.5-.5-1-.5-1-.5-1.5.5-1.5.5-.5-.5-.5-.5-2.5-1-2.5-1h-1.5-1.5l-1-.5-1-.5-1.5-.5-1.5-.5v-1-1l1.5-1 1.5-1 1.5-.5 1.5-.5 1.5.5 1.5.5.5 1 .5 1 2 .5 2 .5 2 .5 2 .5 1 .5 1 .5 1.5-.5 1.5-.5h1.5 1.5 1 1 1 1l1.5-.5 1.5-.5-2.5-.5-2.5-.5v-.5-.5h-2.5-2.5-2-2l-1.5-1-1.5-1-1.5-.5-1.5-.5-1.5-1-1.5-1h-2-2l-2 .5-2 .5-1.5.5-1.5.5-1 1-1 1-.5 1.5-.5 1.5 1 1.5 1 1.5 2 .5 2 .5 1 1 1 1 1.5 1 1.5 1 1.5-.5 1.5-.5 1 1 1 1h2.5 2.5l1 1 1 1h1.5 1.5l1 .5 1 .5" style="fill:#b58d47;stroke:#b58d47"/><path d="m190 724l3 1 1.5-.5 1.5-.5 1.5-1 1.5-1 .5-1.5.5-1.5 1.5-1.5 1.5-1.5h-1.5-1.5l-2-.5-2-.5-1 1-1 1h-2-2l-.5.5-.5.5-.5 1-.5 1h-1.5-1.5v-1.5-1.5l-1 1-1 1-.5 1-.5 1v.5.5h2 2l2 1 2 1" style="fill:#c0ae86;stroke:#c0ae86"/><path d="m144 721l3 1 1.5-.5 1.5-.5h1.5 1.5l1.5-.5 1.5-.5 1-.5 1-.5.5-.5.5-.5 1-.5 1-.5 1-.5 1-.5-1-.5-1-.5-.5-.5-.5-.5h-1-1l-.5-.5-.5-.5-1 .5-1 .5h-2-2-1-1l1 .5 1 .5 1 1 1 1h-1-1l-1 .5-1 .5h-1.5-1.5v-1-1l-1.5-.5-1.5-.5-1 1-1 1-1.5-1.5-1.5-1.5-1-.5-1-.5-2-.5-2-.5-2-.5-2-.5-.5 1-.5 1-.5 1-.5 1 2.5 1 2.5 1 .5.5.5.5 1.5-.5 1.5-.5 1 .5 1 .5 1.5.5 1.5.5 2 1 2 1" style="fill:#d7aa49;stroke:#d7aa49"/><path d="m185 720h3l.5-1 .5-1 .5-.5.5-.5h2 2l1-1 1-1 2 .5 2 .5h1.5 1.5l2-1.5 2-1.5v-.5-.5l2-.5 2-.5 1.5-1 1.5-1v-2-2-1.5-1.5l.5-1 .5-1-2.5.5-2.5.5-1.5.5-1.5.5 1 .5 1 .5 1.5.5 1.5.5-.5 1-.5 1v.5.5l-1.5 1-1.5 1-1 1-1 1h-1-1l-.5 1-.5 1h-2-2-1-1l-1 .5-1 .5-1.5.5-1.5.5-.5.5-.5.5h-1.5-1.5l-1.5.5-1.5.5v1.5 1.5" style="fill:#9d9183;stroke:#9d9183"/><path d="m409 719l31-27-.5-.5-.5-.5v-2.5-2.5-1-1-1-1-1-1l-.5-1-.5-1v-1-1-1-1-1-1-1.5-1.5l.5-1.5.5-1.5v-1-1l-.5-1-.5-1 .5-1.5.5-1.5v-1-1-1.5-1.5l-.5-1.5-.5-1.5-.5 26-.5 26-15.5 5-15.5 5-6.5-17.5-6.5-17.5 8 20.5 8 20.5" style="fill:#2e4767;stroke:#2e4767"/><path d="m146 718h3l1-.5 1-.5h1 1l-1-1-1-1-1-.5-1-.5h1 1 2 2l1-.5 1-.5.5.5.5.5h1 1l.5.5.5.5 1 .5 1 .5 1-2 1-2h2 2l1-.5 1-.5 1.5-.5 1.5-.5 1-1 1-1-1.5.5-1.5.5h-2.5-2.5-2-2l-1.5.5-1.5.5-2 .5-2 .5h-2-2l-1 .5-1 .5-1.5.5-1.5.5h-1-1-1-1-1.5-1.5l-1.5.5-1.5.5 1.5 1.5 1.5 1.5 1-1 1-1 1.5.5 1.5.5v1 1" style="fill:#c0ae86;stroke:#c0ae86"/><path d="m185 716v1l1.5-.5 1.5-.5h1.5 1.5l.5-.5.5-.5 1.5-.5 1.5-.5 1-.5 1-.5h1 1 2 2l.5-1 .5-1h1 1l1-1 1-1 1.5-1 1.5-1-2-.5-2-.5v1 1l-1.5.5-1.5.5-1-.5-1-.5h-1-1l-1.5.5-1.5.5-1 .5-1 .5-.5.5-.5.5h-1-1l-.5.5-.5.5v.5.5h1 1l-.5.5-.5.5h-1-1l-1.5.5-1.5.5-1 .5-1 .5" style="fill:#7c6f67;stroke:#7c6f67"/><g style="fill:#c0ae86;stroke:#c0ae86"><path d="m123 715h3l.5-1 .5-1 .5-1 .5-1-.5-1-.5-1-1.5-.5-1.5-.5-1.5.5-1.5.5-1.5 1-1.5 1v1 1l1.5.5 1.5.5 1 .5 1 .5"/><path d="m207 712v1h2 2l1-1 1-1 1.5-1 1.5-1 1.5-.5 1.5-.5 1-1 1-1v-.5-.5l1-.5 1-.5 1.5-1 1.5-1 1-1 1-1-1.5-.5-1.5-.5-2 .5-2 .5h-3-3l-.5 1-.5 1v1.5 1.5 2 2l-1.5 1-1.5 1-2 .5-2 .5"/></g><path d="m146 711l5 1 1-.5 1-.5h2 2l2-.5 2-.5 1.5-.5 1.5-.5h2 2 2.5 2.5l1.5-.5 1.5-.5 1-1.5 1-1.5-1.5.5-1.5.5-1.5.5-1.5.5h-2.5-2.5l-1.5.5-1.5.5h-2.5-2.5l-1.5.5-1.5.5-2 .5-2 .5h-2-2-1-1v.5.5" style="fill:#7c6f67;stroke:#7c6f67"/><path d="m179 711h2l1.5-.5 1.5-.5 1.5-1 1.5-1 1.5-.5 1.5-.5 1.5-1 1.5-1 1-.5 1-.5-1.5-.5-1.5-.5h-1-1l-1.5-.5-1.5-.5-2 .5-2 .5-1.5.5-1.5.5-1 .5-1 .5-1 1.5-1 1.5 1.5 1.5 1.5 1.5" style="fill:#c0ae86;stroke:#c0ae86"/><path d="m224 710v1l26.5-15 26.5-15 10-9.5 10-9.5 10-12 10-12-21.5 15-21.5 15-11 10.5-11 10.5-14 10.5-14 10.5" style="fill:#443a44;stroke:#443a44"/><path d="m463 708l18-4 2.5-4 2.5-4-10-.5-10-.5-1.5 6.5-1.5 6.5" style="fill:#477aae;stroke:#477aae"/><path d="m210 705l1 1 .5-1 .5-1-1.5-.5-1.5-.5-1-.5-1-.5 1.5-.5 1.5-.5 2.5-.5 2.5-.5 1.5-.5 1.5-.5h1.5 1.5l1.5-.5 1.5-.5 1.5-.5 1.5-.5h1 1 1.5 1.5l.5 1.5.5 1.5 1-1.5 1-1.5 1-1 1-1 1.5-1 1.5-1 1-1 1-1v-.5-.5l-1-1-1-1 1-.5 1-.5 1.5-.5 1.5-.5v-1.5-1.5l1.5-.5 1.5-.5 1-1.5 1-1.5 1.5-.5 1.5-.5 1 1 1 1-.5.5-.5.5-.5 1-.5 1h1.5 1.5l-7 .5-7 .5-17 7.5-17 7.5-15 3-15 3 1-.5 1-.5 1.5-.5 1.5-.5 2-.5 2-.5 1.5.5 1.5.5h1 1l1.5.5 1.5.5h1 1l1.5-.5 1.5-.5 1 .5 1 .5-.5.5-.5.5h2 2 2.5 2.5" style="fill:#7c6f67;stroke:#7c6f67"/><path d="m221 705v1h1 1l2-.5 2-.5 1.5-1 1.5-1 1-1 1-1 .5-.5.5-.5-.5-1.5-.5-1.5h-1.5-1.5-1-1l-1.5.5-1.5.5-1.5.5-1.5.5h-1.5-1.5l-1.5.5-1.5.5h3 3l2-.5 2-.5 1.5.5 1.5.5-1 1-1 1-1.5 1-1.5 1-1 .5-1 .5" style="fill:#9d9183;stroke:#9d9183"/><g style="fill:#443a44;stroke:#443a44"><path d="m640 703h2l-.5-1.5-.5-1.5-1-1.5-1-1.5-.5-1.5-.5-1.5-2-.5-2-.5-1 1-1 1 .5 2 .5 2 1 1 1 1 1.5.5 1.5.5 1 .5 1 .5"/><path d="m692 703l28-22v-3.5-3.5-2-2-2.5-2.5l-1 1-1 1-1.5 1-1.5 1h-1-1l-6.5-7-6.5-7-6 1-6 1-3-2.5-3-2.5-8.5-3-8.5-3 7-4.5 7-4.5 20.5-7 20.5-7v-1.5-1.5l-1.5-.5-1.5-.5h-1.5-1.5l-2-.5-2-.5-1-1-1-1-1.5-1-1.5-1-1-1-1-1-.5-1-.5-1h-1.5-1.5l-1.5-.5-1.5-.5h-1-1v2 2 .5.5 1.5 1.5l.5.5.5.5h1 1v1 1l.5 1 .5 1-.5.5-.5.5v1 1h-1-1l-1 .5-1 .5h-1-1l-.5.5-.5.5h-1-1-1.5-1.5-2-2l-1.5-.5-1.5-.5-3-.5-3-.5 1-1 1-1h2 2l2-.5 2-.5 1.5-.5 1.5-.5 2-.5 2-.5 1.5-1 1.5-1-17 2.5-17 2.5-1 1-1 1-1 .5-1 .5h-2-2l-.5-.5-.5-.5-.5 1-.5 1-1 .5-1 .5-1-.5-1-.5h-1.5-1.5-2-2l-1.5.5-1.5.5h-2-2l-6.5 18-6.5 18-7.5-6-7.5-6 .5-4.5.5-4.5-17-1.5-17-1.5 19.5-11 19.5-11-24-9-24-9-.5-1-.5-1-.5-1.5-.5-1.5-2-.5-2-.5-1-1-1-1 .5-1.5.5-1.5h1 1 1.5 1.5l1 1 1 1h1 1l1 .5 1 .5 1.5.5 1.5.5h1 1 1.5 1.5l1.5-.5 1.5-.5 1-1 1-1 2-1 2-1-1-1.5-1-1.5v1.5 1.5l-.5.5-.5.5h-1-1l-.5.5-.5.5-1 .5-1 .5h-1-1-1-1-1-1l-1.5-.5-1.5-.5-1-.5-1-.5-.5-.5-.5-.5-1-.5-1-.5-.5-.5-.5-.5.5-.5.5-.5h1 1l.5-.5.5-.5h1.5 1.5 1 1 1 1l.5-.5.5-.5.5.5.5.5h2.5 2.5l-17.5 2.5-17.5 2.5-11-12-11-12-9-13.5-9-13.5 1-23 1-23-.5 2-.5 2-.5 1.5-.5 1.5 1 1.5 1 1.5v2 2h-1-1l-1.5-.5-1.5-.5-.5-1.5-.5-1.5-.5-.5-.5-.5v-1.5-1.5l-.5-1.5-.5-1.5v-1-1-1.5-1.5l-.5-1.5-.5-1.5-.5-.5-.5-.5.5-1 .5-1 1.5.5 1.5.5 4-12 4-12v1.5 1.5h-1-1l-.5.5-.5.5-.5.5-.5.5h-1.5-1.5l-.5-.5-.5-.5h-1-1l-.5.5-.5.5-1.5-.5-1.5-.5 7-12.5 7-12.5 4.5-4.5 4.5-4.5 1-1.5 1-1.5v-.5-.5-.5-.5l-5.5-6-5.5-6-10-10.5-10-10.5-6.5 3-6.5 3-7.5-14.5-7.5-14.5-12-11.5-12-11.5-11 13.5-11 13.5-16 8.5-16 8.5-17 3.5-17 3.5-13.5-10.5-13.5-10.5-7.5 14-7.5 14-2 19.5-2 19.5-4 2.5-4 2.5-4.5-5-4.5-5-15 7.5-15 7.5-8 14.5-8 14.5 8 14 8 14-4.5 14-4.5 14-19-6.5-19-6.5-14-10-14-10-11-13.5-11-13.5-11.5-28-11.5-28 4.5 19.5 4.5 19.5 9 13.5 9 13.5 10.5 11 10.5 11 15 9.5 15 9.5 17.5 5.5 17.5 5.5 13.5 7 13.5 7 11 12.5 11 12.5 7 11.5 7 11.5 7.5 13.5 7.5 13.5 1.5 1 1.5 1-.5 1.5-.5 1.5-.5 2-.5 2-8-22.5-8-22.5-2.5-13.5-2.5-13.5 4.5-8 4.5-8-6.5-13-6.5-13 4.5-14 4.5-14 1.5-16 1.5-16 6-15.5 6-15.5 16-6.5 16-6.5 13.5 9.5 13.5 9.5 13.5 6 13.5 6 11 10.5 11 10.5-.5 8-.5 8-17.5-2-17.5-2-20 4.5-20 4.5-12.5 12-12.5 12-3.5 14.5-3.5 14.5 12 2.5 12 2.5 7.5 5 7.5 5 5-4.5 5-4.5-6.5-9-6.5-9 .5-17 .5-17 10.5 2 10.5 2 4 15 4 15 7 10.5 7 10.5 11-6.5 11-6.5 5-11.5 5-11.5 4-12.5 4-12.5 11.5 7 11.5 7 7.5 12 7.5 12 3.5 11.5 3.5 11.5-7.5 15-7.5 15 17.5 2 17.5 2 10.5-4 10.5-4-7.5 7-7.5 7 2.5 4.5 2.5 4.5-16.5 2.5-16.5 2.5 1 .5 1 .5h1.5 1.5 1 1 1 1 1 1l1-1 1-1h.5.5l.5-.5.5-.5 1 1 1 1 .5 1 .5 1 .5.5.5.5 1 .5 1 .5-.5-1.5-.5-1.5h1 1l1 .5 1 .5 1 1 1 1 .5.5.5.5h1 1 1 1v1.5 1.5l.5.5.5.5.5.5.5.5.5.5.5.5.5 1 .5 1-.5.5-.5.5v1 1l-1 1-1 1 3.5 14 3.5 14 10.5 1.5 10.5 1.5 7 7.5 7 7.5 12 6 12 6 3 .5 3 .5h1 1l1.5.5 1.5.5 16.5 3 16.5 3 9.5 3 9.5 3 12-2.5 12-2.5 10.5 4 10.5 4"/></g><path d="m376 697h3l1-.5 1-.5.5-.5.5-.5h2 2l1-.5 1-.5.5-.5.5-.5 1-1 1-1 1 1 1 1-.5-2-.5-2-.5-2-.5-2-2.5-1-2.5-1-.5 1.5-.5 1.5-1.5 1-1.5 1-.5-.5-.5-.5-1 1.5-1 1.5-1 1-1 1-1.5 1-1.5 1v1 1l1 .5 1 .5" style="fill:#477aae;stroke:#477aae"/><g style="fill:#3d628b;stroke:#3d628b"><path d="m439 691l1 1 2.5-8 2.5-8 5-3.5 5-3.5-7-10-7-10 .5-1 .5-1v-1.5-1.5l1-1 1-1 .5-.5.5-.5.5 1 .5 1 .5-1.5.5-1.5-.5-.5-.5-.5v-1.5-1.5l.5-1.5.5-1.5.5-1.5.5-1.5 1.5-1 1.5-1 1-1 1-1-1.5.5-1.5.5-1.5 1-1.5 1-1 1-1 1-1 .5-1 .5v-1-1l-1 1.5-1 1.5v1 1 1 1l-.5.5-.5.5-.5 1.5-.5 1.5v1.5 1.5 1 1l-.5 1-.5 1v1.5 1.5l.5 1.5.5 1.5v1.5 1.5 1 1l-.5 1.5-.5 1.5.5 1 .5 1v1 1l-.5 1.5-.5 1.5v1.5 1.5 1 1 1 1 1 1l.5 1 .5 1v1 1 1 1 1 1 2.5 2.5"/><path d="m592 691l2 1-2-1-2-1-1.5-1-1.5-1h-2-2-2.5-2.5l-1.5-.5-1.5-.5-2-.5-2-.5-1.5-.5-1.5-.5h-2-2l-2-.5-2-.5-1-.5-1-.5-1-.5-1-.5v.5.5l1.5 1 1.5 1 1 .5 1 .5h1 1l1.5.5 1.5.5 1 .5 1 .5.5.5.5.5 1.5-.5 1.5-.5 1.5.5 1.5.5 2 .5 2 .5 1.5-.5 1.5-.5 1 .5 1 .5h1 1l2 .5 2 .5h1 1"/></g><path d="m242 690v1l1-.5 1-.5 1-1 1-1 2-.5 2-.5 1-1 1-1 2-.5 2-.5v-.5-.5h-1.5-1.5l.5-1 .5-1 .5-.5.5-.5-1-1-1-1-1.5.5-1.5.5-1 1.5-1 1.5-1.5.5-1.5.5v1.5 1.5l-1.5.5-1.5.5-1 .5-1 .5 1 1 1 1" style="fill:#9d9183;stroke:#9d9183"/><path d="m349 688h2l.5-1.5.5-1.5.5-2 .5-2v-1-1l-1-1.5-1-1.5v-1-1l.5-1.5.5-1.5.5-1 .5-1-1 .5-1 .5-.5 1-.5 1-1 1.5-1 1.5-1 1-1 1 1.5 1.5 1.5 1.5-.5 1-.5 1v1 1l.5 2 .5 2" style="fill:#477aae;stroke:#477aae"/><g style="fill:#171d24;stroke:#171d24"><path d="m579 685l2 1h1.5 1.5l-12-6-12-6-7-7.5-7-7.5-10.5-1.5-10.5-1.5 9 7.5 9 7.5 18 7 18 7"/><path d="m670 685l-8-12-6-5.5-6-5.5 1-9.5 1-9.5-9.5 4-9.5 4 7 7.5 7 7.5-1.5 3-1.5 3 6.5 4.5 6.5 4.5 6.5 2 6.5 2"/></g><path d="m329 683h3l1.5-.5 1.5-.5 2-.5 2-.5 1.5-.5 1.5-.5 1-1 1-1 1-.5 1-.5-2.5.5-2.5.5-1.5.5-1.5.5-1 1-1 1h-2.5-2.5l-1.5-.5-1.5-.5-1.5-.5-1.5-.5-1.5-.5-1.5-.5-1-1-1-1-.5-.5-.5-.5-1 .5-1 .5-1.5-.5-1.5-.5h-1-1l-1 1-1 1v1.5 1.5l1.5-1.5 1.5-1.5 1 1 1 1 1.5 1 1.5 1h1 1l2 .5 2 .5h1 1l1.5.5 1.5.5" style="fill:#477aae;stroke:#477aae"/><path d="m328 680l3 1h2.5 2.5l1-1 1-1 1.5-.5 1.5-.5 2.5-.5 2.5-.5 1-1 1-1 1-1.5 1-1.5.5-1 .5-1 1-.5 1-.5 1-3 1-3 2-1.5 2-1.5 1-1 1-1 .5-2 .5-2 1-1 1-1 1.5 1 1.5 1 1 1 1 1 1.5.5 1.5.5.5-1 .5-1-2-1-2-1-18.5 5.5-18.5 5.5 2-.5 2-.5 2-.5 2-.5 1 1 1 1-1 1.5-1 1.5-1 1-1 1-2 .5-2 .5-1.5.5-1.5.5h-2-2l-2-.5-2-.5.5-1 .5-1 2-.5 2-.5 1-1 1-1 1-.5 1-.5h-1.5-1.5l-1 1-1 1-1.5.5-1.5.5-1.5 1-1.5 1-1 1-1 1h-1.5-1.5l-1.5.5-1.5.5-1 .5-1 .5-.5 2-.5 2 1-1 1-1h1 1l1.5.5 1.5.5 1-.5 1-.5.5.5.5.5 1 1 1 1 1.5.5 1.5.5 1.5.5 1.5.5" style="fill:#3d628b;stroke:#3d628b"/><path d="m311 672v1l1-.5 1-.5 1.5-.5 1.5-.5h1.5 1.5l1-1 1-1 1.5-1 1.5-1 1.5-.5 1.5-.5 1-1 1-1h1.5 1.5l18.5-5.5 18.5-5.5-.5-1-.5-1-.5-1.5-.5-1.5h-1.5-1.5-1-1-1.5-1.5l-1 1-1 1-2 .5-2 .5h-1-1-1-1l-2-.5-2-.5-1.5.5-1.5.5-2 .5-2 .5-1.5-.5-1.5-.5-1.5.5-1.5.5h-1-1v1 1l-.5.5-.5.5.5 1 .5 1 1.5.5 1.5.5.5 1 .5 1-1 1-1 1-2 .5-2 .5-1.5.5-1.5.5h-1.5-1.5v-.5-.5h-1.5-1.5-1-1l.5.5.5.5v1 1l-.5 1-.5 1-.5.5-.5.5-.5-.5-.5-.5-.5-.5-.5-.5-.5 1-.5 1-.5.5-.5.5-.5 1-.5 1" style="fill:#2e4767;stroke:#2e4767"/><path d="m509 672l4 1 1-.5 1-.5h1 1l1-1 1-1 1-.5 1-.5h1 1l1.5-.5 1.5-.5 1.5.5 1.5.5 2 .5 2 .5h1.5 1.5l-1.5-.5-1.5-.5-2-.5-2-.5-1.5-.5-1.5-.5h-2.5-2.5l-1.5.5-1.5.5-1 1.5-1 1.5h-2-2l-.5-1-.5-1 .5-2.5.5-2.5-1 1.5-1 1.5-.5.5-.5.5v1 1 1 1" style="fill:#3d628b;stroke:#3d628b"/><path d="m323 670l4 1h2 2l1.5-.5 1.5-.5 2-.5 2-.5 1-1 1-1 1-1.5 1-1.5-1-1-1-1-2 .5-2 .5-2 .5-2 .5-1 .5-1 .5-1 1-1 1-2 .5-2 .5-.5 1-.5 1" style="fill:#477aae;stroke:#477aae"/><path d="m713 669h2l1.5-1 1.5-1 1-1 1-1v-2-2-2.5-2.5-2-2-2.5-2.5-2-2-2-2-2.5-2.5-2-2-2.5-2.5-1-1l-20.5 7-20.5 7-7 4.5-7 4.5 8.5 3 8.5 3 3 2.5 3 2.5 6-1 6-1 6.5 7 6.5 7" style="fill:#171d24;stroke:#171d24"/><path d="m483 668l29-4 1.5-17 1.5-17-2 11-2 11-1.5-.5-1.5-.5-.5-.5-.5-.5-.5-1-.5-1h-1-1-1-1-1.5-1.5-2-2-1-1l-1-.5-1-.5-1-.5-1-.5-1.5-.5-1.5-.5-1.5.5-1.5.5-.5-.5-.5-.5-1-.5-1-.5-1.5-.5-1.5-.5-.5.5-.5.5-.5 1-.5 1-1.5.5-1.5.5-.5.5-.5.5-.5 1-.5 1v2.5 2.5l1.5 1 1.5 1h1.5 1.5l4.5 2 4.5 2-1.5-.5-1.5-.5h-1-1v-1-1l-2-.5-2-.5 1 1.5 1 1.5.5 2 .5 2 .5 1.5.5 1.5 1.5.5 1.5.5" style="fill:#3d628b;stroke:#3d628b"/><g style="fill:#171d24;stroke:#171d24"><path d="m322 664h3l1.5-.5 1.5-.5 2-.5 2-.5 1-1 1-1-.5-1-.5-1h-1.5-1.5l-2 .5-2 .5-1-1-1-1-1.5.5-1.5.5v1.5 1.5l.5 1 .5 1v.5.5"/><path d="m617 664l13-36-1.5-.5-1.5-.5-1-.5-1-.5-1.5-.5-1.5-.5-1.5-.5-1.5-.5-1-.5-1-.5-.5-.5-.5-.5-1-.5-1-.5-.5-.5-.5-.5h-1-1l-.5-.5-.5-.5-1-.5-1-.5-19.5 11-19.5 11 17 1.5 17 1.5-.5 4.5-.5 4.5 7.5 6 7.5 6"/></g><path d="m445 662l2-29-.5 1.5-.5 1.5v1.5 1.5l.5.5.5.5-.5 1.5-.5 1.5-.5-1-.5-1-.5.5-.5.5-1 1-1 1v1.5 1.5l-.5 1-.5 1v1.5 1.5l.5 2 .5 2 .5 1.5.5 1.5 1.5.5 1.5.5-.5 1-.5 1" style="fill:#5b96ce;stroke:#5b96ce"/><path d="m485 661l-9-4 2 .5 2 .5v1 1h1 1l1.5.5 1.5.5" style="fill:#2e4767;stroke:#2e4767"/><path d="m466 652h2l1-1 1-1 .5-1 .5-1 .5-.5.5-.5 1.5-.5 1.5-.5.5-1 .5-1 .5-.5.5-.5 1.5.5 1.5.5 1 .5 1 .5.5.5.5.5 1.5-.5 1.5-.5 1.5.5 1.5.5 1 .5 1 .5 11-10 11-10-1-1.5-1-1.5-1-1.5-1-1.5-1-2-1-2-17.5 6-17.5 6-1-1-1-1-1-1-1-1-1.5-1-1.5-1-1.5.5-1.5.5-1.5.5-1.5.5h-2-2l-1 .5-1 .5v1.5 1.5 1.5 1.5l.5 1.5.5 1.5.5 2 .5 2 1 1 1 1 .5 2 .5 2v2 2l1.5 1 1.5 1 1.5-.5 1.5-.5 1 1 1 1" style="fill:#5b96ce;stroke:#5b96ce"/><path d="m511 652l4-22-1-1.5-1-1.5-11 10-11 10 1 .5 1 .5h1 1 2 2 1.5 1.5 1 1 1 1l.5 1 .5 1 .5.5.5.5 1.5.5 1.5.5" style="fill:#477aae;stroke:#477aae"/><path d="m318 639l3 1 1.5-.5 1.5-.5.5-2 .5-2 .5-1.5.5-1.5-1.5-1-1.5-1-2 .5-2 .5-.5 1.5-.5 1.5-.5 2-.5 2 .5.5.5.5" style="fill:#7c6f67;stroke:#7c6f67"/><path d="m443 632l2-1 1-1 1-1 1.5-1 1.5-1 1.5-.5 1.5-.5 1-.5 1-.5h1.5 1.5l.5-.5.5-.5 1-1 1-1v-.5-.5l1.5-.5 1.5-.5 1.5-.5 1.5-.5 2-.5 2-.5 2-.5 2-.5h-1-1-2-2l-2 .5-2 .5-1.5.5-1.5.5-1.5 1-1.5 1-1.5.5-1.5.5-1.5.5-1.5.5-1.5 1-1.5 1-1.5.5-1.5.5-1 1.5-1 1.5-1 .5-1 .5v1 1" style="fill:#2e4767;stroke:#2e4767"/><path d="m472 629l35-12-.5-1-.5-1-1-.5-1-.5-21.5 4-21.5 4-1 1-1 1-.5.5-.5.5h-1.5-1.5 2 2l1.5-.5 1.5-.5 1.5-.5 1.5-.5 1.5 1 1.5 1 1 1 1 1 1 1 1 1" style="fill:#477aae;stroke:#477aae"/><path d="m646 628l2-1 .5-1 .5-1 .5.5.5.5h2 2l1-.5 1-.5 1-1 1-1v-.5-.5l1-1 1-1-.5-1-.5-1v-1-1h1 1l.5-.5.5-.5.5-.5.5-.5v-1-1l1-.5 1-.5 1 .5 1 .5v-1-1l-1-.5-1-.5-1-.5-1-.5-1.5-.5-1.5-.5h-1-1l.5 1.5.5 1.5-.5 1.5-.5 1.5-.5.5-.5.5-.5 1-.5 1-1.5.5-1.5.5-1.5 1-1.5 1-1 1-1 1-2 .5-2 .5-1.5.5-1.5.5h-1-1v-.5-.5-1.5-1.5l1-.5 1-.5 1.5-.5 1.5-.5 1.5-.5 1.5-.5v-1-1l1-.5 1-.5 1.5-.5 1.5-.5.5-1 .5-1-15 1-15 1 7 7.5 7 7.5h2 2 1.5 1.5l1 .5 1 .5" style="fill:#7c6f67;stroke:#7c6f67"/><path d="m517 627l1 1 1-1 1-1v-1-1l.5-.5.5-.5-.5-1-.5-1-.5-.5-.5-.5-.5-.5-.5-.5-.5-.5-.5-.5v-1.5-1.5h-1-1-1-1l-.5-.5-.5-.5-1-1-1-1-1-.5-1-.5h-1-1l.5 1.5.5 1.5.5 1 .5 1 1 1 1 1 .5 1 .5 1 .5.5.5.5.5 1.5.5 1.5 1 .5 1 .5 1 1 1 1" style="fill:#171d24;stroke:#171d24"/><path d="m627 627l3 1h2 2l1.5-.5 1.5-.5-7-7.5-7-7.5-1 1.5-1 1.5-1 .5-1 .5 1 .5 1 .5.5 1 .5 1v1 1l.5.5.5.5.5.5.5.5h-1-1-1-1-1.5-1.5l1 .5 1 .5 1.5.5 1.5.5 1.5.5 1.5.5 1 .5 1 .5" style="fill:#9d9183;stroke:#9d9183"/><g style="fill:#7c6f67;stroke:#7c6f67"><path d="m678 626l3 1h2 2 1.5 1.5 1 1l.5-.5.5-.5h1 1l1-.5 1-.5h1 1v-1-1l.5-.5.5-.5-.5-1-.5-1v-1-1h-1-1l-.5-.5-.5-.5v-1.5-1.5h-1-1l-.5.5-.5.5.5.5.5.5v1 1l-1.5 1-1.5 1-2 .5-2 .5-1.5.5-1.5.5-2 .5-2 .5h-2-2l-1 1-1 1 3 .5 3 .5"/><path d="m622 623h2l-.5-.5-.5-.5-.5-.5-.5-.5v-1-1l-.5-1-.5-1-1-.5-1-.5h-2-2-1-1l-8-7-8-7v1.5 1.5 1 1l.5.5.5.5h1.5 1.5l.5 1.5.5 1.5h1 1v1 1l.5.5.5.5 1 .5 1 .5.5.5.5.5h1 1l.5.5.5.5.5 1 .5 1 1.5.5 1.5.5h1 1l.5 1 .5 1 1 .5 1 .5h1 1"/></g><path d="m639 623h2l1.5-.5 1.5-.5 2-.5 2-.5 1-1 1-1 1.5-1 1.5-1 1.5-.5 1.5-.5.5-1 .5-1 .5-.5.5-.5.5-1.5.5-1.5-.5-1.5-.5-1.5-1 1.5-1 1.5h-1.5-1.5l-.5 1-.5 1-1.5.5-1.5.5-1 .5-1 .5v1 1l-1.5.5-1.5.5-1.5.5-1.5.5-1 .5-1 .5v1.5 1.5.5.5" style="fill:#9d9183;stroke:#9d9183"/><g style="fill:#6e5834;stroke:#6e5834"><path d="m616 622l1 1h1.5 1.5l-1-.5-1-.5-.5-1-.5-1h-1-1l-1.5-.5-1.5-.5-.5-1-.5-1-.5-.5-.5-.5h-1-1l-.5-.5-.5-.5-1-.5-1-.5-.5-.5-.5-.5v-1-1h-1-1l-.5-1.5-.5-1.5h-1.5-1.5l-.5-.5-.5-.5v-1-1-1.5-1.5l-2-.5-2-.5-2 .5-2 .5h-1.5-1.5l-1.5.5-1.5.5-1 1.5-1 1.5-1.5.5-1.5.5h-1-1l-1-1.5-1-1.5-1.5 1-1.5 1h-1-1l-1.5-1-1.5-1-1.5-.5-1.5-.5-1.5-1.5-1.5-1.5 24 9 24 9 1 .5 1 .5.5.5.5.5h1 1l.5.5.5.5 1 .5 1 .5"/><path d="m658 622v1l17-2.5 17-2.5v-1-1l-.5-.5-.5-.5.5-.5.5-.5h1 1v-.5-.5-2-2h1 1l1.5.5 1.5.5h1.5 1.5l-17.5 1-17.5 1-1-.5-1-.5-1 .5-1 .5v1 1l-.5.5-.5.5-.5.5-.5.5h-1-1v1 1l.5 1 .5 1-1 1-1 1"/></g><path d="m461 621v1l21.5-4 21.5-4-1-1-1-1h-1-1l-1.5.5-1.5.5-1.5.5-1.5.5-1-.5-1-.5-.5-.5-.5-.5h-2-2l-.5 1-.5 1h-1.5-1.5l-2 1-2 1-2 .5-2 .5-2 .5-2 .5-2 .5-2 .5-1.5.5-1.5.5-1.5.5-1.5.5" style="fill:#3d628b;stroke:#3d628b"/><path d="m717 619l3 1v-2-2l-.5-.5-.5-.5-1-.5-1-.5-1-.5-1-.5-1.5-.5-1.5-.5-.5-.5-.5-.5-.5-.5-.5-.5h-1-1l-1-.5-1-.5-.5-.5-.5-.5h-1-1l-.5-.5-.5-.5-1-.5-1-.5-1-1-1-1-.5-.5-.5-.5.5-1 .5-1v-2-2h-1-1l-1.5-.5-1.5-.5.5 2 .5 2h-1-1l-2-.5-2-.5h-1-1l-.5.5-.5.5-1.5-1-1.5-1 1-1 1-1v-1-1h1.5 1.5l1 1 1 1 1-1.5 1-1.5-.5-1.5-.5-1.5-.5-1-.5-1-.5-.5-.5-.5.5-.5.5-.5v-.5-.5h-1.5-1.5-2-2l-7.5 12.5-7.5 12.5v1 1l17.5-1 17.5-1 .5 1 .5 1 1 1 1 1 1.5 1 1.5 1 1 1 1 1 2 .5 2 .5h1.5 1.5" style="fill:#b58d47;stroke:#b58d47"/><path d="m613 616h2 2 2v-.5-.5h-2-2l-.5-.5-.5-.5-.5-.5-.5-.5 1-.5 1-.5.5-.5.5-.5.5-.5.5-.5.5-.5.5-.5-1-.5-1-.5-.5-.5-.5-.5v-1-1h1 1l.5-1 .5-1 1-1 1-1 .5-1.5.5-1.5h-2-2l-1.5.5-1.5.5h-1-1l-1.5-.5-1.5-.5v-.5-.5l-.5-1.5-.5-1.5-.5-.5-.5-.5-1 1-1 1-.5.5-.5.5-.5.5-.5.5-1 .5-1 .5h-1-1-1-1-2-2v1.5 1.5l2 .5 2 .5 8 7 8 7" style="fill:#9d9183;stroke:#9d9183"/><g style="fill:#c0ae86;stroke:#c0ae86"><path d="m619 615v1l1-.5 1-.5 1-1.5 1-1.5 15-1 15-1h1.5 1.5l1-1.5 1-1.5h1 1l1.5.5 1.5.5 1 .5 1 .5 1 .5 1 .5 7.5-12.5 7.5-12.5-30.5 6.5-30.5 6.5-.5 1.5-.5 1.5-1 1-1 1-.5 1-.5 1h-1-1v1 1l.5.5.5.5 1 .5 1 .5-.5.5-.5.5-.5.5-.5.5-.5.5-.5.5-1 .5-1 .5.5.5.5.5.5.5.5.5h2 2"/><path d="m719 615l1 1v-1.5-1.5l-1.5-.5-1.5-.5-1-1-1-1v-1-1l-1-1.5-1-1.5-1.5-.5-1.5-.5-2-.5-2-.5-1-.5-1-.5-1.5-1-1.5-1v-1-1l.5-1 .5-1 1.5-.5 1.5-.5.5-.5.5-.5h1.5 1.5 1 1l2 .5 2 .5 2.5-.5 2.5-.5v-1.5-1.5-2-2-1-1l-1.5.5-1.5.5h-1.5-1.5l-2-.5-2-.5-1.5-.5-1.5-.5v-1-1l.5-.5.5-.5v-1.5-1.5l.5-.5.5-.5.5-.5.5-.5.5.5.5.5.5.5.5.5h.5.5 1 1l.5-.5.5-.5h2 2v-2.5-2.5-.5-.5l-1 .5-1 .5h-1-1l-1 .5-1 .5h-1-1-1-1-1-1l-1 .5-1 .5-.5.5-.5.5-.5.5-.5.5h-1-1l-1 .5-1 .5-.5.5-.5.5-.5.5-.5.5-.5.5-.5.5h-1-1l-1 .5-1 .5-.5.5-.5.5-.5.5-.5.5-1 1-1 1v.5.5l-.5.5-.5.5.5.5.5.5.5 1 .5 1 .5 1.5.5 1.5 1 1.5 1 1.5 1.5.5 1.5.5h1 1v2 2l-.5 1-.5 1 .5.5.5.5 1 1 1 1 1 .5 1 .5.5.5.5.5h1 1l.5.5.5.5 1 .5 1 .5h1 1l.5.5.5.5.5.5.5.5 1.5.5 1.5.5 1 .5 1 .5 1 .5 1 .5"/></g><path d="m717 612l3 1v-2-2-2.5-2.5-2-2-1.5-1.5h-2.5-2.5l-.5 2-.5 2-.5.5-.5.5h-1-1-3.5-3.5l1 .5 1 .5 2 .5 2 .5 1.5.5 1.5.5 1 1.5 1 1.5v1 1l1 1 1 1" style="fill:#977241;stroke:#977241"/><path d="m576 607h2l1.5-.5 1.5-.5 1-1.5 1-1.5 1.5-.5 1.5-.5h1.5 1.5l2-.5 2-.5v-1.5-1.5h-.5-.5-1.5-1.5l-1 .5-1 .5h-1-1-1.5-1.5l-1.5.5-1.5.5h-1-1l-1-.5-1-.5h-1.5-1.5l-1.5-.5-1.5-.5-1.5-.5-1.5-.5.5-.5.5-.5 1-.5 1-.5 1.5-1 1.5-1h-1.5-1.5-1-1l-1.5-.5-1.5-.5-1-.5-1-.5h-1-1l-1-1-1-1h-1.5-1.5-1-1l-.5 1.5-.5 1.5 1 1 1 1 2 .5 2 .5.5 1.5.5 1.5.5 1 .5 1 1.5 1.5 1.5 1.5 1.5.5 1.5.5 1.5 1 1.5 1h1 1l1.5-1 1.5-1 1 1.5 1 1.5" style="fill:#7c6f67;stroke:#7c6f67"/><path d="m663 605l3 1-.5-1.5-.5-1.5-1-1.5-1-1.5-1.5-.5-1.5-.5-2-.5-2-.5h-1-1l-.5 2-.5 2 1 1 1 1 1.5.5 1.5.5h2.5 2.5" style="fill:#ffffd4;stroke:#ffffd4"/><path d="m711 602h2l.5-.5.5-.5.5-2 .5-2h2.5 2.5v-1.5-1.5l-2.5.5-2.5.5-2-.5-2-.5h-1-1-1.5-1.5l-.5.5-.5.5-1.5.5-1.5.5-.5 1-.5 1v1 1l1.5 1 1.5 1h3.5 3.5" style="fill:#b58d47;stroke:#b58d47"/><g style="fill:#9d9183;stroke:#9d9183"><path d="m685 600l1-1h1 1l2 .5 2 .5h1 1l-.5-2-.5-2-1-1.5-1-1.5-1 1.5-1 1.5-1-1-1-1h-1.5-1.5v1 1l-1 1-1 1 1.5 1 1.5 1"/><path d="m572 599h3l1 .5 1 .5h1 1l1.5-.5 1.5-.5h1.5 1.5 1 1l1-.5 1-.5h1.5 1.5l-2.5-.5-2.5-.5-1.5.5-1.5.5-1.5.5-1.5.5-2-.5-2-.5-1-1-1-1-.5-.5-.5-.5 1-1 1-1h-2-2l-1.5 1-1.5 1-1 .5-1 .5-.5.5-.5.5 1.5.5 1.5.5 1.5.5 1.5.5"/></g><path d="m612 599h2l1.5-.5 1.5-.5h2 2l30.5-6.5 30.5-6.5h2 2 1.5 1.5l1-1 1-1 .5-.5.5-.5.5-.5.5-.5 1-.5 1-.5h1 1l.5-.5.5-.5.5-.5.5-.5.5-.5.5-.5 1-.5 1-.5h1 1l.5-.5.5-.5.5-.5.5-.5 1-.5 1-.5h1 1 1 1 1 1l1-.5 1-.5h1 1l1-.5 1-.5v-1-1l-17 7-17 7-16.5 1-16.5 1-8.5 3-8.5 3-1 1.5-1 1.5-.5.5-.5.5-1 .5-1 .5h-2-2-1-1-1.5-1.5-1.5-1.5-1.5-1.5l-.5.5-.5.5h-1-1l-.5.5-.5.5h-1.5-1.5l1.5.5 1.5.5" style="fill:#7c6f67;stroke:#7c6f67"/><path d="m577 598l4 1 1.5-.5 1.5-.5 1.5-.5 1.5-.5 2.5.5 2.5.5h.5.5 2 2 1 1 1 1l1-.5 1-.5.5-.5.5-.5.5-.5.5-.5 1-1 1-1h-15.5-15.5l-1 1-1 1 .5.5.5.5 1 1 1 1" style="fill:#c0ae86;stroke:#c0ae86"/><path d="m609 597v1h1.5 1.5l.5-.5.5-.5h1 1l.5-.5.5-.5h1.5 1.5l-1.5-.5-1.5-.5-.5-.5-.5-.5-.5 1-.5 1h-1.5-1.5l-1-.5-1-.5 1.5-1 1.5-1h2 2l2-.5 2-.5 1-1 1-1 2 .5 2 .5h2 2l2-.5 2-.5 1 .5 1 .5 8.5-3 8.5-3 16.5-1 16.5-1 17-7 17-7v-1.5-1.5l-11 1-11 1-12 2-12 2-2.5 2-2.5 2-12.5 2.5-12.5 2.5-4-6-4-6-6.5 4-6.5 4v-8-8l6.5-3 6.5-3 5.5 1 5.5 1 8.5-7 8.5-7 10-10 10-10 4-3.5 4-3.5 3 1.5 3 1.5 11-8 11-8v-3-3-2.5-2.5-2-2-2.5-2.5-2-2-2.5-2.5-2-2-2-2-2.5-2.5-2-2l-11 5.5-11 5.5-8 4.5-8 4.5-15.5 1.5-15.5 1.5-5 5.5-5 5.5 1 7.5 1 7.5-9-3.5-9-3.5-4 6.5-4 6.5-4.5 3-4.5 3-13 3.5-13 3.5-8 1-8 1-6 .5-6 .5-7.5-13.5-7.5-13.5-9.5 8.5-9.5 8.5-4.5 14.5-4.5 14.5-4.5-13-4.5-13 2-9.5 2-9.5 1-10 1-10 5-17 5-17-1-.5-1-.5-1-.5-1-.5-1-1-1-1-1.5-1-1.5-1-.5-1.5-.5-1.5-1-1.5-1-1.5.5-.5.5-.5h2.5 2.5l1-2 1-2-4.5 4.5-4.5 4.5.5 1 .5 1 .5.5.5.5 1 .5 1 .5.5.5.5.5v1 1 1 1h-1.5-1.5l-1.5.5-1.5.5-.5.5-.5.5h-1.5-1.5v1 1 1 1 1 1l.5.5.5.5 1 .5 1 .5 1 1 1 1-4 12-4 12 .5 1 .5 1 1.5 1 1.5 1 1 1.5 1 1.5-1 23-1 23 9 13.5 9 13.5 1-1.5 1-1.5 1.5.5 1.5.5h1 1l1-.5 1-.5 1.5.5 1.5.5.5.5.5.5-.5.5-.5.5-.5.5-.5.5h-1.5-1.5v1 1l-.5.5-.5.5v1 1l-1.5-.5-1.5-.5-1-.5-1-.5-1-2-1-2 11 12 11 12 17.5-2.5 17.5-2.5 1.5.5 1.5.5 1 1.5 1 1.5 13.5 3 13.5 3 .5 1.5.5 1.5" style="fill:#6e5834;stroke:#6e5834"/><path d="m611 596h3l.5-1 .5-1 .5.5.5.5 1.5.5 1.5.5h1.5 1.5 1.5 1.5 1 1 2 2l1-.5 1-.5.5-.5.5-.5 1-1.5 1-1.5-1-.5-1-.5-2 .5-2 .5h-2-2l-2-.5-2-.5-1 1-1 1-2 .5-2 .5h-2-2l-1.5 1-1.5 1 1 .5 1 .5" style="fill:#443a44;stroke:#443a44"/><path d="m655 594h2l1.5.5 1.5.5 1.5-1 1.5-1 1-1 1-1 1-1.5 1-1.5-1-1-1-1h-1.5-1.5l-1.5.5-1.5.5-1.5.5-1.5.5-1 1.5-1 1.5.5 1.5.5 1.5" style="fill:#f9ce52;stroke:#f9ce52"/><path d="m607 593l1 1-13.5-3-13.5-3-2 1-2 1-1 1-1 1-1.5.5-1.5.5h2 2 15.5 15.5" style="fill:#7c6f67;stroke:#7c6f67"/><path d="m564 590l3 1h1 1 1 1 1 1l1-.5 1-.5.5-.5.5-.5h1 1l.5-.5.5-.5v-1.5-1.5l-1.5-.5-1.5-.5h-2.5-2.5l-.5-.5-.5-.5-.5.5-.5.5h-1-1-1-1-1.5-1.5l-.5.5-.5.5h-1-1l-.5.5-.5.5.5.5.5.5 1 .5 1 .5.5.5.5.5 1 .5 1 .5" style="fill:#171d24;stroke:#171d24"/><path d="m710 585l4 1h1.5 1.5l1.5-.5 1.5-.5v-2.5-2.5-1.5-1.5h-2-2l-.5.5-.5.5h-1-1-.5-.5l-.5-.5-.5-.5-.5-.5-.5-.5-.5.5-.5.5-.5.5-.5.5v1.5 1.5l-.5.5-.5.5v1 1l1.5.5 1.5.5" style="fill:#b58d47;stroke:#b58d47"/><path d="m644 581l25-5 2.5-2 2.5-2 12-2 12-2 11-1 11-1v-25-25-6.5-6.5l-11 8-11 8-3-1.5-3-1.5-4 3.5-4 3.5-10 10-10 10-8.5 7-8.5 7-5.5-1-5.5-1-6.5 3-6.5 3v8 8l6.5-4 6.5-4 4 6 4 6" style="fill:#443a44;stroke:#443a44"/><g style="fill:#7c6f67;stroke:#7c6f67"><path d="m523 570l3 1v-1-1l.5-.5.5-.5v-1-1h1.5 1.5l.5-.5.5-.5.5-.5.5-.5-.5-.5-.5-.5-1.5-.5-1.5-.5-1 .5-1 .5h-1-1l-1.5-.5-1.5-.5-1 1.5-1 1.5 1 2 1 2 1 .5 1 .5"/><path d="m511 547l9-29 9.5-8.5 9.5-8.5v-.5-.5l-.5-2-.5-2 .5-1.5.5-1.5.5-.5.5-.5 1-.5 1-.5h1 1l.5.5.5.5 1 .5 1 .5v2 2h-1-1l-1 .5-1 .5-1 1-1 1-1 .5-1 .5 7.5 13.5 7.5 13.5 6-.5 6-.5 8-1 8-1 13-3.5 13-3.5 4.5-3 4.5-3 4-6.5 4-6.5 9 3.5 9 3.5-1-7.5-1-7.5 5-5.5 5-5.5 15.5-1.5 15.5-1.5 8-4.5 8-4.5 11-5.5 11-5.5v-24.5-24.5-24.5-24.5-24.5-24.5-24.5-24.5-22.5-22.5l-11-13.5-11-13.5-5 7.5-5 7.5-2.5 5-2.5 5-4.5 6.5-4.5 6.5-5 7.5-5 7.5-12 4-12 4 1.5.5 1.5.5 2-.5 2-.5-.5 1.5-.5 1.5-6.5 7-6.5 7v-1-1l-1 1.5-1 1.5-.5 1-.5 1h-1.5-1.5-1-1l-.5.5-.5.5h-1-1l-.5 1-.5 1 .5.5.5.5-1 1-1 1-1.5 10-1.5 10-9.5 6-9.5 6-8 9.5-8 9.5-6.5 10-6.5 10-11 8.5-11 8.5-4.5 10.5-4.5 10.5-.5 2-.5 2-1 2-1 2 .5 1.5.5 1.5-1 1-1 1 .5 1.5.5 1.5-1 .5-1 .5.5 1 .5 1-.5 1-.5 1-.5 2-.5 2-.5 1.5-.5 1.5 1 1.5 1 1.5.5 1.5.5 1.5-1.5 1-1.5 1-.5 1.5-.5 1.5v.5.5l-.5 1-.5 1 .5 1 .5 1-1 1.5-1 1.5v11.5 11.5l-.5 1-.5 1-.5 1.5-.5 1.5v2 2l-.5 1.5-.5 1.5-2 .5-2 .5-1.5.5-1.5.5-2 .5-2 .5-1 1-1 1-.5.5-.5.5 1.5 1 1.5 1 1 .5 1 .5 1.5-1 1.5-1 1.5-.5 1.5-.5 1.5 1 1.5 1-.5 1.5-.5 1.5-.5 1-.5 1-1.5.5-1.5.5-1.5-.5-1.5-.5-1 .5-1 .5h-1.5-1.5-1-1l-.5.5-.5.5v1 1l-.5.5-.5.5v-1.5-1.5l-1 10-1 10-2 9.5-2 9.5 4.5 13 4.5 13"/><path d="m538 540l1-1h2 2l1.5-1 1.5-1v-2-2l-2-.5-2-.5h-1-1l-1.5 1-1.5 1-.5 1.5-.5 1.5 1 1 1 1v.5.5"/></g><g style="fill:#171d24;stroke:#171d24"><path d="m243 539l9-28-8-14-8-14 8-14.5 8-14.5 15-7.5 15-7.5 4.5 5 4.5 5 4-2.5 4-2.5 2-19.5 2-19.5 7.5-14 7.5-14 13.5 10.5 13.5 10.5 17-3.5 17-3.5 16-8.5 16-8.5 11-13.5 11-13.5 12 11.5 12 11.5 7.5 14.5 7.5 14.5 6.5-3 6.5-3 10 10.5 10 10.5 5.5 6 5.5 6 .5-2 .5-2 .5-.5.5-.5v-1.5-1.5l.5-1.5.5-1.5-.5-.5-.5-.5-.5-.5-.5-.5-.5-.5-.5-.5h-1.5-1.5l-.5-1-.5-1-.5-.5-.5-.5 2-14 2-14-.5-1.5-.5-1.5-1-1-1-1-.5-2-.5-2-.5-.5-.5-.5-3-17.5-3-17.5 1-16 1-16-10.5-21-10.5-21-2 .5-2 .5v2 2l-.5.5-.5.5-1.5-1-1.5-1-1.5-.5-1.5-.5-1.5-1-1.5-1 .5-1.5.5-1.5h1.5 1.5l1.5.5 1.5.5.5-1.5.5-1.5v-2-2l-1.5-1-1.5-1-6 7.5-6 7.5-12-9-12-9 2.5-5 2.5-5h-15.5-15.5l-1.5-5-1.5-5 5.5-6.5 5.5-6.5-1-.5-1-.5h-3-3l-1 1-1 1-1.5 1-1.5 1-1-1-1-1-1-.5-1-.5v1 1l-.5 2-.5 2-.5 1.5-.5 1.5h-1-1l-1-1-1-1-1-1-1-1 .5-1.5.5-1.5-.5-.5-.5-.5-1 .5-1 .5-.5-.5-.5-.5-.5-.5-.5-.5-.5-1-.5-1-.5-.5-.5-.5v-2.5-2.5h-22-22l-22 4-22 4-18 6.5-18 6.5-16 8-16 8-14.5 10-14.5 10-13.5 11-13.5 11-10.5 14-10.5 14-10.5 17.5-10.5 17.5-2.5 36.5-2.5 36.5 11.5 28 11.5 28 11 13.5 11 13.5 14 10 14 10 19 6.5 19 6.5"/><path d="m501 506h2v-2-2l-1-1.5-1-1.5.5-1.5.5-1.5.5-2 .5-2-1-1.5-1-1.5-1.5-1-1.5-1-.5-1-.5-1-1.5-.5-1.5-.5-.5 1-.5 1 .5.5.5.5.5 1.5.5 1.5v1.5 1.5 1 1l.5 1.5.5 1.5v1.5 1.5l.5.5.5.5.5 1.5.5 1.5 1.5.5 1.5.5"/></g><path d="m539 500v1l1-.5 1-.5 1-1 1-1 1-.5 1-.5h1 1v-2-2l-1-.5-1-.5-.5-.5-.5-.5h-1-1l-1 .5-1 .5-.5.5-.5.5-.5 1.5-.5 1.5.5 2 .5 2" style="fill:#6e5834;stroke:#6e5834"/><path d="m508 485l1-1v-1-1l.5-.5.5-.5h1 1 1.5 1.5l1-.5 1-.5-1.5-1-1.5-1v-1.5-1.5l-1.5-1-1.5-1 .5-.5.5-.5 1-1 1-1 2-.5 2-.5 1.5-.5 1.5-.5 2-.5 2-.5.5-1.5.5-1.5v-2-2l-.5 1-.5 1-.5.5-.5.5-.5 1-.5 1h-2-2l-.5-.5-.5-.5h-1-1-1-1-1-1l-.5-1-.5-1 .5-2 .5-2h2 2l1-1.5 1-1.5.5.5.5.5.5 1.5.5 1.5.5-1.5.5-1.5 1.5-1 1.5-1 .5-.5.5-.5-.5-1-.5-1-2-1-2-1-.5-.5-.5-.5h-.5-.5l-5 17-5 17v1.5 1.5" style="fill:#977241;stroke:#977241"/><path d="m517 480l3 1 1.5-.5 1.5-.5.5-1 .5-1 .5-1.5.5-1.5-1.5-1-1.5-1-1.5.5-1.5.5-1.5 1-1.5 1-1-.5-1-.5v1.5 1.5l1.5 1 1.5 1" style="fill:#9d9183;stroke:#9d9183"/><g style="fill:#977241;stroke:#977241"><path d="m130 479l-16-45 7 .5 7 .5v-9-9l.5-21 .5-21 5.5-18.5 5.5-18.5-10 9.5-10 9.5-3.5-6.5-3.5-6.5-.5-4.5-.5-4.5-11-.5-11-.5v-7.5-7.5l-2-8.5-2-8.5-8.5-2-8.5-2v-7-7l5.5-4 5.5-4-6.5-10-6.5-10-5.5-14-5.5-14-1.5-6-1.5-6v-7.5-7.5-11-11l-3-7.5-3-7.5 3.5-11 3.5-11 1-9.5 1-9.5 2.5-11 2.5-11 4-6 4-6 8.5-4 8.5-4v-9.5-9.5l4.5-2 4.5-2-2-8.5-2-8.5 11-1 11-1 12.5-19.5 12.5-19.5h-25-25-24.5-24.5-19.5-19.5v2.5 2.5l8 10 8 10-1-1-1-1-1.5-1-1.5-1 .5-1.5.5-1.5-1.5-1-1.5-1h-2-2l-1.5-1-1.5-1-1 .5-1 .5v25 25 24.5 24.5 24.5 24.5 24.5 24.5 24.5 24.5 24 24 24.5 24.5 24.5 24.5 1.5 1.5l2 6 2 6-.5-1-.5-1-1.5-1-1.5-1v1.5 1.5 2 2l12-3.5 12-3.5 7.5 5.5 7.5 5.5 10-2.5 10-2.5 2.5 2 2.5 2-10 .5-10 .5 7 5 7 5 2 6.5 2 6.5 12-6.5 12-6.5 7 2 7 2-3-4.5-3-4.5 6 3.5 6 3.5 8 9 8 9 2.5-2 2.5-2 1.5 12 1.5 12"/><path d="m61 466l27-5-2.5-6-2.5-6-13 5.5-13 5.5 2 3 2 3"/></g><path d="m491 465l3 1 .5-.5.5-.5h1 1l.5.5.5.5h1.5 1.5l.5-.5.5-.5.5-.5.5-.5h1 1v-1.5-1.5l-1-1-1-1-1-.5-1-.5-.5-.5-.5-.5v-1-1-1-1-1-1h1.5 1.5l.5-.5.5-.5 1.5-.5 1.5-.5h1.5 1.5v-1-1-1-1l-.5-.5-.5-.5-1-.5-1-.5-.5-.5-.5-.5-.5-1-.5-1-7 12.5-7 12.5" style="fill:#171d24;stroke:#171d24"/><path d="m512 464h2 1 1 1 1l.5.5.5.5h2 2l.5-1 .5-1 .5-.5.5-.5.5-1 .5-1 .5-1.5.5-1.5.5-1 .5-1-1-.5-1-.5-.5 1-.5 1-1 1-1 1h-1-1v-1-1l-.5 1.5-.5 1.5-.5-1.5-.5-1.5-.5-.5-.5-.5-1 1.5-1 1.5h-2-2l-.5 2-.5 2 .5 1 .5 1" style="fill:#b58d47;stroke:#b58d47"/><path d="m16 458l1-1 1-1 1-1-1-1.5-1-1.5-.5-1.5-.5-1.5h-1.5-1.5l-1 1-1 1-2 .5-2 .5 1 1 1 1 .5 1.5.5 1.5 2-.5 2-.5 1 1 1 1" style="fill:#977241;stroke:#977241"/><path d="m521 458h2l1-1 1-1 .5-1 .5-1 .5-2.5.5-2.5-1-1.5-1-1.5v-2-2l1.5-1 1.5-1 1-1 1-1-.5-1.5-.5-1.5h-1.5-1.5l-1.5 1.5-1.5 1.5-.5 1-.5 1h-1-1-1-1v1 1 .5.5 1 1l.5.5.5.5.5 1.5.5 1.5 2 1 2 1 .5 1 .5 1-.5.5-.5.5-1.5 1-1.5 1v1 1" style="fill:#c0ae86;stroke:#c0ae86"/><path d="m526 454l2 1v-11.5-11.5l-1 .5-1 .5-1 .5-1 .5-.5 1-.5 1v1 1l1.5-1.5 1.5-1.5h1.5 1.5l.5 1.5.5 1.5-1 1-1 1-1.5 1-1.5 1v2 2l1 1.5 1 1.5-.5 2.5-.5 2.5" style="fill:#9d9183;stroke:#9d9183"/><g style="fill:#977241;stroke:#977241"><path d="m32 452l1-9v-3.5-3.5l-2 4.5-2 4.5 1.5 3.5 1.5 3.5"/><path d="m19 448l8-18-5 7.5-5 7.5 1 1.5 1 1.5"/></g><path d="m519 448l1 1-.5-1.5-.5-1.5-.5-.5-.5-.5v-1-1-.5-.5-1-1h1 1 1 1l.5-1 .5-1v-1-1h-1.5-1.5l-.5-.5-.5-.5h-1-1v1 1h-1.5-1.5l-1.5.5-1.5.5-.5.5-.5.5.5 1 .5 1 1 1 1 1 .5.5.5.5 1 .5 1 .5 1 1.5 1 1.5h.5.5" style="fill:#b58d47;stroke:#b58d47"/><path d="m516 447l2 1-1-1.5-1-1.5-1-.5-1-.5-.5-.5-.5-.5-1-1-1-1-.5-1-.5-1 .5-.5.5-.5 1.5-.5 1.5-.5h1.5 1.5v-1-1h1 1l.5.5.5.5h1.5 1.5l.5-1 .5-1 1-.5 1-.5 1-.5 1-.5 1-1.5 1-1.5-.5-1-.5-1-1.5.5-1.5.5-1.5-.5-1.5-.5v-19.5-19.5l-.5-1-.5-1v-.5-.5l-.5-1.5-.5-1.5-.5-1-.5-1-.5-1.5-.5-1.5-1.5-2-1.5-2-1-1-1-1v-1-1l.5-.5.5-.5.5-1 .5-1-.5-.5-.5-.5v-1-1l.5-.5.5-.5.5-1 .5-1 .5-.5.5-.5v-1-1-1-1l-.5-1-.5-1-.5-.5-.5-.5-.5-.5-.5-.5v-1-1l-.5-.5-.5-.5-.5-.5-.5-.5-1-.5-1-.5 4 18 4 18-1.5 23-1.5 23-1 1.5-1 1.5-1 2-1 2h-2.5-2.5l-.5.5-.5.5 1 1.5 1 1.5.5 1.5.5 1.5 1.5 1 1.5 1 1 1 1 1 1 .5 1 .5" style="fill:#977241;stroke:#977241"/><path d="m516 427v1l1.5-23 1.5-23-4-18-4-18v-3-3l.5-1.5.5-1.5-.5-1.5-.5-1.5v-2.5-2.5-2-2-2.5-2.5-2.5-2.5l-5.5-18.5-5.5-18.5-15.5-19.5-15.5-19.5-10.5-8-10.5-8-12-6.5-12-6.5-19.5-3-19.5-3 1.5.5 1.5.5h2 2l-1 .5-1 .5h-2-2l-2-.5-2-.5h-3-3l-26 1.5-26 1.5h-1.5-1.5l-1 .5-1 .5-.5.5-.5.5h-1-1-1-1l-1 .5-1 .5-1.5.5-1.5.5h-1-1l-1 .5-1 .5-1.5.5-1.5.5-15.5 1.5-15.5 1.5-3 5-3 5 19-5.5 19-5.5 22-4 22-4h22 22l2.5.5 2.5.5 1.5.5 1.5.5h2.5 2.5 2 2l1.5 1 1.5 1 1.5.5 1.5.5 2 .5 2 .5 1 .5 1 .5 1 .5 1 .5h1.5 1.5l1.5.5 1.5.5 1 1 1 1 2.5 1 2.5 1 2 1 2 1 18.5 14.5 18.5 14.5 1.5 1 1.5 1 1 1.5 1 1.5 1 1.5 1 1.5 1 1 1 1 10.5 21 10.5 21 2.5 34 2.5 34 .5 2 .5 2 1 1 1 1 .5 1.5.5 1.5.5 2 .5 2-1 1-1 1-1.5-.5-1.5-.5-.5 2-.5 2v2 2 1.5 1.5 2 2l.5 2 .5 2 .5 2.5.5 2.5.5 1 .5 1h1.5 1.5l.5.5.5.5.5.5.5.5.5.5.5.5-.5 1.5-.5 1.5v1.5 1.5l-.5.5-.5.5-.5 2-.5 2v.5.5" style="fill:#6e5834;stroke:#6e5834"/><path d="m523 427l3 1 1.5-.5 1.5-.5.5-1 .5-1-.5-.5-.5-.5-.5-1.5-.5-1.5.5-.5.5-.5v-.5-.5l-.5-1.5-.5-1.5.5-.5.5-.5v-1.5-1.5l-.5-1.5-.5-1.5v-1-1l.5-.5.5-.5.5-.5.5-.5 1-.5 1-.5.5-1 .5-1 1-.5 1-.5-.5-1.5-.5-1.5 1-1 1-1-.5-1.5-.5-1.5-.5-.5-.5-.5-1.5 2-1.5 2-.5 1.5-.5 1.5-1.5-.5-1.5-.5v-1.5-1.5-2.5-2.5l-2-1-2-1v19.5 19.5" style="fill:#b58d47;stroke:#b58d47"/><path d="m529 424l1 1v-.5-.5l.5-1.5.5-1.5 1.5-1 1.5-1-.5-1.5-.5-1.5-1-1.5-1-1.5.5-1.5.5-1.5.5-2 .5-2 .5-1 .5-1-.5-1-.5-1-.5 1-.5 1-1 .5-1 .5-.5.5-.5.5-.5.5-.5.5v1 1l.5 1.5.5 1.5v1.5 1.5l-.5.5-.5.5.5 1.5.5 1.5v.5.5l-.5.5-.5.5.5 1.5.5 1.5" style="fill:#9d9183;stroke:#9d9183"/><path d="m4 422l-4-12v2.5 2.5 1.5 1.5l1.5 1 1.5 1 .5 1 .5 1" style="fill:#6e5834;stroke:#6e5834"/><path d="m188 422l11-31 16-8.5 16-8.5 3-.5 3-.5h.5.5l18.5-4.5 18.5-4.5 10.5 5 10.5 5 13-7.5 13-7.5-1.5-9.5-1.5-9.5v-.5-.5l-.5.5-.5.5-.5 1.5-.5 1.5v2 2l-.5.5-.5.5v1.5 1.5l.5 1.5.5 1.5.5.5.5.5.5 1 .5 1 .5 1.5.5 1.5v1 1l.5 1 .5 1h-1.5-1.5-1.5-1.5l-3-.5-3-.5h-1.5-1.5l-1.5.5-1.5.5-1 1-1 1-2 .5-2 .5-1 1-1 1-1.5 1-1.5 1h-1-1l-1-.5-1-.5-1-1-1-1-.5-.5-.5-.5-.5-.5-.5-.5-1-.5-1-.5-25 2.5-25 2.5 1.5-1 1.5-1 .5-.5.5-.5.5-1 .5-1 1-.5 1-.5h-2-2l-.5.5-.5.5-.5.5-.5.5-.5.5-.5.5-.5 1-.5 1-1.5.5-1.5.5-.5.5-.5.5h-1.5-1.5l-.5-.5-.5-.5-.5-.5-.5-.5-.5.5-.5.5-.5.5-.5.5-1 .5-1 .5h1 1l-.5.5-.5.5-1.5.5-1.5.5-15.5 10-15.5 10-7.5 12-7.5 12 9 2 9 2" style="fill:#2e4767;stroke:#2e4767"/><path d="m327 418l8-16 .5 4 .5 4 1 .5 1 .5-.5 1-.5 1-.5.5-.5.5-.5.5-.5.5-.5.5-.5.5-1 .5-1 .5-1.5-.5-1.5-.5h-1-1l-.5-.5-.5-.5-.5 1-.5 1 1 .5 1 .5" style="fill:#6e5834;stroke:#6e5834"/><path d="m327 416h2l1.5.5 1.5.5 1-.5 1-.5.5-.5.5-.5.5-.5.5-.5.5-.5.5-.5.5-1 .5-1-1-.5-1-.5-.5-1-.5-1h-1.5-1.5l-1 1-1 1-1 1-1 1-1 1.5-1 1.5.5.5.5.5" style="fill:#7c6f67;stroke:#7c6f67"/><path d="m511 409l1 1-.5-2.5-.5-2.5-.5-2-.5-2v-2-2-1.5-1.5-2-2l.5-2 .5-2 1.5.5 1.5.5 1-1 1-1-.5-2-.5-2-2 14-2 14" style="fill:#443a44;stroke:#443a44"/><path d="m527 398l3 1 .5-1.5.5-1.5 1.5-2 1.5-2 .5-2 .5-2-.5-.5-.5-.5-1-.5-1-.5-1 1-1 1-.5.5-.5.5-1 .5-1 .5v2.5 2.5 1.5 1.5" style="fill:#c0ae86;stroke:#c0ae86"/><path d="m224 394l23-21h-4.5-4.5-.5-.5l-8.5 9-8.5 9 2 1.5 2 1.5" style="fill:#443a44;stroke:#443a44"/><path d="m534 392l1 1 1-2 1-2 .5-2 .5-2v-.5-.5l-11-5.5-11-5.5 1.5 2 1.5 2 .5 1.5.5 1.5.5 1 .5 1 .5 1.5.5 1.5v.5.5l.5 1 .5 1 2 1 2 1 1-.5 1-.5.5-.5.5-.5 1-1 1-1 1 .5 1 .5.5.5.5.5-.5 2-.5 2" style="fill:#9d9183;stroke:#9d9183"/><path d="m538 384v1l4.5-10.5 4.5-10.5 11-8.5 11-8.5 6.5-10 6.5-10 8-9.5 8-9.5 9.5-6 9.5-6 1.5-10 1.5-10-.5-.5-.5-.5-6.5-6.5-6.5-6.5 6.5-3 6.5-3 4.5-7 4.5-7-4-7.5-4-7.5 6-1.5 6-1.5 1-6 1-6 2.5-10 2.5-10-1.5-4-1.5-4h-7.5-7.5l-1 3.5-1 3.5 3-8 3-8v-9.5-9.5l-1-3.5-1-3.5-3-9.5-3-9.5 1-5.5 1-5.5-4-2.5-4-2.5-5.5-7.5-5.5-7.5-7-7.5-7-7.5-2-2.5-2-2.5v-6.5-6.5l-3.5-8-3.5-8-3.5-4.5-3.5-4.5-7.5-11-7.5-11-7.5-1-7.5-1-6-8.5-6-8.5h-25.5-25.5-19.5-19.5l8.5 6 8.5 6 10 6.5 10 6.5 12 8 12 8 7 10.5 7 10.5 6 11.5 6 11.5 5.5 10 5.5 10 6.5 9 6.5 9 2.5 10.5 2.5 10.5 3.5 7 3.5 7 4 10.5 4 10.5-3 9.5-3 9.5 5.5 10 5.5 10-3 6.5-3 6.5-4.5 7.5-4.5 7.5-2.5 12-2.5 12-1.5 7-1.5 7-10 12.5-10 12.5-4.5 5-4.5 5-1.5-.5-1.5-.5-1-.5-1-.5h-1-1l-1-1-1-1v2.5 2.5 2.5 2.5 2 2 2.5 2.5l.5 1.5.5 1.5-.5 1.5-.5 1.5v3 3l1 .5 1 .5.5.5.5.5.5.5.5.5v1 1l.5.5.5.5.5.5.5.5.5 1 .5 1v1 1 1 1l-.5.5-.5.5-.5 1-.5 1-.5.5-.5.5v1 1l.5.5.5.5-.5 1-.5 1-.5.5-.5.5v1 1l1 1 1 1 11 5.5 11 5.5" style="fill:#b58d47;stroke:#b58d47"/><path d="m205 373l3 1 1.5-.5 1.5-.5 1.5-1 1.5-1 1 1 1 1v.5.5l1.5-.5 1.5-.5.5-.5.5-.5h-1-1l1-.5 1-.5.5-.5.5-.5.5-.5.5-.5.5.5.5.5.5.5.5.5h1.5 1.5l.5-.5.5-.5 1.5-.5 1.5-.5.5-1 .5-1 .5-.5.5-.5.5-.5.5-.5.5-.5.5-.5h2 2l2-1 2-1v-.5-.5l24-3 24-3 14.5-12 14.5-12 14.5-8.5 14.5-8.5-15 12.5-15 12.5v.5.5l13.5-11.5 13.5-11.5 17-7.5 17-7.5 1.5-1 1.5-1h-1.5-1.5l-1 .5-1 .5-.5.5-.5.5-1 .5-1 .5-.5-.5-.5-.5-.5-.5-.5-.5-.5.5-.5.5-1 .5-1 .5.5.5.5.5h-1-1-1-1l.5-1 .5-1 1.5-.5 1.5-.5 1-1 1-1 1.5-1 1.5-1 1.5-.5 1.5-.5 1.5-1 1.5-1 2-1 2-1-15.5-7-15.5-7-14-.5-14-.5-17 5.5-17 5.5-15.5 7-15.5 7-14.5 10-14.5 10-10 14-10 14-3.5 10-3.5 10-.5 1.5-.5 1.5" style="fill:#443a44;stroke:#443a44"/><path d="m290 371h2l1.5-1 1.5-1 1-1 1-1 2-.5 2-.5 1-1 1-1 1.5-.5 1.5-.5h1.5 1.5l1-.5 1-.5h1.5 1.5 1 1 1 1l-.5-.5-.5-.5v-1.5-1.5l-.5-.5-.5-.5v-1-1l-.5-.5-.5-.5v-1.5-1.5-2-2l-.5 1.5-.5 1.5-.5 1.5-.5 1.5-1 1-1 1-.5.5-.5.5.5 1 .5 1-.5 1.5-.5 1.5-2 .5-2 .5-1.5.5-1.5.5-2 .5-2 .5-1.5.5-1.5.5h-1-1l-1-1-1-1v-1-1l-1-.5-1-.5 1-1 1-1 1-.5 1-.5h-1.5-1.5-.5-.5l-4 4-4 4 1 .5 1 .5.5.5.5.5.5.5.5.5 1 1 1 1 1 .5 1 .5" style="fill:#477aae;stroke:#477aae"/><path d="m510 371l1 1-2.5-34-2.5-34-1 16-1 16 3 17.5 3 17.5" style="fill:#443a44;stroke:#443a44"/><path d="m232 370l50-5 4-4 4-4-23.5 2.5-23.5 2.5-2 1-2 1-1 .5-1 .5-.5 1-.5 1-.5.5-.5.5-1.5 1-1.5 1" style="fill:#3d628b;stroke:#3d628b"/><path d="m294 365h2l1.5-.5 1.5-.5 2-.5 2-.5 1.5-.5 1.5-.5 2-.5 2-.5.5-1.5.5-1.5-.5-1-.5-1 .5-.5.5-.5 1-1 1-1 .5-1.5.5-1.5.5-1.5.5-1.5v-2.5-2.5l-.5-1-.5-1-1 1-1 1-1 1.5-1 1.5-1 1-1 1-1 1.5-1 1.5-1 1-1 1-1.5.5-1.5.5-1 1.5-1 1.5-2.5.5-2.5.5-1 .5-1 .5-1 1-1 1 1 .5 1 .5v1 1l1 1 1 1" style="fill:#5b96ce;stroke:#5b96ce"/><path d="m318 364h3l-.5-1-.5-1v-1-1l-.5-1.5-.5-1.5-.5-1-.5-1-.5-.5-.5-.5-.5-1.5-.5-1.5v-1.5-1.5l.5-.5.5-.5v-2-2l.5-1.5.5-1.5-.5-.5-.5-.5.5-1 .5-1 .5-1 .5-1v-1-1l.5-1 .5-1-14.5 12-14.5 12h2 2l-2 1-2 1h1.5 1.5l2.5-.5 2.5-.5 1-1.5 1-1.5 1.5-.5 1.5-.5 1-1 1-1 1-1.5 1-1.5 1-1 1-1 1-1.5 1-1.5 1-1 1-1 .5 1 .5 1v2.5 2.5 2 2 1.5 1.5l.5.5.5.5v1 1l.5.5.5.5v1.5 1.5l.5.5.5.5h-1-1-1-1-1.5-1.5l-1 .5-1 .5 3 .5 3 .5h1.5 1.5" style="fill:#3d628b;stroke:#3d628b"/><path d="m243 361v1l23.5-2.5 23.5-2.5h.5.5l2-1 2-1h-2-2l-24 3-24 3" style="fill:#2e4767;stroke:#2e4767"/><path d="m364 361l16-14-10.5 6-10.5 6 2.5 1 2.5 1" style="fill:#443a44;stroke:#443a44"/><path d="m120 357l20-19v-1.5-1.5l1-1 1-1 1-1.5 1-1.5.5-1.5.5-1.5 1-1 1-1 1-1.5 1-1.5 1-1 1-1 1-1.5 1-1.5.5-1.5.5-1.5 1.5-2 1.5-2v-.5-.5l.5-1.5.5-1.5v-1-1-1.5-1.5-.5-.5l-6.5 7-6.5 7-8-8.5-8-8.5-6-11.5-6-11.5-3.5-12-3.5-12-2.5-10.5-2.5-10.5-4-8.5-4-8.5 5-6.5 5-6.5-1.5-8-1.5-8 .5-12 .5-12 3-5 3-5 .5-10 .5-10 3.5-6 3.5-6 5-7.5 5-7.5-3-1.5-3-1.5 10-12.5 10-12.5 8-11 8-11 7-3.5 7-3.5 9.5-9 9.5-9 6.5-4 6.5-4 6.5-4 6.5-4 7.5-5.5 7.5-5.5h-25.5-25.5-22-22l-12.5 19.5-12.5 19.5-11 1-11 1 2 8.5 2 8.5-4.5 2-4.5 2v9.5 9.5l-8.5 4-8.5 4-4 6-4 6-2.5 11-2.5 11-1 9.5-1 9.5-3.5 11-3.5 11 3 7.5 3 7.5v11 11 7.5 7.5l1.5 6 1.5 6 5.5 14 5.5 14 6.5 10 6.5 10-5.5 4-5.5 4v7 7l8.5 2 8.5 2 2 8.5 2 8.5v7.5 7.5l11 .5 11 .5.5 4.5.5 4.5 3.5 6.5 3.5 6.5" style="fill:#b58d47;stroke:#b58d47"/><path d="m250 353l39-1 12.5-12 12.5-12 14.5-10 14.5-10-10-3.5-10-3.5h-6.5-6.5l-8.5 4.5-8.5 4.5-13.5 3-13.5 3-5 10.5-5 10.5-3 8-3 8" style="fill:#7c6f67;stroke:#7c6f67"/><path d="m137 349v1l10.5-17.5 10.5-17.5 10.5-14 10.5-14 13.5-11 13.5-11 14.5-10 14.5-10 16-8 16-8 18-6.5 18-6.5-19 5.5-19 5.5-16 8.5-16 8.5-20.5 14-20.5 14-1 1-1 1-1.5 1-1.5 1-1 1-1 1-1.5 1-1.5 1-1 .5-1 .5-11.5 14.5-11.5 14.5-1.5 2-1.5 2-.5 1.5-.5 1.5-1 1.5-1 1.5-1 1-1 1-1 1.5-1 1.5-1 1-1 1-.5 1.5-.5 1.5-1 1.5-1 1.5-1 1-1 1v1.5 1.5l.5 1.5.5 1.5-.5.5-.5.5-.5 1-.5 1v1 1l-.5.5-.5.5-.5 1-.5 1" style="fill:#443a44;stroke:#443a44"/><path d="m317 339l1 1 .5-.5.5-.5 15-12.5 15-12.5-14.5 8.5-14.5 8.5-.5 1-.5 1v1 1l-.5 1-.5 1-.5 1-.5 1" style="fill:#7c6f67;stroke:#7c6f67"/><g style="fill:#443a44;stroke:#443a44"><path d="m499 329h2l.5-1.5.5-1.5v-1.5-1.5l-.5-1.5-.5-1.5.5-2 .5-2-1.5-.5-1.5-.5-.5-2-.5-2h-1-1v2 2l1 1.5 1 1.5v1 1 1.5 1.5l.5 1.5.5 1.5v1.5 1.5"/><path d="m415 327l3 1v-2-2l1.5-1 1.5-1 .5-.5.5-.5-1-1.5-1-1.5-.5-1.5-.5-1.5-1-1.5-1-1.5-1-1-1-1-.5-1.5-.5-1.5.5-.5.5-.5-.5-1-.5-1-1-1-1-1h-2-2l-1.5-.5-1.5-.5-9.5 5.5-9.5 5.5-8.5 5-8.5 5 16.5 1 16.5 1 6.5 1.5 6.5 1.5"/></g><path d="m520 319l9-10 10-12.5 10-12.5 1.5-7 1.5-7 2.5-12 2.5-12 4.5-7.5 4.5-7.5 3-6.5 3-6.5-5.5-10-5.5-10 3-9.5 3-9.5-4-10.5-4-10.5-3.5-7-3.5-7-2.5-10.5-2.5-10.5-6.5-9-6.5-9-5.5-10-5.5-10-6-11.5-6-11.5-7-10.5-7-10.5-12-8-12-8-10-6.5-10-6.5-8.5-6-8.5-6h-24.5-24.5-24.5-24.5-24-24-24.5-24.5-4-4l-7.5 5.5-7.5 5.5-6.5 4-6.5 4-6.5 4-6.5 4-9.5 9-9.5 9-7 3.5-7 3.5-8 11-8 11-10 12.5-10 12.5 3 1.5 3 1.5-5 7.5-5 7.5-3.5 6-3.5 6-.5 10-.5 10-3 5-3 5-.5 12-.5 12 1.5 8 1.5 8-5 6.5-5 6.5 4 8.5 4 8.5 2.5 10.5 2.5 10.5 3.5 12 3.5 12 6 11.5 6 11.5 8 8.5 8 8.5 6.5-7 6.5-7 .5-1 .5-1 .5-.5.5-.5.5-.5.5-.5.5-1 .5-1 .5-.5.5-.5.5-.5.5-.5.5-.5.5-.5.5-1.5.5-1.5-2.5-8-2.5-8-3.5-12-3.5-12-2.5-12.5-2.5-12.5-2-9.5-2-9.5 3-15.5 3-15.5 2.5-14 2.5-14 6.5-10 6.5-10 6-12 6-12 7-4.5 7-4.5 7-7.5 7-7.5 9-9.5 9-9.5 13-1.5 13-1.5-9-2.5-9-2.5 7.5-4.5 7.5-4.5h.5.5l8.5-1 8.5-1 8.5-4 8.5-4 7.5-3 7.5-3h9 9l11.5-4 11.5-4 5.5 5 5.5 5 8.5-3 8.5-3 10.5 3 10.5 3 7.5 5.5 7.5 5.5 9-1.5 9-1.5 6.5 5 6.5 5 13 9.5 13 9.5 10 10.5 10 10.5 8.5 13 8.5 13 4.5 9.5 4.5 9.5 2 3.5 2 3.5 4 6.5 4 6.5 3 11.5 3 11.5v10.5 10.5l4 10 4 10-1.5 14-1.5 14-2.5 10-2.5 10-8.5 14-8.5 14 4 14 4 14 1.5.5 1.5.5" style="fill:#d7aa49;stroke:#d7aa49"/><path d="m513 317h2l1 .5 1 .5-4-14-4-14-.5-.5-.5-.5-.5-1-.5-1-1-.5-1-.5.5-2 .5-2-1-1-1-1-1-1.5-1-1.5-.5-1.5-.5-1.5-1-1-1-1-.5-2-.5-2-1-1.5-1-1.5-1.5-.5-1.5-.5-12-12.5-12-12.5 15.5 19.5 15.5 19.5 5.5 18.5 5.5 18.5 1 1 1 1" style="fill:#c0ae86;stroke:#c0ae86"/><path d="m493 310l3 1-3.5-6-3.5-6 2 5.5 2 5.5" style="fill:#443a44;stroke:#443a44"/><path d="m157 309v1l11.5-14.5 11.5-14.5h-1-1l-.5.5-.5.5-.5 1-.5 1-1 1-1 1-1.5 1-1.5 1-1 1-1 1-1 1-1 1-.5.5-.5.5-.5 1-.5 1-1 1-1 1-.5.5-.5.5-.5 1-.5 1-1.5.5-1.5.5v1.5 1.5 1 1l-.5 1.5-.5 1.5" style="fill:#7c6f67;stroke:#7c6f67"/><path d="m420 308l-1-27-16.5 5.5-16.5 5.5-2 1-2 1-1.5 1-1.5 1-1.5.5-1.5.5-1.5 1-1.5 1h1.5 1.5l.5-.5.5-.5.5-.5.5-.5h1 1l1-.5 1-.5.5-.5.5-.5h1 1 1 1l1-.5 1-.5 1.5-.5 1.5-.5 1-.5 1-.5 1-.5 1-.5h1.5 1.5l1.5-.5 1.5-.5h1 1l1-.5 1-.5 1.5-.5 1.5-.5 2-.5 2-.5 1-1 1-1 2.5-1 2.5-1-20 8.5-20 8.5h1.5 1.5l1.5-.5 1.5-.5h2.5 2.5l1.5-.5 1.5-.5h2.5 2.5l1.5.5 1.5.5 1.5 1 1.5 1 1.5.5 1.5.5h2 2l1 1 1 1 .5 1 .5 1 2.5 1 2.5 1" style="fill:#2e4767;stroke:#2e4767"/><path d="m367 304h2 1 1l-.5-.5-.5-.5 1-.5 1-.5.5-.5.5-.5.5.5.5.5.5.5.5.5 1-.5 1-.5.5-.5.5-.5 1-.5 1-.5 20-8.5 20-8.5-15 6-15 6 1.5-.5 1.5-.5.5-1 .5-1-1 .5-1 .5-1.5.5-1.5.5-1 .5-1 .5h-1-1-1-1l-.5.5-.5.5-1 .5-1 .5h-1-1l-.5.5-.5.5-.5.5-.5.5h-1.5-1.5l-1 1-1 1-1.5.5-1.5.5-.5 1-.5 1" style="fill:#3d628b;stroke:#3d628b"/><path d="m158 300v1l1.5-.5 1.5-.5.5-1 .5-1 .5-.5.5-.5 1-1 1-1 .5-1 .5-1 .5-.5.5-.5 1-1 1-1 1-1 1-1 1.5-1 1.5-1 1-1 1-1 .5-1 .5-1 .5-.5.5-.5h1 1l1-.5 1-.5 1.5-1 1.5-1 1-1 1-1 1.5-1 1.5-1 1-1 1-1-.5-.5-.5-.5 13.5-17 13.5-17 1-1 1-1 1-1 1-1 1-1.5 1-1.5 1-1 1-1h1.5 1.5 1 1l1-.5 1-.5 8.5-6 8.5-6 26-.5 26-.5 1.5-.5 1.5-.5 1-.5 1-.5h1 1l1.5-.5 1.5-.5 1-.5 1-.5h1 1 1 1l.5-.5.5-.5 1-.5 1-.5h1.5 1.5v-.5-.5l26-1 26-1h3 3l2 .5 2 .5h2 2l1-.5 1-.5h-2-2l-1.5-.5-1.5-.5h-1.5-1.5-1-1l-1-.5-1-.5h-2-2-1-1-1.5-1.5l-22 1-22 1-20.5 3-20.5 3-24 3-24 3-1.5.5-1.5.5-.5.5-.5.5-.5.5-.5.5-1 .5-1 .5h-1-1l-.5.5-.5.5-.5.5-.5.5-.5.5-.5.5-.5 1-.5 1-.5.5-.5.5-1 .5-1 .5-13.5 18.5-13.5 18.5-13.5 11.5-13.5 11.5-.5 1.5-.5 1.5-.5.5-.5.5-.5.5-.5.5-.5.5-.5.5-.5 1-.5 1-.5.5-.5.5-.5.5-.5.5-.5 1-.5 1" style="fill:#c0ae86;stroke:#c0ae86"/><path d="m390 295l30-12-2.5 1-2.5 1-1 1-1 1-2 .5-2 .5-1.5.5-1.5.5-1 .5-1 .5h-1-1l-1.5.5-1.5.5h-1.5-1.5l-1 .5-1 .5-.5 1-.5 1-1.5.5-1.5.5" style="fill:#477aae;stroke:#477aae"/><path d="m508 289l1 1 8.5-14 8.5-14 2.5-10 2.5-10 1.5-14 1.5-14-4-10-4-10v-10.5-10.5l-3-11.5-3-11.5-4-6.5-4-6.5-2-3.5-2-3.5-4.5-9.5-4.5-9.5-8.5-13-8.5-13-10-10.5-10-10.5-13-9.5-13-9.5-6.5-5-6.5-5-9 1.5-9 1.5-7.5-5.5-7.5-5.5-10.5-3-10.5-3-8.5 3-8.5 3-5.5-5-5.5-5-11.5 4-11.5 4h-9-9l-7.5 3-7.5 3-8.5 4-8.5 4-8.5 1-8.5 1h-.5-.5l-7.5 4.5-7.5 4.5 9 2.5 9 2.5-13 1.5-13 1.5-9 9.5-9 9.5-7 7.5-7 7.5-7 4.5-7 4.5-6 12-6 12-6.5 10-6.5 10-2.5 14-2.5 14-3 15.5-3 15.5 2 9.5 2 9.5 2.5 12.5 2.5 12.5 3.5 12 3.5 12 2.5 8 2.5 8 13.5-11.5 13.5-11.5-.5-.5-.5-.5-.5-12.5-.5-12.5-2.5-11-2.5-11 1.5-12.5 1.5-12.5 5.5-17 5.5-17 4.5-12 4.5-12 9-12.5 9-12.5 6.5-3 6.5-3 14-4 14-4 9.5-7 9.5-7 10.5-3 10.5-3h13.5 13.5l11.5-6 11.5-6 6.5 2 6.5 2 11 2 11 2 13.5 10 13.5 10 11.5 4 11.5 4 7.5 13 7.5 13 10 10.5 10 10.5 2 15 2 15 6.5 3 6.5 3 2.5 8 2.5 8 2 9.5 2 9.5-5 22-5 22 1 2 1 2 1 1.5 1 1.5.5 2 .5 2 1 1 1 1 .5 1.5.5 1.5 1 1.5 1 1.5 1 1 1 1-.5 2-.5 2 1 .5 1 .5.5 1 .5 1" style="fill:#f9ce52;stroke:#f9ce52"/><path d="m437 285l-6-16 2 6.5 2 6.5 1 1.5 1 1.5" style="fill:#7c6f67;stroke:#7c6f67"/><path d="m459 283l3 1 1-1 1-1 1-1.5 1-1.5-1-1-1-1-.5-2-.5-2-1-1-1-1-1-1.5-1-1.5-1.5-.5-1.5-.5-1-1-1-1-1.5-.5-1.5-.5.5 1 .5 1 .5.5.5.5.5.5.5.5 1 .5 1 .5h1 1v1 1l.5.5.5.5 1 .5 1 .5v1 1 1 1l-.5.5-.5.5-.5.5-.5.5h-1.5-1.5l-.5-1-.5-1-1-1-1-1-.5-.5-.5-.5-1-.5-1-.5-1.5-.5-1.5-.5v-1-1l-1-.5-1-.5.5-.5.5-.5h1 1 .5.5v-1-1l1-1 1-1-16-6.5-16-6.5 10 9.5 10 9.5 10 6.5 10 6.5" style="fill:#443a44;stroke:#443a44"/><path d="m459 279l1-1 .5-.5.5-.5v-1-1-1-1l-1-.5-1-.5-.5-.5-.5-.5v-1-1h-1-1l-1-.5-1-.5-.5-.5-.5-.5-.5-.5-.5-.5-.5-1-.5-1-1 1-1 1v1 1h-.5-.5-1-1l-.5.5-.5.5 1 .5 1 .5v1 1l1.5.5 1.5.5 1 .5 1 .5.5.5.5.5 1 1 1 1 .5 1 .5 1h1.5 1.5" style="fill:#7c6f67;stroke:#7c6f67"/><path d="m619 275l1 1 1-1 1-1-.5-.5-.5-.5.5-1 .5-1h1 1l.5-.5.5-.5h1 1 1.5 1.5l.5-1 .5-1-.5-.5-.5-.5-1.5-1-1.5-1-1.5-1-1.5-1 1-1 1-1 1.5-1 1.5-1 1-1 1-1-.5-1.5-.5-1.5h1.5 1.5l1.5-.5 1.5-.5 1-.5 1-.5 1-1 1-1 12-4 12-4 5-7.5 5-7.5 4.5-6.5 4.5-6.5 2.5-5 2.5-5 5-7.5 5-7.5h-1.5-1.5l.5-6.5.5-6.5 1 6.5 1 6.5 11 13.5 11 13.5v-1.5-1.5-2.5-2.5-2-2-2.5-2.5-2-2-2.5-2.5-.5-.5l-.5 1-.5 1h-1-1-1-1-1-1l-.5.5-.5.5 4-3 4-3v-3-3-2.5-2.5-2-2-2.5-2.5-2-2-2-2-1-1l-1 .5-1 .5-1-.5-1-.5-.5-1.5-.5-1.5 1.5.5 1.5.5v-2.5-2.5-2-2-2.5-2.5-2-2l-.5-1.5-.5-1.5-1-1.5-1-1.5 1.5-.5 1.5-.5 1-1.5 1-1.5v-24.5-24.5-19-19l-.5 1-.5 1-.5.5-.5.5-6.5-6.5-6.5-6.5 7.5-8.5 7.5-8.5v-6-6h-18-18-24.5-24.5-24.5-24.5-24.5-24.5-5.5-5.5l6 8.5 6 8.5 7.5 1 7.5 1 7.5 11 7.5 11 3.5 4.5 3.5 4.5 3.5 8 3.5 8v6.5 6.5l2 2.5 2 2.5 7 7.5 7 7.5 5.5 7.5 5.5 7.5 4 2.5 4 2.5-1 5.5-1 5.5 3 9.5 3 9.5 1 3.5 1 3.5v9.5 9.5l-3 8-3 8 1-3.5 1-3.5h7.5 7.5l1.5 4 1.5 4-2.5 10-2.5 10-1 6-1 6-6 1.5-6 1.5 4 7.5 4 7.5-4.5 7-4.5 7-6.5 3-6.5 3 6.5 6.5 6.5 6.5" style="fill:#977241;stroke:#977241"/><path d="m191 271l1 1 20.5-14 20.5-14 16-8.5 16-8.5 3-5 3-5 15.5-1.5 15.5-1.5-26 .5-26 .5-8.5 6-8.5 6 7-2 7-2-16 13.5-16 13.5v-1-1-2.5-2.5l.5-1.5.5-1.5 1-1.5 1-1.5-13.5 17-13.5 17" style="fill:#7c6f67;stroke:#7c6f67"/><g style="fill:#443a44;stroke:#443a44"><path d="m480 268l1-1v-2-2l2-.5 2-.5-1-1-1-1-1-1.5-1-1.5-1-1.5-1-1.5v2 2l-.5 1.5-.5 1.5-1.5-.5-1.5-.5h-1.5-1.5l-.5 1.5-.5 1.5 1.5 1 1.5 1 1.5.5 1.5.5 1.5 1 1.5 1"/><path d="m464 267l12-15-18.5-14.5-18.5-14.5 1 1 1 1-.5 1-.5 1h-1-1-1-1-1-1l-1.5-.5-1.5-.5-1-.5-1-.5v-1-1l1.5-1 1.5-1h1.5 1.5l-2.5-1-2.5-1-1-1-1-1-1.5-.5-1.5-.5h-1.5-1.5l-5.5 6.5-5.5 6.5 1.5 5 1.5 5h15.5 15.5l-2.5 5-2.5 5 12 9 12 9"/></g><path d="m630 267l1 1 1-1.5 1-1.5v-2-2l1-1 1-1v-1.5-1.5l1.5-.5 1.5-.5 1.5-.5 1.5-.5h1.5 1.5l1-.5 1-.5.5-1.5.5-1.5-2 .5-2 .5-1.5-.5-1.5-.5-1 1-1 1-1 .5-1 .5-1.5.5-1.5.5h-1.5-1.5l.5 1.5.5 1.5-1 1-1 1-1.5 1-1.5 1-1 1-1 1 1.5 1 1.5 1 1.5 1 1.5 1" style="fill:#b58d47;stroke:#b58d47"/><path d="m633 267l13-14-1 .5-1 .5h-1.5-1.5l-1.5.5-1.5.5-1.5.5-1.5.5v1.5 1.5l-1 1-1 1v2 2 1 1" style="fill:#977241;stroke:#977241"/><path d="m192 264l1 1 13.5-18.5 13.5-18.5-4-17-4-17 4.5-16 4.5-16 9.5-12 9.5-12 3.5-6.5 3.5-6.5 15-9.5 15-9.5 15.5-5 15.5-5 16.5-3 16.5-3 17-.5 17-.5 11.5 7.5 11.5 7.5 12.5 11 12.5 11 9.5 12 9.5 12 6.5 12 6.5 12 6.5 6 6.5 6 2 15.5 2 15.5-1.5 8.5-1.5 8.5 12.5 13.5 12.5 13.5 5-22 5-22-2-9.5-2-9.5-2.5-8-2.5-8-6.5-3-6.5-3-2-15-2-15-10-10.5-10-10.5-7.5-13-7.5-13-11.5-4-11.5-4-13.5-10-13.5-10-11-2-11-2-6.5-2-6.5-2-11.5 6-11.5 6h-13.5-13.5l-10.5 3-10.5 3-9.5 7-9.5 7-14 4-14 4-6.5 3-6.5 3-9 12.5-9 12.5-4.5 12-4.5 12-5.5 17-5.5 17-1.5 12.5-1.5 12.5 2.5 11 2.5 11 .5 12.5.5 12.5" style="fill:#ffee67;stroke:#ffee67"/><path d="m493 264l3 1-1-2-1-2-12.5-13.5-12.5-13.5 1.5-8.5 1.5-8.5-2-15.5-2-15.5-6.5-6-6.5-6-6.5-12-6.5-12-9.5-12-9.5-12-12.5-11-12.5-11-11.5-7.5-11.5-7.5-17 .5-17 .5-16.5 3-16.5 3-15.5 5-15.5 5-15 9.5-15 9.5-3.5 6.5-3.5 6.5-9.5 12-9.5 12-4.5 16-4.5 16 4 17 4 17 1-.5 1-.5.5-.5.5-.5.5-1 .5-1 .5-.5.5-.5.5-.5.5-.5.5-.5.5-.5h1 1l1-.5 1-.5.5-.5.5-.5.5-.5.5-.5 1.5-.5 1.5-.5-.5-.5-.5-.5 1.5-16 1.5-16 7.5-10 7.5-10 7.5-13 7.5-13 13.5-7 13.5-7 17-4.5 17-4.5 15 1 15 1 14.5 5 14.5 5-1 16.5-1 16.5-8.5 21.5-8.5 21.5h1.5 1.5 1 1 2 2l1 .5 1 .5h1 1 1.5 1.5l19.5 3 19.5 3 12 6.5 12 6.5 10.5 8 10.5 8 12 12.5 12 12.5" style="fill:#ffff94;stroke:#ffff94"/><path d="m215 250l32-27-7 2-7 2-1 .5-1 .5h-1-1-1.5-1.5l-1 1-1 1-1 1.5-1 1.5-1 1-1 1-1 1-1 1-1 1.5-1 1.5-.5 1.5-.5 1.5v2.5 2.5 1 1" style="fill:#443a44;stroke:#443a44"/><path d="m431 226l3 1h1 1 1 1 1 1l.5-1 .5-1-1-1-1-1-2-1-2-1h-1.5-1.5l-1.5 1-1.5 1v1 1l1 .5 1 .5" style="fill:#171d24;stroke:#171d24"/><g style="fill:#443a44;stroke:#443a44"><path d="m345 225l3 1 1.5-.5 1.5-.5 1-1.5 1-1.5-1-1-1-1h-1.5-1.5l-1.5-.5-1.5-.5-2-.5-2-.5-.5 1.5-.5 1.5 1 1 1 1 1.5 1 1.5 1"/><path d="m401 225h2l.5-1.5.5-1.5.5-2 .5-2v-1-1l1 .5 1 .5 1 1 1 1 1.5-1 1.5-1 1-1 1-1h3 3l-1-.5-1-.5-2-.5-2-.5-1.5-.5-1.5-.5-1.5-1-1.5-1h-2-2-2.5-2.5l-1.5-.5-1.5-.5-2.5-.5-2.5-.5v2.5 2.5l.5.5.5.5.5 1 .5 1 .5.5.5.5.5.5.5.5 1-.5 1-.5.5.5.5.5-.5 1.5-.5 1.5 1 1 1 1 1 1 1 1"/></g><path d="m235 216l1 1 24-3 24-3 20.5-3 20.5-3 22-1 22-1 8.5-21.5 8.5-21.5 1-16.5 1-16.5-14.5-5-14.5-5-15-1-15-1-17 4.5-17 4.5-13.5 7-13.5 7-7.5 13-7.5 13-7.5 10-7.5 10-1.5 16-1.5 16" style="fill:#ffffd4;stroke:#ffffd4"/><path d="m324 207v1l26-1.5 26-1.5-26 1-26 1" style="fill:#977241;stroke:#977241"/><g style="fill:#7c6f67;stroke:#7c6f67"><path d="m712 192l1-1h1 1 1 1 1 1l.5-1 .5-1v-1.5-1.5l-4 3-4 3"/><path d="m695 189h3l-1-6.5-1-6.5-.5 6.5-.5 6.5"/></g><path d="m436 175l3 1 1.5-.5 1.5-.5 1-1.5 1-1.5-.5-1.5-.5-1.5-2-.5-2-.5-1.5.5-1.5.5-.5 2-.5 2 .5 1 .5 1" style="fill:#ffee67;stroke:#ffee67"/><path d="m718 157l2-1v-1.5-1.5-2.5-2.5-2-2-2.5-2.5-2-2-2.5-2.5-2-2l-1 1.5-1 1.5-1.5.5-1.5.5 1 1.5 1 1.5.5 1.5.5 1.5v2 2 2.5 2.5 2 2 2.5 2.5l-1.5-.5-1.5-.5.5 1.5.5 1.5 1 .5 1 .5" style="fill:#7c6f67;stroke:#7c6f67"/><g style="fill:#977241;stroke:#977241"><path d="m607 140l3 1-.5-1.5-.5-1.5-.5-2-.5-2-.5-1.5-.5-1.5-2-.5-2-.5h-1-1l-.5 2-.5 2 .5 1.5.5 1.5h1 1 1.5 1.5l.5 1.5.5 1.5"/><path d="m598 122l3 1 1.5-.5 1.5-.5 1.5-1 1.5-1 .5-1.5.5-1.5-1-1.5-1-1.5-1.5.5-1.5.5-2 .5-2 .5-.5 1.5-.5 1.5v1.5 1.5"/></g><path d="m54 120h2l1-1 1-1 1-1.5 1-1.5-1-1-1-1-2-.5-2-.5-1 1-1 1-1.5-1-1.5-1v1 1l1 1 1 1 1.5 1 1.5 1v1 1" style="fill:#b58d47;stroke:#b58d47"/><path d="m506 54l3 1 1.5-.5 1.5-.5-.5-2-.5-2 .5-1.5.5-1.5-1-.5-1-.5-1.5.5-1.5.5-1.5 1-1.5 1 .5 1.5.5 1.5.5 1 .5 1" style="fill:#d7aa49;stroke:#d7aa49"/><g style="fill:#6e5834;stroke:#6e5834"><path d="m718 42l1-1 .5-1 .5-1v-3-3-2-2-2.5-2.5-2-2-2.5-2.5-1.5-1.5l-7.5 8.5-7.5 8.5 6.5 6.5 6.5 6.5"/><path d="m16 25l-16-20v2.5 2.5 2 2 .5.5l1-.5 1-.5 1.5 1 1.5 1h2 2l1.5 1 1.5 1-.5 1.5-.5 1.5 1.5 1 1.5 1 1 1 1 1"/></g></g></svg>