<svg xmlns="http://www.w3.org/2000/svg" viewBox="0 0 960 712"><g style="fill:#ffffed"><path d="m0 0h960v712h-960z"/><path d="m959 712h1v-1.5-1.5-2-2-1-1h-.5-.5v3.5 3.5l-.5.5-.5.5-16.5-17.5-16.5-17.5-2-.5-2-.5h-1-1l-.5-.5-.5-.5h-1-1-1.5-1.5l-.5-.5-.5-.5h-1-1l-.5-.5-.5-.5h-1.5-1.5l-1.5-.5-1.5-.5-21-3.5-21-3.5-32 5-32 5-.5 1-.5 1-.5 1.5-.5 1.5 1.5.5 1.5.5 1.5 1 1.5 1 1 1 1 1 1.5 1 1.5 1 2 .5 2 .5 15.5-8.5 15.5-8.5 8.5 21 8.5 21h25.5 25.5 24 24 1 1" style="stroke:#ffffed;stroke-linejoin:round;stroke-width:.7"/></g><g style="stroke-linejoin:round;stroke-width:.7"><path d="m959 703h1v-1.5-1.5-2-2-2.5-2.5-2-2-2.5-2.5-2-2-.5-.5h-.5-.5l-1-.5-1-.5-1.5-.5-1.5-.5h-2-2-1.5-1.5-1-1l-.5-.5-.5-.5h-1-1-1.5-1.5l-.5-.5-.5-.5h-1-1-1-1l-1-.5-1-.5-.5.5-.5.5-.5-.5-.5-.5h-1-1-1.5-1.5l-.5-.5-.5-.5h-1-1-1-1l-1-.5-1-.5h-2-2l-2.5-.5-2.5-.5-2-.5-2-.5h-2-2l-2-.5-2-.5h-1.5-1.5l-30-4.5-30-4.5h-1.5-1.5l-1-.5-1-.5h-1-1-1-1-1-1l-.5-.5-.5-.5v-1-1l.5-1 .5-1h1 1l.5-.5.5-.5.5-.5.5-.5 1-.5 1-.5.5-1 .5-1 .5-1 .5-1 1-.5 1-.5h1 1l.5-.5.5-.5.5-.5.5-.5.5-1 .5-1 .5-.5.5-.5.5-1 .5-1-13.5 11-13.5 11-12.5 12-12.5 12 1 .5 1 .5 1.5 1 1.5 1 1 1 1 1 1.5.5 1.5.5 1 1.5 1 1.5 1.5.5 1.5.5 15-9 15-9 1-.5 1-.5 10.5 19 10.5 19h1 1l-8.5-21-8.5-21-15.5 8.5-15.5 8.5.5.5.5.5-1 .5-1 .5h-1.5-1.5l-.5-.5-.5-.5-.5-.5-.5-.5h-1-1l-.5-1-.5-1h-1-1l-.5-.5-.5-.5-.5-.5-.5-.5-1-.5-1-.5-.5-.5-.5-.5-.5-.5-.5-.5-.5-.5-.5-.5.5-1 .5-1 .5-.5.5-.5.5-.5.5-.5 1-.5 1-.5 32-5 32-5 21 3.5 21 3.5 27.5 14 27.5 14v1.5 1.5 1.5 1.5 1 1l.5 1.5.5 1.5v-3.5-3.5" style="fill:#b8aea9;stroke:#b8aea9"/><path d="m959 677h1v-1.5-1.5-2-2-2.5-2.5-2-2-2.5-2.5-.5-.5h-.5-.5l-21-1.5-21-1.5 16.5 11.5 16.5 11.5h2 2l1.5.5 1.5.5 1 .5 1 .5" style="fill:#83513b;stroke:#83513b"/><path d="m959 655h1v-1-1h-.5-.5l-20.5-2-20.5-2-13.5 1.5-13.5 1.5 11.5 9 11.5 9h2 2l1 .5 1 .5h1 1 1 1l.5.5.5.5h1.5 1.5 1 1l.5.5.5.5.5-.5.5-.5 1 .5 1 .5h1 1 1 1l.5.5.5.5h1.5 1.5 1 1l.5.5.5.5h1 1 1.5 1.5l-16.5-11.5-16.5-11.5 21 1.5 21 1.5" style="fill:#a26f56;stroke:#a26f56"/><path d="m959 653h1v-1.5-1.5-2-2-2.5-2.5-2-2-2.5-2.5-2-2-2.5-2.5h-.5-.5-.5-.5l-.5 1-.5 1-6.5 3-6.5 3-10.5-3.5-10.5-3.5-20 2.5-20 2.5 12.5.5 12.5.5 5 4.5 5 4.5 18 4 18 4h-17.5-17.5l-20.5-1.5-20.5-1.5-18.5.5-18.5.5 26.5 11 26.5 11h1.5 1.5l2 .5 2 .5h2 2l2 .5 2 .5 2.5.5 2.5.5-11.5-9-11.5-9 13.5-1.5 13.5-1.5 20.5 2 20.5 2" style="fill:#c38568;stroke:#c38568"/><path d="m959 623h1v-23.5-23.5-22-22h-.5-.5l.5-2 .5-2v-2-2h-.5-.5l-18.5-4-18.5-4-5.5 1.5-5.5 1.5-14 1-14 1 6-10.5 6-10.5 17 6 17 6 15.5 2.5 15.5 2.5v-25-25-21-21h-.5-.5l-5 .5-5 .5-10 6.5-10 6.5 5.5 2.5 5.5 2.5 9.5 13.5 9.5 13.5-38-1-38-1v2.5 2.5 2.5 2.5 2 2l-.5 1.5-.5 1.5v1 1l-.5 1-.5 1-1 1-1 1-.5.5-.5.5-.5 1-.5 1-1 1-1 1-1.5 1-1.5 1 3 14 3 14 20.5 2.5 20.5 2.5 19 4 19 4-3.5 7-3.5 7 3.5 5.5 3.5 5.5-19.5-1-19.5-1-35.5-1.5-35.5-1.5 13 13.5 13 13.5h20.5 20.5l14 8 14 8-18-1-18-1-16.5 1.5-16.5 1.5-13 14.5-13 14.5h1.5 1.5 1 1l.5.5.5.5h1 1l.5.5.5.5h1.5 1.5l.5.5.5.5h1 1v1 1h-1.5-1.5-1.5-1.5-2.5-2.5-2-2l-2-1-2-1 18.5 3.5 18.5 3.5 22.5 1.5 22.5 1.5-8-5-8-5-19.5-.5-19.5-.5 6.5-5.5 6.5-5.5 18.5-.5 18.5-.5h19 19 .5.5" style="fill:#fbbf8e;stroke:#fbbf8e"/><g style="fill:#cea086;stroke:#cea086"><path d="m959 532h1v-1.5-1.5-.5-.5l-.5 2-.5 2"/><path d="m959 524h1v-1.5-1.5-2-2l-15.5-2.5-15.5-2.5-17-6-17-6-6 10.5-6 10.5 14-1 14-1 5.5-1.5 5.5-1.5 18.5 4 18.5 4"/></g><path d="m959 425h1v-23.5-23.5-2.5-2.5h-.5-.5l-.5 3.5-.5 3.5v-25.5-25.5l-.5 1-.5 1-1 .5-1 .5 1 1.5 1 1.5.5 1.5.5 1.5-.5 1.5-.5 1.5-13.5 6-13.5 6-7-12-7-12-1-1-1-1h-.5-.5-.5-.5v1.5 1.5l-.5 1-.5 1-2 .5-2 .5h-2-2l-2 .5-2 .5-1-1-1-1-2 .5-2 .5h-1-1l-1 1-1 1h-2.5-2.5-2-2-3-3-.5-.5l-20 2.5-20 2.5-13.5 6.5-13.5 6.5-7.5 16-7.5 16 12-1 12-1 1-.5 1-.5 1-.5 1-.5.5-.5.5-.5 1-.5 1-.5 1.5-.5 1.5-.5h1 1 1.5 1.5l1.5.5 1.5.5 6.5 27.5 6.5 27.5-.5 1-.5 1 .5 1 .5 1 1 1.5 1 1.5 2 .5 2 .5 1.5.5 1.5.5 1.5 1 1.5 1 1.5.5 1.5.5 2 .5 2 .5 1 1 1 1 1 .5 1 .5.5-.5.5-.5 12.5-2 12.5-2 31 12 31 12-20 1-20 1-18.5-7-18.5-7 .5 1.5.5 1.5v1 1l.5.5.5.5.5 1 .5 1v2 2l38 1 38 1-9.5-13.5-9.5-13.5-5.5-2.5-5.5-2.5 10-6.5 10-6.5 5-.5 5-.5" style="fill:#ffd9af;stroke:#ffd9af"/><path d="m959 373h1v-23.5-23.5-1-1h-.5-.5l-.5 2.5-.5 2.5v25.5 25.5l.5-3.5.5-3.5" style="fill:#fbbf8e;stroke:#fbbf8e"/><path d="m959 324h1v-23.5-23.5-24.5-24.5-23-23h-.5-.5v25.5 25.5 45.5 45.5" style="fill:#ffffed;stroke:#ffffed"/><path d="m959 182h1v-1.5-1.5-2-2-2.5-2.5-1.5-1.5h-.5-.5-.5-.5l-.5-1-.5-1-.5-.5-.5-.5-23.5 6-23.5 6 .5-.5.5-.5.5-2.5.5-2.5 1-1.5 1-1.5 1-1 1-1 1.5-1 1.5-1 1-1 1-1 .5-1 .5-1 .5-.5.5-.5 1-.5 1-.5h2 2l.5.5.5.5.5-1 .5-1h2 2l2 .5 2 .5 1.5.5 1.5.5 1 .5 1 .5 1.5 1 1.5 1 1.5.5 1.5.5.5 1 .5 1 .5.5.5.5.5.5.5.5.5.5.5.5.5 1 .5 1v1 1l.5.5.5.5v1 1l-.5 1.5-.5 1.5-.5 1-.5 1-.5 1.5-.5 1.5h-1.5-1.5l-1.5 2-1.5 2-1 1-1 1-1.5.5-1.5.5-3 .5-3 .5-1 2-1 2-.5 1-.5 1-1-.5-1-.5-1.5-1-1.5-1-1.5-.5-1.5-.5-1-1-1-1-.5.5-.5.5h-.5-.5v.5.5l17-3.5 17-3.5 2-.5 2-.5.5-1 .5-1" style="fill:#d8cec9;stroke:#d8cec9"/><path d="m959 167h1v-23.5-23.5-24.5-24.5-24.5-24.5-11-11h-13.5-13.5-24.5-24.5-24.5-24.5-24-24-24.5-24.5-24.5-24.5-3.5-3.5v.5.5h.5.5 24.5 24.5 24.5 24.5 24 24 23 23 41.5 41.5l.5 24 .5 24v24 24 35 35" style="fill:#ffffed;stroke:#ffffed"/><path d="m958 711l1-1-.5-1.5-.5-1.5v-1-1-1.5-1.5-1.5-1.5h-.5-.5l-16-11.5-16-11.5 16.5 17.5 16.5 17.5" style="fill:#fff6cc;stroke:#fff6cc"/><g style="fill:#ffd9af;stroke:#ffd9af"><path d="m958 329l1-5v-45.5-45.5-25.5-25.5l-.5 1-.5 1v24 24 24.5 24.5 24 24"/><path d="m958 167h1v-35-35-24-24l-.5-24-.5-24v24.5 24.5 24.5 24.5l-.5 33-.5 33 .5 1 .5 1"/></g><path d="m957 699h1l-27.5-14-27.5-14 1.5.5 1.5.5h1.5 1.5l.5.5.5.5h1 1l.5.5.5.5h1.5 1.5 1 1l.5.5.5.5h1 1l2 .5 2 .5 16 11.5 16 11.5" style="fill:#d8cec9;stroke:#d8cec9"/><path d="m957 625l1-2h-19-19l-18.5.5-18.5.5-6.5 5.5-6.5 5.5 19.5.5 19.5.5 8 5 8 5-22.5-1.5-22.5-1.5-18.5-3.5-18.5-3.5 1-.5 1-.5 1-1 1-1 13-14.5 13-14.5.5-1.5.5-1.5v-1-1-1.5-1.5-2-2l-.5-.5-.5-.5v-2-2l-13-13.5-13-13.5 7-16.5 7-16.5 5.5-14 5.5-14 1.5-1 1.5-1 1-1 1-1 .5-1 .5-1 .5-.5.5-.5 1-1 1-1 .5-1 .5-1v-1-1l.5-1.5.5-1.5v-2-2-2.5-2.5-2.5-2.5-2-2l-.5-1-.5-1-.5-.5-.5-.5v-1-1l-.5-1.5-.5-1.5-1-1.5-1-1.5-.5-.5-.5-.5-1-.5-1-.5-1-1-1-1-1.5-.5-1.5-.5-.5.5-.5.5h-.5-.5l-1-.5-1-.5h-1.5-1.5-1-1l-1 .5-1 .5-1.5.5-1.5.5h-1-1l-1-.5-1-.5-.5-1.5-.5-1.5v-1-1l-.5-1-.5-1-1.5-.5-1.5-.5-.5-.5-.5-.5v-1.5-1.5l-.5-1-.5-1 .5-1 .5-1h-.5-.5l-.5-.5-.5-.5v1.5 1.5 1.5 1.5l1 2 1 2 1 .5 1 .5v1 1 1 1l-.5 1.5-.5 1.5v1.5 1.5l-.5 1-.5 1-1 1.5-1 1.5-1 1-1 1-.5 2-.5 2-1.5-.5-1.5-.5v2.5 2.5l-1 1-1 1v2 2l22-6 22-6 .5 1 .5 1v2.5 2.5 1 1 1.5 1.5 2.5 2.5l-.5 2.5-.5 2.5-16 10-16 10v2.5 2.5l1 2 1 2 .5 1.5.5 1.5 1 1.5 1 1.5 1 1 1 1 1 1.5 1 1.5v2 2l-.5 2-.5 2-1 1-1 1-1 1.5-1 1.5-1.5 1.5-1.5 1.5-.5 1-.5 1v2.5 2.5l-.5 1.5-.5 1.5-.5.5-.5.5v1.5 1.5l-.5 1.5-.5 1.5-.5.5-.5.5v1 1 1.5 1.5 1 1l13.5 11 13.5 11v2.5 2.5 1 1 1.5 1.5l-1.5.5-1.5.5-.5.5-.5.5 1 .5 1 .5h1 1l-.5 1.5-.5 1.5-15 16.5-15 16.5-.5 1-.5 1-.5.5-.5.5-.5 1-.5 1-.5.5-.5.5-.5.5-.5.5h-1-1l-1 .5-1 .5-.5 1-.5 1 18.5 6.5 18.5 6.5h-1.5-1.5-2-2l-1.5-.5-1.5-.5h-2.5-2.5-2-2l-2-.5-2-.5-1.5-.5-1.5-.5h-2.5-2.5l-1 .5-1 .5 30 4.5 30 4.5-26.5-11-26.5-11 18.5-.5 18.5-.5 20.5 1.5 20.5 1.5h17.5 17.5l-18-4-18-4-5-4.5-5-4.5-12.5-.5-12.5-.5 20-2.5 20-2.5 10.5 3.5 10.5 3.5 6.5-3 6.5-3" style="fill:#cea086;stroke:#cea086"/><path d="m957 565l-7-11 3.5-7 3.5-7-19-4-19-4-20.5-2.5-20.5-2.5-3-14-3-14-5.5 14-5.5 14-7 16.5-7 16.5 35.5 1.5 35.5 1.5 19.5 1 19.5 1" style="fill:#ffd9af;stroke:#ffd9af"/><g style="fill:#fff6cc;stroke:#fff6cc"><path d="m957 469l-62-24-12.5 2-12.5 2 1.5.5 1.5.5 1 1 1 1 1 .5 1 .5.5.5.5.5 1 1.5 1 1.5 18.5 7 18.5 7 20-1 20-1"/><path d="m957 341l1-3-.5-1.5-.5-1.5-1-1.5-1-1.5 1-.5 1-.5.5-1 .5-1v-24-24-24.5-24.5-24-24l-2 .5-2 .5 1.5 22 1.5 22-.5 46-.5 46-20 4-20 4 7 12 7 12 13.5-6 13.5-6"/><path d="m957 165l1-66v-24.5-24.5-24.5-24.5h-41.5-41.5-23-23-24-24-24.5-24.5-24.5-24.5l.5.5.5.5h23.5 23.5 24 24 24.5 24.5 24 24 23 23l17.5 6.5 17.5 6.5v24.5 24.5 24 24l-.5 26-.5 26 .5.5.5.5"/><path d="m956 408l-33-11-23.5-1-23.5-1 8.5-5 8.5-5h19.5 19.5l-6-4.5-6-4.5h-21.5-21.5l-16 6-16 6v7.5 7.5l15.5 8 15.5 8h23.5 23.5l15-3.5 15-3.5 1.5-2 1.5-2"/></g><path d="m956 321l1-92-1.5-22-1.5-22-17 3.5-17 3.5-5.5-8-5.5-8 23.5-6 23.5-6 .5-26 .5-26v-24-24-24.5-24.5l-17.5-6.5-17.5-6.5h-23-23-24-24-24.5-24.5-24-24-23.5-23.5l1 2 1 2 1 1.5 1 1.5 1 1 1 1 .5 2 .5 2 1 1 1 1 1 1.5 1 1.5.5 1.5.5 1.5.5 1 .5 1 9.5 14.5 9.5 14.5 10 13.5 10 13.5 12.5 20.5 12.5 20.5 1 1.5 1 1.5.5.5.5.5v1 1l.5.5.5.5v1.5 1.5l.5.5.5.5v1 1 1 1l.5 1 .5 1v1 1 1 1 1 1l-.5 1.5-.5 1.5-6.5 17-6.5 17-11.5 11.5-11.5 11.5-22.5 8.5-22.5 8.5 10.5 9.5 10.5 9.5 24.5 18.5 24.5 18.5 12 15 12 15 33-3.5 33-3.5 1 1.5 1 1.5.5 1 .5 1 .5 1 .5 1 .5 1.5.5 1.5v1 1l1 1.5 1 1.5 1.5.5 1.5.5h1.5 1.5v1 1l-2 .5-2 .5h-2.5-2.5v1.5 1.5l.5 2 .5 2 1 1 1 1 1.5 1 1.5 1 1.5.5 1.5.5 1.5 1 1.5 1h2 2 2.5 2.5l2-.5 2-.5 12-6 12-6-12.5 1-12.5 1-2-10-2-10 10-11.5 10-11.5 12.5 23.5 12.5 23.5 1 1 1 1 20-4 20-4" style="fill:#ffffed;stroke:#ffffed"/><path d="m954 307v-2l-.5-1.5-.5-1.5h-.5-.5-.5-.5l-1-.5-1-.5-.5.5-.5.5h-1-1-1-1l-1-.5-1-.5-.5-1.5-.5-1.5v-1-1l.5-1 .5-1 2-.5 2-.5v-1.5-1.5l1.5-1 1.5-1 1-1 1-1-1-1.5-1-1.5h-.5-.5-.5-.5l-1.5-.5-1.5-.5h-1.5-1.5l-.5.5-.5.5-.5.5-.5.5h-1-1-1.5-1.5l-1.5.5-1.5.5v1 1l-.5.5-.5.5h-1-1l-1 .5-1 .5h-1-1-1-1-1-1l-.5 1.5-.5 1.5-1.5 9.5-1.5 9.5 7.5 3.5 7.5 3.5 11-4.5 11-4.5.5-1 .5-1" style="fill:#d8cec9;stroke:#d8cec9"/><path d="m954 177l1-3v-1-1l-.5-.5-.5-.5v-1-1l-.5-1-.5-1-.5-.5-.5-.5-.5-.5-.5-.5-.5-.5-.5-.5-.5-1-.5-1-1.5-.5-1.5-.5 1 1.5 1 1.5 1 1 1 1 .5 1.5.5 1.5v1 1 1.5 1.5 1.5 1.5l-.5 1.5-.5 1.5-.5 1-.5 1h1.5 1.5l.5-1.5.5-1.5.5-1 .5-1" style="fill:#b8aea9;stroke:#b8aea9"/><path d="m951 302h1l-.5-1-.5-1-1-1-1-1-1.5-1-1.5-1v-1-1-.5-.5l-2 .5-2 .5-.5 1-.5 1v1 1l.5 1.5.5 1.5 1 .5 1 .5h1 1 1 1l.5-.5.5-.5 1 .5 1 .5" style="fill:#fff6cc;stroke:#fff6cc"/><path d="m951 177v-3-1.5-1.5-1-1l-.5-1.5-.5-1.5-1-1-1-1-1-1.5-1-1.5-1.5-1-1.5-1h-.5-.5l-1 .5-1 .5-1-.5-1-.5-1.5-.5-1.5-.5h-1-1l-1 .5-1 .5-.5 1.5-.5 1.5v1 1 1.5 1.5h-2-2l-.5-.5-.5-.5v-1.5-1.5-1-1l-.5-.5-.5-.5-2 .5-2 .5-1 1.5-1 1.5v1.5 1.5l-1 1-1 1-.5 1.5-.5 1.5-.5.5-.5.5v.5.5l1 1 1 1 .5.5.5.5.5 1 .5 1 .5 1.5.5 1.5v1 1l.5 1 .5 1 1 2 1 2 1 1 1 1 1.5.5 1.5.5 1.5 1 1.5 1 9-8 9-8-.5 1-.5 1-.5 2-.5 2-1 1-1 1-2 .5-2 .5-1.5.5-1.5.5-1 .5-1 .5 3-.5 3-.5 1.5-.5 1.5-.5 1-1 1-1 1.5-2 1.5-2 .5-1 .5-1 .5-1.5.5-1.5" style="fill:#978b87;stroke:#978b87"/><path d="m948 250l-15-17-11.5 11-11.5 11 13 5.5 13 5.5 6-8 6-8" style="fill:#bcd5e5;stroke:#bcd5e5"/><path d="m948 179l-18 16 1 .5 1 .5.5-1 .5-1 1-2 1-2 1-.5 1-.5 1.5-.5 1.5-.5 2-.5 2-.5 1-1 1-1 .5-2 .5-2 .5-1 .5-1" style="fill:#797268;stroke:#797268"/><path d="m947 283h1l-9-3.5-9-3.5-5.5 8-5.5 8 .5-1.5.5-1.5h1 1 1 1 1 1l1-.5 1-.5h1 1l.5-.5.5-.5v-1-1l1.5-.5 1.5-.5h1.5 1.5 1 1l.5-.5.5-.5.5-.5.5-.5h1.5 1.5l1.5.5 1.5.5" style="fill:#fff6cc;stroke:#fff6cc"/><path d="m944 253l-17-3 1.5-7 1.5-7-5.5 11-5.5 11 11.5-1 11.5-1 1-1.5 1-1.5" style="fill:#9fb2c4;stroke:#9fb2c4"/><path d="m942 603l-28-16h-20.5-20.5v2 2l.5.5.5.5v2 2 1.5 1.5 1 1l-.5 1.5-.5 1.5 16.5-1.5 16.5-1.5 18 1 18 1" style="fill:#ffd9af;stroke:#ffd9af"/><g style="fill:#9fb2c4;stroke:#9fb2c4"><path d="m942 159h1l-1-.5-1-.5-1.5-.5-1.5-.5-2-.5-2-.5h-2-2l-.5 1-.5 1-.5-.5-.5-.5h-2-2l-1 .5-1 .5-.5.5-.5.5-.5 1-.5 1 2-.5 2-.5.5.5.5.5v1 1 1.5 1.5l.5.5.5.5h2 2v-1.5-1.5-1-1l.5-1.5.5-1.5 1-.5 1-.5h1 1l1.5.5 1.5.5 1 .5 1 .5 1-.5 1-.5"/><path d="m921 191l1-1-1-2-1-2-.5-1-.5-1v-1-1l-.5-1.5-.5-1.5-.5-1-.5-1-.5-.5-.5-.5-1-1-1-1v-.5-.5l.5-.5.5-.5.5-1.5.5-1.5 1-1 1-1v-1.5-1.5l1-1.5 1-1.5-1 1-1 1-1.5 1-1.5 1-1 1-1 1-1 1.5-1 1.5-.5 2.5-.5 2.5 2 1 2 1 1 1.5 1 1.5-.5 1.5-.5 1.5-1 1.5-1 1.5-1 1-1 1v1.5 1.5l1.5-.5 1.5-.5 1-1 1-1 2 .5 2 .5.5 1 .5 1"/></g><path d="m920 191h1l-.5-1-.5-1-2-.5-2-.5-1 1-1 1-1.5.5-1.5.5v-1.5-1.5l1-1 1-1 1-1.5 1-1.5.5-1.5.5-1.5-1-1.5-1-1.5-2-1-2-1-.5.5-.5.5 5.5 8 5.5 8v-.5-.5" style="fill:#bcd5e5;stroke:#bcd5e5"/><path d="m914 372l-10-18-9-2.5-9-2.5 1 6.5 1 6.5 10 5.5 10 5.5 3-.5 3-.5" style="fill:#fbbf8e;stroke:#fbbf8e"/><path d="m913 327h1l-12.5-23.5-12.5-23.5-10 11.5-10 11.5 2 10 2 10 12.5-1 12.5-1-12 6-12 6v1 1h3 3 2 2 2.5 2.5l1-1 1-1h1 1l2-.5 2-.5 1-1 1-1-.5-1-.5-1 .5-1.5.5-1.5.5-.5.5-.5 1-.5 1-.5 1-1 1-1 .5-2 .5-2 1 1 1 1 1.5 1 1.5 1 .5 2.5.5 2.5.5.5.5.5h.5.5" style="fill:#d8cec9;stroke:#d8cec9"/><path d="m912 330v-3l-.5-.5-.5-.5-.5.5-.5.5-1.5.5-1.5.5-1.5.5-1.5.5-2.5.5-2.5.5-1 1-1 1 1 1 1 1 2-.5 2-.5h2 2l2-.5 2-.5.5-1 .5-1" style="fill:#fbbf8e;stroke:#fbbf8e"/><path d="m910 327l1-1-.5-2.5-.5-2.5-1.5-1-1.5-1-1-1-1-1-.5 2-.5 2-1 1-1 1-1 .5-1 .5-.5.5-.5.5-.5 1.5-.5 1.5.5 1 .5 1 2.5-.5 2.5-.5 1.5-.5 1.5-.5 1.5-.5 1.5-.5" style="fill:#cea086;stroke:#cea086"/><path d="m904 298l-7-19-5 3.5-5 3.5 1-.5 1-.5 1 .5 1 .5.5 1.5.5 1.5v1.5 1.5l.5 1.5.5 1.5v1.5 1.5 2 2l1 1.5 1 1.5-.5 1.5-.5 1.5v1.5 1.5l-.5 1.5-.5 1.5-1 1-1 1-.5.5-.5.5-1 .5-1 .5h-1.5-1.5l-1-.5-1-.5-1-.5-1-.5h-2-2l-.5.5-.5.5v-.5-.5h-1-1l-.5.5-.5.5v-1-1l-.5-.5-.5-.5v-.5-.5l-.5-.5-.5-.5-.5-.5-.5-.5.5-.5.5-.5v-1-1l8 6 8 6 6.5-11.5 6.5-11.5 2 .5 2 .5" style="fill:#b8aea9;stroke:#b8aea9"/><path d="m894 311v-3l.5-1.5.5-1.5-1-1.5-1-1.5v-2-2-1.5-1.5l-.5-1.5-.5-1.5v-1.5-1.5l-.5-1.5-.5-1.5-1-.5-1-.5-1 .5-1 .5-1.5 1.5-1.5 1.5-1 1.5-1 1.5.5 1.5.5 1.5.5 2 .5 2v.5.5l1 .5 1 .5v1.5 1.5l-1 1-1 1-1 1-1 1h-2.5-2.5v1 1l2 .5 2 .5 1 1 1 1 1 2.5 1 2.5h1.5 1.5l1-.5 1-.5.5-.5.5-.5 1-1 1-1 .5-1.5.5-1.5" style="fill:#978b87;stroke:#978b87"/><path d="m886 304v-3l-1-.5-1-.5-.5 2-.5 2-1.5.5-1.5.5-1 .5-1 .5h-2-2l-1.5 1-1.5 1v1 1l-.5.5-.5.5.5.5.5.5.5.5.5.5v.5.5l.5.5.5.5v1 1l.5-.5.5-.5h1 1v.5.5l.5-.5.5-.5h2 2l1 .5 1 .5 1 .5 1 .5-1-2.5-1-2.5-1-1-1-1-2-.5-2-.5v-1-1h2.5 2.5l1-1 1-1 1-1 1-1" style="fill:#cea086;stroke:#cea086"/><path d="m884 532l-30 10 13.5-3 13.5-3 1.5-2 1.5-2" style="fill:#fff6cc;stroke:#fff6cc"/><path d="m881 472v-2-2.5-2.5l-.5-1-.5-1h-.5-.5l-21.5 9-21.5 9v1.5 1.5l.5 2 .5 2 .5 1.5.5 1.5 1 1.5 1 1.5 12.5-9 12.5-9 8 2 8 2v-2.5-2.5-1.5-1.5" style="fill:#a26f56;stroke:#a26f56"/><path d="m880 485l1-5-8-2-8-2-12.5 9-12.5 9v1.5 1.5l1 1 1 1 1 1 1 1 1.5 1 1.5 1 .5 1 .5 1 16-10 16-10" style="fill:#83513b;stroke:#83513b"/><path d="m879 463h1l-22 6-22 6v3 3l21.5-9 21.5-9" style="fill:#c38568;stroke:#c38568"/><path d="m873 335h1v-1-1l-2 .5-2 .5h-2.5-2.5-2-2l-1.5-1-1.5-1-1.5-.5-1.5-.5-1.5-1-1.5-1-1-1-1-1-.5-2-.5-2v-1.5-1.5l-14 1-14 1-1-1-1-1-.5 1.5-.5 1.5-8 15.5-8 15.5-9.5 23-9.5 23 16-8.5 16-8.5-12 1-12 1 7.5-16 7.5-16 13.5-6.5 13.5-6.5 20-2.5 20-2.5" style="fill:#fff6cc;stroke:#fff6cc"/><path d="m870 604l1-3h-1-1l-1-.5-1-.5.5-.5.5-.5 1.5-.5 1.5-.5v-1.5-1.5-1-1-2.5-2.5h-.5-.5l-13-11-13-11v-1-1l-13.5 10.5-13.5 10.5-26.5 19-26.5 19 15.5-8 15.5-8 13.5-.5 13.5-.5-4.5 10-4.5 10-13 4.5-13 4.5-3.5 12.5-3.5 12.5-9.5 11.5-9.5 11.5-8.5 3.5-8.5 3.5-12.5 1.5-12.5 1.5-5-1-5-1 11.5-3.5 11.5-3.5-.5-2-.5-2-1-1-1-1-.5-2-.5-2-.5-1.5-.5-1.5-.5-2-.5-2v-2-2-1.5-1.5-1.5-1.5l1-.5 1-.5 1-1.5 1-1.5h1 1l1-1.5 1-1.5 1-1 1-1 .5-2 .5-2 1-2 1-2-.5-.5-.5-.5-.5 1-.5 1v-2-2l-.5-1.5-.5-1.5-.5-1.5-.5-1.5.5-1 .5-1 1-1 1-1 .5-1.5.5-1.5 1.5-1 1.5-1 2.5-.5 2.5-.5-1-.5-1-.5.5-.5.5-.5.5-.5.5-.5.5-1 .5-1 .5-.5.5-.5.5-.5.5-.5.5-.5.5-.5 1-.5 1-.5.5-.5.5-.5.5-.5.5-.5v-1-1l.5-.5.5-.5 1-.5 1-.5 1-.5 1-.5 1-.5 1-.5.5-.5.5-.5.5-1 .5-1 .5-.5.5-.5.5-.5.5-.5.5-.5.5-.5.5-.5.5-.5.5-1 .5-1h1 1l.5-.5.5-.5.5-.5.5-.5 1-.5 1-.5 12-11.5 12-11.5 17.5-13 17.5-13h1.5 1.5v-1-1l-.5-1-.5-1 1-1 1-1h1 1l.5-1 .5-1 1.5-.5 1.5-.5.5-.5.5-.5 1-.5 1-.5.5 1.5.5 1.5.5.5.5.5v2.5 2.5l1.5-1.5 1.5-1.5 1-1.5 1-1.5 1-1 1-1 .5-2 .5-2v-2-2l-1-1.5-1-1.5-1-1-1-1-1-1.5-1-1.5-.5-1.5-.5-1.5-1-2-1-2-.5 2-.5 2-.5 2.5-.5 2.5-1-1.5-1-1.5-.5-1.5-.5-1.5-1.5-1.5-1.5-1.5.5 1 .5 1v1 1l-.5 1.5-.5 1.5-13 1.5-13 1.5-13.5 7-13.5 7-12 12.5-12 12.5-6.5 10.5-6.5 10.5-6.5 14.5-6.5 14.5-12 11-12 11-13 10-13 10-11 3-11 3-5-5-5-5 3-18 3-18 17-13 17-13 1-1 1-1 .5-1 .5-1 1.5-1.5 1.5-1.5 1-2 1-2 3.5-12 3.5-12 11.5-9.5 11.5-9.5 22-9.5 22-9.5-1.5-1-1.5-1h-.5-.5l-17 .5-17 .5-7.5 4.5-7.5 4.5-15.5 6-15.5 6-9 4.5-9 4.5-12 10.5-12 10.5-9 14-9 14-2 16-2 16-7-8-7-8-10.5-6.5-10.5-6.5-.5 1-.5 1-.5.5-.5.5-.5.5-.5.5-.5 1-.5 1v1 1l-.5.5-.5.5v1 1l-.5 1-.5 1-.5.5-.5.5v1 1l-.5.5-.5.5-.5 1-.5 1-.5.5-.5.5v1 1l-.5.5-.5.5-1 1-1 1-.5 1.5-.5 1.5-1.5 16.5-1.5 16.5-10 29-10 29h25.5 25.5 24.5 24.5 24.5 24.5 19.5 19.5l4.5-10 4.5-10 17-4.5 17-4.5 12.5-12 12.5-12 13.5-11 13.5-11 15-16.5 15-16.5" style="fill:#83513b;stroke:#83513b"/><path d="m870 588h1l-13.5-11-13.5-11 13 11 13 11" style="fill:#a26f56;stroke:#a26f56"/><g style="fill:#fbbf8e;stroke:#fbbf8e"><path d="m868 450h1l-1-.5-1-.5-1-1-1-1-2-.5-2-.5-1.5-.5-1.5-.5-1.5-1-1.5-1-1.5-.5-1.5-.5-2-.5-2-.5-1-1.5-1-1.5v1.5 1.5l.5.5.5.5 1.5.5 1.5.5.5 1 .5 1v1 1l.5 1.5.5 1.5 1 .5 1 .5h1 1l1.5-.5 1.5-.5 1-.5 1-.5h1 1 1.5 1.5l1 .5 1 .5"/><path d="m867 660l-37-13-.5 1-.5 1-1 .5-1 .5-.5.5-.5.5-.5.5-.5.5h-1-1l-.5 1-.5 1v1 1l.5.5.5.5h1 1 1 1 1 1l1 .5 1 .5h1.5 1.5l1-.5 1-.5h2.5 2.5l1.5.5 1.5.5 2 .5 2 .5h2 2 2.5 2.5l1.5.5 1.5.5h2 2 1.5 1.5"/></g><path d="m862 638v-2h-1-1l-.5-.5-.5-.5h-1.5-1.5l-.5-.5-.5-.5h-1-1l-.5-.5-.5-.5h-1-1-1.5-1.5l-1 1-1 1-1 .5-1 .5 2 1 2 1h2 2 2.5 2.5 1.5 1.5 1.5 1.5" style="fill:#ffd9af;stroke:#ffd9af"/><path d="m858 319v-2h-1.5-1.5l-1.5-.5-1.5-.5-1-1.5-1-1.5v-1-1l-.5-1.5-.5-1.5-.5-1-.5-1-.5-1-.5-1-.5.5-.5.5-1-.5-1-.5h-1.5-1.5-1-1-1.5-1.5-2-2-1-1-1-1l-.5.5-.5.5v1 1l2 .5 2 .5 2 .5 2 .5 1.5-.5 1.5-.5 1.5.5 1.5.5 2-.5 2-.5.5 1 .5 1 .5 2 .5 2v1 1l1 .5 1 .5v1 1 .5.5h2.5 2.5l2-.5 2-.5" style="fill:#d8cec9;stroke:#d8cec9"/><path d="m855 712h1l-10.5-19-10.5-19 .5 2 .5 2 .5.5.5.5.5.5.5.5.5.5.5.5 1 .5 1 .5.5-.5.5-.5h1 1v1 1l.5 1 .5 1 .5.5.5.5.5.5.5.5.5.5.5.5v1 1l-7.5-7.5-7.5-7.5-15 9-15 9-.5 2-.5 2-23 7.5-23 7.5h1.5 1.5 2.5 2.5 2 2 2 2 2.5 2.5 1 1l21-8 21-8-1 .5-1 .5-1 1-1 1 1.5.5 1.5.5v2.5 2.5h-1-1l-2 .5-2 .5-1 1-1 1 .5 2 .5 2h3.5 3.5 2 2 2 2 2.5 2.5 2 2 2.5 2.5 2 2 2.5 2.5 2 2" style="fill:#83513b;stroke:#83513b"/><path d="m849 590l-19-1 9 .5 9 .5h.5.5" style="fill:#a26f56;stroke:#a26f56"/><path d="m849 319v-2l-1-.5-1-.5h-.5-.5l-1.5.5-1.5.5-1.5.5-1.5.5-2 .5-2 .5h-2-2l-2.5.5-2.5.5-.5.5-.5.5-1 .5-1 .5h-1.5-1.5l14-1 14-1v-.5-.5" style="fill:#ffd9af;stroke:#ffd9af"/><path d="m848 690v-2l-.5-.5-.5-.5-.5-.5-.5-.5-.5-.5-.5-.5-.5-1-.5-1v-1-1h-1-1l-.5.5-.5.5-1-.5-1-.5-.5-.5-.5-.5-.5-.5-.5-.5-.5-.5-.5-.5-.5-2-.5-2-1 .5-1 .5 7.5 7.5 7.5 7.5" style="fill:#a26f56;stroke:#a26f56"/><g style="fill:#594c41;stroke:#594c41"><path d="m848 543l1-2v-2.5-2.5l-.5-.5-.5-.5-.5-1.5-.5-1.5-1 .5-1 .5-.5.5-.5.5-1.5.5-1.5.5-.5 1-.5 1h-1-1l-1 1-1 1 .5 1 .5 1v1 1l-.5 1.5-.5 1.5-13 11-13 11 12-12.5 12-12.5-17.5 13-17.5 13-12 11.5-12 11.5 15-10 15-10 19.5-11.5 19.5-11.5-9.5 14-9.5 14-15 8-15 8-17.5 6-17.5 6-1 .5-1 .5-1 .5-1 .5-.5.5-.5.5v1 1l-.5.5-.5.5-.5.5-.5.5-1 .5-1 .5-.5.5-.5.5-.5.5-.5.5-.5.5-.5.5-.5 1-.5 1-.5.5-.5.5-.5.5-.5.5 1 .5 1 .5h1.5 1.5 2 2l2 .5 2 .5h2 2l1 .5 1 .5 26.5-19 26.5-19 13.5-10.5 13.5-10.5v-1.5-1.5-1-1l.5-.5.5-.5.5-1.5.5-1.5v-1.5-1.5l.5-.5.5-.5.5-1.5.5-1.5v-2.5-2.5"/><path d="m847 514l1-4v-2.5-2.5l-.5-1-.5-1-1.5-1-1.5-1-1-1-1-1-1-1-1-1-.5 2-.5 2-.5 1.5-.5 1.5-.5.5-.5.5.5 1.5.5 1.5 1 1 1 1 1.5 1.5 1.5 1.5.5 1.5.5 1.5 1 1.5 1 1.5.5-2.5.5-2.5"/></g><path d="m847 451l1-3v-1-1-1-1l-1-.5-1-.5-1 1-1 1h-1-1l1.5 1 1.5 1 .5.5.5.5-.5 1.5-.5 1.5v1.5 1.5l-.5 1.5-.5 1.5-.5.5-.5.5-1 .5-1 .5-1 1-1 1-.5-2-.5-2v-2-2l-.5-2-.5-2v-2-2l-.5-1.5-.5-1.5h-.5-.5l-1-1-1-1-1.5-1-1.5-1-1.5.5-1.5.5 4 30.5 4 30.5-15-8.5-15-8.5-16-8-16-8-16.5-16-16.5-16-1-.5-1-.5-.5-1.5-.5-1.5-.5 1-.5 1-1 2-1 2 .5 1.5.5 1.5-.5 1.5-.5 1.5v1 1l-.5 1-.5 1v2 2l-.5.5-.5.5-.5 1-.5 1-.5 1.5-.5 1.5v2.5 2.5l-.5 1.5-.5 1.5-2 .5-2 .5h1.5 1.5l1 .5 1 .5 1-1 1-1 .5-1 .5-1 .5-2.5.5-2.5 14.5 3.5 14.5 3.5 24.5 12.5 24.5 12.5 1 .5 1 .5 1 .5 1 .5 1.5 1 1.5 1 1 .5 1 .5 1.5.5 1.5.5.5.5.5.5.5.5.5.5h1 1l1 .5 1 .5 1 1 1 1 .5.5.5.5v1.5 1.5l1 .5 1 .5 1 1 1 1h.5.5l-.5-1.5-.5-1.5.5-.5.5-.5.5-1.5.5-1.5.5-2 .5-2v-1.5-1.5l-1-1.5-1-1.5-.5-1.5-.5-1.5-.5-2-.5-2v-1.5-1.5-3-3-2-2l1-1 1-1v-2.5-2.5l1.5.5 1.5.5.5-2 .5-2 1-1 1-1 1-1.5 1-1.5.5-1 .5-1v-1.5-1.5" style="fill:#d8cec9;stroke:#d8cec9"/><path d="m846 316h1v-1-1h-.5-.5-2-2l-.5.5-.5.5h-1.5-1.5-1-1-1-1l-.5.5-.5.5-1 .5-1 .5h-1-1l-.5.5-.5.5-.5 1-.5 1 2.5-.5 2.5-.5h2 2l2-.5 2-.5 1.5-.5 1.5-.5 1.5-.5 1.5-.5" style="fill:#fbbf8e;stroke:#fbbf8e"/><path d="m846 314h1l-.5-2-.5-2h-.5-.5-1.5-1.5-1.5-1.5-1-1-1-1-1-1-1.5-1.5v1 1h-1-1l-.5-.5-.5-.5-1 .5-1 .5.5 1.5.5 1.5-.5.5-.5.5v2 2h1 1l.5-1 .5-1 .5-.5.5-.5h1 1l1-.5 1-.5.5-.5.5-.5h1 1 1 1 1.5 1.5l.5-.5.5-.5h2 2" style="fill:#cea086;stroke:#cea086"/><path d="m846 305l1-1-1-1.5-1-1.5h-.5-.5-2-2-2-2-2-2-1-1-1.5-1.5-2.5-2.5l-1.5 1-1.5 1-1.5.5-1.5.5-.5 1-.5 1h1 1l2 .5 2 .5v-1-1l1.5.5 1.5.5 1.5.5 1.5.5v-1-1l.5-.5.5-.5h1 1 1 1 2 2 1.5 1.5 1 1 1.5 1.5l1 .5 1 .5" style="fill:#9fb2c4;stroke:#9fb2c4"/><path d="m845 451l1-3-.5-.5-.5-.5-.5 1-.5 1-.5 2.5-.5 2.5-1 1.5-1 1.5-1-1-1-1v-2.5-2.5-2-2-1-1l1-1.5 1-1.5.5 2 .5 2h1 1l1-1 1-1-1-2-1-2h-.5-.5l-1.5-21-1.5-21-2 22.5-2 22.5.5 1.5.5 1.5v2 2l.5 2 .5 2v2 2l.5 2 .5 2 1-1 1-1 1-.5 1-.5.5-.5.5-.5.5-1.5.5-1.5v-1.5-1.5" style="fill:#797268;stroke:#797268"/><g style="fill:#b8aea9;stroke:#b8aea9"><path d="m845 434h1l-6.5-27.5-6.5-27.5h-.5-.5l-.5 2-.5 2-1 1-1 1-2 1.5-2 1.5h1.5 1.5l-.5 1.5-.5 1.5v1 1l.5 1 .5 1 1 1 1 1v2 2 2 2l.5 2 .5 2v2 2l-.5 2-.5 2v2 2l.5 2 .5 2v2 2l-.5 1.5-.5 1.5v1.5 1.5 1.5 1.5l1.5 1 1.5 1 1 1 1 1-1.5-22-1.5-22 6 17.5 6 17.5.5.5.5.5"/><path d="m845 310h1l-.5-1-.5-1-2 .5-2 .5-1.5-.5-1.5-.5-1.5.5-1.5.5-2-.5-2-.5-2-.5-2-.5-1.5-.5-1.5-.5-1.5-.5-1.5-.5v1 1l-2-.5-2-.5h-1-1l.5-1 .5-1 1.5-.5 1.5-.5 1.5-1 1.5-1-27 4.5-27 4.5 1 .5 1 .5h2 2 2.5 2.5 2 2 2.5 2.5 3 3 1.5 1.5l1.5-.5 1.5-.5 2-.5 2-.5 1.5-.5 1.5-.5 1 .5 1 .5-.5 1.5-.5 1.5-1 1.5-1 1.5-1.5 1-1.5 1-.5 1.5-.5 1.5v1.5 1.5l11.5-1.5 11.5-1.5v-2-2l.5-.5.5-.5-.5-1.5-.5-1.5 1-.5 1-.5.5.5.5.5h1 1v-1-1h1.5 1.5 1 1 1 1 1 1 1.5 1.5 1.5 1.5"/></g><path d="m844 549l-39 23-15 10-15 10-1 .5-1 .5-.5.5-.5.5-.5.5-.5.5h-1-1l-.5 1-.5 1-.5.5-.5.5-.5.5-.5.5-.5.5-.5.5-.5.5-.5.5-.5 1-.5 1-.5.5-.5.5-1 .5-1 .5 17.5-6 17.5-6 15-8 15-8 9.5-14 9.5-14" style="fill:#232418;stroke:#232418"/><path d="m844 449l1-2-1.5-1-1.5-1-.5-2-.5-2-1 1.5-1 1.5v1 1 2 2 2.5 2.5l1 1 1 1 1-1.5 1-1.5.5-2.5.5-2.5" style="fill:#594c41;stroke:#594c41"/><path d="m844 301h1l-33 3.5-33 3.5h-.5-.5l-11.5-15-11.5-15-24.5-18.5-24.5-18.5-10.5-9.5-10.5-9.5-1-.5-1-.5-2 .5-2 .5-1.5.5-1.5.5-1 1.5-1 1.5 1 1.5 1 1.5 27 17.5 27 17.5 18.5 23 18.5 23h.5.5l27-4.5 27-4.5h2.5 2.5 1.5 1.5 1 1 2 2 2 2 2 2" style="fill:#d8cec9;stroke:#d8cec9"/><path d="m843 439h1v-1.5-1.5-1.5-1.5l-6-17.5-6-17.5 1.5 22 1.5 22h.5.5l2-22.5 2-22.5 1.5 21 1.5 21" style="fill:#978b87;stroke:#978b87"/><path d="m840 517l1-3v-1-1l-.5-1-.5-1-1-1-1-1h-.5-.5l-.5 1.5-.5 1.5-16 1-16 1-14.5 10-14.5 10-14.5 10-14.5 10-4.5 16-4.5 16-9.5 11.5-9.5 11.5-11 10-11 10-11-5-11-5 10.5-16.5 10.5-16.5-17 13-17 13-3 18-3 18 5 5 5 5 11-3 11-3 13-10 13-10 12-11 12-11 6.5-14.5 6.5-14.5 6.5-10.5 6.5-10.5 12-12.5 12-12.5 13.5-7 13.5-7 13-1.5 13-1.5" style="fill:#a26f56;stroke:#a26f56"/><path d="m836 546l1-3h-1.5-1.5l-12 12.5-12 12.5 13-11 13-11" style="fill:#797268;stroke:#797268"/><path d="m836 511l1-3-1-1-1-1-1-.5-1-.5h-.5-.5l-.5.5-.5.5-8-2.5-8-2.5-1-.5-1-.5h-2-2l-.5 1-.5 1-13 10.5-13 10.5-15 9-15 9-15.5 8.5-15.5 8.5-10 10-10 10-1.5 1.5-1.5 1.5-.5 1-.5 1-1 1-1 1-10.5 16.5-10.5 16.5 11 5 11 5 11-10 11-10 9.5-11.5 9.5-11.5 4.5-16 4.5-16 14.5-10 14.5-10 14.5-10 14.5-10 16-1 16-1" style="fill:#c38568;stroke:#c38568"/><path d="m835 500l-8-61-23.5-11.5-23.5-11.5h-1.5-1.5l-1.5-.5-1.5-.5-1.5 1-1.5 1-1.5.5-1.5.5-1.5 1-1.5 1-1 1-1 1-1.5.5-1.5.5-1.5 1-1.5 1-.5.5-.5.5-1 .5-1 .5-1 1-1 1-1.5 1-1.5 1-1.5.5-1.5.5-1.5 1-1.5 1-1.5.5-1.5.5 16.5 16 16.5 16 16 8 16 8 15 8.5 15 8.5" style="fill:#ffffed;stroke:#ffffed"/><path d="m833 502l-1-1-1-1-1-1-1-.5-1-.5h-1-1l-.5-.5-.5-.5-.5-.5-.5-.5-1.5-.5-1.5-.5.5 1.5.5 1.5-17.5 6-17.5 6 1-.5 1-.5 1-.5 1-.5.5-.5.5-.5 1-.5 1-.5 1.5-.5 1.5-.5.5-.5.5-.5 1-.5 1-.5 1-1 1-1 .5-.5.5-.5h1.5 1.5 1.5 1.5 2 2l1 .5 1 .5 1-.5 1-.5h2 2 2 2l1.5 1 1.5 1 1.5.5 1.5.5.5 1 .5 1h.5.5v-1.5-1.5" style="fill:#978b87;stroke:#978b87"/><path d="m832 379h1l-1.5-.5-1.5-.5h-1.5-1.5-1-1l-1.5.5-1.5.5-1 .5-1 .5-.5.5-.5.5-1 .5-1 .5-1 .5-1 .5-16 8.5-16 8.5-1 2-1 2-1.5 1-1.5 1-1.5.5-1.5.5-1.5 1-1.5 1-1.5.5-1.5.5-1 1-1 1-3 .5-3 .5h-1.5-1.5l-2 1-2 1-.5.5-.5.5-1 1.5-1 1.5-1 1-1 1-2.5 1-2.5 1-1 1-1 1-.5.5-.5.5.5 1 .5 1 .5-.5.5-.5.5-.5.5-.5.5-.5.5-.5 1 .5 1 .5.5.5.5.5h1 1l.5-.5.5-.5 1-.5 1-.5.5-.5.5-.5 1.5.5 1.5.5 1.5-1 1.5-1 1.5-.5 1.5-.5 1-1 1-1 1.5-1 1.5-1 1.5-.5 1.5-.5 1.5-1 1.5-1 1.5.5 1.5.5h1.5 1.5l10.5-6 10.5-6 1-1.5 1-1.5 1.5-1 1.5-1 1.5-.5 1.5-.5 1.5-.5 1.5-.5 1-1.5 1-1.5 1.5-.5 1.5-.5 1.5-1 1.5-1 1-1 1-1 1.5-.5 1.5-.5 2-1.5 2-1.5 1-1 1-1 .5-2 .5-2" style="fill:#d8cec9;stroke:#d8cec9"/><path d="m831 506l1-1-.5-1-.5-1-1.5-.5-1.5-.5-1.5-1-1.5-1h-2-2-2-2l-1 .5-1 .5 8 2.5 8 2.5" style="fill:#cea086;stroke:#cea086"/><path d="m830 435v-3l-1-.5-1-.5v-2.5-2.5-2-2l.5-2 .5-2v-1-1l-.5-2-.5-2v-2-2-2-2-2.5-2.5-2-2l-.5-1-.5-1-2.5.5-2.5.5-1.5 1-1.5 1-1.5.5-1.5.5-1.5 1-1.5 1-1.5.5-1.5.5-1 1-1 1-2 .5-2 .5-1.5.5-1.5.5-10.5 6-10.5 6 23.5 11.5 23.5 11.5 1.5-.5 1.5-.5v-1.5-1.5" style="fill:#bcd5e5;stroke:#bcd5e5"/><g style="fill:#9fb2c4;stroke:#9fb2c4"><path d="m830 432l1-3v-2-2l-.5-2-.5-2v-2-2l.5-2 .5-2v-2-2l-.5-2-.5-2v-2-2-2-2l-1-1-1-1v2 2 2.5 2.5 2 2 2 2l.5 2 .5 2v1 1l-.5 2-.5 2v2 2 2.5 2.5l1 .5 1 .5"/><path d="m827 391l1-3h-1.5-1.5l-1.5.5-1.5.5-1 1-1 1-1.5 1-1.5 1-1.5.5-1.5.5-1 1.5-1 1.5-1.5.5-1.5.5-1.5.5-1.5.5-1.5 1-1.5 1-1 1.5-1 1.5 1.5-.5 1.5-.5 2-.5 2-.5 1-1 1-1 1.5-.5 1.5-.5 1.5-1 1.5-1 1.5-.5 1.5-.5 1.5-1 1.5-1 2.5-.5 2.5-.5v-1-1"/></g><path d="m826 321l1-1h-1-1l-11.5 1.5-11.5 1.5-.5 1-.5 1-1 1.5-1 1.5-.5 1.5-.5 1.5-.5 2-.5 2 .5 1.5.5 1.5 10.5-9 10.5-9 1 1 1 1h1.5 1.5l1-.5 1-.5" style="fill:#d8cec9;stroke:#d8cec9"/><path d="m822 606l-27 1-15.5 8-15.5 8h-.5-.5v.5.5l-1 1.5-1 1.5-1 1-1 1-1.5.5-1.5.5-1 1.5-1 1.5-.5.5-.5.5v.5.5l1.5-.5 1.5-.5 2-.5 2-.5 1.5-.5 1.5-.5 1.5 1 1.5 1 .5 1.5.5 1.5.5 1.5.5 1.5.5.5.5.5.5 1 .5 1v1.5 1.5l-17 10-17 10 .5 1.5.5 1.5v1 1l.5 1 .5 1v1 1l.5.5.5.5.5.5.5.5v1 1l.5 1 .5 1 .5.5.5.5v1 1l-.5 1.5-.5 1.5-1 .5-1 .5-1-.5-1-.5-1-1-1-1-1.5-.5-1.5-.5-11.5 3.5-11.5 3.5 5 1 5 1 12.5-1.5 12.5-1.5 8.5-3.5 8.5-3.5 9.5-11.5 9.5-11.5 3.5-12.5 3.5-12.5 13-4.5 13-4.5 4.5-10 4.5-10" style="fill:#a26f56;stroke:#a26f56"/><path d="m822 498l-1-3-1-.5-1-.5-1.5-1-1.5-1-1-.5-1-.5-1-.5-1-.5h-.5-.5l-11-5.5-11-5.5-14.5-5-14.5-5-13-5.5-13-5.5-.5 2.5-.5 2.5-.5 2-.5 2-1 1.5-1 1.5 1 1 1 1 .5 1.5.5 1.5v2 2 2.5 2.5 2 2l-.5 2-.5 2 .5 1.5.5 1.5-.5 1.5-.5 1.5v.5.5h2 2l1.5-.5 1.5-.5h1 1 1.5 1.5l1.5.5 1.5.5h2.5 2.5l1.5-.5 1.5-.5 2 .5 2 .5 1.5.5 1.5.5 2 .5 2 .5 1 1 1 1 1 1 1 1 1.5 1 1.5 1 .5 1.5.5 1.5 1.5 1 1.5 1 1 .5 1 .5v1 1l-.5 1-.5 1 1-.5 1-.5.5-.5.5-.5.5-1 .5-1 .5-.5.5-.5.5-.5.5-.5 1.5-.5 1.5-.5 17.5-6 17.5-6" style="fill:#797268;stroke:#797268"/><path d="m821 696l-42 16h2 2 2.5 2.5 2 2 2.5 2.5 2 2 2 2 2.5 2.5 1.5 1.5l-.5-2-.5-2 1-1 1-1 2-.5 2-.5h1 1v-2.5-2.5l-1.5-.5-1.5-.5 1-1 1-1 1-.5 1-.5" style="fill:#a26f56;stroke:#a26f56"/><path d="m818 323l1-3-10.5 9-10.5 9-8.5 15-8.5 15-10 22.5-10 22.5 3-.5 3-.5 1-1 1-1 1.5-.5 1.5-.5 1.5-1 1.5-1 1.5-.5 1.5-.5 1.5-1 1.5-1 1-2 1-2 9.5-23 9.5-23 8-15.5 8-15.5" style="fill:#ffffed;stroke:#ffffed"/><path d="m811 688l-1-1-2-.5-2-.5-1.5-1-1.5-1-1-1-1-1-1.5-1-1.5-1-1.5-.5-1.5-.5.5-1.5.5-1.5.5-1 .5-1-1 .5-1 .5-.5.5-.5.5-.5.5-.5.5-.5 1-.5 1 .5.5.5.5.5.5.5.5.5.5.5.5 1 .5 1 .5.5.5.5.5.5.5.5.5h1 1l.5 1 .5 1h1 1l.5.5.5.5.5.5.5.5h1.5 1.5l1-.5 1-.5" style="fill:#d8cec9;stroke:#d8cec9"/><path d="m811 490h1l-24.5-12.5-24.5-12.5-14.5-3.5-14.5-3.5 13 5.5 13 5.5 14.5 5 14.5 5 11 5.5 11 5.5" style="fill:#978b87;stroke:#978b87"/><path d="m808 502l1-2h-1.5-1.5-1.5-1.5l-.5.5-.5.5-1 1-1 1-1 .5-1 .5-.5.5-.5.5-1.5.5-1.5.5-1 .5-1 .5-.5.5-.5.5-1 .5-1 .5-1 .5-1 .5-.5.5-.5.5-13.5 10-13.5 10-19 13.5-19 13.5 15.5-8.5 15.5-8.5 15-9 15-9 13-10.5 13-10.5" style="fill:#cea086;stroke:#cea086"/><path d="m808 312l1-3-1-.5-1-.5-1.5.5-1.5.5-2 .5-2 .5-1.5.5-1.5.5h-1.5-1.5l-.5.5-.5.5v1 1l1-.5 1-.5 1-.5 1-.5.5 1 .5 1-1 1-1 1-1 1.5-1 1.5-.5 1.5-.5 1.5.5 2 .5 2 1.5-.5 1.5-.5.5-2 .5-2 1-1 1-1 1.5-1 1.5-1 1.5-1 1.5-1 1-1.5 1-1.5" style="fill:#978b87;stroke:#978b87"/><path d="m802 697l1-4-1.5-.5-1.5-.5-1-1.5-1-1.5-1.5-.5-1.5-.5-1-1-1-1-1.5-1-1.5-1-1-.5-1-.5-17 4.5-17 4.5-4.5 10-4.5 10h3.5 3.5 2 2l23-7.5 23-7.5" style="fill:#594c41;stroke:#594c41"/><path d="m802 320l1-3-1.5 1-1.5 1-1 1-1 1-.5 2-.5 2-1.5.5-1.5.5v1.5 1.5l1 2 1 2-.5 1.5-.5 1.5v2 2l-.5 2-.5 2v2 2l-1 1.5-1 1.5-1 1.5-1 1.5-.5-2.5-.5-2.5h-.5-.5l-1.5.5-1.5.5-.5.5-.5.5-.5.5-.5.5-.5.5-.5.5h-1-1l-.5.5-.5.5-1 .5-1 .5h-1-1l-.5.5-.5.5h-1-1l-1 .5-1 .5-.5.5-.5.5-.5.5-.5.5-.5.5-.5.5-1 .5-1 .5-.5.5-.5.5h-1-1-1-1l-.5.5-.5.5h-2-2l1 1.5 1 1.5 2 .5 2 .5 1 1 1 1 2 .5 2 .5h2 2l1-1.5 1-1.5 1.5-.5 1.5-.5 1-1 1-1 .5 1 .5 1-1 .5-1 .5-1 1.5-1 1.5-.5 1.5-.5 1.5-.5 2-.5 2-.5 1.5-.5 1.5-1 2-1 2-.5 1-.5 1-1 1.5-1 1.5-.5 2-.5 2-1 1-1 1-.5 2-.5 2-1 1-1 1-.5 2-.5 2-1 1-1 1-1 1.5-1 1.5-.5 1.5-.5 1.5-.5 1-.5 1 2-1 2-1h1.5 1.5l10-22.5 10-22.5 8.5-15 8.5-15-.5-1.5-.5-1.5.5-2 .5-2 .5-1.5.5-1.5 1-1.5 1-1.5.5-1 .5-1v-1.5-1.5" style="fill:#c38568;stroke:#c38568"/><path d="m798 314l-1-2-1 .5-1 .5-1 .5-1 .5-.5 1-.5 1-.5 1-.5 1-1 1.5-1 1.5-.5 1.5-.5 1.5v2 2l.5 1.5.5 1.5 1 1 1 1 .5 2 .5 2 1 1 1 1 .5-2 .5-2-.5-1.5-.5-1.5v-1.5-1.5-1.5-1.5l-.5-2-.5-2 .5-1.5.5-1.5 1-1.5 1-1.5 1-1 1-1" style="fill:#797268;stroke:#797268"/><path d="m795 336l1-3-1-2-1-2v1.5 1.5l.5 1.5.5 1.5-.5 2-.5 2-1-1-1-1-.5-2-.5-2-1-1-1-1-.5-1.5-.5-1.5.5 2 .5 2 .5 1.5.5 1.5.5 2 .5 2v2 2l-.5 2-.5 2-1 1-1 1h.5.5l1-.5 1-.5v1 1l-.5 2-.5 2 1-1.5 1-1.5 1-1.5 1-1.5v-2-2l.5-2 .5-2v-2-2" style="fill:#978b87;stroke:#978b87"/><path d="m793 312l1-1h-3-3-2.5-2.5-2-2-2.5-2.5-2-2l-1-.5-1-.5h-.5-.5-.5-.5l-18-23-18-23-27-17.5-27-17.5-1-.5-1-.5-1.5-.5-1.5-.5v-1-1h-1.5-1.5l-1 1-1 1 11.5 8.5 11.5 8.5 7.5 14 7.5 14 10.5 11.5 10.5 11.5 1.5.5 1.5.5 1 .5 1 .5.5.5.5.5h1 1v1 1 1.5 1.5l.5.5.5.5.5.5.5.5v1 1l.5 1 .5 1 20.5 3 20.5 3-18.5 22-18.5 22 .5.5.5.5 2 .5 2 .5 2 .5 2 .5h2 2l1 .5 1 .5h2 2l.5-.5.5-.5h1 1 1 1l.5-.5.5-.5 1-.5 1-.5.5-.5.5-.5.5-.5.5-.5.5-.5.5-.5 1-.5 1-.5h1 1l.5-.5.5-.5h1 1l1-.5 1-.5.5-.5.5-.5h1 1l.5-.5.5-.5.5-.5.5-.5.5-.5.5-.5 1.5-.5 1.5-.5 1-1 1-1 .5-2 .5-2v-2-2l-.5-2-.5-2-.5-1.5-.5-1.5-.5-2-.5-2v-2-2l.5-1.5.5-1.5 1-1.5 1-1.5.5-1 .5-1 .5-1 .5-1v-1-1" style="fill:#cea086;stroke:#cea086"/><path d="m791 350v-2l-1 .5-1 .5.5 2.5.5 2.5.5-2 .5-2" style="fill:#797268;stroke:#797268"/><path d="m788 344l-16-12-13.5 11-13.5 11 8.5 3 8.5 3 3.5-7.5 3.5-7.5-1 2-1 2-.5 1.5-.5 1.5-.5 1.5-.5 1.5-1 1.5-1 1.5-.5 1-.5 1 13-8 13-8" style="fill:#fbbf8e;stroke:#fbbf8e"/><path d="m786 511l1-1-1.5.5-1.5.5-.5.5-.5.5-.5.5-.5.5-.5 1-.5 1-.5.5-.5.5-1 .5-1 .5-15 9-15 9-22.5 19.5-22.5 19.5-1 2-1 2 10-10 10-10 19-13.5 19-13.5 13.5-10 13.5-10" style="fill:#a26f56;stroke:#a26f56"/><path d="m779 515v-2l-1-.5-1-.5-22 9.5-22 9.5-11.5 9.5-11.5 9.5-3.5 12-3.5 12 22.5-19.5 22.5-19.5 15-9 15-9 .5-1 .5-1" style="fill:#594c41;stroke:#594c41"/><path d="m779 366l-1-2-1 1-1 1-1.5.5-1.5.5-1 1.5-1 1.5h-2-2l-2-.5-2-.5-1-1-1-1-2-.5-2-.5h-.5-.5v.5.5l1 .5 1 .5 1 .5 1 .5.5.5.5.5v1 1l.5.5.5.5.5 1 .5 1v1 1 1 1l.5.5.5.5 1 .5 1 .5h1 1l.5.5.5.5.5 1 .5 1 1-2 1-2 .5-1.5.5-1.5.5-2 .5-2 .5-1.5.5-1.5 1-1.5 1-1.5 1-.5 1-.5" style="fill:#cea086;stroke:#cea086"/><path d="m778 308h1l-12-15-12-15 11.5 15 11.5 15" style="fill:#fff6cc;stroke:#fff6cc"/><path d="m777 315l-41-6h-.5-.5l-.5 1-.5 1-1.5-1-1.5-1 18 3.5 18 3.5-14 21.5-14 21.5h.5.5l18.5-22 18.5-22" style="fill:#c38568;stroke:#c38568"/><path d="m773 510h1l-.5-1.5-.5-1.5-1.5-1-1.5-1h-.5-.5-2-2-.5-.5-2-2l-.5.5-.5.5v.5.5l-.5 1.5-.5 1.5-.5-.5-.5-.5-1-.5-1-.5-1.5-.5-1.5-.5-1.5-1-1.5-1h-.5-.5l-17 5.5-17 5.5-16.5 6.5-16.5 6.5-13.5 10-13.5 10 5-8 5-8-1-4-1-4-17.5-5.5-17.5-5.5h-1-1-1-1l20.5 8.5 20.5 8.5-.5 1-.5 1-1 .5-1 .5-1 1-1 1-.5.5-.5.5-.5 1-.5 1-1 1-1 1-.5.5-.5.5-1.5.5-1.5.5h-.5-.5l-11.5 12-11.5 12-16.5 13-16.5 13 10.5 6.5 10.5 6.5 7 8 7 8 2-16 2-16 9-14 9-14 12-10.5 12-10.5 9-4.5 9-4.5 15.5-6 15.5-6 7.5-4.5 7.5-4.5 17-.5 17-.5" style="fill:#a26f56;stroke:#a26f56"/><path d="m770 646v-3l-.5-1-.5-1-.5-.5-.5-.5-.5-1.5-.5-1.5-.5-1.5-.5-1.5-1.5-1-1.5-1-1.5.5-1.5.5-2 .5-2 .5-1.5.5-1.5.5v-.5-.5l.5-.5.5-.5 1-1.5 1-1.5h-1-1l-1.5 1-1.5 1-.5.5-.5.5-.5.5-.5.5-.5.5-.5.5-1 .5-1 .5-.5.5-.5.5-.5.5-.5.5-1 .5-1 .5-1 .5-1 .5 1 .5 1 .5-.5 1-.5 1-.5 1-.5 1-.5 1-.5 1-.5 1.5-.5 1.5-.5.5-.5.5v1.5 1.5l-.5 1.5-.5 1.5-1 1-1 1 .5 2 .5 2 .5 1.5.5 1.5 17-10 17-10" style="fill:#c38568;stroke:#c38568"/><path d="m769 505h1l-1-1-1-1-1-1-1-1-2-.5-2-.5-1.5-.5-1.5-.5-2-.5-2-.5-1.5.5-1.5.5h-2.5-2.5l-1.5-.5-1.5-.5h-1.5-1.5-1-1l-1.5.5-1.5.5h-2-2-2-2v.5.5l1 .5 1 .5 1.5-.5 1.5-.5h2 2l2-.5 2-.5 2.5.5 2.5.5h1.5 1.5l1.5.5 1.5.5 2-.5 2-.5 1.5.5 1.5.5 2 .5 2 .5v1 1l1 .5 1 .5h2 2" style="fill:#978b87;stroke:#978b87"/><path d="m769 386l1-2-.5-1-.5-1-.5-.5-.5-.5h-1-1l-1-.5-1-.5-.5-.5-.5-.5v-1-1-1-1l-.5-1-.5-1-.5-.5-.5-.5v-1-1l-.5-.5-.5-.5-1-.5-1-.5-1-.5-1-.5.5 2 .5 2-.5 2-.5 2-1.5 20.5-1.5 20.5.5-.5.5-.5.5-1 .5-1 .5-1.5.5-1.5 1-1.5 1-1.5 1-1 1-1 .5-2 .5-2 1-1 1-1 .5-2 .5-2 1-1 1-1 .5-2 .5-2 1-1.5 1-1.5" style="fill:#fbbf8e;stroke:#fbbf8e"/><path d="m769 345l-7 15 .5-1 .5-1 1-1.5 1-1.5.5-1.5.5-1.5.5-1.5.5-1.5 1-2 1-2" style="fill:#ffd9af;stroke:#ffd9af"/><path d="m767 316l-36-7-.5-1.5-.5-1.5-.5-1-.5-1-.5-1.5-.5-1.5-.5-.5-.5-.5-1-.5-1-.5-1-1-1-1-1.5-.5-1.5-.5h-1-1l-1-.5-1-.5-1.5-.5-1.5-.5-.5-1.5-.5-1.5-9-12-9-12-9-8-9-8-9.5-11.5-9.5-11.5-.5-1-.5-1h-1.5-1.5-1-1l-.5.5-.5.5h-1-1-1.5-1.5l-1.5.5-1.5.5-.5.5-.5.5-1 1-1 1 11 20 11 20 6.5 7.5 6.5 7.5 8.5 12.5 8.5 12.5h-.5-.5l30.5 3.5 30.5 3.5-13 9.5-13 9.5 3 10.5 3 10.5 1.5.5 1.5.5 1.5.5 1.5.5 1-.5 1-.5 14-21.5 14-21.5" style="fill:#a26f56;stroke:#a26f56"/><path d="m766 310h1l-18.5-23-18.5-23 18 23 18 23" style="fill:#b8aea9;stroke:#b8aea9"/><path d="m766 148l1-3v-1-1-1-1-1-1l-.5-1-.5-1v-1-1-1-1l-.5-.5-.5-.5v-1.5-1.5l-.5-.5-.5-.5v-1-1l-.5-.5-.5-.5-1-1.5-1-1.5v.5.5l.5 1 .5 1v1 1l.5.5.5.5-.5 1.5-.5 1.5-9.5-14.5-9.5-14.5-10-12-10-12-9-14.5-9-14.5-13.5-24.5-13.5-24.5h-3-3-2.5-2.5-2-2-2.5-2.5-2-2-2.5-2.5-2-2-2.5-2.5-1.5-1.5l7 10.5 7 10.5 8.5 8 8.5 8 6.5 10.5 6.5 10.5 8.5 6 8.5 6 10 11 10 11 10.5 13.5 10.5 13.5 10.5 8 10.5 8-.5 12.5-.5 12.5-14.5 20.5-14.5 20.5-28.5 10-28.5 10-.5.5-.5.5-1.5.5-1.5.5-2 .5-2 .5-1.5.5-1.5.5-3 .5-3 .5.5 1 .5 1 1 .5 1 .5 1.5-1 1.5-1h2 2l1-1 1-1h1.5 1.5v1 1l1.5.5 1.5.5 1 .5 1 .5-1-1.5-1-1.5 1-1.5 1-1.5 1.5-.5 1.5-.5 2-.5 2-.5 1 .5 1 .5 22.5-8.5 22.5-8.5 11.5-11.5 11.5-11.5 6.5-17 6.5-17" style="fill:#978b87;stroke:#978b87"/><g style="fill:#cea086;stroke:#cea086"><path d="m764 505h1l-1-.5-1-.5v-1-1l-2-.5-2-.5-1.5-.5-1.5-.5-2 .5-2 .5-1.5-.5-1.5-.5h-1.5-1.5l-.5 1-.5 1 1 .5 1 .5 1 1 1 1 1.5 1 1.5 1 1.5.5 1.5.5 1 .5 1 .5.5.5.5.5.5-1.5.5-1.5v-.5-.5l.5-.5.5-.5h2 2"/><path d="m763 623h1l-1-.5-1-.5h-2-2l-2-.5-2-.5h-2-2-1.5-1.5l-2.5.5-2.5.5-1.5 1-1.5 1-.5 1.5-.5 1.5-1 1-1 1-.5 1-.5 1 .5 1.5.5 1.5.5 1.5.5 1.5.5 1 .5 1 .5.5.5.5h.5.5l1-.5 1-.5-1-1-1-1-1-1-1-1v-1-1l-.5-.5-.5-.5v-1-1l1-.5 1-.5.5-1.5.5-1.5 1-.5 1-.5.5-1 .5-1h2 2 2 2l2 .5 2 .5h2 2v1 1l-1.5 1-1.5 1-.5.5-.5.5-.5.5-.5.5h1 1l1.5-.5 1.5-.5 1-1 1-1 1-1.5 1-1.5v-.5-.5"/></g><path d="m762 131l1-3-.5-.5-.5-.5v-1-1l-.5-1-.5-1h-.5-.5l-10-15-10-15-8.5-14-8.5-14-13.5-19.5-13.5-19.5-1-1-1-1-.5-1.5-.5-1.5-1-1.5-1-1.5-1-1-1-1-.5-2-.5-2-1-1-1-1-1-1.5-1-1.5-.5-1.5-.5-1.5-.5-1.5-.5-1.5v-.5-.5h-2-2l13.5 24.5 13.5 24.5 9 14.5 9 14.5 10 12 10 12 9.5 14.5 9.5 14.5" style="fill:#b8aea9;stroke:#b8aea9"/><path d="m760 135l-21-16-10.5-13.5-10.5-13.5-10-11-10-11-8.5-6-8.5-6-6.5-10.5-6.5-10.5-8.5-8-8.5-8-7-10.5-7-10.5h-3-3-2.5-2.5-2-2-2.5-2.5-2-2-2.5-2.5l3.5 4.5 3.5 4.5 10 10 10 10-.5 5.5-.5 5.5 5 8 5 8 4.5 10 4.5 10 2 2 2 2 3 8.5 3 8.5 3 2 3 2 4 2 4 2 6 7 6 7 8.5 13.5 8.5 13.5 5.5-3.5 5.5-3.5 11.5 19 11.5 19-.5 1-.5 1-1 1.5-1 1.5-1 1-1 1-1 1.5-1 1.5v1 1l.5 2 .5 2-.5 1.5-.5 1.5-2 .5-2 .5.5 2 .5 2 14.5-20.5 14.5-20.5.5-12.5.5-12.5" style="fill:#797268;stroke:#797268"/><path d="m760 123h1v-.5-.5l-12.5-20.5-12.5-20.5-10-13.5-10-13.5-9.5-14.5-9.5-14.5h-.5-.5v.5.5l13.5 19.5 13.5 19.5 8.5 14 8.5 14 10 15 10 15" style="fill:#d8cec9;stroke:#d8cec9"/><path d="m759 626v-2h-2-2l-2-.5-2-.5h-2-2-2-2l-.5 1-.5 1 2 1 2 1 2 .5 2 .5h3 3l1.5-1 1.5-1" style="fill:#ffd9af;stroke:#ffd9af"/><path d="m756 426l1-1-1.5-.5-1.5-.5-.5.5-.5.5-1 .5-1 .5-.5.5-.5.5h-1-1l-.5-.5-.5-.5-1-.5-1-.5-.5.5-.5.5-.5.5-.5.5-.5.5-.5.5-.5-1-.5-1 .5-.5.5-.5 1-1 1-1-.5-1-.5-1-1 1-1 1-.5.5-.5.5-.5 1-.5 1-1 1-1 1-.5.5-.5.5-.5 1-.5 1 .5 1 .5 1 .5-1 .5-1 .5 1.5.5 1.5 1 .5 1 .5 1.5-.5 1.5-.5 1.5-1 1.5-1 1.5-.5 1.5-.5 1.5-1 1.5-1 1-1 1-1 1-.5 1-.5" style="fill:#bcd5e5;stroke:#bcd5e5"/><path d="m756 375l1-4-.5-2-.5-2h-2-2-.5-.5l-16.5 7-16.5 7-10 14.5-10 14.5-8.5 15.5-8.5 15.5-7-3-7-3 7.5-15.5 7.5-15.5-8.5-3-8.5-3-15 5-15 5-15 8-15 8-9.5-3.5-9.5-3.5 19.5-4 19.5-4v-.5-.5l-1 .5-1 .5-1 .5-1 .5-1.5.5-1.5.5-.5.5-.5.5-1 .5-1 .5-1.5.5-1.5.5h-1-1l-1 .5-1 .5h-2-2l-1-.5-1-.5-1.5-.5-1.5-.5h-1-1-1.5-1.5-2.5-2.5-2-2l-2-.5-2-.5-1.5.5-1.5.5.5 2 .5 2 1 1 1 1 .5 2 .5 2 .5 2 .5 2 1 1 1 1v1 1l.5 1 .5 1 1 1 1 1 1 1.5 1 1.5.5 1.5.5 1.5 1.5 1.5 1.5 1.5 10.5 13 10.5 13 3.5 22 3.5 22h.5.5 1 1 29 29l1-.5 1-.5v-1.5-1.5l1-1 1-1 .5-2 .5-2 1-1.5 1-1.5.5-1.5.5-1.5.5-.5.5-.5v-1-1l.5-1 .5-1 .5-1 .5-1 15.5-12.5 15.5-12.5 2-.5 2-.5.5-1.5.5-1.5v-2.5-2.5l.5-1.5.5-1.5.5-1 .5-1 .5-.5.5-.5v-2-2l.5-1 .5-1v-1-1l.5-1.5.5-1.5-.5-1.5-.5-1.5 1-2 1-2-.5-1-.5-1 .5-1 .5-1 .5-.5.5-.5 1-1 1-1 .5-1 .5-1 .5-.5.5-.5 1-1 1-1 .5 1 .5 1 2.5-1 2.5-1 1-1 1-1 1-1.5 1-1.5 1.5-20.5 1.5-20.5" style="fill:#ffd9af;stroke:#ffd9af"/><path d="m756 366h1l-1-1.5-1-1.5-1-.5-1-.5h-2-2l-2-.5-2-.5-2-.5-2-.5-.5 1.5-.5 1.5-.5.5-.5.5 1.5.5 1.5.5 1 .5 1 .5h1.5 1.5 1.5 1.5l1 .5 1 .5h2 2v-.5-.5" style="fill:#b8aea9;stroke:#b8aea9"/><path d="m755 629l1-1h-3-3l-2-.5-2-.5-2-1-2-1-1 .5-1 .5-.5 1.5-.5 1.5-1 .5-1 .5v1 1l.5.5.5.5v1 1l1 1 1 1 1 1 1 1 1-.5 1-.5.5-.5.5-.5.5-.5.5-.5 1-.5 1-.5.5-.5.5-.5.5-.5.5-.5.5-.5.5-.5 1.5-1 1.5-1 .5-.5.5-.5" style="fill:#fbbf8e;stroke:#fbbf8e"/><path d="m752 376l-25 11-11.5 12-11.5 12-9.5 15-9.5 15-17 5.5-17 5.5-12 2.5-12 2.5-5-10.5-5-10.5-12-3-12-3-1 1-1 1 13.5 10 13.5 10 10 9 10 9 6.5 15 6.5 15 13.5-6 13.5-6 8.5-16 8.5-16 9-15.5 9-15.5 12.5-13.5 12.5-13.5-7.5 17-7.5 17-8.5 15.5-8.5 15.5-9 15.5-9 15.5-31 5.5-31 5.5 18 5.5 18 5.5 13.5-10 13.5-10 9.5-15 9.5-15 8.5-5 8.5-5 4-19.5 4-19.5 8-16.5 8-16.5 1.5-4 1.5-4" style="fill:#fff6cc;stroke:#fff6cc"/><path d="m751 367h1l-1-.5-1-.5h-1.5-1.5-1.5-1.5-.5-.5l-19.5 6-19.5 6-17.5 7-17.5 7-22 8.5-22 8.5-19.5 4-19.5 4 9.5 3.5 9.5 3.5 15-8 15-8 15-5 15-5 8.5 3 8.5 3-7.5 15.5-7.5 15.5 7 3 7 3 8.5-15.5 8.5-15.5 10-14.5 10-14.5 16.5-7 16.5-7" style="fill:#fbbf8e;stroke:#fbbf8e"/><path d="m751 318l-61-7-14.5-20-14.5-20-11-20-11-20-1.5 19-1.5 19v20.5 20.5l-1 21.5-1 21.5 2.5-20 2.5-20 2-19.5 2-19.5 9 8.5 9 8.5 8.5 13 8.5 13-6 11-6 11 2 7 2 7 28 2.5 28 2.5h2.5 2.5l-3-10.5-3-10.5 13-9.5 13-9.5" style="fill:#83513b;stroke:#83513b"/><path d="m748 505h1l-1-1-1-1-1-.5-1-.5.5-1 .5-1-2.5-.5-2.5-.5-2 .5-2 .5h-2-2l-1.5.5-1.5.5v-17-17h-.5-.5l-4.5 12.5-4.5 12.5-15 4.5-15 4.5-1 1.5-1 1.5-.5 2-.5 2-1 1-1 1v1.5 1.5l1-2 1-2 1-1 1-1 .5-1.5.5-1.5 2-.5 2-.5v-1-1-.5-.5l1-1 1-1 2-.5 2-.5 1.5.5 1.5.5-.5 1.5-.5 1.5-1 .5-1 .5h-1.5-1.5l-.5 1.5-.5 1.5.5.5.5.5h1 1l.5.5.5.5 1 1.5 1 1.5.5-1.5.5-1.5 1-.5 1-.5 1-1 1-1 .5-.5.5-.5h1.5 1.5 1 1l.5.5.5.5h1.5 1.5l1.5-.5 1.5-.5h1 1l.5-.5.5-.5h1 1v1 1l-19.5 7-19.5 7h-1.5-1.5l.5-1.5.5-1.5.5-1 .5-1-1 .5-1 .5-.5 1-.5 1-27.5-1-27.5-1 17.5 5.5 17.5 5.5 1 4 1 4-5 8-5 8 13.5-10 13.5-10 16.5-6.5 16.5-6.5 17-5.5 17-5.5" style="fill:#c38568;stroke:#c38568"/><path d="m743 366h1l-1-.5-1-.5-1.5-.5-1.5-.5h-2-2l-.5.5-.5.5-17.5 5.5-17.5 5.5-25.5 10-25.5 10-1.5.5-1.5.5-1 .5-1 .5-.5.5-.5.5-.5.5-.5.5h-1-1l-1 .5-1 .5-.5.5-.5.5h-1-1l-.5.5-.5.5-1 .5-1 .5-1.5.5-1.5.5-.5.5-.5.5-1 1-1 1v.5.5l22-8.5 22-8.5 17.5-7 17.5-7 19.5-6 19.5-6" style="fill:#cea086;stroke:#cea086"/><path d="m743 141v-2l-.5-1.5-.5-1.5-1 .5-1 .5-1 1-1 1-1.5 1-1.5 1v1 1l1.5 1 1.5 1h1 1l1-1 1-1 .5-1 .5-1" style="fill:#594c41;stroke:#594c41"/><path d="m741 687l1-3v-1-1l-.5-.5-.5-.5-.5-1-.5-1v-1-1l-.5-.5-.5-.5-.5-.5-.5-.5v-1-1l-.5-1-.5-1v-1-1l-.5-1.5-.5-1.5-.5-1.5-.5-1.5-.5-2-.5-2-2-.5-2-.5-2 1-2 1v1.5 1.5 2 2l.5 2 .5 2 .5 1.5.5 1.5.5 2 .5 2 1 1 1 1 .5 2 .5 2 1.5.5 1.5.5 1 1 1 1 1 .5 1 .5 1-.5 1-.5" style="fill:#fff6cc;stroke:#fff6cc"/><path d="m741 643l1-2-1-.5-1-.5h-.5-.5l-1 2-1 2-.5 2-.5 2-1 1-1 1-1 1.5-1 1.5h-1-1l-1 1.5-1 1.5-1 .5-1 .5v1.5 1.5l2-1 2-1 2 .5 2 .5 1-1 1-1 .5-1.5.5-1.5v-1.5-1.5l.5-.5.5-.5.5-1.5.5-1.5.5-1 .5-1 .5-1 .5-1" style="fill:#a26f56;stroke:#a26f56"/><path d="m740 363l1-3-.5-.5-.5-.5h-.5-.5l-1 .5-1 .5-1.5-.5-1.5-.5-1.5-.5-1.5-.5h-2.5-2.5l-1 1-1 1v1 1l3 .5 3 .5h1.5 1.5l1 .5 1 .5h2 2l.5-.5.5-.5" style="fill:#797268;stroke:#797268"/><path d="m740 177l-23-38-5.5 3.5-5.5 3.5-8.5-13.5-8.5-13.5-6-7-6-7-4-2-4-2-3-2-3-2-3-8.5-3-8.5-2-2-2-2-4.5-10-4.5-10-5-8-5-8 .5-5.5.5-5.5-10-10-10-10-3.5-4.5-3.5-4.5h-24-24-24.5-24.5-24.5-24.5-24-24-24.5-24.5-24.5-24.5-24.5-24.5-8.5-8.5l7 10 7 10 18.5 14.5 18.5 14.5-6.5 17-6.5 17-6-12.5-6-12.5.5 1 .5 1 .5.5.5.5v1 1l.5.5.5.5-.5 1.5-.5 1.5-1-4.5-1-4.5-7.5 1-7.5 1 4 10.5 4 10.5-8 1-8 1 11.5 7.5 11.5 7.5-5.5 6-5.5 6 13.5 6 13.5 6-2-11.5-2-11.5 5.5-10 5.5-10 1.5-6.5 1.5-6.5 7-6.5 7-6.5 3 12 3 12 1.5-2 1.5-2 8-7.5 8-7.5 6-2 6-2 5-5.5 5-5.5-1.5 13-1.5 13 4-13 4-13 6-3.5 6-3.5-2.5-8-2.5-8 11.5-.5 11.5-.5.5 10 .5 10 4.5 3.5 4.5 3.5 1 7.5 1 7.5h1 1l4.5 8 4.5 8 6.5 7 6.5 7 5.5 2 5.5 2 6.5 5.5 6.5 5.5 3 1.5 3 1.5 3.5 8.5 3.5 8.5h7.5 7.5l11.5 14 11.5 14-8.5 2.5-8.5 2.5-10.5-8-10.5-8-11.5-6.5-11.5-6.5-8-3.5-8-3.5-2.5-3-2.5-3-4 3.5-4 3.5 8.5 11 8.5 11 23.5 12.5 23.5 12.5.5 1.5.5 1.5 1.5.5 1.5.5 12.5 6.5 12.5 6.5 10.5 5.5 10.5 5.5 1.5.5 1.5.5.5 1 .5 1 .5.5.5.5 1.5.5 1.5.5 1-1.5 1-1.5.5.5.5.5.5.5.5.5.5.5.5.5h1.5 1.5l.5.5.5.5h1 1l.5.5.5.5 1 .5 1 .5.5.5.5.5.5.5.5.5.5.5.5.5h1.5 1.5l.5.5.5.5.5.5.5.5-.5 1.5-.5 1.5-1-1.5-1-1.5-.5-.5-.5-.5-1 .5-1 .5h-1-1l-.5-.5-.5-.5h-1.5-1.5l-1-1-1-1-.5-.5-.5-.5h-1.5-1.5l-1.5-1-1.5-1h-.5-.5l-11 6-11 6 3 9 3 9-21 2-21 2-19.5-2-19.5-2 11.5 10.5 11.5 10.5 1 13 1 13 6 8 6 8-13 11-13 11-14.5 7.5-14.5 7.5-15.5-2.5-15.5-2.5-12.5 11-12.5 11-12 1-12 1-7.5-10.5-7.5-10.5 3.5-11.5 3.5-11.5-7.5 3-7.5 3-13 2-13 2-14.5 1-14.5 1h-11.5-11.5l-16-.5-16-.5-25-2-25-2-13-1.5-13-1.5-5.5 14-5.5 14 6.5 17 6.5 17 4 13 4 13-8.5-15-8.5-15-6-6-6-6v13.5 13.5l-12 5.5-12 5.5-4.5 11.5-4.5 11.5-9.5 11-9.5 11-8 13.5-8 13.5-7.5 11.5-7.5 11.5-9 12.5-9 12.5-8.5 15-8.5 15v23.5 23.5 15.5 15.5l11-6.5 11-6.5 7-9 7-9 4.5-6.5 4.5-6.5 4-6.5 4-6.5 8-9 8-9 6.5-5.5 6.5-5.5 7.5-7.5 7.5-7.5 6.5-12 6.5-12 7.5-9.5 7.5-9.5 7.5-14.5 7.5-14.5 7.5-12.5 7.5-12.5 14 3.5 14 3.5-2-14-2-14 .5-7.5.5-7.5 9.5-12.5 9.5-12.5 9.5-6.5 9.5-6.5 18.5 1.5 18.5 1.5 6-2 6-2 11.5-2 11.5-2 13 8 13 8 6-3 6-3 17 6 17 6 20-4.5 20-4.5 3.5 9.5 3.5 9.5 7 11 7 11 5 16 5 16 3.5 2 3.5 2 10.5-7.5 10.5-7.5 11.5 6.5 11.5 6.5-8-13-8-13 3.5-8 3.5-8 1-15 1-15 2.5-9.5 2.5-9.5 1-4 1-4 13 1.5 13 1.5 11 13 11 13 1.5-.5 1.5-.5-3-10-3-10 9 15.5 9 15.5 4.5 13.5 4.5 13.5 7.5 15.5 7.5 15.5-2.5-7.5-2.5-7.5 8 1 8 1-.5-2-.5-2-1-1-1-1-.5-2-.5-2 1.5-.5 1.5-.5 2 .5 2 .5h2 2l17-6 17-6 10.5-14 10.5-14 18.5-6 18.5-6 21.5-.5 21.5-.5 1-1 1-1-28-2.5-28-2.5-2-7-2-7 6-11 6-11-8.5-13-8.5-13-9-8.5-9-8.5-2 19.5-2 19.5-2.5 20-2.5 20-15.5 19.5-15.5 19.5-.5 1-.5 1-1.5 1.5-1.5 1.5-1 1.5-1 1.5-.5 1.5-.5 1.5-1.5.5-1.5.5-2 .5-2 .5h-2-2-2.5-2.5l-.5 1.5-.5 1.5-1.5-1-1.5-1-1.5-.5-1.5-.5-1.5-1-1.5-1-1-.5-1-.5-1-1-1-1-1-1.5-1-1.5-1-1-1-1-1-1.5-1-1.5-1-1-1-1-1.5-1-1.5-1-.5-1.5-.5-1.5-1-1-1-1-1-1-1-1h-.5-.5l-10-21.5-10-21.5-1-1-1-1-.5-.5-.5-.5-.5-1-.5-1-9-13-9-13-.5-12-.5-12 6.5-14.5 6.5-14.5 13.5-8.5 13.5-8.5 11-10.5 11-10.5 1.5-1.5 1.5-1.5 1.5.5 1.5.5 1.5 1 1.5 1 1.5 1.5 1.5 1.5h1 1 1 1l.5.5.5.5 1 .5 1 .5 1-1 1-1h1 1l1 .5 1 .5 1.5.5 1.5.5.5-.5.5-.5 1 .5 1 .5 1 1 1 1-.5 1.5-.5 1.5-1.5.5-1.5.5-.5-.5-.5-.5h-1.5-1.5-1-1-1.5-1.5l-.5 1-.5 1-10.5 23-10.5 23 11.5-13 11.5-13 10.5-12.5 10.5-12.5 31.5-1 31.5-1 28.5-10 28.5-10-.5-2-.5-2 2-.5 2-.5.5-1.5.5-1.5-.5-2-.5-2v-1-1l1-1.5 1-1.5 1-1 1-1 1-1.5 1-1.5.5-1 .5-1" style="fill:#594c41;stroke:#594c41"/><path d="m738 398l-25 27-9 15.5-9 15.5-8.5 16-8.5 16-13.5 6-13.5 6-6.5-15-6.5-15-10-9-10-9-13.5-10-13.5-10 10.5 15 10.5 15 5 17.5 5 17.5 2 4 2 4 31-5.5 31-5.5 9-15.5 9-15.5 8.5-15.5 8.5-15.5 7.5-17 7.5-17" style="fill:#ffffed;stroke:#ffffed"/><path d="m737 641l1-2-.5-1-.5-1v2 2" style="fill:#594c41;stroke:#594c41"/><path d="m735 309h1l-.5-1-.5-1v-1-1l-.5-.5-.5-.5-.5-.5-.5-.5v-1.5-1.5-1-1h-1-1l-.5-.5-.5-.5-1-.5-1-.5-1.5-.5-1.5-.5h-.5-.5l-.5-1-.5-1-1-1.5-1-1.5-1.5-.5-1.5-.5.5 1 .5 1-1 1-1 1-2.5-1-2.5-1 .5 1.5.5 1.5 1.5.5 1.5.5 1 .5 1 .5h1 1l1.5.5 1.5.5 1 1 1 1 1 .5 1 .5.5.5.5.5.5 1.5.5 1.5.5 1 .5 1 .5 1.5.5 1.5 1.5 1 1.5 1 .5-1 .5-1" style="fill:#978b87;stroke:#978b87"/><path d="m734 365l1-1-1-.5-1-.5h-1.5-1.5l-.5.5-.5.5-18 4.5-18 4.5-22.5 11.5-22.5 11.5 25.5-10 25.5-10 17.5-5.5 17.5-5.5" style="fill:#c38568;stroke:#c38568"/><path d="m732 498l1-3-.5-1.5-.5-1.5.5-2 .5-2v-2-2-2.5-2.5-2-2l-.5-1.5-.5-1.5-.5.5-.5.5v1.5 1.5l-.5.5-.5.5v1 1 1.5 1.5 1 1l-.5.5-.5.5v1 1l-.5 1-.5 1v1 1 1 1 1 1 2 2h2 2v-.5-.5" style="fill:#594c41;stroke:#594c41"/><path d="m732 467l1-4-.5 1-.5 1-1 1-1 1v17 17l-1-.5-1-.5-1-2-1-2v-2-2l.5-2 .5-2v-2-2l.5-2 .5-2v-1-1l-.5-2-.5-2 .5-1.5.5-1.5 1-.5 1-.5 1-1.5 1-1.5" style="fill:#a26f56;stroke:#a26f56"/><path d="m731 473l1-1-1-1-1-1-1 .5-1 .5-.5 1.5-.5 1.5.5 2 .5 2v1 1l-.5 2-.5 2v2 2l-.5 2-.5 2v2 2l1 2 1 2v-.5-.5-2-2-1-1-1-1-1-1l.5-1 .5-1v-1-1l.5-.5.5-.5v-1-1-1.5-1.5-1-1l.5-.5.5-.5v-1.5-1.5" style="fill:#83513b;stroke:#83513b"/><path d="m729 467h1l-1-.5-1-.5h-1.5-1.5l-.5.5-.5.5-15 12-15 12-.5 1-.5 1-.5 1-.5 1v1 1l-.5.5-.5.5-.5 1.5-.5 1.5 15-4.5 15-4.5 4.5-12.5 4.5-12.5" style="fill:#cea086;stroke:#cea086"/><path d="m729 364l1-1-3-.5-3-.5h-.5-.5l-17.5 4-17.5 4-16.5 6-16.5 6-26.5 16-26.5 16 1 .5 1 .5h2 2l1-.5 1-.5h1 1l1.5-.5 1.5-.5 1-.5 1-.5.5-.5.5-.5 1.5-.5 1.5-.5 1-.5 1-.5 1-.5 1-.5 1-1 1-1 .5-.5.5-.5 1.5-.5 1.5-.5 1-.5 1-.5.5-.5.5-.5h1 1l.5-.5.5-.5 1-.5 1-.5h1 1l.5-.5.5-.5.5-.5.5-.5 1-.5 1-.5 1.5-.5 1.5-.5 22.5-11.5 22.5-11.5 18-4.5 18-4.5" style="fill:#a26f56;stroke:#a26f56"/><path d="m725 504v-2h-1-1l-.5.5-.5.5h-1-1l-1.5.5-1.5.5h-1.5-1.5l-.5-.5-.5-.5h-1-1-1.5-1.5l-.5.5-.5.5-1 1-1 1-1 .5-1 .5-.5 1.5-.5 1.5-1.5.5-1.5.5-1.5.5-1.5.5-1.5 1-1.5 1-1.5.5-1.5.5-2 1.5-2 1.5 19.5-7 19.5-7" style="fill:#cea086;stroke:#cea086"/><path d="m724 467l1-1-15.5 12.5-15.5 12.5 15-12 15-12" style="fill:#fbbf8e;stroke:#fbbf8e"/><path d="m724 295h1l-10.5-11.5-10.5-11.5-7.5-14-7.5-14-11.5-8.5-11.5-8.5h-2-2l-1.5 1-1.5 1-1-.5-1-.5 9.5 11.5 9.5 11.5 9 8 9 8 9 12 9 12 2.5 1 2.5 1 1-1 1-1-.5-1-.5-1 1.5.5 1.5.5 1 1.5 1 1.5.5 1 .5 1" style="fill:#c38568;stroke:#c38568"/><g style="fill:#83513b;stroke:#83513b"><path d="m723 362h1v-1-1l-21.5.5-21.5.5-18.5 6-18.5 6-10.5 14-10.5 14-17 6-17 6h2.5 2.5 1.5 1.5 1 1l1.5.5 1.5.5 26.5-16 26.5-16 16.5-6 16.5-6 17.5-4 17.5-4"/><path d="m709 309v-2l-1.5-.5-1.5-.5-1.5-1-1.5-1-1.5.5-1.5.5-1-1.5-1-1.5-.5 1.5-.5 1.5.5 2 .5 2 1.5.5 1.5.5h1 1l2-.5 2-.5h1 1"/></g><path d="m702 501l1-3-1.5-.5-1.5-.5-2 .5-2 .5-1 1-1 1v.5.5 1 1l-2 .5-2 .5-.5 1.5-.5 1.5-1 1-1 1-1 2-1 2-.5 1-.5 1-.5 1.5-.5 1.5h1.5 1.5l2-1.5 2-1.5 1.5-.5 1.5-.5 1.5-1 1.5-1 1.5-.5 1.5-.5 1.5-.5 1.5-.5-1-1.5-1-1.5-.5-.5-.5-.5h-1-1l-.5-.5-.5-.5.5-1.5.5-1.5h1.5 1.5l1-.5 1-.5" style="fill:#a26f56;stroke:#a26f56"/><path d="m698 60v-2l-.5-1.5-.5-1.5.5-2 .5-2-1-1-1-1-2-.5-2-.5-1 1-1 1 1 1.5 1 1.5.5 1.5.5 1.5 1 1 1 1 1.5 1 1.5 1" style="fill:#b8aea9;stroke:#b8aea9"/><path d="m696 25h1l-.5-1-.5-1-.5-1.5-.5-1.5-1-1.5-1-1.5-1-1-1-1-.5-2-.5-2-1-1-1-1-1-1.5-1-1.5-1-2-1-2-.5-.5-.5-.5h-.5-.5l.5 1.5.5 1.5.5 1.5.5 1.5 1 1.5 1 1.5 1 1 1 1 .5 2 .5 2 1 1 1 1 1 1.5 1 1.5.5 1.5.5 1.5 1 1 1 1v-.5-.5" style="fill:#bcd5e5;stroke:#bcd5e5"/><path d="m692 258l1-3-1.5-.5-1.5-.5-1.5-1-1.5-1-1-1-1-1-1 .5-1 .5v2 2l.5 2 .5 2h1 1 2 2l1-.5 1-.5" style="fill:#a26f56;stroke:#a26f56"/><path d="m691 311l-17-25-6.5-7.5-6.5-7.5 14.5 20 14.5 20h.5.5" style="fill:#797268;stroke:#797268"/><path d="m682 516l1-2h-29-29 1 1l27.5 1 27.5 1" style="fill:#cea086;stroke:#cea086"/><path d="m672 222l1-1-31.5 1-31.5 1-10.5 12.5-10.5 12.5-11.5 13-11.5 13-1 .5-1 .5 10.5-1 10.5-1v-6-6l4-3 4-3 19-11 19-11-2 21.5-2 21.5-1 23-1 23-2.5 18.5-2.5 18.5-10.5 17.5-10.5 17.5h.5.5l1.5-1 1.5-1 15.5-19.5 15.5-19.5 1-21.5 1-21.5v-20.5-20.5l1.5-19 1.5-19 1-1 1-1 .5-.5.5-.5 1.5-.5 1.5-.5h1.5 1.5 1 1l.5-.5.5-.5h1 1 1.5 1.5l3-.5 3-.5 1.5-.5 1.5-.5 2-.5 2-.5 1.5-.5 1.5-.5" style="fill:#797268;stroke:#797268"/><path d="m664 531l-41-17h-.5-.5l14.5 14.5 14.5 14.5 1.5-.5 1.5-.5.5-.5.5-.5 1-1 1-1 .5-1 .5-1 .5-.5.5-.5 1-1 1-1 1-.5 1-.5.5-1 .5-1" style="fill:#83513b;stroke:#83513b"/><path d="m663 331l-9-3-9 15.5-9 15.5-11 13.5-11 13.5-3.5 11-3.5 11 11.5-13 11.5-13 13.5-10 13.5-10 1.5-11.5 1.5-11.5 1.5-4 1.5-4" style="fill:#232418;stroke:#232418"/><path d="m650 543h1l-14.5-14.5-14.5-14.5-3.5-22-3.5-22-10.5-13-10.5-13 10 14.5 10 14.5-.5 9.5-.5 9.5v14.5 14.5l8 20 8 20-12 11.5-12 11.5-12 17-12 17 1-1 1-1 .5-.5.5-.5v-1-1l.5-.5.5-.5.5-1 .5-1 .5-.5.5-.5v-1-1l.5-.5.5-.5.5-1 .5-1v-1-1l.5-.5.5-.5v-1-1l.5-1 .5-1 .5-.5.5-.5.5-.5.5-.5.5-1 .5-1 16.5-13 16.5-13 11.5-12 11.5-12" style="fill:#594c41;stroke:#594c41"/><path d="m631 233l-38 22-4 3-4 3v6 6l-10.5 1-10.5 1-1 2.5-1 2.5v1.5 1.5l-.5 1-.5 1v1 1l-.5 2.5-.5 2.5-.5 1.5-.5 1.5-1 2.5-1 2.5 1-.5 1-.5 12.5-8 12.5-8 8-14 8-14 13.5-10 13.5-10-4 18.5-4 18.5-2.5 19-2.5 19-16 18-16 18 8.5 24 8.5 24 10.5-17.5 10.5-17.5 2.5-18.5 2.5-18.5 1-23 1-23 2-21.5 2-21.5" style="fill:#978b87;stroke:#978b87"/><path d="m629 561l-16-40v-14.5-14.5l.5-9.5.5-9.5-10-14.5-10-14.5-1.5-1.5-1.5-1.5-.5-1.5-.5-1.5-1-1.5-1-1.5-1-1-1-1-.5-1-.5-1v-1-1l-1-1-1-1-.5-2-.5-2-8-1-8-1 2.5 7.5 2.5 7.5-7.5-15.5-7.5-15.5-4.5-13.5-4.5-13.5-9-15.5-9-15.5 3 10 3 10-1.5.5-1.5.5-11-13-11-13-13-1.5-13-1.5-1 4-1 4-2.5 9.5-2.5 9.5-1 15-1 15-3.5 8-3.5 8 8 13 8 13-11.5-6.5-11.5-6.5-10.5 7.5-10.5 7.5-3.5-2-3.5-2-5-16-5-16-7-11-7-11-3.5-9.5-3.5-9.5-20 4.5-20 4.5-17-6-17-6-6 3-6 3-13-8-13-8-11.5 2-11.5 2-6 2-6 2-18.5-1.5-18.5-1.5-9.5 6.5-9.5 6.5-9.5 12.5-9.5 12.5-.5 7.5-.5 7.5 2 14 2 14-14-3.5-14-3.5-7.5 12.5-7.5 12.5-7.5 14.5-7.5 14.5-7.5 9.5-7.5 9.5-6.5 12-6.5 12-7.5 7.5-7.5 7.5-6.5 5.5-6.5 5.5-8 9-8 9-4 6.5-4 6.5-4.5 6.5-4.5 6.5-7 9-7 9-11 6.5-11 6.5v23.5 23.5 19 19h5.5 5.5 24.5 24.5 24.5 24.5 24.5 24.5 24 24 24.5 24.5 24.5 24.5 24.5 24.5 24.5 24.5 24.5 24.5 24 24 24.5 24.5 3 3l4-19.5 4-19.5 9.5-27.5 9.5-27.5 12-17 12-17 12-11.5 12-11.5" style="fill:#232418;stroke:#232418"/><path d="m627 235l-27 20-8 14-8 14-12.5 8-12.5 8 10 17.5 10 17.5v2 2l.5 1 .5 1v2 2l1 1 1 1 16-18 16-18 2.5-19 2.5-19 4-18.5 4-18.5" style="fill:#b8aea9;stroke:#b8aea9"/><path d="m611 255l-14 14-6.5 17-6.5 17 6-1.5 6-1.5 5-17.5 5-17.5 2.5-5 2.5-5" style="fill:#d8cec9;stroke:#d8cec9"/><path d="m602 394l1-2-1.5 1-1.5 1h-.5-.5l-8.5-24-8.5-24-1-1-1-1v-2-2l-.5-1-.5-1v-2-2l-.5-1-.5-1v-1-1-1-1-1-1-1.5-1.5-1-1-1-1-1-1-1.5-1.5l1.5 22.5 1.5 22.5 5 20.5 5 20.5-2 .5-2 .5-.5-.5-.5-.5h-1.5-1.5-2-2-2.5-2.5l-1.5.5-1.5.5-1-1-1-1-.5-.5-.5-.5-1-.5-1-.5.5-1 .5-1-1.5-1-1.5-1-1-1-1-1-1-1-1-1-.5-.5-.5-.5 1-.5 1-.5-.5-1.5-.5-1.5v-1-1l-.5-1-.5-1-1-1-1-1-2 .5-2 .5-.5-1-.5-1v-1-1l-1 1.5-1 1.5v1.5 1.5l1 1 1 1 1 1 1 1 .5 1.5.5 1.5 1.5 1 1.5 1 1 1 1 1 1 1.5 1 1.5 1 1 1 1 1 1.5 1 1.5 1 1 1 1 1 .5 1 .5 2 .5 2 .5 1.5-.5 1.5-.5h2.5 2.5 2 2l2 .5 2 .5 1.5-.5 1.5-.5 1.5-1 1.5-1 .5-.5.5-.5 1-1.5 1-1.5 1.5-1.5 1.5-1.5" style="fill:#fff6cc;stroke:#fff6cc"/><g style="fill:#797268;stroke:#797268"><path d="m600 226l1-3-1-1-1-1-1-.5-1-.5-.5.5-.5.5-1.5-.5-1.5-.5-1-.5-1-.5h-1-1l-1 1-1 1-1-.5-1-.5-.5-.5-.5-.5h-1-1l-.5 1-.5 1 .5 1.5.5 1.5.5.5.5.5 1 .5 1 .5h1.5 1.5 1.5 1.5 1 1 1.5 1.5l.5.5.5.5 1.5-.5 1.5-.5"/><path d="m596 403l1-3-.5.5-.5.5-1.5 1-1.5 1-1.5.5-1.5.5-2-.5-2-.5h-2-2-2.5-2.5l-1.5.5-1.5.5-2-.5-2-.5 1.5 1 1.5 1 1.5.5 1.5.5 1.5 1 1.5 1 .5-1.5.5-1.5h2.5 2.5 2 2l2-.5 2-.5 1.5-.5 1.5-.5"/></g><path d="m591 400l-10-41-1.5-22.5-1.5-22.5-11-4.5-11-4.5-17 4-17 4 3 9 3 9 11 8 11 8 13 7 13 7 3.5 10 3.5 10 1 1.5 1 1.5-.5 1.5-.5 1.5-1 1-1 1-.5 1.5-.5 1.5-1.5.5-1.5.5h-1-1l-2 .5-2 .5-.5.5-.5.5h-2-2l-.5 1-.5 1 1 .5 1 .5.5.5.5.5 1 1 1 1 1.5-.5 1.5-.5h2.5 2.5 2 2 1.5 1.5l.5.5.5.5 2-.5 2-.5" style="fill:#ffffed;stroke:#ffffed"/><path d="m587 228l1-2h-1.5-1.5l-1-.5-1-.5-.5-.5-.5-.5-.5-1.5-.5-1.5.5-1 .5-1h-1-1l-.5.5-.5.5-1 1.5-1 1.5h-1-1l-.5-.5-.5-.5-.5-.5-.5-.5-.5-.5-.5-.5-.5-.5-.5-.5v-1.5-1.5h-1.5-1.5l-11 10.5-11 10.5-13.5 8.5-13.5 8.5-6.5 14.5-6.5 14.5.5 12 .5 12 15.5-6 15.5-6 12-7.5 12-7.5 1-2.5 1-2.5 1-.5 1-.5 10.5-23 10.5-23" style="fill:#83513b;stroke:#83513b"/><path d="m584 387l1-3-1-1.5-1-1.5h-.5-.5l-.5-1-.5-1-1-1-1-1-.5-1-.5-1-1-1-1-1-2-.5-2-.5-1-1-1-1h-2-2l1.5 1 1.5 1 1 1 1 1 1 .5 1 .5-.5.5-.5.5-2.5.5-2.5.5-2 1.5-2 1.5-.5 1-.5 1-.5 1.5-.5 1.5.5 1.5.5 1.5 1 1.5 1 1.5 1 1 1 1 3 .5 3 .5 2-.5 2-.5h1 1l1.5-.5 1.5-.5.5-1.5.5-1.5 1-1 1-1" style="fill:#797268;stroke:#797268"/><path d="m582 381h1l-3.5-10-3.5-10-13-7-13-7-11-8-11-8-3-9-3-9 17-4 17-4 11 4.5 11 4.5v1.5 1.5 1 1 1 1 1 1 1.5 1.5 1 1 1 1 1 1l.5 1 .5 1-10-17.5-10-17.5-1 .5-1 .5-1 1.5-1 1.5-.5 1-.5 1-19 2-19 2 4.5 12 4.5 12 .5 1 .5 1 .5.5.5.5 1 1 1 1 10 5.5 10 5.5.5 1 .5 1 1.5.5 1.5.5.5.5.5.5 1 .5 1 .5h1 1l.5-.5.5-.5.5 1 .5 1v1.5 1.5l-.5 1-.5 1-2-.5-2-.5h-1-1l.5 2 .5 2-1-.5-1-.5.5 2.5.5 2.5.5 1.5.5 1.5v1.5 1.5l1-1.5 1-1.5 1 1 1 1 .5.5.5.5 1 .5 1 .5 1.5.5 1.5.5 2 .5 2 .5 2.5-.5 2.5-.5-1-.5-1-.5-1-1-1-1-1.5-1-1.5-1h2 2l1 1 1 1 2 .5 2 .5 1 1 1 1 .5 1 .5 1 1 1 1 1 .5 1 .5 1" style="fill:#d8cec9;stroke:#d8cec9"/><g style="fill:#594c41;stroke:#594c41"><path d="m581 508l1-3-.5-1.5-.5-1.5-1-1.5-1-1.5.5 1.5.5 1.5-.5 1.5-.5 1.5-1 .5-1 .5-.5-.5-.5-.5 1-.5 1-.5.5-.5.5-.5-.5-.5-.5-.5h-1-1l-.5-1-.5-1-1 1-1 1 .5.5.5.5.5.5.5.5h-1-1-.5-.5v1 1l.5.5.5.5-.5.5-.5.5-1-1-1-1 1 1.5 1 1.5h1.5 1.5l1-1 1-1 1.5.5 1.5.5h.5.5"/><path d="m580 621l1-3-9.5 27.5-9.5 27.5-4 19.5-4 19.5h1.5 1.5l10-29 10-29 1.5-16.5 1.5-16.5"/></g><g style="fill:#797268;stroke:#797268"><path d="m579 505l1-3-.5-1.5-.5-1.5-1.5-1-1.5-1-1.5-.5-1.5-.5v1.5 1.5l-1-1-1-1-1.5-1-1.5-1-1 1-1 1 1 1 1 1h1.5 1.5l-1 1-1 1v1.5 1.5l.5 1 .5 1 1 1 1 1 .5-.5.5-.5-.5-.5-.5-.5v-1-1h.5.5 1 1l-.5-.5-.5-.5-.5-.5-.5-.5 1-1 1-1 .5 1 .5 1h1 1l.5.5.5.5-.5.5-.5.5-1 .5-1 .5.5.5.5.5 1-.5 1-.5"/><path d="m579 220l1-1-1.5-1.5-1.5-1.5-1.5-1-1.5-1-1.5-.5-1.5-.5-1.5 1.5-1.5 1.5h1.5 1.5v1.5 1.5l.5.5.5.5.5.5.5.5.5.5.5.5.5.5.5.5h1 1l1-1.5 1-1.5"/></g><path d="m572 376l1-1-2.5.5-2.5.5-2-.5-2-.5-1.5-.5-1.5-.5-1-.5-1-.5-.5-.5-.5-.5-1-1-1-1-1 1.5-1 1.5-.5.5-.5.5-.5.5-.5.5v1 1l2-.5 2-.5h2 2l1.5 2 1.5 2 2-1.5 2-1.5 2.5-.5 2.5-.5" style="fill:#b8aea9;stroke:#b8aea9"/><path d="m571 395l1-1-3-.5-3-.5-1-1-1-1-1-1.5-1-1.5-.5-1.5-.5-1.5.5-1.5.5-1.5.5-1 .5-1-1.5-2-1.5-2h-2-2l-2 .5-2 .5.5 1 .5 1 2-.5 2-.5 1 1 1 1 .5 1 .5 1v1 1l.5 1.5.5 1.5-1 .5-1 .5.5.5.5.5 1 1 1 1 1 1 1 1 1.5 1 1.5 1h2 2" style="fill:#d8cec9;stroke:#d8cec9"/><g style="fill:#594c41;stroke:#594c41"><path d="m570 516l-21-1 6 3.5 6 3.5 4.5-3 4.5-3"/><path d="m567 485v-2l.5-1.5.5-1.5-1-1.5-1-1.5-.5-.5-.5-.5-.5 2.5-.5 2.5-.5 2-.5 2-1.5 1-1.5 1-1.5.5-1.5.5-1.5.5-1.5.5h-2.5-2.5l-1.5-.5-1.5-.5-2-.5-2-.5-1.5-1.5-1.5-1.5-1-.5-1-.5-.5-.5-.5-.5h-1-1l-.5-1-.5-1-.5-.5-.5-.5-.5-.5-.5-.5h-1-1l-.5-1-.5-1-1-1-1-1-.5-.5-.5-.5-1-.5-1-.5-.5-1.5-.5-1.5-.5-.5-.5-.5-1-.5-1-.5 13.5 11.5 13.5 11.5 10.5-2.5 10.5-2.5"/></g><path d="m566 348v-2l-.5-1.5-.5-1.5-2-.5-2-.5h-1-1l-2 .5-2 .5.5 1.5.5 1.5 1.5 1 1.5 1 1.5-.5 1.5-.5 1.5.5 1.5.5h.5.5" style="fill:#bcd5e5;stroke:#bcd5e5"/><path d="m564 481l1-5h-.5-.5l-.5-.5-.5-.5v2 2 1.5 1.5h-1-1-1-1v1.5 1.5l-1 1-1 1h-2-2-2.5-2.5l-1.5-.5-1.5-.5-2-.5-2-.5-1-.5-1-.5 1.5 1.5 1.5 1.5 2 .5 2 .5 1.5.5 1.5.5h2.5 2.5l1.5-.5 1.5-.5 1.5-.5 1.5-.5 1.5-1 1.5-1 .5-2 .5-2" style="fill:#797268;stroke:#797268"/><path d="m564 476h1l-12 .5-12 .5-1-.5-1-.5-2-1-2-1-1-1-1-1-1-1.5-1-1.5-.5-1-.5-1-.5-.5-.5-.5-.5-.5-.5-.5-.5-.5-.5-.5-1-.5-1-.5-1-1-1-1-.5-.5-.5-.5-.5-1-.5-1-1-1-1-1-1-1-1-1-1.5-1-1.5-1v-1-1l-.5-.5-.5-.5-.5-.5-.5-.5-.5-.5-.5-.5v-1-1l-.5-1-.5-1-1-1-1-1-.5 1-.5 1-1-1-1-1-1 1-1 1h-.5-.5l1 2 1 2 1 1.5 1 1.5.5 1.5.5 1.5 1 1 1 1 1 1.5 1 1.5 1 1 1 1 1 1.5 1 1.5 1 1 1 1 1 1 1 1 1 .5 1 .5.5.5.5.5.5 1.5.5 1.5 1 .5 1 .5.5.5.5.5 1 1 1 1 .5 1 .5 1h1 1l.5.5.5.5.5.5.5.5.5 1 .5 1h1 1l.5.5.5.5 1 .5 1 .5 12-4.5 12-4.5.5.5.5.5" style="fill:#b8aea9;stroke:#b8aea9"/><path d="m563 479v-4l-12 4.5-12 4.5 1 .5 1 .5 2 .5 2 .5 1.5.5 1.5.5h2.5 2.5 2 2l1-1 1-1v-1.5-1.5h1 1 1 1v-1.5-1.5" style="fill:#978b87;stroke:#978b87"/><g style="fill:#797268;stroke:#797268"><path d="m562 215l1-3-.5-.5-.5-.5-.5-.5-.5-.5h-1.5-1.5l-.5-.5-.5-.5-.5-.5-.5-.5-.5-.5-.5-.5-1-.5-1-.5-.5-.5-.5-.5h-1-1l-.5-.5-.5-.5h-1.5-1.5l-.5-.5-.5-.5-.5-.5-.5-.5-.5-.5-.5-.5-1 1.5-1 1.5.5 1 .5 1 1.5 1 1.5 1h1.5 1.5l.5.5.5.5 1 1 1 1h1.5 1.5l.5.5.5.5h1 1l1-.5 1-.5.5.5.5.5 1 1.5 1 1.5"/><path d="m561 287v-2l.5-1 .5-1v-1.5-1.5l-12 7.5-12 7.5-15.5 6-15.5 6 9 13 9 13-4.5-12-4.5-12 19.5-3 19.5-3 1-1.5 1-1.5 1-2.5 1-2.5.5-1.5.5-1.5.5-2.5.5-2.5"/></g><path d="m560 358v-3l-.5-1-.5-1-.5.5-.5.5h-1-1l-1-.5-1-.5-.5-.5-.5-.5-1.5-.5-1.5-.5v1.5 1.5l.5 1 .5 1v1 1l.5 2 .5 2 1 .5 1 .5-.5-2-.5-2h1 1l2 .5 2 .5.5-1 .5-1" style="fill:#b8aea9;stroke:#b8aea9"/><path d="m554 305l1-2-19.5 3-19.5 3 19-2 19-2" style="fill:#978b87;stroke:#978b87"/><path d="m553 461l-12-34-8.5-12-8.5-12-13.5-5-13.5-5 .5 10 .5 10 1 12.5 1 12.5 14.5-10 14.5-10-10.5 11.5-10.5 11.5 1 1 1 1 .5 1 .5 1v1 1l.5.5.5.5.5.5.5.5.5.5.5.5v1 1l1.5 1 1.5 1-.5-1.5-.5-1.5-1-1.5-1-1.5-.5-1.5-.5-1.5-.5-1.5-.5-1.5 7.5-9 7.5-9-1-1-1-1-.5-.5-.5-.5-1-.5-1-.5-.5-.5-.5-.5h-1-1v1 1 1.5 1.5l.5.5.5.5-.5.5-.5.5-.5 1.5-.5 1.5 1.5-1 1.5-1 .5-.5.5-.5-.5-1-.5-1-.5-1.5-.5-1.5h1 1l1 .5 1 .5.5 1.5.5 1.5.5 1 .5 1 1 .5 1 .5 1.5-.5 1.5-.5 1.5.5 1.5.5v1.5 1.5l-1.5.5-1.5.5-1 1.5-1 1.5v2 2l1.5 1 1.5 1 8.5 8 8.5 8 2 2 2 2" style="fill:#594c41;stroke:#594c41"/><path d="m553 374l1-1v-1.5-1.5l-.5-1.5-.5-1.5-.5-2.5-.5-2.5-.5-2-.5-2v-1-1l-.5-1-.5-1v-1.5-1.5l-.5-1-.5-1-.5 1.5-.5 1.5.5 1.5.5 1.5-1 1.5-1 1.5v2 2l.5 2 .5 2v2 2l.5 2 .5 2 .5 2 .5 2 1-1.5 1-1.5.5-.5.5-.5" style="fill:#978b87;stroke:#978b87"/><path d="m549 381h1v-1.5-1.5l-.5-2-.5-2-.5-2-.5-2v-2-2l-.5-2-.5-2v-2-2l1-1.5 1-1.5-.5-1.5-.5-1.5.5-1.5.5-1.5-10-5.5-10-5.5 10 21.5 10 21.5" style="fill:#797268;stroke:#797268"/><path d="m548 483l-26-20 2.5 4 2.5 4 10.5 6 10.5 6" style="fill:#d8cec9;stroke:#d8cec9"/><path d="m543 463v-2l-.5-1.5-.5-1.5-.5-2-.5-2-.5-1.5-.5-1.5v-2.5-2.5l-1-1-1-1-1.5-1-1.5-1h-.5-.5l.5 1 .5 1 .5.5.5.5.5.5.5.5.5 1 .5 1v1 1 1 1 1 1l.5 1 .5 1 .5.5.5.5v1 1 1 1l-4.5-4-4.5-4-1-1.5-1-1.5-1-1-1-1-1-1.5-1-1.5-1-1-1-1-.5-2-.5-2 .5-1.5.5-1.5-1-.5-1-.5-.5-.5-.5-.5-1 .5-1 .5-1 1-1 1v1 1l.5 1 .5 1h-1-1l-.5-.5-.5-.5.5-1 .5-1v-2-2l.5-.5.5-.5.5-.5.5-.5.5-1.5.5-1.5-1.5 1-1.5 1-.5.5-.5.5v1 1 1 1l-.5 1-.5 1v1 1l-.5 1-.5 1 9.5 13.5 9.5 13.5 1 1.5 1 1.5 1 1 1 1 2 1 2 1 1-.5 1-.5v-1.5-1.5l-.5-1.5-.5-1.5-.5-2-.5-2 1-1 1-1h1 1" style="fill:#594c41;stroke:#594c41"/><path d="m541 206h1l-.5-1-.5-1-1.5-.5-1.5-.5-.5-.5-.5-.5-.5-1-.5-1-1.5-.5-1.5-.5-.5.5-.5.5-1 .5-1 .5-1-.5-1-.5-1.5-1-1.5-1-1.5-.5-1.5-.5-1.5-.5-1.5-.5-1-1.5-1-1.5-1.5-.5-1.5-.5-1.5-1-1.5-1h-2-2l-2-1.5-2-1.5-.5 1.5-.5 1.5-1.5.5-1.5.5-1-1-1-1v-1-1l-.5-.5-.5-.5-.5-.5-.5-.5h-.5-.5-1-1l-.5-.5-.5-.5h-1-1v-1.5-1.5l1 1 1 1 1-1 1-1-1.5-.5-1.5-.5-1-1.5-1-1.5-.5-1-.5-1-1.5-.5-1.5-.5-.5-1.5-.5-1.5-25-9-25-9-1.5.5-1.5.5-.5.5-.5.5-.5-1-.5-1-.5-.5-.5-.5h-1-1-1-1l-.5-1-.5-1-.5-.5-.5-.5-.5.5-.5.5h-1-1l-.5-.5-.5-.5-.5-1-.5-1h-1-1l-.5-.5-.5-.5h-1-1l-.5-.5-.5-.5-1-.5-1-.5-1-.5-1-.5.5 1 .5 1 1 1 1 1 1.5 1 1.5 1 1.5.5 1.5.5v1 1l-15 7-15 7-.5 1-.5 1-8 7.5-8 7.5v-10-10l-6-2.5-6-2.5-8-.5-8-.5-15-16-15-16h-3-3-1-1-1.5-1.5l-1.5-.5-1.5-.5-.5-2-.5-2-.5-1.5-.5-1.5v1 1l-1 1.5-1 1.5-13.5-6-13.5-6v.5.5l-9.5 2-9.5 2 13 11 13 11 10 5 10 5 10 .5 10 .5 10.5 12.5 10.5 12.5 8 18.5 8 18.5-8 12-8 12-3.5 10.5-3.5 10.5-3 15.5-3 15.5-13 5-13 5-14 6.5-14 6.5-8 1-8 1-28-5-28-5-.5.5-.5.5-15 8-15 8 25 2 25 2 16 .5 16 .5h11.5 11.5l14.5-1 14.5-1 13-2 13-2 7.5-3 7.5-3-3.5 11.5-3.5 11.5 7.5 10.5 7.5 10.5 12-1 12-1 12.5-11 12.5-11 15.5 2.5 15.5 2.5 14.5-7.5 14.5-7.5 13-11 13-11-6-8-6-8-1-13-1-13-11.5-10.5-11.5-10.5 19.5 2 19.5 2 21-2 21-2-3-9-3-9 11-6 11-6" style="fill:#83513b;stroke:#83513b"/><path d="m540 461v-2-1-1l-.5-.5-.5-.5-.5-1-.5-1v-1-1-1-1-1-1l-.5-1-.5-1-.5-.5-.5-.5-.5-.5-.5-.5-.5-1-.5-1-1-.5-1-.5-1.5-1-1.5-1v-2-2l1-1.5 1-1.5 1.5-.5 1.5-.5v-1.5-1.5l-1.5-.5-1.5-.5-1.5.5-1.5.5-1-.5-1-.5 3.5 10.5 3.5 10.5v2.5 2.5h-1-1l4.5 4 4.5 4" style="fill:#797268;stroke:#797268"/><path d="m533 448l-7-21h-.5-.5l-2 .5-2 .5-1 1-1 1 1 1 1 1 1 2 1 2-.5 1.5-.5 1.5.5 2 .5 2 1 1 1 1 1 1.5 1 1.5 1 1 1 1 1 1.5 1 1.5h1 1v-2.5-2.5" style="fill:#978b87;stroke:#978b87"/><path d="m532 200l1-1-10.5-5.5-10.5-5.5-12.5-6.5-12.5-6.5.5 1 .5 1 1 1.5 1 1.5 1.5.5 1.5.5 1.5-1 1.5-1 .5.5.5.5v1 1l.5.5.5.5 1 .5 1 .5h1 1l.5 1.5.5 1.5 2 1.5 2 1.5h2 2l1.5 1 1.5 1 1.5.5 1.5.5 1 1.5 1 1.5 1.5.5 1.5.5 1.5.5 1.5.5 1.5 1 1.5 1 1 .5 1 .5 1-.5 1-.5" style="fill:#797268;stroke:#797268"/><path d="m531 469l-19-27 .5 1.5.5 1.5.5 1.5.5 1.5 1 1.5 1 1.5.5 1.5.5 1.5 1 1 1 1 1 1 1 1 .5 1 .5 1 .5.5.5.5 1 1 1 1 1 .5 1 .5.5.5.5.5.5.5.5.5.5.5.5.5.5 1 .5 1" style="fill:#232418;stroke:#232418"/><g style="fill:#797268;stroke:#797268"><path d="m530 160l-21 1 9 .5 9 .5 1.5-1 1.5-1"/><path d="m529 418l-29 20 .5 1 .5 1 .5 1.5.5 1.5h.5.5l2.5-1 2.5-1 10.5-11.5 10.5-11.5"/></g><path d="m527 424l-15 18 .5-1 .5-1v-1-1l.5-1 .5-1v-1-1-1-1l.5-.5.5-.5 1.5-1 1.5-1 .5-1.5.5-1.5.5-.5.5-.5-.5-.5-.5-.5v-1.5-1.5-1-1h1 1l.5.5.5.5 1 .5 1 .5.5.5.5.5 1 1 1 1" style="fill:#232418;stroke:#232418"/><g style="fill:#797268;stroke:#797268"><path d="m525 427h1l-.5-1-.5-1-.5-1.5-.5-1.5-1-.5-1-.5h-1-1l.5 1.5.5 1.5.5 1 .5 1-.5.5-.5.5-1.5 1-1.5 1-.5 1.5-.5 1.5-.5.5-.5.5-.5.5-.5.5v2 2l-.5 1-.5 1 .5.5.5.5h1 1l-.5-1-.5-1v-1-1l1-1 1-1 1-.5 1-.5.5.5.5.5 1 .5 1 .5-1-2-1-2-1-1-1-1 1-1 1-1 2-.5 2-.5"/><path d="m509 154l-23-28h-7.5-7.5l-3.5-8.5-3.5-8.5-3-1.5-3-1.5-6.5-5.5-6.5-5.5-5.5-2-5.5-2-6.5-7-6.5-7-4.5-8-4.5-8h-1-1l-1-7.5-1-7.5-4.5-3.5-4.5-3.5-.5-10-.5-10-11.5.5-11.5.5 2.5 8 2.5 8-6 3.5-6 3.5-4 13-4 13 1.5-13 1.5-13-5 5.5-5 5.5-6 2-6 2-8 7.5-8 7.5-1.5 2-1.5 2-3-12-3-12-7 6.5-7 6.5-1.5 6.5-1.5 6.5-5.5 10-5.5 10 2 11.5 2 11.5 1-1.5 1-1.5v-1-1l.5 1.5.5 1.5.5 2 .5 2 1.5.5 1.5.5h1.5 1.5 1 1 3 3l6-.5 6-.5 7.5 2.5 7.5 2.5 14-.5 14-.5 20.5 7.5 20.5 7.5 1 .5 1 .5 1 .5 1 .5.5.5.5.5h1 1l.5.5.5.5h1 1l.5 1 .5 1 .5.5.5.5h1 1l.5-.5.5-.5.5.5.5.5.5 1 .5 1h1 1 1 1l.5.5.5.5.5 1 .5 1 .5-.5.5-.5-13.5-8-13.5-8-10-6.5-10-6.5-6 1-6 1-9.5-9-9.5-9 4.5-3.5 4.5-3.5 6 5.5 6 5.5 11 4 11 4 19.5 15 19.5 15-.5 1-.5 1 25 9 25 9-23.5-12.5-23.5-12.5-8.5-11-8.5-11 4-3.5 4-3.5 2.5 3 2.5 3 8 3.5 8 3.5 11.5 6.5 11.5 6.5 10.5 8 10.5 8 8.5-2.5 8.5-2.5"/></g><path d="m507 443l1-2-2.5 1-2.5 1 1-1 1-1 1 1 1 1" style="fill:#978b87;stroke:#978b87"/><path d="m502 190l1-3-.5-1.5-.5-1.5h-1-1l-1-.5-1-.5-.5-.5-.5-.5v-1-1l-.5-.5-.5-.5-1.5 1-1.5 1-1 1-1 1-1-1-1-1v1.5 1.5h1 1l.5.5.5.5h1 1 .5.5l.5.5.5.5.5.5.5.5v1 1l1 1 1 1 1.5-.5 1.5-.5" style="fill:#594c41;stroke:#594c41"/><path d="m499 61l-3-37-1 15.5-1 15.5 2.5 3 2.5 3" style="fill:#797268;stroke:#797268"/><path d="m474 348l-19 1-1 16.5-1 16.5 7-2.5 7-2.5 3.5-14.5 3.5-14.5" style="fill:#83513b;stroke:#83513b"/><path d="m472 345l1-3-1-1-1-1h-1.5-1.5l-1 1-1 1-.5 2-.5 2 .5 1.5.5 1.5.5 1 .5 1 1.5-.5 1.5-.5.5-1.5.5-1.5.5-1 .5-1" style="fill:#a26f56;stroke:#a26f56"/><path d="m434 151l-39-30-11-4-11-4-6-5.5-6-5.5-4.5 3.5-4.5 3.5 9.5 9 9.5 9 6-1 6-1 10 6.5 10 6.5 13.5 8 13.5 8 1.5-.5 1.5-.5.5-1 .5-1" style="fill:#978b87;stroke:#978b87"/><path d="m415 152v-2l-1.5-.5-1.5-.5-1.5-1-1.5-1-1-1-1-1-.5-1-.5-1-20.5-7.5-20.5-7.5-14 .5-14 .5-7.5-2.5-7.5-2.5-6 .5-6 .5 15 16 15 16 8 .5 8 .5 6 2.5 6 2.5v10 10l8-7.5 8-7.5.5-1 .5-1 15-7 15-7" style="fill:#594c41;stroke:#594c41"/><g style="fill:#a26f56;stroke:#a26f56"><path d="m393 289l-8-20-2.5 4-2.5 4 6 5.5 6 5.5.5.5.5.5"/><path d="m386 250l-4-22-6 8.5-6 8.5 2.5 8 2.5 8 5.5-5.5 5.5-5.5"/><path d="m349 210l-16-37-10.5-12.5-10.5-12.5-10-.5-10-.5-10-5-10-5-13-11-13-11 9.5-2 9.5-2h-1-1l.5 1.5.5 1.5v1.5 1.5l-1.5-.5-1.5-.5-1-.5-1-.5-1.5-.5-1.5-.5-.5-.5-.5-.5-.5-.5-.5-.5-.5-.5-.5-.5-.5-1-.5-1-1.5-1-1.5-1-1.5.5-1.5.5-1.5-1-1.5-1h-1.5-1.5l5.5 10 5.5 10 13 11 13 11 14.5 7 14.5 7 13.5 23 13.5 23-6.5 14.5-6.5 14.5-7.5 13.5-7.5 13.5-6.5 12-6.5 12-14 6-14 6-17-5.5-17-5.5-17-5-17-5-21-1-21-1-1 1.5-1 1.5-.5 1.5-.5 1.5-.5-.5-.5-.5h-1.5-1.5l-1 1-1 1 1.5.5 1.5.5.5.5.5.5 1 .5 1 .5 1 1 1 1-.5.5-.5.5-2 .5-2 .5 23 5 23 5 28 5 28 5 8-1 8-1 14-6.5 14-6.5 13-5 13-5 3-15.5 3-15.5 3.5-10.5 3.5-10.5 8-12 8-12"/></g><path d="m345 115l-4-30-8.5 8-8.5 8 .5 7 .5 7 6.5-1 6.5-1 3.5 1 3.5 1" style="fill:#978b87;stroke:#978b87"/><path d="m333 208l-27-46-14.5-7-14.5-7-13-11-13-11-5.5-10-5.5-10-1.5-1.5-1.5-1.5-1-.5-1-.5v1.5 1.5 1 1l-1.5.5-1.5.5-1.5.5-1.5.5-1.5.5-1.5.5-1.5 1-1.5 1-.5 1.5-.5 1.5-.5 2-.5 2-.5 1-.5 1 9.5 6.5 9.5 6.5-1.5 19-1.5 19 3-12 3-12 9 .5 9 .5 3 11 3 11 13.5 15.5 13.5 15.5-1.5 1.5-1.5 1.5-1 1-1 1-.5 2-.5 2v1 1l-1.5 1-1.5 1h-1-1l-1.5-1-1.5-1-1-1-1-1-1-1.5-1-1.5v1.5 1.5l.5 2 .5 2 1 1 1 1v1 1l-1 1-1 1v.5.5l.5 1 .5 1-.5 1.5-.5 1.5-.5.5-.5.5-.5 1-.5 1-.5.5-.5.5-.5.5-.5.5v1 1l-1 .5-1 .5-.5.5-.5.5h-1-1l-1.5.5-1.5.5 13-9.5 13-9.5 2.5-17 2.5-17-1.5-8-1.5-8 12.5-3 12.5-3 4 18.5 4 18.5-3 15.5-3 15.5-9 15.5-9 15.5-7 13.5-7 13.5-17 4-17 4-16.5-8-16.5-8-34.5-5-34.5-5 1.5.5 1.5.5 1 .5 1 .5h1 1l.5.5.5.5.5.5.5.5h-1.5-1.5-1-1-1.5-1.5l-.5.5-.5.5 1.5 1 1.5 1 21 1 21 1 17 5 17 5 17 5.5 17 5.5 14-6 14-6 6.5-12 6.5-12 7.5-13.5 7.5-13.5 6.5-14.5 6.5-14.5" style="fill:#c38568;stroke:#c38568"/><path d="m327 27l1-3-1.5-.5-1.5-.5h-1.5-1.5l-1 1-1 1-1.5 1-1.5 1 .5 1.5.5 1.5 2 .5 2 .5 1-1 1-1 1.5-.5 1.5-.5v-.5-.5" style="fill:#232418;stroke:#232418"/><path d="m325 199l-8-37-12.5 3-12.5 3 1.5 8 1.5 8-2.5 17-2.5 17-13 9.5-13 9.5h-2.5-2.5l-1 .5-1 .5h2 2l1 .5 1 .5h1.5 1.5l12.5-8.5 12.5-8.5 8-13 8-13 5 7.5 5 7.5-5.5 16-5.5 16-8 15-8 15-10.5 9-10.5 9-14.5-6-14.5-6-16.5-4.5-16.5-4.5-25.5-7.5-25.5-7.5-1.5.5-1.5.5h-2-2-1.5-1.5l1 .5 1 .5.5 1 .5 1-1.5-.5-1.5-.5-1.5-.5-1.5-.5-1 1.5-1 1.5-1.5-.5-1.5-.5-2-.5-2-.5-1.5-.5-1.5-.5v1 1 .5.5h-1.5-1.5l1.5.5 1.5.5.5.5.5.5 1 .5 1 .5.5.5.5.5h1 1 1 1l.5.5.5.5v1 1l1 .5 1 .5h1 1 1 1 1 1l1.5 1 1.5 1 34.5 5 34.5 5 16.5 8 16.5 8 17-4 17-4 7-13.5 7-13.5 9-15.5 9-15.5 3-15.5 3-15.5" style="fill:#cea086;stroke:#cea086"/><path d="m317 211l-10-15-8 13-8 13-12.5 8.5-12.5 8.5 18-1.5 18-1.5-7 15-7 15-10 9-10 9-13-5.5-13-5.5-5-16-5-16-7-.5-7-.5-8.5 11.5-8.5 11.5-19.5-4.5-19.5-4.5h-.5-.5l-1 .5-1 .5h-1.5-1.5l25.5 7.5 25.5 7.5 16.5 4.5 16.5 4.5 14.5 6 14.5 6 10.5-9 10.5-9 8-15 8-15 5.5-16 5.5-16" style="fill:#fbbf8e;stroke:#fbbf8e"/><path d="m306 99v-2h-1-1l-1 1.5-1 1.5-.5 1.5-.5 1.5-.5 2-.5 2v2 2l1.5 1 1.5 1 .5-1.5.5-1.5v-2-2l.5-2 .5-2 .5-1.5.5-1.5" style="fill:#978b87;stroke:#978b87"/><path d="m302 236l-36 3h-1.5-1.5-.5-.5-1.5-1.5l-1.5.5-1.5.5-1.5.5-1.5.5-.5.5-.5.5h-1.5-1.5l-1-1-1-1-.5-.5-.5-.5-1-.5-1-.5-1-1-1-1-1-.5-1-.5-.5 1-.5 1-14-8.5-14-8.5-5.5 15-5.5 15-27.5-1.5-27.5-1.5-1 .5-1 .5-1 .5-1 .5 2 .5 2 .5 1.5-.5 1.5-.5 2 .5 2 .5 1 1 1 1h1.5 1.5l1.5.5 1.5.5 1 .5 1 .5 19.5 4.5 19.5 4.5 8.5-11.5 8.5-11.5 7 .5 7 .5 5 16 5 16 13 5.5 13 5.5 10-9 10-9 7-15 7-15" style="fill:#ffd9af;stroke:#ffd9af"/><path d="m301 49l-37-29-7-10-7-10h-1.5-1.5-2.5-2.5-2-2-2-2-2.5-2.5-2-2-2.5-2.5-2-2-.5-.5l10 7 10 7-2 13.5-2 13.5 3.5.5 3.5.5 8.5 17.5 8.5 17.5-10.5-7.5-10.5-7.5-10-3.5-10-3.5 10 7.5 10 7.5v15.5 15.5l6.5-10.5 6.5-10.5 7.5 15 7.5 15 .5.5.5.5h1 1v-.5-.5l5.5-6 5.5-6-11.5-7.5-11.5-7.5 8-1 8-1-4-10.5-4-10.5 7.5-1 7.5-1 6 12.5 6 12.5 6.5-17 6.5-17" style="fill:#797268;stroke:#797268"/><path d="m293 202l-27-31-3-11-3-11-9-.5-9-.5-3 12-3 12 .5 1.5.5 1.5.5.5.5.5.5.5.5.5.5 1 .5 1 1 1 1 1 .5.5.5.5.5 1 .5 1 .5 1.5.5 1.5-.5 1.5-.5 1.5-1.5.5-1.5.5h-2.5-2.5l-1 1-1 1 .5.5.5.5.5 1 .5 1h1 1l.5.5.5.5.5.5.5.5.5.5.5.5.5 1 .5 1 .5.5.5.5.5.5.5.5.5.5.5.5.5 1 .5 1v1 1l.5.5.5.5.5.5.5.5 1 .5 1 .5.5.5.5.5h1 1l.5.5.5.5-.5 1.5-.5 1.5-.5 1-.5 1-1.5.5-1.5.5-2 .5-2 .5-1.5.5-1.5.5-.5 1.5-.5 1.5-.5 2-.5 2v2 2l.5 1 .5 1h.5.5v-2-2l.5-2 .5-2 .5-1.5.5-1.5 2-.5 2-.5 1.5-.5 1.5-.5 1.5-.5 1.5-.5.5-.5.5-.5h1.5 1.5 2.5 2.5v-1.5-1.5l.5-1 .5-1-6.5-12-6.5-12 4.5 6.5 4.5 6.5v-1-1l-.5-1-.5-1 8 4.5 8 4.5 1 1.5 1 1.5 1 1 1 1 1.5 1 1.5 1h1 1l1.5-1 1.5-1v-1-1l.5-2 .5-2 1-1 1-1 1.5-1.5 1.5-1.5" style="fill:#a26f56;stroke:#a26f56"/><path d="m285 257l-27-15 1.5 15 1.5 15 12-7.5 12-7.5" style="fill:#fff6cc;stroke:#fff6cc"/><path d="m278 219v-2l-1-1-1-1-.5-2-.5-2v-1.5-1.5h-.5-.5l-7.5-4.5-7.5-4.5.5 1 .5 1 .5 1 .5 1 1 1 1 1 1 1 1 1 .5.5.5.5 1 .5 1 .5 1 1 1 1 .5-.5.5-.5.5 1 .5 1-.5 1.5-.5 1.5 2 .5 2 .5.5 2.5.5 2.5 1-1 1-1" style="fill:#cea086;stroke:#cea086"/><path d="m278 67l1-3-.5-.5-.5-.5v-1-1l-.5-.5-.5-.5-.5-1-.5-1 1 4.5 1 4.5" style="fill:#797268;stroke:#797268"/><path d="m277 224l-1-2h-.5-.5l-.5 1-.5 1-1 .5-1 .5-.5.5-.5.5-.5 1-.5 1-1 1-1 1-1 1.5-1 1.5-1 1-1 1-2.5.5-2.5.5v.5.5h2.5 2.5l1.5-.5 1.5-.5h1 1l.5-.5.5-.5 1-.5 1-.5v-1-1l.5-.5.5-.5.5-.5.5-.5.5-1 .5-1 .5-.5.5-.5.5-1.5.5-1.5" style="fill:#a26f56;stroke:#a26f56"/><path d="m275 222h1v-.5-.5l-.5-2.5-.5-2.5-2-.5-2-.5.5-1.5.5-1.5-.5-1-.5-1-.5.5-.5.5-1-1-1-1-1-.5-1-.5-.5-.5-.5-.5-1-1-1-1-1-1-1-1-.5-1-.5-1v1 1l1 1 1 1v1 1l1 .5 1 .5v1 1l-.5.5-.5.5.5.5.5.5v1 1l-.5 1-.5 1v1.5 1.5l1 1 1 1 1 1 1 1 1.5 1 1.5 1h1 1l1-.5 1-.5.5-1 .5-1" style="fill:#797268;stroke:#797268"/><path d="m274 208h1l-8-4.5-8-4.5 7.5 4.5 7.5 4.5" style="fill:#c38568;stroke:#c38568"/><path d="m271 226l1-1h-1-1l-1.5-1-1.5-1-1-1-1-1-1-1-1-1h-2.5-2.5-1.5-1.5l-.5.5-.5.5-1.5.5-1.5.5-1.5.5-1.5.5-2 .5-2 .5-.5 1.5-.5 1.5-.5 2-.5 2v2 2l1 .5 1 .5v-1.5-1.5-1.5-1.5l.5-.5.5-.5.5-1 .5-1 1-1 1-1 1.5-.5 1.5-.5.5-.5.5-.5 1-.5 1-.5h2 2 1 1l1 .5 1 .5 1 1 1 1 .5.5.5.5.5 1 .5 1-.5 2-.5 2-.5 1-.5 1-.5.5-.5.5-1 .5-1 .5-1 .5-1 .5 2.5-.5 2.5-.5 1-1 1-1 1-1.5 1-1.5 1-1 1-1 .5-1 .5-1" style="fill:#83513b;stroke:#83513b"/><path d="m269 158v-2l-.5-1.5-.5-1.5-.5-2-.5-2-.5-1.5-.5-1.5-1-.5-1-.5v2 2 2.5 2.5 2 2h1 1 1.5 1.5" style="fill:#cea086;stroke:#cea086"/><path d="m265 231l1-4-.5-1-.5-1-.5-.5-.5-.5-1-1-1-1-1-.5-1-.5h-1-1-2-2l-1 .5-1 .5-.5.5-.5.5-1.5.5-1.5.5-1 1-1 1-.5 1-.5 1-.5.5-.5.5v1.5 1.5 1.5 1.5l1 1 1 1h1 1 1 1 1 1 1.5 1.5l.5-.5.5-.5h1.5 1.5l1-.5 1-.5 1-.5 1-.5.5-.5.5-.5.5-1 .5-1" style="fill:#594c41;stroke:#594c41"/><path d="m264 214v-2l-.5-.5-.5-.5.5-.5.5-.5v-1-1l-1-.5-1-.5v-1-1l-1-1-1-1-4.5-6.5-4.5-6.5 6.5 12 6.5 12" style="fill:#83513b;stroke:#83513b"/><path d="m264 117v-3l-.5-1.5-.5-1.5-.5-.5-.5-.5-.5.5-.5.5-1.5-.5-1.5-.5-1.5-1-1.5-1-1.5.5-1.5.5.5 1 .5 1 .5.5.5.5.5.5.5.5.5.5.5.5 1.5.5 1.5.5 1 .5 1 .5 1.5.5 1.5.5" style="fill:#c38568;stroke:#c38568"/><path d="m262 239h1l-1-.5-1-.5h-2-2l1-.5 1-.5v-.5-.5h-1.5-1.5l-.5.5-.5.5h-1.5-1.5-1-1-1-1-1-1l-1-1-1-1-1-.5-1-.5h-.5-.5l-1-1.5-1-1.5-13-10.5-13-10.5-8-15.5-8-15.5 6.5-26.5 6.5-26.5 9-13 9-13-.5 1-.5 1-15.5 17.5-15.5 17.5-.5 1-.5 1 6 33.5 6 33.5 16.5 14.5 16.5 14.5 1 .5 1 .5 1 1 1 1 1 .5 1 .5.5.5.5.5 1 1 1 1h1.5 1.5l.5-.5.5-.5 1.5-.5 1.5-.5 1.5-.5 1.5-.5h1.5 1.5" style="fill:#fbbf8e;stroke:#fbbf8e"/><g style="fill:#978b87;stroke:#978b87"><path d="m261 111l1-1-7.5-15-7.5-15-6.5 10.5-6.5 10.5.5.5.5.5 1 .5 1 .5 1.5 1.5 1.5 1.5h1.5 1.5l1.5 1 1.5 1 1.5-.5 1.5-.5 1.5 1 1.5 1 1.5-.5 1.5-.5 1.5 1 1.5 1 1.5.5 1.5.5"/><path d="m255 77l-17-35-3.5-.5-3.5-.5 2-13.5 2-13.5-10-7-10-7h-3.5-3.5-1.5-1.5l11.5 13 11.5 13-14.5-13-14.5-13h-2-2-2-2-2.5-2.5l.5 4.5.5 4.5 4 8.5 4 8.5 4-1 4-1-3.5 16-3.5 16 13 21 13 21h-.5-.5l1 1 1 1h2.5 2.5 1 1l2 .5 2 .5v-15.5-15.5l-10-7.5-10-7.5 10 3.5 10 3.5 10.5 7.5 10.5 7.5"/></g><path d="m253 216l1-3-.5-.5-.5-.5h-1-1l-.5-.5-.5-.5-1-.5-1-.5-.5-.5-.5-.5-.5-.5-.5-.5v-1-1l-.5-1-.5-1-.5-.5-.5-.5-.5-.5-.5-.5-.5-.5-.5-.5-.5-1-.5-1-.5-.5-.5-.5-.5-.5-.5-.5-.5-.5-.5-.5h-1-1l-.5-1-.5-1-.5-.5-.5-.5 1-1 1-1-7.5-4.5-7.5-4.5-3-7-3-7 7.5 15 7.5 15h1.5 1.5l1 1 1 1 .5.5.5.5 1 .5 1 .5 1 1 1 1 .5.5.5.5.5 1 .5 1 1 1 1 1 1 1.5 1 1.5 1 1 1 1-.5 1.5-.5 1.5-2 .5-2 .5-1.5-.5-1.5-.5-1 1.5-1 1.5-1 .5-1 .5.5 1.5.5 1.5 1 1.5 1 1.5v2 2l1 1.5 1 1.5-.5-1-.5-1v-2-2l.5-2 .5-2 .5-1.5.5-1.5 1.5-.5 1.5-.5 2-.5 2-.5 1.5-.5 1.5-.5.5-1 .5-1" style="fill:#c38568;stroke:#c38568"/><path d="m251 33v-2l-.5-1.5-.5-1.5-.5-2-.5-2-1.5-.5-1.5-.5-.5 2-.5 2-1 1-1 1 .5 2 .5 2 .5 1.5.5 1.5 1 1 1 1 1-1.5 1-1.5 1-1 1-1" style="fill:#978b87;stroke:#978b87"/><path d="m247 217l1-3-1-1-1-1-1-1.5-1-1.5-1-1-1-1-.5-1-.5-1-.5-.5-.5-.5-1-1-1-1-1-.5-1-.5-.5-.5-.5-.5-1-1-1-1h-1.5-1.5l-1 .5-1 .5.5 1 .5 1 .5 1.5.5 1.5v1 1l.5 1 .5 1 1 1 1 1 .5.5.5.5.5 1 .5 1 1 1 1 1 1.5 1 1.5 1 1.5.5 1.5.5 2-.5 2-.5" style="fill:#cea086;stroke:#cea086"/><path d="m244 190l1-3-.5-1.5-.5-1.5-.5-1-.5-1-.5-.5-.5-.5-1-1-1-1-.5-1-.5-1-.5-.5-.5-.5-.5-.5-.5-.5-.5-1.5-.5-1.5 1.5-19 1.5-19-9.5-6.5-9.5-6.5-1-.5-1-.5-.5 1-.5 1-1 1-1 1-.5.5-.5.5-.5.5-.5.5h-1.5-1.5l-6.5 26.5-6.5 26.5 8 15.5 8 15.5 13 10.5 13 10.5v-2-2l-1-1.5-1-1.5-.5-1.5-.5-1.5 1-.5 1-.5 1-1.5 1-1.5-1.5-1-1.5-1-1-1-1-1-.5-1-.5-1-.5-.5-.5-.5-1-1-1-1-.5-1-.5-1v-1-1l-.5-1.5-.5-1.5-.5-1-.5-1 1-.5 1-.5-7.5-15-7.5-15 3 7 3 7 7.5 4.5 7.5 4.5h2.5 2.5l1.5-.5 1.5-.5" style="fill:#f97478;stroke:#f97478"/><path d="m239 237l1-2-16.5-14.5-16.5-14.5h-.5-.5l-.5-.5-.5-.5.5 1 .5 1 1 1 1 1 1 1 1 1-.5 1.5-.5 1.5-11 13-11 13-30 1.5-30 1.5 1 1.5 1 1.5 1 1 1 1 1.5-.5 1.5-.5h1 1 1.5 1.5 2 2 1 1l27.5 1.5 27.5 1.5 5.5-15 5.5-15 14 8.5 14 8.5" style="fill:#fff6cc;stroke:#fff6cc"/><path d="m235 107v-2-1.5-1.5l-.5-.5-.5-.5-2-.5-2-.5h-1-1l-9 13-9 13h1.5 1.5l.5-.5.5-.5.5-.5.5-.5 1-1 1-1 .5-1 .5-1 1 .5 1 .5.5-1 .5-1 .5-2 .5-2 .5-1.5.5-1.5 1.5-1 1.5-1 1.5-.5 1.5-.5 1.5-.5 1.5-.5 1.5-.5 1.5-.5" style="fill:#cea086;stroke:#cea086"/><g style="fill:#797268;stroke:#797268"><path d="m228 84l1-3-.5-1.5-.5-1.5-1-1.5-1-1.5-1-1-1-1-1.5 1-1.5 1-.5 1.5-.5 1.5.5 2 .5 2 1 1 1 1 1.5.5 1.5.5 1-.5 1-.5"/><path d="m228 26l-23-26h-1.5-1.5-1.5-1.5l14.5 13 14.5 13"/></g><path d="m227 102l1-2h-2.5-2.5l-1-1-1-1-1-1-1-1-1.5-.5-1.5-.5-.5.5-.5.5-1 .5-1 .5-1.5-1-1.5-1h-.5-.5l-1.5.5-1.5.5-.5-.5-.5-.5-.5-.5-.5-.5-.5-.5-.5-.5h-1.5-1.5l-1-1-1-1-1.5-.5-1.5-.5 7 13 7 13-1 1-1 1-.5 1.5-.5 1.5-1 1.5-1 1.5-1 1-1 1-.5 1-.5 1-.5 1.5-.5 1.5-.5.5-.5.5-.5.5-.5.5-.5 1-.5 1-.5 1-.5 1 15.5-17.5 15.5-17.5" style="fill:#ffd9af;stroke:#ffd9af"/><path d="m223 41l1-3-.5-1.5-.5-1.5-1-1.5-1-1.5h-1-1l-1 1.5-1 1.5v1 1l.5 2 .5 2h1 1 1 1 .5.5" style="fill:#797268;stroke:#797268"/><g style="fill:#b8aea9;stroke:#b8aea9"><path d="m222 98l-26-42 3.5-16 3.5-16-4 1-4 1-4-8.5-4-8.5-.5-4.5-.5-4.5h-3-3-2-2-2-2-2.5-2.5-2-2-1.5-1.5l3 13.5 3 13.5 1.5 12.5 1.5 12.5 5 6.5 5 6.5 15.5 15 15.5 15 1.5 1 1.5 1 1-.5 1-.5.5-.5.5-.5 1.5.5 1.5.5 1 1 1 1h.5.5"/><path d="m211 61l1-3-.5-1.5-.5-1.5-1.5-1-1.5-1-.5 1.5-.5 1.5-1 1.5-1 1.5.5 1.5.5 1.5.5 2 .5 2 1-1 1-1 1-1 1-1v-.5-.5"/></g><path d="m209 214l1-3-1-1-1-1-1-1-1-1-.5-1-.5-1-1-1-1-1-.5-1-.5-1-1-1-1-1-.5-.5-.5-.5-.5-1-.5-1-.5-1.5-.5-1.5v-1-1l-.5-.5-.5-.5-.5-.5-.5-.5v-1.5-1.5l-1-1-1-1v-1-1l-.5-1-.5-1-.5-1.5-.5-1.5v-1-1-2-2l5.5-22.5 5.5-22.5-12.5-24.5-12.5-24.5-15.5-8-15.5-8 .5-30.5.5-30.5h-23.5-23.5-24.5-24.5-24.5-24.5-1-1v23.5 23.5 24 24 24.5 24.5 24.5 24.5 24.5 24.5 24.5 24.5 24 24 24.5 24.5 24.5 24.5 9.5 9.5l8-15.5 8-15.5 9.5-15 9.5-15 10-14 10-14 3.5-16.5 3.5-16.5 4.5-21 4.5-21 .5-1 .5-1 1-1 1-1 1.5-1 1.5-1h2 2l1-1.5 1-1.5 1.5.5 1.5.5 1 1 1 1 1 1.5 1 1.5 1.5.5 1.5.5-11.5-27-11.5-27 2-12.5 2-12.5 20.5-7.5 20.5-7.5 1-.5 1-.5 1.5-.5 1.5-.5h1 1l1-.5 1-.5 1.5-.5 1.5-.5.5-.5.5-.5h1 1l.5-.5.5-.5 2-.5 2-.5h1.5 1.5v1 1l-7 19.5-7 19.5v2 2l.5 1 .5 1 .5 1.5.5 1.5v1 1l.5 1 .5 1 30-1.5 30-1.5 11-13 11-13" style="fill:#ffffed;stroke:#ffffed"/><path d="m209 116l-14-26-.5-1-.5-1-1-1-1-1-1-1-1-1h-1.5-1.5l-1-1-1-1-1-1-1-1-1-1.5-1-1.5h-2-2l12.5 24.5 12.5 24.5 1-1 1-1 1-1.5 1-1.5.5-1.5.5-1.5 1-1 1-1" style="fill:#fff6cc;stroke:#fff6cc"/><path d="m209 95h1l-15.5-15-15.5-15-5-6.5-5-6.5-1.5-12.5-1.5-12.5-3-13.5-3-13.5h-3.5-3.5-2-2-1-1l-.5 30.5-.5 30.5 15.5 8 15.5 8h2 2l1 1.5 1 1.5 1 1 1 1 1 1 1 1h1.5 1.5l1 1 1 1 1 1 1 1 .5 1 .5 1 1.5.5 1.5.5 1 1 1 1h1.5 1.5l.5.5.5.5.5.5.5.5.5.5.5.5 1.5-.5 1.5-.5" style="fill:#d8cec9;stroke:#d8cec9"/><path d="m206 206h1l-6-33.5-6-33.5-1 1-1 1-.5 2-.5 2v2 2 2.5 2.5l-.5 1.5-.5 1.5v2 2 2.5 2.5 2.5 2.5 2 2 1 1l.5 1.5.5 1.5.5 1 .5 1v1 1l1 1 1 1v1.5 1.5l.5.5.5.5.5.5.5.5v1 1l.5 1.5.5 1.5.5 1 .5 1 .5.5.5.5 1 1 1 1 .5 1 .5 1 1 1 1 1 .5.5.5.5" style="fill:#ffd9af;stroke:#ffd9af"/><path d="m201 128l1-2-5.5 22.5-5.5 22.5v-2.5-2.5-2.5-2.5-2-2l.5-1.5.5-1.5v-2.5-2.5-2-2l.5-2 .5-2 1-1 1-1 .5-1 .5-1 .5-1 .5-1 .5-1 .5-1 .5-.5.5-.5.5-.5.5-.5.5-1.5.5-1.5" style="fill:#fff6cc;stroke:#fff6cc"/><path d="m193 302l1-1-23-5-23-5-13-3.5-13-3.5-8 10-8 10 7.5 17 7.5 17v5.5 5.5l-8.5-16-8.5-16-7 6.5-7 6.5 1 16 1 16-8 6.5-8 6.5-6 13.5-6 13.5-8.5 11-8.5 11-9 14.5-9 14.5-14.5 23.5-14.5 23.5v24 24 .5.5l8.5-15 8.5-15 9-12.5 9-12.5 7.5-11.5 7.5-11.5 8-13.5 8-13.5 9.5-11 9.5-11 4.5-11.5 4.5-11.5 12-5.5 12-5.5v-13.5-13.5l6 6 6 6 8.5 15 8.5 15-4-13-4-13-6.5-17-6.5-17 5.5-14 5.5-14 13 1.5 13 1.5 15-8 15-8" style="fill:#797268;stroke:#797268"/><g style="fill:#d8cec9;stroke:#d8cec9"><path d="m188 43v-2l-.5-1.5-.5-1.5-1-1.5-1-1.5h-1-1l-1 1.5-1 1.5v2 2l1 1.5 1 1.5 1 1 1 1 1-1 1-1 .5-1 .5-1"/><path d="m176 34v-2l-.5-1.5-.5-1.5-.5-2-.5-2-.5-.5-.5-.5-2 1.5-2 1.5-.5 1.5-.5 1.5 1 1.5 1 1.5.5 1.5.5 1.5 1 1 1 1 1.5-1 1.5-1v-1-1"/><path d="m176 21l1-3-.5-1.5-.5-1.5v-2.5-2.5h-1-1l-1 1.5-1 1.5-.5 1.5-.5 1.5v1.5 1.5l.5 1.5.5 1.5.5 1 .5 1 1.5-1.5 1.5-1.5"/></g><path d="m163 42l-9-31 2.5 16 2.5 16 2-.5 2-.5" style="fill:#ffffed;stroke:#ffffed"/><path d="m161 254h1l-1-.5-1-.5-1.5-.5-1.5-.5h-1.5-1.5l-1-1-1-1-2-.5-2-.5-1.5.5-1.5.5-2-.5-2-.5 1-.5 1-.5 1-.5 1-.5h-1-1-2-2-1.5-1.5-1-1l-1.5.5-1.5.5-1-1-1-1-1-1.5-1-1.5-.5-1-.5-1v-1-1l-.5-1.5-.5-1.5-.5-1-.5-1v-2-2l-.5-.5-.5-.5-.5 1-.5 1 .5.5.5.5-.5.5-.5.5v1 1l.5 2 .5 2-.5 1.5-.5 1.5v.5.5l.5 1.5.5 1.5.5.5.5.5.5.5.5.5.5.5.5.5.5 1 .5 1 1.5.5 1.5.5.5.5.5.5h1.5 1.5l1.5.5 1.5.5h1 1 1.5 1.5l2 1 2 1h1.5 1.5 2 2l1.5-.5 1.5-.5h1.5 1.5l1-.5 1-.5" style="fill:#d8cec9;stroke:#d8cec9"/><path d="m160 274l-1-1-.5-.5-.5-.5h-1-1l-1-.5-1-.5-1.5-.5-1.5-.5-1.5-1-1.5-1h-1-1-1-1-1-1l-1-.5-1-.5v-1-1l-.5-.5-.5-.5h-1-1-1-1l-.5-.5-.5-.5-1-.5-1-.5-.5-.5-.5-.5-1.5-.5-1.5-.5h-2.5-2.5l-.5-1.5-.5-1.5-.5-2-.5-2-.5-1.5-.5-1.5-1-1.5-1-1.5-1-1-1-1-1.5-.5-1.5-.5-1.5-1-1.5-1-1.5-.5-1.5-.5-3-.5-3-.5-1 1-1 1v1 1h1.5 1.5l1.5.5 1.5.5 1.5 1 1.5 1 1 1 1 1 1.5 1 1.5 1 1 1 1 1v1.5 1.5h-1.5-1.5l-2-.5-2-.5-1.5-.5-1.5-.5-2-.5-2-.5-1.5-.5-1.5-.5-2-.5-2-.5-2 .5-2 .5v2 2l1 .5 1 .5-.5 7.5-.5 7.5 11 27.5 11 27.5-1-1.5-1-1.5-1-1-1-1h-.5-.5l-15-11-15-11 1.5 33.5 1.5 33.5-12 10.5-12 10.5-8 15-8 15-8.5 14.5-8.5 14.5-12 17.5-12 17.5v2.5 2.5 2.5 2.5 2 2 2 2l14.5-23.5 14.5-23.5 9-14.5 9-14.5 8.5-11 8.5-11 6-13.5 6-13.5 8-6.5 8-6.5-1-16-1-16 7-6.5 7-6.5 8.5 16 8.5 16v-5.5-5.5l-7.5-17-7.5-17 8-10 8-10 13 3.5 13 3.5 2-.5 2-.5.5-.5.5-.5-1-1-1-1-1-.5-1-.5-.5-.5-.5-.5-1.5-.5-1.5-.5 1-1 1-1h1.5 1.5l.5.5.5.5.5-1.5.5-1.5 1-1.5 1-1.5-1.5-1-1.5-1 .5-.5.5-.5h1.5 1.5 1 1 1.5 1.5" style="fill:#978b87;stroke:#978b87"/><path d="m160 65l1-3-1-1-1-1 .5-2 .5-2-.5-1.5-.5-1.5-.5-1-.5-1-1 1-1 1-1 1.5-1 1.5.5 1.5.5 1.5 1 1 1 1 .5 2 .5 2h1 1" style="fill:#ffffed;stroke:#ffffed"/><path d="m149 259l-1-2-1-.5-1-.5-2-1-2-1h-1.5-1.5-1-1l-1.5-.5-1.5-.5h-1.5-1.5l-.5-.5-.5-.5-1.5-.5-1.5-.5-.5-1-.5-1-.5-.5-.5-.5-.5-.5-.5-.5-.5-.5-.5-.5-.5-1.5-.5-1.5v-.5-.5l.5-1.5.5-1.5-1.5-1-1.5-1-1.5-.5-1.5-.5-2-.5-2-.5h-1-1l-1.5-.5-1.5-.5-.5 1.5-.5 1.5-1 1-1 1h-1-1l-1 .5-1 .5 3 .5 3 .5 1.5.5 1.5.5 1.5 1 1.5 1 1.5.5 1.5.5 1 1 1 1 1 1.5 1 1.5.5 1.5.5 1.5.5 2 .5 2 .5 1.5.5 1.5h2.5 2.5 1.5 1.5v-.5-.5-1-1l1.5.5 1.5.5 2 .5 2 .5 1.5.5 1.5.5 1-1.5 1-1.5 1.5.5 1.5.5 1.5.5 1.5.5" style="fill:#b8aea9;stroke:#b8aea9"/><path d="m145 2l-45-1h-24.5-24.5-24.5-24.5l23 .5 23 .5h24.5 24.5 24 24" style="fill:#fff6cc;stroke:#fff6cc"/><path d="m138 191v-2h-1.5-1.5v1 1l.5.5.5.5-6.5 18.5-6.5 18.5.5.5.5.5 7-19.5 7-19.5" style="fill:#bcd5e5;stroke:#bcd5e5"/><path d="m136 192l-1-1v-1-1l-2 .5-2 .5-.5.5-.5.5h-1-1l-.5.5-.5.5-1.5.5-1.5.5-1 .5-1 .5h-1-1l-1.5.5-1.5.5-1 .5-1 .5h2 2l.5-.5.5-.5.5.5.5.5-15 9-15 9-7.5 14-7.5 14 .5 1.5.5 1.5.5.5.5.5.5 1 .5 1 1 1 1 1v1 1l.5 1 .5 1 .5 1.5.5 1.5 1 1.5 1 1.5.5 2 .5 2 .5 1 .5 1 1 .5 1 .5v-1-1l.5-.5.5-.5v-1-1l-1-.5-1-.5v-1-1l.5-.5.5-.5 1.5-.5 1.5-.5-1-.5-1-.5v-2-2l2-.5 2-.5 1.5-.5 1.5-.5.5-1.5.5-1.5 2-.5 2-.5-1.5-1-1.5-1v-1-1l1-1 1-1 1-.5 1-.5h1 1l1-1 1-1 .5-1.5.5-1.5v-1.5-1.5l1-1 1-1 1.5-1 1.5-1 1.5-.5 1.5-.5 1-1.5 1-1.5h2 2v1 1l-.5 1-.5 1h-1-1l-1 .5-1 .5h-1-1v1 1l1 .5 1 .5 1.5.5 1.5.5v1 1 1.5 1.5l1.5 1 1.5 1-.5-2-.5-2v-1-1l.5-.5.5-.5-.5-.5-.5-.5.5-1 .5-1 6.5-18.5 6.5-18.5" style="fill:#9fb2c4;stroke:#9fb2c4"/><path d="m122 225v-2h-2-2l-1 1.5-1 1.5-1.5.5-1.5.5-1.5 1-1.5 1-1 1-1 1v1.5 1.5l1.5.5 1.5.5h1 1l2 .5 2 .5 1.5.5 1.5.5v-1.5-1.5-1-1l-1.5-.5-1.5-.5-1-.5-1-.5v-1-1h1 1l1-.5 1-.5h1 1l.5-1 .5-1" style="fill:#978b87;stroke:#978b87"/><path d="m121 196l-1-1-.5.5-.5.5h-2-2l-20.5 7.5-20.5 7.5-2 12.5-2 12.5 1 1 1 1 .5.5.5.5.5 1 .5 1 .5.5.5.5h.5.5l7.5-14 7.5-14 15-9 15-9" style="fill:#bcd5e5;stroke:#bcd5e5"/><g style="fill:#b8aea9;stroke:#b8aea9"><path d="m115 256v-3l-1-1-1-1-1.5-1-1.5-1-1-1-1-1-1.5-1-1.5-1-1.5-.5-1.5-.5h-1.5-1.5l1.5 1 1.5 1-2 .5-2 .5-.5 1.5-.5 1.5-1.5.5-1.5.5 2 .5 2 .5 1.5.5 1.5.5 2 .5 2 .5 1.5.5 1.5.5 2 .5 2 .5h1.5 1.5"/><path d="m113 327l-22-55 .5-7.5.5-7.5-1.5.5-1.5.5-.5.5-.5.5v1 1l1 .5 1 .5v1 1l-.5.5-.5.5v1 1l-1-.5-1-.5-.5-1-.5-1 8.5 21.5 8.5 21.5 1 1.5 1 1.5v1 1l.5.5.5.5v1 1l1-.5 1-.5v1 1 1 1l.5.5.5.5v1.5 1.5l1 1 1 1 1 1.5 1 1.5"/></g><path d="m108 322h1v-1.5-1.5l-.5-.5-.5-.5v-1-1-1-1l-1 .5-1 .5v-1-1l-.5-.5-.5-.5v-1-1l-1-1.5-1-1.5-.5.5-.5.5-.5-1-.5-1h-.5-.5l-1-1.5-1-1.5-1-1-1-1-1.5-1-1.5-1-1.5-.5-1.5-.5-1-1.5-1-1.5-1.5-.5-1.5-.5-2.5-1-2.5-1h-.5-.5l-5 21-5 21 4.5-17 4.5-17 15 11 15 11" style="fill:#9fb2c4;stroke:#9fb2c4"/><path d="m102 308l1-1-8.5-21.5-8.5-21.5-.5-2-.5-2-1-1.5-1-1.5-.5-1.5-.5-1.5-.5-1-.5-1v-1-1l-1-1-1-1-.5-1-.5-1-.5-.5-.5-.5-.5-1.5-.5-1.5h-.5-.5l-.5-.5-.5-.5-.5-1-.5-1-.5-.5-.5-.5-1-1-1-1 11.5 27 11.5 27 .5 1 .5 1 .5.5.5.5.5 1 .5 1 .5.5.5.5.5.5.5.5v1 1l.5 1 .5 1 .5.5.5.5v1 1l.5 1 .5 1 .5 1 .5 1" style="fill:#d8cec9;stroke:#d8cec9"/><path d="m100 306h1l-.5-1-.5-1v-1-1l-.5-.5-.5-.5-.5-1-.5-1v-1-1l-.5-.5-.5-.5-.5-.5-.5-.5-.5-1-.5-1-.5-.5-.5-.5-.5-1-.5-1-1.5-.5-1.5-.5-1-1.5-1-1.5-1-1-1-1-1.5-.5-1.5-.5-1 1.5-1 1.5h-2-2l-1.5 1-1.5 1-1 1-1 1-.5 1-.5 1h2 2l1.5-.5 1.5-.5 1 .5 1 .5 2.5 1 2.5 1 1.5.5 1.5.5 1 1.5 1 1.5 1.5.5 1.5.5 1.5 1 1.5 1 1 1 1 1 1 1.5 1 1.5" style="fill:#bcd5e5;stroke:#bcd5e5"/><path d="m81 367l-3-67-4.5 17-4.5 17-3.5 17.5-3.5 17.5-8.5 12.5-8.5 12.5-8 15.5-8 15.5-14.5 25-14.5 25v1.5 1.5 2 2l12-17.5 12-17.5 8.5-14.5 8.5-14.5 8-15 8-15 12-10.5 12-10.5" style="fill:#b8aea9;stroke:#b8aea9"/><path d="m79 292h1l-1-.5-1-.5-1.5.5-1.5.5h-2-2l-4.5 21-4.5 21-3.5 16.5-3.5 16.5-10 14-10 14-.5 1.5-.5 1.5-17 29.5-17 29.5v2 2 2 2 2.5 2.5 2 2 .5.5l14.5-25 14.5-25 8-15.5 8-15.5 8.5-12.5 8.5-12.5 3.5-17.5 3.5-17.5 5-21 5-21" style="fill:#d8cec9;stroke:#d8cec9"/><path d="m34 398l1-3-9.5 15-9.5 15-8 15.5-8 15.5v.5.5l17-29.5 17-29.5" style="fill:#fff6cc;stroke:#fff6cc"/></g></svg>