<svg xmlns="http://www.w3.org/2000/svg" viewBox="0 0 720 960"><g style="fill:#141613"><path d="m0 0h720v960h-720z"/><path d="m0 959v1h17 17 18 18 17.5 17.5 18 18 17.5 17.5 18 18 17.5 17.5 18 18 17.5 17.5 18 18 17.5 17.5 18 18 17.5 17.5 18 18 17.5 17.5 18 18 17.5 17.5 18 18 17.5 17.5 18 18 5.5 5.5v-12-12-18-18-17.5-17.5-18-18-18-18-17.5-17.5-18-18-17.5-17.5-18-18-7.5-7.5l-1-.5-1-.5-6-9.5-6-9.5 2-15.5 2-15.5 1.5-25.5 1.5-25.5-9.5-4.5-9.5-4.5-6.5-8-6.5-8-6.5 9-6.5 9-1.5 12.5-1.5 12.5-5.5-5-5.5-5-8-10-8-10-8.5 3-8.5 3-10 5.5-10 5.5-10.5 6.5-10.5 6.5-9.5 7-9.5 7-13 3.5-13 3.5 3-7.5 3-7.5-4-6.5-4-6.5-5.5-5-5.5-5-10-5-10-5-7-9.5-7-9.5-5 7.5-5 7.5v13 13l-1 13.5-1 13.5-8 9-8 9-8 8.5-8 8.5-7 10-7 10-7.5 10-7.5 10-14.5 6.5-14.5 6.5-15.5-1-15.5-1-12-5-12-5-8.5-8-8.5-8-8-8.5-8-8.5-4-12.5-4-12.5-2.5-11.5-2.5-11.5-2-8.5-2-8.5-7.5-8.5-7.5-8.5-6.5-10-6.5-10-6.5-10-6.5-10-6-10.5-6-10.5-11.5-2.5-11.5-2.5-24.5 7-24.5 7-1 1-1 1-7 10.5-7 10.5-8 17-8 17v1.5 1.5l1.5 1 1.5 1h1 1v1.5 1.5l-1.5.5-1.5.5-1 1-1 1-1.5 2-1.5 2v3 3 2 2l-1.5 1-1.5 1-1.5.5-1.5.5 1.5 1.5 1.5 1.5v1 1l-1.5-.5-1.5-.5-1.5 1-1.5 1-1 1-1 1h-1.5-1.5l-1 1-1 1-1.5.5-1.5.5-.5 1-.5 1h-1-1-1-1l-1.5-.5-1.5-.5-1-.5-1-.5v-1-1h1 1l-.5-.5-.5-.5-.5-1-.5-1v-1-1-1-1l.5-.5.5-.5-.5-1-.5-1 .5-.5.5-.5v-1-1-1-1-1.5-1.5l.5-1.5.5-1.5v-1-1l-.5-.5-.5-.5v-1.5-1.5-.5-.5-2.5-2.5-1-1-1.5-1.5-2-2l.5-2 .5-2v-2-2-2.5-2.5-2-2-2-2l.5-1.5.5-1.5.5-17 .5-17 1-17 1-17 .5-17 .5-17 1-17 1-17 .5-17 .5-17 1-20.5 1-20.5v-.5-.5l.5-17 .5-17 1-23 1-23v-.5-.5l.5-18 .5-18 1-15.5 1-15.5.5-15.5.5-15.5.5-17 .5-17 1-17 1-17 1-26 1-26h-1.5-1.5-1.5-1.5l-1 15-1 15v14 14l-1 14.5-1 14.5-.5 16.5-.5 16.5-.5 15.5-.5 15.5-2 14.5-2 14.5v10 10l.5 10 .5 10-.5 3.5-.5 3.5v1.5 1.5 2 2 1 1 1.5 1.5 1.5 1.5 1 1l-.5 1-.5 1v2 2 15.5 15.5l-.5 15-.5 15v15 15l-.5 15-.5 15v16 16l-1 15.5-1 15.5-.5 17.5-.5 17.5-1 15.5-1 15.5-.5 16-.5 16-1 16-1 16-1 14.5-1 14.5-4 1.5-4 1.5-13.5 3.5-13.5 3.5-19.5 7-19.5 7-1 1-1 1-2 .5-2 .5-.5 1.5-.5 1.5-2 .5-2 .5-1 .5-1 .5v18.5 18.5 14.5 14.5l2.5 14 2.5 14 2 14 2 14 2.5 13 2.5 13 2.5 12.5 2.5 12.5-3.5 10-3.5 10-2.5 8.5-2.5 8.5-1 11.5-1 11.5-2.5 14-2.5 14v18.5 18.5 18 18" style="stroke:#141613;stroke-linejoin:round;stroke-width:.7"/></g><g style="stroke-linejoin:round;stroke-width:.7"><path d="m602 896l3 1 1.5-.5 1.5-.5h2.5 2.5 2 2l2 .5 2 .5h2 2 2.5 2.5 2 2l1.5-.5 1.5-.5 1-1.5 1-1.5h-.5-.5-1-1l-1.5 1-1.5 1h-2-2l-1.5-.5-1.5-.5-28.5-2.5-28.5-2.5h-1-1-.5-.5l.5 2.5.5 2.5 2 .5 2 .5h2 2 2 2 2.5 2.5l1.5.5 1.5.5h2.5 2.5 2 2 2.5 2.5.5.5" style="fill:#674c48;stroke:#674c48"/><path d="m626 894l3 1h2 2l1.5-1 1.5-1v-.5-.5l-5.5-11.5-5.5-11.5-9-3.5-9-3.5-14 .5-14 .5-.5 3-.5 3-.5 1.5-.5 1.5h-.5-.5l-.5 1.5-.5 1.5-.5.5-.5.5-.5.5-.5.5-.5.5-.5.5-.5.5-.5.5v1.5 1.5l-.5.5-.5.5-.5.5-.5.5.5.5.5.5-.5 2-.5 2 28.5 2.5 28.5 2.5" style="fill:#78878b;stroke:#78878b"/><path d="m636 892v1h1 1l-6-12-6-12-9-5-9-5-11.5-2-11.5-2-3 4-3 4 14-.5 14-.5 9 3.5 9 3.5 5.5 11.5 5.5 11.5" style="fill:#345169;stroke:#345169"/><path d="m513 889h2l.5-1.5.5-1.5-1-1.5-1-1.5-1.5-.5-1.5-.5-1.5-1-1.5-1-1.5.5-1.5.5-.5 2-.5 2 1 1 1 1h2 2l1.5 1 1.5 1" style="fill:#674c48;stroke:#674c48"/><g style="fill:#345169;stroke:#345169"><path d="m567 889h2l.5-2 .5-2-.5-.5-.5-.5.5-.5.5-.5.5-.5.5-.5v-1.5-1.5l.5-.5.5-.5.5-.5.5-.5.5-.5.5-.5.5-.5.5-.5.5-1.5.5-1.5.5-1 .5-1v-2-2l-1 1.5-1 1.5-1 1-1 1-.5 2-.5 2-1 1-1 1-.5 2-.5 2-.5 1.5-.5 1.5-1 1.5-1 1.5v1 1h.5.5"/><path d="m599 886l3 1 1-1 1-1h2.5 2.5l1 1 1 1 1.5-1 1.5-1h2 2 1.5 1.5v-2-2l-.5-1-.5-1-1 .5-1 .5-.5 1-.5 1h-1-1-1-1l-1 .5-1 .5-.5-.5-.5-.5h-1-1-1-1-1.5-1.5l-.5.5-.5.5h-1-1l-.5-.5-.5-.5h-1.5-1.5-1-1l-.5.5-.5.5-1.5-.5-1.5-.5h-2-2-1.5-1.5l.5-1.5.5-1.5h-1-1l-.5 1-.5 1 .5 1.5.5 1.5 2 .5 2 .5 1.5.5 1.5.5h2 2l2-.5 2-.5 1 .5 1 .5"/><path d="m0 885v1l2.5-14 2.5-14 1-11.5 1-11.5 2.5-8.5 2.5-8.5 3.5-10 3.5-10-2.5-12.5-2.5-12.5-2.5-13-2.5-13-2-14-2-14-2.5-14-2.5-14v17 17 18 18 17.5 17.5 18 18 17.5 17.5 9 9"/></g><path d="m590 882l3 1 .5-.5.5-.5h1 1 1.5 1.5l.5.5.5.5h1 1l.5-.5.5-.5h1.5 1.5 1 1 1 1l.5.5.5.5 1-.5 1-.5h1 1 1 1l.5-1 .5-1v-.5-.5h-17-17l-.5 1.5-.5 1.5h1.5 1.5 2 2" style="fill:#141613;stroke:#141613"/><path d="m618 879v1l1-.5 1-.5-10.5-3-10.5-3-8.5 3-8.5 3h1 1 17 17" style="fill:#674c48;stroke:#674c48"/><g style="fill:#345169;stroke:#345169"><path d="m360 738l5-16-2.5 7.5-2.5 7.5v.5.5"/><path d="m328 671l-6-15 1.5 5.5 1.5 5.5 1.5 2 1.5 2"/></g><path d="m386 662l29-13 7.5-10 7.5-10 7-10 7-10 8-8.5 8-8.5 8-9 8-9 1-13.5 1-13.5v-13-13l-.5-1-.5-1v-1.5-1.5l.5-1.5.5-1.5-.5-.5-.5-.5.5-.5.5-.5.5-.5.5-.5-.5-1-.5-1 .5-.5.5-.5v-1-1l.5-.5.5-.5.5-1 .5-1 1-1 1-1 .5-.5.5-.5.5-1 .5-1 .5-1.5.5-1.5.5-1.5.5-1.5-1 .5-1 .5-11 5.5-11 5.5-7-9.5-7-9.5-3.5-8.5-3.5-8.5-5.5-3-5.5-3-11.5-1.5-11.5-1.5-6.5-5-6.5-5 13.5.5 13.5.5 11 .5 11 .5-2-7-2-7-10.5-7-10.5-7-12.5-11-12.5-11-1-.5-1-.5-1-1-1-1h-1.5-1.5l-.5.5-.5.5h-1-1l-.5-.5-.5-.5h-1-1l-.5-1-.5-1v-1-1l.5-.5.5-.5.5-.5.5-.5h1.5 1.5 1 1l.5-.5.5-.5.5-.5.5-.5-.5-1-.5-1-.5-.5-.5-.5-.5-.5-.5-.5-.5-.5-.5-.5-.5-.5-.5-.5-1-1-1-1-8.5 4.5-8.5 4.5.5 8 .5 8-14.5.5-14.5.5h-2-2l-1.5 1-1.5 1-1.5.5-1.5.5-2 .5-2 .5h-2-2l-1.5 1-1.5 1-1 1-1 1-1 .5-1 .5-1.5 1-1.5 1-4 13.5-4 13.5h11 11l14-2 14-2 18 6.5 18 6.5-1.5.5-1.5.5-1.5 1-1.5 1-1.5.5-1.5.5.5 1 .5 1 .5.5.5.5 1 1 1 1h1 1l.5 1 .5 1 1.5.5 1.5.5.5.5.5.5h14.5 14.5l7 7.5 7 7.5-2.5 11.5-2.5 11.5-8.5 8-8.5 8-7.5 10.5-7.5 10.5-3.5 10-3.5 10-11.5 4.5-11.5 4.5-19 .5-19 .5-10.5-3-10.5-3-7-9.5-7-9.5-2-11-2-11-5-5.5-5-5.5-11-1-11-1-7-10.5-7-10.5-7-11-7-11-14-.5-14-.5-3.5-12.5-3.5-12.5v-14.5-14.5l-2-14-2-14-4.5-28-4.5-28-3.5 12.5-3.5 12.5-12 2-12 2-7.5-24-7.5-24v1.5 1.5l-.5 2-.5 2-.5 1.5-.5 1.5v1.5 1.5 2 2 1.5 1.5l.5.5.5.5 6 14.5 6 14.5-3.5 11.5-3.5 11.5 1 17 1 17-3.5-9.5-3.5-9.5-2 27.5-2 27.5 4.5-3.5 4.5-3.5 4-4 4-4 3.5 3 3.5 3 2.5 3.5 2.5 3.5-.5-4-.5-4v-11-11l-1.5-9.5-1.5-9.5 3-7.5 3-7.5 2.5 8.5 2.5 8.5v14.5 14.5l-1.5 15.5-1.5 15.5-3 9-3 9 24.5-7 24.5-7 11.5 2.5 11.5 2.5 6 10.5 6 10.5 6.5 10 6.5 10 6.5 10 6.5 10 7.5 8.5 7.5 8.5 2 8.5 2 8.5 2.5 11.5 2.5 11.5 4 12.5 4 12.5 8 8.5 8 8.5 8.5 8 8.5 8 12 5 12 5 15.5 1 15.5 1" style="fill:#674c48;stroke:#674c48"/><path d="m396 657l19-14 7.5-10.5 7.5-10.5 6-11.5 6-11.5 3-14 3-14 4.5-11 4.5-11 2.5-8.5 2.5-8.5-8.5 9-8.5 9-9 8-9 8-11 6.5-11 6.5-12 2-12 2-11.5 4-11.5 4 6 11 6 11-9-7.5-9-7.5-1.5 8.5-1.5 8.5-5 11.5-5 11.5 4 7 4 7 14 2.5 14 2.5h10.5 10.5" style="fill:#956e60;stroke:#956e60"/><path d="m718 635l2 1v-18-18-18-18-18-18-17.5-17.5-14.5-14.5l-1 11-1 11-2.5 24-2.5 24-1.5 25.5-1.5 25.5-2 15.5-2 15.5 6 9.5 6 9.5" style="fill:#674c48;stroke:#674c48"/><path d="m414 627l7-22-6 9-6 9 2.5 2 2.5 2" style="fill:#78878b;stroke:#78878b"/><path d="m0 624v1l1-.5 1-.5 2-.5 2-.5.5-1.5.5-1.5 2-.5 2-.5 1-1 1-1h-2-2l12.5-4.5 12.5-4.5 22-7.5 22-7.5-.5-.5-.5-.5 2-16 2-16 1-17 1-17 .5-17 .5-17 .5-17.5.5-17.5.5-17 .5-17-.5-14.5-.5-14.5v-13.5-13.5l.5-16.5.5-16.5-.5-14-.5-14-6-7-6-7-6.5-5-6.5-5-8 1-8 1-12.5-1-12.5-1-9.5-.5-9.5-.5v17 17 18 18 17.5 17.5 16 16l5.5-6.5 5.5-6.5 8.5 3 8.5 3 6 1.5 6 1.5 9 1 9 1 9.5 6 9.5 6 2 11.5 2 11.5v15 15l-.5 16.5-.5 16.5-.5 16-.5 16-1 17-1 17-13.5 10-13.5 10h-1.5-1.5l-1 .5-1 .5-2 .5-2 .5-1.5.5-1.5.5-1.5-.5-1.5-.5-2.5-1-2.5-1-.5 1-.5 1v.5.5 1 1 .5.5l-1.5.5-1.5.5-.5.5-.5.5-1 .5-1 .5-1.5.5-1.5.5h-1-1l-.5-.5-.5-.5-.5 1.5-.5 1.5-.5.5-.5.5h-1.5-1.5l-.5.5-.5.5h-1-1l-.5.5-.5.5-1 .5-1 .5-.5.5-.5.5h-1-1l-.5.5-.5.5-1 .5-1 .5v2 2 .5.5" style="fill:#b8b7aa;stroke:#b8b7aa"/><path d="m0 618v1l1-.5 1-.5.5-.5.5-.5h1 1l.5-.5.5-.5 1-.5 1-.5.5-.5.5-.5h1 1l.5-.5.5-.5h1.5 1.5l.5-.5.5-.5.5-1.5.5-1.5-1-.5-1-.5-1.5-1.5-1.5-1.5-1.5-.5-1.5-.5-1 .5-1 .5-.5.5-.5.5-.5.5-.5.5-.5.5-.5.5-1.5-.5-1.5-.5h-.5-.5v3.5 3.5 2 2" style="fill:#fcffeb;stroke:#fcffeb"/><path d="m9 617h4l19.5-7 19.5-7 13.5-3.5 13.5-3.5 4-1.5 4-1.5-1 .5-1 .5-.5-1.5-.5-1.5-1 .5-1 .5h-1.5-1.5l-.5.5-.5.5-22 7.5-22 7.5-12.5 4.5-12.5 4.5" style="fill:#674c48;stroke:#674c48"/><path d="m628 616l12-15-8 6-8 6 2 1.5 2 1.5" style="fill:#345169;stroke:#345169"/><path d="m18 610h2l1.5-.5 1.5-.5 1-.5 1-.5.5-.5.5-.5 1.5-.5 1.5-.5v-.5-.5-1-1-.5-.5l.5-1 .5-1-1-.5-1-.5-1-1-1-1h-1-1l-1.5-1-1.5-1-.5-1-.5-1-.5-.5-.5-.5-.5-1.5-.5-1.5v-1.5-1.5l-1.5-.5-1.5-.5h-1-1l-.5 2.5-.5 2.5.5 1 .5 1-.5.5-.5.5-.5.5-.5.5v1 1l-.5 1-.5 1v1 1 1 1h1 1v1.5 1.5l1.5 1.5 1.5 1.5 1 .5 1 .5.5.5.5.5" style="fill:#f7b3a6;stroke:#f7b3a6"/><path d="m1 607l3 1 .5-.5.5-.5.5-.5.5-.5.5-.5.5-.5 1-.5 1-.5 1.5.5 1.5.5v-1.5-1.5h-1-1v-1-1-1-1l.5-1 .5-1v-1-1l.5-.5.5-.5.5-.5.5-.5-.5-1-.5-1h-.5-.5l-1 1.5-1 1.5-.5 1.5-.5 1.5-.5 2-.5 2-.5 1.5-.5 1.5-2 .5-2 .5-1 .5-1 .5v1 1h.5.5" style="fill:#b8b7aa;stroke:#b8b7aa"/><path d="m0 604v1l1-.5 1-.5 2-.5 2-.5.5-1.5.5-1.5.5-2 .5-2 .5-1.5.5-1.5 1-1.5 1-1.5v-.5-.5-1.5-1.5-1-1l-.5-.5-.5-.5-.5-.5-.5-.5-.5-.5-.5-.5-1-.5-1-.5-.5.5-.5.5h-1-1l-.5.5-.5.5-1 .5-1 .5v1 1l1.5-.5 1.5-.5h1.5 1.5l1 1 1 1v1.5 1.5 2 2l-.5 1.5-.5 1.5-1 1.5-1 1.5-.5 1.5-.5 1.5h-2-2v1 1" style="fill:#956e60;stroke:#956e60"/><path d="m35 602l3 1 1.5-.5 1.5-.5 2-.5 2-.5 1-.5 1-.5h1.5 1.5v-.5-.5l-6-7.5-6-7.5-11-4-11-4 3-10.5 3-10.5-11-5.5-11-5.5v2.5 2.5 2 2 2 2 2.5 2.5 2 2 2.5 2.5 1 1h2.5 2.5l1 1 1 1 1 1 1 1 1.5 1 1.5 1 1.5.5 1.5.5 1.5 1 1.5 1 1 1 1 1v1.5 1.5 3 3l.5 1 .5 1 1.5 1 1.5 1h1 1l1 1 1 1 1 .5 1 .5 2.5 1 2.5 1" style="fill:#fcffeb;stroke:#fcffeb"/><path d="m0 601v1h2 2l.5-1.5.5-1.5 1-1.5 1-1.5.5-1.5.5-1.5v-2-2-1.5-1.5l-1-1-1-1h-1.5-1.5l-1.5.5-1.5.5v2 2 2 2 2.5 2.5 1.5 1.5" style="fill:#96373c;stroke:#96373c"/><path d="m531 600l27-6 12.5-5.5 12.5-5.5-7.5-1-7.5-1-11.5 3.5-11.5 3.5-7 6-7 6" style="fill:#345169;stroke:#345169"/><path d="m50 599v1l13.5-10 13.5-10 1-17 1-17 .5-16 .5-16 .5-16.5.5-16.5v-15-15l-2-11.5-2-11.5-9.5-6-9.5-6-9-1-9-1-6-1.5-6-1.5-8.5-3-8.5-3-5.5 6.5-5.5 6.5v18.5 18.5 18 18 17.5 17.5 9 9l11 5.5 11 5.5-3 10.5-3 10.5 11 4 11 4 6 7.5 6 7.5" style="fill:#c8d8d7;stroke:#c8d8d7"/><path d="m85 594l2-1 1-14.5 1-14.5 1-16 1-16 .5-16 .5-16 1-15.5 1-15.5.5-17.5.5-17.5 1-15.5 1-15.5v-16-16l.5-15 .5-15v-15-15l.5-15 .5-15v-15.5-15.5h-1-1l-1-1-1-1-.5 16-.5 16-.5 17.5-.5 17.5-.5 16-.5 16-.5 17.5-.5 17.5-1 16.5-1 16.5-.5 17.5-.5 17.5-.5 17-.5 17-1 17-1 17-1 16.5-1 16.5-2 20.5-2 20.5h1.5 1.5l1-.5 1-.5.5 1.5.5 1.5" style="fill:#345169;stroke:#345169"/><path d="m19 592l1 1v-3-3-1.5-1.5l-1-1-1-1-1.5-1-1.5-1-1.5-.5-1.5-.5-1.5-1-1.5-1-1-1-1-1-1-1-1-1h-2.5-2.5v1 1l2 .5 2 .5 1 1 1 1 1.5 1 1.5 1 1 1 1 1 1 1.5 1 1.5h1 1l1.5.5 1.5.5v1.5 1.5l.5 1.5.5 1.5" style="fill:#c8d8d7;stroke:#c8d8d7"/><path d="m77 592l1 1 .5-.5.5-.5 2-20.5 2-20.5 1-16.5 1-16.5 1-17 1-17 .5-17 .5-17 .5-17.5.5-17.5 1-16.5 1-16.5.5-17.5.5-17.5.5-16 .5-16 .5-17.5.5-17.5.5-16 .5-16 .5-16.5.5-16.5v-16-16l-2.5 10.5-2.5 10.5.5 10 .5 10-6 16-6 16-10.5-3.5-10.5-3.5-7.5 2-7.5 2-7.5-3.5-7.5-3.5-14.5-3-14.5-3v3.5 3.5 2 2 2.5 2.5 2 2 2.5 2.5 2 2 2.5 2.5 2 2 1.5 1.5l9.5.5 9.5.5 12.5 1 12.5 1 8-1 8-1 6.5 5 6.5 5 6 7 6 7 .5 14 .5 14-.5 16.5-.5 16.5v13.5 13.5l.5 14.5.5 14.5-.5 17-.5 17-.5 17.5-.5 17.5-.5 17-.5 17-1 17-1 17-2 16-2 16" style="fill:#78878b;stroke:#78878b"/><path d="m11 589v1h.5.5l.5-2.5.5-2.5-1-1.5-1-1.5-1-1-1-1-1.5-1-1.5-1-1-1-1-1-2-.5-2-.5v2 2 2 2l1-.5 1-.5.5-.5.5-.5h1 1l.5-.5.5-.5 1 .5 1 .5.5.5.5.5.5.5.5.5.5.5.5.5v1 1 1.5 1.5" style="fill:#d68c84;stroke:#d68c84"/><path d="m170 588l-9-14-9-9-9-9-3-1.5-3-1.5 4 7 4 7 6.5 5 6.5 5 6 5.5 6 5.5" style="fill:#345169;stroke:#345169"/><path d="m94 580l3 1h1 1 1 1l.5-1 .5-1v-.5-.5l1-.5 1-.5.5-.5.5-.5.5-.5.5-.5.5-1 .5-1h1 1v-1-1h1 1l1-.5 1-.5 1-1 1-1 1.5-.5 1.5-.5 1.5-1 1.5-1v-2-2-3-3l-.5-.5-.5-.5v-1-1l-.5 1-.5 1v2.5 2.5 2 2l-1 .5-1 .5-1 1-1 1h-1-1l-1 .5-1 .5-.5.5-.5.5-.5.5-.5.5-.5.5-.5.5-1 .5-1 .5-.5.5-.5.5-.5.5-.5.5-.5.5-.5.5-1 1.5-1 1.5-1 1-1 1-1.5-.5-1.5-.5v-28.5-28.5l-.5 2.5-.5 2.5v2.5 2.5 2 2 2 2l-.5 2-.5 2v2 2l-.5 1.5-.5 1.5v1.5 1.5l.5.5.5.5v1 1l-.5 1.5-.5 1.5v1.5 1.5 1 1 1 1l-.5.5-.5.5.5 1 .5 1-.5.5-.5.5v1 1 1 1l.5 1 .5 1 .5.5.5.5h-1-1v1 1l1 .5 1 .5" style="fill:#674c48;stroke:#674c48"/><path d="m96 578l3 1 1-1 1-1h-2-2v-16-16l.5-16.5.5-16.5.5-16 .5-16 1-23.5 1-23.5-1 16.5-1 16.5-1.5 27-1.5 27v.5.5 28.5 28.5" style="fill:#78878b;stroke:#78878b"/><path d="m102 578v1l1.5-.5 1.5-.5 1-1 1-1h1.5 1.5l1-1 1-1 1.5-1 1.5-1 1.5.5 1.5.5v-1-1l-1.5-1.5-1.5-1.5-1 1-1 1-1 .5-1 .5h-1-1v1 1h-1-1l-.5 1-.5 1-.5.5-.5.5-.5.5-.5.5-1 .5-1 .5" style="fill:#345169;stroke:#345169"/><path d="m97 577h4l1-1.5 1-1.5.5-.5.5-.5.5-.5.5-.5.5-.5.5-.5 1-.5 1-.5.5-.5.5-.5.5-.5.5-.5.5-.5.5-.5 1-.5 1-.5h1 1l1-1 1-1v-.5-.5l2-14.5 2-14.5 1-15.5 1-15.5.5-16 .5-16 .5-16.5.5-16.5 1-15.5 1-15.5.5-12 .5-12v-16.5-16.5l-2.5-9.5-2.5-9.5-4.5-3-4.5-3-1.5-13-1.5-13v-16.5-16.5-17-17l-1.5 12-1.5 12-.5 16.5-.5 16.5-1.5 31-1.5 31v1.5 1.5 1.5 1.5 1 1 1.5 1.5 2 2 1 1 1.5 1.5l-.5 1.5-.5 1.5-1 27-1 27v2.5 2.5l-1 23.5-1 23.5-.5 16-.5 16-.5 16.5-.5 16.5v16 16" style="fill:#b8b7aa;stroke:#b8b7aa"/><path d="m99 573l17-16 1.5-15.5 1.5-15.5.5-15 .5-15-1-15-1-15-1.5-11-1.5-11-4.5-.5-4.5-.5v-16.5-16.5l.5-17.5.5-17.5-.5-16-.5-16-.5 17.5-.5 17.5-.5 17-.5 17-1 16-1 16-.5 17-.5 17-.5 17.5-.5 17.5-1 16.5-1 16.5.5 13.5.5 13.5" style="fill:#c8d8d7;stroke:#c8d8d7"/><path d="m535 573l26-7 9.5-7 9.5-7 10.5-6.5 10.5-6.5 10-5.5 10-5.5 8.5-3 8.5-3 8 10 8 10 5.5 5 5.5 5 1.5-12.5 1.5-12.5 6.5-9 6.5-9 6.5 8 6.5 8 9.5 4.5 9.5 4.5 2.5-24 2.5-24 1-11 1-11v-3-3-2-2-2.5-2.5-2-2-2.5-2.5-1.5-1.5l-3-12.5-3-12.5 1-9.5 1-9.5-3.5 3.5-3.5 3.5-1 15.5-1 15.5-9 4.5-9 4.5-7 7-7 7-7.5 7-7.5 7-8 22.5-8 22.5-.5 1-.5 1v1.5 1.5 2 2l-1.5-.5-1.5-.5-.5-1-.5-1-1-1-1-1v-1-1l.5-2 .5-2v-2-2l-1-1-1-1-1.5 1-1.5 1 .5 1.5.5 1.5v1.5 1.5l-1.5-.5-1.5-.5-1.5-1-1.5-1-.5-.5-.5-.5-1-.5-1-.5-1.5-.5-1.5-.5-1-1-1-1-26.5 2-26.5 2-14-2.5-14-2.5-11.5-6.5-11.5-6.5-10.5-6-10.5-6-.5 1.5-.5 1.5-1 1.5-1 1.5-1 1-1 1-1.5 2-1.5 2-.5 1.5-.5 1.5-.5 1.5-.5 1.5-.5 1-.5 1-.5.5-.5.5-1 1-1 1-.5 1-.5 1-.5.5-.5.5v1 1l-.5.5-.5.5.5 1 .5 1-.5.5-.5.5-.5.5-.5.5.5.5.5.5-.5 1.5-.5 1.5v1.5 1.5l.5 1 .5 1 5-7.5 5-7.5 7 9.5 7 9.5 10 5 10 5 5.5 5 5.5 5 4 6.5 4 6.5-3 7.5-3 7.5" style="fill:#345169;stroke:#345169"/><path d="m327 572l38-1 11.5-4.5 11.5-4.5 3.5-10 3.5-10 7.5-10.5 7.5-10.5 8.5-8 8.5-8 2.5-11.5 2.5-11.5-7-7.5-7-7.5h-14.5-14.5l-24 2-24 2-3-5-3-5 26-3.5 26-3.5-18-6.5-18-6.5-14 2-14 2h-11-11-3-3l-1 1-1 1h-1-1l.5-2 .5-2 .5-2 .5-2 .5-1.5.5-1.5.5-1.5.5-1.5 1-1.5 1-1.5 1.5-.5 1.5-.5 1-1.5 1-1.5.5-1.5.5-1.5 1.5-1 1.5-1 1.5-1.5 1.5-1.5 1.5-1 1.5-1v-.5-.5l.5-1 .5-1 .5-.5.5-.5.5-.5.5-.5 1-.5 1-.5 1-1 1-1 .5-.5.5-.5 1-.5 1-.5 1-1 1-1 .5-.5.5-.5 1-.5 1-.5.5.5.5.5.5.5.5.5.5.5.5.5.5.5.5.5 1-.5 1-.5h1 1l1 1 1 1 14.5-.5 14.5-.5-.5-8-.5-8 8.5-4.5 8.5-4.5h1.5 1.5l.5 1 .5 1 1.5 1 1.5 1 .5 1.5.5 1.5 1 1.5 1 1.5.5.5.5.5 1 1.5 1 1.5-.5 2.5-.5 2.5 12.5 11 12.5 11 10.5 7 10.5 7 2 7 2 7-11-.5-11-.5-13.5-.5-13.5-.5 6.5 5 6.5 5 11.5 1.5 11.5 1.5 5.5 3 5.5 3 3.5 8.5 3.5 8.5 7 9.5 7 9.5 11-5.5 11-5.5-1-.5-1-.5-3.5-11.5-3.5-11.5-4-10.5-4-10.5-7.5-7-7.5-7-9.5-6.5-9.5-6.5-5-10.5-5-10.5-6.5-10-6.5-10 9-2.5 9-2.5 7.5-1.5 7.5-1.5 7.5-8 7.5-8 9 3.5 9 3.5 10-4 10-4 4.5-10.5 4.5-10.5 4.5-5 4.5-5 5.5-13 5.5-13-7.5-3-7.5-3-9 8-9 8-6 11.5-6 11.5-9.5 8.5-9.5 8.5-13 4.5-13 4.5-19-1-19-1-1 1-1 1-1 1-1 1-.5.5-.5.5-.5 1-.5 1-.5 1.5-.5 1.5-1.5-.5-1.5-.5-2-1-2-1-1-1-1-1-1.5-1-1.5-1-.5-1.5-.5-1.5 1-1 1-1 1-1.5 1-1.5-1-1-1-1-5-10.5-5-10.5-5-11.5-5-11.5-6.5-7.5-6.5-7.5-16.5 12-16.5 12 6.5-11.5 6.5-11.5 8 10 8 10 5.5 11 5.5 11-3.5 6.5-3.5 6.5 9 4.5 9 4.5-.5 10.5-.5 10.5-6 13.5-6 13.5-1-.5-1-.5h-2-2l-1.5-1-1.5-1-1-1-1-1v-1.5-1.5-2-2l-1.5-1-1.5-1-1-1-1-1-2-.5-2-.5-2-.5-2-.5-.5.5-.5.5h-1-1l-.5.5-.5.5h-1.5-1.5l-1 1-1 1-1 9.5-1 9.5-9.5 8.5-9.5 8.5-9.5 8-9.5 8-3.5 10.5-3.5 10.5-2.5 8-2.5 8 5.5 4.5 5.5 4.5 5-12 5-12 12.5-3 12.5-3 13-4 13-4 7.5 5 7.5 5-15.5 1.5-15.5 1.5-11 6.5-11 6.5 5.5.5 5.5.5 16 .5 16 .5 5 3 5 3-8.5 7-8.5 7-4 11-4 11-17.5 1.5-17.5 1.5-5-11-5-11-6 1-6 1-10-2.5-10-2.5-8-10-8-10-9.5-17.5-9.5-17.5-11.5 13-11.5 13 1-14 1-14v-15-15l-.5-2-.5-2 .5-1 .5-1v-1.5-1.5l-.5-1.5-.5-1.5-.5-.5-.5-.5v-1.5-1.5l-.5-1.5-.5-1.5-.5-2-.5-2-.5-1.5-.5-1.5-.5-.5-.5-.5-1.5-16-1.5-16 1-12 1-12h1 1l-1-1.5-1-1.5-.5-.5-.5-.5-.5-.5-.5-.5-.5-.5-.5-.5-.5-1-.5-1-.5-.5-.5-.5-.5-.5-.5-.5-1-.5-1-.5-.5 1.5-.5 1.5-.5 1.5-.5 1.5v2 2l.5 3 .5 3 4.5 28 4.5 28 2 14 2 14v14.5 14.5l3.5 12.5 3.5 12.5 14 .5 14 .5 7 11 7 11 7 10.5 7 10.5 11 1 11 1 5 5.5 5 5.5 2 11 2 11 7 9.5 7 9.5 10.5 3 10.5 3" style="fill:#956e60;stroke:#956e60"/><path d="m416 565l21-12 8-10 8-10-5-3.5-5-3.5-5.5 9.5-5.5 9.5-7.5 5-7.5 5-.5 5-.5 5" style="fill:#141613;stroke:#141613"/><path d="m117 563v1l1-.5 1-.5v-2-2-2.5-2.5l.5-1 .5-1v-2-2-1-1l.5-1 .5-1v-.5-.5l1.5-15.5 1.5-15.5 1-17 1-17v-2-2-1-1-1-1-1-1l.5-1 .5-1 .5-.5.5-.5v-1-1-1-1l.5-.5.5-.5v-1.5-1.5-1.5-1.5l2-27.5 2-27.5-.5-1-.5-1 .5-1 .5-1 .5-.5.5-.5-.5-.5-.5-.5v-1-1-1.5-1.5l-.5-.5-.5-.5-.5-.5-.5-.5-.5-.5-.5-.5-.5-1-.5-1 .5-1.5.5-1.5v-1-1-1-1l.5-.5.5-.5v-1.5-1.5-2-2l-.5-.5-.5-.5v-2-2-2.5-2.5-2-2-2-2-2.5-2.5l.5-1.5.5-1.5 1-1.5 1-1.5v-2-2-1.5-1.5l-.5-.5-.5-.5-.5-.5-.5-.5-.5-13.5-.5-13.5v-12.5-12.5l-1-7-1-7-5.5 1-5.5 1-2-14-2-14 .5-8 .5-8 .5-8.5.5-8.5-1-8.5-1-8.5-.5-23.5-.5-23.5-1 15.5-1 15.5-1 23.5-1 23.5-.5 16-.5 16-1 24.5-1 24.5-.5 25.5-.5 25.5 1.5-31 1.5-31 .5-16.5.5-16.5 1.5-12 1.5-12v17 17 16.5 16.5l1.5 13 1.5 13 4.5 3 4.5 3 2.5 9.5 2.5 9.5v16.5 16.5l-.5 12-.5 12-1 15.5-1 15.5-.5 16.5-.5 16.5-.5 16-.5 16-1 15.5-1 15.5-2 14.5-2 14.5" style="fill:#78878b;stroke:#78878b"/><path d="m319 557l3 1 1.5-.5 1.5-.5.5-2 .5-2-.5-1.5-.5-1.5-1.5-1-1.5-1-1 1-1 1-1.5 1-1.5 1-1 1-1 1 1 1 1 1 1 .5 1 .5" style="fill:#d68c84;stroke:#d68c84"/><path d="m546 557l3 1 1.5-.5 1.5-.5 2-.5 2-.5 1.5-.5 1.5-.5-.5-1-.5-1h-2-2l-2 .5-2 .5h-2-2v1.5 1.5" style="fill:#141613;stroke:#141613"/><path d="m120 554l1 1 1.5-2 1.5-2 1-1 1-1 1.5-.5 1.5-.5v-1.5-1.5h-1-1l-1.5-1-1.5-1v-1.5-1.5l-1 1.5-1 1.5-.5.5-.5.5-.5 1-.5 1v1 1 2 2 1 1" style="fill:#345169;stroke:#345169"/><path d="m353 554l13-12 4-13 4-13-3-11.5-3-11.5-9.5-.5-9.5-.5-3.5 12-3.5 12 4.5 11.5 4.5 11.5 1 7.5 1 7.5" style="fill:#674c48;stroke:#674c48"/><path d="m93 549v1l.5-1.5.5-1.5v-2-2l.5-2 .5-2v-2-2-2-2-2.5-2.5l.5-2.5.5-2.5v-.5-.5l-.5-.5-.5-.5v-1.5-1.5l.5-.5.5-.5-.5-2-.5-2-.5 1.5-.5 1.5v2 2 2 2 2.5 2.5 2 2l-.5 2-.5 2v2 2 1.5 1.5 1 1 2.5 2.5" style="fill:#345169;stroke:#345169"/><path d="m121 543v1l.5-.5.5-.5 1-1.5 1-1.5 8-17 8-17 7-10.5 7-10.5-1-1-1-1 .5-1 .5-1v-1-1l-.5.5-.5.5-.5-.5-.5-.5-.5-.5-.5-.5h-1-1l-.5 1-.5 1-.5.5-.5.5-.5.5-.5.5-.5.5-.5.5-.5 1-.5 1v1 1l-.5.5-.5.5.5.5.5.5h-1.5-1.5l.5.5.5.5-.5.5-.5.5-.5.5-.5.5h-1-1l-.5-1-.5-1-.5-1-.5-1-.5-1.5-.5-1.5-.5-.5-.5-.5h-1.5-1.5l-1.5.5-1.5.5v-1-1l.5-1 .5-1-1-1.5-1-1.5-1 17-1 17-1.5 15.5-1.5 15.5" style="fill:#674c48;stroke:#674c48"/><path d="m640 521l3 1v-2-2-1.5-1.5l.5-1 .5-1v-.5-.5l2-15.5 2-15.5 4.5-13.5 4.5-13.5 4.5-12 4.5-12-9.5 18.5-9.5 18.5-.5 1-.5 1v1 1 2.5 2.5l-.5 2-.5 2-.5 1.5-.5 1.5v1 1l-.5.5-.5.5-.5.5-.5.5v-1.5-1.5l-.5-1.5-.5-1.5v-1-1l-.5.5-.5.5v1 1l-.5 1-.5 1-.5.5-.5.5v1 1 1 1l-.5 1-.5 1-.5.5-.5.5v1 1l-.5-.5-.5-.5h-1-1v-2-2l-.5 1.5-.5 1.5-.5 1.5-.5 1.5v2 2 2.5 2.5l-.5 1.5-.5 1.5-1 1.5-1 1.5 1.5 1 1.5 1 1.5.5 1.5.5v-1.5-1.5l-.5-1.5-.5-1.5 1.5-1 1.5-1 1 1 1 1v2 2l-.5 2-.5 2v1 1l1 1 1 1 .5 1 .5 1" style="fill:#78878b;stroke:#78878b"/><path d="m294 520l35-3 4-11 4-11 8.5-7 8.5-7-5-3-5-3-16-.5-16-.5-5.5-.5-5.5-.5 11-6.5 11-6.5 15.5-1.5 15.5-1.5-7.5-5-7.5-5-13 4-13 4-12.5 3-12.5 3-5 12-5 12-5.5-4.5-5.5-4.5 2.5-8 2.5-8 3.5-10.5 3.5-10.5 9.5-8 9.5-8 9.5-8.5 9.5-8.5 1-9.5 1-9.5-7 7-7 7-7.5 9-7.5 9-7.5 9-7.5 9-6 8.5-6 8.5-2 10-2 10 1.5 9.5 1.5 9.5-7-10-7-10-14.5-17-14.5-17-.5-.5-.5-.5h-.5-.5v1 1l9.5 17.5 9.5 17.5 8 10 8 10 10 2.5 10 2.5 6-1 6-1 5 11 5 11" style="fill:#d68c84;stroke:#d68c84"/><path d="m95 519l1 1 1.5-27 1.5-27 1-16.5 1-16.5v-2.5-2.5-.5-.5l1-26.5 1-26.5.5-1.5.5-1.5v-1.5-1.5-1-1-2-2-1.5-1.5-1-1-1.5-1.5-1.5-1.5l.5-25.5.5-25.5h-.5-.5l-1 20.5-1 20.5-.5 17-.5 17-1 17-1 17-.5 17-.5 17-1 17-1 17-.5 17-.5 17 .5 2 .5 2-.5.5-.5.5v1.5 1.5" style="fill:#674c48;stroke:#674c48"/><g style="fill:#4b7394;stroke:#4b7394"><path d="m644 512v1l8-22.5 8-22.5 7.5-7 7.5-7 7-7 7-7 9-4.5 9-4.5 1-15.5 1-15.5 3.5-3.5 3.5-3.5-1 9.5-1 9.5 3 12.5 3 12.5v-18-18-17.5-17.5-18-18-1-1l-.5-.5-.5-.5-15.5-8.5-15.5-8.5v13 13l-.5 15.5-.5 15.5-4 11-4 11-6.5 20.5-6.5 20.5-4.5 12-4.5 12-4.5 13.5-4.5 13.5-2 15.5-2 15.5"/><path d="m567 509l53-4-1-1-1-1-1-1-1-1-1.5-.5-1.5-.5-.5-.5-.5-.5-1-.5-1-.5-1-1-1-1-.5-.5-.5-.5-1-.5-1-.5-1.5-.5-1.5-.5-.5-.5-.5-.5-1-.5-1-.5-2-1-2-1-3 .5-3 .5-1.5-.5-1.5-.5h-2.5-2.5-2-2-1-1l-13-1-13-1-15.5-6.5-15.5-6.5-1-.5-1-.5-1.5-.5-1.5-.5-.5.5-.5.5-.5-.5-.5-.5-.5-1-.5-1-1.5-.5-1.5-.5h-1-1l-1-.5-1-.5-1.5.5-1.5.5-.5.5-.5.5-.5 1-.5 1-.5 1.5-.5 1.5-1 2-1 2 10.5 6 10.5 6 11.5 6.5 11.5 6.5 14 2.5 14 2.5"/></g><path d="m627 509l1 1 1-1.5 1-1.5-2-.5-2-.5-.5-.5-.5-.5-1-.5-1-.5-1.5-1-1.5-1-1-1-1-1-1-1.5-1-1.5-1.5-.5-1.5-.5-1-1-1-1-1.5-1-1.5-1-1.5-.5-1.5-.5-1-1.5-1-1.5-1.5-.5-1.5-.5-1.5-.5-1.5-.5h-1-1l1 .5 1 .5-1 1-1 1 2 1 2 1 1 .5 1 .5.5.5.5.5 1.5.5 1.5.5 1 .5 1 .5.5.5.5.5 1 1 1 1 1 .5 1 .5.5.5.5.5 1.5.5 1.5.5 1 1 1 1 1 1 1 1 1 1 1 1 1.5.5 1.5.5 1 .5 1 .5" style="fill:#b8b7aa;stroke:#b8b7aa"/><path d="m323 508l2-19-1-5-1-5-14 1.5-14 1.5 1.5 9.5 1.5 9.5h11.5 11.5l1 3.5 1 3.5" style="fill:#f7b3a6;stroke:#f7b3a6"/><path d="m626 506l4 1 .5-1.5.5-1.5v-2.5-2.5-2-2l.5-1.5.5-1.5.5-1.5.5-1.5 2-16 2-16h3.5 3.5l1 .5 1 .5.5-.5.5-.5.5-1.5.5-1.5 3-14 3-14 4-13.5 4-13.5 5.5-12 5.5-12 .5-15.5.5-15.5-1.5-13-1.5-13 1-9 1-9 23.5-1 23.5-1v-2.5-2.5-.5-.5l-12-3.5-12-3.5-7-9-7-9-.5-13-.5-13-5.5-9-5.5-9-2.5-10.5-2.5-10.5-3-.5-3-.5-3 2.5-3 2.5-4.5-4.5-4.5-4.5-3.5.5-3.5.5-2-4.5-2-4.5-10.5-6.5-10.5-6.5-12 .5-12 .5-9-2-9-2-8.5 5-8.5 5v7 7l6.5 11 6.5 11 12 6 12 6 16 1.5 16 1.5 1.5 11 1.5 11-6 9-6 9-3 6-3 6-13 2.5-13 2.5-11 7-11 7-6.5 6-6.5 6-5.5 12.5-5.5 12.5-8 9.5-8 9.5-3.5 13.5-3.5 13.5-4.5 13-4.5 13-2 15-2 15 6 9 6 9 15 3 15 3 14 4 14 4 13 5 13 5h1 1l-12-6-12-6-14-4-14-4-14.5-3-14.5-3-8.5-4.5-8.5-4.5 3-14.5 3-14.5 5.5-11.5 5.5-11.5 5.5-12 5.5-12 4.5-12 4.5-12 4-13 4-13 15-2.5 15-2.5 11-4.5 11-4.5 13-2 13-2 11.5-1.5 11.5-1.5 5 12.5 5 12.5 4.5 13.5 4.5 13.5-2.5 15-2.5 15-3.5 14.5-3.5 14.5-6 11.5-6 11.5-3 15-3 15-4 19-4 19" style="fill:#c8d8d7;stroke:#c8d8d7"/><path d="m625 505l1 1 4-19 4-19 3-15 3-15 6-11.5 6-11.5 3.5-14.5 3.5-14.5 2.5-15 2.5-15-4.5-13.5-4.5-13.5-5-12.5-5-12.5-11.5 1.5-11.5 1.5-13 2-13 2-11 4.5-11 4.5-15 2.5-15 2.5-4 13-4 13-4.5 12-4.5 12-5.5 12-5.5 12-5.5 11.5-5.5 11.5-3 14.5-3 14.5 8.5 4.5 8.5 4.5 14.5 3 14.5 3 14 4 14 4 12 6 12 6 1.5.5 1.5.5 1.5.5 1.5.5 1 1.5 1 1.5 1.5.5 1.5.5 1.5 1 1.5 1 1 1 1 1 1.5.5 1.5.5 1 1.5 1 1.5 1 1 1 1 1.5 1 1.5 1 1 .5 1 .5" style="fill:#fcffeb;stroke:#fcffeb"/><path d="m262 493l-3-19 2-10 2-10 6-8.5 6-8.5 7.5-9 7.5-9 7.5-9 7.5-9 7-7 7-7 1-1 1-1h1.5 1.5l.5-.5.5-.5h1 1l.5-.5.5-.5 2 .5 2 .5 10.5 5 10.5 5-1.5-13.5-1.5-13.5-6.5-4-6.5-4-10 6-10 6-6-1.5-6-1.5 9-7.5 9-7.5 1-13 1-13-3-6.5-3-6.5-4.5 12-4.5 12-7 10-7 10-4.5 9-4.5 9-6-.5-6-.5-12 .5-12 .5-11-2-11-2-13.5-14.5-13.5-14.5-.5-.5-.5-.5-1.5-1.5-1.5-1.5-.5-1.5-.5-1.5-1.5-1-1.5-1-.5-1.5-.5-1.5-1.5-.5-1.5-.5.5 26 .5 26 .5 1.5.5 1.5.5 2 .5 2 .5 1.5.5 1.5v1.5 1.5l.5.5.5.5.5 1.5.5 1.5v1.5 1.5l.5-.5.5-.5.5-1 .5-1 1.5.5 1.5.5 2 .5 2 .5 1.5.5 1.5.5v2 2l.5 2 .5 2v2 2l.5 3 .5 3v.5.5 1 1l1.5.5 1.5.5 1 1.5 1 1.5.5 1.5.5 1.5 1 1 1 1v1 1l.5 1 .5 1v1.5 1.5l14.5 17 14.5 17 7 10 7 10" style="fill:#f7b3a6;stroke:#f7b3a6"/><path d="m633 493h2l.5.5.5.5v-1-1l.5-.5.5-.5.5-1 .5-1v-1-1-1-1l.5-.5.5-.5.5-1 .5-1v-1-1l.5-.5.5-.5v1 1l.5 1.5.5 1.5v1.5 1.5l.5-.5.5-.5.5-.5.5-.5v-1-1l.5-1.5.5-1.5h-1-1v-2-2-2-2l.5-2 .5-2v-2-2-3.5-3.5h-3.5-3.5l-2 16-2 16v2 2" style="fill:#78a7c9;stroke:#78a7c9"/><path d="m137 492h2l.5-.5.5-.5.5-.5.5-.5-.5-.5-.5-.5h1.5 1.5l-.5-.5-.5-.5.5-.5.5-.5v-1-1l.5-1 .5-1 .5-.5.5-.5.5-.5.5-.5.5-.5.5-.5.5-1 .5-1h1 1l.5.5.5.5.5.5.5.5.5-.5.5-.5v1 1l-.5 1-.5 1 1 1 1 1 1-1 1-1 3-9 3-9 1.5-15.5 1.5-15.5v-14.5-14.5l-2.5-8.5-2.5-8.5-3 7.5-3 7.5 1.5 9.5 1.5 9.5v11 11l.5 4 .5 4-2.5-3.5-2.5-3.5-3.5-3-3.5-3-4 4-4 4-4.5 3.5-4.5 3.5v1.5 1.5 1.5 1.5l-.5.5-.5.5v1 1 1 1l-.5.5-.5.5-.5 1-.5 1v1 1 1 1 1 1 2 2l1 1.5 1 1.5-.5 1-.5 1v1 1l1.5-.5 1.5-.5h1.5 1.5l.5.5.5.5.5 1.5.5 1.5.5 1 .5 1 .5 1 .5 1" style="fill:#345169;stroke:#345169"/><path d="m483 491l2 1 1-.5 1-.5 1.5-2 1.5-2 1-1 1-1 1-1.5 1-1.5.5-1.5.5-1.5 1-2 1-2 .5-1.5.5-1.5.5-1 .5-1 .5-.5.5-.5 1.5-.5 1.5-.5 1 .5 1 .5h1 1l1.5.5 1.5.5.5 1 .5 1 .5.5.5.5.5-.5.5-.5 1.5.5 1.5.5 1 .5 1 .5-1-1.5-1-1.5-1-1-1-1-2-.5-2-.5-1.5-.5-1.5-.5-1-.5-1-.5-1.5-1.5-1.5-1.5-1 .5-1 .5-.5 1.5-.5 1.5-1 1.5-1 1.5-.5 1.5-.5 1.5-.5 1.5-.5 1.5h-1.5-1.5l-1.5-12-1.5-12-7-5.5-7-5.5-1.5-10.5-1.5-10.5 4.5-10 4.5-10 3.5-10.5 3.5-10.5 5.5-5 5.5-5 3 2.5 3 2.5 5-5.5 5-5.5 4.5-23 4.5-23 .5-1.5.5-1.5 1-.5 1-.5.5-1.5.5-1.5v-1-1l.5-1 .5-1 .5-1.5.5-1.5 2 1.5 2 1.5 1.5-1.5 1.5-1.5h1 1l1.5 1 1.5 1v2 2 2.5 2.5l-1.5.5-1.5.5-1.5-.5-1.5-.5-2-2-2-2v2 2 .5.5h1 1l.5 2 .5 2h3 3l-1-13-1-13-8-8-8-8 .5 1 .5 1v.5.5 1.5 1.5 1.5 1.5l.5 2 .5 2 .5 1.5.5 1.5 1 1.5 1 1.5-1 .5-1 .5-5.5 13-5.5 13-4.5 5-4.5 5-4.5 10.5-4.5 10.5-10 4-10 4-1 8.5-1 8.5-5.5 8-5.5 8-4.5 20.5-4.5 20.5-1-1.5-1-1.5 7.5 7 7.5 7 4 10.5 4 10.5 3.5 11.5 3.5 11.5" style="fill:#78878b;stroke:#78878b"/><path d="m575 489h2 2 2 2.5 2.5l1.5.5 1.5.5 3-.5 3-.5 1-1 1-1-1-.5-1-.5-13-5-13-5-14-4-14-4-15-3-15-3h-1.5-1.5-2-2l-1 .5-1 .5 1.5 1.5 1.5 1.5 1 .5 1 .5 1.5.5 1.5.5 2 .5 2 .5 1 1 1 1 1 1.5 1 1.5 15.5 6.5 15.5 6.5 13 1 13 1" style="fill:#78a7c9;stroke:#78a7c9"/><g style="fill:#b8b7aa;stroke:#b8b7aa"><path d="m643 480h2l.5-2 .5-2v-2.5-2.5-1-1l.5-1 .5-1v-.5-.5-2-2-1-1l.5-1 .5-1v-2-2l-.5 1.5-.5 1.5-.5.5-.5.5-1-.5-1-.5v3.5 3.5 2 2l-.5 2-.5 2v2 2 2 2"/><path d="m492 476h3l.5-1.5.5-1.5.5-1.5.5-1.5 1-1.5 1-1.5.5-1.5.5-1.5 1-.5 1-.5 1-.5 1-.5h2 2 1.5 1.5l-6-9-6-9 2-15 2-15 4.5-13 4.5-13 3.5-13.5 3.5-13.5 8-9.5 8-9.5 5.5-12.5 5.5-12.5 6.5-6 6.5-6 11-7 11-7 13-2.5 13-2.5 3-6 3-6 6-9 6-9-1.5-11-1.5-11-16-1.5-16-1.5-12-6-12-6-6.5-11-6.5-11v-7-7l8.5-5 8.5-5 9 2 9 2 12-.5 12-.5 10.5 6.5 10.5 6.5 2 4.5 2 4.5 3.5-.5 3.5-.5 4.5 4.5 4.5 4.5 3-2.5 3-2.5 3 .5 3 .5 2.5 10.5 2.5 10.5 5.5 9 5.5 9 .5 13 .5 13 7 9 7 9 12 3.5 12 3.5v-3.5-3.5-2-2-2.5-2.5-2-2-2.5-2.5-2-2-2-2-2.5-2.5-2-2l-.5-.5-.5-.5-.5-1-.5-1-.5-.5-.5-.5-3-11-3-11 1.5-13 1.5-13-3-10-3-10 1-5.5 1-5.5 2-20 2-20-2-13-2-13 1.5-16 1.5-16 1-9.5 1-9.5 2.5-13 2.5-13v-12-12h-5-5-18-18-17.5-17.5-18-18-18-18-17.5-17.5-18-18-17.5-17.5-18-18-17.5-17.5-18-18-16-16l17.5 8 17.5 8 .5-1.5.5-1.5 1-1 1-1 .5-1 .5-1 1.5-.5 1.5-.5h2.5 2.5 2 2l2 .5 2 .5 2 .5 2 .5 15.5 6.5 15.5 6.5.5-1 .5-1 4.5 2 4.5 2 13.5 14 13.5 14 1 .5 1 .5 1 1 1 1 2 .5 2 .5 2-.5 2-.5 1 1 1 1 .5 1.5.5 1.5v2.5 2.5l.5 1.5.5 1.5 1.5.5 1.5.5h1.5 1.5 1 1l2.5.5 2.5.5 1.5-.5 1.5-.5 1.5.5 1.5.5 2 .5 2 .5h1 1l1.5 1 1.5 1 1 .5 1 .5 1 .5 1 .5 1 1.5 1 1.5 1 .5 1 .5.5 1 .5 1-.5.5-.5.5 1 .5 1 .5 1 1 1 1 1 .5 1 .5 1 .5 1 .5.5 1 .5 1 .5 2 .5 2 1.5.5 1.5.5 1 1 1 1h1 1l1 .5 1 .5 1 1 1 1 .5.5.5.5.5 1 .5 1v1.5 1.5l-1.5 13.5-1.5 13.5 4.5 12.5 4.5 12.5 4 10.5 4 10.5-2 11.5-2 11.5-2 12.5-2 12.5 7 4 7 4-11.5 17-11.5 17 1 .5 1 .5h1 1 1 1l1-.5 1-.5.5.5.5.5h1 1l.5.5.5.5.5 1 .5 1v1 1l-.5.5-.5.5-1.5.5-1.5.5-1-.5-1-.5-2.5-.5-2.5-.5-1 .5-1 .5 1 .5 1 .5 8 8 8 8 1 13 1 13-.5 1.5-.5 1.5-.5 1-.5 1-.5-.5-.5-.5-.5-.5-.5-.5-.5-.5-.5-.5-1-.5-1-.5-.5-.5-.5-.5-.5.5-.5.5h-1-1-1.5-1.5v1 1 1 1l-.5.5-.5.5-.5-2.5-.5-2.5 1.5-.5 1.5-.5v-1.5-1.5l-2 .5-2 .5-4.5 23-4.5 23-5 5.5-5 5.5-3-2.5-3-2.5-5.5 5-5.5 5-3.5 10.5-3.5 10.5-4.5 10-4.5 10 1.5 10.5 1.5 10.5 7 5.5 7 5.5 1.5 12 1.5 12"/></g><path d="m341 471l48-4-.5-.5-.5-.5-1.5-.5-1.5-.5-.5-1-.5-1h-1-1l-1-1-1-1-.5-.5-.5-.5-.5-1-.5-1 1.5-.5 1.5-.5 1.5-1 1.5-1 1.5-.5 1.5-.5-26 3.5-26 3.5 3 5 3 5" style="fill:#96373c;stroke:#96373c"/><path d="m194 466l23-26v-1-1l-10.5-15-10.5-15v15 15l-1 14-1 14" style="fill:#78878b;stroke:#78878b"/><path d="m647 466v1l9.5-18.5 9.5-18.5 6.5-20.5 6.5-20.5 4-11 4-11 .5-15.5.5-15.5v-13-13-1.5-1.5-1-1-1-1h-1-1l-1.5-1-1.5-1h-3-3l-2-.5-2-.5-1 9-1 9 1.5 13 1.5 13-.5 15.5-.5 15.5-5.5 12-5.5 12-4 13.5-4 13.5-3 14-3 14v2 2l-.5 1-.5 1v1 1 2 2" style="fill:#78a7c9;stroke:#78a7c9"/><path d="m291 447h2l1-1 1-1h3 3l4-13.5 4-13.5-1.5 1.5-1.5 1.5-1.5 1-1.5 1-.5 1.5-.5 1.5-1 1.5-1 1.5-1.5.5-1.5.5-1 1.5-1 1.5-.5 1.5-.5 1.5-.5 1.5-.5 1.5-.5 2-.5 2-.5 2-.5 2" style="fill:#96373c;stroke:#96373c"/><path d="m218 438l1 1v-1.5-1.5l-.5-1-.5-1v-1-1l-1-1-1-1-.5-1.5-.5-1.5-1-1.5-1-1.5-1.5-.5-1.5-.5v-1-1-.5-.5l-.5-.5-.5-.5-1-.5-1-.5-1-.5-1-.5-.5-.5-.5-.5-.5-1-.5-1-1-1-1-1v-1-1l-.5-1-.5-1-1-1-1-1v-1-1l-.5-1.5-.5-1.5-.5.5-.5.5-.5 1-.5 1 .5 2 .5 2 10.5 15 10.5 15h.5.5" style="fill:#b8b7aa;stroke:#b8b7aa"/><path d="m455 436l9-41 5.5-8 5.5-8 1-8.5 1-8.5-9-3.5-9-3.5-7.5 8-7.5 8-7.5 1.5-7.5 1.5-9 2.5-9 2.5 6.5 10 6.5 10 5 10.5 5 10.5 9.5 6.5 9.5 6.5 1 1.5 1 1.5" style="fill:#d68c84;stroke:#d68c84"/><path d="m101 427v1l1-27 1-27-1 26.5-1 26.5" style="fill:#78878b;stroke:#78878b"/><path d="m209 419l1 1-.5-3-.5-3v-2-2l-.5-2-.5-2v-2-2l-1.5-.5-1.5-.5-2-.5-2-.5-1.5-.5-1.5-.5-.5 1-.5 1 .5 1.5.5 1.5v1 1l1 1 1 1 .5 1 .5 1v1 1l1 1 1 1 .5 1 .5 1 .5.5.5.5 1 .5 1 .5 1 .5 1 .5" style="fill:#fcffeb;stroke:#fcffeb"/><path d="m140 418l-2-34 3.5-11.5 3.5-11.5h-1-1l-1.5-1-1.5-1v-1-1-1-1l-.5-.5-.5-.5-.5-1-.5-1-.5-1.5-.5-1.5-.5-.5-.5-.5-.5-1-.5-1 .5-1.5.5-1.5-.5-1.5-.5-1.5-1 1.5-1 1.5.5.5.5.5v1 1l-.5.5-.5.5v1.5 1.5 1 1 1 1 1 1 .5.5 2 2 1 1l-1 .5-1 .5v2 2 2 2 1.5 1.5l-.5.5-.5.5v1 1 1 1l-.5 1.5-.5 1.5.5 1 .5 1 .5.5.5.5.5.5.5.5.5.5.5.5v1.5 1.5 1 1l.5.5.5.5-.5.5-.5.5-.5 1-.5 1 .5 1 .5 1 3.5 9.5 3.5 9.5" style="fill:#345169;stroke:#345169"/><path d="m312 415v1l1-.5 1-.5 1-1 1-1 1.5-1 1.5-1h2 2l2-.5 2-.5 1.5-.5 1.5-.5 1.5-1 1.5-1h2 2l-1-1-1-1h-1-1l-1 .5-1 .5-.5-.5-.5-.5-.5-.5-.5-.5-.5-.5-.5-.5-.5-.5-.5-.5-1 .5-1 .5-.5.5-.5.5-1 1-1 1-1 .5-1 .5-.5.5-.5.5-1 1-1 1-1 .5-1 .5-.5.5-.5.5-.5.5-.5.5-.5 1-.5 1" style="fill:#96373c;stroke:#96373c"/><path d="m352 401l12-27 .5-10.5.5-10.5-9-4.5-9-4.5 3.5-6.5 3.5-6.5-5.5-11-5.5-11-8-10-8-10-6.5 11.5-6.5 11.5-.5 1-.5 1v1.5 1.5l-5 12.5-5 12.5-9.5 7-9.5 7-21.5 5-21.5 5-18.5-11.5-18.5-11.5h-1-1l13.5 14.5 13.5 14.5 11 2 11 2 12-.5 12-.5 6 .5 6 .5 4.5-9 4.5-9 7-10 7-10 4.5-12 4.5-12 3 6.5 3 6.5-1 13-1 13-9 7.5-9 7.5 6 1.5 6 1.5 10-6 10-6 6.5 4 6.5 4 1.5 13.5 1.5 13.5-10.5-5-10.5-5 2 .5 2 .5 1 1 1 1 1.5 1 1.5 1v2 2 1.5 1.5l1 1 1 1 1.5 1 1.5 1h2 2l1 .5 1 .5" style="fill:#d68c84;stroke:#d68c84"/><path d="m392 399l2 1 .5-2.5.5-2.5-1-1.5-1-1.5-.5-.5-.5-.5-1-1.5-1-1.5-.5-1.5-.5-1.5-1.5-1-1.5-1-.5-1-.5-1h-1.5-1.5l1 1 1 1 .5.5.5.5.5.5.5.5.5.5.5.5.5.5.5.5.5 1 .5 1-.5.5-.5.5-.5.5-.5.5h-1-1-1.5-1.5l-.5.5-.5.5-.5.5-.5.5v1 1l.5 1 .5 1h1 1l.5.5.5.5h1 1l.5-.5.5-.5h1.5 1.5l1 1 1 1" style="fill:#96373c;stroke:#96373c"/><path d="m190 381l1 1-.5-26-.5-26 1-1 1-1-1.5-1.5-1.5-1.5-1 12-1 12 1.5 16 1.5 16" style="fill:#d68c84;stroke:#d68c84"/><path d="m336 375l3 1 .5-1.5.5-1.5-.5-2-.5-2-1-1-1-1-2 .5-2 .5-1.5.5-1.5.5-1.5 1-1.5 1 1 1 1 1 1.5-.5 1.5-.5 1.5 1 1.5 1 .5.5.5.5" style="fill:#fcffeb;stroke:#fcffeb"/><path d="m130 367l1 1v-2-2l1-.5 1-.5v-1-1-2-2-.5-.5-1-1-1-1-1-1-1.5-1.5l.5-.5.5-.5v-1-1l-.5-.5-.5-.5 1-1.5 1-1.5-.5-1.5-.5-1.5-.5-2.5-.5-2.5v1.5 1.5 2 2l-1 1.5-1 1.5-.5 1.5-.5 1.5v2.5 2.5 2 2 2 2 2.5 2.5 2 2" style="fill:#674c48;stroke:#674c48"/><path d="m241 366l43-10 9.5-7 9.5-7 5-12.5 5-12.5-5.5 11.5-5.5 11.5-9 7.5-9 7.5-24 2.5-24 2.5-11.5-5.5-11.5-5.5v-2-2l13 4.5 13 4.5 16-1 16-1 10.5-11 10.5-11-1.5 1.5-1.5 1.5-1.5.5-1.5.5-1 1-1 1h-1.5-1.5l-.5-1-.5-1 1-1 1-1v-1-1l.5-.5.5-.5.5-.5.5-.5.5-1 .5-1 .5-.5.5-.5.5-.5.5-.5-.5-.5-.5-.5-1-.5-1-.5-.5-1.5-.5-1.5v-1-1l1-1 1-1-.5-.5-.5-.5 5.5-6.5 5.5-6.5-5 7-5 7 1 .5 1 .5 1 1.5 1 1.5 1 .5 1 .5 2-1 2-1 1.5-1 1.5-1 1.5-.5 1.5-.5.5-2 .5-2 .5-1.5.5-1.5v-2-2l.5-2 .5-2v-2-2l.5-3 .5-3h-.5-.5l-.5 1.5-.5 1.5v1 1 1 1 1 1l-1 .5-1 .5h-1-1l-.5-.5-.5-.5-.5-.5-.5-.5-.5-1-.5-1v-2-2l-.5-1.5-.5-1.5-1.5.5-1.5.5-1 .5-1 .5-.5-.5-.5-.5h-1-1-1-1l-1 .5-1 .5-.5.5-.5.5v1 1 1 1l-.5 1-.5 1 .5 1.5.5 1.5h-1-1l-1.5-.5-1.5-.5-1-.5-1-.5.5 1.5.5 1.5v1 1l.5 1 .5 1v1 1 1.5 1.5l-1.5.5-1.5.5-1.5.5-1.5.5h-1-1-1.5-1.5l-1 1-1 1h-1-1-1.5-1.5l-2-.5-2-.5.5-.5.5-.5-1 .5-1 .5-1.5-.5-1.5-.5h-1-1l-6-6.5-6-6.5.5 7 .5 7 13 4 13 4-2 7-2 7-9 7.5-9 7.5-14-3.5-14-3.5-2-3-2-3-.5-1-.5-1h-1-1l-.5-1-.5-1-1-1-1-1-.5-.5-.5-.5-.5-1-.5-1-.5-1.5-.5-1.5-.5-.5-.5-.5-1-1.5-1-1.5-.5-.5-.5-.5-1-2-1-2-.5-1.5-.5-1.5-.5-2-.5-2-.5-1.5-.5-1.5-.5-2-.5-2-.5-1.5-.5-1.5v-2.5-2.5-2-2l5.5-11.5 5.5-11.5 13.5 2 13.5 2v6 6l-1.5 4-1.5 4 10 5 10 5 .5 1.5.5 1.5.5.5.5.5h1 1l.5-1 .5-1 12.5-2.5 12.5-2.5v-1.5-1.5-2-2l.5-2 .5-2-.5-1-.5-1-1.5.5-1.5.5-1 1-1 1-1.5-.5-1.5-.5-6.5-7-6.5-7 11 3.5 11 3.5.5-1.5.5-1.5v-2-2-3-3l-.5-1-.5-1-.5-2-.5-2-.5-2.5-.5-2.5-14.5-1.5-14.5-1.5-15 2.5-15 2.5-11 7-11 7-2 14.5-2 14.5 4.5 15.5 4.5 15.5 1.5 1 1.5 1 1 1 1 1-.5 2-.5 2 1 1 1 1 18.5 11.5 18.5 11.5" style="fill:#956e60;stroke:#956e60"/><path d="m388 363l3 1 .5-1.5.5-1.5.5-1 .5-1 .5-.5.5-.5 1-1 1-1 1-1 1-1h-2.5-2.5l-.5 2-.5 2-1 1-1 1-1-1-1-1 1-1.5 1-1.5-1.5-.5-1.5-.5-1.5-1-1.5-1-.5-1.5-.5-1.5-1.5-1-1.5-1 1 1 1 1-1 1.5-1 1.5-1 1-1 1 .5 1.5.5 1.5 1.5 1 1.5 1 1 1 1 1 2 1 2 1" style="fill:#96373c;stroke:#96373c"/><path d="m143 361h2l-6-14.5-6-14.5.5 2.5.5 2.5.5 1.5.5 1.5.5 1.5.5 1.5-.5 1.5-.5 1.5.5 1 .5 1 .5.5.5.5.5 1.5.5 1.5.5 1 .5 1 .5.5.5.5v1 1 1 1l1.5 1 1.5 1" style="fill:#141613;stroke:#141613"/><path d="m236 360l48-5 9-7.5 9-7.5 5.5-11.5 5.5-11.5v-1.5-1.5l.5-1 .5-1 16.5-12 16.5-12 6.5 7.5 6.5 7.5 5 11.5 5 11.5 5 10.5 5 10.5 1.5 1 1.5 1 .5 1.5.5 1.5 1.5 1 1.5 1 1.5.5 1.5.5-1 1.5-1 1.5 1 1 1 1 1-1 1-1 .5-2 .5-2h2.5 2.5l19 1 19 1 13-4.5 13-4.5 9.5-8.5 9.5-8.5 6-11.5 6-11.5 9-8 9-8 7.5 3 7.5 3 1-.5 1-.5-1-1.5-1-1.5-.5-1.5-.5-1.5-.5-2-.5-2v-1.5-1.5-1.5-1.5h-2-2l-1.5 1-1.5 1-1.5-.5-1.5-.5v-.5-.5l-.5-.5-.5-.5-.5-.5-.5-.5-.5-.5-.5-.5-.5-.5-.5-.5-1 .5-1 .5-1-.5-1-.5-1 .5-1 .5v1 1l-1 .5-1 .5-1 1-1 1-7.5 17-7.5 17 2-13 2-13-4-15.5-4-15.5-1.5-.5-1.5-.5-.5-.5-.5-.5h-1-1l-.5-.5-.5-.5-1-.5-1-.5-.5-.5-.5-.5-.5-.5-.5-.5-1-1-1-1h-1.5-1.5l-2-.5-2-.5-1-1-1-1h-1-1-2.5-2.5-1-1l-2.5-.5-2.5-.5-1.5 1-1.5 1 .5 1 .5 1 1 1 1 1 .5 1.5.5 1.5 1 1.5 1 1.5-.5 1.5-.5 1.5v1.5 1.5 1 1l-.5 1-.5 1-1.5 1.5-1.5 1.5-.5 1.5-.5 1.5-1 1.5-1 1.5-1 1-1 1 .5 2 .5 2-1.5.5-1.5.5.5 1.5.5 1.5-.5 1.5-.5 1.5-1 1.5-1 1.5h-1-1l-1.5 1.5-1.5 1.5h1 1l1.5-.5 1.5-.5v1 1 .5.5l-.5.5-.5.5v1 1l-.5.5-.5.5-1 .5-1 .5-.5.5-.5.5-.5.5-.5.5-1.5-.5-1.5-.5h-1.5-1.5-1-1l-.5-.5-.5-.5h-1-1v-.5-.5l1-1 1-1v-1-1l-1.5.5-1.5.5-1.5-.5-1.5-.5-1-.5-1-.5-1.5-1-1.5-1-1-1-1-1-.5-2-.5-2v-1-1-2-2l1 .5 1 .5 1.5.5 1.5.5 2-.5 2-.5h-2-2l-.5-.5-.5-.5v-1.5-1.5-2-2-1-1-1.5-1.5-3-3-.5-.5-2.5-2.5l-1-1-1-1h-2-2l-1 1-1 1-1.5 1-1.5 1-1 1-1 1-1.5-.5-1.5-.5h-1.5-1.5l-.5-.5-.5-.5-.5-.5-.5-.5h1 1l1-.5 1-.5.5-.5.5-.5.5-.5.5-.5.5-.5.5-.5 1-.5 1-.5h1 1l.5-.5.5-.5.5.5.5.5h1 1 1.5 1.5 1 1 2 2l1-.5 1-.5h1 1l.5-.5.5-.5.5-.5.5-.5.5-1 .5-1h-1-1l-.5.5-.5.5v-1-1l-.5-1-.5-1h-1-1-1-1-.5-.5l-1.5.5-1.5.5-.5.5-.5.5h-.5-.5l-1.5.5-1.5.5-1-.5-1-.5-11.5 7-11.5 7-5 12.5-5 12.5 3.5 14.5 3.5 14.5 7 11 7 11-3 .5-3 .5-6-12-6-12-6.5-11-6.5-11-10.5-7.5-10.5-7.5-8 4.5-8 4.5-4.5 13.5-4.5 13.5-6 11.5-6 11.5-10 8-10 8-21 1.5-21 1.5 1.5-1 1.5-1 16-1 16-1 11-6.5 11-6.5 5-13 5-13 1-19 1-19-.5 2-.5 2 .5 1.5.5 1.5v2 2l-.5 1-.5 1-.5 3-.5 3v2 2l-.5 2-.5 2v2 2l-.5 1.5-.5 1.5-.5 2-.5 2-1.5.5-1.5.5-1.5 1-1.5 1-2 1-2 1-1 1.5-1 1.5v1 1l-.5 1-.5 1 1 1 1 1 1 .5 1 .5-10.5 11-10.5 11-16 1-16 1-13-4.5-13-4.5v2 2l11.5 5.5 11.5 5.5" style="fill:#674c48;stroke:#674c48"/><path d="m149 359l24-4 3.5-12.5 3.5-12.5-.5-3-.5-3v-2-2l.5-1.5.5-1.5.5-1.5.5-1.5-.5-1.5-.5-1.5-.5-.5-.5-.5.5-1 .5-1-.5-1.5-.5-1.5-.5-.5-.5-.5-.5-1-.5-1-.5-1-.5-1-10.5-4.5-10.5-4.5-10.5 10-10.5 10 7.5 24 7.5 24" style="fill:#96373c;stroke:#96373c"/><path d="m237 358l42-3 10-8 10-8 6-11.5 6-11.5 4.5-13.5 4.5-13.5 8-4.5 8-4.5 10.5 7.5 10.5 7.5 6.5 11 6.5 11 6 12 6 12 3-.5 3-.5-7-11-7-11-3.5-14.5-3.5-14.5 5-12.5 5-12.5 11.5-7 11.5-7 1-.5 1-.5 1.5-.5 1.5-.5 1.5-.5 1.5-.5 1-1 1-1v-.5-.5-1.5-1.5l-12.5 3.5-12.5 3.5-10 7.5-10 7.5-12 3.5-12 3.5-13-.5-13-.5-.5 2-.5 2-1-1-1-1v1 1l.5.5.5.5.5 1 .5 1 .5 1.5.5 1.5v1 1l-1 .5-1 .5-1-.5-1-.5-.5-1-.5-1-.5-1.5-.5-1.5-1-1.5-1-1.5-.5-1-.5-1-1-.5-1-.5.5 1 .5 1v1 1l.5 1.5.5 1.5-1 19-1 19-5 13-5 13-11 6.5-11 6.5-16 1-16 1-1.5 1-1.5 1" style="fill:#141613;stroke:#141613"/><path d="m242 351l18-15 2-7 2-7-13-4-13-4-.5-7-.5-7 6 6.5 6 6.5-1-.5-1-.5-1.5-.5-1.5-.5h-1-1l-1-.5-1-.5-.5-1.5-.5-1.5-.5-.5-.5-.5.5-1 .5-1 1-1 1-1h2 2l-10-5-10-5 1.5-4 1.5-4v-6-6l-13.5-2-13.5-2-5.5 11.5-5.5 11.5 1.5-.5 1.5-.5 10-7.5 10-7.5 5.5 4 5.5 4-4 12-4 12-2.5 15.5-2.5 15.5h-.5-.5l2 3 2 3 14 3.5 14 3.5" style="fill:#d68c84;stroke:#d68c84"/><path d="m435 349l21-8 5.5-10.5 5.5-10.5-2.5-10-2.5-10-7 6-7 6-11.5 5-11.5 5-2 3-2 3-7 6.5-7 6.5 5 2 5 2 9 2 9 2" style="fill:#956e60;stroke:#956e60"/><path d="m201 342l1 1h1 1l-1-1-1-1 .5-2 .5-2-1-1-1-1-1.5-1-1.5-1v-.5-.5l-1-.5-1-.5-.5-1-.5-1-.5-.5-.5-.5-.5-.5-.5-.5-1-1-1-1h-1-1l1.5 1.5 1.5 1.5-1 1-1 1 1.5.5 1.5.5.5 1.5.5 1.5 1.5 1 1.5 1 .5 1.5.5 1.5 1.5 1.5 1.5 1.5" style="fill:#b8b7aa;stroke:#b8b7aa"/><path d="m211 338l5-31 4-12 4-12-5.5-4-5.5-4-10 7.5-10 7.5-.5 2-.5 2v1.5 1.5 2 2l.5 2 .5 2v1 1l1 1.5 1 1.5.5 1.5.5 1.5.5 1.5.5 1.5.5 3 .5 3 1 1.5 1 1.5.5.5.5.5.5 1.5.5 1.5.5 1 .5 1 .5.5.5.5 1 1 1 1 .5 1 .5 1h1 1l.5 1 .5 1h.5.5" style="fill:#f7b3a6;stroke:#f7b3a6"/><path d="m281 336h3l1-1 1-1 1.5-.5 1.5-.5 1.5-1.5 1.5-1.5-1-.5-1-.5-1-1-1-1 .5-1 .5-1v-1-1l1-1.5 1-1.5-1-.5-1-.5-1-1.5-1-1.5-1-.5-1-.5-1 1-1 1v1 1l.5 1.5.5 1.5 1 .5 1 .5.5.5.5.5-.5.5-.5.5-.5.5-.5.5-.5 1-.5 1-.5.5-.5.5-.5.5-.5.5v1 1l-1 1-1 1 .5 1 .5 1" style="fill:#96373c;stroke:#96373c"/><path d="m198 332v1l-4.5-15.5-4.5-15.5 2-14.5 2-14.5 11-7 11-7 15-2.5 15-2.5 14.5 1.5 14.5 1.5h1.5 1.5l-.5-1-.5-1-11-2-11-2-15 1.5-15 1.5-11.5 5-11.5 5-7 10-7 10 2 18 2 18-10.5-15.5-10.5-15.5 1 1.5 1 1.5.5.5.5.5.5 1 .5 1 1 1 1 1v1.5 1.5l.5 1 .5 1 .5 1 .5 1 .5.5.5.5.5 1.5.5 1.5-.5 1-.5 1 .5.5.5.5.5 1.5.5 1.5 1 .5 1 .5.5.5.5.5.5.5.5.5.5 1 .5 1 .5.5.5.5.5.5.5.5.5.5.5.5 1 1.5 1 1.5 1 1 1 1 .5.5.5.5.5.5.5.5.5 1 .5 1 1 .5 1 .5" style="fill:#674c48;stroke:#674c48"/><path d="m249 332l-6-11 .5 4.5.5 4.5 2.5 1 2.5 1" style="fill:#f7b3a6;stroke:#f7b3a6"/><path d="m131 330l1 1v-1.5-1.5-2-2-1.5-1.5l.5-1.5.5-1.5.5-2 .5-2v-1.5-1.5l10.5-10 10.5-10 10.5 4.5 10.5 4.5v-1.5-1.5l-1-1-1-1-.5-1-.5-1-.5-.5-.5-.5-1-1.5-1-1.5-2-.5-2-.5-.5-.5-.5-.5-1.5-.5-1.5-.5-2-.5-2-.5 2-11.5 2-11.5-4.5-10-4.5-10 4-5.5 4-5.5 2-7 2-7-2.5-13.5-2.5-13.5 2-5.5 2-5.5v-6.5-6.5l10-4 10-4-7-7.5-7-7.5-4-7.5-4-7.5 8-9 8-9 12.5 5 12.5 5 2-7.5 2-7.5 1.5-11.5 1.5-11.5 12-5 12-5 7.5-10 7.5-10 8.5-9.5 8.5-9.5 10-7.5 10-7.5 12-2.5 12-2.5 11.5-4.5 11.5-4.5-5 8.5-5 8.5 9-5.5 9-5.5 9.5 4.5 9.5 4.5 12 3.5 12 3.5 11.5 3 11.5 3 7.5 6.5 7.5 6.5 10 8 10 8 8.5 5 8.5 5 11.5 2 11.5 2 5 9 5 9-.5-1.5-.5-1.5-.5-2-.5-2v-1-1l-.5-1.5-.5-1.5-1.5-1-1.5-1v-1-1l1-.5 1-.5 1.5.5 1.5.5 2-1 2-1-1-.5-1-.5-1.5-1-1.5-1h-1-1l-2-.5-2-.5-1.5-.5-1.5-.5-1.5.5-1.5.5-1 .5-1 .5h-1-1-1.5-1.5-2-2l-1.5-.5-1.5-.5-1.5-1-1.5-1-.5-.5-.5-.5-.5-.5-.5-.5v-1-1l-.5-1-.5-1-.5-.5-.5-.5v-1-1l.5-.5.5-.5v-.5-.5l1.5-1 1.5-1-2 .5-2 .5-2-.5-2-.5-1-1-1-1-1-.5-1-.5-1.5.5-1.5.5-.5-.5-.5-.5-1-.5-1-.5-1 1-1 1-1.5-.5-1.5-.5-7-9-7-9-5.5-7-5.5-7-.5 1-.5 1-.5 1.5-.5 1.5-1 1-1 1-2-.5-2-.5-1-.5-1-.5-1.5-1-1.5-1-1.5-.5-1.5-.5-2-.5-2-.5-1-1-1-1-1-1.5-1-1.5-1-1-1-1-1 1-1 1v1.5 1.5h-1-1-2-2l-1.5-.5-1.5-.5-1.5-1-1.5-1-.5-.5-.5-.5h-1.5-1.5l-2-.5-2-.5h-2-2l-2 .5-2 .5-17.5-8-17.5-8h-.5-.5l-1 1-1 1-1-.5-1-.5-1.5.5-1.5.5.5 1 .5 1v2 2l-1.5 1-1.5 1-1.5.5-1.5.5.5-1 .5-1h-1-1l-1 .5-1 .5h-1.5-1.5l1-1.5 1-1.5 1.5-.5 1.5-.5 1-1.5 1-1.5 1-1.5 1-1.5h-2-2-2-2l1.5 1 1.5 1-1.5.5-1.5.5-1.5 1-1.5 1-1.5.5-1.5.5-1.5.5-1.5.5-2 .5-2 .5h-2.5-2.5l-1 .5-1 .5v1.5 1.5 1 1l-1.5 2-1.5 2-.5 1-.5 1-1.5.5-1.5.5-1.5 1-1.5 1-1 1-1 1-1.5 1-1.5 1h-2-2l-1 1-1 1-1.5.5-1.5.5-10.5 13.5-10.5 13.5-.5 1-.5 1-.5 1.5-.5 1.5-1.5.5-1.5.5-1 1.5-1 1.5-1 1-1 1-.5-1.5-.5-1.5-.5-.5-.5-.5-.5 1-.5 1-1 .5-1 .5-1-1-1-1 .5-1.5.5-1.5.5-.5.5-.5 1-.5 1-.5.5-1.5.5-1.5v-1.5-1.5l-1-.5-1-.5-.5-1-.5-1-.5-1.5-.5-1.5-1.5-1-1.5-1-1.5-.5-1.5-.5h-3-3v1.5 1.5 1.5 1.5l-.5.5-.5.5-1 .5-1 .5-.5.5-.5.5-2-.5-2-.5h-1-1l-1 1.5-1 1.5-1 1-1 1h-1-1l.5-1.5.5-1.5v-1-1l.5-1 .5-1 .5-.5.5-.5h1 1l.5-.5.5-.5h1.5 1.5l1.5-.5 1.5-.5.5-.5.5-.5 1-1 1-1-.5-1-.5-1h-1-1-1.5-1.5l-1.5-.5-1.5-.5-.5.5-.5.5h-1.5-1.5l-1 1-1 1h-1-1l-.5.5-.5.5-.5.5-.5.5-.5 1-.5 1-1 1-1 1-.5.5-.5.5-1 1-1 1 1 1 1 1h-1-1l-.5 1.5-.5 1.5h-1-1l-1 .5-1 .5.5.5.5.5 1.5 1 1.5 1 .5-1.5.5-1.5.5 2 .5 2-1 1-1 1-1.5-.5-1.5-.5-1-1-1-1h-1-1v-1-1l-.5-1-.5-1-.5-.5-.5-.5.5-.5.5-.5v-1-1-1-1-1-1-2-2h-1.5-1.5l-1-.5-1-.5-.5-.5-.5-.5-1 .5-1 .5.5 1.5.5 1.5-1.5-.5-1.5-.5-10-7-10-7-5-8.5-5-8.5-7-8.5-7-8.5h-2-2-.5-.5l-.5 15.5-.5 15.5-.5 17.5-.5 17.5-1 16.5-1 16.5-1 21-1 21 .5 23.5.5 23.5 1 8.5 1 8.5-.5 8.5-.5 8.5-.5 8-.5 8 2 14 2 14 5.5-1 5.5-1 1 7 1 7v12.5 12.5l.5 13.5.5 13.5" style="fill:#956e60;stroke:#956e60"/><path d="m719 327l1 1v-3-3-2.5-2.5-2-2-2.5-2.5-2-2-.5-.5h-1-1l-1.5-.5-1.5-.5h-2-2l-2-.5-2-.5h-2-2-2.5-2.5l-1.5.5-1.5.5-2-.5-2-.5h-2-2-2-2l1.5 1 1.5 1h1 1v1 1 1 1 1.5 1.5l15.5 8.5 15.5 8.5" style="fill:#78878b;stroke:#78878b"/><path d="m526 325l1-1v-1-1-1-1h1.5 1.5 1 1l.5-.5.5-.5.5.5.5.5 1 .5 1 .5.5.5.5.5.5.5.5.5.5.5.5.5.5-1 .5-1 .5-1.5.5-1.5h-3-3l-.5-2-.5-2h-1-1v-.5-.5-2-2l.5-1 .5-1 .5-1 .5-1-2-1.5-2-1.5-.5 1.5-.5 1.5-.5 1-.5 1v1 1l-.5 1.5-.5 1.5-1 .5-1 .5-.5 1.5-.5 1.5 2-.5 2-.5v1.5 1.5l-1.5.5-1.5.5.5 2.5.5 2.5" style="fill:#d68c84;stroke:#d68c84"/><path d="m197 321l1 1-.5-3-.5-3-.5-1.5-.5-1.5-.5-1.5-.5-1.5-1-1.5-1-1.5v-1-1l-.5-2-.5-2v-2-2-1.5-1.5l.5-2 .5-2-1.5.5-1.5.5v2 2 2.5 2.5l.5 1.5.5 1.5.5 2 .5 2 .5 1.5.5 1.5.5 2 .5 2 .5 1.5.5 1.5 1 2 1 2" style="fill:#b8b7aa;stroke:#b8b7aa"/><path d="m191 320l-4-36 7-10 7-10 11.5-5 11.5-5 15-1.5 15-1.5 11 2 11 2 2.5.5 2.5.5 1.5.5 1.5.5 1.5 1 1.5 1 1.5.5 1.5.5 1.5.5 1.5.5-9.5-5.5-9.5-5.5-16-2-16-2-15.5 2-15.5 2-13.5 4.5-13.5 4.5-11 13.5-11 13.5 1.5.5 1.5.5.5.5.5.5 2 .5 2 .5 10.5 15.5 10.5 15.5" style="fill:#141613;stroke:#141613"/><path d="m485 316l15-34-1 1-1 1-.5 1-.5 1-.5.5-.5.5-.5.5-.5.5h-1-1l1.5-14.5 1.5-14.5-3-4.5-3-4.5-4.5 4.5-4.5 4.5 4 15.5 4 15.5-2 13-2 13" style="fill:#345169;stroke:#345169"/><g style="fill:#674c48;stroke:#674c48"><path d="m255 314l4 1h1.5 1.5 1 1l1-1 1-1h1.5 1.5 1 1l1.5-.5 1.5-.5 1.5-.5 1.5-.5v-1.5-1.5-1-1l-.5-1-.5-1v-1-1l-.5-1.5-.5-1.5-12.5 2.5-12.5 2.5h2 2l1 1.5 1 1.5 1 1 1 1-1 2-1 2-.5.5-.5.5"/><path d="m284 314l1 1 5-7 5-7-5.5 6.5-5.5 6.5"/></g><path d="m536 314l3 1 1.5-.5 1.5-.5v-2.5-2.5-2-2l-1.5-1-1.5-1h-1-1l-1.5 1.5-1.5 1.5-.5 1-.5 1-.5 1-.5 1 2 2 2 2" style="fill:#956e60;stroke:#956e60"/><path d="m251 313l3 1 1-.5 1-.5 1-2 1-2-1-1-1-1-1-1.5-1-1.5h-2-2l-.5 1-.5 1h-1-1l-.5-.5-.5-.5-.5-1.5-.5-1.5h-2-2l-1 1-1 1-.5 1-.5 1 .5.5.5.5.5 1.5.5 1.5 1 .5 1 .5h1 1l1.5.5 1.5.5 1 .5 1 .5h1 1" style="fill:#b8b7aa;stroke:#b8b7aa"/><path d="m425 305l3 1 .5-.5.5-.5.5-.5.5-.5 1-.5 1-.5.5-.5.5-.5v-1-1l.5-.5.5-.5v-.5-.5-1-1l-1.5.5-1.5.5.5 1 .5 1-.5.5-.5.5h-1-1-1-1l-1 .5-1 .5h-2-2-1-1l-1 1-1 1v.5.5h1 1l.5.5.5.5h1 1 1.5 1.5" style="fill:#956e60;stroke:#956e60"/><path d="m715 302l3 1h1 1v-2.5-2.5l-23.5 1-23.5 1 2 .5 2 .5h3 3 2 2 2 2l2 .5 2 .5 1.5-.5 1.5-.5h2.5 2.5 2 2l2 .5 2 .5h2 2" style="fill:#b8b7aa;stroke:#b8b7aa"/><path d="m419 301h2 2 2l1-.5 1-.5h1 1 1 1l.5-.5.5-.5-.5-1-.5-1h-1-1l-1 .5-1 .5h-2-2l-.5-.5-.5-.5-.5-1-.5-1-1-1-1-1h-1.5-1.5l.5 1.5.5 1.5 1 1.5 1 1.5v1 1" style="fill:#78878b;stroke:#78878b"/><path d="m277 300l3 1h1 1l-.5-1.5-.5-1.5v-.5-.5l7-4 7-4 .5 1.5.5 1.5v2 2l.5 1 .5 1 .5.5.5.5.5.5.5.5h1 1l1-.5 1-.5v-1-1-1-1-1-1l.5-1.5.5-1.5v-.5-.5-1.5-1.5-2-2-1-1l-.5-1.5-.5-1.5v1.5 1.5l-.5 2-.5 2-.5 1.5-.5 1.5h-1-1l-7.5-6.5-7.5-6.5 3.5-5 3.5-5-1.5-1-1.5-1h-1-1l-.5-.5-.5-.5h-1-1l-1-.5-1-.5h-1-1-1-1v1 1 .5.5 2.5 2.5 3 3 2 2l-.5 1.5-.5 1.5-.5 2.5-.5 2.5.5 1 .5 1-.5 2-.5 2v2 2 1.5 1.5l1 .5 1 .5" style="fill:#b8b7aa;stroke:#b8b7aa"/><g style="fill:#345169;stroke:#345169"><path d="m104 299v1h.5.5l1-24.5 1-24.5.5-16 .5-16h-.5-.5l-1 23-1 23-.5 17-.5 17"/><path d="m413 299l3 1 1.5-.5 1.5-.5-1-1.5-1-1.5-.5-1.5-.5-1.5h1.5 1.5l1 1 1 1 .5 1 .5 1 .5.5.5.5h2 2l1-.5 1-.5 1.5-1.5 1.5-1.5h1 1l1-1.5 1-1.5.5-1.5.5-1.5-.5-1.5-.5-1.5-1 1.5-1 1.5-.5 1.5-.5 1.5h-1-1l-1.5-1-1.5-1h-1-1l-.5-1-.5-1h-2-2l-2-.5-2-.5-1.5-.5-1.5-.5-2 .5-2 .5-1.5-.5-1.5-.5-1-.5-1-.5v2 2 1 1l.5 2 .5 2 1 1 1 1 1.5 1 1.5 1 1 .5 1 .5"/></g><g style="fill:#78878b;stroke:#78878b"><path d="m281 297v1l.5-1 .5-1v-1-1-1-1l.5-.5.5-.5 1-.5 1-.5h1 1 1 1l.5.5.5.5 1-.5 1-.5 1.5-.5 1.5-.5-7 4-7 4"/><path d="m431 291h2l.5-1.5.5-1.5 1-1.5 1-1.5 1.5-.5 1.5-.5-.5-2-.5-2 1-1 1-1 1-1.5 1-1.5.5-1.5.5-1.5 1.5-1.5 1.5-1.5v-.5-.5l-.5-1-.5-1-.5-1-.5-1-.5-.5-.5-.5v-1.5-1.5-2-2l-.5-.5-.5-.5h-1.5-1.5l-1.5-.5-1.5-.5h-1-1l-.5-1-.5-1 1.5-.5 1.5-.5.5-.5.5-.5h1 1l1.5-.5 1.5-.5 1.5-1 1.5-1h-2-2l-2-.5-2-.5h-2-2-2-2l-2 .5-2 .5h-2-2l-2 .5-2 .5 1 1 1 1 .5 2 .5 2-.5 1.5-.5 1.5-1.5-.5-1.5-.5h-2-2-2-2l-.5 1-.5 1 1 1 1 1v2.5 2.5l.5-1 .5-1 .5-1 .5-1 1-1.5 1-1.5 1.5.5 1.5.5h2.5 2.5l.5-.5.5-.5 9.5 6 9.5 6-15 6-15 6-.5-1.5-.5-1.5v-2.5-2.5-2-2l-.5-2-.5-2v3 3 1.5 1.5 1 1 2 2 1.5 1.5l.5.5.5.5h2 2l1.5.5 1.5.5 2 .5 2 .5h2 2l.5 1 .5 1h1 1l1.5 1 1.5 1"/><path d="m304 289v1h.5.5l.5-1 .5-1v-2-2l-.5-1.5-.5-1.5.5-2 .5-2-.5-1.5-.5-1.5v-1-1l-.5-1-.5-1-1-1-1-1-1.5-.5-1.5-.5v-1-1h-1-1l-.5-1-.5-1-1.5-1-1.5-1-1.5-.5-1.5-.5-1.5-.5-1.5-.5-1.5-1-1.5-1-1.5-.5-1.5-.5-2.5-.5-2.5-.5.5 1 .5 1h-1.5-1.5l.5 2.5.5 2.5.5 2 .5 2 .5 1 .5 1v-2.5-2.5-.5-.5-1-1h1 1 1 1l1 .5 1 .5h1 1l.5.5.5.5h1 1l1.5 1 1.5 1v.5.5l1 .5 1 .5 1 .5 1 .5 1 1 1 1 .5.5.5.5.5 1 .5 1 1 1 1 1 .5 1.5.5 1.5h.5.5l.5 1.5.5 1.5v1 1 2 2 1.5 1.5"/></g><path d="m656 289l-3-10h-6-6l7.5 5 7.5 5" style="fill:#fcffeb;stroke:#fcffeb"/><path d="m267 288l3 1 1-1 1-1 1.5-.5 1.5-.5.5-2.5.5-2.5-11-3.5-11-3.5 6.5 7 6.5 7" style="fill:#674c48;stroke:#674c48"/><path d="m493 288h2l.5-.5.5-.5.5-.5.5-.5.5-1 .5-1 1-1 1-1 1-1 1-1 1-.5 1-.5v-1-1l1-.5 1-.5 1-1 1-1h1 1l.5-.5.5-.5.5-.5.5-.5h1 1v-1-1l1-.5 1-.5v-1-1-1-1l.5-.5.5-.5v-1.5-1.5-1-1l.5-1 .5-1-11-4-11-4-19.5-4.5-19.5-4.5 2 1 2 1 1.5.5 1.5.5 2 .5 2 .5v1 1h-2.5-2.5l-1.5.5-1.5.5 2 .5 2 .5 1 1 1 1 1 .5 1 .5 1 1 1 1 .5.5.5.5.5.5.5.5 1 .5 1 .5.5.5.5.5h1 1l.5.5.5.5 1.5.5 1.5.5 4.5-4.5 4.5-4.5 3 4.5 3 4.5-1.5 14.5-1.5 14.5" style="fill:#141613;stroke:#141613"/><path d="m299 287h2l.5-1.5.5-1.5.5-2 .5-2v-1.5-1.5h-.5-.5l-.5 2-.5 2h-1-1l-2 .5-2 .5-1.5-.5-1.5-.5-1-1-1-1-1-1.5-1-1.5v-2-2l-.5-2-.5-2 .5-1.5.5-1.5h1.5 1.5v-.5-.5l-3.5 5-3.5 5 7.5 6.5 7.5 6.5" style="fill:#c8d8d7;stroke:#c8d8d7"/><path d="m158 285l4 1 11-13.5 11-13.5 13.5-4.5 13.5-4.5 15.5-2 15.5-2 16 2 16 2 9.5 5.5 9.5 5.5 1.5 1 1.5 1 .5 1 .5 1h1 1v1 1l1.5.5 1.5.5 1 1 1 1 1 .5 1 .5 1.5-1 1.5-1h1.5 1.5 1.5 1.5l13 .5 13 .5 12-3.5 12-3.5 10-7.5 10-7.5 12.5-3.5 12.5-3.5 23.5-.5 23.5-.5 19.5 4.5 19.5 4.5 11 4 11 4 .5 1.5.5 1.5-.5 1.5-.5 1.5 1 2 1 2 5-12 5-12-1.5-13-1.5-13 5-22 5-22-1-1-1-1-1 .5-1 .5-1 1-1 1h-1-1l.5-1 .5-1 .5-1 .5-1 .5-2 .5-2h-1-1l-2-.5-2-.5-1-1-1-1 .5-3 .5-3-.5-.5-.5-.5-4-12-4-12 2-4.5 2-4.5 1-1 1-1 .5-.5.5-.5v-2-2-.5-.5l-15-10-15-10-.5-1-.5-1-5-9-5-9-11.5-2-11.5-2-8.5-5-8.5-5-10-8-10-8-7.5-6.5-7.5-6.5-11.5-3-11.5-3-12-3.5-12-3.5-9.5-4.5-9.5-4.5-9 5.5-9 5.5 5-8.5 5-8.5-11.5 4.5-11.5 4.5-12 2.5-12 2.5-10 7.5-10 7.5-8.5 9.5-8.5 9.5-7.5 10-7.5 10-12 5-12 5-1.5 11.5-1.5 11.5-2 7.5-2 7.5-12.5-5-12.5-5-8 9-8 9 4 7.5 4 7.5 7 7.5 7 7.5-10 4-10 4v6.5 6.5l-2 5.5-2 5.5 2.5 13.5 2.5 13.5-2 7-2 7-4 5.5-4 5.5 4.5 10 4.5 10-2 11.5-2 11.5" style="fill:#674c48;stroke:#674c48"/><path d="m579 283h2l.5-.5.5-.5h2.5 2.5.5.5l1-1 1-1h-15.5-15.5l-5.5 1-5.5 1 15.5.5 15.5.5" style="fill:#78878b;stroke:#78878b"/><path d="m589 283l19-2-9-.5-9-.5-1 1-1 1 .5.5.5.5" style="fill:#78a7c9;stroke:#78a7c9"/><path d="m411 282l30-12-9.5-6-9.5-6h1.5 1.5l1-.5 1-.5h2 2 1 1 1.5 1.5l1 .5 1 .5.5 1 .5 1 .5 1.5.5 1.5-.5 1.5-.5 1.5-1 2.5-1 2.5-1 1.5-1 1.5v1 1l-.5.5-.5.5h-1-1-1.5-1.5l-.5-.5-.5-.5h-1-1l-1-.5-1-.5-1.5-.5-1.5-.5v-1-1l-.5-1-.5-1-.5-1.5-.5-1.5.5-.5.5-.5v-1.5-1.5l.5-2 .5-2h-2.5-2.5l.5 2 .5 2v1 1 1 1l-.5.5-.5.5-.5 1-.5 1-.5.5-.5.5-.5.5-.5.5-.5.5-.5.5v-1.5-1.5l-.5-.5-.5-.5v-1-1-1-1-2-2l-.5 1-.5 1-.5 1-.5 1v.5.5l.5 2 .5 2v2 2 2.5 2.5l.5 1.5.5 1.5" style="fill:#b8b7aa;stroke:#b8b7aa"/><path d="m292 281l3 1 2-.5 2-.5h1 1l.5-2 .5-2-.5-1.5-.5-1.5-1-1-1-1-.5-1-.5-1-.5-.5-.5-.5-1-1-1-1-1-.5-1-.5-1-.5-1-.5h-1.5-1.5l-.5 1.5-.5 1.5.5 2 .5 2v2 2l1 1.5 1 1.5 1 1 1 1" style="fill:#fcffeb;stroke:#fcffeb"/><g style="fill:#345169;stroke:#345169"><path d="m311 281l2 1 1-.5 1-.5v-1-1l-.5-1.5-.5-1.5-.5-1-.5-1-.5-.5-.5-.5v-1-1l1 1 1 1 .5-2 .5-2h-1.5-1.5-1.5-1.5l-1.5 1-1.5 1 .5 1 .5 1 1 1.5 1 1.5.5 1.5.5 1.5.5 1 .5 1"/><path d="m514 281l3 1 1.5-1 1.5-1h2 2v-.5-.5l-1.5-.5-1.5-.5-1.5-.5-1.5-.5-.5-.5-.5-.5v-1.5-1.5-1-1l.5-.5.5-.5 1-1 1-1v-.5-.5l-1-2-1-2 .5-1.5.5-1.5-.5-1.5-.5-1.5-.5 1-.5 1v1 1 1.5 1.5l-.5.5-.5.5v1 1 1 1l-1 .5-1 .5v1 1h-1-1l-.5.5-.5.5-.5.5-.5.5h-1-1l-1 1-1 1 1 .5 1 .5 1-.5 1-.5.5.5.5.5.5.5.5.5.5.5.5.5.5.5.5.5v.5.5"/></g><g style="fill:#c8d8d7;stroke:#c8d8d7"><path d="m521 278l3 1-.5-1-.5-1-1-.5-1-.5 1-.5 1-.5-1.5-.5-1.5-.5.5-1 .5-1 1.5-.5 1.5-.5h1 1 1.5 1.5l1 1 1 1 .5.5.5.5-.5.5-.5.5-.5 1-.5 1 1.5-.5 1.5-.5.5-.5.5-.5v-1-1l-.5-1-.5-1-.5-.5-.5-.5h-1-1l-.5-.5-.5-.5-1 .5-1 .5h-1-1-1-1l-1-.5-1-.5-.5-.5-.5-.5-1 1-1 1-.5.5-.5.5v1 1 1.5 1.5l.5.5.5.5 1.5.5 1.5.5"/><path d="m432 277h2l.5-.5.5-.5v-1-1l1-1.5 1-1.5-1 .5-1 .5-1.5.5-1.5.5-1.5-.5-1.5-.5-2.5-.5-2.5-.5-1.5-1-1.5-1v-2-2l.5-2 .5-2 1-1 1-1 2-.5 2-.5h2 2 3 3l-1-.5-1-.5h-1.5-1.5-1-1-2-2l-1 .5-1 .5h-1.5-1.5l-.5.5-.5.5-.5 2-.5 2v1.5 1.5l-.5.5-.5.5.5 1.5.5 1.5.5 1 .5 1v1 1l1.5.5 1.5.5 1 .5 1 .5h1 1l.5.5.5.5h1.5 1.5"/></g><path d="m528 276l2 1 .5-1 .5-1 .5-.5.5-.5-.5-.5-.5-.5-1-1-1-1h-1.5-1.5-1-1l-1.5.5-1.5.5-.5 1-.5 1 1.5.5 1.5.5 2.5.5 2.5.5" style="fill:#fcffeb;stroke:#fcffeb"/><path d="m412 273l1-1 .5-.5.5-.5.5-.5.5-.5.5-1 .5-1 .5-.5.5-.5v-1-1-1-1l-.5-2-.5-2-1.5-.5-1.5-.5-1 1.5-1 1.5v2 2 1 1 1 1l.5.5.5.5v1.5 1.5" style="fill:#c8d8d7;stroke:#c8d8d7"/><path d="m429 272l3 1 1.5-.5 1.5-.5 1-.5 1-.5 1-2.5 1-2.5.5-1.5.5-1.5-.5-1.5-.5-1.5-.5-1-.5-1h-3-3-2-2l-2 .5-2 .5-1 1-1 1-.5 2-.5 2v2 2l1.5 1 1.5 1 2.5.5 2.5.5" style="fill:#fcffeb;stroke:#fcffeb"/><path d="m446 268v1l.5-1 .5-1v-1-1-1.5-1.5l.5-1.5.5-1.5-1-1.5-1-1.5-.5-1.5-.5-1.5-1-1-1-1-.5-1-.5-1-1.5.5-1.5.5h-1-1l-.5.5-.5.5-1.5.5-1.5.5.5 1 .5 1h1 1l1.5.5 1.5.5h1.5 1.5l.5.5.5.5v2 2 1.5 1.5l.5.5.5.5.5 1 .5 1 .5 1 .5 1" style="fill:#345169;stroke:#345169"/><path d="m520 268l1 1 11.5-17 11.5-17-7-4-7-4 2-12.5 2-12.5 2-11.5 2-11.5-4-10.5-4-10.5-4.5-12.5-4.5-12.5 1.5-13.5 1.5-13.5v2 2 1 1 1 1l-.5 1-.5 1v2 2l-.5.5-.5.5-1 1-1 1 2.5 17 2.5 17 .5 1 .5 1 1 1 1 1 1.5.5 1.5.5 1.5 1 1.5 1v1 1l1 1.5 1 1.5 1 1 1 1-.5 1-.5 1-5 22-5 22 1.5 13 1.5 13-5 12-5 12v.5.5" style="fill:#78878b;stroke:#78878b"/><path d="m311 266l31-2 7.5-6.5 7.5-6.5 8-4.5 8-4.5 10-7 10-7 14 .5 14 .5 11-2 11-2 .5-1 .5-1 .5-.5.5-.5 1-.5 1-.5 1.5.5 1.5.5h1 1l1 .5 1 .5 1.5.5 1.5.5.5.5.5.5.5.5.5.5v2 2l.5-5.5.5-5.5-7.5-7.5-7.5-7.5-8.5-3-8.5-3-6.5-5-6.5-5-11.5-4.5-11.5-4.5 2-4.5 2-4.5 8.5-1 8.5-1 5-6.5 5-6.5v8 8l5-3.5 5-3.5 4-1 4-1-3-9.5-3-9.5 3.5-7 3.5-7-7.5-.5-7.5-.5-6.5-10.5-6.5-10.5-12.5-2.5-12.5-2.5-16-1.5-16-1.5-12 3-12 3-11-.5-11-.5-15.5.5-15.5.5-13.5 4-13.5 4-13 4-13 4-8.5 9-8.5 9-6 12-6 12-5 12.5-5 12.5-3 14-3 14-1.5 13-1.5 13-4 4-4 4 9 3 9 3 13-4.5 13-4.5 15-1 15-1 14.5 1 14.5 1 9.5 3.5 9.5 3.5 9 6 9 6" style="fill:#956e60;stroke:#956e60"/><path d="m393 263l3 1 1-1 1-1 1.5-1 1.5-1 1-1 1-1h2 2l.5-1 .5-1h-1-1-1.5-1.5-1-1l-.5-.5-.5-.5-.5.5-.5.5h-1-1l-1 .5-1 .5-.5.5-.5.5-.5.5-.5.5-.5.5-.5.5-1 .5-1 .5h-1-1l.5.5.5.5.5.5.5.5h1.5 1.5" style="fill:#141613;stroke:#141613"/><path d="m80 256l12-32-.5-10-.5-10 2.5-10.5 2.5-10.5-.5-6.5-.5-6.5.5-15.5.5-15.5v-15-15-16.5-16.5l.5-15.5.5-15.5 1.5-22.5 1.5-22.5h-18.5-18.5-17.5-17.5-14-14v4 4 17.5 17.5 18 18 17.5 17.5 18 18 18 18 17.5 17.5 9.5 9.5l14.5 3 14.5 3 7.5 3.5 7.5 3.5 7.5-2 7.5-2 10.5 3.5 10.5 3.5" style="fill:#956e60;stroke:#956e60"/><path d="m323 256l23-10-5-10-5-10 7 2.5 7 2.5 7-2 7-2 3.5-7 3.5-7-8-7-8-7-10.5 2-10.5 2-12.5 1.5-12.5 1.5-10.5 2-10.5 2-10-3-10-3-8.5 5-8.5 5-7 8-7 8 7.5 2 7.5 2 13-1 13-1 10 2.5 10 2.5 10.5 4.5 10.5 4.5 2 5 2 5" style="fill:#d68c84;stroke:#d68c84"/><path d="m416 256l3 1 .5-1.5.5-1.5-.5-2-.5-2-1-1-1-1 2-.5 2-.5h2 2l2-.5 2-.5h2 2 2 2l2 .5 2 .5h2 2l2.5.5 2.5.5h1 1 2.5 2.5 1 1l1 1 1 1 2 .5 2 .5h1.5 1.5l-1-.5-1-.5-1-1-1-1-2-.5-2-.5 1.5-.5 1.5-.5h2.5 2.5v-1-1l-2-.5-2-.5-1.5-.5-1.5-.5-2-1-2-1-23.5.5-23.5.5v1.5 1.5.5.5l-1 1-1 1-1.5.5-1.5.5-1.5.5-1.5.5-1 .5-1 .5 1 .5 1 .5 1.5-.5 1.5-.5h.5.5l.5-.5.5-.5 1.5-.5 1.5-.5h.5.5 1 1 1 1l.5 1 .5 1v1 1l.5-.5.5-.5h1 1l-.5 1-.5 1-.5.5-.5.5-.5.5-.5.5h-1-1l-1 .5-1 .5h2 2" style="fill:#345169;stroke:#345169"/><path d="m183 254l18-15 5.5-12.5 5.5-12.5 1-8.5 1-8.5 7-7 7-7-2-6.5-2-6.5-7 1-7 1 2 7.5 2 7.5-8-4-8-4-4.5 10-4.5 10-2.5 15.5-2.5 15.5-.5 12-.5 12" style="fill:#d68c84;stroke:#d68c84"/><path d="m97 250h2v-2-2l.5-1 .5-1v-1-1-1.5-1.5l-1 1-1 1h-1-1v-2.5-2.5-1-1-1-1-1-1-1-1-1-1l.5-1 .5-1 .5.5.5.5 1 1 1 1 .5-3.5.5-3.5-.5-10-.5-10v-10-10l2-14.5 2-14.5.5-15.5.5-15.5.5-16.5.5-16.5 1-14.5 1-14.5v-14-14l1-15 1-15h-2-2-2-2-1-1l-1.5 22.5-1.5 22.5-.5 15.5-.5 15.5v16.5 16.5 15 15l-.5 15.5-.5 15.5.5 6.5.5 6.5v16 16l-.5 16.5-.5 16.5 1 1 1 1" style="fill:#674c48;stroke:#674c48"/><g style="fill:#78878b;stroke:#78878b"><path d="m719 249l1 1v-3-3-2.5-2.5-2-2-1-1l-.5-1-.5-1v-2-2l-.5-1.5-.5-1.5v2 2 2.5 2.5 2 2h-1.5-1.5v1 1l.5 2 .5 2 1 2 1 2 .5 1 .5 1"/><path d="m573 247l9-6-9.5 2.5-9.5 2.5 5 .5 5 .5"/></g><path d="m717 246l1 1-1-2-1-2-.5-2-.5-2v-1-1h1.5 1.5v-2-2-2.5-2.5-2-2l.5 1.5.5 1.5v2 2l.5 1 .5 1v-19-19-17.5-17.5-12.5-12.5l-1 .5-1 .5v-3-3-1-1l-2-.5-2-.5-2 20-2 20-1 5.5-1 5.5 3 10 3 10-1.5 13-1.5 13 3 11 3 11" style="fill:#d68c84;stroke:#d68c84"/><path d="m96 241h2l1-1 1-1v-1.5-1.5-1-1-2-2-1.5-1.5l-1-1-1-1-.5-.5-.5-.5-.5 1-.5 1v1 1 1 1 1 1 1 1 1 1 2.5 2.5" style="fill:#345169;stroke:#345169"/><path d="m476 238l3 1 .5-1.5.5-1.5 2-.5 2-.5-.5-1.5-.5-1.5 1-1.5 1-1.5 1.5.5 1.5.5 2 .5 2 .5v-.5-.5l.5-1 .5-1 .5-1 .5-1-.5-1-.5-1 1-1 1-1 .5-2.5.5-2.5-1.5-12-1.5-12-4-9-4-9-4-9.5-4-9.5-5-10-5-10-5-6.5-5-6.5-11-7-11-7-10.5-1-10.5-1 6.5 10.5 6.5 10.5 7.5.5 7.5.5-3.5 7-3.5 7 3 9.5 3 9.5-4 1-4 1-5 3.5-5 3.5v-8-8l-5 6.5-5 6.5-8.5 1-8.5 1-2 4.5-2 4.5 11.5 4.5 11.5 4.5 6.5 5 6.5 5 8.5 3 8.5 3 7.5 7.5 7.5 7.5-.5 5.5-.5 5.5 2.5.5 2.5.5 1.5 1 1.5 1 1.5.5 1.5.5 1 1 1 1 1.5 1 1.5 1h.5.5" style="fill:#96373c;stroke:#96373c"/><path d="m521 238l2-21 .5-14.5.5-14.5-2.5-13-2.5-13-6.5-11.5-6.5-11.5-1-14.5-1-14.5-8-10-8-10-11-5.5-11-5.5-11-5-11-5-11-6.5-11-6.5-11-7-11-7-13.5-4-13.5-4-12-1-12-1-5-4.5-5-4.5-11 1-11 1-12-4.5-12-4.5-9 9-9 9-8 10-8 10-6.5 10-6.5 10-7.5 10.5-7.5 10.5-8 5.5-8 5.5 8 1 8 1 13.5-3 13.5-3 12-5 12-5 11.5-4 11.5-4 13 2 13 2 15.5-1 15.5-1 14.5 1.5 14.5 1.5 13 1.5 13 1.5 14 4 14 4 10.5 6 10.5 6 7 10 7 10 6 10.5 6 10.5 5 13 5 13 4.5 13 4.5 13 3 13 3 13 2 3.5 2 3.5" style="fill:#141613;stroke:#141613"/><path d="m492 230v1h1.5 1.5l1.5-.5 1.5-.5-.5-2-.5-2 1.5-.5 1.5-.5-.5-2-.5-2-.5-1.5-.5-1.5-1-.5-1-.5-.5 2.5-.5 2.5-1 1-1 1 .5 1 .5 1-.5 1-.5 1-.5 1-.5 1" style="fill:#956e60;stroke:#956e60"/><path d="m458 229l1 1v-2-2l-.5-.5-.5-.5-.5-.5-.5-.5-1.5-.5-1.5-.5-1-.5-1-.5h-1-1l-1.5-.5-1.5-.5-1 .5-1 .5-.5.5-.5.5-.5 1-.5 1h2 2l1.5-.5 1.5-.5 1.5 1 1.5 1 1.5.5 1.5.5 1 1 1 1" style="fill:#96373c;stroke:#96373c"/><path d="m107 218v1h.5.5l1-23.5 1-23.5 1-15.5 1-15.5 1-21 1-21 1-16.5 1-16.5.5-17.5.5-17.5.5-15.5.5-15.5h-1-1l-1 26-1 26-1 17-1 17-.5 17-.5 17-.5 15.5-.5 15.5-1 15.5-1 15.5-.5 18-.5 18" style="fill:#674c48;stroke:#674c48"/><path d="m177 185l11-14-6 1-6 1 .5 6 .5 6" style="fill:#141613;stroke:#141613"/><g style="fill:#956e60;stroke:#956e60"><path d="m529 174h2l1-1 1-1 1-.5 1-.5 1 1 1 1 .5-1 .5-1-1-1-1-1-1-1.5-1-1.5v-1-1l-1.5-1-1.5-1-1.5-.5-1.5-.5-1-1-1-1-.5-1-.5-1-.5 3-.5 3 1 1 1 1 2 .5 2 .5h1 1l-.5 2-.5 2-.5 1-.5 1-.5 1-.5 1"/><path d="m524 156l1 1-2.5-17-2.5-17-2 4.5-2 4.5 4 12 4 12"/><path d="m179 141l11-12-3.5-4.5-3.5-4.5-4 8.5-4 8.5 2 2 2 2"/></g><path d="m718 136l2-1v-1.5-1.5-2.5-2.5-1-1l-2-.5-2-.5.5-15.5.5-15.5 1.5-15 1.5-15v-3-3-2.5-2.5-2-2-2-2-2.5-2.5-2-2-2.5-2.5-2-2-1-1l-2.5 13-2.5 13-1 9.5-1 9.5-1.5 16-1.5 16 2 13 2 13 2 .5 2 .5v1 1 3 3" style="fill:#78878b;stroke:#78878b"/><path d="m716 124l4 1v-17-17-14-14l-1.5 15-1.5 15-.5 15.5-.5 15.5" style="fill:#b8b7aa;stroke:#b8b7aa"/><g style="fill:#956e60;stroke:#956e60"><path d="m512 119l3 1 1-1 1-1v-2.5-2.5l-.5-1.5-.5-1.5-1-1.5-1-1.5-1 1-1 1v1.5 1.5l.5 1.5.5 1.5-.5 1.5-.5 1.5v.5.5"/><path d="m523 115v1l.5-1 .5-1v-1-1-1-1-2-2l-.5-.5-.5-.5-.5-1-.5-1-.5-.5-.5-.5-1-.5-1-.5v-1-1h-1-1l-1-.5-1-.5-1 1-1 1-.5-.5-.5-.5h-1-1v-1-1l-.5-1-.5-1v-1-1l-.5-.5-.5-.5.5-.5.5-.5-1-.5-1-.5v-1.5-1.5l-1-.5-1-.5-1-1-1-1-1-.5-1-.5.5-.5.5-.5-.5-1-.5-1-1-.5-1-.5-.5 1.5-.5 1.5 1 1 1 1-.5.5-.5.5 1 .5 1 .5.5.5.5.5v1 1l.5 1 .5 1-.5.5-.5.5-.5.5-.5.5-1 .5-1 .5-1 1-1 1h-1-1l-1-.5-1-.5 15 10 15 10"/></g><g style="fill:#78878b;stroke:#78878b"><path d="m523 105l1 1v-1.5-1.5l-.5-1-.5-1-.5-.5-.5-.5-1-1-1-1-1-.5-1-.5h-1-1l-1-1-1-1-1.5-.5-1.5-.5-.5-2-.5-2-.5-1-.5-1-1-.5-1-.5v1.5 1.5l1 .5 1 .5-.5.5-.5.5.5.5.5.5v1 1l.5 1 .5 1v1 1h1 1l.5.5.5.5 1-1 1-1 1 .5 1 .5h1 1v1 1l1 .5 1 .5.5.5.5.5.5 1 .5 1"/><path d="m495 96h2l1-1 1-1 1-.5 1-.5.5-.5.5-.5.5-.5.5-.5-.5-1-.5-1v-1-1l-.5-.5-.5-.5-1-.5-1-.5.5-.5.5-.5-1-1-1-1 .5-1.5.5-1.5-1-1.5-1-1.5-1-.5-1-.5-2 1-2 1-1.5-.5-1.5-.5-1 .5-1 .5v1 1l1.5 1 1.5 1 .5 1.5.5 1.5v1 1l.5 2 .5 2 .5 1.5.5 1.5.5 1 .5 1 1 .5 1 .5"/><path d="m464 71l3 1h2 2 1.5 1.5 1 1l1-.5 1-.5-2.5-.5-2.5-.5h-1-1-1.5-1.5l-1.5-.5-1.5-.5-.5-1.5-.5-1.5v-2.5-2.5l-.5-1.5-.5-1.5-1-1-1-1-1.5 1-1.5 1v.5.5l-.5.5-.5.5v1 1l.5.5.5.5.5 1 .5 1v1 1l.5.5.5.5.5.5.5.5 1.5 1 1.5 1"/><path d="m225 67l2-1 .5-1 .5-1 .5.5.5.5.5 1.5.5 1.5 1-1 1-1 1-1.5 1-1.5 1.5-.5 1.5-.5.5-1.5.5-1.5.5-1 .5-1-1.5 1-1.5 1h-1-1l-1 .5-1 .5h-1.5-1.5v-2-2l-.5-1-.5-1v1.5 1.5l-.5 1.5-.5 1.5-1 .5-1 .5-.5.5-.5.5-.5 1.5-.5 1.5 1 1 1 1"/><path d="m182 65l3 1 1-1 1-1-.5-2-.5-2-.5 1.5-.5 1.5-1.5-1-1.5-1-.5-.5-.5-.5 1-.5 1-.5h1 1l.5-1.5.5-1.5h1 1l-1-1-1-1-1-.5-1-.5-.5-.5-.5-.5.5-1 .5-1 .5-.5.5-.5.5-.5.5-.5-.5-.5-.5-.5-.5.5-.5.5h-1.5-1.5-1-1l-1-.5-1-.5v2 2 1 1 1 1 1 1l-.5.5-.5.5.5.5.5.5.5 1 .5 1v1 1h1 1l1 1 1 1"/></g><path d="m229 60h3l1-.5 1-.5h1 1l1.5-1 1.5-1 10.5-13.5 10.5-13.5v-.5-.5l1-.5 1-.5.5-1.5.5-1.5 1.5.5 1.5.5.5-2 .5-2-8.5 7-8.5 7-14 4-14 4-3.5-.5-3.5-.5-10-5-10-5-4.5-1-4.5-1-2.5-7.5-2.5-7.5-10-8-10-8h-2-2-2.5-2.5-2-2-.5-.5l3 7.5 3 7.5 5 6 5 6 7 10 7 10 1 .5 1 .5h1 1 1.5 1.5l.5-.5.5-.5.5.5.5.5-.5.5-.5.5-.5.5-.5.5-.5 1-.5 1 .5.5.5.5 1 .5 1 .5 1-1 1-1 .5-.5.5-.5 1-1 1-1 .5-1 .5-1 .5-.5.5-.5.5-.5.5-.5h1 1l1-1 1-1h1.5 1.5l.5-.5.5-.5 1.5.5 1.5.5h1.5 1.5 1 1l.5 1 .5 1h.5.5 3 3l1.5.5 1.5.5 1.5 1 1.5 1 .5 1.5.5 1.5.5 1 .5 1 1 .5 1 .5.5 1 .5 1v2 2" style="fill:#d68c84;stroke:#d68c84"/><path d="m196 58h2l1-1 1-1 1-1.5 1-1.5h1 1l2 .5 2 .5.5-.5.5-.5 1-.5 1-.5.5-.5.5-.5v-1.5-1.5-1.5-1.5h-.5-.5l-1 1-1 1-.5.5-.5.5-1.5.5-1.5.5h-1.5-1.5l-.5.5-.5.5h-1-1l-.5.5-.5.5-.5 1-.5 1v1 1l-.5 1.5-.5 1.5" style="fill:#78878b;stroke:#78878b"/><path d="m700 54l3 1 1.5-.5 1.5-.5.5-1 .5-1-1-1-1-1-1.5-1-1.5-1-1.5-.5-1.5-.5-1.5 1-1.5 1-.5 1.5-.5 1.5 1 1 1 1h1.5 1.5" style="fill:#c8d8d7;stroke:#c8d8d7"/><g style="fill:#78878b;stroke:#78878b"><path d="m438 53l3 1 1-1 1-1 1 .5 1 .5.5.5.5.5 1.5-.5 1.5-.5-13.5-14-13.5-14-4.5-2-4.5-2 5.5 7 5.5 7 7 9 7 9"/><path d="m167 48l3 1-.5-1.5-.5-1.5 1-.5 1-.5.5.5.5.5 1 .5 1 .5h1.5 1.5l-7-10-7-10-5-6-5-6-3-7.5-3-7.5h-3.5-3.5-2-2-2.5-2.5-2-2-2-2l7 8.5 7 8.5 5 8.5 5 8.5 10 7 10 7"/></g><path d="m222 44l28-8 8.5-7 8.5-7-.5-.5-.5-.5-.5-1-.5-1 .5-.5.5-.5.5-.5.5-.5 1 .5 1 .5.5-.5.5-.5.5-.5.5-.5h1 1l1-.5 1-.5h1 1l.5.5.5.5h1 1l.5-1 .5-1 .5-1.5.5-1.5 1-1 1-1 1-.5 1-.5h2.5 2.5l2-.5 2-.5v-.5-.5l1-1.5 1-1.5-1.5-1.5-1.5-1.5h-17.5-17.5-18-18-17.5-17.5-13.5-13.5l10 8 10 8 2.5 7.5 2.5 7.5 4.5 1 4.5 1 10 5 10 5 3.5.5 3.5.5" style="fill:#b8b7aa;stroke:#b8b7aa"/><path d="m282 42l24-7-8.5-4.5-8.5-4.5-3.5 8-3.5 8" style="fill:#674c48;stroke:#674c48"/><g style="fill:#78878b;stroke:#78878b"><path d="m260 29v1l1.5-.5 1.5-.5 1-1 1-1h2 2l1.5-1 1.5-1 1-1 1-1 1.5-1 1.5-1 1.5-.5 1.5-.5.5-1 .5-1-2-.5-2-.5-.5-.5-.5-.5-1 .5-1 .5-1.5.5-1.5.5-.5.5-.5.5-1 .5-1 .5-.5 1-.5 1-.5 2-.5 2-1.5-.5-1.5-.5-.5 1.5-.5 1.5-1 .5-1 .5"/><path d="m405 27l4 1 1-1 1-1 .5-1.5.5-1.5-15.5-6.5-15.5-6.5h-1.5-1.5l-1 1.5-1 1.5 1 1 1 1 1.5.5 1.5.5.5 1 .5 1-1.5 1-1.5 1h2 2 1 1v-1.5-1.5l1-1 1-1 1 1 1 1 1 1.5 1 1.5 1 1 1 1 2 .5 2 .5 1.5.5 1.5.5 1.5 1 1.5 1 1 .5 1 .5"/></g><g style="fill:#d68c84;stroke:#d68c84"><path d="m266 21l1 1 .5-1 .5-1 1-.5 1-.5.5-.5.5-.5 1.5-.5 1.5-.5 1-.5 1-.5.5.5.5.5 2 .5 2 .5 1.5-2 1.5-2v-1-1-1.5-1.5l-1 1-1 1-.5 1.5-.5 1.5-.5 1-.5 1h-1-1l-.5-.5-.5-.5h-1-1l-1 .5-1 .5h-1-1l-.5.5-.5.5-.5.5-.5.5-1-.5-1-.5-.5.5-.5.5-.5.5-.5.5.5 1 .5 1"/><path d="m376 19l3 1 1.5-1 1.5-1-.5-1-.5-1-1.5-.5-1.5-.5-1-1-1-1 1-1.5 1-1.5h1.5 1.5l-2-.5-2-.5-2-.5-2-.5h-2-2-2.5-2.5l-1.5.5-1.5.5-.5 1-.5 1h1.5 1.5l1.5-.5 1.5-.5 2-.5 2-.5 1.5.5 1.5.5-1 1.5-1 1.5 1 2 1 2 1.5 1 1.5 1"/></g><g style="fill:#78878b;stroke:#78878b"><path d="m372 16l1 1-1-2-1-2 1-1.5 1-1.5-1.5-.5-1.5-.5-2 .5-2 .5-1.5.5-1.5.5h-1.5-1.5l-1 1-1 1-.5 1.5-.5 1.5 2-.5 2-.5h2 2l2 .5 2 .5h1.5 1.5"/><path d="m306 10l2-1h1 1l-.5 1-.5 1 1.5-.5 1.5-.5 1.5-1 1.5-1v-2-2l-.5-1-.5-1 1.5-.5 1.5-.5 1 .5 1 .5 1-1 1-1h-2.5-2.5-2-2l-1 1.5-1 1.5-1 1.5-1 1.5-1.5.5-1.5.5-1 1.5-1 1.5h1.5 1.5"/><path d="m295 6v1l1.5-.5 1.5-.5 1.5-.5 1.5-.5 1.5-1 1.5-1 1.5-.5 1.5-.5-1.5-1-1.5-1h-1.5-1.5-2.5-2.5-1-1l1.5 1.5 1.5 1.5-1 1.5-1 1.5"/></g></g></svg>