<svg xmlns="http://www.w3.org/2000/svg" viewBox="0 0 640 960"><path d="m0 0h640v960h-640z" style="fill:#bfbaaf"/><g style="stroke-linejoin:round;stroke-width:.7"><path d="m0 959v1h10.5 10.5 11 11 11 11 11 11 11.5 11.5 11 11 11 11 11 11 11 11 11.5 11.5 11 11 11 11 11 11 11 11 11.5 11.5 11 11 11 11 11 11 11 11 11.5 11.5 11 11 11 11 11 11 11 11 11.5 11.5 11 11 11 11 11 11 10 10v-1-1-11.5-11.5-11-11-11-11-11-11-7-7h-.5-.5l-10 .5-10 .5h-10-10-10-10-10-10-10-10-10-10-10-10-10-10-11-11-10-10-10-10-10-10-10-10-10-10-10-10-10-10-10-10-11-11-10-10-10-10-10-10-10-10-10-10-10-10-10-10-10-10-10-10-10-10-11-11-10-10l-16-.5-16-.5v-.5-.5h-.5-.5v11 11 11.5 11.5 11 11 11 11 8 8" style="fill:#221d13;stroke:#221d13"/><path d="m1 855l32 1h10 10 11 11 10 10 10 10 10 10 10 10 10 10 10 10 10 10 10 10 10 10 10 10 11 11 10 10 10 10 10 10 10 10 10 10 10 10 10 10 10 10 11 11 10 10 10 10 10 10 10 10 10 10 10 10 10 10l10-.5 10-.5-10-.5-10-.5h-10.5-10.5l-10.5.5-10.5.5-10.5-.5-10.5-.5-10.5.5-10.5.5-9.5-.5-9.5-.5h-10-10-10-10-10-10l-9.5.5-9.5.5h-10-10-11-11-10-10-10-10-10-10-10-10-10-10-10-10-10-10-10-10-10-10-10-10-11-11-10-10-10-10-10-10-10-10-10-10-10-10-10-10-16-16" style="fill:#353027;stroke:#353027"/><path d="m1 854v1h16 16 10 10 10 10 10 10 10 10 10 10 10 10 10 10 11 11 10 10 10 10 10 10 10 10 10 10 10 10 10 10 10 10 10 10 10 10 11 11 10 10l9.5-.5 9.5-.5h10 10 10 10 10 10l9.5.5 9.5.5 10.5-.5 10.5-.5 10.5.5 10.5.5 10.5-.5 10.5-.5h10.5 10.5l10 .5 10 .5v-.5-.5-11-11-10-10-10-10-10-10-10-10-10-10-10-10-10-10-10-10l-8-1-8-1 4.5 5.5 4.5 5.5-6.5-.5-6.5-.5-7.5 2.5-7.5 2.5 6 4 6 4-2.5.5-2.5.5-7 1-7 1-7 3-7 3-1.5 3.5-1.5 3.5 6.5 3.5 6.5 3.5h-4-4-9-9l-5.5 4.5-5.5 4.5 7 3 7 3-1.5 1.5-1.5 1.5-7 1-7 1-7.5 2.5-7.5 2.5-2 5-2 5 6.5 3.5 6.5 3.5.5 2.5.5 2.5-8-2-8-2-8.5 1.5-8.5 1.5-4 5-4 5 5.5 4.5 5.5 4.5 6.5 4.5 6.5 4.5 4.5 4.5 4.5 4.5 6 4 6 4-6-1-6-1-5-5-5-5-6.5-3.5-6.5-3.5-8-1-8-1-7 2-7 2 2.5 6.5 2.5 6.5-5 4-5 4-6.5 3.5-6.5 3.5-6.5 4.5-6.5 4.5-6.5 3.5-6.5 3.5-1 7-1 7-4 3-4 3h-9-9-19-19-11-11-11-11-11-11-11-11-10-10-10-10-10-10-10-10-10-10-10-10-10-10-10-10-10-10-10-10-11-11-10-10-10-10-13-13" style="fill:#5a5449;stroke:#5a5449"/><path d="m639 854v1h.5.5v-12-12-11-11-11.5-11.5-11-11-11-11-11-11-11-11-11.5-11.5-11-11-11-11-11-11-11-11-11.5-11.5-11-11-11-11-11-11-11-11-11.5-11.5-11-11-11-11-11-11-11-11-11.5-11.5-11-11-11-11-11-11-11-11-11.5-11.5-11-11-11-11-11-11-11-11-11.5-11.5-8-8h-.5-.5l-.5.5-.5.5.5 10.5.5 10.5v10.5 10.5 11 11 11 11 10 10 10 10 10 10 10 10 10 10 18.5 18.5 11 11 11 11 11 11 11 11 11.5 11.5 11 11 11 11 11 11 11 11 11.5 11.5 11 11 12 12 9.5 9.5l-.5 10-.5 10v11.5 11.5l-4.5 4.5-4.5 4.5-4 4-4 4-4.5 1.5-4.5 1.5-7 3-7 3 2.5 3 2.5 3-8.5 2.5-8.5 2.5-6 5-6 5-1 5-1 5-6.5 1.5-6.5 1.5-4.5 6-4.5 6-1.5 2.5-1.5 2.5-6.5 3.5-6.5 3.5-5 6-5 6 4.5 1.5 4.5 1.5-9 .5-9 .5-5.5 5.5-5.5 5.5 1 5 1 5-6.5 1.5-6.5 1.5-5.5 5.5-5.5 5.5-6 5.5-6 5.5-5 6-5 6-5.5 4.5-5.5 4.5-6 5-6 5-5.5 5.5-5.5 5.5-8 3.5-8 3.5-16.5.5-16.5.5h19 19 9 9l4-3 4-3 1-7 1-7 6.5-3.5 6.5-3.5 6.5-4.5 6.5-4.5 6.5-3.5 6.5-3.5 5-4 5-4-2.5-6.5-2.5-6.5 7-2 7-2 8 1 8 1 6.5 3.5 6.5 3.5 5 5 5 5 6 1 6 1-6-4-6-4-4.5-4.5-4.5-4.5-6.5-4.5-6.5-4.5-5.5-4.5-5.5-4.5 4-5 4-5 8.5-1.5 8.5-1.5 8 2 8 2-.5-2.5-.5-2.5-6.5-3.5-6.5-3.5 2-5 2-5 7.5-2.5 7.5-2.5 7-1 7-1 1.5-1.5 1.5-1.5-7-3-7-3 5.5-4.5 5.5-4.5h9 9 4 4l-6.5-3.5-6.5-3.5 1.5-3.5 1.5-3.5 7-3 7-3 7-1 7-1 2.5-.5 2.5-.5-6-4-6-4 7.5-2.5 7.5-2.5 6.5.5 6.5.5-4.5-5.5-4.5-5.5 8 1 8 1v10 10 10 10 10 10 10 10 10 10 10 10 10 10 10 10 11 11" style="fill:#7b756a;stroke:#7b756a"/><path d="m0 853v1h.5.5 13 13 10 10 10 10 11 11 10 10 10 10 10 10 10 10 10 10 10 10 10 10 10 10 10 10 10 10 11 11 11 11 11 11 11 11l16.5-.5 16.5-.5 8-3.5 8-3.5 5.5-5.5 5.5-5.5 6-5 6-5 5.5-4.5 5.5-4.5 5-6 5-6 6-5.5 6-5.5 5.5-5.5 5.5-5.5 6.5-1.5 6.5-1.5-1-5-1-5 5.5-5.5 5.5-5.5 9-.5 9-.5-4.5-1.5-4.5-1.5 5-6 5-6 6.5-3.5 6.5-3.5 1.5-2.5 1.5-2.5 4.5-6 4.5-6 6.5-1.5 6.5-1.5 1-5 1-5 6-5 6-5 8.5-2.5 8.5-2.5-2.5-3-2.5-3 7-3 7-3 4.5-1.5 4.5-1.5 4-4 4-4 4.5-4.5 4.5-4.5v-11.5-11.5l.5-10 .5-10v-9.5-9.5h-.5-.5v.5.5l-.5 10.5-.5 10.5-3 7-3 7-4.5 6-4.5 6-5.5 4.5-5.5 4.5-4.5 4.5-4.5 4.5-4.5 3.5-4.5 3.5-7 4-7 4-2.5 7-2.5 7-6 5-6 5-4.5 4.5-4.5 4.5-5.5 5.5-5.5 5.5-5 6-5 6-6.5 5-6.5 5-4.5 6.5-4.5 6.5-6.5 3.5-6.5 3.5-5.5 5.5-5.5 5.5-4.5 6.5-4.5 6.5-6 4.5-6 4.5-5 6-5 6-5.5 5.5-5.5 5.5-6 5-6 5-6.5 4.5-6.5 4.5-3 .5-3 .5-2.5 5.5-2.5 5.5-7.5-.5-7.5-.5-9.5 1.5-9.5 1.5h-10-10l-11 .5-11 .5h-10-10-10-10-11-11-11-11-11.5-11.5-11-11-11-11-11-11-11-11-11.5-11.5-11-11-11-11l-10.5-.5-10.5-.5h-10-10l-14.5.5-14.5.5" style="fill:#9c978b;stroke:#9c978b"/><path d="m0 852v1l14.5-.5 14.5-.5h10 10l10.5.5 10.5.5h11 11 11 11 11.5 11.5 11 11 11 11 11 11 11 11 11.5 11.5 11 11 11 11 10 10 10 10l11-.5 11-.5h10 10l9.5-1.5 9.5-1.5 7.5.5 7.5.5 2.5-5.5 2.5-5.5 3-.5 3-.5 6.5-4.5 6.5-4.5 6-5 6-5 5.5-5.5 5.5-5.5 5-6 5-6 6-4.5 6-4.5 4.5-6.5 4.5-6.5 5.5-5.5 5.5-5.5 6.5-3.5 6.5-3.5 4.5-6.5 4.5-6.5 6.5-5 6.5-5 5-6 5-6 5.5-5.5 5.5-5.5 4.5-4.5 4.5-4.5 6-5 6-5 2.5-7 2.5-7 7-4 7-4 4.5-3.5 4.5-3.5 4.5-4.5 4.5-4.5 5.5-4.5 5.5-4.5 4.5-6 4.5-6 3-7 3-7 .5-10.5.5-10.5-1 .5-1 .5-8-3-8-3-7.5-3.5-7.5-3.5-5.5-5.5-5.5-5.5-6-5-6-5-6-5.5-6-5.5-6-5-6-5-6-5-6-5-5.5-5.5-5.5-5.5-6-5-6-5-6-5.5-6-5.5-6-5-6-5-6-5-6-5-6-5-6-5-6-5-6-5-6-5.5-6-5.5-6-5-6-5 4.5 5.5 4.5 5.5 5.5 5.5 5.5 5.5 6 5 6 5 6 5.5 6 5.5 6 5 6 5 6 5 6 5 5 6 5 6 6 5 6 5 6.5 5 6.5 5 5.5 5.5 5.5 5.5 3 5 3 5-9.5-.5-9.5-.5-9.5-1.5-9.5-1.5-7.5-4-7.5-4-9.5 1.5-9.5 1.5-9 2-9 2-8-7.5-8-7.5h-1-1l1 1.5 1 1.5 5 5.5 5 5.5h8.5 8.5l9.5-.5 9.5-.5 9 1 9 1 8 3.5 8 3.5 9.5-.5 9.5-.5 8.5 2.5 8.5 2.5 7.5 3.5 7.5 3.5v7 7l-10.5-.5-10.5-.5-8.5-.5-8.5-.5-8.5-.5-8.5-.5-9.5-.5-9.5-.5-9-1-9-1-8-2-8-2-8-2-8-2-8-2-8-2-8.5-1.5-8.5-1.5-7-3-7-3-3-4-3-4h-3-3l-7.5-1.5-7.5-1.5-8-2-8-2-8.5-1.5-8.5-1.5-7-3-7-3-7.5-2.5-7.5-2.5-7-3-7-3-7-3-7-3-6-4-6-4-6.5-3.5-6.5-3.5-6.5-3.5-6.5-3.5-7.5-2.5-7.5-2.5-7.5-3.5-7.5-3.5-3.5-2.5-3.5-2.5 4.5-2.5 4.5-2.5-6.5-3.5-6.5-3.5-8-2-8-2-8-2-8-2-8-2-8-2-6-4-6-4-8-2-8-2-7.5-3.5-7.5-3.5-6.5-2.5-6.5-2.5.5-4.5.5-4.5 6-4 6-4 4.5-3.5 4.5-3.5 7.5-1.5 7.5-1.5 7-3 7-3 8-2 8-2 7.5-.5 7.5-.5 7-4 7-4 2.5-6.5 2.5-6.5 5.5-2.5 5.5-2.5-4-6-4-6-5-5-5-5-2.5-5.5-2.5-5.5-3-6-3-6 4.5-2.5 4.5-2.5-7-1-7-1-4-3-4-3-13.5-.5-13.5-.5h-1.5-1.5l-1 .5-1 .5h-2-2-1-1l-1 .5-1 .5h-2-2l-.5.5-.5.5h-1.5-1.5-2-2l-9 2-9 2-7.5 2.5-7.5 2.5-7.5 2.5-7.5 2.5-7 3-7 3-6 4-6 4-5 5-5 5-4 6-4 6-2.5 7.5-2.5 7.5-3.5 6.5-3.5 6.5-3 7-3 7-10 8.5-10 8.5h-.5-.5v12 12 11.5 11.5 11 11 11 11 11 11 11 11 11.5 11.5 11 11 11 11 11 11 11 11 11.5 11.5 11 11 11 11 11 11 11 11 11.5 11.5 11 11 11 11 5.5 5.5" style="fill:#bfbaaf;stroke:#bfbaaf"/><path d="m448 852l21 1h11 11 11 11 11 11 7.5 7.5 11 11l-1.5-6.5-1.5-6.5-5-6-5-6 5 1 5 1 5 6.5 5 6.5 6 5 6 5h11 11 11 11l1.5-9.5 1.5-9.5v-11.5-11.5-11-11-11-11l-1.5-9.5-1.5-9.5 1.5-9.5 1.5-9.5-3-8.5-3-8.5-5.5-5.5-5.5-5.5-8-3-8-3-7.5 2.5-7.5 2.5-2.5 4.5-2.5 4.5 7 4.5 7 4.5 4-2 4-2-3-6-3-6 4.5 6.5 4.5 6.5 2.5 6.5 2.5 6.5 4.5 7 4.5 7-6-4-6-4-6.5-4.5-6.5-4.5-7-4-7-4-9.5 1.5-9.5 1.5.5 4 .5 4 6.5 4.5 6.5 4.5-7-1-7-1-8 2-8 2-7 4-7 4 8 3.5 8 3.5 6.5 4.5 6.5 4.5 5.5 5.5 5.5 5.5.5 4.5.5 4.5-7-4-7-4-7-4.5-7-4.5-8.5-2.5-8.5-2.5-8 2-8 2-1.5 5.5-1.5 5.5 7 4 7 4 6.5 5 6.5 5 6 5 6 5-.5 5.5-.5 5.5-6.5-3.5-6.5-3.5-5.5-5.5-5.5-5.5-7.5-2-7.5-2-8-3-8-3-2 5-2 5 6.5 4.5 6.5 4.5 5 6 5 6 6 5.5 6 5.5 2.5 6.5 2.5 6.5-5.5 4.5-5.5 4.5-7.5-3.5-7.5-3.5-8.5-2.5-8.5-2.5 6.5-2 6.5-2h7 7l-3-7-3-7-5.5-1.5-5.5-1.5-6.5-3.5-6.5-3.5-6.5 5-6.5 5-7 4-7 4-7.5 3.5-7.5 3.5 1 7 1 7 1 1 1 1" style="fill:#353027;stroke:#353027"/><g style="fill:#221d13;stroke:#221d13"><path d="m451 851l21 1h11 11 11 11l-7.5-3.5-7.5-3.5-10-1.5-10-1.5-7-3-7-3-6 3-6 3-5-1-5-1 3 5.5 3 5.5"/><path d="m525 851l15-5 8 3 8 3 4-4 4-4-4.5-6.5-4.5-6.5 5-5.5 5-5.5 4.5 6.5 4.5 6.5 5.5 5.5 5.5 5.5 7 4 7 4h11 11l7.5-3 7.5-3-3.5-7.5-3.5-7.5-2.5-7.5-2.5-7.5-3-4-3-4-4-6-4-6 6.5 2 6.5 2 4.5-2.5 4.5-2.5 2.5-8.5 2.5-8.5-.5-10.5-.5-10.5-1.5-6.5-1.5-6.5 2-8.5 2-8.5-4-7-4-7-5.5-5.5-5.5-5.5-1.5 7.5-1.5 7.5 4 7 4 7 .5 7 .5 7-6-4-6-4-6.5-4.5-6.5-4.5-6.5-4.5-6.5-4.5-5 3-5 3 4 7.5 4 7.5 5.5 5.5 5.5 5.5 3.5 6.5 3.5 6.5-7-2-7-2-4.5-6.5-4.5-6.5-7-4.5-7-4.5-2 4-2 4 3 8 3 8 5.5 5.5 5.5 5.5 2.5 6.5 2.5 6.5-8.5-2-8.5-2-5.5-5.5-5.5-5.5-8-3-8-3-2 6-2 6 4.5 5.5 4.5 5.5 4.5 7 4.5 7 1.5 6.5 1.5 6.5-6 5-6 5-5.5-4.5-5.5-4.5h-6-6l4.5 7 4.5 7 2 7 2 7-4.5 3.5-4.5 3.5"/></g><path d="m621 841v-10l-6.5-4.5-6.5-4.5-4.5-6.5-4.5-6.5-5-6-5-6-5 4-5 4 6 5.5 6 5.5 5 6 5 6 6.5 4.5 6.5 4.5 3.5 2 3.5 2" style="fill:#353027;stroke:#353027"/><path d="m495 829h2v-1-1l-1.5-1-1.5-1-1.5-.5-1.5-.5-1-1.5-1-1.5-.5 1.5-.5 1.5.5 2 .5 2h2 2l1 .5 1 .5" style="fill:#221d13;stroke:#221d13"/><path d="m599 819l-4-12-5.5-2.5-5.5-2.5 5 6 5 6 2.5 2.5 2.5 2.5" style="fill:#5a5449;stroke:#5a5449"/><path d="m527 808h2v-2-2l-1-1.5-1-1.5-1-1-1-1-1.5-1-1.5-1-1.5.5-1.5.5-.5 2-.5 2 .5 1.5.5 1.5 1.5.5 1.5.5 2 .5 2 .5.5.5.5.5" style="fill:#221d13;stroke:#221d13"/><path d="m618 790l2-6-5.5-5.5-5.5-5.5 1 4 1 4 3.5 4.5 3.5 4.5" style="fill:#353027;stroke:#353027"/><path d="m570 777l-3-7-1 2-1 2 2.5 1.5 2.5 1.5" style="fill:#7b756a;stroke:#7b756a"/><path d="m630 764l3 1-.5-1.5-.5-1.5-1-1.5-1-1.5-1-1-1-1-2-.5-2-.5-.5 1.5-.5 1.5 1 1.5 1 1.5 1 1 1 1h1.5 1.5" style="fill:#353027;stroke:#353027"/><path d="m597 763l-4-10-2.5.5-2.5.5 4.5 4.5 4.5 4.5" style="fill:#5a5449;stroke:#5a5449"/><path d="m215 711l19-1 9.5-1.5 9.5-1.5 5.5-5.5 5.5-5.5-2.5-4.5-2.5-4.5-7 1-7 1-9.5 1-9.5 1-8.5.5-8.5.5-5.5 5.5-5.5 5.5 7 4 7 4h1.5 1.5" style="fill:#9c978b;stroke:#9c978b"/><path d="m636 710l2-18-6.5-4.5-6.5-4.5-7.5 1.5-7.5 1.5 7.5 3.5 7.5 3.5 3.5 6.5 3.5 6.5 2 2 2 2" style="fill:#353027;stroke:#353027"/><path d="m214 709l19-1 9.5-1.5 9.5-1.5v-4-4l-10-1-10-1-9.5.5-9.5.5v6.5 6.5h.5.5" style="fill:#7b756a;stroke:#7b756a"/><path d="m215 708l18-2-4.5-3.5-4.5-3.5-5 4-5 4 .5.5.5.5" style="fill:#5a5449;stroke:#5a5449"/><path d="m636 705v-16l-2 1-2 1 2 7 2 7" style="fill:#221d13;stroke:#221d13"/><path d="m636 681h2v-2-2l-.5-2-.5-2-1.5-.5-1.5-.5-2-.5-2-.5-1.5.5-1.5.5v1.5 1.5l1.5.5 1.5.5 1 1 1 1 1.5 1 1.5 1 .5.5.5.5" style="fill:#353027;stroke:#353027"/><path d="m636 598l2-1v-.5-.5-.5-.5-12-12-11-11-11-11-11-11-11-11-11.5-11.5-11-11-11-11-11-11-11-11-11-11-11-11-.5-.5-11-11-11-11-17.5-17.5l-.5-.5-.5-.5v-10.5-10.5-11-11-11-11-11-11-11.5-11.5l-2-9-2-9-5.5-7-5.5-7h-1.5-1.5-1-1-1.5-1.5-2-2-1.5-1.5-10.5-10.5-11-11-13-13l2.5 7 2.5 7 3.5 4.5 3.5 4.5 5.5 5.5 5.5 5.5 5.5 5.5 5.5 5.5 6 5.5 6 5.5 5 4 5 4-6.5-.5-6.5-.5-7.5-3.5-7.5-3.5-7.5-1.5-7.5-1.5.5 6 .5 6-8.5 1-8.5 1-7.5-3.5-7.5-3.5-7-4-7-4-6.5-3.5-6.5-3.5-6.5-3.5-6.5-3.5-7-4-7-4-6-4-6-4-6.5-3.5-6.5-3.5-12-7.5-12-7.5h-2.5-2.5l6.5 4 6.5 4 6.5 4.5 6.5 4.5 7 4 7 4 6 4 6 4 6.5 3.5 6.5 3.5 6 4 6 4 6 4 6 4 6.5 4.5 6.5 4.5 6.5 3.5 6.5 3.5 6 4 6 4 6 4 6 4 6 4 6 4 6.5 3.5 6.5 3.5 5.5 4.5 5.5 4.5 3.5 2.5 3.5 2.5 3 5 3 5 1 6 1 6 3.5 4.5 3.5 4.5 3 2 3 2 .5 4.5.5 4.5 3 1 3 1 4 3 4 3 .5 7.5.5 7.5 2.5 4.5 2.5 4.5.5 9.5.5 9.5v10 10 10 10 11 11 10 10 10 10 10 10 10 10 8 8 9 9 10 10 10 10 11 11 10 10l-1 10-1 10-8-4-8-4-5.5-5.5-5.5-5.5-5.5-5.5-5.5-5.5-6-5-6-5-6-5-6-5-6.5-5-6.5-5-6-5-6-5-5-6-5-6-6.5-4.5-6.5-4.5-6-5-6-5-6-5-6-5-6-5.5-6-5.5-6-5-6-5-5.5-5.5-5.5-5.5-6-5-6-5-6.5-4.5-6.5-4.5-6-5.5-6-5.5-5.5-5.5-5.5-5.5-6-5-6-5-5.5-5.5-5.5-5.5-6.5-4.5-6.5-4.5-6-5.5-6-5.5-6-5-6-5-5.5-5.5-5.5-5.5-6-5-6-5-6-5-6-5-6-5.5-6-5.5-6-5-6-5-6-5-6-5-5.5-5.5-5.5-5.5-5.5-5.5-5.5-5.5-6.5-5-6.5-5-6-5-6-5-6-5-6-5-5.5-5.5-5.5-5.5-6-5-6-5-6-5.5-6-5.5-5.5-5.5-5.5-5.5-5.5-5.5-5.5-5.5-3.5-7.5-3.5-7.5 2-9 2-9 2-9.5 2-9.5 2.5-8.5 2.5-8.5 2-9 2-9h-2-2-2-2-1-1-1.5-1.5-2-2-2-2l-.5 9.5-.5 9.5 1 3.5 1 3.5-4 3-4 3 1 8 1 8-3.5 1.5-3.5 1.5-2.5 8.5-2.5 8.5-5 7.5-5 7.5-.5-8.5-.5-8.5.5-5.5.5-5.5.5-7 .5-7 1.5-5.5 1.5-5.5 2-3 2-3-3-1-3-1 4-2 4-2 2-9 2-9h-2.5-2.5-2.5-2.5-2-2-2.5-2.5-1.5-1.5l-1.5 9-1.5 9-2 8-2 8-2.5 7.5-2.5 7.5-2 8-2 8-2 8-2 8-4 6-4 6 4 5 4 5-10.5 1.5-10.5 1.5-4.5-6-4.5-6-2.5-7.5-2.5-7.5-3-7-3-7-4-6-4-6-4-6-4-6-4-6-4-6-3-7-3-7-.5-7.5-.5-7.5h-1.5-1.5-2-2-1.5-1.5v1.5 1.5l.5 1 .5 1 1 1.5 1 1.5.5 1.5.5 1.5 4.5 7 4.5 7 5 6.5 5 6.5 4 7 4 7 4 8.5 4 8.5 4 7 4 7 2.5 8.5 2.5 8.5 3.5 6.5 3.5 6.5 6.5.5 6.5.5-6.5 4.5-6.5 4.5 6.5-1.5 6.5-1.5-4 4-4 4 .5 2.5.5 2.5 2.5 8 2.5 8v-.5-.5l-.5-8.5-.5-8.5 3.5 1.5 3.5 1.5-3 7.5-3 7.5 2 .5 2 .5 3-6.5 3-6.5 5.5 8.5 5.5 8.5h1.5 1.5l-2.5-6-2.5-6-2-6-2-6-2-6-2-6 1.5-5.5 1.5-5.5 6 4 6 4 5.5 4.5 5.5 4.5-1-2-1-2-4.5-5.5-4.5-5.5v-1-1l6 5 6 5 5 5 5 5 5 5 5 5 5.5 4.5 5.5 4.5 5 5 5 5-3 1-3 1-1.5 3-1.5 3 8.5-1 8.5-1 6.5 4 6.5 4 6.5 4.5 6.5 4.5 8 4 8 4 1.5.5 1.5.5 1.5.5 1.5.5 1.5 1 1.5 1 1.5.5 1.5.5 1.5.5 1.5.5.5.5.5.5 1 .5 1 .5 1.5.5 1.5.5.5.5.5.5 1.5 1 1.5 1 7 3.5 7 3.5 6 4.5 6 4.5 6 5 6 5 6 5.5 6 5.5 5 6 5 6 4 7 4 7 3.5 7.5 3.5 7.5 3.5 7.5 3.5 7.5 4.5 6.5 4.5 6.5 4.5 7 4.5 7 6.5 11 6.5 11 5 3 5 3 6 5 6 5 5.5 5.5 5.5 5.5 5.5 5.5 5.5 5.5 6 5.5 6 5.5 5.5 5.5 5.5 5.5 6 5 6 5 5.5 5.5 5.5 5.5 5.5 5.5 5.5 5.5 2.5 4.5 2.5 4.5-1.5-1.5-1.5-1.5-1-1-1-1-1-1-1-1-.5-.5-.5-.5-1-.5-1-.5-1.5-1-1.5-1 8 7.5 8 7.5 9-2 9-2 9.5-1.5 9.5-1.5 7.5 4 7.5 4 9.5 1.5 9.5 1.5 9.5.5 9.5.5-3-5-3-5-5.5-5.5-5.5-5.5-6.5-5-6.5-5-6-5-6-5-5-6-5-6-6-5-6-5-6-5-6-5-6-5.5-6-5.5-6-5-6-5-5.5-5.5-5.5-5.5-4.5-5.5-4.5-5.5 6 5 6 5 6 5.5 6 5.5 6 5 6 5 6 5 6 5 6 5 6 5 6 5 6 5 6 5.5 6 5.5 6 5 6 5 5.5 5.5 5.5 5.5 6 5 6 5 6 5 6 5 6 5.5 6 5.5 6 5 6 5 5.5 5.5 5.5 5.5 7.5 3.5 7.5 3.5 8 3 8 3" style="fill:#ded9cd;stroke:#ded9cd"/><path d="m635 595l2-20v-10-10-11-11-10-10-10-10-9-9-8-8-10-10-10-10-10-10-10-10-11-11-10-10-10-10l-.5-9.5-.5-9.5-2.5-4.5-2.5-4.5-.5-7.5-.5-7.5-4-3-4-3-3-1-3-1-.5-4.5-.5-4.5-3-2-3-2-3.5-4.5-3.5-4.5-1-6-1-6-3-5-3-5-3.5-2.5-3.5-2.5-5.5-4.5-5.5-4.5-6.5-3.5-6.5-3.5-6-4-6-4-6-4-6-4-6-4-6-4-6.5-3.5-6.5-3.5-6.5-4.5-6.5-4.5-6-4-6-4-6-4-6-4-6.5-3.5-6.5-3.5-6-4-6-4-7-4-7-4-6.5-4.5-6.5-4.5-6.5-4-6.5-4h-11-11-10-10-10-10-13-13l.5 2.5.5 2.5.5 1.5.5 1.5v2 2l-.5.5-.5.5-.5 1-.5 1-1 1-1 1v1 1l-1 .5-1 .5-1 1-1 1-1.5 1-1.5 1h-2-2l-1.5-.5-1.5-.5-8.5-2-8.5-2-7-4-7-4 7-.5 7-.5v-3-3l-7.5-2-7.5-2h-12-12-11-11-11-11-13.5-13.5l-2 9-2 9-2.5 8.5-2.5 8.5-2 9.5-2 9.5-2 9-2 9 3.5 7.5 3.5 7.5 5.5 5.5 5.5 5.5 5.5 5.5 5.5 5.5 6 5.5 6 5.5 6 5 6 5 5.5 5.5 5.5 5.5 6 5 6 5 6 5 6 5 6.5 5 6.5 5 5.5 5.5 5.5 5.5 5.5 5.5 5.5 5.5 6 5 6 5 6 5 6 5 6 5.5 6 5.5 6 5 6 5 6 5 6 5 5.5 5.5 5.5 5.5 6 5 6 5 6 5.5 6 5.5 6.5 4.5 6.5 4.5 5.5 5.5 5.5 5.5 6 5 6 5 5.5 5.5 5.5 5.5 6 5.5 6 5.5 6.5 4.5 6.5 4.5 6 5 6 5 5.5 5.5 5.5 5.5 6 5 6 5 6 5.5 6 5.5 6 5 6 5 6 5 6 5 6.5 4.5 6.5 4.5 5 6 5 6 6 5 6 5 6.5 5 6.5 5 6 5 6 5 6 5 6 5 5.5 5.5 5.5 5.5 5.5 5.5 5.5 5.5 8 4 8 4" style="fill:#f2ede1;stroke:#f2ede1"/><path d="m638 595v1h.5.5v-12-12-11-11-11.5-11.5-11-11-11-11-11-11-11-11-11.5-11.5-11-11-11-11-11-11-11-11h-.5-.5v11 11 11 11 11 11 11 11 11 11 11 11 11.5 11.5 11 11 11 11 11 11 11 11 12 12" style="fill:#bfbaaf;stroke:#bfbaaf"/><path d="m584 583v-14l-7.5-3.5-7.5-3.5-8.5-2.5-8.5-2.5-9.5.5-9.5.5-8-3.5-8-3.5-9-1-9-1-9.5.5-9.5.5h-8.5-8.5l-5-5.5-5-5.5-10 1-10 1-16 2.5-16 2.5-1 .5-1 .5h-1.5-1.5l-1.5-.5-1.5-.5-1-1-1-1h-1-1-1.5-1.5l-1.5-.5-1.5-.5-.5-.5-.5-.5h-1-1l-.5-.5-.5-.5h-1.5-1.5l-1.5-.5-1.5-.5h-1-1-1.5-1.5l-1.5-.5-1.5-.5-1.5-.5-1.5-.5-9-2.5-9-2.5-11-4.5-11-4.5-1-.5-1-.5-5.5-6-5.5-6-5-6-5-6-6-5-6-5-6.5-4.5-6.5-4.5-7.5-4-7.5-4-7.5-3.5-7.5-3.5-8.5-2.5-8.5-2.5-8-3-8-3-8-3-8-3-9-2.5-9-2.5-8-3-8-3-2-4-2-4 8-3 8-3 6.5-2.5 6.5-2.5 9-1.5 9-1.5 6-2 6-2 8.5-1.5 8.5-1.5 7-4 7-4 6-4.5 6-4.5 3-3 3-3-5.5-5.5-5.5-5.5-5-6-5-6-3-7-3-7 .5-6 .5-6 7.5-1.5 7.5-1.5-5.5-5.5-5.5-5.5-6-5-6-5-6.5-3.5-6.5-3.5-10-.5-10-.5h-20-20l-1 .5-1 .5 13.5.5 13.5.5 4 3 4 3 7 1 7 1-4.5 2.5-4.5 2.5 3 6 3 6 2.5 5.5 2.5 5.5 5 5 5 5 4 6 4 6-5.5 2.5-5.5 2.5-2.5 6.5-2.5 6.5-7 4-7 4-7.5.5-7.5.5-8 2-8 2-7 3-7 3-7.5 1.5-7.5 1.5-4.5 3.5-4.5 3.5-6 4-6 4-.5 4.5-.5 4.5 6.5 2.5 6.5 2.5 7.5 3.5 7.5 3.5 8 2 8 2 6 4 6 4 8 2 8 2 8 2 8 2 8 2 8 2 6.5 3.5 6.5 3.5-4.5 2.5-4.5 2.5 3.5 2.5 3.5 2.5 7.5 3.5 7.5 3.5 7.5 2.5 7.5 2.5 6.5 3.5 6.5 3.5 6.5 3.5 6.5 3.5 6 4 6 4 7 3 7 3 7 3 7 3 7.5 2.5 7.5 2.5 7 3 7 3 8.5 1.5 8.5 1.5 8 2 8 2 7.5 1.5 7.5 1.5h3 3l3 4 3 4 7 3 7 3 8.5 1.5 8.5 1.5 8 2 8 2 8 2 8 2 8 2 8 2 9 1 9 1 9.5.5 9.5.5 8.5.5 8.5.5 8.5.5 8.5.5 10.5.5 10.5.5" style="fill:#9c978b;stroke:#9c978b"/><path d="m585 581l-1-9-7.5-3.5-7.5-3.5-7.5-2.5-7.5-2.5-9 1-9 1-8 2-8 2-5.5-5-5.5-5-9.5-1.5-9.5-1.5-10 1-10 1-8.5.5-8.5.5 3.5 5.5 3.5 5.5 9 2.5 9 2.5 9.5 1.5 9.5 1.5 9.5 1.5 9.5 1.5 9.5.5 9.5.5 9.5.5 9.5.5h10.5 10.5l5 .5 5 .5" style="fill:#7b756a;stroke:#7b756a"/><g style="fill:#5a5449;stroke:#5a5449"><path d="m561 578l-4-4-5.5 1.5-5.5 1.5 7.5.5 7.5.5"/><path d="m509 575l4-6-8.5-1.5-8.5-1.5-7 2-7 2 9 2 9 2 4.5.5 4.5.5"/></g><g style="fill:#7b756a;stroke:#7b756a"><path d="m431 560l9-11-8-1-8-1-5.5 3.5-5.5 3.5 8 3 8 3h1 1"/><path d="m396 547h3l1-.5 1-.5h-1.5-1.5l-1.5-.5-1.5-.5v-.5-.5l-1.5-1-1.5-1h-2-2l-2-.5-2-.5-1.5-.5-1.5-.5-1.5-.5-1.5-.5h-2.5-2.5l-1.5-.5-1.5-.5h-2.5-2.5-1.5-1.5l1.5.5 1.5.5 1.5.5 1.5.5h1.5 1.5 1 1l1.5.5 1.5.5h1.5 1.5l.5.5.5.5h1 1l.5.5.5.5 1.5.5 1.5.5h1.5 1.5 1 1l1 1 1 1 1.5.5 1.5.5"/></g><path d="m466 547l-5-9-5.5-5.5-5.5-5.5-5.5-5.5-5.5-5.5-6-5-6-5-5.5-5.5-5.5-5.5-6-5.5-6-5.5-5.5-5.5-5.5-5.5-5.5-5.5-5.5-5.5-6-5-6-5-5-3-5-3 1 1.5 1 1.5 5.5 5.5 5.5 5.5 5.5 5.5 5.5 5.5 5.5 5.5 5.5 5.5 6 5 6 5 5.5 5.5 5.5 5.5 6 5.5 6 5.5 5.5 5.5 5.5 5.5 6 5.5 6 5.5 1.5 1 1.5 1 1 .5 1 .5.5.5.5.5 1 1 1 1 1 1 1 1 1.5 1.5 1.5 1.5" style="fill:#f2ede1;stroke:#f2ede1"/><path d="m395 545l3 1h1.5 1.5l16-2.5 16-2.5 10-1 10-1-1-1.5-1-1.5v-.5-.5l-1.5-1-1.5-1h-2.5-2.5-2-2l-2 .5-2 .5-1.5.5-1.5.5-2-1-2-1-5-5.5-5-5.5-4.5-6-4.5-6-6-5-6-5-5.5-6-5.5-6-4-6.5-4-6.5-1.5-1.5-1.5-1.5-.5-1.5-.5-1.5-1-1.5-1-1.5-.5-1.5-.5-1.5-1-1.5-1-1.5-1-1-1-1-1-1.5-1-1.5-.5-1.5-.5-1.5-1-1.5-1-1.5-1-1.5-1-1.5-6.5-11-6.5-11-4.5-7-4.5-7-4.5-6.5-4.5-6.5-3.5-7.5-3.5-7.5-3.5-7.5-3.5-7.5-4-7-4-7-5-6-5-6-6-5.5-6-5.5-6-5-6-5-6-4.5-6-4.5-7-3.5-7-3.5v.5.5l-4 2.5-4 2.5 9 7 9 7v-1-1l-5.5-6-5.5-6 7 2.5 7 2.5 9 7 9 7 .5 1 .5 1 1.5 1 1.5 1 1 1 1 1 1 1 1 1 1 1.5 1 1.5 1 1 1 1 1.5 1 1.5 1 1 .5 1 .5 5 6.5 5 6.5 4.5 7 4.5 7 3.5 7.5 3.5 7.5 3.5 7.5 3.5 7.5 4.5 6.5 4.5 6.5 4.5 6.5 4.5 6.5 4.5 7 4.5 7 5 9.5 5 9.5 4.5 6.5 4.5 6.5 3.5 6.5 3.5 6.5 4.5 5.5 4.5 5.5 5 5 5 5 5 6 5 6 5 5 5 5 2.5 4.5 2.5 4.5-11.5 2-11.5 2-1 1-1 1h-1-1-1.5-1.5" style="fill:#5a5449;stroke:#5a5449"/><path d="m395 544v1h1.5 1.5 1 1l1-1 1-1h-1.5-1.5l-2-.5-2-.5-8-2.5-8-2.5-9-1-9-1-7.5-2.5-7.5-2.5-10.5-3.5-10.5-3.5-1.5.5-1.5.5 11 4.5 11 4.5 9 2.5 9 2.5h1.5 1.5 2.5 2.5l1.5.5 1.5.5h2.5 2.5l1.5.5 1.5.5 1.5.5 1.5.5 2 .5 2 .5h2 2l1.5 1 1.5 1" style="fill:#353027;stroke:#353027"/><path d="m395 542l4 1h1.5 1.5v-.5-.5l4.5-4 4.5-4-4.5-6.5-4.5-6.5-5-6.5-5-6.5-4-5-4-5-1.5-1.5-1.5-1.5-3.5-5.5-3.5-5.5-4.5-11.5-4.5-11.5-1 .5-1 .5-1 1-1 1h1 1v1 1l-.5.5-.5.5-.5 1-.5 1 .5 1.5.5 1.5.5.5.5.5-.5 1-.5 1v2 2l.5.5.5.5.5 1 .5 1-1 1-1 1-1.5-.5-1.5-.5-4.5-7-4.5-7-3-6.5-3-6.5-.5-5.5-.5-5.5-2-9-2-9-4.5-6.5-4.5-6.5-3-3.5-3-3.5-3-6-3-6-4-7-4-7-2.5-6.5-2.5-6.5-2.5-3.5-2.5-3.5-2.5-8-2.5-8-1-.5-1-.5-1.5-1-1.5-1-1-1-1-1-1-1.5-1-1.5-1-1-1-1-1-1-1-1-1.5-1-1.5-1-.5-1-.5-1-1-.5-1-.5-7.5-4-7.5-4-2 1-2 1 5.5 5 5.5 5 5 5.5 5 5.5 5 2.5 5 2.5.5 6.5.5 6.5 3 8 3 8 2 9 2 9 .5 10.5.5 10.5-1.5 10-1.5 10-2 9-2 9v10 10l2.5 8.5 2.5 8.5 6 5.5 6 5.5 7.5 10.5 7.5 10.5 10.5 3.5 10.5 3.5 7.5 2.5 7.5 2.5 9 1 9 1 8 2.5 8 2.5" style="fill:#221d13;stroke:#221d13"/><path d="m402 542v1l11.5-2 11.5-2-2.5-4.5-2.5-4.5-5-5-5-5-5-6-5-6-5-5-5-5-4.5-5.5-4.5-5.5-3.5-6.5-3.5-6.5-4.5-6.5-4.5-6.5 4.5 11.5 4.5 11.5 3.5 5.5 3.5 5.5 1.5 1.5 1.5 1.5 4 5 4 5 5 6.5 5 6.5 4.5 6.5 4.5 6.5-4.5 4-4.5 4" style="fill:#353027;stroke:#353027"/><path d="m451 535v1h1 1l-6-5.5-6-5.5-5.5-5.5-5.5-5.5-6-5.5-6-5.5-5.5-5.5-5.5-5.5-6-5-6-5-5.5-5.5-5.5-5.5-5.5-5.5-5.5-5.5-5.5-5.5-5.5-5.5 1 1.5 1 1.5.5 1.5.5 1.5 1 1.5 1 1.5 1 1 1 1 1 1.5 1 1.5.5 1.5.5 1.5 1 1.5 1 1.5.5 1.5.5 1.5 1.5 1.5 1.5 1.5 5 2.5 5 2.5 5 5 5 5 5 5 5 5 5 5 5 5 5.5 4.5 5.5 4.5.5 7 .5 7h-1-1l2 1 2 1 1.5-.5 1.5-.5 2-.5 2-.5h2 2 2.5 2.5l1.5 1 1.5 1" style="fill:#ded9cd;stroke:#ded9cd"/><path d="m430 533l-1-14-5.5-4.5-5.5-4.5-5-5-5-5-5-5-5-5-5-5-5-5-5-2.5-5-2.5 4 6.5 4 6.5 5.5 6 5.5 6 6 5 6 5 4.5 6 4.5 6 5 5.5 5 5.5h1 1" style="fill:#f2ede1;stroke:#f2ede1"/><path d="m320 523l2 1v-.5-.5l-5-6-5-6-5-6-5-6-6-5.5-6-5.5-6.5-4.5-6.5-4.5-6-5-6-5-8-3-8-3-8-3-8-3-8.5-3-8.5-3-8-3-8-3-5-3-5-3 9.5-.5 9.5-.5 7 1 7 1 8-1.5 8-1.5 8.5.5 8.5.5 8.5-.5 8.5-.5 8-1 8-1 3.5-7.5 3.5-7.5v-14.5-14.5l-.5-.5-.5-.5-.5-1.5-.5-1.5v1.5 1.5l.5 2 .5 2v2 2l.5 2 .5 2v2 2l-1 1.5-1 1.5-.5 1.5-.5 1.5.5 1.5.5 1.5h-1.5-1.5l-5-5.5-5-5.5-2.5-7.5-2.5-7.5 3-7 3-7-1.5-9-1.5-9-4.5-6.5-4.5-6.5-5.5-5.5-5.5-5.5h2 2l9 9 9 9v-1-1l-4.5-6-4.5-6-7.5-6.5-7.5-6.5-9-7-9-7 4-2.5 4-2.5-1.5-.5-1.5-.5-2-.5-2-.5-1.5-.5-1.5-.5-.5-.5-.5-.5h-1.5-1.5l-1.5-.5-1.5-.5-.5-.5-.5-.5-.5-1-.5-1-1-1-1-1-.5 1-.5 1-1 1-1 1-1.5 1-1.5 1-1 1-1 1-2 .5-2 .5h-2-2l-1.5-.5-1.5-.5h-.5-.5-2.5-2.5-2-2-2.5-2.5-2-2-2.5-2.5-2-2-2.5-2.5-2-2-2.5-2.5-2-2-1.5-1.5v.5.5h20 20l10 .5 10 .5 6.5 3.5 6.5 3.5 6 5 6 5 5.5 5.5 5.5 5.5-7.5 1.5-7.5 1.5-.5 6-.5 6 3 7 3 7 5 6 5 6 5.5 5.5 5.5 5.5-3 3-3 3-6 4.5-6 4.5-7 4-7 4-8.5 1.5-8.5 1.5-6 2-6 2-9 1.5-9 1.5-6.5 2.5-6.5 2.5-8 3-8 3 2 4 2 4 8 3 8 3 9 2.5 9 2.5 8 3 8 3 8 3 8 3 8.5 2.5 8.5 2.5 7.5 3.5 7.5 3.5 7.5 4 7.5 4 6.5 4.5 6.5 4.5 6 5 6 5 5 6 5 6 5.5 6 5.5 6" style="fill:#7b756a;stroke:#7b756a"/><path d="m322 523v1l1.5-.5 1.5-.5-1-.5-1-.5-5-6.5-5-6.5-5-6-5-6-5.5-5.5-5.5-5.5-4-7-4-7 .5-7.5.5-7.5 3.5-8 3.5-8 2.5-8.5 2.5-8.5-.5-16.5-.5-16.5v14.5 14.5l-3.5 7.5-3.5 7.5-8 1-8 1-8.5.5-8.5.5-8.5-.5-8.5-.5-8 1.5-8 1.5-7-1-7-1-9.5.5-9.5.5 5 3 5 3 8 3 8 3 8.5 3 8.5 3 8 3 8 3 8 3 8 3 6 5 6 5 6.5 4.5 6.5 4.5 6 5.5 6 5.5 5 6 5 6 5 6 5 6" style="fill:#5a5449;stroke:#5a5449"/><g style="fill:#353027;stroke:#353027"><path d="m323 522l2 1-7.5-10.5-7.5-10.5-6-5.5-6-5.5-2.5-8.5-2.5-8.5v-10-10l2-9 2-9 1.5-10 1.5-10-.5-10.5-.5-10.5-2-9-2-9-3-8-3-8-.5-6.5-.5-6.5-5-2.5-5-2.5-5-5.5-5-5.5-5.5-5-5.5-5v1 1l7.5 6.5 7.5 6.5 4.5 6 4.5 6 3.5 7.5 3.5 7.5 4 13.5 4 13.5.5 16.5.5 16.5-2.5 8.5-2.5 8.5-3.5 8-3.5 8-.5 7.5-.5 7.5 4 7 4 7 5.5 5.5 5.5 5.5 5 6 5 6 5 6.5 5 6.5"/><path d="m359 483l3 1 1-1 1-1-.5-1-.5-1-.5-.5-.5-.5v-2-2l.5-1 .5-1-.5-.5-.5-.5-.5-1.5-.5-1.5.5-1 .5-1 .5-.5.5-.5v-1-1h-1-1l1-1 1-1 1-.5 1-.5-5-9.5-5-9.5-4.5-7-4.5-7-4.5-6.5-4.5-6.5-4.5-6.5-4.5-6.5-3.5-7.5-3.5-7.5-3.5-7.5-3.5-7.5-4.5-7-4.5-7-5-6.5-5-6.5 2.5 8 2.5 8 2.5 3.5 2.5 3.5 2.5 6.5 2.5 6.5 4 7 4 7 3 6 3 6 3 3.5 3 3.5 4.5 6.5 4.5 6.5 2 9 2 9 .5 5.5.5 5.5 3 6.5 3 6.5 4.5 7 4.5 7"/></g><path d="m432 436l-7-9-6-4-6-4 5.5 5.5 5.5 5.5 4 3 4 3" style="fill:#bfbaaf;stroke:#bfbaaf"/><g style="fill:#9c978b;stroke:#9c978b"><path d="m1 417l20-17 3-7 3-7 3.5-6.5 3.5-6.5 2.5-7.5 2.5-7.5 4-6 4-6 5-5 5-5 6-4 6-4 7-3 7-3 7.5-2.5 7.5-2.5 7.5-2.5 7.5-2.5 9-2 9-2h-1.5-1.5l-1 .5-1 .5h-2.5-2.5l-1.5.5-1.5.5-1.5.5-1.5.5h-1-1-1.5-1.5l-1.5.5-1.5.5-2 .5-2 .5-2.5.5-2.5.5-8 3-8 3-8 3-8 3-6 5-6 5-5.5 5.5-5.5 5.5-4.5 5.5-4.5 5.5-3.5 6.5-3.5 6.5-4.5 5.5-4.5 5.5-8.5 10-8.5 10h-.5-.5v3.5 3.5 2 2 2 2h.5.5"/><path d="m291 415h3l-.5-1.5-.5-1.5.5-1.5.5-1.5 1-1.5 1-1.5v-2-2l-.5-2-.5-2v-2-2l-.5-2-.5-2v-1.5-1.5l-2.5-8.5-2.5-8.5-4-9.5-4-9.5-9-9-9-9h-2-2l5.5 5.5 5.5 5.5 4.5 6.5 4.5 6.5 1.5 9 1.5 9-3 7-3 7 2.5 7.5 2.5 7.5 5 5.5 5 5.5"/></g><path d="m1 402l17-20 4.5-5.5 4.5-5.5 3.5-6.5 3.5-6.5 4.5-5.5 4.5-5.5 5.5-5.5 5.5-5.5 6-5 6-5 8-3 8-3 8-3 8-3h-1.5-1.5l-1.5.5-1.5.5h-1.5-1.5l-9 3-9 3-6.5 4.5-6.5 4.5-6 5-6 5-5.5 5.5-5.5 5.5-5.5 6-5.5 6-5 6-5 6-7 5.5-7 5.5v3.5 3.5 2 2 2.5 2.5h.5.5" style="fill:#7b756a;stroke:#7b756a"/><g style="fill:#5a5449;stroke:#5a5449"><path d="m295 390l1 1-4-13.5-4-13.5-3.5-7.5-3.5-7.5v1 1l4 9.5 4 9.5 2.5 8.5 2.5 8.5.5 1.5.5 1.5"/><path d="m0 385v1l7-5.5 7-5.5 5-6 5-6 5.5-6 5.5-6 5.5-5.5 5.5-5.5 6-5 6-5 6.5-4.5 6.5-4.5 9-3 9-3-8.5 2-8.5 2-6.5 3.5-6.5 3.5-5.5 4.5-5.5 4.5-5.5 4.5-5.5 4.5-6 4-6 4-5 5-5 5-7.5 7.5-7.5 7.5v1.5 1.5 2 2 .5.5"/></g><path d="m0 376v1l7.5-7.5 7.5-7.5 5-5 5-5 6-4 6-4 5.5-4.5 5.5-4.5 5.5-4.5 5.5-4.5 6.5-3.5 6.5-3.5 8.5-2 8.5-2h1.5 1.5l1.5-.5 1.5-.5h1.5 1.5l2.5-.5 2.5-.5 2-.5 2-.5 1.5-.5 1.5-.5h1.5 1.5 1 1l1.5-.5 1.5-.5 1.5-.5 1.5-.5h2.5 2.5l1-.5 1-.5h1.5 1.5 2 2 1.5 1.5l.5-.5.5-.5h2 2l1-.5 1-.5h1 1 2 2l1-.5 1-.5h1.5 1.5l1-.5 1-.5v-.5-.5-.5-.5h11.5 11.5 11 11l1.5.5 1.5.5h.5.5l7.5-3.5 7.5-3.5-7-3-7-3-6.5-3.5-6.5-3.5-6-6-6-6h-1.5-1.5-1-1l-.5-.5-.5-.5h-1-1-1-1l-1-.5-1-.5h-1-1l-.5.5-.5.5-.5.5-.5.5v.5.5 1 1l.5.5.5.5-1.5-.5-1.5-.5-9-1.5-9-1.5-8.5-2.5-8.5-2.5-9-2-9-2-9.5-1.5-9.5-1.5-5-5-5-5-3 3-3 3-6.5-5-6.5-5 1.5-6.5 1.5-6.5h-7-7l-9.5-.5-9.5-.5-7-3.5-7-3.5 1.5-7.5 1.5-7.5-1-9-1-9-1.5-9.5-1.5-9.5-1-7-1-7 .5-8 .5-8-2.5-8.5-2.5-8.5 1.5-4.5 1.5-4.5 2-6 2-6v-.5-.5h-2-2-1-1-1.5-1.5-2-2l-.5.5-.5.5-1-.5-1-.5-1.5.5-1.5.5v2 2l.5 2 .5 2 1 1.5 1 1.5.5 1.5.5 1.5-.5 1.5-.5 1.5-.5 2-.5 2-1 .5-1 .5v1.5 1.5l3 5.5 3 5.5 1.5 7.5 1.5 7.5 1.5 9.5 1.5 9.5.5 9.5.5 9.5v6 6l-6 7.5-6 7.5h-.5-.5v2 2 2 2 2.5 2.5l8.5 1.5 8.5 1.5 3 5 3 5h-1.5-1.5-2-2-1-1-1.5-1.5l-1.5-.5-1.5-.5h-1-1-1.5-1.5l-1.5.5-1.5.5v3 3 2 2h9.5 9.5l9.5 1.5 9.5 1.5 7.5 1.5 7.5 1.5 5 3 5 3 6 1 6 1 4-1 4-1 6.5 1.5 6.5 1.5 6.5 2.5 6.5 2.5 7.5-1.5 7.5-1.5 7.5 1.5 7.5 1.5 7 1 7 1 3.5 2.5 3.5 2.5 6.5-.5 6.5-.5 7.5 1.5 7.5 1.5 7 3 7 3 4 4 4 4-8.5.5-8.5.5-6-2-6-2-5.5 1.5-5.5 1.5-8.5 1.5-8.5 1.5-8.5.5-8.5.5-7.5 1.5-7.5 1.5-8.5 1.5-8.5 1.5-12.5 2-12.5 2-9-2.5-9-2.5-10-1-10-1-10.5-1-10.5-1-10 1.5-10 1.5v3 3l10-1.5 10-1.5h9 9l-2 4-2 4-7.5 2.5-7.5 2.5-9.5 4-9.5 4v2 2 2.5 2.5 2 2 1 1l8-2.5 8-2.5 7.5-3 7.5-3 8-3.5 8-3.5-4.5 3.5-4.5 3.5-7 4-7 4-12 6.5-12 6.5v2.5 2.5 2.5 2.5 2 2 2.5 2.5.5.5" style="fill:#353027;stroke:#353027"/><path d="m0 355v1l12-6.5 12-6.5 7-4 7-4 4.5-3.5 4.5-3.5-8 3.5-8 3.5-7.5 3-7.5 3-8 2.5-8 2.5v3 3 1.5 1.5" style="fill:#221d13;stroke:#221d13"/><path d="m0 330v1l9.5-4 9.5-4 7.5-2.5 7.5-2.5 2-4 2-4h-9-9l-10 1.5-10 1.5v3 3 2.5 2.5 2 2 1 1" style="fill:#5a5449;stroke:#5a5449"/><path d="m276 328l2 1-9-7-9-7-7-2.5-7-2.5 5.5 6 5.5 6 2-1 2-1 7.5 4 7.5 4" style="fill:#353027;stroke:#353027"/><path d="m638 327v1h.5.5v-18.5-18.5-10-10-10-10-10-10-10-10-10-10-11-11-11-11-10.5-10.5l-.5-10.5-.5-10.5v10.5 10.5 11 11 11.5 11.5 11 11 11 11 16.5 16.5 17.5 17.5 11 11 11 11" style="fill:#9c978b;stroke:#9c978b"/><path d="m79 313l25-4 8.5-1.5 8.5-1.5 7.5-1.5 7.5-1.5 8.5-.5 8.5-.5 8.5-1.5 8.5-1.5 5.5-1.5 5.5-1.5 6 2 6 2 8.5-.5 8.5-.5-4-4-4-4-7-3-7-3-7.5-1.5-7.5-1.5-6.5.5-6.5.5-3.5-2.5-3.5-2.5-7-1-7-1-7.5-1.5-7.5-1.5-7.5 1.5-7.5 1.5-6.5-2.5-6.5-2.5-6.5-1.5-6.5-1.5-4 1-4 1-6-1-6-1-5-3-5-3-7.5-1.5-7.5-1.5-9.5-1.5-9.5-1.5h-9.5-9.5v11.5 11.5 11 11 3 3l10-1.5 10-1.5 10.5 1 10.5 1 10 1 10 1 9 2.5 9 2.5" style="fill:#221d13;stroke:#221d13"/><g style="fill:#9c978b;stroke:#9c978b"><path d="m244 304l3 1v-.5-.5l-1-.5-1-.5h-1.5-1.5l-.5-.5-.5-.5-1-.5-1-.5-1.5-.5-1.5-.5-.5-.5-.5-.5-1-.5-1-.5-1.5-.5-1.5-.5-.5-.5-.5-.5-1.5-.5-1.5-.5 1 1 1 1 .5 1 .5 1 .5.5.5.5 1.5.5 1.5.5h1.5 1.5l.5.5.5.5 1.5.5 1.5.5 2 .5 2 .5"/><path d="m207 303l3 1h2 2l2-.5 2-.5 1-1 1-1 1.5-1 1.5-1 1-1 1-1 .5-1 .5-1-1-.5-1-.5-1-1-1-1-8-4-8-4-6.5-4.5-6.5-4.5-6.5-4-6.5-4-8.5 1-8.5 1-2 .5-2 .5-1.5-.5-1.5-.5h-1.5-1.5l-1.5-.5-1.5-.5-1.5-.5-1.5-.5-1.5-1-1.5-1h-1.5-1.5l-2-.5-2-.5-2-.5-2-.5-1.5-.5-1.5-.5-2-.5-2-.5h-2-2l-2.5-1-2.5-1h-1.5-1.5-1.5-1.5l-1.5-.5-1.5-.5h-1.5-1.5l-.5-.5-.5-.5-.5-.5-.5-.5v-1.5-1.5l-.5-.5-.5-.5-.5.5-.5.5-1 .5-1 .5-1 .5-1 .5-1 .5-1 .5-1.5-.5-1.5-.5-4-6.5-4-6.5-2.5-5.5-2.5-5.5 1-2.5 1-2.5-1.5 1-1.5 1-1.5.5-1.5.5-1 .5-1 .5-.5 1-.5 1 .5.5.5.5v1 1h1.5 1.5l1.5-.5 1.5-.5.5-.5.5-.5v1.5 1.5l-1.5.5-1.5.5-.5-.5-.5-.5-1 .5-1 .5-.5 1.5-.5 1.5-.5.5-.5.5-.5 1-.5 1 .5 1.5.5 1.5.5-1 .5-1 .5-1 .5-1h1 1l.5.5.5.5v1 1l.5 1 .5 1 .5-1 .5-1 3 4.5 3 4.5 9 2.5 9 2.5 9 2 9 2 9 2 9 2 8 3 8 3 14-1 14-1 6 6 6 6 6.5 3.5 6.5 3.5 7 3 7 3-7.5 3.5-7.5 3.5"/></g><path d="m245 303l2 1-1.5-1-1.5-1-.5-.5-.5-.5-1.5-.5-1.5-.5-1-.5-1-.5-.5-.5-.5-.5-1.5-.5-1.5-.5-1.5-.5-1.5-.5-1.5-1-1.5-1-1.5-.5-1.5-.5-1.5-.5-1.5-.5 1 1 1 1 1 .5 1 .5 1.5.5 1.5.5.5.5.5.5 1.5.5 1.5.5 1 .5 1 .5.5.5.5.5 1.5.5 1.5.5 1 .5 1 .5.5.5.5.5h1.5 1.5" style="fill:#bfbaaf;stroke:#bfbaaf"/><path d="m158 302v1h1.5 1.5 2 2 2.5 2.5 2 2 2.5 2.5 2 2 2.5 2.5 2 2 2.5 2.5 2 2 2.5 2.5l-1.5-.5-1.5-.5h-11-11-11.5-11.5" style="fill:#5a5449;stroke:#5a5449"/><path d="m146 287l3 1 1.5-.5 1.5-.5-1-1.5-1-1.5.5-.5.5-.5-1-1.5-1-1.5-1 1-1 1-1.5 1-1.5 1h-1-1l1 1 1 1 1 .5 1 .5" style="fill:#353027;stroke:#353027"/><path d="m165 274l3 1-.5-.5-.5-.5v-1-1-.5-.5l.5-.5.5-.5.5-.5.5-.5h1 1l1 .5 1 .5h1 1 1 1l.5.5.5.5h1 1 1.5 1.5l-14 1-14 1-8-3-8-3-9-2-9-2-9-2-9-2-9-2.5-9-2.5-3-4.5-3-4.5v1.5 1.5 2 2l-1 1-1 1-1.5-.5-1.5-.5-1-.5-1-.5-.5-.5-.5-.5v-1-1l-.5-1-.5-1-1-1-1-1h-1-1l-1-.5-1-.5v-2-2h1 1l1-.5 1-.5 1.5.5 1.5.5.5-.5.5-.5v-1-1-1-1l-.5-1-.5-1v-1-1l1-.5 1-.5v-.5-.5l1-.5 1-.5 1.5-.5 1.5-.5 1-1 1-1-.5-1-.5-1-1.5.5-1.5.5-1.5.5-1.5.5-1 1-1 1-2 .5-2 .5h-2-2l-2 .5-2 .5-1.5.5-1.5.5h-2.5-2.5l-1.5.5-1.5.5-1.5-.5-1.5-.5-5.5-3.5-5.5-3.5 2-6 2-6-.5-16.5-.5-16.5-.5-.5-.5-.5-1.5-9.5-1.5-9.5-2.5-8.5-2.5-8.5-3-8-3-8-1-9-1-9-.5-1.5-.5-1.5-2 6-2 6-1.5 4.5-1.5 4.5 2.5 8.5 2.5 8.5-.5 8-.5 8 1 7 1 7 1.5 9.5 1.5 9.5 1 9 1 9-1.5 7.5-1.5 7.5 7 3.5 7 3.5 9.5.5 9.5.5h7 7l-1.5 6.5-1.5 6.5 6.5 5 6.5 5 3-3 3-3 5 5 5 5 9.5 1.5 9.5 1.5 9 2 9 2 8.5 2.5 8.5 2.5 9 1.5 9 1.5" style="fill:#5a5449;stroke:#5a5449"/><path d="m156 269l3 1 2-.5 2-.5 1.5-3 1.5-3 3-1 3-1-5-5-5-5-5.5-4.5-5.5-4.5-5-5-5-5-5-5-5-5-6-5-6-5v1 1l4.5 5.5 4.5 5.5 1 2 1 2-5.5-4.5-5.5-4.5-6-4-6-4-1.5 5.5-1.5 5.5 2 6 2 6 2 6 2 6 2.5 6 2.5 6 1.5.5 1.5.5h1 1l.5-.5.5-.5h1.5 1.5l.5.5.5.5.5.5.5.5h1 1 1.5 1.5l.5.5.5.5h1 1l.5.5.5.5 1 .5 1 .5 1 .5 1 .5h1.5 1.5l1.5 1 1.5 1 1.5.5 1.5.5 1.5.5 1.5.5h1.5 1.5" style="fill:#f2ede1;stroke:#f2ede1"/><path d="m137 264l4 1-1-.5-1-.5-1-.5-1-.5-.5-.5-.5-.5h-1-1l-.5-.5-.5-.5h-1.5-1.5-1-1l-.5-.5-.5-.5-.5-.5-.5-.5h-1.5-1.5l-.5.5-.5.5h-1-1l-1.5-.5-1.5-.5 2.5 1 2.5 1h2 2l2 .5 2 .5 1.5.5 1.5.5 2 .5 2 .5" style="fill:#ded9cd;stroke:#ded9cd"/><g style="fill:#bfbaaf;stroke:#bfbaaf"><path d="m108 258l3 1h1.5 1.5l-5.5-8.5-5.5-8.5-3 6.5-3 6.5 1-.5 1-.5 1-.5 1-.5.5-.5.5-.5.5.5.5.5v1.5 1.5l.5.5.5.5.5.5.5.5h1.5 1.5"/><path d="m92 255l3 1 1-.5 1-.5-2-.5-2-.5-2.5-8-2.5-8-.5-2.5-.5-2.5 4-4 4-4-6.5 1.5-6.5 1.5 6.5-4.5 6.5-4.5-6.5-.5-6.5-.5-3.5-6.5-3.5-6.5-2.5-8.5-2.5-8.5-4-7-4-7 3 7.5 3 7.5 3 8 3 8-.5 8.5-.5 8.5-13.5 2-13.5 2-.5-10.5-.5-10.5-.5-8.5-.5-8.5-1-10.5-1-10.5-2.5-8.5-2.5-8.5 1-4 1-4 4.5 6.5 4.5 6.5 7 9.5 7 9.5-4-8.5-4-8.5-4-7-4-7-5-6.5-5-6.5-4.5-7-4.5-7v1 1l.5 1 .5 1 3 6 3 6-1 3.5-1 3.5 3 8 3 8v8 8l2 8 2 8v9 9 8 8l10 3 10 3h2 2l2-.5 2-.5 1.5-.5 1.5-.5 1.5-1 1.5-1 1-1 1-1h2.5 2.5 1 1l-1 1.5-1 1.5-1 1-1 1-1 2.5-1 2.5 2.5 5.5 2.5 5.5 4 6.5 4 6.5"/></g><path d="m74 253l3 1 1-1 1-1v-2-2-1.5-1.5l-.5 1-.5 1-.5 1.5-.5 1.5v1 1l-1.5-.5-1.5-.5-.5-1-.5-1-.5-1.5-.5-1.5-.5-1.5-.5-1.5.5-1 .5-1 .5-.5.5-.5.5-1.5.5-1.5 1-.5 1-.5.5.5.5.5 1.5-.5 1.5-.5v-1.5-1.5l-.5.5-.5.5-1.5.5-1.5.5h-1.5-1.5v-1-1l-.5-.5-.5-.5.5-1 .5-1-1 .5-1 .5v1 1l.5 1 .5 1v1 1 1 1l-.5.5-.5.5-1.5-.5-1.5-.5-1 .5-1 .5h-1-1v2 2l1 .5 1 .5h1 1l1 1 1 1 .5 1 .5 1v1 1l.5.5.5.5 1 .5 1 .5" style="fill:#7b756a;stroke:#7b756a"/><path d="m93 253v1l3-7.5 3-7.5-3.5-1.5-3.5-1.5.5 8.5.5 8.5" style="fill:#f2ede1;stroke:#f2ede1"/><g style="fill:#bfbaaf;stroke:#bfbaaf"><path d="m74 251l3 1v-1-1l.5-1.5.5-1.5-.5-1-.5-1v-1-1l-.5-.5-.5-.5h-1-1l-.5 1-.5 1-.5 1-.5 1 .5 1.5.5 1.5.5 1 .5 1"/><path d="m637 247l1 1v-16.5-16.5-11-11-11-11-11.5-11.5-11-11-10.5-10.5h-3-3-2-2-3-3l5.5 7 5.5 7 2 9 2 9v11.5 11.5 11 11 11 11 11 11 10.5 10.5"/></g><path d="m23 246l-6-10-8.5-1.5-8.5-1.5v2 2 2.5 2.5 2 2l1.5-.5 1.5-.5h1.5 1.5 1 1l1.5.5 1.5.5h1.5 1.5 1 1 2 2 1.5 1.5" style="fill:#221d13;stroke:#221d13"/><path d="m45 230l3 1 1.5-.5 1.5-.5h2.5 2.5l1.5-.5 1.5-.5 2-.5 2-.5h2 2l2-.5 2-.5 1-1 1-1-1.5.5-1.5.5-2 .5-2 .5h-2-2l-1 .5-1 .5h-1-1-1-1-1-1l-1 .5-1 .5h-1-1-1-1-1-1l-3-8-3-8v-9.5-9.5l-1.5-8-1.5-8 .5 16.5.5 16.5-2 6-2 6 5.5 3.5 5.5 3.5" style="fill:#7b756a;stroke:#7b756a"/><path d="m46 229h2 1 1 1 1l1-.5 1-.5h1 1 1 1 1 1l1-.5 1-.5-10-3-10-3v-8-8-9-9l-2-8-2-8v-8-8l-3-8-3-8 1-3.5 1-3.5-3-6-3-6-2.5 1.5-2.5 1.5 3 8 3 8 3 8.5 3 8.5 1 11 1 11 1.5 8 1.5 8v9.5 9.5l3 8 3 8" style="fill:#9c978b;stroke:#9c978b"/><g style="fill:#7b756a;stroke:#7b756a"><path d="m73 229v1l1-.5 1-.5 1.5-.5 1.5-.5 1.5-1 1.5-1 1-1 1-1 1-1.5 1-1.5h-1-1-2.5-2.5l-1 1-1 1-1.5 1-1.5 1 1.5-.5 1.5-.5 1.5-.5 1.5-.5.5 1 .5 1-1 1-1 1-1.5.5-1.5.5-1 .5-1 .5"/><path d="m25 228l5-15 2-7 2-7-1-10-1-10-2.5-8.5-2.5-8.5h-1.5-1.5l-.5 9.5-.5 9.5.5 9.5.5 9.5.5 3 .5 3 .5-1 .5-1-.5-1-.5-1v-1-1l.5-1 .5-1 1 1 1 1v2.5 2.5l.5 1.5.5 1.5v2 2l-.5.5-.5.5v1.5 1.5l-.5 1.5-.5 1.5v1 1 1.5 1.5l-1 .5-1 .5-.5-1.5-.5-1.5v-1-1-1-1l.5-1 .5-1v-1-1-1-1-1-1-1.5-1.5l-.5 2.5-.5 2.5v2 2l-.5 2-.5 2v2 2l.5 2 .5 2h.5.5"/></g><path d="m46 226l27-4 .5-8.5.5-8.5-3-8-3-8-3-7.5-3-7.5-7-9.5-7-9.5-4.5-6.5-4.5-6.5-1 4-1 4 2.5 8.5 2.5 8.5 1 10.5 1 10.5.5 8.5.5 8.5.5 10.5.5 10.5" style="fill:#ded9cd;stroke:#ded9cd"/><path d="m25 225l2-1v-1.5-1.5-1-1l.5-1.5.5-1.5v-1.5-1.5l.5-.5.5-.5v-2-2l-.5-1.5-.5-1.5v-2.5-2.5l-1-1-1-1-.5 1-.5 1v1 1l.5 1 .5 1-.5 1-.5 1v.5.5 1.5 1.5 1 1 1 1 1 1l-.5 1-.5 1v1 1 1 1l.5 1.5.5 1.5" style="fill:#9c978b;stroke:#9c978b"/><path d="m1 220l12-15v-6-6l-.5-9.5-.5-9.5-1.5-9.5-1.5-9.5-1.5-7.5-1.5-7.5-3-5.5-3-5.5v12 12 11 11 11 11 11 11 .5.5h.5.5" style="fill:#221d13;stroke:#221d13"/><g style="fill:#f2ede1;stroke:#f2ede1"><path d="m58 219l12-8-.5-7.5-.5-7.5-4-7-4-7-4-7-4-7-1 .5-1 .5 4 7 4 7 1 7 1 7-4-7-4-7-2 2-2 2 3 6.5 3 6.5 2.5 5.5 2.5 5.5-6-1-6-1 5 5 5 5"/><path d="m84 211l21-3-4-5-4-5 4-6 4-6 2-8 2-8 2-8 2-8 2.5-7.5 2.5-7.5 2-8 2-8 1.5-9 1.5-9h-12-12-11-11-11-11-12-12l.5 7.5.5 7.5 3 7 3 7 4 6 4 6 4 6 4 6 4 6 4 6 3 7 3 7 2.5 7.5 2.5 7.5 4.5 6 4.5 6"/></g><path d="m31 197v-18l-1.5.5-1.5.5 1.5 8.5 1.5 8.5" style="fill:#9c978b;stroke:#9c978b"/><path d="m162 195l3 1-1-1-1-1-.5-2-.5-2-.5-1.5-.5-1.5-1-1.5-1-1.5-.5 1.5-.5 1.5-1.5 1-1.5 1-1 1-1 1 1.5.5 1.5.5 1.5 1 1.5 1 1.5.5 1.5.5" style="fill:#bfbaaf;stroke:#bfbaaf"/><path d="m133 188l10-15 2.5-8.5 2.5-8.5 3.5-1.5 3.5-1.5-1-8-1-8 4-3 4-3-1-3.5-1-3.5.5-9.5.5-9.5h-2.5-2.5-2.5-2.5-1.5-1.5l-2 9-2 9-4 2-4 2 3 1 3 1-2 3-2 3-1.5 5.5-1.5 5.5-.5 7-.5 7-.5 5.5-.5 5.5.5 8.5.5 8.5" style="fill:#f2ede1;stroke:#f2ede1"/><path d="m36 177l1 1-1-11-1-11-3-8.5-3-8.5-3-8-3-8 2.5-1.5 2.5-1.5-.5-1-.5-1-.5-.5-.5-.5-.5-1.5-.5-1.5-1-.5-1-.5-.5-1.5-.5-1.5-.5-.5-.5-.5-.5-1-.5-1 1 9 1 9 3 8 3 8 2.5 8.5 2.5 8.5 1.5 9.5 1.5 9.5" style="fill:#7b756a;stroke:#7b756a"/><path d="m535 172l17-2-.5-6-.5-6 7.5 1.5 7.5 1.5 7.5 3.5 7.5 3.5 6.5.5 6.5.5-5-4-5-4-6-5.5-6-5.5-5.5-5.5-5.5-5.5-5.5-5.5-5.5-5.5-3.5-4.5-3.5-4.5-2.5-7-2.5-7h-12-12-11-11-11-11-11.5-11.5-15-15l12 7.5 12 7.5 6.5 3.5 6.5 3.5 6 4 6 4 7 4 7 4 6.5 3.5 6.5 3.5 6.5 3.5 6.5 3.5 7 4 7 4 7.5 3.5 7.5 3.5" style="fill:#f2ede1;stroke:#f2ede1"/><path d="m308 128l3 1h2 2l1.5-1 1.5-1 1-1 1-1 1-.5 1-.5v-1-1l1-1 1-1 .5-1 .5-1 .5-.5.5-.5v-2-2l-.5-1.5-.5-1.5-.5-2.5-.5-2.5h-2-2-.5-.5l.5 1 .5 1-1 1-1 1-.5 2-.5 2v1 1h2.5 2.5v1 1l-1 1-1 1-.5.5-.5.5-1 .5-1 .5-2-.5-2-.5-1.5-.5-1.5-.5-.5-.5-.5-.5-.5-.5-.5-.5v-1-1l-.5-1-.5-1-.5-.5-.5-.5-.5-.5-.5-.5h-1-1l-.5-1-.5-1-1-1-1-1-.5-.5-.5-.5-1.5-.5-1.5-.5-1 .5-1 .5-.5.5-.5.5-.5.5-.5.5h-1-1l-1.5-.5-1.5-.5h-1.5-1.5l-1-.5-1-.5h-1-1l-1-.5-1-.5h-1-1l7.5 2 7.5 2v3 3l-7 .5-7 .5 7 4 7 4 8.5 2 8.5 2" style="fill:#ded9cd;stroke:#ded9cd"/><path d="m0 125v1l1-.5 1-.5.5-2 .5-2 .5-1.5.5-1.5-.5-1.5-.5-1.5-1-1.5-1-1.5-.5-2-.5-2v2 2 2 2 2 2 2.5 2.5" style="fill:#221d13;stroke:#221d13"/><g style="fill:#bfbaaf;stroke:#bfbaaf"><path d="m296 123l3 1 1.5-.5 1.5-.5.5-2 .5-2 1-1 1-1-2-.5-2-.5-1.5.5-1.5.5h-2.5-2.5l-1.5.5-1.5.5-.5 1.5-.5 1.5h2.5 2.5l1 1 1 1"/><path d="m313 120l4 1 1-.5 1-.5.5-.5.5-.5 1-1 1-1v-1-1h-2.5-2.5v-1-1l.5-2 .5-2 1-1 1-1-.5-1-.5-1h-2.5-2.5-2-2-2.5-2.5-2-2-2.5-2.5l1.5.5 1.5.5.5.5.5.5 1 1 1 1 .5 1 .5 1h1 1l.5.5.5.5.5.5.5.5.5 1 .5 1v1 1l.5.5.5.5.5.5.5.5 1.5.5 1.5.5"/></g><g style="fill:#9c978b;stroke:#9c978b"><path d="m26 117l1 1v-1-1l-.5-1.5-.5-1.5-1-1.5-1-1.5-.5-1-.5-1v-1.5-1.5-.5-.5l-.5-.5-.5-.5h-1-1-.5-.5v.5.5l.5 1.5.5 1.5.5 1 .5 1 .5.5.5.5.5 1.5.5 1.5 1 .5 1 .5.5 1.5.5 1.5"/><path d="m287 107l3 1h1 1l.5-.5.5-.5.5-.5.5-.5 1-.5 1-.5h2.5 2.5 2 2 2.5 2.5 2 2 2.5 2.5.5.5v-.5-.5h-2-2l-1.5-.5-1.5-.5h-1.5-1.5-2-2-2-2-2.5-2.5-2-2-2.5-2.5-2-2-2-2l-1 .5-1 .5v.5.5l1 .5 1 .5h1 1l1 .5 1 .5h1.5 1.5"/></g><g style="fill:#bfbaaf;stroke:#bfbaaf"><path d="m23 104v1h1.5 1.5 2 2 1.5 1.5 12 12 11 11 11 11 12 12 1.5 1.5 2.5 2.5 2 2 2.5 2.5 2.5 2.5 1.5 1.5 2.5 2.5 2.5 2.5 2 2 2 2 1.5 1.5 1 1 2 2 2 2 13.5 13.5 11 11 11 11 12 12 1 1v-.5-.5h-11-11-11-11-11.5-11.5-11-11-11-11-11-11-11-11-11.5-11.5-11-11-11-11-16.5-16.5"/><path d="m320 104v1h2 2 13 13 10 10 10 10 11 11 2.5 2.5 15 15 11.5 11.5 11 11 11 11 12 12 13 13 11 11 10.5 10.5v-.5-.5h-10.5-10.5-10.5-10.5-11.5-11.5-11-11-11-11-11-11-11-11-11.5-11.5-11-11-11-11-11-11-11-11-11.5-11.5"/></g><path d="m607 104v1h1.5 1.5 2 2 1.5 1.5 1 1 1.5 1.5 3 3 2 2 3 3l.5-.5.5-.5-10.5-1-10.5-1h-11-11-10-10-10-10-10-10-10-10-10-10-10-10-10-10-10-10-10-10-10-10-10-10-10-10-10-10-10-10-11-11-10-10-10-10-10-10-10-10-10-10-10-10-10-10-10-10-10-10-10-10-10-10-10-10l-17 .5-17 .5h1 1 10.5 10.5 11 11 11 11 11.5 11.5 11 11 11 11 11 11 11 11 11.5 11.5 11 11 18.5 18.5 2 2 2 2 2.5 2.5 2 2 2.5 2.5 2 2 2 2 1.5 1.5 11.5 11.5 11 11 11.5 11.5 11 11 11 11 11 11 11 11 11.5 11.5 11 11 11 11 11 11 11 11 11.5 11.5 11 11l1.5.5 1.5.5h-10.5-10.5" style="fill:#221d3f;stroke:#221d3f"/><path d="m0 103v1l1.5-.5 1.5-.5 1 .5 1 .5.5-.5.5-.5h2 2 1.5 1.5 1 1 2 2 .5.5l17-.5 17-.5h10 10 10 10 10 10 10 10 10 10 10 10 10 10 10 10 10 10 10 10 10 10 10 10 11 11 10 10 10 10 10 10 10 10 10 10 10 10 10 10 10 10 10 10 10 10 10 10 10 10 10 10 10 10 11 11l10.5 1 10.5 1h.5.5v-11.5-11.5-11-11-11.5-11.5-11-11-7-7h-4-4-11-11-11-11-11.5-11.5-11-11-11-11-11-11-11-11-11.5-11.5-11-11-11-11-11-11-11-11-11.5-11.5-11-11-11-11-11-11-11.5-11.5-11-11-11-11-11-11-11-11-11.5-11.5-11-11-11-11-11-11-11-11-11.5-11.5-11-11-5-5v6 6 11 11 11 11 11.5 11.5 11 11 1 1" style="fill:#221d13;stroke:#221d13"/><g style="fill:#7b756a;stroke:#7b756a"><path d="m22 103l1 1h16.5 16.5 11 11 11 11 11.5 11.5 11 11 11 11 11 11 11 11 11.5 11.5 11 11 11 11l1-.5 1-.5h-18.5-18.5-11-11-11.5-11.5-11-11-11-11-11-11-11-11-11.5-11.5-11-11-11-11-10.5-10.5"/><path d="m313 103l3 1h2 2 11.5 11.5 11 11 11 11 11 11 11 11 11.5 11.5 11 11 11 11 11 11 11 11 11.5 11.5 10.5 10.5 10.5 10.5 10.5 10.5l-1.5-.5-1.5-.5h-11-11-11.5-11.5-11-11-11-11-11-11-11-11-11.5-11.5-11-11-11-11-11-11-11-11-11.5-11.5-11-11-11.5-11.5"/></g></g></svg>