<svg xmlns="http://www.w3.org/2000/svg" viewBox="0 0 960 712"><g style="fill:#b6bdcd"><path d="m0 0h960v712h-960z"/><path d="m959 712h1v-35-35-33-33-33-33h-.5-.5-10.5-10.5l-10.5-7-10.5-7-.5-12.5-.5-12.5-3.5-7-3.5-7 7-19 7-19-11-18.5-11-18.5-5.5-15-5.5-15 35-10.5 35-10.5v-28-28h-.5-.5l-7 .5-7 .5-5.5-5.5-5.5-5.5h-13.5-13.5l-6.5 25.5-6.5 25.5 1.5.5 1.5.5.5.5.5.5.5 1 .5 1-.5 2-.5 2-8 26-8 26-7 36-7 36-5-26-5-26 9-33 9-33-5 8.5-5 8.5-3.5-3.5-3.5-3.5-5.5 3-5.5 3 7.5-10 7.5-10v-27-27l-12.5-10-12.5-10-8.5-13.5-8.5-13.5-7-1.5-7-1.5-2-5.5-2-5.5 21-3 21-3 27.5-1 27.5-1 16.5-7.5 16.5-7.5-7-6.5-7-6.5 7-6.5 7-6.5-4.5-7.5-4.5-7.5-14.5-7-14.5-7-13.5-2.5-13.5-2.5-21.5 6-21.5 6-8.5-11-8.5-11-4.5-10.5-4.5-10.5-6-4.5-6-4.5 6-3 6-3 3.5-2 3.5-2 24-1.5 24-1.5 18-5 18-5-13-6.5-13-6.5-26.5-.5-26.5-.5-28.5-2-28.5-2h-26.5-26.5l-26.5-.5-26.5-.5-28-.5-28-.5-13-1-13-1 29-.5 29-.5 26-.5 26-.5 15.5-2.5 15.5-2.5 18.5 1 18.5 1 1.5-7.5 1.5-7.5 7 5.5 7 5.5 4-17 4-17h-34.5-34.5-33.5-33.5-33-33-33.5-33.5-33.5-33.5-33-33-33.5-33.5-33-33-33.5-33.5-1-1l-6 7.5-6 7.5 6.5 5 6.5 5-10 5-10 5-22 1.5-22 1.5 20.5 2 20.5 2h17 17l7 7.5 7 7.5-16.5 5.5-16.5 5.5-7-3.5-7-3.5-11.5 15-11.5 15-1 3-1 3 10 4.5 10 4.5 6 11 6 11 1.5 17 1.5 17 2.5 18 2.5 18-4 5-4 5-12-1.5-12-1.5-16 5-16 5-.5 12-.5 12 6-6.5 6-6.5 9.5 12.5 9.5 12.5 6.5 6 6.5 6 2.5-7.5 2.5-7.5 11.5-6 11.5-6 15.5 1 15.5 1 16 2 16 2 1.5 16 1.5 16 3 8 3 8 5-3.5 5-3.5 1.5-14 1.5-14 22.5-3.5 22.5-3.5h29.5 29.5l14.5 13.5 14.5 13.5-7.5 9-7.5 9-.5 15.5-.5 15.5 18 14 18 14 2-23.5 2-23.5 7.5-18 7.5-18 16.5-6 16.5-6 9 6 9 6 9-4.5 9-4.5 7-.5 7-.5 9.5 5.5 9.5 5.5 10.5 4 10.5 4 5 11.5 5 11.5-9 13.5-9 13.5-45.5 2-45.5 2-6.5 23.5-6.5 23.5 7.5 33.5 7.5 33.5 1 .5 1 .5.5 1.5.5 1.5.5 1.5.5 1.5.5.5.5.5v1.5 1.5 1.5 1.5h-2-2l-18.5-2-18.5-2-2.5 10.5-2.5 10.5 13 2.5 13 2.5-2.5 8-2.5 8 12.5 2.5 12.5 2.5 22 3.5 22 3.5 6.5 11.5 6.5 11.5 7 12.5 7 12.5 2-10 2-10 13.5-9 13.5-9 24-3.5 24-3.5 24.5.5 24.5.5 13.5 14 13.5 14 .5 25.5.5 25.5-2.5 13-2.5 13-2 10.5-2 10.5 22.5 1.5 22.5 1.5 18.5 7 18.5 7 33 .5 33 .5h1.5 1.5l14.5-7 14.5-7-8.5 5-8.5 5 26.5 1 26.5 1 32.5.5 32.5.5-30.5 2.5-30.5 2.5-30.5 1-30.5 1-29 1-29 1-24 4.5-24 4.5 10.5 4.5 10.5 4.5 20 1.5 20 1.5-2.5 12.5-2.5 12.5h1 1l1.5-1 1.5-1h2 2 2 2 1 1 1.5 1.5 2 2 1 1 1.5 1.5 2 2 2.5 2.5 2 2l.5 1 .5 1h34.5 34.5 33.5 33.5.5.5" style="stroke:#b6bdcd;stroke-linejoin:round;stroke-width:.7"/></g><g style="stroke-linejoin:round;stroke-width:.7"><path d="m959 510h1v-24.5-24.5h-.5-.5l.5-30.5.5-30.5v-34-34-.5-.5l-35 10.5-35 10.5 5.5 15 5.5 15 11 18.5 11 18.5-7 19-7 19 3.5 7 3.5 7 .5 12.5.5 12.5 10.5 7 10.5 7h10.5 10.5" style="fill:#d2d6e0;stroke:#d2d6e0"/><path d="m959 461h1v-30.5-30.5l-.5 30.5-.5 30.5" style="fill:#b6bdcd;stroke:#b6bdcd"/><path d="m959 275h1v-35-35-33-33-33.5-33.5-8-8h-.5-.5l-24-1.5-24-1.5 11.5-9.5 11.5-9.5 3-17 3-17h-34.5-34.5-33.5-33.5-17.5-17.5l-4 17-4 17-7-5.5-7-5.5-1.5 7.5-1.5 7.5-18.5-1-18.5-1-15.5 2.5-15.5 2.5-26 .5-26 .5-29 .5-29 .5 13 1 13 1 28 .5 28 .5 26.5.5 26.5.5h26.5 26.5l28.5 2 28.5 2 26.5.5 26.5.5 13 6.5 13 6.5-18 5-18 5-24 1.5-24 1.5-3.5 2-3.5 2-6 3-6 3 6 4.5 6 4.5 4.5 10.5 4.5 10.5 8.5 11 8.5 11 21.5-6 21.5-6 13.5 2.5 13.5 2.5 14.5 7 14.5 7 4.5 7.5 4.5 7.5-7 6.5-7 6.5 7 6.5 7 6.5-16.5 7.5-16.5 7.5-27.5 1-27.5 1-21 3-21 3 2 5.5 2 5.5 7 1.5 7 1.5 8.5 13.5 8.5 13.5 12.5 10 12.5 10v27 27l-7.5 10-7.5 10 5.5-3 5.5-3 3.5 3.5 3.5 3.5 5-8.5 5-8.5.5-1 .5-1 .5-2 .5-2 .5-1.5.5-1.5 1-1.5 1-1.5.5-1.5.5-1.5 1.5-1 1.5-1 1.5.5 1.5.5 2 .5 2 .5 1 .5 1 .5 6.5-25.5 6.5-25.5h13.5 13.5l5.5 5.5 5.5 5.5 7-.5 7-.5" style="fill:#d2d6e0;stroke:#d2d6e0"/><path d="m959 56h1v-28-28h-7-7-3-3l-3 17-3 17-11.5 9.5-11.5 9.5 24 1.5 24 1.5" style="fill:#e3e7ea;stroke:#e3e7ea"/><path d="m953 657l-65-1-26.5-1-26.5-1 8.5-5 8.5-5-14.5 7-14.5 7 63-.5 63-.5-33 1.5-33 1.5-52 1.5-52 1.5-.5.5-.5.5-40 .5-40 .5h-.5-.5-1.5-1.5-1.5-1.5l-.5.5-.5.5h-34.5-34.5-33-33-35-35-24.5-24.5l-.5.5-.5.5h-37-37-1-1-1-1l-.5.5-.5.5-.5-.5-.5-.5h-1.5-1.5-1-1l-.5.5-.5.5h-1-1l-1.5-.5-1.5-.5-.5.5-.5.5-55 .5-55 .5h-.5-.5-33.5-33.5l-39-6-39-6v-27.5-27.5l-.5-28-.5-28 3-11 3-11 6 7.5 6 7.5 7-4 7-4 3.5 3 3.5 3 3.5 1 3.5 1 10 3 10 3 10-7.5 10-7.5 3 8.5 3 8.5 4 10 4 10-18-7.5-18-7.5-22.5-.5-22.5-.5-1 8.5-1 8.5 9.5-2 9.5-2 10 4 10 4 24.5-1 24.5-1-16.5 5.5-16.5 5.5-6 3-6 3-13-4.5-13-4.5-5 4.5-5 4.5-9 37.5-9 37.5 22-.5 22-.5h10 10l16.5-5 16.5-5 12.5.5 12.5.5 23 6 23 6h1.5 1.5 2.5 2.5 2 2l1.5-.5 1.5-.5 2 .5 2 .5 36.5-.5 36.5-.5h1 1l26.5-1 26.5-1 38 .5 38 .5h1 1 5.5 5.5l1.5-.5 1.5-.5 1.5.5 1.5.5h2.5 2.5 2 2 1.5 1.5l49-.5 49-.5h2.5 2.5l1.5-.5 1.5-.5h2 2l2 .5 2 .5 32-.5 32-.5 64-1 64-1-33-.5-33-.5-18.5-7-18.5-7-22.5-1.5-22.5-1.5 2-10.5 2-10.5 2.5-13 2.5-13-.5-25.5-.5-25.5-13.5-14-13.5-14-24.5-.5-24.5-.5-24 3.5-24 3.5-13.5 9-13.5 9-2 10-2 10-7-12.5-7-12.5-6.5-11.5-6.5-11.5-22-3.5-22-3.5-12.5-2.5-12.5-2.5 2.5-8 2.5-8-13-2.5-13-2.5 2.5-10.5 2.5-10.5 18.5 2 18.5 2-16-16.5-16-16.5-4-30-4-30-.5 1-.5 1 1 1 1 1-.5.5-.5.5v1.5 1.5 1.5 1.5l-12-3-12-3-8.5 19.5-8.5 19.5 1.5 21 1.5 21-12-19.5-12-19.5-3-6-3-6-15 18.5-15 18.5-24.5 6.5-24.5 6.5-24.5 1-24.5 1-23-10.5-23-10.5-6-26-6-26 10-23.5 10-23.5 18.5-14.5 18.5-14.5 29-4.5 29-4.5 31 20 31 20 1-1 1-1h1 1 2.5 2.5l1.5.5 1.5.5-.5 1.5-.5 1.5v3 3l-.5 1.5-.5 1.5.5 1 .5 1v2 2 2 2l-1 .5-1 .5-.5-1.5-.5-1.5-1 .5-1 .5 4.5-18.5 4.5-18.5 10 2.5 10 2.5.5-15.5.5-15.5 7.5-9 7.5-9-14.5-13.5-14.5-13.5h-29.5-29.5l-22.5 3.5-22.5 3.5-1.5 14-1.5 14-5 3.5-5 3.5-3-8-3-8-1.5-16-1.5-16-16-2-16-2-15.5-1-15.5-1-11.5 6-11.5 6-2.5 7.5-2.5 7.5-6.5-6-6.5-6-9.5-12.5-9.5-12.5-6 6.5-6 6.5.5-12 .5-12 16-5 16-5 12 1.5 12 1.5 4-5 4-5-2.5-18-2.5-18-1.5-17-1.5-17-6-11-6-11-10-4.5-10-4.5 1-3 1-3 11.5-15 11.5-15 7 3.5 7 3.5 16.5-5.5 16.5-5.5-7-7.5-7-7.5h-17-17l-20.5-2-20.5-2 22-1.5 22-1.5 10-5 10-5-6.5-5-6.5-5 6-7.5 6-7.5h-33.5-33.5-18.5-18.5v1.5 1.5 1 1l.5.5.5.5-.5.5-.5.5v1 1l-9.5 1-9.5 1v1.5 1.5l-1 1.5-1 1.5v1.5 1.5h1.5 1.5l1.5-.5 1.5-.5 2 .5 2 .5 1.5.5 1.5.5-.5 1.5-.5 1.5-1 2-1 2-2-.5-2-.5h-1-1l-1.5.5-1.5.5.5-2 .5-2-1-1-1-1-7 14.5-7 14.5-1.5 14-1.5 14-2 16-2 16-3 14.5-3 14.5-5 13-5 13-1.5 24-1.5 24v34.5 34.5 33.5 33.5 33 33 16 16l1 1 1 1 1 1 1 1v1.5 1.5l-1 1-1 1 2 .5 2 .5 1.5.5 1.5.5v1 1l-.5 1-.5 1-.5.5-.5.5-.5.5-.5.5-.5-.5-.5-.5-1-.5-1-.5-.5-.5-.5-.5-1-1-1-1v31.5 31.5l4.5 14.5 4.5 14.5 3.5-1 3.5-1 5.5 9 5.5 9 5.5 17.5 5.5 17.5-10 6.5-10 6.5 2 .5 2 .5.5-.5.5-.5-1 2-1 2 12 4.5 12 4.5-9 5.5-9 5.5-13.5 10.5-13.5 10.5v1.5 1.5 2.5 2.5 2 2 2.5 2.5 2 2 2.5 2.5 1.5 1.5l10.5 11 10.5 11h35 35 33 33 33.5 33.5 33 33 33.5 33.5 33.5 33.5 33 33 33.5 33.5 33 33 33.5 33.5 33.5 33.5 12 12l2.5-12.5 2.5-12.5-20-1.5-20-1.5-10.5-4.5-10.5-4.5 24-4.5 24-4.5 29-1 29-1 30.5-1 30.5-1 30.5-2.5 30.5-2.5" style="fill:#a1a9ba;stroke:#a1a9ba"/><path d="m949 657l-126 1h-1.5-1.5l-64 1-64 1-.5.5-.5.5h-31.5-31.5l-2-.5-2-.5h-2-2l-1.5.5-1.5.5h-2.5-2.5v.5.5h34.5 34.5l38 .5 38 .5 1-.5 1-.5 1 .5 1 .5h1 1l.5-.5.5-.5-.5-.5-.5-.5h1.5 1.5l-.5.5-.5.5.5.5.5.5h1 1 1.5 1.5 1 1 1 1 2 2l52-1.5 52-1.5 33-1.5 33-1.5" style="fill:#778;stroke:#778"/><g style="fill:#f51200;stroke:#f51200"><path d="m898 324l1-4-.5-1-.5-1-.5-.5-.5-.5-1.5-.5-1.5-.5-1-.5-1-.5-2-.5-2-.5-1.5-.5-1.5-.5-1.5 1-1.5 1-.5 1.5-.5 1.5-1 1.5-1 1.5-.5 1.5-.5 1.5-.5 2-.5 2-.5 1-.5 1-.5 2-.5 2-7 26.5-7 26.5 3.5 30.5 3.5 30.5 7-36 7-36 8-26 8-26"/><path d="m881 468l1-3v-2-2h-.5-.5-.5-.5l-.5 5.5-.5 5.5 1-1.5 1-1.5v-.5-.5"/></g><g style="fill:#998e90;stroke:#998e90"><path d="m880 461h1l-7 8-7 8 6-2.5 6-2.5.5-5.5.5-5.5"/><path d="m875 334l1-4-9 33-9 33 5 26 5 26-3.5-30.5-3.5-30.5 7-26.5 7-26.5"/></g><path d="m847 400l-10-59-16.5-16.5-16.5-16.5-23-4.5-23-4.5-25 8-25 8-16 17.5-16 17.5-7 2-7 2 1.5-22 1.5-22-8.5-5-8.5-5-2 27-2 27-1.5 30-1.5 30-12-12-12-12-10.5-23-10.5-23-.5-4-.5-4-17.5 8.5-17.5 8.5-15.5 16-15.5 16-17 6-17 6-12.5 13-12.5 13 8 18.5 8 18.5h24 24l26 .5 26 .5 16.5-10.5 16.5-10.5 18.5 7 18.5 7 3.5-11 3.5-11 13.5 5.5 13.5 5.5 24 7.5 24 7.5 23.5-5.5 23.5-5.5 21-6.5 21-6.5 10-17 10-17" style="fill:#a1a9ba;stroke:#a1a9ba"/><path d="m844 397l-11-58-18-15-18-15-28.5-2-28.5-2-21.5 11.5-21.5 11.5-13 20.5-13 20.5 1.5 27.5 1.5 27.5 20.5 13 20.5 13 22.5-1 22.5-1 24-4 24-4 16.5-17 16.5-17 1.5-4.5 1.5-4.5" style="fill:#0e0b03;stroke:#0e0b03"/><path d="m828 382l-18-51-22-11-22-11-24.5 6-24.5 6-8.5 21.5-8.5 21.5-6.5 22-6.5 22 19 14 19 14 30.5-3 30.5-3 19.5-14 19.5-14 1.5-10 1.5-10" style="fill:#141226;stroke:#141226"/><path d="m825 382l-20-49-22.5-9.5-22.5-9.5-22.5 8-22.5 8-10 19-10 19 .5 25 .5 25 12.5 7 12.5 7 6.5-11 6.5-11 14.5 11 14.5 11 25-9 25-9 6-16 6-16" style="fill:#b6bdcd;stroke:#b6bdcd"/><g style="fill:#a1a9ba;stroke:#a1a9ba"><path d="m821 712h1l-.5-1-.5-1h-2-2-2.5-2.5-2-2-1.5-1.5-1-1-2-2-1.5-1.5-1-1-2-2-2-2l-1.5 1-1.5 1h2 2 2.5 2.5 2 2 2.5 2.5 2 2 2.5 2.5 2 2 2 2 1.5 1.5"/><path d="m816 550l-33 4 16.5 1.5 16.5 1.5v-3.5-3.5"/></g><path d="m814 182l-10-19 3 8 3 8 2 1.5 2 1.5" style="fill:#d2d6e0;stroke:#d2d6e0"/><path d="m778 664l1-1h-2-2-1-1-1-1-1.5-1.5-1-1l-.5-.5-.5-.5.5-.5.5-.5h-1.5-1.5l.5.5.5.5-.5.5-.5.5h-1-1l-1-.5-1-.5-1 .5-1 .5h-.5-.5l-29 .5-29 .5v.5.5l40-.5 40-.5" style="fill:#8590a7;stroke:#8590a7"/><path d="m762 433l1-1-14.5-11-14.5-11-6.5 11-6.5 11 1 .5 1 .5h2 2 2.5 2.5 2 2 2 2 2.5 2.5 2 2 2.5 2.5 2 2 2 2" style="fill:#a1a9ba;stroke:#a1a9ba"/><path d="m756 663h1l-38-.5-38-.5h-34.5-34.5-.5-.5-28-28l-9.5 1-9.5 1h33.5 33.5 48 48l29-.5 29-.5" style="fill:#5a5a6a;stroke:#5a5a6a"/><g style="fill:#a1a9ba;stroke:#a1a9ba"><path d="m745 394v-2l.5-1.5.5-1.5-1-1.5-1-1.5-1.5-.5-1.5-.5-2 .5-2 .5-1 1-1 1 .5 2 .5 2 1.5.5 1.5.5h2 2l1 .5 1 .5"/><path d="m736 595l-9-38-7-10-7-10-1.5 20-1.5 20-7.5 10.5-7.5 10.5 20.5-1.5 20.5-1.5"/></g><path d="m697 665h1v-.5-.5h-47-47-33.5-33.5l9.5-1 9.5-1h-2-2-1-1-1-1-1-1-1.5-1.5-1-1-1-1-1-1-1.5-1.5-1-1-1-1-1-1-1.5-1.5-1-1-1-1-1-1-2-2-1.5-1.5-2-2-2.5-2.5l-1.5-.5-1.5-.5-1.5.5-1.5.5h-.5-.5-2-2-3-3-1-1-.5-.5l-64 .5-64 .5h-1-1l-.5.5-.5.5h-36-36l-2-.5-2-.5-1.5.5-1.5.5h-2-2-2.5-2.5-1.5-1.5-.5-.5-34.5-34.5l33 .5 33 .5 32.5.5 32.5.5h-1.5-1.5-1.5-1.5-2.5-2.5-2-2-2.5-2.5-2-2-2-2-1-1l-1 .5-1 .5h27.5 27.5l1.5.5 1.5.5h1 1l.5-.5.5-.5h1 1 1.5 1.5l.5.5.5.5.5-.5.5-.5h1 1 1 1l37.5-.5 37.5-.5h24.5 24.5l-1-.5-1-.5h-1-1l-1.5-.5-1.5-.5-.5.5-.5.5.5-1 .5-1 30 1 30 1h33.5 33.5 43 43 1.5 1.5 1.5 1.5" style="fill:#778;stroke:#778"/><g style="fill:#8590a7;stroke:#8590a7"><path d="m691 661l1-1-32 .5-32 .5h31.5 31.5"/><path d="m690 666l1-1h-43-43-33.5-33.5l-30-1-30-1v.5.5l1.5.5 1.5.5h1 1l1 .5 1 .5h35 35 33 33 34.5 34.5"/></g><path d="m674 464l-28 1 12.5.5 12.5.5 1.5-1 1.5-1" style="fill:#a1a9ba;stroke:#a1a9ba"/><path d="m669 629l-4-25-9-2-9-2-18-1.5-18-1.5 6 4 6 4 4.5 10 4.5 10 7.5 3 7.5 3 11-1 11-1" style="fill:#b6bdcd;stroke:#b6bdcd"/><path d="m663 323l-14 1-1.5 30.5-1.5 30.5-8.5 17-8.5 17-10.5-22.5-10.5-22.5-14.5-17-14.5-17-15.5 18-15.5 18-12 21-12 21-4.5 22-4.5 22 10.5-16 10.5-16 12.5-20.5 12.5-20.5 10-16.5 10-16.5 10.5 22.5 10.5 22.5 14 19.5 14 19.5 14.5-5 14.5-5v-27-27l1.5-26 1.5-26 .5-.5.5-.5" style="fill:#0e0b03;stroke:#0e0b03"/><path d="m611 662h1v-.5-.5l-49 .5-49 .5h2 2 1 1 1 1 1 1 1.5 1.5 1 1 1 1 1 1 1.5 1.5 1 1 1 1 1 1 1.5 1.5 1 1 1 1 1 1 2 2 28 28" style="fill:#8590a7;stroke:#8590a7"/><path d="m556 301l-10-23-10.5-4-10.5-4-9.5-5.5-9.5-5.5-7 .5-7 .5-9 4.5-9 4.5-9-6-9-6-16.5 6-16.5 6-7.5 18-7.5 18-2 23.5-2 23.5 9.5-24 9.5-24 12 14 12 14 45.5-2 45.5-2 9-13.5 9-13.5" style="fill:#a1a9ba;stroke:#a1a9ba"/><path d="m539 297l-42-9 6 4 6 4 15 .5 15 .5" style="fill:#b6bdcd;stroke:#b6bdcd"/><g style="fill:#8590a7;stroke:#8590a7"><path d="m495 662h1-5.5-5.5 3 3 2 2"/><path d="m482 662h1l-38-.5-38-.5-26.5 1-26.5 1 64-.5 64-.5"/></g><path d="m482 171l-23 4-16.5-1.5-16.5-1.5-9-3.5-9-3.5-21.5.5-21.5.5 20-4.5 20-4.5 25-.5 25-.5-7-3-7-3-9-4.5-9-4.5-5-3.5-5-3.5-7.5-4.5-7.5-4.5-16.5-1-16.5-1-9.5 12.5-9.5 12.5-2.5 24-2.5 24 26 .5 26 .5 12.5-.5 12.5-.5 8-2.5 8-2.5 9.5-4 9.5-4 14.5-6 14.5-6" style="fill:#a1a9ba;stroke:#a1a9ba"/><path d="m477 665l1-1v-.5-.5l-.5 1-.5 1" style="fill:#5a5a6a;stroke:#5a5a6a"/><path d="m454 460v-3-1.5-1.5l-.5-.5-.5-.5-.5-1.5-.5-1.5-.5-1.5-.5-1.5-1-.5-1-.5h-.5-.5l-7-33.5-7-33.5 6.5-23.5 6.5-23.5-12-14-12-14-9.5 24-9.5 24-18-14-18-14-10-2.5-10-2.5-4.5 18.5-4.5 18.5v-1.5-1.5l-.5-.5-.5-.5v-1-1l.5-1 .5-1v-1-1-1-1-1-1l-.5-1-.5-1-1.5.5-1.5.5v-1-1l-.5-.5-.5-.5-.5-1-.5-1-31-20-31-20-29 4.5-29 4.5-18.5 14.5-18.5 14.5-10 23.5-10 23.5 6 26 6 26 23 10.5 23 10.5 24.5-1 24.5-1 24.5-6.5 24.5-6.5 15-18.5 15-18.5 3 6 3 6 12 19.5 12 19.5-1.5-21-1.5-21 8.5-19.5 8.5-19.5 2-.5 2-.5h1 1 1 1l.5-.5.5-.5h1.5 1.5l1.5-.5 1.5-.5.5-.5.5-.5h1.5 1.5l2.5-.5 2.5-.5 4 30 4 30 16 16.5 16 16.5h2 2" style="fill:#141226;stroke:#141226"/><path d="m449 457l-17-50 2.5-28.5 2.5-28.5.5-23 .5-23-11 20-11 20-24 9.5-24 9.5-1-24.5-1-24.5-8.5 10.5-8.5 10.5-7.5 8-7.5 8-14-19.5-14-19.5-26.5-6.5-26.5-6.5-26 7.5-26 7.5-16 17-16 17-5.5 28-5.5 28 15 18.5 15 18.5 23.5 6.5 23.5 6.5 24-5.5 24-5.5 22-9.5 22-9.5 9-23 9-23 6.5 27 6.5 27 7-1 7-1-5.5-27-5.5-27 26.5-5 26.5-5 3.5 29.5 3.5 29.5 14 16 14 16" style="fill:#0e0b03;stroke:#0e0b03"/><g style="fill:#a1a9ba;stroke:#a1a9ba"><path d="m449 169l1-3h-2-2l-1.5 1-1.5 1-1 1-1 1-1.5 1-1.5 1 .5 1.5.5 1.5h1.5 1.5 1 1l1.5-.5 1.5-.5 1-1.5 1-1.5v-1-1"/><path d="m448 446h1l-7.5-33.5-7.5-33.5 7 33.5 7 33.5"/></g><path d="m435 667l1-1-37.5.5-37.5.5h37 37" style="fill:#8590a7;stroke:#8590a7"/><path d="m417 63l-21-18h-19-19l-25.5-1-25.5-1-18 2-18 2 17 8.5 17 8.5h27.5 27.5l16-4 16-4 8.5 2 8.5 2 4 1.5 4 1.5" style="fill:#a1a9ba;stroke:#a1a9ba"/><path d="m410 378v-3-1.5-1.5l.5-.5.5-.5-1-1-1-1 .5-1 .5-1-2.5.5-2.5.5h-1.5-1.5l-.5.5-.5.5-1.5.5-1.5.5h-1.5-1.5l-.5.5-.5.5h-1-1-1-1l-2 .5-2 .5 12 3 12 3" style="fill:#b6bdcd;stroke:#b6bdcd"/><path d="m387 654l1-3-.5-1.5-.5-1.5-1.5-1-1.5-1h-2-2-1.5-1.5l-1 1-1 1v2.5 2.5l1 1 1 1h2 2 2.5 2.5l.5-.5.5-.5" style="fill:#8590a7;stroke:#8590a7"/><path d="m371 469l-20 7 8-3 8-3 2-.5 2-.5" style="fill:#b6bdcd;stroke:#b6bdcd"/><path d="m351 664l1-1-36.5.5-36.5.5h36 36" style="fill:#8590a7;stroke:#8590a7"/><path d="m344 338l1-3-1.5-.5-1.5-.5h-2.5-2.5-1-1l-1 1-1 1 .5 1 .5 1 .5.5.5.5v1 1l1.5-.5 1.5-.5.5 1 .5 1v1 1 1 1 1 1l-.5 1-.5 1v1 1l.5.5.5.5v1.5 1.5l1-.5 1-.5.5 1.5.5 1.5 1-.5 1-.5v-2-2-2-2l-.5-1-.5-1 .5-1.5.5-1.5v-3-3" style="fill:#b6bdcd;stroke:#b6bdcd"/><g style="fill:#8590a7;stroke:#8590a7"><path d="m343 668l1-1h-27.5-27.5-2-2-2.5-2.5-2-2-2-2l-.5.5-.5.5h-1.5-1.5-2-2-2.5-2.5-2-2-2.5-2.5-2-2-2-2-2.5-2.5-2-2v.5.5l55-.5 55-.5"/><path d="m335 558l-13-8-9.5-.5-9.5-.5 14.5 7 14.5 7 1.5-2.5 1.5-2.5"/><path d="m327 521l1-3-.5-1.5-.5-1.5-2 .5-2 .5-1.5-.5-1.5-.5-2 .5-2 .5v1 1 1.5 1.5l1.5.5 1.5.5h2 2l2-.5 2-.5"/></g><path d="m323 391l-27-12 11-16 11-16-17-16.5-17-16.5-25.5-1.5-25.5-1.5-17.5 13-17.5 13-10.5 18-10.5 18 6 25 6 25 27 5.5 27 5.5 27.5-6 27.5-6 12.5-15.5 12.5-15.5" style="fill:#141226;stroke:#141226"/><path d="m321 666l-65-1-33-.5-33-.5h-.5-.5l-1.5.5-1.5.5-1.5.5-1.5.5-1 .5-1 .5h45.5 45.5 2 2 2 2 2.5 2.5 2 2l1-.5 1-.5h1 1 2 2 2 2 2.5 2.5 2 2 2.5 2.5 1.5 1.5 1.5 1.5" style="fill:#5a5a6a;stroke:#5a5a6a"/><path d="m321 370l-24-45-22.5-6.5-22.5-6.5-22 7.5-22 7.5-9.5 18.5-9.5 18.5-2 24.5-2 24.5 24 9.5 24 9.5 20-2 20-2 21.5-12 21.5-12-10.5-7-10.5-7 13-10 13-10" style="fill:#a1a9ba;stroke:#a1a9ba"/><path d="m316 360l-16-25-18-5-18-5 .5 7 .5 7 8 1.5 8 1.5-9.5 7.5-9.5 7.5 4.5-2 4.5-2 7 6.5 7 6.5 14-2 14-2 1.5-1 1.5-1" style="fill:#b6bdcd;stroke:#b6bdcd"/><path d="m314 128l-43-12-14.5 6.5-14.5 6.5 12-5.5 12-5.5 4 7 4 7-6.5 10-6.5 10-9-3.5-9-3.5-11.5-9.5-11.5-9.5-13.5 2-13.5 2-5.5 22-5.5 22 10.5 4.5 10.5 4.5 9.5 4 9.5 4 4 5 4 5 23.5-3 23.5-3-6.5-12-6.5-12 8.5-10.5 8.5-10.5 6.5-7 6.5-7 8-.5 8-.5 2-3.5 2-3.5" style="fill:#a1a9ba;stroke:#a1a9ba"/><path d="m311 627v-2l-1-1-1-1v-1.5-1.5l-1-1-1-1-2 .5-2 .5-.5 1.5-.5 1.5.5 2 .5 2 1 1 1 1 .5 1.5.5 1.5 1.5-1 1.5-1 1-1 1-1" style="fill:#8590a7;stroke:#8590a7"/><path d="m271 668l1-1h-45.5-45.5-2-2-1-1-1.5-1.5-1-1-1-1-1-1-1.5-1.5-1-1-1-1-1-1-1-1-2.5-2.5-.5-.5-28.5-28.5l34 .5 34 .5h36.5 36.5 2 2 2.5 2.5 2 2 2 2 2.5 2.5 2 2 2.5 2.5 2 2 1.5 1.5" style="fill:#778;stroke:#778"/><path d="m265 344v-2-1.5-1.5l-8.5-1.5-8.5-1.5 4 4.5 4 4.5 4.5-.5 4.5-.5" style="fill:#b6bdcd;stroke:#b6bdcd"/><path d="m259 664h1l-23-6-23-6-12.5-.5-12.5-.5-16.5 5-16.5 5h-10-10l26.5 1.5 26.5 1.5h.5.5 34.5 34.5" style="fill:#8590a7;stroke:#8590a7"/><path d="m232 669h1v-.5-.5h-36.5-36.5l-34-.5-34-.5h29 29 2.5 2.5 1 1 1 1 1 1 1 1 1.5 1.5 1 1 1 1 1 1 1.5 1.5 1 1 2 2l1-.5 1-.5 1.5-.5 1.5-.5 1.5-.5 1.5-.5-26.5-1.5-26.5-1.5-22 .5-22 .5-1-.5-1-.5-.5-1-.5-1-1-1-1-1 39 6 39 6h33.5 33.5" style="fill:#998e90;stroke:#998e90"/><path d="m191 570l-49 2-10-4-10-4-9.5 2-9.5 2 1-8.5 1-8.5 22.5.5 22.5.5 18 7.5 18 7.5-4-10-4-10-3-8.5-3-8.5-10 7.5-10 7.5-10-3-10-3-3.5-1-3.5-1-3.5-3-3.5-3-7 4-7 4-6-7.5-6-7.5-3 11-3 11 .5 28 .5 28v27.5 27.5l1 1 1 1 .5 1 .5 1 1 .5 1 .5 9-37.5 9-37.5 5-4.5 5-4.5 13 4.5 13 4.5 6-3 6-3 16.5-5.5 16.5-5.5" style="fill:#8590a7;stroke:#8590a7"/><path d="m149 667h1-29-29 28.5 28.5" style="fill:#5a5a6a;stroke:#5a5a6a"/><g style="fill:#8590a7;stroke:#8590a7"><path d="m108 450l-9-26-4-10-4-10-2 12.5-2 12.5 5 15 5 15 5.5-4.5 5.5-4.5"/><path d="m61 9v-2l.5-.5.5-.5-.5-.5-.5-.5v-1-1-1.5-1.5h-2-2-2.5-2.5-2-2-2.5-2.5-1.5-1.5l1 5.5 1 5.5 9.5-1 9.5-1"/><path d="m52 24l1-3-1.5-.5-1.5-.5-2-.5-2-.5-1.5.5-1.5.5h-1.5-1.5v1 1l1 1 1 1-.5 2-.5 2 1.5-.5 1.5-.5h1 1l2 .5 2 .5 1-2 1-2"/><path d="m45 629l-24-9 3 10 3 10 9-5.5 9-5.5"/></g><path d="m42 14v-3l-1-5.5-1-5.5h-20-20v14 14 33 33 33.5 33.5 26.5 26.5l1.5-24 1.5-24 5-13 5-13 3-14.5 3-14.5 2-16 2-16 1.5-14 1.5-14 7-14.5 7-14.5v-1-1-1.5-1.5l1-1.5 1-1.5" style="fill:#998e90;stroke:#998e90"/><path d="m38 603l-11-35-5.5-9-5.5-9-3.5 1-3.5 1-.5 1-.5 1-1-1-1-1-1 1-1 1 1 1.5 1 1.5.5 1.5.5 1.5-1 1-1 1 .5.5.5.5v1.5 1.5l1-1 1-1 1-.5 1-.5 1 1 1 1-.5 1.5-.5 1.5 7 6 7 6-.5 1.5-.5 1.5h-1-1l-.5.5-.5.5.5.5.5.5.5 1 .5 1h-1-1l-.5-.5-.5-.5-.5-.5-.5-.5-.5-1-.5-1-.5-.5-.5-.5-1.5.5-1.5.5 2 16.5 2 16.5 10-6.5 10-6.5" style="fill:#8590a7;stroke:#8590a7"/><path d="m27 640l-6-20 1-2 1-2-.5.5-.5.5-2-.5-2-.5-2-16.5-2-16.5-1.5-1-1.5-1-1-1-1-1 1-1 1-1v-1.5-1.5l-1-1-1-1 .5-1 .5-1-1-1-1-1h1.5 1.5l.5-1.5.5-1.5-1-1-1-1-1 .5-1 .5-1 1-1 1v-1.5-1.5l-.5-.5-.5-.5 1-1 1-1-.5-1.5-.5-1.5-1-1.5-1-1.5 1-1 1-1 1 1 1 1 .5-1 .5-1-4.5-14.5-4.5-14.5v34.5 34.5 33.5 33.5 1 1l13.5-10.5 13.5-10.5" style="fill:#998e90;stroke:#998e90"/><path d="m25 580l-14-12h-1.5-1.5l1 1 1 1-.5 1-.5 1 1 1 1 1v1.5 1.5l-1 1-1 1 1 1 1 1 1.5 1 1.5 1 1.5-.5 1.5-.5.5.5.5.5.5 1 .5 1 .5.5.5.5.5.5.5.5h1 1l-.5-1-.5-1-.5-.5-.5-.5.5-.5.5-.5h1 1l.5-1.5.5-1.5" style="fill:#a1a9ba;stroke:#a1a9ba"/><path d="m20 712h1l-10.5-11-10.5-11v2.5 2.5 2 2 2.5 2.5 2 2 2 2h.5.5 2 2 2.5 2.5 2 2 2.5 2.5.5.5" style="fill:#998e90;stroke:#998e90"/><path d="m9 461v-2l-1.5-.5-1.5-.5-2-.5-2-.5 1-1 1-1v-1.5-1.5l-1-1-1-1-1-1-1-1v2.5 2.5 2 2 1.5 1.5l1 1 1 1 .5.5.5.5 1 .5 1 .5.5.5.5.5.5-.5.5-.5.5-.5.5-.5.5-1 .5-1" style="fill:#8590a7;stroke:#8590a7"/></g></svg>