<svg xmlns="http://www.w3.org/2000/svg" viewBox="0 0 712 960"><path d="m0 0h712v960h-712z" style="fill:#371300"/><g style="stroke-linejoin:round;stroke-width:.7"><path d="m0 959v1h1.5 1.5 2 2v-.5-.5l1-1 1-1 1-1 1-1h-1-1l-.5-1-.5-1h-1-1l.5 2 .5 2-1.5-.5-1.5-.5-1-1-1-1v-1-1l-1-.5-1-.5v2 2 2 2" style="fill:#930;stroke:#930"/><path d="m7 959v1h1.5 1.5 2 2 1.5 1.5v-.5-.5l.5-2 .5-2 .5-2 .5-2h1 1l1 1.5 1 1.5v1 1l1 1 1 1 1.5-1 1.5-1-1 1-1 1 .5 1 .5 1h3 3 2.5 2.5 2 2 2.5 2.5 2 2 2 2 2.5 2.5 1.5 1.5v-.5-.5l5 .5 5 .5h17.5 17.5 18 18 9.5 9.5v-.5-.5l.5-.5.5-.5h-1-1l-.5-.5-.5-.5-.5-1-.5-1v-1-1-1-1l.5.5.5.5v1 1l.5.5.5.5 1-.5 1-.5.5.5.5.5v1 1h1 1l1-.5 1-.5h1 1l.5.5.5.5.5.5.5.5-.5 1-.5 1h2 2 2.5 2.5 2 2 2 2 2.5 2.5.5.5v-.5-.5l-5.5-7-5.5-7-7.5-6-7.5-6-2 2-2 2-8.5-1-8.5-1-8 1-8 1-5-4.5-5-4.5-6-1.5-6-1.5-7.5-3.5-7.5-3.5-6 .5-6 .5-7.5-5-7.5-5 4-6 4-6 11-3 11-3 12-2.5 12-2.5-2-3-2-3-5.5-5-5.5-5-7-4-7-4-9-2.5-9-2.5-6.5 5-6.5 5 9.5-4 9.5-4 10 7.5 10 7.5-2.5 8-2.5 8-25 3.5-25 3.5v-.5-.5l-1-.5-1-.5 4.5 2.5 4.5 2.5 5.5 9 5.5 9h-5.5-5.5l-5.5 6.5-5.5 6.5.5 8 .5 8-5-4.5-5-4.5-5-3-5-3-6.5 2-6.5 2-5 7-5 7v.5.5l1 .5 1 .5v1 1l1 1 1 1 1.5.5 1.5.5-.5-2-.5-2h1 1l.5 1 .5 1h1 1l-1 1-1 1-1 1-1 1" style="fill:#b23d00;stroke:#b23d00"/><path d="m17 959v1h1.5 1.5 2 2 1.5 1.5l-.5-1-.5-1 1-1 1-1-1.5 1-1.5 1-1-1-1-1v-1-1l-1-1.5-1-1.5h-1-1l-.5 2-.5 2-.5 2-.5 2" style="fill:#930;stroke:#930"/><g style="fill:#bf4b00;stroke:#bf4b00"><path d="m63 959v1h1.5 1.5 2 2 1.5 1.5l-5-.5-5-.5"/><path d="m163 959v1h1.5 1.5 2 2 1 1l.5-1 .5-1-.5-.5-.5-.5-.5-.5-.5-.5h-1-1l-1 .5-1 .5h-1-1v-1-1l-.5-.5-.5-.5-1 .5-1 .5-.5-.5-.5-.5v-1-1l-.5-.5-.5-.5v1 1 1 1l.5 1 .5 1 .5.5.5.5h1 1l-.5.5-.5.5"/></g><path d="m195 959v1h.5.5v-.5-.5l-4-11.5-4-11.5-8.5-8-8.5-8-14-3-14-3-10-7.5-10-7.5 11.5-6.5 11.5-6.5v-.5-.5h2.5 2.5 2.5 2.5l1.5-.5 1.5-.5h2.5 2.5 2 2 2 2l2-.5 2-.5h2 2l1-.5 1-.5h-1.5-1.5l-1-.5-1-.5-.5.5-.5.5-1-.5-1-.5-1.5-.5-1.5-.5-.5.5-.5.5-.5 1-.5 1-2-.5-2-.5-1.5-1.5-1.5-1.5 5.5-7.5 5.5-7.5 8-4.5 8-4.5 5.5 4.5 5.5 4.5 9.5 7 9.5 7-18.5 2-18.5 2h2 2 2 2 2.5 2.5 1 1v-.5-.5l16.5-1 16.5-1-6.5-4-6.5-4 1.5-6.5 1.5-6.5 12.5-1 12.5-1-.5-9.5-.5-9.5-1.5-12-1.5-12-8-2.5-8-2.5-8-1-8-1-6.5 1-6.5 1h-7.5-7.5l-.5-.5-.5-.5-4.5 3.5-4.5 3.5-9-1.5-9-1.5-4.5 4.5-4.5 4.5-5.5-3-5.5-3-9.5 2.5-9.5 2.5-6.5-2-6.5-2-6-4.5-6-4.5-8 3-8 3-9.5-7-9.5-7-1 .5-1 .5-.5 2-.5 2-.5 1.5-.5 1.5-1 1.5-1 1.5-1 1-1 1-.5 2-.5 2-.5 1.5-.5 1.5h-1.5-1.5l-.5 1-.5 1-.5.5-.5.5-.5.5-.5.5-1 .5-1 .5-.5 1.5-.5 1.5-.5.5-.5.5-.5 1-.5 1-1 1-1 1-.5.5-.5.5-.5 1-.5 1-.5 1.5-.5 1.5.5.5.5.5v1.5 1.5l1 .5 1 .5v-2.5-2.5l1-1 1-1 1 1.5 1 1.5 1 1 1 1-.5 2-.5 2v2 2h-1.5-1.5v-2-2l-1-1-1-1v2 2l.5 1.5.5 1.5-.5 1.5-.5 1.5v1 1 1.5 1.5l-.5 1.5-.5 1.5v1 1l-.5.5-.5.5.5.5.5.5-.5 1-.5 1-.5.5-.5.5v1 1l-.5.5-.5.5-.5 1-.5 1 .5 1.5.5 1.5v1 1l-.5 1-.5 1 1 .5 1 .5 1 .5 1 .5-1 1-1 1-.5 1.5-.5 1.5-1.5 1-1.5 1-1 1-1 1-1.5 1-1.5 1-1.5.5-1.5.5-1 .5-1 .5-1.5 1-1.5 1-1.5.5-1.5.5h-1-1v-1-1l-1-.5-1-.5h-1-1l-1-.5-1-.5v1.5 1.5 2.5 2.5l11.5-5 11.5-5 7.5-9 7.5-9 3-14 3-14-1-11-1-11 6-2.5 6-2.5 5.5 10 5.5 10-2.5 14.5-2.5 14.5-8 14-8 14 1 .5 1 .5 1-1 1-1 .5-.5.5-.5.5-.5.5-.5.5-.5.5-.5.5-1 .5-1 .5-.5.5-.5.5-.5.5-.5.5-.5.5-.5.5-1 .5-1v-1-1l.5-.5.5-.5v-1-1l1-.5 1-.5v-1-1l.5-.5.5-.5.5-1.5.5-1.5v-1.5-1.5l.5-1 .5-1 6.5-5 6.5-5 9 2.5 9 2.5 7 4 7 4 5.5 5 5.5 5 2 3 2 3-12 2.5-12 2.5-11 3-11 3-4 6-4 6 7.5 5 7.5 5 6-.5 6-.5 7.5 3.5 7.5 3.5 6 1.5 6 1.5 5 4.5 5 4.5 8-1 8-1 8.5 1 8.5 1 2-2 2-2 7.5 6 7.5 6 5.5 7 5.5 7" style="fill:#930;stroke:#930"/><path d="m196 959v1h1.5 1.5 1 1v-.5-.5l-6-12-6-12-8-9-8-9-12.5-2-12.5-2-10.5-7.5-10.5-7.5 9.5-6 9.5-6-11.5 6.5-11.5 6.5 10 7.5 10 7.5 14 3 14 3 8.5 8 8.5 8 4 11.5 4 11.5" style="fill:#762500;stroke:#762500"/><path d="m201 959v1h1.5 1.5 2 2 2.5 2.5 2 2 1 1v-.5-.5l6-11 6-11 1.5-7.5 1.5-7.5 2.5-10 2.5-10 4.5-9.5 4.5-9.5 8 1.5 8 1.5 10-5 10-5 9 4.5 9 4.5 3.5 12.5 3.5 12.5 2 11 2 11 2.5 2 2.5 2 1.5 7.5 1.5 7.5 4.5 1 4.5 1-.5-10.5-.5-10.5 2.5-5 2.5-5v2 2l4 6.5 4 6.5-1.5 7.5-1.5 7.5 5-4.5 5-4.5 1.5-5.5 1.5-5.5 3.5 2 3.5 2 5.5-5.5 5.5-5.5-.5-2-.5-2v-4-4l8.5-9 8.5-9 4-10 4-10-5-8.5-5-8.5v-10-10l8-6.5 8-6.5 5-9 5-9 8-5.5 8-5.5 4.5-9.5 4.5-9.5 6.5-9 6.5-9 9-5 9-5-4.5-7-4.5-7-1-9-1-9-9.5-5-9.5-5-1-11.5-1-11.5v-.5-.5l6.5-9.5 6.5-9.5-9-8-9-8-7-11-7-11 5.5-8 5.5-8 11.5-14 11.5-14 4-9 4-9-4.5-10-4.5-10 11 1.5 11 1.5 7.5 9.5 7.5 9.5-.5 14-.5 14 .5 12 .5 12 1 12 1 12 1.5 8 1.5 8 7.5 7 7.5 7 6 9.5 6 9.5-1 8-1 8 2 4.5 2 4.5 8.5 6 8.5 6-4.5 2.5-4.5 2.5-7.5 3-7.5 3 6 4.5 6 4.5 8.5 2.5 8.5 2.5 12-1.5 12-1.5 3-3.5 3-3.5 8 3.5 8 3.5 8.5 1.5 8.5 1.5 2.5-1 2.5-1 4-1.5 4-1.5 7.5 2.5 7.5 2.5 9-.5 9-.5 12.5 1 12.5 1 1.5 9.5 1.5 9.5 2 7.5 2 7.5v9.5 9.5h6.5 6.5l.5 14.5.5 14.5 4.5 5.5 4.5 5.5-4.5-1-4.5-1-4.5 6-4.5 6 7.5-2.5 7.5-2.5-.5 7-.5 7-2.5 7-2.5 7-5 2.5-5 2.5 1 3 1 3 8-2.5 8-2.5 2-9.5 2-9.5 2-11 2-11v-17.5-17.5-13.5-13.5h-1.5-1.5l1-.5 1-.5-1.5-1-1.5-1-1.5.5-1.5.5-1-1.5-1-1.5v-1-1l.5-1.5.5-1.5 1.5-1 1.5-1 1-1 1-1 1.5 1 1.5 1v-2.5-2.5-2-2-2.5-2.5-2-2-2.5-2.5-2-2h-1.5-1.5l-1.5-.5-1.5-.5-.5-1.5-.5-1.5.5-2 .5-2 1.5.5 1.5.5 1.5-1 1.5-1v-2-2-2.5-2.5-2-2-2-2l-1-.5-1-.5v-1-1l-.5-.5-.5-.5-.5.5-.5.5v1 1l-.5 1-.5 1-.5.5-.5.5v1 1l.5.5.5.5-.5 1-.5 1 .5.5.5.5.5.5.5.5v1 1 1.5 1.5l-.5-.5-.5-.5h-1-1l-.5.5-.5.5-1.5-.5-1.5-.5 1-9 1-9-9.5-2-9.5-2 3.5-7.5 3.5-7.5 2.5-3 2.5-3 8-3 8-3v-18-18-18-18-17.5-17.5-18-18-14.5-14.5l-7.5 6-7.5 6-3-7.5-3-7.5.5-2 .5-2 .5-6.5.5-6.5v-7.5-7.5l-2-1.5-2-1.5-11.5-2-11.5-2 3 3 3 3-2.5 11-2.5 11-2.5-4.5-2.5-4.5-3.5-8-3.5-8-2.5-6-2.5-6-2.5 5.5-2.5 5.5-5 3.5-5 3.5 1.5 8 1.5 8 2.5 7.5 2.5 7.5.5-6 .5-6 4.5-2 4.5-2 6 7 6 7 4 2.5 4 2.5-4 3-4 3 .5 5 .5 5-.5 6-.5 6-8.5-1.5-8.5-1.5-10.5 5-10.5 5-7.5-5.5-7.5-5.5 6-10 6-10 4-10.5 4-10.5-3.5-7.5-3.5-7.5-8-6.5-8-6.5 9-6 9-6 4.5-3 4.5-3-5-3-5-3-6-2.5-6-2.5 6.5-7.5 6.5-7.5 3-4.5 3-4.5-9-1-9-1 3-8.5 3-8.5-10-2-10-2 1-5.5 1-5.5-4-5-4-5-6.5 6-6.5 6-6-3-6-3-4-2.5-4-2.5 3-7 3-7 10-1.5 10-1.5 10-3 10-3-2-6.5-2-6.5.5-3.5.5-3.5 3.5-6 3.5-6 6.5 3.5 6.5 3.5 5.5-8 5.5-8-6.5-.5-6.5-.5-6-6.5-6-6.5 5-3.5 5-3.5 8-2 8-2-2.5-5-2.5-5-7.5 3-7.5 3-4.5-.5-4.5-.5-1-1.5-1-1.5h-9.5-9.5l-11-1-11-1-7-3-7-3 3.5-9 3.5-9h9 9l10-.5 10-.5 10.5-2.5 10.5-2.5-6.5-4-6.5-4-6.5-1-6.5-1-5.5-7.5-5.5-7.5-4 2.5-4 2.5 5 3.5 5 3.5-10 2-10 2-12 .5-12 .5-5 5.5-5 5.5 5 3 5 3-7 7.5-7 7.5v3.5 3.5l-5-3-5-3-4.5-5-4.5-5-3-7.5-3-7.5-5.5-3-5.5-3 10-3 10-3 8.5-3 8.5-3 3-6.5 3-6.5 3 4.5 3 4.5 6.5-8.5 6.5-8.5-5-1.5-5-1.5-5-3-5-3-2-5.5-2-5.5-5.5 2-5.5 2-3.5-8-3.5-8 6.5-.5 6.5-.5v-5.5-5.5l1-3.5 1-3.5-2-5.5-2-5.5-5.5-2.5-5.5-2.5 4-5.5 4-5.5-8-3.5-8-3.5-12.5-.5-12.5-.5-3-5.5-3-5.5-6.5 4-6.5 4-2-9-2-9-8-4.5-8-4.5 8-3.5 8-3.5-1.5-6-1.5-6-5.5-.5-5.5-.5-5-6.5-5-6.5-11-.5-11-.5 6-4 6-4 7-.5 7-.5 5.5-5 5.5-5 8 6.5 8 6.5h1 1l4.5 6 4.5 6 5 1.5 5 1.5 1.5-8 1.5-8 9.5.5 9.5.5 4-2.5 4-2.5 4-8 4-8-7.5 1-7.5 1 1.5-14.5 1.5-14.5h-17-17-17.5-17.5-3-3v1.5 1.5l-1.5 1-1.5 1-1.5.5-1.5.5h-1.5-1.5l-.5-1-.5-1 1-1.5 1-1.5 2-.5 2-.5h-2-2-2.5-2.5-2-2-2.5-2.5-2-2-1.5-1.5l2 5 2 5-10.5-1.5-10.5-1.5-2.5 7-2.5 7-6 5-6 5 8 5.5 8 5.5 6-2.5 6-2.5 9.5 2.5 9.5 2.5-13.5 1-13.5 1-5 3.5-5 3.5-5 14-5 14-10.5 4-10.5 4-5.5-2.5-5.5-2.5-7.5 3-7.5 3 3.5 6.5 3.5 6.5 9.5 3 9.5 3 10 3 10 3 6 10 6 10 .5 2 .5 2-.5-2-.5-2v4 4l10.5 2 10.5 2-.5 6-.5 6-6.5 2.5-6.5 2.5-9.5 2-9.5 2 2 10.5 2 10.5 1.5 7.5 1.5 7.5-2 9.5-2 9.5v10.5 10.5l-3 7-3 7-7 5.5-7 5.5 2.5 7 2.5 7-.5 5.5-.5 5.5-.5 7-.5 7 3 8 3 8 10 5.5 10 5.5 2 1.5 2 1.5-4.5 11.5-4.5 11.5-1.5-4-1.5-4-4-3.5-4-3.5-3 5-3 5-1.5 10-1.5 10 10.5-4.5 10.5-4.5 2.5 9 2.5 9 4 3.5 4 3.5-11 3-11 3 2 9.5 2 9.5-12 2.5-12 2.5 13 1 13 1 10.5 6 10.5 6-4 8.5-4 8.5-1-5-1-5h-10.5-10.5l4 7 4 7 3 4.5 3 4.5-11 5.5-11 5.5-5.5-.5-5.5-.5-14.5 2-14.5 2-7 8.5-7 8.5-2 13-2 13-5.5 9-5.5 9-3 8.5-3 8.5 5.5 10 5.5 10 5.5 11.5 5.5 11.5 11-3.5 11-3.5 6.5 3.5 6.5 3.5h-2.5-2.5l-5.5 9-5.5 9-2.5 12.5-2.5 12.5-1 12.5-1 12.5.5 9 .5 9-1 10.5-1 10.5-5 8-5 8-1 4.5-1 4.5-4.5-7.5-4.5-7.5-3.5 4-3.5 4-2 9.5-2 9.5-6 4-6 4 3 6.5 3 6.5-6.5-1-6.5-1-4.5 4-4.5 4-11.5 10-11.5 10v-11-11h-14.5-14.5l-14.5 1.5-14.5 1.5-11.5 5-11.5 5-3 3.5-3 3.5h-15-15l-13-.5-13-.5-5-9.5-5-9.5h-1-1l-1.5 1-1.5 1-1.5-.5-1.5-.5-1.5-.5-1.5-.5 8.5-9.5 8.5-9.5 1-1 1-1 .5-1 .5-1-10.5 7.5-10.5 7.5-11 5-11 5-7.5-1-7.5-1-13.5 7-13.5 7v18.5 18.5 13 13l7.5-9.5 7.5-9.5 3.5-11 3.5-11 6-11 6-11 .5-1 .5-1 1.5-1 1.5-1 1-1 1-1 1-1.5 1-1.5 1-1 1-1 2.5-1 2.5-1h.5.5l6 8.5 6 8.5 6 5.5 6 5.5 8.5-1 8.5-1 7.5.5 7.5.5 11-.5 11-.5 13.5-.5 13.5-.5h13.5 13.5l13.5-2 13.5-2 7.5 2.5 7.5 2.5 6-1.5 6-1.5 5 8.5 5 8.5 3.5 9.5 3.5 9.5 2 12 2 12-13.5 3-13.5 3-8 5-8 5 12.5 4 12.5 4-21 3-21 3h-1-1-2.5-2.5l-22 2-22 2-9.5 6-9.5 6 10.5 7.5 10.5 7.5 12.5 2 12.5 2 8 9 8 9 6 12 6 12" style="fill:#581c00;stroke:#581c00"/><path d="m219 959v1h1.5 1.5v-.5-.5l6.5-9.5 6.5-9.5 2.5-13.5 2.5-13.5.5-1 .5-1 1-1 1-1v-.5-.5l10-5 10-5 6.5-9.5 6.5-9.5 5.5 11 5.5 11 6.5-.5 6.5-.5 3 10.5 3 10.5-4 1-4 1-4-3.5-4-3.5-4 1-4 1-.5 7-.5 7 11.5 14 11.5 14h17.5 17.5 17.5 17.5 6 6v-.5-.5l.5-10.5.5-10.5 2-16 2-16-.5-1-.5-1v-1-1l.5-.5.5-.5 1-.5 1-.5.5.5.5.5h1 1 1 1 2 2l10.5-4.5 10.5-4.5-7.5-6-7.5-6-5.5-7-5.5-7 4-11 4-11 6.5-9 6.5-9 9.5-5.5 9.5-5.5 8-8.5 8-8.5 9-4.5 9-4.5 5-7 5-7 7.5-9 7.5-9 2.5-8 2.5-8-7 2-7 2-5.5-11-5.5-11-9.5-7-9.5-7-13.5-7.5-13.5-7.5.5-2 .5-2 1-1 1-1 .5-1 .5-1 1 11.5 1 11.5 9.5 5 9.5 5 1 9 1 9 4.5 7 4.5 7-9 5-9 5-6.5 9-6.5 9-4.5 9.5-4.5 9.5-8 5.5-8 5.5-5 9-5 9-8 6.5-8 6.5v10 10l5 8.5 5 8.5-4 10-4 10-8.5 9-8.5 9v4 4l.5 2 .5 2-5.5 5.5-5.5 5.5-3.5-2-3.5-2-1.5 5.5-1.5 5.5-5 4.5-5 4.5 1.5-7.5 1.5-7.5-4-6.5-4-6.5v-2-2l-2.5 5-2.5 5 .5 10.5.5 10.5-4.5-1-4.5-1-1.5-7.5-1.5-7.5-2.5-2-2.5-2-2-11-2-11-3.5-12.5-3.5-12.5-9-4.5-9-4.5-10 5-10 5-8-1.5-8-1.5-4.5 9.5-4.5 9.5-2.5 10-2.5 10-1.5 7.5-1.5 7.5-6 11-6 11" style="fill:#762500;stroke:#762500"/><path d="m222 959v1h1.5 1.5 2 2 2.5 2.5 1.5 1.5v-.5-.5l4.5-4.5 4.5-4.5 3-10 3-10-1 .5-1 .5h-1-1l-1-2-1-2-1-1.5-1-1.5-1-1-1-1-1-1.5-1-1.5v-3-3l-2.5 13.5-2.5 13.5-6.5 9.5-6.5 9.5" style="fill:#930;stroke:#930"/><path d="m237 959v1h1.5 1.5 2 2 2.5 2.5 2 2 2.5 2.5 2 2 2.5 2.5 2 2v-.5-.5l1-.5 1-.5.5-2 .5-2 1-1 1-1 2-.5 2-.5h1 1l.5 1 .5 1 1 1 1 1h1.5 1.5 1 1l.5 1.5.5 1.5-1.5 1-1.5 1h2 2 2.5 2.5.5.5v-.5-.5l-7.5-8-7.5-8-3.5-13.5-3.5-13.5.5 1 .5 1 .5 1.5.5 1.5v2 2l-2 .5-2 .5-1.5.5-1.5.5-2 .5-2 .5h-2-2l-1.5.5-1.5.5-2-.5-2-.5-2 1-2 1-3 10-3 10-4.5 4.5-4.5 4.5" style="fill:#b23d00;stroke:#b23d00"/><path d="m271 959v1h1.5 1.5 2 2 2.5 2.5 2 2 .5.5l1.5-1 1.5-1-.5-1.5-.5-1.5h-1-1-1.5-1.5l-1-1-1-1-.5-1-.5-1h-1-1l-2 .5-2 .5-1 1-1 1-.5 2-.5 2-1 .5-1 .5" style="fill:#bf4b00;stroke:#bf4b00"/><g style="fill:#930;stroke:#930"><path d="m298 959v1h1.5 1.5 1.5 1.5l-11.5-14-11.5-14 .5-7 .5-7 4-1 4-1 4 3.5 4 3.5 4-1 4-1-3-10.5-3-10.5-6.5.5-6.5.5-5.5-11-5.5-11-6.5 9.5-6.5 9.5 1.5-.5 1.5-.5.5 2 .5 2 1.5.5 1.5.5.5 1.5.5 1.5.5 2 .5 2h1 1l.5 1 .5 1 .5 2.5.5 2.5 3.5 13.5 3.5 13.5 7.5 8 7.5 8"/><path d="m386 959v1h1.5 1.5 2 2 2.5 2.5 2 2v-.5-.5l-5-9.5-5-9.5-.5-17-.5-17-2 16-2 16-.5 10.5-.5 10.5"/></g><path d="m402 959v1h.5.5v-.5-.5l-5.5-11.5-5.5-11.5-1-12-1-12 10.5-5 10.5-5 13.5-7.5 13.5-7.5v1 1l-18 6-18 6h-2-2-1-1-1-1l-.5-.5-.5-.5-1 .5-1 .5-.5.5-.5.5v1 1l.5 1 .5 1 .5 17 .5 17 5 9.5 5 9.5" style="fill:#bf4b00;stroke:#bf4b00"/><path d="m403 959v1h1.5 1.5 1.5 1.5v-.5-.5l-6-11-6-11-1.5-11-1.5-11 8-1 8-1 7-5.5 7-5.5 8.5-7 8.5-7-5.5-7.5-5.5-7.5-2-7-2-7 4 1.5 4 1.5 4 10 4 10h15.5 15.5l3.5-3.5 3.5-3.5-2-5.5-2-5.5 9.5-2.5 9.5-2.5 6.5-3 6.5-3 4 .5 4 .5 9-3.5 9-3.5 8.5 5.5 8.5 5.5 5-1.5 5-1.5 8-1 8-1 2 3.5 2 3.5 7-1.5 7-1.5 7.5-1 7.5-1 4.5-5.5 4.5-5.5-8-4.5-8-4.5 7-3.5 7-3.5 8.5-1 8.5-1 8.5 5.5 8.5 5.5.5 3 .5 3-7-2-7-2 5 7.5 5 7.5 7 4.5 7 4.5.5 10 .5 10v-.5-.5l-.5-2-.5-2v-2-2-2-2l1-1.5 1-1.5v-.5-.5-1.5-1.5-1.5-1.5-1-1-1.5-1.5l.5-1.5.5-1.5v-1-1-1-1-1-1l.5-1 .5-1v-1-1-1-1l.5-.5.5-.5v-1.5-1.5-2-2l.5-.5.5-.5v-2-2l-.5-13.5-.5-13.5-9-3.5-9-3.5-10.5 1-10.5 1-11.5 2-11.5 2-8.5 1.5-8.5 1.5-9.5 5-9.5 5-10 .5-10 .5-6-4-6-4-8-.5-8-.5-10 .5-10 .5-5.5 2.5-5.5 2.5 2.5 5 2.5 5-8.5 1-8.5 1 .5 6 .5 6-8.5-.5-8.5-.5-6 1.5-6 1.5-8 6-8 6-5.5 1-5.5 1-.5 1.5-.5 1.5-3.5 11-3.5 11h.5.5l1.5-.5 1.5-.5h1 1l1 .5 1 .5v1 1l1 .5 1 .5 1.5.5 1.5.5 1 1 1 1 .5.5.5.5.5 1 .5 1 1.5.5 1.5.5.5.5.5.5 1 .5 1 .5-13.5 7.5-13.5 7.5-10.5 5-10.5 5 1 12 1 12 5.5 11.5 5.5 11.5" style="fill:#d95400;stroke:#d95400"/><path d="m409 959v1h1 1v-.5-.5l.5-6 .5-6-2-7-2-7 3 2.5 3 2.5 3.5 2.5 3.5 2.5 1-4.5 1-4.5 5.5-4.5 5.5-4.5 3-1.5 3-1.5 5.5-3.5 5.5-3.5 10.5 5 10.5 5 5.5-6.5 5.5-6.5-6.5-2-6.5-2 9.5-3.5 9.5-3.5 7-2.5 7-2.5 2.5-5.5 2.5-5.5 2.5-4 2.5-4 4.5-1.5 4.5-1.5.5-6 .5-6 4 2 4 2 11-.5 11-.5h2 2l4.5 5 4.5 5v3 3l4.5 3.5 4.5 3.5 6.5 3 6.5 3 8 5 8 5-2.5-3-2.5-3 9-5 9-5 9.5 3 9.5 3 2 1 2 1 5.5 2 5.5 2v-4-4l2 14.5 2 14.5 4-19 4-19-.5-10-.5-10-7-4.5-7-4.5-5-7.5-5-7.5 7 2 7 2-.5-3-.5-3-8.5-5.5-8.5-5.5-8.5 1-8.5 1-7 3.5-7 3.5 8 4.5 8 4.5-4.5 5.5-4.5 5.5-7.5 1-7.5 1-7 1.5-7 1.5-2-3.5-2-3.5-8 1-8 1-5 1.5-5 1.5-8.5-5.5-8.5-5.5-9 3.5-9 3.5-4-.5-4-.5-6.5 3-6.5 3-9.5 2.5-9.5 2.5 2 5.5 2 5.5-3.5 3.5-3.5 3.5 1.5-.5 1.5-.5 1.5.5 1.5.5 1.5 1 1.5 1v2 2h-1.5-1.5l-.5-1.5-.5-1.5-.5-.5-.5-.5-.5.5-.5.5.5 1 .5 1-1 .5-1 .5-1-1-1-1v-2-2h-15.5-15.5l-4-10-4-10-4-1.5-4-1.5 2 7 2 7 5.5 7.5 5.5 7.5-8.5 7-8.5 7-7 5.5-7 5.5-8 1-8 1 1.5 11 1.5 11 6 11 6 11" style="fill:#ee6000;stroke:#ee6000"/><path d="m411 959v1h17 17 18 18 17.5 17.5 5.5 5.5v-.5-.5l-2-3.5-2-3.5-.5-5-.5-5 11.5-1 11.5-1 8-1 8-1-4 3.5-4 3.5 2 7.5 2 7.5h1.5 1.5 2 2v-.5-.5l3.5-3 3.5-3v-6.5-6.5l4.5 1 4.5 1 7.5-1.5 7.5-1.5 5.5-2 5.5-2 9.5 3 9.5 3 8.5 9.5 8.5 9.5h1.5 1.5 1 1v-.5-.5-9.5-9.5l4-9.5 4-9.5-2-14.5-2-14.5v4 4l-5.5-2-5.5-2-2-1-2-1-9.5-3-9.5-3-9 5-9 5 2.5 3 2.5 3-8-5-8-5-6.5-3-6.5-3-4.5-3.5-4.5-3.5v-3-3l-4.5-5-4.5-5h-2-2l-11 .5-11 .5-4-2-4-2-.5 6-.5 6-4.5 1.5-4.5 1.5-2.5 4-2.5 4-2.5 5.5-2.5 5.5-7 2.5-7 2.5-9.5 3.5-9.5 3.5 6.5 2 6.5 2-5.5 6.5-5.5 6.5-10.5-5-10.5-5-5.5 3.5-5.5 3.5-3 1.5-3 1.5-5.5 4.5-5.5 4.5-1 4.5-1 4.5-3.5-2.5-3.5-2.5-3-2.5-3-2.5 2 7 2 7-.5 6-.5 6" style="fill:#fb7200;stroke:#fb7200"/><g style="fill:#ff8d01;stroke:#ff8d01"><path d="m527 959v1h1.5 1.5 2 2 2.5 2.5 2 2 2.5 2.5 2 2 2.5 2.5l-2-7.5-2-7.5 4-3.5 4-3.5-8 1-8 1-11.5 1-11.5 1 .5 5 .5 5 2 3.5 2 3.5"/><path d="m564 959v1h17 17 18 18 4 4l-8.5-9.5-8.5-9.5-9.5-3-9.5-3-5.5 2-5.5 2-7.5 1.5-7.5 1.5-4.5-1-4.5-1v6.5 6.5l-3.5 3-3.5 3"/></g><path d="m647 959v1h1.5 1.5 2 2v-.5-.5l1.5-15 1.5-15 1-15.5 1-15.5 2.5-15.5 2.5-15.5-1 1.5-1 1.5v2 2 2 2l.5 2 .5 2v.5.5l-4 19-4 19-4 9.5-4 9.5v9.5 9.5" style="fill:#bf4b00;stroke:#bf4b00"/><path d="m654 959v1h1.5 1.5 2 2 2.5 2.5 2 2 .5.5v-.5-.5l2.5-7.5 2.5-7.5-4-14.5-4-14.5.5 1.5.5 1.5v.5.5l-1.5.5-1.5.5h-1-1l-1-1.5-1-1.5-.5-.5-.5-.5v-1.5-1.5l1.5-.5 1.5-.5 2 1.5 2 1.5 2-5 2-5v-8.5-8.5-9-9l-2-11.5-2-11.5 2.5-13.5 2.5-13.5.5-12.5.5-12.5-.5 2-.5 2-.5 1.5-.5 1.5v1 1 1.5 1.5 2 2l-.5.5-.5.5v1.5 1.5 2 2 1 1 1.5 1.5l-1 1.5-1 1.5v2.5 2.5 1 1l-.5.5-.5.5v1 1 1.5 1.5l-.5 1.5-.5 1.5v1 1 1.5 1.5l-.5 1.5-.5 1.5v1 1 1.5 1.5 2 2l-.5.5-.5.5v1 1 1 1l-.5 1-.5 1-2.5 15.5-2.5 15.5-1 15.5-1 15.5-1.5 15-1.5 15" style="fill:#930;stroke:#930"/><path d="m671 959v1h1.5 1.5 2 2 2.5 2.5 2 2 2 2v-.5-.5l3-7.5 3-7.5 3-9 3-9 4.5-17.5 4.5-17.5v-3.5-3.5-2-2-2.5-2.5-2-2-2.5-2.5-2-2-2-2-2.5-2.5-2-2-1-1l-2 11-2 11-2 9.5-2 9.5-8 2.5-8 2.5-1-3-1-3 5-2.5 5-2.5 2.5-7 2.5-7 .5-7 .5-7-7.5 2.5-7.5 2.5 4.5-6 4.5-6 4.5 1 4.5 1-4.5-5.5-4.5-5.5-.5-.5-.5-.5.5.5.5.5-.5-14.5-.5-14.5h-6.5-6.5v-9.5-9.5l-2-7.5-2-7.5-1.5-9.5-1.5-9.5-12.5-1-12.5-1-9 .5-9 .5-7.5-2.5-7.5-2.5-4 1.5-4 1.5-2.5 1-2.5 1-8.5-1.5-8.5-1.5-8-3.5-8-3.5-3 3.5-3 3.5-12 1.5-12 1.5-8.5-2.5-8.5-2.5-6-4.5-6-4.5 7.5-3 7.5-3 4.5-2.5 4.5-2.5-8.5-6-8.5-6-2-4.5-2-4.5 1-8 1-8-6-9.5-6-9.5-7.5-7-7.5-7-1.5-8-1.5-8-1-12-1-12-.5-12-.5-12 .5-14 .5-14-7.5-9.5-7.5-9.5-11-1.5-11-1.5 4.5 10 4.5 10-4 9-4 9 12.5 14.5 12.5 14.5-3 19.5-3 19.5 11.5 6 11.5 6 2 11 2 11 5.5 12 5.5 12 1 21 1 21 6 4 6 4 15.5-.5 15.5-.5 13.5 1 13.5 1 13-1.5 13-1.5 13.5-.5 13.5-.5 16 1 16 1 5.5 16 5.5 16v.5.5 1.5 1.5l-.5 12.5-.5 12.5-2.5 13.5-2.5 13.5 2 11.5 2 11.5v9 9 8.5 8.5l-2 5-2 5 4 14.5 4 14.5-2.5 7.5-2.5 7.5" style="fill:#762500;stroke:#762500"/><g style="fill:#930;stroke:#930"><path d="m691 959v1h10.5 10.5v-6.5-6.5-18-18-10-10l-4.5 17.5-4.5 17.5-3 9-3 9-3 7.5-3 7.5"/><path d="m0 949v1l5-7 5-7 6.5-2 6.5-2 5 3 5 3 5 4.5 5 4.5-.5-8-.5-8 5.5-6.5 5.5-6.5h5.5 5.5l-5.5-9-5.5-9-4.5-2.5-4.5-2.5-8.5 8.5-8.5 8.5-13.5 3-13.5 3v1.5 1.5 2 2 2.5 2.5l1 1 1 1h1 1v1 1l.5.5.5.5-1 .5-1 .5v1 1l.5.5.5.5.5-.5.5-.5 1-.5 1-.5.5.5.5.5v1 1 1 1h-1.5-1.5-1-1l-.5.5-.5.5v1 1l-1 .5-1 .5v1.5 1.5"/></g><path d="m465 949l8-11-8.5 5.5-8.5 5.5h4.5 4.5" style="fill:#ee6000;stroke:#ee6000"/><path d="m0 945v1l1-.5 1-.5v-1-1l.5-.5.5-.5h1 1 1.5 1.5v-1-1-1-1l-.5-.5-.5-.5-1 .5-1 .5-.5.5-.5.5-.5-.5-.5-.5v-1-1l1-.5 1-.5-.5-.5-.5-.5v-1-1h-1-1l-1-1-1-1v1.5 1.5 2 2 2.5 2.5 1.5 1.5" style="fill:#b23d00;stroke:#b23d00"/><path d="m456 934l-7-14 2 7 2 7h1.5 1.5" style="fill:#ee6000;stroke:#ee6000"/><path d="m248 931h2l1-.5 1-.5 2-1 2-1 2 .5 2 .5 1.5-.5 1.5-.5h2 2l2-.5 2-.5 1.5-.5 1.5-.5 2-.5 2-.5v-2-2l-.5-1.5-.5-1.5-.5-1-.5-1-.5-2.5-.5-2.5-.5-1-.5-1h-1-1l-.5-2-.5-2-.5-1.5-.5-1.5-1.5-.5-1.5-.5-.5-2-.5-2-1.5.5-1.5.5-10 5.5-10 5.5-1 1-1 1-.5 1-.5 1v3 3l1 1.5 1 1.5 1 1 1 1 1 1.5 1 1.5 1 2 1 2" style="fill:#bf4b00;stroke:#bf4b00"/><path d="m250 926h2 2 2 2.5 2.5l1.5-.5 1.5-.5 2-.5 2-.5h2 2l-1.5-1-1.5-1-1-.5-1-.5-1.5-.5-1.5-.5 1-1.5 1-1.5-.5-2-.5-2-.5-2-.5-2-.5-1.5-.5-1.5h-1.5-1.5l-.5.5-.5.5 2 1 2 1-.5 1.5-.5 1.5-.5 2-.5 2-1.5.5-1.5.5-2 .5-2 .5-1 1-1 1-.5.5-.5.5v-1.5-1.5l-1 .5-1 .5-1 1-1 1 1 1 1 1 .5 1.5.5 1.5" style="fill:#fb7200;stroke:#fb7200"/><path d="m273 924l-2-13-1.5 2.5-1.5 2.5-1 .5-1 .5-1 1.5-1 1.5 1.5.5 1.5.5h2.5 2.5l1 1.5 1 1.5h-.5-.5" style="fill:#d95400;stroke:#d95400"/><path d="m251 921l1-1 1-1 1-1 2-.5 2-.5 1.5-.5 1.5-.5.5-2 .5-2 .5-1.5.5-1.5-2-1-2-1-.5 1-.5 1-1 1-1 1-1 1.5-1 1.5-1 1-1 1-.5 1-.5 1v1.5 1.5" style="fill:#ff8d01;stroke:#ff8d01"/><g style="fill:#762500;stroke:#762500"><path d="m664 920h2l1.5-.5 1.5-.5v-.5-.5l-.5-1.5-.5-1.5-2-1.5-2-1.5-1.5.5-1.5.5v1.5 1.5l.5.5.5.5 1 1.5 1 1.5"/><path d="m0 917v1l13.5-3 13.5-3 8.5-8.5 8.5-8.5 8-14 8-14 2.5-14.5 2.5-14.5-5.5-10-5.5-10-6 2.5-6 2.5 1 11 1 11-3 14-3 14-7.5 9-7.5 9-11.5 5-11.5 5v1.5 1.5 2.5 2.5 2 2 2 2"/></g><path d="m243 908v1l10-5.5 10-5.5-10 5-10 5" style="fill:#930;stroke:#930"/><path d="m178 904l8-13-5.5.5-5.5.5 1.5 6 1.5 6" style="fill:#371300;stroke:#371300"/><path d="m108 902h2l.5-.5.5-.5.5-2 .5-2 1.5-.5 1.5-.5 1-1.5 1-1.5-1.5-.5-1.5-.5-1.5 1-1.5 1-1 1-1 1-.5 1.5-.5 1.5-.5 1-.5 1 .5.5.5.5" style="fill:#b23d00;stroke:#b23d00"/><path d="m402 901l36-12-1-.5-1-.5h-1.5-1.5l-7.5-4-7.5-4-7.5-8-7.5-8h.5.5v-.5-.5l2-.5 2-.5 1.5-.5 1.5-.5h1 1v-1-1l.5-.5.5-.5.5-1 .5-1 .5-1.5.5-1.5v-1-1l1-.5 1-.5.5-1.5.5-1.5.5-1 .5-1 .5-1.5.5-1.5v-.5-.5l13-13.5 13-13.5 1-.5 1-.5 10-6 10-6 8-8.5 8-8.5 7.5-8 7.5-8 8-.5 8-.5 11-1 11-1 11 .5 11 .5 9.5-.5 9.5-.5 7 1.5 7 1.5 13-2.5 13-2.5h13 13l8.5-1 8.5-1-3.5 6-3.5 6 9.5 9 9.5 9-5.5-16-5.5-16-16-1-16-1-13.5.5-13.5.5-13 1.5-13 1.5-13.5-1-13.5-1-15.5.5-15.5.5-6-4-6-4-1.5.5-1.5.5v-1-1-2-2-2.5-2.5l-.5-1.5-.5-1.5-1.5-1-1.5-1-1-1-1-1-1.5-1-1.5-1-1.5-1.5-1.5-1.5-2 .5-2 .5v1.5 1.5l.5 1.5.5 1.5v2 2l-.5.5-.5.5-.5-1-.5-1-.5-.5-.5-.5-.5-.5-.5-.5-1-.5-1-.5.5-1.5.5-1.5v-1-1l-.5-1-.5-1-.5-2.5-.5-2.5v-1-1l-.5-2-.5-2-.5-1.5-.5-1.5-1-1.5-1-1.5-1-1-1-1-1.5-1-1.5-1-1.5-.5-1.5-.5-1.5-.5-1.5-.5-2-1-2-1h-2-2l-2-.5-2-.5h-2-2l-.5-.5-.5-.5h-1-1-1.5-1.5l-.5-.5-.5-.5-.5-.5-.5-.5h-1-1-1-1l-1-.5-1-.5-.5-.5-.5-.5-.5-.5-.5-.5h-1-1l-1-1-1-1-1 .5-1 .5v-1.5-1.5l13.5 7.5 13.5 7.5 9.5 7 9.5 7 5.5 11 5.5 11 7-2 7-2-2.5 8-2.5 8-7.5 9-7.5 9-5 7-5 7-9 4.5-9 4.5-8 8.5-8 8.5-9.5 5.5-9.5 5.5-6.5 9-6.5 9-4 11-4 11 5.5 7 5.5 7 7.5 6 7.5 6-10.5 4.5-10.5 4.5" style="fill:#930;stroke:#930"/><g style="fill:#d95400;stroke:#d95400"><path d="m6 897h2l1.5-.5 1.5-.5 1.5-1 1.5-1v-.5-.5l-1-.5-1-.5-.5-.5-.5-.5h-1.5-1.5l-.5-.5-.5-.5-.5.5-.5.5h-1-1l-1-.5-1-.5-1 .5-1 .5v1 1l1 .5 1 .5h1 1l1 .5 1 .5v1 1"/><path d="m46 897l50-7v-.5-.5l4-5 4-5-8.5-3-8.5-3-13-.5-13-.5-.5 1.5-.5 1.5-.5.5-.5.5v1 1l-1 .5-1 .5v1 1l-.5.5-.5.5v1 1l-.5 1-.5 1-.5.5-.5.5-.5.5-.5.5-.5.5-.5.5-.5 1-.5 1-.5.5-.5.5-.5.5-.5.5-.5.5-.5.5-1 1-1 1v.5.5"/></g><path d="m147 896l19-6-10.5 2.5-10.5 2.5 1 .5 1 .5" style="fill:#371300;stroke:#371300"/><path d="m14 893v1l1-.5 1-.5 1.5-.5 1.5-.5 1.5-1 1.5-1 1-1 1-1 1.5-1 1.5-1 .5-1.5.5-1.5 1-1 1-1-1-.5-1-.5-1.5 1.5-1.5 1.5-1 1-1 1-1.5-.5-1.5-.5-1 1.5-1 1.5-1.5.5-1.5.5-2 .5-2 .5v-1-1h-1.5-1.5l-1 1-1 1h-1-1v-1-1l-.5-.5-.5-.5-.5-1-.5-1-1 1-1 1v2.5 2.5l1-.5 1-.5 1 .5 1 .5h1 1l.5-.5.5-.5.5.5.5.5h1.5 1.5l.5.5.5.5 1 .5 1 .5" style="fill:#bf4b00;stroke:#bf4b00"/><path d="m35 892l14-11 4.5-10.5 4.5-10.5-4.5-2-4.5-2-5 11-5 11-2 7-2 7" style="fill:#581c00;stroke:#581c00"/><path d="m4 889h2l1-1 1-1h1.5 1.5v1 1l2-.5 2-.5 1.5-.5 1.5-.5 1-1.5 1-1.5 1.5.5 1.5.5 1-1 1-1 1.5-1.5 1.5-1.5-1-.5-1-.5.5-1 .5-1v-1-1l-.5-1.5-.5-1.5.5-1 .5-1 .5-.5.5-.5v-1-1l.5-.5.5-.5.5-1 .5-1-.5-.5-.5-.5.5-.5.5-.5v-1-1l.5-1.5.5-1.5v-1.5-1.5-1-1l.5-1.5.5-1.5-.5-1.5-.5-1.5-12 19-12 19h-2.5-2.5l.5 1 .5 1 .5.5.5.5v1 1" style="fill:#b23d00;stroke:#b23d00"/><path d="m96 889v1l2.5-8 2.5-8-10-7.5-10-7.5-9.5 4-9.5 4-.5 1-.5 1v1.5 1.5l13 .5 13 .5 8.5 3 8.5 3-4 5-4 5" style="fill:#bf4b00;stroke:#bf4b00"/><path d="m433 888h3l1 .5 1 .5v-1-1l-2-.5-2-.5-1-.5-1-.5-1.5-.5-1.5-.5-.5-1.5-.5-1.5-2-.5-2-.5-1.5-.5-1.5-.5-1-1-1-1 .5-1 .5-1h-2-2-.5-.5-2-2-1-1l-1.5-.5-1.5-.5h-1.5-1.5-1-1l-.5-.5-.5-.5v-1-1l.5-1 .5-1-.5-1.5-.5-1.5.5-.5.5-.5 1-.5 1-.5 7.5 8 7.5 8 7.5 4 7.5 4" style="fill:#b23d00;stroke:#b23d00"/><path d="m475 888l2-1-.5-1-.5-1 .5-.5.5-.5.5.5.5.5.5 1.5.5 1.5h1.5 1.5v-2-2l-1.5-1-1.5-1-1.5-.5-1.5-.5-1.5.5-1.5.5v2 2l1 1 1 1" style="fill:#d95400;stroke:#d95400"/><path d="m434 886l4 1-1-.5-1-.5-.5-.5-.5-.5-1.5-.5-1.5-.5-.5-1-.5-1-.5-.5-.5-.5-1-1-1-1-1.5-.5-1.5-.5-1-.5-1-.5v-1-1l-1-.5-1-.5h-1-1l-1.5.5-1.5.5h2 2l-.5 1-.5 1 1 1 1 1 1.5.5 1.5.5 2 .5 2 .5.5 1.5.5 1.5 1.5.5 1.5.5 1 .5 1 .5" style="fill:#bf4b00;stroke:#bf4b00"/><path d="m0 885v1l1-1 1-1 1-.5 1-.5 2-.5 2-.5 1.5-.5 1.5-.5-.5-1-.5-1-1 1-1 1-1.5.5-1.5.5-1.5-.5-1.5-.5.5-1.5.5-1.5v-1.5-1.5l-.5-1.5-.5-1.5h1.5 1.5l-1-.5-1-.5-1 .5-1 .5-.5 1-.5 1v1.5 1.5 2 2 2 2" style="fill:#d95400;stroke:#d95400"/><path d="m146 885v1l22-2 22-2h-2-2-2-2l-1 .5-1 .5h-2-2l-2 .5-2 .5h-2-2-2-2-2.5-2.5l-1.5.5-1.5.5h-2.5-2.5-2.5-2.5" style="fill:#762500;stroke:#762500"/><path d="m7 884l24-38v-2-2l-1-.5-1-.5-2 1-2 1v1.5 1.5l.5 1.5.5 1.5-.5 1-.5 1-1.5.5-1.5.5-1.5 1-1.5 1-1 2-1 2 .5 1 .5 1-4 9.5-4 9.5.5 1 .5 1-1.5.5-1.5.5-2 .5-2 .5-1 .5-1 .5h2.5 2.5" style="fill:#bf4b00;stroke:#bf4b00"/><path d="m165 882l4 1 .5-1 .5-1 .5-.5.5-.5 1.5.5 1.5.5 1 .5 1 .5.5-.5.5-.5 1 .5 1 .5h1.5 1.5l18.5-2 18.5-2-9.5-7-9.5-7-5.5-4.5-5.5-4.5-8 4.5-8 4.5-5.5 7.5-5.5 7.5 1.5 1.5 1.5 1.5" style="fill:#b23d00;stroke:#b23d00"/><path d="m2 881l3 1 1.5-.5 1.5-.5 1-1 1-1 4-9.5 4-9.5-1 .5-1 .5v1.5 1.5h-1-1l-.5.5-.5.5-.5 1.5-.5 1.5-1 1-1 1-1 1-1 1h-1.5-1.5-1.5-1.5l.5 1.5.5 1.5v1.5 1.5l-.5 1.5-.5 1.5" style="fill:#fb7200;stroke:#fb7200"/><g style="fill:#762500;stroke:#762500"><path d="m197 881v1l21-3 21-3-12.5-4-12.5-4 8-5 8-5 13.5-3 13.5-3-2-12-2-12-3.5-9.5-3.5-9.5-5-8.5-5-8.5-6 1.5-6 1.5-7.5-2.5-7.5-2.5-13.5 2-13.5 2h-13.5-13.5l-13.5.5-13.5.5-11 .5-11 .5-7.5-.5-7.5-.5-8.5 1-8.5 1-6-5.5-6-5.5-1 1-1 1-.5 1.5-.5 1.5-1 .5-1 .5-.5 1-.5 1-1 2-1 2 9.5 7 9.5 7 8-3 8-3 6 4.5 6 4.5 6.5 2 6.5 2 9.5-2.5 9.5-2.5 5.5 3 5.5 3 4.5-4.5 4.5-4.5 9 1.5 9 1.5 4.5-3.5 4.5-3.5.5.5.5.5h7.5 7.5l6.5-1 6.5-1 8 1 8 1 8 2.5 8 2.5 1.5 12 1.5 12 .5 9.5.5 9.5-12.5 1-12.5 1-1.5 6.5-1.5 6.5 6.5 4 6.5 4-16.5 1-16.5 1"/><path d="m353 878l18-11-6.5-11.5-6.5-11.5-5-3.5-5-3.5-5 9.5-5 9.5 7-10.5 7-10.5 8.5 14.5 8.5 14.5.5 1.5.5 1.5v2 2 2 2 1 1l-1 .5-1 .5-2-.5-2-.5h-1.5-1.5-2.5-2.5-2-2-2.5-2.5l-1.5-.5-1.5-.5h-2.5-2.5-2-2-2.5-2.5-2-2l-1.5.5-1.5.5 2 .5 2 .5 2-.5 2-.5h2 2l2 .5 2 .5 1.5-.5 1.5-.5 1.5.5 1.5.5h2.5 2.5 1.5 1.5"/><path d="m302 877l3 1h2 2 2.5 2.5 2 2l2-.5 2-.5h-2-2l-1-.5-1-.5-1.5.5-1.5.5h-1-1-1-1l-1.5-.5-1.5-.5-1-.5-1-.5 1-.5 1-.5.5-2 .5-2 1.5-.5 1.5-.5 2-.5 2-.5 1-.5 1-.5h-3.5-3.5-1-1l-1 1-1 1-.5 2-.5 2-1 1-1 1v1 1"/></g><g style="fill:#930;stroke:#930"><path d="m364 877l4 1 1-.5 1-.5v-1-1-2-2-2-2l-.5-1.5-.5-1.5-.5 1.5-.5 1.5v2 2 1.5 1.5 1 1h-1-1-25-25l1 .5 1 .5h2 2 .5.5l1.5-.5 1.5-.5h2 2 2.5 2.5 2 2 2.5 2.5l1.5.5 1.5.5h2.5 2.5 2 2 2.5 2.5 1.5 1.5"/><path d="m306 876l3 1h1 1 1 1l1.5-.5 1.5-.5 3-1 3-1 3.5-5 3.5-5 10-6.5 10-6.5 10 6.5 10 6.5-8.5-14.5-8.5-14.5-7 10.5-7 10.5-1.5 1-1.5 1-1.5 1-1.5 1-1.5.5-1.5.5-1.5 1-1.5 1-1.5.5-1.5.5-2 .5-2 .5-1.5.5-1.5.5v.5.5l-1 .5-1 .5-2 .5-2 .5-1.5.5-1.5.5-.5 2-.5 2-1 .5-1 .5 1 .5 1 .5"/></g><path d="m366 876h2v-1-1-1.5-1.5-2-2l.5-1.5.5-1.5-10-6.5-10-6.5-10 6.5-10 6.5-3.5 5-3.5 5-3 1-3 1h25 25" style="fill:#b23d00;stroke:#b23d00"/><path d="m406 874l3 1h1 1 2 2l3.5-11 3.5-11-1-.5-1-.5h-.5-.5l-.5 1.5-.5 1.5-.5.5-.5.5-.5.5-.5.5v1 1l.5 1 .5 1v1 1l-.5-.5-.5-.5h-1-1l-.5 1-.5 1h-1-1-1-1-1-1-1.5-1.5-.5-.5l-1 .5-1 .5-.5.5-.5.5.5 1.5.5 1.5-.5 1-.5 1v1 1l.5.5.5.5h1 1 1.5 1.5" style="fill:#bf4b00;stroke:#bf4b00"/><g style="fill:#930;stroke:#930"><path d="m0 873v1l.5-1 .5-1 1-.5 1-.5 1 .5 1 .5h1.5 1.5l1-1 1-1 1-1 1-1-.5-.5-.5-.5-.5-1-.5-1-1.5-.5-1.5-.5-1.5-1-1.5-1-.5-1.5-.5-1.5-1.5.5-1.5.5v1.5 1.5 2.5 2.5 2 2 .5.5"/><path d="m192 873l-2-11 1 5 1 5v.5.5"/></g><path d="m693 873h2l1-1 1-1 1-1.5 1-1.5-1.5-.5-1.5-.5-1.5 1-1.5 1h-1-1l-2-.5-2-.5-.5 1.5-.5 1.5 1 1 1 1 2-.5 2-.5.5.5.5.5" style="fill:#581c00;stroke:#581c00"/><path d="m223 868l3 1 1.5-.5 1.5-.5h1.5 1.5 1 1v-1.5-1.5l-.5-1.5-.5-1.5-2-.5-2-.5-1.5.5-1.5.5-.5 1.5-.5 1.5-1 1.5-1 1.5" style="fill:#371300;stroke:#371300"/><path d="m11 867l1 1 .5-1.5.5-1.5.5-.5.5-.5h1 1v-1.5-1.5l1-.5 1-.5-.5-1-.5-1-1 .5-1 .5-.5-2-.5-2v-1-1l.5-1 .5-1v-1-1-2.5-2.5-2-2l-1-2-1-2-.5 1.5-.5 1.5-1 1.5-1 1.5 1.5-.5 1.5-.5v2 2l-.5 2-.5 2-.5 1.5-.5 1.5.5 2 .5 2-1.5.5-1.5.5 1 1.5 1 1.5.5 1.5.5 1.5h-1-1-1.5-1.5l-.5-.5-.5-.5-.5-.5-.5-.5v-1.5-1.5l.5-1.5.5-1.5v-1-1l-.5-.5-.5-.5-1-1-1-1-1.5 1-1.5 1v2.5 2.5 1.5 1.5l1.5-.5 1.5-.5.5 1.5.5 1.5 1.5 1 1.5 1 1.5.5 1.5.5.5 1 .5 1" style="fill:#d95400;stroke:#d95400"/><path d="m664 866v1l.5-1 .5-1v-1-1-1-1l.5-.5.5-.5v-2-2-1.5-1.5-1-1l.5-1.5.5-1.5v-1.5-1.5-1-1l.5-1.5.5-1.5v-1.5-1.5-1-1l.5-.5.5-.5v-1-1-2.5-2.5h-.5-.5v2 2l-.5.5-.5.5v2 2 1.5 1.5l-.5.5-.5.5v1 1 1 1l-.5 1-.5 1v1 1 1 1 1 1l-.5 1.5-.5 1.5v1.5 1.5 1 1 1.5 1.5 1.5 1.5" style="fill:#b23d00;stroke:#b23d00"/><path d="m10 863h2l-.5-1.5-.5-1.5-1-1.5-1-1.5 1.5-.5 1.5-.5-.5-2-.5-2 .5-1.5.5-1.5.5-2 .5-2v-2-2l-1.5.5-1.5.5-1 1.5-1 1.5 1 1 1 1-1.5 1-1.5 1h-1-1l-1 .5-1 .5 1 1 1 1 .5.5.5.5v1 1l-.5 1.5-.5 1.5v1.5 1.5l.5.5.5.5.5.5.5.5h1.5 1.5" style="fill:#ee6000;stroke:#ee6000"/><path d="m404 863v1h1.5 1.5 1 1 1 1 1 1l.5-1 .5-1h1 1l.5.5.5.5v-1-1l-.5-1-.5-1v-1-1l.5-.5.5-.5.5-.5.5-.5.5-1.5.5-1.5h.5.5l1 .5 1 .5.5-1.5.5-1.5-1.5-.5-1.5-.5v-2-2l-.5 1-.5 1-.5 1.5-.5 1.5-1 .5-1 .5v1 1l-.5 1.5-.5 1.5-.5 1-.5 1-.5.5-.5.5v1 1h-1-1l-1.5.5-1.5.5-2 .5-2 .5" style="fill:#b23d00;stroke:#b23d00"/><path d="m15 859l2-1-.5-.5-.5-.5v-2-2l.5-1.5.5-1.5-.5-2-.5-2 1-1 1-1-1-1.5-1-1.5-.5-1.5-.5-1.5.5-1.5.5-1.5-.5-1-.5-1h-.5-.5l-.5 1.5-.5 1.5 1 2 1 2v2 2 2.5 2.5 1 1l-.5 1-.5 1v1 1l.5 2 .5 2" style="fill:#bf4b00;stroke:#bf4b00"/><g style="fill:#b23d00;stroke:#b23d00"><path d="m16 857l1 1 1-2 1-2 1.5-1 1.5-1 1.5-.5 1.5-.5.5-1 .5-1-.5-1.5-.5-1.5v-1.5-1.5l2-1 2-1v-1.5-1.5l-.5-.5-.5-.5.5-1.5.5-1.5.5-1 .5-1 .5-.5.5-.5 1-1 1-1 .5-1 .5-1 .5-.5.5-.5.5-1.5.5-1.5 1-.5 1-.5.5-.5.5-.5.5-.5.5-.5.5-1 .5-1-1 .5-1 .5-1.5 1-1.5 1h-1-1l2-19.5 2-19.5h-1-1l-3.5 12-3.5 12-4 18-4 18v-1.5-1.5l.5-1.5.5-1.5-.5-.5-.5-.5.5-1 .5-1 1-1 1-1h-1-1l-.5.5-.5.5h-1-1l-1-.5-1-.5-1 1-1 1 .5 1 .5 1-.5 1.5-.5 1.5.5 1.5.5 1.5 1 1.5 1 1.5-1 1-1 1 .5 2 .5 2-.5 1.5-.5 1.5v2 2"/><path d="m213 857l3 1 1.5-.5 1.5-.5-1-1.5-1-1.5-.5-1.5-.5-1.5-1-.5-1-.5-1 1-1 1-1 1.5-1 1.5v1 1h1.5 1.5"/></g><path d="m556 853v-13l-6.5-6.5-6.5-6.5 4 7.5 4 7.5 2.5 5.5 2.5 5.5" style="fill:#ee6000;stroke:#ee6000"/><path d="m237 852l-7-12 4-8 4-8-6-1.5-6-1.5-3.5 12.5-3.5 12.5 9 3 9 3" style="fill:#b23d00;stroke:#b23d00"/><path d="m310 852h2l1-1 1-1h1.5 1.5l1.5.5 1.5.5-.5-2-.5-2-1-1-1-1-2-.5-2-.5-1.5.5-1.5.5-.5 1.5-.5 1.5v1.5 1.5l.5.5.5.5" style="fill:#371300;stroke:#371300"/><g style="fill:#762500;stroke:#762500"><path d="m0 851v1l1.5-1 1.5-1 1-.5 1-.5h1 1l1.5-1 1.5-1-1-1-1-1 1-1.5 1-1.5 1-1.5 1-1.5.5-1.5.5-1.5.5-1.5.5-1.5 4.5-12 4.5-12 5.5-13.5 5.5-13.5-6 11-6 11-3.5 11-3.5 11-7.5 9.5-7.5 9.5v3 3"/><path d="m206 850l12-19-3 1-3 1-3 8.5-3 8.5"/></g><path d="m420 849l3 1 5.5-1 5.5-1 8-6 8-6 6-1.5 6-1.5 8.5.5 8.5.5-.5-6-.5-6 8.5-1 8.5-1-2.5-5-2.5-5 5.5-2.5 5.5-2.5 10-.5 10-.5 8 .5 8 .5 6 4 6 4 10-.5 10-.5 9.5-5 9.5-5 8.5-1.5 8.5-1.5 11.5-2 11.5-2 10.5-1 10.5-1 9 3.5 9 3.5.5 13.5.5 13.5h.5.5l1-1.5 1-1.5v-1.5-1.5-1-1-2-2-1.5-1.5l.5-.5.5-.5v-2-2-1.5-1.5-1-1l.5-1.5.5-1.5.5-2 .5-2v-1.5-1.5l-2-5-2-5-10.5-2-10.5-2-9 3-9 3-8 .5-8 .5-7.5 1.5-7.5 1.5-5.5-1-5.5-1-6.5.5-6.5.5-6.5-2-6.5-2-5 2-5 2-8.5-5-8.5-5-5.5 3.5-5.5 3.5-4.5 4-4.5 4-4.5 3.5-4.5 3.5-9.5-6.5-9.5-6.5-7 7.5-7 7.5-8 8-8 8-1.5-.5-1.5-.5h-1-1l-1 .5-1 .5-1-2-1-2-1 .5-1 .5-4 6-4 6-9 8-9 8-.5 1.5-.5 1.5v2 2" style="fill:#bf4b00;stroke:#bf4b00"/><path d="m33 848h3v-2-2l.5-2 .5-2-1-1-1-1-1-1.5-1-1.5-1 1-1 1v2.5 2.5l1 1 1 1v2 2" style="fill:#762500;stroke:#762500"/><path d="m53 847l4-13-5.5-.5-5.5-.5 3.5 7 3.5 7" style="fill:#581c00;stroke:#581c00"/><g style="fill:#762500;stroke:#762500"><path d="m335 844l9-12-9.5.5-9.5.5-2.5-3-2.5-3-4.5 1.5-4.5 1.5 4 1.5 4 1.5 6 3 6 3 2 2.5 2 2.5"/><path d="m368 843l3 1 1.5-.5 1.5-.5.5-2 .5-2-1-1-1-1-1.5-1-1.5-1-1-1-1-1-1.5 1-1.5 1 .5 1.5.5 1.5.5 1.5.5 1.5.5 1 .5 1"/></g><path d="m21 842l8-36 3.5-12 3.5-12h-1-1l-5.5 13.5-5.5 13.5-4.5 12-4.5 12h.5.5l1-1 1-1 1 .5 1 .5h1 1l.5-.5.5-.5h1 1l-1 1-1 1-.5 1-.5 1 .5.5.5.5-.5 1.5-.5 1.5v1.5 1.5" style="fill:#930;stroke:#930"/><path d="m421 841v1l9-8 9-8 4-6 4-6-13 13.5-13 13.5" style="fill:#b23d00;stroke:#b23d00"/><path d="m34 821h2l1.5-1 1.5-1 1-.5 1-.5v-.5-.5l.5-.5.5-.5h-1.5-1.5-1.5-1.5l-.5-1-.5-1 .5-.5.5-.5.5-1 .5-1 .5-1.5.5-1.5v-1-1-1-1l-.5-.5-.5-.5-.5-1-.5-1 .5-1.5.5-1.5.5-.5.5-.5-.5-1-.5-1 .5-1.5.5-1.5v-1-1-1.5-1.5l1-2 1-2 .5-1 .5-1-1.5.5-1.5.5-2 19.5-2 19.5" style="fill:#bf4b00;stroke:#bf4b00"/><path d="m358 820l20-11 6-7 6-7 9-8.5 9-8.5-4.5-8.5-4.5-8.5-6-6.5-6-6.5 9-5 9-5-3-9.5-3-9.5 3.5-2.5 3.5-2.5 2-10.5 2-10.5-3.5-7.5-3.5-7.5 2-7.5 2-7.5.5-9.5.5-9.5-2.5-10-2.5-10 3.5-6.5 3.5-6.5 4.5-3 4.5-3 8-2 8-2-4-5-4-5-9 1.5-9 1.5-2-7-2-7-8.5-4-8.5-4-6.5-6.5-6.5-6.5-9-1.5-9-1.5v13 13l-4.5 11-4.5 11-1 5-1 5-5 5.5-5 5.5-3 11-3 11-3.5 7-3.5 7 2.5 5.5 2.5 5.5-2 7.5-2 7.5 5 6 5 6 4 10 4 10 3 11.5 3 11.5 1.5 12.5 1.5 12.5 1 14.5 1 14.5 1.5 11.5 1.5 11.5 1 .5 1 .5" style="fill:#371300;stroke:#371300"/><path d="m41 817v1h1.5 1.5l.5-1.5.5-1.5.5-2 .5-2 1-1 1-1 1-1.5 1-1.5.5-1.5.5-1.5.5-2 .5-2 1-.5 1-.5 1-2 1-2 .5-1 .5-1v-.5-.5l.5-1 .5-1-.5-.5-.5-.5-.5-1.5-.5-1.5v-1-1-1-1-.5-.5-1-1-1-1h-1-1-1.5-1.5l-.5-.5-.5-.5.5-.5.5-.5.5-.5.5-.5 1-1 1-1-1.5-.5-1.5-.5-1-.5-1-.5-2.5 1-2.5 1-1 1-1 1-1 1.5-1 1.5-1 1-1 1-1.5 1-1.5 1-.5 1-.5 1h1 1 1 1l1.5-.5 1.5-.5-.5 1-.5 1v1.5 1.5l-.5 2-.5 2v2 2 1.5 1.5 2 2l.5 1.5.5 1.5v-.5-.5l6.5-5.5 6.5-5.5v1.5 1.5l-1 1-1 1-.5 2-.5 2-1 1-1 1-.5 2-.5 2-1 1-1 1h-1-1l-.5-1-.5-1-.5-1.5-.5-1.5h-.5-.5l.5 2.5.5 2.5-.5 1.5-.5 1.5v1.5 1.5l1 .5 1 .5-.5.5-.5.5" style="fill:#ee6000;stroke:#ee6000"/><path d="m458 817l16-16 7-7.5 7-7.5 9.5 6.5 9.5 6.5 4.5-3.5 4.5-3.5 4.5-4 4.5-4 5.5-3.5 5.5-3.5 8.5 5 8.5 5 5-2 5-2 6.5 2 6.5 2 6.5-.5 6.5-.5 5.5 1 5.5 1 7.5-1.5 7.5-1.5 8-.5 8-.5 9-3 9-3 10.5 2 10.5 2 2 5 2 5v-.5-.5l-9.5-9-9.5-9 3.5-6 3.5-6-8.5 1-8.5 1h-13-13l-13 2.5-13 2.5-7-1.5-7-1.5-9.5.5-9.5.5-11-.5-11-.5-11 1-11 1-8 .5-8 .5-7.5 8-7.5 8-8 8.5-8 8.5-10 6-10 6 1 2 1 2 1-.5 1-.5h1 1l1.5.5 1.5.5" style="fill:#b23d00;stroke:#b23d00"/><path d="m39 816h3l-1-.5-1-.5v-1.5-1.5l.5-1.5.5-1.5-.5-2.5-.5-2.5-.5-1.5-.5-1.5v-2-2-1.5-1.5-2-2l.5-2 .5-2v-1.5-1.5l-1 2-1 2v1.5 1.5 1 1l-.5 1.5-.5 1.5.5 1 .5 1-.5.5-.5.5-.5 1.5-.5 1.5.5 1 .5 1 .5.5.5.5v1 1 1 1l-.5 1.5-.5 1.5-.5 1-.5 1-.5.5-.5.5.5 1 .5 1h1.5 1.5" style="fill:#d95400;stroke:#d95400"/><path d="m43 809h2l1-1 1-1 .5-2 .5-2 1-1 1-1 .5-2 .5-2 1-1 1-1v-1.5-1.5l-2-.5-2-.5-1-1-1-1-1-1.5-1-1.5-.5 1.5-.5 1.5-.5 1-.5 1-1 1-1 1v2.5 2.5 3 3l.5 1.5.5 1.5.5 1 .5 1" style="fill:#ff8d01;stroke:#ff8d01"/><path d="m544 805l3 1 1.5-.5 1.5-.5 2-.5 2-.5-.5-1.5-.5-1.5-2-.5-2-.5-1-1-1-1-1 1.5-1 1.5-1 1-1 1 .5 1 .5 1" style="fill:#d95400;stroke:#d95400"/><path d="m40 803v1h.5.5v-3-3-2.5-2.5l1-1 1-1 .5-1 .5-1 .5-1.5.5-1.5 1 1.5 1 1.5 1 1 1 1 2 .5 2 .5-6.5 5.5-6.5 5.5" style="fill:#fb7200;stroke:#fb7200"/><path d="m57 791v1l1-.5 1-.5.5-1.5.5-1.5 1-1 1-1v-.5-.5l1-.5 1-.5 1-1 1-1 .5-.5.5-.5v-.5-.5l-1-1-1-1-.5-.5-.5-.5-.5-1-.5-1-1-1-1-1-.5-1.5-.5-1.5h-1-1-1.5-1.5l-2.5-.5-2.5-.5h-.5-.5l1 .5 1 .5 1.5.5 1.5.5h1.5 1.5l.5.5.5.5.5.5.5.5-1 .5-1 .5-.5.5-.5.5.5.5.5.5.5.5.5.5v1 1l.5 1 .5 1 .5.5.5.5h1 1v1 1l-1 .5-1 .5-.5.5-.5.5-.5 1.5-.5 1.5-.5 1-.5 1" style="fill:#930;stroke:#930"/><path d="m694 791h2l1.5-.5 1.5-.5-2-.5-2-.5-.5-1.5-.5-1.5-.5-1-.5-1-1.5.5-1.5.5-1.5 1-1.5 1-.5 1.5-.5 1.5h1 1l2 .5 2 .5h1 1" style="fill:#762500;stroke:#762500"/><path d="m229 790l23-20 4.5-4 4.5-4 6.5 1 6.5 1-3-6.5-3-6.5 6-4 6-4 2-9.5 2-9.5 3.5-4 3.5-4 4.5 7.5 4.5 7.5 1-4.5 1-4.5 5-8 5-8 1-10.5 1-10.5-.5-9-.5-9 1-12.5 1-12.5 2.5-12.5 2.5-12.5 5.5-9 5.5-9h2.5 2.5l-6.5-3.5-6.5-3.5-11 3.5-11 3.5-5.5-11.5-5.5-11.5-5.5-10-5.5-10 3-8.5 3-8.5 5.5-9 5.5-9 2-13 2-13 7-8.5 7-8.5 14.5-2 14.5-2 5.5.5 5.5.5 11-5.5 11-5.5-3-4.5-3-4.5-4-7-4-7h10.5 10.5l1 5 1 5 4-8.5 4-8.5-10.5-6-10.5-6-13-1-13-1 12-2.5 12-2.5-2-9.5-2-9.5 11-3 11-3-4-3.5-4-3.5-2.5-9-2.5-9-10.5 4.5-10.5 4.5 1.5-10 1.5-10 3-5 3-5 4 3.5 4 3.5 1.5 4 1.5 4 4.5-11.5 4.5-11.5-2-1.5-2-1.5-10-5.5-10-5.5-3-8-3-8 .5-7 .5-7 .5-5.5.5-5.5-2.5-7-2.5-7 7-5.5 7-5.5 3-7 3-7v-10.5-10.5l2-9.5 2-9.5-1.5-7.5-1.5-7.5-2-10.5-2-10.5 9.5-2 9.5-2 6.5-2.5 6.5-2.5.5-6 .5-6-10.5-2-10.5-2v-4-4l-6-10-6-10-10-3-10-3-9.5-3-9.5-3-3.5-6.5-3.5-6.5 7.5-3 7.5-3 5.5 2.5 5.5 2.5 10.5-4 10.5-4-1-.5-1-.5h-1-1l-.5 1-.5 1-1.5.5-1.5.5-1.5-.5-1.5-.5-7.5-4.5-7.5-4.5 13 4 13 4 5-14 5-14 5-3.5 5-3.5 13.5-1 13.5-1-9.5-2.5-9.5-2.5-6 2.5-6 2.5-8-5.5-8-5.5 6-5 6-5 2.5-7 2.5-7 10.5 1.5 10.5 1.5-2-5-2-5h-18.5-18.5-18-18-17.5-17.5-18-18-17.5-17.5-17-17l10.5 2 10.5 2 1 5 1 5-7 1.5-7 1.5-5 11-5 11 8.5 6 8.5 6 2 9 2 9 3 8.5 3 8.5-4 2-4 2-4 10.5-4 10.5-7.5-8.5-7.5-8.5-4-11.5-4-11.5-10-4-10-4-2-7.5-2-7.5-.5 1-.5 1-.5 1-.5 1h-1-1-.5-.5l-1 .5-1 .5-.5-1-.5-1-1-.5-1-.5-.5-.5-.5-.5v-1-1l.5-.5.5-.5 1 .5 1 .5.5-.5.5-.5h1 1l.5.5.5.5h1 1l-.5-1-.5-1-.5-.5-.5-.5h1 1l.5.5.5.5h1 1l-.5 1.5-.5 1.5 7.5-3.5 7.5-3.5 2-3 2-3v-17.5-17.5h-19-19-7-7l-3.5 7.5-3.5 7.5v-1.5-1.5l1.5-.5 1.5-.5.5-.5.5-.5-.5-1-.5-1-.5-.5-.5-.5-.5.5-.5.5h-1-1l-.5-.5-.5-.5-1-.5-1-.5h1 1l-.5-.5-.5-.5-.5-.5-.5-.5-1-.5-1-.5-1-1.5-1-1.5h-1.5-1.5l3 13 3 13 8.5 5.5 8.5 5.5 5 4.5 5 4.5.5 6.5.5 6.5-7 8.5-7 8.5-2.5 8-2.5 8h.5.5l6 7.5 6 7.5-2 6-2 6-6 1.5-6 1.5-5.5 1-5.5 1-4.5-7.5-4.5-7.5-5.5 8-5.5 8-.5 9-.5 9-2.5 11.5-2.5 11.5-1 11.5-1 11.5-1 12.5-1 12.5v9.5 9.5l-1.5 10.5-1.5 10.5 1.5 12 1.5 12-1 4.5-1 4.5-.5 12.5-.5 12.5 1 11.5 1 11.5 7 9.5 7 9.5 7.5 9 7.5 9 11 15 11 15-8.5-8.5-8.5-8.5-8.5-9.5-8.5-9.5-9.5-8-9.5-8-9-7-9-7-10.5-7-10.5-7-5-4-5-4 6-4.5 6-4.5 7.5 7.5 7.5 7.5-5-4.5-5-4.5 11-3.5 11-3.5v-2.5-2.5-1-1l.5-1 .5-1v-2-2-2-2-1-1-1.5-1.5l.5-1.5.5-1.5v-1-1l1-15 1-15 1.5-15.5 1.5-15.5 1.5-15 1.5-15 2-22 2-22-.5-1.5-.5-1.5.5-1.5.5-1.5v-15-15l-3.5 11-3.5 11-2-9-2-9-6.5 7-6.5 7 .5-7 .5-7-4.5-5.5-4.5-5.5-1-7.5-1-7.5-8.5 1-8.5 1-1 10-1 10 .5 8.5.5 8.5-5-1.5-5-1.5-1-3-1-3-4.5 9.5-4.5 9.5v3 3 2 2 2 2 2 2l1.5 1 1.5 1 1 1.5 1 1.5.5 1.5.5 1.5 1.5 1 1.5 1-1 1-1 1-1 1.5-1 1.5-1 1-1 1h-1.5-1.5v3 3 2 2 2.5 2.5 16 16 18.5 18.5 18 18 9 9l1-3.5 1-3.5 6.5-7.5 6.5-7.5 1.5 5 1.5 5-9 14-9 14v2 2 2 2 2 2 2.5 2.5l3.5 13 3.5 13-.5-1.5-.5-1.5.5-1.5.5-1.5-1-1-1-1-1-1.5-1-1.5-.5 1.5-.5 1.5-1 .5-1 .5v18.5 18.5 18 18 17.5 17.5 18 18 17.5 17.5 11 11l8-5.5 8-5.5 8.5-4.5 8.5-4.5 3 7.5 3 7.5-6 13-6 13-1-2-1-2-1.5-.5-1.5-.5-1 1.5-1 1.5h-2-2l-2-.5-2-.5-1-1-1-1h-2-2l-1-1.5-1-1.5-1 1-1 1-1 .5-1 .5v2.5 2.5l11.5 3 11.5 3 11 3.5 11 3.5.5 11.5.5 11.5 5 4.5 5 4.5 1-11.5 1-11.5 10-.5 10-.5 8.5 7.5 8.5 7.5 1 11.5 1 11.5-9 .5-9 .5-5.5 1-5.5 1-4.5-5.5-4.5-5.5-5 3.5-5 3.5-11 3-11 3-1-1-1-1-1-.5-1-.5-.5-1.5-.5-1.5h-1.5-1.5-2-2-2.5-2.5-2-2-2-2l-1-.5-1-.5v3 3 2.5 2.5l11-2.5 11-2.5 8.5 1.5 8.5 1.5 10 1.5 10 1.5 8 3 8 3 5-.5 5-.5-2.5 5-2.5 5 5 4.5 5 4.5-2 9-2 9-10 2.5-10 2.5-1.5 5-1.5 5-4-1.5-4-1.5 2.5-8.5 2.5-8.5-9.5-3-9.5-3-11 6-11 6-1 9.5-1 9.5-8.5 11.5-8.5 11.5v1.5 1.5 2.5 2.5 2 2 1.5 1.5l5 3 5 3 12-4 12-4 8.5-1 8.5-1 12.5-4.5 12.5-4.5 9-3.5 9-3.5 3.5-8.5 3.5-8.5 1 8.5 1 8.5-10.5 5-10.5 5-12.5 3.5-12.5 3.5-12.5 5-12.5 5-16 6-16 6v2 2 2.5 2.5 2 2 .5.5l13.5-7 13.5-7 7.5 1 7.5 1 11-5 11-5 10.5-7.5 10.5-7.5 1-1 1-1 1.5.5 1.5.5 1 1.5 1 1.5 1 1 1 1 1 1 1 1-.5 3-.5 3-1.5 1-1.5 1-.5.5-.5.5-1 .5-1 .5h-2-2-1-1l-1 .5-1 .5-1 1-1 1h-1-1l-.5 2-.5 2 5 9.5 5 9.5 13 .5 13 .5h15 15l3-3.5 3-3.5 11.5-5 11.5-5 14.5-1.5 14.5-1.5h14.5 14.5v11 11" style="fill:#371300;stroke:#371300"/><path d="m57 788l1 1 .5-1.5.5-1.5.5-.5.5-.5 1-.5 1-.5v-1-1h-1-1l-.5-.5-.5-.5-.5-1-.5-1v-1-1l-.5-.5-.5-.5-.5-.5-.5-.5.5-.5.5-.5 1-.5 1-.5-.5-.5-.5-.5-.5-.5-.5-.5h-1.5-1.5l-1 1-1 1-.5.5-.5.5-.5.5-.5.5.5.5.5.5h1.5 1.5 1 1v1 1 1 1 .5.5 1 1 1 1l.5 1.5.5 1.5" style="fill:#b23d00;stroke:#b23d00"/><g style="fill:#762500;stroke:#762500"><path d="m62 785v1l-6-8.5-6-8.5 2.5.5 2.5.5h1.5 1.5 1 1l.5 1.5.5 1.5 1 1 1 1 .5 1 .5 1 .5.5.5.5 1 1 1 1v.5.5l-.5.5-.5.5-1 1-1 1-1 .5-1 .5"/><path d="m709 785h3v-1.5-1.5-2.5-2.5-2-2l-1.5-1-1.5-1-1 1-1 1-1.5 1-1.5 1-.5 1.5-.5 1.5v1 1l1 1.5 1 1.5 1.5-.5 1.5-.5 1.5 1 1.5 1-1 .5-1 .5"/></g><path d="m577 784h2l1-1 1-1 .5-2 .5-2-1-1-1-1h-1.5-1.5-2-2l-.5 2-.5 2 1.5.5 1.5.5.5 1.5.5 1.5h.5.5" style="fill:#bf4b00;stroke:#bf4b00"/><g style="fill:#250e00;stroke:#250e00"><path d="m137 779l-6-7 .5 3.5.5 3.5h2.5 2.5"/><path d="m148 773l18-7 11.5-5.5 11.5-5.5 6-10.5 6-10.5 6-9 6-9 4 .5 4 .5 4-7 4-7-4-9.5-4-9.5 3.5-6.5 3.5-6.5-4.5-4-4.5-4h-7-7l-.5 10-.5 10-6-4-6-4-10-2.5-10-2.5 2.5-7.5 2.5-7.5 2-4.5 2-4.5-2-6-2-6-5-1-5-1 1-8.5 1-8.5-1-8-1-8h9.5 9.5l-3-10-3-10v-5.5-5.5l-2-11-2-11-11 .5-11 .5-9.5-6.5-9.5-6.5-5 4.5-5 4.5-3 8-3 8-2.5 7-2.5 7 2.5 9.5 2.5 9.5-2.5 11-2.5 11-2 10-2 10 3.5 6.5 3.5 6.5-1 11.5-1 11.5-1 12-1 12-2.5 12-2.5 12 3.5 7.5 3.5 7.5-2.5 9-2.5 9 5 4 5 4 10.5 1 10.5 1 9-6 9-6h5.5 5.5l-7 4-7 4-6 6.5-6 6.5 2 1.5 2 1.5"/></g><path d="m68 769l3 1 1.5-1 1.5-1 .5-1.5.5-1.5-1-1-1-1-2-.5-2-.5h-2-2l.5 1 .5 1v1 1l1 1.5 1 1.5" style="fill:#930;stroke:#930"/><path d="m65 768l3 1-1-1.5-1-1.5v-1-1l-.5-1-.5-1h2 2l2 .5 2 .5 1 1 1 1-.5 1.5-.5 1.5h1 1l.5-2 .5-2h1 1l1-1 1-1 1-.5 1-.5h1 1 2 2l1-.5 1-.5.5-.5.5-.5 1.5-1 1.5-1v-2-2h-.5-.5l-.5 1.5-.5 1.5-1 1.5-1 1.5h-2-2l-2-.5-2-.5-1.5.5-1.5.5-1.5-.5-1.5-.5v-1.5-1.5l1.5-.5 1.5-.5.5-.5.5-.5v-1-1l.5-1 .5-1-8.5 9.5-8.5 9.5" style="fill:#762500;stroke:#762500"/><path d="m0 767v1l16-6 16-6 12.5-5 12.5-5 12.5-3.5 12.5-3.5 10.5-5 10.5-5-1-8.5-1-8.5-3.5 8.5-3.5 8.5-9 3.5-9 3.5-12.5 4.5-12.5 4.5-8.5 1-8.5 1-12 4-12 4-5-3-5-3v3 3 2 2 2.5 2.5 1.5 1.5" style="fill:#581c00;stroke:#581c00"/><path d="m77 758l3 1 1.5-.5 1.5-.5 2 .5 2 .5h2 2l1-1.5 1-1.5.5-1.5.5-1.5h.5.5v2 2l.5-3 .5-3-1-1-1-1-1-1-1-1-1-1.5-1-1.5-1.5-.5-1.5-.5-1 1-1 1-.5 1-.5 1-1 1-1 1-.5 1-.5 1v1 1l-.5.5-.5.5-1.5.5-1.5.5v1.5 1.5" style="fill:#930;stroke:#930"/><path d="m113 753l20-9-9.5 3.5-9.5 3.5-.5 1-.5 1" style="fill:#371300;stroke:#371300"/><path d="m505 753l3-1-1-21-1-21-5.5-12-5.5-12-2-11-2-11-11.5-6-11.5-6-1.5.5-1.5.5-1 1.5-1 1.5-1 1-1 1-1 1.5-1 1.5-.5 1.5-.5 1.5-1 1-1 1-1 1-1 1-1 1-1 1-1.5.5-1.5.5-.5.5-.5.5-.5 1-.5 1-1.5.5-1.5.5-.5.5-.5.5-.5 1-.5 1-1 1-1 1-.5.5-.5.5-.5 1-.5 1-1 1-1 1-1 .5-1 .5-.5 1-.5 1-1 1-1 1-.5 2-.5 2v1.5 1.5l1-.5 1-.5h.5.5l-.5-2-.5-2 1-1.5 1-1.5 1-1 1-1 1-.5 1-.5.5-.5.5-.5 1 .5 1 .5v1 1l.5.5.5.5 1 .5 1 .5v-.5-.5l.5-1.5.5-1.5v-1.5-1.5l1-.5 1-.5v-2-2l1-1.5 1-1.5 1.5-.5 1.5-.5 1-1 1-1 .5-.5.5-.5.5-1 .5-1 1-1 1-1h1 1l.5-1 .5-1 .5-1 .5-1 .5-1 .5-1 .5-1 .5-1 .5-.5.5-.5.5-.5.5-.5 1.5-1 1.5-1h1.5 1.5l1.5.5 1.5.5 2 .5 2 .5 1.5.5 1.5.5 1 1 1 1 .5.5.5.5.5 1 .5 1-1 1-1 1 .5.5.5.5 1 1.5 1 1.5.5-1 .5-1 .5 1 .5 1 .5.5.5.5.5.5.5.5.5.5.5.5.5.5.5.5 1 .5 1 .5h1 1l.5-.5.5-.5v1 1 1.5 1.5h-1-1v-1-1l-.5-.5-.5-.5-1 .5-1 .5v1 1 1 1l-.5.5-.5.5-.5.5-.5.5-.5-1-.5-1v-2-2l.5-1.5.5-1.5-1.5-.5-1.5-.5v1.5 1.5l.5 1 .5 1-.5 1.5-.5 1.5 8 18 8 18 .5 2 .5 2v3.5 3.5l.5 1 .5 1-.5.5-.5.5-.5.5-.5.5.5 1 .5 1-.5.5-.5.5.5.5.5.5h-1-1l-1.5-1-1.5-1-.5-.5-.5-.5-1-.5-1-.5v-1-1l-.5-.5-.5-.5v-.5-.5l-.5-1.5-.5-1.5-.5-.5-.5-.5-1-1.5-1-1.5-1 .5-1 .5.5 2.5.5 2.5 1 1.5 1 1.5v.5.5l1.5 1.5 1.5 1.5 1.5 1 1.5 1 1 1 1 1 1.5 1 1.5 1 .5 1.5.5 1.5v2.5 2.5 2 2 1 1" style="fill:#a04c0c;stroke:#a04c0c"/><g style="fill:#762500;stroke:#762500"><path d="m657 746l-11-16-2.5 5.5-2.5 5.5 8 2.5 8 2.5"/><path d="m549 745l6-9-3-7-3-7-3.5 6-3.5 6 3.5 5.5 3.5 5.5"/><path d="m603 745h2l.5-1.5.5-1.5-1-1.5-1-1.5-.5-1.5-.5-1.5-.5-1-.5-1-1.5-.5-1.5-.5v.5.5l.5 1.5.5 1.5.5 1.5.5 1.5.5 2 .5 2 .5.5.5.5"/><path d="m706 745l3 1h1.5 1.5v-2-2-2-2-.5-.5l-1.5 1-1.5 1-1.5-.5-1.5-.5-.5 2-.5 2 .5 1.5.5 1.5"/></g><path d="m489 742l1-1v-2-2l-.5-1.5-.5-1.5v-1.5-1.5l-.5-.5-.5-.5h-2-2l.5 1 .5 1v1 1l-.5 1.5-.5 1.5 1 .5 1 .5.5.5.5.5.5.5.5.5.5 1 .5 1" style="fill:#a04c0c;stroke:#a04c0c"/><path d="m503 735h2l-.5-.5-.5-.5.5-.5.5-.5-.5-1-.5-1 .5-.5.5-.5.5-.5.5-.5-.5-1-.5-1-1.5.5-1.5.5-6-11-6-11-10-5.5-10-5.5-12.5-4.5-12.5-4.5-.5 1.5-.5 1.5v.5.5l12 3.5 12 3.5 12 11.5 12 11.5 1 1.5 1 1.5.5.5.5.5.5 1.5.5 1.5v.5.5l.5.5.5.5v1 1l1 .5 1 .5.5.5.5.5 1.5 1 1.5 1" style="fill:#ee6000;stroke:#ee6000"/><path d="m0 733v1l8.5-11.5 8.5-11.5 1-9.5 1-9.5 11-6 11-6 9.5 3 9.5 3-2.5 8.5-2.5 8.5 4 1.5 4 1.5 1.5-5 1.5-5 10-2.5 10-2.5 2-9 2-9-5-4.5-5-4.5 2.5-5 2.5-5-5 .5-5 .5-8-3-8-3-10-1.5-10-1.5-8.5-1.5-8.5-1.5-11 2.5-11 2.5v19 19 17.5 17.5 6 6" style="fill:#250e00;stroke:#250e00"/><path d="m701 733l3 1 .5-.5.5-.5h1 1l.5.5.5.5v-1.5-1.5-1-1l-.5-.5-.5-.5-.5-.5-.5-.5.5-1 .5-1-.5-.5-.5-.5v-1-1l.5-.5.5-.5.5-1 .5-1v-1-1l.5-.5.5-.5.5.5.5.5v1 1l1 .5 1 .5v-3-3-1-1h-1.5-1.5-1.5-1.5l-1.5.5-1.5.5-1.5-.5-1.5-.5-1-.5-1-.5-.5-1.5-.5-1.5-1.5-.5-1.5-.5-1-1-1-1-.5-.5-.5-.5-.5-1-.5-1 1-1 1-1h2.5 2.5l1.5-.5 1.5-.5h2.5 2.5l1.5-.5 1.5-.5h2 2v-2.5-2.5-2-2-2.5-2.5l-8 3-8 3-2.5 3-2.5 3-3.5 7.5-3.5 7.5 9.5 2 9.5 2-1 9-1 9" style="fill:#762500;stroke:#762500"/><path d="m488 730l1 1 2-.5 2-.5v-.5-.5l-2-.5-2-.5h-1.5-1.5v-2-2l-.5-1-.5-1-.5-1.5-.5-1.5v-1-1l-1-.5-1-.5-.5-1.5-.5-1.5-1.5-1-1.5-1-.5-1.5-.5-1.5-2-.5-2-.5-1-1-1-1-1.5-.5-1.5-.5-.5.5-.5.5h-1.5-1.5l2 1 2 1 1.5.5 1.5.5 1.5.5 1.5.5 1.5 1 1.5 1 1 1 1 1 1 1.5 1 1.5.5 1.5.5 1.5.5 2 .5 2v1 1l.5 2.5.5 2.5h2 2" style="fill:#b23d00;stroke:#b23d00"/><path d="m486 728h3l2 .5 2 .5-1-1.5-1-1.5-.5-.5-.5-.5-6-9.5-6-9.5-21-9.5-21-9.5-1 1-1 1-1 1.5-1 1.5.5 2 .5 2 1.5.5 1.5.5 1 1 1 1 2 .5 2 .5 1.5-.5 1.5-.5 1.5 1 1.5 1h1 1l1.5.5 1.5.5 2-.5 2-.5 1.5.5 1.5.5h1.5 1.5l.5 1.5.5 1.5h1.5 1.5l.5-.5.5-.5 1.5.5 1.5.5 1 1 1 1 2 .5 2 .5.5 1.5.5 1.5 1.5 1 1.5 1 .5 1.5.5 1.5 1 .5 1 .5v1 1l.5 1.5.5 1.5.5 1 .5 1v2 2" style="fill:#bf4b00;stroke:#bf4b00"/><path d="m502 728l3-1v-3.5-3.5l-.5-2-.5-2h-1-1l-7.5-8.5-7.5-8.5-8-4.5-8-4.5-4.5-13.5-4.5-13.5-.5 1-.5 1-.5 1-.5 1h-1-1l-1 1-1 1-.5 1-.5 1-.5.5-.5.5-1 1-1 1-1.5.5-1.5.5-1 1.5-1 1.5v2 2l-1 .5-1 .5v1.5 1.5l12.5 4.5 12.5 4.5 10 5.5 10 5.5 6 11 6 11" style="fill:#fb7200;stroke:#fb7200"/><path d="m490 725l1 1-.5-2.5-.5-2.5 1-.5 1-.5-12-11.5-12-11.5-12-3.5-12-3.5-1-.5-1-.5-.5-.5-.5-.5v-1-1l-1-.5-1-.5-.5.5-.5.5-1 .5-1 .5 21 9.5 21 9.5 6 9.5 6 9.5" style="fill:#d95400;stroke:#d95400"/><path d="m33 720l14-9-5.5-5.5-5.5-5.5-1 8.5-1 8.5-.5 1.5-.5 1.5" style="fill:#250e00;stroke:#250e00"/><path d="m502 716h2l-8-18-8-18v-.5-.5l-1-1-1-1-1-1-1-1-1.5-2-1.5-2-.5-.5-.5-.5-1-1-1-1-1-1-1-1-.5-.5-.5-.5-.5-1-.5-1-1-1-1-1-.5-.5-.5-.5-.5-.5-.5-.5-.5.5-.5.5v1.5 1.5h-1-1-1-1l-1-1-1-1-.5 1-.5 1 4.5 13.5 4.5 13.5 8 4.5 8 4.5 7.5 8.5 7.5 8.5" style="fill:#ff8d01;stroke:#ff8d01"/><path d="m700 712l3 1 1.5-.5 1.5-.5h1.5 1.5 1.5 1.5v-1.5-1.5-1-1h-1.5-1.5l-2-.5-2-.5-.5-.5-.5-.5-1-.5-1-.5 1-1 1-1 2-.5 2-.5 2-.5 2-.5v-1-1h-2-2l-1.5.5-1.5.5h-2.5-2.5l-1.5.5-1.5.5h-2.5-2.5l-1 1-1 1 .5 1 .5 1 .5.5.5.5 1 1 1 1 1.5.5 1.5.5.5 1.5.5 1.5 1 .5 1 .5" style="fill:#930;stroke:#930"/><g style="fill:#371300;stroke:#371300"><path d="m187 710l3 1 1.5-.5 1.5-.5h1.5 1.5v-2-2l-.5-2-.5-2-1.5.5-1.5.5-1.5 1-1.5 1-1 1-1 1v1.5 1.5"/><path d="m213 708h2l1.5-.5 1.5-.5 2-.5 2-.5.5-1.5.5-1.5-1.5-1-1.5-1h-2-2-1.5-1.5l-.5 1.5-.5 1.5.5 1.5.5 1.5v.5.5"/></g><path d="m709 707h3v-1.5-1.5-2-2l-2 .5-2 .5-2 .5-2 .5-1 1-1 1 1 .5 1 .5.5.5.5.5 2 .5 2 .5" style="fill:#ff8d01;stroke:#ff8d01"/><path d="m456 704l4 1h2 2l-.5-1.5-.5-1.5h-1.5-1.5l-1.5-.5-1.5-.5-2 .5-2 .5-1.5-.5-1.5-.5h-1-1l-1.5-1-1.5-1-1.5.5-1.5.5-2-.5-2-.5-1-1-1-1-1.5-.5-1.5-.5h-.5-.5l1 1 1 1h1 1l.5.5.5.5.5.5.5.5 1 .5 1 .5h1 1 1 1l.5.5.5.5.5.5.5.5h1.5 1.5 1 1l.5.5.5.5h2 2" style="fill:#b23d00;stroke:#b23d00"/><path d="m358 697l2-13 4-9 4-9-3.5 6-3.5 6-6 8-6 8 4.5 1.5 4.5 1.5" style="fill:#250e00;stroke:#250e00"/><g style="fill:#762500;stroke:#762500"><path d="m652 688l1-1-.5-1.5-.5-1.5-1-1.5-1-1.5-1-1-1-1h-1.5-1.5l-1 1-1 1-.5 2-.5 2 1 1 1 1 1.5.5 1.5.5h2.5 2.5"/><path d="m434 685v1l1-.5 1-.5 1-1 1-1 .5-1 .5-1 .5-.5.5-.5 1-1 1-1 .5-1 .5-1 .5-.5.5-.5 1.5-.5 1.5-.5.5-1 .5-1 .5-.5.5-.5 1.5-.5 1.5-.5 1-1 1-1 1-1 1-1v-.5-.5l-4.5-9.5-4.5-9.5 3-3.5 3-3.5 7.5-1.5 7.5-1.5-4.5-7.5-4.5-7.5-6-14-6-14 .5-1 .5-1 .5-1.5.5-1.5v-2-2l-11.5 14-11.5 14-5.5 8-5.5 8 7 11 7 11 9 8 9 8-6.5 9.5-6.5 9.5"/></g><path d="m491 682l1-1 .5-.5.5-.5v-1-1-1-1l1-.5 1-.5.5.5.5.5v1 1h1 1v-1.5-1.5-1-1l-.5.5-.5.5h-1-1l-1-.5-1-.5-.5-.5-.5-.5-.5-.5-.5-.5-.5-.5-.5-.5-.5-.5-.5-.5-.5-1-.5-1-.5 1-.5 1 .5 1.5.5 1.5 1.5.5 1.5.5-.5 1.5-.5 1.5v2 2l.5 1 .5 1" style="fill:#bf4b00;stroke:#bf4b00"/><path d="m488 679v1l.5-1.5.5-1.5-.5-1-.5-1v-1.5-1.5l-.5-1.5-.5-1.5-1-1.5-1-1.5-.5-.5-.5-.5 1-1 1-1-.5-1-.5-1-.5-.5-.5-.5-1-1-1-1-1.5-.5-1.5-.5-2-.5-2-.5-1.5-.5-1.5-.5h-1.5-1.5l2 1 2 1 2 .5 2 .5 1.5.5 1.5.5v1.5 1.5h-1-1v1 1l1 .5 1 .5 1 1 1 1-.5 2-.5 2 1.5 2 1.5 2 1 1 1 1 1 1 1 1" style="fill:#de6f05;stroke:#de6f05"/><path d="m480 670l1 1 .5-2 .5-2-1-1-1-1-1-.5-1-.5v-1-1h1 1v-1.5-1.5l-1.5-.5-1.5-.5-2-.5-2-.5-2-1-2-1-1.5 1-1.5 1-.5.5-.5.5-.5.5-.5.5-.5 1-.5 1 1 1 1 1h1 1 1 1v-1.5-1.5l.5-.5.5-.5.5.5.5.5.5.5.5.5 1 1 1 1 .5 1 .5 1 .5.5.5.5 1 1 1 1 1 1 1 1" style="fill:#fb7200;stroke:#fb7200"/><path d="m414 668h2l1.5-.5 1.5-.5 2-.5 2-.5.5-1.5.5-1.5-1-1.5-1-1.5-1.5.5-1.5.5-2 .5-2 .5-.5 1.5-.5 1.5.5.5.5.5-.5 1-.5 1" style="fill:#762500;stroke:#762500"/><path d="m456 665v1l1-1 1-1 .5-1.5.5-1.5 1-1.5 1-1.5 1-1 1-1 1-1.5 1-1.5 1.5-.5 1.5-.5 3-19.5 3-19.5-.5 2.5-.5 2.5v2.5 2.5l-.5 1-.5 1-1.5.5-1.5.5-7.5-10-7.5-10-2.5-4.5-2.5-4.5-1-2-1-2 6 14 6 14 4.5 7.5 4.5 7.5-7.5 1.5-7.5 1.5-3 3.5-3 3.5 4.5 9.5 4.5 9.5" style="fill:#930;stroke:#930"/><path d="m212 646l2-7-4.5-2.5-4.5-2.5-.5-.5-.5-.5v2 2 1.5 1.5l-1 1-1 1h-1.5-1.5l-.5 1.5-.5 1.5 2 .5 2 .5h2 2l1-1.5 1-1.5 1 1 1 1 1 .5 1 .5" style="fill:#581c00;stroke:#581c00"/><path d="m27 644l22-6 5-3.5 5-3.5 4.5 5.5 4.5 5.5 5.5-1 5.5-1 9-.5 9-.5-1-11.5-1-11.5-8.5-7.5-8.5-7.5-10 .5-10 .5-1 11.5-1 11.5-5-4.5-5-4.5-.5-11.5-.5-11.5-11-3.5-11-3.5-11.5-3-11.5-3v18 18 10.5 10.5l1 .5 1 .5h2 2 2 2 2.5 2.5 2 2 1.5 1.5l.5 1.5.5 1.5 1 .5 1 .5 1 1 1 1" style="fill:#250e00;stroke:#250e00"/><path d="m195 642h2v-2-2l.5-2 .5-2 1.5-.5 1.5-.5h1.5 1.5l-1-2-1-2-2 .5-2 .5-1.5-.5-1.5-.5-.5-1.5-.5-1.5-1 .5-1 .5.5 1.5.5 1.5 1 1.5 1 1.5-.5 1.5-.5 1.5v1.5 1.5l.5 1.5.5 1.5" style="fill:#581c00;stroke:#581c00"/><path d="m362 640l6-11-4 1-4 1 1 4.5 1 4.5" style="fill:#250e00;stroke:#250e00"/><path d="m231 635l2-11-3-4-3-4 2 9.5 2 9.5" style="fill:#581c00;stroke:#581c00"/><path d="m332 635l-1-26-1.5 6.5-1.5 6.5 2 6.5 2 6.5" style="fill:#762500;stroke:#762500"/><path d="m273 633l21-8 3-10 3-10-9-7.5-9-7.5-3-3-3-3-8-1.5-8-1.5-5 11-5 11 6 11.5 6 11.5 5.5 3.5 5.5 3.5" style="fill:#250e00;stroke:#250e00"/><path d="m633 630l3 1h2 2l2-.5 2-.5h1 1l.5-1 .5-1-1.5-.5-1.5-.5h-2.5-2.5l-1.5.5-1.5.5-1.5.5-1.5.5v.5.5" style="fill:#762500;stroke:#762500"/><path d="m469 626l3-1-.5-.5-.5-.5-1-1-1-1-.5-1.5-.5-1.5-1.5-1-1.5-1-1-1-1-1-1-1.5-1-1.5-1-1-1-1-1-1.5-1-1.5-1-1-1-1-1-1-1-1-1-2.5-1-2.5-.5-.5-.5-.5h-.5-.5l2.5 4.5 2.5 4.5 7.5 10 7.5 10" style="fill:#b23d00;stroke:#b23d00"/><path d="m471 624l1 1v-.5-.5-2.5-2.5-1-1l-.5-2-.5-2v2.5 2.5h-1-1l-1.5-1.5-1.5-1.5-1-1-1-1-.5-1.5-.5-1.5-1.5-1-1.5-1v-2-2h-1.5-1.5l-1-1-1-1-1-1.5-1-1.5-1-.5-1-.5 1 2.5 1 2.5 1 1 1 1 1 1 1 1 1 1.5 1 1.5 1 1 1 1 1 1.5 1 1.5 1 1 1 1 1.5 1 1.5 1 .5 1.5.5 1.5 1 1 1 1" style="fill:#bf4b00;stroke:#bf4b00"/><path d="m472 624v1l.5-1 .5-1v-2.5-2.5l.5-2.5.5-2.5-12.5-14.5-12.5-14.5v2 2l-.5 1.5-.5 1.5-.5 1-.5 1 1 2 1 2h.5.5l10.5 8 10.5 8 .5 2 .5 2v1 1 2.5 2.5" style="fill:#a04c0c;stroke:#a04c0c"/><path d="m469 618h2v-2.5-2.5l-10.5-8-10.5-8 .5.5.5.5 1 .5 1 .5 1 1.5 1 1.5 1 1 1 1h1.5 1.5v2 2l1.5 1 1.5 1 .5 1.5.5 1.5 1 1 1 1 1.5 1.5 1.5 1.5" style="fill:#d95400;stroke:#d95400"/><path d="m227 612l5-6-4-6-4-6v-4.5-4.5l-5.5 1.5-5.5 1.5-4.5 8-4.5 8 5.5.5 5.5.5 5 2.5 5 2.5 1 1 1 1" style="fill:#581c00;stroke:#581c00"/><path d="m627 605l10-5h11 11l4.5-6 4.5-6-5-3-5-3-2-1.5-2-1.5-6.5-2.5-6.5-2.5-4.5 3-4.5 3-8.5 5.5-8.5 5.5.5 6 .5 6 5.5 1 5.5 1" style="fill:#762500;stroke:#762500"/><path d="m99 604l1-8-6 2-6 2 5.5 2 5.5 2" style="fill:#581c00;stroke:#581c00"/><path d="m590 603l11-14-11-1-11-1 2 6.5 2 6.5 3.5 1.5 3.5 1.5" style="fill:#762500;stroke:#762500"/><path d="m389 601l13-6-4-3-4-3-2.5 6-2.5 6" style="fill:#581c00;stroke:#581c00"/><path d="m476 601l2 1v-.5-.5l-.5-1.5-.5-1.5-.5-.5-.5-.5-.5-1-.5-1-1-1.5-1-1.5-2-.5-2-.5 3.5 5 3.5 5" style="fill:#a04c0c;stroke:#a04c0c"/><path d="m478 601v1l1-6 1-6-8-7-8-7 4.5 8 4.5 8 1 1.5 1 1.5.5 1 .5 1 .5.5.5.5.5 1.5.5 1.5" style="fill:#930;stroke:#930"/><path d="m679 600l20-5-10.5-4.5-10.5-4.5-2 6.5-2 6.5 2.5.5 2.5.5" style="fill:#762500;stroke:#762500"/><path d="m27 580l12-26-3-7.5-3-7.5-8.5 4.5-8.5 4.5-8 5.5-8 5.5v2.5 2.5 2 2 2 2 1.5 1.5l1-.5 1-.5 1-1 1-1 1 1.5 1 1.5h2 2l1 1 1 1 2 .5 2 .5h2 2l1-1.5 1-1.5 1.5.5 1.5.5 1 2 1 2" style="fill:#250e00;stroke:#250e00"/><path d="m414 576l20-13 .5-10 .5-10v2 2 2 2l-.5 1-.5 1-.5 2-.5 2-.5 1.5-.5 1.5h-1-1l-5-8.5-5-8.5 1-9.5 1-9.5-5.5-8.5-5.5-8.5 2-6 2-6-15.5-11.5-15.5-11.5.5-1.5.5-1.5-3 5-3 5 10.5 7 10.5 7-6 3-6 3-8.5-3-8.5-3 8 8 8 8 5 8.5 5 8.5h-9-9l1 6.5 1 6.5 9 6 9 6-2.5 2-2.5 2-4.5 2.5-4.5 2.5 10.5 7 10.5 7 4 1 4 1" style="fill:#762500;stroke:#762500"/><path d="m480 573h2l.5-1.5.5-1.5v-1.5-1.5-2-2l-1 1.5-1 1.5-.5-.5-.5-.5h-.5-.5l-8-4.5-8-4.5 8.5 8.5 8.5 8.5" style="fill:#a04c0c;stroke:#a04c0c"/><path d="m308 570h2l-.5-1.5-.5-1.5 1.5-1 1.5-1-.5-1.5-.5-1.5-1.5 1-1.5 1h-1-1l-1.5 1-1.5 1v2 2l1.5-.5 1.5-.5 1 .5 1 .5" style="fill:#762500;stroke:#762500"/><path d="m478 564l1 1-3-5.5-3-5.5 2.5 5 2.5 5" style="fill:#a04c0c;stroke:#a04c0c"/><path d="m673 561l-4-11-2.5 2.5-2.5 2.5 4.5 3 4.5 3" style="fill:#762500;stroke:#762500"/><path d="m430 560h2l.5-1.5.5-1.5.5-2 .5-2-1 1-1 1v1 1l-.5.5-.5.5-.5-1-.5-1v-1-1-3-3l-.5-.5-.5-.5-.5-2-.5-2v-1-1l-.5-2-.5-2v-2-2l-1-1.5-1-1.5v-2-2l-.5-2-.5-2-.5-1-.5-1-1-1-1-1-.5-.5-.5-.5-1-.5-1-.5-.5-.5-.5-.5-.5-.5-.5-.5-.5-.5-.5-.5-1-.5-1-.5-.5-.5-.5-.5-.5-.5-.5-.5-.5-.5-.5-.5.5-1 .5-1 5.5 8.5 5.5 8.5-1 9.5-1 9.5 5 8.5 5 8.5" style="fill:#930;stroke:#930"/><path d="m543 559l18-5-6-3-6-3-4.5 5-4.5 5 1.5.5 1.5.5" style="fill:#762500;stroke:#762500"/><path d="m431 558l1-1v-1-1l1-1 1-1 .5-1 .5-1v-2-2-2-2l-3-13-3-13-3-14-3-14-9.5-8-9.5-8-9.5-2-9.5-2-.5 1.5-.5 1.5 11 6.5 11 6.5 5.5 12 5.5 12-1.5-.5-1.5-.5-1.5-.5-1.5-.5-.5 1-.5 1 .5.5.5.5.5.5.5.5.5.5.5.5 1 .5 1 .5.5.5.5.5.5.5.5.5.5.5.5.5 1 .5 1 .5.5.5.5.5 1 1 1 1 1.5.5 1.5.5.5-.5.5-.5v1.5 1.5 1 1l1 1.5 1 1.5.5 1.5.5 1.5v1.5 1.5l-.5 1.5-.5 1.5v2 2 1 1l.5 1 .5 1v1.5 1.5 3 3 1 1l.5 1 .5 1" style="fill:#a04c0c;stroke:#a04c0c"/><g style="fill:#762500;stroke:#762500"><path d="m680 558l4-7-2.5 1.5-2.5 1.5.5 2 .5 2"/><path d="m627 548l21-10 8.5 1.5 8.5 1.5.5-6 .5-6-.5-5-.5-5 4-3 4-3-4-2.5-4-2.5-6-7-6-7-4.5 2-4.5 2-.5 6-.5 6-2.5-7.5-2.5-7.5-1.5-8-1.5-8 5-3.5 5-3.5 2.5-5.5 2.5-5.5 2.5 6 2.5 6 3.5 8 3.5 8 2.5 4.5 2.5 4.5 2.5-11 2.5-11-3-3-3-3 11.5 2 11.5 2 2 1.5 2 1.5v7.5 7.5l-.5 6.5-.5 6.5-.5 2-.5 2 3 7.5 3 7.5 7.5-6 7.5-6v-2.5-2.5-2.5-2.5-2-2-2.5-2.5h-1-1-1.5-1.5l-.5-.5-.5-.5h-1-1l-.5.5-.5.5-.5 1-.5 1-1.5-.5-1.5-.5h-1-1l2-5 2-5 5.5-5 5.5-5v-3-3-2-2-2.5-2.5-2-2-2-2-2.5-2.5-2-2-2.5-2.5-2-2-.5-.5l-9 10-9 10-14-.5-14-.5 4-4 4-4 7.5-5 7.5-5-.5-1.5-.5-1.5-.5-1-.5-1v-5-5l.5-4 .5-4 12 2.5 12 2.5v-18-18-18-18-7.5-7.5l-1-.5-1-.5-1.5-.5-1.5-.5-.5.5-.5.5h-1.5-1.5-1.5-1.5l-9.5-6.5-9.5-6.5-9.5-5.5-9.5-5.5 2-7.5 2-7.5 7 1.5 7 1.5.5 2.5.5 2.5 15.5 4 15.5 4v-2-2-2-2-2.5-2.5-2-2-2.5-2.5-2-2-2-2-1.5-1.5h-1.5-1.5l-10.5-1-10.5-1-12.5-1-12.5-1 6.5-6.5 6.5-6.5-2.5-10-2.5-10-3.5-6.5-3.5-6.5-5.5 1-5.5 1 4.5-7.5 4.5-7.5-5-2.5-5-2.5-11-1-11-1-9.5-3-9.5-3 8.5-6.5 8.5-6.5 8.5-2 8.5-2 .5-5.5.5-5.5-4-5.5-4-5.5-6 1-6 1-3-4.5-3-4.5v-7-7l-6 .5-6 .5-11 2-11 2-2.5-9-2.5-9-10-3-10-3-10 .5-10 .5-9-3-9-3h-7.5-7.5l-9.5-5.5-9.5-5.5 12-1.5 12-1.5-11-3-11-3 1.5-8 1.5-8 3.5-3.5 3.5-3.5 7-3.5 7-3.5 3.5-9.5 3.5-9.5 2 7.5 2 7.5 3.5-7.5 3.5-7.5 9-.5 9-.5-1 6-1 6 11-3.5 11-3.5 11-5 11-5 12.5-4 12.5-4 10.5-5.5 10.5-5.5-3-7.5-3-7.5-5.5 4.5-5.5 4.5-.5-5.5-.5-5.5h-3.5-3.5-2-2-2.5-2.5-2-2-2.5-2.5-2-2-2-2-2.5-2.5v2 2l-1 1.5-1 1.5-.5 1.5-.5 1.5-1.5-.5-1.5-.5-1.5-1-1.5-1 .5-.5.5-.5-.5-1-.5-1-1-1-1-1-.5-1-.5-1h-3-3-2-2-2.5-2.5-2-2-2.5-2.5-2-2-2-2-1.5-1.5v9 9l7.5-2.5 7.5-2.5 2.5-4 2.5-4 2.5 4.5 2.5 4.5 10.5 2 10.5 2-7 9-7 9-8.5 1-8.5 1 1.5-8 1.5-8-6.5 5.5-6.5 5.5-7 5.5-7 5.5 6-8.5 6-8.5-10.5-3-10.5-3 1-10.5 1-10.5h-2.5-2.5-2-2-2.5-2.5l-1.5 14.5-1.5 14.5 7.5-1 7.5-1-4 8-4 8-4 2.5-4 2.5-9.5-.5-9.5-.5-1.5 8-1.5 8-5-1.5-5-1.5-4.5-6-4.5-6h-1-1l-8-6.5-8-6.5-5.5 5-5.5 5-7 .5-7 .5-6 4-6 4 11 .5 11 .5 5 6.5 5 6.5 5.5.5 5.5.5 1.5 6 1.5 6-8 3.5-8 3.5 8 4.5 8 4.5 2 9 2 9 6.5-4 6.5-4 3 5.5 3 5.5 12.5.5 12.5.5 8 3.5 8 3.5-4 5.5-4 5.5 5.5 2.5 5.5 2.5 2 5.5 2 5.5-1 3.5-1 3.5v5.5 5.5l-6.5.5-6.5.5 3.5 8 3.5 8 5.5-2 5.5-2 2 5.5 2 5.5 5 3 5 3 5 1.5 5 1.5-6.5 8.5-6.5 8.5-3-4.5-3-4.5-3 6.5-3 6.5-8.5 3-8.5 3-10 3-10 3 5.5 3 5.5 3 3 7.5 3 7.5 4.5 5 4.5 5 5 3 5 3v-3.5-3.5l7-7.5 7-7.5-5-3-5-3 5-5.5 5-5.5 12-.5 12-.5 10-2 10-2-5-3.5-5-3.5 4-2.5 4-2.5 5.5 7.5 5.5 7.5 6.5 1 6.5 1 6.5 4 6.5 4-10.5 2.5-10.5 2.5-10 .5-10 .5h-9-9l-3.5 9-3.5 9 7 3 7 3 11 1 11 1h9.5 9.5l1 1.5 1 1.5 4.5.5 4.5.5 7.5-3 7.5-3 2.5 5 2.5 5-8 2-8 2-5 3.5-5 3.5 6 6.5 6 6.5 6.5.5 6.5.5-5.5 8-5.5 8-6.5-3.5-6.5-3.5-3.5 6-3.5 6-.5 3.5-.5 3.5 2 6.5 2 6.5-10 3-10 3-10 1.5-10 1.5-3 7-3 7 4 2.5 4 2.5 6 3 6 3 6.5-6 6.5-6 4 5 4 5-1 5.5-1 5.5 10 2 10 2-3 8.5-3 8.5 9 1 9 1-3 4.5-3 4.5-6.5 7.5-6.5 7.5 6 2.5 6 2.5 5 3 5 3-4.5 3-4.5 3-9 6-9 6 8 6.5 8 6.5 3.5 7.5 3.5 7.5-4 10.5-4 10.5-6 10-6 10 7.5 5.5 7.5 5.5"/></g><path d="m429 547l1 1v-1.5-1.5l-.5-1-.5-1v-1-1-2-2l.5-1.5.5-1.5v-1.5-1.5l-.5-1.5-.5-1.5-1-1.5-1-1.5v-1-1-1.5-1.5l-.5.5-.5.5-1.5-.5-1.5-.5.5 1 .5 1 .5 2 .5 2v2 2l1 1.5 1 1.5v2 2l.5 2 .5 2v1 1l.5 2 .5 2" style="fill:#b23d00;stroke:#b23d00"/><path d="m310 541l3 1h2 2l.5-2 .5-2-.5-1.5-.5-1.5-1-.5-1-.5-1 1-1 1-1 1.5-1 1.5-.5 1-.5 1" style="fill:#930;stroke:#930"/><path d="m478 538l8-19-1.5-13.5-1.5-13.5 5-9.5 5-9.5-2-4-2-4-5-4.5-5-4.5 5-9 5-9-10-2.5-10-2.5-3-8-3-8-7.5 2-7.5 2 2.5 12.5 2.5 12.5-4.5 1-4.5 1-4 1-4 1-3.5-5-3.5-5-6 1-6 1v10.5 10.5l7.5 9.5 7.5 9.5 6.5 8 6.5 8-2.5 7.5-2.5 7.5 1.5 5 1.5 5 8-3 8-3 4-5.5 4-5.5-3 9-3 9h2 2l.5 1.5.5 1.5v1.5 1.5h1 1 1.5 1.5l.5 1.5.5 1.5v2.5 2.5l1.5-.5 1.5-.5 1.5.5 1.5.5" style="fill:#371300;stroke:#371300"/><g style="fill:#581c00;stroke:#581c00"><path d="m152 537l3 1 1.5-.5 1.5-.5 1-1.5 1-1.5-1.5-.5-1.5-.5-2-.5-2-.5-1.5.5-1.5.5-.5 2-.5 2h1.5 1.5"/><path d="m71 536l11-10-6-9-6-9-10.5-6-10.5-6-3 2-3 2 4.5 6 4.5 6 7 9 7 9 2.5 3 2.5 3"/><path d="m199 534l-12-15-13-5-13-5 1 7.5 1 7.5 12.5 3.5 12.5 3.5 5.5 1.5 5.5 1.5"/></g><path d="m454 533l3 1 1-1 1-1 1 .5 1 .5 1-1 1-1-.5-2-.5-2-.5-1.5-.5-1.5h-1.5-1.5l-1.5.5-1.5.5-1 1-1 1-2 .5-2 .5-.5-1.5-.5-1.5-.5 2-.5 2h2 2l1.5 1 1.5 1v1 1" style="fill:#371300;stroke:#371300"/><path d="m267 532l17-12-8-5-8-5 .5-8 .5-8 8.5 3.5 8.5 3.5 2.5-8 2.5-8 3.5-7.5 3.5-7.5v-9.5-9.5l3-7 3-7 6.5-10 6.5-10 5.5-5.5 5.5-5.5-9.5 2-9.5 2-9-4-9-4-6 5.5-6 5.5-10 4-10 4-8 3.5-8 3.5-2 7-2 7-4 9.5-4 9.5-2 13-2 13-5 10.5-5 10.5 5 9 5 9 14 1.5 14 1.5 6 1.5 6 1.5" style="fill:#250e00;stroke:#250e00"/><path d="m5 521l10-23-5.5 8.5-5.5 8.5.5 3 .5 3" style="fill:#581c00;stroke:#581c00"/><path d="m319 519l13-8-5-.5-5-.5 1.5 1 1.5 1v1 1l-1 1-1 1h-1.5-1.5l-1.5-.5-1.5-.5-1-1.5-1-1.5.5-1.5.5-1.5-1 1.5-1 1.5.5 1.5.5 1.5.5 1.5.5 1.5 1.5.5 1.5.5" style="fill:#762500;stroke:#762500"/><g style="fill:#930;stroke:#930"><path d="m333 518h2l-.5-1.5-.5-1.5-1.5-1-1.5-1-.5-1.5-.5-1.5v-2.5-2.5l-1.5-.5-1.5-.5-.5 2-.5 2 .5 1.5.5 1.5.5 1.5.5 1.5 1 1.5 1 1.5 1.5.5 1.5.5"/><path d="m320 516h3l1-1 1-1v-1-1l-1.5-1-1.5-1-1-1-1-1h-2-2v.5.5l-.5 1.5-.5 1.5 1 1.5 1 1.5 1.5.5 1.5.5"/></g><path d="m374 515l-7-10-9-1-9-1 5 2.5 5 2.5 7.5 3.5 7.5 3.5" style="fill:#371300;stroke:#371300"/><path d="m417 509l-11-24-11-6.5-11-6.5 15.5 11.5 15.5 11.5-2 6-2 6 1.5.5 1.5.5 1.5.5 1.5.5" style="fill:#930;stroke:#930"/><path d="m72 505l16-9 5.5-2.5 5.5-2.5-8.5-7-8.5-7-8-4-8-4 6 8.5 6 8.5h-6-6l3 9.5 3 9.5" style="fill:#581c00;stroke:#581c00"/><g style="fill:#762500;stroke:#762500"><path d="m575 502h2l1-1 1-1 .5-1 .5-1-1-1-1-1h-1.5-1.5-2-2v1.5 1.5l1.5.5 1.5.5.5 1 .5 1"/><path d="m622 501l3 1 1.5-.5 1.5-.5 1-1.5 1-1.5-.5-1.5-.5-1.5-2 .5-2 .5v1 1l-2-.5-2-.5-.5 1.5-.5 1.5 1 .5 1 .5"/></g><path d="m697 494h2l1.5.5 1.5.5.5-1 .5-1 .5-.5.5-.5h1 1l.5.5.5.5h1.5 1.5 1 1v-3.5-3.5-2-2-2-2-2-2l-5.5 5-5.5 5-2 5-2 5" style="fill:#581c00;stroke:#581c00"/><path d="m503 484l8-17 8.5 3.5 8.5 3.5-8-7.5-8-7.5-3.5-11.5-3.5-11.5-9.5-8-9.5-8-5.5-10.5-5.5-10.5-6-3.5-6-3.5 3 9 3 9 7.5 7 7.5 7 8 9 8 9 2.5 13 2.5 13-1 8-1 8" style="fill:#762500;stroke:#762500"/><path d="m139 475l16-11 1.5-8.5 1.5-8.5-8-9.5-8-9.5-8.5-8.5-8.5-8.5-9-8.5-9-8.5-9.5-5-9.5-5 6.5 8.5 6.5 8.5 10 8 10 8 5.5 9 5.5 9-1 9-1 9-3.5 8-3.5 8 7.5-3.5 7.5-3.5.5 6.5.5 6.5" style="fill:#250e00;stroke:#250e00"/><path d="m62 474l-1-14-3.5 3.5-3.5 3.5 4 3.5 4 3.5" style="fill:#581c00;stroke:#581c00"/><path d="m405 460l-1-16-1 2-1 2 1.5 6 1.5 6" style="fill:#371300;stroke:#371300"/><g style="fill:#581c00;stroke:#581c00"><path d="m694 452l18-20v-3.5-3.5-2-2-2-2-1-1l-12-2.5-12-2.5-.5 4-.5 4v5 5l.5 1 .5 1 .5 1.5.5 1.5-7.5 5-7.5 5-4 4-4 4 14 .5 14 .5"/><path d="m679 438h2l1-1 1-1-1.5-1-1.5-1-.5-1.5-.5-1.5v-1.5-1.5h-1-1l-.5 2-.5 2-.5 1.5-.5 1.5 1 1 1 1 1 .5 1 .5"/></g><g style="fill:#762500;stroke:#762500"><path d="m395 430l-14-13 1.5 1.5 1.5 1.5 5.5 5 5.5 5"/><path d="m439 428l9-14-1.5-8.5-1.5-8.5-3 7.5-3 7.5v8 8"/></g><g style="fill:#581c00;stroke:#581c00"><path d="m665 424l3-12-2 6-2 6h.5.5"/><path d="m658 423l1-1-.5-1.5-.5-1.5-2 .5-2 .5-1.5-.5-1.5-.5h-1.5-1.5l-1.5.5-1.5.5.5 1 .5 1h1 1l1.5.5 1.5.5h2.5 2.5 1 1"/></g><path d="m152 422l-3-14-5.5-6.5-5.5-6.5 1 6.5 1 6.5 6 7 6 7" style="fill:#250e00;stroke:#250e00"/><path d="m664 409l-5-6 5.5-4.5 5.5-4.5 4-.5 4-.5 8.5.5 8.5.5-1.5-5-1.5-5-2.5-3.5-2.5-3.5 5-3.5 5-3.5.5-3.5.5-3.5-7.5 2-7.5 2-.5 1.5-.5 1.5-6.5 1-6.5 1-3.5 5.5-3.5 5.5-7 4.5-7 4.5 5 7 5 7 3 1.5 3 1.5" style="fill:#581c00;stroke:#581c00"/><path d="m413 406l11-22 2.5-8 2.5-8-1.5 1.5-1.5 1.5-1 .5-1 .5v-1.5-1.5l-.5-1-.5-1-.5-.5-.5-.5v-1-1l-.5-.5-.5-.5.5-1 .5-1v-1-1-1-1l-.5-.5-.5-.5.5-1 .5-1 1-1 1-1 6 2 6 2 .5-1 .5-1 .5-2 .5-2-.5-1.5-.5-1.5 1-1.5 1-1.5v-2-2-2.5-2.5l1-1 1-1-1.5-.5-1.5-.5-.5 1-.5 1h-1-1l-.5.5-.5.5-.5.5-.5.5-1 .5-1 .5-.5.5-.5.5-.5.5-.5.5h-1-1l-.5-1-.5-1 .5-1.5.5-1.5-1-1-1-1 1.5-.5 1.5-.5 2 .5 2 .5h3 3l.5-1 .5-1 1-1.5 1-1.5.5-1.5.5-1.5 1-1.5 1-1.5 1-1 1-1h2 2 1.5 1.5l.5 1.5.5 1.5 1 1.5 1 1.5.5 1.5.5 1.5v1 1l1-1 1-1-.5-6.5-.5-6.5-.5-4.5-.5-4.5-4.5-3-4.5-3 8 2 8 2 4.5 8 4.5 8 5.5 7 5.5 7-.5 7.5-.5 7.5-7.5 4-7.5 4 1-.5 1-.5v-1.5-1.5l-1-.5-1-.5-.5 1.5-.5 1.5-1.5-1-1.5-1-1-1-1-1-.5-1.5-.5-1.5-1-1-1-1-.5-.5-.5-.5-.5-1-.5-1v-1-1-1.5-1.5-2-2-2-2l-3 10-3 10 6.5 6.5 6.5 6.5-5 11.5-5 11.5 10.5-2.5 10.5-2.5 3-10.5 3-10.5 5-8 5-8 4 1.5 4 1.5 9.5-8.5 9.5-8.5-3-8.5-3-8.5-.5-2.5-.5-2.5 4-.5 4-.5 5.5 4.5 5.5 4.5 4-3.5 4-3.5-4-3-4-3-7-4.5-7-4.5-8-9-8-9 .5 5 .5 5-6.5 6.5-6.5 6.5-5.5-5-5.5-5-8.5-5.5-8.5-5.5.5 7 .5 7-6.5-8.5-6.5-8.5-8.5-7-8.5-7 .5-7.5.5-7.5-3.5-1-3.5-1-5 6-5 6-12.5-2-12.5-2-11.5 4.5-11.5 4.5 5.5 5 5.5 5 4 7 4 7-5 5.5-5 5.5 3 4 3 4-2.5 8-2.5 8 12 2 12 2 5.5 9 5.5 9-6.5 5.5-6.5 5.5 1 5.5 1 5.5-4.5-8.5-4.5-8.5-5.5 1-5.5 1 6 10 6 10 4.5 10 4.5 10 5.5 8.5 5.5 8.5" style="fill:#762500;stroke:#762500"/><path d="m149 405l8-21 1.5-14.5 1.5-14.5v-13.5-13.5l1-14 1-14-.5-15-.5-15-2 3-2 3-3.5-10-3.5-10 7.5-6.5 7.5-6.5 6 1.5 6 1.5-8-9-8-9-6.5 2-6.5 2h-11-11l-9-.5-9-.5 1.5 3.5 1.5 3.5 2 2.5 2 2.5-7.5 7.5-7.5 7.5-7 2.5-7 2.5 6 12 6 12 6 8.5 6 8.5 7 10 7 10 4.5 3 4.5 3 3 9 3 9 4.5-8 4.5-8 1.5 7.5 1.5 7.5 1 9.5 1 9.5-3.5 5.5-3.5 5.5 4 8.5 4 8.5-2.5 5.5-2.5 5.5" style="fill:#250e00;stroke:#250e00"/><g style="fill:#581c00;stroke:#581c00"><path d="m122 402l-22-30-7.5-9-7.5-9-7-9.5-7-9.5-1-11.5-1-11.5.5-12.5.5-12.5 1-4.5 1-4.5-1.5-12-1.5-12 1.5-10.5 1.5-10.5v-9.5-9.5l1-12.5 1-12.5 1-11.5 1-11.5 2.5-11.5 2.5-11.5.5-9 .5-9 5.5-8 5.5-8 4.5 7.5 4.5 7.5 5.5-1 5.5-1 6-1.5 6-1.5 2-6 2-6-6-7.5-6-7.5.5 1.5.5 1.5v1.5 1.5l.5 1.5.5 1.5v1 1l-.5 1-.5 1 1.5-.5 1.5-.5 1 1 1 1 1 1.5 1 1.5 1 1 1 1-1 1.5-1 1.5-.5 1.5-.5 1.5-1 1.5-1 1.5-1 1-1 1-1.5-.5-1.5-.5-.5-2-.5-2 1.5-.5 1.5-.5 1-1.5 1-1.5v-2-2l-2 .5-2 .5-1.5-1-1.5-1-2-.5-2-.5v-1.5-1.5-.5-.5l-4.5-10.5-4.5-10.5-8.5 10.5-8.5 10.5-.5 1.5-.5 1.5-1.5.5-1.5.5h-1-1l-10.5-1-10.5-1 1.5-8 1.5-8-2-7.5-2-7.5-6.5-2.5-6.5-2.5 1-6.5 1-6.5 10 5.5 10 5.5 4.5-9 4.5-9 3.5-7.5 3.5-7.5 1.5-9 1.5-9-5.5 4.5-5.5 4.5-7.5 1-7.5 1-6.5 2-6.5 2-3.5-.5-3.5-.5-3.5-15-3.5-15h-15.5-15.5v3 3 18 18 3 3l5-5 5-5 1.5 9 1.5 9-1 8-1 8 7 1.5 7 1.5-12.5 5.5-12.5 5.5v2.5 2.5 2 2 2.5 2.5 2 2 2 2 2.5 2.5 2 2 2.5 2.5 2 2 2.5 2.5 1 1l4.5-9.5 4.5-9.5 1 3 1 3 5 1.5 5 1.5-.5-8.5-.5-8.5 1-10 1-10 8.5-1 8.5-1 1 7.5 1 7.5 4.5 5.5 4.5 5.5-.5 7-.5 7 6.5-7 6.5-7 2 9 2 9 3.5-11 3.5-11v15 15l.5-2.5.5-2.5 1-1 1-1 1 1.5 1 1.5v2 2 2.5 2.5l-1 1-1 1h-1-1l-.5-.5-.5-.5-2 22-2 22-1.5 15-1.5 15-1.5 15.5-1.5 15.5-1 15-1 15 .5-1 .5-1v-2-2l.5-1 .5-1 2-7.5 2-7.5v29 29l.5 1 .5 1-.5 1.5-.5 1.5v1 1h-1.5-1.5l-.5-.5-.5-.5v1 1 1.5 1.5 1 1l1 1.5 1 1.5v1.5 1.5l-.5 1-.5 1v1 1l1 .5 1 .5 1 1 1 1 1 1 1 1 1 1 1 1 1 1 1 1 1.5 1.5 1.5 1.5-.5 1.5-.5 1.5h-1-1l-12.5-10-12.5-10 5-11 5-11v-.5-.5-1.5-1.5l-11 3.5-11 3.5 5 4.5 5 4.5-7.5-7.5-7.5-7.5-6 4.5-6 4.5 5 4 5 4 10.5 7 10.5 7 9 7 9 7 9.5 8 9.5 8 8.5 9.5 8.5 9.5 8.5 8.5 8.5 8.5"/><path d="m350 401l3 1 1-1 1-1 .5-2 .5-2-1-1-1-1-2-.5-2-.5-1 1-1 1-.5 1-.5 1 .5 1.5.5 1.5 1 .5 1 .5"/></g><g style="fill:#250e00;stroke:#250e00"><path d="m308 400l10-15 5.5-5.5 5.5-5.5v-9.5-9.5l-4.5 2.5-4.5 2.5-5.5-1-5.5-1 1 6 1 6 1 8.5 1 8.5-2.5 6.5-2.5 6.5"/><path d="m195 399l3-8-1-5-1-5-6 1.5-6 1.5 5.5 7.5 5.5 7.5"/><path d="m122 391l2-17-3.5 4.5-3.5 4.5 2.5 4 2.5 4"/></g><path d="m534 386l5-8-3.5-3-3.5-3-.5 1-.5 1-1 1.5-1 1.5.5 1.5.5 1.5 1.5 1 1.5 1-1.5.5-1.5.5 1 1 1 1 1 .5 1 .5" style="fill:#762500;stroke:#762500"/><path d="m87 383l1 1v-3-3l-1.5-1-1.5-1h-1-1-1.5-1.5l-.5 1.5-.5 1.5v1.5 1.5l1-1 1-1 1 1 1 1 2 .5 2 .5" style="fill:#250e00;stroke:#250e00"/><path d="m20 372h2l1-1 1-1 1-1.5 1-1.5.5-1.5.5-1.5-1-1.5-1-1.5-1 1-1 1-1 1.5-1 1.5-1 1-1 1 .5 1.5.5 1.5v.5.5" style="fill:#581c00;stroke:#581c00"/><path d="m424 372l2-1-.5-.5-.5-.5.5-2 .5-2-.5-2-.5-2v-2-2l-.5-3-.5-3-1 1-1 1-.5 1-.5 1 .5.5.5.5v1 1 1 1l-.5 1-.5 1 .5.5.5.5v1 1l.5.5.5.5.5 1 .5 1v1.5 1.5" style="fill:#930;stroke:#930"/><path d="m530 371l2 1 9-4 9-4-1-3-1-3-9.5-3-9.5-3-3 7-3 7 3.5 2.5 3.5 2.5" style="fill:#762500;stroke:#762500"/><path d="m425 370l1 1 1.5-1.5 1.5-1.5 1-1.5 1-1.5.5-1.5.5-1.5 1-1.5 1-1.5 1-1 1-1v-.5-.5l-6-2-6-2 .5 3 .5 3v2 2l.5 2 .5 2-.5 2-.5 2" style="fill:#bf4b00;stroke:#bf4b00"/><path d="m7 365l-7-26v1.5 1.5 2.5 2.5 2 2 2 2 1.5 1.5l1-.5 1-.5.5-1.5.5-1.5 1 1.5 1 1.5 1 1 1 1-.5 1.5-.5 1.5.5 1.5.5 1.5" style="fill:#581c00;stroke:#581c00"/><path d="m468 357l15-8 .5-7.5.5-7.5-5.5-7-5.5-7-4.5-8-4.5-8-8-2-8-2 4.5 3 4.5 3 .5 4.5.5 4.5.5 6.5.5 6.5v9 9l1 1 1 1 .5 1.5.5 1.5 1 1 1 1 1.5 1 1.5 1 .5-1.5.5-1.5 1 .5 1 .5v1.5 1.5l-1 .5-1 .5" style="fill:#930;stroke:#930"/><path d="m74 350h2l.5-1.5.5-1.5-1.5-1.5-1.5-1.5.5 1 .5 1v1 1l-1.5-.5-1.5-.5h-1.5-1.5l-.5-.5-.5-.5-1-.5-1-.5-.5-1.5-.5-1.5-.5-.5-.5-.5v-1-1h1 1l2 .5 2 .5-1-1-1-1-1-1-1-1-1-.5-1-.5v-1-1l.5-1 .5-1-1.5.5-1.5.5 1-1.5 1-1.5h-1-1l-1.5.5-1.5.5-1 .5-1 .5-.5-.5-.5-.5-.5-1-.5-1-1-1-1-1h-2-2l.5 1 .5 1-.5 1-.5 1 12.5 10 12.5 10" style="fill:#762500;stroke:#762500"/><path d="m72 347l3 1v-1-1l-.5-1-.5-1-1-1-1-1-1-1-1-1-2-.5-2-.5h-1-1v1 1l.5.5.5.5.5 1.5.5 1.5 1 .5 1 .5.5.5.5.5h1.5 1.5" style="fill:#930;stroke:#930"/><path d="m458 345l1 1v-9-9l-1 1-1 1v2 2 2 2 1.5 1.5 1 1l.5 1 .5 1" style="fill:#a04c0c;stroke:#a04c0c"/><path d="m427 339h2l.5-.5.5-.5.5-.5.5-.5 1-.5 1-.5.5-.5.5-.5.5-.5.5-.5h1 1l.5-1 .5-1h-3-3l-2-.5-2-.5-1.5.5-1.5.5 1 1 1 1-.5 1.5-.5 1.5.5 1 .5 1" style="fill:#581c00;stroke:#581c00"/><g style="fill:#250e00;stroke:#250e00"><path d="m325 338l5-14-6-5-6-5-2.5 7-2.5 7 6 5 6 5"/><path d="m229 333l10-15 9-1 9-1-3-4.5-3-4.5-3.5-7.5-3.5-7.5-3 1.5-3 1.5-5.5-.5-5.5-.5-2-2.5-2-2.5-4 1-4 1-.5 3-.5 3 3.5 4.5 3.5 4.5 5.5 9 5.5 9-1.5 4.5-1.5 4.5"/></g><path d="m57 331l2-1 1.5-.5 1.5-.5h1 1l-1 1.5-1 1.5 1.5-.5 1.5-.5v-1.5-1.5l-1-1.5-1-1.5v-1-1-1.5-1.5-1-1l.5.5.5.5h1.5 1.5v-1-1l.5-1.5.5-1.5-.5-1-.5-1h-1.5-1.5-1-1l-.5-1-.5-1 1-1 1-1v-2-2-2-2l.5-1.5.5-1.5-1-.5-1-.5-.5 2-.5 2 .5 1.5.5 1.5-1 1.5-1 1.5-.5 1-.5 1-5 11-5 11 .5-1 .5-1-.5-1-.5-1h2 2l1 1 1 1 .5 1 .5 1 .5.5.5.5" style="fill:#a04c0c;stroke:#a04c0c"/><path d="m491 331l13-2-5-7-5-7-3.5 6-3.5 6 2 2 2 2" style="fill:#581c00;stroke:#581c00"/><path d="m433 330h2l1-1 1-1 .5-2 .5-2v-2-2h.5.5v-.5-.5l-.5-1-.5-1 1-1 1-1v-2-2-2-2-2.5-2.5l-.5-1.5-.5-1.5.5-2 .5-2-.5-1.5-.5-1.5-1-1.5-1-1.5-.5-1.5-.5-1.5 1 .5 1 .5 1.5 1 1.5 1 .5.5.5.5 1 .5 1 .5v-2-2l-1-1.5-1-1.5v-.5-.5l-8.5-6-8.5-6v.5.5l6 19.5 6 19.5-1-1.5-1-1.5-.5-.5-.5-.5-.5-1-.5-1-1.5-1-1.5-1-.5 1-.5 1 1 1.5 1 1.5.5 1.5.5 1.5-.5.5-.5.5-.5-1.5-.5-1.5-1.5-2-1.5-2-2-.5-2-.5v-1-1l-.5-1-.5-1h-1-1l-.5-.5-.5-.5-.5-.5-.5-.5-1.5-1-1.5-1v-1-1l1-.5 1-.5v-1-1l-1.5-1-1.5-1-1-.5-1-.5-3.5-9-3.5-9-5-2.5-5-2.5h-2.5-2.5-2-2-2.5-2.5l-1.5-.5-1.5-.5 1.5-1 1.5-1 .5-.5.5-.5.5-.5.5-.5.5-.5.5-.5.5-.5.5-.5.5-.5.5-.5 1-.5 1-.5h-2-2v-1-1l-2 .5-2 .5-2 .5-2 .5-1 1-1 1-.5 1.5-.5 1.5-.5 1-.5 1-1 1-1 1-1 1.5-1 1.5h2 2l2-.5 2-.5 6 3.5 6 3.5 10.5 7 10.5 7 4 19 4 19 1 1 1 1 1.5.5 1.5.5 2 .5 2 .5h2 2 1.5 1.5" style="fill:#bf4b00;stroke:#bf4b00"/><path d="m433 328h2l.5-1.5.5-1.5-.5-2-.5-2v.5.5l-1 .5-1 .5-1-.5-1-.5-.5-.5-.5-.5-.5-.5-.5-.5v-1-1l-1 .5-1 .5v2 2 2 2h1.5 1.5l1.5.5 1.5.5" style="fill:#d95400;stroke:#d95400"/><g style="fill:#930;stroke:#930"><path d="m700 327h3 1.5 1.5l.5-.5.5-.5 1.5.5 1.5.5 1 .5 1 .5v-2.5-2.5-2-2-2.5-2.5-2-2-2-2-1-1l-15.5-4-15.5-4-.5-2.5-.5-2.5-7-1.5-7-1.5-2 7.5-2 7.5 9.5 5.5 9.5 5.5 9.5 6.5 9.5 6.5"/><path d="m415 325l2 1-4-19-4-19-10.5-7-10.5-7-6-3.5-6-3.5 8.5 6.5 8.5 6.5 6 8 6 8 1.5 10 1.5 10 3.5 4.5 3.5 4.5"/></g><path d="m424 322l3 1v-2-2l1-.5 1-.5v1 1l.5.5.5.5.5.5.5.5 1 .5 1 .5 1-.5 1-.5-5-5-5-5-.5 5-.5 5" style="fill:#ee6000;stroke:#ee6000"/><path d="m0 321v1l9-14 9-14-1.5-5-1.5-5-6.5 7.5-6.5 7.5-1 3.5-1 3.5v3.5 3.5 2 2 2 2" style="fill:#581c00;stroke:#581c00"/><path d="m439 319v1l1-.5 1-.5v-2-2-2.5-2.5l.5-1 .5-1v-.5-.5l-.5-1-.5-1v-1-1-1-1-1-1-1.5-1.5-1-1-1-1l-.5-.5-.5-.5-.5-.5-.5-.5-.5-1.5-.5-1.5-1-.5-1-.5.5 1.5.5 1.5 1 1.5 1 1.5.5 1.5.5 1.5-.5 2-.5 2 .5 1.5.5 1.5v2.5 2.5 2 2 2 2l-1 1-1 1 .5 1 .5 1" style="fill:#a04c0c;stroke:#a04c0c"/><g style="fill:#762500;stroke:#762500"><path d="m545 316l18-7 7-3 7-3-7-4.5-7-4.5-.5-1.5-.5-1.5-8 1.5-8 1.5-4 1-4 1 6 4.5 6 4.5-2.5 5.5-2.5 5.5"/><path d="m607 315l-4-7 1.5 3.5 1.5 3.5h.5.5"/><path d="m62 312h2 1.5 1.5v-29-29l-2 7.5-2 7.5.5 14 .5 14-.5 1.5-.5 1.5v2 2 2 2l-1 1-1 1 .5 1 .5 1"/></g><path d="m431 312l1-1-.5-1.5-.5-1.5-1-1.5-1-1.5.5-1 .5-1-1-1.5-1-1.5-1-1.5-1-1.5-1-1-1-1-1.5-1-1.5-1-2-1-2-1v1 1l-1 .5-1 .5v1 1l1-1 1-1 1.5.5 1.5.5.5.5.5.5 1 .5 1 .5 1 1 1 1 .5.5.5.5.5 1 .5 1v1.5 1.5l1.5 2 1.5 2 .5 1.5.5 1.5" style="fill:#de6f05;stroke:#de6f05"/><path d="m437 311l-12-39-2-.5-2-.5-.5-1-.5-1-1-1-1-1-1.5-.5-1.5-.5-2-.5-2-.5-1.5-.5-1.5-.5-1.5-1-1.5-1-1-1-1-1-2-1-2-1h-1.5-1.5l-1.5-.5-1.5-.5-1.5.5-1.5.5-1.5 1-1.5 1-1 1-1 1-1 1-1 1h2.5 2.5 2 2l1.5.5 1.5.5 5 2.5 5 2.5h-1.5-1.5l-1.5.5-1.5.5v1 1l1.5 1 1.5 1 .5 1.5.5 1.5.5.5.5.5 1.5 1 1.5 1 1 1 1 1 1.5 1 1.5 1 1 2 1 2 1.5 1 1.5 1 2 1 2 1 1.5 1 1.5 1 1 1 1 1 1 1.5 1 1.5 1 1.5 1 1.5 1.5 1 1.5 1 .5 1 .5 1 .5.5.5.5 1 1.5 1 1.5" style="fill:#ff8d01;stroke:#ff8d01"/><path d="m581 310l7-14-3.5 6.5-3.5 6.5v.5.5" style="fill:#762500;stroke:#762500"/><g style="fill:#930;stroke:#930"><path d="m59 307v1l.5-1 .5-1 1-1.5 1-1.5-.5-1.5-.5-1.5.5-2 .5-2 1 .5 1 .5-.5-14-.5-14-.5 1-.5 1v2 2l-.5 1-.5 1v1 1l-.5 1.5-.5 1.5v1.5 1.5 1 1 2 2 2 2l-.5 1-.5 1v1 1 2.5 2.5 1.5 1.5"/><path d="m442 307v1l.5-1 .5-1-.5-1.5-.5-1.5v-2.5-2.5-2-2l1-.5 1-.5.5 1.5.5 1.5 1.5 1 1.5 1 1-1 1-1-1.5-.5-1.5-.5.5-1 .5-1v-1-1l-.5-.5-.5-.5v-1-1l2-.5 2-.5-1.5-.5-1.5-.5-1-1.5-1-1.5.5-1.5.5-1.5-1.5-.5-1.5-.5.5 2 .5 2-1.5.5-1.5.5 1 1.5 1 1.5v2 2l-1-.5-1-.5-.5-.5-.5-.5-1.5-1-1.5-1 .5 1.5.5 1.5.5.5.5.5.5.5.5.5v1 1 1 1 1.5 1.5 1 1 1 1 1 1l.5 1 .5 1"/></g><path d="m423 304l4 1v-1.5-1.5l-.5-1-.5-1-.5-.5-.5-.5-1-1-1-1-1-.5-1-.5-.5-.5-.5-.5-1.5-.5-1.5-.5-1 1-1 1 1.5 1 1.5 1 .5.5.5.5.5.5.5.5h1 1l.5 1 .5 1v1 1" style="fill:#ff8d01;stroke:#ff8d01"/><path d="m122 301l8-5 5.5-5.5 5.5-5.5v-5.5-5.5l-7-1-7-1-3-1.5-3-1.5.5 2 .5 2-.5 1.5-.5 1.5.5 2 .5 2-1 1-1 1v1 1l-.5 2-.5 2 .5.5.5.5v2.5 2.5l-.5 1.5-.5 1.5.5 2 .5 2h1 1" style="fill:#371300;stroke:#371300"/><path d="m602 297l3 1 1.5-.5 1.5-.5v-1.5-1.5l-.5-1.5-.5-1.5-1-1.5-1-1.5h-2-2v1.5 1.5l1.5.5 1.5.5-.5 1.5-.5 1.5-.5 1-.5 1" style="fill:#762500;stroke:#762500"/><path d="m447 295l3 1 .5-1.5.5-1.5h1.5 1.5l.5-1.5.5-1.5-1.5-1-1.5-1-.5-.5-.5-.5-2 .5-2 .5v1 1l.5.5.5.5v1 1l-.5 1-.5 1" style="fill:#a04c0c;stroke:#a04c0c"/><g style="fill:#250e00;stroke:#250e00"><path d="m36 293l3 1 1.5-.5 1.5-.5v-1.5-1.5l-1.5-.5-1.5-.5-1.5-1-1.5-1-1.5.5-1.5.5v1.5 1.5l1 1 1 1h.5.5"/><path d="m201 293h2l.5-1.5.5-1.5 2-.5 2-.5-1-1-1-1-1-1.5-1-1.5-1.5-.5-1.5-.5-1 1.5-1 1.5-1 1-1 1v2 2l2 .5 2 .5"/></g><path d="m412 288l2 1-1-2-1-2-1.5-1-1.5-1-1-1-1-1-1.5-1-1.5-1-.5-.5-.5-.5-.5-1.5-.5-1.5-1.5-1-1.5-1v-1-1l1.5-.5 1.5-.5h1.5 1.5l3.5 9 3.5 9" style="fill:#de6f05;stroke:#de6f05"/><path d="m442 283v1l1.5-.5 1.5-.5-.5-2-.5-2-.5-1-.5-1-1.5-.5-1.5-.5-1.5-1-1.5-1-1-1-1-1-1-1.5-1-1.5-1-1-1-1-1.5-.5-1.5-.5-1.5-1-1.5-1-.5 1.5-.5 1.5-1.5-.5-1.5-.5 1 1.5 1 1.5 1 1 1 1 8.5 6 8.5 6" style="fill:#a04c0c;stroke:#a04c0c"/><path d="m268 276l3 1 .5-1.5.5-1.5-1-1.5-1-1.5-1-1-1-1-1.5 1-1.5 1-1 1-1 1 1.5 1 1.5 1 1 .5 1 .5" style="fill:#250e00;stroke:#250e00"/><path d="m164 274h2l1-1 1-1v-2.5-2.5-2-2l-1-1.5-1-1.5h-1-1l-.5 2-.5 2v2 2 2 2l.5 1 .5 1" style="fill:#581c00;stroke:#581c00"/><path d="m462 274l14-15-6-8-6-8-.5 10-.5 10-.5 5.5-.5 5.5" style="fill:#762500;stroke:#762500"/><g style="fill:#250e00;stroke:#250e00"><path d="m187 273l3 1v-2-2l-1-1.5-1-1.5-1.5-.5-1.5-.5-1.5-1-1.5-1-1 1-1 1v1.5 1.5h1 1l1.5.5 1.5.5 1 1.5 1 1.5"/><path d="m231 272l14-1-8-1-8-1 1 1.5 1 1.5"/></g><path d="m421 271l4 1v-.5-.5l-1-1-1-1-1-1.5-1-1.5-.5-.5-.5-.5-2-.5-2-.5-.5-.5-.5-.5h-1-1l-.5.5-.5.5-1-.5-1-.5-.5-.5-.5-.5-.5-.5-.5-.5-.5-.5-.5-.5h-1-1l-1-.5-1-.5-.5-.5-.5-.5h-1.5-1.5l2 1 2 1 1 1 1 1 1.5 1 1.5 1 1.5.5 1.5.5 2 .5 2 .5 1.5.5 1.5.5 1 1 1 1 .5 1 .5 1" style="fill:#de6f05;stroke:#de6f05"/><path d="m709 271h3v-1.5-1.5-2.5-2.5-2-2-2.5-2.5-2-2-2.5-2.5l-.5-.5-.5-.5-.5-1-.5-1-.5-.5-.5-.5-16-8-16-8v-1-1l1 .5 1 .5h1.5 1.5v-1-1-1.5-1.5l.5-.5.5-.5v-.5-.5l2-7 2-7-3.5-2-3.5-2 8.5-.5 8.5-.5-15.5-4.5-15.5-4.5-1.5.5-1.5.5h-1-1-1.5-1.5-1-1-1-1-1-1l.5-1.5.5-1.5-1-.5-1-.5-.5-1.5-.5-1.5h1 1l1 .5 1 .5 1 1 1 1 .5.5.5.5 1-.5 1-.5h2 2l.5.5.5.5.5-.5.5-.5h1 1l1-.5 1-.5h1.5 1.5l9-5.5 9-5.5-5.5-7-5.5-7-9.5 1.5-9.5 1.5 3.5-9 3.5-9v-1.5-1.5-1-1-2-2l-5 3.5-5 3.5-2-7.5-2-7.5-10-2.5-10-2.5-1 1-1 1h-1-1-1-1l-1-.5-1-.5h-1-1-1-1-1-1l-1 .5-1 .5-.5.5-.5.5-.5.5-.5.5h-1-1l-1 .5-1 .5-.5.5-.5.5v1 1l-1.5-.5-1.5-.5-10-5.5-10-5.5 1.5-2.5 1.5-2.5 8-4.5 8-4.5 7.5 5 7.5 5 3-6 3-6 6-3.5 6-3.5 5 4 5 4 2.5-6.5 2.5-6.5-1-1-1-1h12.5 12.5l7.5-4.5 7.5-4.5-6.5-5-6.5-5-1.5-12-1.5-12-1 1-1 1v1.5 1.5l-.5 1.5-.5 1.5-1.5-.5-1.5-.5.5-1 .5-1-1-1.5-1-1.5v-.5-.5h-.5-.5l-1-1-1-1-1.5.5-1.5.5h-1.5-1.5l-1 1-1 1-1.5-.5-1.5-.5 3-7 3-7-6-16.5-6-16.5h-2-2-2-2-2.5-2.5-2-2-2-2-2.5-2.5-1-1l.5 5.5.5 5.5 5.5-4.5 5.5-4.5 3 7.5 3 7.5-10.5 5.5-10.5 5.5-12.5 4-12.5 4-11 5-11 5-11 3.5-11 3.5 1-6 1-6-9 .5-9 .5-3.5 7.5-3.5 7.5-2-7.5-2-7.5-3.5 9.5-3.5 9.5-7 3.5-7 3.5-3.5 3.5-3.5 3.5-1.5 8-1.5 8 11 3 11 3-12 1.5-12 1.5 9.5 5.5 9.5 5.5h7.5 7.5l9 3 9 3 10-.5 10-.5 10 3 10 3 2.5 9 2.5 9 11-2 11-2 6-.5 6-.5v7 7l3 4.5 3 4.5 6-1 6-1 4 5.5 4 5.5-.5 5.5-.5 5.5-8.5 2-8.5 2-8.5 6.5-8.5 6.5 9.5 3 9.5 3 11 1 11 1 5 2.5 5 2.5-4.5 7.5-4.5 7.5 5.5-1 5.5-1 3.5 6.5 3.5 6.5 2.5 10 2.5 10-6.5 6.5-6.5 6.5 12.5 1 12.5 1 10.5 1 10.5 1" style="fill:#930;stroke:#930"/><g style="fill:#371300;stroke:#371300"><path d="m119 268l2 1 4.5-6.5 4.5-6.5-1.5-6.5-1.5-6.5-5.5 6-5.5 6 1.5 6.5 1.5 6.5"/><path d="m139 268l8-9-4.5 4.5-4.5 4.5h.5.5"/></g><g style="fill:#581c00;stroke:#581c00"><path d="m566 267l10-13-7 3-7 3 2 3.5 2 3.5"/><path d="m593 266l17-6-6.5-3.5-6.5-3.5-2 6.5-2 6.5"/></g><path d="m420 265l1 1-13-5.5-13-5.5-5.5-.5-5.5-.5v1 1h2 2 2.5 2.5l2 .5 2 .5 1 .5 1 .5h1.5 1.5l.5.5.5.5 1 .5 1 .5h1 1l.5.5.5.5.5.5.5.5.5.5.5.5 1 .5 1 .5.5-.5.5-.5h1 1l.5.5.5.5 2 .5 2 .5" style="fill:#a04c0c;stroke:#a04c0c"/><path d="m56 264l-5-12-3 1-3 1 5.5 5 5.5 5" style="fill:#581c00;stroke:#581c00"/><path d="m378 264l3 1h2.5 2.5 2 2 2.5 2.5l-1.5-.5-1.5-.5h-2-2-2.5-2.5l1-1 1-1 1-1 1-1 1.5-1 1.5-1 1.5-.5 1.5-.5 1.5.5 1.5.5h1.5 1.5l-1-.5-1-.5-2-.5-2-.5h-2.5-2.5l-1 .5-1 .5-.5.5-.5.5-.5.5-.5.5-.5.5-.5.5-.5.5-.5.5-.5.5-.5.5-1.5 1-1.5 1" style="fill:#de6f05;stroke:#de6f05"/><g style="fill:#250e00;stroke:#250e00"><path d="m225 260l10-9-2 1-2 1-3 3.5-3 3.5"/><path d="m10 259l-3-18-1 7-1 7 2.5 2 2.5 2"/></g><g style="fill:#581c00;stroke:#581c00"><path d="m186 252l3 1 1-1 1-1 .5-2 .5-2-.5-1.5-.5-1.5-1.5-1-1.5-1h-2-2l-1 1.5-1 1.5v2 2l1 1 1 1 1 .5 1 .5"/><path d="m27 246l13-6-2-7-2-7-5-3.5-5-3.5-3.5-.5-3.5-.5 2 9.5 2 9.5 2 4.5 2 4.5"/></g><path d="m711 244l1 1v-3-3-2.5-2.5-2-2-2-2l-.5-.5-.5-.5h-2-2-1-1-2-2l-1.5-.5-1.5-.5h-1-1l-.5-1-.5-1h-2-2l-1.5 1-1.5 1h-2-2-2.5-2.5l-1-.5-1-.5v1 1l8.5 3 8.5 3 8 5.5 8 5.5.5 1 .5 1" style="fill:#bf4b00;stroke:#bf4b00"/><path d="m709 241l1 1-8-5.5-8-5.5-8.5-3-8.5-3 16 8 16 8" style="fill:#b23d00;stroke:#b23d00"/><path d="m229 240l3 1 .5-1.5.5-1.5v-2.5-2.5l-.5-1.5-.5-1.5-1 .5-1 .5-1.5.5-1.5.5-.5 2-.5 2 .5 1.5.5 1.5 1 .5 1 .5" style="fill:#250e00;stroke:#250e00"/><path d="m175 235v-23l-4 5-4 5 4 6.5 4 6.5" style="fill:#581c00;stroke:#581c00"/><path d="m220 225l22-3 2.5-5.5 2.5-5.5-6.5-2-6.5-2-9.5 1.5-9.5 1.5 2 7.5 2 7.5h.5.5" style="fill:#250e00;stroke:#250e00"/><path d="m705 225h2l2.5-8.5 2.5-8.5v-2-2l-14 9-14 9-1-1.5-1-1.5v1.5 1.5 1 1h-1.5-1.5 2.5 2.5 2 2l1.5-1 1.5-1h2 2l.5 1 .5 1h1 1l1.5.5 1.5.5h2 2" style="fill:#b23d00;stroke:#b23d00"/><path d="m711 225l1 1v-3-3-2.5-2.5-2-2-1.5-1.5l-2.5 8.5-2.5 8.5h2 2" style="fill:#930;stroke:#930"/><path d="m466 223l3 1 1-1 1-1v-1.5-1.5l-1-1-1-1 .5-2 .5-2-1-1-1-1v1.5 1.5 2 2l-1 1-1 1v1.5 1.5" style="fill:#762500;stroke:#762500"/><path d="m684 222l28-18v-1.5-1.5l-1.5.5-1.5.5-1.5 1-1.5 1h-2-2l-2 .5-2 .5-1.5.5-1.5.5-1.5.5-1.5.5-2 .5-2 .5-.5 1.5-.5 1.5v1.5 1.5l-1 1-1 1-1 1-1 1-.5.5-.5.5 1 1.5 1 1.5" style="fill:#bf4b00;stroke:#bf4b00"/><path d="m683 217v1l1-1 1-1 1-1 1-1v-1.5-1.5l.5-1.5.5-1.5 2-.5 2-.5 1.5-.5 1.5-.5 1.5-.5 1.5-.5 2-.5 2-.5h2 2l1.5-1 1.5-1 1.5-.5 1.5-.5v-2-2-.5-.5l-.5-.5-.5-.5-.5-1-.5-1h-1.5-1.5l-.5-.5-.5-.5-.5-.5-.5-.5h-1-1-.5-.5-1-1-1-1l-.5-.5-.5-.5h-1-1-1.5-1.5l-.5-.5-.5-.5h-1-1l-1 .5-1 .5-1.5.5-1.5.5-1.5-.5-1.5-.5 14.5-6 14.5-6 1 .5 1 .5v-3-3-2.5-2.5-.5-.5h-1.5-1.5-.5-.5v-1-1l.5-.5.5-.5-.5-.5-.5-.5v-1-1l1-.5 1-.5-.5-.5-.5-.5-.5.5-.5.5h-1-1v-1-1l-.5-1-.5-1 .5-.5.5-.5.5-.5.5-.5h1 1l.5 1 .5 1 1 .5 1 .5v-3-3-.5-.5h-1.5-1.5-2-2l-1.5 1-1.5 1h-1-1l-6-4.5-6-4.5 6-7 6-7 6 9.5 6 9.5v-3-3-2-2-2.5-2.5-2-2-2.5-2.5-2-2-2-2-2.5-2.5-.5-.5l-.5 1-.5 1h-1.5-1.5l-6.5-5.5-6.5-5.5 1-9.5 1-9.5 7.5.5 7.5.5v-3-3-2-2-2.5-2.5-2-2-1-1l-1.5.5-1.5.5-.5 1-.5 1 .5.5.5.5v1 1l-.5.5-.5.5-.5.5-.5.5-.5-6.5-.5-6.5-8 .5-8 .5 11-6.5 11-6.5v-3-3-.5-.5l-1-.5-1-.5-.5-.5-.5-.5-16.5 4-16.5 4v1 1l1.5 12 1.5 12 6.5 5 6.5 5-7.5 4.5-7.5 4.5h-12.5-12.5l1 1 1 1-2.5 6.5-2.5 6.5-5-4-5-4 1-.5 1-.5 1 1 1 1 .5.5.5.5v1.5 1.5l1 1 1 1 .5.5.5.5.5.5.5.5v1 1l1 .5 1 .5 1 1 1 1v4.5 4.5l-.5-1-.5-1h-1-1l-.5-.5-.5-.5-1-1-1-1-1 .5-1 .5-2 1-2 1h-1.5-1.5l-1.5.5-1.5.5-.5 2.5-.5 2.5 10 2.5 10 2.5 2 7.5 2 7.5 5-3.5 5-3.5 2 7.5 2 7.5-1.5-1-1.5-1-.5-2-.5-2-3.5 9-3.5 9 9.5-1.5 9.5-1.5 5.5 7 5.5 7-9 5.5-9 5.5-1 .5-1 .5-1.5.5-1.5.5-.5 1-.5 1 15.5 4.5 15.5 4.5-8.5.5-8.5.5 3.5 2 3.5 2-2 7-2 7" style="fill:#b23d00;stroke:#b23d00"/><g style="fill:#581c00;stroke:#581c00"><path d="m30 215l3-22-8.5-6.5-8.5-6.5 5 8.5 5 8.5 2 9 2 9"/><path d="m0 214v1-16-16 2.5 2.5 2.5 2.5 2 2 2 2 2.5 2.5 2 2 2 2"/><path d="m574 214l13-8-6.5 2.5-6.5 2.5v1.5 1.5"/></g><path d="m470 209l3 1 .5-1.5.5-1.5v-2.5-2.5h-1-1l-2 .5-2 .5-1 1-1 1 .5 2 .5 2 1.5-.5 1.5-.5v.5.5" style="fill:#762500;stroke:#762500"/><g style="fill:#250e00;stroke:#250e00"><path d="m232 201l-3-16-5 2-5 2 6 3.5 6 3.5.5 2.5.5 2.5"/><path d="m316 199v-5l.5-9.5.5-9.5-.5-11-.5-11-3 5-3 5v9.5 9.5l-4 6-4 6 7 2.5 7 2.5"/></g><path d="m402 197l14-5-7 2-7 2v.5.5" style="fill:#371300;stroke:#371300"/><path d="m711 195l1 1v-3-3-1-1l-1 .5-1 .5-2-.5-2-.5h-2-2l-1.5-.5-1.5-.5 1.5-1 1.5-1h1 1l1.5-.5 1.5-.5.5-.5.5-.5 1 .5 1 .5 1 .5 1 .5v-3-3l-1-.5-1-.5-1.5 1.5-1.5 1.5-1.5.5-1.5.5-1.5 1-1.5 1h-2-2l-1.5.5-1.5.5-2-.5-2-.5h-2-2l-1.5 1-1.5 1-.5 1.5-.5 1.5 2.5.5 2.5.5 1-.5 1-.5h1 1l.5.5.5.5h1.5 1.5 1 1l.5.5.5.5h1 1 1 1 .5.5 1 1l.5.5.5.5.5.5.5.5h1.5 1.5l.5 1 .5 1" style="fill:#d95400;stroke:#d95400"/><g style="fill:#a04c0c;stroke:#a04c0c"><path d="m615 194l3 1h1 1l2-.5 2-.5 1.5-.5 1.5-.5v-1.5-1.5l-1-1-1-1-1.5 1-1.5 1-1.5.5-1.5.5h-1-1l-1 1.5-1 1.5"/><path d="m652 190h2 1 1 1 1 1.5 1.5 1 1l1.5-.5 1.5-.5.5-1 .5-1 1.5-.5 1.5-.5 1-.5 1-.5h-1.5-1.5l-1 .5-1 .5h-1-1l-.5.5-.5.5-.5-.5-.5-.5h-2-2l-1 .5-1 .5-.5-.5-.5-.5-1-1-1-1-1-.5-1-.5h-1-1l.5 1.5.5 1.5 1 .5 1 .5-.5 1.5-.5 1.5"/></g><path d="m681 190l3 1 1.5-.5 1.5-.5-2.5-.5-2.5-.5.5-1.5.5-1.5 1.5-1 1.5-1h2 2l2 .5 2 .5 1.5-.5 1.5-.5h2 2l1.5-1 1.5-1 1.5-.5 1.5-.5 1.5-1.5 1.5-1.5-14.5 6-14.5 6" style="fill:#bf4b00;stroke:#bf4b00"/><path d="m706 188l4 1 1-.5 1-.5v-1.5-1.5l-1-.5-1-.5-1-.5-1-.5-.5.5-.5.5-1.5.5-1.5.5h-1-1l-1.5 1-1.5 1 1.5.5 1.5.5h2 2" style="fill:#ee6000;stroke:#ee6000"/><path d="m56 183l5-18 .5-4.5.5-4.5-4.5-4-4.5-4-1.5 6.5-1.5 6.5 4.5 7 4.5 7-1.5 4-1.5 4" style="fill:#581c00;stroke:#581c00"/><path d="m391 181l14-9-5.5-1.5-5.5-1.5-1.5 6-1.5 6" style="fill:#371300;stroke:#371300"/><path d="m165 178l-7-20-2.5-13.5-2.5-13.5-3.5-1-3.5-1 3.5 12.5 3.5 12.5.5 9 .5 9 5.5 3 5.5 3" style="fill:#250e00;stroke:#250e00"/><g style="fill:#581c00;stroke:#581c00"><path d="m563 173l9-16-9 1-9 1-3.5 2-3.5 2 .5 1.5.5 1.5 1 1.5 1 1.5h2 2l1-1.5 1-1.5h1 1l1-1 1-1 2 .5 2 .5-.5 1.5-.5 1.5-.5 1-.5 1 .5 1.5.5 1.5"/><path d="m539 169l3 1h2 2v-1.5-1.5l.5-1.5.5-1.5v-.5-.5l2.5-6 2.5-6-7.5-2-7.5-2 .5 9.5.5 9.5.5 1.5.5 1.5"/><path d="m0 167v1h1.5 1.5l1-1 1-1 1-1.5 1-1.5 1-1 1-1-1.5-1-1.5-1-.5-1.5-.5-1.5-1-1.5-1-1.5-1.5-1-1.5-1v1.5 1.5 2.5 2.5 2 2 2 2"/></g><g style="fill:#bf4b00;stroke:#bf4b00"><path d="m708 167h1 1.5 1.5v-3.5-3.5-1.5-1.5l-1-.5-1-.5-.5-1-.5-1h-1-1l-.5.5-.5.5-.5.5-.5.5.5 1 .5 1v1 1h1 1l.5-.5.5-.5.5.5.5.5-1 .5-1 .5v1 1l.5.5.5.5-.5.5-.5.5v1 1"/><path d="m690 159h2l1-1 1-1-1.5-1-1.5-1-1-1-1-1-1-.5-1-.5-1 1-1 1v1.5 1.5l1 1 1 1 1.5-.5 1.5-.5v.5.5"/></g><path d="m700 152h2l1.5-1 1.5-1h2 2 1.5 1.5v-1-1l-6-9.5-6-9.5-6 7-6 7 6 4.5 6 4.5" style="fill:#930;stroke:#930"/><path d="m307 151l11-18-.5-8.5-.5-8.5h-5.5-5.5l1 6 1 6-8 4.5-8 4.5 6.5 4.5 6.5 4.5 1 2.5 1 2.5" style="fill:#250e00;stroke:#250e00"/><path d="m671 151l-4-15v2 2 1 1 1.5 1.5l.5 2 .5 2 1.5 1 1.5 1" style="fill:#bf4b00;stroke:#bf4b00"/><path d="m478 148l3 1 1-1 1-1-.5-2-.5-2-.5-1.5-.5-1.5h-1.5-1.5v2 2l-1 1.5-1 1.5 1 .5 1 .5" style="fill:#371300;stroke:#371300"/><path d="m42 145l3-10-3.5-4.5-3.5-4.5 2 9.5 2 9.5" style="fill:#581c00;stroke:#581c00"/><path d="m74 143h2l1-1 1-1v-2.5-2.5-2-2l-1-1.5-1-1.5-1 1-1 1-.5 2.5-.5 2.5-.5 1.5-.5 1.5.5 1.5.5 1.5.5.5.5.5" style="fill:#762500;stroke:#762500"/><path d="m127 138h2l.5-1.5.5-1.5.5-2 .5-2-.5-1.5-.5-1.5-.5-2-.5-2-1.5.5-1.5.5 1 1.5 1 1.5-.5 1.5-.5 1.5-.5 1.5-.5 1.5.5 2 .5 2" style="fill:#581c00;stroke:#581c00"/><path d="m607 130l3 1v-1-1l.5-.5.5-.5 1-.5 1-.5h1 1l.5-.5.5-.5.5-.5.5-.5 1-.5 1-.5h1 1 1 1 1 1l1 .5 1 .5h1 1 1 1l1-1 1-1-1 .5-1 .5-1.5-.5-1.5-.5-1.5-.5-1.5-.5.5-1.5.5-1.5 1.5-1 1.5-1 .5-1.5.5-1.5 1-1.5 1-1.5 1-1 1-1 1-1.5 1-1.5 1-1 1-1 .5-2 .5-2v-2-2l-6 3.5-6 3.5-3 6-3 6-7.5-5-7.5-5-8 4.5-8 4.5-1.5 2.5-1.5 2.5 10 5.5 10 5.5" style="fill:#b23d00;stroke:#b23d00"/><g style="fill:#930;stroke:#930"><path d="m678 128h2l1.5-.5 1.5-.5 1.5-1 1.5-1-.5-1.5-.5-1.5-2-.5-2-.5-1-.5-1-.5-1 2-1 2-.5 1.5-.5 1.5 1 .5 1 .5"/><path d="m656 127l3 1 1.5-.5 1.5-.5h1.5 1.5l-.5-1.5-.5-1.5-.5-1-.5-1v-2-2h-1.5-1.5l-.5 1.5-.5 1.5-.5 1.5-.5 1.5-1.5 1-1.5 1 .5.5.5.5"/></g><g style="fill:#bf4b00;stroke:#bf4b00"><path d="m607 124l3 1 1-1 1-1 2 .5 2 .5 1.5-.5 1.5-.5v-1.5-1.5l-1-1-1-1-2-.5-2-.5-1.5.5-1.5.5-1 1-1 1-.5 2-.5 2"/><path d="m628 123l3 1 1-.5 1-.5.5-2.5.5-2.5 1.5-.5 1.5-.5h1.5 1.5l2-1 2-1h-1.5-1.5-1.5-1.5-1.5-1.5l-.5-2-.5-2 1-1 1-1 1.5-1 1.5-1 .5-1.5.5-1.5h1.5 1.5l1.5.5 1.5.5 1 1.5 1 1.5 2 1 2 1-1-1-1-1-1-.5-1-.5v-1-1l-.5-.5-.5-.5-.5-.5-.5-.5-1-1-1-1v-1.5-1.5l-.5-.5-.5-.5-1-1-1-1-1 .5-1 .5v2 2l-.5 2-.5 2-1 1-1 1-1 1.5-1 1.5-1 1-1 1-1 1.5-1 1.5-.5 1.5-.5 1.5-1.5 1-1.5 1-.5 1.5-.5 1.5 1.5.5 1.5.5"/></g><path d="m117 121l3 1 1-1 1-1 1-1.5 1-1.5.5-1.5.5-1.5 1-1.5 1-1.5-1-1-1-1-1-1.5-1-1.5-1-1-1-1-1.5.5-1.5.5h-1.5-1.5l-.5 1.5-.5 1.5 1.5 1 1.5 1 2-.5 2-.5v2 2l-1 1.5-1 1.5-1.5.5-1.5.5.5 2 .5 2" style="fill:#762500;stroke:#762500"/><path d="m675 120h2 1 1l-4.5-10.5-4.5-10.5 2 6.5 2 6.5.5 4 .5 4" style="fill:#930;stroke:#930"/><path d="m652 119v-9l1 .5 1 .5v2 2h-1-1l-3-.5-3-.5 1 1 1 1 .5.5.5.5h1 1l.5 1 .5 1" style="fill:#bf4b00;stroke:#bf4b00"/><path d="m569 117l22-9 11-6 11-6-9.5 1-9.5 1-8-4-8-4-2.5 5-2.5 5-2 8.5-2 8.5" style="fill:#762500;stroke:#762500"/><path d="m638 115h3 1.5 1.5l1-.5 1-.5 3 .5 3 .5h1 1v-2-2l-1-.5-1-.5-2-1-2-1-1-1.5-1-1.5-1.5-.5-1.5-.5h-1.5-1.5l-.5 1.5-.5 1.5-1.5 1-1.5 1-1 1-1 1 .5 2 .5 2h1.5 1.5" style="fill:#d95400;stroke:#d95400"/><path d="m708 112h3l.5-1 .5-1v-2.5-2.5-2-2-2.5-2.5-2-2-2.5-2.5-2-2l-7.5-.5-7.5-.5-1 9.5-1 9.5 6.5 5.5 6.5 5.5" style="fill:#930;stroke:#930"/><path d="m199 111l8-21 4-2 4-2-3-8.5-3-8.5-2-9-2-9-8.5-6-8.5-6 5-11 5-11 7-1.5 7-1.5-1-5-1-5-10.5-2-10.5-2h-3.5-3.5-2-2-2.5-2.5-1-1v17.5 17.5l-2 3-2 3-7.5 3.5-7.5 3.5 2 7.5 2 7.5 10 4 10 4 4 11.5 4 11.5 7.5 8.5 7.5 8.5" style="fill:#581c00;stroke:#581c00"/><path d="m551 108l16-7-10-2-10-2 2 5.5 2 5.5" style="fill:#b23d00;stroke:#b23d00"/><path d="m78 107h2l1.5-.5 1.5-.5.5-1.5.5-1.5-2-.5-2-.5-1.5-1-1.5-1-1.5-.5-1.5-.5-1.5 1-1.5 1h-2-2l-1.5-.5-1.5-.5-1-1.5-1-1.5-1-1-1-1-.5-2-.5-2 .5-1 .5-1-1.5 8-1.5 8 10.5 1 10.5 1" style="fill:#762500;stroke:#762500"/><path d="m110 107l4 1 .5-1.5.5-1.5h1.5 1.5l.5-1 .5-1v-1-1l-.5-1.5-.5-1.5v-1.5-1.5l-.5-1.5-.5-1.5h-.5-.5l-1.5 1-1.5 1-.5 1-.5 1v1.5 1.5 1 1l-.5.5-.5.5-.5 1-.5 1v1.5 1.5" style="fill:#a04c0c;stroke:#a04c0c"/><path d="m237 104l7-14-9 3-9 3 5.5 4 5.5 4" style="fill:#250e00;stroke:#250e00"/><path d="m110 103v1l.5-1 .5-1 .5-.5.5-.5v-1-1-1.5-1.5l.5-1 .5-1-1.5-.5-1.5-.5 3.5-12 3.5-12-3.5-9.5-3.5-9.5-5.5-8-5.5-8-4.5-4-4.5-4-4.5-13-4.5-13h-2.5-2.5-2-2-2-2-2.5-2.5-2-2-2.5-2.5-2-2-.5-.5v1.5 1.5l-1 1-1 1 .5 2 .5 2-.5 1.5-.5 1.5-1 1.5-1 1.5-1 1-1 1h-1-1l-.5-1-.5-1v-1.5-1.5-1-1-1-1l.5-.5.5-.5v-1.5-1.5h1 1l.5-.5.5-.5h1 1l.5-1.5.5-1.5h-1.5-1.5-2-2-2.5-2.5-2-2l3.5 15 3.5 15 3.5.5 3.5.5 6.5-2 6.5-2 7.5-1 7.5-1 5.5-4.5 5.5-4.5-1.5 9-1.5 9-3.5 7.5-3.5 7.5-4.5 9-4.5 9-10-5.5-10-5.5-1 6.5-1 6.5 6.5 2.5 6.5 2.5 2 7.5 2 7.5 2.5-1 2.5-1 4-4.5 4-4.5 1-6 1-6 11.5-1 11.5-1 7.5-3 7.5-3-3 7.5-3 7.5-10 4-10 4-.5 2.5-.5 2.5.5 1.5.5 1.5-.5 2-.5 2-.5 1.5-.5 1.5v2.5 2.5l-.5 1-.5 1 8.5-10.5 8.5-10.5 4.5 10.5 4.5 10.5" style="fill:#762500;stroke:#762500"/><path d="m80 102l4 1 .5-1 .5-1v-2.5-2.5l.5-1.5.5-1.5.5-2 .5-2-.5-1.5-.5-1.5.5-2.5.5-2.5-6.5-5.5-6.5-5.5-2 10-2 10-1-1-1-1-1.5-.5-1.5-.5-2.5 1-2.5 1-.5 1-.5 1 .5 2 .5 2 1 1 1 1 1 1.5 1 1.5 1.5.5 1.5.5h2 2l1.5-1 1.5-1 1.5.5 1.5.5 1.5 1 1.5 1" style="fill:#bf4b00;stroke:#bf4b00"/><path d="m425 102l7-18-3.5-9.5-3.5-9.5-4 2.5-4 2.5-8 2-8 2 6.5 7 6.5 7 4.5 4.5 4.5 4.5 1 2.5 1 2.5" style="fill:#762500;stroke:#762500"/><path d="m67 97l3 1 .5-1.5.5-1.5 2 .5 2 .5 1-1 1-1-1.5-1-1.5-1-1.5.5-1.5.5-1-.5-1-.5-1.5-.5-1.5-.5-1.5.5-1.5.5.5 2 .5 2 1.5.5 1.5.5" style="fill:#fb7200;stroke:#fb7200"/><path d="m110 93l3 1 1.5-1 1.5-1 2.5-8 2.5-8 7-8.5 7-8.5-.5-6.5-.5-6.5-5-4.5-5-4.5-8.5-5.5-8.5-5.5-3-13-3-13h-2-2-2-2-2.5-2.5-2-2-1.5-1.5l4.5 13 4.5 13 4.5 4 4.5 4 5.5 8 5.5 8 3.5 9.5 3.5 9.5-3.5 12-3.5 12" style="fill:#581c00;stroke:#581c00"/><path d="m70 90l4-20 6.5 5.5 6.5 5.5 10-4 10-4 3-7.5 3-7.5-7.5 3-7.5 3-11.5 1-11.5 1-1 6-1 6-4 4.5-4 4.5 1.5.5 1.5.5 1 1 1 1" style="fill:#930;stroke:#930"/><path d="m189 90l8-15-6 5-6 5v-1.5-1.5l-.5-2-.5-2 1-1 1-1h1 1l1 .5 1 .5h2 2v1 1l.5 1 .5 1v2 2 1 1l-1 .5-1 .5h-1.5-1.5l-1.5-.5-1.5-.5.5 1.5.5 1.5h.5.5" style="fill:#762500;stroke:#762500"/><path d="m551 90l18-11-11.5.5-11.5.5 2.5 5 2.5 5" style="fill:#b23d00;stroke:#b23d00"/><path d="m190 88h3l1-.5 1-.5v-1-1-2-2l-.5-1-.5-1v-1-1h-2-2l-1-.5-1-.5h-1-1l-1 1-1 1 .5 2 .5 2v-2-2l1-.5 1-.5h1 1l.5.5.5.5.5.5.5.5.5 1 .5 1 .5.5.5.5v1 1l.5.5.5.5-.5 1-.5 1h-1-1-1-1-1-1l1.5.5 1.5.5" style="fill:#930;stroke:#930"/><path d="m186 86l1 1h1 1 1 1 1 1l.5-1 .5-1-.5-.5-.5-.5v-1-1l-.5-.5-.5-.5-.5-1-.5-1-.5-.5-.5-.5-.5-.5-.5-.5h-1-1l-1 .5-1 .5v2 2 1.5 1.5l.5.5.5.5" style="fill:#bf4b00;stroke:#bf4b00"/><path d="m0 85v1l12.5-5.5 12.5-5.5-7-1.5-7-1.5 1-8 1-8-1.5-9-1.5-9-5 5-5 5v2.5 2.5 2.5 2.5l1-.5 1-.5 1.5-.5 1.5-.5 2-.5 2-.5h1 1l-.5 2-.5 2-1.5.5-1.5.5-1.5 1-1.5 1-1.5.5-1.5.5-.5 1-.5 1v3.5 3.5 2 2 2.5 2.5 2 2" style="fill:#762500;stroke:#762500"/><path d="m80 85h2l1-1 1-1v-2.5-2.5-2-2l-1.5-1-1.5-1-1.5.5-1.5.5-.5 2-.5 2 .5 1.5.5 1.5.5 1.5.5 1.5.5 1 .5 1" style="fill:#ff8d01;stroke:#ff8d01"/><path d="m652 84l1-22 2.5-4.5 2.5-4.5-10.5 3-10.5 3-.5-8.5-.5-8.5-1.5 1.5-1.5 1.5h-1-1-2-2-2.5-2.5l-1.5.5-1.5.5-1 .5-1 .5 2.5-.5 2.5-.5 1.5 1 1.5 1v2 2l.5 1.5.5 1.5 1 1.5 1 1.5 1 1 1 1 1 1.5 1 1.5.5 1.5.5 1.5 1.5 1 1.5 1 1 1 1 1 .5.5.5.5 4-6.5 4-6.5 1 .5 1 .5.5.5.5.5v1.5 1.5l-.5 1.5-.5 1.5v1 1l-1 .5-1 .5-.5 1.5-.5 1.5-.5.5-.5.5-.5.5-.5.5-1.5-.5-1.5-.5-1-1-1-1-.5 1-.5 1 1 1 1 1 1.5 1 1.5 1v1 1l1 1.5 1 1.5.5-1.5.5-1.5h1 1l1.5 1 1.5 1 .5 1.5.5 1.5" style="fill:#b23d00;stroke:#b23d00"/><path d="m233 82l3 1 1-1 1-1 1.5-1 1.5-1-.5-1.5-.5-1.5-1.5-1-1.5-1h-1-1l-1 1.5-1 1.5-.5 1.5-.5 1.5.5 1 .5 1" style="fill:#250e00;stroke:#250e00"/><path d="m37 80l3 1 1-1 1-1 1.5-1 1.5-1-1-1-1-1-2-.5-2-.5-1.5.5-1.5.5-1 1.5-1 1.5 1 1 1 1h.5.5" style="fill:#762500;stroke:#762500"/><g style="fill:#581c00;stroke:#581c00"><path d="m357 80l3 1 1.5-.5 1.5-.5.5-1 .5-1h1 1l1 .5 1 .5-13-4-13-4 7.5 4.5 7.5 4.5"/><path d="m472 80h2l1-1 1-1 2-.5 2-.5.5-1.5.5-1.5-2-.5-2-.5-1.5-.5-1.5-.5-1 1.5-1 1.5v1 1l-.5 1.5-.5 1.5h.5.5"/></g><path d="m666 80l5-18-5 8-5 8 2.5 1 2.5 1" style="fill:#b23d00;stroke:#b23d00"/><g style="fill:#581c00;stroke:#581c00"><path d="m321 79l3 1 .5-1.5.5-1.5v-1.5-1.5-2-2l-.5-2-.5-2-1 1-1 1-.5 2-.5 2-.5 1.5-.5 1.5v2 2h.5.5"/><path d="m416 79l3 1h2 2l2-.5 2-.5.5-.5.5-.5-.5-2-.5-2-1.5.5-1.5.5-2 .5-2 .5-1.5.5-1.5.5-.5 1-.5 1"/></g><path d="m542 78l22-9-9-4-9-4-2 8.5-2 8.5" style="fill:#b23d00;stroke:#b23d00"/><path d="m312 74l1-20-.5 3.5-.5 3.5v6.5 6.5" style="fill:#250e00;stroke:#250e00"/><path d="m641 73l3 1 .5-.5.5-.5.5-.5.5-.5.5-1.5.5-1.5-1.5.5-1.5.5-1.5-.5-1.5-.5-.5-2-.5-2 1-1 1-1 .5-.5.5-.5.5-.5.5-.5.5-.5.5-.5 1-1 1-1-4 6.5-4 6.5 1 1 1 1" style="fill:#bf4b00;stroke:#bf4b00"/><path d="m603 72l27-2-6.5-.5-6.5-.5-9 1.5-9 1.5h2 2" style="fill:#762500;stroke:#762500"/><path d="m575 70l20-5-10-4-10-4v6.5 6.5" style="fill:#b23d00;stroke:#b23d00"/><path d="m707 70l1-1 .5-.5.5-.5v-1-1l-.5-.5-.5-.5.5-1 .5-1 1.5-.5 1.5-.5v-2.5-2.5-2-2-2.5-2.5-1.5-1.5l-11 6.5-11 6.5 8-.5 8-.5.5 6.5.5 6.5" style="fill:#930;stroke:#930"/><path d="m240 69l7-12 5.5-2.5 5.5-2.5 10-.5 10-.5 1.5-10.5 1.5-10.5-3-2.5-3-2.5-8.5-1.5-8.5-1.5-13-.5-13-.5-1.5 4.5-1.5 4.5v11.5 11.5l6 7 6 7-.5 1-.5 1" style="fill:#250e00;stroke:#250e00"/><path d="m641 69l3 1 1.5-.5 1.5-.5 1-.5 1-.5v-1-1l.5-1.5.5-1.5v-1.5-1.5l-.5-.5-.5-.5-1-.5-1-.5-1 1-1 1-.5.5-.5.5-.5.5-.5.5-.5.5-.5.5-1 1-1 1 .5 2 .5 2" style="fill:#d95400;stroke:#d95400"/><path d="m189 68l3 1 1.5-.5 1.5-.5 1.5-1 1.5-1 1.5.5 1.5.5-1-1.5-1-1.5-1-1-1-1-1-1.5-1-1.5-1.5.5-1.5.5-.5 1.5-.5 1.5v1.5 1.5l-1 1-1 1" style="fill:#371300;stroke:#371300"/><path d="m0 64v1l.5-1 .5-1 1.5-.5 1.5-.5 1.5-1 1.5-1 1.5-.5 1.5-.5.5-2 .5-2h-1-1l-2 .5-2 .5-1.5.5-1.5.5-1 .5-1 .5v3 3" style="fill:#930;stroke:#930"/><path d="m613 61l3 1 1-1 1-1 .5-2 .5-2-.5-1.5-.5-1.5-.5-2-.5-2v-1-1l-.5-.5-.5-.5 1-.5 1-.5.5-.5.5-.5h1 1 1 1v-1.5-1.5l-1.5.5-1.5.5h-1-1l-1-.5-1-.5-1-1-1-1v-1-1l.5-.5.5-.5-.5-.5-.5-.5-1-.5-1-.5h1.5 1.5v-.5-.5l-3 8-3 8 2 6 2 6" style="fill:#d95400;stroke:#d95400"/><g style="fill:#371300;stroke:#371300"><path d="m173 59l20-1-7-4-7-4-3 4.5-3 4.5"/><path d="m33 58l23-4-6-9-6-9-4 7.5-4 7.5-1.5 3.5-1.5 3.5"/></g><path d="m594 55l5-10-11.5 1.5-11.5 1.5 8.5 3 8.5 3 .5.5.5.5" style="fill:#762500;stroke:#762500"/><path d="m439 54l3 1 1.5-.5 1.5-.5 2-.5 2-.5 1.5-.5 1.5-.5v-1.5-1.5h-2-2l-2-.5-2-.5h-2-2-1.5-1.5l1 1 1 1h1 1l.5.5.5.5v1 1h-1.5-1.5-1-1-1-1l-1.5-.5-1.5-.5-.5-1-.5-1 .5-1.5.5-1.5-1.5 1-1.5 1 .5 1.5.5 1.5 1 1 1 1h2.5 2.5 1 1" style="fill:#930;stroke:#930"/><path d="m145 53l2-1h.5.5 1 1l.5-1 .5-1 .5-1 .5-1 .5-1.5.5-1.5h-1-1l-.5-.5-.5-.5h-1-1l.5.5.5.5.5 1 .5 1h-1-1l-.5-.5-.5-.5h-1-1l-.5.5-.5.5-1-.5-1-.5-.5.5-.5.5v1 1l.5.5.5.5 1 .5 1 .5.5 1 .5 1" style="fill:#581c00;stroke:#581c00"/><path d="m670 53l3 1 .5-1.5.5-1.5v-1.5-1.5l1-1 1-1v-1-1l.5-1 .5-1-1-1-1-1-.5 1-.5 1-1.5.5-1.5.5-.5 1.5-.5 1.5h1.5 1.5v1 1h-2-2l1 1.5 1 1.5-.5 1-.5 1" style="fill:#d95400;stroke:#d95400"/><path d="m432 52l3 1h1 1 1 1 1.5 1.5v-1-1l-.5-.5-.5-.5h-1-1l-1-1-1-1-2-.5-2-.5h-.5-.5l-.5 1.5-.5 1.5.5 1 .5 1" style="fill:#bf4b00;stroke:#bf4b00"/><path d="m316 51l1-18-4.5-7.5-4.5-7.5-5.5 7-5.5 7 5.5 7.5 5.5 7.5 4 2 4 2" style="fill:#250e00;stroke:#250e00"/><path d="m655 47l3 1 1-1 1-1h1.5 1.5l1.5-.5 1.5-.5 1 1 1 1 5.5-7 5.5-7 1-.5 1-.5 1-1 1-1 1.5-.5 1.5-.5 1 1 1 1 1.5.5 1.5.5h1 1 1.5 1.5l1-1 1-1v-1-1l-.5-1-.5-1 1-1 1-1 1.5-1 1.5-1 1.5-.5 1.5-.5 1-1 1-1 .5-.5.5-.5 1.5-1 1.5-1 .5-2 .5-2v-1.5-1.5-2.5-2.5-2-2h-2-2-2.5-2.5-1-1l-.5 2.5-.5 2.5-.5 1-.5 1-1 1-1 1h-1-1l-2-1-2-1h-1.5-1.5l-1-.5-1-.5-.5-.5-.5-.5h-1.5-1.5v-2.5-2.5h-2-2-2-2-1-1l.5 1 .5 1-1 1-1 1-.5.5-.5.5h-1-1l-.5.5-.5.5h-1-1l-.5-1-.5-1-.5-.5-.5-.5-1-.5-1-.5-.5-1-.5-1h-3-3-2-2-.5-.5l6 16.5 6 16.5-3 7-3 7" style="fill:#b23d00;stroke:#b23d00"/><g style="fill:#bf4b00;stroke:#bf4b00"><path d="m669 47v1h2 2v-1-1h-1.5-1.5l.5-1.5.5-1.5 1.5-.5 1.5-.5.5-1 .5-1 1 1 1 1-.5 1-.5 1 16.5-4 16.5-4-1.5-1-1.5-1-1.5-.5-1.5-.5-.5-1.5-.5-1.5.5-.5.5-.5 1-.5 1-.5v-1-1l.5-.5.5-.5.5-1 .5-1 .5-1.5.5-1.5.5-.5.5-.5 1-1.5 1-1.5-1.5 1-1.5 1-.5.5-.5.5-1 1-1 1-1.5.5-1.5.5-1.5 1-1.5 1-1 1-1 1 .5 1 .5 1v1 1l-1 1-1 1h-1.5-1.5-1-1l-1.5-.5-1.5-.5-1-1-1-1v1.5 1.5l1 1 1 1h1 1v.5.5l.5 1.5.5 1.5-.5.5-.5.5-.5-1-.5-1-1.5-.5-1.5-.5v1 1l-.5 1-.5 1-1 .5-1 .5-1-.5-1-.5-.5.5-.5.5-.5-1-.5-1-.5-.5-.5-.5-.5-.5-.5-.5h-1-1l-1-.5-1-.5v-1-1l.5-.5.5-.5.5.5.5.5 2-.5 2-.5-5.5 7-5.5 7h.5.5"/><path d="m616 46l1 1 1-.5 1-.5 1.5-.5 1.5-.5h2.5 2.5 2 2 1 1l1.5-1.5 1.5-1.5v-.5-.5l-1-1.5-1-1.5h-2-2l-1 1-1 1h-1-1l-1 .5-1 .5-1.5-.5-1.5-.5h-1-1-1.5-1.5v-2-2l-.5-1-.5-1h-1.5-1.5l1 .5 1 .5.5.5.5.5-.5.5-.5.5v1 1l1 1 1 1 1 .5 1 .5h1 1l1.5-.5 1.5-.5v1.5 1.5h-1-1-1-1l-.5.5-.5.5-1 .5-1 .5"/></g><path d="m110 45h2l.5-1.5.5-1.5-1.5-1-1.5-1-.5-1.5-.5-1.5-1.5-1-1.5-1-1 1-1 1v1.5 1.5l1.5.5 1.5.5.5 1.5.5 1.5 1 .5 1 .5" style="fill:#762500;stroke:#762500"/><path d="m89 44l3 1 1.5-.5 1.5-.5 1-1.5 1-1.5v-2-2l-1 1.5-1 1.5-1 1-1 1-1.5-.5-1.5-.5-1-1.5-1-1.5v-1-1-1-1l.5-.5.5-.5 1-.5 1-.5.5-1 .5-1-2 1-2 1-.5 1.5-.5 1.5-1 1.5-1 1.5.5 1.5.5 1.5 1.5 1 1.5 1v.5.5" style="fill:#930;stroke:#930"/><path d="m527 44l14-11 6.5-5.5 6.5-5.5-1.5 8-1.5 8 8.5-1 8.5-1 7-9 7-9-10.5-2-10.5-2-2.5-4.5-2.5-4.5-2.5 4-2.5 4-7.5 2.5-7.5 2.5v-9-9h-3-3-2-2-2-2-1-1l-1 10.5-1 10.5 10.5 3 10.5 3-6 8.5-6 8.5" style="fill:#581c00;stroke:#581c00"/><path d="m656 42l3 1 1.5-.5 1.5-.5 1.5-1 1.5-1v-1-1l-1.5-1-1.5-1-1.5-.5-1.5-.5-1.5 1-1.5 1-1 1-1 1v1 1l1 .5 1 .5" style="fill:#bf4b00;stroke:#bf4b00"/><path d="m90 41l3 1 1-1 1-1 1-1.5 1-1.5.5-1.5.5-1.5-1-1.5-1-1.5-1-1-1-1-1 .5-1 .5-.5 1-.5 1-1 .5-1 .5-.5.5-.5.5v1 1 1 1l1 1.5 1 1.5" style="fill:#a04c0c;stroke:#a04c0c"/><path d="m636 41v1l.5-1 .5-1v-2-2l-2-.5-2-.5-1-1-1-1-1 1.5-1 1.5-.5 1.5-.5 1.5h-2.5-2.5l.5-1.5.5-1.5-1-1-1-1h-1.5-1.5l-1.5-.5-1.5-.5h-.5-.5v.5.5l.5 1 .5 1v2 2h1.5 1.5 1 1l1.5.5 1.5.5 1-.5 1-.5h1 1l1-1 1-1h2 2l1 1.5 1 1.5" style="fill:#b23d00;stroke:#b23d00"/><g style="fill:#d95400;stroke:#d95400"><path d="m683 41l2-1 .5-1 .5-1v-1-1l1.5.5 1.5.5.5 1 .5 1 .5-.5.5-.5-.5-1.5-.5-1.5v-.5-.5h-1-1l-1-1-1-1v-1.5-1.5l-1.5.5-1.5.5-1 1-1 1-1 .5-1 .5-2 .5-2 .5-.5-.5-.5-.5-.5.5-.5.5v1 1l1 .5 1 .5h1 1l.5.5.5.5.5.5.5.5.5 1 .5 1 .5-.5.5-.5 1 .5 1 .5"/><path d="m710 37l2 1v-2.5-2.5-2.5-2.5-2-2-2.5-2.5-2-2-1.5-1.5l-.5 2-.5 2-1 1.5-1 1.5-.5.5-.5.5-.5 1.5-.5 1.5-.5 1-.5 1-.5.5-.5.5v1 1l-1 .5-1 .5-.5.5-.5.5.5 1.5.5 1.5 1.5.5 1.5.5 1.5 1 1.5 1 .5.5.5.5"/></g><path d="m677 31l11-14 9.5-.5 9.5-.5-8-1.5-8-1.5-9.5.5-9.5.5-.5 6-.5 6 3 2.5 3 2.5" style="fill:#930;stroke:#930"/><path d="m478 29l-1-20-.5 8.5-.5 8.5 1 1.5 1 1.5" style="fill:#371300;stroke:#371300"/><path d="m647 29h2l1.5-.5 1.5-.5v-2.5-2.5l-.5-1.5-.5-1.5-1-.5-1-.5h-1-1l-2 .5-2 .5 1 1 1 1 1 1 1 1v1.5 1.5 1 1" style="fill:#b23d00;stroke:#b23d00"/><path d="m422 28l1-1 1-1 1-1-.5-2-.5-2h-2-2l-2 .5-2 .5-1 1-1 1 .5 1 .5 1h1 1l1.5-.5 1.5-.5.5 1 .5 1 .5.5.5.5" style="fill:#371300;stroke:#371300"/><g style="fill:#581c00;stroke:#581c00"><path d="m601 28l-5-16-4.5-.5-4.5-.5 1.5 4 1.5 4 5.5 4.5 5.5 4.5"/><path d="m122 25l1-1 .5-1.5.5-1.5 2-.5 2-.5v-1-1l-.5-2-.5-2-1.5-.5-1.5-.5-1.5 1-1.5 1v1 1l.5 1.5.5 1.5v1.5 1.5 1 1"/></g><path d="m391 24l3 1 1.5-.5 1.5-.5 2-.5 2-.5-.5-1.5-.5-1.5.5-2 .5-2-1-1-1-1-1 1.5-1 1.5-1 1-1 1h-2-2l-1 1.5-1 1.5 1 1 1 1" style="fill:#371300;stroke:#371300"/><path d="m41 17h2l1-1 1-1 1-1.5 1-1.5.5-1.5.5-1.5-.5-2-.5-2 1-1 1-1v-1.5-1.5h-1-1l-.5 1.5-.5 1.5h-1-1l-.5.5-.5.5h-1-1v1.5 1.5l-.5.5-.5.5v1 1 1 1 1.5 1.5l.5 1 .5 1" style="fill:#930;stroke:#930"/><g style="fill:#581c00;stroke:#581c00"><path d="m112 15l7-15h-2.5-2.5-2.5-2.5-2-2-.5-.5l1 1.5 1 1.5 1 .5 1 .5.5.5.5.5.5.5.5.5h-1-1l1 .5 1 .5.5.5.5.5h1 1l.5-.5.5-.5.5.5.5.5.5 1 .5 1-.5.5-.5.5-1.5.5-1.5.5v1.5 1.5"/><path d="m230 14l19-2-8.5-3.5-8.5-3.5-1 4.5-1 4.5"/><path d="m265 13l9-8-8 3-8 3 3.5 1 3.5 1"/><path d="m290 12h2l.5-1.5.5-1.5-1.5-1-1.5-1-1.5.5-1.5.5-1-1.5-1-1.5-1 1-1 1v1.5 1.5l1 1 1 1 1-1 1-1 1 .5 1 .5.5.5.5.5"/></g><path d="m577 9l3 1 .5-1.5.5-1.5 1-1.5 1-1.5v-2-2h-2.5-2.5-2-2-1.5-1.5l.5 1 .5 1 1 1 1 1 .5 1 .5 1-.5.5-.5.5 1.5 1 1.5 1" style="fill:#930;stroke:#930"/><path d="m695 9h2l1-1 1-1 .5-1 .5-1 .5-2.5.5-2.5h-1.5-1.5-2-2-.5-.5v1.5 1.5 1.5 1.5l-1 .5-1 .5 2 1 2 1" style="fill:#bf4b00;stroke:#bf4b00"/><path d="m688 7h3l1-.5 1-.5v-1.5-1.5-1.5-1.5h-3-3-2-2-.5-.5v2.5 2.5h1.5 1.5l.5.5.5.5 1 .5 1 .5" style="fill:#d95400;stroke:#d95400"/><path d="m422 6h3l1.5-.5 1.5-.5 1.5-1 1.5-1v-1.5-1.5h-2-2l-2 .5-2 .5-1 1.5-1 1.5.5 1 .5 1" style="fill:#371300;stroke:#371300"/><path d="m665 6h2l.5-.5.5-.5h1 1l.5-.5.5-.5 1-1 1-1-.5-1-.5-1h-2.5-2.5-2-2-1.5-1.5l.5 1 .5 1 1 .5 1 .5.5.5.5.5.5 1 .5 1" style="fill:#d95400;stroke:#d95400"/></g></svg>