<svg xmlns="http://www.w3.org/2000/svg" viewBox="0 0 960 720"><path d="m0 0h960v720h-960z" style="fill:#171307"/><g style="stroke-linejoin:round;stroke-width:.7"><path d="m959 720h1v-30.5-30.5-31-31-31-31-13-13h-.5-.5l-12.5-14-12.5-14-16-15-16-15-28.5-16-28.5-16-1 1-1 1-1.5-.5-1.5-.5 9-11 9-11 6-16 6-16 13-15 13-15 10.5-18.5 10.5-18.5-9.5-10.5-9.5-10.5-12.5-15.5-12.5-15.5-12-19-12-19h-1-1l-.5 1-.5 1-.5.5-.5.5-.5.5-.5.5-.5.5-.5.5-1 .5-1 .5-.5.5-.5.5-.5.5-.5.5-.5.5-.5.5-.5 1-.5 1-.5.5-.5.5-.5.5-.5.5-.5.5-.5.5-.5.5-.5.5-.5 1-.5 1-.5.5-.5.5-.5.5-.5.5-.5 1.5-.5 1.5 13.5 16 13.5 16 16 20.5 16 20.5-7.5 17.5-7.5 17.5-9 12-9 12-1.5 10-1.5 10-16 9-16 9 .5 1 .5 1 1 .5 1 .5.5 1.5.5 1.5.5.5.5.5.5 1 .5 1 1 1 1 1 .5 1 .5 1 1.5 1 1.5 1 1 1.5 1 1.5 1.5.5 1.5.5.5 1 .5 1h1.5 1.5 2 2v2 2l-1 1.5-1 1.5 1 1 1 1 .5 1.5.5 1.5h1.5 1.5l19.5 3.5 19.5 3.5 1.5.5 1.5.5.5 1.5.5 1.5-1 .5-1 .5-1.5.5-1.5.5-1.5.5-1.5.5h-2.5-2.5l-1.5.5-1.5.5-1 .5-1 .5 1.5.5 1.5.5 2-.5 2-.5 1.5.5 1.5.5h2 2l1.5.5 1.5.5 13.5 10 13.5 10 7.5 10.5 7.5 10.5 5.5 10.5 5.5 10.5.5 14.5.5 14.5 4 16 4 16 1 17 1 17 .5 35.5.5 35.5-6.5 11-6.5 11-4 9-4 9h1.5 1.5 2.5 2.5 2 2 2 2 2.5 2.5 1.5 1.5" style="fill:#5a564a;stroke:#5a564a"/><path d="m959 509h1v-1.5-1.5-2-2-.5-.5h-.5-.5l-.5-1-.5-1-1.5-.5-1.5-.5-1-1-1-1-1.5-1-1.5-1-.5-1.5-.5-1.5-1-1-1-1-1.5-1-1.5-1-1-1-1-1-1.5-1-1.5-1-1-1-1-1-1-1-1-1-16.5-15-16.5-15-19-17.5-19-17.5-1-1-1-1-.5.5-.5.5-1 1-1 1-1 1-1 1-1 1.5-1 1.5-1 1-1 1-1.5.5-1.5.5-1-.5-1-.5 1.5-.5 1.5-.5-1-1.5-1-1.5-1.5-.5-1.5-.5-.5 1-.5 1 28.5 16 28.5 16 16 15 16 15 12.5 14 12.5 14" style="fill:#4c4838;stroke:#4c4838"/><path d="m959 501h1v-30.5-30.5-31-31-7-7h-.5-.5l-7-14.5-7-14.5 7.5-14 7.5-14v-2.5-2.5-2-2-2.5-2.5-2-2-2.5-2.5-2-2-2.5-2.5-2-2-2-2-2.5-2.5-1-1h-.5-.5l-15.5-11-15.5-11-17-23-17-23 1.5 1 1.5 1 1.5.5 1.5.5 2 .5 2 .5 1 .5 1 .5 1 .5 1 .5v1 1l-20 1-20 1h-.5-.5-1.5-1.5l-1.5.5-1.5.5-1 2-1 2 15.5 8.5 15.5 8.5 8.5 13.5 8.5 13.5 19 18 19 18-8.5 12-8.5 12-11.5 17.5-11.5 17.5-21.5 27.5-21.5 27.5-.5 1-.5 1-1 1.5-1 1.5-1 2-1 2v1.5 1.5l2.5-.5 2.5-.5 1 1 1 1 10.5-3 10.5-3 10-3 10-3 11.5 5.5 11.5 5.5 4 9 4 9-3 11.5-3 11.5 2.5 12.5 2.5 12.5 1 1 1 1 1 1 1 1 1.5 1 1.5 1 1 1 1 1 1.5 1 1.5 1 1 1 1 1 .5 1.5.5 1.5 1.5 1 1.5 1 1 1 1 1 1.5.5 1.5.5.5 1 .5 1" style="fill:#383428;stroke:#383428"/><g style="fill:#2a2618;stroke:#2a2618"><path d="m959 364h1v-28.5-28.5l-7.5 14-7.5 14 7 14.5 7 14.5"/><path d="m959 260h1v-1.5-1.5-2-2-2.5-2.5-2-2-2.5-2.5-2-2-2-2h-.5-.5l-13-9-13-9-13.5-9.5-13.5-9.5-22.5-6.5-22.5-6.5-17.5-13.5-17.5-13.5-14.5 5.5-14.5 5.5-.5-13.5-.5-13.5 15-12 15-12-16.5-14.5-16.5-14.5-13-17-13-17-12.5 7.5-12.5 7.5-16.5 14.5-16.5 14.5-6.5 10.5-6.5 10.5-15.5-8.5-15.5-8.5-10.5-5.5-10.5-5.5-16-8-16-8-4-11-4-11 24.5 1.5 24.5 1.5 23.5 3.5 23.5 3.5 16.5-7.5 16.5-7.5-16-14-16-14 22.5-8.5 22.5-8.5h-31-31-31.5-31.5-11-11l6.5 11 6.5 11-2 .5-2 .5-1.5.5-1.5.5-1.5 1-1.5 1-1.5.5-1.5.5-2 .5-2 .5-1.5.5-1.5.5-2 .5-2 .5-1.5.5-1.5.5-1.5.5-1.5.5-1 .5-1 .5 25-7 25-7 26.5-1.5 26.5-1.5 21.5 19.5 21.5 19.5-23-.5-23-.5-26-4-26-4-7.5-5.5-7.5-5.5-32.5 6-32.5 6 10.5-1 10.5-1-19 8-19 8-27 2-27 2-22 9-22 9 4-6 4-6-13.5-4.5-13.5-4.5-24.5-4-24.5-4-18 4-18 4-14.5-10.5-14.5-10.5-6.5 10.5-6.5 10.5.5 8.5.5 8.5-11.5 7.5-11.5 7.5 14.5 4.5 14.5 4.5-27 3-27 3-13.5 11-13.5 11 1 6 1 6-3 10-3 10-14 6-14 6-.5 8.5-.5 8.5 24 5 24 5 26.5 3.5 26.5 3.5 7.5 12.5 7.5 12.5-21 9.5-21 9.5-21-3-21-3-24-1-24-1-23 5-23 5-18 13-18 13-5.5 13.5-5.5 13.5-6-4-6-4-4.5 9.5-4.5 9.5v9 9l-3 12-3 12-1.5 5.5-1.5 5.5-1 10-1 10-.5 9.5-.5 9.5 2 5 2 5 3 14 3 14 3.5 13.5 3.5 13.5 6 16 6 16-11.5 9.5-11.5 9.5 4.5 9.5 4.5 9.5 10 7 10 7-5.5 11.5-5.5 11.5 5-2 5-2 6 4 6 4 3.5 4.5 3.5 4.5 5.5 6.5 5.5 6.5 8 13 8 13 9 13 9 13 7 10 7 10 16 10 16 10 10 9.5 10 9.5h31.5 31.5 3.5 3.5l-12.5-13-12.5-13-10-6.5-10-6.5-13-10-13-10-12.5-17.5-12.5-17.5-12-19.5-12-19.5-6-11-6-11 5.5 18.5 5.5 18.5-1.5 11.5-1.5 11.5-6-14-6-14-3-11-3-11-10-1.5-10-1.5-4.5-14.5-4.5-14.5.5-15.5.5-15.5 2.5-.5 2.5-.5 8.5 17.5 8.5 17.5 6.5 4.5 6.5 4.5-9-21.5-9-21.5-4.5-19.5-4.5-19.5-2-13-2-13 .5-22.5.5-22.5 7-15 7-15 2-13 2-13-14 2-14 2-6-13.5-6-13.5 6.5-19.5 6.5-19.5 18-10 18-10h21 21l14.5 4.5 14.5 4.5 16.5 1.5 16.5 1.5 19.5-9.5 19.5-9.5 17-13.5 17-13.5 4.5-21.5 4.5-21.5 5.5 3.5 5.5 3.5 17-13 17-13 9-11 9-11-1-.5-1-.5-.5 1-.5 1-.5 1-.5 1-.5.5-.5.5-15 9-15 9h-1.5-1.5v1 1l-.5.5-.5.5-.5.5-.5.5-.5 1-.5 1-18 12.5-18 12.5-24.5 3.5-24.5 3.5 4-11 4-11-12 6-12 6-14.5-8.5-14.5-8.5 17.5-9.5 17.5-9.5 9.5-.5 9.5-.5 11-6 11-6-7-4-7-4 1.5-5.5 1.5-5.5-9-6-9-6 19-2 19-2 10-5 10-5-1-11-1-11 8.5-3.5 8.5-3.5 18.5-3.5 18.5-3.5 9.5 11.5 9.5 11.5-1-17-1-17 19.5 10.5 19.5 10.5-9.5 17.5-9.5 17.5-21.5-9.5-21.5-9.5-9.5 4.5-9.5 4.5 20.5 7.5 20.5 7.5 12 3 12 3 13-18 13-18 21-9 21-9 27-1 27-1 29.5-4 29.5-4 .5 1.5.5 1.5 1 .5 1 .5.5.5.5.5v1 1h1 1v1.5 1.5l1 1 1 1 .5.5.5.5.5 1 .5 1 1 1 1 1v1 1l.5.5.5.5.5.5.5.5 1 .5 1 .5 17.5 13 17.5 13 20.5 9.5 20.5 9.5 20.5 9.5 20.5 9.5 21.5 8.5 21.5 8.5 23.5 6.5 23.5 6.5 37.5 8.5 37.5 8.5 1 1 1 1 2-.5 2-.5 17 23 17 23 15.5 11 15.5 11"/></g><path d="m959 231h1v-1.5-1.5-2-2-2.5-2.5-2-2-2.5-2.5-.5-.5h-.5-.5l.5-2 .5-2v-3-3-2-2-2.5-2.5-2-2-2.5-2.5-2-2-2-2-2.5-2.5-.5-.5h-.5-.5l-10-2-10-2-10-12-10-12 20.5-36.5 20.5-36.5v-30.5-30.5-2.5-2.5h-28.5-28.5-31-31-31-31-16.5-16.5l-22.5 8.5-22.5 8.5 16 14 16 14-16.5 7.5-16.5 7.5-23.5-3.5-23.5-3.5-24.5-1.5-24.5-1.5 4 11 4 11 16 8 16 8 10.5 5.5 10.5 5.5 15.5 8.5 15.5 8.5 6.5-10.5 6.5-10.5 16.5-14.5 16.5-14.5 12.5-7.5 12.5-7.5 13 17 13 17 16.5 14.5 16.5 14.5-15 12-15 12 .5 13.5.5 13.5 14.5-5.5 14.5-5.5 17.5 13.5 17.5 13.5 22.5 6.5 22.5 6.5 13.5 9.5 13.5 9.5 13 9 13 9" style="fill:#171307;stroke:#171307"/><g style="fill:#2a2618;stroke:#2a2618"><path d="m959 209h1v-1.5-1.5-.5-.5l-.5 2-.5 2"/><path d="m959 167h1v-1.5-1.5-2-2-2.5-2.5-2-2-2.5-2.5-2-2-2.5-2.5-1-1h-.5-.5l.5-17.5.5-17.5v-2.5-2.5-2.5-2.5-2-2-2.5-2.5-2-2-2.5-2.5-2-2-1-1l-20.5 36.5-20.5 36.5 10 12 10 12 10 2 10 2"/></g><path d="m959 135h1v-1.5-1.5-2-2-2.5-2.5-2-2-2.5-2.5-2-2-2.5-2.5-2-2-.5-.5l-.5 17.5-.5 17.5" style="fill:#383428;stroke:#383428"/><path d="m956 680l-1-71-1-17-1-17-4-16-4-16-.5-14.5-.5-14.5-5.5-10.5-5.5-10.5-7.5-10.5-7.5-10.5-13.5-10-13.5-10 4.5 11 4.5 11 5.5 7.5 5.5 7.5 5 5.5 5 5.5-.5 6.5-.5 6.5 4.5 6.5 4.5 6.5-.5 9.5-.5 9.5 6.5 10.5 6.5 10.5 2.5 9.5 2.5 9.5 3 8 3 8-2 13.5-2 13.5 3.5 11 3.5 11-6.5 12.5-6.5 12.5-3 10-3 10-23 12.5-23 12.5h3 3 2 2 2.5 2.5 2 2 2 2 2.5 2.5 2 2 2.5 2.5 2 2 2 2l4-9 4-9 6.5-11 6.5-11" style="fill:#68645a;stroke:#68645a"/><path d="m955 650l-7-22 2-13.5 2-13.5-3-8-3-8-2.5-9.5-2.5-9.5-6.5-10.5-6.5-10.5.5-9.5.5-9.5-4.5-6.5-4.5-6.5.5-6.5.5-6.5-5-5.5-5-5.5-5.5-7.5-5.5-7.5-4.5-11-4.5-11v-5-5l-1.5-.5-1.5-.5h-.5-.5l-19-3.5-19-3.5h-1.5-1.5-.5-.5-1-1l-1.5 1-1.5 1-1 1-1 1h-2.5-2.5l-1-1-1-1-1-.5-1-.5-1.5.5-1.5.5-.5.5-.5.5-1 .5-1 .5-1.5.5-1.5.5h-1-1l-.5-.5-.5-.5h-1-1l.5-1 .5-1 1-1 1-1h1 1l1-.5 1-.5 1-.5 1-.5 2-1 2-1 1.5.5 1.5.5 1 .5 1 .5.5-1.5.5-1.5 1.5-.5 1.5-.5 1.5-1 1.5-1-1-2-1-2-.5-1-.5-1-1.5-.5-1.5-.5-1-1.5-1-1.5-1.5-1-1.5-1-12 13.5-12 13.5 23.5 1.5 23.5 1.5-1 3-1 3 14 6 14 6 6.5 9.5 6.5 9.5 12.5 7.5 12.5 7.5-5.5 8-5.5 8 2 12 2 12-2.5 8.5-2.5 8.5 8.5 6.5 8.5 6.5 2 12 2 12 1 13 1 13 7.5 12 7.5 12-13 8.5-13 8.5 4 10 4 10-.5 6.5-.5 6.5-25 15-25 15h2.5 2.5 2.5 2.5 2 2 1.5 1.5l23-12.5 23-12.5 3-10 3-10 6.5-12.5 6.5-12.5" style="fill:#6a6658;stroke:#6a6658"/><path d="m945 287l-38-36-8.5-13.5-8.5-13.5-15.5-8.5-15.5-8.5-.5-1-.5-1 7 12.5 7 12.5 10.5 14.5 10.5 14.5 19.5 14 19.5 14-10.5 19-10.5 19-13.5 16.5-13.5 16.5-11 21.5-11 21.5 21.5-27.5 21.5-27.5 11.5-17.5 11.5-17.5 8.5-12 8.5-12" style="fill:#48443b;stroke:#48443b"/><path d="m942 640l-15-24-1-13-1-13-2-12-2-12-8.5-6.5-8.5-6.5 2.5-8.5 2.5-8.5-2-12-2-12 5.5-8 5.5-8-12.5-7.5-12.5-7.5-6.5-9.5-6.5-9.5-14-6-14-6 1-3 1-3-23.5-1.5-23.5-1.5 12-13.5 12-13.5-.5-1-.5-1-1-1-1-1-.5-1-.5-1-.5-.5-.5-.5-.5-1.5-.5-1.5-1-.5-1-.5-.5-1-.5-1-1.5-1.5-1.5-1.5v-5-5l12-15 12-15 10.5-17 10.5-17-6-18-6-18-12.5-26.5-12.5-26.5 1-1.5 1-1.5 1-.5 1-.5.5-1.5.5-1.5.5-.5.5-.5.5-.5.5-.5.5-1 .5-1 .5-.5.5-.5.5-.5.5-.5.5-.5.5-.5.5-.5.5-.5.5-1 .5-1 .5-.5.5-.5.5-.5.5-.5.5-.5.5-.5 1-.5 1-.5.5-.5.5-.5.5-.5.5-.5.5-.5.5-.5.5-1 .5-1 1.5-1 1.5-1 1-1.5 1-1.5-.5-.5-.5-.5-1.5.5-1.5.5-1.5 1-1.5 1-1.5.5-1.5.5-12.5-10.5-12.5-10.5-22.5-8.5-22.5-8.5-26-5.5-26-5.5-21-5-21-5 9.5-5 9.5-5-31-14.5-31-14.5 10 16.5 10 16.5-32-20-32-20-2-1-2-1h-.5-.5l-24-7-24-7-19.5 2-19.5 2 13.5 10.5 13.5 10.5 17 14 17 14-15.5-7.5-15.5-7.5-20-9-20-9-22 1-22 1-13 17-13 17-17.5 16.5-17.5 16.5v2.5 2.5 2 2 1.5 1.5l.5 2.5.5 2.5v2 2 1.5 1.5l1 1 1 1 11-11 11-11 1 1 1 1 1 1 1 1 1 1.5 1 1.5 1 1 1 1 1 1.5 1 1.5 1.5 1 1.5 1 2.5-11.5 2.5-11.5 2.5-15.5 2.5-15.5 15-12 15-12 21 2 21 2 31.5 21.5 31.5 21.5 12 5.5 12 5.5-12-17-12-17-13-15-13-15 5.5-6.5 5.5-6.5 16.5 3.5 16.5 3.5 17.5 14 17.5 14 23.5 10 23.5 10 39 7.5 39 7.5 23 8 23 8 20 9.5 20 9.5-1 1-1 1h-.5-.5l-.5 2-.5 2-1.5 1.5-1.5 1.5-.5 1.5-.5 1.5-.5 1.5-.5 1.5 1.5-1 1.5-1 1.5-.5 1.5-.5v2.5 2.5h1 1l1-1 1-1 1.5-1 1.5-1 .5.5.5.5-1 1-1 1-.5 1.5-.5 1.5-1 1.5-1 1.5-1.5 1-1.5 1-15 36.5-15 36.5 12.5-6 12.5-6 11 13.5 11 13.5-12.5 16-12.5 16-13-7.5-13-7.5 5 26 5 26 3 16.5 3 16.5-3 4.5-3 4.5 7 13.5 7 13.5-1 .5-1 .5h-1-1l-1 .5-1 .5-.5.5-.5.5-1.5.5-1.5.5-2 .5-2 .5-1 1-1 1-2 1.5-2 1.5 22.5.5 22.5.5 4.5 8.5 4.5 8.5 5.5 9.5 5.5 9.5v11 11l14.5 21.5 14.5 21.5-7 7-7 7-1.5 6-1.5 6v9 9l-.5 13.5-.5 13.5-6 9-6 9 1.5 4.5 1.5 4.5 3.5 4.5 3.5 4.5-2 13-2 13-22 12-22 12h24.5 24.5l25-15 25-15 .5-6.5.5-6.5-4-10-4-10 13-8.5 13-8.5" style="fill:#7a7669;stroke:#7a7669"/><path d="m936 431l-8-18-11.5-5.5-11.5-5.5-10 3-10 3-10.5 3-10.5 3 19 17.5 19 17.5 16.5 15 16.5 15-2.5-12.5-2.5-12.5 3-11.5 3-11.5" style="fill:#48443b;stroke:#48443b"/><path d="m932 287l-39-28-10.5-14.5-10.5-14.5-7-12.5-7-12.5h-1-1l-.5.5-.5.5-1 .5-1 .5-2 1-2 1 12 19 12 19 12.5 15.5 12.5 15.5 9.5 10.5 9.5 10.5-10.5 18.5-10.5 18.5-13 15-13 15-6 16-6 16-9 11-9 11-.5-1-.5-1v-.5-.5l2-.5 2-.5 1.5-.5 1.5-.5 1.5-1 1.5-1 1.5-.5 1.5-.5 1-1.5 1-1.5 1-1 1-1 1-1 1-1 .5.5.5.5 1-1.5 1-1.5.5-1 .5-1 11-21.5 11-21.5 13.5-16.5 13.5-16.5 10.5-19 10.5-19" style="fill:#4c4838;stroke:#4c4838"/><path d="m924 360l-30 8 2.5-4.5 2.5-4.5-14 17-14 17 2.5 4.5 2.5 4.5 15-16 15-16 9-5 9-5" style="fill:#2a2618;stroke:#2a2618"/><path d="m908 200v-2l-1-.5-1-.5v1.5 1.5h-1.5-1.5l-.5-.5-.5-.5h-1-1l-1-.5-1-.5h-1-1-1-1-1-1l-1 .5-1 .5-1.5.5-1.5.5h-1-1l-.5.5-.5.5-.5.5-.5.5h-1.5-1.5-1-1-1-1-1-1l-1-.5-1-.5h-1-1l-1 .5-1 .5 20-1 20-1" style="fill:#48443b;stroke:#48443b"/><path d="m906 200v-3l-1-.5-1-.5-2-.5-2-.5-1.5-.5-1.5-.5-1.5-1-1.5-1-2 .5-2 .5-1-1-1-1h-.5-.5l-25.5-5-25.5-5-25-6-25-6-40-15.5-40-15.5 19.5 10.5 19.5 10.5 24.5 6.5 24.5 6.5 24 7 24 7 25 5 25 5h-1.5-1.5l-1.5.5-1.5.5-2-.5-2-.5-1.5.5-1.5.5-2 .5-2 .5-1 1-1 1-3 .5-3 .5v.5.5h.5.5l1-.5 1-.5h1 1l1 .5 1 .5h1 1 1 1 1 1 1.5 1.5l.5-.5.5-.5.5-.5.5-.5h1 1l1.5-.5 1.5-.5 1-.5 1-.5h1 1 1 1 1 1l1 .5 1 .5h1 1l.5.5.5.5h1.5 1.5" style="fill:#4c4838;stroke:#4c4838"/><path d="m892 563l-29-43v-11-11l-5.5-9.5-5.5-9.5-4.5-8.5-4.5-8.5-22.5-.5-22.5-.5-1 .5-1 .5h-1-1l-1 .5-1 .5-1.5.5-1.5.5-.5.5-.5.5-.5.5-.5.5-.5.5-.5.5v.5.5h1.5 1.5l17.5 2 17.5 2 5.5 8.5 5.5 8.5.5 6.5.5 6.5 7 10 7 10-3.5 6.5-3.5 6.5 14.5 13.5 14.5 13.5-7 7.5-7 7.5-1 9-1 9-4 13.5-4 13.5-.5 12.5-.5 12.5-7 6-7 6 6.5 6.5 6.5 6.5 1 9 1 9-22.5 15-22.5 15h3 3 2 2 2.5 2.5 2 2 1 1l22-12 22-12 2-13 2-13-3.5-4.5-3.5-4.5-1.5-4.5-1.5-4.5 6-9 6-9 .5-13.5.5-13.5v-9-9l1.5-6 1.5-6 7-7 7-7" style="fill:#88847b;stroke:#88847b"/><path d="m892 445l-1-3v5 5l-1.5-.5-1.5-.5h-2-2l-1.5-.5-1.5-.5-2 .5-2 .5-1.5-.5-1.5-.5 1-.5 1-.5 1.5-.5 1.5-.5h2.5 2.5l1.5-.5 1.5-.5 1.5-.5 1.5-.5 1-.5 1-.5" style="fill:#68645a;stroke:#68645a"/><path d="m892 196l-50-10-24-7-24-7-24.5-6.5-24.5-6.5-19.5-10.5-19.5-10.5-21.5-9.5-21.5-9.5h-.5-.5l-1-.5-1-.5-1.5-.5-1.5-.5-1.5-.5-1.5-.5-1.5-1-1.5-1-1.5-.5-1.5-.5-2-.5-2-.5-1-1-1-1-2-.5-2-.5-1-1-1-1-1.5-.5-1.5-.5 1 1.5 1 1.5 31 14.5 31 14.5 20 10 20 10 30 9 30 9 25.5 7.5 25.5 7.5-1.5 1.5-1.5 1.5-1 1-1 1 .5 1 .5 1h2 2l.5.5.5.5 1-.5 1-.5 1.5.5 1.5.5.5-.5.5-.5h1.5 1.5l1.5-.5 1.5-.5 2-.5 2-.5 1.5-.5 1.5-.5v1 1l-1 .5-1 .5-1 .5-1 .5-1.5 1-1.5 1h3 3l3-.5 3-.5 1-1 1-1 2-.5 2-.5 1.5-.5 1.5-.5 2 .5 2 .5 1.5-.5 1.5-.5h1.5 1.5" style="fill:#5a564a;stroke:#5a564a"/><g style="fill:#68645a;stroke:#68645a"><path d="m888 304l-32-41-13.5-16-13.5-16-1 .5-1 .5-1 1.5-1 1.5 12 15 12 15 14.5 21 14.5 21-7.5 16-7.5 16-13.5 15-13.5 15-9.5 14.5-9.5 14.5 1.5 1.5 1.5 1.5 16-9 16-9 1.5-10 1.5-10 9-12 9-12 7.5-17.5 7.5-17.5"/><path d="m887 441h1l-19.5-3.5-19.5-3.5 19 3.5 19 3.5"/></g><path d="m887 191h1l-37.5-8.5-37.5-8.5-23.5-6.5-23.5-6.5-21.5-8.5-21.5-8.5-20.5-9.5-20.5-9.5-20.5-9.5-20.5-9.5-17.5-13-17.5-13 28.5 19.5 28.5 19.5 21.5 9.5 21.5 9.5 40 15.5 40 15.5 25 6 25 6 25.5 5 25.5 5" style="fill:#383428;stroke:#383428"/><path d="m881 56l-16-28-18 3-18 3-7.5 8.5-7.5 8.5-4.5 15.5-4.5 15.5 19.5 9.5 19.5 9.5 12-10.5 12-10.5 4.5-7.5 4.5-7.5 2-4.5 2-4.5" style="fill:#2a2618;stroke:#2a2618"/><path d="m878 307l-29-42-12-15-12-15 12.5 26.5 12.5 26.5 6 18 6 18-10.5 17-10.5 17-12 15-12 15v5 5l9.5-14.5 9.5-14.5 13.5-15 13.5-15 7.5-16 7.5-16" style="fill:#6a6658;stroke:#6a6658"/><path d="m872 562l-29-27 3.5-6.5 3.5-6.5-7-10-7-10-.5-6.5-.5-6.5-5.5-8.5-5.5-8.5-17.5-2-17.5-2 5.5 5.5 5.5 5.5 3.5 6.5 3.5 6.5 6 10 6 10 1 8 1 8 .5 7 .5 7 6.5 10.5 6.5 10.5 1 11 1 11-1 12-1 12-3 12-3 12 5 7 5 7-14.5 7-14.5 7-5 9-5 9 11 5 11 5-27 15.5-27 15.5h3 3 2.5 2.5 2 2 2.5 2.5 2 2 2.5 2.5 2 2 1 1l22.5-15 22.5-15-1-9-1-9-6.5-6.5-6.5-6.5 7-6 7-6 .5-12.5.5-12.5 4-13.5 4-13.5 1-9 1-9 7-7.5 7-7.5" style="fill:#8a8678;stroke:#8a8678"/><path d="m868 197v-2l-1.5.5-1.5.5-2 .5-2 .5-1.5.5-1.5.5h-1.5-1.5l-.5.5-.5.5-1.5-.5-1.5-.5-1 .5-1 .5-.5-.5-.5-.5h-2-2l-.5-1-.5-1-1.5 1.5-1.5 1.5-.5 1.5-.5 1.5 2-.5 2-.5-.5 1.5-.5 1.5v1.5 1.5l1.5-.5 1.5-.5 1.5-1 1.5-1 1.5-.5 1.5-.5.5.5.5.5-1 1.5-1 1.5-1.5 1-1.5 1h1 1l2-1 2-1 1-.5 1-.5.5-.5.5-.5h1 1l.5 1 .5 1 1-2 1-2 1.5-.5 1.5-.5h1.5 1.5v-.5-.5h-3-3l1.5-1 1.5-1 1-.5 1-.5 1-.5 1-.5" style="fill:#68645a;stroke:#68645a"/><path d="m861 413l1-1-2.5.5-2.5.5v-1.5-1.5l1-2 1-2-.5-.5-.5-.5-1 1-1 1-1 1-1 1-1 1.5-1 1.5-1.5.5-1.5.5-1.5 1-1.5 1-1.5.5-1.5.5-2 .5-2 .5v.5.5l.5 1 .5 1 1.5.5 1.5.5 1-1 1-1 .5-1 .5-1 1.5.5 1.5.5 1 1.5 1 1.5-1.5.5-1.5.5 1 .5 1 .5 1.5-.5 1.5-.5 1-1 1-1 1-1.5 1-1.5 1-1 1-1 1-1 1-1" style="fill:#48443b;stroke:#48443b"/><g style="fill:#68645a;stroke:#68645a"><path d="m848 191l-51-15 24 8 24 8v1 1l1.5-1.5 1.5-1.5"/><path d="m845 434h1l-.5-1.5-.5-1.5-1-1-1-1 1-1.5 1-1.5v-2-2h-2-2-1.5-1.5l1 2 1 2-1.5 1-1.5 1-1.5.5-1.5.5-.5 1.5-.5 1.5-1-.5-1-.5-1.5-.5-1.5-.5-2 1-2 1h1.5 1.5l1.5.5 1.5.5 2 .5 2 .5h2 2v1 1l-2.5 1-2.5 1h2.5 2.5l1-1 1-1 1.5-1 1.5-1h1 1"/></g><path d="m845 313l-22-27-12.5 6-12.5 6-.5 1-.5 1-.5 1.5-.5 1.5v2.5 2.5l-.5 1.5-.5 1.5-.5 1.5-.5 1.5v2.5 2.5 2 2l-.5 2-.5 2 .5 1.5.5 1.5 13 7.5 13 7.5 12.5-16 12.5-16" style="fill:#88847b;stroke:#88847b"/><path d="m845 192l-48-16-30-9-30-9-20-10-20-10-9.5 5-9.5 5 21 5 21 5 26 5.5 26 5.5 22.5 8.5 22.5 8.5 12.5 10.5 12.5 10.5v-1.5-1.5l.5-1.5.5-1.5-2 .5-2 .5.5-1.5.5-1.5 1.5-1.5 1.5-1.5 1-1 1-1v-1-1" style="fill:#6a6658;stroke:#6a6658"/><path d="m839 647l-10-14 3-12 3-12 1-12 1-12-1-11-1-11-6.5-10.5-6.5-10.5-.5-7-.5-7-1-8-1-8-6-10-6-10-3.5-6.5-3.5-6.5-5.5-5.5-5.5-5.5-1.5 1-1.5 1-1.5.5-1.5.5-1.5 1-1.5 1-2 1-2 1-.5.5-.5.5-.5 1.5-.5 1.5-1.5 1-1.5 1-1.5.5-1.5.5-1.5 1-1.5 1 5.5-6.5 5.5-6.5 11.5-10.5 11.5-10.5-18-6-18-6 13.5-6.5 13.5-6.5-11.5-14.5-11.5-14.5 4-2 4-2-2-19-2-19-12.5-17.5-12.5-17.5 11.5 12.5 11.5 12.5 10.5 18.5 10.5 18.5.5-11.5.5-11.5 1.5-26.5 1.5-26.5 7.5-22.5 7.5-22.5 1-16 1-16-3-12-3-12-16-11-16-11-19.5-7.5-19.5-7.5-23.5-4.5-23.5-4.5-1.5 7.5-1.5 7.5 16.5 13.5 16.5 13.5 4.5 14.5 4.5 14.5-8.5-7.5-8.5-7.5-16-11-16-11-14-14-14-14-11-2-11-2-1 13-1 13 8 15 8 15 9 17 9 17-15.5-15.5-15.5-15.5-17-13-17-13-16-14-16-14-17.5-11.5-17.5-11.5-18.5-8.5-18.5-8.5-14 3-14 3-9.5 12.5-9.5 12.5-9 13.5-9 13.5.5 1.5.5 1.5.5.5.5.5.5 1.5.5 1.5 1 1.5 1 1.5.5 1.5.5 1.5.5 2 .5 2-.5 1.5-.5 1.5-17.5 6.5-17.5 6.5v3 3l.5 1.5.5 1.5v1.5 1.5l.5 1 .5 1v2 2l.5.5.5.5v1.5 1.5 1.5 1.5l-7.5-8-7.5-8-11.5 9-11.5 9-14.5 3-14.5 3 8.5 15.5 8.5 15.5-8.5 13-8.5 13-11 18-11 18-4 24-4 24-1.5 20.5-1.5 20.5-16 4-16 4-6-12-6-12 6.5-2.5 6.5-2.5 10-9 10-9-7-11-7-11-10.5 5.5-10.5 5.5-9 18-9 18-.5 11.5-.5 11.5 3 16 3 16 2 14 2 14 3 13 3 13 5 9 5 9 14 9 14 9 17.5.5 17.5.5 19.5 4.5 19.5 4.5h13 13l15-5 15-5 17-4.5 17-4.5 10.5 18.5 10.5 18.5-.5-1.5-.5-1.5-1-1.5-1-1.5-.5-2-.5-2-17-34-17-34h-.5-.5l-13.5 6-13.5 6-19.5 1-19.5 1-9.5.5-9.5.5-7-1-7-1-5-7-5-7-8.5-.5-8.5-.5 1.5-18.5 1.5-18.5 5-13 5-13 1.5-15.5 1.5-15.5 3-14 3-14 6-16 6-16 9 2 9 2-6.5-15-6.5-15 13.5 3.5 13.5 3.5-1.5.5-1.5.5-1 1.5-1 1.5v2 2l-2-.5-2-.5-.5 1.5-.5 1.5-.5 2-.5 2 1 1 1 1-.5 1.5-.5 1.5-1 1.5-1 1.5-1 .5-1 .5 14.5-8.5 14.5-8.5-1-2-1-2-.5-1.5-.5-1.5-1.5-1.5-1.5-1.5-11.5-19-11.5-19-6.5-19.5-6.5-19.5 13.5 17.5 13.5 17.5 3.5-1.5 3.5-1.5v-21.5-21.5l11.5 12.5 11.5 12.5 1.5-4.5 1.5-4.5.5-16.5.5-16.5 14.5-.5 14.5-.5 4-1.5 4-1.5 3.5-11.5 3.5-11.5 2-8 2-8 10.5-12.5 10.5-12.5 20 9 20 9-1.5-11.5-1.5-11.5 21.5 8 21.5 8 18 13 18 13 17 14 17 14 15.5 15.5 15.5 15.5 15.5 7.5 15.5 7.5-12.5-18-12.5-18 12 8 12 8 9.5 14.5 9.5 14.5 9 16 9 16 11.5 13.5 11.5 13.5 5.5 14.5 5.5 14.5 5 21 5 21-9 8.5-9 8.5 6.5 14.5 6.5 14.5-11.5 9.5-11.5 9.5-10.5 12.5-10.5 12.5-20 3-20 3-13-8-13-8 2 8.5 2 8.5-7 15-7 15-22.5 20.5-22.5 20.5 4.5 4.5 4.5 4.5.5-7.5.5-7.5 14.5-10.5 14.5-10.5 21.5-8 21.5-8 14-6 14-6 12.5-10.5 12.5-10.5-1 6-1 6 3 2 3 2-.5 8-.5 8 2.5 2.5 2.5 2.5 2.5 4.5 2.5 4.5 23.5 6 23.5 6-12 6-12 6 1.5 3.5 1.5 3.5 5 6 5 6 5 4 5 4-13 11-13 11-3.5 8.5-3.5 8.5 16 4 16 4-19.5 6.5-19.5 6.5-21 8-21 8-24.5.5-24.5.5-23 5-23 5-21 1-21 1-24.5 2.5-24.5 2.5-6.5-4.5-6.5-4.5 19.5-10.5 19.5-10.5 19.5-4.5 19.5-4.5-10 1-10 1-14.5 1.5-14.5 1.5h-17-17l16.5-8.5 16.5-8.5 4-7 4-7-24.5 2.5-24.5 2.5-13-21.5-13-21.5 10 24.5 10 24.5 24.5-3 24.5-3-19.5 6.5-19.5 6.5v1.5 1.5 2 2l.5 2 .5 2 .5 1.5.5 1.5.5 2 .5 2 .5 1.5.5 1.5v2.5 2.5 2 2l.5 1.5.5 1.5-.5 2-.5 2-.5 1.5-.5 1.5-21 4-21 4 17 5 17 5 25-3 25-3h22.5 22.5l-21.5 11-21.5 11h31.5 31.5l19-7.5 19-7.5 19.5.5 19.5.5 12.5-5.5 12.5-5.5 23 .5 23 .5-22 3.5-22 3.5-6.5 8.5-6.5 8.5h32 32l27-15.5 27-15.5-11-5-11-5 5-9 5-9 14.5-7 14.5-7" style="fill:#9a968a;stroke:#9a968a"/><path d="m838 436v-2h-2-2l-2-.5-2-.5-1.5-.5-1.5-.5h-1.5-1.5l-1 .5-1 .5-1 .5-1 .5h-1-1l-1 1-1 1-.5 1-.5 1h1 1l.5.5.5.5h1 1l1.5-.5 1.5-.5 1-.5 1-.5.5-.5.5-.5 1.5-.5 1.5-.5 1 .5 1 .5 1 1 1 1 2.5-1 2.5-1" style="fill:#5a564a;stroke:#5a564a"/><g style="fill:#88847b;stroke:#88847b"><path d="m836 215l-1-1-1.5 1-1.5 1-1 1-1 1h-1-1v-2.5-2.5l-1.5.5-1.5.5-1.5 1-1.5 1 .5-1.5.5-1.5.5-1.5.5-1.5-.5 1-.5 1-.5.5-.5.5-.5.5-.5.5-.5.5-.5.5-.5 1-.5 1-.5.5-.5.5v1 1l.5.5.5.5 1-.5 1-.5.5-.5.5-.5h1 1l.5.5.5.5v1.5 1.5l.5.5.5.5 1 .5 1 .5 1.5-1 1.5-1 1-1.5 1-1.5.5-1.5.5-1.5 1-1 1-1"/><path d="m831 201l-40-19-23-8-23-8 20.5 9.5 20.5 9.5 21.5 9 21.5 9 1-1 1-1"/></g><g style="fill:#8a8678;stroke:#8a8678"><path d="m828 203h1l-21.5-9-21.5-9-20.5-9.5-20.5-9.5-39-7.5-39-7.5 12.5 19.5 12.5 19.5-16-11-16-11-9.5-8.5-9.5-8.5-17-7-17-7-17-9-17-9 3.5 8.5 3.5 8.5 10.5 14.5 10.5 14.5 5 13 5 13 15.5 14.5 15.5 14.5-9-4-9-4-28.5-25-28.5-25h-.5-.5l-18-12.5-18-12.5-20-10.5-20-10.5-19.5 5.5-19.5 5.5-10 18-10 18-3 10-3 10 9-13.5 9-13.5 9.5-12.5 9.5-12.5 14-3 14-3 18.5 8.5 18.5 8.5 17.5 11.5 17.5 11.5 16 14 16 14 17 13 17 13 15.5 15.5 15.5 15.5-9-17-9-17-8-15-8-15 1-13 1-13 11 2 11 2 14 14 14 14 16 11 16 11 8.5 7.5 8.5 7.5-4.5-14.5-4.5-14.5-16.5-13.5-16.5-13.5 1.5-7.5 1.5-7.5 23.5 4.5 23.5 4.5 19.5 7.5 19.5 7.5 16 11 16 11 3 12 3 12-1 16-1 16-7.5 22.5-7.5 22.5-1.5 26.5-1.5 26.5-.5 11.5-.5 11.5-10.5-18.5-10.5-18.5-11.5-12.5-11.5-12.5 12.5 17.5 12.5 17.5 2 19 2 19-4 2-4 2 11.5 14.5 11.5 14.5-13.5 6.5-13.5 6.5 18 6 18 6-11.5 10.5-11.5 10.5-5.5 6.5-5.5 6.5-1.5-.5-1.5-.5-1 .5-1 .5h-1-1-1-1l-.5-.5-.5-.5.5-1 .5-1 .5-1.5.5-1.5h1 1l1-.5 1-.5 1.5-.5 1.5-.5h1 1 1.5 1.5l1-1 1-1h1 1l.5-.5.5-.5 1 1 1 1 2-1 2-1 1.5-1 1.5-1 1.5-.5 1.5-.5 1.5-1 1.5-1h-1.5-1.5v-.5-.5l.5-.5.5-.5.5-.5.5-.5.5-.5.5-.5 1.5-.5 1.5-.5 1-.5 1-.5h1 1l1-.5 1-.5 2-1.5 2-1.5 1-1 1-1 2-.5 2-.5-17.5-6-17.5-6 14.5-9.5 14.5-9.5-8-16-8-16 9-5 9-5-5-26-5-26-.5-1.5-.5-1.5.5-2 .5-2v-2-2-2.5-2.5l.5-1.5.5-1.5.5-1.5.5-1.5v-2.5-2.5l.5-1.5.5-1.5.5-1 .5-1 15-36.5 15-36.5-1-.5-1-.5-.5-.5-.5-.5v-1.5-1.5l-.5-.5-.5-.5h-1-1l-.5.5-.5.5-1 .5-1 .5-.5-.5-.5-.5v-1-1l.5-.5.5-.5.5-1 .5-1 .5-.5.5-.5.5-.5.5-.5.5-.5.5-.5.5-1 .5-1 1.5-1.5 1.5-1.5.5-2 .5-2"/><path d="m824 325l-6-30-9.5 11.5-9.5 11.5 8.5 1.5 8.5 1.5 4 2 4 2"/></g><path d="m819 115l-33-27-11.5-9.5-11.5-9.5-14 5-14 5-.5 14.5-.5 14.5 22.5 6.5 22.5 6.5 18-2.5 18-2.5 2-.5 2-.5" style="fill:#383428;stroke:#383428"/><path d="m818 451l-14-27 3-4.5 3-4.5-3-16.5-3-16.5-9 5-9 5 8 16 8 16-14.5 9.5-14.5 9.5 17.5 6 17.5 6 1.5-.5 1.5-.5.5-.5.5-.5 1-.5 1-.5h1 1l1-.5 1-.5" style="fill:#88847b;stroke:#88847b"/><g style="fill:#aaa698;stroke:#aaa698"><path d="m804 257h-14l-5-18-5-18-9.5-9.5-9.5-9.5-16-12-16-12 5 13 5 13 8 18.5 8 18.5 4 20 4 20 7.5 7.5 7.5 7.5 6-6 6-6 7-13.5 7-13.5"/><path d="m794 560l-47-12-2.5-4.5-2.5-4.5-2.5-2.5-2.5-2.5.5-8 .5-8-3-2-3-2 1-6 1-6-12.5 10.5-12.5 10.5-14 6-14 6-21.5 8-21.5 8-14.5 10.5-14.5 10.5-.5 7.5-.5 7.5-4.5-4.5-4.5-4.5-6 22-6 22-16.5-28.5-16.5-28.5 5.5 25.5 5.5 25.5-20.5-8-20.5-8 3-22 3-22 11 3 11 3-23.5-7-23.5-7-13.5-9-13.5-9 18.5 12.5 18.5 12.5 4 25 4 25-27-12.5-27-12.5.5 2 .5 2 1 1.5 1 1.5.5 1.5.5 1.5 13 21.5 13 21.5 24.5-2.5 24.5-2.5-4 7-4 7-16.5 8.5-16.5 8.5h17 17l14.5-1.5 14.5-1.5 10-1 10-1-19.5 4.5-19.5 4.5-19.5 10.5-19.5 10.5 6.5 4.5 6.5 4.5 24.5-2.5 24.5-2.5 21-1 21-1 23-5 23-5 24.5-.5 24.5-.5 21-8 21-8 19.5-6.5 19.5-6.5-16-4-16-4 3.5-8.5 3.5-8.5 13-11 13-11-5-4-5-4-5-6-5-6-1.5-3.5-1.5-3.5 12-6 12-6"/></g><path d="m777 336l-17-39-8.5-9.5-8.5-9.5 11.5 17.5 11.5 17.5 5.5 11.5 5.5 11.5" style="fill:#8a8678;stroke:#8a8678"/><path d="m775 476l1-1-1-1-1-1-.5.5-.5.5h-1-1l-1 1-1 1h-1.5-1.5-1-1l-1.5.5-1.5.5-1 .5-1 .5h-1-1l-.5 1.5-.5 1.5-.5 1-.5 1 .5.5.5.5h1 1 1 1l1-.5 1-.5 1.5.5 1.5.5 1.5-1 1.5-1 1.5-.5 1.5-.5 1.5-1 1.5-1 .5-1.5.5-1.5" style="fill:#88847b;stroke:#88847b"/><path d="m775 344l-19-41v8 8l9.5 12.5 9.5 12.5" style="fill:#aaa698;stroke:#aaa698"/><path d="m770 105l-31-19 10.5 9.5 10.5 9.5h5 5" style="fill:#48443b;stroke:#48443b"/><g style="fill:#aaa698;stroke:#aaa698"><path d="m769 410l-10-42-5.5-14.5-5.5-14.5-11.5-13.5-11.5-13.5-9-16-9-16-9.5-14.5-9.5-14.5-12-8-12-8 12.5 18 12.5 18-15.5-7.5-15.5-7.5-15.5-15.5-15.5-15.5-17-14-17-14-18-13-18-13-21.5-8-21.5-8 1.5 11.5 1.5 11.5-20-9-20-9-10.5 12.5-10.5 12.5-2 8-2 8-3.5 11.5-3.5 11.5-4 1.5-4 1.5-14.5.5-14.5.5-.5 16.5-.5 16.5-1.5 4.5-1.5 4.5-11.5-12.5-11.5-12.5v21.5 21.5l-3.5 1.5-3.5 1.5-13.5-17.5-13.5-17.5 6.5 19.5 6.5 19.5 11.5 19 11.5 19-10.5-20-10.5-20 4.5-1.5 4.5-1.5 10 20 10 20-2.5-17.5-2.5-17.5 3-19 3-19 11.5 18.5 11.5 18.5 1.5-4.5 1.5-4.5 2.5-6.5 2.5-6.5 1.5-3.5 1.5-3.5 20 10 20 10 1.5-7.5 1.5-7.5-6.5-21.5-6.5-21.5 9.5-4.5 9.5-4.5 7.5-9.5 7.5-9.5 4-6.5 4-6.5 19.5 10.5 19.5 10.5 4.5-1.5 4.5-1.5 2-12 2-12 18.5 10.5 18.5 10.5 16.5 14.5 16.5 14.5 18 13.5 18 13.5 15 16 15 16 12.5 12.5 12.5 12.5 7 15 7 15 6 24.5 6 24.5-5.5 13.5-5.5 13.5-15 5-15 5 12 7 12 7-5 9.5-5 9.5-24.5-1.5-24.5-1.5-20.5-10.5-20.5-10.5-8-2.5-8-2.5 15 10 15 10h-1.5-1.5l-1-1-1-1-1.5-.5-1.5-.5-1.5-.5-1.5-.5-1.5-1-1.5-1-1.5.5-1.5.5-1.5-1-1.5-1-1-1-1-1-1.5-2-1.5-2 12.5 18 12.5 18 9 19.5 9 19.5-14.5 16.5-14.5 16.5 4-18 4-18-10.5 18-10.5 18-9.5 2.5-9.5 2.5-6-15-6-15-11.5 7.5-11.5 7.5-2-10-2-10-14-1-14-1 5 10 5 10 32.5 20.5 32.5 20.5 22.5-20.5 22.5-20.5 7-15 7-15-2-8.5-2-8.5 13 8 13 8 20-3 20-3 10.5-12.5 10.5-12.5 11.5-9.5 11.5-9.5-6.5-14.5-6.5-14.5 9-8.5 9-8.5"/><path d="m761 696l-46-1-12.5 5.5-12.5 5.5-19.5-.5-19.5-.5-19 7.5-19 7.5h29.5 29.5l15-1.5 15-1.5-2 .5-2 .5-.5 1-.5 1h1.5 1.5 2 2l6.5-8.5 6.5-8.5 22-3.5 22-3.5"/></g><path d="m737 393l-12-49-7-15-7-15-12.5-12.5-12.5-12.5-15-16-15-16-18-13.5-18-13.5-16.5-14.5-16.5-14.5-18.5-10.5-18.5-10.5-2 12-2 12-4.5 1.5-4.5 1.5-19.5-10.5-19.5-10.5-4 6.5-4 6.5-7.5 9.5-7.5 9.5-9.5 4.5-9.5 4.5 6.5 21.5 6.5 21.5-1.5 7.5-1.5 7.5-20-10-20-10-1.5 3.5-1.5 3.5-2.5 6.5-2.5 6.5-1.5 4.5-1.5 4.5-11.5-18.5-11.5-18.5-3 19-3 19 2.5 17.5 2.5 17.5-10-20-10-20-4.5 1.5-4.5 1.5 10.5 20 10.5 20 1.5 1.5 1.5 1.5.5 1.5.5 1.5 1 2 1 2 11.5 19 11.5 19 1 29 1 29-2-17-2-17-8.5-18.5-8.5-18.5-10.5 11.5-10.5 11.5-2.5 17.5-2.5 17.5 1.5 11.5 1.5 11.5-3 7-3 7 11 5 11 5 11.5 7.5 11.5 7.5 4.5-1.5 4.5-1.5 8.5 13.5 8.5 13.5 17 34 17 34 27 12.5 27 12.5-4-25-4-25-18.5-12.5-18.5-12.5 13.5 9 13.5 9 23.5 7 23.5 7 1 1.5 1 1.5 16.5 28.5 16.5 28.5 6-22 6-22-32.5-20.5-32.5-20.5-5-10-5-10 14 1 14 1 2 10 2 10 11.5-7.5 11.5-7.5 6 15 6 15 9.5-2.5 9.5-2.5 10.5-18 10.5-18-4 18-4 18 14.5-16.5 14.5-16.5-9-19.5-9-19.5-12.5-18-12.5-18-1-.5-1-.5-.5-1-.5-1-1-2-1-2 8 2.5 8 2.5 20.5 10.5 20.5 10.5 24.5 1.5 24.5 1.5 5-9.5 5-9.5-12-7-12-7 15-5 15-5 5.5-13.5 5.5-13.5" style="fill:#b7b3a7;stroke:#b7b3a7"/><path d="m726 55l-43-39-26.5 1.5-26.5 1.5-25 7-25 7-2 1-2 1-2 .5-2 .5-1.5.5-1.5.5-1.5 1-1.5 1-1.5.5-1.5.5-1.5.5-1.5.5-2 .5-2 .5-1 1-1 1-1.5 1-1.5 1-1.5.5-1.5.5 32.5-6 32.5-6 7.5 5.5 7.5 5.5 26 4 26 4 23 .5 23 .5" style="fill:#383428;stroke:#383428"/><path d="m719 56l-27-23-1.5-6.5-1.5-6.5h-26-26l-2 .5-2 .5 25 14.5 25 14.5 18 3 18 3" style="fill:#48443b;stroke:#48443b"/><path d="m711 367l-8-24-7-15-7-15-11.5-17.5-11.5-17.5-17.5-13.5-17.5-13.5-17.5-12.5-17.5-12.5-7.5 5.5-7.5 5.5 4 18 4 18-14.5-13-14.5-13-13.5-10.5-13.5-10.5-10 6-10 6-10 12-10 12 13 18 13 18-11-9-11-9-14-11-14-11 12 19 12 19 13 18.5 13 18.5 15.5 15.5 15.5 15.5 14.5 16.5 14.5 16.5 16 15 16 15 20 10 20 10 17-2 17-2-14.5-12.5-14.5-12.5-4-14-4-14 17.5 12 17.5 12 7-12 7-12 7-11.5 7-11.5" style="fill:#cac6b8;stroke:#cac6b8"/><path d="m704 484l-42-16-16.5-3.5-16.5-3.5 20 11 20 11 17.5.5 17.5.5" style="fill:#b7b3a7;stroke:#b7b3a7"/><path d="m702 717l-30 3h3 3 2.5 2.5 2 2 2.5 2.5 2 2 .5.5l.5-1 .5-1 2-.5 2-.5" style="fill:#9a968a;stroke:#9a968a"/><g style="fill:#88847b;stroke:#88847b"><path d="m692 190l-25-39-23.5-10-23.5-10-17.5-14-17.5-14-16.5-3.5-16.5-3.5-5.5 6.5-5.5 6.5 13 15 13 15 12 17 12 17-12-5.5-12-5.5 28.5 25 28.5 25 9 4 9 4-15.5-14.5-15.5-14.5-5-13-5-13-10.5-14.5-10.5-14.5-3.5-8.5-3.5-8.5 17 9 17 9 17 7 17 7 9.5 8.5 9.5 8.5 16 11 16 11"/><path d="m691 143l-38-20 10 10 10 10h9 9"/></g><path d="m682 51l1-1-25-14.5-25-14.5-1 .5-1 .5-1 1-1 1h-1-1-1-1-1-1v1.5 1.5h1 1l.5.5.5.5.5-.5.5-.5h1.5 1.5l.5.5.5.5.5-.5.5-.5.5-.5.5-.5 1 .5 1 .5 1.5.5 1.5.5-.5 1.5-.5 1.5-1.5.5-1.5.5-1-.5-1-.5-.5.5-.5.5h-1-1l-.5.5-.5.5h-1.5-1.5l-1.5.5-1.5.5-.5.5-.5.5v1 1l.5.5.5.5.5 1 .5 1h1.5 1.5l19.5-1.5 19.5-1.5-19 1.5-19 1.5v.5.5h1.5 1.5 1.5 1.5l2 .5 2 .5 1.5.5 1.5.5 1.5 1 1.5 1h2 2l2 .5 2 .5 1.5-.5 1.5-.5 1.5.5 1.5.5 1.5 1 1.5 1h1.5 1.5l-1-.5-1-.5.5-1.5.5-1.5 1-1 1-1 1.5-.5 1.5-.5 2 .5 2 .5h1 1l1 1.5 1 1.5 1 1 1 1v1.5 1.5l-1 .5-1 .5-1.5-1-1.5-1h-1.5-1.5l1 .5 1 .5 1 .5 1 .5.5.5.5.5h1.5 1.5l1.5.5 1.5.5 1-1 1-1" style="fill:#4c4838;stroke:#4c4838"/><path d="m679 514v-2h-2-2l-.5 2-.5 2-1 1-1 1-.5 2-.5 2-.5 1.5-.5 1.5 2-.5 2-.5 1-1 1-1 1-1 1-1 .5-2 .5-2v-1-1" style="fill:#8a8678;stroke:#8a8678"/><path d="m679 53h1l-1.5-.5-1.5-.5h-1.5-1.5l-.5-.5-.5-.5-1-.5-1-.5-1-.5-1-.5-3-.5-3-.5h-1.5-1.5l-1.5-1-1.5-1-1.5-.5-1.5-.5-1.5.5-1.5.5-2-.5-2-.5h-2-2l-1.5-1-1.5-1-1.5-.5-1.5-.5-2-.5-2-.5h-1.5-1.5-1.5-1.5l26 6 26 6" style="fill:#48443b;stroke:#48443b"/><g style="fill:#5a564a;stroke:#5a564a"><path d="m677 50v-3l-1-1-1-1-1-1.5-1-1.5h-1-1l-2-.5-2-.5-1.5.5-1.5.5-1 1-1 1-.5 1.5-.5 1.5 1 .5 1 .5 3 .5 3 .5h1.5 1.5l1.5 1 1.5 1 1-.5 1-.5"/><path d="m665 37l-39 3h.5.5l19-1.5 19-1.5"/></g><path d="m662 119h1l-28.5-19.5-28.5-19.5-1-.5-1-.5-.5-.5-.5-.5-.5-.5-.5-.5v-1-1l-1-1-1-1-.5-1-.5-1-.5-.5-.5-.5-1-1-1-1v-1.5-1.5h-1-1v-1-1l-.5-.5-.5-.5-1-.5-1-.5-.5-1.5-.5-1.5h-.5-.5l-1-.5-1-.5-.5.5-.5.5-21 6.5-21 6.5h-23-23l-39 20.5-39 20.5 18-12.5 18-12.5 22-7 22-7 23 4 23 4 14-5 14-5 29.5 17.5 29.5 17.5 1.5.5 1.5.5 1 1 1 1 2 .5 2 .5 1 1 1 1 2 .5 2 .5 1.5.5 1.5.5 1.5 1 1.5 1 1.5.5 1.5.5 1.5.5 1.5.5 1 .5 1 .5" style="fill:#4c4838;stroke:#4c4838"/><path d="m661 331l-13-33-14-13-14-13-3 12-3 12 4 13 4 13-8.5 4.5-8.5 4.5 18.5 11.5 18.5 11.5 2-8 2-8 7.5-3.5 7.5-3.5" style="fill:#d3cfc3;stroke:#d3cfc3"/><path d="m655 142l-20-33-1-1.5-1-1.5h-.5-.5l-1.5-1-1.5-1-1.5-1-1.5-1-2-1-2-1h-.5-.5l-15 1-15 1 32 20 32 20" style="fill:#6a6658;stroke:#6a6658"/><path d="m651 600l-26-2-6 5-6 5 19-4 19-4" style="fill:#b7b3a7;stroke:#b7b3a7"/><path d="m637 498l-20-38-13-18-13-18-13.5-17.5-13.5-17.5-14.5-16.5-14.5-16.5-15-16-15-16-15.5-15.5-15.5-15.5-15-3-15-3 2 8.5 2 8.5 1 13 1 13-8-5-8-5 11 15 11 15-4.5-.5-4.5-.5-12-19-12-19-11-9-11-9-3 12-3 12 7.5 24 7.5 24 .5.5.5.5-1.5-22-1.5-22 6.5 6 6.5 6 12.5 9.5 12.5 9.5 12.5 18.5 12.5 18.5 14 41 14 41h-8.5-8.5l2 15 2 15-14.5-7.5-14.5-7.5-9-21-9-21-11-29.5-11-29.5v28.5 28.5l5 23.5 5 23.5 10 17 10 17 5-8 5-8-8.5-22.5-8.5-22.5 4.5 8.5 4.5 8.5 12 19 12 19 17 14 17 14 6.5-11.5 6.5-11.5-22.5-5-22.5-5 16.5.5 16.5.5-7-12-7-12 17 9 17 9 6-3 6-3-16-12-16-12 5.5 2.5 5.5 2.5 21.5 8.5 21.5 8.5 12 18.5 12 18.5 18-12 18-12-21-5-21-5-7.5-20.5-7.5-20.5 5-3 5-3 16.5 8.5 16.5 8.5 14 17 14 17 .5-4.5.5-4.5" style="fill:#cac6b8;stroke:#cac6b8"/><path d="m637 31l1-3-1.5-.5-1.5-.5-1-.5-1-.5-.5.5-.5.5-.5.5-.5.5-.5-.5-.5-.5h-1.5-1.5l-.5.5-.5.5-.5-.5-.5-.5h-1-1v-1.5-1.5h1 1 1 1 1 1l1-1 1-1 1-.5 1-.5-19 7-19 7 16 3 16 3v-.5-.5h-.5-.5-1.5-1.5l-.5-1-.5-1-.5-.5-.5-.5v-1-1l.5-.5.5-.5 1.5-.5 1.5-.5h1.5 1.5l.5-.5.5-.5h1 1l.5-.5.5-.5 1 .5 1 .5 1.5-.5 1.5-.5" style="fill:#48443b;stroke:#48443b"/><path d="m634 454l-30-20 1 2 1 2 .5 1 .5 1 1 .5 1 .5 1.5 2 1.5 2 1 1 1 1 1.5 1 1.5 1 1.5-.5 1.5-.5 1.5 1 1.5 1 1.5.5 1.5.5 1.5.5 1.5.5 1 1 1 1h1.5 1.5" style="fill:#9a968a;stroke:#9a968a"/><path d="m632 106h1l-29.5-17.5-29.5-17.5-14 5-14 5-23-4-23-4-22 7-22 7-18 12.5-18 12.5-13 21-13 21 1.5.5 1.5.5 2-.5 2-.5 1-1 1-1 1 1.5 1 1.5h2 2v1 1l-.5 1-.5 1-.5.5-.5.5-1 .5-1 .5-1 1-1 1h-1-1l-1-.5-1-.5-1-1-1-1-.5-.5-.5-.5-1-.5-1-.5-1-1-1-1-.5.5-.5.5-1-.5-1-.5-1 .5-1 .5-.5 1-.5 1-.5.5-.5.5-.5.5-.5.5-.5 1-.5 1-1 1-1 1v1 1l-.5.5-.5.5v1 1 1.5 1.5l-.5.5-.5.5-.5.5-.5.5-.5-.5-.5-.5-1-.5-1-.5-.5-.5-.5-.5h-1-1l-.5.5-.5.5-.5 1-.5 1-.5 1-.5 1-.5 1-.5 1-15.5 7.5-15.5 7.5-.5 1-.5 1-.5 1.5-.5 1.5-.5 2-.5 2v2 2 2 2l.5 2 .5 2-.5 2-.5 2h-.5-.5l-1-.5-1-.5-1-.5-1-.5-.5-.5-.5-.5-.5-.5-.5-.5-.5-.5-.5-.5-.5-1-.5-1-.5-.5-.5-.5-.5-.5-.5-.5v-1-1l-.5-.5-.5-.5-.5-.5-.5-.5-1-.5-1-.5-.5.5-.5.5h-1-1l-.5.5-.5.5-1 1.5-1 1.5v2 2l-.5 2-.5 2v1 1 2 2l.5 2 .5 2 1 1 1 1 .5 1 .5 1-.5-1.5-.5-1.5v-1-1l-.5-1-.5-1v-1-1l-.5-.5-.5-.5v-1-1l.5-1 .5-1 .5-.5.5-.5.5-.5.5-.5v-1-1l1-.5 1-.5 1.5-.5 1.5-.5.5-.5.5-.5.5.5.5.5.5 1 .5 1 1 1 1 1 1 1 1 1 1 1 1 1 1.5.5 1.5.5 22.5-20 22.5-20 .5.5.5.5 15.5-11 15.5-11 5.5-20.5 5.5-20.5 18-13 18-13 17.5-5.5 17.5-5.5 26 1.5 26 1.5h1.5 1.5l1.5 1 1.5 1 1.5 1 1.5 1h1.5 1.5l1-1 1-1h1.5 1.5 2 2 2.5 2.5l1 1 1 1 1.5 1 1.5 1 1 1 1 1 1 .5 1 .5 2 1 2 1 2 1.5 2 1.5-2.5-14.5-2.5-14.5 20 15 20 15 2 1 2 1 1.5 1 1.5 1 1.5 1 1.5 1" style="fill:#5a564a;stroke:#5a564a"/><path d="m628 412l-19-39-12.5-18.5-12.5-18.5-12.5-13.5-12.5-13.5 11 5 11 5-5.5-11.5-5.5-11.5-13-9-13-9-13.5 5.5-13.5 5.5 15 16.5 15 16.5 16 15 16 15 9.5 17.5 9.5 17.5 15 12.5 15 12.5" style="fill:#d3cfc3;stroke:#d3cfc3"/><path d="m621 100h1l-20-15-20-15 2.5 14.5 2.5 14.5v.5.5l2 1 2 1 15-1 15-1" style="fill:#68645a;stroke:#68645a"/><path d="m612 22l-13-22h-31-31-31-31-31.5-31.5-31-31-31-31-31-31-31-31-31-31-31-31-20-20v11 11 31.5 31.5 31 31 31 31 31 31 31 31 31 31 31 31 31 31 31.5 31.5 31 31 31 31 7 7h24 24 31 31 31 31 15 15l-10-9.5-10-9.5-16-10-16-10-7-10-7-10-9-13-9-13-8-13-8-13-5.5-6.5-5.5-6.5-3.5-4.5-3.5-4.5-6-4-6-4-5 2-5 2 5.5-11.5 5.5-11.5-10-7-10-7-4.5-9.5-4.5-9.5-1.5-17-1.5-17v-6-6l8 13.5 8 13.5h-2.5-2.5l-1 1-1 1-.5.5-.5.5-1 .5-1 .5-1 1-1 1-1 1.5-1 1.5-1 1-1 1-1 1-1 1v1 1h.5.5l1.5.5 1.5.5.5 1.5.5 1.5 11.5-9.5 11.5-9.5-6-16-6-16-3.5-13.5-3.5-13.5-3-14-3-14-2-5-2-5 .5-9.5.5-9.5 1-10 1-10 1.5-5.5 1.5-5.5 3-12 3-12v-9-9l4.5-9.5 4.5-9.5 6 4 6 4 5.5-13.5 5.5-13.5 18-13 18-13 23-5 23-5 24 1 24 1 21 3 21 3 21-9.5 21-9.5-7.5-12.5-7.5-12.5-26.5-3.5-26.5-3.5-24-5-24-5 .5-8.5.5-8.5 14-6 14-6 3-10 3-10-1-6-1-6 13.5-11 13.5-11 27-3 27-3-14.5-4.5-14.5-4.5 11.5-7.5 11.5-7.5-.5-8.5-.5-8.5 6.5-10.5 6.5-10.5 14.5 10.5 14.5 10.5 18-4 18-4 24.5 4 24.5 4 13.5 4.5 13.5 4.5-4 6-4 6 22-9 22-9 27-2 27-2 19-8 19-8-10.5 1-10.5 1 1.5-.5 1.5-.5 1.5-1 1.5-1 1-1 1-1 2-.5 2-.5 1.5-.5 1.5-.5 1.5-.5 1.5-.5 1.5-1 1.5-1 1.5-.5 1.5-.5 2-.5 2-.5 2-1 2-1 1-.5 1-.5 1.5-.5 1.5-.5 1.5-.5 1.5-.5 2-.5 2-.5 1.5-.5 1.5-.5 2-.5 2-.5 1.5-.5 1.5-.5 1.5-1 1.5-1 1.5-.5 1.5-.5 2-.5 2-.5" style="fill:#171307;stroke:#171307"/><path d="m593 698h-45l-25 3-25 3-17-5-17-5 21-4 21-4-21 3-21 3-.5 7.5-.5 7.5 42-1.5 42-1.5-18 8-18 8h3.5 3.5 2 2 2.5 2.5 2 2 2.5 2.5 2 2 2 2 2.5 2.5.5.5l21.5-11 21.5-11" style="fill:#8a8678;stroke:#8a8678"/><path d="m589 442l-19-37-13.5-16.5-13.5-16.5-15-16-15-16-15.5-15.5-15.5-15.5-15-9-15-9 9 12 9 12-5.5 9.5-5.5 9.5 5 10.5 5 10.5 3 15 3 15 8.5 22.5 8.5 22.5 11 20 11 20 20 9 20 9-3.5-15.5-3.5-15.5-8-23-8-23 17 11 17 11 12 4.5 12 4.5" style="fill:#d3cfc3;stroke:#d3cfc3"/><path d="m589 58h1l-29.5 4-29.5 4-27 1-27 1-21 9-21 9-13 18-13 18-12-3-12-3-20.5-7.5-20.5-7.5 9.5-4.5 9.5-4.5 21.5 9.5 21.5 9.5 9.5-17.5 9.5-17.5-19.5-10.5-19.5-10.5 1 17 1 17-9.5-11.5-9.5-11.5-18.5 3.5-18.5 3.5-8.5 3.5-8.5 3.5 1 11 1 11-10 5-10 5-19 2-19 2 9 6 9 6-1.5 5.5-1.5 5.5 7 4 7 4-11 6-11 6-9.5.5-9.5.5-17.5 9.5-17.5 9.5 14.5 8.5 14.5 8.5 12-6 12-6-4 11-4 11 24.5-3.5 24.5-3.5 18-12.5 18-12.5-1.5 1-1.5 1-21-1-21-1-6.5-6.5-6.5-6.5 21-7 21-7 13-2 13-2 5-7 5-7 17 4 17 4-.5 1-.5 1-.5 1-.5 1-1 1-1 1-2 .5-2 .5-1.5.5-1.5.5-1 .5-1 .5-9 11-9 11-17 13-17 13-5.5-3.5-5.5-3.5-4.5 21.5-4.5 21.5-17 13.5-17 13.5-19.5 9.5-19.5 9.5-16.5-1.5-16.5-1.5-14.5-4.5-14.5-4.5h-21-21l-18 10-18 10-6.5 19.5-6.5 19.5 6 13.5 6 13.5 14-2 14-2-2 13-2 13-7 15-7 15-.5 22.5-.5 22.5 2 13 2 13 4.5 19.5 4.5 19.5 9 21.5 9 21.5-6.5-4.5-6.5-4.5-8.5-17.5-8.5-17.5-2.5.5-2.5.5-.5 15.5-.5 15.5 4.5 14.5 4.5 14.5 10 1.5 10 1.5 3 11 3 11 6 14 6 14 1.5-11.5 1.5-11.5-5.5-18.5-5.5-18.5 6 11 6 11 12 19.5 12 19.5 12.5 17.5 12.5 17.5 13 10 13 10 10 6.5 10 6.5 12.5 13 12.5 13h31.5 31.5 8.5 8.5l17-14.5 17-14.5-4.5.5-4.5.5-19.5 11-19.5 11-17-1-17-1-5.5-10.5-5.5-10.5-.5-9.5-.5-9.5-19-3-19-3-17.5-8.5-17.5-8.5-10.5-12.5-10.5-12.5-11.5-17.5-11.5-17.5-11.5-19-11.5-19-8.5-21.5-8.5-21.5-6-21-6-21 1-19 1-19 5-19 5-19 11-18 11-18 11.5-11.5 11.5-11.5 18-13 18-13 18.5-10 18.5-10 17.5-11.5 17.5-11.5 16-31 16-31 1 1.5 1 1.5 1 1.5 1 1.5 1 1 1 1 1 2 1 2 12.5-17 12.5-17 17.5-12 17.5-12 12.5-18.5 12.5-18.5 15.5-15.5 15.5-15.5 22.5-8.5 22.5-8.5 26.5.5 26.5.5 22.5-6.5 22.5-6.5 1 .5 1 .5" style="fill:#383428;stroke:#383428"/><path d="m588 397l-16-36-15-16-15-16-16-15-16-15 2 7 2 7 11 17 11 17 16 15 16 15 10 10 10 10" style="fill:#d3cfc3;stroke:#d3cfc3"/><path d="m586 100h1v-.5-.5l-2-1.5-2-1.5-2-1-2-1h-.5-.5l-1.5-.5-1.5-.5-.5-.5-.5-.5-.5-.5-.5-.5h-1-1-1.5-1.5-1-1-1-1l-.5.5-.5.5-1-.5-1-.5h-2-2-1-1l-1-1-1-1-1.5-1-1.5-1-1.5-1-1.5-1h-1.5-1.5-.5-.5l-23 .5-23 .5 1.5 7.5 1.5 7.5-13.5-1.5-13.5-1.5-21 7-21 7-8 21-8 21-15.5 10.5-15.5 10.5 17.5-16.5 17.5-16.5 13-17 13-17 22-1 22-1 20 9 20 9 15.5 7.5 15.5 7.5-17-14-17-14-13.5-10.5-13.5-10.5 19.5-2 19.5-2 24 7 24 7" style="fill:#6a6658;stroke:#6a6658"/><path d="m586 58l1-1-22.5 6.5-22.5 6.5-26.5-.5-26.5-.5-22.5 8.5-22.5 8.5-15.5 15.5-15.5 15.5-12.5 18.5-12.5 18.5-17.5 12-17.5 12-12.5 17-12.5 17v.5.5l1 1 1 1 1 1 1 1 1 1 1 1 .5-2 .5-2-.5-2-.5-2v-2-2-2-2l.5-2 .5-2 .5-1.5.5-1.5.5-1 .5-1 16-8.5 16-8.5.5-1 .5-1 .5-1 .5-1 .5-.5.5-.5h1 1l.5.5.5.5 1 .5 1 .5.5.5.5.5.5-.5.5-.5.5-.5.5-.5v-1.5-1.5-1-1l.5-.5.5-.5v-1-1l1-1 1-1 .5-1 .5-1 .5-.5.5-.5.5-.5.5-.5.5-1 .5-1 1-1 1-1 2.5-.5 2.5-.5 13-21 13-21 39-20.5 39-20.5h23 23l21-6.5 21-6.5" style="fill:#48443b;stroke:#48443b"/><path d="m578 94h1l-1-.5-1-.5-1-1-1-1-1.5-1-1.5-1-1-1-1-1h-2.5-2.5-2-2-1.5-1.5l-1 1-1 1h-1.5-1.5l1 1 1 1h1 1 2 2l1 .5 1 .5.5-.5.5-.5h1 1 1 1 1.5 1.5 1 1l.5.5.5.5.5.5.5.5 1.5.5 1.5.5" style="fill:#68645a;stroke:#68645a"/><path d="m570 311l-16-22-3 4-3 4 11 7 11 7" style="fill:#cac6b8;stroke:#cac6b8"/><path d="m566 162h1l-31.5-21.5-31.5-21.5-21-2-21-2-15 12-15 12-2.5 15.5-2.5 15.5-2.5 11.5-2.5 11.5 1 1 1 1 1 1 1 1 1.5.5 1.5.5.5-2 .5-2-1-1-1-1v-1-1l-.5-1.5-.5-1.5-.5-.5-.5-.5-.5-1.5-.5-1.5 3-10 3-10 10-18 10-18 19.5-5.5 19.5-5.5 20 10.5 20 10.5 18 12.5 18 12.5" style="fill:#88847b;stroke:#88847b"/><path d="m565 616l-11-51-1-1.5-1-1.5-11-3-11-3-3 22-3 22 20.5 8 20.5 8" style="fill:#9a968a;stroke:#9a968a"/><path d="m547 704l-84 3 .5-7.5.5-7.5 21-3 21-3 .5-1.5.5-1.5.5-2 .5-2-.5-1.5-.5-1.5v-2-2-2.5-2.5l-.5-1.5-.5-1.5-.5-2-.5-2-.5-1.5-.5-1.5-.5-2-.5-2v-2-2-1.5-1.5l-5-3.5-5-3.5-10-24.5-10-24.5-10.5-18.5-10.5-18.5-.5.5-.5.5-14 9.5-14 9.5-19.5 6.5-19.5 6.5h-20-20-20-20l-11-7-11-7-11-6-11-6-11.5-14.5-11.5-14.5-6-15.5-6-15.5 1.5-18.5 1.5-18.5-1-14-1-14-1-12-1-12 9-16 9-16 16.5-12.5 16.5-12.5 11.5-6.5 11.5-6.5 12.5-16.5 12.5-16.5 13-14 13-14-8.5-15.5-8.5-15.5 4.5-9.5 4.5-9.5-8 7-8 7 .5 1 .5 1 1 .5 1 .5v1 1l1 .5 1 .5.5 1.5.5 1.5.5 1 .5 1-1 17.5-1 17.5-12.5 16-12.5 16-16 11-16 11-13 11.5-13 11.5-13.5 12.5-13.5 12.5-6.5 18.5-6.5 18.5 4.5 20.5 4.5 20.5.5 20.5.5 20.5 10 18 10 18 11.5 13.5 11.5 13.5 14 9 14 9 18.5 1 18.5 1 15 1 15 1 22.5-2.5 22.5-2.5 16.5-8.5 16.5-8.5 15.5 3 15.5 3 9 17.5 9 17.5 8.5 15.5 8.5 15.5-7 3-7 3 9.5 4.5 9.5 4.5-11.5 11.5-11.5 11.5-20.5 8.5-20.5 8.5 9.5 4.5 9.5 4.5h35.5 35.5l-1 .5-1 .5h-1-1l-.5-1-.5-1-1 1-1 1-1 1.5-1 1.5-1.5.5-1.5.5-2 .5-2 .5-1.5.5-1.5.5-1.5.5-1.5.5-2 .5-2 .5-1 .5-1 .5h3 3 1.5 1.5l18-8 18-8" style="fill:#88847b;stroke:#88847b"/><path d="m543 85h1l-26-1.5-26-1.5-17.5 5.5-17.5 5.5-18 13-18 13-5.5 20.5-5.5 20.5-15.5 11-15.5 11 .5 1.5.5 1.5 2 1 2 1v-1.5-1.5-2-2-2.5-2.5l15.5-10.5 15.5-10.5 8-21 8-21 21-7 21-7 13.5 1.5 13.5 1.5-1.5-7.5-1.5-7.5 23-.5 23-.5" style="fill:#68645a;stroke:#68645a"/><path d="m542 633l-49 6 5 3.5 5 3.5 19.5-6.5 19.5-6.5" style="fill:#8a8678;stroke:#8a8678"/><path d="m530 710h-71l-9.5-4.5-9.5-4.5 20.5-8.5 20.5-8.5 11.5-11.5 11.5-11.5-9.5-4.5-9.5-4.5 7-3 7-3-8.5-15.5-8.5-15.5v2 2l-.5 1.5-.5 1.5-20.5 16-20.5 16-.5.5-.5.5-7 10-7 10 21.5 5.5 21.5 5.5-34 17-34 17h30.5 30.5 20.5 20.5l1-.5 1-.5 2-.5 2-.5 1.5-.5 1.5-.5 1.5-.5 1.5-.5 2-.5 2-.5 1.5-.5 1.5-.5 1-1.5 1-1.5 1-1 1-1 .5 1 .5 1h1 1l1-.5 1-.5" style="fill:#7a7669;stroke:#7a7669"/><path d="m499 472l-28-82-12.5-18.5-12.5-18.5-12.5-9.5-12.5-9.5-6.5-6-6.5-6 1.5 22 1.5 22 1 1.5 1 1.5.5 2 .5 2 .5 1.5.5 1.5.5 2 .5 2 .5 1.5.5 1.5v1.5 1.5l11 29.5 11 29.5 9 21 9 21 14.5 7.5 14.5 7.5-2-15-2-15h8.5 8.5" style="fill:#d3cfc3;stroke:#d3cfc3"/><path d="m481 622l1-3h-.5-.5-.5-.5l-1.5 1-1.5 1-1.5.5-1.5.5-1.5 1-1.5 1-1 1-1 1-2.5 1-2.5 1-1.5 1-1.5 1-1 1.5-1 1.5-.5.5-.5.5-.5 1-.5 1-1 1-1 1-1 1-1 1-1 1-1 1v1 1l-.5 1-.5 1-1 1-1 1h-1-1l-.5 1-.5 1-1.5.5-1.5.5-1 1.5-1 1.5 20.5-16 20.5-16" style="fill:#6a6658;stroke:#6a6658"/><path d="m481 619h1v-2-2l-9-17.5-9-17.5h-.5-.5l-.5-.5-.5-.5.5 2 .5 2 .5.5.5.5 1 .5 1 .5v1.5 1.5l-14.5 12-14.5 12-13 10.5-13 10.5-11-.5-11-.5h-14-14l-17-3-17-3-21-1-21-1-14-8-14-8-16-10-16-10-10-15-10-15-7-17-7-17-2-19.5-2-19.5-6-20-6-20 4-19 4-19 7.5-15.5 7.5-15.5 13-12 13-12 14.5-10.5 14.5-10.5 18-11 18-11 21.5-26 21.5-26v-1-1l-.5-1-.5-1-.5-1.5-.5-1.5-1-.5-1-.5v-1-1l-1-.5-1-.5-.5-1-.5-1-.5-1-.5-1-.5-.5-.5-.5-.5-.5-.5-.5v-1-1l-.5-1-.5-1-.5-.5-.5-.5-.5-.5-.5-.5v-1-1l-.5-1.5-.5-1.5-.5-1-.5-1-.5-.5-.5-.5v-1-1l-.5-.5-.5-.5v-1.5-1.5l.5-.5.5-.5.5-.5.5-.5.5-.5.5-.5.5-1 .5-1h1 1l1.5-.5 1.5-.5-.5-1-.5-1-.5-.5-.5-.5-.5.5-.5.5-1.5.5-1.5.5-1 .5-1 .5v1 1l-.5.5-.5.5-.5.5-.5.5-.5 1-.5 1v1 1l.5.5.5.5v1 1l.5 1 .5 1v1 1l.5 1.5.5 1.5 1 1.5 1 1.5.5.5.5.5v1 1l.5 1 .5 1-5.5 17-5.5 17-13.5 13.5-13.5 13.5-17.5 12.5-17.5 12.5-17 11-17 11-12.5 11.5-12.5 11.5-9 17-9 17-4 19-4 19 6 18 6 18 3 16 3 16 5.5 20.5 5.5 20.5 11 17 11 17 12.5 13.5 12.5 13.5 18.5 7.5 18.5 7.5 18.5 2.5 18.5 2.5 18 1 18 1 18.5 9.5 18.5 9.5 19.5-6.5 19.5-6.5 27-17.5 27-17.5.5 1.5.5 1.5-.5 1.5-.5 1.5-.5 1-.5 1h-1-1l-.5 1-.5 1-.5.5-.5.5v1 1l-.5.5-.5.5-.5 1-.5 1-1 1-1 1-.5.5-.5.5-1 .5-1 .5-1 1-1 1 2.5-1 2.5-1 1-1 1-1 1.5-1 1.5-1 1.5-.5 1.5-.5 1.5-1 1.5-1h.5.5" style="fill:#68645a;stroke:#68645a"/><path d="m478 612l1-3-.5-1.5-.5-1.5-.5 2-.5 2-14 13.5-14 13.5-16.5 14-16.5 14-16 15-16 15-.5.5-.5.5-1 1-1 1-.5.5-.5.5-.5 1-.5 1-1 1-1 1-.5.5-.5.5-1 .5-1 .5-1 1-1 1-.5.5-.5.5-.5.5-.5.5h-1-1l-.5 1-.5 1v1 1h-1-1l-.5.5-.5.5-1 .5-1 .5-1 1-1 1-.5 1.5-.5 1.5h2.5 2.5 2 2 2.5 2.5 2 2l10.5-13.5 10.5-13.5 9-13 9-13 21.5-17 21.5-17 1-1.5 1-1.5 1.5-1 1.5-1 1-1 1-1 1-.5 1-.5.5-.5.5-.5 1-1 1-1 .5-1 .5-1 .5-.5.5-.5v-1-1l.5-.5.5-.5.5-1 .5-1h1 1l.5-1 .5-1" style="fill:#5a564a;stroke:#5a564a"/><path d="m477 610l1-4h-.5-.5l-16 14-16 14-17.5 13.5-17.5 13.5-20 11.5-20 11.5-12-6-12-6-11.5-9.5-11.5-9.5-14.5-2.5-14.5-2.5-20-2-20-2-17-11-17-11-12-15-12-15-10.5-16.5-10.5-16.5-7.5-20-7.5-20-4-20-4-20-1.5-18.5-1.5-18.5 3.5-14.5 3.5-14.5 5-18 5-18 12.5-15.5 12.5-15.5 15.5-12.5 15.5-12.5 15.5-8.5 15.5-8.5 17.5-14 17.5-14 16-14 16-14-16 10-16 10-17 13-17 13-19 9-19 9-15 14-15 14-13 16-13 16-8 16-8 16-4 15-4 15 .5 17.5.5 17.5 4.5 17.5 4.5 17.5 5.5 19.5 5.5 19.5 8.5 16.5 8.5 16.5 11 16 11 16 14 14 14 14 13.5 7.5 13.5 7.5 18 4 18 4 16.5 1.5 16.5 1.5 1.5 14.5 1.5 14.5 17.5 2.5 17.5 2.5 19.5-10.5 19.5-10.5 26-19.5 26-19.5v.5.5l14-13.5 14-13.5" style="fill:#4c4838;stroke:#4c4838"/><path d="m477 606h1l-27 17.5-27 17.5-19.5 6.5-19.5 6.5-18.5-9.5-18.5-9.5-18-1-18-1-18.5-2.5-18.5-2.5-18.5-7.5-18.5-7.5-12.5-13.5-12.5-13.5-11-17-11-17-5.5-20.5-5.5-20.5-3-16-3-16-6-18-6-18 4-19 4-19 9-17 9-17 12.5-11.5 12.5-11.5 17-11 17-11 17.5-12.5 17.5-12.5 13.5-13.5 13.5-13.5 5.5-17 5.5-17 .5 1.5.5 1.5v1 1l-.5 1.5-.5 1.5-16 14-16 14-17.5 14-17.5 14-15.5 8.5-15.5 8.5-15.5 12.5-15.5 12.5-12.5 15.5-12.5 15.5-5 18-5 18-3.5 14.5-3.5 14.5 1.5 18.5 1.5 18.5 4 20 4 20 7.5 20 7.5 20 10.5 16.5 10.5 16.5 12 15 12 15 17 11 17 11 20 2 20 2 14.5 2.5 14.5 2.5 11.5 9.5 11.5 9.5 12 6 12 6 20-11.5 20-11.5 17.5-13.5 17.5-13.5 16-14 16-14" style="fill:#5a564a;stroke:#5a564a"/><g style="fill:#6a6658;stroke:#6a6658"><path d="m468 686l-43-11-6 10.5-6 10.5 2.5 1.5 2.5 1.5 10-2 10-2-21 12.5-21 12.5h2 2l34-17 34-17"/><path d="m466 588v-3l-1-.5-1-.5-.5-.5-.5-.5-.5-2-.5-2-8 12-8 12-14 6-14 6h-16.5-16.5l-20.5-.5-20.5-.5-18 1-18 1-21.5-4.5-21.5-4.5-14.5-10.5-14.5-10.5-7-10-7-10-8-16-8-16-4-21-4-21-3-22.5-3-22.5-4-15-4-15 11-18 11-18 16-14 16-14 17-12 17-12 16.5-12.5 16.5-12.5 13.5-23.5 13.5-23.5-21.5 26-21.5 26-18 11-18 11-14.5 10.5-14.5 10.5-13 12-13 12-7.5 15.5-7.5 15.5-4 19-4 19 6 20 6 20 2 19.5 2 19.5 7 17 7 17 10 15 10 15 16 10 16 10 14 8 14 8 21 1 21 1 17 3 17 3h14 14l11 .5 11 .5 13-10.5 13-10.5 14.5-12 14.5-12"/></g><path d="m463 580h1l-15.5-3-15.5-3-16.5 8.5-16.5 8.5-22.5 2.5-22.5 2.5-15-1-15-1-18.5-1-18.5-1-14-9-14-9-11.5-13.5-11.5-13.5-10-18-10-18-.5-20.5-.5-20.5-4.5-20.5-4.5-20.5 6.5-18.5 6.5-18.5 13.5-12.5 13.5-12.5 13-11.5 13-11.5 16-11 16-11 12.5-16 12.5-16 1-17.5 1-17.5v1 1l-13.5 23.5-13.5 23.5-16.5 12.5-16.5 12.5-17 12-17 12-16 14-16 14-11 18-11 18 4 15 4 15 3 22.5 3 22.5 4 21 4 21 8 16 8 16 7 10 7 10 14.5 10.5 14.5 10.5 21.5 4.5 21.5 4.5 18-1 18-1 20.5.5 20.5.5h16.5 16.5l14-6 14-6 8-12 8-12 .5.5.5.5" style="fill:#7a7669;stroke:#7a7669"/><path d="m458 634l1-1-21.5 17-21.5 17-9 13-9 13-10.5 13.5-10.5 13.5h1.5 1.5 2 2l1-1.5 1-1.5 1-1 1-1 1.5-.5 1.5-.5 1.5-1 1.5-1 1.5-.5 1.5-.5 1.5-1 1.5-1 1.5-.5 1.5-.5.5 1 .5 1-1.5.5-1.5.5-1 1-1 1-2 .5-2 .5-.5 1.5-.5 1.5-2 1.5-2 1.5h3 3l21-12.5 21-12.5-10 2-10 2-2.5-1.5-2.5-1.5 6-10.5 6-10.5 7.5-10.5 7.5-10.5 1-1.5 1-1.5 1.5-.5 1.5-.5.5-1 .5-1h1 1l1-1 1-1 .5-1 .5-1v-1-1l1-1 1-1 1-1 1-1 1-1 1-1 .5-1 .5-1" style="fill:#68645a;stroke:#68645a"/><path d="m451 554l1-1-17 4.5-17 4.5-15 5-15 5h-13-13l-19.5-4.5-19.5-4.5-17.5-.5-17.5-.5-14-9-14-9-5-9-5-9-3-13-3-13-2-14-2-14-3-16-3-16 .5-11.5.5-11.5 9-18 9-18 10.5-5.5 10.5-5.5 7 11 7 11-10 9-10 9-6.5 2.5-6.5 2.5 6 12 6 12 16-4 16-4 1.5-20.5 1.5-20.5 4-24 4-24 11-18 11-18 8.5-13 8.5-13-13 14-13 14-12.5 16.5-12.5 16.5-11.5 6.5-11.5 6.5-16.5 12.5-16.5 12.5-9 16-9 16 1 12 1 12 1 14 1 14-1.5 18.5-1.5 18.5 6 15.5 6 15.5 11.5 14.5 11.5 14.5 11 6 11 6 11 7 11 7h20 20 20 20l19.5-6.5 19.5-6.5 14-9.5 14-9.5" style="fill:#8a8678;stroke:#8a8678"/><path d="m449 636l-52 39-19.5 10.5-19.5 10.5-17.5-2.5-17.5-2.5-1.5-14.5-1.5-14.5-16.5-1.5-16.5-1.5-18-4-18-4-13.5-7.5-13.5-7.5-14-14-14-14-11-16-11-16-8.5-16.5-8.5-16.5-5.5-19.5-5.5-19.5-4.5-17.5-4.5-17.5-.5-17.5-.5-17.5 4-15 4-15 8-16 8-16 13-16 13-16 15-14 15-14 19-9 19-9 17-13 17-13 16-10 16-10 .5-1.5.5-1.5v-1-1l-.5-1.5-.5-1.5-.5-1-.5-1v-1-1l-.5-.5-.5-.5-1-1.5-1-1.5-.5-1-.5-1-1-1-1-1-.5-2-.5-2v-2-2-1-1l.5-2 .5-2v-2-2-1-1l.5-1 .5-1 .5-.5.5-.5.5-.5.5-.5.5-.5.5-.5 1-.5 1-.5.5-1 .5-1-16 31-16 31-17.5 11.5-17.5 11.5-18.5 10-18.5 10-18 13-18 13-11.5 11.5-11.5 11.5-11 18-11 18-5 19-5 19-1 19-1 19 6 21 6 21 8.5 21.5 8.5 21.5 11.5 19 11.5 19 11.5 17.5 11.5 17.5 10.5 12.5 10.5 12.5 17.5 8.5 17.5 8.5 19 3 19 3 .5 9.5.5 9.5 5.5 10.5 5.5 10.5 17 1 17 1 19.5-11 19.5-11 4.5-.5 4.5-.5-17 14.5-17 14.5h1 1l15-12.5 15-12.5 16-15 16-15 16.5-14 16.5-14v-.5-.5" style="fill:#48443b;stroke:#48443b"/><path d="m440 478l-12-48-3 6-3 6 9 18 9 18" style="fill:#d3cfc3;stroke:#d3cfc3"/><path d="m439 655l1-1-7.5 10.5-7.5 10.5 7-10 7-10" style="fill:#6a6658;stroke:#6a6658"/><path d="m434 512h1l-8.5-13.5-8.5-13.5-4.5 1.5-4.5 1.5-11.5-7.5-11.5-7.5-11-5-11-5 3-7 3-7-1.5-11.5-1.5-11.5 2.5-17.5 2.5-17.5 10.5-11.5 10.5-11.5 8.5 18.5 8.5 18.5 2 17 2 17-1-29-1-29-11.5-19-11.5-19-14.5 8.5-14.5 8.5-9-2-9-2-6 16-6 16-3 14-3 14-1.5 15.5-1.5 15.5-5 13-5 13-1.5 18.5-1.5 18.5 8.5.5 8.5.5 5 7 5 7 7 1 7 1 9.5-.5 9.5-.5 19.5-1 19.5-1 13.5-6 13.5-6" style="fill:#aaa698;stroke:#aaa698"/><path d="m431 203l1-3-.5-2-.5-2-.5-1.5-.5-1.5-1-1.5-1-1.5v1 1l1 1 1 1-.5 2-.5 2-1.5-.5-1.5-.5-1-1-1-1-1-1-1-1-1.5-1-1.5-1-1-1.5-1-1.5-1-1-1-1-1-1.5-1-1.5-1-1-1-1-1-1-1-1h-.5-.5l-6 18.5-6 18.5 17.5-6.5 17.5-6.5" style="fill:#8a8678;stroke:#8a8678"/><path d="m423 82l-35-17-1.5 20-1.5 20 14.5-4 14.5-4 1-2 1-2 1-1 1-1 1-1.5 1-1.5 1-1 1-1 .5-2 .5-2" style="fill:#48443b;stroke:#48443b"/><g style="fill:#4c4838;stroke:#4c4838"><path d="m413 100l1-3-14.5 4-14.5 4 2 .5 2 .5h1.5 1.5 2 2l2-.5 2-.5h2 2 1 1l2-.5 2-.5 1-1 1-1 .5-1 .5-1"/><path d="m409 157v-2h-2-2l-1-1.5-1-1.5-1 1-1 1-2 .5-2 .5-1.5-.5-1.5-.5-2.5.5-2.5.5-1 1-1 1 1-.5 1-.5 1 .5 1 .5.5-.5.5-.5 1 1 1 1 1 .5 1 .5.5.5.5.5 1 1 1 1 1 .5 1 .5h1 1l1-1 1-1 1-.5 1-.5.5-.5.5-.5.5-1 .5-1"/></g><path d="m408 179h1l-11 11-11 11-.5 1-.5 1 .5 1 .5 1 .5 1.5.5 1.5v1.5 1.5h.5.5v-1-1-1-1h.5.5v1 1 1 1l.5.5.5.5v1.5 1.5 1 1l.5.5.5.5-.5 1.5-.5 1.5-12.5-9-12.5-9-11.5 14.5-11.5 14.5 3.5 2 3.5 2 23.5-5.5 23.5-5.5-.5-1.5-.5-1.5v-3-3l6-18.5 6-18.5" style="fill:#88847b;stroke:#88847b"/><path d="m404 710l-1-2-1.5.5-1.5.5-1.5 1-1.5 1-1.5.5-1.5.5-1.5 1-1.5 1-1.5.5-1.5.5-1 1-1 1-1 1.5-1 1.5h1.5 1.5 1.5 1.5l2-1.5 2-1.5.5-1.5.5-1.5 2-.5 2-.5 1-1 1-1 1.5-.5 1.5-.5" style="fill:#5a564a;stroke:#5a564a"/><path d="m399 241v-3-1.5-1.5l-.5-.5-.5-.5v-2-2l-.5-1-.5-1v-1.5-1.5l-23.5 5.5-23.5 5.5-3.5-2-3.5-2-1-1-1-1-4.5 9.5-4.5 9.5 14.5-3 14.5-3 11.5-9 11.5-9 7.5 8 7.5 8" style="fill:#8a8678;stroke:#8a8678"/><path d="m396 137l-34-8-5 7-5 7-13 2-13 2-21 7-21 7 6.5 6.5 6.5 6.5 6.5-14 6.5-14 9.5 15 9.5 15-1 .5-1 .5h-1-1-1.5-1.5l-1.5-.5-1.5-.5h-1-1-1.5-1.5l-1.5-.5-1.5-.5-1-1-1-1-.5-.5-.5-.5-1 .5-1 .5-1.5.5-1.5.5h-1-1-2-2l21 1 21 1 6.5-6.5 6.5-6.5-1.5.5-1.5.5v1 1l13.5-8 13.5-8 10-6.5 10-6.5" style="fill:#48443b;stroke:#48443b"/><path d="m395 139l1-2-10 6.5-10 6.5 1.5-.5 1.5-.5.5-1 .5-1 .5-1 .5-1 1 .5 1 .5 1-.5 1-.5 1.5-.5 1.5-.5 2-.5 2-.5 1-1 1-1 .5-1 .5-1" style="fill:#4c4838;stroke:#4c4838"/><path d="m391 221l1-3-.5-.5-.5-.5v-1-1-1.5-1.5l-.5-.5-.5-.5v-1-1-1-1h-.5-.5v1 1 1 1h-.5-.5-.5-.5l-23.5 2-23.5 2 .5 2.5.5 2.5v2 2l-.5-1-.5-1-1.5.5-1.5.5-2-1-2-1-1.5-.5-1.5-.5h-.5-.5l-1-.5-1-.5-1.5-1-1.5-1-1 1-1 1-1 1-1 1-.5.5-.5.5v1.5 1.5l-.5 2-.5 2 .5 1.5.5 1.5v1 1l.5.5.5.5.5.5.5.5.5 1 .5 1v1 1l.5.5.5.5.5.5.5.5.5 1 .5 1 8-7 8-7 1 1 1 1 11.5-14.5 11.5-14.5 12.5 9 12.5 9" style="fill:#7a7669;stroke:#7a7669"/><path d="m387 211h1v-1.5-1.5l-.5-1.5-.5-1.5-.5-1-.5-1 .5-1 .5-1-1-1-1-1v-1.5-1.5-2-2l-.5-2.5-.5-2.5-2-1-2-1-.5-1.5-.5-1.5-.5-.5-.5-.5h-.5-.5l-18.5 17-18.5 17 23.5-2 23.5-2" style="fill:#6a6658;stroke:#6a6658"/><path d="m383 696l1-1-15 12.5-15 12.5h1.5 1.5 1 1l.5-1.5.5-1.5 1-1 1-1 1-.5 1-.5.5-.5.5-.5h1 1v-1-1l.5-1 .5-1h1 1l.5-.5.5-.5.5-.5.5-.5 1-1 1-1 1-.5 1-.5.5-.5.5-.5 1-1 1-1 .5-1 .5-1 .5-.5.5-.5 1-1 1-1" style="fill:#4c4838;stroke:#4c4838"/><path d="m378 150l1-1-1.5.5-1.5.5-13.5 8-13.5 8-.5 1-.5 1 15-9 15-9" style="fill:#383428;stroke:#383428"/><path d="m377 181h1l-22.5 20-22.5 20 2 1 2 1 1.5-.5 1.5-.5.5 1 .5 1v-2-2l-.5-2.5-.5-2.5 18.5-17 18.5-17" style="fill:#68645a;stroke:#68645a"/><path d="m374 337l-27-7 6.5 15 6.5 15 1-.5 1-.5 1-1.5 1-1.5.5-1.5.5-1.5-1-1-1-1 .5-2 .5-2 .5-1.5.5-1.5 2 .5 2 .5v-2-2l1-1.5 1-1.5 1.5-.5 1.5-.5" style="fill:#aaa698;stroke:#aaa698"/><g style="fill:#4c4838;stroke:#4c4838"><path d="m368 179l1-2-16 8.5-16 8.5 15.5-7.5 15.5-7.5"/><path d="m352 163l-13 13 1.5-1 1.5-1 .5-1 .5-1 .5-.5.5-.5.5-.5.5-.5v-1-1h1.5 1.5l.5-1 .5-1v-1-1l1.5-.5 1.5-.5"/></g><path d="m344 108l-17 35 8.5-15.5 8.5-15.5v-2-2" style="fill:#2a2618;stroke:#2a2618"/><g style="fill:#4c4838;stroke:#4c4838"><path d="m334 131l1-3v-2-2l-.5-.5-.5-.5-.5 1.5-.5 1.5-.5 6-.5 6 .5-1.5.5-1.5.5-2 .5-2"/><path d="m333 219h1l-1-1-1-1-1-1-1-1-1-1-1-1v-.5-.5l-1-2-1-2-1-1-1-1-1-1.5-1-1.5-1-1.5-1-1.5-.5 1-.5 1-1 .5-1 .5-.5.5-.5.5-.5.5-.5.5-.5.5-.5.5-.5 1-.5 1v1 1l1-1.5 1-1.5.5-.5.5-.5h1 1l.5-.5.5-.5 1 .5 1 .5.5.5.5.5.5.5.5.5v1 1l.5.5.5.5.5.5.5.5.5 1 .5 1 .5.5.5.5.5.5.5.5.5.5.5.5 1 .5 1 .5 1 .5 1 .5"/></g><path d="m333 126l1-3-15.5-.5-15.5-.5 10.5 9.5 10.5 9.5 4-1.5 4-1.5.5-6 .5-6" style="fill:#48443b;stroke:#48443b"/><path d="m329 220h1l-1-1-1-1-1-1-1-1-1-1-1-1-1.5.5-1.5.5h-1-1l-.5 1-.5 1-.5.5-.5.5-.5.5-.5.5-.5.5-.5.5v1.5 1.5l.5.5.5.5v1 1l.5.5.5.5.5 1 .5 1 .5-2 .5-2v-1.5-1.5l.5-.5.5-.5 1-1 1-1 1-1 1-1 1.5 1 1.5 1 1 .5 1 .5" style="fill:#6a6658;stroke:#6a6658"/><path d="m329 176l-19-30-6.5 14-6.5 14h2 2 1 1l1.5-.5 1.5-.5 1-.5 1-.5.5.5.5.5 1 1 1 1 1.5.5 1.5.5h1.5 1.5 1 1l1.5.5 1.5.5h1.5 1.5 1 1l1-.5 1-.5" style="fill:#4c4838;stroke:#4c4838"/><path d="m307 189v-2l-1.5-.5-1.5-.5-2 .5-2 .5-1.5-.5-1.5-.5-1.5-1-1.5-1-1.5-.5-1.5-.5-2-.5-2-.5-1-1-1-1-1.5-.5-1.5-.5h-2.5-2.5l-.5-1-.5-1v1.5 1.5l.5 1.5.5 1.5 1 1.5 1 1.5v2 2l.5 2 .5 2 .5 1.5.5 1.5.5 2 .5 2 11-4.5 11-4.5 1.5-1.5 1.5-1.5" style="fill:#48443b;stroke:#48443b"/><path d="m296 408l-17-4 1.5-1.5 1.5-1.5.5.5.5.5 1 1 1 1 .5.5.5.5.5 1 .5 1 1 1 1 1 .5 2 .5 2v2 2l.5 2 .5 2-.5 1.5-.5 1.5v1 1l-8.5-7.5-8.5-7.5 5 14 5 14 6.5-15.5 6.5-15.5" style="fill:#88847b;stroke:#88847b"/><path d="m291 222l-46-4-25-4-25-4-7.5 9.5-7.5 9.5 28.5 1.5 28.5 1.5 24.5-2.5 24.5-2.5 2.5-2.5 2.5-2.5" style="fill:#2a2618;stroke:#2a2618"/><path d="m290 426v-2l.5-1.5.5-1.5-.5-2-.5-2v-2-2l-.5-2-.5-2-1-1-1-1-.5-1-.5-1-.5-.5-.5-.5-1-1-1-1-.5-.5-.5-.5-1.5 1.5-1.5 1.5-.5 1-.5 1-1.5 1-1.5 1-1 1-1 1v.5.5l8.5 7.5 8.5 7.5" style="fill:#7a7669;stroke:#7a7669"/><path d="m287 426l1-3v-2-2-2.5-2.5l-.5-1.5-.5-1.5-.5-1-.5-1-1 1-1 1-.5.5-.5.5-.5 1-.5 1h-1-1l-.5.5-.5.5-.5.5-.5.5-.5.5-.5.5-.5.5-.5.5.5 1.5.5 1.5v-1.5-1.5l.5-.5.5-.5 1-.5 1-.5h1 1l.5-.5.5-.5.5.5.5.5h.5.5v1 1l.5.5.5.5-.5 1.5-.5 1.5v1.5 1.5l-1.5.5-1.5.5-1.5-.5-1.5-.5 1 1.5 1 1.5 1.5-.5 1.5-.5.5-.5.5-.5.5-1 .5-1 .5 1 .5 1" style="fill:#68645a;stroke:#68645a"/><path d="m286 427l1-1-.5-1-.5-1-.5 1-.5 1-.5.5-.5.5-1.5.5-1.5.5-1-1.5-1-1.5-.5-1-.5-1-.5-1-.5-1-.5-1.5-.5-1.5.5-.5.5-.5.5-.5.5-.5.5-.5.5-.5.5-.5.5-.5h1 1l.5-1 .5-1 .5-.5.5-.5 1-1 1-1v9 9" style="fill:#6a6658;stroke:#6a6658"/><path d="m285 422l1-3-.5-.5-.5-.5v-1-1h-.5-.5l-.5-.5-.5-.5-.5.5-.5.5h-1-1l-1 .5-1 .5-.5.5-.5.5v1.5 1.5l.5 1 .5 1 .5 1 .5 1 1.5.5 1.5.5 1.5-.5 1.5-.5v-1.5-1.5" style="fill:#5a564a;stroke:#5a564a"/><path d="m282 205v-2-1-1l-.5-2-.5-2-.5-1.5-.5-1.5-.5-2-.5-2v-2-2l-1-1.5-1-1.5-.5-1.5-.5-1.5v-1.5-1.5l-1-1-1-1-1 .5-1 .5-1 1-1 1v1 1 1.5 1.5l.5-.5.5-.5.5-1.5.5-1.5.5-.5.5-.5.5 2 .5 2v2 2l1 1.5 1 1.5.5 1.5.5 1.5.5 2 .5 2v2 2l-.5 1.5-.5 1.5-.5-1.5-.5-1.5-1-1.5-1-1.5-.5-1.5-.5-1.5v1.5 1.5l.5 2 .5 2 .5 1.5.5 1.5 1 1 1 1h1.5 1.5l1-.5 1-.5" style="fill:#4c4838;stroke:#4c4838"/><path d="m277 203l1-3v-2-2l-.5-2-.5-2-.5-1.5-.5-1.5-1-1.5-1-1.5v-2-2l-.5-2-.5-2-.5.5-.5.5-.5 1.5-.5 1.5.5 2 .5 2v1 1l.5.5.5.5v1 1 1.5 1.5l.5 1.5.5 1.5 1 1.5 1 1.5.5 1.5.5 1.5" style="fill:#5a564a;stroke:#5a564a"/><path d="m276 206h1l-1-1-1-1-.5-1.5-.5-1.5-.5-2-.5-2v-1.5-1.5-1.5-1.5-1-1l-.5-.5-.5-.5v-1-1l-.5-2-.5-2-.5.5-.5.5v-1.5-1.5-1-1l1-1 1-1 1-.5 1-.5h-2-2l-1 1.5-1 1.5v2 2l.5 2 .5 2v2 2l.5 1.5.5 1.5v2.5 2.5l.5 1.5.5 1.5 1 1.5 1 1.5 1 1 1 1h.5.5" style="fill:#48443b;stroke:#48443b"/><path d="m176 656l-23-21 7.5 13.5 7.5 13.5 4-3 4-3" style="fill:#383428;stroke:#383428"/><g style="fill:#2a2618;stroke:#2a2618"><path d="m168 712l-27-33-13.5-9.5-13.5-9.5 10.5 14.5 10.5 14.5 16.5 11.5 16.5 11.5"/><path d="m103 642l-13-25 1 7 1 7 5.5 5.5 5.5 5.5"/><path d="m57 508l-16-27v6 6l1.5 17 1.5 17-.5-1.5-.5-1.5-1.5-.5-1.5-.5h-.5-.5v-1-1l1-1 1-1 1-1 1-1 1-1.5 1-1.5 1-1 1-1 1-.5 1-.5.5-.5.5-.5 1-1 1-1h2.5 2.5"/><path d="m43 455l-26 6 7.5-4.5 7.5-4.5 4.5 4.5 4.5 4.5 1-3 1-3"/></g></g></svg>