<svg xmlns="http://www.w3.org/2000/svg" viewBox="0 0 712 960"><path d="m0 0h712v960h-712z" style="fill:#151d20"/><g style="stroke-linejoin:round;stroke-width:.7"><path d="m0 959v1h30.5 30.5 31 31 31 31 31 31 31 31 31 31 31.5 31.5 31 31 31 31 31 31 31 31 15 15v-16-16-31.5-31.5-31-31-31-31-31-31-31-31-31-31-16-16l-9 6-9 6-8-5-8-5-8-5.5-8-5.5-1 9.5-1 9.5-1.5 8-1.5 8-6.5 4-6.5 4-5 7-5 7-4 4.5-4 4.5-4.5 1-4.5 1-7-5-7-5-6 11.5-6 11.5-1 9.5-1 9.5 5 1.5 5 1.5-9.5 8.5-9.5 8.5-5.5-7-5.5-7-8.5 13-8.5 13-7.5 17-7.5 17-13-5.5-13-5.5-9.5-8-9.5-8-5-14.5-5-14.5-6.5-9-6.5-9-5.5-8-5.5-8-5.5 17-5.5 17 10-.5 10-.5h-7.5-7.5l-6-9.5-6-9.5-3 1.5-3 1.5-5.5 15-5.5 15-10.5 3-10.5 3-7.5-8-7.5-8-13.5-4-13.5-4 3 15 3 15 5.5-.5 5.5-.5v15.5 15.5l-5.5-15-5.5-15-12 11.5-12 11.5-12-4-12-4 4 11.5 4 11.5-6.5-8-6.5-8-10 6.5-10 6.5-4 2.5-4 2.5-2.5 12-2.5 12-4.5-13-4.5-13-1.5-1-1.5-1 .5-5 .5-5-6.5-6-6.5-6 4 18.5 4 18.5.5 12 .5 12-7.5 11-7.5 11-3 1.5-3 1.5-5-9.5-5-9.5-2-7.5-2-7.5-4.5 12.5-4.5 12.5 1.5 13 1.5 13-7.5 3-7.5 3-2.5-8-2.5-8-1.5-14-1.5-14-8 13.5-8 13.5v10.5 10.5l-.5-12-.5-12-8-8.5-8-8.5 9.5-9 9.5-9 12-4.5 12-4.5 4.5-5 4.5-5 2.5-8 2.5-8-10-.5-10-.5-14 3.5-14 3.5-3.5 6-3.5 6-6.5-7-6.5-7 3 11 3 11-4.5 14-4.5 14-7-1.5-7-1.5-7.5-.5-7.5-.5 10-5.5 10-5.5 7.5-6 7.5-6-11.5-6-11.5-6-2-14.5-2-14.5-7 4-7 4 1 15.5 1 15.5.5 8 .5 8h-6-6l-4-5.5-4-5.5-14.5 14-14.5 14-3.5-5.5-3.5-5.5-7 11.5-7 11.5 6.5 6 6.5 6-4.5 15-4.5 15-2.5 18-2.5 18-9-12-9-12 6 8.5 6 8.5-1.5-15-1.5-15-6 3-6 3 2 18.5 2 18.5-9 12-9 12-8-8.5-8-8.5v1.5 1.5 2.5 2.5 2 2 2.5 2.5.5.5l1-.5 1-.5.5-1 .5-1v-2-2l.5-.5.5-.5.5-.5.5-.5.5.5.5.5.5 1 .5 1-.5.5-.5.5.5.5.5.5v1 1l-.5 1-.5 1v1 1l-.5.5-.5.5v1 1l-.5 1-.5 1-.5.5-.5.5-.5.5-.5.5-1 .5-1 .5v30.5 30.5 13.5 13.5" style="fill:#141615;stroke:#141615"/><g style="fill:#151d20;stroke:#151d20"><path d="m541 874l7-43 4-2 4-2 3.5 1.5 3.5 1.5 3 15 3 15 5-15 5-15v-17-17l-13 2.5-13 2.5 11-7 11-7 3-12 3-12-6.5 8.5-6.5 8.5-6 3-6 3-6-10-6-10-4 11.5-4 11.5-7-5-7-5-9 6-9 6 4 10 4 10 8.5-9.5 8.5-9.5 7 6 7 6-4.5 22-4.5 22 3.5 13 3.5 13"/><path d="m0 870v1l1-.5 1-.5.5-.5.5-.5.5-.5.5-.5.5-1 .5-1v-1-1l.5-.5.5-.5v-1-1l.5-1 .5-1v-1-1l-.5-.5-.5-.5.5-.5.5-.5-.5-1-.5-1-.5-.5-.5-.5-.5.5-.5.5-.5.5-.5.5v2 2l-.5 1-.5 1-1 .5-1 .5v1.5 1.5 2.5 2.5.5.5"/><path d="m608 861l23-29 8.5 1.5 8.5 1.5-9-15-9-15-3.5 3.5-3.5 3.5-4 10-4 10-1.5 5.5-1.5 5.5-9-11.5-9-11.5-1-10-1-10-2.5-2.5-2.5-2.5 1 19 1 19 9 13 9 13 .5 1 .5 1"/><path d="m16 860l18-24-2-18.5-2-18.5 6-3 6-3 1.5 15 1.5 15-6-8.5-6-8.5 9 12 9 12 2.5-18 2.5-18 4.5-15 4.5-15-6.5-6-6.5-6 7-11.5 7-11.5 3.5 5.5 3.5 5.5 14.5-14 14.5-14 4 5.5 4 5.5h6 6l-.5-8-.5-8-1-15.5-1-15.5 7-4 7-4 2 14.5 2 14.5 11.5 6 11.5 6-7.5 6-7.5 6-10 5.5-10 5.5 7.5.5 7.5.5 7 1.5 7 1.5 4.5-14 4.5-14-3-11-3-11 6.5 7 6.5 7 3.5-6 3.5-6 14-3.5 14-3.5 10 .5 10 .5-2.5 8-2.5 8-4.5 5-4.5 5-12 4.5-12 4.5-9.5 9-9.5 9 8 8.5 8 8.5.5 12 .5 12v-10.5-10.5l8-13.5 8-13.5 1.5 14 1.5 14 2.5 8 2.5 8 7.5-3 7.5-3-1.5-13-1.5-13 4.5-12.5 4.5-12.5 2 7.5 2 7.5 5 9.5 5 9.5 3-1.5 3-1.5 7.5-11 7.5-11-.5-12-.5-12-4-18.5-4-18.5 6.5 6 6.5 6-.5 5-.5 5 1.5 1 1.5 1 4.5 13 4.5 13 2.5-12 2.5-12 4-2.5 4-2.5 10-6.5 10-6.5 6.5 8 6.5 8-4-11.5-4-11.5 12 4 12 4 12-11.5 12-11.5-3-15-3-15 13.5 4 13.5 4 7.5 8 7.5 8 10.5-3 10.5-3 5.5-15 5.5-15 3-1.5 3-1.5 6 9.5 6 9.5h7.5 7.5l-10 .5-10 .5 5.5-17 5.5-17 5.5 8 5.5 8 6.5 9 6.5 9 5 14.5 5 14.5 9.5 8 9.5 8 13 5.5 13 5.5 7.5-17 7.5-17 8.5-13 8.5-13 5.5 7 5.5 7 9.5-8.5 9.5-8.5-5-1.5-5-1.5 1-9.5 1-9.5 6-11.5 6-11.5 7 5 7 5 4.5-1 4.5-1 4-4.5 4-4.5 5-7 5-7 6.5-4 6.5-4 1.5-8 1.5-8 1-9.5 1-9.5 8 5.5 8 5.5 8 5 8 5 9-6 9-6v-31-31-31-31-8.5-8.5l-1-1-1-1-1.5-.5-1.5-.5-.5-2-.5-2v-2-2l-1.5 1-1.5 1-1 1-1 1-1 1.5-1 1.5-.5 1.5-.5 1.5h-1-1l-6.5-5.5-6.5-5.5-4.5-16-4.5-16 7.5-2 7.5-2-5.5-7-5.5-7 .5 7 .5 7-4.5-11-4.5-11-11-1.5-11-1.5-7.5 11-7.5 11 1-3.5 1-3.5-2-7.5-2-7.5-5-11.5-5-11.5 9.5-1 9.5-1 7 3.5 7 3.5-7-13.5-7-13.5-4-13.5-4-13.5-4.5 19-4.5 19-4-12-4-12-8-15-8-15-9.5-3.5-9.5-3.5 7.5-2 7.5-2 11.5 15 11.5 15 2-8.5 2-8.5-13.5-13-13.5-13-3-17.5-3-17.5-5.5 15-5.5 15-5-9.5-5-9.5-1.5-8-1.5-8-1.5 17-1.5 17-10 2.5-10 2.5 4.5-8 4.5-8-2.5-12-2.5-12 1.5-12 1.5-12v-3.5-3.5l-1-20-1-20 6.5-3 6.5-3-14.5 1.5-14.5 1.5-2.5 20.5-2.5 20.5 2.5-20.5 2.5-20.5-12-14-12-14 7.5-11.5 7.5-11.5-10 6-10 6-3.5-21.5-3.5-21.5h-1-1l.5 1.5.5 1.5-.5.5-.5.5v1 1l.5.5.5.5.5 1 .5 1 .5.5.5.5v1 1 1 1 1 1l-1 .5-1 .5-.5.5-.5.5-.5.5-.5.5v1 1 1.5 1.5l-.5.5-.5.5-.5.5-.5.5h-1-1l-.5-1-.5-1-.5-1.5-.5-1.5v-1-1l-.5-1.5-.5-1.5-.5-2-.5-2v-2-2l-.5-2-.5-2-.5-1.5-.5-1.5 1-.5 1-.5h-30-30-31-31-31-31-31-31-31-31-31.5-31.5-30-30l.5 1 .5 1 .5 1 .5 1-1 1.5-1 1.5-1.5-.5-1.5-.5.5 1.5.5 1.5-.5 2-.5 2h-2-2l-1 1.5-1 1.5-.5 1.5-.5 1.5h-1.5-1.5l-1.5-.5-1.5-.5.5-1.5.5-1.5 1-1.5 1-1.5-.5-1.5-.5-1.5-1-1-1-1-.5-2-.5-2-1-1.5-1-1.5h-17-17v14 14 31 31 12 12l15.5-7.5 15.5-7.5 12-3 12-3 14.5-4.5 14.5-4.5 9 6 9 6 6.5-2 6.5-2 6-7.5 6-7.5 3 1 3 1 7-13.5 7-13.5 7 9.5 7 9.5 6-8 6-8 5.5 2 5.5 2 .5-11 .5-11 8 4.5 8 4.5 13.5 4.5 13.5 4.5 7 4 7 4 12-4 12-4 4-6 4-6 6-5 6-5 6.5 6 6.5 6h5 5l11.5-1.5 11.5-1.5v15 15h10 10l1.5 2.5 1.5 2.5 2.5 20 2.5 20 11.5-2.5 11.5-2.5 5 5 5 5 5.5 12.5 5.5 12.5 11.5 9.5 11.5 9.5-10 .5-10 .5 3.5 14.5 3.5 14.5 4 4 4 4-7 10-7 10 2 2 2 2 9 13 9 13 5-4 5-4-1 12.5-1 12.5 10.5 4.5 10.5 4.5 5.5 7.5 5.5 7.5 16 11 16 11 11.5-.5 11.5-.5 8.5 14.5 8.5 14.5 15.5 6.5 15.5 6.5 14.5 9 14.5 9 7 3.5 7 3.5 13.5 20 13.5 20 .5 1 .5 1-.5-1-.5-1-11.5-3.5-11.5-3.5-2.5 8-2.5 8-15.5 2-15.5 2-9 4.5-9 4.5-7-6.5-7-6.5-3 4.5-3 4.5-12-1.5-12-1.5-9.5-1-9.5-1-3.5-11.5-3.5-11.5-16 .5-16 .5-7-1.5-7-1.5-11.5 2-11.5 2-9.5 4-9.5 4-9-2.5-9-2.5-12.5-4-12.5-4-14.5 5-14.5 5-2 11.5-2 11.5-6 2.5-6 2.5-8 8.5-8 8.5-8 .5-8 .5-5.5 6-5.5 6-6.5-5-6.5-5-5.5-8-5.5-8-10.5 9-10.5 9h2.5 2.5l2-.5 2-.5.5 1.5.5 1.5.5 1.5.5 1.5-1 1.5-1 1.5-1 1-1 1h-1.5-1.5l-1.5-.5-1.5-.5-1-1.5-1-1.5.5-1.5.5-1.5v-1.5-1.5l-7-1-7-1-8 3.5-8 3.5-6.5-3-6.5-3-14 10.5-14 10.5-1.5 4-1.5 4 1 12.5 1 12.5-12.5-4-12.5-4 1-5.5 1-5.5-5.5 4-5.5 4-1.5 5-1.5 5-6 19.5-6 19.5-4-15.5-4-15.5-2-4-2-4 1.5-9.5 1.5-9.5-8 6-8 6-9-15-9-15 10.5-4.5 10.5-4.5-15-3-15-3-4.5-15.5-4.5-15.5-1 3-1 3-8.5-2.5-8.5-2.5-15.5-13.5-15.5-13.5v30.5 30.5 31 31 31 31 31.5 31.5 12 12l13 3 13 3-8 3.5-8 3.5 5.5 7 5.5 7 3.5 5 3.5 5-9.5 21.5-9.5 21.5h-1.5-1.5l-.5-1.5-.5-1.5-.5-1.5-.5-1.5-1 1-1 1-1 .5-1 .5v1.5 1.5.5.5l5.5 19.5 5.5 19.5-1-1-1-1-.5-.5-.5-.5-1 .5-1 .5h-1-1l-.5-.5-.5-.5.5-.5.5-.5.5-1 .5-1 .5-.5.5-.5.5-.5.5-.5v-1-1l-.5-1-.5-1-.5-1.5-.5-1.5-.5-.5-.5-.5-.5-1-.5-1-1.5-1-1.5-1v29 29l8 8.5 8 8.5"/><path d="m505 840l26-16-15 6-15 6 2 2 2 2"/><path d="m217 816l3 1 .5-1.5.5-1.5 1-1.5 1-1.5-1-1-1-1-1.5-1-1.5-1h-1-1l-.5 2-.5 2v2 2l1 .5 1 .5"/></g><path d="m11 805l-11-39v2.5 2.5 2 2 2.5 2.5 2 2 .5.5l1.5 1 1.5 1 .5 1 .5 1 .5.5.5.5.5 1.5.5 1.5.5 1 .5 1v1 1l-.5.5-.5.5-.5.5-.5.5-.5 1-.5 1-.5.5-.5.5.5.5.5.5h1 1l1-.5 1-.5.5.5.5.5 1 1 1 1" style="fill:#141615;stroke:#141615"/><g style="fill:#151d20;stroke:#151d20"><path d="m157 799l3 1 1-1 1-1 2-.5 2-.5 1-1 1-1-.5-2-.5-2-.5.5-.5.5-1.5 1-1.5 1-1.5-.5-1.5-.5-1.5.5-1.5.5-1 1.5-1 1.5 1 1 1 1"/><path d="m299 773l3 1 1-1 1-1 1-1.5 1-1.5-.5-1.5-.5-1.5-1-1.5-1-1.5-1.5-.5-1.5-.5-1.5 1-1.5 1-.5 1.5-.5 1.5.5 1.5.5 1.5 1 1.5 1 1.5"/><path d="m117 770h2l.5-1.5.5-1.5-.5-2-.5-2-.5-1.5-.5-1.5h-1.5-1.5l-1 1-1 1-1 1.5-1 1.5 1 1 1 1 1 1 1 1 1 .5 1 .5"/></g><path d="m9 765l19-43-3.5-5-3.5-5-5.5-7-5.5-7 8-3.5 8-3.5-13-3-13-3v2.5 2.5 2 2 2.5 2.5 2 2 2.5 2.5 2 2 2.5 2.5 1.5 1.5l1-.5 1-.5 1-.5 1-.5.5 1.5.5 1.5v1 1 1 1 1 1 1.5 1.5 1 1l-.5.5-.5.5h-1-1l-1 .5-1 .5v2 2 1.5 1.5l2 1 2 1 1 1 1 1 1 1.5 1 1.5v2 2l-1.5 1-1.5 1h-1-1-1.5-1.5v3 3 1 1l1-.5 1-.5 1-1 1-1 .5 1.5.5 1.5.5 1.5.5 1.5h1.5 1.5" style="fill:#141615;stroke:#141615"/><g style="fill:#151d20;stroke:#151d20"><path d="m0 753v1h1.5 1.5 1 1l1.5-1 1.5-1v-2-2l-1-1.5-1-1.5-1-1-1-1-2-1-2-1v1.5 1.5 2 2 2.5 2.5"/><path d="m0 733v1l1-.5 1-.5h1 1l.5-.5.5-.5v-1-1-1.5-1.5-1-1-1-1-1-1l-.5-1.5-.5-1.5-1 .5-1 .5-1 .5-1 .5v3 3 2 2 1.5 1.5"/><path d="m422 727l3 1 1-1 1-1 .5-2 .5-2v-2-2l-1-1.5-1-1.5-1.5.5-1.5.5v2.5 2.5l-1 1-1 1v1 1l.5 1 .5 1"/><path d="m333 714h2v-2-2-1.5-1.5-2-2l-1.5-1-1.5-1-1 1-1 1-1 1.5-1 1.5v2 2l1 1 1 1 1.5 1 1.5 1"/><path d="m495 712l3 1 1-1 1-1v-1.5-1.5l-1.5-.5-1.5-.5-1-1.5-1-1.5-1.5.5-1.5.5-1 1.5-1 1.5.5 1.5.5 1.5 1.5.5 1.5.5h.5.5"/></g><path d="m100 705l19-35-7-7-7-7 2 9 2 9-4.5 15.5-4.5 15.5" style="fill:#141615;stroke:#141615"/><g style="fill:#151d20;stroke:#151d20"><path d="m339 697l23-17-10 2-10 2-1.5 6.5-1.5 6.5"/><path d="m377 679v-31l-5.5.5-5.5.5 5.5 15 5.5 15"/></g><path d="m526 675l3 1 .5-1.5.5-1.5 1.5-1 1.5-1 1 1 1 1 1.5-1 1.5-1v-2-2l-1-1.5-1-1.5-.5-1.5-.5-1.5-1.5.5-1.5.5h-.5-.5l.5 1.5.5 1.5-.5 1.5-.5 1.5h-1.5-1.5l-1 1-1 1-1.5-.5-1.5-.5v-1.5-1.5l.5-1.5.5-1.5.5-1.5.5-1.5 1.5 1 1.5 1h1.5 1.5l-8-16-8-16-3.5 8.5-3.5 8.5 8 12 8 12 1 2 1 2" style="fill:#141615;stroke:#141615"/><path d="m523 669l3 1 1-1 1-1h1.5 1.5l.5-1.5.5-1.5-.5-1.5-.5-1.5h-1.5-1.5l-1.5-1-1.5-1-.5 1.5-.5 1.5-.5 1.5-.5 1.5v1.5 1.5" style="fill:#151d20;stroke:#151d20"/><g style="fill:#141615;stroke:#141615"><path d="m9 666l10-34-6 9-6 9 1 8 1 8"/><path d="m541 640l9-33-6-15-6-15-3.5 8.5-3.5 8.5v10 10l5 13 5 13"/><path d="m580 623l-2-22-3-2-3-2-4-8-4-8-9 8-9 8 8 4 8 4 9 9 9 9"/></g><g style="fill:#151d20;stroke:#151d20"><path d="m678 621l-2-28-10-7-10-7 4.5 11.5 4.5 11.5 3.5 4.5 3.5 4.5 3 5 3 5"/><path d="m634 620l9-29-9 3-9 3-9.5 8.5-9.5 8.5 8.5-4.5 8.5-4.5 5.5 7.5 5.5 7.5"/></g><g style="fill:#141615;stroke:#141615"><path d="m500 617l17-27-13.5-7.5-13.5-7.5-1.5 11.5-1.5 11.5 6.5 9.5 6.5 9.5"/><path d="m472 588l3 1 1-1 1-1v-2.5-2.5l-.5-1.5-.5-1.5-1-.5-1-.5-1.5.5-1.5.5-.5 2-.5 2 .5 1.5.5 1.5.5 1 .5 1"/><path d="m556 573l14-24-1-10-1-10-.5-3.5-.5-3.5-7.5 14.5-7.5 14.5 2 11 2 11"/><path d="m602 569l15-27 16.5-6.5 16.5-6.5-10.5-2.5-10.5-2.5-1.5 3.5-1.5 3.5-12.5 10.5-12.5 10.5-10 1.5-10 1.5 8.5 5.5 8.5 5.5 2 1.5 2 1.5"/></g><path d="m111 561l12-39 1.5-5 1.5-5 5.5-4 5.5-4-1 5.5-1 5.5 12.5 4 12.5 4-1-12.5-1-12.5 1.5-4 1.5-4 14-10.5 14-10.5 6.5 3 6.5 3 8-3.5 8-3.5 7 1 7 1 10.5-9 10.5-9 5.5 8 5.5 8 6.5 5 6.5 5 5.5-6 5.5-6 8-.5 8-.5 8-8.5 8-8.5 6-2.5 6-2.5 2-11.5 2-11.5 14.5-5 14.5-5 12.5 4 12.5 4 9 2.5 9 2.5 9.5-4 9.5-4 11.5-2 11.5-2 7 1.5 7 1.5 16-.5 16-.5 3.5 11.5 3.5 11.5 9.5 1 9.5 1 12 1.5 12 1.5 3-4.5 3-4.5 7 6.5 7 6.5 9-4.5 9-4.5 15.5-2 15.5-2 2.5-8 2.5-8 11.5 3.5 11.5 3.5-13.5-20-13.5-20-7-3.5-7-3.5-14.5-9-14.5-9-15.5-6.5-15.5-6.5-8.5-14.5-8.5-14.5-11.5.5-11.5.5-16-11-16-11-5.5-7.5-5.5-7.5-10.5-4.5-10.5-4.5 1-12.5 1-12.5-5 4-5 4-9-13-9-13-2-2-2-2 7-10 7-10-4-4-4-4-3.5-14.5-3.5-14.5 10-.5 10-.5-11.5-9.5-11.5-9.5-5.5-12.5-5.5-12.5-5-5-5-5-11.5 2.5-11.5 2.5-2.5-20-2.5-20-1.5-2.5-1.5-2.5h-10-10v-15-15l-11.5 1.5-11.5 1.5h-5-5l-6.5-6-6.5-6-6 5-6 5-4 6-4 6-12 4-12 4-7-4-7-4-13.5-4.5-13.5-4.5-8-4.5-8-4.5-.5 11-.5 11-5.5-2-5.5-2-6 8-6 8-7-9.5-7-9.5-7 13.5-7 13.5-3-1-3-1-6 7.5-6 7.5-6.5 2-6.5 2-9-6-9-6-14.5 4.5-14.5 4.5-12 3-12 3-15.5 7.5-15.5 7.5v3.5 3.5 2 2 2.5 2.5 2 2 2.5 2.5 2 2 1.5 1.5l17.5 3.5 17.5 3.5 12.5.5 12.5.5 17.5-.5 17.5-.5 10 1 10 1 3-2 3-2 5-11.5 5-11.5 11.5-1 11.5-1 9.5-.5 9.5-.5 7-10.5 7-10.5 9-.5 9-.5 13 9.5 13 9.5 7-5.5 7-5.5 9.5 8 9.5 8 8.5 1 8.5 1 11-2 11-2-5 12.5-5 12.5 10 7.5 10 7.5 5 9.5 5 9.5 11.5 10 11.5 10 8 8 8 8 3 13.5 3 13.5 1.5 13 1.5 13 11 10.5 11 10.5 7 6.5 7 6.5 2 12 2 12-7.5-1-7.5-1 5.5 11 5.5 11v8.5 8.5l-3.5 1-3.5 1-4.5-4.5-4.5-4.5-2.5 9-2.5 9-11.5-6-11.5-6 3.5-6 3.5-6-12.5 3-12.5 3-7.5 4.5-7.5 4.5-11.5 1-11.5 1-3.5 6-3.5 6-7.5 5-7.5 5-10-2.5-10-2.5-7-2.5-7-2.5-7 4.5-7 4.5h-5-5l-14.5 7-14.5 7-5 3.5-5 3.5-7.5 8.5-7.5 8.5-9.5-13.5-9.5-13.5-8.5-.5-8.5-.5-7 2-7 2-3.5-1-3.5-1-5.5-9-5.5-9-9.5 2-9.5 2-8-17.5-8-17.5-7-8-7-8-2-9.5-2-9.5-6-13.5-6-13.5 1-5.5 1-5.5-5-8.5-5-8.5-3-20-3-20-13-10-13-10v31 31 31 31 20.5 20.5l1-.5 1-.5h2 2l.5 1.5.5 1.5.5 2 .5 2-1 1-1 1v2.5 2.5l-.5 1.5-.5 1.5h-1-1l-1-1.5-1-1.5.5-1.5.5-1.5 1-1.5 1-1.5.5-1.5.5-1.5-1.5-1-1.5-1-1 .5-1 .5v3 3 2.5 2.5 2 2 2.5 2.5 2 2 2.5 2.5 2 2 2.5 2.5.5.5l15.5 13.5 15.5 13.5 8.5 2.5 8.5 2.5 1-3 1-3 4.5 15.5 4.5 15.5 15 3 15 3-10.5 4.5-10.5 4.5 9 15 9 15 8-6 8-6-1.5 9.5-1.5 9.5 2 4 2 4 4 15.5 4 15.5" style="fill:#192932;stroke:#192932"/><path d="m471 514h2l1-1 1-1v-1.5-1.5l.5-1.5.5-1.5-.5-2-.5-2-1.5-.5-1.5-.5-1 1.5-1 1.5-.5 1.5-.5 1.5v2 2l1 1.5 1 1.5" style="fill:#141615;stroke:#141615"/><path d="m236 480h3l1-1 1-1 1-1.5 1-1.5-.5-1.5-.5-1.5-.5-1.5-.5-1.5-2 .5-2 .5h-2.5-2.5v1.5 1.5l-.5 1.5-.5 1.5 1 1.5 1 1.5 1.5.5 1.5.5" style="fill:#192932;stroke:#192932"/><path d="m173 431l15-17 5-3.5 5-3.5 14.5-7 14.5-7h5 5l7-4.5 7-4.5 7 2.5 7 2.5 10 2.5 10 2.5 7.5-5 7.5-5 3.5-6 3.5-6 11.5-1 11.5-1 7.5-4.5 7.5-4.5 12.5-3 12.5-3-3.5 6-3.5 6 11.5 6 11.5 6 2.5-9 2.5-9 4.5 4.5 4.5 4.5 3.5-1 3.5-1v-8.5-8.5l-5.5-11-5.5-11 7.5 1 7.5 1-2-12-2-12-7-6.5-7-6.5-11-10.5-11-10.5-1.5-13-1.5-13-3-13.5-3-13.5-8-8-8-8-11.5-10-11.5-10-5-9.5-5-9.5-10-7.5-10-7.5 5-12.5 5-12.5-11 2-11 2-8.5-1-8.5-1-9.5-8-9.5-8-7 5.5-7 5.5-13-9.5-13-9.5-9 .5-9 .5-7 10.5-7 10.5-9.5.5-9.5.5-11.5 1-11.5 1-5 11.5-5 11.5-3 2-3 2-10-1-10-1-17.5.5-17.5.5-12.5-.5-12.5-.5-17.5-3.5-17.5-3.5v30 30l13 10 13 10 3 20 3 20 5 8.5 5 8.5-1 5.5-1 5.5 6 13.5 6 13.5 2 9.5 2 9.5 7 8 7 8 8 17.5 8 17.5 9.5-2 9.5-2 5.5 9 5.5 9 3.5 1 3.5 1 7-2 7-2 8.5.5 8.5.5 9.5 13.5 9.5 13.5" style="fill:#1d3545;stroke:#1d3545"/><g style="fill:#151d20;stroke:#151d20"><path d="m596 394l3 1 1-1 1-1v-1.5-1.5-2-2l-1-1.5-1-1.5h-2-2l-1 1.5-1 1.5v2 2l1 1 1 1 .5 1 .5 1"/><path d="m3 387h2l.5-1.5.5-1.5v-2.5-2.5l1-1 1-1-.5-2-.5-2-.5-1.5-.5-1.5h-2-2l-1 .5-1 .5v1.5 1.5l1-.5 1-.5 1.5 1 1.5 1-.5 1.5-.5 1.5-1 1.5-1 1.5-.5 1.5-.5 1.5 1 1.5 1 1.5"/></g><path d="m175 382l27-7 5.5-1 5.5-1-1.5-.5-1.5-.5v-1.5-1.5l-1.5-.5-1.5-.5-1-1.5-1-1.5-1.5-.5-1.5-.5-.5 1-.5 1v1 1 2.5 2.5h-1-1l-.5-1-.5-1-.5-1.5-.5-1.5-.5-.5-.5-.5-1 .5-1 .5v1.5 1.5l-1 1-1 1-1.5-.5-1.5-.5.5-1.5.5-1.5-.5-.5-.5-.5h-1.5-1.5l-1 1-1 1h-1-1l-1-2.5-1-2.5h-1-1l-1 1.5-1 1.5-1 1-1 1-1-.5-1-.5-.5.5-.5.5-.5-.5-.5-.5h-1-1l-.5-.5-.5-.5h-1-1l-.5-1-.5-1h1 1l-.5-.5-.5-.5h-1-1v1.5 1.5 1 1l-.5.5-.5.5v1 1l-.5-1-.5-1-.5-.5-.5-.5-.5.5-.5.5-.5.5-.5.5-3-2.5-3-2.5h-1.5-1.5l-.5-.5-.5-.5h-1-1l-.5.5-.5.5h-1-1l-1-1-1-1v1.5 1.5l-1-1-1-1-1-1-1-1 9.5 7.5 9.5 7.5 9.5 1.5 9.5 1.5" style="fill:#2a4353;stroke:#2a4353"/><path d="m417 382l3 1 .5-1.5.5-1.5 1-1.5 1-1.5v-1-1l1-1.5 1-1.5-.5-1.5-.5-1.5-2 .5-2 .5-.5 1.5-.5 1.5-.5 1.5-.5 1.5-.5 2-.5 2v1 1" style="fill:#1d3545;stroke:#1d3545"/><path d="m696 381h2l.5-1.5.5-1.5 1-1.5 1-1.5 1-1 1-1 1.5-1 1.5-1v2 2l.5 2 .5 2 1.5.5 1.5.5 1 1 1 1v-31.5-31.5-31-31-31-31-31-31-31-31-31.5-31.5-4-4h-27-27-31-31-31-31-19.5-19.5l3.5 21.5 3.5 21.5 10-6 10-6-7.5 11.5-7.5 11.5 12 14 12 14 14.5-1.5 14.5-1.5-6.5 3-6.5 3 1 20 1 20v3.5 3.5l-1.5 12-1.5 12 2.5 12 2.5 12-4.5 8-4.5 8 10-2.5 10-2.5 1.5-17 1.5-17 1.5 8 1.5 8 5 9.5 5 9.5 5.5-15 5.5-15 3 17.5 3 17.5 13.5 13 13.5 13-2 8.5-2 8.5-11.5-15-11.5-15-7.5 2-7.5 2 9.5 3.5 9.5 3.5 8 15 8 15 4 12 4 12 4.5-19 4.5-19 4 13.5 4 13.5 7 13.5 7 13.5-7-3.5-7-3.5-9.5 1-9.5 1 5 11.5 5 11.5 2 7.5 2 7.5-1 3.5-1 3.5 7.5-11 7.5-11 11 1.5 11 1.5 4.5 11 4.5 11-.5-7-.5-7 5.5 7 5.5 7-7.5 2-7.5 2 4.5 16 4.5 16 6.5 5.5 6.5 5.5" style="fill:#141615;stroke:#141615"/><path d="m199 373h2v-2.5-2.5-1-1l.5-1 .5-1 1.5-.5 1.5-.5-1.5-.5-1.5-.5-1-1.5-1-1.5-.5-1.5-.5-1.5-1-1-1-1-1.5 1-1.5 1-1 1-1 1-.5 1-.5 1 .5 1.5.5 1.5 1 2.5 1 2.5 1-.5 1-.5.5.5.5.5.5 1.5.5 1.5.5 1 .5 1" style="fill:#274760;stroke:#274760"/><path d="m158 372l1-1 .5-.5.5-.5.5.5.5.5.5 1 .5 1v-1-1l.5-.5.5-.5v-1-1-1.5-1.5h1 1l.5.5.5.5h-1-1l.5 1 .5 1h1 1l.5.5.5.5h1 1l.5.5.5.5.5-.5.5-.5 1 .5 1 .5 1-1 1-1h-2-2l.5-1 .5-1v-1.5-1.5l-2.5-.5-2.5-.5-1-1-1-1-1.5.5-1.5.5-2-.5-2-.5v-1-1l1-1 1-1 .5-2 .5-2h-2-2l-1.5-1.5-1.5-1.5h-1-1l-1.5.5-1.5.5v1 1h1 1l1 .5 1 .5h1 1v1 1h-1-1-1-1l-1-.5-1-.5-.5-.5-.5-.5-.5.5-.5.5h-1-1l-1-.5-1-.5-.5-.5-.5-.5-.5-.5-.5-.5h-1-1-.5-.5l-.5-1.5-.5-1.5-.5-.5-.5-.5.5-1 .5-1-.5-1-.5-1-1-1.5-1-1.5-1.5-.5-1.5-.5v1.5 1.5 2 2l-1.5-.5-1.5-.5-.5-1-.5-1v-1.5-1.5h-1-1v-1-1h-1-1-1-1l-.5-1-.5-1h-1.5-1.5-1.5-1.5l-.5 1-.5 1h-1-1-1-1v1 1l.5 1 .5 1 .5-.5.5-.5.5.5.5.5h1 1l.5 1 .5 1v1 1l.5 1.5.5 1.5v.5.5l8-1 8-1 2 .5 2 .5-.5 1.5-.5 1.5.5 2 .5 2 1 1 1 1-1 1.5-1 1.5v1.5 1.5l1 1 1 1 1 1 1 1v-1.5-1.5l.5-2.5.5-2.5-.5-1.5-.5-1.5 1-1.5 1-1.5.5 1.5.5 1.5.5 1.5.5 1.5 1.5 1 1.5 1 1 1 1 1 1 1.5 1 1.5 3 2.5 3 2.5" style="fill:#24435c;stroke:#24435c"/><path d="m189 372l3 1 1-1 1-1v-1.5-1.5l-1-2.5-1-2.5-.5-1.5-.5-1.5.5-1 .5-1 1-1 1-1 1.5-1 1.5-1 1 1 1 1 .5 1.5.5 1.5 1 1.5 1 1.5 1.5.5 1.5.5 10-2.5 10-2.5 1 .5 1 .5.5.5.5.5-1 .5-1 .5-.5.5-.5.5 1.5 1 1.5 1 1-1 1-1 1-2 1-2 .5-1 .5-1 1.5-1 1.5-1 .5-1.5.5-1.5 1-1.5 1-1.5 1.5-.5 1.5-.5 2 .5 2 .5 1.5-.5 1.5-.5.5-1.5.5-1.5 15.5-7 15.5-7 11-5.5 11-5.5 1-.5 1-.5 1-.5 1-.5-1-1-1-1h-1-1l.5-1 .5-1 1.5-.5 1.5-.5v-1.5-1.5l-.5-1.5-.5-1.5v-2-2l.5-.5.5-.5 1-.5 1-.5 1 1.5 1 1.5 3.5-7 3.5-7v-2-2l1.5-.5 1.5-.5 1-.5 1-.5h-1-1l-.5-2-.5-2-1.5-.5-1.5-.5-1-1.5-1-1.5v-2-2l-.5-1.5-.5-1.5-1.5-1-1.5-1-1-.5-1-.5h-1-1-1-1l-4-8-4-8-1-9.5-1-9.5v-.5-.5-1.5-1.5l-1-1-1-1-1-1.5-1-1.5-.5-1.5-.5-1.5-1.5-1-1.5-1-1-1-1-1-.5-1.5-.5-1.5v-1.5-1.5l-.5-2-.5-2-.5-1.5-.5-1.5-1-.5-1-.5-1-.5-1-.5-.5-.5-.5-.5-16.5-19.5-16.5-19.5-1 .5-1 .5-.5 1.5-.5 1.5-1.5 1-1.5 1-1 1-1 1-1.5-.5-1.5-.5-16-4.5-16-4.5v-2-2-1.5-1.5l-1.5.5-1.5.5-.5 1.5-.5 1.5-.5 1.5-.5 1.5-2 .5-2 .5-1.5.5-1.5.5-2-.5-2-.5-1.5.5-1.5.5-2 .5-2 .5-1.5-.5-1.5-.5-1 .5-1 .5-.5.5-.5.5-2.5 3.5-2.5 3.5-1 1-1 1-2-.5-2-.5-1-1-1-1v-2-2h-1-1-1.5-1.5l-1 1-1 1-.5 2-.5 2 1 1 1 1v2 2l-.5 1.5-.5 1.5-1-1-1-1-.5-2-.5-2h-2-2l-2 .5-2 .5-.5.5-.5.5v1.5 1.5 2 2l-1.5-.5-1.5-.5-1.5-1.5-1.5-1.5h-1-1l-.5 1-.5 1 1.5 1 1.5 1-.5 1.5-.5 1.5-1.5-.5-1.5-.5-.5-1-.5-1-1-1-1-1-1.5 1-1.5 1-1 1-1 1-.5 2-.5 2-1 1-1 1-1 .5-1 .5-1 .5-1 .5-1.5-.5-1.5-.5-.5-.5-.5-.5v-1-1-1-1l.5-1 .5-1 .5-1.5.5-1.5-.5-.5-.5-.5-1-.5-1-.5-.5 1.5-.5 1.5v1 1l-.5 1-.5 1v2 2l-.5-.5-.5-.5-1.5-.5-1.5-.5-3 12-3 12v-2-2l.5-.5.5-.5 1-.5 1-.5.5-.5.5-.5.5-.5.5-.5v-1-1l-.5-1-.5-1h-1-1l-.5-.5-.5-.5-.5-.5-.5-.5-.5-1-.5-1h-8-8l4.5 10.5 4.5 10.5-1.5 1.5-1.5 1.5.5 2 .5 2 1.5.5 1.5.5-.5 1.5-.5 1.5-.5 1-.5 1 .5 1.5.5 1.5.5 3 .5 3v.5.5l1 .5 1 .5v1.5 1.5l-.5.5-.5.5v1 1l.5.5.5.5.5 1 .5 1 .5.5.5.5v2 2 .5.5l10.5 27 10.5 27v2 2 1.5 1.5 2 2l10.5 11.5 10.5 11.5 1 .5 1 .5.5 1 .5 1 1 1.5 1 1.5 1-1 1-1 1.5.5 1.5.5.5.5.5.5.5-1 .5-1 2 1 2 1h1 1l9 7 9 7 6.5 2.5 6.5 2.5h1.5 1.5l.5.5.5.5-.5 1.5-.5 1.5" style="fill:#345368;stroke:#345368"/><path d="m210 372l3 1 .5-.5.5-.5v-.5-.5l1-1 1-1v-1-1l.5-1 .5-1h1 1l.5-.5.5-.5.5-1 .5-1 1-1 1-1 1-1 1-1-10 2.5-10 2.5-1.5.5-1.5.5 1.5.5 1.5.5 1 1.5 1 1.5 1.5.5 1.5.5v1.5 1.5" style="fill:#2d4757;stroke:#2d4757"/><path d="m214 371v1l15-5.5 15-5.5 4-2 4-2-1 1-1 1-.5-1.5-.5-1.5-1.5-1-1.5-1-1 1-1 1-1.5 1-1.5 1v2 2l-.5.5-.5.5v-1.5-1.5l-.5 1-.5 1-.5.5-.5.5-.5-.5-.5-.5v-1-1l-.5-1-.5-1-.5.5-.5.5.5.5.5.5-.5.5-.5.5-1 .5-1 .5-.5-.5-.5-.5.5-.5.5-.5-.5-1-.5-1-1 2-1 2-1 1-1 1-1.5-1-1.5-1 .5-.5.5-.5 1-.5 1-.5-.5-.5-.5-.5-1-.5-1-.5-1 1-1 1-1 1-1 1-.5 1-.5 1-.5.5-.5.5h-1-1l-.5 1-.5 1v1 1l-1 1-1 1" style="fill:#2a4353;stroke:#2a4353"/><path d="m182 370h2l1-1 1-1-6.5-2.5-6.5-2.5v1.5 1.5l-.5 1-.5 1h2 2l1-1.5 1-1.5h1 1l1 2.5 1 2.5" style="fill:#274760;stroke:#274760"/><path d="m143 367h2l.5-.5.5-.5h1 1l.5.5.5.5h1.5 1.5l-1-1.5-1-1.5-1-1-1-1-1.5-1-1.5-1-.5-1.5-.5-1.5-.5-1.5-.5-1.5-1 1.5-1 1.5.5 1.5.5 1.5-.5 2.5-.5 2.5 1 1 1 1" style="fill:#1d3545;stroke:#1d3545"/><path d="m240 363l1-1v-2-2l1.5-1 1.5-1 1-1 1-1 1.5 1 1.5 1 .5 1.5.5 1.5 1-1 1-1v-1.5-1.5l.5-1.5.5-1.5-1.5-1-1.5-1 .5-1.5.5-1.5 2 .5 2 .5 1-1 1-1 1.5 1 1.5 1-.5 1.5-.5 1.5-2-.5-2-.5v1 1 2 2h.5.5 1 1l1-1 1-1 1 1.5 1 1.5 1.5.5 1.5.5.5-2 .5-2v-1-1l-1-.5-1-.5 1.5-.5 1.5-.5 1 1 1 1 2-.5 2-.5 1-.5 1-.5 18-7.5 18-7.5 10-2.5 10-2.5 10-6 10-6-1.5-8.5-1.5-8.5-3.5-8.5-3.5-8.5-6-10.5-6-10.5.5-1 .5-1 1-1 1-1-2.5-1-2.5-1-.5-1.5-.5-1.5-1-1.5-1-1.5-1.5-.5-1.5-.5-1-1.5-1-1.5-.5-1-.5-1-1 .5-1 .5-2-.5-2-.5-1.5-.5-1.5-.5-.5 1.5-.5 1.5 1.5 10 1.5 10 1.5 1 1.5 1 .5 1.5.5 1.5v2 2l1 1.5 1 1.5 1.5.5 1.5.5.5 2 .5 2h1 1l-1 .5-1 .5-1.5.5-1.5.5v2 2l-3 9.5-3 9.5-.5-2.5-.5-2.5-1-1.5-1-1.5-1 .5-1 .5-.5.5-.5.5v2 2l.5 1.5.5 1.5v1.5 1.5l-1.5.5-1.5.5-.5 1-.5 1h1 1l1 1 1 1-1 .5-1 .5-1 .5-1 .5-6.5 9-6.5 9-9 5-9 5-1-.5-1-.5-1-.5-1-.5-1-1.5-1-1.5-1.5.5-1.5.5-1.5 1-1.5 1-1.5-.5-1.5-.5-.5-1-.5-1-1 1-1 1h-2-2l-.5 1.5-.5 1.5-1.5.5-1.5.5-2-.5-2-.5-1.5.5-1.5.5-1 1.5-1 1.5-.5 1.5-.5 1.5-1.5 1-1.5 1-.5 1-.5 1 .5 1 .5 1-.5.5-.5.5.5.5.5.5 1-.5 1-.5.5-.5.5-.5-.5-.5-.5-.5.5-.5.5-.5.5 1 .5 1v1 1l.5.5.5.5.5-.5.5-.5.5-1 .5-1v1.5 1.5" style="fill:#24435c;stroke:#24435c"/><path d="m168 362l5 1-9-7-9-7 1.5 1.5 1.5 1.5h2 2l-.5 2-.5 2-1 1-1 1v1 1l2 .5 2 .5 1.5-.5 1.5-.5 1 1 1 1" style="fill:#274760;stroke:#274760"/><g style="fill:#2a4353;stroke:#2a4353"><path d="m119 361l3 1 1-1 1-1 .5-2 .5-2 1-1 1-1h1.5 1.5l.5 1.5.5 1.5 1.5-1 1.5-1v-1-1l-1-1-1-1 .5-1.5.5-1.5-8 1-8 1-.5 3-.5 3 1 1 1 1 .5 1.5.5 1.5"/><path d="m262 358l3 1 1.5-.5 1.5-.5 1-1.5 1-1.5.5-1.5.5-1.5 2-.5 2-.5v-1-1l-1 .5-1 .5-2 .5-2 .5-1-1-1-1-1.5.5-1.5.5 1 .5 1 .5v1 1l-.5 2-.5 2-1.5-.5-1.5-.5-1-1.5-1-1.5-1 1-1 1h-1-1l1 1 1 1 1.5.5 1.5.5h.5.5"/></g><path d="m146 354h2l.5-.5.5-.5.5.5.5.5 1 .5 1 .5h1 1 1 1v-1-1h-1-1l-1-.5-1-.5h-1-1v-1-1l1.5-.5 1.5-.5-2-1-2-1-.5 1-.5 1-.5-.5-.5-.5-1.5-.5-1.5-.5-1 1-1 1-1-1.5-1-1.5-.5-1-.5-1-1-.5-1-.5.5 1 .5 1-.5 1-.5 1 .5.5.5.5.5 1.5.5 1.5h.5.5 1 1l.5.5.5.5.5.5.5.5 1 .5 1 .5" style="fill:#274760;stroke:#274760"/><path d="m187 350l27-3 9.5-3 9.5-3 15-13 15-13-32 15-32 15-18.5-4.5-18.5-4.5-12-11.5-12-11.5-9.5-13-9.5-13-.5-25-.5-25-2.5.5-2.5.5-1 1.5-1 1.5 1 1 1 1-1.5 1-1.5 1-1 1-1 1v2 2l3.5 17 3.5 17 .5 1 .5 1v1 1 1 1l1 .5 1 .5.5 1.5.5 1.5.5-.5.5-.5 1-.5 1-.5.5-.5.5-.5.5.5.5.5-.5 1-.5 1-.5 1.5-.5 1.5v1 1l-1 .5-1 .5-1.5.5-1.5.5 12.5 12.5 12.5 12.5 17.5 11.5 17.5 11.5h5 5" style="fill:#456881;stroke:#456881"/><path d="m116 348l1 1-.5-1.5-.5-1.5v-1-1l-.5-1-.5-1h-1-1l-.5-.5-.5-.5-.5.5-.5.5-.5-1-.5-1v-1-1h1 1 1 1l.5-1 .5-1h1.5 1.5l-1-.5-1-.5-1 .5-1 .5-1.5.5-1.5.5-.5-.5-.5-.5-.5-1-.5-1v-1.5-1.5l-.5 1-.5 1-.5 1.5-.5 1.5-.5.5-.5.5-.5 1-.5 1-1 .5-1 .5-.5 1.5-.5 1.5 1.5.5 1.5.5h1 1l2 .5 2 .5 1 1 1 1 1.5.5 1.5.5" style="fill:#2a4353;stroke:#2a4353"/><g style="fill:#274760;stroke:#274760"><path d="m272 347l18-10 6.5-9 6.5-9-11 5.5-11 5.5-15.5 7-15.5 7h2 2l1-1 1-1 .5 1 .5 1 1.5.5 1.5.5 1.5-1 1.5-1 1.5-.5 1.5-.5 1 1.5 1 1.5 1 .5 1 .5 1 .5 1 .5"/><path d="m129 345l3 1v-2-2-1.5-1.5l1.5.5 1.5.5 1 1.5 1 1.5-10.5-11.5-10.5-11.5-2-.5-2-.5-1-.5-1-.5v1 1l.5 1 .5 1-1.5.5-1.5.5.5 1 .5 1 1.5.5 1.5.5v1.5 1.5l-1.5 1-1.5 1v1.5 1.5l.5 1 .5 1 .5.5.5.5 1.5-.5 1.5-.5 1-.5 1-.5 1 .5 1 .5h1.5 1.5l.5 1 .5 1h1 1 1 1v1 1h1 1v1.5 1.5l.5 1 .5 1"/></g><path d="m199 345l64-30 .5-1 .5-1 10-27 10-27-1-.5-1-.5-4.5-17-4.5-17-13.5-14.5-13.5-14.5-18-8.5-18-8.5-16.5 2.5-16.5 2.5-13 7-13 7-16 19.5-16 19.5-.5.5-.5.5.5 25 .5 25 9.5 13 9.5 13 12 11.5 12 11.5 18.5 4.5 18.5 4.5" style="fill:#537489;stroke:#537489"/><path d="m89 344h2l1-1 1-1 1.5 1 1.5 1 1-1 1-1 1-1.5 1-1.5 1.5-.5 1.5-.5v.5.5l.5-1 .5-1-2-.5-2-.5-1.5-.5-1.5-.5.5 1 .5 1v1 1l-2 .5-2 .5-.5-1.5-.5-1.5v-1.5-1.5h2 2l1-2 1-2-1-.5-1-.5-1.5-.5-1.5-.5-2-.5-2-.5-1.5-.5-1.5-.5v1.5 1.5l.5 1.5.5 1.5 1 1.5 1 1.5-1.5.5-1.5.5 1 1.5 1 1.5v1 1l-.5 1.5-.5 1.5h.5.5" style="fill:#2a4353;stroke:#2a4353"/><path d="m233 341l32-16 8-12 8-12 11-13 11-13-7.5-7.5-7.5-7.5v-5.5-5.5l-1 .5-1 .5-1 1.5-1 1.5-.5 1.5-.5 1.5.5 1.5.5 1.5-8 27-8 27-1-.5-1-.5-1 .5-1 .5-.5 1-.5 1-15 13-15 13" style="fill:#3f627c;stroke:#3f627c"/><path d="m103 340l2-1 .5-1 .5-1 .5-.5.5-.5.5-1.5.5-1.5.5-1 .5-1 1.5-1 1.5-1v-1.5-1.5l-1.5-.5-1.5-.5-.5-1-.5-1 1.5-.5 1.5-.5-.5-1-.5-1v-1-1l1 .5 1 .5 2 .5 2 .5v-2-2-1.5-1.5-2-2l-2-.5-2-.5v2 2h-1.5-1.5l-1-1-1-1-1-1.5-1-1.5-1 1-1 1 .5 2 .5 2-1 1-1 1-2-.5-2-.5-.5-1.5-.5-1.5-1-1-1-1-1-1-1-1v1.5 1.5l3 10 3 10-1 2-1 2h-2-2v1.5 1.5l.5 1.5.5 1.5 2-.5 2-.5v-1-1l-.5-1-.5-1 1.5.5 1.5.5 2 .5 2 .5-.5 1-.5 1v.5.5" style="fill:#24435c;stroke:#24435c"/><path d="m193 338l44-12 15-16 15-16 3.5-20.5 3.5-20.5-9.5-20.5-9.5-20.5-17-12-17-12-24 1.5-24 1.5-16.5 11.5-16.5 11.5-10 20-10 20 6.5 21.5 6.5 21.5 13 15 13 15 17 5.5 17 5.5" style="fill:#7395aa;stroke:#7395aa"/><path d="m189 332l47-11 14-15 14-15 .5-23.5.5-23.5-10.5-19.5-10.5-19.5-21.5-8.5-21.5-8.5-21 8.5-21 8.5-14 17-14 17 1 23 1 23 13 18 13 18 15 5.5 15 5.5" style="fill:#97b7ca;stroke:#97b7ca"/><path d="m183 326l51-9 4.5-3 4.5-3v-.5-.5l10-20 10-20-6-24.5-6-24.5-41-9.5-41-9.5-1.5 1.5-1.5 1.5-1.5.5-1.5.5-1.5 1-1.5 1-1 1-1 1-1.5.5-1.5.5-1 1-1 1-5.5 41.5-5.5 41.5 1 1 1 1 1 1.5 1 1.5 1 1 1 1 1 1.5 1 1.5 1 1 1 1 1 1.5 1 1.5 1 1 1 1 1.5.5 1.5.5-11-19.5-11-19.5 4.5-25 4.5-25 17.5-13 17.5-13 24 2.5 24 2.5 14 16.5 14 16.5-.5 25-.5 25-34.5 19-34.5 19-3-.5-3-.5h-2-2l-2.5-1-2.5-1 .5 1 .5 1 1 .5 1 .5h2.5 2.5l1.5.5 1.5.5" style="fill:#dbf1f0;stroke:#dbf1f0"/><path d="m187 325l69-38 .5-25 .5-25-14-16.5-14-16.5-24-2.5-24-2.5-17.5 13-17.5 13-4.5 25-4.5 25 11 19.5 11 19.5 1.5 1 1.5 1 1.5 1 1.5 1 1.5.5 1.5.5 2 1.5 2 1.5 2.5 1 2.5 1h2 2l3 .5 3 .5" style="fill:#fffff0;stroke:#fffff0"/><path d="m171 323l2 1-.5-1-.5-1-2-1.5-2-1.5-1.5-.5-1.5-.5-1.5-1-1.5-1-1.5-1-1.5-1-1.5-.5-1.5-.5-1-1-1-1-1-1.5-1-1.5-1-1-1-1-1-1.5-1-1.5-1-1-1-1-1-1.5-1-1.5-1-1-1-1 14.5 13.5 14.5 13.5" style="fill:#bad7e8;stroke:#bad7e8"/><path d="m98 314l4 1 1-1 1-1-.5-2-.5-2 1-1 1-1 1 1.5 1 1.5 1 1 1 1h1.5 1.5v-2-2l2 .5 2 .5-10.5-27-10.5-27-2 24.5-2 24.5 1 1.5 1 1.5 1 1 1 1 1 1 1 1 .5 1.5.5 1.5" style="fill:#274760;stroke:#274760"/><path d="m268 313l16-54-10 27-10 27 1-.5 1-.5 1 .5 1 .5" style="fill:#456881;stroke:#456881"/><path d="m75 312h2l.5-1.5.5-1.5 2-.5 2-.5 1.5-.5 1.5-.5 2 .5 2 .5 1.5.5 1.5.5.5.5.5.5v-1.5-1.5l-1-1.5-1-1.5h-2-2l-1.5.5-1.5.5-2-.5-2-.5h-2-2l-1 1.5-1 1.5-.5 1.5-.5 1.5 1 1 1 1" style="fill:#2a4353;stroke:#2a4353"/><path d="m243 310v1l11-19.5 11-19.5-5-25-5-25-17.5-13.5-17.5-13.5-24 2-24 2-1.5 1.5-1.5 1.5 41 9.5 41 9.5 6 24.5 6 24.5-10 20-10 20" style="fill:#bad7e8;stroke:#bad7e8"/><path d="m312 308l6-19-3.5 7-3.5 7 .5 2.5.5 2.5" style="fill:#274760;stroke:#274760"/><path d="m80 304l4 1 1.5-.5 1.5-.5h2 2l2-24.5 2-24.5v-.5-.5h-1.5-1.5l-1.5-.5-1.5-.5h-1-1l-1-1.5-1-1.5-.5-1.5-.5-1.5.5-2 .5-2 .5-.5.5-.5.5 1 .5 1-.5 1.5-.5 1.5 1.5 1 1.5 1 1-1 1-1-.5-2-.5-2 .5-2 .5-2v-.5-.5l-1.5-1-1.5-1-.5 1.5-.5 1.5h-1-1l2.5-11.5 2.5-11.5-4.5-10.5-4.5-10.5h8 8l2 1 2 1 .5-1.5.5-1.5-1-1.5-1-1.5-1-1-1-1 1.5-1 1.5-1h1.5 1.5l1.5.5 1.5.5.5.5.5.5v-2-2l.5-1 .5-1v-1-1l.5-1.5.5-1.5 1 .5 1 .5.5.5.5.5-.5 1.5-.5 1.5-.5 1-.5 1v1 1 1 1l.5.5.5.5 1.5.5 1.5.5 1-.5 1-.5v-.5-.5-1-1-1-1l.5-.5.5-.5v-1-1l-.5-1-.5-1 .5-1.5.5-1.5-1-.5-1-.5-16.5.5-16.5.5-10.5 3.5-10.5 3.5-3 13-3 13 4.5 8.5 4.5 8.5 1.5 10.5 1.5 10.5 2.5 15.5 2.5 15.5 8.5 10.5 8.5 10.5-5 2-5 2" style="fill:#24435c;stroke:#24435c"/><path d="m117 301v1l1.5-.5 1.5-.5 1-.5 1-.5v-1-1l.5-1.5.5-1.5.5-1 .5-1-.5-.5-.5-.5-.5.5-.5.5-1 .5-1 .5-.5.5-.5.5-.5-1.5-.5-1.5-1-.5-1-.5v-1-1-1-1l-.5-1-.5-1v3 3l-.5 2-.5 2 1 1 1 1v1.5 1.5l.5.5.5.5" style="fill:#3f627c;stroke:#3f627c"/><path d="m141 295l1 1 5.5-41.5 5.5-41.5-10.5 21-10.5 21 4.5 20 4.5 20" style="fill:#bad7e8;stroke:#bad7e8"/><path d="m402 287l3 1 1-1 1-1v-1.5-1.5l-1-1-1-1-1.5-1-1.5-1-1.5-.5-1.5-.5-1.5 1-1.5 1 .5 1.5.5 1.5.5 1.5.5 1.5 2 .5 2 .5" style="fill:#1d3545;stroke:#1d3545"/><path d="m114 284l1 1-3.5-17-3.5-17v2 2l-.5 2-.5 2v2 2l-1 1.5-1 1.5v2 2l.5 1.5.5 1.5 1 1.5 1 1.5 1 1 1 1 1 1.5 1 1.5.5 1.5.5 1.5h.5.5" style="fill:#3f627c;stroke:#3f627c"/><path d="m672 280l3 1 .5-1.5.5-1.5-.5-2-.5-2-.5-1.5-.5-1.5v-1.5-1.5l-1-1-1-1-1 1.5-1 1.5-1 1-1 1v2 2l1.5 1 1.5 1 .5 1.5.5 1.5" style="fill:#151d20;stroke:#151d20"/><path d="m305 265h2 1 1l1 .5 1 .5-1.5-10-1.5-10v-.5-.5l-.5-1-.5-1 1.5-1 1.5-1 .5-.5.5-.5-.5-2-.5-2-1-1-1-1-.5-1-.5-1h-2-2-2.5-2.5-1-1l-.5-1-.5-1 1 9.5 1 9.5 4 8 4 8" style="fill:#274760;stroke:#274760"/><path d="m336 265l-4-7-1 1-1 1-.5 1-.5 1 2-1 2-1h1 1l.5 2 .5 2v.5.5" style="fill:#2a4353;stroke:#2a4353"/><path d="m654 263l19-15-10-1-10-1 .5 8.5.5 8.5" style="fill:#151d20;stroke:#151d20"/><path d="m282 258l2 1-.5-1.5-.5-1.5.5-1.5.5-1.5 1-1.5 1-1.5 1-.5 1-.5v-.5-.5l-10-20-10-20-1.5-.5-1.5-.5h-1-1l-20.5-16.5-20.5-16.5-19.5-2-19.5-2-12.5 6.5-12.5 6.5-6 5.5-6 5.5-3.5-1.5-3.5-1.5-10 22.5-10 22.5 16-19.5 16-19.5 13-7 13-7 16.5-2.5 16.5-2.5 18 8.5 18 8.5 13.5 14.5 13.5 14.5 4.5 17 4.5 17" style="fill:#456881;stroke:#456881"/><path d="m87 253h2l1.5.5 1.5.5h1.5 1.5v-2-2l-.5-.5-.5-.5-.5-1-.5-1-.5-.5-.5-.5v-1-1l.5-.5.5-.5v-1.5-1.5l-1-.5-1-.5-.5 2-.5 2 .5 2 .5 2-1 1-1 1-1.5-1-1.5-1 .5-1.5.5-1.5-.5-1-.5-1-.5.5-.5.5-.5 2-.5 2 .5 1.5.5 1.5 1 1.5 1 1.5" style="fill:#274760;stroke:#274760"/><g style="fill:#3f627c;stroke:#3f627c"><path d="m106 250l2 1v-2-2l1-1 1-1 1.5-1 1.5-1-1-1-1-1 1-1.5 1-1.5 2.5-.5 2.5-.5.5-.5.5-.5 10-22.5 10-22.5-13.5 3.5-13.5 3.5-3.5 16.5-3.5 16.5.5 9.5.5 9.5"/><path d="m288 248v1l-7.5-15-7.5-15-2.5-5.5-2.5-5.5 10 20 10 20"/></g><path d="m308 245v1l.5-1.5.5-1.5 1.5.5 1.5.5 2 .5 2 .5 1-.5 1-.5.5-1 .5-1v-2-2-1.5-1.5l.5-1.5.5-1.5 1-1 1-1-1.5-1-1.5-1-1 1-1 1-1 1.5-1 1.5-1.5-.5-1.5-.5-1.5-1-1.5-1-.5-1.5-.5-1.5-.5 2.5-.5 2.5.5 1 .5 1 1 1 1 1 .5 2 .5 2-.5.5-.5.5-1.5 1-1.5 1 .5 1 .5 1" style="fill:#2a4353;stroke:#2a4353"/><path d="m355 241l3 1 1-1 1-1v-2.5-2.5l-1-1-1-1h-1.5-1.5l-1.5.5-1.5.5-1.5 1-1.5 1v1 1h2 2l1 1.5 1 1.5" style="fill:#192932;stroke:#192932"/><path d="m85 239h2l.5-1.5.5-1.5 1.5 1 1.5 1-.5-3-.5-3-.5-1.5-.5-1.5.5-1 .5-1 .5-1.5.5-1.5-1.5-.5-1.5-.5-.5-2-.5-2 1.5-1.5 1.5-1.5-2.5 11.5-2.5 11.5" style="fill:#274760;stroke:#274760"/><path d="m296 232h2 2.5 2.5 2 2l.5-2.5.5-2.5-2-.5-2-.5.5-2 .5-2v-1-1-1.5-1.5h-1-1l-1 1-1 1h-1-1-1-1l-.5 1-.5 1 .5.5.5.5.5.5.5.5h-1-1v1.5 1.5l.5.5.5.5v1 1l-1 .5-1 .5.5 1 .5 1" style="fill:#24435c;stroke:#24435c"/><path d="m295 229v1l1-.5 1-.5v-1-1l-.5-.5-.5-.5v-1.5-1.5h1 1l-.5-.5-.5-.5-.5-.5-.5-.5.5-1 .5-1h1 1 1 1l1-1 1-1h-.5-.5l-2.5-.5-2.5-.5-.5-1.5-.5-1.5-.5-.5-.5-.5-.5-1-.5-1-1.5-.5-1.5-.5h-1-1l-.5-1-.5-1-1-1-1-1-1.5-.5-1.5-.5.5 2 .5 2v1.5 1.5l.5 1.5.5 1.5 1 1 1 1 1.5 1 1.5 1 .5 1.5.5 1.5 1 1.5 1 1.5 1 1 1 1v1.5 1.5" style="fill:#274760;stroke:#274760"/><path d="m297 216l5 1v-.5-.5l.5-1.5.5-1.5v-1-1l-1-.5-1-.5-1.5-.5-1.5-.5-.5-.5-.5-.5-.5-.5-.5-.5-.5-.5-.5-.5-.5-1-.5-1h-1-1l.5-.5.5-.5.5-.5.5-.5 1 .5 1 .5 1 1 1 1 .5.5.5.5h1.5 1.5l1 .5 1 .5-6-13.5-6-13.5-11.5-10.5-11.5-10.5-6-1.5-6-1.5-.5-.5-.5-.5-.5-1.5-.5-1.5-1-.5-1-.5-.5 1.5-.5 1.5-1 1-1 1-1.5-.5-1.5-.5-1-1-1-1-1-1-1-1-.5-.5-.5-.5-.5.5-.5.5-.5.5-.5.5h-.5-.5-1-1-1-1l.5-.5.5-.5-.5-1-.5-1-1 1-1 1-.5.5-.5.5v1.5 1.5l-1.5.5-1.5.5-.5.5-.5.5-2-1-2-1-.5-1.5-.5-1.5-1.5-.5-1.5-.5h-1.5-1.5l-1.5.5-1.5.5h-2.5-2.5l-1-1-1-1-1 1.5-1 1.5-1.5.5-1.5.5-.5-2-.5-2v1.5 1.5 2 2l21.5 1 21.5 1 9 6 9 6 8 14 8 14 1 .5 1 .5 1 .5 1 .5.5 1.5.5 1.5 1.5.5 1.5.5 1 1 1 1 .5 1 .5 1h1 1l1.5.5 1.5.5.5 1 .5 1 .5.5.5.5.5 1.5.5 1.5" style="fill:#24435c;stroke:#24435c"/><path d="m302 216v1h.5.5 1 1l1-1 1-1 1.5-1 1.5-1 .5-1.5.5-1.5-.5-2-.5-2v-2-2l-1-1.5-1-1.5-1 1-1 1v2 2l-1 1-1 1-1-.5-1-.5h-1.5-1.5l-.5-.5-.5-.5-1-1-1-1-1-.5-1-.5-.5.5-.5.5-.5.5-.5.5h1 1l.5 1 .5 1 .5.5.5.5.5.5.5.5.5.5.5.5 1.5.5 1.5.5 1 .5 1 .5v1 1l-.5 1.5-.5 1.5" style="fill:#2a4353;stroke:#2a4353"/><path d="m98 211l6-24h-1.5-1.5l-1.5 1-1.5 1 1 1 1 1 1 1.5 1 1.5-.5 1.5-.5 1.5-2-1-2-1 .5 1 .5 1 .5.5.5.5.5.5.5.5h1 1l.5 1 .5 1v1 1l-.5.5-.5.5-.5.5-.5.5-1 .5-1 .5-.5.5-.5.5v2 2" style="fill:#274760;stroke:#274760"/><path d="m263 207h2l1.5.5 1.5.5-10-14.5-10-14.5-13-2.5-13-2.5 20.5 16.5 20.5 16.5" style="fill:#3f627c;stroke:#3f627c"/><path d="m603 206l-3-21 2.5 7.5 2.5 7.5-1 3-1 3" style="fill:#151d20;stroke:#151d20"/><path d="m351 205l3 1 1-1 1-1v-2.5-2.5l-1-1-1-1-1-1.5-1-1.5-1.5.5-1.5.5-.5 2-.5 2 .5 1.5.5 1.5.5 1.5.5 1.5h.5.5" style="fill:#1d3545;stroke:#1d3545"/><path d="m277 198l1 1-8-14-8-14-9-6-9-6 16.5 19.5 16.5 19.5" style="fill:#274760;stroke:#274760"/><path d="m625 194h2l1-1 1-1-.5-2-.5-2-.5-1.5-.5-1.5-1-1.5-1-1.5-1-1-1-1-.5 2-.5 2-.5 1.5-.5 1.5v2 2l1.5 1 1.5 1 .5.5.5.5" style="fill:#151d20;stroke:#151d20"/><path d="m117 189v1l1-.5 1-.5 1-1 1-1 .5-2 .5-2 1-1 1-1 1.5-1 1.5-1 1 1 1 1 .5 1 .5 1 1.5.5 1.5.5.5-1.5.5-1.5-1.5-1-1.5-1 .5-1 .5-1-1-1-1-1-.5-.5-.5-.5-.5.5-.5.5v1 1h-1-1l-.5-1-.5-1-.5-.5-.5-.5h-1.5-1.5l-1.5 1.5-1.5 1.5-.5 1.5-.5 1.5.5 1 .5 1v1 1l-.5.5-.5.5v1 1 1 1" style="fill:#274760;stroke:#274760"/><path d="m333 185l-8-34-1-3-1-3 4 18 4 18 1 2 1 2" style="fill:#1d3545;stroke:#1d3545"/><path d="m137 180l3 1v-2-2-1.5-1.5l.5-.5.5-.5 2-.5 2-.5h2 2l.5 2 .5 2 1 1 1 1 .5-1.5.5-1.5h-1.5-1.5v-1-1l-.5-1-.5-1h-2-2-1-1l-.5.5-.5.5h-1-1l-1-.5-1-.5v1 1l-.5.5-.5.5-.5.5-.5.5-1 1-1 1 1.5 1.5 1.5 1.5" style="fill:#274760;stroke:#274760"/><path d="m126 177h2v-1-1l.5-.5.5-.5.5.5.5.5 1 1 1 1h1 1l1-1 1-1 .5-.5.5-.5.5-.5.5-.5v-1-1l1 .5 1 .5h1 1l.5-.5.5-.5h1 1 2 2l.5 1 .5 1v1 1h1.5 1.5v-2-2l-1-1-1-1 .5-2 .5-2 1-1 1-1h1.5 1.5 1 1v2 2l1 1 1 1 2 .5 2 .5 1-1 1-1-.5-.5-.5-.5v-1.5-1.5l-1-1-1-1h-1-1l-1-.5-1-.5 1-1 1-1 1.5-.5 1.5-.5v-1-1l1 .5 1 .5 1 1 1 1 .5.5.5.5 1 .5 1 .5.5-.5.5-.5v-.5-.5l-.5-1-.5-1-.5-1-.5-1 .5-1.5.5-1.5h1 1l.5 1 .5 1 .5 1.5.5 1.5h1 1l.5-.5.5-.5.5-1 .5-1v-2-2l-.5-.5-.5-.5-.5-1-.5-1 1-1.5 1-1.5-7.5 1-7.5 1-8.5 6.5-8.5 6.5-16 8.5-16 8.5 1 .5 1 .5 1.5-1.5 1.5-1.5h1.5 1.5l.5.5.5.5.5 1 .5 1" style="fill:#2a4353;stroke:#2a4353"/><path d="m166 167l1 1 2.5-3.5 2.5-3.5-1-.5-1-.5-.5-.5-.5-.5-1-1-1-1-1-.5-1-.5v1 1l-1.5.5-1.5.5-1 1-1 1 1 .5 1 .5h1 1l1 1 1 1v1.5 1.5" style="fill:#2d4757;stroke:#2d4757"/><path d="m233 166l3 1 1-1 1-1 1.5-1 1.5-1 .5-1.5.5-1.5 1-.5 1-.5-21.5-1-21.5-1 16 4.5 16 4.5" style="fill:#274760;stroke:#274760"/><path d="m508 162l10-26-5.5 12.5-5.5 12.5.5.5.5.5" style="fill:#141615;stroke:#141615"/><path d="m173 159v1l1-.5 1-.5 1.5.5 1.5.5 2-.5 2-.5 1.5-.5 1.5-.5 2 .5 2 .5 1.5-.5 1.5-.5 2-.5 2-.5.5-1.5.5-1.5.5-1.5.5-1.5 1.5-.5 1.5-.5v-1.5-1.5l-2 .5-2 .5v1 1l-.5 1-.5 1-1.5.5-1.5.5v1.5 1.5h-1-1l.5-1.5.5-1.5-1-1-1-1-1.5 1-1.5 1h2 2l-1 1.5-1 1.5-1.5-.5-1.5-.5-1-1.5-1-1.5v-1-1l-.5-1.5-.5-1.5-.5-1.5-.5-1.5h-1-1l-1 1.5-1 1.5.5 1 .5 1 .5.5.5.5v2 2l-.5 1-.5 1-.5.5-.5.5h-1-1l-.5-1.5-.5-1.5-.5-1-.5-1h-1-1l-.5 1.5-.5 1.5.5 1 .5 1 .5 1 .5 1" style="fill:#2d4757;stroke:#2d4757"/><g style="fill:#2a4353;stroke:#2a4353"><path d="m228 157l1-1 1.5-.5 1.5-.5v-1.5-1.5l.5-.5.5-.5 1-1 1-1 .5 1 .5 1-.5.5-.5.5h1 1 1 1 .5.5l.5-.5.5-.5.5-.5.5-.5.5.5.5.5 1 1 1 1 1 1 1 1-9.5-4-9.5-4-4 2-4 2 1.5.5 1.5.5.5 1.5.5 1.5 2 1 2 1"/><path d="m191 156h2v-1.5-1.5l1.5-.5 1.5-.5.5-1 .5-1v-1-1l2-.5 2-.5v1.5 1.5l.5 2 .5 2 1.5-.5 1.5-.5 1-1.5 1-1.5 1 1 1 1h2.5 2.5l1.5-.5 1.5-.5h1.5 1.5l-7-2-7-2-14.5-5.5-14.5-5.5 2.5 4 2.5 4 .5 1.5.5 1.5.5 1.5.5 1.5v1 1l1 1.5 1 1.5 1.5.5 1.5.5 1-1.5 1-1.5h-2-2l1.5-1 1.5-1 1 1 1 1-.5 1.5-.5 1.5"/><path d="m256 155l1 1-2-2.5-2-2.5 1 .5 1 .5.5 1.5.5 1.5"/></g><path d="m373 139l-7-31 2.5 14.5 2.5 14.5 1 1 1 1" style="fill:#151d20;stroke:#151d20"/><path d="m479 139l3 1 1-1 1-1 1.5-1 1.5-1 .5-1.5.5-1.5.5-1 .5-1-1-1-1-1-1.5 1-1.5 1-1 1-1 1-1 1-1 1-.5 2-.5 2" style="fill:#141615;stroke:#141615"/><path d="m536 75l3 1 1-1 1-1 .5-2 .5-2 .5-1.5.5-1.5-.5-2-.5-2-1.5-.5-1.5-.5-.5 2-.5 2-1.5.5-1.5.5-.5 1.5-.5 1.5.5 2 .5 2 .5.5.5.5" style="fill:#151d20;stroke:#151d20"/><g style="fill:#141615;stroke:#141615"><path d="m488 26h2l.5-.5.5-.5.5-.5.5-.5v-1.5-1.5-1-1l.5-.5.5-.5.5-.5.5-.5 1-.5 1-.5v-1-1-1-1-1-1l-.5-.5-.5-.5-.5-1-.5-1-.5-.5-.5-.5v-1-1l.5-.5.5-.5-.5-1.5-.5-1.5h-1.5-1.5-2-2-1-1l-1 .5-1 .5.5 1.5.5 1.5.5 2 .5 2v2 2l.5 2 .5 2 .5 1.5.5 1.5v1 1l.5 1.5.5 1.5.5 1 .5 1"/><path d="m40 19h3l.5-1.5.5-1.5 1-1.5 1-1.5h2 2l.5-2 .5-2-.5-1.5-.5-1.5 1.5.5 1.5.5 1-1.5 1-1.5-.5-1-.5-1-.5-1-.5-1h-3-3-2.5-2.5-2-2-2-2l1 1.5 1 1.5.5 2 .5 2 1 1 1 1 .5 1.5.5 1.5-1 1.5-1 1.5-.5 1.5-.5 1.5 1.5.5 1.5.5"/><path d="m457 8h2l1.5-.5 1.5-.5h1.5 1.5l.5-1.5.5-1.5-.5-1-.5-1-1.5-.5-1.5-.5h-2.5-2.5l-.5 1.5-.5 1.5.5 1.5.5 1.5v.5.5"/></g></g></svg>