<svg xmlns="http://www.w3.org/2000/svg" viewBox="0 0 712 960"><g style="fill:#190f01"><path d="m0 0h712v960h-712z"/><path d="m0 959v1h21.5 21.5 22 22 22.5 22.5 22 22 22.5 22.5 22 22 22 22 22.5 22.5 22 22 19.5 19.5v-.5-.5l9-4 9-4 1-5 1-5 13.5 9.5 13.5 9.5h2.5 2.5 2.5 2.5 2 2 2.5 2.5 2 2 2.5 2.5.5.5v-.5-.5l-10.5-3-10.5-3 9-2 9-2 9.5-8 9.5-8 10.5-8.5 10.5-8.5.5 7 .5 7 9 2 9 2 9.5 6.5 9.5 6.5 8.5 6.5 8.5 6.5h23 23 22.5 22.5 8 8v-14-14-22-22-22.5-22.5-22-22-19.5-19.5l-17 .5-17 .5v-2-2l1.5-1 1.5-1 .5-1.5.5-1.5 1-1 1-1h1 1 1.5 1.5l1.5-.5 1.5-.5 2-.5 2-.5h2 2l2-.5 2-.5h2 2 2 2v-23-23-22-22-22.5-22.5-22-22-22.5-22.5-22-22-22-22-22.5-22.5-22-22-22.5-22.5-22-22-22-22-22.5-22.5-22-22-22.5-22.5-22-22-17.5-17.5h-4.5-4.5-22.5-22.5-22-22-22.5-22.5-22-22-22-22-22.5-22.5-22-22-22.5-22.5-22-22-22-22-22.5-22.5-22-22-22.5-22.5-22-22-22-22-18.5-18.5v4 4 22 22 22.5 22.5 22 22 22 22 22.5 22.5 22 22 22.5 22.5 22 22 22 22 22.5 22.5 22 22 22.5 22.5 22 22 22 22 22.5 22.5 22 22 22.5 22.5 22 22 22 22 22.5 22.5 22 22 9.5 9.5" style="stroke:#190f01;stroke-linejoin:round;stroke-width:.7"/></g><g style="stroke-linejoin:round;stroke-width:.7"><g style="fill:#2e1f10;stroke:#2e1f10"><path d="m437 959v1h1.5 1.5 2 2 2.5 2.5 2 2 2.5 2.5 2 2 2.5 2.5 2 2 2 2 2.5 2.5 2 2l-13.5-9.5-13.5-9.5-1 5-1 5-9 4-9 4"/><path d="m513 959v1h23.5 23.5 22.5 22.5l-8.5-6.5-8.5-6.5-9.5-6.5-9.5-6.5-9-2-9-2-.5-7-.5-7-10.5 8.5-10.5 8.5-9.5 8-9.5 8-9 2-9 2 10.5 3 10.5 3"/></g><path d="m536 949l9-19-6.5 7.5-6.5 7.5 2 2 2 2" style="fill:#190f01;stroke:#190f01"/><g style="fill:#2e1f10;stroke:#2e1f10"><path d="m18 859l8-24-4.5 7.5-4.5 7.5.5 4.5.5 4.5"/><path d="m87 821l36-6 14-8 14-8 10.5-12 10.5-12 7.5-14.5 7.5-14.5 4.5-11.5 4.5-11.5 7.5-3 7.5-3 4 13 4 13 4.5 14 4.5 14 3.5 6.5 3.5 6.5 8.5-1.5 8.5-1.5 3 8.5 3 8.5 8.5 6.5 8.5 6.5 6.5-4 6.5-4 8.5 1.5 8.5 1.5 7.5 5.5 7.5 5.5 3-10.5 3-10.5 8.5-4.5 8.5-4.5 11 .5 11 .5 1.5 4.5 1.5 4.5 6 4 6 4 5-.5 5-.5 5.5-1.5 5.5-1.5 8.5 5 8.5 5 7 5 7 5 4.5-2.5 4.5-2.5 12-7.5 12-7.5 9.5-3.5 9.5-3.5 6-2.5 6-2.5 3.5-12.5 3.5-12.5 2.5-11.5 2.5-11.5 7.5-7 7.5-7 2.5.5 2.5.5 5.5-4 5.5-4 8.5-5.5 8.5-5.5 8.5-2.5 8.5-2.5 9-11.5 9-11.5 5.5-7.5 5.5-7.5 4-2.5 4-2.5 6-1 6-1 1-6 1-6 9-.5 9-.5 4-9 4-9-.5-8-.5-8-3-5-3-5 11-5 11-5 4-11.5 4-11.5-.5-7.5-.5-7.5 1-6.5 1-6.5 7-9 7-9-2-5-2-5 2.5-3 2.5-3-2-9-2-9-2.5-10-2.5-10 2-7 2-7 1-6 1-6-6-9.5-6-9.5 1.5-7.5 1.5-7.5-6.5-5-6.5-5-10.5-7.5-10.5-7.5-3-11-3-11-7-3.5-7-3.5-6-10-6-10-3.5-6-3.5-6-6-12-6-12-7.5-9.5-7.5-9.5-9.5-9-9.5-9-9.5-4.5-9.5-4.5-12-.5-12-.5-9-8-9-8-12-6-12-6-4.5-3-4.5-3-11-3-11-3-8.5-3-8.5-3-4-2-4-2h-9-9l-13.5-2-13.5-2-10.5-2.5-10.5-2.5-11 2.5-11 2.5-10.5 1.5-10.5 1.5-9 4-9 4-12 5.5-12 5.5-10.5 4.5-10.5 4.5-6.5 5-6.5 5-10 6-10 6-12 6-12 6-8 5.5-8 5.5-10 3-10 3-1 10.5-1 10.5-5.5 12.5-5.5 12.5-3.5 5-3.5 5-6.5 8.5-6.5 8.5-4 8-4 8-10.5 9-10.5 9-2 12-2 12 1.5 9 1.5 9-1 12-1 12 .5 8.5.5 8.5-.5 8-.5 8 .5 10.5.5 10.5 2 9.5 2 9.5 2 10 2 10v6 6l4 7.5 4 7.5 3.5 13.5 3.5 13.5-1.5 12-1.5 12 5.5 7.5 5.5 7.5 6.5 4.5 6.5 4.5 8.5 11 8.5 11 8 9 8 9-1 7.5-1 7.5 8.5 9.5 8.5 9.5v13 13l-8 14.5-8 14.5-11.5 10.5-11.5 10.5-15.5 7-15.5 7h-18-18l-4 3-4 3 10.5 1.5 10.5 1.5"/><path d="m678 761l34-1v-2-2-2-2-2-2-.5-.5h-2-2-2-2l-2 .5-2 .5h-2-2l-2 .5-2 .5-1.5.5-1.5.5h-1.5-1.5-1-1l-1 1-1 1-.5 1.5-.5 1.5-1.5 1-1.5 1v2 2"/></g><g style="fill:#363226;stroke:#363226"><path d="m437 729l19-11 5-4 5-4-5.5-2-5.5-2-9 11.5-9 11.5"/><path d="m297 718l6-12 6 4 6 4h11.5 11.5l10.5-.5 10.5-.5 11-1.5 11-1.5h5 5l11.5-1.5 11.5-1.5 7 2.5 7 2.5 6-5 6-5 8-2.5 8-2.5 8-6 8-6 9-2 9-2 8-5.5 8-5.5 11-5 11-5 7-8.5 7-8.5 9-10 9-10 6 2 6 2 2.5-14 2.5-14 9.5-10.5 9.5-10.5 8-10.5 8-10.5 4.5-8.5 4.5-8.5 3-14 3-14-3-8.5-3-8.5-1.5-13.5-1.5-13.5-1-10.5-1-10.5-1-10-1-10 .5-10.5.5-10.5-6.5-3-6.5-3-8-11-8-11-5.5-11-5.5-11-5-9-5-9-8.5-8.5-8.5-8.5-8-6.5-8-6.5-11-8-11-8-9-6.5-9-6.5-10-6-10-6-8.5-3.5-8.5-3.5-10.5-5-10.5-5-13.5.5-13.5.5-11.5-2-11.5-2-9.5.5-9.5.5-11-2-11-2-15 2.5-15 2.5-11 5-11 5-13 2.5-13 2.5-11 9-11 9-9 4.5-9 4.5-11.5 10.5-11.5 10.5-9.5 9.5-9.5 9.5-8 10.5-8 10.5-7 6-7 6-3 10.5-3 10.5-6.5 8.5-6.5 8.5-1.5 10.5-1.5 10.5-.5 12-.5 12 2 13 2 13-2 11.5-2 11.5 5.5 12.5 5.5 12.5 5 12 5 12 4 14.5 4 14.5 2.5 9.5 2.5 9.5 10 7.5 10 7.5 1.5 10.5 1.5 10.5 8 8 8 8 11.5 7 11.5 7 11 1 11 1 2 7.5 2 7.5 3.5 7.5 3.5 7.5 9 3 9 3 7.5 9 7.5 9 2.5 1.5 2.5 1.5"/></g><path d="m425 675l20-20 11-3 11-3 9.5-10 9.5-10 8.5-1.5 8.5-1.5 8.5-8 8.5-8 9-8 9-8 6.5.5 6.5.5 5.5-11 5.5-11 6-11 6-11 4-11.5 4-11.5 1.5-11.5 1.5-11.5v-8-8l2-10.5 2-10.5-6.5-12.5-6.5-12.5-.5-14-.5-14-7.5-8.5-7.5-8.5-3-9-3-9-8.5-12-8.5-12-9-9-9-9-11-8.5-11-8.5-10.5-7.5-10.5-7.5-13-2-13-2-11.5-9-11.5-9-12.5-1.5-12.5-1.5-13.5-1-13.5-1-16 2-16 2-16.5.5-16.5.5-14 5.5-14 5.5-12 7-12 7-11 9.5-11 9.5-9.5 7.5-9.5 7.5-8 13-8 13-9 8.5-9 8.5-7 13-7 13v14.5 14.5l-2 12-2 12 3.5 13.5 3.5 13.5 4.5 15 4.5 15 6 12 6 12 5 11.5 5 11.5 6.5 8.5 6.5 8.5 6 11 6 11 6.5 6 6.5 6 9 6 9 6 9.5 5 9.5 5 9 7 9 7 9.5 4 9.5 4 11.5.5 11.5.5 10 1 10 1 12.5 1 12.5 1 12.5.5 12.5.5 8.5 2.5 8.5 2.5" style="fill:#43473f;stroke:#43473f"/><path d="m424 659l16-14 9-3 9-3 8-7.5 8-7.5 9-10 9-10 10.5-7 10.5-7 11-9 11-9 5.5-5.5 5.5-5.5 7-8.5 7-8.5 3-11 3-11 3-12.5 3-12.5-3-13-3-13-2-14-2-14-5-11.5-5-11.5-2.5-10.5-2.5-10.5-6-11.5-6-11.5-9.5-8.5-9.5-8.5-7.5-8.5-7.5-8.5-12.5-8-12.5-8-11.5-6.5-11.5-6.5-13-5.5-13-5.5-12-5-12-5-15.5-.5-15.5-.5-14 3.5-14 3.5-12 1-12 1-13 4-13 4-13.5 7-13.5 7-11.5 6.5-11.5 6.5-9 8.5-9 8.5-5.5 11.5-5.5 11.5-7.5 11.5-7.5 11.5-8 11.5-8 11.5.5 14.5.5 14.5 1 14.5 1 14.5.5 10.5.5 10.5 4.5 13.5 4.5 13.5 9 9.5 9 9.5 3.5 13.5 3.5 13.5 11 10.5 11 10.5 7.5 7.5 7.5 7.5 12 10 12 10 13 3.5 13 3.5 11.5 5.5 11.5 5.5 13 2.5 13 2.5 11.5 1.5 11.5 1.5 12-3 12-3 11-.5 11-.5-1.5 5.5-1.5 5.5" style="fill:#53554b;stroke:#53554b"/><path d="m173 653l-10-20-14-8-14-8-11.5 1-11.5 1 17 5 17 5 12 10 12 10 1.5 2 1.5 2" style="fill:#363226;stroke:#363226"/><path d="m362 644l25-1 11-6 11-6 12.5-2 12.5-2 11-1 11-1 8.5-9.5 8.5-9.5 11.5-9 11.5-9 11-8 11-8 5.5-7 5.5-7 9.5-8.5 9.5-8.5v-9-9l5.5-9 5.5-9-3-13-3-13v-11.5-11.5l-1.5-13.5-1.5-13.5-7.5-13.5-7.5-13.5-7.5-11-7.5-11-9.5-11.5-9.5-11.5-8.5-10-8.5-10-11-6-11-6-15-5-15-5-13.5-5-13.5-5-15.5-2.5-15.5-2.5-11 4.5-11 4.5-12.5 1.5-12.5 1.5-15 4-15 4-13 6.5-13 6.5-13 8-13 8-8 11.5-8 11.5-9.5 12.5-9.5 12.5-6.5 12.5-6.5 12.5 1.5 16 1.5 16-1 9-1 9 2.5 15 2.5 15 4.5 12.5 4.5 12.5 8.5 11.5 8.5 11.5 7.5 12 7.5 12 8 10 8 10 10.5 8.5 10.5 8.5 9 5.5 9 5.5 11 5 11 5 13 3.5 13 3.5 8 2 8 2-.5.5-.5.5" style="fill:#606963;stroke:#606963"/><path d="m359 633l24-6h11 11l14-4.5 14-4.5 10.5-6.5 10.5-6.5 12.5-4.5 12.5-4.5 12-10.5 12-10.5 6.5-12.5 6.5-12.5 11-3.5 11-3.5 1-12 1-12 4.5-11.5 4.5-11.5-3.5-13-3.5-13-2-14-2-14-5.5-13-5.5-13-2.5-11.5-2.5-11.5-7-9-7-9-10-7.5-10-7.5-9-11-9-11-4.5-3-4.5-3 1 1.5 1 1.5 10 12.5 10 12.5 8 11 8 11 7 10.5 7 10.5 7 13 7 13 2 14 2 14 3.5 13 3.5 13-2 15-2 15-4.5 11-4.5 11-9.5 10.5-9.5 10.5-9.5 9.5-9.5 9.5-11 9.5-11 9.5-10 7-10 7-11.5 4-11.5 4-12.5.5-12.5.5-20.5 4.5-20.5 4.5-10-6.5-10-6.5-10-6-10-6-11.5-2.5-11.5-2.5-10.5-10-10.5-10-8.5-7.5-8.5-7.5-8-13-8-13-7-12.5-7-12.5-4.5-15.5-4.5-15.5v-15-15l-.5-14-.5-14 6-12 6-12 8-11 8-11 11-8.5 11-8.5 12.5-7.5 12.5-7.5 12.5-5.5 12.5-5.5 11.5-4 11.5-4 15.5-.5 15.5-.5h13 13l13.5 2 13.5 2 19.5 2.5 19.5 2.5-17-5-17-5-9-4-9-4-11.5-.5-11.5-.5-13 1.5-13 1.5-15.5 1.5-15.5 1.5-13 4.5-13 4.5-12.5 5.5-12.5 5.5-11 8-11 8-9 10.5-9 10.5-8.5 9.5-8.5 9.5-7 12.5-7 12.5 1 15 1 15v10 10 9.5 9.5l5.5 12.5 5.5 12.5 5.5 9.5 5.5 9.5 8.5 14 8.5 14 8.5 10.5 8.5 10.5 11.5 9 11.5 9 9.5 6.5 9.5 6.5 11.5 6.5 11.5 6.5 12.5 2 12.5 2 2 1.5 2 1.5" style="fill:#70776f;stroke:#70776f"/><path d="m356 626l41-9 12.5-.5 12.5-.5 11.5-4 11.5-4 10-7 10-7 11-9.5 11-9.5 9.5-9.5 9.5-9.5 9.5-10.5 9.5-10.5 4.5-11 4.5-11 2-15 2-15-3.5-13-3.5-13-2-14-2-14-7-13-7-13-7-10.5-7-10.5-8-11-8-11-10-12.5-10-12.5.5 1.5.5 1.5v1 1l-.5 1-.5 1-1 .5-1 .5 7.5 10.5 7.5 10.5 9.5 9.5 9.5 9.5 6 9.5 6 9.5 5.5 10.5 5.5 10.5 4.5 13.5 4.5 13.5 2 13.5 2 13.5 1 13 1 13-5 12.5-5 12.5-8.5 10.5-8.5 10.5-8.5 8.5-8.5 8.5-9 7.5-9 7.5-11.5 8.5-11.5 8.5-11 2.5-11 2.5-12.5 4.5-12.5 4.5-18.5 2-18.5 2-12-4-12-4-11-4-11-4-13.5-7-13.5-7-11-9-11-9-8.5-11-8.5-11-6.5-12.5-6.5-12.5-9-21.5-9-21.5-.5-1.5-.5-1.5.5-15.5.5-15.5 2-13.5 2-13.5 7-11 7-11 8-11.5 8-11.5 11-10 11-10 15-6 15-6 14-4.5 14-4.5 11-1 11-1 14-1.5 14-1.5 15 2 15 2 21.5 2 21.5 2 2.5.5 2.5.5-1-1.5-1-1.5-19.5-2.5-19.5-2.5-13.5-2-13.5-2h-13-13l-15.5.5-15.5.5-11.5 4-11.5 4-12.5 5.5-12.5 5.5-12.5 7.5-12.5 7.5-11 8.5-11 8.5-8 11-8 11-6 12-6 12 .5 14 .5 14v15 15l4.5 15.5 4.5 15.5 7 12.5 7 12.5 8 13 8 13 8.5 7.5 8.5 7.5 10.5 10 10.5 10 11.5 2.5 11.5 2.5 10 6 10 6 10 6.5 10 6.5" style="fill:#75807e;stroke:#75807e"/><path d="m364 616l37-4 12.5-4.5 12.5-4.5 11-2.5 11-2.5 11.5-8.5 11.5-8.5 9-7.5 9-7.5 8.5-8.5 8.5-8.5 8.5-10.5 8.5-10.5 5-12.5 5-12.5-1-13-1-13-2-13.5-2-13.5-4.5-13.5-4.5-13.5-5.5-10.5-5.5-10.5-6-9.5-6-9.5-9.5-9.5-9.5-9.5-7.5-10.5-7.5-10.5-2-.5-2-.5-.5-1-.5-1-1-1-1-1 .5-1.5.5-1.5 1.5-.5 1.5-.5-21.5-2-21.5-2-15-2-15-2-14 1.5-14 1.5-11 1-11 1-14 4.5-14 4.5-15 6-15 6-11 10-11 10-8 11.5-8 11.5-7 11-7 11-2 13.5-2 13.5-.5 15.5-.5 15.5 3 2 3 2 1-13.5 1-13.5v-15-15l6-11.5 6-11.5 9-12 9-12 12.5-9.5 12.5-9.5 13.5-6 13.5-6 13.5-2.5 13.5-2.5 11-2.5 11-2.5 12.5-.5 12.5-.5 13-1 13-1 12.5 6 12.5 6 12.5 4.5 12.5 4.5 8 10.5 8 10.5 8.5 9.5 8.5 9.5 5.5 12.5 5.5 12.5 8.5 13 8.5 13 1.5 13.5 1.5 13.5 2.5 14.5 2.5 14.5-6.5 13-6.5 13-6.5 12.5-6.5 12.5-12.5 8-12.5 8-10.5 10.5-10.5 10.5-12 5-12 5-13 3.5-13 3.5-21.5 3.5-21.5 3.5-11.5-4.5-11.5-4.5-13-4.5-13-4.5-11.5-6.5-11.5-6.5-18.5-18-18.5-18v-.5-.5l-7-13-7-13-10-19.5-10-19.5 9 21.5 9 21.5 6.5 12.5 6.5 12.5 8.5 11 8.5 11 11 9 11 9 13.5 7 13.5 7 11 4 11 4 12 4 12 4" style="fill:#7f8e8b;stroke:#7f8e8b"/><path d="m364 611l43-7 13-3.5 13-3.5 12-5 12-5 10.5-10.5 10.5-10.5 12.5-8 12.5-8 6.5-12.5 6.5-12.5 6.5-13 6.5-13-2.5-14.5-2.5-14.5-1.5-13.5-1.5-13.5-8.5-13-8.5-13-5.5-12.5-5.5-12.5-8.5-9.5-8.5-9.5-8-10.5-8-10.5-12.5-4.5-12.5-4.5-12.5-6-12.5-6-13 1-13 1-12.5.5-12.5.5-11 2.5-11 2.5-13.5 2.5-13.5 2.5-13.5 6-13.5 6-12.5 9.5-12.5 9.5-9 12-9 12-6 11.5-6 11.5v15 15l-1 13.5-1 13.5-3-2-3-2 .5 1.5.5 1.5 10 19.5 10 19.5 7 13 7 13-4-14-4-14-5.5-12.5-5.5-12.5-1-14.5-1-14.5-1-15-1-15 7-14 7-14 9.5-13 9.5-13 12-8 12-8 13.5-7 13.5-7 12-2 12-2 14.5-1.5 14.5-1.5h13.5 13.5l13.5 2.5 13.5 2.5 14 6.5 14 6.5 9 8 9 8 8 12.5 8 12.5 9.5 11.5 9.5 11.5 5 14 5 14 1.5 13 1.5 13 2 12 2 12-5.5 12-5.5 12-8.5 11.5-8.5 11.5-11.5 8.5-11.5 8.5-10 9.5-10 9.5-12.5 4.5-12.5 4.5-12 2.5-12 2.5-22.5 2-22.5 2-14.5-6.5-14.5-6.5-12-4.5-12-4.5-10-9-10-9-14-8.5-14-8.5 18.5 18 18.5 18 11.5 6.5 11.5 6.5 13 4.5 13 4.5 11.5 4.5 11.5 4.5" style="fill:#8e9b9b;stroke:#8e9b9b"/><path d="m356 601l45-4 12-2.5 12-2.5 12.5-4.5 12.5-4.5 10-9.5 10-9.5 11.5-8.5 11.5-8.5 8.5-11.5 8.5-11.5 5.5-12 5.5-12-2-12-2-12-1.5-13-1.5-13-5-14-5-14-9.5-11.5-9.5-11.5-8-12.5-8-12.5-9-8-9-8-14-6.5-14-6.5-13.5-2.5-13.5-2.5h-13.5-13.5l-14.5 1.5-14.5 1.5-12 2-12 2-13.5 7-13.5 7-12 8-12 8-9.5 13-9.5 13-7 14-7 14 1 15 1 15 1 14.5 1 14.5 5.5 12.5 5.5 12.5 4 14 4 14v.5.5l14 8.5 14 8.5 10 9 10 9 12 4.5 12 4.5 14.5 6.5 14.5 6.5" style="fill:#9baead;stroke:#9baead"/><path d="m383 595l25-7 8-2 8-2 12-5.5 12-5.5 11-9 11-9 12.5-10 12.5-10 6.5-13.5 6.5-13.5 2.5-13.5 2.5-13.5-2.5-13-2.5-13-2.5-14.5-2.5-14.5-8.5-10-8.5-10-3.5-8-3.5-8 .5 10.5.5 10.5 8.5 12 8.5 12 4 13 4 13 .5 9.5.5 9.5-1.5 11-1.5 11-3.5 11.5-3.5 11.5-9.5 12-9.5 12-12.5 6.5-12.5 6.5-9 7-9 7-26 6.5-26 6.5-12.5-1.5-12.5-1.5-12-4.5-12-4.5-14-4.5-14-4.5-6-8-6-8-10-10-10-10-8-13.5-8-13.5-5.5-13.5-5.5-13.5v-12.5-12.5l1.5-13.5 1.5-13.5 7-11 7-11 8.5-11 8.5-11 11.5-7.5 11.5-7.5 14-5.5 14-5.5 13.5-2.5 13.5-2.5 13-.5 13-.5 10 3 10 3 12 2 12 2 12 6.5 12 6.5 11.5 4.5 11.5 4.5-11.5-8-11.5-8-13-6-13-6-13-4-13-4-15-.5-15-.5-16 3-16 3-13 3.5-13 3.5-14 6-14 6-10.5 9.5-10.5 9.5-9 9.5-9 9.5-3.5 14.5-3.5 14.5.5 13 .5 13 1.5 12.5 1.5 12.5 6 12.5 6 12.5 8 12 8 12 8 10 8 10 11 9.5 11 9.5 10 3 10 3 12.5 5 12.5 5 14 1 14 1 1 .5 1 .5" style="fill:#aabbbf;stroke:#aabbbf"/><path d="m382 589l52-13 9-7 9-7 12.5-6.5 12.5-6.5 9.5-12 9.5-12 3.5-11.5 3.5-11.5 1.5-11 1.5-11-.5-9.5-.5-9.5-4-13-4-13-8.5-12-8.5-12-.5-10.5-.5-10.5-1.5-.5-1.5-.5-.5-1.5-.5-1.5v-2-2l-11.5-4.5-11.5-4.5-12-6.5-12-6.5-12-2-12-2-10-3-10-3-13 .5-13 .5-13.5 2.5-13.5 2.5-14 5.5-14 5.5-11.5 7.5-11.5 7.5-8.5 11-8.5 11-7 11-7 11-1.5 13.5-1.5 13.5v12.5 12.5l5.5 13.5 5.5 13.5 8 13.5 8 13.5 10 10 10 10 6 8 6 8 14 4.5 14 4.5 12 4.5 12 4.5 12.5 1.5 12.5 1.5" style="fill:#bacfce;stroke:#bacfce"/><path d="m363 581h26l12-4 12-4 12.5-3 12.5-3 11.5-8.5 11.5-8.5 11.5-10 11.5-10 5.5-11.5 5.5-11.5 2.5-13.5 2.5-13.5-1-12.5-1-12.5-5.5-11.5-5.5-11.5-8-12.5-8-12.5-6-12-6-12-12-6-12-6v-1.5-1.5l8 8 8 8 6.5 10 6.5 10 4.5 10.5 4.5 10.5 8.5 10 8.5 10 2 9 2 9 2.5 11.5 2.5 11.5-4 12.5-4 12.5-7 9-7 9-9.5 8-9.5 8-9.5 8.5-9.5 8.5-13.5 3.5-13.5 3.5-12.5 3.5-12.5 3.5-11.5-1.5-11.5-1.5-14.5-2.5-14.5-2.5-11-6.5-11-6.5-11-9-11-9-6.5-11.5-6.5-11.5-6.5-11-6.5-11-4.5-12.5-4.5-12.5v-12.5-12.5l1.5-12.5 1.5-12.5 8.5-10.5 8.5-10.5 11-8.5 11-8.5 14-6 14-6 13-2.5 13-2.5 12-1 12-1 12.5 2 12.5 2 15.5 1 15.5 1-16-4-16-4-13.5-2.5-13.5-2.5-13 2-13 2-13 3.5-13 3.5-14 6-14 6-10.5 9-10.5 9-8 13-8 13-3 12-3 12 .5 15 .5 15 5.5 13.5 5.5 13.5 7.5 14 7.5 14 9 10 9 10 11.5 7 11.5 7 12 7 12 7 10.5 2 10.5 2" style="fill:#c8dcdf;stroke:#c8dcdf"/><path d="m387 576l25-7 13.5-3.5 13.5-3.5 9.5-8.5 9.5-8.5 9.5-8 9.5-8 7-9 7-9 4-12.5 4-12.5-2.5-11.5-2.5-11.5-2-9-2-9-8.5-10-8.5-10-4.5-10.5-4.5-10.5-6.5-10-6.5-10-8-8-8-8-.5-1-.5-1h-1-1l-15.5-1-15.5-1-12.5-2-12.5-2-12 1-12 1-13 2.5-13 2.5-14 6-14 6-11 8.5-11 8.5-8.5 10.5-8.5 10.5-1.5 12.5-1.5 12.5v12.5 12.5l4.5 12.5 4.5 12.5 6.5 11 6.5 11 6.5 11.5 6.5 11.5 11 9 11 9 11 6.5 11 6.5 14.5 2.5 14.5 2.5 11.5 1.5 11.5 1.5" style="fill:#dbf2ed;stroke:#dbf2ed"/><path d="m361 566l27-1 12-3 12-3 12-5.5 12-5.5 11-6 11-6 5.5-9 5.5-9 4-9 4-9 6.5-8.5 6.5-8.5-3.5-12-3.5-12-5-11-5-11-7-10.5-7-10.5-7.5-10.5-7.5-10.5-13-8-13-8-12.5-6-12.5-6-11 3-11 3-10-1.5-10-1.5-14 3-14 3-13 6.5-13 6.5-9 12-9 12-5.5 9.5-5.5 9.5-1 12.5-1 12.5 1.5 12.5 1.5 12.5 6 13.5 6 13.5 9 12 9 12 11.5 8.5 11.5 8.5 11.5 6 11.5 6 8 2 8 2" style="fill:#fffff7;stroke:#fffff7"/><path d="m457 342l4 1 1-.5 1-.5.5-1 .5-1v-1-1l-.5-1.5-.5-1.5-2.5-.5-2.5-.5-1.5.5-1.5.5-.5 1.5-.5 1.5 1 1 1 1 .5 1 .5 1" style="fill:#8e9b9b;stroke:#8e9b9b"/><path d="m71 123l3 1 1-1 1-1-.5-2-.5-2v-2-2l-.5-2-.5-2-1.5-.5-1.5-.5-1 1.5-1 1.5-.5 1.5-.5 1.5v2 2l1 1.5 1 1.5.5.5.5.5" style="fill:#2e1f10;stroke:#2e1f10"/></g></svg>