<svg xmlns="http://www.w3.org/2000/svg" viewBox="0 0 720 960"><g style="fill:#433228"><path d="m0 0h720v960h-720z"/><path d="m0 959v1h23.5 23.5 24.5 24.5 24.5 24.5 24.5 24.5 24.5 24.5 24.5 24.5 24 24 24.5 24.5.5.5v-.5-.5l8-5.5 8-5.5 2.5 6 2.5 6h2.5 2.5 2.5 2.5v-.5-.5l1-.5 1-.5 1-.5 1-.5.5-.5.5-.5h1 1 1 1l.5-1 .5-1h1 1l.5-.5.5-.5 1-1 1-1 .5-1 .5-1 1-.5 1-.5.5-1.5.5-1.5 1.5-.5 1.5-.5.5-.5.5-.5 1 .5 1 .5 1.5-.5 1.5-.5.5-.5.5-.5 1-.5 1-.5.5-1.5.5-1.5h1 1l2-.5 2-.5 16.5-.5 16.5-.5 18 2.5 18 2.5 17-7.5 17-7.5 13.5-10.5 13.5-10.5 10-13.5 10-13.5 12-12.5 12-12.5-2-18.5-2-18.5 11-12.5 11-12.5 11-11.5 11-11.5-11-13-11-13-17.5 13-17.5 13-1.5 14-1.5 14-5 4.5-5 4.5-14-3.5-14-3.5-17-1.5-17-1.5-15.5-2-15.5-2-16.5-3.5-16.5-3.5-14.5 5-14.5 5-11 12.5-11 12.5-13.5 6-13.5 6-18-1.5-18-1.5-22 2-22 2 3.5-11 3.5-11 2.5-10 2.5-10 9-3.5 9-3.5 15-.5 15-.5 4-7.5 4-7.5 15-4 15-4 12 4.5 12 4.5 27 .5 27 .5v-.5-.5l-6-20.5-6-20.5-17-4-17-4-15-7.5-15-7.5-9.5 4.5-9.5 4.5-11.5-2-11.5-2-14.5 2-14.5 2-14 6.5-14 6.5-13.5 4-13.5 4 2-3.5 2-3.5 19-10 19-10-.5-.5-.5-.5 1-1 1-1-.5-.5-.5-.5v-1-1l-.5-.5-.5-.5.5-1 .5-1v-1-1l-.5-1.5-.5-1.5-.5 2-.5 2-.5 1.5-.5 1.5v2.5 2.5l-1 1-1 1v-2.5-2.5-2-2l-.5-1-.5-1-.5 2.5-.5 2.5v2 2h-1.5-1.5l-1.5-.5-1.5-.5-2 .5-2 .5-1.5-.5-1.5-.5-1-1-1-1h-1-1l-1-.5-1-.5 1-1 1-1v-1-1l-.5-1-.5-1-.5-1.5-.5-1.5h2 2l-4 1-4 1 8 6 8 6-13.5 9-13.5 9-16 8.5-16 8.5-13 11.5-13 11.5-12 12.5-12 12.5-13 11.5-13 11.5-12 12-12 12-13 11.5-13 11.5-15.5 9-15.5 9-17.5 7-17.5 7-16.5 8-16.5 8-18.5 10-18.5 10v2.5 2.5 2 2 2.5 2.5 2 2 2.5 2.5 2 2 2.5 2.5" style="stroke:#433228;stroke-linejoin:round;stroke-width:.7"/></g><g style="stroke-linejoin:round;stroke-width:.7"><path d="m390 959v1h1.5 1.5 2 2 2.5 2.5 2 2 2.5 2.5l-2.5-6-2.5-6-8 5.5-8 5.5" style="fill:#181b15;stroke:#181b15"/><path d="m421 959v1h1.5 1.5 2 2 2.5 2.5 2 2 .5.5v-.5-.5l-.5-1-.5-1v-1-1-1-1l-.5-1-.5-1-1 1-1 1-.5.5-.5.5h-1-1l-.5 1-.5 1h-1-1-1-1l-.5.5-.5.5-1 .5-1 .5-1 .5-1 .5" style="fill:#615249;stroke:#615249"/><path d="m438 959v1h1.5 1.5 2 2 2.5 2.5 2 2 2.5 2.5.5.5v-.5-.5l1-.5 1-.5h-1.5-1.5-1.5-1.5-1.5-1.5l-1.5-.5-1.5-.5 19.5-10 19.5-10-1-1-1-1-.5.5-.5.5h-1-1l-.5-1-.5-1h-1-1l-.5-.5-.5-.5h-1-1-1.5-1.5l-.5.5-.5.5h-1-1l-.5.5-.5.5h-1.5-1.5l-1.5.5-1.5.5-.5.5-.5.5-.5.5-.5.5h-1-1l-1-.5-1-.5-2 .5-2 .5h-1-1l-.5 1.5-.5 1.5-1 .5-1 .5-.5.5-.5.5-1.5.5-1.5.5-1-.5-1-.5-.5.5-.5.5-1.5.5-1.5.5-.5 1.5-.5 1.5-1 .5-1 .5-.5 1-.5 1 .5 1 .5 1v1 1 1 1l.5 1 .5 1" style="fill:#d0bcb7;stroke:#d0bcb7"/><path d="m460 959v1h26 26 24.5 24.5 11 11v-.5-.5l-13-10.5-13-10.5-16.5 4.5-16.5 4.5-17-4-17-4-15.5 9.5-15.5 9.5h1.5 1.5l-1 .5-1 .5" style="fill:#bd8f66;stroke:#bd8f66"/><path d="m583 959v1h1.5 1.5 2 2 2.5 2.5 2 2 2.5 2.5 2 2 2.5 2.5 2 2 1.5 1.5v-.5-.5l8-6.5 8-6.5-1-5.5-1-5.5 5.5-4 5.5-4 8 3.5 8 3.5-3.5-8-3.5-8-20.5-18-20.5-18-9 13-9 13-10.5 10-10.5 10-1.5.5-1.5.5h-2-2-1.5-1.5l-.5 1-.5 1-.5 1-.5 1-.5.5-.5.5-.5.5-.5.5-1 .5-1 .5-.5 1-.5 1 13 10.5 13 10.5" style="fill:#ac7e58;stroke:#ac7e58"/><path d="m620 959v1h26 26 .5.5v-.5-.5l-1.5-9.5-1.5-9.5-.5-4-.5-4 12.5-7 12.5-7-14-7.5-14-7.5-24.5-12.5-24.5-12.5-1.5 1-1.5 1-.5 1-.5 1 20.5 18 20.5 18 3.5 8 3.5 8-8-3.5-8-3.5-5.5 4-5.5 4 1 5.5 1 5.5-8 6.5-8 6.5" style="fill:#bd8f66;stroke:#bd8f66"/><path d="m673 959v1h1 1v-.5-.5l10.5.5 10.5.5h1.5 1.5 2.5 2.5v-.5-.5l6 .5 6 .5h1.5 1.5.5.5v-1.5-1.5-2.5-2.5-2-2-2.5-2.5-2-2-2.5-2.5-2-2-2-2-2.5-2.5l-.5 1.5-.5 1.5v1 1 1.5 1.5 2 2 1 1 1.5 1.5 2 2 1 1 1.5 1.5l-.5 1-.5 1-6.5-17.5-6.5-17.5-14-9.5-14-9.5-24.5-14-24.5-14-1.5 1-1.5 1-1 1-1 1-1 1-1 1-1.5 1-1.5 1-.5 1.5-.5 1.5 24.5 12.5 24.5 12.5 14 7.5 14 7.5-12.5 7-12.5 7 .5 4 .5 4 1.5 9.5 1.5 9.5" style="fill:#ac7e58;stroke:#ac7e58"/><g style="fill:#bd8f66;stroke:#bd8f66"><path d="m675 959v1h1.5 1.5 2 2 2.5 2.5 2 2 2.5 2.5l-10.5-.5-10.5-.5"/><path d="m704 959v1h1.5 1.5 2 2 2.5 2.5l-6-.5-6-.5"/></g><path d="m441 957l3 1 1.5-.5 1.5-.5 1-1.5 1-1.5.5-.5.5-.5v-.5-.5l-2-1-2-1-2 .5-2 .5-1 1-1 1 .5 1.5.5 1.5v.5.5" style="fill:#ffe;stroke:#ffe"/><path d="m450 957l3 1h1.5 1.5 1.5 1.5l15.5-9.5 15.5-9.5 17 4 17 4 16.5-4.5 16.5-4.5.5-1 .5-1 1-.5 1-.5.5-.5.5-.5.5-.5.5-.5.5-1 .5-1-2 1-2 1-1 1-1 1-1.5 1-1.5 1-1.5.5-1.5.5h-1.5-1.5l-21.5 4.5-21.5 4.5h-1.5-1.5l-.5-1-.5-1-.5-.5-.5-.5h-1-1l-.5-.5-.5-.5-.5-.5-.5-.5-.5-.5-.5-.5-1-.5-1-.5-.5-.5-.5-.5-.5-.5-.5-.5-1-.5-1-.5-19.5 10-19.5 10" style="fill:#96836d;stroke:#96836d"/><path d="m450 952v1l-1-2-1-2-3 1-3 1 2-.5 2-.5 2 1 2 1" style="fill:#ddd6ca;stroke:#ddd6ca"/><path d="m718 949l1-2v-1.5-1.5-1-1-2-2-1.5-1.5-1-1-2-2-1.5-1.5-1-1l.5-1.5.5-1.5v-1.5-1.5-2-2-2.5-2.5-2-2-2.5-2.5-2-2-2.5-2.5-2-2-1-1l-.5-.5-.5-.5-15.5-8-15.5-8-22.5-11.5-22.5-11.5-1 .5-1 .5-1 1-1 1v2 2l-.5 1.5-.5 1.5-.5.5-.5.5-.5 1-.5 1-1 1-1 1-.5.5-.5.5-.5 1-.5 1-1 1-1 1-1 1-1 1 24.5 14 24.5 14 14 9.5 14 9.5 6.5 17.5 6.5 17.5" style="fill:#bd8f66;stroke:#bd8f66"/><path d="m505 947l43-9v-.5-.5l18-8 18-8 10.5-13.5 10.5-13.5 16.5-24 16.5-24v-.5-.5l-.5-2.5-.5-2.5v-2.5-2.5l-1-1-1-1-.5-2-.5-2-.5-1.5-.5-1.5v-.5-.5l19-17 19-17 1-1.5 1-1.5h1 1l1-.5 1-.5 1-1 1-1 1-.5 1-.5.5-1 .5-1 1-1 1-1 1.5-1 1.5-1h2 2l2-.5 2-.5 1.5-.5 1.5-.5 2-.5 2-.5 1.5-.5 1.5-.5 1.5-.5 1.5-.5 1-1 1-1 1.5-1 1.5-1 .5-1.5.5-1.5 1.5-1 1.5-1 1.5-1 1.5-1v-2-2-2.5-2.5-2-2-2-2-2-2l-11 12.5-11 12.5-13-10-13-10-16.5-7-16.5-7-18 19-18 19 1.5-1.5 1.5-1.5 1.5-.5 1.5-.5 1.5 1 1.5 1h2 2l17.5-13 17.5-13 11 13 11 13-11 11.5-11 11.5-11 12.5-11 12.5 2 18.5 2 18.5-12 12.5-12 12.5-10 13.5-10 13.5-13.5 10.5-13.5 10.5-17 7.5-17 7.5-18-2.5-18-2.5-16.5.5-16.5.5 1 .5 1 .5h1 1l.5-.5.5-.5.5-.5.5-.5 1.5-.5 1.5-.5h1.5 1.5l.5-.5.5-.5h1 1l.5-.5.5-.5h1.5 1.5 1 1l.5.5.5.5h1 1l.5 1 .5 1h1 1l.5-.5.5-.5 1 1 1 1 1 .5 1 .5.5.5.5.5.5.5.5.5 1 .5 1 .5.5.5.5.5.5.5.5.5.5.5.5.5h1 1l.5.5.5.5.5 1 .5 1h1.5 1.5" style="fill:#615249;stroke:#615249"/><path d="m653 945h2l.5-1.5.5-1.5 1.5-1 1.5-1 1-1 1-1-2-.5-2-.5-1.5.5-1.5.5-2-.5-2-.5v2 2l-.5 1.5-.5 1.5 2 .5 2 .5" style="fill:#ac7e58;stroke:#ac7e58"/><path d="m548 937v1h1.5 1.5l1.5-.5 1.5-.5 1.5-1 1.5-1 1-1 1-1 2-1 2-1 .5-1 .5-1h1.5 1.5 2 2l1.5-.5 1.5-.5v-.5-.5h2 2l1-1 1-1h1 1l.5-1 .5-1 .5-1 .5-1-18 8-18 8" style="fill:#796c65;stroke:#796c65"/><path d="m574 927v1l10.5-10 10.5-10 9-13 9-13 .5-1 .5-1 1.5-1 1.5-1 .5-1.5.5-1.5 1.5-1 1.5-1 1-1 1-1 1-1 1-1 1.5-1 1.5-1 1-1 1-1 1-1 1-1 .5-1 .5-1 .5-.5.5-.5 1-1 1-1 .5-1 .5-1 .5-.5.5-.5.5-1.5.5-1.5v-2-2l1-1 1-1 1-.5 1-.5v-2-2l1-1 1-1v-2-2l.5-.5.5-.5 1-.5 1-.5 1.5-.5 1.5-.5v-1-1l1-.5 1-.5 1.5.5 1.5.5 1.5-1 1.5-1v-1.5-1.5l14.5-5.5 14.5-5.5 16-5.5 16-5.5v-2.5-2.5-2-2-2.5-2.5-2-2-2.5-2.5l-15 9.5-15 9.5-26.5 15.5-26.5 15.5.5 1.5.5 1.5 1.5 1 1.5 1-1 1-1 1 .5 2 .5 2-.5 1.5-.5 1.5-.5 1-.5 1-16.5 24-16.5 24-10.5 13.5-10.5 13.5-.5 1-.5 1-.5 1-.5 1h-1-1l-1 1-1 1h-2-2" style="fill:#96836d;stroke:#96836d"/><path d="m0 926v1l18.5-10 18.5-10 16.5-8 16.5-8 17.5-7 17.5-7 15.5-9 15.5-9 13-11.5 13-11.5 12-12 12-12 13-11.5 13-11.5 12-12.5 12-12.5 13-11.5 13-11.5 16-8.5 16-8.5 13.5-9 13.5-9-8-6-8-6 4-1 4-1h1.5 1.5l1-.5 1-.5 2 .5 2 .5 1 1 1 1 2.5 1 2.5 1 .5 1 .5 1v2 2 2.5 2.5l1-1 1-1v-2.5-2.5l.5-1.5.5-1.5.5-2 .5-2 .5-1 .5-1h2 2l.5-.5.5-.5 1 .5 1 .5 1 1 1 1 2 1 2 1 1 1 1 1h2.5 2.5l1-1 1-1 2-.5 2-.5 1.5-.5 1.5-.5 1-1 1-1 2-.5 2-.5h1.5 1.5l1.5-.5 1.5-.5 1.5-.5 1.5-.5v-.5-.5l1.5-1 1.5-1 1-1 1-1 1-1.5 1-1.5 1.5.5 1.5.5 2-.5 2-.5 1.5-.5 1.5-.5 1.5-1 1.5-1 1 1 1 1 1 .5 1 .5h.5.5v-.5-.5l-2-5.5-2-5.5-4.5-10.5-4.5-10.5-4.5-15.5-4.5-15.5 2-27.5 2-27.5 2.5-15.5 2.5-15.5-4.5-16-4.5-16-7.5-8-7.5-8-9.5-14-9.5-14-7.5-3-7.5-3-10 7-10 7-9 13.5-9 13.5-7 8.5-7 8.5-15.5.5-15.5.5-9.5-7-9.5-7-5.5-2-5.5-2-1.5-10-1.5-10-3.5-12.5-3.5-12.5-6 .5-6 .5-10.5-7-10.5-7-4.5 11-4.5 11-8-10-8-10-5.5 11-5.5 11-10.5 2-10.5 2-11-1-11-1-9.5 6-9.5 6-8 6.5-8 6.5-11.5 9-11.5 9-10 4-10 4-10 9-10 9v25.5 25.5 24.5 24.5 24.5 24.5 24.5 24.5 24.5 24.5 24.5 24.5 24 24 24.5 24.5 3.5 3.5" style="fill:#181b15;stroke:#181b15"/><path d="m376 922l14-32-11-5.5-11-5.5-3.5 11-3.5 11 7.5 10.5 7.5 10.5" style="fill:#615249;stroke:#615249"/><path d="m374 916l3 1 .5-1.5.5-1.5.5-2 .5-2 1-1 1-1 1-1.5 1-1.5.5-1.5.5-1.5.5-2 .5-2 .5-1.5.5-1.5v-2-2l.5-1.5.5-1.5-1 1-1 1-.5 2-.5 2-1 1-1 1-.5 2-.5 2-.5 1.5-.5 1.5-.5 1-.5 1v1.5 1.5l-.5 1.5-.5 1.5-1 1-1 1h-1.5-1.5l-1-2-1-2v1.5 1.5l.5 1.5.5 1.5 1 .5 1 .5" style="fill:#796c65;stroke:#796c65"/><path d="m373 913h3l1-1 1-1 .5-1.5.5-1.5v-1.5-1.5-.5-.5-2.5-2.5l-.5-1.5-.5-1.5.5-2 .5-2 1-1 1-1 1.5-.5 1.5-.5 1-1.5 1-1.5.5-1.5.5-1.5-1-1.5-1-1.5-1-1-1-1-2-.5-2-.5-1.5.5-1.5.5-1 1.5-1 1.5-.5 1.5-.5 1.5-.5 1.5-.5 1.5-.5 2-.5 2v2 2 2.5 2.5 2 2l-.5 2-.5 2 .5.5.5.5 1 2 1 2" style="fill:#b1a18b;stroke:#b1a18b"/><path d="m379 904v1l.5-1 .5-1 .5-1.5.5-1.5.5-2 .5-2 1-1 1-1 .5-2 .5-2 1-1 1-1 .5-2 .5-2v-2-2l-1-1-1-1-1.5-1-1.5-1-1.5.5-1.5.5h-.5-.5l2 .5 2 .5 1 1 1 1 1 1.5 1 1.5-.5 1.5-.5 1.5-1 1.5-1 1.5-1.5.5-1.5.5-1 1-1 1-.5 2-.5 2 .5 1.5.5 1.5v2.5 2.5" style="fill:#96836d;stroke:#96836d"/><path d="m394 899l18-2 9-5.5 9-5.5.5-7 .5-7-14 .5-14 .5-4.5 13-4.5 13" style="fill:#615249;stroke:#615249"/><path d="m719 884l1 1v-3-3-2.5-2.5-2-2-2.5-2.5-2-2-2-2h-2-2l-1.5-.5-1.5-.5-13-2-13-2-5-5.5-5-5.5-9-8-9-8v1.5 1.5l-1.5 1-1.5 1-1.5-.5-1.5-.5-1 .5-1 .5v1 1l-1.5.5-1.5.5-1 .5-1 .5-.5.5-.5.5v2 2l-1 1-1 1v2 2l22.5 11.5 22.5 11.5 15.5 8 15.5 8" style="fill:#ac7e58;stroke:#ac7e58"/><path d="m542 861l3-9-12-.5-12-.5-14 .5-14 .5 14.5 2 14.5 2 10 2.5 10 2.5" style="fill:#181b15;stroke:#181b15"/><path d="m713 856l3 1h2 2v-2.5-2.5-2-2-2.5-2.5-2-2-2.5-2.5-2-2-.5-.5l-1 .5-1 .5h-.5-.5l-1-.5-1-.5-.5-1-.5-1v-1-1h-1.5-1.5-2-2l-1-1.5-1-1.5-1.5-.5-1.5-.5-2-.5-2-.5-1-1-1-1h-2-2-1-1l-1-.5-1-.5v-1.5-1.5l-14.5 5.5-14.5 5.5 9 8 9 8 5 5.5 5 5.5 13 2 13 2" style="fill:#bd8f66;stroke:#bd8f66"/><path d="m638 845v1l.5-1 .5-1 .5-1.5.5-1.5-.5-2-.5-2 1-1 1-1-1.5-1-1.5-1-.5-1.5-.5-1.5v-1.5-1.5l-.5-1.5-.5-1.5-.5-1.5-.5-1.5.5-2 .5-2 1-1 1-1 1.5-1 1.5-1 1-1 1-1 2-.5 2-.5 15.5-9 15.5-9 21-12 21-12v-1.5-1.5-1.5-1.5l-1.5 1-1.5 1-1.5 1-1.5 1-.5 1.5-.5 1.5-1.5 1-1.5 1-1 1-1 1-1.5.5-1.5.5 1 .5 1 .5-2 .5-2 .5-1.5.5-1.5.5-1.5.5-1.5.5-2 .5-2 .5-1.5.5-1.5.5-2 .5-2 .5-1 1-1 1-1.5 1-1.5 1h-1-1l-1 1-1 1-1 .5-1 .5h-1-1l-1 1.5-1 1.5-19 17.5-19 17.5.5 1.5.5 1.5.5 2 .5 2 1 1 1 1v2.5 2.5l.5 2.5.5 2.5" style="fill:#9b9289;stroke:#9b9289"/><path d="m319 832l44-4 18 1.5 18 1.5 13.5-6 13.5-6 11-12.5 11-12.5 14.5-5 14.5-5 16.5 3.5 16.5 3.5 15.5 2 15.5 2 17 1.5 17 1.5 14 3.5 14 3.5 5-4.5 5-4.5-.5-.5-.5-.5-1-.5-1-.5-1-1-1-1-1-1-1-1-1-1-1-1-2-.5-2-.5-1-1-1-1-.5-2-.5-2 .5-1.5.5-1.5 1-2 1-2-1 .5-1 .5-1 1-1 1-1 1.5-1 1.5v2 2l-.5 1-.5 1h-2-2l-2-.5-2-.5h-2-2-1-1l-20-2.5-20-2.5-20-1.5-20-1.5-20-2.5-20-2.5-5-1.5-5-1.5 27 1.5 27 1.5 9.5-5.5 9.5-5.5-9-15.5-9-15.5h-1.5-1.5l-1 1-1 1h-1.5-1.5l-1-1-1-1-.5-.5-.5-.5-.5-1-.5-1-.5-.5-.5-.5v-1-1l.5-.5.5-.5-.5-.5-.5-.5-.5-.5-.5-.5-1-.5-1-.5h-1-1l-1-.5-1-.5-.5-.5-.5-.5-1.5-.5-1.5-.5-.5-.5-.5-.5-.5-.5-.5-.5-.5-1-.5-1-.5-.5-.5-.5v-1-1l-.5-1-.5-1-2.5-.5-2.5-.5-1 1-1 1h-1-1l-1.5-1-1.5-1-2-.5-2-.5-1-1-1-1-2 .5-2 .5-1.5-.5-1.5-.5h-2-2-1-1l-.5-1-.5-1-1.5-1-1.5-1-10.5-11-10.5-11-.5-.5-.5-.5v-1.5-1.5l-23 9-23 9-1 .5-1 .5-1.5.5-1.5.5-.5.5-.5.5-1-.5-1-.5-1 1-1 1-2 .5-2 .5-1 1-1 1h-1.5-1.5l-1.5.5-1.5.5-1 .5-1 .5-1-.5-1-.5-1 .5-1 .5-1 1-1 1-1.5 1-1.5 1-2 1-2 1-19 10-19 10-2 3.5-2 3.5 13.5-4 13.5-4 14-6.5 14-6.5 14.5-2 14.5-2 11.5 2 11.5 2 9.5-4.5 9.5-4.5 15 7.5 15 7.5 17 4 17 4 6 21 6 21-27-.5-27-.5-12-4.5-12-4.5-15 4-15 4-4 7.5-4 7.5-15 .5-15 .5-9 3.5-9 3.5-2.5 10-2.5 10-3.5 11-3.5 11" style="fill:#615249;stroke:#615249"/><path d="m637 830l53-31 15-9.5 15-9.5v-1.5-1.5l-14 9-14 9-27 15.5-27 15.5v-1-1-1-1l.5-1 .5-1 .5-.5.5-.5.5-.5.5-.5v-1-1l1-.5 1-.5v-1-1l.5-.5.5-.5h1 1l.5-1 .5-1-2 .5-2 .5-1 1-1 1-1.5 1-1.5 1-1 1-1 1-.5 2-.5 2 .5 1.5.5 1.5.5 1.5.5 1.5v1.5 1.5" style="fill:#b1a18b;stroke:#b1a18b"/><path d="m717 830h1l1-.5 1-.5v-3.5-3.5-2-2-2.5-2.5-2-2-2.5-2.5-.5-.5l-16 5.5-16 5.5v1.5 1.5l1 .5 1 .5h1 1 2 2l1 1 1 1 2 .5 2 .5 1.5.5 1.5.5 1 1.5 1 1.5h2 2 1.5 1.5v1 1l.5 1 .5 1 1 .5 1 .5" style="fill:#ac7e58;stroke:#ac7e58"/><path d="m638 826l54-31 14-9 14-9v-2.5-2.5-2-2l-21 12-21 12-15.5 9-15.5 9-.5 1-.5 1h-1-1l-.5.5-.5.5v1 1l-1 .5-1 .5v1 1l-.5.5-.5.5-.5.5-.5.5-.5 1-.5 1v1 1 1 1" style="fill:#bcb2a8;stroke:#bcb2a8"/><path d="m633 825v1l19-17.5 19-17.5-19 17-19 17" style="fill:#796c65;stroke:#796c65"/><path d="m612 795l1 1 1.5-14 1.5-14h-2-2l-1.5-1-1.5-1-1.5.5-1.5.5-1.5 1.5-1.5 1.5-.5 1-.5 1-1 1-1 1-1 2-1 2-.5 1.5-.5 1.5.5 2 .5 2 1 1 1 1 2 .5 2 .5 1 1 1 1 1 1 1 1 1 1 1 1 1 .5 1 .5" style="fill:#404140;stroke:#404140"/><g style="fill:#796c65;stroke:#796c65"><path d="m579 785h2 2 2l2 .5 2 .5h2 2l.5-1 .5-1v-2-2l1-1.5 1-1.5 1-1 1-1 1-.5 1-.5 1-1 1-1 .5-1 .5-1 18-19 18-19 16.5 7 16.5 7 13 10 13 10 11-12.5 11-12.5v-2.5-2.5-2-2-.5-.5l-1-.5-1-.5-11-13.5-11-13.5-4.5-15-4.5-15-6-13.5-6-13.5-8-14.5-8-14.5-10.5-14-10.5-14-22.5-12-22.5-12-1 2-1 2-14.5 8.5-14.5 8.5-5.5 10-5.5 10-13.5 17.5-13.5 17.5.5 1 .5 1h1 1l.5.5.5.5-1 .5-1 .5h-1-1l-.5.5-.5.5v1 1l1 .5 1 .5h1 1v1 1h-1-1l-.5 1-.5 1-.5.5-.5.5-.5.5-.5.5-1.5-.5-1.5-.5-1.5-1.5-1.5-1.5 1-1 1-1h1.5 1.5l-1.5-.5-1.5-.5-1-.5-1-.5-13.5 10-13.5 10-.5 1-.5 1v2 2l-.5 1.5-.5 1.5-.5 2-.5 2v2 2l-.5 2-.5 2-.5 1.5-.5 1.5v2.5 2.5l-.5 1.5-.5 1.5v2 2l.5 1.5.5 1.5v-.5-.5l5.5-16 5.5-16 12.5 1 12.5 1 10.5-9 10.5-9 8.5-15 8.5-15 9.5-13.5 9.5-13.5 12-15 12-15 .5-1 .5-1 1-.5 1-.5 11 9.5 11 9.5 9 14.5 9 14.5 6 14.5 6 14.5-4 12-4 12-.5 3.5-.5 3.5-38.5 7-38.5 7-1 .5-1 .5-2 .5-2 .5h-2-2l-2 .5-2 .5-1.5-.5-1.5-.5 1.5-.5 1.5-.5 1.5-1.5 1.5-1.5 10.5 1.5 10.5 1.5 33.5-4.5 33.5-4.5-12.5 9.5-12.5 9.5v-.5-.5l-20 16-20 16-19.5 19.5-19.5 19.5 1-1.5 1-1.5.5-.5.5-.5.5-1 .5-1 1-1 1-1-.5-.5-.5-.5h-1-1l-.5-.5-.5-.5v-1.5-1.5l-.5-.5-.5-.5.5-.5.5-.5.5-.5.5-.5.5 1 .5 1 .5.5.5.5.5.5.5.5.5.5.5.5 1 .5 1 .5 1-1.5 1-1.5-1-.5-1-.5 1-1.5 1-1.5 1-1 1-1 1.5-1 1.5-1 1-1 1-1 1-1.5 1-1.5 1-1 1-1 1.5-1 1.5-1 1-1 1-1 1 .5 1 .5 1-1 1-1 1.5-.5 1.5-.5 1-1.5 1-1.5 1-1 1-1-1-.5-1-.5-.5.5-.5.5v1 1h-1-1l-4-10.5-4-10.5-15-6.5-15-6.5-.5.5-.5.5-1 1.5-1 1.5-.5.5-.5.5-.5 1-.5 1 12.5 3.5 12.5 3.5-2 17-2 17-8.5-2.5-8.5-2.5-3.5-16.5-3.5-16.5-7 10.5-7 10.5 9 11 9 11-6 12-6 12-1-.5-1-.5h-1.5-1.5-2-2-1-1l-1-.5-1-.5-1.5-.5-1.5-.5-1.5-.5-1.5-.5-27-1.5-27-1.5 5 1.5 5 1.5 20 2.5 20 2.5 20 1.5 20 1.5 20 2.5 20 2.5"/><path d="m679 785h2l1.5-1 1.5-1 1-1 1-1 2-.5 2-.5 1.5-.5 1.5-.5 2-.5 2-.5 1.5-.5 1.5-.5 1.5-.5 1.5-.5 2-.5 2-.5-1-.5-1-.5-1.5.5-1.5.5-2 .5-2 .5-1.5.5-1.5.5-2 .5-2 .5h-2-2l-1.5 1-1.5 1-1 1-1 1-.5 1-.5 1-1 .5-1 .5"/></g><path d="m585 779l3 1 1.5-.5 1.5-.5 1.5-1 1.5-1v-1-1l-1.5 1-1.5 1-.5.5-.5.5h-1-1l-1.5-.5-1.5-.5-9.5-11.5-9.5-11.5 17 6.5 17 6.5 1-.5 1-.5.5-1 .5-1v-.5-.5l-8.5-15.5-8.5-15.5-13 11.5-13 11.5.5 10 .5 10 12 2 12 2" style="fill:#ddd6ca;stroke:#ddd6ca"/><path d="m585 777l3 1h1 1l.5-.5.5-.5 1.5-1 1.5-1 .5-1.5.5-1.5 1-1.5 1-1.5 1-1 1-1h.5.5l-17-6.5-17-6.5 9.5 11.5 9.5 11.5" style="fill:#ffe;stroke:#ffe"/><path d="m522 776l12-24-9-11-9-11 7-10.5 7-10.5 1.5-1.5 1.5-1.5.5-1 .5-1 .5-.5.5-.5 1-1.5 1-1.5-1.5.5-1.5.5-.5 1-.5 1-1 1-1 1-1 1-1 1-.5 1-.5 1-.5.5-.5.5-.5.5-.5.5-.5.5-.5.5-.5 1-.5 1-.5.5-.5.5-.5.5-.5.5-.5.5-.5.5-1 .5-1 .5-.5.5-.5.5h-1-1l-.5.5-.5.5-1.5-1-1.5-1-1-.5-1-.5-1-.5-1-.5h-1.5-1.5l1.5 1.5 1.5 1.5-.5 2-.5 2v2 2l-1.5 1.5-1.5 1.5 9 15.5 9 15.5-9.5 5.5-9.5 5.5 1.5.5 1.5.5 1.5.5 1.5.5 1 .5 1 .5h1 1 2 2 1.5 1.5l1 .5 1 .5" style="fill:#5e6061;stroke:#5e6061"/><path d="m543 770l39-39h-.5-.5l-1 1-1 1-1 1.5-1 1.5-1.5.5-1.5.5-1 1-1 1-1 1-1 1-1 1-1 1-1 1.5-1 1.5-1 1-1 1-1.5 1-1.5 1-1 1-1 1-1 1.5-1 1.5-1.5 1-1.5 1-1 1.5-1 1.5-1-.5-1-.5-.5-.5-.5-.5-.5-.5-.5-.5-.5-.5-.5-.5-.5-1-.5-1-.5.5-.5.5-.5.5-.5.5.5.5.5.5v1.5 1.5l.5.5.5.5h1 1l.5.5.5.5-1 1-1 1-.5 1-.5 1-.5.5-.5.5-1 1.5-1 1.5" style="fill:#7f8082;stroke:#7f8082"/><path d="m495 768v1l-6-21-6-21 6 20.5 6 20.5" style="fill:#404140;stroke:#404140"/><path d="m486 764l-1-17-9.5-1-9.5-1-13.5 3-13.5 3 14 6.5 14 6.5h9.5 9.5" style="fill:#181b15;stroke:#181b15"/><path d="m603 763v1l7.5-16.5 7.5-16.5 1.5-1 1.5-1v-.5-.5l.5-1 .5-1v-2-2l2-.5 2-.5 1.5-.5 1.5-.5 1-1 1-1 1.5-1 1.5-1 1-1 1-1 1-1.5 1-1.5 1-1 1-1 1.5-1 1.5-1h2 2v-.5-.5h-1.5-1.5l-1-.5-1-.5-.5-.5-.5-.5-.5-1-.5-1-1.5-.5-1.5-.5-.5.5-.5.5-1 .5-1 .5-.5 1.5-.5 1.5h-1-1l-.5 1-.5 1-1.5.5-1.5.5h-1-1l-1-1-1-1 .5-.5.5-.5.5-.5.5-.5.5-1 .5-1 .5-.5.5-.5.5-.5.5-.5.5-.5.5-.5 1 .5 1 .5h1 1 1 1v-1-1l-1-.5-1-.5v-1-1l1-1 1-1-14.5 11-14.5 11-10 8-10 8 8.5 15.5 8.5 15.5" style="fill:#d0bcb7;stroke:#d0bcb7"/><path d="m700 763l6-16-11 4.5-11 4.5 8 3.5 8 3.5" style="fill:#96836d;stroke:#96836d"/><path d="m552 756l2 1 1.5-1 1.5-1 1-1.5 1-1.5 1-1 1-1 1.5-1 1.5-1 1-1 1-1 1-1.5 1-1.5 1-1 1-1 1-1 1-1-1-.5-1-.5-1 1-1 1-1.5 1-1.5 1-1 1-1 1-1 1.5-1 1.5-1 1-1 1-1.5 1-1.5 1-1 1-1 1-1 1.5-1 1.5" style="fill:#5e6061;stroke:#5e6061"/><path d="m554 747l4-34-12.5-3.5-12.5-3.5-1.5 1.5-1.5 1.5 3.5 16.5 3.5 16.5 8.5 2.5 8.5 2.5" style="fill:#7f8082;stroke:#7f8082"/><path d="m679 741l29-13-11.5-9.5-11.5-9.5-16.5 7-16.5 7-.5-1-.5-1-.5-2-.5-2-1.5.5-1.5.5h-1.5-1.5l-2 1-2 1 15 6.5 15 6.5 4.5 4 4.5 4" style="fill:#615249;stroke:#615249"/><path d="m576 733h2v-1-1l.5-.5.5-.5 1 .5 1 .5h.5.5l20-16 20-16 .5-1 .5-1-.5-.5-.5-.5-1.5.5-1.5.5-1.5-.5-1.5-.5 1-1 1-1 .5-1.5.5-1.5 1-1.5 1-1.5 1.5-.5 1.5-.5 1-1 1-1 1 1 1 1 2-1 2-1 1.5-1 1.5-1 1.5-.5 1.5-.5 2 .5 2 .5 1-1 1-1h1.5 1.5l-33.5 4.5-33.5 4.5-10.5-1.5-10.5-1.5 19.5-4.5 19.5-4.5 25-5 25-5 4-12 4-12-6-14.5-6-14.5-9-14.5-9-14.5-11-9.5-11-9.5 10.5 12 10.5 12 6.5 14.5 6.5 14.5 6.5 7 6.5 7-1 11.5-1 11.5-18 8.5-18 8.5-29.5 6.5-29.5 6.5-1 .5-1 .5-1 .5-1 .5-1 1-1 1-.5.5-.5.5-1 .5-1 .5-1 1-1 1-2 .5-2 .5-.5 1.5-.5 1.5 15 6.5 15 6.5 4 10.5 4 10.5" style="fill:#5e6061;stroke:#5e6061"/><path d="m496 732h3l1-1 1-1h1.5 1.5l1.5-1.5 1.5-1.5v-2-2l.5-2 .5-2-1.5-1.5-1.5-1.5-1-.5-1-.5-1-.5-1-.5h-1-1l-1-.5-1-.5h-2-2-2-2l-1.5 1-1.5 1-1 2-1 2 1 .5 1 .5h1 1l1 .5 1 .5.5.5.5.5.5.5.5.5-.5.5-.5.5v1 1l.5.5.5.5.5 1 .5 1 .5.5.5.5 1 1 1 1" style="fill:#796c65;stroke:#796c65"/><path d="m718 730l2 1v-.5-.5l-.5-.5-.5-.5-7.5-15-7.5-15-4.5-15-4.5-15-8-14.5-8-14.5-9.5-14.5-9.5-14.5-18.5-22-18.5-22 1-.5 1-.5-.5-1-.5-1-1-.5-1-.5-.5-.5-.5-.5-1-.5-1-.5-1.5-.5-1.5-.5-1.5-.5-1.5-.5h-1-1l-1-.5-1-.5h-1-1l-1.5.5-1.5.5h-1-1l-.5.5-.5.5-.5.5-.5.5-1 .5-1 .5-.5.5-.5.5-.5.5-.5.5-1.5.5-1.5.5 22.5 12 22.5 12 10.5 14 10.5 14 8 14.5 8 14.5 6 13.5 6 13.5 4.5 15 4.5 15 11 13.5 11 13.5" style="fill:#96836d;stroke:#96836d"/><path d="m719 729l1 1v-1-1l-.5-.5-.5-.5-5-16-5-16-6.5-18-6.5-18-9.5-15-9.5-15-10.5-13.5-10.5-13.5-13.5-15-13.5-15-2-1.5-2-1.5-1-1-1-1 18.5 22 18.5 22 9.5 14.5 9.5 14.5 8 14.5 8 14.5 4.5 15 4.5 15 7.5 15 7.5 15" style="fill:#9b9289;stroke:#9b9289"/><path d="m621 728v1h1.5 1.5l1-1 1-1 2-.5 2-.5 1.5-.5 1.5-.5.5-2 .5-2 1-1 1-1 1-1.5 1-1.5 1-1 1-1 .5-1.5.5-1.5 1.5-1 1.5-1 1.5-.5 1.5-.5v-.5-.5h-2-2l-1.5 1-1.5 1-1 1-1 1-1 1.5-1 1.5-1 1-1 1-1.5 1-1.5 1-1 1-1 1-1.5.5-1.5.5-2 .5-2 .5v2 2l-.5 1-.5 1" style="fill:#bcb2a8;stroke:#bcb2a8"/><path d="m719 727l1 1v-3-3l-.5-.5-.5-.5-3-16.5-3-16.5-7.5-15.5-7.5-15.5-9-13.5-9-13.5-10.5-14-10.5-14-15-15-15-15 13.5 15 13.5 15 10.5 13.5 10.5 13.5 9.5 15 9.5 15 6.5 18 6.5 18 5 16 5 16" style="fill:#b1a18b;stroke:#b1a18b"/><path d="m652 723l33-14-1.5-11-1.5-11-6.5-2-6.5-2-8.5 14.5-8.5 14.5-6 4-6 4 2-1 2-1h1.5 1.5l1.5-.5 1.5-.5.5 2 .5 2 .5 1 .5 1" style="fill:#5e6061;stroke:#5e6061"/><path d="m719 721l1 1v-3-3-2.5-2.5-2-2-2.5-2.5-2-2-2.5-2.5-2-2-1-1l-.5-.5-.5-.5-9-14.5-9-14.5-7.5-14-7.5-14-11-12.5-11-12.5-19.5-19-19.5-19-1 .5-1 .5 1 1 1 1 2 1.5 2 1.5 15 15 15 15 10.5 14 10.5 14 9 13.5 9 13.5 7.5 15.5 7.5 15.5 3 16.5 3 16.5" style="fill:#bcb2a8;stroke:#bcb2a8"/><path d="m515 720l1-1h1 1l.5-.5.5-.5 1-.5 1-.5.5-.5.5-.5.5-.5.5-.5.5-.5.5-.5.5-1 .5-1 .5-.5.5-.5.5-.5.5-.5.5-.5.5-.5.5-1 .5-1-2-1-2-1-1 1-1 1h-2.5-2.5l-1 1-1 1-2-.5-2-.5-1.5.5-1.5.5-1 1.5-1 1.5v1 1l1.5 1.5 1.5 1.5 1 .5 1 .5 1.5 1 1.5 1" style="fill:#404140;stroke:#404140"/><path d="m541 720l3 1 1-1 1-1 2 .5 2 .5 1-1 1-1 1.5-1 1.5-1-1-1-1-1-2 .5-2 .5-1 1-1 1-1.5-.5-1.5-.5-1.5 1-1.5 1v1 1" style="fill:#9b9289;stroke:#9b9289"/><path d="m483 718l1 1 1-2 1-2 1.5-1 1.5-1h-2-2v-1-1l-1-.5-1-.5.5-.5.5-.5v-1.5-1.5l-.5-1.5-.5-1.5v-2-2l.5-1.5.5-1.5v-2.5-2.5l.5-1.5.5-1.5.5-2 .5-2v-2-2l.5-2 .5-2 .5-1.5.5-1.5v-2-2l.5-1 .5-1-.5-.5-.5-.5.5-1.5.5-1.5v-1-1l.5-1.5.5-1.5v-.5-.5-1.5-1.5l1-2 1-2v-.5-.5l.5-1.5.5-1.5.5-.5.5-.5.5-.5.5-.5v-1-1l.5-1 .5-1 .5-1.5.5-1.5.5-.5.5-.5v-1-1l.5-.5.5-.5v-1.5-1.5l.5-.5.5-.5.5-.5.5-.5v-1-1l.5-1 .5-1v-1-1l.5-.5.5-.5.5-1 .5-1 .5-1 .5-1 .5-1.5.5-1.5.5-1.5.5-1.5v-.5-.5l-.5-1.5-.5-1.5-.5-2-.5-2-1.5-.5-1.5-.5-1.5-.5-1.5-.5-1-1.5-1-1.5-1.5-.5-1.5-.5-1-1.5-1-1.5h-2-2l.5-2 .5-2 7 13 7 13-9 27-9 27v2 2l-.5 2-.5 2v2 2l-.5 2-.5 2-.5 1.5-.5 1.5-.5.5-.5.5-5.5-19-5.5-19 1 .5 1 .5.5.5.5.5h1 1l.5 1 .5 1h1 1l.5.5.5.5.5.5.5.5 1 .5 1 .5v2 2 1 1l-.5 1-.5 1v2 2l-.5 1-.5 1-.5 1-.5 1-.5 1-.5 1 .5.5.5.5v1.5 1.5 2 2 1 1 1.5 1.5 2 2l-.5.5-.5.5-.5-1.5-.5-1.5-.5-.5-.5-.5-.5-1-.5-1v-1-1l-.5-.5-.5-.5v-1-1l-.5-.5-.5-.5-1-.5-1-.5-.5-.5-.5-.5-.5-.5-.5-.5h-1-1l-1-.5-1-.5h-1.5-1.5l-1-1.5-1-1.5-1.5-.5-1.5-.5v2.5 2.5l1 1 1 1h-1-1l-1-1.5-1-1.5-1-1-1-1-2-.5-2-.5-1.5-.5-1.5-.5v-2.5-2.5-2.5-2.5l.5-1.5.5-1.5.5-2 .5-2v-2.5-2.5h-.5-.5l-.5 2-.5 2v1.5 1.5 1.5 1.5l-.5.5-.5.5v1.5 1.5l-.5 1.5-.5 1.5v1 1 1.5 1.5l-1 .5-1 .5h-.5-.5l-1 .5-1 .5-1 .5-1 .5-2 .5-2 .5h-2-2l12.5 6 12.5 6 .5-1.5.5-1.5 1 1.5 1 1.5v2 2l1.5 1 1.5 1 1 1 1 1 2 .5 2 .5 2 1 2 1h1.5 1.5l-1 1-1 1 .5 1.5.5 1.5 1.5.5 1.5.5.5 1 .5 1v1 1l.5.5.5.5.5 1 .5 1 .5.5.5.5.5.5.5.5 1.5.5 1.5.5" style="fill:#d0bcb7;stroke:#d0bcb7"/><path d="m508 716l2 1-1.5-1.5-1.5-1.5v-1-1l1-1.5 1-1.5 1.5-.5 1.5-.5 2 .5 2 .5 1-1 1-1h2.5 2.5l1-1 1-1 2 1 2 1 1-1 1-1 1-1 1-1 .5-1 .5-1 1.5-.5 1.5-.5.5-.5.5-.5.5-1.5.5-1.5 2-.5 2-.5 1-1 1-1 1-.5 1-.5.5-.5.5-.5 1-1 1-1 1-.5 1-.5 1-.5 1-.5-1-.5-1-.5 6.5-16.5 6.5-16.5 7-17 7-17 8-15.5 8-15.5 7.5 8 7.5 8 1.5 35 1.5 35 18-8.5 18-8.5 1-11.5 1-11.5-6.5-7-6.5-7-6.5-14.5-6.5-14.5-10.5-12-10.5-12-1 .5-1 .5-.5 1-.5 1-10 13.5-10 13.5-8.5 14.5-8.5 14.5-6 16.5-6 16.5-6.5 12-6.5 12-11 6.5-11 6.5-16.5 5-16.5 5v1.5 1.5l-.5.5-.5.5 1 .5 1 .5v1 1h2 2 2 2 2 2l1 .5 1 .5h1 1l1 .5 1 .5 1 .5 1 .5h1.5 1.5" style="fill:#615249;stroke:#615249"/><path d="m466 709h2l1-1 1-1 2.5.5 2.5.5-1.5-.5-1.5-.5-.5-1.5-.5-1.5 1-1 1-1h-1.5-1.5l-.5 1-.5 1-1 .5-1 .5h-1.5-1.5l-1.5-.5-1.5-.5-1-1-1-1h-1-1-1.5-1.5l-1.5.5-1.5.5-2-.5-2-.5-1.5-.5-1.5-.5-2-.5-2-.5 1.5 1 1.5 1 .5 1 .5 1h1 1 2 2l1.5.5 1.5.5 2-.5 2-.5 1 1 1 1 2 .5 2 .5 1.5 1 1.5 1" style="fill:#5e6061;stroke:#5e6061"/><path d="m625 709h2l1.5-.5 1.5-.5.5-1 .5-1h1 1l.5-1.5.5-1.5 1-.5 1-.5.5-.5.5-.5 1.5.5 1.5.5.5 1 .5 1 .5.5.5.5 1 .5 1 .5h1.5 1.5l11.5-14 11.5-14-12.5 4-12.5 4-5 4-5 4-1 1-1 1v1 1l1 .5 1 .5v1 1h-1-1-1-1l-1-.5-1-.5-.5.5-.5.5-.5.5-.5.5-.5.5-.5.5-.5 1-.5 1-.5.5-.5.5-.5.5-.5.5 1 1 1 1" style="fill:#ddd6ca;stroke:#ddd6ca"/><g style="fill:#404140;stroke:#404140"><path d="m334 706l1 1 2-1 2-1 1.5-1 1.5-1 1-1 1-1 1-.5 1-.5 1 .5 1 .5v-.5-.5l-1-1-1-1-1-.5-1-.5v-2-2l-1-1-1-1-1-.5-1-.5-.5.5-.5.5h-2-2l-.5 1-.5 1 .5 1.5.5 1.5v1 1l-.5 1-.5 1 .5.5.5.5v1 1l.5.5.5.5-1 1-1 1"/><path d="m325 705h3v-2-2l.5-2.5.5-2.5-2.5-1-2.5-1-1-1-1-1-2-.5-2-.5-1 .5-1 .5h-1.5-1.5-2-2l.5 1.5.5 1.5.5 1 .5 1v1 1l-1 1-1 1 1 .5 1 .5h1 1l1 1 1 1 1.5.5 1.5.5 2-.5 2-.5 1.5.5 1.5.5"/></g><path d="m464 705h3l1-.5 1-.5.5-1 .5-1-2-1-2-1-2-.5-2-.5-1-1-1-1-1.5-1-1.5-1v-2-2l-1-1.5-1-1.5-.5 1.5-.5 1.5.5 1 .5 1-1 1.5-1 1.5-1.5.5-1.5.5-1.5-.5-1.5-.5-9-8.5-9-8.5h2 2l2-.5 2-.5 1-.5 1-.5 1-.5 1-.5.5-1.5.5-1.5-1-1-1-1-.5-2-.5-2-.5-1.5-.5-1.5-.5-2-.5-2-1.5.5-1.5.5-1 1-1 1h-1-1l-.5-1-.5-1-1-1.5-1-1.5v-1-1l-.5-1-.5-1-1-1-1-1h-1-1l-.5-1-.5-1-1.5-1-1.5-1 .5 1.5.5 1.5 1 1 1 1v1 1l.5.5.5.5.5.5.5.5.5 1 .5 1 1 1 1 1v1 1 .5.5l-1 1-1 1-.5.5-.5.5-1 .5-1 .5-.5 1.5-.5 1.5v1 1l-.5 1-.5 1v1.5 1.5l10.5 11 10.5 11 2 .5 2 .5 1.5.5 1.5.5 2 .5 2 .5 1.5-.5 1.5-.5h1.5 1.5 1 1l1 1 1 1 1.5.5 1.5.5" style="fill:#796c65;stroke:#796c65"/><path d="m484 705v1l16.5-5 16.5-5 11-6.5 11-6.5 6.5-12 6.5-12 6-16.5 6-16.5 8.5-14.5 8.5-14.5 10-13.5 10-13.5-12 15-12 15-9.5 13.5-9.5 13.5-8.5 15-8.5 15-10.5 9-10.5 9-12.5-1-12.5-1-5.5 16-5.5 16" style="fill:#5e6061;stroke:#5e6061"/><path d="m348 700v1l1-.5 1-.5 1.5-.5 1.5-.5h1.5 1.5l1-1 1-1 2-.5 2-.5 1-1 1-1 1 .5 1 .5.5-.5.5-.5 1.5-.5 1.5-.5 1-.5 1-.5v-.5-.5l.5-.5.5-.5h-1.5-1.5l-2 .5-2 .5-1 1-1 1-1.5.5-1.5.5-2 .5-2 .5-1 1-1 1h-2.5-2.5l-1-1-1-1-2-1-2-1v2 2l1 .5 1 .5 1 1 1 1" style="fill:#433228;stroke:#433228"/><path d="m472 700l-1-13v6.5 6.5h.5.5" style="fill:#404140;stroke:#404140"/><path d="m622 700l25-19h-1.5-1.5l-1 1-1 1-2-.5-2-.5-1.5.5-1.5.5-1.5 1-1.5 1-2 1-2 1-.5 2-.5 2-.5.5-.5.5-1 .5-1 .5-.5 2-.5 2-.5 1-.5 1v.5.5" style="fill:#7f8082;stroke:#7f8082"/><path d="m447 696l3 1 1.5-.5 1.5-.5 1-1.5 1-1.5-.5-1-.5-1-12.5-6-12.5-6 9 8.5 9 8.5" style="fill:#96836d;stroke:#96836d"/><path d="m616 696l3 1 1.5-.5 1.5-.5.5.5.5.5.5-2 .5-2 1-.5 1-.5.5-.5.5-.5.5-2 .5-2-1-1-1-1-1 1-1 1-1.5.5-1.5.5-1 1.5-1 1.5-.5 1.5-.5 1.5-1 1-1 1" style="fill:#796c65;stroke:#796c65"/><path d="m478 695l1-1v-2-2-1.5-1.5-1-1-2-2-1.5-1.5l-.5-.5-.5-.5.5-1 .5-1 .5-1 .5-1v-.5-.5l-8-10.5-8-10.5-1-.5-1-.5-.5-1-.5-1 2 15.5 2 15.5 1 .5 1 .5h1 1l.5.5.5.5.5.5.5.5 1 .5 1 .5.5.5.5.5v1 1l.5.5.5.5v1 1l.5 1 .5 1 .5.5.5.5.5 1.5.5 1.5" style="fill:#9b9289;stroke:#9b9289"/><path d="m372 691v1l23-9 23-9-4.5-22-4.5-22-.5-.5-.5-.5-5-26.5-5-26.5.5-2.5.5-2.5v-.5-.5l-1.5-31.5-1.5-31.5-9.5-25-9.5-25-1-.5-1-.5-1-.5-1-.5-1-1-1-1-.5-.5-.5-.5-1-.5-1-.5-1-1-1-1-.5-.5-.5-.5-.5-1-.5-1-1-1-1-1-1-1-1-1-.5-.5-.5-.5-1-.5-1-.5-1-1-1-1-.5-.5-.5-.5-.5-1-.5-1-1-1-1-1-2-1.5-2-1.5-1-.5-1-.5-1.5-.5-1.5-.5-1-1.5-1-1.5-1-1-1-1-1.5-.5-1.5-.5h-2.5-2.5l-1-1-1-1-3 .5-3 .5 12 11.5 12 11.5 9.5 9 9.5 9 9 10.5 9 10.5 5 16.5 5 16.5-3 26.5-3 26.5-.5-1-.5-1 .5-.5.5-.5v-1.5-1.5l-.5-1-.5-1-2 27.5-2 27.5 4.5 15.5 4.5 15.5 6.5 16.5 6.5 16.5h-.5-.5l-.5.5-.5.5h-1-1l-1 .5-1 .5h-1-1l-.5.5-.5.5-1 .5-1 .5-1.5.5-1.5.5-.5.5-.5.5h-1.5-1.5-1-1l-.5.5-.5.5-.5.5-.5.5-.5-.5-.5-.5-1 .5-1 .5-1.5.5-1.5.5-1.5.5-1.5.5-.5.5-.5.5" style="fill:#404140;stroke:#404140"/><path d="m553 691l3 1 2-.5 2-.5h2 2l2-.5 2-.5 1-.5 1-.5v-.5-.5l19.5-5 19.5-5 19-1.5 19-1.5.5-3.5.5-3.5-25 5-25 5-19.5 4.5-19.5 4.5-1.5 1.5-1.5 1.5-1.5.5-1.5.5" style="fill:#7f8082;stroke:#7f8082"/><path d="m481 690l1-1 .5-1.5.5-1.5.5-2 .5-2v-2-2l.5-2 .5-2v-2-2l-.5-.5-.5-.5-7-15-7-15-10.5-8.5-10.5-8.5-18.5-3-18.5-3 12.5 7.5 12.5 7.5 16.5 10.5 16.5 10.5 5.5 19 5.5 19" style="fill:#ddd6ca;stroke:#ddd6ca"/><path d="m570 688v1l38.5-7 38.5-7-19 1.5-19 1.5-19.5 5-19.5 5" style="fill:#9b9289;stroke:#9b9289"/><path d="m379 687v1l1-.5 1-.5.5.5.5.5.5-.5.5-.5.5-.5.5-.5h1 1 1.5 1.5l.5-.5.5-.5 1.5-.5 1.5-.5 1-.5 1-.5.5-.5.5-.5h1 1l1-.5 1-.5h1 1l.5-.5.5-.5-1-.5-1-.5-1-1-1-1-1.5 1-1.5 1-1.5.5-1.5.5-2 .5-2 .5-1.5-.5-1.5-.5-1 1.5-1 1.5-1 1-1 1-1.5 1-1.5 1" style="fill:#433228;stroke:#433228"/><path d="m552 686l2 1 29.5-6.5 29.5-6.5-1.5-35-1.5-35-7.5-8-7.5-8-8 15.5-8 15.5-7 17-7 17-6.5 16.5-6.5 16.5" style="fill:#404140;stroke:#404140"/><path d="m719 686l1 1v-3-3-1.5-1.5l-.5-.5-.5-.5-8-11.5-8-11.5-8.5-15-8.5-15-11-13-11-13-19.5-16-19.5-16 19.5 19 19.5 19 11 12.5 11 12.5 7.5 14 7.5 14 9 14.5 9 14.5" style="fill:#d0bcb7;stroke:#d0bcb7"/><path d="m457 682h2l-1-1-1-1v-2.5-2.5l1.5.5 1.5.5 1 1.5 1 1.5h1.5 1.5l-2-15.5-2-15.5-1-2-1-2-1-2-1-2-16 2.5-16 2.5-1-.5-1-.5-.5-.5-.5-.5v-1-1l-.5-.5-.5-.5-.5-.5-.5-.5-.5-1-.5-1-.5-.5-.5-.5-.5-.5-.5-.5v-1-1l-.5-1-.5-1-.5-.5-.5-.5-.5-1.5-.5-1.5-1-1.5-1-1.5-.5-1.5-.5-1.5-.5-2-.5-2-1-1-1-1v-2-2-2.5-2.5l-.5-1.5-.5-1.5v-2.5-2.5-2-2l-.5-.5-.5-.5v-1.5-1.5l-.5-1.5-.5-1.5v-1-1l.5-1.5.5-1.5-.5-.5-.5-.5-.5-.5-.5-.5-.5 1-.5 1v2 2l.5 2.5.5 2.5 7 28.5 7 28.5 1.5 1 1.5 1 .5 1 .5 1h1 1l1 1 1 1 .5 1 .5 1v1 1l1 1.5 1 1.5v-1.5-1.5-1.5-1.5l.5-.5.5-.5-.5-1-.5-1 .5-1.5.5-1.5.5-.5.5-.5.5 1 .5 1 1.5.5 1.5.5 2-.5 2-.5h2 2 1.5 1.5l.5 1.5.5 1.5h.5.5v-1.5-1.5-1.5-1.5l-1.5-.5-1.5-.5 1.5-1 1.5-1 1-1 1-1 2 .5 2 .5 1 1 1 1 .5 1 .5 1v2 2 2 2 2.5 2.5 2 2l-.5 2-.5 2v2 2l-1 1.5-1 1.5-1.5-.5-1.5-.5-1 1-1 1 2 .5 2 .5 1 1 1 1 1 1.5 1 1.5" style="fill:#7f8082;stroke:#7f8082"/><g style="fill:#433228;stroke:#433228"><path d="m404 679v1l-6.5-16.5-6.5-16.5 4.5 10.5 4.5 10.5 2 5.5 2 5.5"/><path d="m335 678l3 1h2 2l1.5-1 1.5-1 .5-.5.5-.5-2 .5-2 .5h-1-1-1-1l-1.5-.5-1.5-.5-13.5-12-13.5-12 12 12.5 12 12.5 1.5.5 1.5.5"/></g><path d="m418 677l1 1v-1.5-1.5l.5-1 .5-1v-1-1l.5-1.5.5-1.5 1-.5 1-.5.5-.5.5-.5 1-1 1-1v-.5-.5-1-1l-1-1-1-1-.5-1-.5-1-.5-.5-.5-.5-.5-.5-.5-.5v-1-1l-1-1-1-1-.5-1.5-.5-1.5-7-28.5-7-28.5-.5-.5-.5-.5-.5-1.5-.5-1.5v-1-1l-.5-1-.5-1v-1-1l.5-.5.5-.5v-1-1l-.5-1-.5-1v-1-1-1-1l.5-.5.5-.5v-1-1l.5-1 .5-1v-1-1-1-1-2-2l-1 1-1 1v2.5 2.5l-.5 1.5-.5 1.5-.5 1-.5 1-.5 2.5-.5 2.5 5.5 27 5.5 27 4.5 22 4.5 22v1.5 1.5" style="fill:#5e6061;stroke:#5e6061"/><path d="m719 677l1 1v-3-3-2.5-2.5-2-2-2.5-2.5-2-2-2.5-2.5-2-2-1-1l-1.5-.5-1.5-.5-10-13.5-10-13.5-10-6.5-10-6.5-12-12.5-12-12.5-14-10.5-14-10.5-2-16.5-2-16.5 2-15.5 2-15.5v-13-13l3-16.5 3-16.5 8-3.5 8-3.5-2 2.5-2 2.5 9 2.5 9 2.5 12.5 5 12.5 5 17 6.5 17 6.5v-2.5-2.5-2-2-2.5-2.5-2-2-2.5-2.5-1.5-1.5l-.5-.5-.5-.5h-1.5-1.5l-1.5-.5-1.5-.5-1-1.5-1-1.5v-2-2-2.5-2.5l.5-1.5.5-1.5.5-1.5.5-1.5h1.5 1.5l2 .5 2 .5v-1.5-1.5l-22.5-2.5-22.5-2.5-21.5-3-21.5-3-19-2-19-2-21.5-3-21.5-3-22.5-2-22.5-2-22.5-2-22.5-2-14.5 8-14.5 8-2 22-2 22-3.5 31-3.5 31-9-3-9-3 2.5-11 2.5-11-8-10.5-8-10.5-3.5-15.5-3.5-15.5 4.5-15 4.5-15 10.5-13 10.5-13 5.5-19 5.5-19 5-19 5-19 10.5-12 10.5-12 16-3.5 16-3.5 13-11.5 13-11.5 16-2 16-2 7 12.5 7 12.5.5 11 .5 11-2 22.5-2 22.5 3 6 3 6 15 2.5 15 2.5-13-7.5-13-7.5 1.5-19.5 1.5-19.5 5-16.5 5-16.5 7-2.5 7-2.5 18.5 6 18.5 6 2.5 18.5 2.5 18.5 7-15.5 7-15.5 13-7.5 13-7.5 8.5-16 8.5-16-5-18.5-5-18.5-5.5-19-5.5-19-5.5-19-5.5-19-5-19-5-19-8-35.5-8-35.5h-3.5-3.5-1-1v2.5 2.5l-.5.5-.5.5v1.5 1.5l1 1 1 1 1 1.5 1 1.5.5 1.5.5 1.5 9 29 9 29 4.5 19.5 4.5 19.5 6 18.5 6 18.5 7 25.5 7 25.5v2 2l.5.5.5.5v1 1 1.5 1.5l.5.5.5.5.5.5.5.5v1 1 1 1l.5 1.5.5 1.5h1 1l-9.5 15-9.5 15h-1.5-1.5-1.5-1.5-1-1l-1 1.5-1 1.5.5 1 .5 1v1.5 1.5l-.5 1.5-.5 1.5-.5.5-.5.5-.5 1-.5 1-1 .5-1 .5h-2-2l-.5-.5-.5-.5h-1-1-1-1l-1-.5-1-.5h-2-2l-.5-.5-.5-.5-.5-.5-.5-.5h-1-1l-1-.5-1-.5-.5-.5-.5-.5h-1-1-1-1l-1-.5-1-.5-.5-.5-.5-.5h-1-1l-.5-.5-.5-.5-.5-1-.5-1h-1-1-1-1l-1-.5-1-.5-.5-.5-.5-.5h-1-1l-.5-.5-.5-.5h-1-1l-1.5-.5-1.5-.5-1.5-.5-1.5-.5-19.5-6-19.5-6-1.5-.5-1.5-.5-21.5-4.5-21.5-4.5-12.5 12-12.5 12-27.5 11-27.5 11-1 .5-1 .5-.5 1.5-.5 1.5-1 1.5-1 1.5-1 .5-1 .5-5.5 19.5-5.5 19.5-5 19-5 19-18.5 16-18.5 16-2.5-.5-2.5-.5-1-1-1-1-1-1-1-1-.5-1-.5-1-1.5-.5-1.5-.5-1 .5-1 .5 1 1 1 1 1.5 1 1.5 1 1 1 1 1 1.5 1 1.5 1 .5.5.5.5 1 .5 1 .5h2.5 2.5l-2 16.5-2 16.5 5 17.5 5 17.5 6 18.5 6 18.5 8.5 16 8.5 16-1 42.5-1 42.5 1.5-22 1.5-22 1.5-20.5 1.5-20.5 2.5-3 2.5-3-1 22.5-1 22.5 13 8.5 13 8.5 28 14.5 28 14.5-7-13-7-13 1-.5 1-.5 1-1 1-1-.5-2-.5-2-1.5-.5-1.5-.5-2-.5-2-.5-1.5-.5-1.5-.5-1.5-.5-1.5-.5-.5-.5-.5-.5h-1.5-1.5l-1.5-.5-1.5-.5-1.5-.5-1.5-.5h-2.5-2.5l-1.5.5-1.5.5 1 1.5 1 1.5 1 1 1 1 1.5 1 1.5 1 .5 1.5.5 1.5-1.5-.5-1.5-.5-18.5-2.5-18.5-2.5-2-27.5-2-27.5 1-24 1-24 2.5-28 2.5-28v-.5-.5l7-17.5 7-17.5 37.5 1.5 37.5 1.5 33.5 4 33.5 4 5 17 5 17-2 20.5-2 20.5-.5 21-.5 21-2 10.5-2 10.5 13.5 12.5 13.5 12.5 1.5.5 1.5.5 1 .5 1 .5.5.5.5.5 1 .5 1 .5.5 1 .5 1 19.5 16 19.5 16 11 13 11 13 8.5 15 8.5 15 8 11.5 8 11.5" style="fill:#ddd6ca;stroke:#ddd6ca"/><path d="m335 676l3 1h1 1 1 1l2-.5 2-.5 1-1 1-1 .5-2 .5-2v-2-2-2.5-2.5h-.5-.5l-1-.5-1-.5-1 .5-1 .5-2 .5-2 .5h-1.5-1.5-2-2-1-1l-1.5-1.5-1.5-1.5-1-1-1-1-1-1.5-1-1.5-1-1-1-1 7-14 7-14-1 .5-1 .5-.5 1-.5 1-.5 1-.5 1-.5.5-.5.5-.5.5-.5.5-.5.5-.5.5-1-.5-1-.5h-1-1l-.5.5-.5.5h-1-1l1-2 1-2 .5-2 .5-2v-2-2l.5-2 .5-2 .5-.5.5-.5 1-.5 1-.5 1.5.5 1.5.5 1 1 1 1 .5.5.5.5.5 1 .5 1v2 2l.5-2 .5-2v-2-2l-.5-.5-.5-.5-1-.5-1-.5-.5-1.5-.5-1.5 1-1.5 1-1.5-.5-1-.5-1-1 1.5-1 1.5-1 1.5-1 1.5-1.5.5-1.5.5-1.5-.5-1.5-.5 5-3 5-3 9 14 9 14 .5-1.5.5-1.5.5-1.5.5-1.5v-2.5-2.5-2-2l.5-2 .5-2v-2-2-1.5-1.5l-.5-1.5-.5-1.5h-.5-.5l-1.5.5-1.5.5h-1-1l-.5-.5-.5-.5-1-.5-1-.5-1.5-.5-1.5-.5-.5-.5-.5-.5-.5-.5-.5-.5-.5-.5-.5-.5-.5-1-.5-1-.5-.5-.5-.5v-1-1l.5-.5.5-.5v-1.5-1.5l-.5-1-.5-1-10 7.5-10 7.5-.5 15-.5 15-1-1-1-1-.5-1.5-.5-1.5v-1.5-1.5l-.5-1.5-.5-1.5-.5-1.5-.5-1.5-1-2.5-1-2.5-.5-.5-.5-.5v-2.5-2.5l-.5-1.5-.5-1.5v-2.5-2.5-2-2l.5-2 .5-2 .5-1.5.5-1.5 1-1 1-1v-1.5-1.5l-1.5 1.5-1.5 1.5-.5 2-.5 2-.5 1-.5 1 3 20.5 3 20.5 12.5 16 12.5 16 2-.5 2-.5 2-.5 2-.5.5 1.5.5 1.5-.5 2-.5 2-.5 1.5-.5 1.5-1.5-.5-1.5-.5-1.5-.5-1.5-.5-.5-.5-.5-.5-.5.5-.5.5h-1-1l-1 .5-1 .5-.5-.5-.5-.5h-1-1l-.5-.5-.5-.5-1-.5-1-.5-.5-1-.5-1-10-15-10-15-.5-30-.5-30 5.5.5 5.5.5 16 .5 16 .5-16.5-7-16.5-7-8.5 15-8.5 15 2.5 21 2.5 21 3 6.5 3 6.5 13.5 12 13.5 12" style="fill:#404140;stroke:#404140"/><path d="m442 676l2-1v-1.5-1.5-1-1l.5-1.5.5-1.5v-1.5-1.5l.5-.5.5-.5v-1.5-1.5-1.5-1.5l-.5 2-.5 2h-1-1l-.5-1-.5-1-.5-.5-.5-.5h-1-1v-1.5-1.5l-1-1-1-1-.5-.5-.5-.5-1 .5-1 .5-1 1-1 1-.5.5-.5.5-1 1-1 1v1.5 1.5l.5 1 .5 1h1 1l1-1 1-1 1.5-.5 1.5-.5.5 2 .5 2 .5 1.5.5 1.5.5 2 .5 2 1 1 1 1-.5 1.5-.5 1.5h.5.5" style="fill:#96836d;stroke:#96836d"/><path d="m446 675l3 1v-.5-.5l.5-1 .5-1v-2.5-2.5-2-2l.5-2 .5-2v-2-2-1.5-1.5l.5-1.5.5-1.5.5-1.5.5-1.5.5-2 .5-2-2-.5-2-.5-1 1-1 1-1.5 1-1.5 1 1.5.5 1.5.5v1.5 1.5 1.5 1.5 2.5 2.5l-.5 2-.5 2-.5 1.5-.5 1.5v2.5 2.5 2.5 2.5" style="fill:#5e6061;stroke:#5e6061"/><path d="m449 675v1l1-1 1-1 1.5.5 1.5.5 1-1.5 1-1.5v-2-2l.5-2 .5-2v-2-2-2.5-2.5-2-2-2-2l-.5-1-.5-1-1-1-1-1-.5 2-.5 2-.5 1.5-.5 1.5-.5 1.5-.5 1.5v1.5 1.5 2 2l-.5 2-.5 2v2 2 2.5 2.5l-.5 1-.5 1" style="fill:#796c65;stroke:#796c65"/><path d="m341 674l3 1 .5-1.5.5-1.5.5-2 .5-2-.5-1.5-.5-1.5-2 .5-2 .5-2 .5-2 .5-1 1-1 1-.5.5-.5.5-.5.5-.5.5h-1-1l-1.5-.5-1.5-.5-1.5-.5-1.5-.5.5 1 .5 1 1 .5 1 .5.5.5.5.5h1 1l.5.5.5.5 1-.5 1-.5h1 1l.5-.5.5-.5.5.5.5.5 1.5.5 1.5.5" style="fill:#615249;stroke:#615249"/><path d="m590 674l13-21 1-11.5 1-11.5-5-10.5-5-10.5-2 14.5-2 14.5-3.5 10-3.5 10 3 8 3 8" style="fill:#433228;stroke:#433228"/><path d="m480 672v1l.5-1 .5-1v-2-2l.5-1 .5-1v-1-1-2-2l-1-.5-1-.5-.5-.5-.5-.5-.5-.5-.5-.5h-1-1l-.5-1-.5-1h-1-1l-.5-.5-.5-.5-1-.5-1-.5-2-.5-2-.5h-1-1l8 10.5 8 10.5" style="fill:#9e9ea3;stroke:#9e9ea3"/><path d="m328 670l3 1h1 1l.5-.5.5-.5.5-.5.5-.5 1-1 1-1-12.5-16-12.5-16-3-20.5-3-20.5v-.5-.5-1.5-1.5-1-1l.5-.5.5-.5.5-.5.5-.5.5-1 .5-1 1-1 1-1 .5-.5.5-.5-.5-1-.5-1-1.5-.5-1.5-.5h-1-1l-1 .5-1 .5.5 30 .5 30 10 15 10 15 1.5.5 1.5.5" style="fill:#5e6061;stroke:#5e6061"/><path d="m484 669l1 1 9-27 9-27-28-14.5-28-14.5-13-8.5-13-8.5 1-22.5 1-22.5-2.5 3-2.5 3-1.5 20.5-1.5 20.5-1.5 22-1.5 22 18.5 3 18.5 3 10.5 8.5 10.5 8.5 7 15 7 15" style="fill:#ffe;stroke:#ffe"/><path d="m488 666l1 1 13.5-10 13.5-10v-.5-.5l-1-1.5-1-1.5-.5-2-.5-2 .5-1.5.5-1.5 1.5 1 1.5 1 .5 1.5.5 1.5 1.5-.5 1.5-.5v-1.5-1.5l-1.5.5-1.5.5v-1.5-1.5l-14 11.5-14 11.5-.5 1.5-.5 1.5v1 1l-.5 1.5-.5 1.5" style="fill:#7f8082;stroke:#7f8082"/><path d="m331 662h2 2 2 1.5 1.5l2-.5 2-.5v-.5-.5l-.5-18.5-.5-18.5-2.5-.5-2.5-.5-8 15-8 15 1 1 1 1 1 1.5 1 1.5 1 1 1 1 1.5 1.5 1.5 1.5" style="fill:#181b15;stroke:#181b15"/><path d="m443 661h2l.5-2 .5-2 .5-2 .5-2-.5-1.5-.5-1.5h-1.5-1.5-2-2l-2 .5-2 .5-1.5-.5-1.5-.5-.5-1-.5-1-.5.5-.5.5-.5 1.5-.5 1.5.5 1 .5 1-.5.5-.5.5v1.5 1.5l1-1 1-1 .5-.5.5-.5 1-1 1-1 1-.5 1-.5.5.5.5.5 1 1 1 1v1.5 1.5h1 1l.5.5.5.5.5 1 .5 1" style="fill:#9b9289;stroke:#9b9289"/><path d="m344 660v1l1-.5 1-.5 1 .5 1 .5.5-2.5.5-2.5v-2-2l.5-2 .5-2 .5-1.5.5-1.5.5-2 .5-2v-2-2-1.5-1.5l-9-14-9-14 .5 1 .5 1-1 1.5-1 1.5.5 1.5.5 1.5 1 .5 1 .5.5.5.5.5v2 2l-.5 2-.5 2-7 14-7 14 8-15 8-15 2.5.5 2.5.5.5 18.5.5 18.5" style="fill:#433228;stroke:#433228"/><path d="m490 657v1l14-11.5 14-11.5 11-9.5 11-9.5 14-20 14-20-19 9.5-19 9.5-4.5 4-4.5 4 .5-1 .5-1 1.5-.5 1.5-.5 1.5-1 1.5-1 .5-.5.5-.5.5-1 .5-1-1 .5-1 .5h-1-1l-.5.5-.5.5-1 .5-1 .5-1 1-1 1-1 1.5-1 1.5-1 1.5-1 1.5-1 1-1 1-1.5 1-1.5 1-1 1-1 1h-1-1v-.5-.5h-.5-.5l-.5 1.5-.5 1.5-.5 1.5-.5 1.5-.5 1-.5 1-6 15.5-6 15.5-1 2-1 2v1.5 1.5" style="fill:#9b9289;stroke:#9b9289"/><path d="m519 654l3 1 .5-.5.5-.5.5-.5.5-.5.5-1 .5-1h1 1v-1-1h-1-1l-1-.5-1-.5v-1-1l.5-.5.5-.5h1 1l1-.5 1-.5-.5-.5-.5-.5h-1-1l-.5-1-.5-1-.5 1-.5 1-1 1-1 1-1 1-1 1h-1.5-1.5l1 .5 1 .5 1.5.5 1.5.5h-1.5-1.5l-1 1-1 1 1.5 1.5 1.5 1.5" style="fill:#7f8082;stroke:#7f8082"/><path d="m466 651l4 1-16.5-10.5-16.5-10.5-12.5-7.5-12.5-7.5 1-42.5 1-42.5-8.5-16-8.5-16-6-18.5-6-18.5-5-17.5-5-17.5 2-16.5 2-16.5-1 28.5-1 28.5-1-1-1-1-1-1-1-1-.5-.5-.5-.5-1-.5-1-.5-1-1-1-1-1.5-1.5-1.5-1.5-.5-.5-.5-.5-1.5-1.5-1.5-1.5-1-1-1-1-1.5-.5-1.5-.5-1-1.5-1-1.5-2-1-2-1 .5 1 .5 1h-.5-.5l-1.5-1-1.5-1v1 1l2 1.5 2 1.5 13 12 13 12 9.5 25 9.5 25 1 .5 1 .5v-.5-.5l6.5 16.5 6.5 16.5-2 27-2 27v2 2 2.5 2.5l.5 1.5.5 1.5v2.5 2.5 2 2l1 1 1 1 .5 2 .5 2 .5 1.5.5 1.5 1 1.5 1 1.5 21.5 6.5 21.5 6.5 1 2 1 2 1 2 1 2 .5 1 .5 1 1 .5 1 .5h1 1" style="fill:#d0bcb7;stroke:#d0bcb7"/><path d="m312 650l-4-24-1.5 2-1.5 2 3.5 10 3.5 10" style="fill:#796c65;stroke:#796c65"/><path d="m492 649v1l6-15.5 6-15.5-.5 1-.5 1-.5.5-.5.5v1 1l-.5 1-.5 1v1 1l-.5.5-.5.5-.5.5-.5.5v1.5 1.5l-.5.5-.5.5v1 1l-.5.5-.5.5-.5 1.5-.5 1.5-.5 1-.5 1v1 1l-.5.5-.5.5-.5.5-.5.5-.5 1.5-.5 1.5" style="fill:#9e9ea3;stroke:#9e9ea3"/><path d="m516 646v1h1.5 1.5l1-1 1-1 1-1 1-1 .5-1 .5-1 13.5-17.5 13.5-17.5 5.5-10 5.5-10 14.5-8.5 14.5-8.5-1 .5-1 .5-.5.5-.5.5-1.5 1-1.5 1-1.5.5-1.5.5-2 .5-2 .5.5.5.5.5-2 .5-2 .5h-1-1l-2-.5-2-.5h-.5-.5l-14 20-14 20-11 9.5-11 9.5v1.5 1.5l1.5-.5 1.5-.5v1.5 1.5l-1.5.5-1.5.5-.5-1.5-.5-1.5-1.5-1-1.5-1-.5 1.5-.5 1.5.5 2 .5 2 1 1.5 1 1.5" style="fill:#96836d;stroke:#96836d"/><path d="m425 645l32-5-21.5-6.5-21.5-6.5.5 1.5.5 1.5.5.5.5.5.5 1 .5 1v1 1l.5.5.5.5.5.5.5.5.5 1 .5 1 .5.5.5.5.5.5.5.5v1 1l.5.5.5.5 1 .5 1 .5" style="fill:#9e9ea3;stroke:#9e9ea3"/><path d="m717 642l3 1v-24.5-24.5-24.5-24.5-24.5-24.5-18.5-18.5l-17-6.5-17-6.5-12.5-5-12.5-5-9-2.5-9-2.5 2-2.5 2-2.5-8 3.5-8 3.5-3 16.5-3 16.5v13 13l-2 15.5-2 15.5 2 16.5 2 16.5 14 10.5 14 10.5 12 12.5 12 12.5 10 6.5 10 6.5 10 13.5 10 13.5" style="fill:#ffe;stroke:#ffe"/><path d="m316 634l1-30 10-7.5 10-7.5-14 13-14 13 1 2.5 1 2.5.5 1.5.5 1.5.5 1.5.5 1.5v1.5 1.5l.5 1.5.5 1.5 1 1 1 1" style="fill:#181b15;stroke:#181b15"/><g style="fill:#615249;stroke:#615249"><path d="m322 632h2l.5-.5.5-.5h1 1l1 .5 1 .5.5-.5.5-.5.5-.5.5-.5.5-.5.5-.5.5-1 .5-1 .5-1 .5-1-1-.5-1-.5-.5 1-.5 1-1 1-1 1h-1-1l.5-1 .5-1v-1-1l-.5-.5-.5-.5-.5.5-.5.5-.5-2-.5-2v2 2l-.5 2-.5 2-1 2-1 2"/><path d="m408 629l1 1-5.5-27-5.5-27 5 26.5 5 26.5"/></g><path d="m327 628h2l1-1 1-1 .5-1 .5-1 1 .5 1 .5 1-.5 1-.5v-2-2l-.5-1-.5-1-.5-.5-.5-.5-1-1-1-1-1.5-.5-1.5-.5-1 .5-1 .5-.5.5-.5.5-.5 2-.5 2 .5 2 .5 2 .5-.5.5-.5.5.5.5.5v1 1l-.5 1-.5 1" style="fill:#5e6061;stroke:#5e6061"/><path d="m308 614l1 1 14-13 14-13 .5 1 .5 1v1.5 1.5l-.5.5-.5.5v1 1l.5.5.5.5.5 1 .5 1 .5.5.5.5.5.5.5.5.5.5.5.5 1.5.5 1.5.5 1 .5 1 .5.5.5.5.5h1 1l1.5-.5 1.5-.5-1-.5-1-.5h-2-2l1.5-1 1.5-1 .5-1.5.5-1.5v-2.5-2.5-2-2l-.5-1.5-.5-1.5-.5-2-.5-2-1-1-1-1-16-.5-16-.5-1.5 1.5-1.5 1.5-.5 1-.5 1v1.5 1.5l-1 1-1 1-.5 1.5-.5 1.5-.5 2-.5 2v2 2 2.5 2.5l.5 1.5.5 1.5v2.5 2.5" style="fill:#433228;stroke:#433228"/><path d="m324 612l3 1 1.5-.5 1.5-.5 1-1.5 1-1.5 1-1.5 1-1.5-5 3-5 3" style="fill:#5e6061;stroke:#5e6061"/><path d="m508 612h2l1-1 1-1 1.5-1 1.5-1 1-1 1-1 1-1.5 1-1.5 1-1.5 1-1.5-1.5.5-1.5.5-1 1-1 1-1 .5-1 .5.5-1.5.5-1.5v-1.5-1.5l-.5-1.5-.5-1.5-.5-.5-.5-.5-1-.5-1-.5-1.5-.5-1.5-.5h-1-1l-.5-.5-.5-.5h-1-1l-.5-1-.5-1 1-1 1-1v-.5-.5l.5-1 .5-1-.5-.5-.5-.5-.5-.5-.5-.5-1-.5-1-.5-1.5.5-1.5.5-.5-.5-.5-.5v-1.5-1.5l-1.5-.5-1.5-.5-.5-.5-.5-.5-1-.5-1-.5.5-1.5.5-1.5v-1-1l-1.5-.5-1.5-.5-1 .5-1 .5h-2-2-1.5-1.5l-1.5-.5-1.5-.5h-1.5-1.5-1.5-1.5l-1-.5-1-.5h-1-1-1.5-1.5-1-1-1-1l-1-.5-1-.5-1 1-1 1h-1-1v1 1l-.5.5-.5.5h-1-1l-.5-.5-.5-.5-.5-2.5-.5-2.5-1-1-1-1h-1.5-1.5l-1.5-.5-1.5-.5-1-1-1-1 1-1.5 1-1.5 1-1 1-1 1.5-1 1.5-1 1-1 1-1-1-1-1-1-1 1-1 1-1 1-1 1-.5.5-.5.5v-1.5-1.5l-.5 1-.5 1-.5 1.5-.5 1.5-1 .5-1 .5-.5.5-.5.5-.5.5-.5.5-.5.5-.5.5v1.5 1.5 1 1l-.5.5-.5.5v2 2l17.5.5 17.5.5 12.5 5.5 12.5 5.5 7.5 14 7.5 14v.5.5" style="fill:#7f8082;stroke:#7f8082"/><path d="m507 610v1h.5.5l-7.5-14-7.5-14-12.5-5.5-12.5-5.5-17.5-.5-17.5-.5-.5-.5-.5-.5-1-.5-1-.5-.5-.5-.5-.5-.5-.5-.5-.5-.5-1-.5-1v-2-2l-.5-1-.5-1v3 3 2 2l1 1.5 1 1.5.5 1.5.5 1.5 2-.5 2-.5 1.5.5 1.5.5 16.5.5 16.5.5 1.5.5 1.5.5 1.5.5 1.5.5h1.5 1.5l.5.5.5.5 1.5.5 1.5.5 1.5.5 1.5.5 2 .5 2 .5 1.5.5 1.5.5.5 2 .5 2-1 1-1 1-1 .5-1 .5-.5 2-.5 2h2 2l1 1.5 1 1.5 1.5.5 1.5.5 1 1.5 1 1.5 1.5.5 1.5.5 1.5.5 1.5.5.5 2 .5 2 .5 1.5.5 1.5" style="fill:#9e9ea3;stroke:#9e9ea3"/><path d="m514 604l2-1 1-1 1-1 1.5-.5 1.5-.5 1-1 1-1 1-.5 1-.5.5-.5.5-.5h1 1l1-.5 1-.5 19-9.5 19-9.5h.5.5l1-.5 1-.5 1.5-1 1.5-1 1.5-.5 1.5-.5-1-.5-1-.5 1-1 1-1 1.5-1 1.5-1 1.5-.5 1.5-.5 1.5-1.5 1.5-1.5-17.5 7-17.5 7-14.5 9-14.5 9v-1.5-1.5h-1-1l-.5-.5-.5-.5-1-.5-1-.5h-1-1-1-1-1-1-.5-.5-1-1-1-1l-.5-.5-.5-.5-.5-1-.5-1-1 1-1 1 .5 1 .5 1h1 1l.5.5.5.5h1 1l1.5.5 1.5.5 1 .5 1 .5.5.5.5.5.5 1.5.5 1.5v1.5 1.5l-.5 1.5-.5 1.5" style="fill:#796c65;stroke:#796c65"/><path d="m521 603l9-8-.5 1-.5 1-.5.5-.5.5-1.5 1-1.5 1-1.5.5-1.5.5-.5 1-.5 1" style="fill:#b1a18b;stroke:#b1a18b"/><path d="m522 595l29-18 17.5-7 17.5-7 .5-1 .5-1 1-.5 1-.5-.5-1-.5-1-.5.5-.5.5-1 .5-1 .5-1 1-1 1h-1-1l-.5 1-.5 1h-2-2l-.5.5-.5.5h-1-1l-.5-.5-.5-.5 1-.5 1-.5.5-.5.5-.5.5-.5.5-.5h1 1l.5-1 .5-1-1-.5-1-.5-34.5 11-34.5 11-.5-.5-.5-.5-8.5-6.5-8.5-6.5-7-5-7-5 11-8.5 11-8.5 9.5-9 9.5-9 4-3.5 4-3.5 24 16.5 24 16.5-11.5-12-11.5-12-9.5-12-9.5-12-5.5-3-5.5-3-6 14.5-6 14.5-11.5 5.5-11.5 5.5-7 6.5-7 6.5-10 13-10 13 1-1.5 1-1.5.5-1.5.5-1.5 1.5-1 1.5-1 1.5-.5 1.5-.5 1.5-1 1.5-1 1 1 1 1 .5 1.5.5 1.5 2 .5 2 .5 2 1 2 1h1.5 1.5l1.5.5 1.5.5h1.5 1.5 2 2l1-.5 1-.5 2-.5 2-.5 1 1 1 1-.5 1.5-.5 1.5.5.5.5.5.5 1 .5 1 1.5.5 1.5.5.5.5.5.5 1 .5 1 .5 1.5.5 1.5.5.5.5.5.5.5 1 .5 1-.5 1.5-.5 1.5-1 .5-1 .5.5 1 .5 1 .5.5.5.5h1 1 1 1 .5.5 1 1 1 1 1 1l1 .5 1 .5.5.5.5.5h1 1v1.5 1.5" style="fill:#5e6061;stroke:#5e6061"/><path d="m306 593v1l.5-1 .5-1 .5-2 .5-2 1.5-1.5 1.5-1.5.5-1 .5-1 1.5-1.5 1.5-1.5-5.5-.5-5.5-.5 1-.5 1-.5h1 1l1.5.5 1.5.5.5 1 .5 1-.5.5-.5.5-1 1-1 1-.5 1-.5 1-.5.5-.5.5-.5.5-.5.5v1 1 1.5 1.5" style="fill:#615249;stroke:#615249"/><path d="m406 593l1 1 2-27 2-27-2.5 21-2.5 21-.5 1.5-.5 1.5v1 1l.5 1.5.5 1.5v1.5 1.5" style="fill:#9b9289;stroke:#9b9289"/><path d="m403 590l1 1-.5-2.5-.5-2.5v-2-2l.5-1 .5-1-3-36.5-3-36.5v.5.5l2.5 25.5 2.5 25.5v2 2 1 1 1 1l-.5 1-.5 1v1 1l-.5.5-.5.5v1 1 1 1l.5 1 .5 1v1 1l-.5.5-.5.5v1 1l.5 1 .5 1v1 1l.5 1.5.5 1.5" style="fill:#796c65;stroke:#796c65"/><path d="m510 587l35-9-10 1.5-10 1.5-7.5 3-7.5 3" style="fill:#615249;stroke:#615249"/><path d="m466 586l3 1-.5-1.5-.5-1.5-1.5-1-1.5-1-1-1-1-1-1-1.5-1-1.5 1.5-.5 1.5-.5h2.5 2.5l-16.5-.5-16.5-.5-2 .5-2 .5-1 1-1 1-1.5-.5-1.5-.5-1-2.5-1-2.5v-2-2l-.5-1.5-.5-1.5v-2.5-2.5-2-2-2.5-2.5l.5-1.5.5-1.5v-2-2-2.5-2.5-2.5-2.5-2-2-2-2l2 27.5 2 27.5 18.5 2.5 18.5 2.5" style="fill:#d0bcb7;stroke:#d0bcb7"/><path d="m504 586v1l1-.5 1-.5.5-1.5.5-1.5-.5-1-.5-1-.5-.5-.5-.5-1.5-.5-1.5-.5-1-.5-1-.5-.5-.5-.5-.5-1.5-.5-1.5-.5-.5-1-.5-1-.5-.5-.5-.5.5-1.5.5-1.5-1-1-1-1-2 .5-2 .5 1.5.5 1.5.5v1 1l-.5 1.5-.5 1.5 1 .5 1 .5.5.5.5.5 1.5.5 1.5.5v1.5 1.5l.5.5.5.5 1.5-.5 1.5-.5 1 .5 1 .5.5.5.5.5.5.5.5.5-.5 1-.5 1" style="fill:#796c65;stroke:#796c65"/><path d="m405 581l1 1 2.5-21 2.5-21-6.5-16.5-6.5-16.5 3 36.5 3 36.5.5.5.5.5" style="fill:#96836d;stroke:#96836d"/><path d="m508 580l69-22-2-1-2-1-1.5-.5-1.5-.5-1.5-1-1.5-1 .5-.5.5-.5h2 2l2 .5 2 .5.5-1.5.5-1.5-2-1.5-2-1.5-24-16.5-24-16.5-4 3.5-4 3.5-9.5 9-9.5 9-11 8.5-11 8.5 7 5 7 5 2-7.5 2-7.5 16-6.5 16-6.5 20.5 9 20.5 9h.5.5l-11 7-11 7-17.5 4.5-17.5 4.5h-2-2l.5.5.5.5" style="fill:#615249;stroke:#615249"/><path d="m511 579l35-9 11-7 11-7-24.5 7-24.5 7 24-7 24-7-20.5-9-20.5-9-16 6.5-16 6.5-2 7.5-2 7.5 8.5 6.5 8.5 6.5h2 2" style="fill:#404140;stroke:#404140"/><path d="m427 577l3 1 1-1 1-1 2-.5 2-.5-1.5-.5-1.5-.5-2 .5-2 .5-.5-1.5-.5-1.5-1-1.5-1-1.5v-2-2-3-3l-.5-1-.5-1v-2.5-2.5-.5-.5-1.5-1.5l-.5 1.5-.5 1.5v2.5 2.5 2 2 2.5 2.5l.5 1.5.5 1.5v2 2l1 2.5 1 2.5" style="fill:#bcb2a8;stroke:#bcb2a8"/><path d="m573 577h2l2-.5 2-.5-.5-.5-.5-.5 2-.5 2-.5 1.5-.5 1.5-.5 1.5-1 1.5-1 .5-.5.5-.5 1-.5 1-.5 1-2 1-2-1 .5-1 .5h-2-2-1-1l1.5-1 1.5-1 1-2 1-2h-.5-.5l-1 .5-1 .5-.5 1-.5 1-1.5 1.5-1.5 1.5-1.5.5-1.5.5-1.5 1-1.5 1-1 1-1 1 1 .5 1 .5-1.5.5-1.5.5-1.5 1-1.5 1-1 .5-1 .5 2 .5 2 .5" style="fill:#7f8082;stroke:#7f8082"/><g style="fill:#796c65;stroke:#796c65"><path d="m451 572h2l.5-.5.5-.5v-1-1h1 1l1-1 1-1 1 .5 1 .5h1 1 1 1 1.5 1.5 1 1l1 .5 1 .5h1.5 1.5l-2-1-2-1-2-.5-2-.5-.5-1.5-.5-1.5-1-1-1-1-1.5 1-1.5 1-1.5.5-1.5.5-1.5 1-1.5 1-.5 1.5-.5 1.5-1 1.5-1 1.5"/><path d="m450 571l1 1 10-13 10-13 7-6.5 7-6.5 11.5-5.5 11.5-5.5 6-14.5 6-14.5 5.5 3 5.5 3 9.5 12 9.5 12 11.5 12 11.5 12 2 1.5 2 1.5-.5 1.5-.5 1.5-2-.5-2-.5h-2-2l-.5.5-.5.5 1.5 1 1.5 1 1.5.5 1.5.5 2 1 2 1 1 .5 1 .5-.5 1-.5 1h-1-1l-.5.5-.5.5-.5.5-.5.5-1 .5-1 .5.5.5.5.5h1 1l.5-.5.5-.5h2 2l.5-1 .5-1h1 1l1-1 1-1 1-.5 1-.5.5-.5.5-.5.5 1 .5 1h.5.5l.5-1.5.5-1.5-.5-.5-.5-.5-10-14-10-14-2-13-2-13 2.5-14 2.5-14-8.5-13-8.5-13-8-.5-8-.5-5.5-8-5.5-8-7.5 12-7.5 12-6.5 8.5-6.5 8.5-6 13.5-6 13.5-6 6.5-6 6.5-3 8.5-3 8.5-11.5 10.5-11.5 10.5 1 1 1 1-1 1-1 1-1.5 1-1.5 1-1 1-1 1-1 1.5-1 1.5 1 1 1 1 1.5.5 1.5.5h1.5 1.5l1 1 1 1 .5 2.5.5 2.5"/></g><path d="m399 570v1l.5-1 .5-1 .5-1.5.5-1.5v-2.5-2.5l1-1 1-1-2.5-25.5-2.5-25.5-1-.5-1-.5 1.5 31.5 1.5 31.5" style="fill:#615249;stroke:#615249"/><path d="m432 570l1 1v-2-2l.5-.5.5-.5v-1-1-1.5-1.5l.5-.5.5-.5.5-.5.5-.5.5-.5.5-.5 1-.5 1-.5.5-1.5.5-1.5-4.5-16-4.5-16 4-17.5 4-17.5 7-10.5 7-10.5-7-3.5-7-3.5 9.5-7.5 9.5-7.5 9-1.5 9-1.5 3.5-9 3.5-9 2.5 3 2.5 3 8.5-8 8.5-8 9.5-5 9.5-5 10 3.5 10 3.5 11.5 4.5 11.5 4.5 3.5 16 3.5 16 1.5 18 1.5 18 4.5 32 4.5 32-2.5-18.5-2.5-18.5 1-19.5 1-19.5 1-20.5 1-20.5-8-12-8-12-12-3.5-12-3.5-14.5-3-14.5-3-13 5.5-13 5.5-10.5 8-10.5 8-13 1.5-13 1.5-5 15.5-5 15.5-2 20-2 20-2 27-2 27v2.5 2.5l.5 1 .5 1 .5 1 .5 1v2 2l.5 1 .5 1 .5.5.5.5.5.5.5.5 1 .5 1 .5" style="fill:#9b9289;stroke:#9b9289"/><g style="fill:#433228;stroke:#433228"><path d="m519 570l49-14h-.5-.5l-24 7-24 7"/><path d="m387 569l6-53-5-16.5-5-16.5-9-10.5-9-10.5-9.5-9-9.5-9-12-11.5-12-11.5-2 1-2 1-1.5 12.5-1.5 12.5 1.5-6.5 1.5-6.5-2-.5-2-.5-.5-.5-.5-.5-1-.5-1-.5-1.5-.5-1.5-.5-.5-.5-.5-.5-1 .5-1 .5-2-1-2-1h-1-1v2 2l-1 1.5-1 1.5.5 1.5.5 1.5-2 .5-2 .5-1 1-1 1-1 1.5-1 1.5-1.5-.5-1.5-.5h-1.5-1.5l-.5-1.5-.5-1.5-.5-1.5-.5-1.5-1.5-1-1.5-1 .5-1.5.5-1.5 2-.5 2-.5 7.5-12 7.5-12 15-8.5 15-8.5 15-7 15-7 6.5-9 6.5-9 3.5-8 3.5-8 5.5-11.5 5.5-11.5 7-12.5 7-12.5 6.5-13 6.5-13 10.5-12.5 10.5-12.5 21-11.5 21-11.5 6.5-5.5 6.5-5.5 14.5-4 14.5-4 16 1.5 16 1.5 10.5 8.5 10.5 8.5 10 .5 10 .5 12.5 3 12.5 3 14-1 14-1v-9.5-9.5l-3.5-2-3.5-2 7.5-7 7.5-7-6-23-6-23-1-.5-1-.5-6.5-13.5-6.5-13.5-4-7.5-4-7.5-8-14.5-8-14.5-4.5-9-4.5-9 .5-12 .5-12-4.5-15-4.5-15h-24.5-24.5-24.5-24.5-24.5-24.5-24-24-13.5-13.5l2.5 3 2.5 3-6.5 10-6.5 10 1.5 7 1.5 7 5-1.5 5-1.5 1 6 1 6 3 4.5 3 4.5-19.5 13.5-19.5 13.5 4.5 4 4.5 4-5 5.5-5 5.5-1-.5-1-.5 1-1.5 1-1.5 1-2 1-2-12.5-6.5-12.5-6.5-7.5-7-7.5-7-4 .5-4 .5 6 12 6 12 4.5 1 4.5 1v12.5 12.5l-1 10-1 10 4 8.5 4 8.5 2 12.5 2 12.5-11.5 2.5-11.5 2.5-14 5.5-14 5.5-.5 14-.5 14-1.5 15.5-1.5 15.5-5.5 10-5.5 10 3.5 13 3.5 13-11.5 18.5-11.5 18.5-6.5 9-6.5 9-3 5-3 5 3 .5 3 .5-13 5.5-13 5.5-12.5 2-12.5 2-8 5-8 5-14 6.5-14 6.5-11 8.5-11 8.5-7.5 12-7.5 12-12 .5-12 .5-9.5 9-9.5 9-12.5 8-12.5 8-14.5 7.5-14.5 7.5v2.5 2.5 2 2 2.5 2.5 2 2 2 2 2.5 2.5l10-9 10-9 10-4 10-4 11.5-9 11.5-9 8-6.5 8-6.5 9.5-6 9.5-6 11 1 11 1 10.5-2 10.5-2 5.5-11 5.5-11 8 10 8 10 4.5-11 4.5-11 10.5 7 10.5 7 6-.5 6-.5 3.5 12.5 3.5 12.5 1.5 10 1.5 10 5.5 2 5.5 2 9.5 7 9.5 7 15.5-.5 15.5-.5 7-8.5 7-8.5 9-13.5 9-13.5 10-7 10-7 7.5 3 7.5 3 9.5 14 9.5 14 7.5 8 7.5 8 4.5 16 4.5 16-2.5 15.5-2.5 15.5.5 1 .5 1v1.5 1.5l-.5.5-.5.5.5 1 .5 1"/></g><path d="m585 566h2 2 2l1-.5 1-.5 1.5-.5 1.5-.5.5-.5.5-.5.5-.5.5-.5 1-.5 1-.5.5-.5.5-.5.5-.5.5-.5h1 1l1.5-.5 1.5-.5-1-.5-1-.5-.5-.5-.5-.5h-1-1l-.5-.5-.5-.5-1-.5-1-.5-1.5-.5-1.5-.5h-1-1l-2-.5-2-.5h-1-1l1 1.5 1 1.5.5 1 .5 1-.5 1.5-.5 1.5-1 2-1 2-1.5 1-1.5 1" style="fill:#9b9289;stroke:#9b9289"/><path d="m613 559l3 1-13.5-12.5-13.5-12.5 2-10.5 2-10.5.5-21 .5-21 2-20.5 2-20.5-5-17-5-17 2.5 16 2.5 16-3 16.5-3 16.5.5 18 .5 18 11.5 30.5 11.5 30.5h1 1" style="fill:#d0bcb7;stroke:#d0bcb7"/><path d="m503 558l39-7-13-2.5-13-2.5-6.5 6-6.5 6" style="fill:#433228;stroke:#433228"/><path d="m609 558l2 1-11.5-30.5-11.5-30.5-.5-18-.5-18 3-16.5 3-16.5-2.5-16-2.5-16-33.5-4-33.5-4-20.5-1-20.5-1-13 3.5-13 3.5-11 14-11 14-2.5 28-2.5 28-1 24-1 24v2 2 2 2 2.5 2.5l1.5-22.5 1.5-22.5 2-22.5 2-22.5 3.5-21 3.5-21 15.5-4 15.5-4 20-2 20-2 19 .5 19 .5 17.5 3 17.5 3 2.5 18 2.5 18-1 19.5-1 19.5-1.5 19-1.5 19 3.5 18.5 3.5 18.5 2 .5 2 .5h1 1l1.5.5 1.5.5 1 .5 1 .5.5.5.5.5h1 1l.5.5.5.5 1 .5 1 .5h1 1" style="fill:#bcb2a8;stroke:#bcb2a8"/><path d="m590 556l1 1-.5-1-.5-1-1-1.5-1-1.5-1-.5-1-.5-4.5-32-4.5-32-1.5-18-1.5-18-3.5-16-3.5-16-11.5-4.5-11.5-4.5-10-3.5-10-3.5-9.5 5-9.5 5-8.5 8-8.5 8-2.5-3-2.5-3-3.5 9-3.5 9-9 1.5-9 1.5-9.5 7.5-9.5 7.5 7 3.5 7 3.5-7 10.5-7 10.5-4 17.5-4 17.5 4.5 16 4.5 16 .5-1 .5-1v1.5 1.5l.5-.5.5-.5 1-1 1-1 1-1 1-1 11.5-10.5 11.5-10.5 3-8.5 3-8.5 6-6.5 6-6.5 6-13.5 6-13.5 6.5-8.5 6.5-8.5 7.5-12 7.5-12 5.5 8 5.5 8 8 .5 8 .5 8.5 13 8.5 13-2.5 14-2.5 14 2 13 2 13 10 14 10 14" style="fill:#96836d;stroke:#96836d"/><path d="m425 551v1l2-27 2-27 2-20 2-20 5-15.5 5-15.5 13-1.5 13-1.5 10.5-8 10.5-8 13-5.5 13-5.5 14.5 3 14.5 3 12 3.5 12 3.5 8 12 8 12-1 20.5-1 20.5-1 19.5-1 19.5 2.5 18.5 2.5 18.5 1 .5 1 .5h1 1l-3.5-18.5-3.5-18.5 1.5-19 1.5-19 1-19.5 1-19.5-2.5-18-2.5-18-17.5-3-17.5-3-19-.5-19-.5-20 2-20 2-15.5 4-15.5 4-3.5 21-3.5 21-2 22.5-2 22.5-1.5 22.5-1.5 22.5v2.5 2.5 2 2 1.5 1.5" style="fill:#b1a18b;stroke:#b1a18b"/><path d="m436 530l3 1 1.5-.5 1.5-.5 1-1.5 1-1.5-.5-1.5-.5-1.5v-2.5-2.5l-1.5-.5-1.5-.5-1 1.5-1 1.5v2 2l-1 1-1 1v1.5 1.5" style="fill:#796c65;stroke:#796c65"/><path d="m421 504l7-62 2-22 2-22 14.5-8 14.5-8 22.5 2 22.5 2 22.5 2 22.5 2 21.5 3 21.5 3 19 2 19 2 21.5 3 21.5 3 22.5 2.5 22.5 2.5v-24-24-24.5-24.5-24-24-24.5-24.5-24.5-24.5-24.5-24.5-24.5-24.5-24.5-24.5-10.5-10.5h-13.5-13.5-24.5-24.5-4-4l8 35.5 8 35.5 5 19 5 19 5.5 19 5.5 19 5.5 19 5.5 19 5 18.5 5 18.5-8.5 16-8.5 16-13 7.5-13 7.5-7 15.5-7 15.5-2.5-18.5-2.5-18.5-18.5-6-18.5-6-7 2.5-7 2.5-5 16.5-5 16.5-1.5 19.5-1.5 19.5 13 7.5 13 7.5-15-2.5-15-2.5-3-6-3-6 2-22.5 2-22.5-.5-11-.5-11-7-12.5-7-12.5-16 2-16 2-13 11.5-13 11.5-16 3.5-16 3.5-10.5 12-10.5 12-5 19-5 19-5.5 19-5.5 19-10.5 13-10.5 13-4.5 15-4.5 15 3.5 15.5 3.5 15.5 8 10.5 8 10.5-2.5 11-2.5 11 9 3 9 3" style="fill:#ffe;stroke:#ffe"/><path d="m0 498v1l14.5-7.5 14.5-7.5 12.5-8 12.5-8 9.5-9 9.5-9 12-.5 12-.5 7.5-12 7.5-12 11-8.5 11-8.5 14-6.5 14-6.5 8-5 8-5 12.5-2 12.5-2 13-5.5 13-5.5-3-.5-3-.5 3-5 3-5 6.5-9 6.5-9-17.5 2-17.5 2-12 9-12 9-11 1.5-11 1.5-14.5-3-14.5-3-12 4.5-12 4.5-10 7.5-10 7.5-13.5 9-13.5 9-13 4-13 4-14.5 8.5-14.5 8.5-.5-1-.5-1-1-.5-1-.5-1.5-.5-1.5-.5v24.5 24.5 13 13" style="fill:#404140;stroke:#404140"/><path d="m375 456l2 1-13-12-13-12 1 1 1 1 .5 1 .5 1 .5.5.5.5 1 1 1 1 1 .5 1 .5.5.5.5.5 1 1 1 1 1 1 1 1 .5 1 .5 1 .5.5.5.5 1 1 1 1 1 .5 1 .5.5.5.5.5 1 1 1 1 1 .5 1 .5" style="fill:#615249;stroke:#615249"/><path d="m377 451l2-57h-2.5-2.5l-1-.5-1-.5-.5-.5-.5-.5-1.5-1-1.5-1-3.5 9.5-3.5 9.5 6 19 6 19 1 1 1 1 1 1 1 1" style="fill:#bcb2a8;stroke:#bcb2a8"/><path d="m315 448l3-25 .5 1 .5 1 .5 1 .5 1 .5 1.5.5 1.5.5.5.5.5v1.5 1.5l-2 .5-2 .5-1.5 6.5-1.5 6.5" style="fill:#404140;stroke:#404140"/><path d="m372 446l1 1-6-19-6-19 3.5-9.5 3.5-9.5-1-1-1-1-1.5-1-1.5-1-9 11-9 11 10 16 10 16 1.5 1.5 1.5 1.5 1 1 1 1 1 .5 1 .5" style="fill:#b1a18b;stroke:#b1a18b"/><path d="m284 444h3l1.5.5 1.5.5 1-1.5 1-1.5 1-1 1-1 2-.5 2-.5-.5-1.5-.5-1.5 1-1.5 1-1.5v-2-2h1 1l-1-1-1-1-.5 1-.5 1-1 1-1 1-.5.5-.5.5.5 1 .5 1v2 2l-.5.5-.5.5h-1.5-1.5l-1 1-1 1h-1-1l-1-1-1-1v-1-1l-.5-1-.5-1-.5-1.5-.5-1.5-2 .5-2 .5-.5 1.5-.5 1.5 1.5 1 1.5 1 .5 1.5.5 1.5.5 1.5.5 1.5" style="fill:#404140;stroke:#404140"/><path d="m288 441h2l1-1 1-1h1.5 1.5l.5-.5.5-.5v-2-2l-.5-1-.5-1 .5-.5.5-.5 1-1 1-1 .5-1 .5-1 1 1 1 1 2 1 2 1 1-.5 1-.5.5.5.5.5 1.5.5 1.5.5 1 .5 1 .5.5.5.5.5 2 .5 2 .5 2-.5 2-.5v-1.5-1.5l-.5-.5-.5-.5-.5-1.5-.5-1.5-.5-1-.5-1-.5-1-.5-1 2-1 2-1 3-.5 3-.5 1 1 1 1h2.5 2.5l1.5.5 1.5.5 1 1 1 1 1 1.5 1 1.5 1.5.5 1.5.5 1 .5 1 .5v-1-1l-14-10.5-14-10.5 22-12 22-12 1.5.5 1.5.5.5 1 .5 1 18.5-6.5 18.5-6.5v-.5-.5l4.5-19 4.5-19 4-18.5 4-18.5 7.5-16.5 7.5-16.5 13.5-10 13.5-10 15-9.5 15-9.5 16-3.5 16-3.5 20.5 9 20.5 9-13-11-13-11-30 3.5-30 3.5-21 11.5-21 11.5-10.5 12.5-10.5 12.5-6.5 13-6.5 13-7 12.5-7 12.5-5.5 11.5-5.5 11.5-3.5 8-3.5 8-6.5 9-6.5 9-15 7-15 7-15 8.5-15 8.5-7.5 12-7.5 12 .5 1.5.5 1.5.5 1 .5 1v1 1l1 1 1 1" style="fill:#615249;stroke:#615249"/><path d="m364 439l1 1-10-16-10-16 9-11 9-11-1-1-1-1-1-1-1-1-2.5 1-2.5 1-2 22-2 22 2 1 2 1 1 1.5 1 1.5 1.5.5 1.5.5 1 1 1 1 1.5 1.5 1.5 1.5" style="fill:#9b9289;stroke:#9b9289"/><path d="m719 432l1 1v-3-3-2.5-2.5-2-2-2-2l-2-.5-2-.5h-1.5-1.5l-.5 1.5-.5 1.5-.5 1.5-.5 1.5v2.5 2.5 2 2l1 1.5 1 1.5 1.5.5 1.5.5h1.5 1.5" style="fill:#d0bcb7;stroke:#d0bcb7"/><path d="m350 430h1l-.5-1-.5-1-.5-.5-.5-.5-12.5-11.5-12.5-11.5 15-10 15-10 2.5-1 2.5-1 1 1 1 1 1-.5 1-.5-22 12-22 12 14 10.5 14 10.5 1.5 1 1.5 1" style="fill:#796c65;stroke:#796c65"/><path d="m6 427l29-17 13-4 13-4 13.5-9 13.5-9 10-7.5 10-7.5 12-4.5 12-4.5 14.5 3 14.5 3 11-1.5 11-1.5 12-9 12-9 17.5-2 17.5-2 11.5-18.5 11.5-18.5-3.5-13-3.5-13 5.5-10 5.5-10 1.5-15.5 1.5-15.5.5-14 .5-14 14-5.5 14-5.5 11.5-2.5 11.5-2.5-2-12.5-2-12.5-4-8.5-4-8.5 1-10 1-10v-12.5-12.5l-4.5-1-4.5-1-6-12-6-12 4-.5 4-.5 7.5 7 7.5 7 12.5 6.5 12.5 6.5 1-.5 1-.5 1.5-1 1.5-1-1-1-1-1-2 .5-2 .5-1-1-1-1 1-2.5 1-2.5v-.5-.5l-8.5-11-8.5-11-11-9.5-11-9.5 13-2.5 13-2.5 8.5-2 8.5-2-10-17-10-17h-24-24-3-3l6 15 6 15 8 12 8 12-13.5-11-13.5-11-1-1-1-1-1-1.5-1-1.5-2.5-.5-2.5-.5h-15-15l.5 14 .5 14v12.5 12.5l2.5 17.5 2.5 17.5-2 14.5-2 14.5-2.5 16-2.5 16-2 12.5-2 12.5-3.5 14-3.5 14-5.5 24.5-5.5 24.5-6.5 11.5-6.5 11.5-4.5 8-4.5 8-9.5 9.5-9.5 9.5-10.5 5-10.5 5h-14.5-14.5l-11.5 10-11.5 10-12.5 7-12.5 7-12 10-12 10-22 8.5-22 8.5v2.5 2.5 1 1l1.5.5 1.5.5 1 .5 1 .5.5 1 .5 1" style="fill:#615249;stroke:#615249"/><path d="m349 427l1 1 2-22 2-22-15 10-15 10 12.5 11.5 12.5 11.5" style="fill:#96836d;stroke:#96836d"/><path d="m432 421v1l11-14 11-14 13-3.5 13-3.5 20.5 1 20.5 1-37.5-1.5-37.5-1.5-7 17.5-7 17.5" style="fill:#d0bcb7;stroke:#d0bcb7"/><path d="m0 415v1l22-8.5 22-8.5 12-10 12-10 12.5-7 12.5-7 11.5-10 11.5-10h14.5 14.5l10.5-5 10.5-5 9.5-9.5 9.5-9.5 4.5-8 4.5-8 6.5-11.5 6.5-11.5-14.5 6-14.5 6-4 9.5-4 9.5-7.5 11-7.5 11-10-4-10-4-14 .5-14 .5-11 7.5-11 7.5-11 9.5-11 9.5-14 7.5-14 7.5-17.5 10-17.5 10v2.5 2.5 2.5 2.5 2 2 2.5 2.5 2 2" style="fill:#5e6061;stroke:#5e6061"/><g style="fill:#796c65;stroke:#796c65"><path d="m0 391v1l17.5-10 17.5-10 14-7.5 14-7.5 11-9.5 11-9.5 11-7.5 11-7.5 14-.5 14-.5 10 4 10 4 7.5-11 7.5-11 4-9.5 4-9.5 14.5-6 14.5-6 5.5-24.5 5.5-24.5 3.5-14 3.5-14 2-12.5 2-12.5 2.5-16 2.5-16 2-14.5 2-14.5-1.5.5-1.5.5h-1-1l-.5.5-.5.5-.5-.5-.5-.5-.5-1-.5-1h1 1v-1-1l-.5-.5-.5-.5-.5 1-.5 1-.5.5-.5.5v1 1l-.5.5-.5.5-.5.5-.5.5-2.5-14-2.5-14-2-12.5-2-12.5-.5-13-.5-13 5-11.5 5-11.5 17.5 5.5 17.5 5.5 2.5.5 2.5.5 1 1.5 1 1.5 1 1 1 1 4.5-2.5 4.5-2.5-6-13.5-6-13.5h-3-3-2-2v1 1l-1 1-1 1h-1-1-1.5-1.5l-1.5-.5-1.5-.5-1.5-1-1.5-1-1 1-1 1h-1-1l-.5-1.5-.5-1.5h-3.5-3.5-2-2-2.5-2.5-2-2-2-2-2.5-2.5l-10 14-10 14 1.5 17.5 1.5 17.5.5 16.5.5 16.5 1.5 17 1.5 17v14.5 14.5l-3 3.5-3 3.5 1 7.5 1 7.5-5 10-5 10-5.5 13-5.5 13-9 11.5-9 11.5-11.5 18.5-11.5 18.5-12 11-12 11-10 3.5-10 3.5-13 9.5-13 9.5-14 9-14 9-17 9.5-17 9.5v3.5 3.5 2 2 2.5 2.5 1.5 1.5"/><path d="m376 391l37-32 5-19 5-19 5.5-19.5 5.5-19.5v-.5-.5l.5-1 .5-1 .5-1.5.5-1.5 1-1 1-1 .5-.5.5-.5.5-1 .5-1 1-1 1-1 1-1.5 1-1.5.5-1.5.5-1.5 1.5-1 1.5-1 1.5-.5 1.5-.5h1.5 1.5l1-.5 1-.5 2-.5 2-.5 1-1 1-1 2-1 2-1 1-.5 1-.5 2-.5 2-.5 1-1 1-1 1.5-1 1.5-1h2 2l1.5 1 1.5 1 2-.5 2-.5 14-10 14-10 21.5 3 21.5 3-18-6-18-6-15 3.5-15 3.5-15.5 9-15.5 9-13 11-13 11-7 17.5-7 17.5-9 34-9 34-18.5 6.5-18.5 6.5 1 1 1 1 1 1 1 1 2.5.5 2.5.5"/></g><path d="m404 372v1l9-34 9-34 7-17.5 7-17.5 13-11 13-11 15.5-9 15.5-9 15-3.5 15-3.5 18 6 18 6 2.5 1 2.5 1 1.5.5 1.5.5v-.5-.5l-.5-.5-.5-.5-20.5-9-20.5-9-16 3.5-16 3.5-15 9.5-15 9.5-13.5 10-13.5 10-7.5 16.5-7.5 16.5-4 18.5-4 18.5-4.5 19-4.5 19" style="fill:#5e6061;stroke:#5e6061"/><path d="m0 371v1l17-9.5 17-9.5 14-9 14-9 13-9.5 13-9.5 10-3.5 10-3.5 12-11 12-11-1 .5-1 .5-.5.5-.5.5v1.5 1.5l-.5 1-.5 1-3.5-8-3.5-8-11.5 7.5-11.5 7.5-13 8-13 8-8.5 6-8.5 6-27.5 12.5-27.5 12.5v3 3 2 2 2.5 2.5 2 2 2.5 2.5.5.5" style="fill:#7f8082;stroke:#7f8082"/><path d="m559 347l1 1v-.5-.5-2-2l.5-2 .5-2 .5-1.5.5-1.5v-2.5-2.5l.5-1.5.5-1.5v-2-2-1-1-1.5-1.5-1.5-1.5l-.5-.5-.5-.5v-1.5-1.5-1.5-1.5l-.5 1-.5 1v2.5 2.5l-.5 1.5-.5 1.5v2.5 2.5 2 2l-.5 2-.5 2v2 2 2 2 2.5 2.5 1 1" style="fill:#bcb2a8;stroke:#bcb2a8"/><path d="m560 347v1l3-23 3-23 .5-5.5.5-5.5-.5 2-.5 2-.5 1.5-.5 1.5v2.5 2.5l-.5 1.5-.5 1.5v2.5 2.5l-.5 2.5-.5 2.5v1.5 1.5 1.5 1.5 1 1 2 2l-.5 1.5-.5 1.5v2.5 2.5l-.5 1.5-.5 1.5-.5 2-.5 2v2 2" style="fill:#d0bcb7;stroke:#d0bcb7"/><path d="m0 345v1l27.5-12.5 27.5-12.5 8.5-6 8.5-6 13-8 13-8 11.5-7.5 11.5-7.5 9-10 9-10 7.5-11 7.5-11 3-14.5 3-14.5 5-15 5-15 6-14.5 6-14.5 2-16.5 2-16.5v-19.5-19.5l-1.5-22-1.5-22v-.5-.5-1.5-1.5-1-1l-.5-1.5-.5-1.5v-2-2-2.5-2.5l-.5-1.5-.5-1.5-1-1.5-1-1.5-.5-1.5-.5-1.5v-1.5-1.5l-.5-1-.5-1h-3-3-1-1v1.5 1.5l1 1 1 1v1.5 1.5l.5 1.5.5 1.5.5 1.5.5 1.5.5.5.5.5-.5 1-.5 1-.5 1.5-.5 1.5v1 1l-.5 1-.5 1-.5 1.5-.5 1.5 4.5 16 4.5 16 1.5 16 1.5 16-3 18.5-3 18.5-5.5 14.5-5.5 14.5-4.5 17-4.5 17-5 14.5-5 14.5-8.5 14.5-8.5 14.5-13.5 12.5-13.5 12.5-15 8-15 8-12 10.5-12 10.5-23 13-23 13-1-1-1-1v1.5 1.5 2 2 1.5 1.5" style="fill:#9b9289;stroke:#9b9289"/><g style="fill:#9e9ea3;stroke:#9e9ea3"><path d="m2 337l46-26 12-10.5 12-10.5 15-8 15-8v-.5-.5h2.5 2.5l.5-1.5.5-1.5-.5-2-.5-2-1-1-1-1-1.5.5-1.5.5h-1-1v-.5-.5l1.5-.5 1.5-.5.5-.5.5-.5 1-.5 1-.5.5-2 .5-2-12 9.5-12 9.5-14.5 6-14.5 6-26.5 11.5-26.5 11.5h-.5-.5v3.5 3.5 2 2 2.5 2.5 2 2 2 2l1 1 1 1"/><path d="m562 315l1 1 .5-2.5.5-2.5v-2.5-2.5l.5-1.5.5-1.5v-2.5-2.5l.5-1.5.5-1.5.5-2 .5-2 1-1 1-1 1-1 1-1v-1-1l-1.5.5-1.5.5-.5 1.5-.5 1.5-1 .5-1 .5-.5 1-.5 1v-2.5-2.5l-.5-.5-.5-.5v2.5 2.5 2 2 2 2l-.5 2-.5 2v2 2 1 1 1.5 1.5 1.5 1.5"/></g><path d="m1 311l53-23 14.5-6 14.5-6 12-9.5 12-9.5 9-12 9-12 7-8 7-8 5.5-14.5 5.5-14.5 5.5-18 5.5-18 4-15.5 4-15.5 5-16.5 5-16.5-8-15.5-8-15.5 2-15.5 2-15.5-5.5-13-5.5-13h-2.5-2.5v9.5 9.5l2 19.5 2 19.5 6 13.5 6 13.5.5 13 .5 13-5.5 19-5.5 19-7 15.5-7 15.5-3 12-3 12-10 13.5-10 13.5-9.5 10-9.5 10-15.5 8-15.5 8-11.5 8-11.5 8-22 12-22 12v1.5 1.5.5.5h.5.5" style="fill:#bcb2a8;stroke:#bcb2a8"/><path d="m0 306v1l22-12 22-12 11.5-8 11.5-8 15.5-8 15.5-8 9.5-10 9.5-10 10-13.5 10-13.5 3-12 3-12 7-15.5 7-15.5 5.5-19 5.5-19-.5-13-.5-13-6-13.5-6-13.5-2-19.5-2-19.5v-9.5-9.5h-3-3-2-2-2.5-2.5-2-2l3.5 18 3.5 18-2 15.5-2 15.5-1 8.5-1 8.5-2.5 15-2.5 15 7.5 10 7.5 10 6.5 4 6.5 4-7.5 14.5-7.5 14.5-7 16.5-7 16.5-10 13.5-10 13.5-14.5 9-14.5 9-15.5 6-15.5 6-23.5 13.5-23.5 13.5v1.5 1.5 2 2 2.5 2.5 2 2 1 1" style="fill:#d0bcb7;stroke:#d0bcb7"/><path d="m128 294l1-2v-1.5-1.5l.5-.5.5-.5 1-.5 1-.5 11.5-18.5 11.5-18.5 9-11.5 9-11.5 5.5-13 5.5-13 5-10 5-10-1-7.5-1-7.5 3-3.5 3-3.5v-14.5-14.5l-1.5-17-1.5-17-.5-16.5-.5-16.5-1.5-17.5-1.5-17.5-.5-1-.5-1-.5-1-.5-1 .5-.5.5-.5.5-.5.5-.5.5-.5.5-.5.5-1 .5-1h-1-1-1-1l-.5-.5-.5-.5v1 1l-1 .5-1 .5h-1-1v1 1l.5.5.5.5.5 1 .5 1-.5.5-.5.5v1 1l-.5.5-.5.5-.5 1-.5 1 1.5 22 1.5 22v19.5 19.5l-2 16.5-2 16.5-6 14.5-6 14.5-5 15-5 15-3 14.5-3 14.5-7.5 11-7.5 11-9 10-9 10 3.5 8 3.5 8" style="fill:#96836d;stroke:#96836d"/><path d="m622 291l2-28-3.5 10-3.5 10 2.5 4 2.5 4" style="fill:#ddd6ca;stroke:#ddd6ca"/><path d="m565 289v1l1-.5 1-.5.5-1.5.5-1.5 1.5-.5 1.5-.5v-2.5-2.5l1-1.5 1-1.5v-2-2l1-1.5 1-1.5-.5-.5-.5-.5h-.5-.5l-.5.5-.5.5v3 3l-.5-1.5-.5-1.5-1.5-1-1.5-1-1-1-1-1v1.5 1.5l.5 1.5.5 1.5.5 2 .5 2-.5 1.5-.5 1.5-1 1-1 1v2.5 2.5" style="fill:#7f8082;stroke:#7f8082"/><path d="m0 287v1l23.5-13.5 23.5-13.5 15.5-6 15.5-6 14.5-9 14.5-9 10-13.5 10-13.5 7-16.5 7-16.5 7.5-14.5 7.5-14.5-6.5-4-6.5-4-7.5-10-7.5-10 2.5-15 2.5-15 1-8.5 1-8.5 2-15.5 2-15.5-3.5-18-3.5-18h-3-3-2-2-2.5-2.5-2-2-1-1l-2.5 19-2.5 19 1 17.5 1 17.5 3 14.5 3 14.5-7 14-7 14 4.5 14 4.5 14 11 6.5 11 6.5-5.5 15.5-5.5 15.5-9.5 11-9.5 11h-16.5-16.5l-14.5 8.5-14.5 8.5-19.5 11.5-19.5 11.5v2 2 2 2 2.5 2.5 2 2 2.5 2.5.5.5" style="fill:#ddd6ca;stroke:#ddd6ca"/><path d="m434 281v1l1-.5 1-.5 1-1.5 1-1.5.5-1.5.5-1.5 1-.5 1-.5v-.5-.5l1-1 1-1 .5-2 .5-2h1 1l1-1.5 1-1.5 1.5-.5 1.5-.5 1.5-.5 1.5-.5v-1-1h-1.5-1.5l-1.5.5-1.5.5-1.5 1-1.5 1-.5 1.5-.5 1.5-1 1.5-1 1.5-1 1-1 1-.5 1-.5 1-.5.5-.5.5-1 1-1 1-.5 1.5-.5 1.5-.5 1-.5 1" style="fill:#96836d;stroke:#96836d"/><path d="m102 273v1l13.5-12.5 13.5-12.5 8.5-14.5 8.5-14.5 5-14.5 5-14.5 4.5-17 4.5-17 5.5-14.5 5.5-14.5 3-18.5 3-18.5-1.5-16-1.5-16-4.5-16-4.5-16v-.5-.5l-1-1.5-1-1.5-.5 1.5-.5 1.5-2 15.5-2 15.5 8 15.5 8 15.5-5 16.5-5 16.5-4 15.5-4 15.5-5.5 18-5.5 18-5.5 14.5-5.5 14.5-7 8-7 8-9 12-9 12-.5 2-.5 2-1 .5-1 .5-.5.5-.5.5-1.5.5-1.5.5v.5.5h1 1l1.5-.5 1.5-.5 1 1 1 1 .5 2 .5 2-.5 1.5-.5 1.5h-2.5-2.5" style="fill:#b1a18b;stroke:#b1a18b"/><path d="m441 273v1l27.5-11 27.5-11 12.5-12 12.5-12-16.5 12.5-16.5 12.5-2 1-2 1-1.5.5-1.5.5h-1-1-.5-.5-1-1-1-1l-1-.5-1-.5h-2-2l-1-.5-1-.5-2 1-2 1-1 1-1 1-2 .5-2 .5-1 .5-1 .5v1 1l-1.5.5-1.5.5-1.5.5-1.5.5-1 1.5-1 1.5h-1-1l-.5 2-.5 2-1 1-1 1" style="fill:#9b9289;stroke:#9b9289"/><path d="m569 270h2 .5.5l.5-.5.5-.5.5-2.5.5-2.5.5-1.5.5-1.5v-2.5-2.5l-1-1-1-1h-1.5-1.5l-.5 1.5-.5 1.5v2 2l-.5 2-.5 2-.5 1.5-.5 1.5 1 1 1 1" style="fill:#5e6061;stroke:#5e6061"/><path d="m657 266l2-1 .5-1 .5-1 .5-.5.5-.5.5-1.5.5-1.5v-1.5-1.5l-.5-1-.5-1v2 2l-.5.5-.5.5-.5.5-.5.5-.5 1-.5 1-.5.5-.5.5h-1-1l-.5-.5-.5-.5h-1-1l-1 .5-1 .5h-1-1-1-1l-1.5-.5-1.5-.5-1-.5-1-.5v-.5-.5h-1.5-1.5l-1.5-1-1.5-1h-2-2l-3-.5-3-.5.5.5.5.5h1 1l.5.5.5.5 1 .5 1 .5h1 1 1 1l.5.5.5.5 1 .5 1 .5h1 1l.5.5.5.5.5.5.5.5h2 2l1 .5 1 .5h1 1 1 1l.5.5.5.5h2 2" style="fill:#7f8082;stroke:#7f8082"/><path d="m0 263v1l19.5-11.5 19.5-11.5 14.5-8.5 14.5-8.5h16.5 16.5l9.5-11 9.5-11 5.5-15.5 5.5-15.5-11-6.5-11-6.5-4.5-14-4.5-14 7-14 7-14-3-14.5-3-14.5-1-17.5-1-17.5 2.5-19 2.5-19h-24.5-24.5-24-24-7-7v17.5 17.5 24.5 24.5 24.5 24.5 24.5 24.5 24 24 16.5 16.5" style="fill:#ffe;stroke:#ffe"/><path d="m643 262l3 1h1 1 1 1l1-.5 1-.5h1 1l.5.5.5.5h1 1l.5-.5.5-.5.5-1 .5-1 .5-.5.5-.5.5-.5.5-.5v-2-2l-.5 1.5-.5 1.5-1 1-1 1h-2.5-2.5l-1.5.5-1.5.5h-1.5-1.5-2-2l-1 .5-1 .5 1 .5 1 .5" style="fill:#796c65;stroke:#796c65"/><path d="m641 260v1l1-.5 1-.5h2 2 1.5 1.5l1.5-.5 1.5-.5h2.5 2.5l1-1 1-1 .5-1.5.5-1.5 1-1.5 1-1.5v-.5-.5l10-17.5 10-17.5-10 14-10 14-18 5.5-18 5.5h-1.5-1.5l-.5-.5-.5-.5h-1-1-1-1l-1-.5-1-.5-1.5-.5-1.5-.5h-1-1-1.5-1.5l1.5.5 1.5.5h1 1l.5.5.5.5h1 1l.5.5.5.5 1 .5 1 .5h1 1 1 1l.5 1 .5 1 3 .5 3 .5h2 2l1.5 1 1.5 1h1.5 1.5" style="fill:#5e6061;stroke:#5e6061"/><path d="m479 256h2l1.5-.5 1.5-.5 2-1 2-1v-.5-.5h-2-2l-1-.5-1-.5h1 1 1 1 1 1l1-.5 1-.5-1-.5-1-.5-2 .5-2 .5-1.5-1-1.5-1h-2-2l-1.5 1-1.5 1-1 1-1 1-2 .5-2 .5-1 .5-1 .5 1 .5 1 .5h2 2l1 .5 1 .5h1 1 1 1 .5.5" style="fill:#96836d;stroke:#96836d"/><path d="m627 254l36-11 10-14 10-14-.5-.5-.5-.5-2-1-2-1-1-1-1-1v-1.5-1.5l1.5-.5 1.5-.5-1-1.5-1-1.5v-1-1l-1-1.5-1-1.5-.5-2-.5-2-.5-.5-.5-.5-5-14.5-5-14.5-4.5-16-4.5-16-5.5-31.5-5.5-31.5-6-26-6-26-.5-1.5-.5-1.5-1-1.5-1-1.5-1-1-1-1v-1.5-1.5l.5-.5.5-.5v-2.5-2.5h-2-2-2-2-2-2-2.5-2.5-2-2-2.5-2.5-2-2l3.5 12 3.5 12 1 11.5 1 11.5 3 11.5 3 11.5 6 14 6 14 10 23 10 23 7 16 7 16 4.5 14 4.5 14-7 23-7 23-18.5-2-18.5-2-24.5-4.5-24.5-4.5v.5.5l21 6.5 21 6.5h1.5 1.5 1 1l1.5.5 1.5.5 1 .5 1 .5h1 1 1 1l.5.5.5.5h1.5 1.5" style="fill:#615249;stroke:#615249"/><path d="m488 252v1l16.5-12.5 16.5-12.5 21.5 4.5 21.5 4.5-2.5-1-2.5-1-21.5-3-21.5-3-14 10-14 10 1 .5 1 .5-1 .5-1 .5h-1-1-1-1-1-1l1 .5 1 .5h2 2" style="fill:#7f8082;stroke:#7f8082"/><path d="m606 250l3 1-21-6.5-21-6.5 19.5 6 19.5 6" style="fill:#5e6061;stroke:#5e6061"/><path d="m653 250l14-46-4.5-14-4.5-14-7-16-7-16 6 23 6 23-7.5 7-7.5 7 3.5 2 3.5 2v9.5 9.5l-14 1-14 1-12.5-3-12.5-3-10-.5-10-.5-10.5-8.5-10.5-8.5-16-1.5-16-1.5-14.5 4-14.5 4-6.5 5.5-6.5 5.5 30-3.5 30-3.5 13 11 13 11 .5.5.5.5 24.5 4.5 24.5 4.5 18.5 2 18.5 2" style="fill:#404140;stroke:#404140"/><path d="m663 250v1h1 1v-.5-.5l11.5-14.5 11.5-14.5-.5-1.5-.5-1.5v-1-1-1-1l-.5-.5-.5-.5-.5-.5-.5-.5v-1.5-1.5-1-1l-.5-.5-.5-.5v-2-2l-.5-.5-.5-.5-5.5-18-5.5-18-6-17.5-6-17.5-5.5-27.5-5.5-27.5-9-29-9-29 6 26 6 26 4 17 4 17 4 18 4 18 7.5 27.5 7.5 27.5 1 .5 1 .5 1 1.5 1 1.5.5 1.5.5 1.5 1 1.5 1 1.5.5 1.5.5 1.5-.5 2-.5 2 1 2 1 2-10 17.5-10 17.5" style="fill:#796c65;stroke:#796c65"/><path d="m665 250v1h1.5 1.5 1.5 1.5v-.5-.5l9.5-14.5 9.5-14.5h-1-1l-11.5 14.5-11.5 14.5" style="fill:#7f8082;stroke:#7f8082"/><path d="m671 250v1l9.5-15 9.5-15-9.5 14.5-9.5 14.5" style="fill:#9b9289;stroke:#9b9289"/><path d="m682 214l1 1-1-2-1-2 .5-2 .5-2-.5-1.5-.5-1.5-1-1.5-1-1.5-.5-1.5-.5-1.5-1-1.5-1-1.5-1-.5-1-.5.5 2 .5 2 1 1.5 1 1.5v1 1l1 1.5 1 1.5-1.5.5-1.5.5v1.5 1.5l1 1 1 1 2 1 2 1" style="fill:#5e6061;stroke:#5e6061"/><path d="m683 201l1 1-7-25.5-7-25.5-6-18.5-6-18.5-4.5-19.5-4.5-19.5 5.5 27.5 5.5 27.5 6 17.5 6 17.5 5.5 18 5.5 18" style="fill:#96836d;stroke:#96836d"/><path d="m673 193l1 1-7.5-27.5-7.5-27.5-4-18-4-18-4-17-4-17 5.5 31.5 5.5 31.5 4.5 16 4.5 16 5 14.5 5 14.5" style="fill:#5e6061;stroke:#5e6061"/><g style="fill:#181b15;stroke:#181b15"><path d="m567 189l-12-12-3 4.5-3 4.5 9 1.5 9 1.5"/><path d="m586 183h2 2 2l2-.5 2-.5h2 2l-1.5-1-1.5-1-1-1-1-1h-1.5-1.5l-1.5.5-1.5.5-1.5.5-1.5.5-1.5 1-1.5 1 1.5.5 1.5.5"/><path d="m583 175h2l1-1 1-1-1.5-1-1.5-1-1-1-1-1-1-1.5-1-1.5-1-1-1-1-.5 1-.5 1 .5 1.5.5 1.5v2 2h1.5 1.5l1 1 1 1"/><path d="m441 171h2l1-1 1-1 1.5 1 1.5 1 1.5.5 1.5.5 1-1.5 1-1.5-.5-1.5-.5-1.5-1.5-1-1.5-1-1.5-.5-1.5-.5-1.5.5-1.5.5-.5 2-.5 2-.5 1.5-.5 1.5"/><path d="m549 158l3 1 1.5-.5 1.5-.5 1-1.5 1-1.5v-2-2l-1 .5-1 .5-1.5.5-1.5.5-2 .5-2 .5h-1-1l.5 1.5.5 1.5 1 .5 1 .5"/></g><g style="fill:#404140;stroke:#404140"><path d="m642 143l2 1-10-23-10-23-6-14-6-14-3-11.5-3-11.5-1-11.5-1-11.5-3.5-12-3.5-12h-3-3-1.5-1.5l4.5 15 4.5 15-.5 12-.5 12 4.5 9 4.5 9 8 14.5 8 14.5 4 7.5 4 7.5 6.5 13.5 6.5 13.5"/><path d="m371 137l3 1h2 2l2-.5 2-.5 1-1 1-1-2-.5-2-.5-1.5-.5-1.5-.5h-2.5-2.5l-1 1-1 1v1 1h.5.5"/></g><path d="m361 128l3 1h2 2l1-1.5 1-1.5-1-1-1-1-1.5-1-1.5-1-1.5.5-1.5.5-2 .5-2 .5v1 1l1 1 1 1h.5.5" style="fill:#615249;stroke:#615249"/><path d="m460 127l3 1 1-1 1-1v-2.5-2.5l-1.5-.5-1.5-.5-1.5-1-1.5-1-1-1-1-1-1.5 1-1.5 1v2 2l1.5-.5 1.5-.5 1 1.5 1 1.5.5 1.5.5 1.5" style="fill:#181b15;stroke:#181b15"/><path d="m352 120h2 2 2l2-.5 2-.5 1-1 1-1-1.5-1-1.5-1-1.5-.5-1.5-.5-2 .5-2 .5-.5-1.5-.5-1.5 1.5-.5 1.5-.5-1-1.5-1-1.5-1.5-.5-1.5-.5h-1-1-1.5-1.5l-2.5.5-2.5.5-.5 1-.5 1 1.5.5 1.5.5 1.5 1 1.5 1h2 2v2 2l1 1.5 1 1.5" style="fill:#615249;stroke:#615249"/><path d="m227 117l1-1 .5-.5.5-.5v-1-1l.5-.5.5-.5.5-1 .5-1 .5.5.5.5v1 1h-1-1l.5 1 .5 1 .5.5.5.5.5-.5.5-.5h1 1l1.5-.5 1.5-.5-2.5-17.5-2.5-17.5v-12.5-12.5l-.5-14-.5-14h15 15l-17.5-5.5-17.5-5.5-5 11.5-5 11.5.5 13 .5 13 2 12.5 2 12.5 2.5 14 2.5 14" style="fill:#5e6061;stroke:#5e6061"/><g style="fill:#404140;stroke:#404140"><path d="m372 115l3 1 1.5-.5 1.5-.5-.5-1-.5-1-1-1-1-1-1.5-1-1.5-1 1-1 1-1-1-1.5-1-1.5-1-1-1-1 2.5-10 2.5-10-11.5 12-11.5 12-5.5 1-5.5 1 2.5-.5 2.5-.5h1.5 1.5 1 1l1.5.5 1.5.5 1 1.5 1 1.5 1-.5 1-.5 1.5-.5 1.5-.5 1.5.5 1.5.5 1.5 1 1.5 1 1 1 1 1 1.5.5 1.5.5"/><path d="m339 104l10-11-4.5-4-4.5-4-1 2.5-1 2.5 1 1 1 1 2-.5 2-.5 1 1 1 1-1.5 1-1.5 1-1 .5-1 .5-1 2-1 2-1 1.5-1 1.5 1 .5 1 .5"/><path d="m370 101v1l6-9 6-9-6 8.5-6 8.5"/><path d="m340 84v1l19.5-13.5 19.5-13.5-3-4.5-3-4.5-1-6-1-6-5 1.5-5 1.5-1.5-7-1.5-7 6.5-10 6.5-10-2.5-3-2.5-3h-1.5-1.5-2.5-2.5-2-2-2-2-2.5-2.5-2-2-2.5-2.5-2-2-2.5-2.5-1.5-1.5l10 17 10 17-8.5 2-8.5 2-13 2.5-13 2.5 11 9.5 11 9.5 8.5 11 8.5 11"/></g><path d="m298 54l-16-24-6-15-6-15h-1-1l6 13.5 6 13.5-4.5 2.5-4.5 2.5 13.5 11 13.5 11" style="fill:#5e6061;stroke:#5e6061"/><path d="m183 31v1l.5-1 .5-1 .5-.5.5-.5v-1-1l.5-.5.5-.5-.5-1-.5-1-.5-.5-.5-.5v-1-1h1 1l1-.5 1-.5v-1-1l.5.5.5.5h1 1 1 1l-.5 1-.5 1-.5.5-.5.5-.5.5-.5.5-.5.5-.5.5.5 1 .5 1 .5 1 .5 1 10-14 10-14h-3-3-2.5-2.5-2-2-2.5-2.5-2-2-2.5-2.5-2-2-.5-.5l.5 1 .5 1v1.5 1.5l.5 1.5.5 1.5 1 1.5 1 1.5.5 1.5.5 1.5v2.5 2.5 2 2l.5 1.5.5 1.5v1 1 1.5 1.5" style="fill:#7f8082;stroke:#7f8082"/><path d="m170 26v1l.5-1.5.5-1.5.5-1 .5-1v-1-1l.5-1.5.5-1.5.5-1 .5-1-.5-.5-.5-.5-.5-1.5-.5-1.5-.5-1.5-.5-1.5v-1.5-1.5l-1-1-1-1v-1.5-1.5h-2.5-2.5-2-2-2-2l5.5 13 5.5 13 .5-1.5.5-1.5 1 1.5 1 1.5" style="fill:#9e9ea3;stroke:#9e9ea3"/><path d="m375 24l3 1-.5-1.5-.5-1.5-1-1.5-1-1.5-1-1-1-1-1-.5-1-.5-1 1-1 1-.5 2-.5 2 1 1 1 1h2 2 .5.5" style="fill:#404140;stroke:#404140"/><path d="m241 3h2l1-1 1-1 1.5 1 1.5 1 1.5.5 1.5.5h1.5 1.5 1 1l1-1 1-1v-1-1h-2.5-2.5-2-2-2.5-2.5-2-2l.5 1.5.5 1.5" style="fill:#96836d;stroke:#96836d"/></g></svg>