<svg xmlns="http://www.w3.org/2000/svg" viewBox="0 0 712 960"><path d="m0 0h712v960h-712z" style="fill:#373428"/><g style="stroke-linejoin:round;stroke-width:.7"><path d="m0 959v1h1.5 1.5 2 2 2.5 2.5 2 2 1.5 1.5v-.5-.5h-2.5-2.5l-2.5-.5-2.5-.5-1-.5-1-.5h-.5-.5l-.5-2.5-.5-2.5 1-1 1-1v-2.5-2.5l1.5-1 1.5-1v-2-2l1-.5 1-.5.5-1.5.5-1.5.5-.5.5-.5.5-1 .5-1 .5-1.5.5-1.5.5-2 .5-2-.5-1.5-.5-1.5 1-.5 1-.5v-1.5-1.5-1.5-1.5-2-2l-.5-9-.5-9v-10-10l-.5-8.5-.5-8.5v-14.5-14.5-1.5-1.5-2.5-2.5l-1.5 11.5-1.5 11.5-1 8.5-1 8.5-3 8.5-3 8.5v-.5-.5l.5-.5.5-.5-.5-.5-.5-.5-.5-.5-.5-.5v-1.5-1.5l-.5-.5-.5-.5-.5-.5-.5-.5-1-1-1-1v12.5 12.5 11 11 11 11 11.5 11.5 1 1" style="fill:#4e4c42;stroke:#4e4c42"/><path d="m19 959v1h1.5 1.5 1.5 1.5v-.5-.5l2-.5 2-.5-1.5-.5-1.5-.5 1-1.5 1-1.5-1.5-.5-1.5-.5-1-1.5-1-1.5v-2-2l1.5.5 1.5.5 1-1.5 1-1.5v-1-1l-2-.5-2-.5-.5-1.5-.5-1.5v-2.5-2.5-2-2l-.5 2-.5 2v2 2 2 2l-1 .5-1 .5-.5-1.5-.5-1.5-.5 2-.5 2v2 2 2.5 2.5l1.5-.5 1.5-.5v2.5 2.5h-1-1l-1 1-1 1h-2.5-2.5-1.5-1.5l2.5.5 2.5.5h2.5 2.5" style="fill:#917245;stroke:#917245"/><path d="m25 959v1h12.5 12.5 11 11 11.5 11.5 11 11 11 11 11 11 7 7v-.5-.5l8.5-1 8.5-1h7 7l6.5-5 6.5-5-2-7-2-7 5.5-.5 5.5-.5-1 4-1 4 .5 6.5.5 6.5 5 1.5 5 1.5 3.5-1.5 3.5-1.5 1.5-4.5 1.5-4.5v-4-4l-4-3-4-3 3.5-3 3.5-3 6 4 6 4-2.5 5.5-2.5 5.5 2.5 4.5 2.5 4.5 3-4 3-4 2.5-3.5 2.5-3.5v-6.5-6.5l1 6 1 6 3.5.5 3.5.5 4 7 4 7-.5-4.5-.5-4.5 1.5-4 1.5-4 6 3 6 3 2.5-5.5 2.5-5.5 1.5-.5 1.5-.5 3-5 3-5 2-1.5 2-1.5 1.5 7.5 1.5 7.5 1 8 1 8 1.5 1.5 1.5 1.5 1-9 1-9v-10.5-10.5-8-8l1-8 1-8 2.5-2.5 2.5-2.5 3-5 3-5 2.5-5 2.5-5-.5-6.5-.5-6.5.5-6.5.5-6.5 3.5-7.5 3.5-7.5 3 3 3 3-1 2-1 2-3 8.5-3 8.5-1 7-1 7v5.5 5.5l.5 6.5.5 6.5-.5 1.5-.5 1.5v4 4l2 4 2 4-3.5 4-3.5 4 2 5 2 5v3 3l4 5 4 5 3.5.5 3.5.5 5.5-5 5.5-5 4.5 3.5 4.5 3.5 1-3 1-3 .5-5.5.5-5.5h-5-5l5.5-3 5.5-3 1 3 1 3 6 4 6 4 1.5 2.5 1.5 2.5 2-2 2-2 5.5 4 5.5 4 4.5-2.5 4.5-2.5h3 3l-1 5-1 5 2.5-5.5 2.5-5.5 6.5-2 6.5-2h5 5l4.5 1.5 4.5 1.5 5 4 5 4h7 7l9-.5 9-.5v-.5-.5l-1-2-1-2-.5-1.5-.5-1.5 1.5-.5 1.5-.5 1.5 1 1.5 1 .5 1.5.5 1.5-1 1.5-1 1.5-1 .5-1 .5 4 7.5 4 7.5h6 6l1 4.5 1 4.5 3.5-.5 3.5-.5 7.5-.5 7.5-.5 3.5-.5 3.5-.5 5.5 1.5 5.5 1.5 6.5 1 6.5 1 3-1 3-1 4.5 1.5 4.5 1.5v-6-6l2.5.5 2.5.5 2 8 2 8h2.5 2.5 2 2 1 1v-.5-.5l-.5-2-.5-2v-2.5-2.5l.5-1.5.5-1.5v-2.5-2.5l.5-1.5.5-1.5v-2.5-2.5l.5-1 .5-1v-3-3l.5-2 .5-2-.5-1.5-.5-1.5.5-2 .5-2v-2-2-1.5-1.5l.5-2 .5-2v-2-2-1-1-1-1-1.5-1.5l-2-1-2-1h-2-2-1-1l-1.5-.5-1.5-.5-10-1.5-10-1.5h16.5 16.5v-.5-.5l.5-1.5.5-1.5v-2.5-2.5l.5-1.5.5-1.5v-2-2l.5-3 .5-3v-1.5-1.5-1.5-1.5-2.5-2.5-2-2l.5-2 .5-2v-2-2-3-3l1-11.5 1-11.5.5-10.5.5-10.5 1-10 1-10v9 9 15 15l.5-10 .5-10 .5-10.5.5-10.5.5-10 .5-10 .5-10.5.5-10.5.5-10.5.5-10.5.5-10.5.5-10.5.5-10.5.5-10.5v-11.5-11.5l.5-9.5.5-9.5-1-8-1-8-.5 10.5-.5 10.5-.5 9.5-.5 9.5-.5 10-.5 10-.5 10.5-.5 10.5-.5 9.5-.5 9.5-.5 10.5-.5 10.5-.5 10.5-.5 10.5-.5 11-.5 11-1 10-1 10-1 10-1 10-.5 8.5-.5 8.5-.5 8.5-.5 8.5-2-4.5-2-4.5-3.5.5-3.5.5-2.5-5.5-2.5-5.5-6.5 1.5-6.5 1.5-4.5-4.5-4.5-4.5-4.5 2-4.5 2-4.5-.5-4.5-.5-3.5 1.5-3.5 1.5-4.5-4.5-4.5-4.5-4.5.5-4.5.5-3 .5-3 .5-1.5-7.5-1.5-7.5-3.5 5.5-3.5 5.5-4.5-6.5-4.5-6.5-3 1.5-3 1.5 2-5 2-5-2-6-2-6h-1-1l-3-.5-3-.5 5.5-2.5 5.5-2.5-4.5-2.5-4.5-2.5 1.5-3.5 1.5-3.5-1.5-3.5-1.5-3.5-6.5-2-6.5-2 3.5-3.5 3.5-3.5h-3-3-5-5l-7 3-7 3 1-2 1-2-1-4-1-4 1.5-5.5 1.5-5.5.5-1.5.5-1.5-1-4.5-1-4.5-1.5-4.5-1.5-4.5-1-4-1-4-.5 3.5-.5 3.5-5 5-5 5 1-3.5 1-3.5-3.5-1.5-3.5-1.5 2.5-1.5 2.5-1.5v-6-6l2-1 2-1-5.5 1-5.5 1-4-4-4-4-.5-5.5-.5-5.5-3-6-3-6 2.5-2.5 2.5-2.5 3-2.5 3-2.5-6.5-2.5-6.5-2.5 2-4 2-4 .5-3.5.5-3.5 2.5 1.5 2.5 1.5-4.5-4-4.5-4 2.5-6.5 2.5-6.5 1.5-.5 1.5-.5-1-3-1-3 1-6 1-6-2-2.5-2-2.5-1-4-1-4 3.5-2.5 3.5-2.5v-6-6l-.5-5.5-.5-5.5-2-4.5-2-4.5 3-2 3-2 3.5-2.5 3.5-2.5-3-4-3-4-3.5-3.5-3.5-3.5-2.5-3-2.5-3 1.5-3.5 1.5-3.5 4.5-4.5 4.5-4.5-1.5 2.5-1.5 2.5.5 6.5.5 6.5 4.5-1 4.5-1-2-4-2-4 2-4 2-4-3.5-.5-3.5-.5-.5-6.5-.5-6.5-5.5 3-5.5 3-1-6-1-6-7.5-2.5-7.5-2.5-2 1-2 1-3-3-3-3-3.5-5-3.5-5 7-1 7-1 6.5.5 6.5.5 8-2 8-2 3-6 3-6 2-1.5 2-1.5 4-1 4-1-1-3-1-3-7-2-7-2-4.5-4.5-4.5-4.5.5-3 .5-3 1.5-3.5 1.5-3.5 3-2 3-2 .5-7.5.5-7.5.5-7.5.5-7.5 3.5-6 3.5-6 1-3 1-3h3 3l1.5-1.5 1.5-1.5 5-3 5-3 4-.5 4-.5 2.5 5.5 2.5 5.5-4 5-4 5 5-5 5-5 4.5-6.5 4.5-6.5 5-5.5 5-5.5-2-4-2-4-1-6-1-6h4 4l7.5-1.5 7.5-1.5 11.5-7 11.5-7-1.5-.5-1.5-.5h-3-3l-6 6-6 6-11-.5-11-.5-4.5 10-4.5 10 .5 1 .5 1 .5 1.5.5 1.5.5 1.5.5 1.5v1.5 1.5l-.5 1.5-.5 1.5-1.5 1-1.5 1-1 1-1 1-1.5-.5-1.5-.5-11-.5-11-.5-11.5-2-11.5-2-1-.5-1-.5-1-.5-1-.5h-1.5-1.5l-1.5-.5-1.5-.5-2-.5-2-.5-1.5.5-1.5.5-2-.5-2-.5-1.5.5-1.5.5-1 .5-1 .5-.5 1-.5 1-1 .5-1 .5h-1.5-1.5-.5-.5-1.5-1.5l-1.5-.5-1.5-.5h-1.5-1.5-1-1l-.5-.5-.5-.5-.5-.5-.5-.5h-1.5-1.5l-.5-.5-.5-.5h-1-1l-.5-.5-.5-.5-1-.5-1-.5-1.5-.5-1.5-.5-.5.5-.5.5-.5.5-.5.5-1.5.5-1.5.5-1 .5-1 .5h-1-1l-.5.5-.5.5-1 .5-1 .5-.5.5-.5.5h-1-1l-.5.5-.5.5-1-.5-1-.5h-1-1l-.5.5-.5.5h-1-1-1-1-1-1-1.5-1.5l-.5.5-.5.5h-1-1l-.5.5-.5.5-1 .5-1 .5-.5.5-.5.5v1.5 1.5 1.5 1.5 1.5 1.5 1 1l-.5.5-.5.5v1 1 1.5 1.5l.5 1.5.5 1.5-.5.5-.5.5v1 1l.5.5.5.5-.5 1-.5 1 .5.5.5.5-.5.5-.5.5.5.5.5.5v1.5 1.5l-.5.5-.5.5v1 1l.5.5.5.5h-1-1l-.5-1-.5-1v-2-2l-.5-.5-.5-.5v-1.5-1.5l.5-1.5.5-1.5-.5-2-.5-2v-2-2l.5-2 .5-2-1-12-1-12-4.5.5-4.5.5-1.5 4.5-1.5 4.5-4 12-4 12v3 3 2 2l-.5 2.5-.5 2.5v2 2l-1 1-1 1 .5 2 .5 2-.5 1.5-.5 1.5-1.5-.5-1.5-.5-2-.5-2-.5h-1.5-1.5-2-2-1.5-1.5-1-1-1-1l-1.5-.5-1.5-.5-9.5-2-9.5-2-3-8-3-8-5-10.5-5-10.5-9.5-3-9.5-3-18-2-18-2-1 .5-1 .5-.5 1-.5 1-2 .5-2 .5-1.5-.5-1.5-.5-1.5-1-1.5-1-.5-1.5-.5-1.5h-1.5-1.5l-2 1-2 1h-2-2l-1.5 1-1.5 1-1.5.5-1.5.5h-2.5-2.5l-1.5.5-1.5.5-2-.5-2-.5-2-4.5-2-4.5 8-2 8-2-6.5-2.5-6.5-2.5-1-9-1-9v-.5-.5-2-2l.5-1.5.5-1.5v-2.5-2.5-2-2-2.5-2.5l.5-1 .5-1 .5-1.5.5-1.5v-.5-.5l1-8.5 1-8.5.5-6.5.5-6.5 2-4 2-4 4-5 4-5 2-6 2-6 1.5-4.5 1.5-4.5 2-6 2-6 3.5-6 3.5-6 8-3 8-3 7.5 1.5 7.5 1.5 1.5 5.5 1.5 5.5.5 1.5.5 1.5-.5 2-.5 2 .5 2 .5 2-.5 1-.5 1-1-1-1-1v1.5 1.5l.5 1.5.5 1.5.5-.5.5-.5h1.5 1.5l.5 1.5.5 1.5 1 1.5 1 1.5h2 2l1 .5 1 .5.5 1.5.5 1.5 1 1 1 1 3.5-8 3.5-8-1.5-7.5-1.5-7.5 1.5-6.5 1.5-6.5 6 1 6 1 7.5-2 7.5-2 9-1 9-1h5 5l6.5 1.5 6.5 1.5 2.5 8.5 2.5 8.5 2 11 2 11 6.5 5 6.5 5 3-8.5 3-8.5v-.5-.5l-1-5-1-5 3-4.5 3-4.5 6-2 6-2 7.5.5 7.5.5 7.5 3.5 7.5 3.5 3 4 3 4 3.5 6 3.5 6v4 4l.5-4.5.5-4.5-.5-5.5-.5-5.5 9.5-5.5 9.5-5.5 9.5-3.5 9.5-3.5 10-1 10-1 9 1 9 1 6 5.5 6 5.5-5.5 5.5-5.5 5.5-12.5 1-12.5 1-5.5 2.5-5.5 2.5-2 6.5-2 6.5-3 5-3 5 .5 5.5.5 5.5 1 7 1 7 2 6 2 6 8.5 1 8.5 1 6.5-1.5 6.5-1.5 6.5 1.5 6.5 1.5 6.5-1.5 6.5-1.5 5 2 5 2 4.5-7 4.5-7-.5-2.5-.5-2.5 6-7 6-7 1-10.5 1-10.5 1-15.5 1-15.5-5.5 3.5-5.5 3.5-3-1.5-3-1.5-5-1-5-1-5.5-2.5-5.5-2.5-8-3-8-3-8-1-8-1h-9.5-9.5-9-9l-7.5-.5-7.5-.5-8.5-.5-8.5-.5-9-1-9-1-9-.5-9-.5-3.5-5.5-3.5-5.5-2.5 2.5-2.5 2.5-.5 6.5-.5 6.5-1.5 6.5-1.5 6.5-6-2.5-6-2.5-2.5 1.5-2.5 1.5.5-8.5.5-8.5-3-4-3-4-5.5-1.5-5.5-1.5-8.5 1-8.5 1h-7-7l-8.5 1.5-8.5 1.5-3.5.5-3.5.5-4-1-4-1-3.5 5-3.5 5-1.5 4.5-1.5 4.5-3.5-5.5-3.5-5.5-7.5-2.5-7.5-2.5-5.5 1.5-5.5 1.5-6-1.5-6-1.5-8 3-8 3-6 2-6 2-5-1-5-1-7.5 2-7.5 2-5 2-5 2-6-2-6-2-6.5.5-6.5.5-13.5 2.5-13.5 2.5 10.5-1.5 10.5-1.5 9 2 9 2 7 4.5 7 4.5 5.5 5.5 5.5 5.5 3.5 7.5 3.5 7.5 3.5 7.5 3.5 7.5-1.5 9.5-1.5 9.5-3 8.5-3 8.5-5.5 5.5-5.5 5.5-7.5 3.5-7.5 3.5-12.5 2.5-12.5 2.5 9 .5 9 .5 3.5 3 3.5 3 5.5 4.5 5.5 4.5 3.5 2.5 3.5 2.5 6.5 3.5 6.5 3.5 1.5 8.5 1.5 8.5 8.5 1 8.5 1 5.5.5 5.5.5-3 5-3 5-2 6-2 6-3.5 6.5-3.5 6.5 1.5 4 1.5 4 .5-.5.5-.5 5.5-3.5 5.5-3.5 3.5 2.5 3.5 2.5-1 7-1 7-1 7.5-1 7.5-4 5-4 5-2-1-2-1h-7-7l5 3 5 3-.5 6-.5 6 4.5 3.5 4.5 3.5 3 3 3 3 5.5-.5 5.5-.5 5 1 5 1 3.5-1 3.5-1 5 1 5 1 4.5-2.5 4.5-2.5 2-7 2-7-.5-3.5-.5-3.5-5.5-5-5.5-5-7.5.5-7.5.5.5-4.5.5-4.5.5-8.5.5-8.5 2-7 2-7 2.5 4 2.5 4 3.5 2.5 3.5 2.5 7 2 7 2-2.5 3.5-2.5 3.5 2 3 2 3-.5 2-.5 2 2.5 6.5 2.5 6.5 2.5-.5 2.5-.5 2.5-4.5 2.5-4.5 4.5-2.5 4.5-2.5-3 6.5-3 6.5 3 2 3 2 3 5 3 5 1.5 5.5 1.5 5.5.5 5.5.5 5.5-.5 5-.5 5 2 4 2 4-1.5 2.5-1.5 2.5 3.5 4.5 3.5 4.5-.5 5.5-.5 5.5 7.5-1 7.5-1-2.5 4.5-2.5 4.5-2 6-2 6 1.5 7.5 1.5 7.5-6.5 1-6.5 1-.5 4.5-.5 4.5 3.5-1.5 3.5-1.5 3.5.5 3.5.5 3 2 3 2 5.5 2 5.5 2 6-3 6-3-.5-6.5-.5-6.5-6-1-6-1 .5-6.5.5-6.5 1.5-9 1.5-9 4-7 4-7 1.5-4.5 1.5-4.5-1.5-8.5-1.5-8.5 4 6.5 4 6.5h.5.5l7 3 7 3 2-7 2-7 .5 11 .5 11v9 9l.5 5.5.5 5.5.5 1.5.5 1.5-1 17-1 17 9.5-.5 9.5-.5 13.5 1 13.5 1 .5 1 .5 1v2 2 2 2 2.5 2.5 2 2 2.5 2.5 2 2 2.5 2.5 2 2l-.5 1.5-.5 1.5v9.5 9.5 11 11 11 11 10 10 10 10l-.5 10.5-.5 10.5-.5 10.5-.5 10.5-6.5 2.5-6.5 2.5 2.5 7 2.5 7-7 9.5-7 9.5h-1.5-1.5l-1-.5-1-.5h-1-1l-1-1-1-1h-1.5-1.5-1-1-1-1-1-1l-1.5-.5-1.5-.5-8.5-1-8.5-1-15-2.5-15-2.5 8.5 2 8.5 2 5.5 5.5 5.5 5.5-1 9-1 9-2.5 12.5-2.5 12.5-1.5-8-1.5-8v-4-4l1.5-8.5 1.5-8.5-1-4-1-4-12.5-3.5-12.5-3.5-6 4-6 4-.5-6.5-.5-6.5.5-4.5.5-4.5.5-4.5.5-4.5 2.5-7 2.5-7 .5-2.5.5-2.5-4 1-4 1-6-3-6-3-3-1-3-1-4 .5-4 .5 3.5 2.5 3.5 2.5 4.5 3.5 4.5 3.5-2.5 4.5-2.5 4.5 3 6 3 6-1.5 2-1.5 2-.5 5.5-.5 5.5 2 6 2 6 .5 6.5.5 6.5.5 2.5.5 2.5-4.5 3-4.5 3-1.5 2.5-1.5 2.5.5 5.5.5 5.5h-7-7l-4-2-4-2-3.5-1-3.5-1-2 4-2 4h-2-2l-2-1-2-1-3.5.5-3.5.5-2.5 5-2.5 5-6 3-6 3-.5 6.5-.5 6.5-5.5 3.5-5.5 3.5-4 3-4 3h-4.5-4.5l-5.5 5.5-5.5 5.5h-4-4l-4 1-4 1h-5-5l-2.5 2-2.5 2-5 2-5 2 4 3 4 3-.5-.5-.5-.5.5-1 .5-1 .5-1 .5-1 1.5-1 1.5-1 1-1 1-1 1 1.5 1 1.5-.5 1.5-.5 1.5-1.5.5-1.5.5-.5-.5-.5-.5-.5 1-.5 1-1 .5-1 .5 4.5 2.5 4.5 2.5-2 2-2 2-6.5-.5-6.5-.5-2.5.5-2.5.5-3.5-5.5-3.5-5.5h-1.5-1.5l-4 3-4 3-4.5.5-4.5.5-1.5 2.5-1.5 2.5-1 4-1 4 4.5 3 4.5 3-6 2-6 2-3.5 1.5-3.5 1.5 1.5.5 1.5.5 1.5 4.5 1.5 4.5-4.5-1-4.5-1-3 3-3 3-2.5-3.5-2.5-3.5-7 8-7 8-1-7.5-1-7.5-2.5 2.5-2.5 2.5-5-3.5-5-3.5v1 1l2 .5 2 .5v1 1l-1 1.5-1 1.5-1.5-.5-1.5-.5v2 2l1 1.5 1 1.5 1.5.5 1.5.5-1 1.5-1 1.5 1.5.5 1.5.5-2 .5-2 .5" style="fill:#4e4c42;stroke:#4e4c42"/><path d="m175 959v1h12.5 12.5 11 11 11.5 11.5 7.5 7.5v-.5-.5l2.5-.5 2.5-.5-2 1-2 1h11.5 11.5 11 11 4.5 4.5v-.5-.5l-.5-8-.5-8 1.5 8.5 1.5 8.5h13 13 11 11 11.5 11.5 11 11 11 11 11 11 11 11 11.5 11.5 11 11 11 11 11 11 11 11 11.5 11.5l-2-8-2-8-2.5-.5-2.5-.5v6 6l-4.5-1.5-4.5-1.5-3 1-3 1-6.5-1-6.5-1-5.5-1.5-5.5-1.5-3.5.5-3.5.5-7.5.5-7.5.5-3.5.5-3.5.5-1-4.5-1-4.5h-6-6l-4-7.5-4-7.5-9 .5-9 .5h-7-7l-5-4-5-4-4.5-1.5-4.5-1.5h-5-5l-6.5 2-6.5 2-2.5 5.5-2.5 5.5 1-5 1-5h-3-3l-4.5 2.5-4.5 2.5-5.5-4-5.5-4-2 2-2 2-1.5-2.5-1.5-2.5-6-4-6-4-1-3-1-3-5.5 3-5.5 3h5 5l-.5 5.5-.5 5.5-1 3-1 3-4.5-3.5-4.5-3.5-5.5 5-5.5 5-3.5-.5-3.5-.5-4-5-4-5v-3-3l-2-5-2-5 3.5-4 3.5-4-2-4-2-4v-4-4l.5-1.5.5-1.5-.5-6.5-.5-6.5v-5.5-5.5l1-7 1-7 3-8.5 3-8.5h-2-2l-1-1-1-1 .5-1 .5-1v-1-1l.5-.5.5-.5v-1-1l.5-.5.5-.5.5-1 .5-1 .5-.5.5-.5.5-.5.5-.5h1 1v1.5 1.5 1 1 1 1 1.5 1.5l-3-3-3-3-3.5 7.5-3.5 7.5-.5 6.5-.5 6.5.5 6.5.5 6.5-2.5 5-2.5 5-3 5-3 5-2.5 2.5-2.5 2.5-1 8-1 8v8 8 10.5 10.5l-1 9-1 9-1.5-1.5-1.5-1.5-1-8-1-8-1.5-7.5-1.5-7.5-2 1.5-2 1.5-3 5-3 5-1.5.5-1.5.5-2.5 5.5-2.5 5.5-6-3-6-3-1.5 4-1.5 4 .5 4.5.5 4.5-4-7-4-7-3.5-.5-3.5-.5-1-6-1-6v6.5 6.5l-2.5 3.5-2.5 3.5-3 4-3 4-2.5-4.5-2.5-4.5 2.5-5.5 2.5-5.5-6-4-6-4-3.5 3-3.5 3 4 3 4 3v4 4l-1.5 4.5-1.5 4.5-3.5 1.5-3.5 1.5-5-1.5-5-1.5-.5-6.5-.5-6.5 1-4 1-4-5.5.5-5.5.5 2 7 2 7-6.5 5-6.5 5h-7-7l-8.5 1-8.5 1" style="fill:#60605e;stroke:#60605e"/><path d="m260 959v1h.5.5l2-1 2-1-2.5.5-2.5.5" style="fill:#4e4c42;stroke:#4e4c42"/><path d="m315 959v1h1 1l-1.5-8.5-1.5-8.5.5 8 .5 8" style="fill:#757366;stroke:#757366"/><path d="m621 959v1h1.5 1.5 1 1v-.5-.5-2-2-2-2-2.5-2.5l.5-1.5.5-1.5-.5-2-.5-2v-2-2l-.5-1.5-.5-1.5-.5 1-.5 1-.5-1-.5-1-.5 1-.5 1v2.5 2.5l-.5 1.5-.5 1.5v2.5 2.5l-.5 1.5-.5 1.5v2.5 2.5l.5 2 .5 2" style="fill:#b8b48c;stroke:#b8b48c"/><path d="m626 959v1h1.5 1.5v-.5-.5-1.5-1.5l-.5-1.5-.5-1.5-.5-1.5-.5-1.5.5-2 .5-2 .5-1.5.5-1.5v-2-2l-.5-.5-.5-.5-.5-1-.5-1v-2-2l-.5-2-.5-2-1 1-1 1v2 2l.5-1 .5-1 .5 1.5.5 1.5v2 2l.5 2 .5 2-.5 1.5-.5 1.5v2.5 2.5 2 2 2 2" style="fill:#979688;stroke:#979688"/><path d="m629 959v1h.5.5v-.5-.5l.5-2 .5-2v-2.5-2.5-2-2l-.5-1.5-.5-1.5v-2.5-2.5l.5-1.5.5-1.5v-1.5-1.5-2-2-2.5-2.5l-.5-1.5-.5-1.5v-2-2l-.5-.5-.5-.5v-2-2l-1-1-1-1v-1.5-1.5l.5-1.5.5-1.5-1-1-1-1-.5 1.5-.5 1.5-.5 2-.5 2v1.5 1.5 2 2l-.5 2-.5 2 .5 1.5.5 1.5-.5 2-.5 2v3 3l.5 1 .5 1v-2-2l1-1 1-1 .5 2 .5 2v2 2l.5 1 .5 1 .5.5.5.5v2 2l-.5 1.5-.5 1.5-.5 2-.5 2 .5 1.5.5 1.5.5 1.5.5 1.5v1.5 1.5" style="fill:#757366;stroke:#757366"/><path d="m630 959v1h1.5 1.5 2 2 2.5 2.5 2 2 2.5 2.5 2 2 .5.5v-.5-.5l-3.5-2-3.5-2-3.5-1.5-3.5-1.5-1.5-3.5-1.5-3.5-4-5-4-5-.5 1.5-.5 1.5v2.5 2.5l.5 1.5.5 1.5v2 2 2.5 2.5l-.5 2-.5 2" style="fill:#60605e;stroke:#60605e"/><path d="m656 959v1h1.5 1.5 2 2 2.5 2.5 2 2 2.5 2.5 2 2 2.5 2.5 2 2 2 2 1 1v-.5-.5l-3-2-3-2 3.5-5.5 3.5-5.5-1-6-1-6-5-4.5-5-4.5h3 3l6 5 6 5h4.5 4.5v-13-13-11-11-11-11-8-8l-2.5.5-2.5.5-1.5 3.5-1.5 3.5-6.5-4.5-6.5-4.5 1 6.5 1 6.5 3 6 3 6-4-1-4-1-6.5.5-6.5.5-2 2-2 2v6.5 6.5 2 2l-2.5 4.5-2.5 4.5-2 7.5-2 7.5-4.5-7-4.5-7-1.5-5.5-1.5-5.5-1-1-1-1-3 3.5-3 3.5-2.5-6.5-2.5-6.5-1.5-4.5-1.5-4.5.5-3.5.5-3.5-2.5-3.5-2.5-3.5.5-19.5.5-19.5-.5 1.5-.5 1.5v2 2 2.5 2.5l-.5 2.5-.5 2.5v1.5 1.5 2 2 2.5 2.5 2 2 2.5 2.5 2 2l-.5 1-.5 1v2 2 1.5 1.5 2 2 2 2 1 1l-.5 1.5-.5 1.5v1.5 1.5l.5 1 .5 1 .5.5.5.5.5 1 .5 1 1 1 1 1 .5.5.5.5.5.5.5.5.5.5.5.5 1 .5 1 .5.5.5.5.5-.5.5-.5.5h-1-1l-1-.5-1-.5-1-1-1-1h-1-1l-.5 1-.5 1-.5 2.5-.5 2.5v2 2 1 1 1.5 1.5 1.5 1.5 2 2l.5 1.5.5 1.5v2.5 2.5 2 2 1.5 1.5l4 5 4 5 1.5 3.5 1.5 3.5 3.5 1.5 3.5 1.5 3.5 2 3.5 2" style="fill:#4e4c42;stroke:#4e4c42"/><g style="fill:#60605e;stroke:#60605e"><path d="m696 959v1h1.5 1.5 2 2 2.5 2.5 2 2v-2.5-2.5-2-2-2.5-2.5-2-2-2-2-2.5-2.5h-4.5-4.5l-6-5-6-5h-3-3l5 4.5 5 4.5 1 6 1 6-3.5 5.5-3.5 5.5 3 2 3 2"/><path d="m6 957h1l1 .5 1 .5v-.5-.5-2-2l.5-1.5.5-1.5-.5-1.5-.5-1.5.5-2 .5-2-1.5 1-1.5 1v2.5 2.5l-1 1-1 1 .5 2.5.5 2.5"/></g><path d="m9 957v1h1.5 1.5 2.5 2.5l1-1 1-1h1 1v-2.5-2.5l-1.5.5-1.5.5v-2.5-2.5-2-2l.5-2 .5-2v-2-2-1.5-1.5l.5-1 .5-1-.5-.5-.5-.5v-2.5-2.5-2.5-2.5-2-2l-.5-2-.5-2v2 2 1.5 1.5 1.5 1.5 1.5 1.5 1.5 1.5 2 2 1 1 1.5 1.5l-.5 1.5-.5 1.5v1 1 1.5 1.5 2 2h-1-1l.5-1.5.5-1.5-.5-.5-.5-.5v-1.5-1.5l.5-.5.5-.5v-1-1h-1-1l-.5.5-.5.5-1 .5-1 .5-.5 1.5-.5 1.5-.5 2-.5 2 .5 1.5.5 1.5-.5 1.5-.5 1.5v2 2" style="fill:#757366;stroke:#757366"/><path d="m41 956l14-16 2.5 3.5 2.5 3.5 3-3 3-3 4.5 1 4.5 1-1.5-4.5-1.5-4.5-1.5-.5-1.5-.5 3.5-1.5 3.5-1.5 6-2 6-2-4.5-3-4.5-3 1-4 1-4 1.5-2.5 1.5-2.5 4.5-.5 4.5-.5 4-3 4-3h1.5 1.5l3.5 5.5 3.5 5.5 2.5-.5 2.5-.5 6.5.5 6.5.5 2-2 2-2-4.5-2.5-4.5-2.5-4-3-4-3 5-2 5-2 2.5-2 2.5-2h5 5l4-1 4-1h4 4l5.5-5.5 5.5-5.5h4.5 4.5l4-3 4-3 5.5-3.5 5.5-3.5.5-6.5.5-6.5 6-3 6-3 2.5-5 2.5-5 3.5-.5 3.5-.5 2 1 2 1h2 2l2-4 2-4 3.5 1 3.5 1 4 2 4 2h7 7l-.5-5.5-.5-5.5 1.5-2.5 1.5-2.5 4.5-3 4.5-3-.5-2.5-.5-2.5-.5-6.5-.5-6.5-2-6-2-6 .5-5.5.5-5.5 1.5-2 1.5-2-3-6-3-6 2.5-4.5 2.5-4.5-4.5-3.5-4.5-3.5-3.5-2.5-3.5-2.5 4-.5 4-.5 3 1 3 1 6 3 6 3 4-1 4-1-.5 2.5-.5 2.5-2.5 7-2.5 7-.5 4.5-.5 4.5-.5 4.5-.5 4.5.5 6.5.5 6.5 6-4 6-4-.5-1-.5-1-.5-1.5-.5-1.5v-1-1l.5-1 .5-1v-2-2-1-1-1.5-1.5-2-2-1-1l.5-2 .5-2 1-1 1-1 1.5-.5 1.5-.5 1.5.5 1.5.5h1 1 1.5 1.5 2 2 1 1l1 .5 1 .5h1.5 1.5l2.5-8 2.5-8 .5-7 .5-7 .5-9.5.5-9.5 1-10 1-10v-17.5-17.5l-1 1-1 1-1 1-1 1v1.5 1.5l.5 1.5.5 1.5-.5.5-.5.5v1.5 1.5 1 1 1 1 1 1 1.5 1.5l-.5 1.5-.5 1.5v1 1 1.5 1.5 2 2 1 1l-.5.5-.5.5v1 1l-.5 1-.5 1-.5.5-.5.5-1 .5-1 .5-.5 1.5-.5 1.5-.5.5-.5.5-.5.5-.5.5h-1-1l-1 .5-1 .5h-2-2l-1.5-.5-1.5-.5-.5-.5-.5-.5-1-11-1-11 1.5-16.5 1.5-16.5v-2.5-2.5l-5-4-5-4-6 4-6 4-4-6-4-6-4 1-4 1 1-6.5 1-6.5h-1.5-1.5-1.5-1.5l-1 .5-1 .5-1.5-.5-1.5-.5-1.5-8-1.5-8 1.5-8.5 1.5-8.5 8.5-1.5 8.5-1.5 8.5-.5 8.5-.5 14 1 14 1 3.5.5 3.5.5v-19.5-19.5-1-1l-.5 2-.5 2h-1-1l-6.5-5-6.5-5 8-6 8-6v-2.5-2.5-2-2-1.5-1.5-2-2-2.5-2.5-2-2-2-2l.5-2.5.5-2.5-4-6.5-4-6.5 1.5 8.5 1.5 8.5-1.5 4.5-1.5 4.5-4 7-4 7-1.5 9-1.5 9-.5 6.5-.5 6.5 6 1 6 1 .5 6.5.5 6.5-6 3-6 3-5.5-2-5.5-2-3-2-3-2-3.5-.5-3.5-.5-3.5 1.5-3.5 1.5.5-4.5.5-4.5 6.5-1 6.5-1-1.5-7.5-1.5-7.5 2-6 2-6 2.5-4.5 2.5-4.5-7.5 1-7.5 1 .5-5.5.5-5.5-3.5-4.5-3.5-4.5 1.5-2.5 1.5-2.5-2-4-2-4 .5-5 .5-5-.5-5.5-.5-5.5-1.5-5.5-1.5-5.5-3-5-3-5-3-2-3-2 3-6.5 3-6.5-4.5 2.5-4.5 2.5-2.5 4.5-2.5 4.5-2.5.5-2.5.5-2.5-6.5-2.5-6.5.5-2 .5-2-2-3-2-3 2.5-3.5 2.5-3.5-7-2-7-2-3.5-2.5-3.5-2.5-2.5-4-2.5-4-2 7-2 7-.5 8.5-.5 8.5-.5 4.5-.5 4.5 7.5-.5 7.5-.5 5.5 5 5.5 5 .5 3.5.5 3.5-2 7-2 7-4.5 2.5-4.5 2.5-5-1-5-1-3.5 1-3.5 1-5-1-5-1-5.5.5-5.5.5-3-3-3-3-4.5-3.5-4.5-3.5.5-6 .5-6-5-3-5-3h7 7l2 1 2 1 4-5 4-5 1-7.5 1-7.5 1-7 1-7-3.5-2.5-3.5-2.5-5.5 3.5-5.5 3.5-.5.5-.5.5-1.5-4-1.5-4 3.5-6.5 3.5-6.5 2-6 2-6 3-5 3-5-5.5-.5-5.5-.5-8.5-1-8.5-1-1.5-8.5-1.5-8.5-6.5-3.5-6.5-3.5-3.5-2.5-3.5-2.5-5.5-4.5-5.5-4.5-3.5-3-3.5-3-9-.5-9-.5-2.5.5-2.5.5h-1-1l-7-4.5-7-4.5.5-10.5.5-10.5-1-10-1-10-.5-10.5-.5-10.5.5-10.5.5-10.5 2-9.5 2-9.5 13.5-2.5 13.5-2.5 6.5-.5 6.5-.5 6 2 6 2 5-2 5-2 7.5-2 7.5-2 5 1 5 1 6-2 6-2 8-3 8-3 6 1.5 6 1.5 5.5-1.5 5.5-1.5 7.5 2.5 7.5 2.5 3.5 5.5 3.5 5.5 1.5-4.5 1.5-4.5 3.5-5 3.5-5 4 1 4 1 3.5-.5 3.5-.5 8.5-1.5 8.5-1.5h7 7l8.5-1 8.5-1 5.5 1.5 5.5 1.5 3 4 3 4-.5 8.5-.5 8.5 2.5-1.5 2.5-1.5 6 2.5 6 2.5 1.5-6.5 1.5-6.5.5-6.5.5-6.5 2.5-2.5 2.5-2.5 3.5 5.5 3.5 5.5 9 .5 9 .5 9 1 9 1 8.5.5 8.5.5 7.5.5 7.5.5h9 9 9.5 9.5l8 1 8 1 8 3 8 3 5.5 2.5 5.5 2.5 5 1 5 1 3 1.5 3 1.5 5.5-3.5 5.5-3.5 8.5-2 8.5-2 10-.5 10-.5 19 1.5 19 1.5-10.5-2-10.5-2-8-1-8-1-7-2-7-2-6.5-1-6.5-1-6.5.5-6.5.5-6-1-6-1-7-4-7-4-7.5 1.5-7.5 1.5-4-2.5-4-2.5h-5-5-8-8-6-6l-6-1-6-1-5-2.5-5-2.5 7-2 7-2 6.5 1.5 6.5 1.5 5-1 5-1 5.5 1.5 5.5 1.5 8-.5 8-.5 5-1 5-1 6.5 1.5 6.5 1.5.5-4.5.5-4.5-3-4.5-3-4.5-1 2-1 2-7.5.5-7.5.5-3-1-3-1-5.5 1.5-5.5 1.5-3 .5-3 .5 4.5-3.5 4.5-3.5-3.5-2.5-3.5-2.5-8.5-1.5-8.5-1.5-8-1-8-1-7-2.5-7-2.5-2.5 2.5-2.5 2.5-9.5.5-9.5.5-9.5-.5-9.5-.5-9.5-.5-9.5-.5-8-2.5-8-2.5-5 1-5 1-8.5-1.5-8.5-1.5h-8-8-7-7l-9.5.5-9.5.5-8.5-1-8.5-1h-8-8-7-7l-8.5-1.5-8.5-1.5h-7-7l-11-.5-11-.5h-9-9-9-9l-8.5-1.5-8.5-1.5-9 2-9 2h-9.5-9.5l-8.5-4.5-8.5-4.5v1.5 1.5l-.5.5-.5.5-.5 1-.5 1h-1-1l-.5.5-.5.5-1.5-.5-1.5-.5h-1.5-1.5l-.5-1.5-.5-1.5 1-1 1-1 .5-1 .5-1-7.5-2.5-7.5-2.5-.5-9.5-.5-9.5-2.5-.5-2.5-.5h-2-2-2-2l-.5.5-.5.5h-1.5-1.5l-2-.5-2-.5-1.5-1.5-1.5-1.5 9.5-.5 9.5-.5h10 10 10.5 10.5l3.5 2.5 3.5 2.5h-10-10-11.5-11.5l3.5 2.5 3.5 2.5 5.5 1.5 5.5 1.5 6.5-2.5 6.5-2.5 6.5.5 6.5.5 6.5-2 6.5-2 5 1 5 1 3.5 3.5 3.5 3.5h8 8l6.5-3.5 6.5-3.5 3 2.5 3 2.5 8.5 1.5 8.5 1.5 8.5.5 8.5.5 9 1 9 1 8.5-.5 8.5-.5 9 .5 9 .5 9.5-.5 9.5-.5h8 8l9.5.5 9.5.5 6 4 6 4 6-3 6-3 7.5 2 7.5 2 7-1 7-1 7.5-.5 7.5-.5 6 2 6 2 6.5.5 6.5.5 4-.5 4-.5 4 1 4 1 2.5-1.5 2.5-1.5h7 7l7 1 7 1 6 .5 6 .5 9.5.5 9.5.5h6 6 8 8l8.5-.5 8.5-.5 6-2.5 6-2.5 4 4 4 4 7.5.5 7.5.5 1.5-3.5 1.5-3.5 7-1 7-1 9.5 1 9.5 1-4.5-2.5-4.5-2.5-8.5-.5-8.5-.5-7-1-7-1-9-1-9-1-2-.5-2-.5-6.5.5-6.5.5-8-2-8-2-6.5.5-6.5.5-5-3-5-3-5.5 3-5.5 3-4.5-.5-4.5-.5-5.5-1.5-5.5-1.5-4-4-4-4-1.5-.5-1.5-.5-6 1.5-6 1.5-3-2-3-2-4 3-4 3-5.5-3.5-5.5-3.5-1.5-2.5-1.5-2.5-5.5 4-5.5 4h-6-6l-5.5-1.5-5.5-1.5-6.5-1.5-6.5-1.5-3.5-1.5-3.5-1.5-3 4.5-3 4.5-4.5-2.5-4.5-2.5h-5-5l-3.5-.5-3.5-.5-8 1-8 1-5-1.5-5-1.5-2.5 1.5-2.5 1.5-3.5-.5-3.5-.5-1.5-5.5-1.5-5.5-3.5 2.5-3.5 2.5-6 .5-6 .5-4 2-4 2-5-1-5-1-3.5-2.5-3.5-2.5-5-2-5-2-3 3.5-3 3.5-2 3-2 3-7.5-.5-7.5-.5-5 1-5 1-7-2-7-2-1.5 3-1.5 3-2.5-3.5-2.5-3.5-5 2-5 2-6.5 2.5-6.5 2.5-6-1-6-1-5-1-5-1-4.5 2-4.5 2-5.5-.5-5.5-.5-9-2-9-2-5.5-1.5-5.5-1.5-2.5 2.5-2.5 2.5-10-.5-10-.5-12.5 1-12.5 1v3 3 1 1h10.5 10.5l.5 8.5.5 8.5-1 7-1 7h-2-2-1-1l-.5-.5-.5-.5h-1-1-1.5-1.5l-.5-.5-.5-.5h-1-1l-.5-.5-.5-.5-1-.5-1-.5-1-.5-1-.5v1 1l1 .5 1 .5 1.5.5 1.5.5 2 .5 2 .5 1.5.5 1.5.5.5 1 .5 1h-2-2l-2 .5-2 .5v2 2 1 1 2.5 2.5 2.5 2.5l.5-1 .5-1v-2.5-2.5-2-2l1-1.5 1-1.5v-1-1h1.5 1.5 2 2l2 .5 2 .5 1.5.5 1.5.5h2 2 2.5 2.5l5-2.5 5-2.5h10 10l2.5 3 2.5 3 1.5.5 1.5.5h1 1l1-.5 1-.5h1 1 1 1l.5-.5.5-.5h1.5 1.5l.5.5.5.5h1 1l.5-.5.5-.5 1 .5 1 .5 1.5-.5 1.5-.5h1 1l.5.5.5.5h1 1l.5-1 .5-1h1 1l1 1 1 1v-1.5-1.5l1-.5 1-.5 1.5-.5 1.5-.5h1 1l1-.5 1-.5h2 2 2 2l10 1 10 1h11 11l10.5 1 10.5 1 10.5.5 10.5.5 9.5 1.5 9.5 1.5h10 10l.5 1.5.5 1.5-8.5-1-8.5-1h-14-14-1.5-1.5-2-2-1-1-1.5-1.5l-1.5-.5-1.5-.5h-1-1-1.5-1.5-2-2-1-1l-1-.5-1-.5-1 1-1 1-1.5-.5-1.5-.5-10.5-.5-10.5-.5-13 .5-13 .5 2 .5 2 .5h2 2l1.5.5 1.5.5.5 1 .5 1-1.5-.5-1.5-.5v1.5 1.5l8-2.5 8-2.5 9.5.5 9.5.5h7.5 7.5l3 1 3 1-8 1-8 1h-8-8l-7 2-7 2 6.5 4 6.5 4 9 2 9 2-6.5 2-6.5 2-1-.5-1-.5-1-.5-1-.5 1-1 1-1-1.5-2-1.5-2-6.5 2.5-6.5 2.5-5.5 4.5-5.5 4.5-4.5 4-4.5 4-3-5-3-5-6.5 1.5-6.5 1.5-4 2-4 2-4 6-4 6-2 4.5-2 4.5-.5 3.5-.5 3.5-2.5 6.5-2.5 6.5 2 6 2 6v3 3l-.5 7-.5 7v8 8l.5 8.5.5 8.5.5 9.5.5 9.5 1.5 6.5 1.5 6.5-3 6.5-3 6.5-8 1-8 1-2 5-2 5-2.5 3.5-2.5 3.5.5 2.5.5 2.5 3.5 5 3.5 5-3.5 1.5-3.5 1.5-2.5 2.5-2.5 2.5-1 5-1 5 3 4 3 4 3 2.5 3 2.5-2 3-2 3 3.5 5.5 3.5 5.5-1 4-1 4-7.5 2.5-7.5 2.5 5.5-1 5.5-1 1 1 1 1-4 4-4 4 2.5 1.5 2.5 1.5 4-2 4-2 1.5 4.5 1.5 4.5-5.5 4-5.5 4 7.5-1.5 7.5-1.5-2 5-2 5 4 5 4 5-3-2-3-2-3 3.5-3 3.5 3.5 1.5 3.5 1.5-6 1-6 1 7 3 7 3 1 4 1 4 1 6.5 1 6.5 2.5-2.5 2.5-2.5 1.5 3.5 1.5 3.5-5 2-5 2v3.5 3.5l6.5 3.5 6.5 3.5-1 3-1 3-3.5 4-3.5 4-4 4.5-4 4.5 4.5 1.5 4.5 1.5 5-3 5-3 3-1 3-1-2.5 6-2.5 6-3.5 2.5-3.5 2.5 2.5-.5 2.5-.5v5 5l3.5 2.5 3.5 2.5-3 1.5-3 1.5 1 4 1 4h4 4l-2.5 4.5-2.5 4.5 5.5-2.5 5.5-2.5v4.5 4.5l-5.5 3.5-5.5 3.5-3.5.5-3.5.5-3 6-3 6 2-2 2-2 6-2.5 6-2.5 1-2 1-2 3.5-3.5 3.5-3.5 1.5 1.5 1.5 1.5 2 6 2 6v4 4l-6.5-4-6.5-4-5.5 3.5-5.5 3.5-4.5 2.5-4.5 2.5 5.5-.5 5.5-.5 3.5-2.5 3.5-2.5-1 3.5-1 3.5v1 1l6.5 2.5 6.5 2.5h-3-3l-1 7-1 7-3-3.5-3-3.5-1-1-1-1-4 2-4 2-2.5.5-2.5.5 2.5 3.5 2.5 3.5-.5 5-.5 5-5.5-2.5-5.5-2.5-3.5 1.5-3.5 1.5 1 4 1 4h3 3l4 5.5 4 5.5 6 1 6 1 .5 4.5.5 4.5-3.5 4.5-3.5 4.5-6-2-6-2 .5 3 .5 3-.5 2.5-.5 2.5 3.5-.5 3.5-.5 1.5 5.5 1.5 5.5-1 1-1 1 6-1.5 6-1.5 1 1 1 1-2.5 4.5-2.5 4.5-3.5 1.5-3.5 1.5 4 7.5 4 7.5v-.5-.5l-.5-5.5-.5-5.5 5.5-3 5.5-3 4.5 2.5 4.5 2.5-1.5 2.5-1.5 2.5-3.5-2.5-3.5-2.5-1 6-1 6-3.5.5-3.5.5.5 7 .5 7-4.5 1.5-4.5 1.5 2 3.5 2 3.5 3 2 3 2-2.5 1.5-2.5 1.5-4.5 2.5-4.5 2.5 3.5 2.5 3.5 2.5-5.5 4-5.5 4-5-2-5-2-2-5-2-5-4.5 3.5-4.5 3.5 4 1 4 1-3 3.5-3 3.5-1 6-1 6 2.5 2.5 2.5 2.5h-4-4l3.5 3.5 3.5 3.5-5 3.5-5 3.5-3.5-3.5-3.5-3.5-3.5 3.5-3.5 3.5-3 11-3 11-.5-2-.5-2-.5-1.5-.5-1.5v11.5 11.5l.5 10.5.5 10.5.5 10.5.5 10.5.5 10.5.5 10.5.5 13.5.5 13.5 5 3.5 5 3.5 2.5-2.5 2.5-2.5 1 7.5 1 7.5" style="fill:#373428;stroke:#373428"/><path d="m15 948h2v-2-2-1.5-1.5-1-1l.5-1.5.5-1.5v-1.5-1.5-1-1-2-2-1.5-1.5-1.5-1.5l-1 .5-1 .5.5 1.5.5 1.5-.5 2-.5 2-.5 1.5-.5 1.5-.5 1-.5 1-.5.5-.5.5-.5 1.5-.5 1.5-1 .5-1 .5v2 2l.5-1.5.5-1.5 1-.5 1-.5.5-.5.5-.5h1 1v1 1l-.5.5-.5.5v1.5 1.5l.5.5.5.5-.5 1.5-.5 1.5" style="fill:#60605e;stroke:#60605e"/><path d="m394 944l7-11-5.5 3.5-5.5 3.5 2 2 2 2" style="fill:#4e4c42;stroke:#4e4c42"/><path d="m20 942l2-1v-2-2-2-2l.5-2 .5-2v2 2 2.5 2.5l.5 1.5.5 1.5v-1-1l-.5-13.5-.5-13.5-.5-10.5-.5-10.5-.5-10.5-.5-10.5-.5-10.5-.5-10.5v-11.5-11.5l-.5-.5-.5-.5-.5-10-.5-10-.5-10.5-.5-10.5v-10-10l-.5-11-.5-11-.5-10.5-.5-10.5v-11-11l-.5-9.5-.5-9.5v-11-11l-.5-11-.5-11-1.5-15.5-1.5-15.5-1 7.5-1 7.5.5 11 .5 11 .5 10.5.5 10.5v11 11l.5 10.5.5 10.5.5 10.5.5 10.5v11.5 11.5l.5 10.5.5 10.5.5 10.5.5 10.5 1 13.5 1 13.5v2.5 2.5 1.5 1.5l1.5 4.5 1.5 4.5.5 10 .5 10v10 10l.5 10.5.5 10.5.5 10.5.5 10.5-1 6-1 6-.5 1-.5 1v1.5 1.5 2 2l.5 1.5.5 1.5" style="fill:#785a2e;stroke:#785a2e"/><path d="m293 934l-3-9 .5 3.5.5 3.5 1 1 1 1" style="fill:#60605e;stroke:#60605e"/><path d="m37 933l3 1v-1-1l1-1.5 1-1.5-.5-1.5-.5-1.5 1.5-1 1.5-1v-1-1h-2.5-2.5l-.5.5-.5.5.5 1.5.5 1.5-1 1.5-1 1.5v2 2" style="fill:#4e4c42;stroke:#4e4c42"/><path d="m19 929l1 1 1-6 1-6-.5-10.5-.5-10.5-.5-10.5-.5-10.5v-10-10l-.5-10-.5-10-1.5-4.5-1.5-4.5v14.5 14.5l.5 8.5.5 8.5v10 10l.5 9 .5 9 .5 2 .5 2v2 2 2.5 2.5 2.5 2.5" style="fill:#917245;stroke:#917245"/><g style="fill:#60605e;stroke:#60605e"><path d="m707 929l3 1v-2-2l-.5-2-.5-2 .5-1.5.5-1.5h-1.5-1.5-2-2l1 1.5 1 1.5v2 2l.5 1.5.5 1.5h.5.5"/><path d="m511 927v1l1-.5 1-.5 1-1.5 1-1.5-.5-1.5-.5-1.5-1.5-1-1.5-1-1.5.5-1.5.5.5 1.5.5 1.5 1 2 1 2"/><path d="m256 921l3 1 1-1 1-1 2 .5 2 .5h2 2v-1.5-1.5l-1 1-1 1-1-1.5-1-1.5-1.5-.5-1.5-.5-1 1-1 1-2 .5-2 .5v1 1"/></g><path d="m29 919l3 1 .5-1.5.5-1.5 1-1.5 1-1.5 1-1 1-1-1.5-1-1.5-1h-1-1l-1 1.5-1 1.5-1 1-1 1v1 1l.5 1 .5 1" style="fill:#4e4c42;stroke:#4e4c42"/><g style="fill:#60605e;stroke:#60605e"><path d="m221 919l3 1 1-1 1-1 1-1.5 1-1.5 1-1 1-1v-1.5-1.5l-1.5-.5-1.5-.5-2 .5-2 .5-1 1-1 1-1 1-1 1 .5 1 .5 1 .5 1.5.5 1.5"/><path d="m629 915l1 1v-1.5-1.5-1.5-1.5-1-1-2-2l-.5-.5-.5-.5-1-2-1-2-.5-1.5-.5-1.5-.5-1.5-.5-1.5v1.5 1.5 1 1 1 1 2 2l.5-1.5.5-1.5 1 1 1 1-.5 1.5-.5 1.5v1.5 1.5l1 1 1 1v2 2"/></g><path d="m665 915l4-15 2.5-4.5 2.5-4.5v-2-2-6.5-6.5l2-2 2-2 6.5-.5 6.5-.5 4 1 4 1-3-6-3-6-1-6.5-1-6.5 6.5 4.5 6.5 4.5 1.5-3.5 1.5-3.5 2.5-.5 2.5-.5v-12.5-12.5-11-11-11-11-11.5-11.5-11-11-11-11-3.5-3.5l-1 6-1 6-1 5-1 5-2-1-2-1h-5.5-5.5l-.5-.5-.5-.5-2.5 4.5-2.5 4.5 1 1 1 1 1.5 2 1.5 2 1 4 1 4 .5 2.5.5 2.5-.5 8.5-.5 8.5-3.5-6.5-3.5-6.5-1.5-5-1.5-5-3.5-3.5-3.5-3.5-1 5-1 5-.5 2.5-.5 2.5 1.5 4.5 1.5 4.5-2.5-2-2.5-2-1.5 7.5-1.5 7.5-1 7-1 7-1.5-8-1.5-8 1.5-6.5 1.5-6.5-1-7-1-7 .5-6.5.5-6.5-5.5 3.5-5.5 3.5.5 1 .5 1v1 1l1 1 1 1v1.5 1.5h-2-2-1.5-1.5l-1.5-.5-1.5-.5h1 1l1-1.5 1-1.5-.5-1.5-.5-1.5 2-1 2-1-1.5-8-1.5-8-5.5 5.5-5.5 5.5v-9-9l5-1 5-1 .5-3 .5-3h-5-5l4-5 4-5-1.5-1.5-1.5-1.5-2.5-3.5-2.5-3.5 1-8.5 1-8.5-.5-7.5-.5-7.5.5-9.5.5-9.5v-9-9l2-8.5 2-8.5.5-9.5.5-9.5v-9-9-9-9l.5-8.5.5-8.5-1-10.5-1-10.5.5-10.5.5-10.5v-11-11l1-9 1-9 .5-10.5.5-10.5.5-11 .5-11 .5-10.5.5-10.5v-10-10l.5-10.5.5-10.5.5-10.5.5-10.5.5-10 .5-10 1-10 1-10 1-10 1-10v-10-10l-3 1-3 1-.5 7-.5 7 1.5 8.5 1.5 8.5-2.5 7.5-2.5 7.5-.5 10.5-.5 10.5-.5 10.5-.5 10.5-.5 11-.5 11v11 11l-.5 10.5-.5 10.5-.5 10.5-.5 10.5-.5 11-.5 11-.5 10.5-.5 10.5-.5 10.5-.5 10.5-1 9-1 9v10 10 10.5 10.5 9 9 9 9l-1 8-1 8-.5 7.5-.5 7.5-.5 10-.5 10-.5 9.5-.5 9.5-.5 9.5-.5 9.5-.5 9.5-.5 9.5-.5 10.5-.5 10.5-3.5-1-3.5-1 1.5-7.5 1.5-7.5-.5-6.5-.5-6.5 1-8 1-8 .5-4.5.5-4.5.5-4 .5-4-.5-5.5-.5-5.5-2.5-.5-2.5-.5-3.5-2.5-3.5-2.5 4-2 4-2-2.5-3-2.5-3-2.5-5.5-2.5-5.5 2 1 2 1 1-7 1-7-1.5-2-1.5-2 .5-4.5.5-4.5-1.5-4.5-1.5-4.5h5 5l2.5-3.5 2.5-3.5-1.5-7-1.5-7 1.5-4.5 1.5-4.5-2-4-2-4-.5-5.5-.5-5.5-3.5 2.5-3.5 2.5 1.5-3 1.5-3 3-6 3-6-5-4-5-4-2-2-2-2 3.5-3.5 3.5-3.5-5-2.5-5-2.5 1.5-2.5 1.5-2.5-5.5.5-5.5.5.5 5.5.5 5.5 3 3 3 3-1.5 2-1.5 2-5-3-5-3 2.5-2.5 2.5-2.5-3.5-2.5-3.5-2.5-5.5-3.5-5.5-3.5-3.5 1-3.5 1-.5-3.5-.5-3.5-3-3-3-3 2-2 2-2 .5-8 .5-8 4.5-3.5 4.5-3.5 1.5-2.5 1.5-2.5 5-2 5-2-2.5-3.5-2.5-3.5v-3.5-3.5l-3.5-3.5-3.5-3.5 4.5-1.5 4.5-1.5h-3-3l2-3 2-3 3.5 1 3.5 1 3.5 4.5 3.5 4.5 2-6 2-6 3.5.5 3.5.5-2-5-2-5-4.5 1-4.5 1-2-1-2-1-3.5 1.5-3.5 1.5-2.5-2.5-2.5-2.5 6-2 6-2-3-.5-3-.5-.5-3.5-.5-3.5h4 4l-1-4-1-4-4.5-5.5-4.5-5.5 4 1.5 4 1.5-.5-3.5-.5-3.5v-4-4l1-4 1-4-3.5-2-3.5-2-1-3-1-3h7 7l-.5-3.5-.5-3.5-.5-3.5-.5-3.5-7.5-1-7.5-1-4-2-4-2 6.5-1.5 6.5-1.5 7.5-2.5 7.5-2.5 2-6 2-6-6.5-4-6.5-4-8-1-8-1-4.5-2.5-4.5-2.5 1.5-3.5 1.5-3.5 3-5 3-5-.5-5-.5-5-2-7-2-7-4.5-1.5-4.5-1.5 4-6 4-6 16-3 16-3-10 .5-10 .5-10.5-.5-10.5-.5-3 6-3 6 5 6 5 6 3.5 6.5 3.5 6.5-11 8.5-11 8.5-.5 1-.5 1-.5 1.5-.5 1.5v2 2l.5 2 .5 2 1 1 1 1h1 1l2 .5 2 .5 1.5.5 1.5.5h2.5 2.5 2 2l1 .5 1 .5 10.5.5 10.5.5 7 4 7 4-5.5 5.5-5.5 5.5-10.5.5-10.5.5-14 .5-14 .5-2.5-.5-2.5-.5-11.5 7-11.5 7-7.5 1.5-7.5 1.5h-4-4l1 6 1 6 2 4 2 4-5 5.5-5 5.5-4.5 6.5-4.5 6.5-5 5-5 5 4-5 4-5-2.5-5.5-2.5-5.5-4 .5-4 .5-5 3-5 3-1.5 1.5-1.5 1.5h-3-3l-1 3-1 3-3.5 6-3.5 6-.5 7.5-.5 7.5-.5 7.5-.5 7.5-3 2-3 2-1.5 3.5-1.5 3.5-.5 3-.5 3 4.5 4.5 4.5 4.5 7 2 7 2 1 3 1 3-4 1-4 1-2 1.5-2 1.5-3 6-3 6-8 2-8 2-6.5-.5-6.5-.5-7 1-7 1 3.5 5 3.5 5 3 3 3 3 2-1 2-1 7.5 2.5 7.5 2.5 1 6 1 6 5.5-3 5.5-3 .5 6.5.5 6.5 3.5.5 3.5.5-2 4-2 4 2 4 2 4-4.5 1-4.5 1-.5-6.5-.5-6.5 1.5-2.5 1.5-2.5-4.5 4.5-4.5 4.5-1.5 3.5-1.5 3.5 2.5 3 2.5 3 3.5 3.5 3.5 3.5 3 4 3 4-3.5 2.5-3.5 2.5-3 2-3 2 2 4.5 2 4.5.5 5.5.5 5.5v6 6l-3.5 2.5-3.5 2.5 1 4 1 4 2 2.5 2 2.5-1 6-1 6 1 3 1 3-1.5.5-1.5.5-2.5 6.5-2.5 6.5 4.5 4 4.5 4-2.5-1.5-2.5-1.5-.5 3.5-.5 3.5-2 4-2 4 6.5 2.5 6.5 2.5-3 2.5-3 2.5-2.5 2.5-2.5 2.5 3 6 3 6 .5 5.5.5 5.5 4 4 4 4 5.5-1 5.5-1-2 1-2 1v6 6l-2.5 1.5-2.5 1.5 3.5 1.5 3.5 1.5-1 3.5-1 3.5 5-5 5-5 .5-3.5.5-3.5 1 4 1 4 1.5 4.5 1.5 4.5 1 4.5 1 4.5-.5 1.5-.5 1.5-1.5 5.5-1.5 5.5 1 4 1 4-1 2-1 2 7-3 7-3-1.5-.5-1.5-.5-2-6.5-2-6.5 3.5 7 3.5 7h5 5 3 3l-3.5 3.5-3.5 3.5 6.5 2 6.5 2 1.5 3.5 1.5 3.5-1.5 3.5-1.5 3.5 4.5 2.5 4.5 2.5-5.5 2.5-5.5 2.5 3 .5 3 .5h1 1l2 6 2 6-2 5-2 5 3-1.5 3-1.5 2.5-3 2.5-3 4-1 4-1 1 3 1 3-4.5 1-4.5 1-1-.5-1-.5-1 .5-1 .5v-1-1l-1 1-1 1 4.5 6.5 4.5 6.5 3.5-5.5 3.5-5.5 1.5 7.5 1.5 7.5 3-.5 3-.5 4.5-.5 4.5-.5 4.5 4.5 4.5 4.5 3.5-1.5 3.5-1.5 4.5.5 4.5.5 4.5-2 4.5-2 4.5 4.5 4.5 4.5 6.5-1.5 6.5-1.5 2.5 5.5 2.5 5.5 3.5-.5 3.5-.5 2 4.5 2 4.5.5-8.5.5-8.5.5-8.5.5-8.5 1-10 1-10 1-10 1-10 .5-11 .5-11 .5-10.5.5-10.5.5-10.5.5-10.5.5-9.5.5-9.5.5-10.5.5-10.5.5-10 .5-10 .5-9.5.5-9.5.5-10.5.5-10.5 1 8 1 8-.5 9.5-.5 9.5v11.5 11.5l-.5 10.5-.5 10.5-.5 10.5-.5 10.5-.5 10.5-.5 10.5-.5 10.5-.5 10.5-.5 10-.5 10-.5 10.5-.5 10.5-.5 10-.5 10-.5 19.5-.5 19.5 2.5 3.5 2.5 3.5-.5 3.5-.5 3.5 1.5 4.5 1.5 4.5 2.5 6.5 2.5 6.5 3-3.5 3-3.5 1 1 1 1 1.5 5.5 1.5 5.5 4.5 7 4.5 7" style="fill:#373428;stroke:#373428"/><g style="fill:#60605e;stroke:#60605e"><path d="m703 915h2l1.5-.5 1.5-.5v-1.5-1.5l-1-1-1-1v-1.5-1.5l-1.5-.5-1.5-.5v1.5 1.5l.5 1.5.5 1.5-.5 1.5-.5 1.5v.5.5"/><path d="m453 911l1-1v-1-1l-1-1.5-1-1.5 1-1 1-1-.5-2-.5-2-1.5-.5-1.5-.5-.5 2-.5 2 .5 1.5.5 1.5v1 1l1 1.5 1 1.5.5.5.5.5"/><path d="m316 910l1-17-2 3-2 3-3 2.5-3 2.5 4.5 3 4.5 3"/></g><path d="m74 903l4-12-2.5-3.5-2.5-3.5-.5 8-.5 8 1 1.5 1 1.5" style="fill:#4e4c42;stroke:#4e4c42"/><path d="m629 903l1 1 .5-2.5.5-2.5.5-1 .5-1h1 1l1 1 1 1 1 .5 1 .5h1 1l.5-.5.5-.5-.5-.5-.5-.5-1-.5-1-.5-.5-.5-.5-.5-.5-.5-.5-.5-.5-.5-.5-.5-1-1-1-1-.5-1-.5-1-.5-.5-.5-.5-.5-1-.5-1v-1.5-1.5l-.5-1-.5-1-.5.5-.5.5-.5.5-.5.5v1 1l-1 .5-1 .5-1.5.5-1.5.5h-1-1-1.5-1.5l-1.5.5-1.5.5.5.5.5.5h1 1 1 1l1 .5 1 .5 2 1 2 1 .5 1.5.5 1.5.5 1.5.5 1.5 1 2 1 2" style="fill:#757366;stroke:#757366"/><path d="m123 901l1 1 1-.5 1-.5.5-1 .5-1 .5.5.5.5 1.5-.5 1.5-.5.5-1.5.5-1.5-1-1.5-1-1.5-1 1-1 1-1.5 1-1.5 1-.5 1-.5 1-.5 1-.5 1" style="fill:#373428;stroke:#373428"/><path d="m612 890l3 1h1 1 2 2l-1-.5-1-.5h-1-1-1-1l-.5-.5-.5-.5 1.5-.5 1.5-.5h1.5 1.5 1 1l1.5-.5 1.5-.5h-16.5-16.5l10 1.5 10 1.5" style="fill:#60605e;stroke:#60605e"/><path d="m625 886v1l1-.5 1-.5v-1-1l.5-.5.5-.5.5-.5.5-.5.5 1 .5 1 .5-1.5.5-1.5v-1-1-2-2-2-2-1.5-1.5l-.5 1-.5 1v1 1l-.5.5-.5.5.5.5.5.5-.5 1-.5 1 .5.5.5.5-.5.5-.5.5-.5.5-.5.5v-1.5-1.5-2-2-2-2-1.5-1.5l-.5 3-.5 3v2 2l-.5 1.5-.5 1.5v2.5 2.5l-.5 1.5-.5 1.5" style="fill:#785a2e;stroke:#785a2e"/><path d="m620 884l6-18-2 2-2 2-1 7-1 7" style="fill:#373428;stroke:#373428"/><path d="m628 879l1-1 .5-.5.5-.5-.5-.5-.5-.5.5-1 .5-1-.5-.5-.5-.5.5-.5.5-.5v-1-1l.5-1 .5-1v-2-2-.5-.5l-.5-2-.5-2 .5-1.5.5-1.5v-1-1-2.5-2.5l-1-1.5-1-1.5-.5 2-.5 2v2 2 2.5 2.5 1.5 1.5 1.5 1.5 1.5 1.5 2 2 2 2 1.5 1.5" style="fill:#917245;stroke:#917245"/><g style="fill:#373428;stroke:#373428"><path d="m188 878l9-7-6 3-6 3 1.5.5 1.5.5"/><path d="m5 876l6-17 1-8.5 1-8.5 1.5-11.5 1.5-11.5-1-13.5-1-13.5-.5-10.5-.5-10.5-.5-10.5-.5-10.5v-11.5-11.5l-.5-10.5-.5-10.5-.5-10.5-.5-10.5v-11-11l-.5-10.5-.5-10.5-.5-11-.5-11 1-7.5 1-7.5 1.5-2 1.5-2 1.5-6 1.5-6 .5-7.5.5-7.5v-8-8l-2.5-7.5-2.5-7.5v-11.5-11.5l-.5-10.5-.5-10.5.5-9.5.5-9.5v-9-9l-1-9-1-9v-10.5-10.5l.5-9.5.5-9.5-.5-9.5-.5-9.5v-8-8-9-9l-1-8.5-1-8.5v-11-11-11-11l-1-13-1-13v11.5 11.5 11 11l.5 10.5.5 10.5v11 11l.5 9.5.5 9.5v11 11l.5 11 .5 11v11 11l.5 10.5.5 10.5v11 11 11 11 11.5 11.5l.5 9.5.5 9.5-1.5 9.5-1.5 9.5v14.5 14.5l-.5-12-.5-12-.5-10.5-.5-10.5v-11-11-11-11l-.5-21.5-.5-21.5v-.5-.5-11.5-11.5l-.5-10.5-.5-10.5v-11-11l-.5-10.5-.5-10.5v-11-11-11-11l-.5-9.5-.5-9.5v-11-11l-1-12.5-1-12.5v13 13 11 11 11 11 11 11 11.5 11.5 11 11 5 5l2 9.5 2 9.5-2 12-2 12v3 3 2.5 2.5 1.5 1.5l1 6.5 1 6.5 1 8.5 1 8.5-2 11-2 11v1.5 1.5 2.5 2.5 2 2 2 2 2.5 2.5 2 2 2.5 2.5 2 2 2.5 2.5l1.5-.5 1.5-.5v1.5 1.5l.5 1.5.5 1.5v2 2l.5 2 .5 2v2 2 1.5 1.5l-.5.5-.5.5h-1.5-1.5l-.5-1-.5-1v2.5 2.5 1.5 1.5l2 5 2 5-2 10-2 10v12 12 11 11 11 11 11 11 11.5 11.5 11 11 11 11 11 11 11.5 11.5 11 11 11 11 2.5 2.5l1 1 1 1 .5.5.5.5.5.5.5.5v1.5 1.5l.5.5.5.5.5.5.5.5-.5.5-.5.5v.5.5"/></g><path d="m631 863v1l.5-1 .5-1v-2-2-2.5-2.5-2-2-2.5-2.5-2-2-1.5-1.5l-.5-.5-.5-.5.5-1.5.5-1.5v-2-2l-.5 1-.5 1-.5 1.5-.5 1.5-.5 1-.5 1v3 3 2 2l1 1.5 1 1.5v2.5 2.5 1 1l-.5 1.5-.5 1.5.5 2 .5 2" style="fill:#757366;stroke:#757366"/><g style="fill:#373428;stroke:#373428"><path d="m321 861l3-15-.5 1.5-.5 1.5-1 6-1 6"/><path d="m222 848l-4-4h2 2v2 2"/><path d="m590 846l1-1 1-1 1-1-.5-2-.5-2-1 1-1 1-1.5-1-1.5-1-1 1-1 1-.5 1-.5 1 1 1 1 1 1.5.5 1.5.5h.5.5"/></g><path d="m333 841l2-12-1 2-1 2v4 4" style="fill:#60605e;stroke:#60605e"/><path d="m603 839h2l.5-1.5.5-1.5-1-.5-1-.5 1-1 1-1-1-.5-1-.5-1.5-.5-1.5-.5-1 1.5-1 1.5v1 1l.5.5.5.5 1.5 1 1.5 1" style="fill:#4e4c42;stroke:#4e4c42"/><path d="m631 836l1 1 .5-2.5.5-2.5v-2.5-2.5-2-2l.5-1.5.5-1.5v-15-15-9-9l-1 10-1 10-.5 10.5-.5 10.5-1 11.5-1 11.5.5-1 .5-1 .5-1.5.5-1.5.5-1 .5-1v2 2l-.5 1.5-.5 1.5" style="fill:#785a2e;stroke:#785a2e"/><path d="m320 835l5-25 1-9 1-9-5.5-5.5-5.5-5.5-8.5-2-8.5-2-.5 1-.5 1h-1.5-1.5-1-1l12.5 3.5 12.5 3.5 1 4 1 4-1.5 8.5-1.5 8.5v4 4l1.5 8 1.5 8" style="fill:#373428;stroke:#373428"/><path d="m22 833l6-22 3.5-3.5 3.5-3.5 3.5 3.5 3.5 3.5 5-3.5 5-3.5-3.5-3.5-3.5-3.5h4 4l-2.5-2.5-2.5-2.5 1-6 1-6 3-3.5 3-3.5-4-1-4-1 4.5-3.5 4.5-3.5 2 5 2 5 5 2 5 2 5.5-4 5.5-4-3.5-2.5-3.5-2.5 4.5-2.5 4.5-2.5 2.5-1.5 2.5-1.5-3-2-3-2-2-3.5-2-3.5 4.5-1.5 4.5-1.5-.5-7-.5-7-4-7.5-4-7.5 3.5-1.5 3.5-1.5 2.5-4.5 2.5-4.5-1-1-1-1-6 1.5-6 1.5 1-1 1-1-1.5-5.5-1.5-5.5-3.5.5-3.5.5.5-2.5.5-2.5-.5-3-.5-3 6 2 6 2 3.5-4.5 3.5-4.5-.5-4.5-.5-4.5-6-1-6-1-4-5.5-4-5.5h-3-3l-1-4-1-4 3.5-1.5 3.5-1.5 5.5 2.5 5.5 2.5.5-5 .5-5-2.5-3.5-2.5-3.5 2.5-.5 2.5-.5 4-2 4-2 1 1 1 1 3 3.5 3 3.5 1-7 1-7h3 3l-6.5-2.5-6.5-2.5v-1-1l1-3.5 1-3.5-3.5 2.5-3.5 2.5-5.5.5-5.5.5 4.5-2.5 4.5-2.5 5.5-3.5 5.5-3.5 6.5 4 6.5 4v-4-4l-2-6-2-6-1.5-1.5-1.5-1.5-3.5 3.5-3.5 3.5-1 2-1 2-6 2.5-6 2.5-2 2-2 2 3-6 3-6 3.5-.5 3.5-.5 5.5-3.5 5.5-3.5v-4.5-4.5l-5.5 2.5-5.5 2.5 2.5-4.5 2.5-4.5h-4-4l-1-4-1-4 3-1.5 3-1.5-3.5-2.5-3.5-2.5v-5-5l-2.5.5-2.5.5 3.5-2.5 3.5-2.5 2.5-6 2.5-6-3 1-3 1-5 3-5 3-4.5-1.5-4.5-1.5h-1.5-1.5l.5 1.5.5 1.5-.5.5-.5.5 1-6 1-6-1.5-2.5-1.5-2.5 2 6.5 2 6.5 4-4.5 4-4.5 3.5-4 3.5-4 1-3 1-3-6.5-3.5-6.5-3.5.5 2 .5 2h1 1v1 1h1 1 1.5 1.5v1 1l-.5.5-.5.5-.5.5-.5.5-1 .5-1 .5-.5.5-.5.5v1 1h-1-1l-.5-1-.5-1-1.5-.5-1.5-.5.5-1.5.5-1.5 1-1.5 1-1.5-1-1-1-1-.5-1-.5-1 1.5-.5 1.5-.5v-3.5-3.5l5-2 5-2-1.5-3.5-1.5-3.5-2.5 2.5-2.5 2.5-1-6.5-1-6.5-1-4-1-4-7-3-7-3 6-1 6-1-3.5-1.5-3.5-1.5 3-3.5 3-3.5 3 2 3 2-4-5-4-5 2-5 2-5-7.5 1.5-7.5 1.5 5.5-4 5.5-4-1.5-4.5-1.5-4.5-4 2-4 2-2.5-1.5-2.5-1.5 4-4 4-4-1-1-1-1-5.5 1-5.5 1 7.5-2.5 7.5-2.5 1-4 1-4-3.5-5.5-3.5-5.5 2-3 2-3-3-2.5-3-2.5-3-4-3-4 1-5 1-5 2.5-2.5 2.5-2.5 3.5-1.5 3.5-1.5-3.5-5-3.5-5-.5-2.5-.5-2.5 2.5-3.5 2.5-3.5 2-5 2-5 8-1 8-1 3-6.5 3-6.5-1.5-6.5-1.5-6.5-.5-9.5-.5-9.5-.5-8.5-.5-8.5v-8-8l.5-7 .5-7v-3-3l-2-6-2-6 2.5-6.5 2.5-6.5.5-3.5.5-3.5 2-4.5 2-4.5 4-6 4-6 4-2 4-2 6.5-1.5 6.5-1.5 3 5 3 5 4.5-4 4.5-4 5.5-4.5 5.5-4.5 6.5-2.5 6.5-2.5-6.5-4-6.5-4 7-2 7-2h8 8l8-1 8-1-3-1-3-1h-7.5-7.5l-9.5-.5-9.5-.5-8 2.5-8 2.5.5 2 .5 2 .5 1 .5 1-1 1-1 1-1.5-.5-1.5-.5-2-1-2-1-.5-1.5-.5-1.5.5-1 .5-1 .5-.5.5-.5 1.5-.5 1.5-.5 1.5 1 1.5 1v-1.5-1.5l1.5.5 1.5.5-.5-1-.5-1-1.5-.5-1.5-.5h-2-2l-2-.5-2-.5h-.5-.5-2.5-2.5-1.5-1.5-2-2l-.5-.5-.5-.5-1-.5-1-.5-1-1-1-1h-1-1l-.5 1-.5 1h-1-1l-.5-.5-.5-.5h-1-1l-1.5.5-1.5.5-1-.5-1-.5-.5.5-.5.5h-1-1l-.5-.5-.5-.5h-1.5-1.5l-.5.5-.5.5h-1-1-1-1l-1 .5-1 .5h-1-1l-1.5-.5-1.5-.5h-1-1-1.5-1.5-2-2-2.5-2.5-2-2-2.5-2.5-2-2-2.5-2.5l-1.5-.5-1.5-.5h-2.5-2.5-2-2l-1.5-.5-1.5-.5-2-.5-2-.5h-2-2-1.5-1.5v1 1l-1 1.5-1 1.5v2 2 2.5 2.5l-.5 1-.5 1v.5.5l.5 10.5.5 10.5 1 10 1 10v13.5 13.5l.5 1 .5 1v2.5 2.5l-.5 2.5-.5 2.5.5 11 .5 11-1.5 8.5-1.5 8.5 1 13 1 13v11 11 11 11l1 8.5 1 8.5v9 9 8 8l.5 9.5.5 9.5-.5 9.5-.5 9.5v10.5 10.5l1 9 1 9v9 9l-.5 9.5-.5 9.5.5 10.5.5 10.5v11.5 11.5l2.5 7.5 2.5 7.5v8 8l-.5 7.5-.5 7.5-1.5 6-1.5 6-1.5 2-1.5 2 2 9.5 2 9.5.5 10.5.5 10.5v11 11 8 8l.5 10.5.5 10.5.5 10 .5 10v11 11l1 10 1 10v10 10l.5 9.5.5 9.5v10.5 10.5l.5 1.5.5 1.5.5 2 .5 2" style="fill:#262110;stroke:#262110"/><path d="m563 829l13-1 1.5-3.5 1.5-3.5-3.5-4-3.5-4-2.5-2.5-2.5-2.5-3 4-3 4v2 2l1 4.5 1 4.5" style="fill:#4e4c42;stroke:#4e4c42"/><path d="m19 825l1 1v-10.5-10.5l-.5-9.5-.5-9.5v-10-10l-1-10-1-10v-11-11l-.5-10-.5-10-.5-10.5-.5-10.5v-8-8-11-11l-.5-10.5-.5-10.5-2-9.5-2-9.5 1.5 15.5 1.5 15.5.5 11 .5 11v11 11l.5 9.5.5 9.5v11 11l.5 10.5.5 10.5.5 11 .5 11v10 10l.5 10.5.5 10.5.5 10 .5 10" style="fill:#373428;stroke:#373428"/><path d="m248 825l10-6-3-3-3-3-3-2.5-3-2.5-3 4-3 4 4 4.5 4 4.5" style="fill:#4e4c42;stroke:#4e4c42"/><path d="m351 822h4l1-2 1-2v-1.5-1.5-1-1-1-1-1.5-1.5h-1-1l-.5.5-.5.5-.5.5-.5.5-.5 1-.5 1-.5.5-.5.5v1 1l-.5.5-.5.5v1 1l-.5 1-.5 1 1 1 1 1" style="fill:#757366;stroke:#757366"/><g style="fill:#4e4c42;stroke:#4e4c42"><path d="m233 815l9-7-1.5-5.5-1.5-5.5-4-1.5-4-1.5 2 4 2 4-1.5 5.5-1.5 5.5.5 1 .5 1"/><path d="m224 814l6-12-4.5-.5-4.5-.5 1 6.5 1 6.5h.5.5"/><path d="m526 812l9-2-1-3-1-3-4 1-4 1-2.5 3-2.5 3 1-1 1-1v1 1l1-.5 1-.5 1 .5 1 .5"/><path d="m260 808l1-9 1.5-5.5 1.5-5.5-3 2.5-3 2.5-2 4-2 4 3.5 2.5 3.5 2.5-.5 1-.5 1"/></g><path d="m279 807l13-7 1.5-3.5 1.5-3.5-.5-2-.5-2-3.5 1.5-3.5 1.5-2 5-2 5-2 2.5-2 2.5" style="fill:#373428;stroke:#373428"/><path d="m343 806l3-17-5 2-5 2-1 1.5-1 1.5-.5 1-.5 1 1.5-1 1.5-1 2 .5 2 .5 1 2 1 2 1 .5 1 .5v1 1l-.5 1-.5 1" style="fill:#60605e;stroke:#60605e"/><path d="m338 802l3 1 .5-1 .5-1-1-2-1-2-2-.5-2-.5-1.5 1-1.5 1 .5 1 .5 1 1.5 1 1.5 1h.5.5" style="fill:#917245;stroke:#917245"/><path d="m30 792l10-4-5-1-5-1v3 3" style="fill:#373428;stroke:#373428"/><path d="m367 788l14-19-2.5-7-2.5-7 6.5-2.5 6.5-2.5.5-10.5.5-10.5.5-10.5.5-10.5v-10-10-10-10-11-11-11-11-9.5-9.5-.5-.5-1.5-1.5-2-2-2-2-1-1-1.5-1.5-2-2-1-1-1.5-1.5-2-2-2.5-2.5-2.5-2.5l-13.5-1-13.5-1-9.5.5-9.5.5-.5 2-.5 2v1 1l-.5 1-.5 1v2 2 2.5 2.5 2 2l-.5 2-.5 2-.5 1.5-.5 1.5.5 2 .5 2v2 2l-2.5 8-2.5 8 2 11 2 11v1.5 1.5 2 2l.5 1.5.5 1.5v3 3 1.5 1.5l-1 10-1 10-.5 13-.5 13v2 2l-.5.5-.5.5v1 1l.5.5.5.5-.5 1-.5 1v1 1 1 1 1 1l.5.5.5.5-.5.5-.5.5v1.5 1.5 1.5 1.5l1 7 1 7v8 8l-.5-1-.5-1v-1-1l-1-1-1-1h-2.5-2.5-2-2-2-2-2-2l-1.5-.5-1.5-.5h-1.5-1.5l-1-.5-1-.5h-1-1-2-2-1.5-1.5-1-1l-1.5-.5-1.5-.5-1.5.5-1.5.5-1 1-1 1v2 2 1.5 1.5 2 2l.5.5.5.5-.5.5-.5.5v1 1 1.5 1.5 1 1l-.5.5-.5.5v1 1l.5 1 .5 1 1 1 1 1 .5-.5.5-.5h1.5 1.5l15 2.5 15 2.5 8.5 1 8.5 1h2 2l1-1 1-1 1.5-.5 1.5-.5v-2.5-2.5l1.5-.5 1.5-.5-.5 2-.5 2 .5 1.5.5 1.5v1.5 1.5l1 1 1 1h1 1l1 .5 1 .5h1.5 1.5" style="fill:#979688;stroke:#979688"/><g style="fill:#262110;stroke:#262110"><path d="m675 788l5-13-3.5 3.5-3.5 3.5 1 3 1 3"/><path d="m667 787l2-14 1.5-7.5 1.5-7.5 2.5 2 2.5 2-1.5-4.5-1.5-4.5.5-2.5.5-2.5 1-5 1-5 3.5 3.5 3.5 3.5 1.5 5 1.5 5 3.5 6.5 3.5 6.5.5-8.5.5-8.5-.5-2.5-.5-2.5-1-4-1-4-1.5-2-1.5-2-1-1-1-1 2.5-4.5 2.5-4.5.5.5.5.5h5.5 5.5l2 1 2 1 1-5 1-5 1-6 1-6v-2.5-2.5-2-2-2-2-1.5-1.5h-1-1v-8.5-8.5l1-8.5 1-8.5v-13-13-11-11-10-10l-.5 1-.5 1v2 2 2.5 2.5 2 2l-.5.5-.5.5-2.5-9-2.5-9 3.5-3 3.5-3v-2-2-2-2-2.5-2.5-2-2-2-2-2.5-2.5-2-2l-.5 2-.5 2v2 2l-.5.5-.5.5-1.5-10-1.5-10 1.5-4.5 1.5-4.5v-11-11-11-11l1 5.5 1 5.5v-13.5-13.5-11-11-11-11-11-11-11.5-11.5-6-6l-.5 2-.5 2v2 2 2.5 2.5 2 2l-.5.5-.5.5v-11.5-11.5-11.5-11.5l-2.5-7.5-2.5-7.5 2.5-7.5 2.5-7.5v-7-7l1-8.5 1-8.5v-13-13-11-11-11-11-11-11-11.5-11.5-11-11-11-11-11-11-11-11-8-8l-1 .5-1 .5h-1-1l-1 1-1 1-1.5 1-1.5 1-1.5.5-1.5.5-1.5.5-1.5.5h-1.5-1.5l-1.5-.5-1.5-.5-1-1.5-1-1.5 1-1 1-1 2-.5 2-.5h2 2l1.5-1 1.5-1 1-1 1-1 1-.5 1-.5 1-1 1-1 .5-.5.5-.5.5-.5.5-.5 1-.5 1-.5v-13-13-11-11-.5-.5h-10.5-10.5-11.5-11.5-11-11-11-11-11-11-11-11-11.5-11.5-11-11-11-11-11-11-11-11-11.5-11.5-11-11-11-11-11-11-11-11-11.5-11.5-11-11-11-11-11-11-11.5-11.5-11-11-11-11-11-11-11-11-11.5-11.5-11-11-11-11-11-11-11-11-11.5-11.5-11-11-1-1v10 10 11 11 11 11 10.5 10.5l12.5-1 12.5-1 10 .5 10 .5 2.5-2.5 2.5-2.5 5.5 1.5 5.5 1.5 9 2 9 2 5.5.5 5.5.5 4.5-2 4.5-2 5 1 5 1 6 1 6 1 6.5-2.5 6.5-2.5 5-2 5-2 2.5 3.5 2.5 3.5 1.5-3 1.5-3 7 2 7 2 5-1 5-1 7.5.5 7.5.5 2-3 2-3 3-3.5 3-3.5 5 2 5 2 3.5 2.5 3.5 2.5 5 1 5 1 4-2 4-2 6-.5 6-.5 3.5-2.5 3.5-2.5 1.5 5.5 1.5 5.5 3.5.5 3.5.5 2.5-1.5 2.5-1.5 5 1.5 5 1.5 8-1 8-1 3.5.5 3.5.5h5 5l4.5 2.5 4.5 2.5 3-4.5 3-4.5 3.5 1.5 3.5 1.5 6.5 1.5 6.5 1.5 5.5 1.5 5.5 1.5h6 6l5.5-4 5.5-4 1.5 2.5 1.5 2.5 5.5 3.5 5.5 3.5 4-3 4-3 3 2 3 2 6-1.5 6-1.5 1.5.5 1.5.5 4 4 4 4 5.5 1.5 5.5 1.5 4.5.5 4.5.5 5.5-3 5.5-3 5 3 5 3 6.5-.5 6.5-.5 8 2 8 2 6.5-.5 6.5-.5 2 .5 2 .5 9 1 9 1 7 1 7 1 8.5.5 8.5.5 4.5 2.5 4.5 2.5-9.5-1-9.5-1-7 1-7 1-1.5 3.5-1.5 3.5-7.5-.5-7.5-.5-4-4-4-4-6 2.5-6 2.5-8.5.5-8.5.5h-8-8-6-6l-9.5-.5-9.5-.5-6-.5-6-.5-7-1-7-1h-7-7l-2.5 1.5-2.5 1.5-4-1-4-1-4 .5-4 .5-6.5-.5-6.5-.5-6-2-6-2-7.5.5-7.5.5-7 1-7 1-7.5-2-7.5-2-6 3-6 3-6-4-6-4-9.5-.5-9.5-.5h-8-8l-9.5.5-9.5.5-9-.5-9-.5-8.5.5-8.5.5-9-1-9-1-8.5-.5-8.5-.5-8.5-1.5-8.5-1.5-3-2.5-3-2.5-6.5 3.5-6.5 3.5h-8-8l-3.5-3.5-3.5-3.5-5-1-5-1-6.5 2-6.5 2-6.5-.5-6.5-.5-6.5 2.5-6.5 2.5-5.5-1.5-5.5-1.5-3.5-2.5-3.5-2.5.5 9.5.5 9.5 7.5 2.5 7.5 2.5 2.5-.5 2.5-.5 2 1 2 1 8.5 4.5 8.5 4.5h9.5 9.5l9-2 9-2 8.5 1.5 8.5 1.5h9 9 9 9l11 .5 11 .5h7 7l8.5 1.5 8.5 1.5h7 7 8 8l8.5 1 8.5 1 9.5-.5 9.5-.5h7 7 8 8l8.5 1.5 8.5 1.5 5-1 5-1 8 2.5 8 2.5 9.5.5 9.5.5 9.5.5 9.5.5 9.5-.5 9.5-.5 2.5-2.5 2.5-2.5 7 2.5 7 2.5 8 1 8 1 8.5 1.5 8.5 1.5 3.5 2.5 3.5 2.5-4.5 3.5-4.5 3.5 3-.5 3-.5 5.5-1.5 5.5-1.5 3 1 3 1 7.5-.5 7.5-.5 1-2 1-2 3 4.5 3 4.5-.5 4.5-.5 4.5-6.5-1.5-6.5-1.5-5 1-5 1-8 .5-8 .5-5.5-1.5-5.5-1.5-5 1-5 1-6.5-1.5-6.5-1.5-7 2-7 2 5 2.5 5 2.5 6 1 6 1h6 6 8 8 5 5l4 2.5 4 2.5 7.5-1.5 7.5-1.5 7 4 7 4 6 1 6 1 6.5-.5 6.5-.5 6.5 1 6.5 1 7 2 7 2 8 1 8 1 10.5 2 10.5 2 1.5 1 1.5 1 1 1 1 1 .5.5.5.5-.5 1-.5 1-.5 1.5-.5 1.5-1.5 1-1.5 1-1 1-1 1-1 1-1 1-16 3-16 3-4 6-4 6 4.5 1.5 4.5 1.5 2 7 2 7 .5 5 .5 5-3 5-3 5-1.5 3.5-1.5 3.5 4.5 2.5 4.5 2.5 8 1 8 1 6.5 4 6.5 4-2 6-2 6-7.5 2.5-7.5 2.5-6.5 1.5-6.5 1.5 4 2 4 2 7.5 1 7.5 1 .5 3.5.5 3.5.5 3.5.5 3.5h-7-7l1 3 1 3 3.5 2 3.5 2-1 4-1 4v4 4l.5 3.5.5 3.5-4-1.5-4-1.5 4.5 5.5 4.5 5.5 1 4 1 4h-4-4l.5 3.5.5 3.5 3 .5 3 .5-6 2-6 2 2.5 2.5 2.5 2.5 3.5-1.5 3.5-1.5 2 1 2 1 4.5-1 4.5-1 2 5 2 5-3.5-.5-3.5-.5-2 6-2 6-3.5-4.5-3.5-4.5-3.5-1-3.5-1-2 3-2 3h3 3l-4.5 1.5-4.5 1.5 3.5 3.5 3.5 3.5v3.5 3.5l2.5 3.5 2.5 3.5-5 2-5 2-1.5 2.5-1.5 2.5-4.5 3.5-4.5 3.5-.5 8-.5 8-2 2-2 2 3 3 3 3 .5 3.5.5 3.5 3.5-1 3.5-1 5.5 3.5 5.5 3.5 3.5 2.5 3.5 2.5-2.5 2.5-2.5 2.5 5 3 5 3 1.5-2 1.5-2-3-3-3-3-.5-5.5-.5-5.5 5.5-.5 5.5-.5-1.5 2.5-1.5 2.5 5 2.5 5 2.5-3.5 3.5-3.5 3.5 2 2 2 2 5 4 5 4-3 6-3 6-1.5 3-1.5 3 3.5-2.5 3.5-2.5.5 5.5.5 5.5 2 4 2 4-1.5 4.5-1.5 4.5 1.5 7 1.5 7-2.5 3.5-2.5 3.5h-5-5l1.5 4.5 1.5 4.5-.5 4.5-.5 4.5 1.5 2 1.5 2-1 7-1 7-2-1-2-1 2.5 5.5 2.5 5.5 2.5 3 2.5 3-4 2-4 2 3.5 2.5 3.5 2.5 2.5.5 2.5.5.5 5.5.5 5.5-.5 4-.5 4-.5 4.5-.5 4.5-1 8-1 8 .5 6.5.5 6.5-1.5 7.5-1.5 7.5 3.5 1 3.5 1 .5-10.5.5-10.5.5-9.5.5-9.5.5-9.5.5-9.5.5-9.5.5-9.5.5-10 .5-10 .5-7.5.5-7.5 1-8 1-8v-9-9-9-9-10.5-10.5-10-10l1-9 1-9 .5-10.5.5-10.5.5-10.5.5-10.5.5-11 .5-11 .5-10.5.5-10.5.5-10.5.5-10.5v-11-11l.5-11 .5-11 .5-10.5.5-10.5.5-10.5.5-10.5 2.5-7.5 2.5-7.5-1.5-8.5-1.5-8.5.5-7 .5-7 3-1 3-1v10 10l-1 10-1 10-1 10-1 10-.5 10-.5 10-.5 10.5-.5 10.5-.5 10.5-.5 10.5v10 10l-.5 10.5-.5 10.5-.5 11-.5 11-.5 10.5-.5 10.5-1 9-1 9v11 11l-.5 10.5-.5 10.5 1 10.5 1 10.5-.5 8.5-.5 8.5v9 9 9 9l-.5 9.5-.5 9.5-2 8.5-2 8.5v9 9l-.5 9.5-.5 9.5.5 7.5.5 7.5-1 8.5-1 8.5 2.5 3.5 2.5 3.5 1.5 1.5 1.5 1.5-4 5-4 5h5 5l-.5 3-.5 3-5 1-5 1v9 9l5.5-5.5 5.5-5.5 1.5 8 1.5 8 5.5-3.5 5.5-3.5-.5 6.5-.5 6.5 1 7 1 7-1.5 6.5-1.5 6.5 1.5 8 1.5 8"/></g><path d="m368 785l3 1 1.5-.5 1.5-.5v-.5-.5l1-1 1-1-.5-1.5-.5-1.5-.5-3-.5-3h-2-2l-3.5 6-3.5 6h2.5 2.5" style="fill:#d7d7c1;stroke:#d7d7c1"/><path d="m346 784l3 1h1 1 1 1 1 1 1.5 1.5v-1.5-1.5l-.5-1.5-.5-1.5.5-2 .5-2-1.5.5-1.5.5v2.5 2.5l-1.5.5-1.5.5-1 1-1 1h-2-2" style="fill:#785a2e;stroke:#785a2e"/><path d="m374 784v1h1.5 1.5l1-1 1-1v-1.5-1.5-2-2l-1.5-1-1.5-1-1-.5-1-.5.5 3 .5 3 .5 1.5.5 1.5-1 1-1 1" style="fill:#babaaa;stroke:#babaaa"/><path d="m342 780l4-12-3.5-3.5-3.5-3.5-10-1.5-10-1.5h-8-8l-3 3-3 3 1.5 2.5 1.5 2.5 7.5 3.5 7.5 3.5 9.5 2 9.5 2h4 4" style="fill:#d7d7c1;stroke:#d7d7c1"/><path d="m295 779h3l.5-1 .5-1h-1.5-1.5l-.5.5-.5.5-1-1-1-1-.5-1-.5-1v-1-1l.5-.5.5-.5v-1-1-1.5-1.5-1-1l.5-.5.5-.5-.5-.5-.5-.5v-2-2-1.5-1.5-2-2l-.5 2-.5 2v1 1 2 2 1.5 1.5 1 1 2 2l-.5 1-.5 1v1 1l.5 1.5.5 1.5.5 1 .5 1h1 1" style="fill:#4e4c42;stroke:#4e4c42"/><path d="m95 760l2-14-1.5 3.5-1.5 3.5.5 3.5.5 3.5" style="fill:#262110;stroke:#262110"/><g style="fill:#4e4c42;stroke:#4e4c42"><path d="m340 757v-16l-1-7-1-7v1.5 1.5 1 1 1 1 1 1 1.5 1.5 1 1 1 1l-.5.5-.5.5v1.5 1.5l-1 1-1 1h-1-1-1-1l-.5.5-.5.5h1.5 1.5 1 1l1 .5 1 .5 1 1 1 1v1 1l.5 1 .5 1"/><path d="m483 756l3 1-3.5-7-3.5-7 2 6.5 2 6.5"/></g><path d="m317 755l15-3h-9-9l-2 1.5-2 1.5h3.5 3.5" style="fill:#9b99a6;stroke:#9b99a6"/><path d="m271 754l3 1 1.5-.5 1.5-.5 1.5-1 1.5-1-.5-1.5-.5-1.5-2-.5-2-.5-1 1-1 1-1 1.5-1 1.5v.5.5" style="fill:#373428;stroke:#373428"/><path d="m344 751l3 1h2 2 2.5 2.5 2 2 2.5 2.5 2 2 2.5 2.5 2 2 2 2l1.5-.5 1.5-.5h-2.5-2.5-2-2-2.5-2.5-2-2-2.5-2.5-2-2-2.5-2.5l-1.5-.5-1.5-.5h-1-1l-1-.5-1-.5-1.5-1-1.5-1v2 2h.5.5" style="fill:#f1eed0;stroke:#f1eed0"/><path d="m317 750l3 1h2 2v-.5-.5l.5-12.5.5-12.5v-9-9l1-9 1-9 4.5 1 4.5 1 .5-1 .5-1v-1-1-1.5-1.5-1-1l-.5-.5-.5-.5-.5-.5-.5-.5-.5-1-.5-1v-1-1l.5-.5.5-.5.5-.5.5-.5 1-.5 1-.5v-2-2-1-1l.5-1 .5-1h1 1v-1-1-1-1-1-1l.5-1 .5-1v-1.5-1.5l-1 1-1 1v1 1l-.5 1-.5 1 .5 1.5.5 1.5h-1-1l-1.5-1.5-1.5-1.5.5-2 .5-2 1-1 1-1 .5-2 .5-2v-2-2l.5-2 .5-2 .5-2 .5-2-2-11-2-11 2.5-8 2.5-8-1-.5-1-.5-1.5-.5-1.5-.5-2 .5-2 .5-1.5.5-1.5.5-1 .5-1 .5 1 2 1 2 1-1 1-1 1.5-1 1.5-1v1 1l.5 2 .5 2-1 1-1 1-1.5-.5-1.5-.5-1.5-.5-1.5-.5-1-1-1-1-.5-2-.5-2h1.5 1.5v-.5-.5l1.5-7.5 1.5-7.5v-8-8l1-7 1-7-4-8.5-4-8.5h-.5-.5v19.5 19.5l-3.5-.5-3.5-.5 1.5 8.5 1.5 8.5-2 9-2 9h-11-11l-10 .5-10 .5-1-.5-1-.5h-3-3l-1 6.5-1 6.5 4-1 4-1 4 6 4 6 6-4 6-4 5 4 5 4v2.5 2.5l1.5-1 1.5-1h2 2 1 1 1 1 1 1l1 .5 1 .5h1 1l.5.5.5.5.5.5.5.5.5 1 .5 1v1 1l.5.5.5.5-.5.5-.5.5-.5 1-.5 1 .5 2.5.5 2.5v-1.5-1.5l1-1 1-1 1-1 1-1v-.5-.5l.5-9 .5-9 4-4 4-4-1 6-1 6-3.5 7.5-3.5 7.5v17.5 17.5l-1 10-1 10-.5 9.5-.5 9.5-.5 7-.5 7-2.5 8-2.5 8" style="fill:#4e4c42;stroke:#4e4c42"/><path d="m324 750v1h2 2 2 2 2.5 2.5l-1-.5-1-.5h-1-1-1.5-1.5l.5-.5.5-.5h1 1 1 1l1-1 1-1v-1.5-1.5l.5-.5.5-.5v-1-1-1-1-1.5-1.5-1-1-1-1-1-1-1.5-1.5l-.5 1-.5 1v2.5 2.5 2 2l-.5 2-.5 2-.5.5-.5.5h-1-1v-7-7l3-13 3-13 .5-13 .5-13 1-10 1-10-.5 1-.5 1v1 1 1 1 1 1h-1-1l-.5 1-.5 1v1 1 2 2l-1 .5-1 .5-.5.5-.5.5-.5.5-.5.5v1 1l.5 1 .5 1 .5.5.5.5.5.5.5.5v1 1 1.5 1.5 1 1l-.5 1-.5 1v1 1 2 2l-1 1.5-1 1.5-.5 1.5-.5 1.5-.5 1.5-.5 1.5h-1.5-1.5l-.5-1.5-.5-1.5-.5-1.5-.5-1.5 2-.5 2-.5v-2-2l1-1 1-1 1.5-1 1.5-1-4.5-1-4.5-1-1 9-1 9v9 9l-.5 12.5-.5 12.5" style="fill:#60605e;stroke:#60605e"/><path d="m348 750h2l1.5.5 1.5.5h2.5 2.5 2 2 2.5 2.5 2 2 2.5 2.5 2 2 2.5 2.5l1-1 1-1v-2-2-2.5-2.5-2-2-2.5-2.5-2-2-2-2-.5-.5-2-2-1.5-1.5-2-2-1-1-1-1-1-1-1.5-1.5-1-1-1-1-1-1-1.5-1.5-1-1-1-1-1-1-1.5-1.5l.5-1.5.5-1.5v-3-3-2-2-2-2-12-12-11-11l.5-10.5.5-10.5v-11-11l-5-6-5-6h-11.5-11.5l-4 3-4 3-2 9-2 9 .5 10.5.5 10.5v10 10 10.5 10.5l-.5 10.5-.5 10.5-.5 10.5-.5 10.5v2 2 2.5 2.5 2 2 1 1 1.5 1.5 2 2 2.5 2.5 2 2 2.5 2.5 2 2 2 2 1 1 1.5 1.5 1.5 1.5.5.5l1.5 1 1.5 1 1 .5 1 .5" style="fill:#ffffec;stroke:#ffffec"/><g style="fill:#262110;stroke:#262110"><path d="m601 749l3 1 1-1 1-1 .5-2 .5-2-.5-1.5-.5-1.5-.5-2-.5-2-1 1-1 1-2-.5-2-.5-1 1-1 1v2 2l.5 2 .5 2 1.5.5 1.5.5"/><path d="m651 747h3 2 2v-1.5-1.5l-1-1-1-1v-1-1l-.5-1-.5-1-2 1-2 1 .5 1.5.5 1.5-1 1.5-1 1.5h-1-1l1.5.5 1.5.5"/></g><path d="m342 745l1 1v-1.5-1.5-1.5-1.5-1-1-2-2-2-2-2.5-2.5-2-2-2.5-2.5-2-2-1.5-1.5-1-1-2-2-2.5-2.5l-.5 1-.5 1v2 2 2.5 2.5 2 2 2.5 2.5 2 2 2 2 2.5 2.5 2 2 2.5 2.5 2 2 .5.5" style="fill:#f1eed0;stroke:#f1eed0"/><path d="m333 743h2l.5-.5.5-.5.5-2 .5-2v-2-2-2.5-2.5l.5-1 .5-1v-1.5-1.5-1.5-1.5l.5-.5.5-.5-.5-.5-.5-.5v-1-1-1-1-1-1l.5-1 .5-1-.5-.5-.5-.5v-1-1l.5-.5.5-.5v-2-2l-3 13-3 13v7 7" style="fill:#757366;stroke:#757366"/><path d="m672 737l3-17-1.5-7.5-1.5-7.5.5 8 .5 8-.5 7.5-.5 7.5v.5.5" style="fill:#373428;stroke:#373428"/><path d="m87 728v1l3.5-.5 3.5-.5 1-6 1-6 3.5 2.5 3.5 2.5 1.5-2.5 1.5-2.5-4.5-2.5-4.5-2.5-5.5 3-5.5 3 .5 5.5.5 5.5" style="fill:#262110;stroke:#262110"/><path d="m277 726l10-10-.5-5.5-.5-5.5-5-1.5-5-1.5 4.5 4.5 4.5 4.5-1 2-1 2-3 5.5-3 5.5" style="fill:#4e4c42;stroke:#4e4c42"/><path d="m387 722v1l.5-1 .5-1v-2-2-2-2-.5-.5-2-2-1-1-1.5-1.5-2-2-1-1-1.5-1.5-2-2-2-2-1-1-1.5-1.5l-.5 1.5-.5 1.5v1.5 1.5 1 1 1 1 1 1 1.5 1.5 1 1 1 1 1 1 1.5 1.5 1 1 1 1 1 1 2 2 1.5 1.5 2 2" style="fill:#f1eed0;stroke:#f1eed0"/><path d="m663 719l3-15-4 5-4 5 2.5 2.5 2.5 2.5" style="fill:#373428;stroke:#373428"/><path d="m388 712v1l.5-1 .5-1v-2-2-2.5-2.5-2-2-2.5-2.5-2-2-2.5-2.5-2-2-2-2-2.5-2.5-2-2h-.5-.5v2 2 2 2 3 3 1.5 1.5 1 1 2 2 2 2 1.5 1.5 1 1 2 2 1.5 1.5 1 1 2 2" style="fill:#babaaa;stroke:#babaaa"/><path d="m329 706h3l.5-1.5.5-1.5.5-1.5.5-1.5 1-1.5 1-1.5v-2-2-1-1l-1.5 1-1.5 1-1 1-1 1v2 2l-2 .5-2 .5.5 1.5.5 1.5.5 1.5.5 1.5" style="fill:#4e4c42;stroke:#4e4c42"/><path d="m700 699l-3-3-.5.5-.5.5 2 1 2 1" style="fill:#373428;stroke:#373428"/><path d="m302 695l3 1h2 2l1-.5 1-.5h1 1l.5-.5.5-.5.5-.5.5-.5.5-1.5.5-1.5h-2-2-2-2l-.5.5-.5.5-.5 1-.5 1-2 1-2 1" style="fill:#4e4c42;stroke:#4e4c42"/><path d="m301 694l1 1 2-1 2-1 .5-1 .5-1 .5-.5.5-.5h2 2 2 2l1-.5 1-.5.5-.5.5-.5.5-1 .5-1v-1-1l.5-.5.5-.5v-1-1-2-2-1.5-1.5-1-1l.5-1.5.5-1.5v-1.5-1.5-1-1-1-1-1-1-1.5-1.5l.5-.5.5-.5-.5-1.5-.5-1.5-.5-2.5-.5-2.5.5-1 .5-1 .5-.5.5-.5-.5-.5-.5-.5v-1-1l-.5-1-.5-1-.5-.5-.5-.5-.5-.5-.5-.5h-1-1l-1-.5-1-.5h-1-1-1-1-1-1-2-2l-1.5 1-1.5 1-1.5 16.5-1.5 16.5 1 11 1 11" style="fill:#d7d7c1;stroke:#d7d7c1"/><path d="m429 692h2 2 2v-1.5-1.5l-.5-.5-.5-.5h-.5-.5l-1.5.5-1.5.5h-1.5-1.5l-1 1-1 1 .5.5.5.5h1.5 1.5" style="fill:#373428;stroke:#373428"/><path d="m461 688l7-11h-6-6l-2-2.5-2-2.5-2 1-2 1 5 6 5 6 1.5 1 1.5 1" style="fill:#4e4c42;stroke:#4e4c42"/><path d="m710 688h2v-2-2-2.5-2.5-2-2-2.5-2.5-2-2-2.5-2.5-2-2-1.5-1.5l-1 8.5-1 8.5v8.5 8.5" style="fill:#373428;stroke:#373428"/><path d="m303 685l3 1h2 2 2.5 2.5l1-1 1-1 .5-2 .5-2-1.5-.5-1.5-.5h-.5-.5l-.5-.5-.5-.5v-1-1-.5-.5h-1.5-1.5v1.5 1.5l-1.5.5-1.5.5-1.5 1-1.5 1-.5 1.5-.5 1.5v.5.5" style="fill:#ffffec;stroke:#ffffec"/><path d="m72 679l5-11-1 4-1 4-1.5 1.5-1.5 1.5" style="fill:#373428;stroke:#373428"/><path d="m313 678l1 1 1.5-.5 1.5-.5.5-1 .5-1-1-.5-1-.5-1-7.5-1-7.5-4.5-9-4.5-9 1.5 4.5 1.5 4.5-2 8-2 8 4.5 3.5 4.5 3.5v.5.5.5.5 1 1" style="fill:#f1eed0;stroke:#f1eed0"/><path d="m109 677l3-7-3 2-3 2 1.5 1.5 1.5 1.5" style="fill:#262110;stroke:#262110"/><path d="m316 675l2 1 .5-10 .5-10-3.5-7.5-3.5-7.5-3.5.5-3.5.5 4.5 9 4.5 9 1 7.5 1 7.5" style="fill:#ffffec;stroke:#ffffec"/><path d="m338 663h2l-.5-1.5-.5-1.5.5-1 .5-1v-1-1l1-1 1-1v-3-3l-.5-1.5-.5-1.5v-2-2-1.5-1.5l-.5 2-.5 2-.5 2-.5 2v2 2l-.5 2-.5 2-1 1-1 1-.5 2-.5 2 1.5 1.5 1.5 1.5" style="fill:#60605e;stroke:#60605e"/><path d="m443 660l3 1-.5-1.5-.5-1.5-.5-2-.5-2-1-1-1-1-1.5 1-1.5 1 .5 1.5.5 1.5v1.5 1.5h1.5 1.5" style="fill:#4e4c42;stroke:#4e4c42"/><path d="m74 659l3-5-.5 1.5-.5 1.5-1 1-1 1" style="fill:#262110;stroke:#262110"/><path d="m675 659h2l1-1 1-1 2-.5 2-.5 1-1 1-1 .5-2 .5-2-.5-1.5-.5-1.5-1 1.5-1 1.5-1 1-1 1-.5 1.5-.5 1.5-1.5 1-1.5 1-1 1-1 1" style="fill:#373428;stroke:#373428"/><path d="m95 654l4-12-.5 1.5-.5 1.5-2 1.5-2 1.5.5 3 .5 3" style="fill:#262110;stroke:#262110"/><g style="fill:#4e4c42;stroke:#4e4c42"><path d="m294 650l4-10-4 1-4 1 2 4 2 4"/><path d="m456 646l4-12-2 5-2 5v1 1"/></g><path d="m326 645v1l3.5-7.5 3.5-7.5 1-6 1-6-4 4-4 4-.5 9-.5 9" style="fill:#373428;stroke:#373428"/><path d="m621 640l-1-11-3.5 4.5-3.5 4.5 4 1 4 1" style="fill:#262110;stroke:#262110"/><path d="m320 637l2-20 .5-5.5.5-5.5-5.5 3-5.5 3-8.5.5-8.5.5 3 3 3 3 4.5.5 4.5.5 2 5 2 5 3 3.5 3 3.5" style="fill:#373428;stroke:#373428"/><path d="m0 613v1l2-10 2-10-2-5-2-5v1.5 1.5 2 2 2.5 2.5 2 2 2 2 2.5 2.5 2 2" style="fill:#262110;stroke:#262110"/><path d="m274 612l20-1h11 11l2-9 2-9-1.5-8.5-1.5-8.5h-11.5-11.5-11-11l-8 3.5-8 3.5 2 14 2 14h1.5 1.5 1.5 1.5 3 3l1 .5 1 .5" style="fill:#60605e;stroke:#60605e"/><path d="m255 611l3 1 1-.5 1-.5-2-14-2-14 8-3.5 8-3.5h11 11 11.5 11.5l-14-1-14-1-8.5.5-8.5.5-8.5 1.5-8.5 1.5-1.5 8.5-1.5 8.5 1.5 8 1.5 8" style="fill:#4e4c42;stroke:#4e4c42"/><path d="m275 609l25 1 7.5-3.5 7.5-3.5-3.5-6-3.5-6v2 2 1 1 1 1 1 1 1.5 1.5l-.5.5-.5.5h-1-1l-1.5-.5-1.5-.5v-1.5-1.5-1-1-1-1-1.5-1.5-1-1-1-1-1-1-1.5-1.5l1-1 1-1 .5-.5.5-.5h1 1l.5.5.5.5v2 2l3.5-4 3.5-4-9-1-9-1h-11-11l-9 2.5-9 2.5.5 8.5.5 8.5 3.5 4.5 3.5 4.5 5 .5 5 .5" style="fill:#7c7a83;stroke:#7c7a83"/><path d="m331 608l3 1 1-1 1-1-.5-2-.5-2v-1-1l-1.5 1-1.5 1-1 1-1 1-1-2-1-2h-1.5-1.5l.5 2 .5 2 1 1 1 1 1.5.5 1.5.5" style="fill:#373428;stroke:#373428"/><path d="m284 605l3 1 1-.5 1-.5 1.5-1 1.5-1v-2-2l.5-3 .5-3-6.5-3-6.5-3-8-1.5-8-1.5 1 10 1 10 5.5-4.5 5.5-4.5 3.5 5 3.5 5" style="fill:#d9d9e3;stroke:#d9d9e3"/><path d="m289 605h10l1-10 1-10-.5-1-.5-1v2 2 1 1 1.5 1.5 1 1 1 1 1 1 1.5 1.5 1 1l-.5.5-.5.5h-1-1l-1-.5-1-.5v-2-2-2-2-2.5-2.5l-.5 1.5-.5 1.5v2.5 2.5l-.5-1.5-.5-1.5v-1-1l-.5 3-.5 3v2 2l-1.5 1-1.5 1" style="fill:#9b99a6;stroke:#9b99a6"/><path d="m297 604h2l.5-.5.5-.5v-1-1-1.5-1.5-1-1-1-1-1-1-1.5-1.5-1-1-2-2l-2-.5-2-.5-.5 1.5-.5 1.5v2 2 .5.5 2.5 2.5 2 2 2 2l1 .5 1 .5" style="fill:#bab9c9;stroke:#bab9c9"/><path d="m302 604l3 1h1 1l.5-.5.5-.5v-1.5-1.5-1-1-1-1-1-1-2-2-2-2-2-2l-.5-.5-.5-.5h-1-1l-.5.5-.5.5-1 1-1 1v1.5 1.5 1 1 1 1 1 1 1.5 1.5 1 1 1 1 1.5 1.5" style="fill:#9b99a6;stroke:#9b99a6"/><path d="m391 604v1l.5-1.5.5-1.5v-2-2-2.5-2.5-2-2-2.5-2.5-2-2-2.5-2.5-2-2-2-2l-.5-1-.5-1v2.5 2.5 2.5 2.5 2 2 1.5 1.5 1 1 2 2 1.5 1.5 1 1 2 2 2 2 1.5 1.5" style="fill:#60605e;stroke:#60605e"/><path d="m710 602l1-1v-2-2-2.5-2.5-2-2l.5-1 .5-1v-3-3-1-1l-3.5 3-3.5 3 2.5 9 2.5 9" style="fill:#373428;stroke:#373428"/><path d="m267 601l11-13-5.5 1.5-5.5 1.5v5 5" style="fill:#ffffec;stroke:#ffffec"/><path d="m328 600v1l1-.5 1-.5 1.5-.5 1.5-.5 2-.5 2-.5 1.5.5 1.5.5.5-10 .5-10 2-7.5 2-7.5 1-17 1-17-.5-1.5-.5-1.5-.5-5.5-.5-5.5v-9-9l-.5-11-.5-11-2 7-2 7-7-3-7-3 1.5.5 1.5.5h1.5 1.5 2 2l1 1 1 1-1.5 9-1.5 9-2.5 8.5-2.5 8.5h1.5 1.5 1 1l.5.5.5.5.5.5.5.5 1 .5 1 .5v1 1 1 1l.5.5.5.5-.5.5-.5.5v1.5 1.5l.5.5.5.5-1 .5-1 .5-1 1-1 1h-1.5-1.5-1.5-1.5-2.5-2.5l4 8.5 4 8.5-1 7-1 7v8 8l-1.5 7.5-1.5 7.5" style="fill:#60605e;stroke:#60605e"/><path d="m340 599l2 1v-2-2l-.5-2-.5-2 .5-1.5.5-1.5.5-2 .5-2v-2-2-2.5-2.5-2-2l.5-1 .5-1v-1-1l.5-2 .5-2-2 7.5-2 7.5-.5 10-.5 10" style="fill:#757366;stroke:#757366"/><path d="m407 598l3 1 .5-1.5.5-1.5-.5-2-.5-2-1-1-1-1-1-1.5-1-1.5h-2-2v2.5 2.5l1 1 1 1 .5 1.5.5 1.5 1 .5 1 .5" style="fill:#373428;stroke:#373428"/><path d="m8 592v-29l1.5-9.5 1.5-9.5-.5-9.5-.5-9.5v-11.5-11.5-11-11-11-11l-.5-10.5-.5-10.5v-11-11l-.5-11-.5-11v-11-11l-.5-9.5-.5-9.5v-11-11l-.5-10.5-.5-10.5v-11-11-11.5-11.5l-.5-.5-.5-.5v-8-8l1-3 1-3v-8-8-.5-.5l-1-.5-1-.5v-2-2l-.5-1-.5-1-.5 1.5-.5 1.5-1.5-1.5-1.5-1.5v1.5 1.5 2 2 2.5 2.5 2 2 2 2 2.5 2.5 2 2 2.5 2.5 2 2 2.5 2.5 1 1l1 12.5 1 12.5v11 11l.5 9.5.5 9.5v11 11 11 11l.5 10.5.5 10.5v11 11l.5 10.5.5 10.5v11.5 11.5l1-10.5 1-10.5-.5-10.5-.5-10.5-.5-9-.5-9v-11-11l-.5-10.5-.5-10.5 1-4 1-4 .5 10.5.5 10.5v11.5 11.5 11 11l.5 10.5.5 10.5-.5 15-.5 15-1-2.5-1-2.5.5 21.5.5 21.5v11 11 11 11l.5 10.5.5 10.5.5 12 .5 12" style="fill:#785a2e;stroke:#785a2e"/><path d="m270 591l3 1 1-1 1-1v-1.5-1.5l-1-1-1-1-2 .5-2 .5v2 2l.5.5.5.5" style="fill:#d9d9e3;stroke:#d9d9e3"/><path d="m79 588v-12l-2.5 4.5-2.5 4.5 2.5 1.5 2.5 1.5" style="fill:#373428;stroke:#373428"/><path d="m11 585l1-19-1-3-1-3v9.5 9.5l.5 3 .5 3" style="fill:#262110;stroke:#262110"/><path d="m54 580l3 1 1-1 1-1h1.5 1.5l-.5-1.5-.5-1.5-2-.5-2-.5-1 1-1 1-1 .5-1 .5h-1-1l1 1 1 1h.5.5" style="fill:#373428;stroke:#373428"/><g style="fill:#262110;stroke:#262110"><path d="m4 578l1-1v-1.5-1.5-2-2l-.5-2-.5-2v-2-2l-.5-1.5-.5-1.5v-1.5-1.5l-1.5.5-1.5.5v2 2 2.5 2.5 2 2 2.5 2.5.5.5l.5 1 .5 1h1.5 1.5"/><path d="m623 565h2l1-1 1-1-1.5-1-1.5-1-1-1-1-1 1-1.5 1-1.5-.5-1.5-.5-1.5-1 1.5-1 1.5-1 1-1 1 .5 1.5.5 1.5 1 1.5 1 1.5.5.5.5.5"/></g><g style="fill:#373428;stroke:#373428"><path d="m64 563l10-6-3-5-3-5-2 6.5-2 6.5v1.5 1.5"/><path d="m710 557l1-1v-2-2l.5-2 .5-2v-13-13-11.5-11.5-2-2l-1-5.5-1-5.5v11 11 11 11l-1.5 4.5-1.5 4.5 1.5 10 1.5 10"/><path d="m290 544h2l1.5-.5 1.5-.5.5-2 .5-2 .5.5.5.5 1-1.5 1-1.5-.5-1.5-.5-1.5-1.5 1-1.5 1-1 1-1 1-1.5.5-1.5.5v2.5 2.5"/></g><g style="fill:#262110;stroke:#262110"><path d="m606 542l2-8-3 2-3 2 2 2 2 2"/><path d="m321 540h2l.5-2 .5-2v-2-2-2-2-1-1-1.5-1.5-2.5-2.5l-8 6-8 6 6.5 5 6.5 5"/></g><path d="m60 539l1-1-.5-1.5-.5-1.5h1.5 1.5l-2-6.5-2-6.5 1.5 2.5 1.5 2.5-1 6-1 6" style="fill:#373428;stroke:#373428"/><path d="m333 538h3l1-1 1-1v-2-2l-.5-.5-.5-.5v1 1 1 1l-1 .5-1 .5h-1-1-1-1-1-1l-1.5-.5-1.5-.5v-11.5-11.5l1.5-13.5 1.5-13.5-1.5-.5-1.5-.5h-.5-.5l-.5 2.5-.5 2.5v2 2 2 2 2.5 2.5 2 2 1.5 1.5 2 2 2.5 2.5 2.5 2.5 1.5 1.5 1 1 2 2 2 2 1 1h.5.5 2.5 2.5 1.5 1.5" style="fill:#917245;stroke:#917245"/><path d="m326 535l3 1h1 1 1 1 1 1l1-.5 1-.5v-1-1-1-1l.5.5.5.5v2 2l1-.5 1-.5-.5-.5-.5-.5v-1.5-1.5l.5-.5.5-.5-.5-.5-.5-.5v-1-1-1-1l-1-.5-1-.5-.5-.5-.5-.5-.5-.5-.5-.5h-1-1-1.5-1.5l-.5-.5-.5-.5v-1.5-1.5-1.5-1.5-2-2-2.5-2.5l.5-1.5.5-1.5h2 2l1.5-1 1.5-1 .5-1.5.5-1.5v-2.5-2.5-3-3l-1-1-1-1h-2-2-1.5-1.5l-1.5 13.5-1.5 13.5v11.5 11.5" style="fill:#b8b48c;stroke:#b8b48c"/><path d="m299 530l-4-10 1.5 3.5 1.5 3.5.5 1.5.5 1.5" style="fill:#373428;stroke:#373428"/><path d="m329 521l1 1 2.5-8.5 2.5-8.5 1.5-9 1.5-9v3 3 2.5 2.5l-.5 1.5-.5 1.5-1.5 1-1.5 1h-2-2l-.5 1.5-.5 1.5v2.5 2.5 2 2 1.5 1.5 1.5 1.5" style="fill:#917245;stroke:#917245"/><g style="fill:#373428;stroke:#373428"><path d="m414 521v-6l-1-3-1-3 1 6 1 6"/><path d="m68 519h2v-1-1l.5-.5.5-.5 1-.5 1-.5.5-.5.5-.5.5-.5.5-.5v-1-1h-1.5-1.5-1-1v-1-1h-1-1l-.5-2-.5-2-1.5.5-1.5.5.5 1 .5 1 1 1 1 1-1 1.5-1 1.5-.5 1.5-.5 1.5 1.5.5 1.5.5.5 1 .5 1"/></g><g style="fill:#262110;stroke:#262110"><path d="m0 517v1l2-11 2-11-1-8.5-1-8.5-1-6.5-1-6.5v11.5 11.5 11 11 3 3"/><path d="m599 517h2l1.5.5 1.5.5 1-1.5 1-1.5-1.5-.5-1.5-.5h-1.5-1.5v-1-1l-1.5-1-1.5-1 .5 1.5.5 1.5-.5 1.5-.5 1.5 1 .5 1 .5"/><path d="m311 516l9-11-1.5-2.5-1.5-2.5-3 7.5-3 7.5v.5.5"/></g><path d="m348 493l3 1 1-1 1-1v-2.5-2.5l-1-1-1-1-1-1.5-1-1.5-1.5-.5-1.5-.5-.5 2-.5 2v2 2l1 1 1 1 .5 1 .5 1" style="fill:#757366;stroke:#757366"/><g style="fill:#373428;stroke:#373428"><path d="m607 475l12-4-4.5-.5-4.5-.5h-3.5-3.5l1 1.5 1 1.5v1 1h1 1"/><path d="m599 472l3 1-.5-1.5-.5-1.5h1 1l-4-6.5-4-6.5 3.5 5.5 3.5 5.5-1.5 2-1.5 2"/></g><path d="m301 466h20l-5.5-1.5-5.5-1.5-9 .5-9 .5 4.5 1 4.5 1" style="fill:#60605e;stroke:#60605e"/><path d="m7 465l1-30-.5-10.5-.5-10.5v-11-11-11.5-11.5l-.5-10.5-.5-10.5-1 4-1 4 .5 10.5.5 10.5v11 11l.5 9 .5 9 .5 10.5.5 10.5-1 10.5-1 10.5v.5.5l1 2.5 1 2.5" style="fill:#917245;stroke:#917245"/><g style="fill:#373428;stroke:#373428"><path d="m582 463l3 1 1.5-.5 1.5-.5 1.5-1 1.5-1 .5-1.5.5-1.5h-1.5-1.5-1-1-1.5-1.5l-.5 1.5-.5 1.5-.5 1-.5 1"/><path d="m324 459l2-22v-10-10l-3-.5-3-.5v8 8l-.5 8.5-.5 8.5 2.5 5 2.5 5"/><path d="m613 458l3 1 1.5-.5 1.5-.5 1-.5 1-.5v-2-2l-1.5-1-1.5-1-1 1-1 1-2 .5-2 .5-.5.5-.5.5.5 1.5.5 1.5h.5.5"/></g><path d="m260 455l1-11-1.5-.5-1.5-.5 1 6 1 6" style="fill:#4e4c42;stroke:#4e4c42"/><g style="fill:#373428;stroke:#373428"><path d="m186 454l5-11-4.5 2.5-4.5 2.5 2 3 2 3"/><path d="m584 454l7-5-4.5.5-4.5.5 1 2 1 2"/></g><path d="m0 451v1l2-12 2-12-2-9.5-2-9.5v3 3 2.5 2.5 2 2 2 2 2.5 2.5 2 2 2.5 2.5 2 2 2.5 2.5" style="fill:#262110;stroke:#262110"/><path d="m423 450l3 1 .5-1.5.5-1.5.5-2 .5-2-.5-1.5-.5-1.5-.5-1-.5-1-1-1-1-1v1.5 1.5l.5 1.5.5 1.5-.5 1.5-.5 1.5-.5 2-.5 2" style="fill:#60605e;stroke:#60605e"/><path d="m391 418l16-8 .5-3.5.5-3.5 6.5-1 6.5-1 .5-3.5.5-3.5-5.5 3.5-5.5 3.5-7 2-7 2-2.5 4.5-2.5 4.5-.5 2-.5 2" style="fill:#373428;stroke:#373428"/><path d="m321 400l3 1 .5-1.5.5-1.5-.5-2-.5-2 1-1 1-1v-2-2l-.5 1-.5 1h-1-1l-.5-.5-.5-.5-.5 1-.5 1 .5.5.5.5v1 1l-.5.5-.5.5h-1-1l-1-.5-1-.5-.5.5-.5.5-.5.5-.5.5-1 .5-1 .5-1.5 1-1.5 1h2 2 1.5 1.5l2 .5 2 .5" style="fill:#60605e;stroke:#60605e"/><path d="m300 398l3 1h1 1 1 1 1.5 1.5l1.5-1 1.5-1v-.5-.5l.5-1 .5-1v-1-1-1.5-1.5-2-2-.5-.5-2.5-2.5l1-1 1-1h1 1l1 .5 1 .5v-1-1-1-1h1.5 1.5l.5-1.5.5-1.5.5-.5.5-.5.5-2 .5-2-.5-1.5-.5-1.5-1 .5-1 .5-1.5-1-1.5-1-1-1-1-1-.5-.5-.5-.5-.5-1-.5-1-.5-1.5-.5-1.5v-1.5-1.5-1.5-1.5-2.5-2.5-2-2l-1.5-1-1.5-1-.5.5-.5.5-.5 1-.5 1-.5 1-.5 1v1 1 1.5 1.5 1.5 1.5 1.5 1.5l.5 1 .5 1-.5.5-.5.5.5.5.5.5-.5.5-.5.5h-1.5-1.5-2-2-1-1-1-1-1-1l-1-.5-1-.5-.5.5-.5.5h-1-1l-.5-.5-.5-.5h-1.5-1.5-1-1-1-1-1-1-1-1v-1.5-1.5l-1-.5-1-.5-2-.5-2-.5-1.5-.5-1.5-.5h-2.5-2.5l-1.5-.5-1.5-.5h-2-2-1-1l-1-.5-1-.5-1.5-.5-1.5-.5h-1-1l-1-.5-1-.5h-2-2v.5.5l1 .5 1 .5h1 1l1 .5 1 .5 1.5.5 1.5.5h1 1l.5.5.5.5h1 1l1 .5 1 .5h1 1 1 1l.5.5.5.5 1 .5 1 .5h2 2 1 1 1.5 1.5l1.5.5 1.5.5-.5.5-.5.5h-3.5-3.5-2.5-2.5l5 10.5 5 10.5 3 8 3 8 9.5 2 9.5 2" style="fill:#b8b48c;stroke:#b8b48c"/><path d="m313 396v1l1-.5 1-.5.5-.5.5-.5.5-.5.5-.5 1 .5 1 .5h1 1l.5-.5.5-.5v-1-1l-.5-.5-.5-.5.5-1 .5-1 .5.5.5.5h1 1l.5-1 .5-1 .5-2.5.5-2.5v-2-2-3-3-.5-.5-1.5-1.5l-.5-1-.5-1v2.5 2.5 1 1l-.5 1-.5 1v2 2l-.5.5-.5.5-1 .5-1 .5-1.5.5-1.5.5-.5-.5-.5-.5-.5.5-.5.5h-1-1l-.5 1-.5 1v2 2 1.5 1.5 1 1l-.5 1-.5 1" style="fill:#757366;stroke:#757366"/><path d="m287 395l3 1h2 2l2-.5 2-.5-1.5-.5-1.5-.5 2-.5 2-.5h1 1l2.5-1 2.5-1 .5-1.5.5-1.5v-.5-.5h-.5-.5l-1.5-1-1.5-1v-.5-.5h-.5-.5l-1-.5-1-.5-.5-1.5-.5-1.5-1.5-.5-1.5-.5-1.5-1-1.5-1-1.5.5-1.5.5 3 1.5 3 1.5-2.5 4.5-2.5 4.5-2-.5-2-.5-1-1-1-1-1-1-1-1-1-1-1-1-1 2-1 2 .5 1.5.5 1.5 1-1 1-1 1.5 1 1.5 1 1 1 1 1 1.5 1 1.5 1h2 2l-2 .5-2 .5h-1.5-1.5" style="fill:#d7d7c1;stroke:#d7d7c1"/><g style="fill:#ffffec;stroke:#ffffec"><path d="m300 394l3 1h2 2l2-.5 2-.5v-2-2-2.5-2.5l.5-1 .5-1-1 .5-1 .5-.5 1-.5 1-1 1-1 1-.5 1.5-.5 1.5-2.5 1-2.5 1-.5.5-.5.5"/><path d="m291 390l5-9-3-1.5-3-1.5.5-1 .5-1-.5-1-.5-1-1.5-1-1.5-1-1-1-1-1-1.5 1-1.5 1v2 2 2 2l.5 2.5.5 2.5 1 1 1 1 1 1 1 1 2 .5 2 .5"/></g><path d="m350 388h2l-.5-.5-.5-.5v-1-1l.5-.5.5-.5v-1.5-1.5l-.5-.5-.5-.5.5-.5.5-.5-.5-.5-.5-.5.5-1 .5-1-.5-.5-.5-.5v-1-1l.5-.5.5-.5-.5-1.5-.5-1.5v-1.5-1.5-1-1l.5-.5.5-.5v-1-1-1.5-1.5-1.5-1.5l-.5 1.5-.5 1.5v1 1 1 1l-1 .5-1 .5-.5 2-.5 2v2 2l.5 2 .5 2-.5 1.5-.5 1.5v1.5 1.5l.5.5.5.5v2 2l.5 1 .5 1" style="fill:#60605e;stroke:#60605e"/><path d="m307 387v1l1-1 1-1 .5-1 .5-1 1-.5 1-.5v-3-3l.5-2 .5-2v-2-2-2.5-2.5l-.5-1.5-.5-1.5v1.5 1.5 2.5 2.5 2 2l-.5.5-.5.5-.5-2-.5-2-1-1.5-1-1.5-1-1-1-1-1.5-1-1.5-1-1.5-.5-1.5-.5-1-1-1-1h-.5-.5l-2 .5-2 .5-1.5.5-1.5.5-2 .5-2 .5-1 1-1 1-1.5 1-1.5 1-.5.5-.5.5h-.5-.5l.5 1 .5 1 .5 2 .5 2v2 2 2.5 2.5l1 1 1 1-.5-2.5-.5-2.5v-2-2-2-2l1.5-1 1.5-1 1 1 1 1 1.5 1 1.5 1 .5 1 .5 1-.5 1-.5 1 1.5-.5 1.5-.5 1.5 1 1.5 1 1.5.5 1.5.5.5 1.5.5 1.5 1 .5 1 .5-6-6-6-6 3.5-3.5 3.5-3.5 3 10 3 10 1.5 1 1.5 1h.5.5" style="fill:#f1eed0;stroke:#f1eed0"/><path d="m710 385l1-1v-2-2-2.5-2.5-2-2l.5-2 .5-2v-13-13-11.5-11.5-11-11-9-9l-1 8.5-1 8.5v7 7l-2.5 7.5-2.5 7.5 2.5 7.5 2.5 7.5v11.5 11.5 11.5 11.5" style="fill:#373428;stroke:#373428"/><path d="m303 384v1l-3-10-3-10-3.5 3.5-3.5 3.5 6 6 6 6h.5.5" style="fill:#ffffec;stroke:#ffffec"/><path d="m314 384v1l.5-1 .5-1h1 1l.5-.5.5-.5.5.5.5.5 1.5-.5 1.5-.5 1-.5 1-.5.5-.5.5-.5v-2-2l.5-1 .5-1v-1-1-2.5-2.5-.5-.5l-.5 2-.5 2-.5.5-.5.5-.5 1.5-.5 1.5h-1.5-1.5v1 1 1 1l-1-.5-1-.5h-1-1l-1 1-1 1v2.5 2.5" style="fill:#979688;stroke:#979688"/><path d="m219 383l11-9 1.5-2.5 1.5-2.5-4.5-3-4.5-3-1.5-4.5-1.5-4.5-5 2-5 2-4 1-4 1 3.5 4.5 3.5 4.5 4 7 4 7h.5.5" style="fill:#373428;stroke:#373428"/><path d="m425 380l3 1 1-1 1-1 .5-2 .5-2-.5-1.5-.5-1.5-2-.5-2-.5-1.5.5-1.5.5-.5 2-.5 2 .5 1.5.5 1.5 1 .5 1 .5" style="fill:#60605e;stroke:#60605e"/><path d="m311 374l1-1v-2-2-2.5-2.5-1.5-1.5l-2.5-.5-2.5-.5h-2-2-2.5-2.5l1 1 1 1 1.5.5 1.5.5 1.5 1 1.5 1 1 1 1 1 1 1.5 1 1.5.5 2 .5 2" style="fill:#ffffec;stroke:#ffffec"/><path d="m327 372v1l4-12 4-12 1.5-4.5 1.5-4.5 4.5-.5 4.5-.5 1 12 1 12v-.5-.5-1.5-1.5-2-2-1-1-1.5-1.5-2-2l.5-1.5.5-1.5.5-1 .5-1v-.5-.5-1.5-1.5-1-1l-.5-.5-.5-.5v-1.5-1.5-1-1-1-1-1-1l-1 .5-1 .5-.5-1-.5-1v-1-1l-1 .5-1 .5-.5 1-.5 1-.5.5-.5.5v1 1l-.5.5-.5.5-.5 1-.5 1-.5.5-.5.5-.5.5-.5.5-.5.5-.5.5-1 .5-1 .5-1 .5-1 .5-1 .5-1 .5h-1.5-1.5l-1.5-.5-1.5-.5v2 2 1 1 2 2 1.5 1.5l-.5.5-.5.5.5 1.5.5 1.5v1.5 1.5 1 1l-.5.5-.5.5-.5 1-.5 1 .5 1 .5 1 .5 1.5.5 1.5v.5.5l.5 1 .5 1v1.5 1.5" style="fill:#60605e;stroke:#60605e"/><path d="m280 368l1-1 1.5-1 1.5-1 1-1 1-1 2-.5 2-.5 1.5-.5 1.5-.5 2-.5 2-.5h-2-2-2-2l-1.5-.5-1.5-.5h-2.5-2.5l-1 1-1 1v2.5 2.5 1 1h.5.5" style="fill:#ffffec;stroke:#ffffec"/><path d="m323 364l2-1-.5-1-.5-1 .5-1 .5-1 .5-.5.5-.5v-1-1-1.5-1.5l-.5 1.5-.5 1.5-1.5.5-1.5.5h-1.5-1.5l-1-1-1-1-1-2-1-2v1.5 1.5l.5 1.5.5 1.5.5 1 .5 1 .5.5.5.5 1 1 1 1 1.5 1 1.5 1" style="fill:#babaaa;stroke:#babaaa"/><g style="fill:#757366;stroke:#757366"><path d="m349 362v1l1-.5 1-.5v-1-1-1-1l.5-1.5.5-1.5v-1.5-1.5l.5-.5.5-.5 1-.5 1-.5.5-.5.5-.5h1 1l.5-.5.5-.5h1.5 1.5 1 1 1 1 1 1l.5-.5.5-.5h1 1l1 .5 1 .5.5-.5.5-.5h1 1l.5-.5.5-.5 1-.5 1-.5.5-.5.5-.5h1 1l1-.5 1-.5.5-1.5.5-1.5 1.5-.5 1.5-.5h1 1v-.5-.5l-1-1-1-1h-1-1l-.5-.5-.5-.5-.5-1.5-.5-1.5-1 1.5-1 1.5-2-.5-2-.5-.5 1.5-.5 1.5-.5 2-.5 2-1 1-1 1-1.5.5-1.5.5-1.5 1-1.5 1h-1.5-1.5-.5-.5-2.5-2.5-2-2l-1.5 1-1.5 1h-1-1v-2.5-2.5l-.5 1.5-.5 1.5v2 2 1.5 1.5 1 1 2 2 1.5 1.5"/><path d="m277 357l1-1-1.5-.5-1.5-.5h-1.5-1.5-1-1-2-2l-1-.5-1-.5-.5-.5-.5-.5h-1-1-1-1l-1-.5-1-.5h-1-1l-.5-.5-.5-.5h-1-1l-1.5-.5-1.5-.5-1-.5-1-.5h-1-1l-1-.5-1-.5h-2.5-2.5l-1.5-.5-1.5-.5h-1.5-1.5-1.5-1.5l-.5-.5-.5-.5h-1-1l-.5.5-.5.5-1-.5-1-.5h-1-1-1-1l-1.5-.5-1.5-.5-2 .5-2 .5-1 .5-1 .5 18 2 18 2 9.5 3 9.5 3h2.5 2.5 3.5 3.5"/></g><path d="m279 357h2 1 1 1 1 1 1 1.5 1.5l.5.5.5.5h1 1l.5-.5.5-.5 1 .5 1 .5h1 1 1 1 1 1 2 2 1.5 1.5l.5-.5.5-.5-.5-.5-.5-.5.5-.5.5-.5-.5-1-.5-1v-1.5-1.5l-1 .5-1 .5-1 .5-1 .5-1.5.5-1.5.5-.5-.5-.5-.5h-1.5-1.5l-1 .5-1 .5-7.5-2-7.5-2-5-2-5-2h-7-7l-6.5-3.5-6.5-3.5-9-6.5-9-6.5-1.5 6-1.5 6 3 1 3 1 7 4 7 4h2 2l1 .5 1 .5h1 1l1.5.5 1.5.5 1 .5 1 .5h1 1 2 2l1.5.5 1.5.5h2.5 2.5l1.5.5 1.5.5 2 .5 2 .5 1 .5 1 .5v1.5 1.5" style="fill:#babaaa;stroke:#babaaa"/><g style="fill:#d7d7c1;stroke:#d7d7c1"><path d="m319 357h3l1.5-.5 1.5-.5.5-1.5.5-1.5-.5-1.5-.5-1.5.5-.5.5-.5v-1.5-1.5l-1.5.5-1.5.5h-1.5-1.5l-1-1-1-1-1.5-1-1.5-1v2.5 2.5 1.5 1.5l1 2 1 2 1 1 1 1"/><path d="m296 353l2-1h1.5 1.5l.5.5.5.5 1.5-.5 1.5-.5 1-.5 1-.5 1-.5 1-.5v-1.5-1.5-1.5-1.5-1-1l.5-1 .5-1 .5-1 .5-1-6.5 1-6.5 1-5 2.5-5 2.5-6-1.5-6-1.5-15-3-15-3-.5-1-.5-1-.5-1.5-.5-1.5-.5-.5-.5-.5v-2-2l-.5-1-.5-1v-1-1-1-1l-.5-.5-.5-.5-.5-1-.5-1h-1-1l-.5-.5-.5-.5-.5-1.5-.5-1.5-2.5-.5-2.5-.5-.5-6-.5-6 1.5-8.5 1.5-8.5-1.5-5.5-1.5-5.5-10-2-10-2 1.5.5 1.5.5 2 .5 2 .5 1.5.5 1.5.5 1 1 1 1v1 1 .5.5l-.5 1.5-.5 1.5v1 1l1 1 1 1-.5 2-.5 2 .5 1.5.5 1.5-.5 2-.5 2-.5 1.5-.5 1.5v1.5 1.5 2.5 2.5l.5 1 .5 1v1 1l-.5 1-.5 1v1 1l-.5-.5-.5-.5-.5-.5-.5-.5v1.5 1.5l2-.5 2-.5 1.5.5 1.5.5h1.5 1.5l1 1 1 1-.5 1-.5 1-.5 1-.5 1-.5 2-.5 2-1 .5-1 .5 9 6.5 9 6.5 6.5 3.5 6.5 3.5h7 7l5 2 5 2 7.5 2 7.5 2"/></g><path d="m492 351l3 1 1-1 1-1 1.5-1 1.5-1 .5-1.5.5-1.5v-1.5-1.5l-.5-1.5-.5-1.5-.5-1.5-.5-1.5-.5-1-.5-1-.5-.5-.5-.5-8-3.5-8-3.5-1-3-1-3 4.5.5 4.5.5 2-5 2-5 5.5-.5 5.5-.5 3.5-2.5 3.5-2.5 2.5 3.5 2.5 3.5 12-4.5 12-4.5-1.5-9-1.5-9-.5-18-.5-18-.5 9.5-.5 9.5-3 6-3 6-5 9-5 9-4.5-6-4.5-6-10-1-10-1-10.5-.5-10.5-.5-10.5-.5-10.5-.5-5.5-5.5-5.5-5.5 1-8.5 1-8.5 1.5-8.5 1.5-8.5 3-8 3-8 8-3.5 8-3.5 12.5-1 12.5-1 5.5-5.5 5.5-5.5-6-5.5-6-5.5-9-1-9-1-10 1-10 1-9.5 3.5-9.5 3.5-5 7.5-5 7.5-.5 8.5-.5 8.5-1 10-1 10-.5 9.5-.5 9.5-2 9-2 9 .5 9 .5 9-4-4-4-4-5-6-5-6v-8-8l2-6 2-6-2-7-2-7-1-8.5-1-8.5v-7.5-7.5l-1 8.5-1 8.5-.5 10-.5 10 1 9 1 9-.5 9.5-.5 9.5-5 8.5-5 8.5.5 1.5.5 1.5 1 1 1 1-.5.5-.5.5-1 .5-1 .5-1.5-.5-1.5-.5v1 1l-.5 1-.5 1 .5 1.5.5 1.5.5.5.5.5h1.5 1.5l1.5.5 1.5.5.5-.5.5-.5.5-1 .5-1 1-1 1-1h1.5 1.5l9.5-2.5 9.5-2.5 10 5.5 10 5.5 1-4 1-4 8.5.5 8.5.5-2 5.5-2 5.5 4 7 4 7 7 2 7 2-10.5 3.5-10.5 3.5 11.5 2 11.5 2 11 .5 11 .5" style="fill:#757366;stroke:#757366"/><path d="m167 350l4 1 1.5-.5 1.5-.5h2.5 2.5l1.5-.5 1.5-.5 1.5-1 1.5-1h2 2l2-1 2-1-.5-1.5-.5-1.5 1-1.5 1-1.5.5-1.5.5-1.5 1-1.5 1-1.5 1 1 1 1 1 1.5 1 1.5v1 1l-.5 2-.5 2-.5 1.5-.5 1.5-.5.5-.5.5h-.5-.5l1.5 1 1.5 1 1.5.5 1.5.5 2-.5 2-.5.5-1 .5-1 1-.5 1-.5 1-.5 1-.5 2-.5 2-.5 1-.5 1-.5.5-1.5.5-1.5 1-1 1-1 1 1.5 1 1.5 1.5.5 1.5.5 2 .5 2 .5 1.5.5 1.5.5 2 .5 2 .5 1.5.5 1.5.5h1.5 1.5l-7-4-7-4-3-1-3-1 1.5-6 1.5-6 1-.5 1-.5.5-2 .5-2-.5 1.5-.5 1.5h-1-1l-1 .5-1 .5h-2-2l-1 1.5-1 1.5-.5 1.5-.5 1.5v2 2 1 1 1.5 1.5l-.5 1.5-.5 1.5-.5.5-.5.5h-1.5-1.5l-2-.5-2-.5-3-9-3-9 2-4 2-4 6.5-1 6.5-1v-1.5-1.5l.5.5.5.5.5.5.5.5v-1-1l.5-1 .5-1v-1-1l-.5-1-.5-1-1 1-1 1-5.5-3.5-5.5-3.5 2.5-15.5 2.5-15.5-1.5-.5-1.5-.5h-1.5-1.5l-1-.5-1-.5-8.5.5-8.5.5-2.5 8.5-2.5 8.5-3.5 7.5-3.5 7.5-3.5-5.5-3.5-5.5 2.5-9 2.5-9 3-8 3-8 3.5-7.5 3.5-7.5 3-8 3-8 3-8 3-8 4-7 4-7 9-.5 9-.5 1 7 1 7 .5 8.5.5 8.5 8.5 11.5 8.5 11.5.5-1 .5-1 1-1 1-1 .5.5.5.5.5 1 .5 1 1.5.5 1.5.5.5.5.5.5.5 1 .5 1 1 1 1 1 2-.5 2-.5v-.5-.5l1-1.5 1-1.5v-.5-.5l.5-1 .5-1 1.5-.5 1.5-.5v-1-1l-1.5-1-1.5-1v-.5-.5l-.5-1.5-.5-1.5v-1-1l.5-.5.5-.5h1 1l1 .5 1 .5h1 1l.5.5.5.5h1 1l1-.5 1-.5.5-1.5.5-1.5h1 1l1-.5 1-.5.5-2.5.5-2.5v-2-2l-.5 1.5-.5 1.5-2 .5-2 .5-1 1-1 1h-1-1l-1 1.5-1 1.5-1.5.5-1.5.5-2 .5-2 .5-.5 1.5-.5 1.5v2.5 2.5l.5 1.5.5 1.5-1 .5-1 .5-1 2-1 2h-1-1l-.5-1-.5-1v-.5-.5l-1-.5-1-.5-.5-1-.5-1-.5-.5-.5-.5h1 1l.5-.5.5-.5-.5-1-.5-1v-1-1l-.5-.5-.5-.5v-1-1-1-1l-.5-.5-.5-.5h-1.5-1.5l-1-1-1-1-.5-1.5-.5-1.5-1-.5-1-.5-1 .5-1 .5h-2-2l-1.5-.5-1.5-.5h-2.5-2.5v-2-2l-.5-1.5-.5-1.5.5-2 .5-2 .5-1.5.5-1.5 1.5-.5 1.5-.5.5-2 .5-2-.5-1.5-.5-1.5-5.5-6-5.5-6-8.5 1.5-8.5 1.5-4.5 6.5-4.5 6.5-3 8-3 8-2.5 7.5-2.5 7.5-4 7.5-4 7.5-3 8-3 8-2.5 10-2.5 10-.5 1.5-.5 1.5v3 3 2.5 2.5l1 1 1 1 1.5 1 1.5 1-1 1-1 1-1.5 1-1.5 1-.5 1.5-.5 1.5-.5 1-.5 1 1 9 1 9 6.5 2.5 6.5 2.5-8 2-8 2 2 4.5 2 4.5" style="fill:#9b99a6;stroke:#9b99a6"/><path d="m198 348l1-1 .5-1.5.5-1.5.5-2 .5-2v-1-1l-1-1.5-1-1.5-1-1-1-1-1 1.5-1 1.5-.5 1.5-.5 1.5-1 1.5-1 1.5.5 1.5.5 1.5h1.5 1.5l.5 1.5.5 1.5h.5.5" style="fill:#757366;stroke:#757366"/><path d="m350 348h2l1.5-1 1.5-1h2 2 2.5 2.5v-.5-.5l-1-.5-1-.5h-1-1-1-1l-.5-1-.5-1h-1-1l-.5.5-.5.5v1 1h-1-1l-.5-.5-.5-.5v-1.5-1.5l-.5 1-.5 1v2.5 2.5" style="fill:#979688;stroke:#979688"/><path d="m168 347l20-4 1.5-7.5 1.5-7.5-5-4.5-5-4.5 4.5-2.5 4.5-2.5-1-5-1-5-8 2-8 2-4 7-4 7 5.5 3.5 5.5 3.5 5 5.5 5 5.5-8.5 2.5-8.5 2.5v1 1" style="fill:#ffffec;stroke:#ffffec"/><path d="m235 347l3 1h2.5 2.5v-.5-.5h-1.5-1.5l-1.5-.5-1.5-.5-2-.5-2-.5-1.5-.5-1.5-.5-2-.5-2-.5-1.5-.5-1.5-.5-1-1.5-1-1.5-1 1-1 1-.5 1.5-.5 1.5-1 .5-1 .5 1.5.5 1.5.5h1 1 1 1l1 .5 1 .5.5-.5.5-.5h1 1l.5.5.5.5h1.5 1.5 1.5 1.5" style="fill:#979688;stroke:#979688"/><path d="m320 347h3l1.5-.5 1.5-.5v-2-2-1-1-2-2l-1 .5-1 .5-1.5.5-1.5.5h-1-1-1.5-1.5l-2-.5-2-.5 1.5 1 1.5 1v2 2l1.5 1 1.5 1 1 1 1 1" style="fill:#f1eed0;stroke:#f1eed0"/><path d="m415 347h3l1-.5 1-.5.5-1 .5-1 .5-1 .5-1 1-.5 1-.5 1-1.5 1-1.5 1.5-.5 1.5-.5.5-2 .5-2 .5-1.5.5-1.5 1-1 1-1-.5-1-.5-1-.5 1.5-.5 1.5-.5.5-.5.5-.5 1-.5 1-.5.5-.5.5-.5.5-.5.5-.5.5-.5.5-.5.5-.5.5-.5 1-.5 1-.5.5-.5.5h-1-1l-.5.5-.5.5-.5 1-.5 1-.5.5-.5.5-.5.5-.5.5-.5.5-.5.5h-1-1v1 1h.5.5" style="fill:#757366;stroke:#757366"/><g style="fill:#f1eed0;stroke:#f1eed0"><path d="m408 346l3 1h1.5 1.5v-1-1h1 1l.5-.5.5-.5.5-.5.5-.5.5-.5.5-.5.5-1 .5-1 .5-.5.5-.5h1 1l.5-.5.5-.5.5-1 .5-1 .5-.5.5-.5.5-.5.5-.5.5-.5.5-.5.5-.5.5-.5.5-1 .5-1 .5-.5.5-.5.5-1.5.5-1.5.5-1 .5-1v-1-1-1-1l-.5-.5-.5-.5-.5-1-.5-1-10-5.5-10-5.5-9.5 2.5-9.5 2.5-.5 1-.5 1-1.5.5-1.5.5-.5.5-.5.5-.5 1-.5 1-.5 1.5-.5 1.5-.5 1.5-.5 1.5v3 3 1.5 1.5l.5 1.5.5 1.5.5.5.5.5h1 1l1 1 1 1v.5.5h-1-1l-1.5.5-1.5.5-.5 1.5-.5 1.5 1.5-.5 1.5-.5.5-.5.5-.5.5-.5.5-.5 1.5.5 1.5.5 1 .5 1 .5.5.5.5.5h1 1l.5.5.5.5h1.5 1.5l.5.5.5.5.5.5.5.5h1 1 1.5 1.5"/><path d="m288 345l10-5 6.5-1 6.5-1 .5-.5.5-.5-7.5-2.5-7.5-2.5-6 3-6 3-14 1.5-14 1.5-2-.5-2-.5-1.5-.5-1.5-.5-2-1.5-2-1.5 15 3 15 3 6 1.5 6 1.5"/><path d="m364 345v1h.5.5v-.5-.5l1.5-1 1.5-1 .5-.5.5-.5.5-1 .5-1 .5-1.5.5-1.5.5-.5.5-.5v-1.5-1.5l.5-1.5.5-1.5v-1-1-1.5-1.5-2-2l-.5-2-.5-2v-.5-.5l-.5-.5-.5-.5-.5-2-.5-2v-1-1-2.5-2.5l.5-.5.5-.5h1.5 1.5l1.5-.5 1.5-.5 1-1 1-1 1 .5 1 .5 5-8.5 5-8.5.5-9.5.5-9.5-1-9-1-9 .5-10 .5-10 1-8.5 1-8.5-5-7-5-7-8.5 2.5-8.5 2.5-.5 9-.5 9-2 15.5-2 15.5h-2-2-1.5-1.5l-.5-.5-.5-.5v-1-1-1-1-1-1-1.5-1.5l-.5-.5-.5-.5-.5-.5-.5-.5-.5-.5-.5-.5 1-.5 1-.5v-1-1-1-1h1.5 1.5l.5-1 .5-1 1-.5 1-.5.5-1 .5-1 1-1 1-1-.5-1.5-.5-1.5-1-1-1-1-2-.5-2-.5-1-1.5-1-1.5-3 8.5-3 8.5-6.5-5-6.5-5h-1-1l-1-.5-1-.5-.5-2.5-.5-2.5-.5-2-.5-2-.5-.5-.5-.5h-1.5-1.5l-1.5-.5-1.5-.5-1-1-1-1-1.5-1-1.5-1-1-1-1-1-1-2-1-2-.5-1-.5-1-1-1-1-1-1.5-1-1.5-1-1-1-1-1-1.5-1-1.5-1-1.5-1.5-1.5-1.5h-.5-.5-2.5-2.5l-1 1-1 1-1 1.5-1 1.5-1 1-1 1-1 1-1 1-.5.5-.5.5v1.5 1.5 3.5 3.5 1.5 1.5l-.5 1.5-.5 1.5v3 3 2 2 2 2 1.5 1.5l-.5 2.5-.5 2.5.5 1.5.5 1.5v1.5 1.5 1 1l1-11 1-11 1-10.5 1-10.5 6-5 6-5 5.5 5.5 5.5 5.5 5.5 5.5 5.5 5.5 4 18 4 18 .5-2.5.5-2.5v-2.5-2.5-2-2-2.5-2.5h1 1l.5-1 .5-1 6.5 4 6.5 4 3 8 3 8 6.5 4.5 6.5 4.5 2-9 2-9v-11.5-11.5l1-10 1-10h8 8l2 8 2 8-1 10-1 10v9 9l1 10.5 1 10.5-2.5 7.5-2.5 7.5-7.5 4.5-7.5 4.5-6.5-5-6.5-5-4-7-4-7-5-6-5-6-3.5-14.5-3.5-14.5-.5 2.5-.5 2.5v2 2 2.5 2.5 2 2l-.5 1-.5 1v-2-2h-1-1l-1 .5-1 .5-1-1-1-1-1-1.5-1-1.5-.5-1-.5-1-1 2-1 2h-1-1-1.5-1.5l-1-1-1-1h-2-2l6.5 3.5 6.5 3.5 3.5 7.5 3.5 7.5v10 10 10 10l-.5 14-.5 14 1.5.5 1.5.5h1.5 1.5l1-.5 1-.5-2-.5-2-.5.5-10.5.5-10.5 1-8 1-8 7.5 11.5 7.5 11.5.5-2.5.5-2.5.5-1 .5-1 .5-.5.5-.5.5-.5.5-.5.5.5.5.5 1 .5 1 .5.5.5.5.5.5.5.5.5.5.5.5.5v1.5 1.5l-.5.5-.5.5v1 1l-.5.5-.5.5-1-.5-1-.5-.5 1-.5 1 1.5 1.5 1.5 1.5.5.5.5.5.5 1.5.5 1.5-.5.5-.5.5-.5 1-.5 1v1 1l-.5.5-.5.5-.5 1-.5 1-1.5.5-1.5.5v1.5 1.5l.5.5.5.5h1 1v-1-1l.5-.5.5-.5h1 1l.5 1 .5 1h1 1 1 1l1 .5 1 .5"/></g><path d="m365 345v1h1.5 1.5l1.5-1 1.5-1 1.5-.5 1.5-.5 1-1 1-1 .5-2 .5-2 .5-1.5.5-1.5 2 .5 2 .5 1-1.5 1-1.5v-1.5-1.5-3-3l-1 .5-1 .5-.5.5-.5.5-1.5-.5-1.5-.5-1-.5-1-.5-.5-1-.5-1v-1-1l-.5-.5-.5-.5-1-.5-1-.5.5 2 .5 2v2 2 1.5 1.5 1 1l-.5 1.5-.5 1.5v1.5 1.5l-.5.5-.5.5-.5 1.5-.5 1.5-.5 1-.5 1-.5.5-.5.5-1.5 1-1.5 1" style="fill:#979688;stroke:#979688"/><path d="m445 345l2 1 10.5-3.5 10.5-3.5-7-2-7-2-4-7-4-7 2-5.5 2-5.5-8.5-.5-8.5-.5-1 4-1 4 .5 1 .5 1 .5.5.5.5v1 1 1 1l-.5 1-.5 1 .5 1 .5 1-1 1-1 1-.5 1.5-.5 1.5-.5 2-.5 2-1.5.5-1.5.5-1 1.5-1 1.5-1 .5-1 .5-.5 1-.5 1 1-.5 1-.5 1.5-.5 1.5-.5 2 .5 2 .5 1.5-.5 1.5-.5 2 .5 2 .5 1.5.5 1.5.5h1.5 1.5l1 .5 1 .5" style="fill:#60605e;stroke:#60605e"/><g style="fill:#ffffec;stroke:#ffffec"><path d="m470 345h24l-1-6-1-6-9-2.5-9-2.5v-5-5l4-2 4-2-9.5-1.5-9.5-1.5-5.5 5.5-5.5 5.5.5 3 .5 3 2 .5 2 .5 1.5.5 1.5.5h2 2l2 .5 2 .5 1.5.5 1.5.5 1.5 1 1.5 1 1 1 1 1 .5 1 .5 1v2 2h-2.5-2.5-2-2-2-2-2.5-2.5l-1.5.5-1.5.5v.5.5l1.5.5 1.5.5h2.5 2.5 2 2 1 1"/><path d="m208 342l4 1h1.5 1.5l.5-.5.5-.5.5-1.5.5-1.5v-1.5-1.5-1-1-2-2l.5-1.5.5-1.5 1-1.5 1-1.5h2 2l1-.5 1-.5h1 1l.5-1.5.5-1.5.5-1 .5-1 .5-1 .5-1-1-1-1-1h-1.5-1.5l-1.5-.5-1.5-.5-2 .5-2 .5-6.5 1-6.5 1-2 4-2 4 3 9 3 9"/><path d="m257 341l28-3 6-3 6-3 7.5 2.5 7.5 2.5 2 .5 2 .5h1.5 1.5 1 1l1.5-.5 1.5-.5 1-.5 1-.5.5-14 .5-14v-10-10-10-10l-3.5-7.5-3.5-7.5-6.5-3.5-6.5-3.5-.5-1-.5-1v-1.5-1.5-2.5-2.5l.5-1 .5-1 .5-1.5.5-1.5h.5.5l1 1 1 1 1 1 1 1h1 1l.5 1 .5 1 1 1.5 1 1.5 1 2 1 2 .5 1 .5 1 1 1.5 1 1.5 1 1 1 1 1-.5 1-.5v-.5-.5l-4-18-4-18-5.5-5.5-5.5-5.5-5.5-5.5-5.5-5.5-6 5-6 5-1 10.5-1 10.5-1 11-1 11v3 3h-1-1l-1.5 1-1.5 1-1.5.5-1.5.5h-2.5-2.5l-1 1-1 1-1.5-.5-1.5-.5h-1.5-1.5l-1 .5-1 .5-1.5.5-1.5.5-.5-.5-.5-.5-.5 1-.5 1-1 .5-1 .5-1-1-1-1-.5-.5-.5-.5-.5-.5-.5-.5v-1.5-1.5l-1-2-1-2-8.5-11.5-8.5-11.5-.5-8.5-.5-8.5-1-7-1-7-9 .5-9 .5-4 7-4 7-3 8-3 8-3 8-3 8-3.5 7.5-3.5 7.5-3 8-3 8-2.5 9-2.5 9 3.5 5.5 3.5 5.5 3.5-7.5 3.5-7.5 2.5-8.5 2.5-8.5 8.5-.5 8.5-.5 11 .5 11 .5 4 5 4 5 1.5 8.5 1.5 8.5 3 3.5 3 3.5v14.5 14.5l.5 1.5.5 1.5.5 1 .5 1 2 1.5 2 1.5 1.5.5 1.5.5 2 .5 2 .5"/><path d="m363 341l7-17-5-2-5-2 .5 10 .5 10 1 .5 1 .5"/><path d="m410 341l16-8 .5-8.5.5-8.5-8-3.5-8-3.5-9 2-9 2-3.5 7.5-3.5 7.5 6 5 6 5 6 1.5 6 1.5"/></g><path d="m351 340v1l1.5-.5 1.5-.5.5-1 .5-1 .5-.5.5-.5v-1-1l.5-1 .5-1 .5-.5.5-.5-.5-1.5-.5-1.5-.5-.5-.5-.5-1.5-1.5-1.5-1.5-1 .5-1 .5v-2-2h-1-1l-1 1-1 1 .5 1 .5 1 1-.5 1-.5v1 1 1 1 1 1 1.5 1.5l.5.5.5.5v1 1 1.5 1.5" style="fill:#babaaa;stroke:#babaaa"/><path d="m476 337l1 1-.5-1-.5-1-1-1-1-1-1.5-1-1.5-1-1.5-.5-1.5-.5-2-.5-2-.5h-2-2l-1.5-.5-1.5-.5-2-.5-2-.5 1 .5 1 .5 1.5 1 1.5 1h2 2l2 .5 2 .5 1.5.5 1.5.5 1.5 1 1.5 1 1.5.5 1.5.5.5.5.5.5" style="fill:#f1eed0;stroke:#f1eed0"/><path d="m330 335l4 1 1-.5 1-.5 1-.5 1-.5.5-.5.5-.5.5-.5.5-.5.5-.5.5-.5.5-1 .5-1 .5-.5.5-.5v-1-1l.5-.5.5-.5.5-1 .5-1 1-.5 1-.5.5-.5.5-.5-7.5-11.5-7.5-11.5-1 8-1 8-.5 10.5-.5 10.5" style="fill:#ffffec;stroke:#ffffec"/><path d="m411 334l5-17h-6-6l3 8.5 3 8.5h.5.5" style="fill:#f1eed0;stroke:#f1eed0"/><path d="m497 333l1 1 4.5-10 4.5-10 11 .5 11 .5 6-6 6-6h-1-1l-12 4.5-12 4.5-2.5-3.5-2.5-3.5-3.5 2.5-3.5 2.5-5.5.5-5.5.5-2 5-2 5-4.5-.5-4.5-.5 1 3 1 3 8 3.5 8 3.5" style="fill:#60605e;stroke:#60605e"/><path d="m196 331h2l-1-1-1-1v-1.5-1.5l-.5-1.5-.5-1.5-.5-2-.5-2 .5-1.5.5-1.5v-.5-.5l-1.5.5-1.5.5-1.5.5-1.5.5-1.5-.5-1.5-.5-.5 1-.5 1 .5 1.5.5 1.5 1.5 1 1.5 1 1.5.5 1.5.5 1 1.5 1 1.5.5 1.5.5 1.5.5.5.5.5" style="fill:#757366;stroke:#757366"/><path d="m243 330l1 1v-14.5-14.5l-3-3.5-3-3.5-1.5-8.5-1.5-8.5-4-5-4-5-11-.5-11-.5 1 .5 1 .5h1.5 1.5l10 2 10 2 1.5 5.5 1.5 5.5 1 7 1 7 .5 8 .5 8 .5 1.5.5 1.5.5.5.5.5h1 1l.5 1 .5 1 .5.5.5.5v1 1 1 1l.5 1 .5 1v2 2" style="fill:#f1eed0;stroke:#f1eed0"/><path d="m410 327h2l.5-1.5.5-1.5.5-2 .5-2v-2-2l-2-.5-2-.5-1 1-1 1-.5 2-.5 2 .5 1.5.5 1.5 1 1 1 1v.5.5" style="fill:#757366;stroke:#757366"/><path d="m351 326l2-1 .5-1 .5-1 .5-1 .5-1v-1-1-1-1l-.5-.5-.5-.5-.5-1-.5-1-.5.5-.5.5v1 1l-.5.5-.5.5-1-1-1-1-.5 2.5-.5 2.5-.5.5-.5.5v1 1l1-1 1-1h1 1v2 2" style="fill:#d7d7c1;stroke:#d7d7c1"/><path d="m356 324l1-1v-1-1l.5-.5.5-.5v-1.5-1.5l-.5-.5-.5-.5-.5-.5-.5-.5-.5-.5-.5-.5-1-.5-1-.5-.5-.5-.5-.5-.5.5-.5.5-.5.5-.5.5-.5 1-.5 1 1 1 1 1 .5-.5.5-.5v-1-1l.5-.5.5-.5.5 1 .5 1 .5.5.5.5v1 1 1 1l-.5 1-.5 1 1 .5 1 .5" style="fill:#babaaa;stroke:#babaaa"/><path d="m378 324l3 1 .5-.5.5-.5 1-.5 1-.5.5-1.5.5-1.5.5-1.5.5-1.5.5-1 .5-1 .5-.5.5-.5 1.5-.5 1.5-.5.5-1 .5-1h-1.5-1.5l-1 1-1 1-.5 1-.5 1-.5.5-.5.5-1.5-.5-1.5-.5h-1.5-1.5l-.5-.5-.5-.5-.5-1.5-.5-1.5.5-1 .5-1v-1-1l1.5.5 1.5.5 1-.5 1-.5.5-.5.5-.5-1-1-1-1-.5-1.5-.5-1.5-1 .5-1 .5-.5 1-.5 1-.5.5-.5.5v.5.5l-.5 1.5-.5 1.5-.5.5-.5.5-1 .5-1 .5-.5 2.5-.5 2.5v.5.5l1 .5 1 .5.5.5.5.5v1 1l.5 1 .5 1 1 .5 1 .5" style="fill:#7c7a83;stroke:#7c7a83"/><path d="m4 317l1-23v-11-11l-1-3.5-1-3.5v11 11 11 11l.5 4 .5 4" style="fill:#917245;stroke:#917245"/><g style="fill:#979688;stroke:#979688"><path d="m198 316l8-16v-4-4-6.5-6.5l-2-2.5-2-2.5-1-.5-1-.5-.5-1.5-.5-1.5h-2.5-2.5l-1.5.5-1.5.5-1 1-1 1-.5 1.5-.5 1.5-.5 2-.5 2-.5 1-.5 1 1.5-.5 1.5-.5.5-.5.5-.5-.5-1-.5-1h1.5 1.5l3.5 1 3.5 1-1 12.5-1 12.5h-.5-.5l.5 1.5.5 1.5v2 2l-1 1.5-1 1.5 1.5-.5 1.5-.5v1 1"/><path d="m371 315l1 1 .5-2.5.5-2.5 1-.5 1-.5.5-.5.5-.5.5-1.5.5-1.5v-.5-.5l.5-.5.5-.5.5-1 .5-1 1-.5 1-.5-1-.5-1-.5-1 1-1 1-1.5.5-1.5.5h-1.5-1.5l-.5.5-.5.5v2.5 2.5 1 1l.5 2 .5 2"/></g><path d="m164 313v1l.5-1 .5-1 .5-1.5.5-1.5 1.5-1 1.5-1 1-1 1-1-1.5-1-1.5-1-1-1-1-1v-2.5-2.5-3-3l-.5 1-.5 1v2.5 2.5 2 2 2.5 2.5l-.5 1.5-.5 1.5v2 2" style="fill:#60605e;stroke:#60605e"/><path d="m231 312l5 1-.5-8-.5-8-1-7-1-7-1.5 8.5-1.5 8.5.5 6 .5 6" style="fill:#d9d9e3;stroke:#d9d9e3"/><path d="m357 309l2-8v-2-2l-2.5 3-2.5 3 1.5 3 1.5 3" style="fill:#757366;stroke:#757366"/><path d="m348 308l1-21-4-7-4-7-5.5-1-5.5-1 .5 9.5.5 9.5 4.5 5.5 4.5 5.5 4 3.5 4 3.5" style="fill:#60605e;stroke:#60605e"/><path d="m93 307h2l2.5-.5 2.5-.5 12.5-2.5 12.5-2.5 7.5-3.5 7.5-3.5 5.5-5.5 5.5-5.5 3-8.5 3-8.5 1.5-9.5 1.5-9.5-3.5-7.5-3.5-7.5-3.5-7.5-3.5-7.5-5.5-5.5-5.5-5.5-7-4.5-7-4.5-9-2-9-2-10.5 1.5-10.5 1.5-2 9.5-2 9.5-.5 10.5-.5 10.5.5 10.5.5 10.5 1 10 1 10-.5 10.5-.5 10.5 7 4.5 7 4.5" style="fill:#d7d7c1;stroke:#d7d7c1"/><path d="m219 307l2-2v-2.5-2.5l-.5-.5-.5-.5v-2-2h-2.5-2.5l.5-1.5.5-1.5h1.5 1.5 1 1v-1-1l-2-.5-2-.5 1.5-.5 1.5-.5 1-1.5 1-1.5.5-1 .5-1-1-1-1-1v-1-1l.5-1.5.5-1.5v-.5-.5-1-1l-1-1-1-1-1.5-.5-1.5-.5-2-.5-2-.5-2.5 15.5-2.5 15.5 5.5 3.5 5.5 3.5" style="fill:#babaaa;stroke:#babaaa"/><path d="m484 307l20-4 2.5-6.5 2.5-6.5-10-1.5-10-1.5-10.5-.5-10.5-.5h-11-11l-6-5-6-5-.5-9.5-.5-9.5 2-9 2-9 3-8.5 3-8.5 6-5 6-5 9-2 9-2 7.5-1.5 7.5-1.5 1-5 1-5-9.5-1-9.5-1-10.5.5-10.5.5-8.5 2.5-8.5 2.5-5 6-5 6v10 10l-1.5 10-1.5 10-.5 9.5-.5 9.5-1.5 9.5-1.5 9.5 6 5 6 5 8.5 2.5 8.5 2.5 10 1 10 1 9.5.5 9.5.5" style="fill:#ffffec;stroke:#ffffec"/><path d="m197 305l2-25-3.5-1-3.5-1 .5 5.5.5 5.5-4.5 6-4.5 6 2.5.5 2.5.5 2 .5 2 .5 1.5.5 1.5.5v.5.5h.5.5" style="fill:#7c7a83;stroke:#7c7a83"/><path d="m555 305l28-1 10.5-.5 10.5-.5 5.5-5.5 5.5-5.5-7-4-7-4-10.5-.5-10.5-.5h-1.5-1.5-2-2-2-2l-1.5-.5-1.5-.5h-1.5-1.5l-1-.5-1-.5h-1-1l-.5.5-.5.5h-1-1v-1-1-1.5-1.5-1-1-1-1l-.5-.5-.5-.5v-1-1-1.5-1.5l.5-.5.5-.5v-1-1l1.5.5 1.5.5 11-8.5 11-8.5-3.5-6.5-3.5-6.5-5-6-5-6 3-6 3-6 10.5.5 10.5.5 10-.5 10-.5 1-1 1-1 1-1 1-1 1.5-1 1.5-1 .5-1.5.5-1.5.5-1 .5-1-.5-.5-.5-.5-1-1-1-1-1.5-1-1.5-1-19-1.5-19-1.5-10 .5-10 .5-8.5 2-8.5 2-1 15.5-1 15.5-1 10.5-1 10.5.5 18 .5 18 1.5 9 1.5 9h1 1 3 3l1.5.5 1.5.5 2.5.5 2.5.5" style="fill:#b8b48c;stroke:#b8b48c"/><path d="m413 304l-1-18 2-9 2-9 .5-9.5.5-9.5 1-10 1-10 .5-8.5.5-8.5 5-7.5 5-7.5-9.5 5.5-9.5 5.5.5 5.5.5 5.5-.5 4.5-.5 4.5v-4-4l-3.5-6-3.5-6-3-4-3-4-7.5-3.5-7.5-3.5-7.5-.5-7.5-.5-6 2-6 2-3 4.5-3 4.5 1 5 1 5 2.5-1.5 2.5-1.5 4.5-5.5 4.5-5.5 8.5-2.5 8.5-2.5 5 7 5 7v7.5 7.5l1 8.5 1 8.5 2 7 2 7-2 6-2 6v8 8l5 6 5 6 4 4 4 4" style="fill:#60605e;stroke:#60605e"/><path d="m89 303l20-2 9-2 9-2 7.5-4 7.5-4 4.5-6.5 4.5-6.5 2-9 2-9-1-10-1-10-4-7-4-7-4-7-4-7-7-4.5-7-4.5-8.5-2.5-8.5-2.5h-10-10l-2 9-2 9-1 10-1 10 .5 11 .5 11 1 10 1 10-.5 10.5-.5 10.5 3.5 3 3.5 3" style="fill:#ffffec;stroke:#ffffec"/><path d="m178 301h2 2 2l4.5-6 4.5-6-.5-5.5-.5-5.5v1.5 1.5l-.5 2-.5 2v1 1l-1.5-.5-1.5-.5-1.5.5-1.5.5-1 1.5-1 1.5-1 1.5-1 1.5-.5 1.5-.5 1.5-1 1.5-1 1.5v1 1" style="fill:#757366;stroke:#757366"/><path d="m532 301l-4-10-1 4-1 4 3 1 3 1" style="fill:#60605e;stroke:#60605e"/><path d="m553 301h24 10 10l3-5.5 3-5.5-9.5-1.5-9.5-1.5-10.5-.5-10.5-.5h-.5-.5l8.5 2 8.5 2 8 3 8 3-4.5 1.5-4.5 1.5-16 .5-16 .5-1-.5-1-.5-1-.5-1-.5-1.5-.5-1.5-.5h-1-1-1.5-1.5l-1.5.5-1.5.5 1 .5 1 .5 1.5-.5 1.5-.5 1.5.5 1.5.5 2 .5 2 .5 1 .5 1 .5" style="fill:#f1eed0;stroke:#f1eed0"/><path d="m554 300l32-1 4.5-1.5 4.5-1.5-8-3-8-3-8.5-2-8.5-2h-3-3l-1.5-1-1.5-1v-1-1-2.5-2.5l-.5-1.5-.5-1.5v-2.5-2.5l.5-1.5.5-1.5v-2.5-2.5h.5.5v-.5-.5l-1-8-1-8 4-6 4-6-.5-11-.5-11-9.5 4-9.5 4v10.5 10.5l-1 10-1 10v11 11l.5 8.5.5 8.5 1.5-.5 1.5-.5h1.5 1.5 1 1l1.5.5 1.5.5 1 .5 1 .5 1 .5 1 .5" style="fill:#ffffec;stroke:#ffffec"/><path d="m220 299l1 1v-1.5-1.5l.5-1.5.5-1.5.5-2 .5-2-.5-1.5-.5-1.5.5-2 .5-2-.5 1-.5 1-1 1.5-1 1.5-1.5.5-1.5.5 2 .5 2 .5v1 1h-1-1-1.5-1.5l-.5 1.5-.5 1.5h2.5 2.5v2 2" style="fill:#bab9c9;stroke:#bab9c9"/><path d="m369 299l15-9 2.5-7.5 2.5-7.5-1-10.5-1-10.5v-9-9l1-10 1-10-2-8-2-8h-8-8l-1 10-1 10v11.5 11.5l-2 9-2 9-6.5-4.5-6.5-4.5-3-8-3-8-6.5-4-6.5-4v3 3l3.5 14.5 3.5 14.5 5 6 5 6 4 7 4 7 6.5 5 6.5 5" style="fill:#ffffec;stroke:#ffffec"/><path d="m518 298l10-18 3-6 3-6 .5-9.5.5-9.5-6 7-6 7 .5 2.5.5 2.5-4.5 7-4.5 7-5-2-5-2-6.5 1.5-6.5 1.5-6.5-1.5-6.5-1.5-6.5 1.5-6.5 1.5-8.5-1-8.5-1-2-6-2-6-1-7-1-7-.5-5.5-.5-5.5 3-5 3-5 2-6.5 2-6.5 5.5-2.5 5.5-2.5-8 3.5-8 3.5-3 8-3 8-1.5 8.5-1.5 8.5-1 8.5-1 8.5 5.5 5.5 5.5 5.5 10.5.5 10.5.5 10.5.5 10.5.5 10 1 10 1 4.5 6 4.5 6" style="fill:#60605e;stroke:#60605e"/><path d="m335 290l6-12-4.5 4.5-4.5 4.5 1.5 1.5 1.5 1.5" style="fill:#4e4c42;stroke:#4e4c42"/><path d="m167 286v1l2.5-10 2.5-10 3-8 3-8 4-7.5 4-7.5 2.5-7.5 2.5-7.5 3-8 3-8 4.5-6.5 4.5-6.5 8.5-1.5 8.5-1.5 5.5 6 5.5 6-1.5-5.5-1.5-5.5-7.5-1.5-7.5-1.5-8 3-8 3-3.5 6-3.5 6-2 6-2 6-1.5 4.5-1.5 4.5-2 6-2 6-4 5-4 5-2 4-2 4-.5 6.5-.5 6.5-1 8.5-1 8.5" style="fill:#60605e;stroke:#60605e"/><path d="m185 286v1l1.5-.5 1.5-.5 1.5.5 1.5.5v-1-1l.5-2 .5-2v-1.5-1.5h-1.5-1.5l.5 1 .5 1-.5.5-.5.5-1.5.5-1.5.5-.5 1.5-.5 1.5v.5.5" style="fill:#7c7a83;stroke:#7c7a83"/><path d="m566 282l3 1h2 2 2 2 1.5 1.5l-1-.5-1-.5h-2-2-2.5-2.5l-1.5-.5-1.5-.5-2-.5-2-.5h-1-1l-1-1-1-1-.5-2-.5-2v-2-2l.5-1.5.5-1.5.5-1 .5-1-1.5-.5-1.5-.5v1 1l-.5.5-.5.5v1.5 1.5 1 1l.5.5.5.5v1 1 1 1 1.5 1.5 1 1h1 1l.5-.5.5-.5h1 1l1 .5 1 .5h1.5 1.5" style="fill:#4e4c42;stroke:#4e4c42"/><path d="m97 276l21-3 7.5-3.5 7.5-3.5 5-6.5 5-6.5-4-7-4-7-4.5-6.5-4.5-6.5-7.5-3.5-7.5-3.5-8 1-8 1 .5 10.5.5 10.5v10.5 10.5l.5 6.5.5 6.5" style="fill:#f1eed0;stroke:#f1eed0"/><path d="m207 275l3 1v-1-1l-1-1.5-1-1.5-1.5-.5-1.5-.5-2-.5-2-.5h-2-2l-1.5.5-1.5.5h2.5 2.5l.5 1.5.5 1.5 1 .5 1 .5v-2-2l1.5 1 1.5 1 .5.5.5.5.5 1 .5 1" style="fill:#b8b48c;stroke:#b8b48c"/><path d="m100 272l21-3 6-5 6-5 2.5-7 2.5-7-4.5-6.5-4.5-6.5-6.5-4.5-6.5-4.5-9-1-9-1v11 11l1 3 1 3-.5-10-.5-10 6.5-2.5 6.5-2.5 5.5 4.5 5.5 4.5 1.5 3 1.5 3-2 2-2 2-1 4-1 4-2 4-2 4-6.5 4.5-6.5 4.5-.5-1.5-.5-1.5-.5-1-.5-1 1-1 1-1-1-1-1-1-.5-.5-.5-.5.5-1 .5-1v-2-2l-.5-1.5-.5-1.5-.5 2.5-.5 2.5v2.5 2.5 2 2 2.5 2.5l.5 1.5.5 1.5v.5.5" style="fill:#4e4c42;stroke:#4e4c42"/><g style="fill:#373428;stroke:#373428"><path d="m103 268l13-9 2-4 2-4 1-4 1-4 2-2 2-2-1.5-3-1.5-3-5.5-4.5-5.5-4.5-6.5 2.5-6.5 2.5.5 10 .5 10 .5 1.5.5 1.5v2 2l-.5 1-.5 1 .5.5.5.5 1 1 1 1-1 1-1 1 .5 1 .5 1 .5 1.5.5 1.5"/><path d="m5 263l1 1 1.5-8.5 1.5-8.5-.5-11-.5-11h-.5-.5v8 8l-1 3-1 3v8 8"/></g><path d="m554 260v1l1-.5 1-.5 1.5.5 1.5.5h1.5 1.5v-.5-.5l-1-4.5-1-4.5.5-8 .5-8v-2-2-2.5-2.5-2-2-2-2-2.5-2.5-2-2l.5-1 .5-1h9.5 9.5 10.5 10.5l4-3 4-3-8.5-1.5-8.5-1.5h-17.5-17.5l-2-.5-2-.5h-1.5-1.5l-1.5.5-1.5.5-2 .5-2 .5-1.5.5-1.5.5v2.5 2.5l-.5 1.5-.5 1.5v2 2 2.5 2.5.5.5l9.5-4 9.5-4 .5 11 .5 11-4 6-4 6 1 8 1 8" style="fill:#f1eed0;stroke:#f1eed0"/><path d="m562 260v1h1.5 1.5 2 2l2-.5 2-.5 1-1 1-1 1.5-1 1.5-1v-2-2-2-2-.5-.5l-1-.5-1-.5h-2.5-2.5l-1.5-.5-1.5-.5-1.5 1-1.5 1-1.5-.5-1.5-.5-1.5-1-1.5-1v-1-1l1.5-1 1.5-1v-2-2l-.5-.5-.5-.5-.5 8-.5 8 1 4.5 1 4.5" style="fill:#d7d7c1;stroke:#d7d7c1"/><path d="m251 258l2-1 .5-1 .5-1 .5.5.5.5 1.5-.5 1.5-.5 1-.5 1-.5h1.5 1.5l1-1 1-1h1 1 1.5 1.5l.5-.5.5-.5.5-.5.5-.5.5-.5.5-.5 1 .5 1 .5.5-.5.5-.5-.5-.5-.5-.5.5-1 .5-1 1.5-.5 1.5-.5 1-.5 1-.5v-1-1l-1.5.5-1.5.5h-1-1-1-1l-.5.5-.5.5-.5 1-.5 1-.5.5-.5.5-.5.5-.5.5-.5.5-.5.5-1 .5-1 .5-1.5.5-1.5.5h-1.5-1.5l-2 .5-2 .5h-1.5-1.5l-.5-.5-.5-.5h-1-1v1 1h-1-1l-.5-1-.5-1-.5-1.5-.5-1.5-1-.5-1-.5 1 2 1 2v1.5 1.5l.5.5.5.5.5.5.5.5 1 1 1 1" style="fill:#d9d9e3;stroke:#d9d9e3"/><path d="m263 254l3 1 1-1 1-1h2.5 2.5l1.5-.5 1.5-.5 1.5-1 1.5-1h1 1v-3-3l-1 .5-1 .5-1.5.5-1.5.5-.5 1-.5 1 .5.5.5.5-.5.5-.5.5-1-.5-1-.5-.5.5-.5.5-.5.5-.5.5-.5.5-.5.5h-1.5-1.5-1-1l-1 1-1 1" style="fill:#f1eed0;stroke:#f1eed0"/><g style="fill:#d7d7c1;stroke:#d7d7c1"><path d="m329 254l1-2v-2-2-2.5-2.5-2-2l.5-2.5.5-2.5v-3-3l-.5 1-.5 1h-1-1v2.5 2.5 2 2 2.5 2.5l-.5 2.5-.5 2.5v.5.5h1 1v2 2"/><path d="m249 253h2v-1-1h1 1l.5.5.5.5h1.5 1.5l-1-1-1-1-.5-1-.5-1-.5-.5-.5-.5-1.5-.5-1.5-.5-.5-1-.5-1-.5-.5-.5-.5-1 1-1 1-.5 1-.5 1 1 .5 1 .5.5 1.5.5 1.5.5 1 .5 1"/><path d="m261 250v1h1.5 1.5l1.5-.5 1.5-.5 1-.5 1-.5.5-.5.5-.5.5-.5.5-.5.5-.5.5-.5.5-1 .5-1 .5-.5.5-.5h1 1 1 1l1.5-.5 1.5-.5v-1.5-1.5l-.5-1.5-.5-1.5-1.5 2-1.5 2-1.5.5-1.5.5h-1.5-1.5l-1.5.5-1.5.5v1.5 1.5l-1.5.5-1.5.5-1 .5-1 .5-1 1.5-1 1.5"/></g><path d="m361 250l4-31 .5-9 .5-9-4.5 5.5-4.5 5.5-2.5 1.5-2.5 1.5v.5.5l1 1.5 1 1.5 2 .5 2 .5 1 1 1 1 .5 1.5.5 1.5-1 1-1 1-.5 1-.5 1 2-1 2-1 .5 1.5.5 1.5v2.5 2.5l-.5 1.5-.5 1.5h-1-1l-1-1.5-1-1.5-1.5-1.5-1.5-1.5h-1.5-1.5v1 1 1 1l-1 .5-1 .5.5.5.5.5.5.5.5.5.5.5.5.5v1.5 1.5 1 1 1 1 1 1l.5.5.5.5h1.5 1.5 2 2" style="fill:#757366;stroke:#757366"/><path d="m313 248h3 1 1l1-2 1-2-1-2-1-2 .5 2 .5 2-1-.5-1-.5h-2-2l-.5.5-.5.5-2-.5-2-.5-.5-1.5-.5-1.5v-3-3l-.5 1-.5 1v2.5 2.5 1.5 1.5l.5 1 .5 1h2 2l1 1 1 1" style="fill:#d9d9e3;stroke:#d9d9e3"/><path d="m257 247h2l1-2 1-2v-.5-.5l-.5-1.5-.5-1.5v-2-2l-.5-.5-.5-.5 3-8.5 3-8.5 3.5.5 3.5.5 5-8.5 5-8.5v-1.5-1.5l.5-.5.5-.5 1-1 1-1 1-1 1-1 1-1.5 1-1.5 1-1 1-1h2.5 2.5l-8.5 2.5-8.5 2.5-5 1-5 1-6 1.5-6 1.5 1.5 4.5 1.5 4.5-3 8-3 8 1 11 1 11 .5 1 .5 1" style="fill:#757366;stroke:#757366"/><path d="m578 247v1l.5-1 .5-1 .5-1.5.5-1.5-1.5-1-1.5-1-1.5.5-1.5.5h-2.5-2.5l-1-1-1-1-2-.5-2-.5-.5-1.5-.5-1.5v2 2l-1.5 1-1.5 1v1 1l1.5 1 1.5 1 1.5.5 1.5.5 1.5-1 1.5-1 1.5.5 1.5.5h2.5 2.5l1 .5 1 .5" style="fill:#babaaa;stroke:#babaaa"/><path d="m263 246v1l1-.5 1-.5 1.5-.5 1.5-.5v-1.5-1.5l1.5-.5 1.5-.5h1.5 1.5l1.5-.5 1.5-.5 1.5-2 1.5-2h-1.5-1.5l-.5 1-.5 1-2 .5-2 .5h-2-2-2-2l1.5 1 1.5 1v1 1l-1.5.5-1.5.5-.5 1-.5 1" style="fill:#bab9c9;stroke:#bab9c9"/><path d="m202 244l18-4-2-9-2-9-4-1.5-4-1.5-2.5 8.5-2.5 8.5-.5 4-.5 4" style="fill:#f1eed0;stroke:#f1eed0"/><path d="m256 244v1l-1-11-1-11 3-8 3-8-1.5-4.5-1.5-4.5 6-1.5 6-1.5 5-1 5-1 8.5-2.5 8.5-2.5h.5.5l8.5 1 8.5 1 7 4 7 4 1.5 12.5 1.5 12.5h1 1l-2-11-2-11-2.5-8.5-2.5-8.5-6.5-1.5-6.5-1.5h-5-5l-9 1-9 1-7.5 2-7.5 2-6-1-6-1-1.5 6.5-1.5 6.5 1.5 7.5 1.5 7.5-3.5 8-3.5 8h1.5 1.5l.5.5.5.5v1 1 1 1l.5.5.5.5v1 1l.5 1 .5 1-.5.5-.5.5h-1-1l.5.5.5.5.5 1 .5 1 1 .5 1 .5" style="fill:#60605e;stroke:#60605e"/><path d="m312 244l1-1h2 2l1 .5 1 .5-.5-2-.5-2-1-1.5-1-1.5-.5-1-.5-1h-1-1l-1-1-1-1-1-1-1-1h-.5-.5l-.5 1.5-.5 1.5v3 3l.5 1.5.5 1.5 2 .5 2 .5" style="fill:#d7d7c1;stroke:#d7d7c1"/><g style="fill:#979688;stroke:#979688"><path d="m261 242v1l1-.5 1-.5-.5-1.5-.5-1.5v-2.5-2.5l.5-1.5.5-1.5 2-.5 2-.5 1.5-.5 1.5-.5 1-1.5 1-1.5h1 1l1-1 1-1 2-.5 2-.5.5-1.5.5-1.5v-3-3l.5-1.5.5-1.5v-1.5-1.5l-3.5 6-3.5 6-2.5 1.5-2.5 1.5-5 6-5 6v2 2l.5 1.5.5 1.5"/><path d="m203 241l1-1 .5.5.5.5 2 .5 2 .5h2 2l1.5-1 1.5-1 1-1 1-1-.5-2-.5-2-.5-1.5-.5-1.5-.5 1.5-.5 1.5-1 .5-1 .5.5 1.5.5 1.5-2 .5-2 .5-.5-1.5-.5-1.5-1.5-1-1.5-1-.5.5-.5.5-.5 2-.5 2-.5 1-.5 1"/></g><path d="m264 238v1h2 2 2 2l2-.5 2-.5.5-1 .5-1h1.5 1.5l.5-2.5.5-2.5v-1.5-1.5-2-2l-.5 2.5-.5 2.5-1 .5-1 .5h-1-1l-.5 1.5-.5 1.5-1 .5-1 .5h-1-1l-.5-.5-.5-.5h-1-1l-1-.5-1-.5h-1-1l-.5.5-.5.5v1 1l.5 1.5.5 1.5" style="fill:#babaaa;stroke:#babaaa"/><path d="m360 238h2l.5-1.5.5-1.5v-2.5-2.5l-.5-1.5-.5-1.5-2 1-2 1-1 .5-1 .5-.5 1-.5 1 1.5 1.5 1.5 1.5 1 1.5 1 1.5" style="fill:#60605e;stroke:#60605e"/><path d="m211 237l3 1-.5-1.5-.5-1.5 1-.5 1-.5.5-1.5.5-1.5-.5-3-.5-3-.5-1.5-.5-1.5-1-1.5-1-1.5-.5-.5-.5-.5-1 1-1 1-.5 2-.5 2-.5 1.5-.5 1.5v2.5 2.5l1 1 1 1 1 1.5 1 1.5" style="fill:#757366;stroke:#757366"/><path d="m259 234l1 1 5-6 5-6 2.5-1.5 2.5-1.5 3.5-6 3.5-6v-3.5-3.5l-5 8.5-5 8.5-3.5-.5-3.5-.5-3 8.5-3 8.5" style="fill:#7c7a83;stroke:#7c7a83"/><path d="m550 234l5-17-2-3-2-3-.5 9-.5 9v2.5 2.5" style="fill:#f1eed0;stroke:#f1eed0"/><path d="m7 224v1h.5.5l.5-2.5.5-2.5v-2.5-2.5l-.5-1-.5-1-2-.5-2-.5v2.5 2.5l.5 1 .5 1v2 2l1 .5 1 .5" style="fill:#4e4c42;stroke:#4e4c42"/><path d="m235 223l3 1h2 2l1-.5 1-.5h-2-2l-1-1.5-1-1.5-.5-1.5-.5-1.5h-1.5-1.5l-.5.5-.5.5-.5-1.5-.5-1.5v-1.5-1.5l1 1 1 1 .5-1 .5-1-.5-2-.5-2-1.5.5-1.5.5-.5 1.5-.5 1.5-.5 2-.5 2 .5 1.5.5 1.5v2 2h2.5 2.5" style="fill:#60605e;stroke:#60605e"/><path d="m657 223l2-20v-10-10l-1.5 7-1.5 7v10 10l.5 3 .5 3" style="fill:#373428;stroke:#373428"/><path d="m329 222l2 1-1.5-12.5-1.5-12.5-7-4-7-4-8.5-1-8.5-1 1.5 1.5 1.5 1.5 1.5 1 1.5 1 1 1 1 1 1.5 1 1.5 1 1 1 1 1 .5 1 .5 1 1 .5 1 .5h1 1l.5 1 .5 1 .5-.5.5-.5.5-.5.5-.5h1 1l.5 1 .5 1 .5.5.5.5.5.5.5.5.5.5.5.5v1.5 1.5h1 1l.5 1.5.5 1.5.5 2 .5 2 .5 2.5.5 2.5" style="fill:#757366;stroke:#757366"/><path d="m3 220l1-3v-2.5-2.5l2 .5 2 .5v-13.5-13.5l-1-10-1-10-.5-10.5-.5-10.5v11.5 11.5l-1 15.5-1 15.5-1.5-.5-1.5-.5v3 3 2 2 2 2 2.5 2.5l1.5 1.5 1.5 1.5" style="fill:#373428;stroke:#373428"/><path d="m326 212l1 1-.5-1.5-.5-1.5h-1-1v-1.5-1.5l-.5-.5-.5-.5-.5-.5-.5-.5-.5-.5-.5-.5-.5-1-.5-1h-1-1l-.5.5-.5.5-.5.5-.5.5-.5-1-.5-1h-1-1l-1-.5-1-.5 1 2 1 2 1 1 1 1 1.5 1 1.5 1 1 1 1 1 1.5.5 1.5.5h1.5 1.5" style="fill:#7c7a83;stroke:#7c7a83"/><path d="m579 208h24l6-4 6-4-10-1.5-10-1.5-10.5-.5-10.5-.5-8 1-8 1h17.5 17.5l8.5 1.5 8.5 1.5-4 3-4 3h-10.5-10.5-9.5-9.5l1-.5 1-.5 2 .5 2 .5 1.5.5 1.5.5h2 2 2 2" style="fill:#d7d7c1;stroke:#d7d7c1"/><path d="m3 199l2-31v-11.5-11.5-.5-.5-2.5-2.5-2.5-2.5-1-1-2-2l2-.5 2-.5h2 2l-.5-1-.5-1-1.5-.5-1.5-.5-2-.5-2-.5-1.5-.5-1.5-.5-1-.5-1-.5v12 12 11 11 11 11 4.5 4.5l1.5.5 1.5.5" style="fill:#785a2e;stroke:#785a2e"/><path d="m1 196l3-19-.5-9.5-.5-9.5-1 2.5-1 2.5.5 10.5.5 10.5-.5 6-.5 6" style="fill:#917245;stroke:#917245"/><g style="fill:#262110;stroke:#262110"><path d="m199 165l15-1 1.5-3.5 1.5-3.5 5 .5 5 .5 7 2 7 2 5.5-1.5 5.5-1.5v-3-3l-9.5-1.5-9.5-1.5-9.5-.5-9.5-.5-7.5 2-7.5 2v6 6"/><path d="m153 159l13-4-9-2-9-2 1.5 2 1.5 2-1 1-1 1 1 .5 1 .5 1 .5 1 .5"/><path d="m169 158l14-6-7 2-7 2v1 1"/><path d="m429 152l3-9-6 2-6 2 4.5 2.5 4.5 2.5"/><path d="m446 150l17 1-5.5-3.5-5.5-3.5-3 3-3 3"/></g><g style="fill:#373428;stroke:#373428"><path d="m618 148l15-9-7.5 2.5-7.5 2.5v2 2"/><path d="m122 146l3 1 1-1 1-1-.5-1-.5-1-.5-2-.5-2-1.5-1-1.5-1-1.5.5-1.5.5-.5.5-.5.5-.5 1-.5 1 .5 1.5.5 1.5 2 1 2 1"/></g><path d="m241 136l-1-3h-10-10l-9.5-1.5-9.5-1.5-10.5-.5-10.5-.5-10.5-1-10.5-1h-11-11l-10-1-10-1h2.5 2.5l2 .5 2 .5 1.5.5 1.5.5 2 .5 2 .5 1.5.5 1.5.5h9.5 9.5l10 1 10 1 10.5 1.5 10.5 1.5h14 14l8.5 1 8.5 1" style="fill:#4e4c42;stroke:#4e4c42"/><path d="m107 133h3 2.5 2.5l1-.5 1-.5h2 2 2.5 2.5l1.5-.5 1.5-.5 2-.5 2-.5 1.5-.5 1.5-.5-1.5-.5-1.5-.5-2-.5-2-.5-1.5-.5-1.5-.5-2-.5-2-.5h-2.5-2.5-2-2-2-2l-1 .5-1 .5h-1-1l-1.5.5-1.5.5-1 .5-1 .5v1.5 1.5l1 .5 1 .5.5.5.5.5h2 2" style="fill:#917245;stroke:#917245"/><g style="fill:#785a2e;stroke:#785a2e"><path d="m163 133l3 1 1-1 1-1 1 .5 1 .5h1 1 2 2 1.5 1.5 1 1l1.5.5 1.5.5h1.5 1.5 1 1 2 2 1.5 1.5l-10.5-1.5-10.5-1.5-10-1-10-1h-9.5-9.5l-1.5.5-1.5.5-2 .5-2 .5-1.5.5-1.5.5h-2.5-2.5-2-2l-1 .5-1 .5h.5.5l13-.5 13-.5 10.5.5 10.5.5"/><path d="m64 131h2l-2.5-3-2.5-3h-10-10l-5 2.5-5 2.5 1.5.5 1.5.5h2.5 2.5 2 2 2.5 2.5 2 2 2.5 2.5 2 2 1.5 1.5"/></g><path d="m20 124l2-14-.5-8.5-.5-8.5h-10.5-10.5v2.5 2.5 2.5 2.5 2 2 2.5 2.5 2 2 1.5 1.5l1 .5 1 .5 1 .5 1 .5.5.5.5.5h1 1l.5.5.5.5h1.5 1.5 1 1l.5.5.5.5h1 1 2 2" style="fill:#262110;stroke:#262110"/><path d="m56 123l3 1 .5-.5.5-.5h1 1l.5-1 .5-1 .5-.5.5-.5v-1.5-1.5l-2-1-2-1-2.5.5-2.5.5-.5 1-.5 1-1 1-1 1 .5 1.5.5 1.5h1.5 1.5" style="fill:#4e4c42;stroke:#4e4c42"/><path d="m359 122l9-5-5.5-1.5-5.5-1.5 1 4 1 4" style="fill:#373428;stroke:#373428"/><path d="m28 111l3 1 1.5-.5 1.5-.5.5-2 .5-2 .5-1.5.5-1.5v-1.5-1.5l-1.5-.5-1.5-.5.5 2 .5 2-1 1-1 1 1 1 1 1h-1.5-1.5l-1-.5-1-.5-1.5-.5-1.5-.5v-1-1-1-1-2-2l-.5 1-.5 1-.5 1.5-.5 1.5.5 2 .5 2 .5 1.5.5 1.5 1 .5 1 .5" style="fill:#d7d7c1;stroke:#d7d7c1"/><path d="m31 108h3l-1-1-1-1 1-1 1-1-.5-2-.5-2-1.5-.5-1.5-.5-1.5-.5-1.5-.5h-.5-.5v2 2 1 1 1 1l1.5.5 1.5.5 1 .5 1 .5" style="fill:#f1eed0;stroke:#f1eed0"/><path d="m18 91l4 1h1.5 1.5l.5-.5.5-.5h2 2 2 2l2.5.5 2.5.5h11.5 11.5 10 10l-3.5-2.5-3.5-2.5h-10.5-10.5-10-10l-9.5.5-9.5.5 1.5 1.5 1.5 1.5" style="fill:#785a2e;stroke:#785a2e"/><path d="m694 66h3l1.5-.5 1.5-.5 1.5-.5 1.5-.5 1.5-1 1.5-1 1-1 1-1h1 1l1-.5 1-.5v-1.5-1.5l-1 .5-1 .5-1.5.5-1.5.5h-1.5-1.5l1-2 1-2-1 .5-1 .5-1 1-1 1-1.5 1-1.5 1h-2-2l-2 .5-2 .5-1 1-1 1 1 1.5 1 1.5 1.5.5 1.5.5" style="fill:#373428;stroke:#373428"/><path d="m704 58h3l1.5-.5 1.5-.5 1-.5 1-.5v-2.5-2.5-1-1l-1 .5-1 .5-.5.5-.5.5-.5.5-.5.5-1 1-1 1-1 2-1 2" style="fill:#4e4c42;stroke:#4e4c42"/><g style="fill:#373428;stroke:#373428"><path d="m657 46l3 1h2 2l1.5-1 1.5-1-.5-1.5-.5-1.5-2-.5-2-.5-1.5.5-1.5.5-2 .5-2 .5.5 1.5.5 1.5h.5.5"/><path d="m25 23l20-2 3-3 3-3-4.5-6-4.5-6-2 2-2 2-1.5 5.5-1.5 5.5-5 2.5-5 2.5"/></g></g></svg>