<svg xmlns="http://www.w3.org/2000/svg" viewBox="0 0 960 720"><path d="m0 0h960v720h-960z" style="fill:#a59887"/><g style="stroke-linejoin:round;stroke-width:.7"><path d="m959 720h1v-23.5-23.5-22.5-22.5-22-22-22.5-22.5-15-15h-.5-.5l-9-11-9-11-11.5-10.5-11.5-10.5-11-11-11-11-21.5-8-21.5-8-1.5-1-1.5-1-1-1-1-1v-1.5-1.5l-1.5-.5-1.5-.5-1.5.5-1.5.5-1.5-1-1.5-1-1.5-.5-1.5-.5-1.5-1-1.5-1-.5-1-.5-1-.5-1.5-.5-1.5-.5-.5-.5-.5-1-.5-1-.5-1-1-1-1-.5-.5-.5-.5-.5-1.5-.5-1.5-1-1-1-1-1-1-1-1-1.5-1-1.5-1 .5 2 .5 2 1 1 1 1 1 1.5 1 1.5 1 1 1 1 1 1.5 1 1.5 1 1.5 1 1.5 10 10 10 10 11 4 11 4 1.5 3 1.5 3 5.5 2.5 5.5 2.5 8.5 6 8.5 6 7 8 7 8 9 9 9 9-.5 5-.5 5 5.5 8.5 5.5 8.5 1.5 8 1.5 8 5 8 5 8-3.5 8.5-3.5 8.5 1.5 10 1.5 10v12 12l2.5 7 2.5 7-.5 24.5-.5 24.5-8 9.5-8 9.5-12 6-12 6 3.5 3.5 3.5 3.5h1.5 1.5 2.5 2.5 2 2 2 2 2.5 2.5 2 2 2.5 2.5 2 2 1 1" style="fill:#7b6749;stroke:#7b6749"/><path d="m959 509h1v-23.5-23.5-21.5-21.5h-.5-.5l-5.5-7-5.5-7-2.5-11-2.5-11-7.5-3.5-7.5-3.5h-10-10l-12.5 10-12.5 10-10.5 8-10.5 8-.5 1-.5 1v1.5 1.5l-1 1-1 1-1 1-1 1-1.5 1-1.5 1-1 1-1 1 .5 1.5.5 1.5 21.5 8 21.5 8 11 11 11 11 11.5 10.5 11.5 10.5 9 11 9 11" style="fill:#77532c;stroke:#77532c"/><path d="m959 419h1v-23.5-23.5-22.5-22.5-15.5-15.5h-.5-.5l-6 9.5-6 9.5-12.5 8.5-12.5 8.5-11 11.5-11 11.5-11.5 10.5-11.5 10.5-8.5 17.5-8.5 17.5 1 .5 1 .5 10.5-8 10.5-8 12.5-10 12.5-10h10 10l7.5 3.5 7.5 3.5 2.5 11 2.5 11 5.5 7 5.5 7" style="fill:#583e21;stroke:#583e21"/><path d="m959 296h1v-1.5-1.5-2-2-2.5-2.5-2-2-.5-.5h-.5-.5l-9-11-9-11-12.5-7.5-12.5-7.5-7-11.5-7-11.5-13-6-13-6 4.5-1 4.5-1 5-6 5-6v.5.5l1 .5 1 .5-.5 1-.5 1-26 11.5-26 11.5 9.5 11 9.5 11 9.5 10 9.5 10 7 9 7 9 7.5 13.5 7.5 13.5-7 14-7 14-10 12-10 12-8.5 13-8.5 13-14 14.5-14 14.5.5 1 .5 1 1.5 1 1.5 1 1.5.5 1.5.5 1.5 1 1.5 1 1.5-.5 1.5-.5 1.5.5 1.5.5.5-1 .5-1 1.5-.5 1.5-.5 1-1 1-1 1.5-1 1.5-1 1.5-1.5 1.5-1.5 8.5-17.5 8.5-17.5 11.5-10.5 11.5-10.5 11-11.5 11-11.5 12.5-8.5 12.5-8.5 6-9.5 6-9.5" style="fill:#77532c;stroke:#77532c"/><path d="m959 279h1v-1.5-1.5-2-2-2.5-2.5-2-2-2.5-2.5-2-2-2.5-2.5-2-2-2-2-.5-.5h-.5-.5l-9.5-6-9.5-6-6-4-6-4-8-11.5-8-11.5-1-.5-1-.5-1-.5-1-.5h-1-1l-1-.5-1-.5-1-1-1-1h-1.5-1.5-.5-.5-1.5-1.5v.5.5l-5 6-5 6-4.5 1-4.5 1 13 6 13 6 7 11.5 7 11.5 12.5 7.5 12.5 7.5 9 11 9 11" style="fill:#583e21;stroke:#583e21"/><path d="m959 240h1v-1.5-1.5-2-2-2.5-2.5h-.5-.5l-7-7-7-7-16.5-8.5-16.5-8.5 8 11.5 8 11.5 6 4 6 4 9.5 6 9.5 6" style="fill:#3e3321;stroke:#3e3321"/><path d="m959 228h1v-1.5-1.5-2-2-2.5-2.5-2-2-1-1h-.5-.5l.5-3 .5-3v-1.5-1.5h-.5-.5l-19-2-19-2-17-5.5-17-5.5-13.5-6.5-13.5-6.5-8.5-13.5-8.5-13.5-9-3.5-9-3.5 4-5 4-5 17.5-5 17.5-5 18.5-2.5 18.5-2.5 10 3 10 3-7 14.5-7 14.5 9.5 11.5 9.5 11.5 15-1 15-1v-1-1h-.5-.5l-8-1.5-8-1.5-9-1.5-9-1.5-3-14-3-14 5.5-13.5 5.5-13.5 15-20.5 15-20.5v-22.5-22.5-10.5-10.5h-11.5-11.5-22.5-22.5-22-22-22-22-8-8l-2 .5-2 .5.5.5.5.5.5.5.5.5.5.5.5.5-5.5 13.5-5.5 13.5-6-2-6-2-9 11-9 11-13-9.5-13-9.5.5-8.5.5-8.5 18-6.5 18-6.5h-3-3-1.5-1.5l-.5.5-.5.5-18 5-18 5 2 7.5 2 7.5 11.5 10.5 11.5 10.5-12.5 6.5-12.5 6.5-18-1.5-18-1.5-36-4.5-36-4.5-.5.5-.5.5 2 11 2 11 14 2 14 2 8.5 1 8.5 1 12 4 12 4 14 5 14 5 12-9.5 12-9.5 19-12 19-12 .5 1.5.5 1.5v1 1l.5 1 .5 1 .5 1.5.5 1.5.5.5.5.5.5 1 .5 1 1 1.5 1 1.5 10.5 12 10.5 12 15.5 12 15.5 12-.5 1-.5 1-.5 1-.5 1v2 2l-.5.5-.5.5-2 .5-2 .5-2.5 1-2.5 1-10.5 8-10.5 8 3.5 5.5 3.5 5.5 7-1 7-1 14.5 6.5 14.5 6.5 28 13 28 13h1.5 1.5l1 1 1 1 1 .5 1 .5h1 1l1 .5 1 .5 1 .5 1 .5 16.5 8.5 16.5 8.5 7 7 7 7" style="fill:#36230f;stroke:#36230f"/><path d="m959 210h1v-1.5-1.5-1.5-1.5l-.5 3-.5 3" style="fill:#3e3321;stroke:#3e3321"/><path d="m959 201h1v-1.5-1.5-2-2-2.5-2.5-2-2-2.5-2.5-2-2-2.5-2.5-.5-.5l-15 1-15 1-9.5-11.5-9.5-11.5 7-14.5 7-14.5-10-3-10-3-18.5 2.5-18.5 2.5-17.5 5-17.5 5-4 5-4 5 9 3.5 9 3.5 8.5 13.5 8.5 13.5 13.5 6.5 13.5 6.5 17 5.5 17 5.5 19 2 19 2" style="fill:#171104;stroke:#171104"/><path d="m959 168h1v-1.5-1.5-2-2-2-2h-.5-.5l-11.5 1.5-11.5 1.5-4-6-4-6 2-14.5 2-14.5 14-20.5 14-20.5v-3-3-2-2-1-1l-15 20.5-15 20.5-5.5 13.5-5.5 13.5 3 14 3 14 9 1.5 9 1.5 8 1.5 8 1.5" style="fill:#3e3321;stroke:#3e3321"/><path d="m959 157h1v-23.5-23.5-16-16l-14 20.5-14 20.5-2 14.5-2 14.5 4 6 4 6 11.5-1.5 11.5-1.5" style="fill:#583e21;stroke:#583e21"/><path d="m956 682l1-49-2.5-7-2.5-7v-12-12l-1.5-10-1.5-10 3.5-8.5 3.5-8.5-5-8-5-8-1.5-8-1.5-8-5.5-8.5-5.5-8.5.5-5 .5-5-9-9-9-9-7-8-7-8-8.5-6-8.5-6-5.5-2.5-5.5-2.5-1.5-3-1.5-3-11-4-11-4-10-10-10-10-10 10.5-10 10.5 1.5 4.5 1.5 4.5 13 1 13 1 16 .5 16 .5-12 4-12 4 16.5 2 16.5 2 .5 1.5.5 1.5 2-.5 2-.5h2 2l2 .5 2 .5 1.5-.5 1.5-.5v1 1l-.5 1.5-.5 1.5-1 1.5-1 1.5-1 1-1 1v1.5 1.5l1-.5 1-.5h1 1l1-.5 1-.5 1-.5 1-.5.5 1.5.5 1.5 1.5 1 1.5 1 1 1 1 1 .5.5.5.5-1.5 1.5-1.5 1.5-2-.5-2-.5-1-1-1-1 4.5 8.5 4.5 8.5-3 2.5-3 2.5 3.5 4.5 3.5 4.5-8 9.5-8 9.5 2.5 9.5 2.5 9.5 9 9 9 9-9 2.5-9 2.5 7.5 3.5 7.5 3.5-2 8.5-2 8.5-2 9-2 9-1 12-1 12-1.5 4-1.5 4 14.5.5 14.5.5-11 4.5-11 4.5-2 5.5-2 5.5-3 9-3 9 9.5 4 9.5 4-11.5 1.5-11.5 1.5-6 5-6 5-16.5 7.5-16.5 7.5h24.5 24.5 15 15l-3.5-3.5-3.5-3.5 12-6 12-6 8-9.5 8-9.5" style="fill:#817563;stroke:#817563"/><path d="m925 646l-29-1 1.5-4 1.5-4 1-12 1-12 2-9 2-9 2-8.5 2-8.5-7.5-3.5-7.5-3.5 9-2.5 9-2.5-9-9-9-9-2.5-9.5-2.5-9.5 8-9.5 8-9.5-3.5-4.5-3.5-4.5 3-2.5 3-2.5-4.5-8.5-4.5-8.5-1-1-1-1-.5-1-.5-1 .5-.5.5-.5 1-1 1-1-1 .5-1 .5h-1-1l-1 .5-1 .5-.5-1.5-.5-1.5-.5-.5-.5-.5 1-1.5 1-1.5 1-1 1-1-.5-1-.5-1-1.5.5-1.5.5-2-.5-2-.5h-2-2l-1.5-.5-1.5-.5 1-1.5 1-1.5-16.5-2-16.5-2 12-4 12-4-16-.5-16-.5-13-1-13-1-1.5-4.5-1.5-4.5 10-10.5 10-10.5-1-1.5-1-1.5-1-1.5-1-1.5-1-1-1-1-1-1.5-1-1.5-1-1-1-1-9.5-26-9.5-26v-20-20l6-19 6-19 6.5-16 6.5-16 .5-2.5.5-2.5 1-1.5 1-1.5 1-1 1-1 1-1 1-1 1-1.5 1-1.5 1-1 1-1 1-1.5 1-1.5 1-1 1-1 1-1.5 1-1.5-5-5-5-5-5.5-7.5-5.5-7.5-17-5.5-17-5.5-15.5-5.5-15.5-5.5-18-4-18-4-19.5-3-19.5-3-16.5-5.5-16.5-5.5-15-7.5-15-7.5-12-10-12-10-13.5-4.5-13.5-4.5-16.5-3-16.5-3-3 7-3 7 12.5 10 12.5 10 11 11 11 11-1.5 6.5-1.5 6.5-11.5-9-11.5-9-13.5-8.5-13.5-8.5-14.5-8-14.5-8-14.5-1.5-14.5-1.5-13.5 7.5-13.5 7.5-7.5 15-7.5 15-5 9-5 9-4 1.5-4 1.5-8 10-8 10-1.5 4.5-1.5 4.5-9.5-1-9.5-1-11.5 10.5-11.5 10.5-10 2-10 2 5.5 17 5.5 17 1 1 1 1 .5 1.5.5 1.5v2 2 1 1l1 1.5 1 1.5 1 5 1 5 1-1.5 1-1.5 1.5 1 1.5 1 1 1 1 1 1.5 1 1.5 1 .5 1.5.5 1.5.5 1.5.5 1.5.5.5.5.5 1.5 1 1.5 1-8-15.5-8-15.5-2-15.5-2-15.5 10.5 10.5 10.5 10.5 1.5-6 1.5-6 4.5-10.5 4.5-10.5 10.5 6.5 10.5 6.5 3-4.5 3-4.5 6.5-3.5 6.5-3.5-3.5-13-3.5-13 12 3 12 3-1-9-1-9 5.5-6 5.5-6 4-13 4-13 13.5-7 13.5-7 14-1 14-1 14.5 6.5 14.5 6.5 13 9.5 13 9.5 12 10 12 10 12.5 10 12.5 10 12.5 9.5 12.5 9.5 11 11 11 11 3.5-1 3.5-1-9.5-12.5-9.5-12.5-7.5-13-7.5-13-3-12-3-12 3.5-3.5 3.5-3.5h6.5 6.5l10 10 10 10 12 10 12 10 12 6.5 12 6.5 6 2 6 2-7.5 7-7.5 7 9.5 4.5 9.5 4.5 3-7 3-7-5.5-12-5.5-12-11-10-11-10-12.5-10-12.5-10 14.5 1.5 14.5 1.5 19 3 19 3 17 5.5 17 5.5 12 8 12 8 10 7.5 10 7.5 1 9 1 9 1 8 1 8-6 16.5-6 16.5-5.5 16.5-5.5 16.5-1 21.5-1 21.5 2 16 2 16-4-5-4-5-9-13.5-9-13.5-9-13-9-13 2.5 8 2.5 8 9 13 9 13 4.5 8.5 4.5 8.5-9.5 4-9.5 4 9 11 9 11 2 9.5 2 9.5-12.5 4.5-12.5 4.5 14.5 5.5 14.5 5.5 4.5 5 4.5 5-14.5 7.5-14.5 7.5-6.5 6-6.5 6 13.5-7.5 13.5-7.5 6 2 6 2-3.5 5-3.5 5 9 7 9 7 2 4 2 4 3 6.5 3 6.5-2.5 6.5-2.5 6.5 4.5 7 4.5 7 7.5 6.5 7.5 6.5-3 9-3 9v7 7l.5 9 .5 9-3.5 5.5-3.5 5.5 1 8.5 1 8.5-9.5 9.5-9.5 9.5-12.5 6.5-12.5 6.5-4.5 5-4.5 5 6.5-3.5 6.5-3.5 9.5 5 9.5 5 8.5 1.5 8.5 1.5-7.5 6.5-7.5 6.5-13 5.5-13 5.5-14 5.5-14 5.5h24.5 24.5 20.5 20.5l16.5-7.5 16.5-7.5 6-5 6-5 11.5-1.5 11.5-1.5-9.5-4-9.5-4 3-9 3-9 2-5.5 2-5.5 11-4.5 11-4.5" style="fill:#93826d;stroke:#93826d"/><path d="m918 40l1-3-1-1-1-1-2-.5-2-.5-1.5-.5-1.5-.5-2-.5-2-.5-.5 1.5-.5 1.5 1.5 1 1.5 1h1 1l1 1 1 1 2 .5 2 .5h1 1" style="fill:#171104;stroke:#171104"/><path d="m911 307l-15-27-7-9-7-9-9.5-10-9.5-10-9.5-11-9.5-11-3 8.5-3 8.5 6.5 14 6.5 14 9 9.5 9 9.5 7 13.5 7 13.5-3 12-3 12-7 9-7 9-8 7.5-8 7.5-1 7-1 7-10.5 10.5-10.5 10.5.5 1.5.5 1.5.5.5.5.5 1 1 1 1 1 .5 1 .5.5.5.5.5.5 1.5.5 1.5 14-14.5 14-14.5 8.5-13 8.5-13 10-12 10-12 7-14 7-14" style="fill:#896836;stroke:#896836"/><path d="m904 479l-1-1-1-1-1-1-1.5-1-1.5-1-.5-1.5-.5-1.5-1 .5-1 .5-1 1-1 1-.5.5-.5.5.5 1 .5 1 1 1 1 1 1 1 1 1 2 .5 2 .5 1.5-1.5 1.5-1.5" style="fill:#987549;stroke:#987549"/><path d="m898 192h1l-28-13-28-13-14.5-6.5-14.5-6.5-7 1-7 1-3.5-5.5-3.5-5.5 10.5-8 10.5-8-19-1-19-1-14.5-5.5-14.5-5.5-16.5-5-16.5-5 7-12 7-12 19.5-14.5 19.5-14.5-19 12-19 12-12 9.5-12 9.5-14-5-14-5-12-4-12-4-8.5-1-8.5-1-14-2-14-2-2-11-2-11-1 .5-1 .5-1 1-1 1h-2-2l-1.5-.5-1.5-.5-2 .5-2 .5-.5 1.5-.5 1.5 1 1 1 1 .5.5.5.5v1 1l.5.5.5.5.5.5.5.5.5 1 .5 1 .5.5.5.5.5.5.5.5.5.5.5.5v1 1l.5 1 .5 1 .5.5.5.5.5.5.5.5.5.5.5.5.5 1 .5 1 .5.5.5.5 1 .5 1 .5 12 7 12 7 13 7 13 7 13 7 13 7 13.5 7 13.5 7 16 5 16 5 12 2.5 12 2.5 12-2 12-2-1 1-1 1-1 1-1 1-.5 2-.5 2 .5 1.5.5 1.5-.5 2-.5 2v2 2l1 1.5 1 1.5 1.5.5 1.5.5 2 .5 2 .5 2 .5 2 .5 28.5 6.5 28.5 6.5 21 4.5 21 4.5h1.5 1.5" style="fill:#3e3321;stroke:#3e3321"/><path d="m896 197l1-2-1-.5-1-.5h-.5-.5l-19.5-.5-19.5-.5-11-5-11-5-17.5-5-17.5-5-17.5-4.5-17.5-4.5-16.5-5.5-16.5-5.5-19.5-10-19.5-10 15 9 15 9 15.5 5.5 15.5 5.5 17.5 5 17.5 5 16.5 5.5 16.5 5.5 24 7 24 7-1 .5-1 .5-1.5.5-1.5.5-.5.5-.5.5-1 .5-1 .5-1.5.5-1.5.5-.5.5-.5.5-1 .5-1 .5-1 1-1 1-.5.5-.5.5-1 .5-1 .5-1 1-1 1-.5.5-.5.5-1 .5-1 .5-1.5 1-1.5 1-1 1.5-1 1.5-1 1-1 1-1 1.5-1 1.5-1 1-1 1-1 1.5-1 1.5-1 1-1 1-1 1-1 1-1 1.5-1 1.5-.5 2.5-.5 2.5 1-.5 1-.5 1-1 1-1 1-1.5 1-1.5h2 2l1 1.5 1 1.5 1 .5 1 .5 3-8.5 3-8.5 26-11.5 26-11.5" style="fill:#7b6749;stroke:#7b6749"/><path d="m894 463v-2l-1.5.5-1.5.5-2-.5-2-.5h-2-2l-2 .5-2 .5-.5-1.5-.5-1.5-1 1.5-1 1.5 1.5.5 1.5.5h2 2l2 .5 2 .5 1.5-.5 1.5-.5.5 1 .5 1-1 1-1 1-1 1.5-1 1.5.5.5.5.5.5 1.5.5 1.5v-1.5-1.5l1-1 1-1 1-1.5 1-1.5.5-1.5.5-1.5" style="fill:#987549;stroke:#987549"/><path d="m894 194h1v-.5-.5-.5-.5l-21-4.5-21-4.5h-.5-.5l-28-6.5-28-6.5-2-.5-2-.5-2-.5-2-.5-1.5-.5-1.5-.5-17.5-6.5-17.5-6.5-16.5-5.5-16.5-5.5-15-7.5-15-7.5-15.5-6.5-15.5-6.5-25.5-18.5-25.5-18.5-1-.5-1-.5-.5-.5-.5-.5-.5-1-.5-1-.5-.5-.5-.5-.5-.5-.5-.5-.5-.5-.5-.5-.5-1-.5-1v-1-1l-.5-.5-.5-.5-.5-.5-.5-.5-.5-.5-.5-.5-.5-1-.5-1-.5-.5-.5-.5-.5-.5-.5-.5v-1-1l-.5-.5-.5-.5-1-1-1-1-.5-1-.5-1v-2-2h-2.5-2.5l-1.5.5-1.5.5-1.5 1-1.5 1-1 1-1 1-1 1-1 1 1 1 1 1 .5.5.5.5-19.5 3.5-19.5 3.5-19-.5-19-.5-19.5 3.5-19.5 3.5-14 8.5-14 8.5-14.5 22.5-14.5 22.5-.5 1-.5 1-1 1.5-1 1.5-1 1-1 1-1 1.5-1 1.5-1 1-1 1-.5.5-.5.5-.5 1-.5 1-1 1-1 1-1.5.5-1.5.5-1 1.5-1 1.5-1 1-1 1-2 1.5-2 1.5-.5 1-.5 1-17 9.5-17 9.5-1.5 1-1.5 1-.5.5-.5.5-.5 1-.5 1-1 1-1 1-.5.5-.5.5-1 1-1 1-.5 1-.5 1-.5 2-.5 2v1.5 1.5l-.5 1.5-.5 1.5v.5.5l-7-6.5-7-6.5-.5.5-.5.5-.5 1-.5 1-.5 1.5-.5 1.5-.5.5-.5.5-.5.5-.5.5-.5.5-.5.5-.5 1-.5 1v1 1l-.5.5-.5.5v1 1l-.5 1-.5 1v1 1 1.5 1.5l.5 1.5.5 1.5v1.5 1.5l.5 1.5.5 1.5.5 2 .5 2 1 1.5 1 1.5.5 2 .5 2 1 1.5 1 1.5 1.5 1 1.5 1v-1-1l-1-1.5-1-1.5-.5-2-.5-2-.5-1.5-.5-1.5-.5-2-.5-2-.5-1-.5-1 12-1.5 12-1.5 7.5-13.5 7.5-13.5 12-7.5 12-7.5 11-7 11-7 3.5-8 3.5-8 6-12.5 6-12.5 10-13 10-13 12.5-6.5 12.5-6.5 18.5-3 18.5-3 16.5.5 16.5.5h12 12l-1.5-.5-1.5-.5-.5-1-.5-1v-1-1l2-.5 2-.5h2 2l2 .5 2 .5 1.5.5 1.5.5h2 2l.5-.5.5-.5 1.5.5 1.5.5 1-.5 1-.5.5-1 .5-1 .5-.5.5-.5.5-.5.5-.5 1-1 1-1 10.5 5.5 10.5 5.5 21.5 17.5 21.5 17.5 23 10.5 23 10.5 19.5 10 19.5 10 16.5 5.5 16.5 5.5 17.5 4.5 17.5 4.5 17.5 5 17.5 5 11 5 11 5 19.5.5 19.5.5" style="fill:#605444;stroke:#605444"/><path d="m883 311l-14-27-9-9.5-9-9.5-6.5-14-6.5-14-1-.5-1-.5-1-1.5-1-1.5h-2-2l-1 1.5-1 1.5-1 1-1 1-1 .5-1 .5-6.5 16-6.5 16 4.5 2.5 4.5 2.5 6 5 6 5 3.5 9 3.5 9 6.5 7.5 6.5 7.5-6 12.5-6 12.5-8.5 8-8.5 8-12-5.5-12-5.5 9.5 26 9.5 26-.5-2-.5-2 1.5 1 1.5 1 1 1 1 1 1 1 1 1 10.5-10.5 10.5-10.5 1-7 1-7 8-7.5 8-7.5 7-9 7-9 3-12 3-12" style="fill:#987549;stroke:#987549"/><path d="m881 57l-9-23-13-2.5-13-2.5-8.5 5.5-8.5 5.5 3 3.5 3 3.5 15.5 4.5 15.5 4.5-6 14.5-6 14.5-15 3-15 3-7.5-11-7.5-11 11-10 11-10-11 2.5-11 2.5-1.5 13-1.5 13 12 7 12 7 12.5 2.5 12.5 2.5 2.5-8 2.5-8 4-4 4-4 5.5-8 5.5-8 1-1 1-1" style="fill:#3e3321;stroke:#3e3321"/><path d="m868 197l-48-14-16.5-5.5-16.5-5.5-17.5-5-17.5-5-15.5-5.5-15.5-5.5-15-9-15-9-23-10.5-23-10.5h-.5-.5l-14-8.5-14-8.5-17.5-14.5-17.5-14.5-1 1-1 1-.5.5-.5.5-.5.5-.5.5-.5 1-.5 1-1 .5-1 .5-.5 1-.5 1-.5.5-.5.5v1.5 1.5l1 1 1 1 1.5 1 1.5 1 1 1 1 1 .5 1.5.5 1.5h1 1l.5 1 .5 1 .5 1.5.5 1.5h1 1l1 .5 1 .5v1.5 1.5l-16.5-6-16.5-6-28.5-4.5-28.5-4.5-.5.5-.5.5-14.5 6-14.5 6-14.5 4-14.5 4-11.5 12-11.5 12-6 12.5-6 12.5-3.5 8-3.5 8-11 7-11 7-12 7.5-12 7.5-7.5 13.5-7.5 13.5v1 1h-2-2l-1.5-.5-1.5-.5-1-1.5-1-1.5-1-1-1-1-1-1.5-1-1.5-1.5-.5-1.5-.5-1.5 1-1.5 1-1 1-1 1-1 1.5-1 1.5-.5 2-.5 2 .5 1 .5 1 .5 2 .5 2 .5 1.5.5 1.5.5 2 .5 2 1 1.5 1 1.5 1 .5 1 .5.5 2 .5 2 1 1 1 1 1 1.5 1 1.5.5 1.5.5 1.5 1 1.5 1 1.5 1 1 1 1v1.5 1.5l1.5.5 1.5.5-5.5-17-5.5-17 10-2 10-2 11.5-10.5 11.5-10.5 9.5 1 9.5 1 1.5-4.5 1.5-4.5 8-10 8-10 4-1.5 4-1.5 5-9 5-9 7.5-15 7.5-15 13.5-7.5 13.5-7.5 14.5 1.5 14.5 1.5 14.5 8 14.5 8 13.5 8.5 13.5 8.5 11.5 9 11.5 9 1.5-6.5 1.5-6.5-11-11-11-11-12.5-10-12.5-10 3-7 3-7 16.5 3 16.5 3 13.5 4.5 13.5 4.5 12 10 12 10 15 7.5 15 7.5 16.5 5.5 16.5 5.5 19.5 3 19.5 3 18 4 18 4 15.5 5.5 15.5 5.5 17 5.5 17 5.5 5.5 7.5 5.5 7.5 5 5 5 5 1.5-1 1.5-1 1-.5 1-.5.5-.5.5-.5 1-1 1-1 1-.5 1-.5.5-.5.5-.5 1-1 1-1 1-.5 1-.5.5-.5.5-.5 1.5-.5 1.5-.5 1-.5 1-.5.5-.5.5-.5 1.5-.5 1.5-.5 1-.5 1-.5" style="fill:#817563;stroke:#817563"/><path d="m866 56l-31-9-1.5 1-1.5 1h-.5-.5l-11 10-11 10 7.5 11 7.5 11 15-3 15-3 6-14.5 6-14.5" style="fill:#583e21;stroke:#583e21"/><path d="m861 417v-3l.5-1 .5-1-1-.5-1-.5-1.5 1.5-1.5 1.5-1.5 1-1.5 1-1 1-1 1-1.5.5-1.5.5-.5 1-.5 1v1.5 1.5l1 1 1 1 1.5 1 1.5 1-.5-1.5-.5-1.5 1-1 1-1 1.5-1 1.5-1 1-1 1-1 1-1 1-1" style="fill:#605444;stroke:#605444"/><path d="m852 319l-13-15-3.5-9-3.5-9-6-5-6-5-4.5-2.5-4.5-2.5-6 19-6 19v20 20l12 5.5 12 5.5 8.5-8 8.5-8 6-12.5 6-12.5" style="fill:#aa8359;stroke:#aa8359"/><path d="m852 183h1l-28.5-6.5-28.5-6.5 28 6.5 28 6.5" style="fill:#583e21;stroke:#583e21"/><path d="m837 559l-15-13-4.5-7-4.5-7 2.5-6.5 2.5-6.5-3-6.5-3-6.5-2-4-2-4-9-7-9-7 3.5-5 3.5-5-6-2-6-2-13.5 7.5-13.5 7.5 6.5-6 6.5-6 14.5-7.5 14.5-7.5-4.5-5-4.5-5-14.5-5.5-14.5-5.5 12.5-4.5 12.5-4.5-2-9.5-2-9.5-9-11-9-11 9.5-4 9.5-4-4.5-8.5-4.5-8.5-9-13-9-13-2.5-8-2.5-8 9 13 9 13 9 13.5 9 13.5 4 5 4 5-2-16-2-16 1-21.5 1-21.5 5.5-16.5 5.5-16.5 6-16.5 6-16.5-1-8-1-8-1-9-1-9-10-7.5-10-7.5-12-8-12-8-17-5.5-17-5.5-19-3-19-3-14.5-1.5-14.5-1.5 12.5 10 12.5 10 11 10 11 10 5.5 12 5.5 12-3 7-3 7-9.5-4.5-9.5-4.5 7.5-7 7.5-7-6-2-6-2-12-6.5-12-6.5-12-10-12-10-10-10-10-10h-6.5-6.5l-3.5 3.5-3.5 3.5 3 12 3 12 7.5 13 7.5 13 9.5 12.5 9.5 12.5-3.5 1-3.5 1-11-11-11-11-12.5-9.5-12.5-9.5-12.5-10-12.5-10-12-10-12-10-13-9.5-13-9.5-14.5-6.5-14.5-6.5-14 1-14 1-13.5 7-13.5 7-4 13-4 13-5.5 6-5.5 6 1 9 1 9-12-3-12-3 3.5 13 3.5 13-6.5 3.5-6.5 3.5-3 4.5-3 4.5-10.5-6.5-10.5-6.5-4.5 10.5-4.5 10.5-1.5 6-1.5 6-10.5-10.5-10.5-10.5 2 15.5 2 15.5 8 15.5 8 15.5 7.5 11.5 7.5 11.5 11 18 11 18 7 15.5 7 15.5 2 30.5 2 30.5 1.5-20.5 1.5-20.5-2.5-18.5-2.5-18.5-9.5-13-9.5-13-8-14-8-14 4 1 4 1 6.5 8 6.5 8-4-18-4-18-.5-15-.5-15 7.5 2.5 7.5 2.5 8.5 14 8.5 14-1-9-1-9 .5-7.5.5-7.5 12.5 5 12.5 5 16 6 16 6-8.5-8-8.5-8-10-9-10-9 12.5 5.5 12.5 5.5-3.5-13-3.5-13 7.5-6.5 7.5-6.5 1.5-9 1.5-9 10.5-2.5 10.5-2.5-.5-5.5-.5-5.5 12 1.5 12 1.5 12 8 12 8 4-2.5 4-2.5 3-7 3-7h6.5 6.5l12 7 12 7 7 8 7 8 13.5 9 13.5 9 12 10 12 10 11 11.5 11 11.5 10.5 10.5 10.5 10.5 6.5 8.5 6.5 8.5 5.5 13 5.5 13 6 23 6 23-2.5 9-2.5 9-4.5 12-4.5 12-16-4-16-4 11.5 7 11.5 7 1 7 1 7-8 6-8 6-15.5-3-15.5-3-16-6-16-6-13.5-9-13.5-9-8.5-6.5-8.5-6.5 9 13.5 9 13.5 9.5 12.5 9.5 12.5 9 13 9 13v15.5 15.5l-5.5 3.5-5.5 3.5-5-8.5-5-8.5-7 15-7 15-11.5 7.5-11.5 7.5-4-13.5-4-13.5-4.5 6.5-4.5 6.5-13.5-9-13.5-9 1.5-5.5 1.5-5.5-15-4.5-15-4.5 6.5 7.5 6.5 7.5 9.5 8.5 9.5 8.5 13 9.5 13 9.5 11.5 10.5 11.5 10.5-3.5 13-3.5 13h-11-11l-7-10-7-10-4-14.5-4-14.5-18-4-18-4-13.5-9-13.5-9 1 3 1 3 14 8 14 8 1 18.5 1 18.5-1 12-1 12-12-7.5-12-7.5-10.5-11.5-10.5-11.5-8-14.5-8-14.5-7-15-7-15-12-28-12-28v2 2l1 1.5 1 1.5v2 2l.5 2 .5 2 .5 1.5.5 1.5.5 2 .5 2 .5 1.5.5 1.5 1 1 1 1 .5 2 .5 2 .5 1.5.5 1.5.5 1.5.5 1.5 7.5 18 7.5 18 8.5 15 8.5 15 8 14 8 14 6 16 6 16 13.5 4 13.5 4 12.5.5 12.5.5-16.5 5-16.5 5 .5 18.5.5 18.5-13.5 4.5-13.5 4.5 2.5 6 2.5 6 16.5-.5 16.5-.5 19.5-3 19.5-3 16.5 1.5 16.5 1.5-12.5 4.5-12.5 4.5-7.5 6-7.5 6h23.5 23.5 22 22 22.5 22.5 22 22 12 12l14-5.5 14-5.5 13-5.5 13-5.5 7.5-6.5 7.5-6.5-8.5-1.5-8.5-1.5-9.5-5-9.5-5-6.5 3.5-6.5 3.5 4.5-5 4.5-5 12.5-6.5 12.5-6.5 9.5-9.5 9.5-9.5-1-8.5-1-8.5 3.5-5.5 3.5-5.5-.5-9-.5-9v-7-7l3-9 3-9" style="fill:#a59887;stroke:#a59887"/><path d="m826 116l-31-24-10.5-12-10.5-12 10 12.5 10 12.5 14 11.5 14 11.5-2 1-2 1-.5 1-.5 1 1 1 1 1 1 1.5 1 1.5-1 .5-1 .5 2-.5 2-.5.5-.5.5-.5v-2-2l.5-1 .5-1 .5-1 .5-1" style="fill:#3e3321;stroke:#3e3321"/><path d="m822 116l-28-23-10-12.5-10-12.5-1-1.5-1-1.5-.5-1-.5-1-.5-.5-.5-.5-.5-1.5-.5-1.5-.5-1-.5-1v-1-1l-.5-1.5-.5-1.5-19.5 14.5-19.5 14.5-7 12-7 12 16.5 5 16.5 5 14.5 5.5 14.5 5.5 19 1 19 1 2.5-1 2.5-1 1-.5 1-.5-1-1.5-1-1.5-1-1-1-1 .5-1 .5-1 2-1 2-1" style="fill:#583e21;stroke:#583e21"/><g style="fill:#77532c;stroke:#77532c"><path d="m812 113l-25-21-2 1.5-2 1.5 13.5 8.5 13.5 8.5 1 .5 1 .5"/><path d="m807 120l-29-17-10-9.5-10-9.5-5-3-5-3-9.5 7-9.5 7 10 8 10 8 15.5 5.5 15.5 5.5 13.5.5 13.5.5"/></g><path d="m788 145l-24 4-12-2.5-12-2.5-16-5-16-5-13.5-7-13.5-7-13-7-13-7-13-7-13-7-12-7-12-7 25.5 18.5 25.5 18.5 15.5 6.5 15.5 6.5 15 7.5 15 7.5 16.5 5.5 16.5 5.5 17.5 6.5 17.5 6.5-1-1.5-1-1.5v-2-2l.5-2 .5-2-.5-1.5-.5-1.5.5-2 .5-2 1-1 1-1 1-1 1-1" style="fill:#583e21;stroke:#583e21"/><path d="m787 4l-1-1-.5-.5-.5-.5-.5-.5-.5-.5 2-.5 2-.5h-2-2-2.5-2.5-2-2-2.5-2.5-2-2-2-2-2.5-2.5l-18 6.5-18 6.5-.5 8.5-.5 8.5 13 9.5 13 9.5 9-11 9-11 6 2 6 2 5.5-13.5 5.5-13.5" style="fill:#171104;stroke:#171104"/><path d="m776 328l-13-33-9.5-11-9.5-11 6.5 11.5 6.5 11.5 7.5 15 7.5 15 2 1 2 1" style="fill:#93826d;stroke:#93826d"/><path d="m747 1l1-1h-23-23-22.5-22.5-22-22-10-10l-2.5.5-2.5.5.5.5.5.5 2 .5 2 .5 1 1 1 1-.5 1.5-.5 1.5-13.5 14-13.5 14-1 .5-1 .5-1 .5-1 .5h-1-1l-1 .5-1 .5-1.5.5-1.5.5-.5.5-.5.5-.5.5-.5.5h-1-1l-.5 1-.5 1h-1-1l-.5.5-.5.5-.5.5-.5.5-1 .5-1 .5h-1-1l-.5.5-.5.5-.5.5-.5.5-1 .5-1 .5-1 2-1 2-.5 1-.5 1-19 2.5-19 2.5-18.5 3.5-18.5 3.5-8 1-8 1-11.5-7.5-11.5-7.5-17-1.5-17-1.5h-19-19l-9 4-9 4-13.5-9-13.5-9-9 5-9 5-8.5 11-8.5 11-.5 7.5-.5 7.5 1.5 4.5 1.5 4.5-7 3.5-7 3.5-16.5.5-16.5.5-5.5 3-5.5 3-7.5 9.5-7.5 9.5-11.5 11-11.5 11 9.5.5 9.5.5 1 4 1 4-11.5 3-11.5 3-6.5 7.5-6.5 7.5 13 5.5 13 5.5 18 4 18 4 18 3 18 3 19.5 1 19.5 1-3 11-3 11-15.5 7-15.5 7-14 1-14 1-15.5-4-15.5-4-15.5 2.5-15.5 2.5-15 2-15 2-14.5 5-14.5 5-13 9-13 9-11 3.5-11 3.5-3.5 3.5-3.5 3.5-6.5 4.5-6.5 4.5.5 8 .5 8-7 9-7 9 3 7.5 3 7.5-3.5 6.5-3.5 6.5.5 8.5.5 8.5-1 15.5-1 15.5-8.5-4.5-8.5-4.5 8.5 10 8.5 10v9 9l-10.5-6-10.5-6 5 9 5 9-9 6.5-9 6.5v2 2 2.5 2.5 2 2 2.5 2.5 2 2 2 2 2.5 2.5.5.5l6-5 6-5 13-1 13-1-19 17.5-19 17.5v2 2 2 2 1 1l6.5-1 6.5-1-3 13.5-3 13.5 10.5-.5 10.5-.5.5 4.5.5 4.5-2 7.5-2 7.5 5.5 6.5 5.5 6.5 3.5 4 3.5 4-1.5 2.5-1.5 2.5 2 12 2 12 8 7.5 8 7.5-1-17-1-17 8.5-2.5 8.5-2.5 1.5 17 1.5 17 5 15 5 15 10 5.5 10 5.5 11.5 8.5 11.5 8.5 16 15 16 15v.5.5h3.5 3.5 2 2 2 2 2.5 2.5 1 1l-12.5-11-12.5-11 7.5 2.5 7.5 2.5 12 7.5 12 7.5-.5 1-.5 1h23 23 4.5 4.5l-6-8-6-8-7.5-5-7.5-5-9.5-11.5-9.5-11.5-10-12-10-12 1 9.5 1 9.5-1 6-1 6-7 1.5-7 1.5-4.5-3.5-4.5-3.5-5.5-9.5-5.5-9.5-2.5-8-2.5-8-1.5-7.5-1.5-7.5-3.5-13.5-3.5-13.5-5-4.5-5-4.5-9-7-9-7-4-13.5-4-13.5-2.5-10.5-2.5-10.5-6.5-.5-6.5-.5.5-4 .5-4 4-1 4-1-.5-11.5-.5-11.5 3-9.5 3-9.5 2.5 13.5 2.5 13.5 8 14.5 8 14.5 6.5 12.5 6.5 12.5-4.5-14.5-4.5-14.5-6.5-13.5-6.5-13.5-2.5-17.5-2.5-17.5-8-3-8-3-6-.5-6-.5 2-14 2-14 1-8.5 1-8.5 2.5 10.5 2.5 10.5 5 3 5 3-2.5-17-2.5-17-3-15-3-15-1-15.5-1-15.5-2.5-15.5-2.5-15.5 6-15.5 6-15.5 12.5-9.5 12.5-9.5 14.5-3.5 14.5-3.5 16-3.5 16-3.5 15.5 1.5 15.5 1.5 10 5.5 10 5.5 14.5-3.5 14.5-3.5 26-14 26-14-.5-2-.5-2-.5-1.5-.5-1.5v-1.5-1.5l-.5-1.5-.5-1.5-17.5-3-17.5-3-15-4.5-15-4.5-15.5-1.5-15.5-1.5-1.5-9-1.5-9 12.5-4.5 12.5-4.5 11.5-8.5 11.5-8.5 6-6.5 6-6.5-8.5-1.5-8.5-1.5-7.5-3.5-7.5-3.5 10.5-9 10.5-9 16.5-1.5 16.5-1.5 11.5-2 11.5-2-5.5-11.5-5.5-11.5 5.5-7.5 5.5-7.5 13.5 1 13.5 1 12-3 12-3 6-1 6-1 13-.5 13-.5 12.5 6.5 12.5 6.5 5.5-3 5.5-3-9 13.5-9 13.5-24 5.5-24 5.5 15 15 15 15 14.5-22.5 14.5-22.5 14-8.5 14-8.5 20-4 20-4 36.5-4 36.5-4 1-1 1-1 1-1 1-1 1.5-1 1.5-1 1.5-.5 1.5-.5 1.5-.5 1.5-.5h2.5 2.5 2 2 2 2v-1.5-1.5l1-1 1-1 2-.5 2-.5v1 1l-1 1.5-1 1.5 1.5.5 1.5.5 36 4.5 36 4.5 18 1.5 18 1.5 12.5-6.5 12.5-6.5-11.5-10.5-11.5-10.5-2-7.5-2-7.5 18-5 18-5" style="fill:#3e3321;stroke:#3e3321"/><path d="m736 393l-12-46-5.5-13-5.5-13-6.5-8.5-6.5-8.5-10.5-10.5-10.5-10.5-11-11.5-11-11.5-12-10-12-10-13.5-9-13.5-9-7-8-7-8-12-7-12-7h-6.5-6.5l-3 7-3 7-4 2.5-4 2.5-12-8-12-8-12-1.5-12-1.5.5 5.5.5 5.5-10.5 2.5-10.5 2.5-1.5 9-1.5 9-7.5 6.5-7.5 6.5 3.5 13 3.5 13-12.5-5.5-12.5-5.5 10 9 10 9 8.5 8 8.5 8-16-6-16-6-12.5-5-12.5-5-.5 7.5-.5 7.5 1 9 1 9-8.5-14-8.5-14-7.5-2.5-7.5-2.5.5 15 .5 15 4 18 4 18-6.5-8-6.5-8-4-1-4-1 8 14 8 14 9.5 13 9.5 13 2.5 18.5 2.5 18.5-1.5 20.5-1.5 20.5v1.5 1.5l.5.5.5.5v1 1l.5.5.5.5v1.5 1.5l.5.5.5.5.5.5.5.5v1 1l.5 1.5.5 1.5 12 28 12 28 7 15 7 15 8 14.5 8 14.5 10.5 11.5 10.5 11.5 12 7.5 12 7.5 1-12 1-12-1-18.5-1-18.5-14-8-14-8-1-3-1-3 13.5 9 13.5 9 18 4 18 4 4 14.5 4 14.5 7 10 7 10h11 11l3.5-13 3.5-13-11.5-10.5-11.5-10.5-13-9.5-13-9.5-9.5-8.5-9.5-8.5-6.5-7.5-6.5-7.5 15 4.5 15 4.5-1.5 5.5-1.5 5.5 13.5 9 13.5 9 4.5-6.5 4.5-6.5 4 13.5 4 13.5 11.5-7.5 11.5-7.5 7-15 7-15 5 8.5 5 8.5 5.5-3.5 5.5-3.5v-15.5-15.5l-9-13-9-13-9.5-12.5-9.5-12.5-9-13.5-9-13.5 8.5 6.5 8.5 6.5 13.5 9 13.5 9 16 6 16 6 15.5 3 15.5 3 8-6 8-6-1-7-1-7-11.5-7-11.5-7 16 4 16 4 4.5-12 4.5-12 2.5-9 2.5-9" style="fill:#bcb3a7;stroke:#bcb3a7"/><path d="m726 57l-20-26-10.5-8-10.5-8-13.5-3.5-13.5-3.5-9.5 4.5-9.5 4.5 21.5-.5 21.5-.5 9.5 7.5 9.5 7.5 12 12 12 12-1.5 1.5-1.5 1.5h1.5 1.5l.5-.5.5-.5" style="fill:#583e21;stroke:#583e21"/><path d="m725 55l-24-24-9.5-7.5-9.5-7.5-21.5.5-21.5.5-17.5 5-17.5 5-17 5-17 5-9 5.5-9 5.5 17-5 17-5h9 9l13 4.5 13 4.5 3 .5 3 .5h2 2l1.5.5 1.5.5h2.5 2.5l1.5.5 1.5.5h2.5 2.5l1.5.5 1.5.5 2 .5 2 .5h2 2l1 .5 1 .5 2.5.5 2.5.5h2.5 2.5l1.5-.5 1.5-.5h.5.5l1-.5 1-.5 1.5-.5 1.5-.5 1.5-.5 1.5-.5 2 .5 2 .5 1 1 1 1 2 .5 2 .5 1.5.5 1.5.5 2 .5 2 .5 1.5.5 1.5.5 1 .5 1 .5h3.5 3.5 1 1l1.5-1.5 1.5-1.5" style="fill:#605444;stroke:#605444"/><path d="m712 58h1l-1-.5-1-.5-1.5-.5-1.5-.5-2-.5-2-.5-1.5-.5-1.5-.5-2-.5-2-.5-1-1-1-1-2-.5-2-.5-1.5.5-1.5.5-1.5.5-1.5.5-1 .5-1 .5 2.5.5 2.5.5 1 1.5 1 1.5 1.5.5 1.5.5h2.5 2.5 2 2l2-.5 2-.5 1.5.5 1.5.5h1.5 1.5" style="fill:#583e21;stroke:#583e21"/><path d="m698 146l-26-20-16.5-5-16.5-5 7.5 10.5 7.5 10.5 17 4.5 17 4.5h5 5" style="fill:#93826d;stroke:#93826d"/><g style="fill:#bcb3a7;stroke:#bcb3a7"><path d="m696 483l-27-13-16.5-6-16.5-6 .5 6.5.5 6.5 16.5 6 16.5 6h13 13"/><path d="m683 612l1-3-1-1-1-1h-1.5-1.5l-1.5.5-1.5.5-2 .5-2 .5-.5 1.5-.5 1.5 1.5 1 1.5 1 1.5-.5 1.5-.5 1.5-.5 1.5-.5h1.5 1.5"/></g><path d="m679 514v-2h-2-2l-.5 2-.5 2-.5 1.5-.5 1.5-1 1.5-1 1.5-.5 1.5-.5 1.5 2-.5 2-.5 1-1 1-1 1-1 1-1 .5-2 .5-2v-1-1" style="fill:#93826d;stroke:#93826d"/><path d="m668 53h1l-1-.5-1-.5h-2-2l-2-.5-2-.5-1.5-.5-1.5-.5h-2.5-2.5l-1.5-.5-1.5-.5h-2.5-2.5l-1.5-.5-1.5-.5h-2-2l-3-.5-3-.5 2.5 1 2.5 1 1.5.5 1.5.5 2 .5 2 .5h2 2 2.5 2.5l1.5.5 1.5.5h2 2l2 .5 2 .5h2 2 1 1" style="fill:#583e21;stroke:#583e21"/><path d="m666 328l-8-18-8-11.5-8-11.5-8.5-8.5-8.5-8.5-8.5-3-8.5-3 3.5 11.5 3.5 11.5v11 11l-6.5 3-6.5 3-10-10-10-10-9-9.5-9-9.5-7.5-4.5-7.5-4.5-12.5 6.5-12.5 6.5-9.5-5-9.5-5 8.5 13.5 8.5 13.5 11.5 11 11.5 11 11.5 10.5 11.5 10.5 10.5 12 10.5 12 5 13 5 13 12 10 12 10-1-8.5-1-8.5-7.5-13.5-7.5-13.5-9-13.5-9-13.5-11.5-10.5-11.5-10.5 14 5 14 5 13 7.5 13 7.5 11 7 11 7 5.5-1 5.5-1 4-7 4-7 3-6.5 3-6.5" style="fill:#cec6ba;stroke:#cec6ba"/><g style="fill:#7b6749;stroke:#7b6749"><path d="m665 37l-33-3 8.5 5 8.5 5 8-3.5 8-3.5"/><path d="m644 112h1l-21.5-17.5-21.5-17.5-10.5-5.5-10.5-5.5 17.5 14.5 17.5 14.5 14 8.5 14 8.5"/></g><path d="m637 598l-34 8 9.5-2 9.5-2 7.5-2 7.5-2" style="fill:#bcb3a7;stroke:#bcb3a7"/><g style="fill:#583e21;stroke:#583e21"><path d="m629 47h1l-13-4.5-13-4.5 7.5 4 7.5 4 5 .5 5 .5"/><path d="m604 49l1-1-1.5-.5-1.5-.5 1-1.5 1-1.5v-1-1l-2 .5-2 .5-1 1-1 1v1.5 1.5h-2-2-2-2-2.5-2.5l-1.5.5-1.5.5h2.5 2.5v2 2l.5 1 .5 1 .5-1.5.5-1.5 2-.5 2-.5 1.5.5 1.5.5h2 2l1-1 1-1 1-.5 1-.5"/></g><g style="fill:#cec6ba;stroke:#cec6ba"><path d="m601 451l-16-30-10-12.5-10-12.5-10-12-10-12-10.5-12-10.5-12-11.5-10.5-11.5-10.5-10.5-11.5-10.5-11.5-13-9.5-13-9.5 2.5 8.5 2.5 8.5-3 3.5-3 3.5 1 11 1 11 4.5 9.5 4.5 9.5-6-3.5-6-3.5 8 14 8 14 6.5 16 6.5 16 6.5 15.5 6.5 15.5 7 15.5 7 15.5 12.5 7.5 12.5 7.5 14.5 7.5 14.5 7.5 4 .5 4 .5-9-13-9-13-3.5-14-3.5-14-2-13-2-13 11.5 10.5 11.5 10.5 14 6.5 14 6.5 4.5.5 4.5.5"/><path d="m594 409l-6-34-10-10.5-10-10.5-10.5-11.5-10.5-11.5-12-10.5-12-10.5-11.5-10.5-11.5-10.5 3.5 9.5 3.5 9.5 6.5 12 6.5 12 11 11 11 11 11.5 11 11.5 11 10 12 10 12 4.5 4.5 4.5 4.5"/></g><path d="m594 8l1-3-1-1-1-1-2-.5-2-.5-.5-.5-.5-.5 2.5-.5 2.5-.5h-1.5-1.5-2.5-2.5-1.5-1.5l-.5 1-.5 1-7 17-7 17 13.5-14 13.5-14" style="fill:#36230f;stroke:#36230f"/><path d="m590 699l-33-3-19.5 3-19.5 3-16.5.5-16.5.5-2.5-6-2.5-6 13.5-4.5 13.5-4.5-.5-18.5-.5-18.5 16.5-5 16.5-5-12.5-.5-12.5-.5-13.5-4-13.5-4-6-16-6-16-8-14-8-14-8.5-15-8.5-15 .5 2 .5 2 .5.5.5.5.5.5.5.5v1 1l.5 1 .5 1 .5.5.5.5.5.5.5.5-.5 1.5-.5 1.5-1 .5-1 .5-.5.5-.5.5h1 1l-.5.5-.5.5-1.5.5-1.5.5-4 8.5-4 8.5 9.5-1.5 9.5-1.5 1.5 1 1.5 1v1 1l1 .5 1 .5 1 1 1 1 1 1 1 1 .5 1 .5 1 8.5 14 8.5 14-5.5 12.5-5.5 12.5.5 6.5.5 6.5-10 4.5-10 4.5 11.5 2.5 11.5 2.5 15.5 4 15.5 4-11.5 4-11.5 4-8.5 6.5-8.5 6.5-16.5 6-16.5 6-12.5 9.5-12.5 9.5h1.5 1.5l2-1 2-1h1 1 2 2l.5-.5.5-.5h1.5 1.5l1.5-.5 1.5-.5.5.5.5.5 1 .5 1 .5h2 2l.5-.5.5-.5 1-.5 1-.5 1.5.5 1.5.5v1 1 .5.5h1 1 23 23 22.5 22.5 9 9l7.5-6 7.5-6 12.5-4.5 12.5-4.5" style="fill:#93826d;stroke:#93826d"/><path d="m588 97v-3l-1-.5-1-.5h-1-1l-.5-1.5-.5-1.5-.5-1-.5-1h-1-1l-.5-1.5-.5-1.5-1-1-1-1-1.5-1-1.5-1-1-1-1-1v-1.5-1.5l.5-.5.5-.5.5-1 .5-1-1.5-.5-1.5-.5-.5.5-.5.5h-2-2l-1.5-.5-1.5-.5-2-.5-2-.5h-2-2l-2 .5-2 .5v1 1l.5 1 .5 1 1.5.5 1.5.5-.5-1.5-.5-1.5 1.5-.5 1.5-.5h1 1l1 .5 1 .5h1 1l.5.5.5.5h1.5 1.5l.5 1.5.5 1.5v1 1l-1.5.5-1.5.5-.5-.5-.5-.5-1-.5-1-.5-.5-.5-.5-.5h-1-1-1-1l-1-.5-1-.5h-12-12l-16.5-.5-16.5-.5 28.5 4.5 28.5 4.5 16.5 6 16.5 6" style="fill:#7b6749;stroke:#7b6749"/><path d="m581 2l1-2h-22.5-22.5-22.5-22.5-22-22-22.5-22.5-2-2l-.5 1-.5 1-18-1-18-1h-24.5-24.5-22-22-22-22-22.5-22.5-22-22-22.5-22.5-22-22-22-22-1.5-1.5v21 21 22 22 22.5 22.5 22 22 22 22 6 6l14-9 14-9h29 29l-11.5 11.5-11.5 11.5-16-.5-16-.5-15.5 5-15.5 5v3 3 2 2 2.5 2.5 2 2 2.5 2.5 2 2 2.5 2.5 2 2l4.5-8.5 4.5-8.5 6 2 6 2 11 .5 11 .5 7-10 7-10 12.5-9.5 12.5-9.5 15.5-7 15.5-7 14.5-3.5 14.5-3.5 10.5-6 10.5-6 19 3 19 3h6 6l-17.5-4-17.5-4-18.5-2.5-18.5-2.5-9.5-3-9.5-3-1.5-7.5-1.5-7.5 4-6.5 4-6.5 7 1 7 1 5.5-6.5 5.5-6.5-2-5.5-2-5.5 12.5-9.5 12.5-9.5 11-6.5 11-6.5 12-6 12-6 14.5-4.5 14.5-4.5 2.5-10 2.5-10 8.5-12.5 8.5-12.5 16.5-1 16.5-1 6.5-4.5 6.5-4.5 13-5.5 13-5.5 11.5-5.5 11.5-5.5-2.5 7.5-2.5 7.5-7.5 8-7.5 8-6 6-6 6 18.5-1 18.5-1 10-5 10-5 4.5-.5 4.5-.5h4.5 4.5l7-6 7-6 13 7.5 13 7.5 6.5 3.5 6.5 3.5-8.5-11-8.5-11 1-3 1-3 13.5 7.5 13.5 7.5 12.5-1 12.5-1 7.5 4.5 7.5 4.5 5.5-12 5.5-12 5 12 5 12-12.5 8.5-12.5 8.5-19.5 2-19.5 2-4.5 3.5-4.5 3.5 19.5-3 19.5-3 18.5-3 18.5-3 1-2 1-2 1-.5 1-.5.5-.5.5-.5.5-.5.5-.5h1 1l1-.5 1-.5.5-.5.5-.5.5-.5.5-.5h1 1l.5-1 .5-1h1 1l.5-.5.5-.5.5-.5.5-.5 1.5-.5 1.5-.5 1-.5 1-.5h1 1l1-.5 1-.5 1-.5 1-.5 7-17 7-17" style="fill:#171104;stroke:#171104"/><path d="m575 59l-1-1-1-1-1-1-36.5 4-36.5 4-20 4-20 4 19.5-3.5 19.5-3.5 19 .5 19 .5 19.5-3.5 19.5-3.5" style="fill:#583e21;stroke:#583e21"/><path d="m568 80v-2l-.5-1.5-.5-1.5h-1.5-1.5l-.5-.5-.5-.5h-1-1l-1-.5-1-.5h-1-1l-1.5.5-1.5.5.5 1.5.5 1.5 1 .5 1 .5h1 1 1 1l.5.5.5.5 1 .5 1 .5.5.5.5.5 1.5-.5 1.5-.5" style="fill:#817563;stroke:#817563"/><path d="m536 56l1-2-18.5 3-18.5 3-19.5 3-19.5 3 4.5-3.5 4.5-3.5 19.5-2 19.5-2 12.5-8.5 12.5-8.5-5-12-5-12-5.5 12-5.5 12-7.5-4.5-7.5-4.5-12.5 1-12.5 1-13.5-7.5-13.5-7.5-1 3-1 3 8.5 11 8.5 11-6.5-3.5-6.5-3.5-13-7.5-13-7.5-7 6-7 6h-4.5-4.5l-4.5.5-4.5.5-10 5-10 5-18.5 1-18.5 1 6-6 6-6 7.5-8 7.5-8 2.5-7.5 2.5-7.5-11.5 5.5-11.5 5.5-13 5.5-13 5.5-6.5 4.5-6.5 4.5-16.5 1-16.5 1-8.5 12.5-8.5 12.5-2.5 10-2.5 10-14.5 4.5-14.5 4.5-12 6-12 6-11 6.5-11 6.5-12.5 9.5-12.5 9.5 2 5.5 2 5.5-5.5 6.5-5.5 6.5-7-1-7-1-4 6.5-4 6.5 1.5 7.5 1.5 7.5 9.5 3 9.5 3 18.5 2.5 18.5 2.5 17.5 4 17.5 4h-6-6l-19-3-19-3-10.5 6-10.5 6-14.5 3.5-14.5 3.5-15.5 7-15.5 7-12.5 9.5-12.5 9.5-7 10-7 10-11-.5-11-.5-6-2-6-2-4.5 8.5-4.5 8.5v3 3 2 2 2 2 2.5 2.5 2 2 1 1h1.5 1.5l1 .5 1 .5.5 1.5.5 1.5.5.5.5.5v1.5 1.5l.5 1.5.5 1.5v1 1l-1.5 1.5-1.5 1.5-1 1-1 1-1.5-.5-1.5-.5v3 3 2 2 2.5 2.5 2 2 2 2 2.5 2.5h1 1l1-1.5 1-1.5 1.5-.5 1.5-.5 2 .5 2 .5h1 1 2.5 2.5l1.5.5 1.5.5h1 1v1.5 1.5l-1 1-1 1-1 .5-1 .5-.5.5-.5.5-.5.5-.5.5-.5.5-.5.5-1 .5-1 .5h-1-1-1-1v1 1l-.5 1-.5 1-.5.5-.5.5-.5.5-.5.5-.5.5-.5.5.5.5.5.5-.5.5-.5.5v1.5 1.5h-1-1-1-1l-.5-.5-.5-.5-.5-1.5-.5-1.5v22.5 22.5 22.5 22.5l9-6.5 9-6.5-5-9-5-9 10.5 6 10.5 6v-9-9l-8.5-10-8.5-10 8.5 4.5 8.5 4.5 1-15.5 1-15.5-.5-8.5-.5-8.5 3.5-6.5 3.5-6.5-3-7.5-3-7.5 7-9 7-9-.5-8-.5-8 6.5-4.5 6.5-4.5 3.5-3.5 3.5-3.5 11-3.5 11-3.5 13-9 13-9 14.5-5 14.5-5 15-2 15-2 15.5-2.5 15.5-2.5 15.5 4 15.5 4 14-1 14-1 15.5-7 15.5-7 3-11 3-11-19.5-1-19.5-1-18-3-18-3-18-4-18-4-13-5.5-13-5.5 6.5-7.5 6.5-7.5 11.5-3 11.5-3-1-4-1-4-9.5-.5-9.5-.5 11.5-11 11.5-11 7.5-9.5 7.5-9.5 5.5-3 5.5-3 16.5-.5 16.5-.5 7-3.5 7-3.5-1.5-4.5-1.5-4.5.5-7.5.5-7.5 8.5-11 8.5-11 9-5 9-5 13.5 9 13.5 9 9-4 9-4h19 19l17 1.5 17 1.5 11.5 7.5 11.5 7.5 8-1 8-1 18.5-3.5 18.5-3.5 19-2.5 19-2.5" style="fill:#36230f;stroke:#36230f"/><path d="m508 512l-21-25-.5-12-.5-12 9.5 10.5 9.5 10.5-5.5-16.5-5.5-16.5-5.5-17-5.5-17-6.5-15.5-6.5-15.5-9-13.5-9-13.5-10-12-10-12-8 2-8 2-3.5-13-3.5-13-2.5 13.5-2.5 13.5 5 16 5 16 5 17.5 5 17.5 6 16 6 16 6 16.5 6 16.5 8 10 8 10 11 6 11 6 11 4 11 4" style="fill:#cec6ba;stroke:#cec6ba"/><path d="m504 668l-31-8-11.5-2.5-11.5-2.5 10-4.5 10-4.5-.5-6.5-.5-6.5 5.5-12.5 5.5-12.5-8.5-14-8.5-14 .5 1 .5 1 1 1.5 1 1.5-.5 1.5-.5 1.5.5 1 .5 1 1-.5 1-.5.5 1.5.5 1.5 1 1 1 1 1 1.5 1 1.5.5 1.5.5 1.5 1 1.5 1 1.5.5 1 .5 1 .5 1.5.5 1.5v1.5 1.5l-.5.5-.5.5-9.5 11-9.5 11-11.5 11-11.5 11-11 12.5-11 12.5 1.5.5 1.5.5 13-5.5 13-5.5 11.5 1.5 11.5 1.5-23.5 7.5-23.5 7.5 2 .5 2 .5.5.5.5.5.5.5.5.5.5.5.5.5-1.5.5-1.5.5.5 3.5.5 3.5-13.5 9.5-13.5 9.5h2 2 2.5 2.5.5.5l12.5-9.5 12.5-9.5 16.5-6 16.5-6 8.5-6.5 8.5-6.5 11.5-4 11.5-4" style="fill:#817563;stroke:#817563"/><path d="m497 77l1-1-18.5 3-18.5 3-12.5 6.5-12.5 6.5-10 13-10 13 11.5-12 11.5-12 14.5-4 14.5-4 14.5-6 14.5-6" style="fill:#7b6749;stroke:#7b6749"/><path d="m486 720h1-23-23 2 2 2.5 2.5 2 2 2.5 2.5 2 2 2.5 2.5 2 2 2 2 2.5 2.5 2 2 .5.5" style="fill:#817563;stroke:#817563"/><path d="m477 612l1-1h-.5-.5l-11.5 11-11.5 11-11.5 10.5-11.5 10.5-12 10-12 10-11 10-11 10-13 13-13 13h1.5 1.5 2 2 2.5 2.5 2 2 2 2 2.5 2.5 2 2 2.5 2.5 1.5 1.5l13.5-9.5 13.5-9.5-.5-3.5-.5-3.5h-.5-.5l-.5.5-.5.5-2.5-1.5-2.5-1.5h-1.5-1.5l-2 .5-2 .5-1.5-.5-1.5-.5.5-2 .5-2-1.5-.5-1.5-.5 1-1.5 1-1.5 1.5-.5 1.5-.5 1.5-.5 1.5-.5 1-.5 1-.5 11-12.5 11-12.5 11.5-11 11.5-11 9.5-11 9.5-11" style="fill:#7b6749;stroke:#7b6749"/><path d="m477 611h1v-1.5-1.5l-.5-1.5-.5-1.5h-.5-.5l-16.5 14.5-16.5 14.5-12.5 10-12.5 10-13 9-13 9-13.5 5.5-13.5 5.5-6-9-6-9-11-6.5-11-6.5-15-1-15-1-14.5-3-14.5-3-13-5-13-5-11.5-5.5-11.5-5.5-8.5-11-8.5-11-7.5-10.5-7.5-10.5-7.5-12.5-7.5-12.5-6.5-13-6.5-13-3-13-3-13-3-13.5-3-13.5-2-11-2-11 1-15 1-15 3-11.5 3-11.5 6-15 6-15 10-12 10-12 9-9.5 9-9.5 12-10 12-10 14-5.5 14-5.5 11.5-10.5 11.5-10.5 17.5-12 17.5-12 1-.5 1-.5.5-1 .5-1v-1-1l.5-.5.5-.5.5-.5.5-.5v-1-1l-.5-1-.5-1-.5-1-.5-1-1.5-1-1.5-1-.5 1-.5 1-14.5 8.5-14.5 8.5-13 7.5-13 7.5-14.5 7.5-14.5 7.5-11.5 7.5-11.5 7.5-13 7.5-13 7.5-10 8-10 8-7.5 12-7.5 12-6 10-6 10-6 12-6 12-4 15.5-4 15.5 1.5 12.5 1.5 12.5 3.5 17.5 3.5 17.5 4.5 15 4.5 15 6.5 15.5 6.5 15.5 8 14.5 8 14.5 9 13 9 13 8 12 8 12 8 10.5 8 10.5 10 9 10 9 15 5 15 5 7.5 9 7.5 9 9.5 11 9.5 11h1.5 1.5 2 2 2.5 2.5 2 2 2 2 2.5 2.5 2 2 2.5 2.5 2 2 1 1l26.5-17 26.5-17-19.5 17-19.5 17h1.5 1.5 2 2 1 1l13-13 13-13 11-10 11-10 12-10 12-10 11.5-10.5 11.5-10.5 11.5-11 11.5-11" style="fill:#77532c;stroke:#77532c"/><path d="m476 605h1l-.5-1-.5-1-1-1.5-1-1.5-.5-1.5-.5-1.5-1-1.5-1-1.5-1-1-1-1-.5-1.5-.5-1.5-1 .5-1 .5v2 2 1 1l-10.5 13.5-10.5 13.5 1-1.5 1-1.5.5-.5.5-.5h1 1l.5-.5.5-.5 1-.5 1-.5 1-1 1-1 .5-.5.5-.5.5-1 .5-1 1.5-.5 1.5-.5.5.5.5.5-.5 2-.5 2-.5.5-.5.5-.5.5-.5.5-.5.5-.5.5h-1.5-1.5l-.5.5-.5.5v1 1l-.5.5-.5.5-.5.5-.5.5-.5.5-.5.5-.5 1-.5 1h-1-1v1 1h-1-1l-.5 1-.5 1-.5.5-.5.5-.5.5-.5.5.5.5.5.5 16.5-14.5 16.5-14.5" style="fill:#7b6749;stroke:#7b6749"/><path d="m466 596v-2-2-2l-.5-1-.5-1 .5-1.5.5-1.5-1-1.5-1-1.5-.5-1-.5-1-.5-1-.5-1-1-1-1-1-1-1-1-1-1-.5-1-.5v-1-1l-1.5-1-1.5-1-.5.5-.5.5-10.5 10-10.5 10-11.5 2.5-11.5 2.5-10 2-10 2-13.5 2-13.5 2-13-3-13-3-16 1.5-16 1.5-10.5-3.5-10.5-3.5-11-3-11-3-8.5-9-8.5-9-8-9-8-9-5-12-5-12-2-14.5-2-14.5-1-15-1-15-1-10.5-1-10.5-4.5-13.5-4.5-13.5 6-13 6-13 6.5-8 6.5-8 9.5-6.5 9.5-6.5 10-10 10-10 11.5-8 11.5-8 12-10 12-10 13.5-18 13.5-18-1-1.5-1-1.5v-1-1-2-2l-.5-1.5-.5-1.5-1-1-1-1-1.5-.5-1.5-.5h-.5-.5l-1-.5-1-.5h-1.5-1.5l-1 1-1 1-.5 2-.5 2-1 1-1 1-.5 1.5-.5 1.5-1.5 1-1.5 1-1.5.5-1.5.5-1.5 1-1.5 1-1 .5-1 .5-9.5 10.5-9.5 10.5-11 7-11 7-9.5 9.5-9.5 9.5-12 8.5-12 8.5-11.5 9.5-11.5 9.5-8.5 12.5-8.5 12.5-6.5 15-6.5 15-3.5 11.5-3.5 11.5 6 11.5 6 11.5 3.5 12.5 3.5 12.5 3 14 3 14 2 11.5 2 11.5 6.5 10.5 6.5 10.5 7 13 7 13 8.5 9 8.5 9 14 6 14 6 14 5.5 14 5.5h13 13 14 14l12.5 3 12.5 3 12.5 6.5 12.5 6.5 24.5-12.5 24.5-12.5 10.5-13.5 10.5-13.5" style="fill:#987549;stroke:#987549"/><path d="m465 674l-23-3-13 5.5-13 5.5-.5 1.5-.5 1.5v1.5 1.5l1.5.5 1.5.5 23.5-7.5 23.5-7.5" style="fill:#93826d;stroke:#93826d"/><path d="m461 612l-1-1-1.5.5-1.5.5-.5 1-.5 1-.5.5-.5.5-1 1-1 1-1 .5-1 .5-.5.5-.5.5h-1-1l-.5.5-.5.5-1 1.5-1 1.5-24.5 12.5-24.5 12.5-12.5-6.5-12.5-6.5-12.5-3-12.5-3h-14-14-13-13l-14-5.5-14-5.5-14-6-14-6-8.5-9-8.5-9-7-13-7-13-6.5-10.5-6.5-10.5-2-11.5-2-11.5-3-14-3-14-3.5-12.5-3.5-12.5-6-11.5-6-11.5 3.5-11.5 3.5-11.5 6.5-15 6.5-15 8.5-12.5 8.5-12.5 11.5-9.5 11.5-9.5 12-8.5 12-8.5 9.5-9.5 9.5-9.5 11-7 11-7 9.5-10.5 9.5-10.5 4-11 4-11-17.5 12-17.5 12-11.5 10.5-11.5 10.5-14 5.5-14 5.5-12 10-12 10-9 9.5-9 9.5-10 12-10 12-6 15-6 15-3 11.5-3 11.5-1 15-1 15 2 11 2 11 3 13.5 3 13.5 3 13 3 13 6.5 13 6.5 13 7.5 12.5 7.5 12.5 7.5 10.5 7.5 10.5 8.5 11 8.5 11 11.5 5.5 11.5 5.5 13 5 13 5 14.5 3 14.5 3 15 1 15 1 11 6.5 11 6.5 6 9 6 9 13.5-5.5 13.5-5.5 13-9 13-9 12.5-10 12.5-10-.5-.5-.5-.5.5-.5.5-.5.5-.5.5-.5.5-1 .5-1h1 1v-1-1h1 1l.5-1 .5-1 .5-.5.5-.5.5-.5.5-.5.5-.5.5-.5v-1-1l.5-.5.5-.5h1.5 1.5l.5-.5.5-.5.5-.5.5-.5.5-.5.5-.5.5-2 .5-2" style="fill:#896836;stroke:#896836"/><path d="m452 570l1-1-9.5 1.5-9.5 1.5 4-8.5 4-8.5-16.5 3-16.5 3-10.5 2-10.5 2-12.5.5-12.5.5-9.5.5-9.5.5-9.5-1.5-9.5-1.5-5.5-2.5-5.5-2.5h-11-11l-4.5-5-4.5-5-8-3-8-3-6.5-11.5-6.5-11.5-2.5-14-2.5-14-1.5-8.5-1.5-8.5 4.5-9 4.5-9-3.5-3.5-3.5-3.5-1.5-12.5-1.5-12.5 3 9.5 3 9.5 12.5-.5 12.5-.5 11-4 11-4 2-15.5 2-15.5.5-16.5.5-16.5 5-12.5 5-12.5 4-14 4-14 9.5-17.5 9.5-17.5-1-5-1-5-13.5 18-13.5 18-12 10-12 10-11.5 8-11.5 8-10 10-10 10-9.5 6.5-9.5 6.5-6.5 8-6.5 8-6 13-6 13 4.5 13.5 4.5 13.5 1 10.5 1 10.5 1 15 1 15 2 14.5 2 14.5 5 12 5 12 8 9 8 9 8.5 9 8.5 9 11 3 11 3 10.5 3.5 10.5 3.5 16-1.5 16-1.5 13 3 13 3 13.5-2 13.5-2 10-2 10-2 11.5-2.5 11.5-2.5 10.5-10 10.5-10" style="fill:#aa8359;stroke:#aa8359"/><path d="m447 551l1-3-.5-.5-.5-.5-.5-.5-.5-.5-.5-1-.5-1v-1-1l-.5-.5-.5-.5-.5-.5-.5-.5-.5-2-.5-2-7.5-18-7.5-18h-.5-.5l-10.5 1-10.5 1-15.5-2-15.5-2-4-5-4-5-5-8-5-8-2-7.5-2-7.5-3.5-14.5-3.5-14.5-2-11.5-2-11.5 2.5-3.5 2.5-3.5 8.5-6.5 8.5-6.5 15-15.5 15-15.5-11-18-11-18-7.5-11.5-7.5-11.5-1.5-1-1.5-1-.5-.5-.5-.5-.5-1.5-.5-1.5-.5-1.5-.5-1.5-1.5-1-1.5-1-1-1-1-1-1.5-1-1.5-1-1 1.5-1 1.5-9.5 17.5-9.5 17.5-4 14-4 14-5 12.5-5 12.5-.5 16.5-.5 16.5-2 15.5-2 15.5-11 4-11 4-12.5.5-12.5.5-3-9.5-3-9.5 1.5 12.5 1.5 12.5 3.5 3.5 3.5 3.5-4.5 9-4.5 9 1.5 8.5 1.5 8.5 2.5 14 2.5 14 6.5 11.5 6.5 11.5 8 3 8 3 4.5 5 4.5 5h11 11l5.5 2.5 5.5 2.5 9.5 1.5 9.5 1.5 9.5-.5 9.5-.5 12.5-.5 12.5-.5 10.5-2 10.5-2 16.5-3 16.5-3 1.5-.5 1.5-.5.5-.5.5-.5h-1-1l.5-.5.5-.5 1-.5 1-.5" style="fill:#b89267;stroke:#b89267"/><path d="m440 481l-8-36-6-16.5-6-16.5.5 15.5.5 15.5 6 15 6 15 3.5 4 3.5 4" style="fill:#cec6ba;stroke:#cec6ba"/><path d="m439 719v-2l-1.5-.5-1.5-.5-1 .5-1 .5-.5.5-.5.5h-2-2l-1-.5-1-.5-.5-.5-.5-.5-1.5.5-1.5.5h-1.5-1.5l-.5.5-.5.5h-2-2-1-1l-2 1-2 1h1.5 1.5 2.5 2.5 2 2 2.5 2.5 2 2 2.5 2.5 2 2v-.5-.5" style="fill:#817563;stroke:#817563"/><path d="m438 66l-11 6-12.5-6.5-12.5-6.5-13 .5-13 .5-6 1-6 1-12 3-12 3-13.5-1-13.5-1-5.5 7.5-5.5 7.5 5.5 11.5 5.5 11.5-11.5 2-11.5 2-16.5 1.5-16.5 1.5-10.5 9-10.5 9 7.5 3.5 7.5 3.5 8.5 1.5 8.5 1.5-6 6.5-6 6.5-11.5 8.5-11.5 8.5-12.5 4.5-12.5 4.5 1.5 9 1.5 9 15.5 1.5 15.5 1.5 15 4.5 15 4.5 17.5 3 17.5 3v-1.5-1.5-1-1l.5-1 .5-1v-1-1l.5-.5.5-.5v-1-1l.5-1 .5-1 .5-.5.5-.5.5-.5.5-.5.5-.5.5-.5.5-1.5.5-1.5.5-1 .5-1 .5-3.5.5-3.5 23-10 23-10h-2-2-1.5-1.5l-.5-2-.5-2-.5 1-.5 1-1.5 1-1.5 1h-1-1l-.5 1-.5 1-.5 1-.5 1-.5.5-.5.5-18.5 10.5-18.5 10.5-.5.5-.5.5-.5 1-.5 1v1.5 1.5l-1 1.5-1 1.5-.5 1.5-.5 1.5-1 1.5-1 1.5-2-.5-2-.5-1.5-.5-1.5-.5h-1.5-1.5l-1.5-.5-1.5-.5-1.5 1-1.5 1-1 1-1 1h-2-2l-2-.5-2-.5-1-.5-1-.5h-.5-.5l-1.5-15-1.5-15-7.5 9-7.5 9 5-13.5 5-13.5 10-3.5 10-3.5 16.5-8.5 16.5-8.5-12-6-12-6 1-1.5 1-1.5.5-1.5.5-1.5.5-1.5.5-1.5 1-1.5 1-1.5.5-1.5.5-1.5 2-.5 2-.5 1.5-.5 1.5-.5h2.5 2.5 2 2l1 .5 1 .5 2 .5 2 .5 2 .5 2 .5 1.5.5 1.5.5 1.5 1 1.5 1 1 1 1 1 1 1.5 1 1.5v2 2l-.5 1.5-.5 1.5-.5 2-.5 2-.5 2-.5 2-1 1-1 1-2 .5-2 .5h-2-2l-1 1-1 1 11 1.5 11 1.5 1-17 1-17 12-1 12-1 15 8.5 15 8.5v2.5 2.5l-.5 1.5-.5 1.5h-1.5-1.5l-1 .5-1 .5.5 1 .5 1-1 1.5-1 1.5-1 1-1 1h-1-1-1.5-1.5l-1.5.5-1.5.5-1.5 1.5-1.5 1.5-1 1-1 1-1 1-1 1h-1.5-1.5l2 .5 2 .5h1 1v-1-1l.5-.5.5-.5 1-.5 1-.5 1-1 1-1h1 1l1-.5 1-.5h3 3l1-1 1-1 1-1.5 1-1.5 1-1 1-1 1-1.5 1-1.5.5-1 .5-1-15-15-15-15h-.5-.5l-9-7.5-9-7.5 9.5 7.5 9.5 7.5 24-5.5 24-5.5 9-13.5 9-13.5" style="fill:#583e21;stroke:#583e21"/><path d="m426 500h1l-.5-1.5-.5-1.5-.5-1.5-.5-1.5-.5-2-.5-2-1-1-1-1-.5-1.5-.5-1.5-.5-2-.5-2-.5-1.5-.5-1.5-.5-2-.5-2v-2-2l-1-1.5-1-1.5v-2-2l-.5-1.5-.5-1.5v-1-1l-.5-.5-.5-.5-.5-.5-.5-.5v-1.5-1.5l-.5-.5-.5-.5v-1-1l-.5-.5-.5-.5v-1.5-1.5l-2-30.5-2-30.5-7-15.5-7-15.5-15 15.5-15 15.5-8.5 6.5-8.5 6.5-2.5 3.5-2.5 3.5 2 11.5 2 11.5 3.5 14.5 3.5 14.5 2 7.5 2 7.5 5 8 5 8 4 5 4 5 15.5 2 15.5 2 10.5-1 10.5-1" style="fill:#cdab7f;stroke:#cdab7f"/><path d="m426 82l-27-19h-1-1l11 9.5 11 9.5-.5-.5-.5-.5h-1-1l-.5 2-.5 2 1.5.5 1.5.5-1 1.5-1 1.5-1.5-1-1.5-1-.5.5-.5.5-10-3-10-3v-1.5-1.5-1-1l-.5-.5-.5-.5v-1-1-1.5-1.5l-.5-.5-.5-.5v-1-1l-.5-.5-.5-.5-.5-1-.5-1-1-1-1-1-.5-.5-.5-.5.5-1 .5-1h1 1l1-1 1-1-.5 14-.5 14-1 4.5-1 4.5h-.5-.5v2 2l-.5.5-.5.5h-1-1l-1.5.5-1.5.5 15.5 2 15.5 2 7.5-11.5 7.5-11.5" style="fill:#605444;stroke:#605444"/><path d="m425 693l-1-1-.5-.5-.5-.5-.5-.5-.5-.5-2-.5-2-.5-1.5-.5-1.5-.5v-1.5-1.5l.5-1.5.5-1.5-1.5-.5-1.5-.5-1 .5-1 .5-1.5.5-1.5.5-1.5.5-1.5.5-1 1.5-1 1.5 1.5.5 1.5.5-.5 2-.5 2 1.5.5 1.5.5 2-.5 2-.5h1.5 1.5l1.5-.5 1.5-.5.5.5.5.5 1 1 1 1h.5.5l1.5-.5 1.5-.5" style="fill:#987549;stroke:#987549"/><path d="m420 695l1-1-1-1-1-1-.5-.5-.5-.5-1.5.5-1.5.5 2.5 1.5 2.5 1.5" style="fill:#817563;stroke:#817563"/><path d="m419 82l-22-19-.5-1-.5-1-1-1-1-1-2-.5-2-.5-1 1-1 1h-1-1l-.5 1-.5 1 .5.5.5.5 1 1 1 1 .5 1 .5 1 .5.5.5.5v1 1l.5.5.5.5v1.5 1.5 1 1l.5.5.5.5v1 1 1.5 1.5l10.5 2.5 10.5 2.5 1.5 1 1.5 1 1-1.5 1-1.5-1.5-.5-1.5-.5.5-2 .5-2h1 1l.5.5.5.5" style="fill:#77532c;stroke:#77532c"/><path d="m412 88l1-1-10.5-2.5-10.5-2.5 10 3 10 3" style="fill:#7b6749;stroke:#7b6749"/><path d="m399 128l-30-17-12 1-12 1-1 17-1 17-11-1.5-11-1.5-2-1-2-1-16.5 8.5-16.5 8.5 1.5-.5 1.5-.5.5-.5.5-.5 2-1.5 2-1.5 15.5-3 15.5-3 6 5.5 6 5.5 9.5 1 9.5 1 .5 2 .5 2h1.5 1.5 2 2l.5-2 .5-2-.5-.5-.5-.5-.5-.5-.5-.5h-1-1l.5-1 .5-1v-1-1-1-1l-.5-.5-.5-.5h1.5 1.5 2 2 1 1l1-.5 1-.5 1 .5 1 .5h1.5 1.5l1-1 1-1 1-1 1-1-10-2.5-10-2.5 17-3 17-3 1-.5 1-.5h1.5 1.5l.5-1.5.5-1.5v-2.5-2.5" style="fill:#605444;stroke:#605444"/><path d="m398 2l1-2h-2.5-2.5-2.5-2.5-2-2-2.5-2.5-2-2-2.5-2.5-2-2-2-2-.5-.5l18 1 18 1" style="fill:#36230f;stroke:#36230f"/><path d="m394 139l-1-2-17 3-17 3 10 2.5 10 2.5 1.5-1.5 1.5-1.5 1.5-.5 1.5-.5h1.5 1.5 1 1l1-1 1-1 1-1.5 1-1.5" style="fill:#7b6749;stroke:#7b6749"/><path d="m392 147l1-1h-3-3l-1 .5-1 .5h-1-1l-1 1-1 1-1 .5-1 .5-.5.5-.5.5v1 1h-1-1l-2-.5-2-.5-1.5.5-1.5.5h-1-1l-.5.5-.5.5-.5.5-.5.5-.5 1-.5 1 .5 1.5.5 1.5v1 1h.5.5l1-1 1-1 .5-.5.5-.5 1-.5 1-.5 1.5.5 1.5.5.5.5.5.5h1.5 1.5l2-1.5 2-1.5 1-1 1-1 1-1.5 1-1.5 1.5-.5 1.5-.5 1-1 1-1 .5-1 .5-1" style="fill:#3e3321;stroke:#3e3321"/><path d="m389 686l-53 34h3 3 2.5 2.5 1.5 1.5l19.5-17 19.5-17" style="fill:#583e21;stroke:#583e21"/><path d="m386 95h1l-.5-1-.5-1-1-1-1-1-1 1.5-1 1.5-1.5.5-1.5.5-.5 2-.5 2-1.5-.5-1.5-.5-1.5 1-1.5 1 1.5.5 1.5.5h2 2 .5.5l1.5-.5 1.5-.5h1 1l.5-.5.5-.5v-2-2" style="fill:#77532c;stroke:#77532c"/><path d="m377 162l1-2h-1.5-1.5l-.5-.5-.5-.5-1.5-.5-1.5-.5-1 .5-1 .5-.5.5-.5.5-1 1-1 1h-.5-.5v-1-1l-.5-1.5-.5-1.5.5-1 .5-1 .5-.5.5-.5.5-.5.5-.5h1 1l1.5-.5 1.5-.5-1-.5-1-.5-1 .5-1 .5h-1-1-2-2-1.5-1.5l.5.5.5.5v1 1 1 1l-.5 1-.5 1h1 1l.5.5.5.5.5.5.5.5-.5 2-.5 2h1.5 1.5l-.5 1.5-.5 1.5-2 1-2 1-1.5-.5-1.5-.5-2 .5-2 .5-1 1-1 1-1 1-1 1-1 1.5-1 1.5-1 1-1 1-1 1-1 1 17-9.5 17-9.5" style="fill:#583e21;stroke:#583e21"/><path d="m373 95v-2l-.5-1.5-.5-1.5-2-.5-2-.5-.5-1.5-.5-1.5-2 .5-2 .5.5 1.5.5 1.5 1 1.5 1 1.5 1.5.5 1.5.5 1 1 1 1 1-.5 1-.5" style="fill:#77532c;stroke:#77532c"/><g style="fill:#3e3321;stroke:#3e3321"><path d="m371 104h1l-9.5-7.5-9.5-7.5 9 7.5 9 7.5"/><path d="m364 168l1-3h-1.5-1.5l-23 10-23 10-.5 3.5-.5 3.5.5-.5.5-.5.5-1 .5-1 .5-.5.5-.5 1-.5 1-.5.5-.5.5-.5.5-.5.5-.5h1 1l1-.5 1-.5h1 1l.5.5.5.5h1 1l.5.5.5.5v1.5 1.5l-.5.5-.5.5 1 .5 1 .5 1-1 1-1 .5-.5.5-.5 1-1 1-1 .5-1 .5-1 .5-.5.5-.5 1.5-1 1.5-1 1-1 1-1 1-1 1-1 1-1.5 1-1.5 1-1 1-1 1-1 1-1 2-.5 2-.5 1.5.5 1.5.5 2-1 2-1"/></g><path d="m359 79l-22-4-8 1.5-8 1.5 6 11 6 11-7.5.5-7.5.5 7.5 5 7.5 5v-1.5-1.5l.5-.5.5-.5.5-.5.5-.5 1 .5 1 .5 2 .5 2 .5 2.5-12 2.5-12 6.5-2.5 6.5-2.5" style="fill:#77532c;stroke:#77532c"/><path d="m353 163l1-2-9.5-1-9.5-1-6-5.5-6-5.5-15.5 3-15.5 3 1.5.5 1.5.5 1 .5 1 .5-.5 1-.5 1 10 9 10 9 15-3.5 15-3.5.5-1 .5-1 .5-1 .5-1h1 1l1.5-1 1.5-1" style="fill:#7b6749;stroke:#7b6749"/><g style="fill:#605444;stroke:#605444"><path d="m345 170l1-1-15 3.5-15 3.5-10-9-10-9-.5-1-.5-1-1 .5-1 .5.5 1.5.5 1.5-.5.5-.5.5v-1-1h-1-1l-1 .5-1 .5-.5.5-.5.5v.5.5l1 .5 1 .5-.5 2-.5 2-.5 1.5-.5 1.5 1 1.5 1 1.5 1.5.5 1.5.5 1.5 1 1.5 1h2 2v1 1h-1.5-1.5l-1.5 1-1.5 1h-1-1l-1.5-.5-1.5-.5-2.5-.5-2.5-.5v.5.5l.5.5.5.5 1 .5 1 .5 1.5.5 1.5.5h1 1 1.5 1.5l1 1 1 1 .5.5.5.5 1 .5 1 .5 1.5-.5 1.5-.5h1 1l.5.5.5.5.5.5.5.5v1 1l.5 1 .5 1 18.5-10.5 18.5-10.5"/><path d="m340 110l1-2-2-.5-2-.5-1-.5-1-.5-.5.5-.5.5-.5.5-.5.5v1.5 1.5 2 2h2 2l1-1.5 1-1.5.5-1 .5-1"/></g><path d="m336 220v-2l-12 1.5-12 1.5.5-2 .5-2 1-1.5 1-1.5 1-1 1-1 1.5-1 1.5-1 1.5.5 1.5.5 1 1.5 1 1.5 1 1 1 1 1 1.5 1 1.5 1.5.5 1.5.5h2 2" style="fill:#7b6749;stroke:#7b6749"/><path d="m335 131l1-3v-2-2l-1-1.5-1-1.5-1-1-1-1-1.5-1-1.5-1-1.5-.5-1.5-.5-2-.5-2-.5-2-.5-2-.5-.5.5-.5.5-12 7.5-12 7.5 12 6 12 6 2 1 2 1 1-1 1-1h2 2l2-.5 2-.5 1-1 1-1 .5-2 .5-2 .5-2 .5-2" style="fill:#77532c;stroke:#77532c"/><path d="m332 193l1-2-1-.5-1-.5.5-.5.5-.5v-1.5-1.5l-.5-.5-.5-.5h-1-1l-.5-.5-.5-.5h-1-1l-1 .5-1 .5h-1-1l-.5.5-.5.5-.5.5-.5.5-1 .5-1 .5-.5.5-.5.5-.5 1-.5 1 7 6.5 7 6.5h-2-2l-.5-.5-.5-.5-.5-.5-.5-.5v-1.5-1.5l-.5-.5-.5-.5v-1-1l.5-.5.5-.5.5-.5.5-.5 1-.5 1-.5.5-.5.5-.5h1 1l.5.5.5.5v2 2l.5-2 .5-2" style="fill:#583e21;stroke:#583e21"/><path d="m330 203l1-3v-1.5-1.5-2-2l-.5-.5-.5-.5h-1-1l-.5.5-.5.5-1 .5-1 .5-.5.5-.5.5-.5.5-.5.5v1 1l.5.5.5.5v1.5 1.5l.5.5.5.5.5.5.5.5h2 2v-.5-.5" style="fill:#3e3321;stroke:#3e3321"/><path d="m329 258h1v-1.5-1.5l-1-1-1-1-1-1.5-1-1.5-.5-1.5-.5-1.5-1-1.5-1-1.5-1-1-1-1-.5-2-.5-2-1-.5-1-.5v1 1l.5 1 .5 1 .5 1 .5 1v1 1l-.5.5-.5.5-.5.5-.5.5v1 1l-.5 1-.5 1-1 .5-1 .5-4 11-4 11 1-.5 1-.5 1.5-1 1.5-1 1.5-.5 1.5-.5 1.5-1 1.5-1 .5-1.5.5-1.5 1-1 1-1 .5-2 .5-2 1-1 1-1h1.5 1.5l1 .5 1 .5" style="fill:#7b6749;stroke:#7b6749"/><path d="m317 115l1-1-1-.5-1-.5h-2-2-2.5-2.5l-1.5.5-1.5.5-2 .5-2 .5-.5 1.5-.5 1.5-1 1.5-1 1.5-.5 1.5-.5 1.5-.5 1.5-.5 1.5-1 1.5-1 1.5 12-7.5 12-7.5" style="fill:#605444;stroke:#605444"/><path d="m314 239l1-2-1-1.5-1-1.5-.5-2-.5-2-1-1.5-1-1.5-26 14-26 14-14.5 3.5-14.5 3.5-10-5.5-10-5.5-15.5-1.5-15.5-1.5-16 3.5-16 3.5-14.5 3.5-14.5 3.5-12.5 9.5-12.5 9.5-6 15.5-6 15.5 2.5 15.5 2.5 15.5 1 15.5 1 15.5 3 15 3 15 2.5 17 2.5 17-5-3-5-3-2.5-10.5-2.5-10.5-1 8.5-1 8.5-2 14-2 14 6 .5 6 .5 8 3 8 3 2.5 17.5 2.5 17.5 6.5 13.5 6.5 13.5 4.5 14.5 4.5 14.5-6.5-12.5-6.5-12.5-8-14.5-8-14.5-2.5-13.5-2.5-13.5-3 9.5-3 9.5.5 11.5.5 11.5-4 1-4 1-.5 4-.5 4 6.5.5 6.5.5 2.5 10.5 2.5 10.5 4 13.5 4 13.5 9 7 9 7 5 4.5 5 4.5 3.5 13.5 3.5 13.5 1.5 7.5 1.5 7.5 2.5 8 2.5 8 5.5 9.5 5.5 9.5 4.5 3.5 4.5 3.5 7-1.5 7-1.5 1-6 1-6-1-9.5-1-9.5 10 12 10 12 9.5 11.5 9.5 11.5 7.5 5 7.5 5 6 8 6 8h1.5 1.5 2 2 2 2 2.5 2.5 2 2 2.5 2.5 2 2 2.5 2.5 2 2 2 2 .5.5l-9.5-11-9.5-11-7.5-9-7.5-9-15-5-15-5-10-9-10-9-8-10.5-8-10.5-8-12-8-12-9-13-9-13-8-14.5-8-14.5-6.5-15.5-6.5-15.5-4.5-15-4.5-15-3.5-17.5-3.5-17.5-1.5-12.5-1.5-12.5 4-15.5 4-15.5 6-12 6-12 6-10 6-10 7.5-12 7.5-12 10-8 10-8 13-7.5 13-7.5 11.5-7.5 11.5-7.5 14.5-7.5 14.5-7.5 13-7.5 13-7.5 14.5-8.5 14.5-8.5" style="fill:#583e21;stroke:#583e21"/><g style="fill:#77532c;stroke:#77532c"><path d="m307 192l1-1-.5-1-.5-1h-.5-.5l-1 1-1 1v1.5 1.5l-.5 1.5-.5 1.5v-1-1l-.5-1-.5-1-1.5-.5-1.5-.5h-1-1l-.5 1-.5 1 .5 1.5.5 1.5.5.5.5.5.5.5.5.5.5.5.5.5 1 .5 1 .5-.5.5-.5.5-.5.5-.5.5.5.5.5.5 1-.5 1-.5.5-1.5.5-1.5 1-1.5 1-1.5v-1.5-1.5l.5-1 .5-1"/><path d="m307 189v-2l-.5-.5-.5-.5-.5-.5-.5-.5h-1-1l-1.5.5-1.5.5-1-.5-1-.5-.5-.5-.5-.5-1-1-1-1h-1.5-1.5-1-1l-1.5-.5-1.5-.5-1-.5-1-.5-.5-.5-.5-.5v-.5-.5l2-8 2-8v-.5-.5l.5-.5.5-.5 1-.5 1-.5h1 1v1 1l.5-.5.5-.5-.5-1.5-.5-1.5 1-.5 1-.5.5 1 .5 1 .5-1 .5-1-1-.5-1-.5-1.5-.5-1.5-.5-2 1.5-2 1.5-.5.5-.5.5-1.5.5-1.5.5-10 3.5-10 3.5-5 13.5-5 13.5 7.5-9 7.5-9 .5.5.5.5h1.5 1.5l1 1 1 1 1 1.5 1 1.5-.5 1.5-.5 1.5 1 1.5 1 1.5v2 2l1 1.5 1 1.5.5 1.5.5 1.5v1 1l-.5 2.5-.5 2.5-1 1-1 1-1.5-1-1.5-1-.5-1.5-.5-1.5-.5-2-.5-2-.5-1.5-.5-1.5-.5-1.5-.5-1.5-1 1-1 1 .5 1.5.5 1.5v2.5 2.5l1 1 1 1 .5 1 .5 1 1 .5 1 .5 2 .5 2 .5h2 2l1-1 1-1 11-8 11-8"/></g><path d="m306 189h1l-11 8-11 8 1.5-1 1.5-1 1.5.5 1.5.5h1.5 1.5l1.5.5 1.5.5 2 .5 2 .5 1-1.5 1-1.5-1 .5-1 .5-.5-.5-.5-.5.5-.5.5-.5.5-.5.5-.5-1-.5-1-.5-.5-.5-.5-.5-.5-.5-.5-.5-.5-.5-.5-.5-.5-1.5-.5-1.5.5-1 .5-1h1 1l1.5.5 1.5.5.5 1 .5 1v1 1l.5-1.5.5-1.5v-1.5-1.5l1-1 1-1" style="fill:#605444;stroke:#605444"/><path d="m300 178v-2h-2-2l-1.5-1-1.5-1-1.5-.5-1.5-.5-1-1.5-1-1.5.5-1.5.5-1.5.5-2 .5-2-1-.5-1-.5-2 8-2 8 2.5.5 2.5.5 1.5.5 1.5.5h1 1l1.5-1 1.5-1h1.5 1.5" style="fill:#583e21;stroke:#583e21"/><path d="m299 218l-33-1-17.5-1-17.5-1-17-2-17-2-12.5 4.5-12.5 4.5 16 4.5 16 4.5 19.5 2.5 19.5 2.5h14.5 14.5l-19-1.5-19-1.5-20.5-1.5-20.5-1.5-3.5-7-3.5-7 17.5 1.5 17.5 1.5 31 4 31 4-.5 1-.5 1-.5.5-.5.5-.5.5-.5.5h-1-1l-.5 1-.5 1h-1-1l-.5.5-.5.5-1 1-1 1 1-.5 1-.5 1.5-.5 1.5-.5 1.5-1 1.5-1 1.5-.5 1.5-.5 1.5-.5 1.5-.5 1-1.5 1-1.5 1.5-.5 1.5-.5 1-1.5 1-1.5 1.5-.5 1.5-.5 1.5-1 1.5-1" style="fill:#3e3321;stroke:#3e3321"/><path d="m294 380l-22-14-9 8.5-9 8.5-6 11-6 11 4.5 9.5 4.5 9.5 6-7.5 6-7.5 5-7 5-7 10-2.5 10-2.5.5-5 .5-5" style="fill:#b89267;stroke:#b89267"/><path d="m285 423l1-3v-2-2l-2-.5-2-.5-1.5.5-1.5.5-1 1.5-1 1.5v1 1l1 1.5 1 1.5 1 1 1 1h1 1l1-1.5 1-1.5" style="fill:#896836;stroke:#896836"/><path d="m283 225l-62-8-17.5-1.5-17.5-1.5 3.5 7 3.5 7 20.5 1.5 20.5 1.5 19 1.5 19 1.5 1-1 1-1 .5-.5.5-.5h1 1l.5-1 .5-1h1 1l.5-.5.5-.5.5-.5.5-.5.5-1 .5-1" style="fill:#583e21;stroke:#583e21"/><path d="m281 199v-2l-.5-1.5-.5-1.5-1-1.5-1-1.5v-2-2l-1-1.5-1-1.5.5-1.5.5-1.5-1-1.5-1-1.5-1-1-1-1h-1.5-1.5l-.5 1.5-.5 1.5.5 1.5.5 1.5.5 2 .5 2v2.5 2.5l.5 1.5.5 1.5.5 1.5.5 1.5.5 2 .5 2 .5 1.5.5 1.5 1.5 1 1.5 1 1-1 1-1 .5-2.5.5-2.5" style="fill:#7b6749;stroke:#7b6749"/><path d="m272 205h1l-.5-1-.5-1-1-1-1-1v-2.5-2.5l-.5-1.5-.5-1.5 1-1 1-1v-2.5-2.5l-.5-2-.5-2-.5-1.5-.5-1.5.5-1.5.5-1.5-.5-.5-.5-.5 1.5 15 1.5 15" style="fill:#605444;stroke:#605444"/><path d="m270 153l-28 16-6.5 11-6.5 11 7 2 7 2 8-14 8-14 5.5-7 5.5-7" style="fill:#77532c;stroke:#77532c"/><path d="m199 718l-24-15-7.5-2.5-7.5-2.5 12.5 11 12.5 11h3 3 2 2 1.5 1.5l.5-1 .5-1" style="fill:#36230f;stroke:#36230f"/><path d="m183 643l-1-1-.5-1.5-.5-1.5v-2.5-2.5l-1.5-.5-1.5-.5-1 1.5-1 1.5v2 2l-1.5 1-1.5 1v1 1h2 2 2.5 2.5l.5-.5.5-.5" style="fill:#3e3321;stroke:#3e3321"/><path d="m176 234l-35-1-15.5 7-15.5 7 15.5-4.5 15.5-4.5 17.5-2 17.5-2" style="fill:#171104;stroke:#171104"/><path d="m163 719l-32-30-11.5-8.5-11.5-8.5-10-5.5-10-5.5-5-15-5-15-1.5-17-1.5-17-8.5 2.5-8.5 2.5 1 17 1 17-8-7.5-8-7.5-2-12-2-12 1.5-2.5 1.5-2.5-3.5-4-3.5-4-5.5-6.5-5.5-6.5 2-7.5 2-7.5-.5-4.5-.5-4.5-10.5.5-10.5.5 3-13.5 3-13.5-6.5 1-6.5 1v24 24 22 22 13.5 13.5l6.5 17 6.5 17-.5 1.5-.5 1.5-1.5-1-1.5-1-.5-1.5-.5-1.5-.5-1.5-.5-1.5-1.5-1-1.5-1-2-1-2-1v1.5 1.5 2 2 2.5 2.5 2 2 2.5 2.5 2 2 2 2 2.5 2.5 2 2l1.5-1 1.5-1 .5-.5.5-.5.5-2 .5-2 .5-.5.5-.5h2 2v1 1 1.5 1.5l.5 1 .5 1h-1-1l-1-.5-1-.5-.5 1.5-.5 1.5v1 1 1 1h1 1l.5 1 .5 1 .5.5.5.5-.5.5-.5.5v1 1l-.5 1-.5 1-.5 1-.5 1h23.5 23.5 9.5 9.5l-14-1-14-1 16 1 16 1h24 24 5.5 5.5l-.5-2.5-.5-2.5 1-1.5 1-1.5h1 1l1.5 1 1.5 1 1.5.5 1.5.5 1 1.5 1 1.5.5 1 .5 1h2.5 2.5 2.5 2.5 2 2 .5.5v-.5-.5" style="fill:#36230f;stroke:#36230f"/><path d="m151 288l-18-14-11 6.5-11 6.5-2 6-2 6-3.5 2.5-3.5 2.5 3.5 7 3.5 7 8-1 8-1 7.5-6 7.5-6 5-8 5-8h1.5 1.5" style="fill:#77532c;stroke:#77532c"/><path d="m147 720h1l-.5-1-.5-1-1-1.5-1-1.5-1.5-.5-1.5-.5-1.5-1-1.5-1h-1-1l-1 1.5-1 1.5.5 2.5.5 2.5h3 3 2.5 2.5" style="fill:#3e3321;stroke:#3e3321"/><path d="m132 619l1-3-1-1-1-1-.5-2-.5-2-.5-1.5-.5-1.5-2-.5-2-.5v1 1l.5 2 .5 2 1 1 1 1 .5 1.5.5 1.5 1.5 1 1.5 1" style="fill:#583e21;stroke:#583e21"/><path d="m117 540v-2-2-2l-.5-1-.5-1-1 1-1 1-1.5 1-1.5 1-1 1-1 1 .5 2 .5 2 1.5.5 1.5.5 1.5-.5 1.5-.5.5-1 .5-1" style="fill:#605444;stroke:#605444"/><path d="m99 254l1-3-1.5-.5-1.5-.5-2 .5-2 .5-1 1-1 1-1.5 1-1.5 1-.5 1.5-.5 1.5h1.5 1.5l1.5-.5 1.5-.5 1.5-.5 1.5-.5 1.5-1 1.5-1" style="fill:#171104;stroke:#171104"/><path d="m86 213h-58l-14 9-14 9v3 3 2 2 2 2l15.5-5 15.5-5 16 .5 16 .5 11.5-11.5 11.5-11.5" style="fill:#36230f;stroke:#36230f"/><path d="m76 720h1l-16-1-16-1 14 1 14 1h1.5 1.5" style="fill:#171104;stroke:#171104"/><path d="m38 478l-26 2-6 5-6 5v3 3 2 2 2 2 2.5 2.5 2 2l19-17.5 19-17.5" style="fill:#36230f;stroke:#36230f"/><path d="m23 353v-3h-1-1l-1.5-.5-1.5-.5h-2.5-2.5-1-1l-2-.5-2-.5-1.5.5-1.5.5-1 1.5-1 1.5h-1-1v2 2 2 2 2.5 2.5 1.5 1.5l.5 1.5.5 1.5.5.5.5.5h1 1 1 1v-1.5-1.5l.5-.5.5-.5-.5-.5-.5-.5.5-.5.5-.5.5-.5.5-.5.5-.5.5-.5.5-1 .5-1v-1-1h1 1 1 1l1-.5 1-.5.5-.5.5-.5.5-.5.5-.5.5-.5.5-.5 1-.5 1-.5 1-1 1-1" style="fill:#3e3321;stroke:#3e3321"/><g style="fill:#171104;stroke:#171104"><path d="m13 676l-13-34v2 2 2 2 2.5 2.5 2 2 2.5 2.5 1.5 1.5l2 1 2 1 1.5 1 1.5 1 .5 1.5.5 1.5.5 1.5.5 1.5 1.5 1 1.5 1 .5-1.5.5-1.5"/><path d="m11 704l-1-2v-1.5-1.5-1-1h-2-2l-.5.5-.5.5-.5 2-.5 2-.5.5-.5.5-1.5 1-1.5 1v1.5 1.5 2 2 2.5 2.5 1.5 1.5h.5.5 2.5 2.5.5.5l.5-1 .5-1 .5-1 .5-1v-1-1l.5-.5.5-.5-.5-.5-.5-.5-.5-1-.5-1h-1-1v-1-1-1-1l.5-1.5.5-1.5 1 .5 1 .5h1 1"/><path d="m8 320v-2l-.5-1.5-.5-1.5v-1.5-1.5l-.5-.5-.5-.5-.5-1.5-.5-1.5-1-.5-1-.5h-1.5-1.5v1.5 1.5 2.5 2.5 2 2 2 2 .5.5l1.5.5 1.5.5 1-1 1-1 1.5-1.5 1.5-1.5"/></g></g></svg>