<svg xmlns="http://www.w3.org/2000/svg" viewBox="0 0 720 960"><path d="m0 0h720v960h-720z" style="fill:#273041"/><g style="stroke-linejoin:round;stroke-width:.7"><path d="m0 959v1h1.5 1.5 2 2 1 1v-.5-.5l22.5-8.5 22.5-8.5 22-6.5 22-6.5 20-12.5 20-12.5-15.5-10-15.5-10-12-15.5-12-15.5 19-9.5 19-9.5 17.5-20.5 17.5-20.5 20.5-7 20.5-7 16-21.5 16-21.5 31 5.5 31 5.5-11-17.5-11-17.5-14-24.5-14-24.5 9-25.5 9-25.5 15 20.5 15 20.5 9 9.5 9 9.5 17 13.5 17 13.5 21.5 3 21.5 3 24.5-11 24.5-11 11-15.5 11-15.5 11.5-7 11.5-7 7 17.5 7 17.5-10 21.5-10 21.5 3 17.5 3 17.5 20.5 8 20.5 8-3.5 8-3.5 8 11.5 5 11.5 5 11 10.5 11 10.5 6 15.5 6 15.5 19 8.5 19 8.5-4.5 23-4.5 23 4 7.5 4 7.5 23 4.5 23 4.5 20 14 20 14h3 3 2 2 2.5 2.5 2 2 2 2 2.5 2.5v-2-2-2.5-2.5-2-2-2-2l-1.5 1-1.5 1h-1-1l-1-.5-1-.5h-1-1l-.5-.5-.5-.5v-1-1l-.5-1-.5-1v-1-1l-.5-.5-.5-.5v-1-1l.5-1 .5-1h1 1 1 1l.5.5.5.5h1 1l.5-1 .5-1 .5-.5.5-.5h1 1v-25.5-25.5l-1-.5-1-.5-2-1-2-1-1-1-1-1-1.5-1-1.5-1 .5-1.5.5-1.5 1-1.5 1-1.5-1-1-1-1-1-1-1-1-1-.5-1-.5-28-20.5-28-20.5v2.5 2.5l-1 1-1 1-2-1.5-2-1.5-.5-1-.5-1-.5-.5-.5-.5-.5-.5-.5-.5-.5-.5-.5-.5h-1.5-1.5l-1 1-1 1v1 1l-1 .5-1 .5-.5 1.5-.5 1.5-.5.5-.5.5-1 .5-1 .5-1.5-.5-1.5-.5v1 1 1 1l-.5.5-.5.5-1.5-.5-1.5-.5-9-18.5-9-18.5-1-2-1-2-1 .5-1 .5-2-.5-2-.5h-1-1l-1 1.5-1 1.5h-2-2l-.5.5-.5.5v-1-1l.5-.5.5-.5-.5-.5-.5-.5-.5-.5-.5-.5-.5-1-.5-1v-1-1-1-1l.5-.5.5-.5v-1-1l1-.5 1-.5.5-1.5.5-1.5-1-2-1-2-1-1-1-1-.5-1-.5-1-1-.5-1-.5-.5-.5-.5-.5-.5-.5-.5-.5-.5 1-.5 1-1 1-1 1-.5.5-.5.5h-1.5-1.5l-1.5.5-1.5.5h-1-1l.5-2 .5-2v-1-1-1-1l.5-.5.5-.5.5-1 .5-1 .5-.5.5-.5.5-.5.5-.5h1 1 1.5 1.5l1.5-.5 1.5-.5h1 1l.5.5.5.5h1 1 1.5 1.5l.5-.5.5-.5.5.5.5.5h1.5 1.5l33 8 33 8 8.5-39.5 8.5-39.5 21.5 7.5 21.5 7.5v-46-46-44.5-44.5-37.5-37.5l-20 10.5-20 10.5-17 .5-17 .5-20.5 9-20.5 9-16 10.5-16 10.5 12.5 11 12.5 11 3.5 7.5 3.5 7.5 9 13.5 9 13.5 10 4.5 10 4.5 7.5 18 7.5 18-3.5 9-3.5 9-44 20-44 20-7 27-7 27-1 1.5-1 1.5-.5 1.5-.5 1.5.5 1.5.5 1.5 1.5 1 1.5 1 1 1 1 1 1 1.5 1 1.5 1 1 1 1v1.5 1.5l-1.5-.5-1.5-.5h-1.5-1.5l-1-1-1-1v-1-1l-.5-.5-.5-.5-1-.5-1-.5v-1-1l-.5-.5-.5-.5h-1-1l-.5-.5-.5-.5-1-1-1-1-1-.5-1-.5-5.5-22.5-5.5-22.5-.5-.5-.5-.5-3.5-32.5-3.5-32.5 7-29.5 7-29.5 12.5-19.5 12.5-19.5 9-21.5 9-21.5 18-24.5 18-24.5 2-27.5 2-27.5 11-30.5 11-30.5 2.5-40 2.5-40-16-29.5-16-29.5-52-29.5-52-29.5-36.5-10-36.5-10-33.5 3-33.5 3-35.5 3-35.5 3-34.5 9-34.5 9-1-.5-1-.5-.5-.5-.5-.5-.5-1-.5-1-.5-1.5-.5-1.5v-1.5-1.5l.5-2 .5-2-1 .5-1 .5-.5 1.5-.5 1.5-25.5 14.5-25.5 14.5-14.5 11-14.5 11-24.5 21.5-24.5 21.5-14.5 29-14.5 29-4.5 38-4.5 38 2.5 35.5 2.5 35.5-14.5-15.5-14.5-15.5-14-.5-14-.5v46 46 32 32l22.5 11 22.5 11-22.5 27-22.5 27v1.5 1.5 2.5 2.5 2 2 2.5 2.5 2 2 2 2 2.5 2.5.5.5l17-21 17-21 2.5 34 2.5 34 10 19.5 10 19.5 3.5 5 3.5 5 5-25.5 5-25.5 4 27.5 4 27.5 8-10.5 8-10.5 12.5 15.5 12.5 15.5 4-4.5 4-4.5 7-2.5 7-2.5 16-8.5 16-8.5 6-7.5 6-7.5 5-6.5 5-6.5 6 9.5 6 9.5 10.5-5.5 10.5-5.5-18 17.5-18 17.5-10 16.5-10 16.5-17 9.5-17 9.5-38 27-38 27-4-15.5-4-15.5 8.5-11 8.5-11-38.5 5-38.5 5v27 27l1.5.5 1.5.5v1 1h1.5 1.5l1 1 1 1v1 1 1 1l-.5.5-.5.5-.5 1-.5 1-.5.5-.5.5h-1-1l-.5.5-.5.5-1 .5-1 .5v2 2 1 1 8.5 8.5 1.5 1.5 2 2 2.5 2.5 2 2 1.5 1.5l1-.5 1-.5 1-.5 1-.5 6 1 6 1-1 1-1 1-1.5.5-1.5.5-2-.5-2-.5-1.5.5-1.5.5-1 1.5-1 1.5-1 .5-1 .5v3 3 2 2 2.5 2.5 2 2 2 2 2.5 2.5 2 2 2.5 2.5 2 2 2.5 2.5" style="fill:#675f7a;stroke:#675f7a"/><path d="m9 959v1h46 46 41.5 41.5v-.5-.5l12-34 12-34 28-9.5 28-9.5 23.5 19.5 23.5 19.5 7 24.5 7 24.5h38 38v-.5-.5l9-36.5 9-36.5 20.5-20 20.5-20 25.5-5 25.5-5 3.5 15 3.5 15 10.5 32 10.5 32 5.5 15 5.5 15h46 46 25 25l-20-14-20-14-23-4.5-23-4.5-4-7.5-4-7.5 4.5-23 4.5-23-19-8.5-19-8.5-6-15.5-6-15.5-11-10.5-11-10.5-11.5-5-11.5-5 3.5-8 3.5-8-20.5-8-20.5-8-3-17.5-3-17.5 10-21.5 10-21.5-7-17.5-7-17.5-11.5 7-11.5 7-11 15.5-11 15.5-24.5 11-24.5 11-21.5-3-21.5-3-17-13.5-17-13.5-9-9.5-9-9.5-15-20.5-15-20.5-9 25.5-9 25.5 14 24.5 14 24.5 11 17.5 11 17.5-31-5.5-31-5.5-16 21.5-16 21.5-20.5 7-20.5 7-17.5 20.5-17.5 20.5-19 9.5-19 9.5 12 15.5 12 15.5 15.5 10 15.5 10-20 12.5-20 12.5-22 6.5-22 6.5-22.5 8.5-22.5 8.5" style="fill:#273041;stroke:#273041"/><path d="m184 959v1h1.5 1.5v-.5-.5l11.5-18.5 11.5-18.5 27.5-4 27.5-4 10.5-16 10.5-16 17.5 39 17.5 39h2 2l-7-24.5-7-24.5-23.5-19.5-23.5-19.5-28 9.5-28 9.5-12 34-12 34" style="fill:#675f7a;stroke:#675f7a"/><path d="m187 959v1h46 46 21 21l-17.5-39-17.5-39-10.5 16-10.5 16-27.5 4-27.5 4-11.5 18.5-11.5 18.5" style="fill:#94b1c3;stroke:#94b1c3"/><path d="m401 959v1h.5.5v-.5-.5l9.5-35.5 9.5-35.5 23.5-19 23.5-19 25 14 25 14 13 41 13 41h3 3l-5.5-15-5.5-15-10.5-32-10.5-32-3.5-15-3.5-15-25.5 5-25.5 5-20.5 20-20.5 20-9 36.5-9 36.5" style="fill:#675f7a;stroke:#675f7a"/><g style="fill:#94b1c3;stroke:#94b1c3"><path d="m402 959v1h46 46 25 25l-13-41-13-41-25-14-25-14-23.5 19-23.5 19-9.5 35.5-9.5 35.5"/><path d="m715 945h2l1.5-1 1.5-1v-2-2-2-2-2.5-2.5h-1-1l-.5.5-.5.5-.5 1-.5 1h-1-1l-.5-.5-.5-.5h-1-1-1-1l-.5 1-.5 1v1 1l.5.5.5.5v1 1l.5 1 .5 1v1 1l.5.5.5.5h1 1l1 .5 1 .5"/><path d="m234 931l8-41-5 20.5-5 20.5h1 1"/></g><g style="fill:#edce86;stroke:#edce86"><path d="m713 916l-14-20-9 5-9 5 2.5.5 2.5.5 1 1.5 1 1.5 1 1 1 1 1 1.5 1 1.5h2 2l1.5-1 1.5-1 1.5.5 1.5.5 2 .5 2 .5 1.5.5 1.5.5h2 2"/><path d="m0 912v1l1-.5 1-.5 1-1.5 1-1.5 1.5-.5 1.5-.5 2 .5 2 .5 1.5-.5 1.5-.5 1-1 1-1 2-.5 2-.5v-1-1-1-1l-1-.5-1-.5-1-1-1-1-2 .5-2 .5v2 2l-1.5 1-1.5 1-.5.5-.5.5-2-1-2-1-1 .5-1 .5-1 .5-1 .5v3 3"/></g><g style="fill:#94b1c3;stroke:#94b1c3"><path d="m8 906l1-1 1.5-1 1.5-1v-2-2l2-.5 2-.5 1 1 1 1 1 .5 1 .5v1 1 1 1l-2 .5-2 .5-6-1-6-1 2 1 2 1"/><path d="m676 905l3 1h1 1l9-5 9-5-12.5.5-12.5.5 1 4 1 4"/></g><g style="fill:#edce86;stroke:#edce86"><path d="m0 886v1-8.5-8.5 1.5 1.5 2 2 2.5 2.5 2 2"/><path d="m718 878l2 1v-45-45-36-36l-.5 1-.5 1-.5 1-.5 1-20.5-12.5-20.5-12.5-8.5 39.5-8.5 39.5-33-8-33-8-1 .5-1 .5h-1.5-1.5v1 1l-1 .5-1 .5-.5.5-.5.5-.5-.5-.5-.5v-.5-.5l-1.5.5-1.5.5.5.5.5.5v1 1l.5 1.5.5 1.5.5 1 .5 1 1 1 1 1 1 2 1 2 1 .5 1 .5v1 1l-.5.5-.5.5.5.5.5.5v1.5 1.5l-.5.5-.5.5v1 1l-.5.5-.5.5h1.5 1.5l.5-.5.5-.5h1 1l.5.5.5.5 1 .5 1 .5 1.5-.5 1.5-.5.5 1 .5 1 1 2 1 2 15 6 15 6 4 2.5 4 2.5 1 .5 1 .5-.5.5-.5.5-.5.5-.5.5v1 1l.5 1 .5 1 .5.5.5.5v2 2l2 1.5 2 1.5 1-1 1-1v-2.5-2.5l.5-1.5.5-1.5v-1-1l1-.5 1-.5h2 2l.5.5.5.5h1 1 1 1l1-.5 1-.5h1 1 1 1 1 1l1-.5 1-.5.5-.5.5-.5 1-.5 1-.5.5-1 .5-1 1.5-.5 1.5-.5 1-1.5 1-1.5 1-1 1-1 1.5.5 1.5.5 1.5 1 1.5 1 1 1 1 1 1 1.5 1 1.5 7.5 25.5 7.5 25.5 1 1 1 1 1 1 1 1-1 1.5-1 1.5-.5 1.5-.5 1.5 1.5 1 1.5 1 1 1 1 1 2 1 2 1"/></g><path d="m0 863v1l1-.5 1-.5.5-.5.5-.5h1 1l.5-.5.5-.5.5-1 .5-1 .5-.5.5-.5v-1-1-1-1l-1-1-1-1h-1.5-1.5v-1-1l-1.5-.5-1.5-.5v1.5 1.5 2 2 2.5 2.5 1 1" style="fill:#273041;stroke:#273041"/><path d="m706 861l2 1-7.5-25.5-7.5-25.5.5 1.5.5 1.5-1 1-1 1-1 1.5-1 1.5-1.5-.5-1.5-.5-1.5-.5-1.5-.5-.5-1.5-.5-1.5-1.5-1-1.5-1-2.5-.5-2.5-.5-1 .5-1 .5-.5.5-.5.5-1 .5-1 .5h-1-1-1-1-1-1l-1 .5-1 .5h-1-1-1-1l-.5-.5-.5-.5h-2-2l-1 .5-1 .5v1 1l-.5 1.5-.5 1.5 28 20.5 28 20.5" style="fill:#94b1c3;stroke:#94b1c3"/><path d="m412 856l3 1 1-1 1-1 1-1.5 1-1.5-.5-1.5-.5-1.5-2-.5-2-.5-1-1-1-1-2 .5-2 .5v2 2l.5 1.5.5 1.5 1.5 1 1.5 1" style="fill:#675f7a;stroke:#675f7a"/><path d="m40 838h2l1-1 1-1 1-1.5 1-1.5-1-1-1-1-1-1.5-1-1.5-1.5.5-1.5.5-1.5 1-1.5 1-1 1-1 1v2 2l2 .5 2 .5h1 1" style="fill:#273041;stroke:#273041"/><path d="m68 838l76-54 17-9.5 17-9.5 10-16.5 10-16.5 18-17.5 18-17.5-10.5 5.5-10.5 5.5-6-9.5-6-9.5-5 6.5-5 6.5-6 7.5-6 7.5-16 8.5-16 8.5-7 2.5-7 2.5-4 4.5-4 4.5-12.5-15.5-12.5-15.5-8 10.5-8 10.5-4-27.5-4-27.5-5 25.5-5 25.5-3.5-5-3.5-5-10-19.5-10-19.5-2.5-34-2.5-34-17 21-17 21v47 47 21 21l38.5-5 38.5-5-8.5 11-8.5 11 4 15.5 4 15.5" style="fill:#edce86;stroke:#edce86"/><path d="m622 832l3 1 .5-.5.5-.5v-1-1-1-1l1.5.5 1.5.5 1-.5 1-.5.5-.5.5-.5.5-1.5.5-1.5 1-.5 1-.5v-1-1l1-1 1-1h1.5 1.5l.5.5.5.5.5.5.5.5.5.5.5.5.5 1 .5 1v-2-2l-.5-.5-.5-.5-.5-1-.5-1v-1-1l.5-.5.5-.5.5-.5.5-.5-1-.5-1-.5-1.5.5-1.5.5-.5-1-.5-1-.5-.5-.5-.5-.5-.5-.5-.5-1-1-1-1-15-6-15-6 9 18.5 9 18.5" style="fill:#94b1c3;stroke:#94b1c3"/><g style="fill:#675f7a;stroke:#675f7a"><path d="m687 818l3 1 1-1.5 1-1.5 1-1 1-1-.5-1.5-.5-1.5-1-1.5-1-1.5-1-1-1-1-1.5-1-1.5-1-1.5-.5-1.5-.5-1 1-1 1-1 1.5-1 1.5-1.5.5-1.5.5-.5 1-.5 1 2.5.5 2.5.5 1.5 1 1.5 1 .5 1.5.5 1.5 1.5.5 1.5.5"/><path d="m639 813l3-1-4-2.5-4-2.5 1 1 1 1 .5.5.5.5.5.5.5.5.5 1 .5 1"/></g><path d="m587 795l1-1h2 2l1-1.5 1-1.5h1 1l2 .5 2 .5 1-.5 1-.5-.5-1-.5-1-1.5.5-1.5.5-1-.5-1-.5-.5-.5-.5-.5h-1-1l-.5.5-.5.5h-1.5-1.5l.5-.5.5-.5v-1-1l.5-.5.5-.5v-1.5-1.5l-.5-.5-.5-.5.5-.5.5-.5v-1-1l-1-.5-1-.5-.5 1.5-.5 1.5-1 .5-1 .5v1 1l-.5.5-.5.5v1 1 1 1l.5 1 .5 1 .5.5.5.5.5.5.5.5-.5.5-.5.5v1 1" style="fill:#94b1c3;stroke:#94b1c3"/><path d="m545 774l3 1 1-1 1-1 1-1.5 1-1.5-.5-1.5-.5-1.5-1-1.5-1-1.5-.5-1.5-.5-1.5-1 1.5-1 1.5-1.5-.5-1.5-.5-1 1-1 1-1.5 1-1.5 1v2 2l1.5 1 1.5 1h1 1l1 .5 1 .5" style="fill:#273041;stroke:#273041"/><path d="m568 772h2l1.5-.5 1.5-.5h1.5 1.5l.5-.5.5-.5 1-1 1-1 .5-1 .5-1 .5.5.5.5.5.5.5.5 1 .5 1 .5-.5-1.5-.5-1.5v-1-1l-.5-.5-.5-.5 1.5-.5 1.5-.5v.5.5l.5.5.5.5.5-.5.5-.5 1-.5 1-.5v-1-1h1.5 1.5l1-.5 1-.5h-1.5-1.5l-.5-.5-.5-.5-.5.5-.5.5h-1.5-1.5-1-1l-.5-.5-.5-.5h-1-1l-1.5.5-1.5.5h-1.5-1.5-1-1l-.5.5-.5.5-.5.5-.5.5-.5 1-.5 1-.5.5-.5.5v1 1 1 1l-.5 2-.5 2" style="fill:#94b1c3;stroke:#94b1c3"/><path d="m533 769l1-1 1.5-.5 1.5-.5h.5.5l-2.5 1-2.5 1" style="fill:#273041;stroke:#273041"/><path d="m550 757h3l1.5.5 1.5.5v-1.5-1.5l-1-1-1-1-1-1.5-1-1.5-1-1-1-1-1.5-1-1.5-1-.5-1.5-.5-1.5.5-1.5.5-1.5 1-1.5 1-1.5-1 .5-1 .5-1 1.5-1 1.5-1 1-1 1-2-.5-2-.5v1.5 1.5l1 1 1 1 .5.5.5.5h1 1l.5.5.5.5v1 1l1 .5 1 .5.5.5.5.5v1 1l1 1 1 1" style="fill:#94b1c3;stroke:#94b1c3"/><path d="m537 744l2 1v-1.5-1.5l2 .5 2 .5 1-1 1-1 1-1.5 1-1.5 1-.5 1-.5 7-27 7-27-18.5 8-18.5 8 5.5 22.5 5.5 22.5" style="fill:#edce86;stroke:#edce86"/><g style="fill:#94b1c3;stroke:#94b1c3"><path d="m718 721l1-2 .5-1 .5-1v-2.5-2.5-.5-.5l-21.5-7.5-21.5-7.5 20.5 12.5 20.5 12.5"/><path d="m525 698l1 1 18.5-8 18.5-8 44-20 44-20 3.5-9 3.5-9-7.5-18-7.5-18-10-4.5-10-4.5-9-13.5-9-13.5-3.5-7.5-3.5-7.5-12.5-11-12.5-11 16-10.5 16-10.5 20.5-9 20.5-9 17-.5 17-.5 20-10.5 20-10.5v-46-46-44.5-44.5-11.5-11.5l-25 20-25 20-4-7.5-4-7.5-10-14-10-14-2.5 40-2.5 40-11 30.5-11 30.5-2 27.5-2 27.5-18 24.5-18 24.5-9 21.5-9 21.5-12.5 19.5-12.5 19.5-7 29.5-7 29.5 3.5 32.5 3.5 32.5"/></g><g style="fill:#273041;stroke:#273041"><path d="m352 691l12-55-15.5-8-15.5-8 7 24.5 7 24.5 2.5 11 2.5 11"/><path d="m117 638l36-27 16-.5 16-.5 5.5-12 5.5-12-21.5 1-21.5 1-24.5 2-24.5 2-29.5 1-29.5 1 19 6.5 19 6.5 2.5 10 2.5 10 25-8.5 25-8.5-10.5 14-10.5 14"/><path d="m0 627v1l22.5-27 22.5-27-22.5-11-22.5-11v37.5 37.5"/><path d="m258 601l58-21 36 .5 36 .5 34 4.5 34 4.5-15-18.5-15-18.5-9.5-23-9.5-23-27-2.5-27-2.5-28.5 4-28.5 4-8 25.5-8 25.5-2.5 13-2.5 13-5-14.5-5-14.5-3.5 21.5-3.5 21.5"/></g><g style="fill:#edce86;stroke:#edce86"><path d="m70 583l37-14-22.5-1-22.5-1 4 8 4 8"/><path d="m151 575h2 2 2l2-.5 2-.5 1.5-.5 1.5-.5 2-.5 2-.5 1.5.5 1.5.5.5-1 .5-1-1-1-1-1v-1-1l.5-.5.5-.5-.5-.5-.5-.5-.5-1-.5-1h-1-1l-.5-.5-.5-.5-.5.5-.5.5-1 .5-1 .5v1 1l-.5.5-.5.5-.5.5-.5.5-1 .5-1 .5-.5-.5-.5-.5-.5.5-.5.5.5.5.5.5-.5.5-.5.5-1-.5-1-.5-.5.5-.5.5-.5-1.5-.5-1.5-1.5 2-1.5 2 .5 1.5.5 1.5"/></g><g style="fill:#94b1c3;stroke:#94b1c3"><path d="m193 574l-18-47-13.5 5-13.5 5 3.5 13 3.5 13-1 2.5-1 2.5.5 1.5.5 1.5.5-.5.5-.5 1 .5 1 .5.5-.5.5-.5-.5-.5-.5-.5.5-.5.5-.5.5.5.5.5 1-.5 1-.5.5-.5.5-.5.5-.5.5-.5v-1-1l1-.5 1-.5.5-.5.5-.5.5.5.5.5h1 1l.5 1 .5 1 .5.5.5.5-.5.5-.5.5v1 1l1 1 1 1 10.5 1.5 10.5 1.5"/><path d="m458 535l5-34 2.5-10 2.5-10-22.5-1-22.5-1 14.5 24 14.5 24 3 4 3 4"/></g><path d="m171 482l49-22 34.5-10 34.5-10 5 .5 5 .5 15-29.5 15-29.5 22.5 18 22.5 18 35.5 11 35.5 11 37-6.5 37-6.5 16 5.5 16 5.5 8.5 3 8.5 3 9 8.5 9 8.5 10-16.5 10-16.5.5-32 .5-32 6-19.5 6-19.5 8-1.5 8-1.5.5-17 .5-17-1-14.5-1-14.5-10-14.5-10-14.5-17-12.5-17-12.5-10.5-19-10.5-19 21.5 17 21.5 17 5-2.5 5-2.5-23-16.5-23-16.5-28-14.5-28-14.5-33.5-8-33.5-8-34-.5-34-.5-36.5 6-36.5 6-33 6.5-33 6.5-32 9.5-32 9.5-26 19.5-26 19.5-20.5 23-20.5 23-11 35.5-11 35.5 5.5 36 5.5 36 18.5 26 18.5 26 28 18.5 28 18.5 5 2 5 2" style="fill:#273041;stroke:#273041"/><g style="fill:#94b1c3;stroke:#94b1c3"><path d="m339 478l36-23-7.5-20-7.5-20-14.5-8-14.5-8 3.5 29 3.5 29 .5 10.5.5 10.5"/><path d="m475 467l-5-24-5.5 6-5.5 6 8 6 8 6"/></g><path d="m57 428l-5-71 4.5-38 4.5-38 14.5-29 14.5-29 24.5-21.5 24.5-21.5v-.5-.5l14.5-10.5 14.5-10.5v-.5-.5l25.5-14 25.5-14 .5-1.5.5-1.5 1-.5 1-.5 15.5-18 15.5-18-25 13-25 13 .5-57 .5-57h-46-46-44.5-44.5-11.5-11.5v33 33 47 47 44.5 44.5 47 47 27.5 27.5l14 .5 14 .5 14.5 15.5 14.5 15.5" style="fill:#edce86;stroke:#edce86"/><g style="fill:#675f7a;stroke:#675f7a"><path d="m463 423l62-23-8-9.5-8-9.5-24.5 18-24.5 18 1.5 3 1.5 3"/><path d="m428 409l36-17-28-.5-28-.5 10 9 10 9"/><path d="m500 347l27-26-30.5-2-30.5-2 17 15 17 15"/><path d="m327 343l64-27 34-7.5 34-7.5-29.5 1-29.5 1 39.5-5 39.5-5 12-12.5 12-12.5-26-18.5-26-18.5-30-6.5-30-6.5-38 .5-38 .5-34.5 9-34.5 9-26 18.5-26 18.5 9.5 21 9.5 21 40 3.5 40 3.5 34.5-1 34.5-1-27.5 5-27.5 5-37-6.5-37-6.5-5.5 3-5.5 3 37 4.5 37 4.5 15.5 5 15.5 5"/></g><path d="m335 329l55-30 34-5.5 34-5.5-17.5-13-17.5-13-24.5-8-24.5-8-29-1.5-29-1.5-20.5 12-20.5 12-16.5 15-16.5 15 16 8.5 16 8.5 30.5 7.5 30.5 7.5" style="fill:#94b1c3;stroke:#94b1c3"/><path d="m670 290l50-40v-45-45-46-46-33.5-33.5h-11-11-44-44l7 25 7 25-.5 20-.5 20-6.5 47-6.5 47-52-28-52-28v.5.5l52 29.5 52 29.5 16 29.5 16 29.5 10 14 10 14 4 7.5 4 7.5" style="fill:#edce86;stroke:#edce86"/><path d="m167 196l33-24-19.5 10-19.5 10 3 2 3 2" style="fill:#675f7a;stroke:#675f7a"/><path d="m610 184l13-94 .5-20 .5-20-7-25-7-25h-46-46-46-46-44.5-44.5-44.5-44.5-21.5-21.5l-.5 58-.5 58 25-13 25-13 28.5-17 28.5-17 35.5 8 35.5 8 30 14.5 30 14.5 32.5 14 32.5 14 52 28 52 28" style="fill:#ffffe9;stroke:#ffffe9"/><g style="fill:#94b1c3;stroke:#94b1c3"><path d="m139 179v1l14.5-11 14.5-11-14.5 10.5-14.5 10.5"/><path d="m168 157v1l25.5-14.5 25.5-14.5-25.5 14-25.5 14"/><path d="m226 139l69-18 35.5-3 35.5-3 33.5-3 33.5-3 36.5 10 36.5 10v-.5-.5l-32.5-14-32.5-14-30-14.5-30-14.5-35.5-8-35.5-8-28.5 17-28.5 17-15.5 18-15.5 18-.5 2-.5 2v1.5 1.5l.5 1.5.5 1.5.5 1 .5 1 .5.5.5.5 1 .5 1 .5"/></g><path d="m242 117l43-32-20 9.5-20 9.5-1.5 6.5-1.5 6.5" style="fill:#675f7a;stroke:#675f7a"/></g></svg>