<svg xmlns="http://www.w3.org/2000/svg" viewBox="0 0 960 712"><g style="fill:#837164"><path d="m0 0h960v712h-960z"/><path d="m959 712h1v-15-15-15.5-15.5-15.5-15.5-7.5-7.5h-.5-.5l-8 5-8 5-9.5 6-9.5 6-10 4.5-10 4.5-10 5.5-10 5.5-10.5 5-10.5 5-9 5-9 5-11.5 6.5-11.5 6.5.5 8.5.5 8.5 8.5 7.5 8.5 7.5h15 15 15.5 15.5 15.5 15.5 13.5 13.5" style="stroke:#837164;stroke-linejoin:round;stroke-width:.7"/></g><g style="stroke-linejoin:round;stroke-width:.7"><path d="m959 605h1v-1.5-1.5-2-2-2.5-2.5-2-2-2.5-2.5h-.5-.5l-9.5 5.5-9.5 5.5-10 5.5-10 5.5-10 5.5-10 5.5-10.5 5-10.5 5-9.5 4.5-9.5 4.5-10 5-10 5-10.5 5-10.5 5-10 5.5-10 5.5-10.5 5-10.5 5-8.5 5.5-8.5 5.5-9.5 5.5-9.5 5.5-10.5 6.5-10.5 6.5h3 3 2 2 2.5 2.5 2 2 2 2 2.5 2.5 2 2 2.5 2.5 2 2 2.5 2.5l9-6.5 9-6.5 18.5-9.5 18.5-9.5 11.5-6.5 11.5-6.5 9-5 9-5 10.5-5 10.5-5 10-5.5 10-5.5 10-4.5 10-4.5 9.5-6 9.5-6 8-5 8-5" style="fill:#7e4527;stroke:#7e4527"/><path d="m959 584h1v-1-1h-.5-.5l-10 5.5-10 5.5-10 5.5-10 5.5-10 5.5-10 5.5-10.5 5-10.5 5-10.5 5-10.5 5-9.5 4.5-9.5 4.5-10 5-10 5-10 5.5-10 5.5-10 5.5-10 5.5-10 5.5-10 5.5-9 5-9 5 1-4 1-4-4.5 2-4.5 2-3.5 6-3.5 6-9 3.5-9 3.5h3 3 2.5 2.5 1 1l10.5-6.5 10.5-6.5 9.5-5.5 9.5-5.5 8.5-5.5 8.5-5.5 10.5-5 10.5-5 10-5.5 10-5.5 10.5-5 10.5-5 10-5 10-5 9.5-4.5 9.5-4.5 10.5-5 10.5-5 10-5.5 10-5.5 10-5.5 10-5.5 9.5-5.5 9.5-5.5" style="fill:#ca6839;stroke:#ca6839"/><path d="m959 582h1v-15-15-15.5-15.5-15.5-15.5-13.5-13.5h-.5-.5v1.5 1.5 1.5 1.5l-.5 1.5-.5 1.5h-.5-.5l-24.5.5-24.5.5-.5.5-.5.5h-14.5-14.5l-14 .5-14 .5-14 .5-14 .5h-18.5-18.5l-.5.5-.5.5h-3-3-2-2-2-2-1-1-1.5-1.5l-1.5.5-1.5.5-.5-.5-.5-.5-2 .5-2 .5.5 1 .5 1 .5 1.5.5 1.5-.5 1.5-.5 1.5 1 1.5 1 1.5v1 1l-.5 1.5-.5 1.5-1 1-1 1-1 1.5-1 1.5-1 1-1 1-1.5 1-1.5 1-1 1-1 1-1 1-1 1 .5 1 .5 1h2.5 2.5l12-2.5 12-2.5 13 4 13 4-10-3-10-3-21.5 5-21.5 5 8 2 8 2-11.5 2-11.5 2-9.5 4.5-9.5 4.5 4.5 5 4.5 5 2 .5 2 .5 1.5.5 1.5.5 1.5 1 1.5 1 1 1 1 1 1 1.5 1 1.5.5 1.5.5 1.5v2.5 2.5l1 1 1 1-.5 1.5-.5 1.5v.5.5l-.5 2.5-.5 2.5-7.5 7.5-7.5 7.5-10.5 8-10.5 8-.5 1.5-.5 1.5v1 1l-1 1.5-1 1.5-.5.5-.5.5-.5.5-.5.5-.5.5-.5.5-.5 1-.5 1-.5.5-.5.5-1 .5-1 .5-.5 1-.5 1-5.5 10-5.5 10-6.5 9-6.5 9-8 7.5-8 7.5-7 8.5-7 8.5-5.5 11.5-5.5 11.5h.5.5l1.5-1 1.5-1 1.5-.5 1.5-.5 1-1.5 1-1.5.5-1.5.5-1.5 1.5-1 1.5-1 1-1 1-1 .5.5.5.5-.5 2-.5 2-1 1.5-1 1.5-.5 1.5-.5 1.5-.5 1-.5 1h3 3 2.5 2.5 1.5 1.5l8.5-7 8.5-7h10.5 10.5l-1 .5-1 .5-1 1.5-1 1.5-1 1-1 1-1.5 1-1.5 1-1 1-1 1v2 2h1 1l.5-1 .5-1 1-1 1-1 1-1 1-1h1 1l1-.5 1-.5.5-1.5.5-1.5.5-.5.5-.5 1-.5 1-.5 1-1 1-1h1.5 1.5l.5 1.5.5 1.5v1 1l-1 1-1 1v1 1l-.5.5-.5.5-.5 1-.5 1-1 1-1 1h2.5 2.5 2 2 2 2 1.5 1.5l9-3.5 9-3.5 3.5-6 3.5-6 4.5-2 4.5-2-1 4-1 4 9-5 9-5 10-5.5 10-5.5 10-5.5 10-5.5 10-5.5 10-5.5 10-5 10-5 9.5-4.5 9.5-4.5 10.5-5 10.5-5 10.5-5 10.5-5 10-5.5 10-5.5 10-5.5 10-5.5 10-5.5 10-5.5" style="fill:#ed9c5d;stroke:#ed9c5d"/><path d="m959 463h1v-15-15-15.5-15.5-15.5-15.5-15.5-15.5-15.5-15.5-15.5-15.5-15.5-15.5-15.5-15.5-15.5-15.5-15.5-15.5-15.5-15.5-15.5-15.5-16-16-15.5-15.5-14.5-14.5h-1-1-15.5-15.5-15.5-15.5-15.5-15.5-15.5-15.5-15.5-15.5-2-2l2 9.5 2 9.5 2 12.5 2 12.5 2 12 2 12 2.5 12.5 2.5 12.5 2 12 2 12 2.5 12.5 2.5 12.5 2 12 2 12 2 12.5 2 12.5 2.5 12 2.5 12 2 12.5 2 12.5 2.5 11.5 2.5 11.5 2 13 2 13 2 12 2 12 2.5 12.5 2.5 12.5 2 12 2 12 2 12.5 2 12.5 2.5 11.5 2.5 11.5 2.5 11.5 2.5 11.5 2.5 6.5 2.5 6.5 6.5 5.5 6.5 5.5 8.5 3.5 8.5 3.5 9-.5 9-.5 13.5-4 13.5-4v-14.5-14.5-14-14-15-15-14-14-15-15-14-14-15-15-15.5-15.5-14-14-14.5-14.5-14-14-15-15-14-14-15-15-14-14l.5-5 .5-5v14 14 15 15 14 14 15 15 14 14 15 15 14 14 14.5 14.5 14 14 15 15 14 14 15 15 14 14 15 15 24 24" style="fill:#fffceb;stroke:#fffceb"/><path d="m958 472l1-3v-1.5-1.5-1.5-1.5-24-24-15-15-14-14-15-15-14-14-15-15-14-14-14.5-14.5-14-14-15-15-14-14-15-15-14-14-15-15-14-14l-.5 5-.5 5v14 14 15 15 14 14 15 15 14 14 14.5 14.5 14 14 15.5 15.5 15 15 14 14 15 15 14 14 15 15 14 14 14.5 14.5 2 2 2.5 2.5 2 2l-.5 1.5-.5 1.5v.5.5h.5.5" style="fill:#ffea6a;stroke:#ffea6a"/><path d="m957 471l1-3v-2-2-2.5-2.5-2-2l-13.5 4-13.5 4-9 .5-9 .5-8.5-3.5-8.5-3.5-6.5-5.5-6.5-5.5-2.5-6.5-2.5-6.5-2.5-11.5-2.5-11.5-2.5-11.5-2.5-11.5-2-12.5-2-12.5-2-12-2-12-2.5-12.5-2.5-12.5-2-12-2-12-2-13-2-13-2.5-11.5-2.5-11.5-2-12.5-2-12.5-2.5-12-2.5-12-2-12.5-2-12.5-2-12-2-12-2.5-12.5-2.5-12.5-2-12-2-12-2.5-12.5-2.5-12.5-2-12-2-12-2-12.5-2-12.5-2-9.5-2-9.5h-14.5-14.5-15.5-15.5-15.5-15.5-15.5-15.5-11-11l11.5 1 11.5 1-14 2-14 2 1.5 11 1.5 11 5 10.5 5 10.5 6 9.5 6 9.5 3 9.5 3 9.5 2 8.5 2 8.5-3.5 9-3.5 9v8.5 8.5l1 9.5 1 9.5-.5 12-.5 12-.5 12-.5 12-.5 12-.5 12v11 11 11.5 11.5l1.5 11 1.5 11v10.5 10.5l1 9.5 1 9.5 3.5 8 3.5 8 4.5 8 4.5 8 2 6.5 2 6.5 6 2.5 6 2.5 4 3.5 4 3.5 5.5 4 5.5 4 5.5 3 5.5 3 4 4 4 4 6 3.5 6 3.5 9 3.5 9 3.5 9 3.5 9 3.5 6 2.5 6 2.5 7 .5 7 .5 9.5-1 9.5-1 8.5 3 8.5 3 7 3.5 7 3.5 16 9.5 16 9.5 24.5-.5 24.5-.5v-.5-.5" style="fill:#ddd3ca;stroke:#ddd3ca"/><path d="m914 696l-2-27-2-13.5-2-13.5-9.5 2-9.5 2-10 5.5-10 5.5-8.5 6-8.5 6 7.5 5 7.5 5 6.5 6 6.5 6 3 1.5 3 1.5 8-1.5 8-1.5 5.5 5 5.5 5 .5-2.5.5-2.5" style="fill:#9a938f;stroke:#9a938f"/><path d="m907 474l1-1-16-9.5-16-9.5-7-3.5-7-3.5-8.5-3-8.5-3-9.5 1-9.5 1-7-.5-7-.5-6-2.5-6-2.5-9-3.5-9-3.5-9-3.5-9-3.5-6-3.5-6-3.5-4-4-4-4-5.5-3-5.5-3-5.5-4-5.5-4-4-3.5-4-3.5-6-2.5-6-2.5-2-6.5-2-6.5-4.5-8-4.5-8-3.5-8-3.5-8-1-9.5-1-9.5v-10.5-10.5l-1.5-11-1.5-11v-11.5-11.5-11-11l.5-12 .5-12 .5-12 .5-12 .5-12 .5-12-1-9.5-1-9.5v-8.5-8.5l3.5-9 3.5-9-2-8.5-2-8.5-3-9.5-3-9.5-6-9.5-6-9.5-5-10.5-5-10.5-1.5-11-1.5-11 14-2 14-2-11.5-1-11.5-1h-15.5-15.5-11.5-11.5l4.5 8 4.5 8 6 8 6 8 6.5 8.5 6.5 8.5 6 9.5 6 9.5 8 5.5 8 5.5 3.5 10.5 3.5 10.5-3.5 10-3.5 10-11 3-11 3 12.5 2.5 12.5 2.5-2 12-2 12-.5 12.5-.5 12.5-2.5 11.5-2.5 11.5-2.5 11.5-2.5 11.5-2 9.5-2 9.5-1.5 11-1.5 11-3 9-3 9-1 9.5-1 9.5-.5 10.5-.5 10.5v12 12l1.5 10.5 1.5 10.5-1 10-1 10 2 10 2 10 4 9 4 9 8 3.5 8 3.5 11 3 11 3 23.5-1 23.5-1h2 2 1.5 1.5l7.5 2.5 7.5 2.5 3.5 10 3.5 10 11.5 6 11.5 6h18.5 18.5l14-.5 14-.5 14-.5 14-.5h14.5 14.5" style="fill:#bdbbb6;stroke:#bdbbb6"/><path d="m900 521l1-2h-.5-.5-.5-.5l-1.5.5-1.5.5-.5.5-.5.5-1 .5-1 .5-1.5.5-1.5.5h-1-1l-1 .5-1 .5-1.5.5-1.5.5-.5.5-.5.5h-2.5-2.5l-13-.5-13-.5-12-1-12-1-9.5-4-9.5-4-1 .5-1 .5h-1.5-1.5l.5 1 .5 1v1 1l11.5 3 11.5 3 13.5 1.5 13.5 1.5 15-.5 15-.5h1.5 1.5l2-.5 2-.5 1.5-.5 1.5-.5 1.5-1 1.5-1 1-1 1-1 .5-.5.5-.5" style="fill:#837164;stroke:#837164"/><path d="m900 519h1l-.5-1-.5-1v-1-1h-.5-.5l-1.5-.5-1.5-.5-.5-.5-.5-.5h-1-1l-.5.5-.5.5-1 .5-1 .5h-1-1l-.5.5-.5.5v1 1l-1 .5-1 .5v1 1l.5.5.5.5h-1-1l-.5 1-.5 1-1.5.5-1.5.5h-1.5-1.5v.5.5h2.5 2.5l.5-.5.5-.5 1.5-.5 1.5-.5 1-.5 1-.5h1 1l1.5-.5 1.5-.5 1-.5 1-.5.5-.5.5-.5 1.5-.5 1.5-.5h.5.5" style="fill:#9a938f;stroke:#9a938f"/><path d="m899 515h1l-.5-1-.5-1-.5-1.5-.5-1.5-1.5-1-1.5-1-1-1-1-1-1-1.5-1-1.5h-.5-.5-.5-.5l-1.5 2-1.5 2-1.5.5-1.5.5-1.5.5-1.5.5-2 .5-2 .5-1.5.5-1.5.5 2 .5 2 .5.5 1.5.5 1.5.5.5.5.5v1.5 1.5 1.5 1.5l-1 1.5-1 1.5h1.5 1.5l1.5-.5 1.5-.5.5-1 .5-1h1 1l-.5-.5-.5-.5v-1-1l1-.5 1-.5v-1-1l.5-.5.5-.5h1 1l1-.5 1-.5.5-.5.5-.5h1 1l.5.5.5.5 1.5.5 1.5.5" style="fill:#bdbbb6;stroke:#bdbbb6"/><path d="m889 503h1l-.5-1-.5-1-1.5-.5-1.5-.5.5 1 .5 1v1 1l-1.5 1-1.5 1-13-1.5-13-1.5-11.5-1-11.5-1-13.5 7-13.5 7 9.5 4 9.5 4 12 1 12 1 13 .5 13 .5h-.5-.5l-12-4-12-4-10.5-5-10.5-5 4.5-2.5 4.5-2.5 1 .5 1 .5 1 .5 1 .5 1.5.5 1.5.5.5.5.5.5 1 .5 1 .5 1.5.5 1.5.5h1 1l1 .5 1 .5h2 2v-1-1l-.5-.5-.5-.5-.5-.5-.5-.5 1-.5 1-.5.5.5.5.5h1 1l.5.5.5.5.5 1.5.5 1.5 1 .5 1 .5h2.5 2.5l1.5-.5 1.5-.5 2-.5 2-.5 1.5-.5 1.5-.5 1.5-.5 1.5-.5 1.5-2 1.5-2" style="fill:#9a938f;stroke:#9a938f"/><path d="m887 504v-2l-.5-1-.5-1-11.5-4.5-11.5-4.5-14.5.5-14.5.5-7 3.5-7 3.5-5.5 3.5-5.5 3.5 10.5-4.5 10.5-4.5 12.5-2.5 12.5-2.5 14.5 6.5 14.5 6.5v.5.5l1.5-1 1.5-1" style="fill:#837164;stroke:#837164"/><path d="m884 505l-29-13-12.5 2.5-12.5 2.5-10.5 4.5-10.5 4.5-1 1.5-1 1.5-1 1.5-1 1.5-.5 1.5-.5 1.5-.5.5-.5.5h1.5 1.5l1-.5 1-.5 13.5-7 13.5-7 11.5 1 11.5 1 13 1.5 13 1.5v-.5-.5" style="fill:#5d5349;stroke:#5d5349"/><path d="m883 529l1-1-15 .5-15 .5-13.5-1.5-13.5-1.5-11.5-3-11.5-3 9 4 9 4 14.5 1 14.5 1h14.5 14.5l1.5-.5 1.5-.5" style="fill:#ca6839;stroke:#ca6839"/><path d="m879 522v-3-1.5-1.5l-.5-.5-.5-.5-.5-1.5-.5-1.5-2-.5-2-.5.5 1 .5 1v2 2l.5 1.5.5 1.5-.5 1.5-.5 1.5-1 .5-1 .5-.5-.5-.5-.5-.5-.5-.5-.5-.5-1-.5-1-.5-.5-.5-.5-.5-.5-.5-.5-.5-.5-.5-.5-1-.5-1-.5-.5-.5-.5-.5-.5-.5-.5-.5-.5-.5-.5-.5-1-.5-1-.5 1.5-.5 1.5-.5.5-.5.5-.5h1.5 1.5l-.5-1.5-.5-1.5-.5-.5-.5-.5h-1-1l-.5-.5-.5-.5-1 .5-1 .5.5.5.5.5.5.5.5.5v1 1h-2-2l-1-.5-1-.5h-1-1l-1.5-.5-1.5-.5-1-.5-1-.5-.5-.5-.5-.5-1.5-.5-1.5-.5-1-.5-1-.5-1-.5-1-.5 5 3.5 5 3.5 13.5 7.5 13.5 7.5 1-1.5 1-1.5" style="fill:#ddd3ca;stroke:#ddd3ca"/><path d="m876 540l1-3-1-1-1-1h-1.5-1.5l-1 1-1 1-.5 2-.5 2 1 1 1 1h1.5 1.5l1-1 1-1v-.5-.5" style="fill:#ffea6a;stroke:#ffea6a"/><path d="m876 526h1v-.5-.5l-13.5-7.5-13.5-7.5-5-3.5-5-3.5-4.5 2.5-4.5 2.5 10.5 5 10.5 5 12 4 12 4" style="fill:#bdbbb6;stroke:#bdbbb6"/><path d="m874 523l1-3-.5-1.5-.5-1.5v-2-2l-.5-1-.5-1h-2.5-2.5l-1-.5-1-.5h-1.5-1.5l-.5.5-.5.5-1.5.5-1.5.5 1 .5 1 .5.5.5.5.5.5.5.5.5.5.5.5.5 1 .5 1 .5.5.5.5.5.5.5.5.5.5.5.5.5.5 1 .5 1 .5.5.5.5.5.5.5.5 1-.5 1-.5" style="fill:#fffceb;stroke:#fffceb"/><path d="m839 712h1l-8.5-7.5-8.5-7.5-.5-8.5-.5-8.5-18.5 9.5-18.5 9.5-9 6.5-9 6.5h16 16 15.5 15.5 4.5 4.5" style="fill:#5d5349;stroke:#5d5349"/><path d="m802 512l-26-8-12 2.5-12 2.5-1 .5-1 .5.5 1 .5 1-1.5.5-1.5.5-2 .5-2 .5h-1.5-1.5l-.5.5-.5.5-2 .5-2 .5h1.5 1.5l21.5-5 21.5-5 10 3 10 3" style="fill:#837164;stroke:#837164"/><path d="m784 477l1-1-11.5-6-11.5-6-3.5-10-3.5-10-7.5-2.5-7.5-2.5h2 2 2.5 2.5 2 2l.5.5.5.5-1 .5-1 .5-1 .5-1 .5v.5.5 10 10l-8.5 6-8.5 6-10 4.5-10 4.5-8 4-8 4 9-2 9-2 9-5 9-5 13-4 13-4-.5 1-.5 1-.5.5-.5.5-1 .5-1 .5-1 1-1 1-.5 1-.5 1h2.5 2.5l2-.5 2-.5.5.5.5.5 1.5-.5 1.5-.5h1.5 1.5 1 1 2 2 2 2 3 3" style="fill:#9a938f;stroke:#9a938f"/><path d="m760 491v-2l-1-1.5-1-1.5.5-1.5.5-1.5-.5-1.5-.5-1.5-.5-1-.5-1h-2.5-2.5l-1 .5-1 .5-1 .5-1 .5-.5-.5-.5-.5-.5.5-.5.5-.5.5-.5.5-.5.5-.5.5-.5 1-.5 1h-1-1l-.5.5-.5.5-.5.5-.5.5-.5.5-.5.5-1 .5-1 .5h-1-1v1 1h-1-1l-1 .5-1 .5-.5.5-.5.5-.5.5-.5.5-1.5.5-1.5.5-1 .5-1 .5-.5.5-.5.5-1 .5-1 .5-1 1-1 1h-1-1l-.5.5-.5.5-.5.5-.5.5-1 .5-1 .5-.5.5-.5.5-.5.5-.5.5-.5.5-.5.5-1 .5-1 .5h-1-1l-.5.5-.5.5-.5 1-.5 1v.5.5l1 .5 1 .5 1.5.5 1.5.5 1.5.5 1.5.5h2 2l2 .5 2 .5h2 2 2.5 2.5 2 2l2-.5 2-.5 2.5.5 2.5.5h1.5 1.5l2-.5 2-.5 1.5-.5 1.5-.5-.5-1-.5-1 1-.5 1-.5h-2.5-2.5l-.5-1-.5-1 1-1 1-1 1-1 1-1 1.5-1 1.5-1 1-1 1-1 1-1.5 1-1.5 1-1 1-1 .5-1.5.5-1.5" style="fill:#ca6839;stroke:#ca6839"/><path d="m759 470l-26 8-9 5-9 5-9 2-9 2 8-4 8-4 10-4.5 10-4.5 8.5-6 8.5-6v-10-10h-.5-.5l-1 .5-1 .5-.5.5-.5.5-.5.5-.5.5-1 .5-1 .5-1.5.5-1.5.5-.5.5-.5.5-1 .5-1 .5-1.5.5-1.5.5-.5.5-.5.5h-1.5-1.5l-1 1-1 1h-1-1l-.5.5-.5.5h-1-1l-1 1-1 1h1.5 1.5l.5-.5.5-.5h1.5 1.5l1-1 1-1 .5.5.5.5-9.5 5-9.5 5-10.5 5-10.5 5 4.5 15.5 4.5 15.5 1.5-1 1.5-1 .5-.5.5-.5.5-.5.5-.5h1 1l.5-.5.5-.5 1-.5 1-.5.5-.5.5-.5.5-.5.5-.5h1 1l1-.5 1-.5.5-.5.5-.5.5-.5.5-.5h1 1l.5-.5.5-.5 1-.5 1-.5.5-.5.5-.5.5-.5.5-.5v1 1 .5.5l1.5-.5 1.5-.5.5-.5.5-.5.5-.5.5-.5 1-.5 1-.5h1 1v-1-1h1 1l1-.5 1-.5.5-.5.5-.5.5-.5.5-.5.5-.5.5-.5h1 1l.5-1 .5-1 .5-.5.5-.5.5-.5.5-.5.5-.5.5-.5.5.5.5.5 1-.5 1-.5 1-.5 1-.5.5-1 .5-1 1-1 1-1 1-.5 1-.5.5-.5.5-.5.5-1 .5-1" style="fill:#837164;stroke:#837164"/><path d="m755 520l-16-4h-1.5-1.5l-1.5-.5-1.5-.5-.5.5-.5.5h-1.5-1.5-2-2l-.5.5-.5.5-1-.5-1-.5h-2-2-1-1-1-1l-.5-.5-.5-.5h-1.5-1.5l-1.5-.5-1.5-.5h-1-1l-1-.5-1-.5-1.5-.5-1.5-.5h-1.5-1.5l-1 .5-1 .5-1.5 1-1.5 1-1 .5-1 .5.5 1.5.5 1.5-1 1-1 1-.5 1-.5 1-1 1-1 1-.5.5-.5.5-.5 1-.5 1-.5.5-.5.5-.5.5-.5.5-.5 1.5-.5 1.5 19.5 5 19.5 5h1 1l-4.5-5-4.5-5 9.5-4.5 9.5-4.5 11.5-2 11.5-2" style="fill:#ca6839;stroke:#ca6839"/><path d="m754 440l-1-1h-2-2-2.5-2.5-2-2-1.5-1.5-2-2l-.5.5-.5.5h-1.5-1.5-1-1-1.5-1.5l-1 .5-1 .5h3.5 3.5 2 2 2.5 2.5l1.5-.5 1.5-.5h2.5 2.5l2 1 2 1 1-.5 1-.5 1-.5 1-.5" style="fill:#ed9c5d;stroke:#ed9c5d"/><path d="m749 443h1v-.5-.5l-2-1-2-1h-2.5-2.5l-1.5.5-1.5.5h-2.5-2.5-2-2-3.5-3.5l-14 .5-14 .5-13.5.5-13.5.5-14 .5-14 .5-13.5 1-13.5 1-12.5 2.5-12.5 2.5-11 3-11 3-12 3-12 3-13.5 4.5-13.5 4.5 10-3 10-3 12.5-2 12.5-2 6 6 6 6-11.5 1-11.5 1-4 .5-4 .5-13.5 1-13.5 1h2 2 2 2 1 1 1.5 1.5 2 2 2.5 2.5 2 2 2.5 2.5 3 3l14.5-.5 14.5-.5 13 3.5 13 3.5 1 1.5 1 1.5 14-1.5 14-1.5 19.5-1.5 19.5-1.5-1-1-1-1h-.5-.5l-13 1.5-13 1.5-13.5 1-13.5 1-7-5-7-5h13.5 13.5l20.5-1 20.5-1 .5-1 .5-1 1.5-1 1.5-1 1.5-.5 1.5-.5h2.5 2.5l2.5-.5 2.5-.5 1-.5 1-.5h1 1l1-.5 1-.5h1 1l.5-.5.5-.5h1 1 1.5 1.5 1 1l.5-.5.5-.5h1 1l.5-.5.5-.5.5-.5.5-.5h1.5 1.5l.5-.5.5-.5h1 1l.5-.5.5-.5 1-.5 1-.5 1-.5 1-.5 1-1 1-1h1 1l.5-.5.5-.5h1 1l1-1 1-1h1.5 1.5l.5-.5.5-.5 1.5-.5 1.5-.5 1-.5 1-.5.5-.5.5-.5 1.5-.5 1.5-.5 1-.5 1-.5.5-.5.5-.5.5-.5.5-.5 1-.5 1-.5" style="fill:#ca6839;stroke:#ca6839"/><path d="m740 515l1-1-2.5-.5-2.5-.5-2 .5-2 .5h-2-2-2.5-2.5-2-2l-2-.5-2-.5h-2-2l-1.5-.5-1.5-.5-1.5-.5-1.5-.5-1-.5-1-.5h-1-1l-1 .5-1 .5-1 .5-1 .5h1.5 1.5l1.5.5 1.5.5 1 .5 1 .5h1 1l1.5.5 1.5.5h1.5 1.5l.5.5.5.5h1 1 1 1 2 2l1 .5 1 .5.5-.5.5-.5h2 2 1.5 1.5l.5-.5.5-.5 1.5.5 1.5.5 2-.5 2-.5" style="fill:#7e4527;stroke:#7e4527"/><path d="m738 565l1-3-1-1-1-1v-2.5-2.5l-.5-1.5-.5-1.5-1-1.5-1-1.5-1-1-1-1-1.5-1-1.5-1-1.5-.5-1.5-.5-2-.5-2-.5h-1-1l1.5 1 1.5 1 1.5.5 1.5.5.5.5.5.5 1 .5 1 .5 1.5.5 1.5.5.5.5.5.5.5 1 .5 1 .5 1.5.5 1.5.5.5.5.5v1.5 1.5l.5 1.5.5 1.5-.5 1.5-.5 1.5v.5.5.5.5l1-.5 1-.5v-.5-.5" style="fill:#837164;stroke:#837164"/><path d="m737 571l1-5-1 .5-1 .5h-.5-.5l-6 5.5-6 5.5-11 11-11 11v1 1l10.5-8 10.5-8 7.5-7.5 7.5-7.5" style="fill:#ca6839;stroke:#ca6839"/><path d="m736 565l1-3-.5-1.5-.5-1.5v-1.5-1.5l-.5-.5-.5-.5-.5-1.5-.5-1.5-.5-1-.5-1-.5-.5-.5-.5-1.5-.5-1.5-.5-1-.5-1-.5-.5-.5-.5-.5-1.5-.5-1.5-.5-1.5-1-1.5-1-19.5-5-19.5-5h-2-2l-2-.5-2-.5-1.5-.5-1.5-.5h-2-2l-1.5-.5-1.5-.5h-2.5-2.5l-1.5.5-1.5.5h-2.5-2.5l-1.5-.5-1.5-.5-2-.5-2-.5h-2-2l-1.5.5-1.5.5 2 3.5 2 3.5 10.5-2 10.5-2 4.5 3 4.5 3 7-.5 7-.5 10.5 2 10.5 2-5.5 9-5.5 9 1.5 6 1.5 6-1.5 1.5-1.5 1.5 3.5 5 3.5 5 7.5-7 7.5-7 8.5-4.5 8.5-4.5.5 1.5.5 1.5 1 .5 1 .5v-.5-.5" style="fill:#5d5349;stroke:#5d5349"/><path d="m735 567h1v-.5-.5l-1-.5-1-.5-.5-1.5-.5-1.5h-.5-.5l-8 6.5-8 6.5-11 13-11 13 1.5.5 1.5.5.5-.5.5-.5 1-.5 1-.5h.5.5l11-11 11-11 6-5.5 6-5.5" style="fill:#7e4527;stroke:#7e4527"/><path d="m732 562h1l-8.5 4.5-8.5 4.5-7.5 7-7.5 7-3.5-5-3.5-5 1.5-1.5 1.5-1.5-1.5-6-1.5-6 5.5-9 5.5-9-10.5-2-10.5-2-7 .5-7 .5-4.5-3-4.5-3-10.5 2-10.5 2-2-3.5-2-3.5-2 .5-2 .5v.5.5l1.5.5 1.5.5-1.5 1-1.5 1h-2-2l-1.5-1-1.5-1 1-1 1-1h-2.5-2.5l-.5 1-.5 1-.5 1-.5 1-1 .5-1 .5-1.5-.5-1.5-.5h-1-1-1.5-1.5l-1.5-.5-1.5-.5h-1-1-1.5-1.5l-.5-1.5-.5-1.5v-.5-.5l-1.5.5-1.5.5-.5.5-.5.5h-1.5-1.5-2-2l-1 1-1 1-3 .5-3 .5-1-.5-1-.5.5-1.5.5-1.5.5-1.5.5-1.5 1.5-1 1.5-1 .5-1.5.5-1.5-.5-.5-.5-.5-.5-.5-.5-.5h-1.5-1.5-2-2l-1.5 1.5-1.5 1.5-9.5 5.5-9.5 5.5-6 6.5-6 6.5-14 1.5-14 1.5-8.5-2.5-8.5-2.5v-1.5-1.5-1.5-1.5l-1.5-1.5-1.5-1.5-.5-2-.5-2-.5-1.5-.5-1.5-.5-1.5-.5-1.5v-3-3h-.5-.5-9.5-9.5l-6.5 1.5-6.5 1.5h-8-8l-3.5-3-3.5-3 6.5-2 6.5-2 5.5 1.5 5.5 1.5 14.5-5 14.5-5h1.5 1.5l1.5-.5 1.5-.5.5-4.5.5-4.5-11.5-3-11.5-3-12.5-1-12.5-1-2.5-10-2.5-10 2.5-10 2.5-10 8-6.5 8-6.5-4.5-11-4.5-11-4-11.5-4-11.5-4-12-4-12-4-11.5-4-11.5-4-11.5-4-11.5-4.5-11-4.5-11-4-11.5-4-11.5-.5 1-.5 1 3.5 12 3.5 12 4 11.5 4 11.5 3.5 12 3.5 12 4.5 11 4.5 11 3.5 12 3.5 12 4 11.5 4 11.5-9 5.5-9 5.5-12 4-12 4-11.5 4-11.5 4-12 3.5-12 3.5-11.5 4-11.5 4-11.5 4-11.5 4-19.5 6.5-19.5 6.5-11.5 4-11.5 4-10.5 3.5-10.5 3.5-11.5 3.5-11.5 3.5-10.5 3.5-10.5 3.5-9-2-9-2-4-11.5-4-11.5-3.5-12-3.5-12-3.5-12-3.5-12-4-11.5-4-11.5-3.5-10.5-3.5-10.5-4-11-4-11-3-12.5-3-12.5-4.5-11-4.5-11 6-7.5 6-7.5 12-2 12-2 13-2 13-2 13.5-2 13.5-2 13.5-2 13.5-2 13.5-2 13.5-2 13.5-2 13.5-2 15.5-2.5 15.5-2.5-10-3.5-10-3.5-12.5 1.5-12.5 1.5-13 2-13 2-12.5 1.5-12.5 1.5-13.5 1.5-13.5 1.5-12 2-12 2-13 2-13 2-14 1.5-14 1.5-10 5.5-10 5.5 3 11 3 11 3.5 11 3.5 11 3.5 10.5 3.5 10.5 3.5 11.5 3.5 11.5 3 11 3 11 3.5 11.5 3.5 11.5 3.5 10.5 3.5 10.5 3.5 11.5 3.5 11.5 3.5 12 3.5 12 3.5 10.5 3.5 10.5 4.5 10 4.5 10 10.5-2.5 10.5-2.5 11-4 11-4 10.5-3.5 10.5-3.5 11-4 11-4 9 2 9 2-.5 3.5-.5 3.5-9.5.5-9.5.5-10.5 4-10.5 4-10.5 3.5-10.5 3.5-11 4-11 4-10 4-10 4-11 4-11 4-.5 8.5-.5 8.5 3.5 11 3.5 11 3.5 10.5 3.5 10.5 3.5 11.5 3.5 11.5 5 11.5 5 11.5 11 2.5 11 2.5 13 2.5 13 2.5 16.5 5 16.5 5 1.5 1 1.5 1 .5.5.5.5.5-.5.5-.5h1 1l1 .5 1 .5h1 1l.5.5.5.5h1 1l.5.5.5.5h1 1l1 .5 1 .5h1 1l.5.5.5.5h1 1l1 .5 1 .5h1 1 1 1l.5.5.5.5h1.5 1.5l6.5-8 6.5-8 9-3 9-3 3.5 7.5 3.5 7.5 15.5.5 15.5.5 1-.5 1-.5 1-.5 1-.5.5-.5.5-.5 2-.5 2-.5 2 1 2 1 .5 1.5.5 1.5 1 1.5 1 1.5 1.5 1.5 1.5 1.5 1 .5 1 .5.5.5.5.5 1 .5 1 .5 1 1 1 1h15.5 15.5 15.5 15.5 15.5 15.5 15.5 15.5 16 16 15.5 15.5 7.5 7.5l8.5-6 8.5-6 8.5-6.5 8.5-6.5 7.5-6.5 7.5-6.5 7.5-7 7.5-7 6.5-7.5 6.5-7.5 7-10 7-10 3.5-9 3.5-9 4-3 4-3 11-13 11-13 8-6.5 8-6.5" style="fill:#1c1d15;stroke:#1c1d15"/><path d="m732 440l1-1-23.5 1-23.5 1-11-3-11-3-8-3.5-8-3.5-4-9-4-9-2-10-2-10 1-10 1-10-1.5-10.5-1.5-10.5v-12-12l.5-10.5.5-10.5 1-9.5 1-9.5 3-9 3-9 1.5-11 1.5-11 2-9.5 2-9.5 2.5-11.5 2.5-11.5 2.5-11.5 2.5-11.5.5-12.5.5-12.5 2-12 2-12-12.5-2.5-12.5-2.5 11-3 11-3 3.5-10 3.5-10-3.5-10.5-3.5-10.5-8-5.5-8-5.5-6-9.5-6-9.5-6.5-8.5-6.5-8.5-6-8-6-8-4.5-8-4.5-8h-3-3l5.5 9.5 5.5 9.5-6.5 1-6.5 1 5 4.5 5 4.5.5 9 .5 9 10.5-4 10.5-4 6 9.5 6 9.5 6 10.5 6 10.5-10.5-1-10.5-1-14-.5-14-.5-11.5-1.5-11.5-1.5h-13-13l-21-2.5-21-2.5-.5 1-.5 1-.5.5-.5.5-.5.5-.5.5-.5.5-.5.5-.5 1-.5 1 .5.5.5.5v1 1l.5.5.5.5.5 1 .5 1 5.5-3 5.5-3 10.5-.5 10.5-.5 8 1 8 1 11 5 11 5-12-1-12-1-10 2-10 2-13-3.5-13-3.5.5 1.5.5 1.5v1 1l.5 1 .5 1 .5.5.5.5h1 1l1 .5 1 .5h1 1l.5.5.5.5h1 1 1 1 1.5 1.5 1 1 1 1 1 1 1.5 1.5 1 1l.5-.5.5-.5 9.5-1 9.5-1h13.5 13.5 11.5 11.5 13.5 13.5l8.5-3 8.5-3 4 13 4 13-8.5 7-8.5 7-15 .5-15 .5h-15.5-15.5l-15-.5-15-.5h-14.5-14.5l-13.5-2-13.5-2h-.5-.5-1.5-1.5-2.5-2.5-2-2-2.5-2.5-2-2l-2-.5-2-.5h-1-1-3-3-.5-.5l-4.5-4-4.5-4-15-7.5-15-7.5-1.5.5-1.5.5h-1.5-1.5l-1-1-1-1h-1-1l-.5.5-.5.5h-1-1v-1.5-1.5h-2-2l-2-.5-2-.5-.5 1-.5 1-.5.5-.5.5 8 3 8 3 8.5 2 8.5 2 8.5 3 8.5 3-10.5-.5-10.5-.5-12.5 1-12.5 1h.5.5l1.5.5 1.5.5.5.5.5.5 1-.5 1-.5.5.5.5.5.5-.5.5-.5v1 1h1.5 1.5l.5.5.5.5.5-.5.5-.5.5.5.5.5h1.5 1.5 1 1 1 1 2 2l2 .5 2 .5 1.5.5 1.5.5h1.5 1.5 2 2 2.5 2.5l1 1 1 1 1 .5 1 .5 16 .5 16 .5 19.5 3.5 19.5 3.5-13 1.5-13 1.5h-13.5-13.5l-12.5.5-12.5.5h-15-15l-12.5-.5-12.5-.5-13.5.5-13.5.5-13.5-.5-13.5-.5h-14.5-14.5-14.5-14.5-14.5-14.5l-11.5-2.5-11.5-2.5-5-7-5-7-13.5-.5-13.5-.5h-13.5-13.5-12.5-12.5-14.5-14.5-13.5-13.5l-11.5-3-11.5-3-8-1-8-1 8-9.5 8-9.5-1-.5-1-.5-2 .5-2 .5-1 1-1 1-.5.5-.5.5-6.5 7.5-6.5 7.5 1-8 1-8 11-4.5 11-4.5 14 .5 14 .5h3 3 2 2l2 .5 2 .5h2 2 1.5 1.5l1.5.5 1.5.5 2 .5 2 .5h2 2l-.5 1.5-.5 1.5-1 1.5-1 1.5 3.5 8 3.5 8h15.5 15.5l14 1.5 14 1.5 11-1.5 11-1.5 5.5-7 5.5-7 10-6 10-6 10-5.5 10-5.5 7.5-2.5 7.5-2.5 6-9 6-9 3.5-1.5 3.5-1.5-5-3.5-5-3.5-8 5.5-8 5.5h-6.5-6.5l1-10 1-10 2.5-8.5 2.5-8.5 6 4 6 4 10.5-7.5 10.5-7.5h-14.5-14.5-15.5-15.5-15.5-15.5-15.5-15.5-15.5-15.5-15.5-15.5-15.5-15.5-16-16-8.5-8.5l1 1 1 1-4 4-4 4 .5 8 .5 8-3.5 4.5-3.5 4.5 1.5 6.5 1.5 6.5 3 5.5 3 5.5.5 8 .5 8-4 2.5-4 2.5v7.5 7.5l-7 1-7 1v3.5 3.5 2 2 1 1l13 .5 13 .5 17 3 17 3-11.5 1-11.5 1-18.5 1.5-18.5 1.5v2 2 1 1l13.5 1 13.5 1h11.5 11.5l13 1 13 1h14 14 14 14 13.5 13.5 13.5 13.5 14.5 14.5l13.5.5 13.5.5h15 15 14 14 15 15 14 14 13.5 13.5l14 .5 14 .5h14.5 14.5 14 14 15 15 14 14l14.5-.5 14.5-.5h12 12l11 .5 11 .5 10.5.5 10.5.5 11.5 1.5 11.5 1.5-9 5.5-9 5.5-8 6.5-8 6.5-8 6-8 6-5.5 7-5.5 7-4 7.5-4 7.5-5 6.5-5 6.5-2.5 8-2.5 8-7 3.5-7 3.5-.5 7.5-.5 7.5 1 11 1 11 .5 9.5.5 9.5-2.5-5-2.5-5-5-3.5-5-3.5-6-5.5-6-5.5-5-2.5-5-2.5-5.5-2-5.5-2h-5-5l-3.5 2.5-3.5 2.5-4.5 4.5-4.5 4.5v4.5 4.5l-3 6.5-3 6.5 5.5 2 5.5 2 3 6 3 6 3 7 3 7-1.5 2.5-1.5 2.5 6.5 4 6.5 4-1 7.5-1 7.5 3.5 4 3.5 4 3.5 3 3.5 3-1.5 5-1.5 5 3 3 3 3 1 4 1 4 5.5 2.5 5.5 2.5 3.5 7 3.5 7 3-2.5 3-2.5v-8.5-8.5l1-5 1-5 1.5-1.5 1.5-1.5-1-8-1-8 2-8 2-8-1.5-4.5-1.5-4.5 4-7.5 4-7.5 3.5 11 3.5 11 2 10.5 2 10.5 4 8 4 8 4 4 4 4 4.5 6.5 4.5 6.5 3 10 3 10 4 8 4 8 16 5 16 5 14-.5 14-.5 13.5-.5 13.5-.5 14-.5 14-.5 1-.5 1-.5h1.5 1.5 1 1 1.5 1.5" style="fill:#9a938f;stroke:#9a938f"/><path d="m731 455l-1-1-1 1-1 1h-1.5-1.5l-.5.5-.5.5h-1.5-1.5l-1 .5-1 .5-1 .5-1 .5-.5.5-.5.5h-1-1l-.5.5-.5.5h-1.5-1.5l-.5.5-.5.5-.5.5-.5.5h-1-1l-.5.5-.5.5h-1-1-1.5-1.5-1-1l-.5.5-.5.5h-1-1l-1 .5-1 .5h-1-1l-1 .5-1 .5-.5.5-.5.5-5 6-5 6-8.5 5-8.5 5-3 10.5-3 10.5 4.5-3.5 4.5-3.5v5 5h2 2l1-1.5 1-1.5.5-1.5.5-1.5.5-2 .5-2 1-1 1-1 1.5-1 1.5-1h2 2l1 .5 1 .5 1 1 1 1 .5 1 .5 1 .5 1 .5 1 1.5 1 1.5 1 1.5-.5 1.5-.5v1 1l-1 1-1 1v1 1l.5.5.5.5 1.5-1 1.5-1 1-.5 1-.5 1-.5 1-.5 1-.5 1-.5h1 1v-.5-.5l-1.5-1.5-1.5-1.5-4.5-15.5-4.5-15.5 10.5-5 10.5-5 9.5-5 9.5-5" style="fill:#5d5349;stroke:#5d5349"/><path d="m725 493v-2l-.5.5-.5.5-.5.5-.5.5-1 .5-1 .5-.5.5-.5.5h-1-1l-.5.5-.5.5-.5.5-.5.5-1 .5-1 .5h-1-1l-.5.5-.5.5-.5.5-.5.5-1 .5-1 .5-.5.5-.5.5h-1-1l-.5.5-.5.5-.5.5-.5.5-1.5 1-1.5 1 1.5 1.5 1.5 1.5.5-1 .5-1 .5-.5.5-.5h1 1l1-.5 1-.5.5-.5.5-.5.5-.5.5-.5.5-.5.5-.5 1-.5 1-.5.5-.5.5-.5.5-.5.5-.5h1 1l1-1 1-1 1-.5 1-.5.5-.5.5-.5 1-.5 1-.5v-.5-.5" style="fill:#7e4527;stroke:#7e4527"/><path d="m700 607v-2l.5-1.5.5-1.5v-1-1h-.5-.5l-.5 1-.5 1-1 .5-1 .5-.5 1-.5 1-1 1-1 1-.5.5-.5.5-1 .5-1 .5-1 2-1 2 .5 2 .5 2h.5.5l1-.5 1-.5.5-.5.5-.5.5-1 .5-1 .5-.5.5-.5.5-.5.5-.5.5-.5.5-.5 1-1.5 1-1.5" style="fill:#9a938f;stroke:#9a938f"/><path d="m699 602l1-2-1 .5-1 .5-.5.5-.5.5-1.5-.5-1.5-.5-4 3-4 3-3.5 9-3.5 9 2-.5 2-.5.5-1.5.5-1.5.5-2 .5-2 1-1 1-1 1-1 1-1 1-2 1-2 1-.5 1-.5.5-.5.5-.5 1-1 1-1 .5-1 .5-1 1-.5 1-.5" style="fill:#5d5349;stroke:#5d5349"/><path d="m698 703v-2l-.5-1.5-.5-1.5h-1.5-1.5l-1 1-1 1-1 .5-1 .5-.5.5-.5.5-.5 1.5-.5 1.5-1 .5-1 .5h-1-1l-1 1-1 1-1 1-1 1-.5 1-.5 1h3 3 2.5 2.5 1 1l1-1 1-1 .5-1 .5-1 .5-.5.5-.5v-1-1l1-1 1-1" style="fill:#ca6839;stroke:#ca6839"/><path d="m693 510v-2l-1.5.5-1.5.5-1.5-1-1.5-1-.5-1-.5-1-.5-1-.5-1v1.5 1.5l.5 1.5.5 1.5 1.5 1 1.5 1-1 1-1 1 .5 1.5.5 1.5.5 2.5.5 2.5 1-1 1-1-.5-1.5-.5-1.5 1-.5 1-.5-.5-.5-.5-.5v-1-1l1-1 1-1" style="fill:#837164;stroke:#837164"/><path d="m690 619l1-2h-.5-.5l-.5.5-.5.5-6 8.5-6 8.5-6.5 8-6.5 8-7.5 7-7.5 7-7.5 7-7.5 7-7.5 6.5-7.5 6.5-14 10-14 10h3 3 2 2 2.5 2.5 2 2 2 2 2.5 2.5 2 2 1 1l5.5-11.5 5.5-11.5 7-8.5 7-8.5 8-7.5 8-7.5 6.5-9 6.5-9 5.5-10 5.5-10" style="fill:#ca6839;stroke:#ca6839"/><path d="m689 618l1-1-.5-2-.5-2-1 1-1 1-1 1-1 1-.5 2-.5 2-.5 1.5-.5 1.5-2 .5-2 .5-7 10-7 10-6.5 7.5-6.5 7.5-7.5 7-7.5 7-7.5 6.5-7.5 6.5-8.5 6.5-8.5 6.5-8.5 6-8.5 6h1.5 1.5l14-10 14-10 7.5-6.5 7.5-6.5 7.5-7 7.5-7 7.5-7 7.5-7 6.5-8 6.5-8 6-8.5 6-8.5" style="fill:#7e4527;stroke:#7e4527"/><path d="m688 698h-21l-8.5 7-8.5 7h2 2 2.5 2.5 2 2 2.5 2.5 2 2 2 2 .5.5v-2-2l1-1 1-1 1.5-1 1.5-1 1-1 1-1 1-1.5 1-1.5 1-.5 1-.5" style="fill:#ca6839;stroke:#ca6839"/><path d="m688 523l1-2-.5-2.5-.5-2.5-.5-1.5-.5-1.5 1-1 1-1-1.5-1-1.5-1-.5-1.5-.5-1.5v-1.5-1.5l-1-1-1-1h-.5-.5l-1.5.5-1.5.5-1 1-1 1-.5.5-.5.5-.5 1-.5 1-.5 1.5-.5 1.5-.5.5-.5.5-1 .5-1 .5-1 1-1 1-.5 1-.5 1-.5 1-.5 1-.5 1.5-.5 1.5-1 1.5-1 1.5-1 1-1 1-1.5 1-1.5 1 1.5.5 1.5.5 2 .5 2 .5h2 2l1.5 1 1.5 1 2 .5 2 .5h2 2l.5-1.5.5-1.5.5-.5.5-.5.5-.5.5-.5.5-1 .5-1 .5-.5.5-.5 1-1 1-1" style="fill:#9a938f;stroke:#9a938f"/><path d="m688 468l1-1-2.5.5-2.5.5h-2.5-2.5l-1.5.5-1.5.5-1.5 1-1.5 1-.5 1-.5 1v2 2 1.5 1.5l1 1 1 1 1.5.5 1.5.5-.5 1.5-.5 1.5-22.5 2.5-22.5 2.5h-.5-.5l-1 1-1 1 2-.5 2-.5h2 2 1 1l1-.5 1-.5h1 1 1 1l1 .5 1 .5 1.5.5 1.5.5h1 1l1 .5 1 .5 1 .5 1 .5-1.5.5-1.5.5 1 .5 1 .5-.5 1.5-.5 1.5v1.5 1.5l-.5 1-.5 1-.5 1.5-.5 1.5-.5.5-.5.5-.5 1-.5 1-1 2-1 2 1 .5 1 .5h1.5 1.5 2 2 1 1 1.5 1.5 2 2l-.5 1.5-.5 1.5-9 4-9 4-24.5 1-24.5 1-1.5.5-1.5.5v1 1h1.5 1.5l.5-.5.5-.5 1.5-.5 1.5-.5 1-.5 1-.5h2 2l.5.5.5.5 1-.5 1-.5 1.5.5 1.5.5h1 1 1.5 1.5l2 .5 2 .5h2.5 2.5l-1 1-1 1 1.5 1 1.5 1h2 2l1.5-1 1.5-1-1.5-.5-1.5-.5v-.5-.5l2-.5 2-.5 1.5-.5 1.5-.5h2 2l2 .5 2 .5 1.5.5 1.5.5h2.5 2.5l1.5-.5 1.5-.5h2.5 2.5l1.5.5 1.5.5h2 2l1.5.5 1.5.5-1.5-1-1.5-1h-2-2l-2-.5-2-.5-1.5-.5-1.5-.5 1.5-1 1.5-1 1-1 1-1 1-1.5 1-1.5.5-1.5.5-1.5.5-1 .5-1-2-1-2-1v-5-5l-4.5 3.5-4.5 3.5 3-10.5 3-10.5 8.5-5 8.5-5 5-6 5-6" style="fill:#7e4527;stroke:#7e4527"/><path d="m682 501h1l-1-.5-1-.5h-2-2l-1.5 1-1.5 1-1 1-1 1-.5 2-.5 2-.5 1.5-.5 1.5-1 1.5-1 1.5h-2-2l2 1 2 1 .5-1 .5-1 1-1 1-1 1-.5 1-.5.5-.5.5-.5.5-1.5.5-1.5.5-1 .5-1 .5-.5.5-.5 1-1 1-1 1.5-.5 1.5-.5" style="fill:#837164;stroke:#837164"/><path d="m678 551v-2h-2-2l-2 .5-2 .5-1.5.5-1.5.5-1 1.5-1 1.5 1.5.5 1.5.5h1.5 1.5 2 2l.5-1.5.5-1.5 1-.5 1-.5" style="fill:#5d5349;stroke:#5d5349"/><path d="m676 486l1-3-1.5-.5-1.5-.5-19.5 1.5-19.5 1.5-14 1.5-14 1.5h-.5-.5l-13.5 1.5-13.5 1.5-17 1.5-17 1.5h-.5-.5l-.5-1-.5-1-.5.5-.5.5v1 1l-.5-.5-.5-.5-1-.5-1-.5v1 1l.5.5.5.5v1 1l.5 1.5.5 1.5-.5 1-.5 1v1 1l-1 .5-1 .5-.5 1.5-.5 1.5-.5.5-.5.5-1 1-1 1-.5 1-.5 1-.5 1-.5 1-.5 1-.5 1-.5 1-.5 1-.5.5-.5.5-.5.5-.5.5 1.5.5 1.5.5h2 2l1.5.5 1.5.5h2.5 2.5 2 2 2.5 2.5 2 2l1.5-1 1.5-1 1-1 1-1 1.5-.5 1.5-.5 1-.5 1-.5h1.5 1.5l1-.5 1-.5 4-1.5 4-1.5-1-4.5-1-4.5 9-5.5 9-5.5 18-1.5 18-1.5 22.5-2.5 22.5-2.5" style="fill:#febe0c;stroke:#febe0c"/><path d="m671 480h1v-1.5-1.5-2-2l-20.5 1-20.5 1h-13.5-13.5l7 5 7 5 13.5-1 13.5-1 13-1.5 13-1.5" style="fill:#c62e28;stroke:#c62e28"/><path d="m664 519l1-3h-2-2-1.5-1.5-1-1-2-2-1.5-1.5l-1-.5-1-.5-1 .5-1 .5h-2.5-2.5-2-2-2-2-1-1-1.5-1.5-2-2l-2 .5-2 .5h-2-2-2.5-2.5-3-3l-1 .5-1 .5-.5.5-.5.5-.5.5-.5.5-.5.5-.5.5v1 1l-.5 1-.5 1-.5.5-.5.5-.5.5-.5.5-.5.5-.5.5 1 .5 1 .5 24.5-1 24.5-1 9-4 9-4" style="fill:#febe0c;stroke:#febe0c"/><path d="m658 70l-9-20-5.5-10-5.5-10-6-9.5-6-9.5-6.5-2-6.5-2 6 9.5 6 9.5 6 9.5 6 9.5 6 9.5 6 9.5 4.5 3 4.5 3" style="fill:#ddd3ca;stroke:#ddd3ca"/><g style="fill:#837164;stroke:#837164"><path d="m657 109l-8-26-8.5 3-8.5 3h-13.5-13.5-11.5-11.5-13.5-13.5l-9.5 1-9.5 1 24.5 2 24.5 2 13-.5 13-.5 19.5 1.5 19.5 1.5-.5 1-.5 1-.5 1-.5 1v1 1 1.5 1.5 1 1 1 1l-.5 1-.5 1v1 1l-.5 2-.5 2-1.5.5-1.5.5-1.5.5-1.5.5-.5.5-.5.5h-1.5-1.5-2-2l-1-.5-1-.5h-2.5-2.5-2-2-1-1-2.5-2.5l-.5.5-.5.5h-15.5-15.5-13-13-15-15l-14-1.5-14-1.5h-2.5-2.5v.5.5l13.5 2 13.5 2h14.5 14.5l15 .5 15 .5h15.5 15.5l15-.5 15-.5 8.5-7 8.5-7"/><path d="m655 495l-2-1-1-.5-1-.5h-1-1l-1.5-.5-1.5-.5-1-.5-1-.5h-1-1-1-1l-1 .5-1 .5h-1-1-2-2l-2 .5-2 .5-2 1.5-2 1.5-1.5.5-1.5.5-1.5.5-1.5.5.5 1 .5 1h1.5 1.5l1-.5 1-.5 1.5-1 1.5-1 1.5-.5 1.5-.5 1.5-.5 1.5-.5 1.5-1 1.5-1h2 2 2.5 2.5l1.5.5 1.5.5 2 1 2 1 1.5-.5 1.5-.5"/></g><path d="m653 500l1-3-1-.5-1-.5-2-1-2-1-1.5-.5-1.5-.5h-2.5-2.5-2-2l-1.5 1-1.5 1-1.5.5-1.5.5-1.5.5-1.5.5-1.5 1-1.5 1-1 .5-1 .5-.5 1-.5 1-.5 1-.5 1-.5 1.5-.5 1.5-.5-1.5-.5-1.5-1.5 1-1.5 1-.5 1.5-.5 1.5-1 1-1 1-1-.5-1-.5-1 1-1 1-1 1.5-1 1.5-1 1-1 1h3 3 2.5 2.5 2 2l2-.5 2-.5h2 2 1.5 1.5 1 1 2 2 2 2 2.5 2.5l1-.5 1-.5 1-2 1-2 .5-1 .5-1 .5-.5.5-.5.5-1.5.5-1.5.5-1 .5-1v-1.5-1.5" style="fill:#ffea6a;stroke:#ffea6a"/><path d="m650 97l-39-3-13 .5-13 .5-.5 1-.5 1-1 .5-1 .5-1 1-1 1-1.5.5-1.5.5-1 1.5-1 1.5-1 1-1 1-1 1.5-1 1.5-1 1-1 1-.5 3-.5 3 23 1.5 23 1.5h2.5 2.5 1 1 2 2 2.5 2.5l.5-1 .5-1 1-1.5 1-1.5.5-1.5.5-1.5 1-1 1-1 1-1.5 1-1.5 1-1 1-1 1.5-1 1.5-1 1-1 1-1 2-1 2-1 .5-1 .5-1" style="fill:#7e4527;stroke:#7e4527"/><path d="m649 80l-12-21-6-9.5-6-9.5-10.5 4-10.5 4-.5-9-.5-9-5-4.5-5-4.5 6.5-1 6.5-1-5.5-9.5-5.5-9.5h-2-2-2-2-2.5-2.5-2-2-2.5-2.5-2-2-2.5-2.5-1-1l6.5 6 6.5 6 6.5 7 6.5 7 6.5 13 6.5 13 2.5-.5 2.5-.5 1-1 1-1 2-.5 2-.5 1.5-.5 1.5-.5 7 2 7 2 6 10.5 6 10.5-1 1.5-1 1.5h-2.5-2.5-1-1-1-1l-2-.5-2-.5-1.5-.5-1.5-.5-2 .5-2 .5-1.5-.5-1.5-.5-2-.5-2-.5h-2-2-1.5-1.5-2-2l-1.5-.5-1.5-.5-2-.5-2-.5-1.5.5-1.5.5-2 .5-2 .5h-2-2-1.5-1.5l-1.5-1-1.5-1h-.5-.5-18.5-18.5l-1 1-1 1h-1-1-2-2l-2-.5-2-.5h-2-2l-2 .5-2 .5-1-1-1-1-1.5-1-1.5-1h-2.5-2.5v.5.5l21 2.5 21 2.5h13 13l11.5 1.5 11.5 1.5 14 .5 14 .5 10.5 1 10.5 1" style="fill:#837164;stroke:#837164"/><path d="m648 103v-2l.5-1 .5-1-2 1-2 1-1 1-1 1-1.5 1-1.5 1-1 1-1 1-1 1.5-1 1.5-1 1-1 1-.5 1.5-.5 1.5-1 1.5-1 1.5-.5 1-.5 1 1 .5 1 .5h2 2 1.5 1.5l.5-.5.5-.5 1.5-.5 1.5-.5 1.5-.5 1.5-.5.5-2 .5-2v-1-1l.5-1 .5-1v-1-1-1-1-1.5-1.5" style="fill:#5d5349;stroke:#5d5349"/><path d="m647 138l-23-3-10.5-.5-10.5-.5-11-.5-11-.5h-12-12l-14.5.5-14.5.5h-14-14-15-15-14-14-14.5-14.5l-14-.5-14-.5h-13.5-13.5-14-14-15-15-14-14-15-15l-13.5-.5-13.5-.5h-14.5-14.5-13.5-13.5-13.5-13.5-14-14-14-14l-13-1-13-1h-11.5-11.5l-13.5-1-13.5-1v15.5 15.5 15.5 15.5 15.5 15.5 15.5 15.5 15.5 15.5 15.5 15.5 15.5 15.5 16 16 15.5 15.5 15.5 15.5 15.5 15.5 15.5 15.5 5.5 5.5l1 1.5 1 1.5.5.5.5.5v1 1l.5.5.5.5.5 1 .5 1 .5.5.5.5v1 1l.5.5.5.5.5 1 .5 1 .5 1.5.5 1.5.5.5.5.5.5 1 .5 1 .5 1.5.5 1.5v1 1h-.5-.5l-1-1-1-1-1-1-1-1-1-1.5-1-1.5-.5-1.5-.5-1.5-.5-1.5-.5-1.5v-1.5-1.5l-.5-1.5-.5-1.5-1-1.5-1-1.5v15.5 15.5 15.5 15.5 9.5 9.5l5 9.5 5 9.5 6 9.5 6 9.5-1-11.5-1-11.5 2.5 4.5 2.5 4.5 6 9 6 9 9 6.5 9 6.5 8 7.5 8 7.5 8 5.5 8 5.5-.5 1.5-.5 1.5v1 1l-.5.5-.5.5v1 1l-.5 2-.5 2 6 .5 6 .5 6.5-10 6.5-10 2.5-15.5 2.5-15.5-6.5-4-6.5-4-11 2.5-11 2.5-7.5 1-7.5 1-4-11.5-4-11.5 3-5.5 3-5.5-1.5-9-1.5-9-1-8.5-1-8.5 4.5 1 4.5 1 6 9.5 6 9.5-.5-4-.5-4-3-8.5-3-8.5h4.5 4.5v-3.5-3.5l-3.5-12-3.5-12-1.5-8.5-1.5-8.5-4.5-10.5-4.5-10.5-5.5-9-5.5-9-11 1.5-11 1.5-5-4.5-5-4.5-5.5-4.5-5.5-4.5 10.5-4.5 10.5-4.5 12-3.5 12-3.5 5.5 9 5.5 9 4.5 11 4.5 11 3.5 10.5 3.5 10.5 4 11 4 11 2.5 11 2.5 11 4.5 11 4.5 11 4.5 11 4.5 11 5 10 5 10-1.5 1.5-1.5 1.5-1 1-1 1-.5 1.5-.5 1.5 2 .5 2 .5-.5 1.5-.5 1.5-1.5 1-1.5 1-.5 1.5-.5 1.5.5 3 .5 3 3.5-10 3.5-10-1.5-10-1.5-10-3.5-10-3.5-10-3.5-9-3.5-9-4-9-4-9-4.5-10.5-4.5-10.5-3.5-10.5-3.5-10.5 2.5-8 2.5-8 6.5-3 6.5-3 4.5-4 4.5-4 6-1.5 6-1.5 5.5 1 5.5 1 1-9 1-9-3.5-11.5-3.5-11.5-3.5-10.5-3.5-10.5-3-11.5-3-11.5-3.5-11-3.5-11-3.5-11-3.5-11-3.5-11-3.5-11v-10.5-10.5l11-3 11-3 13-2 13-2 12.5-1.5 12.5-1.5 12.5-2 12.5-2 13-1.5 13-1.5 12.5-2 12.5-2 12.5-2 12.5-2 17.5 1 17.5 1 10-4.5 10-4.5 13.5-1.5 13.5-1.5 12-2 12-2 15 3 15 3 4.5 9 4.5 9 4 10.5 4 10.5 4 10.5 4 10.5 3.5 11 3.5 11 4 10.5 4 10.5 3.5 11 3.5 11 4 10 4 10 4 11 4 11-2.5 8.5-2.5 8.5-6 5.5-6 5.5 6 8.5 6 8.5 8.5 4 8.5 4 14-2.5 14-2.5.5-1.5.5-1.5 1.5-.5 1.5-.5 1.5-.5 1.5-.5 1.5-.5 1.5-.5 13.5-4.5 13.5-4.5 12-3 12-3 11-3 11-3 12.5-2.5 12.5-2.5 13.5-1 13.5-1-16-5-16-5-4-8-4-8-3-10-3-10-4.5-6.5-4.5-6.5-4-4-4-4-4-8-4-8-2-10.5-2-10.5-3.5-11-3.5-11-4 7.5-4 7.5 1.5 4.5 1.5 4.5-2 8-2 8 1 8 1 8-1.5 1.5-1.5 1.5-1 5-1 5v8.5 8.5l-3 2.5-3 2.5-3.5-7-3.5-7-5.5-2.5-5.5-2.5-1-4-1-4-3-3-3-3 1.5-5 1.5-5-3.5-3-3.5-3-3.5-4-3.5-4 1-7.5 1-7.5-6.5-4-6.5-4 1.5-2.5 1.5-2.5-3-7-3-7-3-6-3-6-5.5-2-5.5-2 3-6.5 3-6.5v-4.5-4.5l4.5-4.5 4.5-4.5 3.5-2.5 3.5-2.5h5 5l5.5 2 5.5 2 5 2.5 5 2.5 6 5.5 6 5.5 5 3.5 5 3.5 2.5 5 2.5 5-.5-9.5-.5-9.5-1-11-1-11 .5-7.5.5-7.5 7-3.5 7-3.5 2.5-8 2.5-8 5-6.5 5-6.5 4-7.5 4-7.5 5.5-7 5.5-7 8-6 8-6 8-6.5 8-6.5 9-5.5 9-5.5" style="fill:#837164;stroke:#837164"/><path d="m641 700l-1-1-1 1-1 1-1.5 1-1.5 1-.5 1.5-.5 1.5-1 1.5-1 1.5-1.5.5-1.5.5-1.5 1-1.5 1h2 2 2 2 1 1l.5-1 .5-1 .5-1.5.5-1.5 1-1.5 1-1.5.5-2 .5-2" style="fill:#ca6839;stroke:#ca6839"/><path d="m641 72l-12-21-7-2-7-2-.5 1.5-.5 1.5-1.5.5-1.5.5-1.5.5-1.5.5-1.5 1-1.5 1 .5.5.5.5h2.5 2.5l1-1 1-1h2.5 2.5l1 1 1 1v1 1l-.5 1.5-.5 1.5v2 2l-.5 1.5-.5 1.5-.5.5-.5.5-1-.5-1-.5-1.5.5-1.5.5h-1-1v.5.5h2 2l-.5.5-.5.5h-1.5-1.5l-1.5.5-1.5.5-1 .5-1 .5h1.5 1.5 2 2l2 .5 2 .5 1.5.5 1.5.5 2-.5 2-.5 1.5.5 1.5.5 2 .5 2 .5h1 1 1 1 2.5 2.5l1-1.5 1-1.5" style="fill:#c62e28;stroke:#c62e28"/><path d="m630 491h1l-18 1.5-18 1.5-9 5.5-9 5.5 1 4.5 1 4.5-4 1.5-4 1.5 13 .5 13 .5 12-10.5 12-10.5 1.5-.5 1.5-.5 2-1.5 2-1.5 1-1 1-1" style="fill:#ffea6a;stroke:#ffea6a"/><path d="m621 533l1-2-2-.5-2-.5h-1.5-1.5-1-1l-1.5-.5-1.5-.5-1 .5-1 .5-.5-.5-.5-.5h-2-2l-1 .5-1 .5v.5.5l.5 1.5.5 1.5h1.5 1.5 1 1l1.5.5 1.5.5h1.5 1.5 1 1l1.5.5 1.5.5 1-.5 1-.5.5-1 .5-1" style="fill:#5d5349;stroke:#5d5349"/><path d="m621 502l1-2h-1.5-1.5l-.5-1-.5-1 1.5-.5 1.5-.5-12 10.5-12 10.5-13-.5-13-.5-1 .5-1 .5h-1.5-1.5l-1 .5-1 .5h2.5 2.5 2 2 1 1 1.5 1.5 2 2l2-.5 2-.5h2 2l1 .5 1 .5v.5.5l-.5 1.5-.5 1.5-.5.5-.5.5-1 .5-1 .5v1 1l-.5.5-.5.5-.5.5-.5.5-1 .5-1 .5-1 1-1 1v1.5 1.5l3-.5 3-.5 1-1 1-1h2 2v-1-1l1.5-.5 1.5-.5-1-.5-1-.5.5-.5.5-.5.5-.5.5-.5.5-.5.5-.5.5-1 .5-1v-1-1l.5-.5.5-.5.5-.5.5-.5.5-.5.5-.5 1-.5 1-.5 1-1 1-1 1-1.5 1-1.5 1-1 1-1 1 .5 1 .5 1-1 1-1 .5-1.5.5-1.5 1.5-1 1.5-1 .5 1.5.5 1.5.5-1.5.5-1.5.5-1 .5-1" style="fill:#ed9c5d;stroke:#ed9c5d"/><path d="m620 57v-2l-1-1-1-1h-2.5-2.5l-1 1-1 1h-2.5-2.5l-.5-.5-.5-.5 1.5-1 1.5-1 1.5-.5 1.5-.5 1.5-.5 1.5-.5.5-1.5.5-1.5-1.5.5-1.5.5-2 .5-2 .5-1 1-1 1-2.5.5-2.5.5h-.5-.5-1.5-1.5-.5-.5l-1.5.5-1.5.5-.5.5-.5.5-1 .5-1 .5-1 1-1 1h-1-1l-.5.5-.5.5h-1-1-1.5-1.5l-.5-.5-.5-.5-.5-.5-.5-.5v-1-1l-.5-1-.5-1-.5-.5-.5-.5-.5-.5-.5-.5-.5-.5-.5-.5-.5-1-.5-1-1-1-1-1-.5 1-.5 1 .5 1 .5 1 .5 1 .5 1v1 1l1 1.5 1 1.5.5 1.5.5 1.5v1.5 1.5l.5 1.5.5 1.5v1.5 1.5l.5 1 .5 1 1.5 1 1.5 1h1.5 1.5 2 2l2-.5 2-.5 1.5-.5 1.5-.5 2 .5 2 .5 1.5.5 1.5.5h2 2l1-.5 1-.5 1.5-.5 1.5-.5h1.5 1.5l.5-.5.5-.5h-2-2v-.5-.5h1 1l1.5-.5 1.5-.5 1 .5 1 .5.5-.5.5-.5.5-1.5.5-1.5v-2-2l.5-1.5.5-1.5" style="fill:#7e4527;stroke:#7e4527"/><path d="m618 454l-18-3-7 2.5-7 2.5 10.5 1 10.5 1 5.5-2 5.5-2" style="fill:#c62e28;stroke:#c62e28"/><path d="m613 121l1-1-23-1.5-23-1.5-13 .5-13 .5-15.5-.5-15.5-.5h-2.5-2.5-2.5-2.5l-1.5.5-1.5.5 14 1.5 14 1.5h15 15 13 13 15.5 15.5" style="fill:#5d5349;stroke:#5d5349"/><path d="m606 488h1l-1-1.5-1-1.5-.5.5-.5.5-13 1.5-13 1.5-16.5 1.5-16.5 1.5v1 1l17-1.5 17-1.5 13.5-1.5 13.5-1.5" style="fill:#ed9c5d;stroke:#ed9c5d"/><path d="m604 486l1-1-13-3.5-13-3.5-14.5.5-14.5.5-.5.5-.5.5-15 .5-15 .5-2.5 8.5-2.5 8.5 10 7 10 7 1-1 1-1 .5-.5.5-.5.5-1.5.5-1.5 1-.5 1-.5v-1-1l.5-1 .5-1 2-4.5 2-4.5 16.5-1.5 16.5-1.5 13-1.5 13-1.5" style="fill:#bdbbb6;stroke:#bdbbb6"/><path d="m600 52h1l-6.5-13-6.5-13-6.5-7-6.5-7-6.5-6-6.5-6h-14.5-14.5-10.5-10.5l-.5.5-.5.5-10.5 4-10.5 4-4-4.5-4-4.5h-1-1l-.5.5-.5.5-8.5 15.5-8.5 15.5 1-.5 1-.5 1.5-.5 1.5-.5 1.5-1 1.5-1 1.5-.5 1.5-.5h2.5 2.5l1.5.5 1.5.5 1 1 1 1 .5 2 .5 2 1.5.5 1.5.5 1 .5 1 .5v-11.5-11.5l11-4 11-4 12.5-.5 12.5-.5 13 2 13 2 6.5 6.5 6.5 6.5 11 15.5 11 15.5h1.5 1.5" style="fill:#5d5349;stroke:#5d5349"/><path d="m596 52h1l-11-15.5-11-15.5-6.5-6.5-6.5-6.5-13-2-13-2-12.5.5-12.5.5-11 4-11 4v11.5 11.5l5 9.5 5 9.5 10-1 10-1 9-5 9-5 10.5-3.5 10.5-3.5 1.5-.5 1.5-.5.5-.5.5-.5.5.5.5.5 1 .5 1 .5.5.5.5.5.5.5.5.5.5.5.5.5.5 1 .5 1 1 2 1 2 1 1 1 1 .5 1 .5 1 .5.5.5.5.5.5.5.5.5.5.5.5.5 1 .5 1v1 1l.5.5.5.5.5.5.5.5h1.5 1.5 1 1l.5-.5.5-.5h1 1l1-1 1-1 1-.5 1-.5.5-.5.5-.5 1.5-.5 1.5-.5" style="fill:#1c1d15;stroke:#1c1d15"/><path d="m592 520v-1h-.5-.5l-1 .5-1 .5h-2-2-1-1-1.5-1.5-2-2l-.5.5-.5.5-.5 1.5-.5 1.5 1.5-1.5 1.5-1.5h2 2 1.5 1.5l.5.5.5.5.5.5.5.5-.5 1.5-.5 1.5-1.5 1-1.5 1-.5 1.5-.5 1.5-.5 1.5-.5 1.5 1 .5 1 .5v-1.5-1.5l1-1 1-1 1-.5 1-.5.5-.5.5-.5.5-.5.5-.5v-1-1l1-.5 1-.5.5-.5.5-.5.5-1.5.5-1.5" style="fill:#5d5349;stroke:#5d5349"/><path d="m591 519h1l-1-.5-1-.5h-2-2l-2 .5-2 .5h-2-2-1.5-1.5-1-1-2-2-2.5-2.5l-1.5.5-1.5.5-1 1-1 1-1.5 1-1.5 1h-2-2-2.5-2.5-2-2-2.5-2.5l-1.5-.5-1.5-.5h-2-2l-12 1-12 1-4.5-.5-4.5-.5 16.5-4 16.5-4-9-5.5-9-5.5-2-12.5-2-12.5-1.5-.5-1.5-.5v-1-1l1-1.5 1-1.5-1.5.5-1.5.5-.5 1.5-.5 1.5-2 7-2 7 3.5 6 3.5 6-.5 1-.5 1-.5-.5-.5-.5-1 .5-1 .5-1.5-.5-1.5-.5-.5.5-.5.5h-2-2l-1.5.5-1.5.5h-1.5-1.5l-.5 1.5-.5 1.5.5 1 .5 1 1 1 1 1 .5 2 .5 2v1.5 1.5 3 3l.5 1.5.5 1.5.5 1.5.5 1.5.5 2 .5 2 1.5 1.5 1.5 1.5 6.5-6 6.5-6h22 22l-1 1.5-1 1.5-1 .5-1 .5-1 .5-1 .5v1 1l-1 1-1 1-9.5 4-9.5 4-7.5 1-7.5 1-7.5-.5-7.5-.5 8.5 2.5 8.5 2.5 14-1.5 14-1.5 6-6.5 6-6.5 9.5-5.5 9.5-5.5.5-1.5.5-1.5.5-.5.5-.5h2 2 1.5 1.5 1 1 2 2l1-.5 1-.5" style="fill:#7e4527;stroke:#7e4527"/><path d="m586 482l-27-2-1.5 2-1.5 2 10.5 2 10.5 2 4.5-3 4.5-3" style="fill:#ddd3ca;stroke:#ddd3ca"/><path d="m584 97l1-2-24.5-2-24.5-2-.5.5-.5.5h2 2 1.5 1.5l1.5.5 1.5.5h1 1 1.5 1.5 2 2 2 2 1 1 1.5 1.5l1.5.5 1.5.5h1.5 1.5 1.5 1.5l2 .5 2 .5h2 2v1.5 1.5 1 1l1-1 1-1 1-.5 1-.5" style="fill:#5d5349;stroke:#5d5349"/><path d="m580 98v-3h-2-2l-2-.5-2-.5h-1.5-1.5-1.5-1.5l-14 .5-14 .5h-14-14l.5 11 .5 11 15.5.5 15.5.5 13-.5 13-.5.5-3 .5-3 1-1 1-1 1-1.5 1-1.5 1-1 1-1 1-1.5 1-1.5 1.5-.5 1.5-.5v-1-1" style="fill:#1c1d15;stroke:#1c1d15"/><path d="m580 4v-2h-2-2l-1.5 1-1.5 1-1 1-1 1 1 1.5 1 1.5 1.5-.5 1.5-.5 1.5-1 1.5-1 .5-1 .5-1" style="fill:#9a938f;stroke:#9a938f"/><path d="m577 87l-22-10-8-1-8-1-10.5.5-10.5.5-5.5 3-5.5 3 13 3.5 13 3.5 10-2 10-2 12 1 12 1" style="fill:#bdbbb6;stroke:#bdbbb6"/><path d="m576 70h1l-.5-1-.5-1v-1.5-1.5l-.5-1.5-.5-1.5v-1.5-1.5l-.5-1.5-.5-1.5-1-1.5-1-1.5v-1-1l-.5-1-.5-1-.5-1-.5-1 .5-1 .5-1-1-2-1-2-.5-1-.5-1-.5-.5-.5-.5-.5-.5-.5-.5-.5-.5-.5-.5-1-.5-1-.5-.5-.5-.5-.5-.5.5-.5.5-1.5.5-1.5.5 6.5 17 6.5 17-2 .5-2 .5h-2-2l-.5.5-.5.5-1-.5-1-.5-1.5-.5-1.5-.5h-2.5-2.5l-1.5.5-1.5.5-2-.5-2-.5h-3-3 18.5 18.5" style="fill:#5d5349;stroke:#5d5349"/><path d="m571 474l-12-12-12.5 2-12.5 2-10 3-10 3-1.5.5-1.5.5-1.5.5-1.5.5-1 1.5-1 1.5v1 1l1.5.5 1.5.5 2-.5 2-.5 13.5-1 13.5-1 4-.5 4-.5 11.5-1 11.5-1" style="fill:#c62e28;stroke:#c62e28"/><path d="m571 70l-13-34-10.5 3.5-10.5 3.5-9 5-9 5-10 1-10 1-5-9.5-5-9.5-1-.5-1-.5-1.5-.5-1.5-.5-.5-2-.5-2-1-1-1-1-1.5-.5-1.5-.5h-2.5-2.5l-1.5.5-1.5.5-1.5 1-1.5 1-1.5.5-1.5.5-1 .5-1 .5-1 1-1 1-1 .5-1 .5-.5.5-.5.5-8 15.5-8 15.5.5 1 .5 1 1 1 1 1 .5 1.5.5 1.5 1 1.5 1 1.5.5 1.5.5 1.5.5 2 .5 2 .5 1.5.5 1.5.5 1.5.5 1.5.5 2 .5 2-.5 1.5-.5 1.5 1 .5 1 .5v1 1 1 1l.5.5.5.5v1.5 1.5 1 1 1 1l.5.5.5.5.5 1 .5 1 1 1 1 1 .5 1 .5 1h1.5 1.5 1.5 1.5 1 1 1.5 1.5 2 2 1 1 1.5 1.5 2 2 1 1 1.5 1.5l2.5.5 2.5.5h2.5 2.5l1.5-.5 1.5-.5h2.5 2.5 2.5 2.5l-.5-11-.5-11h14 14l14-.5 14-.5-1.5-.5-1.5-.5h-1.5-1.5-1-1-2-2-2-2-1.5-1.5-1-1l-1.5-.5-1.5-.5h-1.5-1.5-2-2-1-1-1.5-1.5-1-1-1-1-1-1-1.5-1.5-1-1-1-1l-.5-.5-.5-.5h-1-1-.5-.5-2.5-2.5l-.5-1.5-.5-1.5v-1-1l-.5-1-.5-1-1-1-1-1v-1-1l-.5-1-.5-1-.5-1.5-.5-1.5v-1-1l1-.5 1-.5 1-1 1-1 1.5-1 1.5-1h2.5 2.5l1.5 1 1.5 1 1 1 1 1 2-.5 2-.5h2 2l2 .5 2 .5h2 2 1 1l1-1 1-1h3 3l2 .5 2 .5 1.5-.5 1.5-.5h2.5 2.5l1.5.5 1.5.5 1 .5 1 .5.5-.5.5-.5h2 2l2-.5 2-.5" style="fill:#203b7b;stroke:#203b7b"/><path d="m567 542v-2h-1-1-2.5-2.5-2-2l-1 1.5-1 1.5.5 1.5.5 1.5 1.5 1 1.5 1 1-1 1-1 1.5-.5 1.5-.5 1.5-1 1.5-1 .5-.5.5-.5" style="fill:#7e4527;stroke:#7e4527"/><path d="m560 174l-18 5-10.5 5-10.5 5 9.5 1 9.5 1 9-6.5 9-6.5 1-2 1-2" style="fill:#5d5349;stroke:#5d5349"/><path d="m555 528h-44l-6.5 6-6.5 6v1.5 1.5 1.5 1.5l7.5.5 7.5.5 7.5-1 7.5-1 9.5-4 9.5-4h-13.5-13.5l3.5-5 3.5-5 13 .5 13 .5-1 2-1 2 1-.5 1-.5 1-1.5 1-1.5" style="fill:#ca6839;stroke:#ca6839"/><path d="m553 528l-26-1-3.5 5-3.5 5h13.5 13.5l1-1 1-1v-1-1l1-.5 1-.5 1-2 1-2" style="fill:#febe0c;stroke:#febe0c"/><path d="m549 480l1-1h-3-3-2.5-2.5-2-2-2.5-2.5-2-2-1.5-1.5-1-1-2-2-2-2l-2 .5-2 .5 2 12.5 2 12.5 9 5.5 9 5.5h.5.5l.5-1 .5-1 .5-1 .5-1-10-7-10-7 2.5-8.5 2.5-8.5 15-.5 15-.5" style="fill:#9a938f;stroke:#9a938f"/><path d="m545 55l-21 4 5 1.5 5 1.5 5.5-3.5 5.5-3.5" style="fill:#1c1d15;stroke:#1c1d15"/><path d="m544 494h1v-1-1l-2 4.5-2 4.5-.5-1.5-.5-1.5v-1-1l-.5-.5-.5-.5v-1-1l1 .5 1 .5.5.5.5.5v-1-1l.5-.5.5-.5.5 1 .5 1" style="fill:#9a938f;stroke:#9a938f"/><path d="m540 555l-24-1-7.5 6-7.5 6 9-2 9-2 1-.5 1-.5 1-.5 1-.5 1.5-1.5 1.5-1.5 1.5-.5 1.5-.5h2.5 2.5 2 2l1-.5 1-.5" style="fill:#7e4527;stroke:#7e4527"/><path d="m540 82l-20-3-4 2.5-4 2.5 13 .5 13 .5 1-1.5 1-1.5" style="fill:#ddd3ca;stroke:#ddd3ca"/><path d="m534 500v-2-2-2l-1-.5-1-.5-1 1-1 1-.5-2-.5-2-.5 1.5-.5 1.5.5 2 .5 2 .5 1.5.5 1.5 1-1 1-1 1 .5 1 .5" style="fill:#837164;stroke:#837164"/><path d="m532 567l-1-1-.5-.5-.5-.5-.5-2-.5-2-1.5-.5-1.5-.5h-1.5-1.5l-1 .5-1 .5-1 .5-1 .5v1.5 1.5l1 1 1 1 1.5.5 1.5.5 2-.5 2-.5 1 1 1 1 1-1 1-1" style="fill:#5d5349;stroke:#5d5349"/><path d="m531 518l1-2h-.5-.5l-16.5 4-16.5 4 4.5.5 4.5.5 12-1 12-1-1.5-.5-1.5-.5.5-.5.5-.5.5-.5.5-.5.5-1 .5-1" style="fill:#ca6839;stroke:#ca6839"/><path d="m520 128l-39-7-16-.5-16-.5h-.5-.5l-14-.5-14-.5h-13.5-13.5l13.5 1 13.5 1h14 14l13 1 13 1 17 1.5 17 1.5-12.5 1-12.5 1h-12.5-12.5l-14 .5-14 .5h-14-14-15-15-12.5-12.5l-11 .5-11 .5-14-.5-14-.5h-14-14-15-15v-8-8h-.5-.5l-1 .5-1 .5-2-.5-2-.5h-2-2l-1-1.5-1-1.5 1-1.5 1-1.5-6.5-1.5-6.5-1.5 8.5-7 8.5-7 .5-6.5.5-6.5-10 6-10 6-5.5 7-5.5 7-11 1.5-11 1.5-14-1.5-14-1.5h-15.5-15.5l-3.5-8-3.5-8-14.5-.5-14.5-.5-15-1-15-1-8 9.5-8 9.5 8 1 8 1 11.5 3 11.5 3h13.5 13.5 14.5 14.5 12.5 12.5 13.5 13.5l13.5.5 13.5.5 5 7 5 7 11.5 2.5 11.5 2.5h14.5 14.5 14.5 14.5 14.5 14.5l13.5.5 13.5.5 13.5-.5 13.5-.5 12.5.5 12.5.5h15 15l12.5-.5 12.5-.5h13.5 13.5l13-1.5 13-1.5" style="fill:#bdbbb6;stroke:#bdbbb6"/><path d="m516 571l1-3-1.5-.5-1.5-.5-2 .5-2 .5-1.5.5-1.5.5v.5.5l-.5 1-.5 1-1.5.5-1.5.5-1.5 1-1.5 1v1 1h1.5 1.5l1.5-.5 1.5-.5 1.5-1 1.5-1 2.5-.5 2.5-.5 1-.5 1-.5v-.5-.5" style="fill:#9a938f;stroke:#9a938f"/><path d="m513 574l1-1-2.5.5-2.5.5-1.5 1-1.5 1-1.5.5-1.5.5h-1.5-1.5v-1-1l1.5-1 1.5-1 1.5-.5 1.5-.5.5-1 .5-1-2 1-2 1-1.5.5-1.5.5-1 1.5-1 1.5.5 1.5.5 1.5h1.5 1.5l1.5-.5 1.5-.5 1.5 1 1.5 1 .5-1.5.5-1.5 1-1 1-1 1-.5 1-.5" style="fill:#5d5349;stroke:#5d5349"/><path d="m513 91h1l-1-.5-1-.5h-1-1l-.5-.5-.5-.5-.5-1-.5-1v-1-1l-.5-1.5-.5-1.5-.5-1-.5-1-.5-.5-.5-.5v-1-1l-.5-.5-.5-.5.5-1 .5-1 .5-.5.5-.5.5-.5.5-.5.5-.5.5-.5.5-1 .5-1v-.5-.5l-1.5 1-1.5 1-1 1-1 1-1 .5-1 .5v1 1l.5 1.5.5 1.5.5 1 .5 1v1 1l1 1 1 1 .5 1 .5 1v1 1l.5 1.5.5 1.5h2.5 2.5" style="fill:#4372a7;stroke:#4372a7"/><path d="m511 1l1-1h-3-3-2.5-2.5-2-2-2.5-2.5-2-2-2.5-2.5-.5-.5l4 4.5 4 4.5 10.5-4 10.5-4" style="fill:#837164;stroke:#837164"/><path d="m508 126l-34-3-13-1-13-1h-14-14l-13.5-1-13.5-1h-3-3-2.5-2.5-2-2-.5-.5l-12-3.5-12-3.5-9-8-9-8 2-1 2-1 1.5-.5 1.5-.5 2-1 2-1-7.5-5.5-7.5-5.5-4-10.5-4-10.5-7.5-5-7.5-5 1-7.5 1-7.5-3.5-5.5-3.5-5.5-6.5-8-6.5-8-2 8.5-2 8.5 2.5 9 2.5 9-.5 9-.5 9v7.5 7.5l-12-.5-12-.5-16.5 1.5-16.5 1.5-.5 6.5-.5 6.5-8.5 7-8.5 7 6.5 1.5 6.5 1.5.5-.5.5-.5 1-.5 1-.5 1-1 1-1 1.5-1 1.5-1 1.5.5 1.5.5.5 2 .5 2 .5 1.5.5 1.5-.5 1.5-.5 1.5-.5.5-.5.5v8 8h15 15 14 14l14 .5 14 .5 11-.5 11-.5h12.5 12.5 15 15 14 14l14-.5 14-.5h12.5 12.5l12.5-1 12.5-1" style="fill:#ddd3ca;stroke:#ddd3ca"/><g style="fill:#5d5349;stroke:#5d5349"><path d="m507 504l-7-12 2-7 2-7-14 2.5-14 2.5-8.5-4-8.5-4-6-8.5-6-8.5 6-5.5 6-5.5 2.5-8.5 2.5-8.5-4-11-4-11-4-10-4-10-3.5-11-3.5-11-4-10.5-4-10.5-3.5-11-3.5-11-4-10.5-4-10.5-4-10.5-4-10.5-4.5-9-4.5-9-.5.5-.5.5-13.5 2-13.5 2-12.5 2-12.5 2-13 1.5-13 1.5-11-1-11-1-17.5-1-17.5-1-12.5 2-12.5 2-12.5 2-12.5 2-13 1.5-13 1.5-12.5 2-12.5 2-12.5 1.5-12.5 1.5-13 2-13 2-11 3-11 3v10.5 10.5l3.5 11 3.5 11 3.5 11 3.5 11 3.5 11 3.5 11 3 11.5 3 11.5 3.5 10.5 3.5 10.5 3.5 11.5 3.5 11.5-1 9-1 9-5.5-1-5.5-1-6 1.5-6 1.5-4.5 4-4.5 4-6.5 3-6.5 3-2.5 8-2.5 8 3.5 10.5 3.5 10.5 4.5 10.5 4.5 10.5 4 9 4 9 3.5 9 3.5 9 3.5 10 3.5 10 1.5 10 1.5 10-3.5 10-3.5 10-2.5 15.5-2.5 15.5 4.5 6.5 4.5 6.5.5 1 .5 1 6.5-2.5 6.5-2.5 3 1 3 1 5-5 5-5 6 2.5 6 2.5 1.5 3 1.5 3 2-1.5 2-1.5 4.5-2 4.5-2-5-11.5-5-11.5-3.5-11.5-3.5-11.5-3.5-10.5-3.5-10.5-3.5-11-3.5-11 .5-8.5.5-8.5 11-4 11-4 10-4 10-4 11-4 11-4 10.5-3.5 10.5-3.5 10.5-4 10.5-4 9.5-.5 9.5-.5.5-3.5.5-3.5-9-2-9-2-11 4-11 4-10.5 3.5-10.5 3.5-11 4-11 4-10.5 2.5-10.5 2.5-4.5-10-4.5-10-3.5-10.5-3.5-10.5-3.5-12-3.5-12-3.5-11.5-3.5-11.5-3.5-10.5-3.5-10.5-3.5-11.5-3.5-11.5-3-11-3-11-3.5-11.5-3.5-11.5-3.5-10.5-3.5-10.5-3.5-11-3.5-11-3-11-3-11 10-5.5 10-5.5 14-1.5 14-1.5 13-2 13-2 12-2 12-2 13.5-1.5 13.5-1.5 12.5-1.5 12.5-1.5 13-2 13-2 12.5-1.5 12.5-1.5 10 3.5 10 3.5 13-2 13-2 24.5-2.5 24.5-2.5h.5.5l9.5 15 9.5 15 4 10.5 4 10.5 4 11.5 4 11.5 4 11.5 4 11.5 4 11.5 4 11.5 4 13 4 13 .5 2 .5 2-.5.5-.5.5-.5.5-.5.5.5.5.5.5-1 .5-1 .5h-1-1l-.5-1.5-.5-1.5-1-1.5-1-1.5-.5-1.5-.5-1.5-1-1.5-1-1.5-.5-1.5-.5-1.5-.5-2-.5-2-.5-2-.5-2v-1.5-1.5l-.5-.5-.5-.5-.5-1-.5-1-.5-1.5-.5-1.5v-1-1l-.5-1-.5-1-.5-1.5-.5-1.5-.5-.5-.5-.5-.5-1-.5-1-.5-1.5-.5-1.5-.5-2-.5-2-.5-1-.5-1-4-11-4-11-4-10.5-4-10.5-4-10.5-4-10.5-3.5-10.5-3.5-10.5-10-2-10-2-1 .5-1 .5-1 .5-1 .5-2 1-2 1 12.5-2 12.5-2 4 10.5 4 10.5 4 11.5 4 11.5 4 11.5 4 11.5 4 11.5 4 11.5 3.5 10.5 3.5 10.5 5 15.5 5 15.5-11.5 4-11.5 4-10.5 3.5-10.5 3.5-11.5 3.5-11.5 3.5-11.5 4-11.5 4-10.5 3.5-10.5 3.5-11.5 3.5-11.5 3.5-14 4.5-14 4.5-.5.5-.5.5v.5.5l.5.5.5.5 19.5-6.5 19.5-6.5 11.5-4 11.5-4 11.5-4 11.5-4 12-3.5 12-3.5 11.5-4 11.5-4 12-4 12-4 9-5.5 9-5.5-4-11.5-4-11.5-3.5-12-3.5-12-4.5-11-4.5-11-3.5-12-3.5-12-4-11.5-4-11.5-3.5-12-3.5-12 .5-1 .5-1 4 11.5 4 11.5 4.5 11 4.5 11 4 11.5 4 11.5 4 11.5 4 11.5 4 12 4 12 4 11.5 4 11.5 4.5 11 4.5 11-8 6.5-8 6.5-2.5 10-2.5 10 2.5 10 2.5 10 12.5 1 12.5 1 11.5 3 11.5 3-.5 4.5-.5 4.5h2 2l.5-.5.5-.5 1.5.5 1.5.5 1-.5 1-.5.5.5.5.5.5-1 .5-1"/><path d="m502 176l-18-3-13 1.5-13 1.5-13 .5-13 .5-12 .5-12 .5h-12.5-12.5l-13 .5-13 .5-13 .5-13 .5-11 4.5-11 4.5-9 5.5-9 5.5.5 3 .5 3 8-2.5 8-2.5 11-2 11-2 11.5-2 11.5-2 12-1.5 12-1.5 12.5-2 12.5-2h11.5 11.5l14-1.5 14-1.5 12.5 1 12.5 1 9.5 1 9.5 1 2.5-5.5 2.5-5.5"/><path d="m499 586l1-3-1.5-.5-1.5-.5-1-1.5-1-1.5h-2-2l-1 1.5-1 1.5v1 1l2 .5 2 .5 1.5.5 1.5.5h1 1 .5.5"/></g><path d="m492 119h1v-.5-.5l-2.5-.5-2.5-.5h-1.5-1.5-1-1-2-2-1.5-1.5-1-1-2-2-1.5-1.5-1-1-1.5-1.5-1.5-1.5v.5.5h3 3 1 1l2 .5 2 .5h2 2 2.5 2.5 2 2 2.5 2.5 1.5 1.5" style="fill:#4372a7;stroke:#4372a7"/><g style="fill:#5d5349;stroke:#5d5349"><path d="m491 521h1v-1.5-1.5l-.5-2-.5-2-1-1-1-1-.5-1-.5-1 .5-1.5.5-1.5-14.5 5-14.5 5-5.5-1.5-5.5-1.5-6.5 2-6.5 2 3.5 3 3.5 3h8 8l6.5-1.5 6.5-1.5h9.5 9.5"/><path d="m486 589l1-3-1.5-.5-1.5-.5-2 .5-2 .5-1 1-1 1 1 1.5 1 1.5 1.5.5 1.5.5 1.5-1 1.5-1v-.5-.5"/></g><path d="m479 1l1-1h-3-3-2.5-2.5-2-2-2.5-2.5-1-1v1 1 1 1l-6.5.5-6.5.5-17.5-2.5-17.5-2.5h-16.5-16.5-15.5-15.5-15.5-15.5-4-4l-.5.5-.5.5-.5.5-.5.5v.5.5l1 1 1 1 .5 1.5.5 1.5 1 1.5 1 1.5v1 1h-1-1l-.5 1-.5 1 1.5.5 1.5.5-1 .5-1 .5 6.5 8 6.5 8 8 2.5 8 2.5 1.5 13 1.5 13 4 7 4 7-1-1-1-1h-1-1l-.5-.5-.5-.5-.5-.5-.5-.5v-1.5-1.5-1-1l-.5-.5-.5-.5v-1-1l.5-1 .5-1 .5-.5.5-.5.5-.5.5-.5h1 1l1-.5 1-.5 1-.5 1-.5 1-.5 1-.5 1-1 1-1 2-.5 2-.5 2-.5 2-.5 1-1 1-1 1.5.5 1.5.5 2 .5 2 .5 1 1 1 1 1 1.5 1 1.5 1 1 1 1 .5 1.5.5 1.5.5.5.5.5 1 .5 1 .5.5 1.5.5 1.5 1.5 1 1.5 1v2 2l2 .5 2 .5.5 2.5.5 2.5 4.5-6 4.5-6 2.5-8 2.5-8h6.5 6.5l14.5-5 14.5-5-.5-1-.5-1 1-1.5 1-1.5 1.5-.5 1.5-.5 1.5-1 1.5-1 2.5-.5 2.5-.5 1-.5 1-.5 1-1 1-1 8.5-15.5 8.5-15.5" style="fill:#837164;stroke:#837164"/><g style="fill:#5d5349;stroke:#5d5349"><path d="m476 497l-24 1 7 .5 7 .5 5-1 5-1"/><path d="m475 600v-2-1-1l-1-1.5-1-1.5h-2-2l-1.5 1-1.5 1v2 2l2 .5 2 .5 1.5-.5 1.5-.5 1 .5 1 .5"/></g><path d="m473 287l1-3-.5-1.5-.5-1.5h-1.5-1.5l-1.5-.5-1.5-.5-.5 1-.5 1-.5 1.5-.5 1.5 1.5 1 1.5 1 1.5-.5 1.5-.5h1 1v.5.5" style="fill:#9a938f;stroke:#9a938f"/><path d="m467 608l1-3h-2-2l.5-2 .5-2-1.5-.5-1.5-.5-2 .5-2 .5-1 1-1 1v1.5 1.5l1.5.5 1.5.5 1.5-.5 1.5-.5 1.5 1 1.5 1h1 1" style="fill:#5d5349;stroke:#5d5349"/><path d="m458 118h1v-.5-.5h-.5-.5l-2-.5-2-.5-1.5-1-1.5-1v-2-2l-.5-2-.5-2v-1-1l-1-1-1-1-1.5-1-1.5-1-1-1-1-1-2-1.5-2-1.5-1.5.5-1.5.5-1-.5-1-.5h-1-1l-.5-.5-.5-.5h-1-1l-1-.5-1-.5h-1-1-2-2l-1 1-1 1 15 7.5 15 7.5 4.5 4 4.5 4" style="fill:#837164;stroke:#837164"/><path d="m458 117h1l-.5-1-.5-1-1-1-1-1-.5-1-.5-1-.5-.5-.5-.5v-1-1-1-1-1.5-1.5l-.5-.5-.5-.5v-1-1-1-1l-1-.5-1-.5-.5-2-.5-2-1-.5-1-.5-1.5-1-1.5-1-.5 1.5-.5 1.5-2.5 1-2.5 1 2 1.5 2 1.5 1 1 1 1 1.5 1 1.5 1 1 1 1 1v1 1l.5 2 .5 2v2 2l1.5 1 1.5 1 2 .5 2 .5" style="fill:#5d5349;stroke:#5d5349"/><path d="m458 4v-2-1-1h-2.5-2.5-2-2-2.5-2.5-2-2-2.5-2.5-2-2-2-2-2.5-2.5-2-2-2.5-2.5-1.5-1.5l17.5 2.5 17.5 2.5 6.5-.5 6.5-.5" style="fill:#9a938f;stroke:#9a938f"/><g style="fill:#5d5349;stroke:#5d5349"><path d="m457 614l-1-1-1.5-.5-1.5-.5.5-2 .5-2-1.5-.5-1.5-.5-2 .5-2 .5-1 1-1 1 .5 2 .5 2h2 2 1 1l1.5 1 1.5 1 1-1 1-1"/><path d="m457 36l1-1-2.5.5-2.5.5-1.5 1-1.5 1-1.5.5-1.5.5-1 1.5-1 1.5.5 1 .5 1 1.5 1 1.5 1-.5 1.5-.5 1.5v1.5 1.5l-1 1-1 1h-.5-.5-.5-.5l-.5 1-.5 1v1 1l-.5.5-.5.5-.5 1-.5 1-.5.5-.5.5-.5.5-.5.5-.5.5-.5.5-.5 1-.5 1-.5.5-.5.5-.5.5-.5.5-.5.5-.5.5-1 1-1 1-.5.5-.5.5-1 1.5-1 1.5-1 1.5-1 1.5-1 1-1 1-1.5 1-1.5 1-1 1-1 1-1.5 1-1.5 1-1.5.5-1.5.5-2 .5-2 .5-1 1-1 1-1 1-1 1v1.5 1.5h1 1l.5-.5.5-.5h1 1l1 1 1 1h1.5 1.5l1.5-.5 1.5-.5 1-1 1-1-1.5-.5-1.5-.5v-1-1l1-.5 1-.5 1-1 1-1 2 .5 2 .5 1.5-.5 1.5-.5 1.5-1 1.5-1-.5-1.5-.5-1.5-1-1.5-1-1.5 1-1 1-1 1.5-.5 1.5-.5.5-1.5.5-1.5 1-1 1-1 .5-.5.5-.5.5-1 .5-1 1-.5 1-.5 8-15.5 8-15.5"/></g><path d="m451 97l1-3-.5-2-.5-2-.5-1.5-.5-1.5-.5-1.5-.5-1.5-.5-2-.5-2-.5-1.5-.5-1.5-1-1.5-1-1.5-.5-1.5-.5-1.5-1-1-1-1-.5-1-.5-1-1 .5-1 .5-.5 1-.5 1-.5.5-.5.5-1 1-1 1-.5 1.5-.5 1.5 1 .5 1 .5.5 1.5.5 1.5 1.5 1 1.5 1 .5 1.5.5 1.5 1 1.5 1 1.5 1 1 1 1 1.5 1 1.5 1 1 .5 1 .5.5 2 .5 2" style="fill:#1c1d15;stroke:#1c1d15"/><path d="m448 120h1l-1-.5-1-.5-1-1-1-1h-2.5-2.5-2-2-1.5-1.5l-1.5-.5-1.5-.5-2-.5-2-.5h-2-2l-.5.5-.5.5h-2.5-2.5-1-1-1-1-1-1-1.5-1.5-1-1-1-1-1-1v-.5-.5-2-2h-.5-.5l-1 1.5-1 1.5h-1.5-1.5l-1.5.5-1.5.5-.5.5-.5.5h-1.5-1.5-1-1-1-1-1.5-1.5-1-1-1-1-1-1-1.5-1.5-2-2-1-1-1.5-1.5l-1 .5-1 .5h1.5 1.5 1 1l.5.5.5.5h1.5 1.5 1 1 1 1 1 1l1 .5 1 .5h2 2 2.5 2.5 3 3 13.5 13.5l14 .5 14 .5" style="fill:#ed9c5d;stroke:#ed9c5d"/><path d="m448 49l1-3-1.5-1-1.5-1-14.5 5-14.5 5h-6.5-6.5l-2.5 8-2.5 8-4.5 6-4.5 6v1.5 1.5 1 1 1 1l-.5.5-.5.5-.5.5-.5.5-.5 1-.5 1 .5 1.5.5 1.5.5-1.5.5-1.5 1-.5 1-.5v-1-1l1 .5 1 .5 6.5-8.5 6.5-8.5 8.5-6 8.5-6 11.5-5.5 11.5-5.5v1.5 1.5l1-1 1-1v-1.5-1.5" style="fill:#9a938f;stroke:#9a938f"/><path d="m447 422l-1-1 .5-.5.5-.5.5-.5.5-.5-.5-2-.5-2h-.5-.5l-1 .5-1 .5-2 .5-2 .5 1 1.5 1 1.5.5 1.5.5 1.5h1 1l1-.5 1-.5" style="fill:#bdbbb6;stroke:#bdbbb6"/><path d="m446 415h1l-4-13-4-13-4-11.5-4-11.5-4-11.5-4-11.5-4-11.5-4-11.5-4-10.5-4-10.5h-.5-.5l-.5-1.5-.5-1.5.5 2 .5 2 .5 2 .5 2 .5 1.5.5 1.5.5 2 .5 2v2 2l-.5 1.5-.5 1.5-.5-2-.5-2-1-1.5-1-1.5-.5-1.5-.5-1.5-.5-2-.5-2-.5-1.5-.5-1.5v-2-2l1.5-.5 1.5-.5-1-1.5-1-1.5-.5-2-.5-2-.5-1.5-.5-1.5-.5-2-.5-2-.5-1.5-.5-1.5-.5-1.5-.5-1.5-1-1.5-1-1.5-.5-1.5-.5-1.5-2-.5-2-.5-1.5.5-1.5.5.5 2 .5 2-.5 1.5-.5 1.5-1-.5-1-.5h-1-1l-.5.5-.5.5h-1.5-1.5-1-1l-.5.5-.5.5h-1-1l-1 .5-1 .5h-1-1v1 1l1 1 1 1 10 2 10 2 3.5 10.5 3.5 10.5 4 10.5 4 10.5 4 10.5 4 10.5 4 11 4 11-3-11.5-3-11.5-1-7-1-7 4 10 4 10 7 20.5 7 20.5-1 1-1 1-1 1-1 1 .5 2 .5 2 .5 2 .5 2 .5 1.5.5 1.5 1 1.5 1 1.5.5 1.5.5 1.5 2-.5 2-.5 1-.5 1-.5" style="fill:#9a938f;stroke:#9a938f"/><g style="fill:#bdbbb6;stroke:#bdbbb6"><path d="m446 110l-17-6-8.5-2-8.5-2-8-3-8-3h-2-2l.5 1.5.5 1.5v2.5 2.5 2 2l1 1 1 1-1.5 1-1.5 1v2.5 2.5l1.5-.5 1.5-.5h1.5 1.5l1-1.5 1-1.5 12.5-1 12.5-1 10.5.5 10.5.5"/><path d="m446 51l-23 11-8.5 6-8.5 6-6.5 8.5-6.5 8.5h1 1 1.5 1.5l2 .5 2 .5h2 2l1-1 1-1 .5-6.5.5-6.5 8.5-6 8.5-6 9.5-5.5 9.5-5.5h.5.5v-1.5-1.5"/></g><path d="m444 93l1-3-1-1-1-1-1-1.5-1-1.5-.5-1.5-.5-1.5-1.5-1-1.5-1-.5-1.5-.5-1.5-1-.5-1-.5-1.5.5-1.5.5-1 1-1 1 1 1.5 1 1.5.5 1.5.5 1.5-1.5 1-1.5 1-1.5.5-1.5.5-2-.5-2-.5-1 1-1 1-1 .5-1 .5v1 1l1.5.5 1.5.5h2 2 1 1l1 .5 1 .5h1 1l.5.5.5.5h1 1l1 .5 1 .5 1.5-.5 1.5-.5 2.5-1 2.5-1" style="fill:#7e4527;stroke:#7e4527"/><path d="m444 54h1l-9.5 5.5-9.5 5.5-8.5 6-8.5 6-.5 6.5-.5 6.5 1-1 1-1 2-.5 2-.5 1-1.5 1-1.5-1 .5-1 .5-.5.5-.5.5h-1-1l-.5.5-.5.5-1 .5-1 .5-1-1-1-1v-1-1l1-.5 1-.5 1-1 1-1 .5-.5.5-.5 1-.5 1-.5 1-1 1-1h1 1 .5.5v1.5 1.5l-.5 1-.5 1-.5 1-.5 1 1.5-1 1.5-1 1-1 1-1 .5-.5.5-.5.5-1 .5-1 1.5-.5 1.5-.5.5-.5.5-.5.5-1 .5-1 2-1 2-1 1-1 1-1 .5-.5.5-.5.5-.5.5-.5.5-.5.5-.5.5-1 .5-1 .5-.5.5-.5.5-.5.5-.5.5-.5.5-.5.5-1 .5-1 .5-.5.5-.5v-1-1l.5-1 .5-1" style="fill:#ddd3ca;stroke:#ddd3ca"/><path d="m442 619l1-3-1.5-.5-1.5-.5-2 .5-2 .5-1 1-1 1 .5 2 .5 2h2 2l1.5-1 1.5-1v-.5-.5" style="fill:#5d5349;stroke:#5d5349"/><path d="m439 425l-10-31-3.5-10.5-3.5-10.5-4-11.5-4-11.5-4-11.5-4-11.5-4-11.5-4-11.5-4-10.5-4-10.5-12.5 2-12.5 2-2.5.5-2.5.5-2 .5-2 .5h-2-2l-2 .5-2 .5-1.5.5-1.5.5h-2.5-2.5l-.5.5-.5.5h-2-2l-1 .5-1 .5h-2-2l-.5.5-.5.5h-1-1-1-1l-1 .5-1 .5h-2-2-1-1l-1 .5-1 .5h-2-2l-.5.5-.5.5h-2.5-2.5l-12.5 2-12.5 2-13.5 2-13.5 2-13 9.5-13 9.5 3.5 11 3.5 11 4.5 13 4.5 13 .5 2 .5 2 4 11.5 4 11.5 4 11.5 4 11.5 3.5 12 3.5 12 5.5 16 5.5 16 14-4.5 14-4.5 11.5-3.5 11.5-3.5 10.5-3.5 10.5-3.5 11.5-4 11.5-4 11.5-3.5 11.5-3.5 10.5-3.5 10.5-3.5 11.5-4 11.5-4" style="fill:#1c1d15;stroke:#1c1d15"/><path d="m438 481l-3-26-6.5 6-6.5 6 6 9.5 6 9.5 2-2.5 2-2.5" style="fill:#5d5349;stroke:#5d5349"/><path d="m438 396l-14-41-4-10-4-10 1 7 1 7 3 11.5 3 11.5.5 1 .5 1 .5 2 .5 2 .5 1.5.5 1.5.5 1 .5 1 .5.5.5.5.5 1.5.5 1.5.5 1 .5 1v1 1l.5 1.5.5 1.5.5 1 .5 1 .5.5.5.5v1.5 1.5l1-1 1-1 1-1 1-1" style="fill:#bdbbb6;stroke:#bdbbb6"/><path d="m431 500l-7-22-4-4-4-4v2 2l.5 1.5.5 1.5v1 1h-1.5-1.5l-1-1.5-1-1.5-.5-1.5-.5-1.5v-1-1l2.5-.5 2.5-.5-8.5-1.5-8.5-1.5-10 5.5-10 5.5-1-.5-1-.5-11.5 3-11.5 3-2 9.5-2 9.5h12.5 12.5l6.5.5 6.5.5 1-3.5 1-3.5 8.5 7 8.5 7 8.5-1 8.5-1 3.5-4 3.5-4" style="fill:#5d5349;stroke:#5d5349"/><path d="m431 72l1-1-2 1-2 1-.5 1-.5 1-.5.5-.5.5-1.5.5-1.5.5-.5 1-.5 1-.5.5-.5.5-1 1-1 1-1.5 1-1.5 1-1 1.5-1 1.5 1.5-.5 1.5-.5 1.5-1 1.5-1 1-1 1-1 1.5-1 1.5-1 1-1 1-1 1-1.5 1-1.5 1-1.5 1-1.5" style="fill:#bdbbb6;stroke:#bdbbb6"/><path d="m421 116l1-1h-1-1-1-1-1.5-1.5l-.5-.5-.5-.5-.5.5-.5.5-.5-.5-.5-.5h-1.5-1.5v-1-1l-.5.5-.5.5-.5-.5-.5-.5-1 .5-1 .5-.5-.5-.5-.5-1.5-.5-1.5-.5v2 2 .5.5h1 1 1 1 1 1 1.5 1.5 1 1 1 1 1 1 2.5 2.5" style="fill:#ca6839;stroke:#ca6839"/><path d="m418 80v-3h-.5-.5-1-1l-1 1-1 1-1 .5-1 .5-.5.5-.5.5-1 1-1 1-1 .5-1 .5v1 1l1 1 1 1 1-.5 1-.5.5-.5.5-.5h1 1l.5-.5.5-.5 1-.5 1-.5.5-1 .5-1 .5-1 .5-1" style="fill:#fffceb;stroke:#fffceb"/><path d="m417 479v-2l-.5-1.5-.5-1.5v-2-2l-2.5.5-2.5.5v1 1l.5 1.5.5 1.5 1 1.5 1 1.5h1.5 1.5" style="fill:#1c1d15;stroke:#1c1d15"/><path d="m408 318l1-3v-2-2l-.5-2-.5-2-.5-1.5-.5-1.5-.5-2-.5-2-.5-2-.5-2-1.5.5-1.5.5v2 2l.5 1.5.5 1.5.5 2 .5 2 .5 1.5.5 1.5 1 1.5 1 1.5.5 2 .5 2" style="fill:#bdbbb6;stroke:#bdbbb6"/><path d="m406 299h1l-9.5-15-9.5-15v.5.5l1.5-.5 1.5-.5 2 .5 2 .5.5 1.5.5 1.5 1 1.5 1 1.5.5 1.5.5 1.5.5 1.5.5 1.5.5 2 .5 2 .5 1.5.5 1.5.5 2 .5 2 1 1.5 1 1.5.5 1.5.5 1.5" style="fill:#837164;stroke:#837164"/><path d="m405 621l-15-6 7 3.5 7 3.5.5-.5.5-.5" style="fill:#5d5349;stroke:#5d5349"/><path d="m400 264l1-1-15-3-15-3-12 2-12 2-13.5 1.5-13.5 1.5-10 4.5-10 4.5 11 1 11 1 13-1.5 13-1.5 12.5-2 12.5-2 13.5-2 13.5-2" style="fill:#9a938f;stroke:#9a938f"/><path d="m399 261l-23-2-13.5 2-13.5 2-13 1.5-13 1.5-10.5 4-10.5 4 13-.5 13-.5 13.5-2 13.5-2 13.5-2 13.5-2 8.5-2 8.5-2" style="fill:#bdbbb6;stroke:#bdbbb6"/><path d="m397 93l1-2h-1.5-1.5-1-1l-1-.5-1-.5v1 1l-1 .5-1 .5-.5 1.5-.5 1.5 1 2.5 1 2.5.5 1.5.5 1.5.5 1.5.5 1.5v1.5 1.5l1.5-1 1.5-1-1-1-1-1v-2-2-2.5-2.5l-.5-1.5-.5-1.5h2 2l.5-.5.5-.5" style="fill:#ed9c5d;stroke:#ed9c5d"/><path d="m391 116l1-1h-.5-.5-2-2-2-2-1-1-1-1-1-1-1.5-1.5-1-1-1-1-1-1-1.5-1.5l-.5-.5-.5-.5h-1-1l-.5.5-.5.5-.5-1-.5-1-1-1-1-1v-1-1-1.5-1.5l-2-.5-2-.5-1-.5-1-.5-.5.5-.5.5h-1.5-1.5l-.5.5-.5.5-.5.5-.5.5h-1-1-1-1l-1.5.5-1.5.5-1 .5-1 .5-.5-1.5-.5-1.5-.5-1.5-.5-1.5v-2.5-2.5l1-1 1-1h2.5 2.5l2.5-.5 2.5-.5.5-1 .5-1 1.5-1 1.5-1v-2-2l-.5-1.5-.5-1.5v-1.5-1.5l-1-1.5-1-1.5-4-7-4-7-1.5-13-1.5-13-8-2.5-8-2.5-6.5-8-6.5-8h-1.5-1.5l-1-.5-1-.5-.5-1.5-.5-1.5v-1-1l.5-1 .5-1h1 1l1.5-.5 1.5-.5-.5-1.5-.5-1.5-1-1-1-1-1 .5-1 .5 1 1 1 1h-1.5-1.5l-1 1-1 1-1.5 1-1.5 1-.5-1.5-.5-1.5v-2-2l1.5-1 1.5-1h2 2 1.5 1.5l.5-.5.5-.5h-2-2-2.5-2.5-1.5-1.5l2.5 9.5 2.5 9.5 7 7.5 7 7.5 3.5 8 3.5 8 6 4.5 6 4.5 6.5 16 6.5 16-2 1-2 1-1.5.5-1.5.5-2 1-2 1 3 9.5 3 9.5 10 1 10 1 1-.5 1-.5h1.5 1.5 1 1 2 2 1.5 1.5 1 1 1 1 1 1 1.5 1.5 1 1 1 1 1.5 1.5" style="fill:#9a938f;stroke:#9a938f"/><path d="m391 115h1v-2.5-2.5-1.5-1.5l-.5-1.5-.5-1.5-.5-1.5-.5-1.5-1-2.5-1-2.5-.5-1.5-.5-1.5.5-1 .5-1 .5-.5.5-.5.5-.5.5-.5v-1-1-1-1-1.5-1.5l-.5-2.5-.5-2.5-2-.5-2-.5v-2-2l-1.5-1-1.5-1h-.5-.5-1.5-1.5l-1-1.5-1-1.5-1-1-1-1-.5-1.5-.5-1.5-1-1.5-1-1.5-1-1-1-1-1.5-1-1.5-1h-2-2l-2 .5-2 .5-2 .5-2 .5-1 1-1 1-1 .5-1 .5 1 7 1 7 3 16 3 16v1.5 1.5 1 1l1 1 1 1 .5 1 .5 1 .5-.5.5-.5h1 1l.5.5.5.5h1.5 1.5 1 1 1 1 1 1 1.5 1.5 1 1 1 1 1 1 2 2 2 2" style="fill:#c62e28;stroke:#c62e28"/><path d="m388 630l-10-15 2 9.5 2 9.5 3-2 3-2" style="fill:#5d5349;stroke:#5d5349"/><path d="m388 277l1-3-.5-2-.5-2v-.5-.5h-.5-.5l-.5.5-.5.5-.5 1.5-.5 1.5h-1-1-1.5-1.5l-.5.5-.5.5h-1-1-1-1l-1 .5-1 .5-1 1-1 1-.5.5-.5.5-.5.5-.5.5-.5.5-.5.5.5 1 .5 1 1 1 1 1 1-.5 1-.5-1-1-1-1v-1-1h1 1l1-.5 1-.5h1 1l.5-.5.5-.5h1 1 1.5 1.5l.5-.5.5-.5h1 1l1 .5 1 .5" style="fill:#4372a7;stroke:#4372a7"/><path d="m386 270l1-1-24.5 2.5-24.5 2.5-13 2-13 2-15.5 2.5-15.5 2.5-13.5 2-13.5 2-13.5 2-13.5 2-13.5 2-13.5 2-13.5 2-13.5 2-13 2-13 2-12 2-12 2-6 7.5-6 7.5 4.5 11 4.5 11 3 12.5 3 12.5 4 11 4 11 3.5 10.5 3.5 10.5 4 11.5 4 11.5 3.5 12 3.5 12 3.5 12 3.5 12 4 11.5 4 11.5 9 2 9 2 10.5-3.5 10.5-3.5 11.5-3.5 11.5-3.5 10.5-3.5 10.5-3.5 11.5-4 11.5-4-.5-.5-.5-.5h-.5-.5l-2.5.5-2.5.5-1.5.5-1.5.5-1.5 1-1.5 1-1.5.5-1.5.5-2 .5-2 .5-1.5.5-1.5.5-1.5.5-1.5.5-1.5.5-1.5.5-1.5.5-1.5.5-.5.5-.5.5-1.5.5-1.5.5-1.5.5-1.5.5-2 .5-2 .5-2.5.5-2.5.5-10.5 4-10.5 4-11 3.5-11 3.5-7.5-4-7.5-4-6.5-21.5-6.5-21.5-2.5-13.5-2.5-13.5.5-9.5.5-9.5h-2-2l-1.5.5-1.5.5 8-5 8-5 11.5-3 11.5-3 11.5-3 11.5-3 11.5-2.5 11.5-2.5 8 4.5 8 4.5 5 15.5 5 15.5 6.5 19.5 6.5 19.5.5 1 .5 1 .5.5.5.5v1 1l.5.5.5.5v1.5 1.5l.5.5.5.5.5 1.5.5 1.5.5-.5.5-.5-5.5-16-5.5-16-3.5-12-3.5-12-4-11.5-4-11.5-4-11.5-4-11.5h-.5-.5l-11 4-11 4-12 2.5-12 2.5-12 2.5-12 2.5-17.5.5-17.5.5-3.5-11.5-3.5-11.5-2-13.5-2-13.5-1-.5-1-.5-1.5-.5-1.5-.5.5-1.5.5-1.5-.5-1-.5-1-.5-.5-.5-.5v-1-1l-.5-.5-.5-.5-.5-1-.5-1v-1-1l-.5-.5-.5-.5-.5-.5-.5-.5v-1.5-1.5l-1-1-1-1-.5-1.5-.5-1.5.5-2 .5-2-.5-1.5-.5-1.5 1-1 1-1 2-.5 2-.5v1 1l.5 1 .5 1 1.5-1.5 1.5-1.5 1.5-1 1.5-1 1.5.5 1.5.5-1 1.5-1 1.5-1.5.5-1.5.5 1 .5 1 .5 2-.5 2-.5 1.5-.5 1.5-.5v-1-1l-.5-.5-.5-.5.5-1 .5-1h1 1l.5-.5.5-.5h1 1l1 .5 1 .5v1 1l-.5.5-.5.5-.5.5-.5.5h-1.5-1.5l.5.5.5.5.5.5.5.5.5.5.5.5h1 1l.5-1 .5-1 1-1 1-1 8-2.5 8-2.5 12.5-2.5 12.5-2.5 13-2 13-2 13.5-2 13.5-2 13.5-2 13.5-2 24-3.5 24-3.5 17 2.5 17 2.5-2 .5-2 .5-2 1-2 1 1 .5 1 .5h2.5 2.5l1.5-.5 1.5-.5 2-.5 2-.5h2 2l2-.5 2-.5 2.5-.5 2.5-.5 2-1 2-1 1-.5 1-.5-1-1-1-1-.5-1-.5-1 .5-.5.5-.5.5-.5.5-.5.5-.5.5-.5 1-1 1-1 1-.5 1-.5h1 1 1 1l.5-.5.5-.5h1.5 1.5 1 1l.5-1.5.5-1.5" style="fill:#203b7b;stroke:#203b7b"/><path d="m385 712h1l-1-1-1-1-1-.5-1-.5-.5-.5-.5-.5-1-.5-1-.5-.5.5-.5.5h-1-1l-1 .5-1 .5-.5-.5-.5-.5-1-.5-1-.5v1 1 1.5 1.5h2.5 2.5 2.5 2.5 2 2" style="fill:#7e4527;stroke:#7e4527"/><path d="m381 70h1l-.5-1.5-.5-1.5-1-.5-1-.5-.5-.5-.5-.5-.5-1.5-.5-1.5-1-1-1-1-1-1.5-1-1.5-1-1-1-1-2-.5-2-.5-1.5-.5-1.5-.5-1 1-1 1h2 2l1.5 1 1.5 1 1 1 1 1 1 1.5 1 1.5.5 1.5.5 1.5 1 1 1 1 1 1.5 1 1.5h1.5 1.5" style="fill:#ca6839;stroke:#ca6839"/><path d="m378 708l1-1-1.5-1.5-1.5-1.5-1-1.5-1-1.5-.5-1.5-.5-1.5-2-1-2-1v1.5 1.5l1 1.5 1 1.5v2.5 2.5l1 .5 1 .5.5.5.5.5 1-.5 1-.5h1 1" style="fill:#5d5349;stroke:#5d5349"/><path d="m377 119h1l-1-.5-1-.5h-1-1-1-1-1-1-1.5-1.5l-.5-.5-.5-.5h-1-1-1.5-1.5l-10-1-10-1-3-9.5-3-9.5 9 8 9 8 12 3.5 12 3.5" style="fill:#bdbbb6;stroke:#bdbbb6"/><path d="m370 712h1v-1.5-1.5-1-1-2.5-2.5l-1-1.5-1-1.5v-1.5-1.5l-2 .5-2 .5-.5.5-.5.5-1 .5-1 .5-1 .5-1 .5-.5.5-.5.5-11-.5-11-.5-10.5-7-10.5-7 1.5 1.5 1.5 1.5-.5 1.5-.5 1.5 1 1.5 1 1.5-.5 1.5-.5 1.5v1.5 1.5l-.5 1.5-.5 1.5-1.5 1-1.5 1h-2-2l-1 1-1 1-2 .5-2 .5-1.5 1.5-1.5 1.5h1.5 1.5 2 2 2.5 2.5 2 2 1.5 1.5l1-.5 1-.5 1-.5 1-.5.5-.5.5-.5h1 1l.5-.5.5-.5 1-.5 1-.5.5-.5.5-.5h1 1l.5-.5.5-.5 1-.5 1-.5 1-1 1-1h1 1 2 2 1.5 1.5l1 .5 1 .5 1.5.5 1.5.5.5.5.5.5 1 .5 1 .5 1 1 1 1h1 1 1.5 1.5 1 1v1 1l-2 1-2 1h2.5 2.5 2 2" style="fill:#837164;stroke:#837164"/><path d="m365 710v-2h-1-1-1.5-1.5-1-1l-1-1-1-1-1-.5-1-.5-.5-.5-.5-.5-1.5-.5-1.5-.5-1-.5-1-.5h-1.5-1.5l1 .5 1 .5.5.5.5.5h1 1 1 1l.5 1 .5 1 .5.5.5.5.5.5.5.5.5.5.5.5v1.5 1.5h2 2 .5.5l2-1 2-1" style="fill:#ddd3ca;stroke:#ddd3ca"/><path d="m361 150l-15 4 1 2.5 1 2.5 6.5-4.5 6.5-4.5" style="fill:#9a938f;stroke:#9a938f"/><path d="m360 122l-16-3-11-.5-11-.5-11 .5-11 .5-9.5-3-9.5-3h-12.5-12.5v-8.5-8.5l-1.5-3-1.5-3-.5-4-.5-4 3.5-2 3.5-2-11.5 1-11.5 1v4.5 4.5l4.5 9 4.5 9-7 6.5-7 6.5 11 2.5 11 2.5h15 15l14-.5 14-.5 9.5-1 9.5-1 13 .5 13 .5 2-.5 2-.5" style="fill:#fffceb;stroke:#fffceb"/><path d="m359 701l1-1-15.5-.5-15.5-.5-3.5-7.5-3.5-7.5-9 3-9 3-6.5 8-6.5 8h2 2l1-1.5 1-1.5.5-1.5.5-1.5 1-1.5 1-1.5 1-1 1-1 1.5-1 1.5-1 1-1 1-1 2-1 2-1 1-.5 1-.5 1.5-1 1.5-1 10.5 7 10.5 7 11 .5 11 .5" style="fill:#5d5349;stroke:#5d5349"/><path d="m358 106l-6-32-1-7-1-7-1 .5-1 .5-1 .5-1 .5h-1-1l-.5.5-.5.5-.5.5-.5.5-.5 1-.5 1v1 1l.5.5.5.5v1 1 1.5 1.5l.5.5.5.5.5.5.5.5h1 1l1 1 1 1 1 1.5 1 1.5v1.5 1.5l.5 1.5.5 1.5v2 2l-1.5 1-1.5 1-.5 1-.5 1-.5.5-.5.5-1 .5-1 .5h-2.5-2.5l-1 1-1 1 1 1.5 1 1.5 1-1 1-1h1.5 1.5l2 1 2 1 2 1 2 1 1 .5 1 .5 2 .5 2 .5" style="fill:#7e4527;stroke:#7e4527"/><path d="m355 712h1v-1.5-1.5l-.5-.5-.5-.5-.5-.5-.5-.5-.5-.5-.5-.5-.5-1-.5-1h-1-1-1-1l-.5-.5-.5-.5-1-.5-1-.5h-2-2-1-1l-1 1-1 1-1 .5-1 .5-.5.5-.5.5h-1-1l-.5.5-.5.5-1 .5-1 .5-.5.5-.5.5h-1-1l-.5.5-.5.5-1 .5-1 .5-1 .5-1 .5h3 3 2 2 2.5 2.5 2 2 2 2 2.5 2.5 2 2 1 1" style="fill:#fffceb;stroke:#fffceb"/><path d="m352 6l-23-4-5 2.5-5 2.5 9.5 6 9.5 6 5-4.5 5-4.5 2-2 2-2" style="fill:#9a938f;stroke:#9a938f"/><g style="fill:#5d5349;stroke:#5d5349"><path d="m351 105l1-1-2-1-2-1-2-1-2-1-.5 1-.5 1-1 1-1 1-1 2-1 2 1.5-.5 1.5-.5h1 1 1 1l.5-.5.5-.5.5-.5.5-.5h1.5 1.5"/><path d="m346 371v-2h-1-1l-2 .5-2 .5-1.5.5-1.5.5-2 .5-2 .5v1 1h1.5 1.5 2 2l1.5-.5 1.5-.5 1.5-1 1.5-1"/></g><path d="m346 287l-34-5-.5 1-.5 1-7.5 1.5-7.5 1.5-8.5 3-8.5 3-10 .5-10 .5-10 5.5-10 5.5-13.5 2-13.5 2-6-1.5-6-1.5-2.5 4.5-2.5 4.5-5.5-7-5.5-7-12.5 2.5-12.5 2.5-8 2.5-8 2.5 1.5-.5 1.5-.5 1 .5 1 .5h2 2l.5-.5.5-.5 1-.5 1-.5 1.5.5 1.5.5.5.5.5.5v1.5 1.5l.5 1 .5 1-.5 1-.5 1-1.5 1-1.5 1h-2-2l-2 .5-2 .5h-2-2l-1-1.5-1-1.5-.5-2.5-.5-2.5-.5 1-.5 1h-1-1l-.5-.5-.5-.5-.5-.5-.5-.5-.5-.5-.5-.5h1.5 1.5l.5-.5.5-.5.5-.5.5-.5v-1-1l-1-.5-1-.5h-1-1l-.5.5-.5.5h-1-1l-.5 1-.5 1 .5.5.5.5v1 1l-1.5.5-1.5.5-.5 1-.5 1-.5 1-.5 1-1.5 1-1.5 1-1.5-.5-1.5-.5-1-2.5-1-2.5-.5-1-.5-1v-1-1l-2 .5-2 .5-1 1-1 1 .5 1.5.5 1.5-.5 2-.5 2 .5 1.5.5 1.5 1 1 1 1 5.5 5.5 5.5 5.5 13.5-2 13.5-2 13.5-2 13.5-2 19.5-3 19.5-3-1.5.5-1.5.5-1 .5-1 .5-1 .5-1 .5.5 1 .5 1-.5 1-.5 1-2 .5-2 .5-2 .5-2 .5-1.5.5-1.5.5h-2.5-2.5l-1.5.5-1.5.5-.5-2.5-.5-2.5h-2-2l-1.5.5-1.5.5h-2-2l-.5.5-.5.5-1.5.5-1.5.5v1.5 1.5 1 1l-2 .5-2 .5h-2-2-2-2l-1.5 1-1.5 1h-2-2l-2 .5-2 .5-1.5.5-1.5.5h-2.5-2.5v-2.5-2.5l-1.5-.5-1.5-.5-2 .5-2 .5-1.5.5-1.5.5-1.5.5-1.5.5-2 .5-2 .5h-1-1l-1.5 1-1.5 1-1.5-.5-1.5-.5-.5 1.5-.5 1.5 1.5.5 1.5.5 1 .5 1 .5 1.5-1 1.5-1h1 1l.5 2 .5 2 2 1 2 1 9.5-2 9.5-2 8.5-3.5 8.5-3.5 11-1 11-1 15-1.5 15-1.5h1.5 1.5l-.5-1.5-.5-1.5.5-.5.5-.5-.5-1-.5-1-9-3-9-3-13 2.5-13 2.5-12 2-12 2-13 2-13 2 5.5-4 5.5-4 11-2.5 11-2.5 12-1 12-1 12.5-3 12.5-3 12-3.5 12-3.5 13.5-2 13.5-2 20.5-3.5 20.5-3.5 1.5-.5 1.5-.5-1.5-.5-1.5-.5-.5-1-.5-1v-1-1h1 1l.5-.5.5-.5 1-.5 1-.5h2 2l.5-.5.5-.5h1.5 1.5 2 2l.5-.5.5-.5h1.5 1.5l1.5-.5 1.5-.5h2 2 1.5 1.5l-.5 2-.5 2-.5 1-.5 1h2 2l2-1 2-1 2-.5 2-.5" style="fill:#4372a7;stroke:#4372a7"/><path d="m346 96l1-1-2.5.5-2.5.5h-2.5-2.5l-1 1-1 1v2.5 2.5l.5 1.5.5 1.5.5 1.5.5 1.5 1-.5 1-.5 1-2 1-2 1-1 1-1 .5-1 .5-1h-1.5-1.5l-1 1-1 1-1-1.5-1-1.5 1-1 1-1h2.5 2.5l1-.5 1-.5" style="fill:#837164;stroke:#837164"/><path d="m346 91l-13-32-6-4.5-6-4.5-3.5-8-3.5-8-7-7.5-7-7.5-2.5-9.5-2.5-9.5h-1.5-1.5-2-2l-10.5 7.5-10.5 7.5-6-4-6-4-2.5 8.5-2.5 8.5-1 10-1 10h6.5 6.5l8-5.5 8-5.5 5 3.5 5 3.5-3.5 1.5-3.5 1.5-6 9-6 9-7.5 2.5-7.5 2.5-10 5.5-10 5.5 16.5-1.5 16.5-1.5 12 .5 12 .5v-7.5-7.5l.5-9 .5-9-2.5-9-2.5-9 2-8.5 2-8.5 6.5 8 6.5 8 3.5 5.5 3.5 5.5-1 7.5-1 7.5 7.5 5 7.5 5 4 10.5 4 10.5 7.5 5.5 7.5 5.5" style="fill:#bdbbb6;stroke:#bdbbb6"/><path d="m339 292l1-1-1-.5-1-.5h-2-2l-1 .5-1 .5-2 .5-2 .5-1.5.5-1.5.5-1.5-.5-1.5-.5-2 .5-2 .5h-1-1l-1.5 1-1.5 1-2-.5-2-.5-1.5.5-1.5.5-.5.5-.5.5-.5.5-.5.5h2.5 2.5l.5-.5.5-.5h2 2l1-.5 1-.5h1 1 2 2l1-.5 1-.5h1 1 1 1l.5-.5.5-.5h2 2l1-.5 1-.5h2 2" style="fill:#5d5349;stroke:#5d5349"/><path d="m335 288l1-4h-1.5-1.5l.5 1 .5 1-.5 1-.5 1-1.5.5-1.5.5h-3-3l-2 .5-2 .5-2.5.5-2.5.5-3 .5-3 .5-1.5.5-1.5.5 1.5.5 1.5.5 2 .5 2 .5 1.5-1 1.5-1h1 1l2-.5 2-.5 1.5.5 1.5.5 1.5-.5 1.5-.5 2-.5 2-.5 1-.5 1-.5.5-1 .5-1" style="fill:#9a938f;stroke:#9a938f"/><path d="m333 288l1-2-.5-1-.5-1h-2-2l-1.5.5-1.5.5h-1.5-1.5l-.5.5-.5.5h-2-2-1.5-1.5l-.5.5-.5.5h-2-2l-1 .5-1 .5-.5.5-.5.5h-1-1v1 1l.5 1 .5 1 1.5-.5 1.5-.5 3-.5 3-.5h-1.5-1.5-2-2-1-1l1.5-1 1.5-1h2 2l1.5-.5 1.5-.5 2-.5 2-.5 1.5-.5 1.5-.5h2.5 2.5l1.5-.5 1.5-.5.5 1 .5 1-1 1-1 1 1.5-.5 1.5-.5" style="fill:#bdbbb6;stroke:#bdbbb6"/><path d="m332 287l-1-2-1.5.5-1.5.5h-2.5-2.5l-1.5.5-1.5.5-2 .5-2 .5-1.5.5-1.5.5h-2-2l-1.5 1-1.5 1h1 1 2 2 1.5 1.5l2.5-.5 2.5-.5 2-.5 2-.5h3 3l1-1 1-1" style="fill:#ddd3ca;stroke:#ddd3ca"/><path d="m329 107l-5-24-6-9.5-6-9.5-3 1.5-3 1.5v7.5 7.5l8-.5 8-.5 2.5 12 2.5 12 1 1 1 1" style="fill:#fffceb;stroke:#fffceb"/><path d="m319 701v-3l.5-1.5.5-1.5-1-1.5-1-1.5.5-1.5.5-1.5-1.5-1.5-1.5-1.5-1.5 1-1.5 1-1 .5-1 .5-.5 1-.5 1-.5 1.5-.5 1.5-2 .5-2 .5.5 1.5.5 1.5-1 1.5-1 1.5-1 1-1 1 .5 2 .5 2-1 1-1 1-1 1.5-1 1.5h1.5 1.5l1.5-1.5 1.5-1.5 2-.5 2-.5 1-1 1-1h2 2l1.5-1 1.5-1 .5-1.5.5-1.5" style="fill:#9a938f;stroke:#9a938f"/><path d="m317 113l-14-13-2 8.5-2 8.5 9-2 9-2" style="fill:#bdbbb6;stroke:#bdbbb6"/><path d="m314 114l-15-12 4 6 4 6h3.5 3.5" style="fill:#9a938f;stroke:#9a938f"/><path d="m313 114h1l-.5-.5-.5-.5-7-5-7-5 7 5.5 7 5.5" style="fill:#837164;stroke:#837164"/><path d="m313 113l1 1-7.5-6-7.5-6 4 6 4 6h3.5 3.5-.5-.5l-7-5.5-7-5.5 7 5 7 5" style="fill:#9a938f;stroke:#9a938f"/><path d="m312 94l-17-6-6.5 8-6.5 8-6.5 2-6.5 2 12-.5 12-.5 9.5-6 9.5-6v-.5-.5" style="fill:#fffceb;stroke:#fffceb"/><path d="m311 284l1-2-24 3.5-24 3.5-13.5 2-13.5 2-13.5 2-13.5 2-13 2-13 2 5.5 7 5.5 7 2.5-4.5 2.5-4.5 6 1.5 6 1.5 13.5-2 13.5-2 10-5.5 10-5.5 10-.5 10-.5 8.5-3 8.5-3 7.5-1.5 7.5-1.5" style="fill:#0f4ba8;stroke:#0f4ba8"/><path d="m310 691l1-2-2 1-2 1-1 1-1 1-1.5 1-1.5 1-1 1-1 1-1 1.5-1 1.5-.5 1.5-.5 1.5-1 1.5-1 1.5-.5.5-.5.5v1 1l.5 1.5.5 1.5h2 2l1-1.5 1-1.5 1-1 1-1-.5-2-.5-2 1-1 1-1 1-1.5 1-1.5-.5-1.5-.5-1.5 2-.5 2-.5.5-1.5.5-1.5" style="fill:#837164;stroke:#837164"/><path d="m310 13v-2l-1-1.5-1-1.5-1.5.5-1.5.5h-1-1l-.5 1-.5 1v1 1l.5 1.5.5 1.5 1 .5 1 .5h1.5 1.5l1-.5 1-.5-1.5-.5-1.5-.5.5-1 .5-1h1 1" style="fill:#ca6839;stroke:#ca6839"/><path d="m308 575v-2l-.5-1.5-.5-1.5-.5-2-.5-2-.5-1.5-.5-1.5v-2.5-2.5l-.5-1.5-.5-1.5-.5-1.5-.5-1.5-.5 2-.5 2-.5 1.5-.5 1.5-.5 1-.5 1h-1-1l-1 .5-1 .5 1 1 1 1 1.5-.5 1.5-.5.5 2 .5 2 .5 1.5.5 1.5-.5 2-.5 2-.5 1-.5 1-1 1.5-1 1.5-1 1-1 1-1 1.5-1 1.5-1 1-1 1-1.5 1-1.5 1-1 1-1 1-1 1-1 1 .5 2 .5 2-1 1-1 1-.5.5-.5.5-.5 1-.5 1-1-.5-1-.5-.5-.5-.5-.5-.5-1-.5-1 2.5 6.5 2.5 6.5 7.5-7 7.5-7-4-1.5-4-1.5 8-7.5 8-7.5.5-1.5.5-1.5" style="fill:#5d5349;stroke:#5d5349"/><path d="m305 296l1-1-20.5 3.5-20.5 3.5-13.5 2-13.5 2-12 3.5-12 3.5-12.5 3-12.5 3 .5.5.5.5h3 3l1.5-.5 1.5-.5 2-.5 2-.5h2 2l.5.5.5.5-1 .5-1 .5h-1-1-1-1l-1 .5-1 .5h-2-2l-.5.5-.5.5h-1.5-1.5l-1.5.5-1.5.5h-1-1l-1 .5-1 .5h-2-2-1-1l-1 .5-1 .5-1-1-1-1 1.5-.5 1.5-.5-2 .5-2 .5h-2-2l-2 .5-2 .5h-2-2l-2 .5-2 .5-1.5.5-1.5.5-2.5.5-2.5.5h1.5 1.5l.5 1 .5 1-2.5-1-2.5-1-3-.5-3-.5-5.5 4-5.5 4 13-2 13-2 12-2 12-2 13-2.5 13-2.5 9 3 9 3v-1.5-1.5l13-9.5 13-9.5 13.5-2 13.5-2 12.5-2 12.5-2 .5-.5.5-.5" style="fill:#ddd3ca;stroke:#ddd3ca"/><path d="m305 2l1-1h-1.5-1.5-2-2l-1.5 1-1.5 1v2 2l.5 1.5.5 1.5 1.5-1 1.5-1 1-1 1-1h1.5 1.5l-1-1-1-1 1-.5 1-.5v-.5-.5" style="fill:#ca6839;stroke:#ca6839"/><path d="m302 574l1-4-.5-1.5-.5-1.5-.5-2-.5-2-1.5.5-1.5.5-1-1-1-1-1 1-1 1-1 .5-1 .5-1 1-1 1-1 1-1 1-.5.5-.5.5-.5 1-.5 1-1 1-1 1h-1-1l-.5 1-.5 1 .5 1.5.5 1.5h1 1v1.5 1.5l-1 1-1 1-1.5.5-1.5.5v.5.5l1 1 1 1 .5 1 .5 1 .5.5.5.5.5-.5.5-.5v1.5 1.5l.5 2.5.5 2.5 1-1 1-1-.5-2-.5-2 1-1 1-1 1-1 1-1 1.5-1 1.5-1 1-1 1-1 1-1.5 1-1.5 1-1 1-1 1-1.5 1-1.5.5-1 .5-1" style="fill:#837164;stroke:#837164"/><path d="m302 556l1-4-11.5 2.5-11.5 2.5-8 7.5-8 7.5 4.5 4 4.5 4 1 .5 1 .5 2 2 2 2 1.5-.5 1.5-.5 1-1 1-1v-1.5-1.5h-1-1l-.5-1.5-.5-1.5.5-1 .5-1h1 1l1-1 1-1 .5-1 .5-1 .5-.5.5-.5 1-1 1-1 1-1 1-1 1-.5 1-.5 1-1 1-1 1-.5 1-.5h1 1l.5-1 .5-1 .5-1.5.5-1.5" style="fill:#9a938f;stroke:#9a938f"/><path d="m299 556l-20 5-8 7.5-8 7.5 11-3.5 11-3.5 7-6.5 7-6.5" style="fill:#ddd3ca;stroke:#ddd3ca"/><path d="m294 712h1l-.5-1.5-.5-1.5-1 .5-1 .5h-2.5-2.5-2-2l-2-.5-2-.5-1.5-.5-1.5-.5-2-.5-2-.5-1.5-.5-1.5-.5-1.5-.5-1.5-.5-2 .5-2 .5-.5 1.5-.5 1.5-1 1.5-1 1.5h2 2 2.5 2.5 2 2 2.5 2.5 2 2 2 2 2.5 2.5 2 2" style="fill:#ca6839;stroke:#ca6839"/><path d="m294 707l1-1h-2-2-1.5-1.5l-.5-.5-.5-.5h-1-1-1-1l-1-.5-1-.5h-1-1l-.5-.5-.5-.5h-1-1l-1-.5-1-.5h-1-1l-.5-.5-.5-.5h-1-1l-.5-.5-.5-.5h-1-1l-1-.5-1-.5h-1-1l-.5.5-.5.5-.5-.5-.5-.5-1.5-1-1.5-1 1 1 1 1 .5 2 .5 2v1 1l-.5 2-.5 2-1.5 1.5-1.5 1.5h1.5 1.5l1-1.5 1-1.5.5-1.5.5-1.5 2-.5 2-.5 1.5.5 1.5.5 1.5.5 1.5.5 2 .5 2 .5 1.5.5 1.5.5 2 .5 2 .5h2 2 2.5 2.5l1-.5 1-.5v-1-1" style="fill:#7e4527;stroke:#7e4527"/><path d="m291 677l-4-25-4-11.5-4-11.5-2.5-2-2.5-2v1.5 1.5l4.5 10.5 4.5 10.5 2.5 14.5 2.5 14.5-3.5-7.5-3.5-7.5-6.5-14.5-6.5-14.5.5 1 .5 1v1 1l.5 1 .5 1v1 1l.5 2 .5 2v1.5 1.5 3 3l.5 1.5.5 1.5.5 1.5.5 1.5.5.5.5.5.5 1 .5 1 .5 1.5.5 1.5.5 2 .5 2v2 2l1 1.5 1 1.5.5 1.5.5 1.5h2.5 2.5l1.5-.5 1.5-.5 1.5-1 1.5-1v-.5-.5" style="fill:#5d5349;stroke:#5d5349"/><path d="m290 681l1-3-1.5 1-1.5 1-1.5.5-1.5.5h-2.5-2.5l-.5-1.5-.5-1.5-1-1.5-1-1.5v-2-2l-.5-2-.5-2-.5-1.5-.5-1.5-.5-1-.5-1 .5 2 .5 2v2.5 2.5l.5 1.5.5 1.5v2.5 2.5 2 2 1.5 1.5l1.5-.5 1.5-.5 1-1 1-1 2 .5 2 .5 1.5-.5 1.5-.5 1-1 1-1" style="fill:#203b7b;stroke:#203b7b"/><path d="m288 678l-5-29-4.5-10.5-4.5-10.5 1 1.5 1 1.5-.5 2-.5 2-1-.5-1-.5-1-.5-1-.5v-1-1l-.5-1-.5-1-.5-.5-.5-.5-.5.5-.5.5-.5 1-.5 1 .5 1.5.5 1.5 6.5 14.5 6.5 14.5 3.5 7.5 3.5 7.5" style="fill:#837164;stroke:#837164"/><path d="m285 517v-2-2-2l-1.5-1-1.5-1-1.5.5-1.5.5-1.5 1-1.5 1-1 1-1 1 1 1.5 1 1.5 1.5.5 1.5.5 1 1 1 1 2-.5 2-.5v-1-1" style="fill:#5d5349;stroke:#5d5349"/><path d="m284 599l1-1-.5-2.5-.5-2.5v-1.5-1.5l-.5.5-.5.5-.5-.5-.5-.5-.5-1-.5-1-1-1-1-1 .5 3 .5 3-1 1-1 1 .5 1.5.5 1.5.5 1 .5 1 .5.5.5.5 1 .5 1 .5.5-1 .5-1" style="fill:#9a938f;stroke:#9a938f"/><g style="fill:#5d5349;stroke:#5d5349"><path d="m278 613l-16-5-2.5 2-2.5 2 10.5.5 10.5.5"/><path d="m278 586h1v-.5-.5l-2-2-2-2v1.5 1.5h-2-2l-2 .5-2 .5-1.5.5-1.5.5-1.5 1-1.5 1 1.5-.5 1.5-.5h2 2 2.5 2.5l.5 1.5.5 1.5-.5 2-.5 2-.5 1.5-.5 1.5 1.5-1 1.5-1 .5-1.5.5-1.5v-2.5-2.5l1-.5 1-.5"/></g><path d="m275 635l1-4-1-1.5-1-1.5v-1.5-1.5l-4 4.5-4 4.5 2.5 7.5 2.5 7.5v-1.5-1.5l-.5-2-.5-2v-1-1l-.5-1-.5-1v-1-1l-.5-1-.5-1-.5-1.5-.5-1.5.5-1 .5-1 .5-.5.5-.5.5.5.5.5.5 1 .5 1v1 1l1 .5 1 .5 1 .5 1 .5" style="fill:#203b7b;stroke:#203b7b"/><path d="m275 480h1v-.5-.5l-.5-1.5-.5-1.5-.5-.5-.5-.5v-1.5-1.5l-.5-.5-.5-.5v-1-1l-.5-.5-.5-.5-.5-1-.5-1 .5 2.5.5 2.5.5 1.5.5 1.5-.5 1.5-.5 1.5-2 .5-2 .5-.5.5-.5.5h-1.5-1.5l-1.5-.5-1.5-.5-.5.5-.5.5-.5 1-.5 1-1.5.5-1.5.5h-1-1l-1 .5-1 .5-1.5.5-1.5.5-.5.5-.5.5v2 2l1.5-.5 1.5-.5 1.5-.5 1.5-.5 1.5-.5 1.5-.5 2-.5 2-.5 1.5-.5 1.5-.5 1.5-1 1.5-1 1.5-.5 1.5-.5 2.5-.5 2.5-.5" style="fill:#4372a7;stroke:#4372a7"/><path d="m273 594l1-4-.5-1.5-.5-1.5h-2.5-2.5-2-2l-1.5.5-1.5.5-1.5.5-1.5.5-.5 2-.5 2 1 1 1 1 1 1 1 1 2-.5 2-.5 1.5.5 1.5.5 2 .5 2 .5v-.5-.5l.5-1.5.5-1.5" style="fill:#bdbbb6;stroke:#bdbbb6"/><path d="m272 477l1-3-.5-1.5-.5-1.5-.5-2.5-.5-2.5-6.5-19.5-6.5-19.5h-.5-.5l-10.5-.5-10.5-.5-12.5 3-12.5 3-12 3.5-12 3.5-14.5 10-14.5 10 6.5 21.5 6.5 21.5 7.5 4 7.5 4 11-3.5 11-3.5 10.5-4 10.5-4-1-1-1-1 .5-1 .5-1 1.5-.5 1.5-.5h1 1l1-.5 1-.5 1.5-.5 1.5-.5h1 1l1-.5 1-.5 1.5 1.5 1.5 1.5 1.5-.5 1.5-.5v-2-2l.5-.5.5-.5 1.5-.5 1.5-.5 1-.5 1-.5h1 1l1.5-.5 1.5-.5.5-1 .5-1 .5-.5.5-.5 1.5.5 1.5.5h1.5 1.5l.5-.5.5-.5 2-.5 2-.5" style="fill:#0d72d4;stroke:#0d72d4"/><g style="fill:#5d5349;stroke:#5d5349"><path d="m261 185l-16-3-13 1.5-13 1.5-10.5 2-10.5 2-12 .5-12 .5-3.5 2-3.5 2 13.5-1 13.5-1 11 2.5 11 2.5 11 2.5 11 2.5 8-1.5 8-1.5 3.5-7 3.5-7"/><path d="m260 705v-2l-.5-2-.5-2-1-1-1-1h-.5-.5l-11.5 1.5-11.5 1.5-8.5 6-8.5 6h2 2l16.5-2.5 16.5-2.5-1.5 1.5-1.5 1.5-.5-1.5-.5-1.5-.5 1.5-.5 1.5-2-.5-2-.5-1-1-1-1 1.5-1 1.5-1-1.5-.5-1.5-.5-1.5 1-1.5 1-1 1-1 1-1 2-1 2h1.5 1.5 2.5 2.5 2 2 2.5 2.5 2 2l1.5-1.5 1.5-1.5.5-2 .5-2"/></g><path d="m257 427h1l-5-15.5-5-15.5-8-4.5-8-4.5-11.5 2.5-11.5 2.5-11.5 3-11.5 3-11.5 3-11.5 3-8 5-8 5-.5-1-.5-1 .5-.5.5-.5 1-.5 1-.5h1 1l.5-.5.5-.5h1 1l1-.5 1-.5h1 1 1 1 1 1l-.5 1.5-.5 1.5-1 .5-1 .5h-1-1l-1.5.5-1.5.5-.5 9.5-.5 9.5 2.5 13.5 2.5 13.5 14.5-10 14.5-10 12-3.5 12-3.5 12.5-3 12.5-3 10.5.5 10.5.5" style="fill:#0f4ba8;stroke:#0f4ba8"/><path d="m256 697h1l-16.5-5-16.5-5-13-2.5-13-2.5-11-2.5-11-2.5-4.5 2-4.5 2-2 1.5-2 1.5-1.5-3-1.5-3-6-2.5-6-2.5-5 5-5 5-3-1-3-1-6.5 2.5-6.5 2.5-.5-1-.5-1-4.5-6.5-4.5-6.5-6.5 10-6.5 10-6-.5-6-.5-7.5-7-7.5-7-5-5.5-5-5.5-5-2.5-5-2.5 1.5 7 1.5 7v5.5 5.5l-5.5-1-5.5-1-6.5-2-6.5-2-14 .5-14 .5v16 16h15.5 15.5 15.5 15.5 15.5 15.5 15.5 15.5 8.5 8.5l10-5.5 10-5.5 10-5.5 10-5.5 13 1 13 1 14.5 3 14.5 3-1 .5-1 .5h-1-1l-.5.5-.5.5-1 .5-1 .5h-1-1l-.5.5-.5.5h-1-1l-.5.5-.5.5-1 .5-1 .5-.5.5-.5.5-.5.5-.5.5-.5.5-.5.5-.5.5-.5.5-1 .5-1 .5-.5.5-.5.5-.5 1-.5 1h1.5 1.5l8.5-6 8.5-6 11.5-1.5 11.5-1.5" style="fill:#7e4527;stroke:#7e4527"/><g style="fill:#837164;stroke:#837164"><path d="m253 707l-33 5h1.5 1.5 2.5 2.5 2 2 1.5 1.5l1-2 1-2 1-1 1-1 1.5-1 1.5-1 1.5.5 1.5.5-1.5 1-1.5 1 1 1 1 1 2 .5 2 .5.5-1.5.5-1.5.5 1.5.5 1.5 1.5-1.5 1.5-1.5"/><path d="m247 31l-6 9-6 2.5-6 2.5 1 7.5 1 7.5 3.5 6 3.5 6 2.5-11 2.5-11 2-9.5 2-9.5"/></g><g style="fill:#4372a7;stroke:#4372a7"><path d="m244 491l1-1-1.5-1.5-1.5-1.5-1 .5-1 .5h-1-1l-1.5.5-1.5.5-1 .5-1 .5h-1-1l-1.5.5-1.5.5-.5 1-.5 1 1 1 1 1 2.5-.5 2.5-.5 2-.5 2-.5 1.5-.5 1.5-.5 1.5-.5 1.5-.5"/><path d="m242 376h1l-.5-2-.5-2h-.5-.5l-1-2-1-2-1-1.5-1-1.5.5 1.5.5 1.5-.5 2-.5 2-12 3-12 3-11.5 2.5-11.5 2.5-14.5 3.5-14.5 3.5h2.5 2.5 1.5 1.5l1.5-.5 1.5-.5 1.5-.5 1.5-.5 2-.5 2-.5h2 2l1.5-.5 1.5-.5.5-.5.5-.5h2.5 2.5l21.5-4 21.5-4-21.5 5-21.5 5h-.5-.5l-12 2.5-12 2.5-12 3-12 3-2 .5-2 .5v-1.5-1.5l1.5-.5 1.5-.5 2-.5 2-.5 1-.5 1-.5-2.5.5-2.5.5h-2-2-.5-.5l-.5.5-.5.5 17.5-.5 17.5-.5 12-2.5 12-2.5 12-2.5 12-2.5 11-4 11-4"/></g><path d="m241 372h1l-4.5-13-4.5-13-3.5-11-3.5-11v1.5 1.5l.5 1 .5 1-.5.5-.5.5.5 1.5.5 1.5.5 1.5.5 1.5v1.5 1.5l.5 1.5.5 1.5.5.5.5.5.5 1 .5 1 .5 1.5.5 1.5v1 1l.5 1 .5 1 .5 1.5.5 1.5.5.5.5.5v1 1l.5.5.5.5v1.5 1.5l.5 1.5.5 1.5 1 1.5 1 1.5 1 2 1 2" style="fill:#203b7b;stroke:#203b7b"/><path d="m240 112l1-3-.5-1.5-.5-1.5-.5-2-.5-2-1.5-.5-1.5-.5-1.5 1-1.5 1-1 1-1 1-1 .5-1 .5.5 1.5.5 1.5.5.5.5.5 1.5 1 1.5 1 1.5-.5 1.5-.5.5-2 .5-2 .5 1.5.5 1.5v1.5 1.5l.5-.5.5-.5" style="fill:#837164;stroke:#837164"/><path d="m238 113h1v-1.5-1.5l-.5-1.5-.5-1.5-.5 2-.5 2-1.5.5-1.5.5-1.5-1-1.5-1-.5-.5-.5-.5-.5-1.5-.5-1.5-.5.5-.5.5-1 1.5-1 1.5 1 1.5 1 1.5h2 2l2 .5 2 .5 1-.5 1-.5" style="fill:#9a938f;stroke:#9a938f"/><path d="m237 372l1-4-.5-1.5-.5-1.5-.5-1.5-.5-1.5h-.5-.5l-.5-1-.5-1-.5-1.5-.5-1.5-.5-1.5-.5-1.5-.5-2-.5-2-.5-1.5-.5-1.5-.5-2-.5-2-1-1-1-1-1-1.5-1-1.5-.5-2.5-.5-2.5-15 1.5-15 1.5-11 1-11 1-8.5 3.5-8.5 3.5-9.5 2-9.5 2-.5 10.5-.5 10.5 2 12 2 12h2 2l2.5-.5 2.5-.5 1-.5 1-.5h1.5 1.5l1.5-.5 1.5-.5.5-.5.5-.5h2 2l14.5-3.5 14.5-3.5 11.5-2.5 11.5-2.5 12-3 12-3" style="fill:#0d72d4;stroke:#0d72d4"/><path d="m236 698l-29-6-13-1-13-1-10 5.5-10 5.5-10 5.5-10 5.5h15.5 15.5 15.5 15.5 5 5l.5-1 .5-1 .5-.5.5-.5 1-.5 1-.5.5-.5.5-.5.5-.5.5-.5.5-.5.5-.5.5-.5.5-.5 1-.5 1-.5.5-.5.5-.5h1 1l.5-.5.5-.5h1 1l1-.5 1-.5.5-.5.5-.5h1 1l1-.5 1-.5" style="fill:#ca6839;stroke:#ca6839"/><path d="m235 377l-43 8v1 1l21.5-5 21.5-5" style="fill:#fffceb;stroke:#fffceb"/><g style="fill:#0f4ba8;stroke:#0f4ba8"><path d="m235 362h1v-1.5-1.5l-.5-.5-.5-.5v-1-1l-.5-.5-.5-.5-.5-1.5-.5-1.5-.5-1-.5-1v-1-1l-.5-1.5-.5-1.5-.5-1-.5-1-.5-.5-.5-.5-.5-1.5-.5-1.5v-1.5-1.5l-.5-1.5-.5-1.5h-1.5-1.5l.5 2.5.5 2.5 1 1.5 1 1.5 1 1 1 1 .5 2 .5 2 .5 1.5.5 1.5.5 2 .5 2 .5 1.5.5 1.5.5 1.5.5 1.5.5 1 .5 1"/><path d="m220 322l-39 6-13.5 2-13.5 2-13.5 2-13.5 2-5.5-5.5-5.5-5.5v1.5 1.5l.5.5.5.5.5.5.5.5v1 1l.5 1 .5 1 .5.5.5.5v1 1l.5.5.5.5.5 1 .5 1 1.5.5 1.5.5 1.5-1 1.5-1h1 1l2-.5 2-.5 1.5-.5 1.5-.5 1.5-.5 1.5-.5 2-.5 2-.5 1.5.5 1.5.5 1.5-.5 1.5-.5h2 2l1.5-.5 1.5-.5h1 1 1.5 1.5l1.5-.5 1.5-.5 2-.5 2-.5 1.5-.5 1.5-.5h3 3l1.5-.5 1.5-.5.5-.5.5-.5h2 2l1.5-.5 1.5-.5h2 2 1.5 1.5l1.5-.5 1.5-.5 2-.5 2-.5h2 2l3-.5 3-.5 1-.5 1-.5 1-.5 1-.5 1.5-.5 1.5-.5"/></g><path d="m218 59l-3-26-.5 9-.5 9 2 4 2 4" style="fill:#bdbbb6;stroke:#bdbbb6"/><path d="m213 329l1-2-.5-1-.5-1-3 .5-3 .5h-2-2l-2 .5-2 .5-1.5.5-1.5.5h-1.5-1.5l.5 2.5.5 2.5 1.5-.5 1.5-.5h2.5 2.5l1.5-.5 1.5-.5 2-.5 2-.5 2-.5 2-.5" style="fill:#203b7b;stroke:#203b7b"/><path d="m208 319l-1-1h-2-2l-2 .5-2 .5-1.5.5-1.5.5h-3-3-.5-.5-2.5-2.5l-.5.5-.5.5h-1.5-1.5l-1 .5-1 .5-1.5.5-1.5.5 1 1 1 1 1-.5 1-.5h1 1 2 2l1-.5 1-.5h1 1l1.5-.5 1.5-.5h1.5 1.5l.5-.5.5-.5h2 2l1-.5 1-.5h1 1 1 1l1-.5 1-.5" style="fill:#fffceb;stroke:#fffceb"/><path d="m191 387h1v-1-1h-2.5-2.5l-.5.5-.5.5-1.5.5-1.5.5h-2-2l-2 .5-2 .5-1.5.5-1.5.5-1.5.5-1.5.5h-1.5-1.5l-.5.5-.5.5h-1.5-1.5l-.5.5-.5.5h-1.5-1.5l-.5.5-.5.5h-1-1l-.5.5-.5.5h-1.5-1.5-1-1l-.5.5-.5.5h-1-1l-1 .5-1 .5h-1-1l.5 1 .5 1 12-3 12-3 12-2.5 12-2.5" style="fill:#ddd3ca;stroke:#ddd3ca"/><path d="m189 320h1l-.5-.5-.5-.5-12 1-12 1-11 2.5-11 2.5 3 .5 3 .5h.5.5l2.5-.5 2.5-.5 1.5-.5 1.5-.5 2-.5 2-.5h2 2l2-.5 2-.5h2 2l2-.5 2-.5 1-.5 1-.5h1.5 1.5l.5-.5.5-.5h2.5 2.5" style="fill:#bdbbb6;stroke:#bdbbb6"/><path d="m178 336v-2-1.5-1.5h-3-3l-1.5.5-1.5.5-2 .5-2 .5-1.5.5-1.5.5h-1.5-1.5-1-1l-1.5.5-1.5.5h-2-2l-1.5.5-1.5.5v2.5 2.5h2.5 2.5l1.5-.5 1.5-.5 2-.5 2-.5h2 2l1.5-1 1.5-1h2 2 2 2l2-.5 2-.5" style="fill:#203b7b;stroke:#203b7b"/><path d="m165 391l1-1h-2.5-2.5-2-2l-.5.5-.5.5-1.5.5-1.5.5h-1.5-1.5l-1 .5-1 .5-1 .5-1 .5-2 .5-2 .5-1.5.5-1.5.5v1.5 1.5l2-.5 2-.5-.5-1-.5-1h1 1l1-.5 1-.5h1 1l.5-.5.5-.5h1 1 1.5 1.5l.5-.5.5-.5h1 1l.5-.5.5-.5h1.5 1.5l.5-.5.5-.5h1.5 1.5" style="fill:#bdbbb6;stroke:#bdbbb6"/><path d="m161 411l1-3h-1-1-1-1-1-1l-1 .5-1 .5h-1-1l-.5.5-.5.5h-1-1l-1 .5-1 .5-.5.5-.5.5.5 1 .5 1 1.5-.5 1.5-.5h2 2l1.5-.5 1.5-.5h1 1l1-.5 1-.5" style="fill:#4372a7;stroke:#4372a7"/><path d="m160 316l-1-2v-1.5-1.5l-.5-.5-.5-.5-1.5-.5-1.5-.5-1 .5-1 .5-.5.5-.5.5h-2-2l-1-.5-1-.5-1.5.5-1.5.5-1 1-1 1 .5 2.5.5 2.5 1 1.5 1 1.5h2 2l2-.5 2-.5h2 2l1.5-1 1.5-1 .5-1 .5-1" style="fill:#9a938f;stroke:#9a938f"/><path d="m159 401v-2h-1-1l-2 .5-2 .5h-2-2l-1.5 1-1.5 1v1 1h1.5 1.5l1.5-.5 1.5-.5h2 2l1.5-1 1.5-1" style="fill:#4372a7;stroke:#4372a7"/><path d="m154 329l-1-2h-1.5-1.5-.5-.5l2.5 1 2.5 1" style="fill:#fffceb;stroke:#fffceb"/><path d="m138 394h1l-2-12-2-12 .5-10.5.5-10.5-2-1-2-1-.5-2-.5-2h-1-1l-1.5 1-1.5 1 2 13.5 2 13.5 3.5 11.5 3.5 11.5.5-.5.5-.5" style="fill:#0f4ba8;stroke:#0f4ba8"/><path d="m134 650l1-3v-2-2l-1-.5-1-.5-1 1-1 1-1 1.5-1 1.5-1 1-1 1 .5 2 .5 2h1 1l1-1 1-1 1-.5 1-.5" style="fill:#837164;stroke:#837164"/><path d="m129 316l1-2-2 .5-2 .5-1-.5-1-.5 1.5-.5 1.5-.5 1-1.5 1-1.5-1.5-.5-1.5-.5-1.5 1-1.5 1-1.5 1.5-1.5 1.5 1 2.5 1 2.5 1.5.5 1.5.5 1.5-1 1.5-1 .5-1 .5-1" style="fill:#0f4ba8;stroke:#0f4ba8"/><path d="m128 584l-5-6-2.5 1-2.5 1 4 5.5 4 5.5 1-3.5 1-3.5" style="fill:#837164;stroke:#837164"/><path d="m120 617l-10-20-4.5-11-4.5-11-4.5-11-4.5-11-2.5-11-2.5-11-4-11-4-11-3.5-10.5-3.5-10.5-4.5-11-4.5-11-5.5-9-5.5-9-12 3.5-12 3.5-10.5 4.5-10.5 4.5 5.5 4.5 5.5 4.5 5 4.5 5 4.5 11-1.5 11-1.5 5.5 9 5.5 9 4.5 10.5 4.5 10.5 1.5 8.5 1.5 8.5 3.5 12 3.5 12v3.5 3.5h-4.5-4.5l3 8.5 3 8.5.5 4 .5 4-6-9.5-6-9.5-4.5-1-4.5-1 1 8.5 1 8.5 1.5 9 1.5 9-3 5.5-3 5.5 4 11.5 4 11.5 7.5-1 7.5-1 11-2.5 11-2.5 6.5 4 6.5 4-.5-3-.5-3 .5-1.5.5-1.5 1.5-1 1.5-1 .5-1.5.5-1.5-2-.5-2-.5.5-1.5.5-1.5 1-1 1-1 1.5-1.5 1.5-1.5" style="fill:#9a938f;stroke:#9a938f"/><path d="m116 101l-17-12-12 2.5-12 2.5 1 5.5 1 5.5 11.5 1 11.5 1 8-3 8-3" style="fill:#ddd3ca;stroke:#ddd3ca"/><path d="m116 84l1-3h-2-2l-2-.5-2-.5-1.5-.5-1.5-.5h-1.5-1.5-2-2l-2-.5-2-.5h-2-2-3-3l1 .5 1 .5h1 1l.5.5.5.5.5.5.5.5.5.5.5.5-1 .5-1 .5-1-.5-1-.5h-1-1-1-1-1-1-1.5-1.5-1-1-1-1-1-1-1.5-1.5l-1.5-.5-1.5-.5h-1-1-1.5-1.5-2-2-1-1l-1.5 1-1.5 1 1 .5 1 .5 15 1 15 1 14.5.5 14.5.5 1-1.5 1-1.5" style="fill:#ed9c5d;stroke:#ed9c5d"/><path d="m105 656l-6-21-4.5 8-4.5 8h3 3 1 1l2 .5 2 .5-.5 1.5-.5 1.5-.5 1-.5 1 1 1 1 1-.5 1.5-.5 1.5-1 .5-1 .5-.5 1-.5 1 .5 1.5.5 1.5-1.5-.5-1.5-.5-.5-.5-.5-.5.5 1 .5 1 1.5 1 1.5 1 1-1 1-1 .5-2 .5-2 1-1 1-1 .5-2 .5-2v-1-1" style="fill:#5d5349;stroke:#5d5349"/><path d="m101 662l1-3-1-1-1-1 .5-1 .5-1 .5-1.5.5-1.5-2-.5-2-.5h-1-1-3-3l.5 1 .5 1 .5 1.5.5 1.5 1 1.5 1 1.5v2 2l.5 1.5.5 1.5.5.5.5.5 1.5.5 1.5.5-.5-1.5-.5-1.5.5-1 .5-1 1-.5 1-.5" style="fill:#7e4527;stroke:#7e4527"/><path d="m92 82l-1-1-.5-.5-.5-.5-.5-.5-.5-.5h-1-1l-1-.5-1-.5-14-.5-14-.5-11 4.5-11 4.5-.5 1.5-.5 1.5 1.5 1 1.5 1 1.5-.5 1.5-.5 1.5-1 1.5-1 2-1 2-1 1-1 1-1 2-.5 2-.5 1.5-1 1.5-1h1 1 2 2 1.5 1.5 1 1l1.5.5 1.5.5h1.5 1.5 1 1 1 1 1 1 1.5 1.5 1 1 1 1 1 1l1 .5 1 .5 1-.5 1-.5" style="fill:#ca6839;stroke:#ca6839"/><path d="m87 678l-16-11-8-7.5-8-7.5-9-6.5-9-6.5-6-9-6-9-2.5-4.5-2.5-4.5 1 11.5 1 11.5-6-9.5-6-9.5-5-9.5-5-9.5v3 3l1 .5 1 .5v1 1l.5 1 .5 1 .5 1.5.5 1.5v1 1l.5 1 .5 1 .5 1.5.5 1.5-.5 1.5-.5 1.5h-2.5-2.5v2 2 1 1l2 1 2 1 1.5-.5 1.5-.5 1.5.5 1.5.5v1 1l.5 1 .5 1 .5 1.5.5 1.5.5.5.5.5v1.5 1.5l.5 1.5.5 1.5 1 1.5 1 1.5.5 1.5.5 1.5-.5 1.5-.5 1.5-1.5 1-1.5 1v1 1 1 1l-1-.5-1-.5-1 1-1 1-.5.5-.5.5.5.5.5.5v1 1l-1-.5-1-.5h-2-2l-.5.5-.5.5.5 1 .5 1h-1.5-1.5v2.5 2.5 2.5 2.5 2 2 .5.5l14-.5 14-.5 6.5 2 6.5 2 5.5 1 5.5 1v-5.5-5.5l-1.5-7-1.5-7 5 2.5 5 2.5 5 5.5 5 5.5 7.5 7 7.5 7 .5-2 .5-2v-1-1l.5-.5.5-.5v-1-1l.5-1.5.5-1.5" style="fill:#5d5349;stroke:#5d5349"/><path d="m85 542l-7-22-4.5-11-4.5-11-5-10.5-5-10.5-4.5-5-4.5-5 5.5 10 5.5 10 4.5 11 4.5 11 5 10.5 5 10.5 2.5 6 2.5 6" style="fill:#837164;stroke:#837164"/><g style="fill:#5d5349;stroke:#5d5349"><path d="m77 688l-14-13 1.5 5.5 1.5 5.5 2.5 1 2.5 1 1.5.5 1.5.5h1.5 1.5v-.5-.5"/><path d="m68 200l-20-3-11 1.5-11 1.5 2.5 2 2.5 2h7.5 7.5l11-2 11-2"/><path d="m66 684v-2l-1-1-1-1-2 .5-2 .5-1 1-1 1 1 1.5 1 1.5.5 1.5.5 1.5 1.5 1 1.5 1-.5-.5-.5-.5.5-1.5.5-1.5 1-.5 1-.5v-1-1"/></g><g style="fill:#837164;stroke:#837164"><path d="m60 117l-34-6-13-.5-13-.5v3 3 2.5 2.5.5.5l18.5-1.5 18.5-1.5 11.5-1 11.5-1"/><path d="m46 87l1-1-2 1-2 1-1.5 1-1.5 1-1.5.5-1.5.5-1.5-1-1.5-1 .5-1.5.5-1.5-1 8-1 8 6.5-7.5 6.5-7.5"/><path d="m26 2l-2-2h-12-12v2.5 2.5 15.5 15.5 15.5 15.5 15 15l7-1 7-1v-7.5-7.5l4-2.5 4-2.5-.5-8-.5-8-3-5.5-3-5.5-1.5-6.5-1.5-6.5 3.5-4.5 3.5-4.5-.5-8-.5-8 4-4 4-4"/><path d="m16 652l1-3-.5-1.5-.5-1.5-1-1.5-1-1.5-.5-1.5-.5-1.5v-1.5-1.5l-.5-.5-.5-.5-.5-1.5-.5-1.5-.5-1-.5-1v-1-1l-1.5-.5-1.5-.5-1.5.5-1.5.5-2-1-2-1v1.5 1.5 2.5 2.5 2 2 2.5 2.5 2 2 2.5 2.5 2 2 2 2 2 2h1.5 1.5l-.5-1-.5-1 .5-.5.5-.5h2 2l1 .5 1 .5v-1-1l-.5-.5-.5-.5.5-.5.5-.5 1-1 1-1 1 .5 1 .5v-1-1-1-1l1.5-1 1.5-1"/></g><g style="fill:#5d5349;stroke:#5d5349"><path d="m14 689l1-3h-2-2-1.5-1.5l-1.5.5-1.5.5-.5 2-.5 2 1 1 1 1 1.5-1 1.5-1v-1-1h2 2 .5.5"/><path d="m12 569v-2l-.5-1.5-.5-1.5-1-1.5-1-1.5-1-1-1-1-1 .5-1 .5.5 1.5.5 1.5.5 2 .5 2 .5 1.5.5 1.5 1.5-.5 1.5-.5h.5.5"/><path d="m12 538v-2l-.5-1.5-.5-1.5-.5-1-.5-1-.5-.5-.5-.5-.5-1.5-.5-1.5-.5-1-.5-1-.5-.5-.5-.5v-1-1l-.5-.5-.5-.5-.5-1-.5-1-.5-.5-.5-.5v-1-1l-.5-.5-.5-.5-1-1.5-1-1.5v2 2l1 1.5 1 1.5.5 1.5.5 1.5v1.5 1.5l.5 1.5.5 1.5.5 1.5.5 1.5 1 1.5 1 1.5 1 1 1 1 1 1 1 1h.5.5"/></g><path d="m5 621l1-3-.5-1.5-.5-1.5-.5-1-.5-1v-1-1l-.5-1.5-.5-1.5-.5-1-.5-1v-1-1l-1-.5-1-.5v3 3 2 2 2 2 2 2h2.5 2.5" style="fill:#837164;stroke:#837164"/></g></svg>