<svg xmlns="http://www.w3.org/2000/svg" viewBox="0 0 960 712"><g style="fill:#242300"><path d="m0 0h960v712h-960z"/><path d="m959 712h1v-.5-.5h-.5-.5l-6-1-6-1-7.5-4-7.5-4-2 5.5-2 5.5h3 3 2 2 2 2 2.5 2.5 2 2 2.5 2.5 1.5 1.5" style="stroke:#242300;stroke-linejoin:round;stroke-width:.7"/></g><g style="stroke-linejoin:round;stroke-width:.7"><path d="m959 711h1v-17-17-15.5-15.5-8-8h-.5-.5l-6.5 2.5-6.5 2.5-11 4.5-11 4.5-8.5 4-8.5 4-10.5 5-10.5 5-10 2.5-10 2.5-8 5.5-8 5.5-9.5 4-9.5 4-8 5-8 5h-5.5-5.5l-12.5 8-12.5 8h1.5 1.5 2 2 2.5 2.5 2 2 2.5 2.5 2 2l5-4.5 5-4.5 6 3.5 6 3.5 4-2.5 4-2.5 6-2.5 6-2.5 3-1.5 3-1.5 9-2.5 9-2.5 7 2.5 7 2.5-3.5 2.5-3.5 2.5h7.5 7.5l-.5 2-.5 2-.5 2-.5 2h-1-1l-1 1-1 1h2.5 2.5 2.5 2.5 2 2 2.5 2.5 2 2 2 2l4.5-2 4.5-2-1 2-1 2h1.5 1.5 2.5 2.5l2-5.5 2-5.5 7.5 4 7.5 4 6 1 6 1" style="fill:#393a24;stroke:#393a24"/><path d="m959 630h1v-17-17-15.5-15.5-15.5-15.5-15.5-15.5-15.5-15.5-15.5-15.5-15.5-15.5-16-16-15.5-15.5-15.5-15.5-15.5-15.5-15.5-15.5-13.5-13.5h-.5-.5l.5-6 .5-6v-16-16-15.5-15.5-15.5-15.5-15.5-15.5-15.5-15.5-15.5-15.5-14-14h-1.5-1.5-15.5-15.5-2-2l-.5.5-.5.5-.5 1-.5 1-1 1-1 1-1 1-1 1-1.5 1-1.5 1-1-1-1-1-.5-2-.5-2 1-1.5 1-1.5h-17.5-17.5-16-16-15.5-15.5-15.5-15.5-12.5-12.5l-7 9-7 9 5 5 5 5 2.5 8 2.5 8 1.5 11 1.5 11 5 9.5 5 9.5-5 8.5-5 8.5 8-.5 8-.5 2.5-.5 2.5-.5 11.5-5 11.5-5-12 16-12 16-4 10-4 10-1 10.5-1 10.5-5 10.5-5 10.5v1.5 1.5h1.5 1.5l1-1 1-1 1 1 1 1 2 .5 2 .5v-1.5-1.5l1.5.5 1.5.5-1 1-1 1 .5 2 .5 2h1 1l1.5-1 1.5-1 .5 1 .5 1 1 .5 1 .5.5 1 .5 1v1 1 1 1l-.5 1-.5 1-.5 1.5-.5 1.5 1-1 1-1 1.5-1 1.5-1 1 1 1 1 2 .5 2 .5.5.5.5.5 1-1.5 1-1.5 1.5.5 1.5.5.5 1.5.5 1.5 1.5 1 1.5 1-.5 1.5-.5 1.5-2 .5-2 .5-.5-1.5-.5-1.5h-1-1l1 1.5 1 1.5v2 2l2 1.5 2 1.5v-1.5-1.5l1.5-.5 1.5-.5 1-1 1-1 1.5-1 1.5-1 1 1 1 1 1 1.5 1 1.5 1.5-.5 1.5-.5h2 2l1.5-1 1.5-1 1.5-.5 1.5-.5-.5 2-.5 2 .5 1.5.5 1.5-.5 1.5-.5 1.5-.5 1.5-.5 1.5-1.5.5-1.5.5h-1-1v-1.5-1.5-1-1h-2-2l-.5.5-.5.5h-1.5-1.5l-.5 1.5-.5 1.5v1 1h-1.5-1.5l-.5 1.5-.5 1.5-1 1-1 1 4 8 4 8-3 9-3 9-7.5-.5-7.5-.5 1.5 12 1.5 12-5 10.5-5 10.5 1.5-7 1.5-7-6.5-10-6.5-10-7 6.5-7 6.5-8.5-1.5-8.5-1.5h-.5-.5v1 1l-.5.5-.5.5-1 .5-1 .5v1 1l-.5 1-.5 1h-2-2v1.5 1.5l1.5 5.5 1.5 5.5 2.5 7.5 2.5 7.5.5-1.5.5-1.5.5-.5.5-.5h1 1v1 1l-.5.5-.5.5.5 1 .5 1h1 1l.5.5.5.5.5.5.5.5 1-.5 1-.5.5-.5.5-.5h1 1l-.5 1.5-.5 1.5-1 .5-1 .5h-1-1l-.5.5-.5.5-.5.5-.5.5-.5.5-.5.5-1 .5-1 .5v1 1 1 1 1 1l1 .5 1 .5 1 2 1 2 7.5-1.5 7.5-1.5h4.5 4.5l-1.5 6-1.5 6-8.5 5-8.5 5-3 5.5-3 5.5.5 7 .5 7-7-2.5-7-2.5h-11.5-11.5l2 1.5 2 1.5 7.5 2 7.5 2-4.5 5-4.5 5-3 1.5-3 1.5-5.5 4-5.5 4-2.5 5-2.5 5-1-.5-1-.5v-1-1l-.5-1-.5-1v-2-2l1-1 1-1-6.5-3.5-6.5-3.5-14 4.5-14 4.5 1.5.5 1.5.5h1 1l1 .5 1 .5v1.5 1.5h-1.5-1.5l-1 1.5-1 1.5-.5 1.5-.5 1.5-1 1.5-1 1.5-1.5-.5-1.5-.5-1-1.5-1-1.5-1.5-1-1.5-1-9-6-9-6 1.5 3 1.5 3 .5 8 .5 8-8.5-6-8.5-6-9-5.5-9-5.5-6.5-4-6.5-4 .5-5 .5-5-6-1.5-6-1.5-5.5 4-5.5 4 2.5 5 2.5 5-10-2.5-10-2.5v2 2l-6 1.5-6 1.5 2 9.5 2 9.5 6 5.5 6 5.5 12.5.5 12.5.5 17 1 17 1h-9-9l-5.5 2-5.5 2-11 .5-11 .5-4.5-1-4.5-1-8-.5-8-.5 1 3.5 1 3.5-6.5-2-6.5-2-7.5-4-7.5-4h-2-2-1-1l-1 .5-1 .5h-2-2l-.5 1-.5 1 .5 1.5.5 1.5.5 1 .5 1-10.5-5-10.5-5h-1-1l-.5.5-.5.5-.5.5-.5.5-1 .5-1 .5h-1-1l-.5.5-.5.5-.5-.5-.5-.5-1-.5-1-.5-.5-.5-.5-.5h-1-1l-.5.5-.5.5h-1.5-1.5l-.5.5-.5.5-.5-.5-.5-.5-.5.5-.5.5-.5.5-.5.5-.5-.5-.5-.5-1-1-1-1-.5 1-.5 1-2 .5-2 .5-1-1-1-1-.5 1-.5 1v1 1l-2-.5-2-.5h-2-2l-1-1-1-1-.5-1.5-.5-1.5-10 1-10 1-8-.5-8-.5-9-2.5-9-2.5-9.5 5-9.5 5-3.5 7-3.5 7-9.5 5-9.5 5-23 3-23 3h-.5-.5l-11.5-4-11.5-4-1 .5-1 .5-1 .5-1 .5-2.5.5-2.5.5.5 1 .5 1 .5.5.5.5-.5 1-.5 1-.5.5-.5.5.5.5.5.5h1 1v1 1l-.5 1-.5 1h-2-2-1-1l-1-.5-1-.5-1.5-.5-1.5-.5-.5.5-.5.5-1 .5-1 .5h-2-2-1-1-1-1-1-1l-1-.5-1-.5-1.5-.5-1.5-.5v-1-1l.5-1 .5-1 1-.5 1-.5 2.5-.5 2.5-.5 1.5.5 1.5.5 1-1.5 1-1.5-2-.5-2-.5-.5.5-.5.5-9-10.5-9-10.5v-1.5-1.5-2-2l-1-1-1-1-1.5-.5-1.5-.5-1.5 1-1.5 1-1.5-.5-1.5-.5h-1.5-1.5l-1.5.5-1.5.5h-1.5-1.5l-1.5.5-1.5.5-1-1-1-1-1.5-1-1.5-1-1.5-.5-1.5-.5h-2.5-2.5-2-2l-10.5 1.5-10.5 1.5h-13-13l9 2.5 9 2.5-1.5 4-1.5 4-6 4.5-6 4.5-13-.5-13-.5-2-4.5-2-4.5 2.5-4 2.5-4 12-3.5 12-3.5 14-1.5 14-1.5 8.5-5 8.5-5 2-4.5 2-4.5 4.5-5.5 4.5-5.5 1.5 5 1.5 5 1 1.5 1 1.5 4.5 4 4.5 4 2.5-10 2.5-10 3.5 1 3.5 1 1 1.5 1 1.5-1.5 7-1.5 7 5.5 2 5.5 2 10.5-1 10.5-1 7.5-2 7.5-2 5-1 5-1 1.5-5 1.5-5h-4.5-4.5l-4.5 3-4.5 3-4.5-3-4.5-3-3.5-5-3.5-5 8-1.5 8-1.5-1.5-5-1.5-5 8-1.5 8-1.5 1-3.5 1-3.5 4.5-9 4.5-9 8-2.5 8-2.5 5 2 5 2v-2-2l-.5-1.5-.5-1.5-1.5-.5-1.5-.5 1.5-1 1.5-1 1 1 1 1 1.5-1 1.5-1 1-1 1-1 1.5-1 1.5-1 1.5-1.5 1.5-1.5h1.5 1.5 1 1v-1.5-1.5l1.5.5 1.5.5.5 1 .5 1 8 5 8 5 1-1 1-1-2.5-7.5-2.5-7.5-2-2.5-2-2.5-8.5 1-8.5 1-2.5 3-2.5 3-4.5 1-4.5 1-1.5-6-1.5-6-6-5-6-5-3.5 5-3.5 5 3 4.5 3 4.5-9.5 3-9.5 3-5.5 1-5.5 1-5 4.5-5 4.5-5-2.5-5-2.5 4-4.5 4-4.5-9.5 5-9.5 5-6.5-1-6.5-1-1-8.5-1-8.5-1-2-1-2-6.5 3-6.5 3-6 2.5-6 2.5h10.5 10.5v5.5 5.5l-4.5 6-4.5 6 2.5 3 2.5 3-2 3.5-2 3.5-1 3.5-1 3.5-4-.5-4-.5-5 2.5-5 2.5-7 4.5-7 4.5 5.5-7 5.5-7 7.5-7 7.5-7-6.5-2-6.5-2-6.5-1-6.5-1-4.5-1-4.5-1-5.5-6-5.5-6h6 6l9.5-3 9.5-3-7.5-3-7.5-3-11 3.5-11 3.5-4-3.5-4-3.5-2-2.5-2-2.5 3-5.5 3-5.5 8-4.5 8-4.5h-4.5-4.5l-9 6.5-9 6.5-9.5 3-9.5 3-7.5 2-7.5 2-2.5 6.5-2.5 6.5-4.5 9-4.5 9-5-.5-5-.5-4-.5-4-.5 8.5-5 8.5-5-3.5-4-3.5-4-2.5-3-2.5-3-11.5-2-11.5-2-4.5 3-4.5 3-4-3.5-4-3.5 5.5-5 5.5-5 2-1.5 2-1.5 8.5-6.5 8.5-6.5-.5-3-.5-3-5-.5-5-.5-5.5 4-5.5 4-.5 4-.5 4-6.5-8-6.5-8h6.5 6.5l-4.5-5-4.5-5 .5-4 .5-4-6-8-6-8-.5-1-.5-1-1.5-.5-1.5-.5-1.5-.5-1.5-.5-.5-2-.5-2-2 1-2 1v2 2 2 2 2.5 2.5 2 2 2 2 2.5 2.5 2 2 2.5 2.5 2 2 2.5 2.5 1 1l3 .5 3 .5 1.5-.5 1.5-.5 1 1 1 1 1.5-1 1.5-1-.5 1.5-.5 1.5-1.5 1-1.5 1-1.5-.5-1.5-.5-.5.5-.5.5-.5 2-.5 2h2 2l2 .5 2 .5-1 1-1 1-1.5 1-1.5 1h-2-2-2-2v17 17 15.5 15.5 15.5 15.5 15.5 15.5 16 16 15.5 15.5 15.5 15.5 15.5 15.5 15.5 15.5 15.5 15.5 15.5 15.5 15.5 15.5 12 12h3.5 3.5 15.5 15.5 15.5 15.5 15.5 15.5 16 16 15.5 15.5 15.5 15.5 15.5 15.5 15.5 15.5 15.5 15.5 15.5 15.5 15.5 15.5 15.5 15.5 15.5 15.5 15.5 15.5 15.5 15.5 16 16 15.5 15.5 15.5 15.5 15.5 15.5 15.5 15.5 15.5 15.5 15.5 15.5 15.5 15.5 15.5 15.5 13 13l12.5-8 12.5-8h5.5 5.5l8-5 8-5 9.5-4 9.5-4 8-5.5 8-5.5 10-2.5 10-2.5 10.5-5 10.5-5 8.5-4 8.5-4 11-4.5 11-4.5 6.5-2.5 6.5-2.5" style="fill:#242300;stroke:#242300"/><path d="m959 227h1v-1.5-1.5-2-2-2.5-2.5l-.5 6-.5 6" style="fill:#393a24;stroke:#393a24"/><path d="m940 21l-18-11-5.5 8-5.5 8v6 6l1.5-.5 1.5-.5.5-.5.5-.5.5-.5.5-.5v-1-1l1 .5 1 .5 1.5-.5 1.5-.5.5-.5.5-.5 1-.5 1-.5 1-1 1-1 .5-.5.5-.5 1-.5 1-.5h1 1l-.5.5-.5.5v1 1l.5 1.5.5 1.5h1.5 1.5l1-1.5 1-1.5 1-1 1-1 .5-2 .5-2 .5-1.5.5-1.5" style="fill:#767984;stroke:#767984"/><g style="fill:#393a24;stroke:#393a24"><path d="m932 250v-2l-.5-1.5-.5-1.5-1.5-1-1.5-1h-2-2l-1 1.5-1 1.5-.5 1.5-.5 1.5 1.5 1 1.5 1 1.5.5 1.5.5 1 1 1 1 1.5-1 1.5-1v-1-1"/><path d="m930 34l1-1-.5-1.5-.5-1.5v-1-1l.5-.5.5-.5h-1-1l-1 .5-1 .5-.5.5-.5.5-1 1-1 1-1 .5-1 .5-.5.5-.5.5-1.5.5-1.5.5-1-.5-1-.5v1 1l-.5.5-.5.5-.5.5-.5.5-1.5.5-1.5.5.5 1 .5 1 1.5-1 1.5-1 1-1 1-1 2-.5 2-.5 1.5-.5 1.5-.5 2-.5 2-.5 1 .5 1 .5"/></g><path d="m922 708l-9 4h2 2 1.5 1.5l1-2 1-2" style="fill:#242300;stroke:#242300"/><path d="m922 347v-2l-.5-1.5-.5-1.5h-1.5-1.5l-1 1-1 1h-1.5-1.5l-1 1-1 1 1 1.5 1 1.5 1.5-.5 1.5-.5 1.5-.5 1.5-.5h1.5 1.5" style="fill:#5d4d0b;stroke:#5d4d0b"/><g style="fill:#393a24;stroke:#393a24"><path d="m921 1l1-1h-3-3-2-2l-1 1.5-1 1.5.5 2 .5 2 1 1 1 1 1.5-1 1.5-1 1-1 1-1 1-1 1-1 .5-1 .5-1"/><path d="m908 394v-2h-1-1-2.5-2.5l-1-1-1-1-1 1.5-1 1.5 1 1 1 1 1 1.5 1 1.5h1 1l1.5-.5 1.5-.5 1-1.5 1-1.5"/><path d="m905 51l-13-20-10.5-3-10.5-3 .5 7 .5 7 11 3.5 11 3.5 5.5 2.5 5.5 2.5"/></g><path d="m900 379l-14-13-4 4.5-4 4.5-5 8.5-5 8.5 9-1.5 9-1.5 7-5 7-5" style="fill:#5d4d0b;stroke:#5d4d0b"/><path d="m892 702h-15l3.5-2.5 3.5-2.5-7-2.5-7-2.5-9 2.5-9 2.5-3 1.5-3 1.5-6 2.5-6 2.5-4 2.5-4 2.5-6-3.5-6-3.5-5 4.5-5 4.5h16 16 15.5 15.5 9.5 9.5l1-1 1-1h1 1l.5-2 .5-2 .5-2 .5-2" style="fill:#242300;stroke:#242300"/><path d="m892 39l-20-7 9 3.5 9 3.5h1 1" style="fill:#a7d6ef;stroke:#a7d6ef"/><path d="m890 382l-13 4 6-1.5 6-1.5.5-.5.5-.5" style="fill:#d0ba82;stroke:#d0ba82"/><g style="fill:#393a24;stroke:#393a24"><path d="m875 277l-18 1 .5 4 .5 4 8.5-4.5 8.5-4.5"/><path d="m849 62l1-3-1-1-1-1-1.5 1-1.5 1-1 1-1 1 .5 2 .5 2 1 1 1 1 1.5-1 1.5-1v-1.5-1.5"/><path d="m847 336v-2l-.5-1.5-.5-1.5-2-.5-2-.5-1.5.5-1.5.5-.5 2-.5 2 1.5.5 1.5.5.5 2 .5 2h1 1l.5-1.5.5-1.5 1-.5 1-.5"/><path d="m832 286l1-3-1-1-1-1-2-.5-2-.5-1.5.5-1.5.5-.5 2-.5 2 1.5.5 1.5.5 2 .5 2 .5 1-.5 1-.5"/><path d="m825 221l1-3-.5-1.5-.5-1.5.5-2 .5-2-1.5.5-1.5.5-1.5 1-1.5 1h-2-2l-1.5.5-1.5.5 2 .5 2 .5-.5 1.5-.5 1.5-1.5-.5-1.5-.5-1.5.5-1.5.5-1.5 1-1.5 1-1-1-1-1-1.5 1-1.5 1h-1-1l-1.5 1-1.5 1 .5.5.5.5 1 1 1 1 1 1.5 1 1.5 1 1 1 1 1-1 1-1 .5-1.5.5-1.5h1.5 1.5v-1-1l.5-1.5.5-1.5h1.5 1.5l.5-.5.5-.5h2 2v1 1 1.5 1.5h1 1l1.5-.5 1.5-.5.5-1.5.5-1.5"/></g><g style="fill:#5b5946;stroke:#5b5946"><path d="m816 219l1-3-2-.5-2-.5-1-1.5-1-1.5-1-1-1-1-1.5 1-1.5 1-1 1-1 1-1.5.5-1.5.5v1.5 1.5l-2 .5-2 .5-.5-.5-.5-.5-1 .5-1 .5-.5-1-.5-1-1 .5-1 .5-1 .5-1 .5v-1-1h-1-1-1-1l-.5 1-.5 1-1 1-1 1-1.5.5-1.5.5-3.5 2.5-3.5 2.5-2.5-2.5-2.5-2.5 1-.5 1-.5v-1-1l-.5-1-.5-1v-1.5-1.5l1-1.5 1-1.5 1-1.5 1-1.5 1-1 1-1 1.5-1 1.5-1 .5-1.5.5-1.5.5-2 .5-2 .5-.5.5-.5.5 1 .5 1 1 1.5 1 1.5.5-1 .5-1v-1-1-1-1l-.5-1-.5-1-1-.5-1-.5h-.5-.5l-1.5 1-1.5 1-1 1.5-1 1.5h-2-2l-1-1.5-1-1.5-1-1-1-1 1-1 1-1 1 1.5 1 1.5 2-.5 2-.5-.5-2-.5-2 1-1 1-1-1.5-.5-1.5-.5v1.5 1.5l-2-.5-2-.5h-.5-.5l-5 1.5-5 1.5-6 1.5-6 1.5-4.5 2-4.5 2 1.5-6 1.5-6 11-.5 11-.5 5-10.5 5-10.5 1-10.5 1-10.5 4-10 4-10-1-1-1-1 .5-1.5.5-1.5v-1.5-1.5l1-1 1-1 1-1.5 1-1.5v-1-1l-1-1-1-1-1.5-1-1.5-1-.5-.5-.5-.5 2-1 2-1-2.5.5-2.5.5-8 .5-8 .5 5-8.5 5-8.5-5-9.5-5-9.5-1.5-11-1.5-11-2.5-8-2.5-8-5-5-5-5 7-9 7-9h-3-3-2.5-2.5-2-2-2.5-2.5v.5.5 1 1l.5 12.5.5 12.5 9 4.5 9 4.5-4 11.5-4 11.5 4.5 9 4.5 9-15 10.5-15 10.5 7.5 3 7.5 3 15.5 6.5 15.5 6.5-1.5 1.5-1.5 1.5-1 1-1 1 .5 2 .5 2v1 1l-1 1.5-1 1.5v2 2l.5 2 .5 2 1 1 1 1-.5 1.5-.5 1.5-1 .5-1 .5h-.5-.5l-2 10-2 10-4 4.5-4 4.5-9 3.5-9 3.5-4.5 9.5-4.5 9.5 9-1.5 9-1.5 9-1.5 9-1.5 2 4.5 2 4.5-4.5 8-4.5 8 4.5 8 4.5 8 9-2.5 9-2.5 3.5-2 3.5-2-2.5 10.5-2.5 10.5 10.5 4.5 10.5 4.5-7.5-1-7.5-1-10-.5-10-.5-10-3.5-10-3.5-9.5 3-9.5 3-7.5 6-7.5 6-1 7-1 7-1 7.5-1 7.5 6.5 7 6.5 7-1 4.5-1 4.5-5 5.5-5 5.5 8.5-1 8.5-1-2 8.5-2 8.5-8.5 9-8.5 9v.5.5l1.5.5 1.5.5 1.5-.5 1.5-.5 1.5-.5 1.5-.5 2-.5 2-.5v-2-2l.5-2 .5-2-.5-1.5-.5-1.5.5-.5.5-.5.5 2 .5 2v2 2l-.5 2-.5 2 1-1 1-1 .5-1 .5-1 1 1 1 1 1 1.5 1 1.5h3 3l1 .5 1 .5.5.5.5.5-1 1-1 1-1 1-1 1-1 1.5-1 1.5.5 1.5.5 1.5 2.5.5 2.5.5h1 1l-.5 2-.5 2 1.5.5 1.5.5 1.5-1 1.5-1v1 1l-.5 1-.5 1-1 1-1 1-.5.5-.5.5h-1-1l-.5-.5-.5-.5-1-.5-1-.5-.5-.5-.5-.5h-1-1l-.5-.5-.5-.5-.5-1-.5-1-.5-.5-.5-.5-.5-.5-.5-.5h-1-1l-1-.5-1-.5v-2-2h-.5-.5l-.5 1-.5 1v1.5 1.5l1 1 1 1 1.5.5 1.5.5.5 1 .5 1 7 2.5 7 2.5-.5-7-.5-7 3-5.5 3-5.5 8.5-5 8.5-5 1.5-6 1.5-6h-4.5-4.5l-7.5 1.5-7.5 1.5-1-.5-1-.5-1 .5-1 .5-1 1-1 1 1 .5 1 .5-1.5.5-1.5.5h-1-1l-2.5-4.5-2.5-4.5 4-6 4-6-.5-1.5-.5-1.5-2.5-7.5-2.5-7.5-1.5-5.5-1.5-5.5h-.5-.5l-5-7.5-5-7.5.5-1 .5-1 1-1 1-1 1.5.5 1.5.5 1-1.5 1-1.5.5-.5.5-.5 1.5-1 1.5-1 1.5-.5 1.5-.5.5 1 .5 1 1 1 1 1 1 1.5 1 1.5-1.5.5-1.5.5v1 1l.5 1 .5 1 1 1 1 1 8.5 1.5 8.5 1.5 7-6.5 7-6.5 1-.5 1-.5h1 1l.5-.5.5-.5v-1.5-1.5l-.5-.5-.5-.5h1.5 1.5l1-.5 1-.5v-1.5-1.5l-1-1-1-1 1-1.5 1-1.5 1 1 1 1 1 1.5 1 1.5 2-.5 2-.5 7.5.5 7.5.5 3-9 3-9-4-8-4-8-1-1-1-1-.5 1-.5 1v1 1l.5-2 .5-2-1-1.5-1-1.5-1-1-1-1-.5-.5-.5-.5 1.5-1 1.5-1h1 1l1.5-1 1.5-1 1 1 1 1 1.5-1 1.5-1 1.5-.5 1.5-.5 1.5.5 1.5.5"/><path d="m815 164l1-3-1-1-1-1-1.5-1-1.5-1-.5 1.5-.5 1.5-1 1.5-1 1.5-1 1-1 1 .5 2 .5 2 1-1 1-1 1.5-.5 1.5-.5 1.5-1 1.5-1"/></g><path d="m813 306l-15 2 6.5 1 6.5 1 1-2 1-2" style="fill:#393a24;stroke:#393a24"/><path d="m809 257l-21-9 2.5-10.5 2.5-10.5-3.5 2-3.5 2-9 2.5-9 2.5-4.5-8-4.5-8 4.5-8 4.5-8-2-4.5-2-4.5-9 1.5-9 1.5-9 1.5-9 1.5 4.5-9.5 4.5-9.5-11-1-11-1h-12.5-12.5l-4.5-1-4.5-1-7.5 1-7.5 1-10.5-1-10.5-1-7 1.5-7 1.5-8-1.5-8-1.5-9 1-9 1-7.5 2-7.5 2-6-1.5-6-1.5-7-1.5-7-1.5-8 3.5-8 3.5h-5.5-5.5l-3 1.5-3 1.5-12-.5-12-.5-11-2.5-11-2.5-7 2.5-7 2.5-5-1.5-5-1.5-9 2.5-9 2.5-11-1.5-11-1.5h-7-7l-7 3.5-7 3.5h-7.5-7.5l-7.5-2-7.5-2-5.5 3-5.5 3-8.5-1-8.5-1-9-1.5-9-1.5-6-1.5-6-1.5-8-2.5-8-2.5-9-3.5-9-3.5-5.5 3-5.5 3-9-3.5-9-3.5-13-1.5-13-1.5-10.5.5-10.5.5-13.5-1-13.5-1-24.5-3-24.5-3 9 7 9 7-9.5 4-9.5 4 7 3.5 7 3.5-5.5 4-5.5 4 11.5-2 11.5-2 3-.5 3-.5 8 6.5 8 6.5 8.5 1 8.5 1 5-7.5 5-7.5 10.5 11.5 10.5 11.5-.5 1.5-.5 1.5h-1-1l-1-.5-1-.5-1.5.5-1.5.5-1-1.5-1-1.5-1.5.5-1.5.5 1 2.5 1 2.5h.5.5l7.5 4.5 7.5 4.5 5.5-8 5.5-8-2.5-9-2.5-9 12 10.5 12 10.5 2-11 2-11 10.5-3 10.5-3 6.5 7 6.5 7 2-4.5 2-4.5 9.5-1 9.5-1 4 9.5 4 9.5 6.5 5 6.5 5 8-4.5 8-4.5 8.5 4 8.5 4 8 2.5 8 2.5 7 5 7 5 5-.5 5-.5 8 6.5 8 6.5-3 10.5-3 10.5 10.5 2 10.5 2 8.5 2 8.5 2 7.5 8 7.5 8 9-7.5 9-7.5 1-.5 1-.5.5.5.5.5v1.5 1.5l.5 2.5.5 2.5 1.5-.5 1.5-.5h2 2l2 .5 2 .5h2 2 2.5 2.5l1.5.5 1.5.5h2.5 2.5 2 2 2.5 2.5l1 1 1 1 .5 1.5.5 1.5v2.5 2.5 2 2 2.5 2.5 2 2 2.5 2.5 2 2 2.5 2.5 2 2 2 2 2 2l5.5-1.5 5.5-1.5 12-8 12-8 1-15 1-15 5-13.5 5-13.5-1-.5-1-.5 1.5-1 1.5-1 1-1 1-1 1.5-1 1.5-1 .5-1.5.5-1.5 1-1 1-1 .5-.5.5-.5 1-1 1-1 14.5 5.5 14.5 5.5h-2.5-2.5-2-2-1.5-1.5l-1.5-.5-1.5-.5h-2.5-2.5-2-2-1.5-1.5l-1.5-.5-1.5-.5-1.5.5-1.5.5-1.5 1.5-1.5 1.5 14 1 14 1 7 5.5 7 5.5-9.5 1-9.5 1-8.5 1-8.5 1 3 6.5 3 6.5 1.5-5 1.5-5 6 .5 6 .5 1.5 4 1.5 4 2.5-4 2.5-4 4 2 4 2 8 8.5 8 8.5 1 1 1 1 .5 1.5.5 1.5-.5.5-.5.5v1.5 1.5 2 2l.5 1 .5 1v1.5 1.5l.5 1.5.5 1.5-.5 1-.5 1 .5 2 .5 2h1 1 1 1l1-.5 1-.5h1.5 1.5 1.5 1.5v1 1l.5 1 .5 1 .5.5.5.5 12-3 12-3 15 1 15 1 4.5 15.5 4.5 15.5 8.5-9 8.5-9 2-8.5 2-8.5-8.5 1-8.5 1 5-5.5 5-5.5 1-4.5 1-4.5-6.5-7-6.5-7 1-7.5 1-7.5 1-7 1-7 7.5-6 7.5-6 9.5-3 9.5-3 10 3.5 10 3.5 10 .5 10 .5 7.5 1 7.5 1" style="fill:#d7f0f1;stroke:#d7f0f1"/><path d="m806 90l-23 10-2 1-2 1 .5.5.5.5 1.5 1 1.5 1 1 1 1 1v1 1l-1 1.5-1 1.5-1 1-1 1v1.5 1.5l-.5 1.5-.5 1.5 1 1 1 1 12-16 12-16" style="fill:#5d4d0b;stroke:#5d4d0b"/><g style="fill:#393a24;stroke:#393a24"><path d="m802 409l-17 4 6.5-2 6.5-2h2 2"/><path d="m802 210l1-3-1.5-1-1.5-1-.5-1.5-.5-1.5-1.5-.5-1.5-.5-1 1.5-1 1.5-.5-.5-.5-.5-2-.5-2-.5-1-1-1-1-1.5 1-1.5 1-1 1-1 1 .5-1.5.5-1.5-1-1.5-1-1.5-.5-1-.5-1-.5.5-.5.5-.5 2-.5 2-.5 1.5-.5 1.5-1.5 1-1.5 1-1 1-1 1-1 1.5-1 1.5-1 1.5-1 1.5 1 .5 1 .5 1.5.5 1.5.5v1.5 1.5l-.5.5-.5.5v2 2l.5 1 .5 1h-1.5-1.5l-2 .5-2 .5-1.5-.5-1.5-.5 1-1.5 1-1.5 1-.5 1-.5 2.5 2.5 2.5 2.5 3.5-2.5 3.5-2.5h-1.5-1.5l-.5-.5-.5-.5v-1-1-1-1l1-.5 1-.5.5-.5.5-.5 1-.5 1-.5-1-.5-1-.5v-1-1l1-1 1-1 1-1.5 1-1.5 1.5-.5 1.5-.5 2 1 2 1 1-1 1-1 1 1.5 1 1.5.5 1.5.5 1.5-.5 1.5-.5 1.5v1.5 1.5l.5 1 .5 1 1-.5 1-.5.5.5.5.5 2-.5 2-.5-2-1.5-2-1.5v-2-2l-1-1.5-1-1.5h1 1l.5 1.5.5 1.5 2-.5 2-.5"/><path d="m801 233v-2l.5-1 .5-1-.5 2-.5 2"/><path d="m800 393l1-3h-2-2l-1 1.5-1 1.5-1 1-1 1-.5 2-.5 2-1.5.5-1.5.5 1.5 1 1.5 1 1-1 1-1 1-1 1-1 1-1.5 1-1.5 1-1 1-1"/><path d="m794 319l-16-1 6 2.5 6 2.5 2-2 2-2"/><path d="m794 288l-3-24-2 .5-2 .5-.5 1.5-.5 1.5-1 2-1 2-2 .5-2 .5.5-2 .5-2h-1.5-1.5l.5.5.5.5v1.5 1.5l-.5.5-.5.5h-1-1l-1 .5-1 .5 6.5 10 6.5 10-1.5 7-1.5 7 5-10.5 5-10.5"/></g><path d="m793 214l1-3-.5-1.5-.5-1.5-1-1.5-1-1.5-1 1-1 1 1 .5 1 .5-.5 1.5-.5 1.5-1 1-1 1-1-1-1-1h-1.5-1.5l-1.5 1.5-1.5 1.5-1 .5-1 .5-.5.5-.5.5-1 .5-1 .5v1 1 1 1l.5.5.5.5h1.5 1.5l1.5-.5 1.5-.5 1-1 1-1 .5-1 .5-1h1 1 1 1v1 1l1-.5 1-.5 1-.5 1-.5v-1.5-1.5" style="fill:#242300;stroke:#242300"/><path d="m790 211l1-3-1-.5-1-.5-2-1-2-1-1.5.5-1.5.5-1 1.5-1 1.5-1 1-1 1v1 1l1 .5 1 .5 1.5-1.5 1.5-1.5h1.5 1.5l1 1 1 1 1-1 1-1" style="fill:#5b5946;stroke:#5b5946"/><path d="m786 268l1-3-1-1.5-1-1.5-1-1-1-1-1 1.5-1 1.5 1 1 1 1v1.5 1.5l-1 .5-1 .5-.5 2-.5 2 2-.5 2-.5 1-2 1-2" style="fill:#242300;stroke:#242300"/><g style="fill:#393a24;stroke:#393a24"><path d="m780 192h1l-.5-1-.5-1-1.5 1-1.5 1h-1-1l-2 .5-2 .5-1-1.5-1-1.5-1 1-1 1 1 1 1 1 1 1.5 1 1.5h2 2l1-1.5 1-1.5 1.5-1 1.5-1"/><path d="m776 432l-28 1 .5 1 .5 1 13-1.5 13-1.5h.5.5"/><path d="m775 302l-3-2 1.5 2 1.5 2v-1-1"/></g><path d="m774 118l-31-13-7.5-3-7.5-3 3.5 8.5 3.5 8.5 8 6.5 8 6.5 8.5 8.5 8.5 8.5 1-.5 1-.5.5-1.5.5-1.5-1-1-1-1-.5-2-.5-2v-2-2l1-1.5 1-1.5v-1-1l-.5-2-.5-2 1-1 1-1 1.5-1.5 1.5-1.5" style="fill:#98b2cd;stroke:#98b2cd"/><path d="m773 226l-1-2v-2-2l.5-.5.5-.5v-1.5-1.5l-1.5-.5-1.5-.5-1-.5-1-.5v1.5 1.5l.5 1 .5 1v1 1l-1 .5-1 .5-1 .5-1 .5-1 1.5-1 1.5 1.5.5 1.5.5 2-.5 2-.5h1.5 1.5" style="fill:#242300;stroke:#242300"/><g style="fill:#393a24;stroke:#393a24"><path d="m772 399l-12 5 6-1.5 6-1.5v-1-1"/><path d="m768 187h1l-1-1-1-1-1 1-1 1h-1.5-1.5v-1.5-1.5l-11 .5-11 .5-1.5 6-1.5 6 4.5-2 4.5-2 6-1.5 6-1.5 5-1.5 5-1.5"/></g><path d="m767 146h1l-8.5-8.5-8.5-8.5-8-6.5-8-6.5-3.5-8.5-3.5-8.5 15-10.5 15-10.5-4.5-9-4.5-9 4-11.5 4-11.5-9-4.5-9-4.5-.5-12.5-.5-12.5h-.5-.5l-15.5-.5-15.5-.5h-15.5-15.5-15.5-15.5-15.5-15.5-15.5-15.5-15.5-15.5-15.5-15.5l-14.5 1-14.5 1h-12-12l-11 .5-11 .5-8 .5-8 .5-12-1.5-12-1.5-10 1.5-10 1.5h-6.5-6.5l-11.5 2-11.5 2-12 1.5-12 1.5-10.5 5-10.5 5-11 3.5-11 3.5-10.5-2-10.5-2-10.5-4-10.5-4-6 3.5-6 3.5-8.5-3-8.5-3-6.5 5-6.5 5-5 2.5-5 2.5-3.5 5-3.5 5 5.5-3 5.5-3 6-1.5 6-1.5 1.5 5 1.5 5 4.5-1 4.5-1 3-.5 3-.5 7 2.5 7 2.5-2 3.5-2 3.5 3.5 5 3.5 5-9.5 5-9.5 5-12 3.5-12 3.5-13 2.5-13 2.5-9.5 6.5-9.5 6.5-12 1.5-12 1.5-13 2.5-13 2.5-10 .5-10 .5-12.5 10.5-12.5 10.5h2.5 2.5l.5-.5.5-.5.5-1 .5-1 1.5-.5 1.5-.5.5-.5.5-.5h1.5 1.5l1.5-.5 1.5-.5h1 1l1-.5 1-.5 1 1 1 1 2 .5 2 .5 1 1 1 1 1 1 1 1 .5 1 .5 1 8-3 8-3 4-7.5 4-7.5 11 .5 11 .5 12.5 2 12.5 2 12 3 12 3 11.5 1 11.5 1 11.5 4 11.5 4 11 4.5 11 4.5 17 2 17 2-2 5.5-2 5.5-12 2.5-12 2.5h-20.5-20.5l-1.5 1.5-1.5 1.5-1.5 1-1.5 1-1 1-1 1v2 2l13 1.5 13 1.5 9 3.5 9 3.5 5.5-3 5.5-3 9 3.5 9 3.5 8 2.5 8 2.5 6 1.5 6 1.5 9 1.5 9 1.5 8.5 1 8.5 1 5.5-3 5.5-3 7.5 2 7.5 2h7.5 7.5l7-3.5 7-3.5h7 7l11 1.5 11 1.5 9-2.5 9-2.5 5 1.5 5 1.5 7-2.5 7-2.5 11 2.5 11 2.5 12 .5 12 .5 3-1.5 3-1.5h5.5 5.5l8-3.5 8-3.5 7 1.5 7 1.5 6 1.5 6 1.5 7.5-2 7.5-2 9-1 9-1 8 1.5 8 1.5 7-1.5 7-1.5 10.5 1 10.5 1 7.5-1 7.5-1 4.5 1 4.5 1h12.5 12.5l11 1 11 1 9-3.5 9-3.5 4-4.5 4-4.5 2-10 2-10" style="fill:#a7d6ef;stroke:#a7d6ef"/><path d="m767 90l-9-2 1 .5 1 .5 3.5.5 3.5.5" style="fill:#8b7941;stroke:#8b7941"/><g style="fill:#393a24;stroke:#393a24"><path d="m764 370l1-3-.5-1.5-.5-1.5-1.5-1-1.5-1-1 1-1 1-1 1.5-1 1.5.5 1.5.5 1.5h1.5 1.5l1.5.5 1.5.5v-.5-.5"/><path d="m762 256l-11-2-7.5 1-7.5 1 2.5 4 2.5 4 7-3.5 7-3.5 3.5-.5 3.5-.5"/><path d="m758 304l-15 2 3.5 6 3.5 6-2-3.5-2-3.5 4.5-4 4.5-4 1.5.5 1.5.5"/></g><path d="m756 75l1-2h-.5-.5l-.5-1.5-.5-1.5v-2.5-2.5l-.5-1.5-.5-1.5-1.5 1-1.5 1v2 2 2.5 2.5l1.5 1 1.5 1h1 1" style="fill:#242300;stroke:#242300"/><path d="m756 73h1l-1.5-10.5-1.5-10.5v11.5 11.5l-1.5-1-1.5-1v-2.5-2.5-2-2l1.5-1 1.5-1 .5 1.5.5 1.5v2.5 2.5l.5 1.5.5 1.5" style="fill:#393a24;stroke:#393a24"/><path d="m754 326l1-3h-1-1l-.5.5-.5.5-1 .5-1 .5-.5-.5-.5-.5-.5-.5-.5-.5h-1-1l-.5-1-.5-1 .5-.5.5-.5v-1-1h-1-1l-.5.5-.5.5-.5 1.5-.5 1.5.5 1.5.5 1.5h1.5 1.5v1 1l-1 1.5-1 1.5-.5 2-.5 2v1 1l.5 2 .5 2-1 1-1 1-1 2-1 2h1 1l1.5-.5 1.5-.5-1-.5-1-.5 1-1 1-1 1-.5 1-.5 1 .5 1 .5-1-2-1-2-1-.5-1-.5v-1-1-1-1-1-1l1-.5 1-.5.5-.5.5-.5.5-.5.5-.5.5-.5.5-.5h1 1l1-.5 1-.5" style="fill:#5d4d0b;stroke:#5d4d0b"/><path d="m750 379v-2l-1.5 1-1.5 1-1.5-.5-1.5-.5.5-2 .5-2h-1-1l-2.5-.5-2.5-.5v1.5 1.5h-1-1l-.5-.5-.5-.5h-1-1-1-1l-.5-2-.5-2v2 2l1 .5 1 .5h1 1l.5.5.5.5.5.5.5.5.5 1 .5 1 .5.5.5.5h1 1l.5.5.5.5 1 .5 1 .5.5.5.5.5h1 1l.5-.5.5-.5 1-1 1-1 .5-1 .5-1" style="fill:#d0ba82;stroke:#d0ba82"/><path d="m746 327v-2h-1.5-1.5l-4 6-4 6 2.5 4.5 2.5 4.5 1-2 1-2 1-1 1-1-.5-2-.5-2v-1-1l.5-2 .5-2 1-1.5 1-1.5" style="fill:#8b7941;stroke:#8b7941"/><path d="m743 363l-1-1-1-.5-1-.5-.5.5-.5.5-1.5.5-1.5.5v1 1 1 1h-1.5-1.5v-1-1-1-1l-.5-.5-.5-.5-.5 1-.5 1v1 1 1 1l-.5 1.5-.5 1.5.5 2 .5 2h1 1 1 1l.5.5.5.5h1 1v-1.5-1.5l-.5-1.5-.5-1.5 1-1.5 1-1.5 1-1 1-1 1-1 1-1" style="fill:#faeaa6;stroke:#faeaa6"/><path d="m742 285h1l-1-1-1-1-.5-1-.5-1v-1-1l1.5-.5 1.5-.5-1-1.5-1-1.5v1 1l-3.5 8-3.5 8h2 2l.5-1 .5-1v-1-1l1-.5 1-.5h-2.5-2.5-1.5-1.5l-1-1-1-1 1-1.5 1-1.5 1.5-.5 1.5-.5 1.5 1 1.5 1 1.5 1.5 1.5 1.5v-1-1" style="fill:#393a24;stroke:#393a24"/><path d="m741 288l1-1-1.5-1.5-1.5-1.5-1.5-1-1.5-1-1.5.5-1.5.5-1 1.5-1 1.5 1 1 1 1h1.5 1.5 2.5 2.5" style="fill:#5b5946;stroke:#5b5946"/><path d="m741 277v-2l-1-1-1-1-.5-1-.5-1-1.5.5-1.5.5-1.5 1-1.5 1-.5.5-.5.5-1 1.5-1 1.5-1.5-.5-1.5-.5-1 1-1 1-.5 1-.5 1 5.5 6 5.5 6 3.5-8 3.5-8" style="fill:#242300;stroke:#242300"/><path d="m739 362l1-1h-3-3l-1-1.5-1-1.5-1-1-1-1-.5 1-.5 1 .5 1.5.5 1.5-.5 2-.5 2v1 1 2 2h.5.5l.5-1.5.5-1.5v-1-1-1-1l.5-1 .5-1 .5.5.5.5v1 1 1 1h1.5 1.5v-1-1-1-1l1.5-.5 1.5-.5" style="fill:#d0ba82;stroke:#d0ba82"/><path d="m737 3h1v-1-1h-.5-.5-16.5-16.5-15.5-15.5-15.5-15.5-15.5-15.5-16-16-15.5-15.5l-27-.5-27-.5h-18-18-15.5-15.5-15.5-15.5-15.5-15.5-15.5-15.5-7-7l1.5.5 1.5.5h1 1 1 1 1.5 1.5 1 1 1 1 1 1 1.5 1.5 2 2l.5.5.5.5h-16.5-16.5-15.5-15.5l17.5-1 17.5-1h-16.5-16.5-15.5-15.5-16-16-14.5-14.5l-2.5 2-2.5 2-11 4.5-11 4.5-12 3.5-12 3.5-9.5 6-9.5 6 7.5 1 7.5 1 11 3.5 11 3.5.5 8 .5 8 10.5 2 10.5 2 12.5-.5 12.5-.5-11.5 4-11.5 4-10 5.5-10 5.5-10.5 5-10.5 5h-12.5-12.5l-11 4-11 4-13.5-2-13.5-2-7.5 7-7.5 7-10 4.5-10 4.5-4 2.5-4 2.5-5.5 11-5.5 11 1 1.5 1 1.5 1 1 1 1 .5-.5.5-.5v-1-1h1 1l1 .5 1 .5.5.5.5.5.5-1 .5-1 16.5-8 16.5-8 12.5-10.5 12.5-10.5 10-.5 10-.5 13-2.5 13-2.5 12-1.5 12-1.5 9.5-6.5 9.5-6.5 13-2.5 13-2.5 12-3.5 12-3.5 9.5-5 9.5-5-3.5-5-3.5-5 2-3.5 2-3.5-7-2.5-7-2.5-3 .5-3 .5-4.5 1-4.5 1-1.5-5-1.5-5-6 1.5-6 1.5-5.5 3-5.5 3 3.5-5 3.5-5 5-2.5 5-2.5 6.5-5 6.5-5h-.5-.5-2-2l-2-.5-2-.5h-1-1l-2 .5-2 .5v-2-2h2.5 2.5l1.5.5 1.5.5h1.5 1.5l1.5.5 1.5.5.5 1 .5 1 8.5 3 8.5 3 6-3.5 6-3.5 10.5 4 10.5 4 10.5 2 10.5 2 11-3.5 11-3.5 10.5-5 10.5-5 12-1.5 12-1.5 11.5-2 11.5-2h6.5 6.5l10-1.5 10-1.5 12 1.5 12 1.5 8-.5 8-.5 11-.5 11-.5h12 12l14.5-1 14.5-1h15.5 15.5 15.5 15.5 15.5 15.5 15.5 15.5 15.5 15.5 15.5 15.5l15.5.5 15.5.5" style="fill:#98b2cd;stroke:#98b2cd"/><path d="m737 1h1v-.5-.5h-16.5-16.5-15.5-15.5-15.5-15.5-15.5-15.5-15.5-15.5-15.5-15.5-15.5-15.5-12.5-12.5l27 .5 27 .5h15.5 15.5 16 16 15.5 15.5 15.5 15.5 15.5 15.5 16.5 16.5" style="fill:#a7d6ef;stroke:#a7d6ef"/><g style="fill:#5d4d0b;stroke:#5d4d0b"><path d="m734 401l1-3-1.5-.5-1.5-.5h-1.5-1.5l-1 1-1 1 .5 2 .5 2 1 1 1 1 1-1.5 1-1.5 1-.5 1-.5"/><path d="m734 381l-1-2-1.5-.5-1.5-.5-1-1-1-1v-1.5-1.5l-2-.5-2-.5v-2.5-2.5l-.5-1.5-.5-1.5v2.5 2.5 2 2l-.5 2-.5 2-1-1-1-1-1 .5-1 .5-1.5.5-1.5.5h-1.5-1.5-.5-.5l-.5.5-.5.5-4.5 4.5-4.5 4.5-9.5 1-9.5 1-8.5-2-8.5-2-10-2.5-10-2.5-7.5 3-7.5 3-9-3-9-3-2.5-7-2.5-7-2-3.5-2-3.5-7-6.5-7-6.5-4.5-6-4.5-6-10.5-1-10.5-1-3.5 2-3.5 2-5 4.5-5 4.5-10.5-1-10.5-1-9 2.5-9 2.5-5.5-7-5.5-7-2.5-2-2.5-2-8 2-8 2 .5 1 .5 1-.5 1.5-.5 1.5v1.5 1.5l-1.5-.5-1.5-.5h-1.5-1.5l-1-1-1-1h-1-1l-.5-1-.5-1-.5-1.5-.5-1.5-.5-.5-.5-.5.5-2 .5-2 .5-1.5.5-1.5.5-1.5.5-1.5h-1-1l-.5 1-.5 1-1.5-.5-1.5-.5h-.5-.5l-1 .5-1 .5-1-1.5-1-1.5v-2-2-1.5-1.5l1.5-.5 1.5-.5v-1.5-1.5l1-.5 1-.5-1.5-2.5-1.5-2.5-5 .5-5 .5-1-3.5-1-3.5-1-1.5-1-1.5h-1-1l-1.5-1-1.5-1-1-1-1-1-2 .5-2 .5-1.5-.5-1.5-.5-.5-1-.5-1-1-1-1-1-1-1.5-1-1.5-1.5-1.5-1.5-1.5-9.5-5.5-9.5-5.5 1-4 1-4-.5-.5-.5-.5-1.5-.5-1.5-.5.5-1.5.5-1.5-1-1.5-1-1.5-1.5 1-1.5 1-.5 1-.5 1-1.5-.5-1.5-.5h-1.5-1.5l-7.5-6-7.5-6-4.5-4.5-4.5-4.5-8.5-4-8.5-4-9 1.5-9 1.5-7.5 2-7.5 2-6.5-7.5-6.5-7.5-.5-.5-.5-.5h-1.5-1.5l-1.5.5-1.5.5-.5.5-.5.5-.5 2-.5 2-5.5-2-5.5-2-3.5-10.5-3.5-10.5h-1-1l-1-1.5-1-1.5h-.5-.5l-.5 1-.5 1v1 1 1 1 .5.5 1 1l-.5.5-.5.5-.5-.5-.5-.5v-1.5-1.5l-1.5-.5-1.5-.5-.5.5-.5.5-.5.5-.5.5h-1-1l-1 .5-1 .5v1 1l-.5.5-.5.5h-1-1-1.5-1.5v1 1 2 2l1 1 1 1h1 1l1-.5 1-.5 1.5.5 1.5.5 1 1.5 1 1.5h-1-1-2.5-2.5l-.5 1.5-.5 1.5-1 .5-1 .5-.5 1.5-.5 1.5h-1-1l.5 1 .5 1 1.5.5 1.5.5.5-1.5.5-1.5 1.5-1 1.5-1 .5 1.5.5 1.5v1 1 1.5 1.5 2 2l.5 1 .5 1v1.5 1.5l-.5 1-.5 1-.5-1.5-.5-1.5-1.5-1-1.5-1-1 1-1 1-2-.5-2-.5-1 1-1 1-1.5 1-1.5 1 .5-1.5.5-1.5-.5-1-.5-1h-1.5-1.5l-7.5 1.5-7.5 1.5-7.5.5-7.5.5-8-1-8-1h-.5-.5-.5-.5l-.5-.5-.5-.5-.5-.5-.5-.5-1-.5-1-.5-.5-1.5-.5-1.5-.5-.5-.5-.5-1-.5-1-.5h-.5-.5l-2.5.5-2.5.5h-10-10l-1.5-1-1.5-1-1-1-1-1h-2.5-2.5l.5 1.5.5 1.5 1.5.5 1.5.5 1.5 1.5 1.5 1.5-.5 2-.5 2v1 1l-7.5 4-7.5 4-.5-4-.5-4-1.5-1.5-1.5-1.5-.5-.5-.5-.5-1 1.5-1 1.5-1.5-.5-1.5-.5h-1.5-1.5l-.5.5-.5.5-1.5 1-1.5 1h-2-2l-1-1-1-1-1 1.5-1 1.5.5.5.5.5 2 .5 2 .5 1 1 1 1 1 1.5 1 1.5v1 1h-2-2l-.5-.5-.5-.5h-1.5-1.5l-.5-.5-.5-.5h-1-1l-.5-.5-.5-.5v-1.5-1.5h1 1l-.5-.5-.5-.5h-1-1l-1 .5-1 .5h-2-2l-.5.5-.5.5-.5 1-.5 1-1.5.5-1.5.5-.5.5-.5.5-.5 1.5-.5 1.5-1 1-1 1-7 3.5-7 3.5-.5 1-.5 1-.5 1-.5 1-1.5.5-1.5.5-1.5.5-1.5.5 1 1.5 1 1.5 1 1 1 1h-2.5-2.5l-1-2-1-2-1 1.5-1 1.5h-1-1l-.5-1-.5-1-2 .5-2 .5-8-6-8-6-14.5-2-14.5-2 6 8 6 8-.5 4-.5 4 4.5 5 4.5 5h-6.5-6.5l6.5 8 6.5 8 .5-4 .5-4 5.5-4 5.5-4 5 .5 5 .5.5 3 .5 3-8.5 6.5-8.5 6.5-2 1.5-2 1.5-5.5 5-5.5 5 4 3.5 4 3.5 4.5-3 4.5-3 11.5 2 11.5 2 2.5 3 2.5 3 3.5 4 3.5 4-8.5 5-8.5 5 4 .5 4 .5 5 .5 5 .5 4.5-9 4.5-9 2.5-6.5 2.5-6.5 7.5-2 7.5-2 9.5-3 9.5-3 9-6.5 9-6.5h4.5 4.5l-8 4.5-8 4.5-3 5.5-3 5.5 2 2.5 2 2.5 4 3.5 4 3.5 11-3.5 11-3.5 7.5 3 7.5 3-9.5 3-9.5 3h-6-6l5.5 6 5.5 6 4.5 1 4.5 1 6.5 1 6.5 1 6.5 2 6.5 2-7.5 7-7.5 7-5.5 7-5.5 7 7-4.5 7-4.5 5-2.5 5-2.5 4 .5 4 .5 1-3.5 1-3.5 2-3.5 2-3.5-2.5-3-2.5-3 4.5-6 4.5-6v-5.5-5.5h-10.5-10.5l6-2.5 6-2.5 6.5-3 6.5-3 1 2 1 2 .5-1 .5-1 .5-1.5.5-1.5 1-1 1-1 2-.5 2-.5h1 1 2.5 2.5l1.5.5 1.5.5v1 1l-.5 2.5-.5 2.5-1.5.5-1.5.5-1-1.5-1-1.5h-2-2l-1.5 1-1.5 1-1.5-.5-1.5-.5-1 .5-1 .5 1 8.5 1 8.5 6.5 1 6.5 1 9.5-5 9.5-5-4 4.5-4 4.5 5 2.5 5 2.5 5-4.5 5-4.5 5.5-1 5.5-1 9.5-3 9.5-3-3-4.5-3-4.5 3.5-5 3.5-5 6 5 6 5 1.5 6 1.5 6 4.5-1 4.5-1 2.5-3 2.5-3 8.5-1 8.5-1 2 2.5 2 2.5 2.5 7.5 2.5 7.5 1 .5 1 .5.5.5.5.5v.5.5l.5 1.5.5 1.5h1 1l.5 1 .5 1v1.5 1.5 1.5 1.5l-2-.5-2-.5-5 8-5 8 6.5 3 6.5 3h1.5 1.5l2.5-4 2.5-4 5-4.5 5-4.5 8.5 3 8.5 3-8 4-8 4-4 11-4 11 3.5-1.5 3.5-1.5 10 1.5 10 1.5-1 4.5-1 4.5-1.5 3-1.5 3h11.5 11.5l4-.5 4-.5-5.5 4-5.5 4 10-.5 10-.5 8 3.5 8 3.5 1-5.5 1-5.5-4-.5-4-.5 8.5-4 8.5-4 8.5 11 8.5 11h-14-14l-13-.5-13-.5-10.5-5-10.5-5-6 2.5-6 2.5-10-2.5-10-2.5-5.5-5-5.5-5 6-4.5 6-4.5-1-.5-1-.5-1.5.5-1.5.5-1.5.5-1.5.5-1.5 1-1.5 1-1.5-.5-1.5-.5.5-1.5.5-1.5v-2.5-2.5l-.5-1-.5-1v2.5 2.5l-.5 1.5-.5 1.5-.5 1-.5 1v1.5 1.5l-1.5 1-1.5 1v-2-2l-.5-2-.5-2-.5-2-.5-2-9.5-.5-9.5-.5 1.5-8 1.5-8-2.5-6-2.5-6 3.5-1 3.5-1 9.5-4.5 9.5-4.5-2-.5-2-.5v-1-1-1-1l.5-1 .5-1-8-5-8-5h-.5-.5v1 1 1.5 1.5l-.5.5-.5.5-.5.5-.5.5-.5.5-.5.5-1 .5-1 .5-1 1-1 1h-1.5-1.5l-.5 1.5-.5 1.5 1 1 1 1v1 1l-.5 1.5-.5 1.5h-1.5-1.5l-.5-.5-.5-.5h-1-1l-1-1-1-1-1-.5-1-.5-5-2-5-2-8 2.5-8 2.5-4.5 9-4.5 9-1 3.5-1 3.5-8 1.5-8 1.5 1.5 5 1.5 5-8 1.5-8 1.5 3.5 5 3.5 5 4.5 3 4.5 3 4.5-3 4.5-3h4.5 4.5l-1.5 5-1.5 5-5 1-5 1-7.5 2-7.5 2-10.5 1-10.5 1-5.5-2-5.5-2 1.5-7 1.5-7-1-1.5-1-1.5-3.5-1-3.5-1-2.5 10-2.5 10-4.5-4-4.5-4-1-1.5-1-1.5-1.5-5-1.5-5-4.5 5.5-4.5 5.5-2 4.5-2 4.5-8.5 5-8.5 5-14 1.5-14 1.5-12 3.5-12 3.5-2.5 4-2.5 4 2 4.5 2 4.5 13 .5 13 .5 6-4.5 6-4.5 1.5-4 1.5-4-9-2.5-9-2.5h13 13l10.5-1.5 10.5-1.5 1.5-1 1.5-1 2.5-1 2.5-1-.5-1-.5-1-1-1-1-1 .5-1.5.5-1.5-.5-2-.5-2 1.5-.5 1.5-.5 1 1.5 1 1.5 1.5.5 1.5.5v2.5 2.5l.5 1 .5 1 1.5.5 1.5.5 1-.5 1-.5 1 1 1 1 .5.5.5.5-1.5.5-1.5.5-.5.5-.5.5-1 .5-1 .5-.5 1-.5 1 1 1 1 1 1.5-.5 1.5-.5h1.5 1.5l1.5-.5 1.5-.5h1.5 1.5l1.5.5 1.5.5 1.5-1 1.5-1 1.5.5 1.5.5 1 1 1 1v2 2 1.5 1.5l1 1 1 1h1 1l.5.5.5.5h1 1 1 1l1 .5 1 .5h1 1l.5.5.5.5h1 1l.5 1 .5 1 .5.5.5.5v1 1l-.5.5-.5.5.5 1 .5 1v1 1 1 1l.5 1.5.5 1.5 2 .5 2 .5-1 1.5-1 1.5-1.5-.5-1.5-.5-2.5.5-2.5.5.5 1 .5 1 .5 1.5.5 1.5 2 .5 2 .5 1.5-.5 1.5-.5 1.5-.5 1.5-.5 2-.5 2-.5 1-1 1-1 1.5-1 1.5-1 .5-.5.5-.5 1-1 1-1 2.5-.5 2.5-.5 1-.5 1-.5 1-.5 1-.5 12 4 12 4 23-3 23-3 9.5-5 9.5-5 3.5-7 3.5-7 9.5-5 9.5-5 9 2.5 9 2.5 8 .5 8 .5 10-1 10-1 2-.5 2-.5 2-.5 2-.5 1.5.5 1.5.5 2 .5 2 .5 2 .5 2 .5 1 1 1 1 .5.5.5.5.5-.5.5-.5.5-.5.5-.5.5.5.5.5.5-.5.5-.5h1.5 1.5l.5-.5.5-.5h1 1l.5.5.5.5 1 .5 1 .5.5.5.5.5.5-.5.5-.5h1 1l1-.5 1-.5.5-.5.5-.5.5-.5.5-.5h1 1l1 1 1 1 1.5.5 1.5.5 1.5-1 1.5-1h2 2 2.5 2.5l1.5 1 1.5 1h2 2l1-.5 1-.5h1 1 2 2 21.5 21.5l-6-5.5-6-5.5-2-9.5-2-9.5 6-1.5 6-1.5v-2-2l10 2.5 10 2.5-2.5-5-2.5-5 5.5-4 5.5-4 6 1.5 6 1.5-.5 5-.5 5 6.5 4 6.5 4 9 5.5 9 5.5 8.5 6 8.5 6-.5-8-.5-8-1.5-3-1.5-3 9 6 9 6 .5-1.5.5-1.5v-1-1l-.5-.5-.5-.5-1 .5-1 .5v-1-1l.5-.5.5-.5-.5-.5-.5-.5 1-.5 1-.5.5-.5.5-.5.5-.5.5-.5v-1-1l.5-1 .5-1 1.5-.5 1.5-.5h1 1v1 1 1 1l-.5 1-.5 1 .5.5.5.5.5 1 .5 1 14-4.5 14-4.5 6.5 3.5 6.5 3.5.5 1 .5 1 1 1 1 1 1 1 1 1v1 1l-1 .5-1 .5-1 1-1 1 2.5-5 2.5-5 5.5-4 5.5-4 3-1.5 3-1.5 4.5-5 4.5-5-7.5-2-7.5-2-2-1.5-2-1.5h11.5 11.5"/></g><path d="m733 296h1v-1.5-1.5l-5.5-6-5.5-6 5 7.5 5 7.5" style="fill:#393a24;stroke:#393a24"/><path d="m729 367v-2l.5-2 .5-2-.5-1.5-.5-1.5-1 1-1 1 .5-2 .5-2v-2-2l-.5-2-.5-2-.5.5-.5.5.5 1.5.5 1.5-.5 2-.5 2v2 2l-2 .5-2 .5-1.5.5-1.5.5-1.5.5-1.5.5h-.5-.5l-1.5.5-1.5.5.5 1.5.5 1.5v2.5 2.5 2 2l5-7 5-7 3 4.5 3 4.5v-2-2" style="fill:#ac9562;stroke:#ac9562"/><path d="m728 373l1-2-3-4.5-3-4.5-5 7-5 7-.5.5-.5.5h1.5 1.5l1.5-.5 1.5-.5 1-.5 1-.5 1 1 1 1 .5-2 .5-2v-2-2-2.5-2.5l.5 1.5.5 1.5v2.5 2.5l2 .5 2 .5" style="fill:#8b7941;stroke:#8b7941"/><path d="m723 437l-28-1h-12.5-12.5l-14 .5-14 .5 11 .5 11 .5-2 2.5-2 2.5 9-1.5 9-1.5 13-1 13-1 9.5-.5 9.5-.5" style="fill:#393a24;stroke:#393a24"/><path d="m715 363h1l-1.5-.5-1.5-.5h-.5-.5l-11.5 2-11.5 2-9 3-9 3h-13.5-13.5l-11 3.5-11 3.5 1.5-10 1.5-10-3-11-3-11 2 10 2 10-2-10-2-10h-1.5-1.5l-1.5.5-1.5.5-.5 1.5-.5 1.5v2.5 2.5 2 2 2.5 2.5 2 2l-1.5 1-1.5 1h-1-1l-.5-1-.5-1 2.5 8 2.5 8 9 2.5 9 2.5 19.5-1 19.5-1 1.5-1 1.5-1 2 .5 2 .5h2 2l1.5-.5 1.5-.5v-2.5-2.5l14.5 3 14.5 3h.5.5l.5-.5.5-.5v-2-2-2.5-2.5l-.5-1.5-.5-1.5 1.5-.5 1.5-.5" style="fill:#d0ba82;stroke:#d0ba82"/><path d="m712 362h1v-.5-.5l-4.5-15.5-4.5-15.5-15-1-15-1-12 3-12 3h.5.5l.5-.5.5-.5.5-1 .5-1 .5 1.5.5 1.5v1 1h-2-2-1-1-1-1-1.5-1.5-1-1-1-1-1-1-1.5-1.5l-.5-.5-.5-.5-.5-.5-.5-.5h-1-1l.5-1 .5-1 .5-.5.5-.5.5-.5.5-.5v-1-1l1-1 1-1 .5-1 .5-1-.5-1.5-.5-1.5v-1.5-1.5h-.5-.5l-1-.5-1-.5h-1-1v-1-1-1.5-1.5-2-2-1-1l.5-.5.5-.5.5-1 .5-1-8-8.5-8-8.5-4-2-4-2-2.5 4-2.5 4-1.5-4-1.5-4-6-.5-6-.5-1.5 5-1.5 5-3-6.5-3-6.5 8.5-1 8.5-1 9.5-1 9.5-1-7-5.5-7-5.5-14-1-14-1-1 .5-1 .5-1.5.5-1.5.5-5 13.5-5 13.5-1 15-1 15 10 4 10 4 8 6.5 8 6.5 7 9 7 9 .5 1 .5 1h1 1l1.5-1 1.5-1v-2-2-2.5-2.5-2-2-2.5-2.5l.5-1.5.5-1.5 1.5-.5 1.5-.5h1.5 1.5l3 11 3 11-1.5 10-1.5 10 11-3.5 11-3.5h13.5 13.5l9-3 9-3 11.5-2 11.5-2" style="fill:#faeaa6;stroke:#faeaa6"/><path d="m710 378l1-1-14.5-3-14.5-3 11 3 11 3-1.5.5-1.5.5-2 .5-2 .5-1.5.5-1.5.5-2 1.5-2 1.5.5.5.5.5 1 .5 1 .5h1 1 1 1l.5.5.5.5-1 .5-1 .5-1.5-.5-1.5-.5-.5 1.5-.5 1.5-.5 1.5-.5 1.5-2-.5-2-.5-1-1-1-1-1.5-1.5-1.5-1.5h-1-1l-1 1-1 1-.5-.5-.5-.5h-1.5-1.5l-1 1-1 1h-1-1v-.5-.5l1-1 1-1v-.5-.5l2-.5 2-.5 1-1 1-1-.5-1.5-.5-1.5-.5-.5-.5-.5h-1-1-1-1-2-2l-19.5 1-19.5 1-9-2.5-9-2.5-2.5-8-2.5-8-7-9-7-9-8-6.5-8-6.5-10-4-10-4-12 8-12 8-5.5 1.5-5.5 1.5h-.5-.5v-1-1h-.5-.5l-.5.5-.5.5-8.5 1.5-8.5 1.5-6-9-6-9h-.5-.5l-1.5-1-1.5-1-.5-.5-.5-.5-.5.5-.5.5-1-1-1-1h-.5-.5l-4-5.5-4-5.5-11.5-6.5-11.5-6.5h-2-2l-.5-1.5-.5-1.5-2-.5-2-.5-.5-1.5-.5-1.5-1-1.5-1-1.5-.5 1.5-.5 1.5.5 1 .5 1 .5.5.5.5.5 1 .5 1 1 1 1 1v1 1l-.5 1-.5 1 1 3.5 1 3.5 5-.5 5-.5 1.5 2.5 1.5 2.5v1.5 1.5l-.5 1-.5 1 .5 2 .5 2-.5 1.5-.5 1.5.5 1 .5 1 1.5.5 1.5.5.5-1 .5-1h1 1l-.5 1.5-.5 1.5-.5 1.5-.5 1.5h1 1l.5.5.5.5.5.5.5.5.5 1 .5 1 1 1 1 1 .5.5.5.5 1 .5 1 .5 1-1.5 1-1.5 8-2 8-2 1 .5 1 .5h1 1l.5.5.5.5v1 1l5.5 7 5.5 7 9-2.5 9-2.5 10.5 1 10.5 1 5-4.5 5-4.5 3.5-2 3.5-2 10.5 1 10.5 1 4.5 6 4.5 6 7 6.5 7 6.5 2 3.5 2 3.5 2.5 7 2.5 7 9 3 9 3 7.5-3 7.5-3 10 2.5 10 2.5 8.5 2 8.5 2 9.5-1 9.5-1 4.5-4.5 4.5-4.5" style="fill:#8b7941;stroke:#8b7941"/><path d="m704 377l-22-6v2.5 2.5l-1.5.5-1.5.5h-2-2l-2-.5-2-.5-1.5 1-1.5 1h2 2 1 1 1 1l.5.5.5.5.5 1.5.5 1.5-1 1-1 1 1.5-.5 1.5-.5 1-1 1-1 1.5.5 1.5.5.5.5.5.5h2.5 2.5l2-1.5 2-1.5 1.5-.5 1.5-.5 2-.5 2-.5 1.5-.5 1.5-.5" style="fill:#ac9562;stroke:#ac9562"/><path d="m703 416v-2l-1-1-1-1-1-1-1-1-.5-1-.5-1-1 1-1 1v2 2l.5 1 .5 1v1 1l1 .5 1 .5 1-1 1-1 1-.5 1-.5" style="fill:#8b7941;stroke:#8b7941"/><path d="m698 386l-1-1h-1-1-1-1l-1-.5-1-.5h-.5-.5-1.5-1.5l-.5.5-.5.5-.5 2-.5 2 1 1 1 1 2 .5 2 .5.5-1.5.5-1.5.5-1.5.5-1.5 1.5.5 1.5.5 1-.5 1-.5" style="fill:#faeaa6;stroke:#faeaa6"/><path d="m690 384h1l-.5-.5-.5-.5h-2.5-2.5l-.5-.5-.5-.5-1.5-.5-1.5-.5-1 1-1 1-1.5.5-1.5.5-2 .5-2 .5v.5.5l-1 1-1 1v.5.5h1 1l1-1 1-1h1.5 1.5l.5.5.5.5 1-1 1-1h1 1l1.5 1.5 1.5 1.5.5-2 .5-2 .5-.5.5-.5h1.5 1.5" style="fill:#d0ba82;stroke:#d0ba82"/><path d="m664 415v-3l-1-.5-1-.5h-1-1l-1.5-.5-1.5-.5-.5-1-.5-1-.5-.5-.5-.5.5-1 .5-1v-1-1-1-1h-1-1l-1.5.5-1.5.5-.5 1-.5 1v1 1l-.5.5-.5.5-.5.5-.5.5-1 .5-1 .5.5.5.5.5-.5.5-.5.5v1 1l1-.5 1-.5.5.5.5.5v1 1l-.5 1.5-.5 1.5 1.5 1 1.5 1 1 1.5 1 1.5 1.5.5 1.5.5 1-1.5 1-1.5.5-1.5.5-1.5 1-1.5 1-1.5h1.5 1.5" style="fill:#5b5946;stroke:#5b5946"/><path d="m654 336v-2l-.5-1.5-.5-1.5-.5 1-.5 1-.5.5-.5.5h-.5-.5l-.5-.5-.5-.5h-.5-.5l-.5 1-.5 1h-1-1-1-1l-.5-.5-.5-.5h-1.5-1.5l-1.5-.5-1.5-.5h-1-1v-1-1l.5.5.5.5h1.5 1.5l.5-.5.5-.5h1 1l.5-.5.5-.5 1.5-.5 1.5-.5h-1.5-1.5l-1 .5-1 .5h-1-1-1-1l-.5-2-.5-2-1 1-1 1v1 1l-.5.5-.5.5-.5.5-.5.5-.5 1-.5 1h1 1l.5.5.5.5.5.5.5.5h1.5 1.5 1 1 1 1 1 1 1.5 1.5 1 1 1 1 2 2" style="fill:#d0ba82;stroke:#d0ba82"/><path d="m648 333h1l-.5-1-.5-1v-1-1h-1.5-1.5l-1.5.5-1.5.5-.5.5-.5.5h-1-1l-.5.5-.5.5h-1.5-1.5l-.5-.5-.5-.5v1 1h1 1l1.5.5 1.5.5h1.5 1.5l.5.5.5.5h1 1 1 1l.5-1 .5-1" style="fill:#ac9562;stroke:#ac9562"/><path d="m634 318h1l-.5-1-.5-1v-2-2-1.5-1.5l.5-.5.5-.5-.5-1.5-.5-1.5-1-1-1-1-.5 1-.5 1-.5.5-.5.5v1 1 2 2 1.5 1.5 1 1h1 1l1 .5 1 .5" style="fill:#d0ba82;stroke:#d0ba82"/><g style="fill:#393a24;stroke:#393a24"><path d="m630 450l-27 2-12.5 2-12.5 2-13.5 2-13.5 2-12.5 2-12.5 2-10.5 1-10.5 1-13 1.5-13 1.5-10-3-10-3-6 3.5-6 3.5h-10.5-10.5-6.5-6.5l-6 1.5-6 1.5-5-3.5-5-3.5-2.5-1-2.5-1-2 2.5-2 2.5-3 4.5-3 4.5-6-2.5-6-2.5h-1.5-1.5l-7.5-1.5-7.5-1.5-9 1.5-9 1.5-11 2.5-11 2.5-11 .5-11 .5-11 .5-11 .5h-8.5-8.5l-5 6.5-5 6.5 7.5 2 7.5 2h13.5 13.5l5-.5 5-.5-8.5-5.5-8.5-5.5 6 1.5 6 1.5 11-3.5 11-3.5 10.5 1 10.5 1 9.5-1 9.5-1 12-1.5 12-1.5h14.5 14.5l16.5-1 16.5-1-1-.5-1-.5 1-.5 1-.5h2.5 2.5l1.5-.5 1.5-.5-1.5-.5-1.5-.5.5-.5.5-.5 1-.5 1-.5h1 1 1 1l1 .5 1 .5v1.5 1.5l-1.5.5-1.5.5h-1-1l-.5.5-.5.5h-1-1-1.5-1.5-1.5-1.5l-.5.5-.5.5h-1.5-1.5l-.5.5-.5.5h-1.5-1.5l-1-1-1-1h-1-1l.5 1 .5 1-1.5.5-1.5.5h-1-1-1.5-1.5l-1 .5-1 .5 10-1 10-1 8.5-1 8.5-1 8-.5 8-.5 11.5-1 11.5-1 12.5-2 12.5-2 13-2 13-2 13-1.5 13-1.5 11.5-2 11.5-2 13-1.5 13-1.5 9.5-2.5 9.5-2.5"/><path d="m612 437l-34-2-12.5-.5-12.5-.5h-21.5-21.5l7.5 4 7.5 4 6.5 2 6.5 2-1-3.5-1-3.5 8 .5 8 .5 4.5 1 4.5 1 11-.5 11-.5 5.5-2 5.5-2h9 9"/></g><path d="m609 259l-29-11v1 1l-.5 1-.5 1-.5 1-.5 1-1 2-1 2 1.5-.5 1.5-.5 1.5.5 1.5.5h1.5 1.5 2 2 2.5 2.5l1.5.5 1.5.5h1.5 1.5 2 2 2.5 2.5" style="fill:#caccca;stroke:#caccca"/><path d="m606 257l-19-14-2.5 4.5-2.5 4.5 1.5-.5 1.5-.5 1-1 1-1 1-1.5 1-1.5 1 1 1 1 1.5 1 1.5 1 1 1 1 1 1.5.5 1.5.5.5 1 .5 1v.5.5h1.5 1.5l1.5.5 1.5.5" style="fill:#767984;stroke:#767984"/><path d="m600 255l-1-2-1.5-.5-1.5-.5-1-1-1-1-1.5-1-1.5-1-1-1-1-1-1 1.5-1 1.5-1 1-1 1-1.5.5-1.5.5v1 1l2 .5 2 .5h2 2 2.5 2.5l1.5.5 1.5.5h1 1v-.5-.5" style="fill:#8b7941;stroke:#8b7941"/><path d="m584 313l-8-11-2 2.5-2 2.5 1.5 9 1.5 9 3.5-9 3.5-9 1 3 1 3" style="fill:#d7f0f1;stroke:#d7f0f1"/><path d="m580 250v-2l-1 1-1 1-.5.5-.5.5-1 1-1 1-.5 1.5-.5 1.5-1.5 1-1.5 1-1 1-1 1-1.5 1-1.5 1 1 .5 1 .5 1.5-.5 1.5-.5 1-.5 1-.5 1.5-1.5 1.5-1.5 1-2 1-2 .5-1 .5-1 .5-1 .5-1" style="fill:#bab3ac;stroke:#bab3ac"/><path d="m555 367v-2l-1-1-1-1h-2.5-2.5l-1 1-1 1 .5 1 .5 1 1 1 1 1 1 .5 1 .5 1.5-.5 1.5-.5.5-1 .5-1" style="fill:#242300;stroke:#242300"/><path d="m553 414l1-3-1-1-1-1-2 .5-2 .5-1 1-1 1-1 .5-1 .5 1 1 1 1v1.5 1.5h1 1l.5-1.5.5-1.5 2-.5 2-.5" style="fill:#5d4d0b;stroke:#5d4d0b"/><path d="m546 80l-24-9-9-2.5-9-2.5-4 7.5-4 7.5 12 1.5 12 1.5 11 .5 11 .5 2-2.5 2-2.5" style="fill:#d7f0f1;stroke:#d7f0f1"/><path d="m537 374v-2l-1-1-1-1-1-1.5-1-1.5h-1-1v2.5 2.5l-.5 1.5-.5 1.5 1.5 1 1.5 1 1.5-.5 1.5-.5.5-1 .5-1" style="fill:#242300;stroke:#242300"/><path d="m529 642l1-3h-2-2l-1.5 1-1.5 1-.5 1.5-.5 1.5-1.5 1-1.5 1 .5 1.5.5 1.5 2-.5 2-.5.5-1.5.5-1.5 1-1 1-1 1-.5 1-.5" style="fill:#393a24;stroke:#393a24"/><path d="m529 428l-9-16 1 9.5 1 9.5 3.5-1.5 3.5-1.5" style="fill:#242300;stroke:#242300"/><path d="m520 339h1v-2-2-2-2-2-2-2.5-2.5-2-2-2.5-2.5-2-2-2.5-2.5-2-2-2.5-2.5l-.5-1.5-.5-1.5v22.5 22.5 1 1" style="fill:#caccca;stroke:#caccca"/><path d="m519 337h1v-22.5-22.5l-1-1-1-1h-2.5-2.5-2-2-2.5-2.5l-1.5-.5-1.5-.5h-2.5-2.5-2-2l-2-.5-2-.5h-2-2l-1.5.5-1.5.5.5 1 .5 1v2 2 1.5 1.5 1.5 1.5 1.5 1.5l.5 1.5.5 1.5.5.5.5.5v1.5 1.5 2 2l-.5.5-.5.5-.5 1-.5 1 1.5-.5 1.5-.5.5-.5.5-.5 1 .5 1 .5.5 2 .5 2 5.5 7.5 5.5 7.5 9.5.5 9.5.5" style="fill:#faeaa6;stroke:#faeaa6"/><path d="m518 385l-1-1-1.5.5-1.5.5-2-.5-2-.5-1.5.5-1.5.5v1.5 1.5h1 1l1.5 1 1.5 1h1 1 1 1l.5-2 .5-2 .5-.5.5-.5" style="fill:#242300;stroke:#242300"/><path d="m518 338l1-1-9.5-.5-9.5-.5-5.5-7.5-5.5-7.5v1 1l6 9 6 9 8.5-1.5 8.5-1.5" style="fill:#d0ba82;stroke:#d0ba82"/><path d="m518 284l-27-4 1 3.5 1 3.5 9.5-2 9.5-2 3 .5 3 .5" style="fill:#faeaa6;stroke:#faeaa6"/><path d="m499 442l-1-2-.5-1.5-.5-1.5.5-1 .5-1-1.5-1-1.5-1h-2.5-2.5-2-2l-1.5 1-1.5 1-1.5-.5-1.5-.5-1-1-1-1 10.5 5 10.5 5" style="fill:#393a24;stroke:#393a24"/><path d="m492 332l-1-1h-1-1l-1-.5-1-.5 2.5 2 2.5 2v-1-1" style="fill:#936b0b;stroke:#936b0b"/><path d="m488 323h1v-1-1l-.5-2-.5-2-1-.5-1-.5-.5.5-.5.5-1.5.5-1.5.5.5-1 .5-1 .5-.5.5-.5v-2-2-1.5-1.5l-.5-.5-.5-.5-.5-1.5-.5-1.5v-1.5-1.5-1.5-1.5h-.5-.5-.5-.5v2 2l-.5 3-.5 3v1.5 1.5l-.5.5-.5.5v1.5 1.5l-.5.5-.5.5.5.5.5.5.5.5.5.5 1 .5 1 .5 1 1 1 1 .5-.5.5-.5.5.5.5.5 1.5 1 1.5 1" style="fill:#d7f0f1;stroke:#d7f0f1"/><path d="m481 298h1v-1.5-1.5-2-2l-.5-1-.5-1-.5-2.5-.5-2.5v-1.5-1.5l-.5-.5-.5-.5-1 .5-1 .5v.5.5l-.5 1-.5 1-.5 1.5-.5 1.5.5 1.5.5 1.5 2 .5 2 .5v1 1l.5 1 .5 1v1.5 1.5" style="fill:#bab3ac;stroke:#bab3ac"/><path d="m480 319h1l-1-.5-1-.5-.5-.5-.5-.5-.5-.5-.5-.5.5-.5.5-.5v-1.5-1.5l.5-.5.5-.5v-1.5-1.5l-1-1-1-1-.5-.5-.5-.5-.5-.5-.5-.5-1.5-1-1.5-1-1.5.5-1.5.5-.5-1.5-.5-1.5-2-.5-2-.5-1.5.5-1.5.5-2-.5-2-.5-1.5-.5-1.5-.5-1.5-1-1.5-1-1-.5-1-.5 11.5 6.5 11.5 6.5 4 5.5 4 5.5" style="fill:#ac9562;stroke:#ac9562"/><path d="m480 298h1v-1.5-1.5l-.5-1-.5-1v-1-1l-2-.5-2-.5-.5-1.5-.5-1.5.5-1.5.5-1.5.5-1 .5-1-.5.5-.5.5-1.5 1-1.5 1-.5 1.5-.5 1.5h1 1l-.5 1-.5 1v1 1l-.5.5-.5.5v1.5 1.5 2 2 1 1l1.5 1 1.5 1 .5.5.5.5.5.5.5.5 1 1 1 1 .5-3 .5-3v-2-2" style="fill:#989788;stroke:#989788"/><path d="m476 283l1-1v-.5-.5l-9 7.5-9 7.5-7.5-8-7.5-8-8.5-2-8.5-2-10.5-2-10.5-2 3-10.5 3-10.5-8-6.5-8-6.5-5 .5-5 .5-7-5-7-5-8-2.5-8-2.5-8.5-4-8.5-4-8 4.5-8 4.5-6.5-5-6.5-5-4-9.5-4-9.5-9.5 1-9.5 1-2 4.5-2 4.5-6.5-7-6.5-7-10.5 3-10.5 3-2 11-2 11-1 .5-1 .5v1.5 1.5l.5.5.5.5.5 1 .5 1v1.5 1.5l-2-2-2-2-5.5 1-5.5 1-6.5 3-6.5 3-8.5-5-8.5-5h-.5-.5l-5-2.5-5-2.5-6 .5-6 .5h-.5-.5v1 1l1 2 1 2 3-6 3-6 5 13 5 13 8 1 8 1 7.5-.5 7.5-.5 7.5-1.5 7.5-1.5 4-5 4-5 3.5-4.5 3.5-4.5h2.5 2.5 1 1l-1-1.5-1-1.5-1.5-.5-1.5-.5-1 .5-1 .5h-1-1l-1-1-1-1 9.5-8.5 9.5-8.5 1 1.5 1 1.5h1 1l9.5 10.5 9.5 10.5.5-.5.5-.5-.5-1-.5-1-.5-1.5-.5-1.5 1-1.5 1-1.5.5-1 .5-1-1-1-1-1v-1.5-1.5-2-2l.5.5.5.5.5.5.5.5.5.5.5.5 1 .5 1 .5 1-1 1-1v-2-2l1 .5 1 .5.5 1.5.5 1.5 1 1.5 1 1.5.5 1.5.5 1.5.5 2 .5 2 1.5.5 1.5.5-.5 1.5-.5 1.5-.5-1-.5-1h-1-1v1 1l-1.5 1-1.5 1 8.5 1 8.5 1 5 2.5 5 2.5 7.5-3 7.5-3 8.5 4.5 8.5 4.5 7 4.5 7 4.5 9.5 9 9.5 9 1-9 1-9 6.5 11.5 6.5 11.5v1.5 1.5l-1-1-1-1h-2.5-2.5l-1 4-1 4 9.5 5.5 9.5 5.5 1.5-.5 1.5-.5 1.5.5 1.5.5h1.5 1.5l-.5 1.5-.5 1.5 1.5 1 1.5 1 2.5-.5 2.5-.5.5.5.5.5 1.5.5 1.5.5.5-1.5.5-1.5 1 1.5 1 1.5.5 1.5.5 1.5 2 .5 2 .5.5 1.5.5 1.5h2 2l1 .5 1 .5 1.5 1 1.5 1 1.5.5 1.5.5 2 .5 2 .5 1.5-.5 1.5-.5 2 .5 2 .5.5 1.5.5 1.5 1.5-.5 1.5-.5v-1-1-2-2-1.5-1.5l.5-.5.5-.5v-1-1l.5-1 .5-1h-1-1l.5-1.5.5-1.5 1.5-1 1.5-1" style="fill:#caccca;stroke:#caccca"/><path d="m471 342v-3l.5-1.5.5-1.5-.5-1-.5-1-1 1.5-1 1.5-1-.5-1-.5-.5-.5-.5-.5-1-1-1-1-.5-1-.5-1-.5-.5-.5-.5-.5-.5-.5-.5h-1-1l-.5 2-.5 2 .5.5.5.5.5 1.5.5 1.5.5 1 .5 1h1 1l1 1 1 1h1.5 1.5l1.5.5 1.5.5" style="fill:#936b0b;stroke:#936b0b"/><g style="fill:#242300;stroke:#242300"><path d="m470 427l-17-22-8.5 4-8.5 4 4 .5 4 .5-1 5.5-1 5.5-8-3.5-8-3.5-10 .5-10 .5 5.5-4 5.5-4-4 .5-4 .5h-11.5-11.5l1.5-3 1.5-3 1-4.5 1-4.5-10-1.5-10-1.5-3.5 1.5-3.5 1.5-6 4.5-6 4.5 5.5 5 5.5 5 10 2.5 10 2.5 6-2.5 6-2.5 10.5 5 10.5 5 13 .5 13 .5h14 14"/><path d="m465 388l-16-15-6 1.5-6 1.5 2.5 7 2.5 7 2 1.5 2 1.5h6.5 6.5l3-2.5 3-2.5"/></g><path d="m456 83l-24-1-3 8.5-3 8.5 10-1.5 10-1.5 5-6.5 5-6.5" style="fill:#d7f0f1;stroke:#d7f0f1"/><path d="m454 324h1l-.5-1-.5-1 .5-1.5.5-1.5-.5-2-.5-2 .5-1 .5-1v-1.5-1.5l-1 .5-1 .5v1.5 1.5l-1.5.5-1.5.5v1.5 1.5 2 2l1 1.5 1 1.5 1-.5 1-.5" style="fill:#936b0b;stroke:#936b0b"/><path d="m451 435l1-2-2-.5-2-.5-2-.5-2-.5-1.5-.5-1.5-.5-2 .5-2 .5-2 .5-2 .5.5 1.5.5 1.5 1 1 1 1h2 2l2 .5 2 .5v-1-1l.5-1 .5-1 1 1 1 1 2-.5 2-.5" style="fill:#393a24;stroke:#393a24"/><path d="m444 474v-3l-1-.5-1-.5h-1-1-1-1l-1 .5-1 .5-.5.5-.5.5 1.5.5 1.5.5-1.5.5-1.5.5h-2.5-2.5l-1 .5-1 .5 1 .5 1 .5h1.5 1.5 1.5 1.5 1 1l.5-.5.5-.5h1 1l1.5-.5 1.5-.5" style="fill:#5d4d0b;stroke:#5d4d0b"/><path d="m441 297v-2l-1-1-1-1-.5-1-.5-1-.5-.5-.5-.5-.5-1-.5-1-1.5-.5-1.5-.5-.5-.5-.5-.5-.5 1-.5 1-1 1-1 1-1.5.5-1.5.5-1 .5-1 .5 1.5.5 1.5.5 2-.5 2-.5 1 1 1 1 1.5 1 1.5 1h1 1l1 1.5 1 1.5.5-1 .5-1" style="fill:#936b0b;stroke:#936b0b"/><path d="m431 288l1-2-2.5.5-2.5.5-1.5-1-1.5-1 .5-1.5.5-1.5h-1.5-1.5l-1.5-.5-1.5-.5-1.5.5-1.5.5 1.5 1.5 1.5 1.5 1 1.5 1 1.5 1 1 1 1 .5 1 .5 1 1-.5 1-.5 1.5-.5 1.5-.5 1-1 1-1" style="fill:#8b7941;stroke:#8b7941"/><path d="m430 348l-19-6-9.5-1-9.5-1 1.5 7 1.5 7-1.5-4-1.5-4 8 1.5 8 1.5 8-1.5 8-1.5 3 1 3 1" style="fill:#242300;stroke:#242300"/><path d="m429 477l1-1-16.5 1-16.5 1h-14.5-14.5l-12 1.5-12 1.5-9.5 1-9.5 1-10.5-1-10.5-1-11 3.5-11 3.5-6-1.5-6-1.5 8.5 5.5 8.5 5.5-.5-2-.5-2 .5-.5.5-.5 1.5.5 1.5.5 2-.5 2-.5 1-1 1-1-.5 2-.5 2v1 1h2.5 2.5 2 2 .5.5l24.5-5 24.5-5 2.5.5 2.5.5h2 2l2-.5 2-.5h2 2l2-.5 2-.5h2 2l2-.5 2-.5 1.5-.5 1.5-.5 2-.5 2-.5h2 2 2 2l2-.5 2-.5h2 2 1.5 1.5l1-.5 1-.5h1.5 1.5 1 1l1.5-.5 1.5-.5-.5-1-.5-1h1 1l1 1 1 1h1.5 1.5l.5-.5.5-.5h1.5 1.5" style="fill:#5d4d0b;stroke:#5d4d0b"/><path d="m426 327v-2l-1-1-1-1-2 .5-2 .5-1.5-.5-1.5-.5-2 .5-2 .5-1 1-1 1 1.5 1 1.5 1 1-1 1-1 1.5.5 1.5.5h2.5 2.5 1 1" style="fill:#242300;stroke:#242300"/><path d="m423 125l-7-18v-11.5-11.5l-1-5.5-1-5.5-11.5-2-11.5-2-11-2.5-11-2.5-13-2.5-13-2.5-10.5-.5-10.5-.5 8.5 5 8.5 5 1 4.5 1 4.5-10 5.5-10 5.5-7-6.5-7-6.5-8-.5-8-.5 1 9.5 1 9.5-1.5 2-1.5 2h1.5 1.5l1.5.5 1.5.5v1 1l1 .5 1 .5v-2-2l.5-.5.5-.5 1 .5 1 .5 1 1 1 1-.5 1.5-.5 1.5-1 1.5-1 1.5 7.5 5 7.5 5 9.5 4 9.5 4 3.5-5 3.5-5 7-6.5 7-6.5h10.5 10.5l11.5 3 11.5 3 4 8.5 4 8.5 7.5 2 7.5 2 .5-1 .5-1" style="fill:#d7f0f1;stroke:#d7f0f1"/><path d="m416 300l-15-4 6.5 1 6.5 1 1 1 1 1" style="fill:#242300;stroke:#242300"/><g style="fill:#393a24;stroke:#393a24"><path d="m413 376l-9-12 2 4.5 2 4.5 2.5 1.5 2.5 1.5"/><path d="m408 481l1-1h-1.5-1.5-2-2l-2 .5-2 .5h-2-2-2-2l-2 .5-2 .5 5 3.5 5 3.5 6-4 6-4"/></g><path d="m406 262l-13-23-1 9-1 9 1.5-1 1.5-1 1 1.5 1 1.5-.5 1.5-.5 1.5 1.5.5 1.5.5.5.5.5.5h2.5 2.5l1 1 1 1v-1.5-1.5" style="fill:#8b7941;stroke:#8b7941"/><g style="fill:#242300;stroke:#242300"><path d="m399 307l1-3v-2-2l-2-.5-2-.5-1.5.5-1.5.5-.5 2-.5 2 1 1 1 1 2 .5 2 .5h.5.5"/><path d="m398 379l-17-4-2.5 4-2.5 4 10.5-2 10.5-2h.5.5"/></g><path d="m390 259l1-2-9.5-9-9.5-9-7-4.5-7-4.5-8.5-4.5-8.5-4.5-7.5 3-7.5 3-5-2.5-5-2.5-8.5-1-8.5-1-1 .5-1 .5 6.5 7.5 6.5 7.5 7.5-2 7.5-2 9-1.5 9-1.5 8.5 4 8.5 4 4.5 4.5 4.5 4.5 1.5-.5 1.5-.5v-1-1l.5-.5.5-.5 1 .5 1 .5.5.5.5.5.5.5.5.5h1 1 1.5 1.5v2 2l.5.5.5.5v1.5 1.5l1 1 1 1v1 1l-.5.5-.5.5h1.5 1.5l1.5.5 1.5.5" style="fill:#8b7941;stroke:#8b7941"/><path d="m390 145l-21-8 1 5.5 1 5.5 9.5-1.5 9.5-1.5" style="fill:#d7f0f1;stroke:#d7f0f1"/><path d="m388 367l-17-6-5 4.5-5 4.5-2.5 4-2.5 4h-1.5-1.5l-6.5-3-6.5-3 5-8 5-8-1-2-1-2-9.5 4.5-9.5 4.5-3.5 1-3.5 1 2.5 6 2.5 6-1.5 8-1.5 8 9.5.5 9.5.5-1-1.5-1-1.5-1-1-1-1-1-2-1-2 .5-.5.5-.5 1 1 1 1 1 1 1 1 .5.5.5.5.5.5.5.5h1 1l.5-1 .5-1v-1-1h1 1l.5.5.5.5v2 2l.5 1 .5 1v2.5 2.5l-.5 1.5-.5 1.5 1.5.5 1.5.5 1.5-1 1.5-1 1.5-.5 1.5-.5 1.5-.5 1.5-.5 1 .5 1 .5 4-11 4-11 8-4 8-4" style="fill:#242300;stroke:#242300"/><path d="m385 355v-2l-.5-.5-.5-.5-.5-2-.5-2h-1-1-1.5-1.5-.5-.5l-.5.5-.5.5v.5.5l1 1.5 1 1.5.5 1.5.5 1.5 1 1 1 1 1-1.5 1-1.5h1 1" style="fill:#393a24;stroke:#393a24"/><path d="m385 257v-2l-1-1-1-1v-1.5-1.5l-.5-.5-.5-.5v-2-2h-1.5-1.5-1-1l-.5-.5-.5-.5-.5-.5-.5-.5-1-.5-1-.5-.5.5-.5.5v1 1l-1.5.5-1.5.5 7.5 6 7.5 6 .5-.5.5-.5" style="fill:#5b5946;stroke:#5b5946"/><path d="m380 271v-2l-.5-1.5-.5-1.5-2 .5-2 .5h-1-1-1.5-1.5-1-1-1.5-1.5-.5-.5l.5 1 .5 1-.5.5-.5.5-.5.5-.5.5.5.5.5.5h1.5 1.5l.5.5.5.5.5.5.5.5v1 1 1 1l-1 1.5-1 1.5 4.5 4.5 4.5 4.5v-.5-.5l.5-9 .5-9h1.5 1.5" style="fill:#393a24;stroke:#393a24"/><g style="fill:#242300;stroke:#242300"><path d="m378 320l-21-8-5.5-7-5.5-7-11.5-1-11.5-1 2 2.5 2 2.5 5.5 3 5.5 3 7 3.5 7 3.5-1.5 8.5-1.5 8.5 6 7.5 6 7.5 2.5-6 2.5-6 2.5-4 2.5-4 3.5-3 3.5-3"/><path d="m378 307l-11-2 3 2.5 3 2.5 2.5-1.5 2.5-1.5"/><path d="m376 349l1-1-2-1-2-1-1 .5-1 .5-1 1-1 1-.5 2-.5 2 1 1 1 1 1.5-1 1.5-1 .5-1.5.5-1.5h1 1v-.5-.5"/><path d="m369 278v-2-1-1l-.5-.5-.5-.5-.5-.5-.5-.5h-1.5-1.5l-.5-.5-.5-.5.5-.5.5-.5.5-.5.5-.5-.5-1-.5-1-1 1-1 1-1 1.5-1 1.5v1 1l.5 1.5.5 1.5 1.5 1 1.5 1 1 1 1 1h.5.5l1-1.5 1-1.5"/></g><path d="m361 425l-29-2h-10.5-10.5l-10.5-2-10.5-2-1.5 2-1.5 2h-1-1l-2.5-.5-2.5-.5h-14-14l-14.5 1-14.5 1 .5 2 .5 2 8 6.5 8 6.5 6 5.5 6 5.5 11-4 11-4 10 1.5 10 1.5 2 6.5 2 6.5h11.5 11.5l9.5-4 9.5-4 6-9.5 6-9.5 4.5-4 4.5-4" style="fill:#936b0b;stroke:#936b0b"/><path d="m360 253h-11l-5 3.5-5 3.5 3 9.5 3 9.5 3 1.5 3 1.5 1.5-5 1.5-5-1.5-7-1.5-7 4.5-2.5 4.5-2.5" style="fill:#242300;stroke:#242300"/><path d="m354 354v-3l-.5-1-.5-1h-1-1l-.5-1.5-.5-1.5v-.5-.5l-.5-.5-.5-.5-1-.5-1-.5-1 1-1 1-.5 1-.5 1v1 1 1 1l2 .5 2 .5 1 2 1 2 2 .5 2 .5v-1.5-1.5" style="fill:#936b0b;stroke:#936b0b"/><path d="m353 486l1-1-24.5 5-24.5 5 12.5-3.5 12.5-3.5 9.5-1 9.5-1h2 2" style="fill:#393a24;stroke:#393a24"/><path d="m349 397l1-3v-2.5-2.5-2-2l-.5-.5-.5-.5h-1-1v1 1l-.5 1-.5 1h-1-1l-.5-.5-.5-.5-.5-.5-.5-.5-1-1-1-1-1-1-1-1-.5.5-.5.5 1 2 1 2 1 1 1 1 1 1.5 1 1.5.5 2 .5 2 .5 2 .5 2v2 2l1.5-1 1.5-1v-1.5-1.5l.5-1 .5-1" style="fill:#936b0b;stroke:#936b0b"/><path d="m347 44l-24-9-10-.5-10-.5 10 5.5 10 5.5 12 .5 12 .5v-1-1" style="fill:#d7f0f1;stroke:#d7f0f1"/><path d="m344 2l-1-1h-2-2-1.5-1.5-1-1-1-1-1-1-1.5-1.5-1-1-1-1l-1.5-.5-1.5-.5h-1.5-1.5-1-1l-17.5 1-17.5 1h15.5 15.5 16.5 16.5" style="fill:#8899af;stroke:#8899af"/><path d="m341 280v-2l.5-1.5.5-1.5-2 .5-2 .5-1.5.5-1.5.5-1.5 1-1.5 1 1 1 1 1 1.5 1 1.5 1h1 1l1-1 1-1v-.5-.5" style="fill:#242300;stroke:#242300"/><path d="m337 511l-22-1 10 .5 10 .5h1 1" style="fill:#393a24;stroke:#393a24"/><g style="fill:#242300;stroke:#242300"><path d="m335 263l-16-5-5.5 1-5.5 1 7 1.5 7 1.5h6.5 6.5"/><path d="m328 397l-24-3 5.5-4 5.5-4v-1.5-1.5l-10.5 3-10.5 3 1 3.5 1 3.5-.5 6-.5 6 1-.5 1-.5 1.5-.5 1.5-.5 1 1 1 1 6-5 6-5 7-.5 7-.5"/></g><path d="m328 335h1l-.5-1-.5-1-1.5-.5-1.5-.5v1.5 1.5h-1-1-1.5-1.5l-.5 1-.5 1-1 1.5-1 1.5h-1-1l-1 .5-1 .5.5 1.5.5 1.5 2 1 2 1h1.5 1.5l1-1 1-1 1-.5 1-.5.5-.5.5-.5.5-.5.5-.5.5-.5.5-.5v-1.5-1.5-1-1" style="fill:#5b5946;stroke:#5b5946"/><path d="m325 145l-23-6 11 3.5 11 3.5.5-.5.5-.5" style="fill:#d7f0f1;stroke:#d7f0f1"/><path d="m322 376l-18-13-5 3.5-5 3.5 1 6.5 1 6.5 8-1.5 8-1.5 5-2 5-2" style="fill:#936b0b;stroke:#936b0b"/><path d="m319 337l1-2-1.5 1.5-1.5 1.5-1.5 1-1.5 1-1 1-1 1-1.5 1-1.5 1-1-1-1-1-1.5 1-1.5 1 1.5.5 1.5.5.5 1.5.5 1.5v2 2l1 .5 1 .5.5-1 .5-1 .5-1 .5-1v-1-1l.5.5.5.5h1 1l1 .5 1 .5.5-1.5.5-1.5-2-1-2-1-.5-1.5-.5-1.5 1-.5 1-.5h1 1l1-1.5 1-1.5" style="fill:#393a24;stroke:#393a24"/><g style="fill:#242300;stroke:#242300"><path d="m318 356l1-3v-1-1l-1-1-1-1-1-.5-1-.5h-1-1l-.5-.5-.5-.5v1 1l-.5 1-.5 1-.5 1-.5 1 1 1 1 1h1 1l.5.5.5.5h1.5 1.5"/><path d="m310 277l-7-18-2 6.5-2 6.5 5.5 2.5 5.5 2.5"/><path d="m307 250v-2l-1.5-.5-1.5-.5-1.5-1-1.5-1-1-1-1-1-.5 2-.5 2 .5 1.5.5 1.5 1.5 1 1.5 1 1.5.5 1.5.5.5-.5.5-.5.5-1 .5-1"/><path d="m306 292h-21l.5 2 .5 2 10-2 10-2"/></g><path d="m305 218l1-3-1.5-.5-1.5-.5-.5-2-.5-2-.5-1.5-.5-1.5-1-1.5-1-1.5-.5-1.5-.5-1.5-1-.5-1-.5v2 2l1 1 1 1 .5 1 .5 1 .5.5.5.5v1 1 1 1l-1 .5-1 .5h-1.5-1.5l.5 1 .5 1v1 1 1 1l.5.5.5.5 1-.5 1-.5 1.5-1 1.5-1v-1-1h1 1l.5 1 .5 1" style="fill:#5b5946;stroke:#5b5946"/><path d="m303 496l1-1h-2-2-2.5-2.5v-1-1l.5-2 .5-2-1 1-1 1-2 .5-2 .5-1.5-.5-1.5-.5-.5.5-.5.5.5 2 .5 2h2 2 2.5 2.5l1 1 1 1 1-.5 1-.5 1.5-.5 1.5-.5" style="fill:#393a24;stroke:#393a24"/><path d="m303 419l1-3v-2-2l-1-1.5-1-1.5v-.5-.5l-1-1-1-1-1.5.5-1.5.5-1 .5-1 .5-1.5 1.5-1.5 1.5-1 1-1 1-.5 1-.5 1v1 1l-1.5.5-1.5.5h-2-2l-1.5 1-1.5 1 .5 1 .5 1 2.5.5 2.5.5h1 1l1.5-2 1.5-2 2 1 2 1h2.5 2.5l1-1 1-1h1 1" style="fill:#d0ba82;stroke:#d0ba82"/><path d="m302 102l1-3-1-1-1-1-1-.5-1-.5-.5.5-.5.5v2 2l-1-.5-1-.5v-1-1l-1.5-.5-1.5-.5h-1.5-1.5l-.5 1.5-.5 1.5h-2-2-1.5-1.5l1.5.5 1.5.5.5.5.5.5v1 1l-1 .5-1 .5h-1.5-1.5l-.5.5-.5.5-1 1-1 1 1 1.5 1 1.5 1 1 1 1 1.5-.5 1.5-.5.5.5.5.5.5-1 .5-1 .5-.5.5-.5.5-1 .5-1 .5-.5.5-.5.5-.5.5-.5.5-.5.5-.5h1.5 1.5l1.5-.5 1.5-.5 1 .5 1 .5 1-1.5 1-1.5" style="fill:#caccca;stroke:#caccca"/><path d="m300 213v-2-1-1l-.5-.5-.5-.5-.5-1-.5-1-1-1-1-1-1 1-1 1-1-.5-1-.5-.5-.5-.5-.5-.5-.5-.5-.5-.5-.5-.5-.5v2 2 1.5 1.5l1 1 1 1 2 1.5 2 1.5h1.5 1.5l1-.5 1-.5" style="fill:#5d4d0b;stroke:#5d4d0b"/><path d="m298 253l1-3-1.5.5-1.5.5-.5-2-.5-2 .5-1.5.5-1.5-1 .5-1 .5-1 1-1 1-.5 2-.5 2 .5 1.5.5 1.5 1 1 1 1 1-1.5 1-1.5h1 1" style="fill:#393a24;stroke:#393a24"/><path d="m298 115v-2l.5-1.5.5-1.5-.5-2-.5-2-1.5-.5-1.5-.5h-1.5-1.5l-.5.5-.5.5-.5.5-.5.5-.5.5-.5.5-.5 1-.5 1-.5.5-.5.5-.5 1-.5 1-6.5 6.5-6.5 6.5 9-5.5 9-5.5h3.5 3.5" style="fill:#d7f0f1;stroke:#d7f0f1"/><g style="fill:#8b7941;stroke:#8b7941"><path d="m296 218v-2l-.5-1-.5-1-2-1.5-2-1.5-.5 1-.5 1-1 1.5-1 1.5.5 1.5.5 1.5.5 1 .5 1 1.5-.5 1.5-.5h1.5 1.5v-1-1"/><path d="m292 233l1-3-1.5-.5-1.5-.5h-1.5-1.5l-1 1-1 1-2 .5-2 .5 1 1 1 1 1 1.5 1 1.5 1.5-.5 1.5-.5 1-1 1-1 1-.5 1-.5"/></g><path d="m291 246l1-3-1-1-1-1h-1.5-1.5l-1 1-1 1-1 1.5-1 1.5 1 1 1 1 1-.5 1-.5h1 1l1-.5 1-.5" style="fill:#5b5946;stroke:#5b5946"/><path d="m291 91l-22-11h-12.5-12.5l-2.5 7-2.5 7-5 3.5-5 3.5 11 .5 11 .5 10-2.5 10-2.5 10-3 10-3" style="fill:#98b2cd;stroke:#98b2cd"/><path d="m288 417h1v-1-1l-7.5 2.5-7.5 2.5 7-1.5 7-1.5" style="fill:#242300;stroke:#242300"/><path d="m288 226l1-4-9.5-10.5-9.5-10.5 3.5 10.5 3.5 10.5 5.5 2 5.5 2" style="fill:#5b5946;stroke:#5b5946"/><path d="m287 468h1l-12-4-12-4 11.5 4 11.5 4" style="fill:#393a24;stroke:#393a24"/><path d="m286 259l-11-12-3 3.5-3 3.5h-7.5-7.5l8.5 1 8.5 1 7.5 1.5 7.5 1.5" style="fill:#242300;stroke:#242300"/><g style="fill:#d7f0f1;stroke:#d7f0f1"><path d="m286 104v-2l-.5-.5-.5-.5-1.5-.5-1.5-.5h-1.5-1.5l-1.5.5-1.5.5-2 .5-2 .5-1.5.5-1.5.5.5 1 .5 1 1 1 1 1 1.5.5 1.5.5h1.5 1.5l1-1 1-1 .5-.5.5-.5h1.5 1.5l1-.5 1-.5"/><path d="m285 144l-34-4-11-4.5-11-4.5-11.5-4-11.5-4-11.5-1-11.5-1-12-3-12-3-12.5-2-12.5-2-11-.5-11-.5-4 7.5-4 7.5-8 3-8 3-11-1.5-11-1.5 5.5 8 5.5 8h12.5 12.5l9.5 5 9.5 5 10 2.5 10 2.5 12.5-3 12.5-3 13.5 1.5 13.5 1.5h13.5 13.5l-1 .5-1 .5h-1-1v1.5 1.5h20.5 20.5l12-2.5 12-2.5 2-5.5 2-5.5"/></g><path d="m275 366v-2l-1.5-.5-1.5-.5-2-.5-2-.5h-1-1l-1.5 1-1.5 1 .5 1.5.5 1.5 2-.5 2-.5 1.5-.5 1.5-.5 1.5.5 1.5.5h.5.5" style="fill:#5d4d0b;stroke:#5d4d0b"/><g style="fill:#242300;stroke:#242300"><path d="m275 315l1-3-1-1-1-1-1.5-1-1.5-1-1.5-.5-1.5-.5.5 2 .5 2v1 1 1.5 1.5l1.5-.5 1.5-.5h1.5 1.5"/><path d="m275 278l-18-5-3 1.5-3 1.5 9.5 2 9.5 2 2-.5 2-.5.5-.5.5-.5"/></g><path d="m272 353l-18 3 2 1.5 2 1.5 7-3 7-3" style="fill:#5d4d0b;stroke:#5d4d0b"/><g style="fill:#242300;stroke:#242300"><path d="m271 285l1-3-1-1-1-1-6.5 1.5-6.5 1.5-2.5 1-2.5 1 8.5 1 8.5 1 1-1 1-1"/><path d="m265 311l-4-11-6.5-4-6.5-4-10 .5-10 .5-10.5 2-10.5 2-4 6.5-4 6.5 9.5-3 9.5-3 4.5-3.5 4.5-3.5 3.5 4 3.5 4-2 3.5-2 3.5h8.5 8.5l9-.5 9-.5"/></g><path d="m265 198h1l-9.5 8.5-9.5 8.5v-2-2-1-1h1.5 1.5 1 1l.5-.5.5-.5v-1-1l1-.5 1-.5h1 1l.5-.5.5-.5.5-.5.5-.5 1.5.5 1.5.5v1.5 1.5l.5.5.5.5.5-.5.5-.5v-1-1-.5-.5-1-1-1-1l.5-1 .5-1" style="fill:#8b7941;stroke:#8b7941"/><path d="m262 372l-16 1 7 .5 7 .5 1-1 1-1" style="fill:#5d4d0b;stroke:#5d4d0b"/><path d="m258 472v-2h-1-1l-.5-.5-.5-.5.5-.5.5-.5.5-1 .5-1-.5-.5-.5-.5-.5-1-.5-1-1 1-1 1-.5.5-.5.5-1.5 1-1.5 1-1 1-1 1-2 .5-2 .5-1.5.5-1.5.5-1.5.5-1.5.5-2-.5-2-.5-.5-1.5-.5-1.5-.5-1-.5-1-1 .5-1 .5-.5 1-.5 1v1 1l1.5.5 1.5.5 1 .5 1 .5h1 1 1 1 1 1 2 2l1-.5 1-.5.5-.5.5-.5 1.5.5 1.5.5 1 .5 1 .5h1 1 2 2l.5-1 .5-1" style="fill:#393a24;stroke:#393a24"/><path d="m255 242v-3l-.5-1-.5-1v-2-2l-1 .5-1 .5-1 1.5-1 1.5-.5-1.5-.5-1.5-.5-1-.5-1-1-1.5-1-1.5-.5-1-.5-1h1 1l.5-1.5.5-1.5 1-.5 1-.5.5-1.5.5-1.5-3.5 4.5-3.5 4.5-4 5-4 5h1.5 1.5l.5 1 .5 1-.5 1.5-.5 1.5 1.5-1 1.5-1 1-1 1-1 2 .5 2 .5 1-1 1-1 1.5 1 1.5 1 .5 1.5.5 1.5.5-1 .5-1" style="fill:#8b7941;stroke:#8b7941"/><path d="m254 551l1-3-1.5-.5-1.5-.5-2 .5-2 .5-1.5.5-1.5.5.5 2 .5 2 1.5.5 1.5.5 1.5-1 1.5-1 1-.5 1-.5" style="fill:#393a24;stroke:#393a24"/><path d="m254 230v-2l-.5-1.5-.5-1.5-1.5 1-1.5 1-.5 1.5-.5 1.5-1.5-.5-1.5-.5 1 1.5 1 1.5.5 1 .5 1 .5 1.5.5 1.5 1-1.5 1-1.5 1-.5 1-.5v-1.5-1.5" style="fill:#5b5946;stroke:#5b5946"/><path d="m251 517l-22-5 10 1.5 10 1.5 1 1 1 1" style="fill:#393a24;stroke:#393a24"/><path d="m249 128l1-3h-2-2l-2-.5-2-.5-1.5-.5-1.5-.5h-1.5-1.5v1 1l2 .5 2 .5 1 1 1 1 1 1 1 1 2-.5 2-.5.5-.5.5-.5" style="fill:#d7f0f1;stroke:#d7f0f1"/><g style="fill:#5d4d0b;stroke:#5d4d0b"><path d="m244 402l-1-1-1-1-1-1-1.5-1-1.5-1-.5-.5-.5-.5h-2.5-2.5l-.5 1.5-.5 1.5h1.5 1.5v1 1l1.5.5 1.5.5h2.5 2.5 1 1"/><path d="m243 373l-13 2 1-.5 1-.5 5.5-.5 5.5-.5"/><path d="m241 358l-20-11 1.5 4 1.5 4 8.5 1.5 8.5 1.5"/></g><path d="m241 262l1-3h-2-2l1-1.5 1-1.5-1-1-1-1-2-.5-2-.5-1.5.5-1.5.5 1 1.5 1 1.5 1 1 1 1 1.5.5 1.5.5 1 1.5 1 1.5.5-.5.5-.5" style="fill:#242300;stroke:#242300"/><path d="m241 231v-3l-.5-1-.5-1-.5-.5-.5-.5v-1.5-1.5l1-.5 1-.5-12-10.5-12-10.5 2.5 9 2.5 9-5.5 8-5.5 8-7.5-4.5-7.5-4.5 8.5 5 8.5 5 6.5-3 6.5-3 5.5-1 5.5-1 2 2 2 2" style="fill:#faeaa6;stroke:#faeaa6"/><path d="m236 464l1-1-.5-1.5-.5-1.5v-1-1-1-1l-.5-1-.5-1 .5-.5.5-.5v-1-1l-.5-.5-.5-.5-.5-1-.5-1h-1-1l-.5-.5-.5-.5h-1-1l-1-.5-1-.5h-1-1-1-1l-.5-.5-.5-.5h-1-1l-1-1-1-1 9 10.5 9 10.5" style="fill:#393a24;stroke:#393a24"/><path d="m236 198l-8-15-5 6.5-5 6.5 9 1 9 1" style="fill:#faeaa6;stroke:#faeaa6"/><path d="m233 319v-2l-1.5-.5-1.5-.5h-2.5-2.5-1-1l-2 .5-2 .5-1 1-1 1-.5 1.5-.5 1.5-.5 1-.5 1 1-.5 1-.5 1.5.5 1.5.5 1.5-1 1.5-1h2 2l1 1.5 1 1.5 1.5-.5 1.5-.5.5-2.5.5-2.5" style="fill:#242300;stroke:#242300"/><path d="m232 489l-8-3-3 2.5-3 2.5 7-1 7-1" style="fill:#393a24;stroke:#393a24"/><path d="m230 280l-11-4-2.5 1-2.5 1-2.5 4-2.5 4 8-1.5 8-1.5 2.5-1.5 2.5-1.5" style="fill:#242300;stroke:#242300"/><path d="m223 474l-9-6-4.5 3-4.5 3h9 9" style="fill:#393a24;stroke:#393a24"/><path d="m221 383l-10 3 3-1.5 3-1.5h2 2" style="fill:#5d4d0b;stroke:#5d4d0b"/><path d="m220 156h-27l-13.5-1.5-13.5-1.5-12.5 3-12.5 3-10-2.5-10-2.5-9.5-5-9.5-5h-12.5-12.5l-5.5-8-5.5-8 11 1.5 11 1.5-.5-1-.5-1-1-1-1-1-1-1-1-1-2-.5-2-.5-1-1-1-1-1 .5-1 .5h-1-1l-1.5.5-1.5.5h-1.5-1.5l-.5.5-.5.5-1.5.5-1.5.5-.5 1-.5 1-.5.5-.5.5h-2.5-2.5l-16.5 8-16.5 8-6 8-6 8 7 3.5 7 3.5 11.5 3 11.5 3 10 1.5 10 1.5 13 1.5 13 1.5-8 6.5-8 6.5-7 .5-7 .5-10 2.5-10 2.5-2.5 7-2.5 7-4 5.5-4 5.5 9.5-1 9.5-1-15 6-15 6 1 8 1 8 7.5 2 7.5 2 7 5.5 7 5.5 7-3.5 7-3.5 9-5.5 9-5.5-.5-1.5-.5-1.5-1-1-1-1v-2-2h1.5 1.5 1 1 1.5 1.5l1-.5 1-.5 2.5.5 2.5.5 1-15.5 1-15.5 7-21.5 7-21.5 24.5 3 24.5 3 13.5 1 13.5 1 10.5-.5 10.5-.5v-2-2l1-1 1-1 1.5-1 1.5-1 1.5-1.5 1.5-1.5v-1.5-1.5h1 1l1-.5 1-.5" style="fill:#caccca;stroke:#caccca"/><path d="m213 462v-2l-1.5-.5-1.5-.5h-2.5-2.5-2-2l-2 .5-2 .5v1 1l1 .5 1 .5 1.5-.5 1.5-.5h2 2 2.5 2.5 1 1" style="fill:#393a24;stroke:#393a24"/><path d="m210 19h1l-.5-1-.5-1-1.5-.5-1.5-.5h-1.5-1.5l-1.5-.5-1.5-.5h-2.5-2.5v2 2l2-.5 2-.5h1 1l2 .5 2 .5h2 2" style="fill:#a7d6ef;stroke:#a7d6ef"/><g style="fill:#faeaa6;stroke:#faeaa6"><path d="m207 202v-2l-1-1-1-1h-2.5-2.5l-1.5.5-1.5.5v2.5 2.5 2 2l1.5 1 1.5 1h2 2l1.5-.5 1.5-.5-.5-2-.5-2 .5-1.5.5-1.5"/><path d="m206 219l-21-23-5 7.5-5 7.5-8.5-1-8.5-1-8-6.5-8-6.5-3 .5-3 .5-11.5 2-11.5 2 5.5-4 5.5-4-7-3.5-7-3.5 9.5-4 9.5-4-9-7-9-7-7 21.5-7 21.5-1 15.5-1 15.5 2.5-13.5 2.5-13.5 8-3.5 8-3.5 11.5 2 11.5 2 9.5 4 9.5 4 7.5 2.5 7.5 2.5 6-.5 6-.5 5 2.5 5 2.5-1-2.5-1-2.5 1.5-.5 1.5-.5 1 1.5 1 1.5 1.5-.5 1.5-.5 1 .5 1 .5h1 1l.5-1.5.5-1.5"/></g><path d="m204 567l-8-3-8-2.5-8-2.5-7 2.5-7 2.5 6 2.5 6 2.5h6.5 6.5l6.5-1 6.5-1" style="fill:#393a24;stroke:#393a24"/><path d="m204 60l-25 1-10.5-2-10.5-2-.5-8-.5-8-11-3.5-11-3.5-7.5-1-7.5-1 9.5-6 9.5-6 12-3.5 12-3.5 11-4.5 11-4.5 2.5-2 2.5-2h-18-18-7.5-7.5l1 .5 1 .5h2 2 2 2 2.5 2.5l.5.5.5.5-14.5 1-14.5 1-6 6.5-6 6.5-10 4.5-10 4.5-10.5 4-10.5 4-7 7.5-7 7.5-5.5 8-5.5 8-2 9-2 9-6 7.5-6 7.5-9.5 6-9.5 6-1.5 23.5-1.5 23.5.5-1.5.5-1.5v-1-1-1.5-1.5l.5-1.5.5-1.5v-1.5-1.5l5.5-11 5.5-11 4-2.5 4-2.5 10-4.5 10-4.5 7.5-7 7.5-7 13.5 2 13.5 2 11-4 11-4h12.5 12.5l10.5-5 10.5-5 10-5.5 10-5.5 11.5-4 11.5-4" style="fill:#8899af;stroke:#8899af"/><path d="m200 429l-1-1-1-1-1-1-1 .5-1 .5-1.5-.5-1.5-.5h-.5-.5l-2.5.5-2.5.5-2.5 1-2.5 1-1.5 1-1.5 1h2 2 2.5 2.5l1.5.5 1.5.5 1.5 1 1.5 1 .5-1 .5-1 1-.5 1-.5.5-.5.5-.5 1.5-.5 1.5-.5" style="fill:#393a24;stroke:#393a24"/><g style="fill:#242300;stroke:#242300"><path d="m193 309l-16-17h-8.5-8.5l-3.5 1-3.5 1 9.5 4 9.5 4 9 3.5 9 3.5h1.5 1.5"/><path d="m191 426h1l-.5-1-.5-1v-2.5-2.5l-1.5-.5-1.5-.5-1-1.5-1-1.5-1.5.5-1.5.5.5 2 .5 2-.5 1.5-.5 1.5 1 1 1 1 .5 1 .5 1 2.5-.5 2.5-.5"/></g><path d="m189 241h1l-5-13-5-13-3 6-3 6 1.5 1 1.5 1 .5 1.5.5 1.5 1 .5 1 .5 1 .5 1 .5.5.5.5.5.5 1.5.5 1.5 1 .5 1 .5.5.5.5.5.5.5.5.5h.5.5" style="fill:#8b7941;stroke:#8b7941"/><path d="m187 110l-1-1-1.5-.5-1.5-.5-1.5-1-1.5-1-1-1-1-1-1.5 1-1.5 1 .5 1.5.5 1.5 1.5 1 1.5 1h2 2l1.5-.5 1.5-.5h.5.5" style="fill:#98b2cd;stroke:#98b2cd"/><path d="m184 487l-21-2-2-4.5-2-4.5.5-3 .5-3-3.5-3-3.5-3-3-2.5-3-2.5-3 6-3 6h-5.5-5.5l-7-1.5-7-1.5-7.5-2-7.5-2 2 4.5 2 4.5 11 1.5 11 1.5 11 2.5 11 2.5 8 3.5 8 3.5 9.5-.5 9.5-.5" style="fill:#393a24;stroke:#393a24"/><path d="m183 320l-14-9-7 1.5-7 1.5-1 3.5-1 3.5 11-.5 11-.5h4 4" style="fill:#242300;stroke:#242300"/><path d="m179 233h1l-1-.5-1-.5-.5-1.5-.5-1.5-1.5-1-1.5-1-1-2-1-2h-.5-.5l-1-.5-1-.5-.5 1-.5 1-1 .5-1 .5h-2-2l-1 1-1 1-.5.5-.5.5h-2-2v.5.5 2 2l-.5.5-.5.5h10 10l2.5-.5 2.5-.5" style="fill:#936b0b;stroke:#936b0b"/><path d="m172 221h1l-7.5-2.5-7.5-2.5-9.5-4-9.5-4-11.5-2-11.5-2-8 3.5-8 3.5-2.5 13.5-2.5 13.5-2.5-.5-2.5-.5-1 .5-1 .5-1 2-1 2 1-1 1-1v1.5 1.5l-.5.5-.5.5h2 2l-.5-1-.5-1 1.5-.5 1.5-.5.5-.5.5-.5h.5.5 1.5 1.5l.5-1.5.5-1.5 3-6 3-6 6 .5 6 .5 10.5 4 10.5 4 1-.5 1-.5-1-1-1-1-1 1-1 1-.5-1-.5-1 .5-1.5.5-1.5 1.5-1 1.5-1 1.5-.5 1.5-.5 2 .5 2 .5 1.5.5 1.5.5.5 1 .5 1h2.5 2.5v-.5-.5-1-1l-.5-1-.5-1-1-1.5-1-1.5 1-1 1-1h2.5 2.5l.5 1.5.5 1.5 2-.5 2-.5h2 2 2 2" style="fill:#d0ba82;stroke:#d0ba82"/><path d="m171 223h1v-1-1h-2-2l-.5.5-.5.5-1.5.5-1.5.5-1.5.5-1.5.5h-1-1l-.5-1-.5-1h-1-1l.5.5.5.5-1 1.5-1 1.5v1 1h2 2l.5-.5.5-.5 1-1 1-1h2 2l1-.5 1-.5.5-1 .5-1 1 .5 1 .5" style="fill:#8b7941;stroke:#8b7941"/><path d="m168 197v-2l-1.5-.5-1.5-.5-2-.5-2-.5-1.5.5-1.5.5-.5 2-.5 2v2 2l2 .5 2 .5 1.5-.5 1.5-.5 1.5-.5 1.5-.5.5-2 .5-2" style="fill:#faeaa6;stroke:#faeaa6"/><path d="m167 222l1-1h-2-2l-2 .5-2 .5-.5-1.5-.5-1.5h-2.5-2.5l-1 1-1 1 1 1.5 1 1.5.5 1 .5 1 1-1.5 1-1.5-.5-.5-.5-.5h1 1l.5 1 .5 1h1 1l1.5-.5 1.5-.5 1.5-.5 1.5-.5" style="fill:#ac9562;stroke:#ac9562"/><path d="m166 248v-2l-1-1-1-1-1-.5-1-.5v2 2l-1.5 1-1.5 1 .5 1.5.5 1.5 1 1.5 1 1.5h1 1l.5-1.5.5-1.5-.5-1-.5-1 1-1 1-1" style="fill:#936b0b;stroke:#936b0b"/><path d="m161 461v-2l-1.5-.5-1.5-.5-2 .5-2 .5h-1-1-2.5-2.5l3 2.5 3 2.5.5-1.5.5-1.5 1 1 1 1 2-.5 2-.5.5-.5.5-.5" style="fill:#5d4d0b;stroke:#5d4d0b"/><path d="m155 233v-4h-2.5-2.5-.5-.5l-1-.5-1-.5-1 .5-1 .5-.5-.5-.5-.5h-1-1l-.5-.5-.5-.5-.5 1-.5 1h-1-1l-.5.5-.5.5h1 1 1 1l.5 1 .5 1v1 1h-2-2l-.5.5-.5.5-.5 1-.5 1-1-1-1-1-1-1-1-1-1-1.5-1-1.5-1.5-.5-1.5-.5-1-1.5-1-1.5-1.5.5-1.5.5-1 1-1 1 1.5 1 1.5 1-.5 2-.5 2-.5 1.5-.5 1.5.5 1 .5 1v.5.5h1.5 1.5l1.5.5 1.5.5 1-1.5 1-1.5.5.5.5.5 1.5 1.5 1.5 1.5.5 1 .5 1 1 .5 1 .5h1 1 1.5 1.5l1.5-.5 1.5-.5-.5-.5-.5-.5v-1-1l.5-.5.5-.5.5-1 .5-1 1-1 1-1 .5.5.5.5-.5-2-.5-2-1.5-.5-1.5-.5-.5-1.5-.5-1.5h2.5 2.5l1 1 1 1 1.5 1 1.5 1 .5-.5.5-.5" style="fill:#8b7941;stroke:#8b7941"/><path d="m155 2l-1-1h-2.5-2.5-2-2-2-2l-1-.5-1-.5h-16.5-16.5-15.5-15.5-15.5-15.5-12-12v12 12l-1.5 14-1.5 14-1 14.5-1 14.5-1.5 13-1.5 13-1 14.5-1 14.5-1 14.5-1 14.5-.5 20-.5 20v-.5-.5-2.5-2.5l.5-1.5.5-1.5v-2.5-2.5l.5-1.5.5-1.5v-2-2-2.5-2.5-2-2l.5-1.5.5-1.5-.5-1.5-.5-1.5v-2-2-1-1-1.5-1.5l.5-1.5.5-1.5 1.5-23.5 1.5-23.5 9.5-6 9.5-6 6-7.5 6-7.5 2-9 2-9 5.5-8 5.5-8 7-7.5 7-7.5 10.5-4 10.5-4 10-4.5 10-4.5 6-6.5 6-6.5 14.5-1 14.5-1" style="fill:#767984;stroke:#767984"/><path d="m150 243v-2l.5-2 .5-2-1.5-1.5-1.5-1.5.5 2 .5 2-.5-.5-.5-.5-1 1-1 1-.5 1-.5 1-.5.5-.5.5v1 1l.5.5.5.5-1.5.5-1.5.5h-1.5-1.5-1-1l-1-.5-1-.5-.5-1-.5-1 .5 4 .5 4 7.5-4 7.5-4" style="fill:#936b0b;stroke:#936b0b"/><g style="fill:#ac9562;stroke:#ac9562"><path d="m149 229h1l-.5-1-.5-1-1.5-.5-1.5-.5-2-.5-2-.5-1.5.5-1.5.5-1.5 1-1.5 1-.5 1.5-.5 1.5.5 1 .5 1 1-1 1-1 1 1 1 1-1 .5-1 .5h2 2v-1-1l-.5-1-.5-1h-1-1-1-1l.5-.5.5-.5h1 1l.5-1 .5-1 .5.5.5.5h1 1l.5.5.5.5 1-.5 1-.5 1 .5 1 .5"/><path d="m137 235l1-1-10.5-4-10.5-4-6-.5-6-.5-3 6-3 6 9.5 1.5 9.5 1.5-1-.5-1-.5h-1-1-1-1-1-1l-.5-1-.5-1-.5-.5-.5-.5v-1-1l.5-.5.5-.5-.5-1-.5-1-.5-.5-.5-.5v-1-1l.5-.5.5-.5h1 1 1 1 1.5 1.5 1 1l.5.5.5.5 1 .5 1 .5 1-1 1-1 1.5-.5 1.5-.5 1 1.5 1 1.5 1.5.5 1.5.5 1 1.5 1 1.5 1 1 1 1 1 1 1 1 .5-1 .5-1"/></g><path d="m122 240l-1-2 .5-1.5.5-1.5.5-2 .5-2-1.5-1-1.5-1-1-.5-1-.5-.5-.5-.5-.5h-1-1-1.5-1.5-1-1-1-1l-.5.5-.5.5v1 1l.5.5.5.5.5 1 .5 1-.5.5-.5.5v1 1l.5.5.5.5.5 1 .5 1h1 1 1 1 1 1l1 .5 1 .5 2 .5 2 .5v-.5-.5" style="fill:#d0ba82;stroke:#d0ba82"/><path d="m121 242l1-1-2-.5-2-.5-9.5-1.5-9.5-1.5-.5 1.5-.5 1.5-.5.5-.5.5-2 1-2 1-1 1-1 1-1.5.5-1.5.5-1 1.5-1 1.5-.5 1.5-.5 1.5 1 1.5 1 1.5h-1-1l-1.5-2-1.5-2h-.5-.5-1.5-1.5l-2-.5-2-.5v2 2l.5 1 .5 1v1 1h-1.5-1.5l-1-1-1-1-.5 1-.5 1-.5 1.5-.5 1.5-.5.5-.5.5v1 1l-.5.5-.5.5-.5 1-.5 1-.5.5-.5.5v1 1l-.5.5-.5.5h-1.5-1.5-1-1l-.5.5-.5.5h-1-1v.5.5l1 .5 1 .5 2-.5 2-.5.5 1 .5 1h1 1l1-1.5 1-1.5v-1.5-1.5l1-1 1-1 1-1.5 1-1.5 1.5-.5 1.5-.5h1.5 1.5l.5 1 .5 1 7-3.5 7-3.5 1-1 1-1 9.5-7 9.5-7 1 1 1 1h2 2l1.5-1 1.5-1" style="fill:#8b7941;stroke:#8b7941"/><path d="m119 254v-2l-1-1.5-1-1.5-1-1-1-1-2-.5-2-.5-.5-.5-.5-.5 1-1.5 1-1.5-9.5 7-9.5 7 .5-1.5.5-1.5.5-.5.5-.5 1.5-.5 1.5-.5.5-1 .5-1 .5-.5.5-.5h2 2l1-.5 1-.5h1 1l.5.5.5.5h-1-1v1.5 1.5l.5.5.5.5h1 1l.5.5.5.5h1.5 1.5l.5.5.5.5h2 2" style="fill:#936b0b;stroke:#936b0b"/><path d="m118 234v-2l-.5-1.5-.5-1.5h-2.5-2.5l-1.5-.5-1.5-.5 1 1.5 1 1.5v1 1l.5 2 .5 2h2 2l1-1 1-1v-.5-.5" style="fill:#faeaa6;stroke:#faeaa6"/><path d="m114 356v-2-1-1l-1-1.5-1-1.5h-1-1l-1.5 1-1.5 1 1 1 1 1v1.5 1.5l1.5.5 1.5.5 1-.5 1-.5" style="fill:#393a24;stroke:#393a24"/><g style="fill:#98b2cd;stroke:#98b2cd"><path d="m113 37l-24 1-3 8.5-3 8.5 11-2.5 11-2.5 4-6.5 4-6.5"/><path d="m106 62l-24 1-6.5 2-6.5 2 4 6.5 4 6.5 10-3.5 10-3.5 4.5-5.5 4.5-5.5"/></g><path d="m97 241l1-1h-1.5-1.5-.5-.5l-.5.5-.5.5-1.5.5-1.5.5.5 1 .5 1h-2-2-.5-.5l-.5.5-.5.5-.5 2.5-.5 2.5-1 .5-1 .5 1.5 2 1.5 2h1 1l-1-1.5-1-1.5.5-1.5.5-1.5 1-1.5 1-1.5 1.5-.5 1.5-.5 1-1 1-1 2-1 2-1" style="fill:#ac9562;stroke:#ac9562"/><path d="m94 180l-26-3-10-1.5-10-1.5-11.5-3-11.5-3-7-3.5-7-3.5 6-8 6-8-.5 1-.5 1-.5-.5-.5-.5-1-.5-1-.5h-1-1v1 1l-.5.5-.5.5-1-1-1-1-1-1.5-1-1.5v1.5 1.5l-.5 1.5-.5 1.5v1.5 1.5 1 1l-.5 1.5-.5 1.5-.5 1.5-.5 1.5v1.5 1.5 1 1 2 2l.5 1.5.5 1.5v2.5 2.5l1 1.5 1 1.5 1 1 1 1 1.5.5 1.5.5 1.5 1 1.5 1 1 1 1 1 1.5 1 1.5 1 1.5.5 1.5.5 1.5 1 1.5 1v1 1l-1.5.5-1.5.5h-2-2l-1.5.5-1.5.5h-2.5-2.5l-1.5.5-1.5.5-1.5 1-1.5 1-1 1-1 1-.5 1.5-.5 1.5v.5.5l6.5 14.5 6.5 14.5 15-6 15-6-9.5 1-9.5 1 4-5.5 4-5.5 2.5-7 2.5-7 10-2.5 10-2.5 7-.5 7-.5 8-6.5 8-6.5" style="fill:#bab3ac;stroke:#bab3ac"/><path d="m88 292l-14-3-3.5 8-3.5 8-6 3.5-6 3.5-9 3.5-9 3.5 10.5-1 10.5-1 5-5.5 5-5.5 5.5 4 5.5 4v-5.5-5.5l-2-2-2-2 6.5-3.5 6.5-3.5" style="fill:#242300;stroke:#242300"/><path d="m88 243v-3l-1 1-1 1 1-2 1-2h-1.5-1.5-1-1-1.5-1.5v2 2l1 1 1 1 .5 1.5.5 1.5.5-2 .5-2 1 .5 1 .5h.5.5l.5-.5.5-.5" style="fill:#bab3ac;stroke:#bab3ac"/><path d="m87 315v-2-1-1l.5-2 .5-2h-1-1l-2 .5-2 .5v2 2 1.5 1.5h1 1 1 1 .5.5" style="fill:#242300;stroke:#242300"/><path d="m85 245l1-1-1-.5-1-.5-.5 2-.5 2-9 5.5-9 5.5-7 3.5-7 3.5-7-5.5-7-5.5-7.5-2-7.5-2-1-8-1-8-6.5-14.5-6.5-14.5.5-20 .5-20 1-14.5 1-14.5 1-14.5 1-14.5 1.5-13 1.5-13 1-14.5 1-14.5 1.5-14 1.5-14v-12-12h-3-3l-.5.5-.5.5v1.5 1.5 2 2l-.5 1.5-.5 1.5-2 .5-2 .5-.5-1.5-.5-1.5-.5-2-.5-2-.5-1.5-.5-1.5.5-1 .5-1h-3-3v13 13 16 16 15.5 15.5 15.5 15.5 15.5 15.5 15.5 15.5 14 14l.5 1 .5 1 1 1 1 1v1 1l.5 1 .5 1v2 2l1.5 1 1.5 1 1.5.5 1.5.5 1 1 1 1v1 1l-1 .5-1 .5-.5 1.5-.5 1.5.5.5.5.5h1.5 1.5v1.5 1.5l-1.5.5-1.5.5-.5-.5-.5-.5-.5.5-.5.5-.5.5-.5.5.5 1 .5 1v1 1l.5.5.5.5h-1-1l-.5-.5-.5-.5v-.5-.5l-.5-.5-.5-.5-.5-.5-.5-.5-.5-.5-.5-.5-1.5.5-1.5.5v2.5 2.5 2.5 2.5 1 1l2-1 2-1 .5 2 .5 2 1.5.5 1.5.5 1.5.5 1.5.5.5 1 .5 1 14.5 2 14.5 2 8 6 8 6-1-.5-1-.5v-.5-.5h1 1l.5-.5.5-.5h1 1 1.5 1.5l.5-.5.5-.5v-1-1l.5-.5.5-.5.5-1 .5-1 .5-.5.5-.5v-1-1l.5-.5.5-.5.5-1.5.5-1.5.5-1 .5-1 1-.5 1-.5-1-1.5-1-1.5-1.5-.5-1.5-.5 1.5-1 1.5-1h2 2 1.5 1.5 2 2l.5 1 .5 1 1-.5 1-.5.5-2.5.5-2.5" style="fill:#5b5946;stroke:#5b5946"/><path d="m81 251h1l-.5-1-.5-1h-2-2-1.5-1.5-2-2l-1.5 1-1.5 1 1.5.5 1.5.5 1 1.5 1 1.5-1 .5-1 .5 1 1 1 1h1.5 1.5v-1-1l-.5-1-.5-1v-2-2l2 .5 2 .5h1.5 1.5" style="fill:#ac9562;stroke:#ac9562"/><path d="m76 267l1-2-.5-1-.5-1h-1.5-1.5l-1.5.5-1.5.5-1 1.5-1 1.5-1 1-1 1v1.5 1.5l1 2 1 2h2.5 2.5l-1-1-1-1-1-1.5-1-1.5 1.5-.5 1.5-.5 1.5-.5 1.5-.5.5-1 .5-1" style="fill:#936b0b;stroke:#936b0b"/><path d="m74 165l-12-9 5.5 6 5.5 6 .5-1.5.5-1.5" style="fill:#bab3ac;stroke:#bab3ac"/><path d="m67 173l-16-13-.5-6-.5-6-.5 2-.5 2-1-1.5-1-1.5h-.5-.5l.5 1.5.5 1.5-1 1.5-1 1.5-1-1-1-1h-2-2-2.5-2.5l-1.5-.5-1.5-.5-1.5-1-1.5-1-.5 1.5-.5 1.5 2 7 2 7 11.5 1 11.5 1 6.5 2 6.5 2" style="fill:#faeaa6;stroke:#faeaa6"/><path d="m63 247l-14 15 6-5.5 6-5.5 1-2 1-2" style="fill:#d7f0f1;stroke:#d7f0f1"/><path d="m49 358l-15 2-9.5 4-9.5 4 9-1.5 9-1.5 8-3.5 8-3.5" style="fill:#5d4d0b;stroke:#5d4d0b"/><path d="m49 152l1-4-.5-1-.5-1-1-1.5-1-1.5-1-1-1-1-1.5-1-1.5-1-1.5.5-1.5.5-1.5 1-1.5 1-1 1-1 1-1.5.5-1.5.5-1.5 1-1.5 1-.5 1.5-.5 1.5v1.5 1.5l.5-1.5.5-1.5 1.5 1 1.5 1 1.5.5 1.5.5h2.5 2.5 2 2l1 1 1 1 1-1.5 1-1.5-.5-1.5-.5-1.5h.5.5l1 1.5 1 1.5" style="fill:#d7f0f1;stroke:#d7f0f1"/><path d="m31 194v-2l-1.5-1-1.5-1-1.5-.5-1.5-.5-1.5-1-1.5-1-1-1-1-1-1.5-1-1.5-1-1.5-.5-1.5-.5-1-1-1-1-1-1.5-1-1.5v-2.5-2.5l-.5 1.5-.5 1.5v2 2 2.5 2.5 2 2l-.5 1.5-.5 1.5v2.5 2.5l-.5 1.5-.5 1.5v2.5 2.5l.5-1.5.5-1.5 1-1 1-1 1.5-1 1.5-1 1.5-.5 1.5-.5h2.5 2.5l1.5-.5 1.5-.5h2 2l1.5-.5 1.5-.5" style="fill:#989788;stroke:#989788"/><g style="fill:#5d4d0b;stroke:#5d4d0b"><path d="m13 301l1-3-1.5 1-1.5 1-1-1-1-1-1.5.5-1.5.5-3-.5-3-.5v3.5 3.5 2 2 1.5 1.5h2 2 2 2l1.5-1 1.5-1 1-1 1-1-2-.5-2-.5h-2-2l.5-2 .5-2 .5-.5.5-.5 1.5.5 1.5.5 1.5-1 1.5-1"/><path d="m13 237v-3h-1.5-1.5l-.5-.5-.5-.5.5-1.5.5-1.5 1-.5 1-.5v-1-1l-1-1-1-1-1.5-.5-1.5-.5-1.5-1-1.5-1v-2-2l-.5-1-.5-1v-1-1l-1-1-1-1-.5-1-.5-1v2.5 2.5 2 2 2.5 2.5 2 2 2.5 2.5 2 2 1.5 1.5l1.5-.5 1.5-.5.5.5.5.5.5.5.5.5.5.5.5.5v.5.5l.5.5.5.5h1 1l-.5-.5-.5-.5v-1-1l-.5-1-.5-1 .5-.5.5-.5.5-.5.5-.5.5.5.5.5 1.5-.5 1.5-.5"/></g><path d="m13 1l1-1h-3-3-1-1l-.5 1-.5 1 .5 1.5.5 1.5.5 2 .5 2 .5 1.5.5 1.5 2-.5 2-.5.5-1.5.5-1.5v-2-2-1.5-1.5" style="fill:#8b7941;stroke:#8b7941"/></g></svg>