<svg xmlns="http://www.w3.org/2000/svg" viewBox="0 0 712 960"><g style="fill:#2e1317"><path d="m0 0h712v960h-712z"/><path d="m0 959v1h35 35 35.5 35.5 35.5 35.5 35.5 35.5 35.5 35.5 35.5 35.5 35.5 35.5 35.5 35.5 35.5 35.5 11 11v-.5-.5l26-4.5 26-4.5v-35.5-35.5-15-15l-30.5 5-30.5 5-30.5 5-30.5 5-30.5 5-30.5 5-30.5 5-30.5 5-31 4.5-31 4.5-30.5 5-30.5 5-31 4.5-31 4.5-31 4.5-31 4.5-31 4.5-31 4.5-32 4-32 4-47 7-47 7v1 1" style="stroke:#2e1317;stroke-linejoin:round;stroke-width:.7"/></g><g style="stroke-linejoin:round;stroke-width:.7"><path d="m660 959v1h1.5 1.5 2 2 2.5 2.5 2 2v-.5-.5h2 2l1.5-.5 1.5-.5 2-.5 2-.5 1.5-.5 1.5-.5h2 2l2-.5 2-.5h2 2l1.5-1 1.5-1h2 2l1.5-.5 1.5-.5v-1-1l-26 4.5-26 4.5" style="fill:#6b1f40;stroke:#6b1f40"/><path d="m676 959v1h1.5 1.5 2 2 2.5 2.5 2 2 2.5 2.5 2 2 2.5 2.5 2 2 1 1v-1-1-2.5-2.5-.5-.5l-1.5.5-1.5.5h-2-2l-1.5 1-1.5 1h-2-2l-2 .5-2 .5h-2-2l-1.5.5-1.5.5-2 .5-2 .5-1.5.5-1.5.5h-2-2" style="fill:#b56b5e;stroke:#b56b5e"/><path d="m0 956v1l48-7 48-7 32-4 32-4 31-4.5 31-4.5 31-4.5 31-4.5 31-4.5 31-4.5 30.5-5 30.5-5 31-4.5 31-4.5 30.5-5 30.5-5 30.5-5 30.5-5 30.5-5 30.5-5 30.5-5 30.5-5v-1-1l-31 4.5-31 4.5-30 4.5-30 4.5-30 4.5-30 4.5-27.5 5-27.5 5-27 4.5-27 4.5-26.5 4-26.5 4-29 4.5-29 4.5-30.5 4-30.5 4-31 4-31 4-30 3.5-30 3.5-28.5 4-28.5 4-31 3.5-31 3.5-.5-.5-.5-.5h-1-1-1-1-1.5-1.5v1.5 1.5 2.5 2.5.5.5" style="fill:#2a204f;stroke:#2a204f"/><path d="m8 948l62-7 28.5-4 28.5-4 30-3.5 30-3.5 31-4 31-4 30.5-4 30.5-4 29-4.5 29-4.5 26.5-4 26.5-4 27-4.5 27-4.5 27.5-5 27.5-5 30-4.5 30-4.5 30-4.5 30-4.5 31-4.5 31-4.5v-3.5-3.5-2-2-2.5-2.5-2-2-2-2-2.5-2.5-2-2-2-2l-30.5 5.5-30.5 5.5-30 4.5-30 4.5-31 4.5-31 4.5-31 4.5-31 4.5-31 4.5-31 4.5-31 4.5-31 4.5-31 4.5-31 4.5-31 4.5-31 4.5-31.5 4-31.5 4-31.5 4-31.5 4-46 6-46 6v3 3 2.5 2.5 2 2 2.5 2.5 2 2 2 2 2.5 2.5 1 1h1.5 1.5 1 1 1 1l.5.5.5.5" style="fill:#0c4197;stroke:#0c4197"/><path d="m0 911v1l47-6 47-6 31.5-4 31.5-4 31.5-4 31.5-4 31-4.5 31-4.5 31-4.5 31-4.5 31-4.5 31-4.5 31-4.5 31-4.5 31-4.5 31-4.5 31-4.5 31-4.5 30-4.5 30-4.5 30.5-5.5 30.5-5.5v-1-1l-30.5 4.5-30.5 4.5-30.5 5-30.5 5-30.5 5-30.5 5-31 4.5-31 4.5-31 4.5-31 4.5-31 4.5-31 4.5-31 4.5-31 4.5-31 4.5-31 4.5-31.5 4-31.5 4-31.5 4-31.5 4-46 6-46 6v.5.5" style="fill:#617bb9;stroke:#617bb9"/><path d="m0 909v1l47-6 47-6 31.5-4 31.5-4 31.5-4 31.5-4 31-4.5 31-4.5 31-4.5 31-4.5 31-4.5 31-4.5 31-4.5 31-4.5 31-4.5 31-4.5 30.5-5 30.5-5 30.5-5 30.5-5 30.5-4.5 30.5-4.5v-2-2-2-2-2.5-2.5-2-2-2.5-2.5-.5-.5l-29 4.5-29 4.5-30 4.5-30 4.5-31 3.5-31 3.5-31 4.5-31 4.5-31.5 4-31.5 4-29 4.5-29 4.5-27 4.5-27 4.5-28.5 3-28.5 3-30.5 4-30.5 4-28.5 4-28.5 4-28.5 5-28.5 5-31.5 2.5-31.5 2.5v1.5 1.5 2 2 2.5 2.5 2 2 2.5 2.5 2 2 1 1" style="fill:#a3baed;stroke:#a3baed"/><path d="m0 881v1l31.5-2.5 31.5-2.5 28.5-5 28.5-5 28.5-4 28.5-4 30.5-4 30.5-4 28.5-3 28.5-3 27-4.5 27-4.5 29-4.5 29-4.5 31.5-4 31.5-4 31-4.5 31-4.5 31-3.5 31-3.5 30-4.5 30-4.5 29-4.5 29-4.5v-1.5-1.5-2-2-2.5-2.5-2-2-2.5-2.5-2-2-2.5-2.5-2-2-2-2-.5-.5l-1.5-.5-1.5-.5-.5.5-.5.5-.5.5-.5.5h-1.5-1.5l-.5-.5-.5-.5h-1-1l-.5.5-.5.5h-1-1l-1 .5-1 .5h-1-1l-.5.5-.5.5h-1-1l-1-.5-1-.5-.5.5-.5.5h-1-1l-.5.5-.5.5h-1-1-2-2l-17.5 3-17.5 3h2 2l.5.5.5.5v1 1l.5 1 .5 1v1 1 1 1 1 1l-1 .5-1 .5-.5.5-.5.5-.5.5-.5.5-.5.5-.5.5-1 .5-1 .5-.5.5-.5.5h-1-1-1-1l-1.5-.5-1.5-.5-1-.5-1-.5-1-1-1-1-.5-2-.5-2 .5-1.5.5-1.5 1-1.5 1-1.5 1-1 1-1 1.5-1 1.5-1 1 1 1 1 2-.5 2-.5-1-.5-1-.5-1-.5-1-.5.5-.5.5-.5-.5-1-.5-1h-1-1v-1-1h-1-1l-1.5-1-1.5-1-.5 1-.5 1 .5 2 .5 2v1 1l-1.5-.5-1.5-.5-23.5-2.5-23.5-2.5v.5.5h1 1l.5.5.5.5h-1-1l.5 1 .5 1 1 1 1 1v1 1l-.5-.5-.5-.5-.5-.5-.5-.5-1-.5-1-.5h-1-1-1-1l-.5-.5-.5-.5-1-.5-1-.5h-1-1l-38.5 12-38.5 12-32 4-32 4-44.5 6-44.5 6-1.5.5-1.5.5h-2-2l-2-.5-2-.5-.5-1.5-.5-1.5-.5-1.5-.5-1.5-.5-2-.5-2-.5-1.5-.5-1.5-.5-2-.5-2-.5-1.5-.5-1.5-1-1.5-1-1.5v-2-2l1-1.5 1-1.5-.5-1.5-.5-1.5-1 .5-1 .5-.5-.5-.5-.5v-2-2l-.5-1.5-.5-1.5-.5-2-.5-2v-2-2l-.5-2-.5-2-.5-1.5-.5-1.5-.5-1-.5-1-.5 1-.5 1 .5 1 .5 1v1.5 1.5l.5 2 .5 2 .5 2 .5 2-.5 1.5-.5 1.5.5 2 .5 2 .5 1.5.5 1.5.5 2 .5 2 .5 1.5.5 1.5.5 2.5.5 2.5-20.5 13.5-20.5 13.5-1 .5-1 .5-1 .5-1 .5.5 1 .5 1 .5 1 .5 1 .5 1.5.5 1.5-.5 1.5-.5 1.5-1 1.5-1 1.5-1 1-1 1-2 .5-2 .5-1.5.5-1.5.5-1.5-.5-1.5-.5-2-.5-2-.5-1-1.5-1-1.5-.5-1.5-.5-1.5 1-2.5 1-2.5-.5-1.5-.5-1.5h-1.5-1.5-1.5-1.5-1.5-1.5l-45.5 7-45.5 7-28 3.5-28 3.5-52 7-52 7v2.5 2.5 2 2 2 2 2.5 2.5 2 2 2.5 2.5 2 2 2.5 2.5 2 2" style="fill:#617bb9;stroke:#617bb9"/><path d="m0 840v1l53-7 53-7-52 6-52 6v.5.5" style="fill:#0c4197;stroke:#0c4197"/><path d="m0 838v1l53-6 53-6 28-3.5 28-3.5v-.5-.5l1.5-.5 1.5-.5 1-.5 1-.5-1.5-.5-1.5-.5-12-9.5-12-9.5-15.5 4-15.5 4-6-16.5-6-16.5-1 .5-1 .5v1 1l-1 .5-1 .5-.5 1-.5 1-1 .5-1 .5h-1.5-1.5l-1.5-.5-1.5-.5-.5-.5-.5-.5h-1-1l-1-.5-1-.5-1-1-1-1h-2.5-2.5l-1 1-1 1-.5.5-.5.5h-1.5-1.5-2-2l-.5-.5-.5-.5h-1.5-1.5l-1.5-.5-1.5-.5-.5.5-.5.5-1-.5-1-.5-.5 1.5-.5 1.5h-1-1l-.5-.5-.5-.5-.5.5-.5.5-.5-1-.5-1-.5-.5-.5-.5-.5-.5-.5-.5-.5-.5-.5-.5-1-.5-1-.5h-1-1-1-1v-1-1h-1-1l-1-.5-1-.5-.5-.5-.5-.5.5-.5.5-.5.5-.5.5-.5-.5-.5-.5-.5-1-1-1-1h-.5-.5l-1.5.5-1.5.5-.5.5-.5.5 1 .5 1 .5v1 1h-1-1-1.5-1.5l-2-.5-2-.5h-1.5-1.5l-.5-1-.5-1v-1-1l-1.5-1-1.5-1-1.5-.5-1.5-.5-.5-1-.5-1 11.5-19.5 11.5-19.5 23-15 23-15 25.5-28.5 25.5-28.5v-.5-.5l-7.5-27-7.5-27-8.5-25-8.5-25-6.5-28-6.5-28-.5-1-.5-1-1-1-1-1-27.5 3.5-27.5 3.5-1-.5-1-.5h-1.5-1.5l-1.5-.5-1.5-.5-.5-1-.5-1-1-.5-1-.5-1.5 1-1.5 1h-2-2l-2 .5-2 .5-1 .5-1 .5v34 34l20 14.5 20 14.5-6 14-6 14 10.5 10 10.5 10-4 12.5-4 12.5-1.5 19.5-1.5 19.5-19-7.5-19-7.5v3 3 2.5 2.5 2 2 1.5 1.5 12.5 12.5 35.5 35.5 28.5 28.5" style="fill:#2a204f;stroke:#2a204f"/><path d="m267 821l3 1 1.5-.5 1.5-.5 2-.5 2-.5 1-1 1-1 1-1.5 1-1.5.5-1.5.5-1.5-.5-1.5-.5-1.5-.5-1-.5-1-7.5 5-7.5 5-1-1-1-1-.5-3-.5-3-1 2.5-1 2.5.5 1.5.5 1.5 1 1.5 1 1.5 2 .5 2 .5" style="fill:#0c4197;stroke:#0c4197"/><path d="m161 819v1l45.5-7 45.5-7v-.5-.5l-16.5-18-16.5-18-10.5-19-10.5-19-5-24.5-5-24.5-7-20.5-7-20.5-6-13.5-6-13.5-13-22.5-13-22.5-4-16.5-4-16.5-17.5-34-17.5-34-.5-.5-.5-.5-.5-2-.5-2v-2.5-2.5l-.5-1.5-.5-1.5-1-1-1-1-2-.5-2-.5h-2-2-2-2-2.5-2.5l-2 .5-2 .5h-2-2l-2-.5-2-.5-1.5.5-1.5.5h-2-2-2.5-2.5-2-2-2.5-2.5l-1 .5-1 .5-2 .5-2 .5-2 .5-2 .5-1.5.5-1.5.5-1.5-.5-1.5-.5h-2-2l-2-.5-2-.5-1.5.5-1.5.5h-2-2-1-1l-1-.5-1-.5h-1.5-1.5v1.5 1.5 2 2 2.5 2.5 2 2 1 1l1-.5 1-.5 2-.5 2-.5h2 2l1.5-1 1.5-1 1 .5 1 .5 32-1.5 32-1.5 1 1 1 1 .5 1 .5 1 5.5 17 5.5 17 9.5 23 9.5 23 7.5 40.5 7.5 40.5-25.5 28.5-25.5 28.5 1.5-.5 1.5-.5 1.5-.5 1.5-.5 3-.5 3-.5 15.5-17 15.5-17 1-1.5 1-1.5.5-1.5.5-1.5 1-1.5 1-1.5.5-1.5.5-1.5.5-2 .5-2 1.5-.5 1.5-.5h1.5 1.5l9.5 24 9.5 24-16 26-16 26-14 21.5-14 21.5.5-1 .5-1 1-.5 1-.5v-1-1l1-.5 1-.5 11.5-3 11.5-3 27-.5 27-.5-3.5 26-3.5 26-1 .5-1 .5-1.5.5-1.5.5" style="fill:#8e376c;stroke:#8e376c"/><path d="m265 817l15-10-.5-1-.5-1h-1.5-1.5-2-2-2.5-2.5-2-2l-1 .5-1 .5.5 1.5.5 1.5.5 3 .5 3 1 1 1 1" style="fill:#2a204f;stroke:#2a204f"/><g style="fill:#6b1f40;stroke:#6b1f40"><path d="m163 816l3 1 3.5-26 3.5-26-27 .5-27 .5-11.5 3-11.5 3 6 16.5 6 16.5 15.5-4 15.5-4 12 9.5 12 9.5"/><path d="m196 811l3-38-7-13.5-7-13.5 4 25.5 4 25.5 1.5 7 1.5 7"/></g><path d="m252 805v1h1.5 1.5 1.5 1.5 1.5 1.5l1-.5 1-.5h2 2 2.5 2.5 2 2 1.5 1.5l1-.5 1-.5 1-.5 1-.5v-.5-.5l-19-14.5-19-14.5-12.5-21-12.5-21-8-22.5-8-22.5 1.5-22 1.5-22-13-21.5-13-21.5-9-22.5-9-22.5-8-23.5-8-23.5 16.5-12 16.5-12 16.5 18 16.5 18 18 27 18 27-13-22.5-13-22.5-14-21.5-14-21.5-25-19.5-25-19.5-1 1.5-1 1.5-1.5.5-1.5.5-1 1.5-1 1.5-.5 1.5-.5 1.5-.5 1.5-.5 1.5-.5.5-.5.5h-1.5-1.5l-1 .5-1 .5-1.5-.5-1.5-.5-1-1-1-1-.5-.5-.5-.5-.5-1-.5-1-1-1-1-1h-1-1l-.5-1-.5-1v-2-2-1-1-1-1-1-1l-.5-1-.5-1-.5-1.5-.5-1.5.5-1 .5-1-1-.5-1-.5v-.5-.5-1.5-1.5l-.5-.5-.5-.5-1 1.5-1 1.5-1 1-1 1-.5 1.5-.5 1.5 1 1.5 1 1.5-1.5.5-1.5.5-2 1-2 1-1 .5-1 .5-.5 1-.5 1-.5.5-.5.5-.5.5-.5.5v1 1l1 .5 1 .5 1 1 1 1 .5.5.5.5 1 .5 1 .5-.5 1.5-.5 1.5-1.5-.5-1.5-.5-1.5-.5-1.5-.5-.5-1-.5-1-1-1-1-1h-2-2l1 1 1 1 .5 2 .5 2 .5 1.5.5 1.5-1 1.5-1 1.5-.5 2.5-.5 2.5 17.5 34 17.5 34 4 16.5 4 16.5 13 22.5 13 22.5 6 13.5 6 13.5 7 20.5 7 20.5 5 24.5 5 24.5 10.5 19 10.5 19 16.5 18 16.5 18" style="fill:#b660a9;stroke:#b660a9"/><path d="m283 802v1l20.5-13.5 20.5-13.5-.5 1-.5 1 .5 1.5.5 1.5.5 2 .5 2 .5 1.5.5 1.5-1.5 1-1.5 1h-2-2l-.5.5-.5.5-7.5-9.5-7.5-9.5-.5-11-.5-11-5-6.5-5-6.5-8.5-8-8.5-8-18.5-8-18.5-8-3.5-10-3.5-10 6.5-3 6.5-3-1-27.5-1-27.5-6.5-17.5-6.5-17.5 9-6 9-6h1.5 1.5v-1-1l-.5-1-.5-1-18-27-18-27-16.5-18-16.5-18-16.5 12-16.5 12 8 23.5 8 23.5 9 22.5 9 22.5 13 21.5 13 21.5-1.5 22-1.5 22 8 22.5 8 22.5 12.5 21 12.5 21 19 14.5 19 14.5" style="fill:#ca8ddc;stroke:#ca8ddc"/><path d="m333 796l4 1h2 2l1.5-.5 1.5-.5v-.5-.5l1-.5 1-.5 1.5-.5 1.5-.5-1-.5-1-.5h-1-1l-1-1.5-1-1.5-1-1-1-1-.5 2-.5 2-1 1-1 1-1.5-.5-1.5-.5-5.5-15-5.5-15v1 1l1-.5 1-.5.5 1.5.5 1.5-1 1.5-1 1.5v2 2l1 1.5 1 1.5.5 1.5.5 1.5.5 2 .5 2 .5 1.5.5 1.5.5 2 .5 2 .5 1.5.5 1.5.5 1.5.5 1.5" style="fill:#2a204f;stroke:#2a204f"/><path d="m344 795v1l44.5-6 44.5-6 32-4 32-4h-1.5-1.5l-1-.5-1-.5-8-18-8-18-6-8.5-6-8.5h-11.5-11.5l-13 12.5-13 12.5-4.5-3-4.5-3-14.5-18-14.5-18-4.5-13-4.5-13 20.5-14 20.5-14 15.5-11 15.5-11 13-6.5 13-6.5.5 1 .5 1 .5 1 .5 1 2 30.5 2 30.5 6.5 2 6.5 2 10-16.5 10-16.5-11-8.5-11-8.5 3.5-15 3.5-15 3.5-24 3.5-24 6-25.5 6-25.5 9.5-40.5 9.5-40.5v-.5-.5l2.5-24 2.5-24 .5-25 .5-25-8-45.5-8-45.5 6.5 27.5 6.5 27.5-1 26.5-1 26.5-5.5 21-5.5 21-1.5 23-1.5 23-8.5 23-8.5 23 .5 14 .5 14-10 23.5-10 23.5-7 12.5-7 12.5-13.5 20.5-13.5 20.5-19.5 16-19.5 16-20 10.5-20 10.5-3 16.5-3 16.5-8.5 17-8.5 17 6.5 15 6.5 15v12.5 12.5l-1.5.5-1.5.5-1 .5-1 .5" style="fill:#8e376c;stroke:#8e376c"/><path d="m335 792l3 1 1-1 1-1 .5-2 .5-2 1 1 1 1 1 1.5 1 1.5h1 1l1 .5 1 .5v-12.5-12.5l-6.5-15-6.5-15 8.5-17 8.5-17 3-16.5 3-16.5 20-10.5 20-10.5 19.5-16 19.5-16 13.5-20.5 13.5-20.5 7-12.5 7-12.5 10-23.5 10-23.5-.5-14-.5-14 8.5-23 8.5-23 1.5-23 1.5-23 5.5-21 5.5-21 1-26.5 1-26.5-6.5-27.5-6.5-27.5v-1.5-1.5l-.5-.5-.5-.5-.5-.5-.5-.5-.5-1-.5-1-.5-1-.5-1-.5-.5-.5-.5-.5-1.5-.5-1.5-.5-.5-.5-.5-1-.5-1-.5-1-1-1-1h-1-1v-1-1l-.5-.5-.5-.5v-1.5-1.5-2-2-1-1-1.5-1.5l-.5-1.5-.5-1.5-.5-.5-.5-.5.5-1.5.5-1.5v-2.5-2.5l-.5-1.5-.5-1.5-.5-2-.5-2-1-1-1-1-.5-1.5-.5-1.5.5-2 .5-2v-1.5-1.5l-.5-.5-.5-.5-.5-1.5-.5-1.5-1-1-1-1-.5-2-.5-2-.5-1.5-.5-1.5.5-1.5.5-1.5-.5-2-.5-2-1-2-1-2-3.5-15-3.5-15-3-13-3-13-.5-.5-.5-.5-1-.5-1-.5-.5-1.5-.5-1.5-1-1.5-1-1.5-1-1-1-1-1-2-1-2v-1.5-1.5l1-1 1-1h2.5 2.5 2 2l1.5.5 1.5.5h2.5 2.5 2 2 2.5 2.5 1 1 2.5 2.5l-1.5-1-1.5-1-24.5-11-24.5-11-23.5-11-23.5-11-26-2.5-26-2.5-25 10.5-25 10.5-17 18.5-17 18.5-14 21.5-14 21.5-13 22.5-13 22.5-9.5 26-9.5 26-6 25.5-6 25.5-11.5 45-11.5 45-6.5 24.5-6.5 24.5 11 22.5 11 22.5 19 16 19 16 22 41.5 22 41.5-8-23.5-8-23.5-2-16-2-16-7-8.5-7-8.5-14-19.5-14-19.5-10.5-19-10.5-19 12.5 15 12.5 15-2.5-14-2.5-14-1.5-18-1.5-18 8-25.5 8-25.5.5-28 .5-28 9-26.5 9-26.5 9.5-24 9.5-24 10-23.5 10-23.5 14-21.5 14-21.5 19-15.5 19-15.5 24.5 1 24.5 1 29.5 2 29.5 2 16 18.5 16 18.5 4 31.5 4 31.5 1 28.5 1 28.5 13 19.5 13 19.5 3 11.5 3 11.5 5.5 22 5.5 22-5.5 28-5.5 28-1 26.5-1 26.5-11 20.5-11 20.5-4 21.5-4 21.5-6.5 13-6.5 13-2 21.5-2 21.5-10.5 8-10.5 8-15 6.5-15 6.5-15.5 16-15.5 16-15.5 11.5-15.5 11.5-9 18-9 18-24.5-32.5-24.5-32.5 10.5 25 10.5 25 12.5 45.5 12.5 45.5 5.5 15 5.5 15" style="fill:#6b1f40;stroke:#6b1f40"/><path d="m318 791l1-1h2 2l1.5-1 1.5-1-.5-1.5-.5-1.5-.5-2-.5-2-.5-1.5-.5-1.5.5-1 .5-1-.5-2.5-.5-2.5-.5-1.5-.5-1.5-.5-2-.5-2-.5-1.5-.5-1.5-.5-2-.5-2 .5-1.5.5-1.5-.5-2-.5-2-.5-2-.5-2-.5-.5-.5-.5-.5-1-.5-1v-1.5-1.5l-.5-.5-.5-.5-.5-.5-.5-.5.5-.5.5-.5v-.5-.5-1-1l-.5-.5-.5-.5-.5-1-.5-1-1-.5-1-.5-9-31-9-31-21.5-45.5-21.5-45.5h-1.5-1.5l12 23.5 12 23.5 8.5 26.5 8.5 26.5-15.5-5-15.5-5-7.5-21.5-7.5-21.5 1 27.5 1 27.5-6.5 3-6.5 3 3.5 10 3.5 10 18.5 8 18.5 8 8.5 8 8.5 8 5 6.5 5 6.5.5 11 .5 11 7.5 9.5 7.5 9.5" style="fill:#a3baed;stroke:#a3baed"/><path d="m86 779h3l1-.5 1-.5 14-21.5 14-21.5h-1.5-1.5l-.5 1-.5 1-16 17.5-16 17.5-28-7-28-7 2.5-16 2.5-16 23-17.5 23-17.5 1.5-.5 1.5-.5 1-.5 1-.5v-.5-.5l2.5-1 2.5-1-3 .5-3 .5-1.5.5-1.5.5-1.5.5-1.5.5-23 15-23 15-11.5 19.5-11.5 19.5 1.5.5 1.5.5h1 1l.5.5.5.5h1.5 1.5l.5.5.5.5h1 1 1 1l.5.5.5.5h1.5 1.5 1 1l1 .5 1 .5h.5.5l23 5.5 23 5.5 1 1 1 1 1 .5 1 .5h1 1l.5.5.5.5 1.5.5 1.5.5" style="fill:#617bb9;stroke:#617bb9"/><path d="m48 778h2l.5-1.5.5-1.5 1 .5 1 .5.5-.5.5-.5 1.5.5 1.5.5h1.5 1.5l.5.5.5.5h2 2 1.5 1.5l.5-.5.5-.5 1-1 1-1h2.5 2.5l-23-5.5-23-5.5 1 1 1 1 .5.5.5.5-.5.5-.5.5-.5.5-.5.5.5.5.5.5 1 .5 1 .5h1 1v1 1h1 1 1 1l1 .5 1 .5.5.5.5.5.5.5.5.5.5.5.5.5.5 1 .5 1 .5-.5.5-.5.5.5.5.5" style="fill:#0c4197;stroke:#0c4197"/><path d="m492 775l2 1h1.5 1.5l38.5-12 38.5-12-21 5.5-21 5.5-3.5-21-3.5-21 1-23.5 1-23.5-4-22.5-4-22.5-6-25.5-6-25.5 3.5-25 3.5-25 5.5-27 5.5-27 8.5-31 8.5-31-.5-.5-.5-.5-.5-2-.5-2-.5-.5-.5-.5-.5-.5-.5-.5-.5-.5-.5-.5v-1.5-1.5-1-1l-1-.5-1-.5-.5 1.5-.5 1.5v1 1 1 1l.5 1 .5 1v1 1 1 1l-.5.5-.5.5-.5 1-.5 1-.5.5-.5.5v1 1 1 1 1.5 1.5l-1 1-1 1-1 .5-1 .5-9.5 40.5-9.5 40.5-6 25.5-6 25.5-3.5 24-3.5 24-3.5 15-3.5 15 11 8.5 11 8.5-10 16.5-10 16.5-6.5-2-6.5-2-2-30.5-2-30.5-3.5 47-3.5 47-1-1.5-1-1.5-.5-.5-.5-.5-1-.5-1-.5-.5-1.5-.5-1.5-2-1.5-2-1.5-.5-.5-.5-.5-22-13.5-22-13.5 1-10.5 1-10.5 27-19 27-19 1-.5 1-.5 1 .5 1 .5-13 6.5-13 6.5-15.5 11-15.5 11-20.5 14-20.5 14 4.5 13 4.5 13 14.5 18 14.5 18 4.5 3 4.5 3 13-12.5 13-12.5h11.5 11.5l6 8.5 6 8.5 8 18 8 18" style="fill:#b660a9;stroke:#b660a9"/><path d="m83 772l32-35v-.5-.5l13-22 13-22-4.5-28.5-4.5-28.5h-1.5-1.5l-1.5.5-1.5.5-.5 2-.5 2-.5 1.5-.5 1.5-1 1.5-1 1.5-.5 1.5-.5 1.5-1 1.5-1 1.5.5 1 .5 1v1 1l-.5 1-.5 1v1 1l-.5.5-.5.5v1.5 1.5 2 2l-.5.5-.5.5-.5 1-.5 1 .5 1 .5 1 12-5 12-5-12.5 22-12.5 22-1-1-1-1v-2-2-2-2l.5-2 .5-2v-2-2-2.5-2.5l.5-1.5.5-1.5.5-2 .5-2v-1.5-1.5l-10.5 12.5-10.5 12.5-2-.5-2-.5-.5-.5-.5-.5-1-.5-1-.5-.5-1.5-.5-1.5-.5-.5-.5-.5-.5-1-.5-1h-2-2l-.5.5-.5.5h-1.5-1.5l-23 17.5-23 17.5-2.5 16-2.5 16 28 7 28 7" style="fill:#a3baed;stroke:#a3baed"/><path d="m635 772l3 1h1 1 1 1l.5-.5.5-.5 1-.5 1-.5.5-.5.5-.5.5-.5.5-.5.5-.5.5-.5 1-.5 1-.5v-1-1-1-1-1-1l-.5-1-.5-1v-1-1l-.5-.5-.5-.5h-2-2l-2 .5-2 .5-1-1-1-1-1.5 1-1.5 1-1 1-1 1-1 1.5-1 1.5-.5 1.5-.5 1.5.5 2 .5 2 1 1 1 1 1 .5 1 .5" style="fill:#2a204f;stroke:#2a204f"/><path d="m18 767l4 1h1.5 1.5 1 1v-1-1l-1-.5-1-.5.5-.5.5-.5 1.5-.5 1.5-.5-1-.5-1-.5h-1-1-1.5-1.5l-.5-.5-.5-.5h-1-1-1-1l-.5-.5-.5-.5h-1.5-1.5l-.5-.5-.5-.5h-1-1l-1.5-.5-1.5-.5.5 1 .5 1 1.5.5 1.5.5 1.5 1 1.5 1v1 1l.5 1 .5 1h1.5 1.5" style="fill:#0c4197;stroke:#0c4197"/><path d="m323 763l1 1v-1-1l-12.5-45.5-12.5-45.5-10.5-25-10.5-25-1.5-1.5-1.5-1.5 14 36 14 36 .5 1 .5 1 .5 1.5.5 1.5 6.5 22 6.5 22 .5 1 .5 1 .5 1.5.5 1.5.5 2 .5 2v2 2l.5 2 .5 2 .5 1.5.5 1.5v2 2" style="fill:#8e376c;stroke:#8e376c"/><path d="m532 763l42-11h1 1l1 .5 1 .5.5.5.5.5h1 1 1 1l1 .5 1 .5.5.5.5.5.5.5.5.5v-1-1l-1-1-1-1-.5-1-.5-1h1 1l-.5-.5-.5-.5h-1-1v-.5-.5l-7.5-17.5-7.5-17.5-.5-24-.5-24-.5-29-.5-29-7.5-27-7.5-27-4.5-23.5-4.5-23.5 5-36.5 5-36.5-.5-.5-.5-.5h-1.5-1.5l-1.5-1-1.5-1v-2-2l1-1.5 1-1.5.5-1.5.5-1.5 1.5-.5 1.5-.5 1 1 1 1 1-.5 1-.5v-1.5-1.5l-1.5.5-1.5.5-.5-.5-.5-.5-1-1.5-1-1.5-1-1-1-1-1.5-1-1.5-1-1 .5-1 .5-8.5 31-8.5 31-5.5 27-5.5 27-3.5 25-3.5 25 6 25.5 6 25.5 4 22.5 4 22.5-1 23.5-1 23.5 3.5 21 3.5 21" style="fill:#ca8ddc;stroke:#ca8ddc"/><path d="m116 755l41-18-20.5 2-20.5 2v7 7" style="fill:#6b1f40;stroke:#6b1f40"/><path d="m642 755l2 1 17.5-3 17.5-3-23-1.5-23-1.5 1.5 1 1.5 1h1 1v1 1h1 1l.5 1 .5 1-.5.5-.5.5 1 .5 1 .5" style="fill:#b660a9;stroke:#b660a9"/><path d="m630 754l3 1v-1-1l-.5-2-.5-2 .5-1 .5-1 23 1.5 23 1.5h2 2 1 1l.5-.5.5-.5h1 1l.5-.5.5-.5 1 .5 1 .5h1 1l.5-.5.5-.5h1 1l1-.5 1-.5h1 1l.5-.5.5-.5h1 1l.5.5.5.5h1.5 1.5l.5-.5.5-.5.5-.5.5-.5 1.5.5 1.5.5v-37-37-35.5-35.5-35.5-35.5-21-21h-.5-.5l-.5 26.5-.5 26.5v-1.5-1.5-1-1-1.5-1.5-1-1-1-1-1-1-1-1-1.5-1.5-1-1-1-1-1-1-1.5-1.5-1-1-1-1-1-1-1.5-1.5-1-1-1-1-1-1-2-2l-.5-.5-.5-.5.5-9 .5-9v-33-33l-5-9.5-5-9.5-2.5 10.5-2.5 10.5-8 11.5-8 11.5-9 17.5-9 17.5-1.5 20-1.5 20 15.5 20.5 15.5 20.5-20-4.5-20-4.5-13 3.5-13 3.5-17 10-17 10-19-7-19-7 7.5 27 7.5 27 .5 29 .5 29 .5 24 .5 24 7.5 17.5 7.5 17.5 23.5 2.5 23.5 2.5" style="fill:#a3baed;stroke:#a3baed"/><g style="fill:#b660a9;stroke:#b660a9"><path d="m317 745l1 1v-1.5-1.5l-.5-1-.5-1 .5-1 .5-1-6.5-22-6.5-22v1.5 1.5l.5.5.5.5v1 1l.5 1 .5 1 .5 1.5.5 1.5.5.5.5.5v1 1l.5.5.5.5v1.5 1.5l.5.5.5.5v1 1 1 1l.5 1 .5 1v1 1l.5.5.5.5v1 1l.5 1 .5 1v1 1l-.5 1-.5 1 .5 1 .5 1 .5.5.5.5v1 1 .5.5l-.5.5-.5.5.5.5.5.5.5.5.5.5v1.5 1.5l.5 1 .5 1"/><path d="m115 736v1l.5-1 .5-1h1.5 1.5l16-26 16-26-9.5-24-9.5-24 4.5 28.5 4.5 28.5-13 22-13 22"/></g><path d="m311 730l2 1 .5-1 .5-1v-1-1l-.5-1-.5-1v-1-1l-.5-.5-.5-.5v-1-1l-.5-1-.5-1v-1-1-1-1l-.5-.5-.5-.5v-1.5-1.5l-.5-.5-.5-.5v-1-1l-.5-.5-.5-.5-.5-1.5-.5-1.5-.5-1-.5-1v-1-1l-.5-.5-.5-.5v-1.5-1.5l-.5-1.5-.5-1.5-.5-1-.5-1-.5-.5-.5-.5-.5-1.5-.5-1.5-.5-1.5-.5-1.5-.5-.5-.5-.5v-1.5-1.5l-1-1-1-1v-1-1l-.5-.5-.5-.5v-1-1l-.5-1-.5-1-1-1-1-1 9 31 9 31" style="fill:#ca8ddc;stroke:#ca8ddc"/><path d="m164 725l4-35-2.5 16-2.5 16 .5 1.5.5 1.5" style="fill:#6b1f40;stroke:#6b1f40"/><path d="m461 714l7-94-.5-1-.5-1-.5-1-.5-1-1-.5-1-.5-1 .5-1 .5-7 10.5-7 10.5v21 21l-12-1-12-1 13.5 13 13.5 13 2 1.5 2 1.5.5 1.5.5 1.5 1 .5 1 .5.5.5.5.5 1 1.5 1 1.5" style="fill:#a3baed;stroke:#a3baed"/><path d="m0 709v1-12.5-12.5 3 3 2 2 2.5 2.5 2 2 2 2 .5.5" style="fill:#2e1317;stroke:#2e1317"/><path d="m116 707l25-44-12 5-12 5v.5.5 1.5 1.5l-.5 2-.5 2-.5 1.5-.5 1.5v2.5 2.5 2 2l-.5 2-.5 2v2 2 2 2l1 1 1 1" style="fill:#fffbe1;stroke:#fffbe1"/><g style="fill:#ca8ddc;stroke:#ca8ddc"><path d="m450 702l1 1-13.5-13-13.5-13 12-20 12-20 7-10.5 7-10.5-27 19-27 19-1 10.5-1 10.5 22 13.5 22 13.5"/><path d="m96 699l21-25v-.5-.5l-.5-1-.5-1 .5-1 .5-1 .5-.5.5-.5v-2-2-1.5-1.5l.5-.5.5-.5v-1-1l-.5 1-.5 1-.5 1-.5 1-.5 1.5-.5 1.5v2 2l-.5.5-.5.5v1 1l-.5 1-.5 1-.5 1.5-.5 1.5-.5.5-.5.5-.5 1-.5 1-.5 1.5-.5 1.5-.5.5-.5.5-.5 1-.5 1-1 1-1 1-.5.5-.5.5h-1-1l-.5.5-.5.5-1.5-.5-1.5-.5h-1.5-1.5l-2.5-.5-2.5-.5h-1.5-1.5l-1 .5-1 .5h-1.5-1.5l-1 .5-1 .5-1.5.5-1.5.5h1.5 1.5l.5-.5.5-.5h2 2l.5 1 .5 1 .5.5.5.5.5 1.5.5 1.5 1 .5 1 .5.5.5.5.5 2 .5 2 .5"/></g><path d="m99 689l3 1 .5-.5.5-.5h1 1l.5-.5.5-.5 1-1 1-1 .5-1 .5-1 .5-.5.5-.5.5-1.5.5-1.5.5-1 .5-1 .5-.5.5-.5.5-1.5.5-1.5.5-1 .5-1v-1-1l.5-.5.5-.5v-2-2l-1 1.5-1 1.5-.5 2-.5 2-1 1-1 1-2 .5-2 .5-1 1-1 1-1 1-1 1-2 .5-2 .5-1 1-1 1-1.5 1-1.5 1-1 1-1 1-.5 1-.5 1 2.5.5 2.5.5h1.5 1.5" style="fill:#cf9e81;stroke:#cf9e81"/><path d="m302 689l1 1-14-36-14-36-.5-1.5-.5-1.5-.5-1-.5-1-.5-1-.5-1-.5-.5-.5-.5-10.5-17.5-10.5-17.5v1 1l21.5 45.5 21.5 45.5 1 1 1 1 .5 1 .5 1v1 1l.5.5.5.5v1 1l1 1 1 1v1.5 1.5l.5.5.5.5.5 1.5.5 1.5.5 1.5.5 1.5" style="fill:#617bb9;stroke:#617bb9"/><path d="m83 688v1h1.5 1.5l1-.5 1-.5h1.5 1.5l.5-1 .5-1 1-1 1-1 1.5-1 1.5-1 1-1 1-1 2-.5 2-.5 1-1 1-1 1-1 1-1 2-.5 2-.5 1-1 1-1 .5-2 .5-2 1-1.5 1-1.5.5-1.5.5-1.5.5-1 .5-1 .5-1 .5-1 .5-1 .5-1v-1-1l-.5-1-.5-1-15.5 17-15.5 17-2.5 1-2.5 1" style="fill:#b660a9;stroke:#b660a9"/><path d="m327 686l18-36 15.5-11.5 15.5-11.5-24 8.5-24 8.5-13-24-13-24-1 1-1 1-2-.5-2-.5v-1.5-1.5l-1-.5-1-.5h-1.5-1.5l-.5-.5-.5-.5-.5-.5-.5-.5-.5-1-.5-1v-1-1l.5-.5.5-.5.5-.5.5-.5-1-.5-1-.5-.5-.5-.5-.5-.5-.5-.5-.5v-1-1-1.5-1.5h-1.5-1.5l-.5-1-.5-1-1-1-1-1-.5-.5-.5-.5-1-.5-1-.5-.5-1.5-.5-1.5-.5-.5-.5-.5v-1.5-1.5l-.5-1.5-.5-1.5.5-.5.5-.5 1 .5 1 .5 1.5.5 1.5.5-.5-1.5-.5-1.5-.5-1-.5-1-.5-.5-.5-.5v-1-1-1-1-1-1l.5-1.5.5-1.5-1 .5-1 .5-1 .5-1 .5-.5.5-.5.5h-1-1l-.5-.5-.5-.5-.5-1-.5-1-.5-.5-.5-.5-.5-.5-.5-.5v-1-1l-.5-1-.5-1-.5-1.5-.5-1.5-8.5-3.5-8.5-3.5-8.5-19.5-8.5-19.5 2 16 2 16 8 23.5 8 23.5 10.5 20 10.5 20 .5 1 .5 1 .5 1 .5 1 .5 1.5.5 1.5 1.5 1.5 1.5 1.5 24.5 32.5 24.5 32.5" style="fill:#2a204f;stroke:#2a204f"/><path d="m38 682l3-39 4-12.5 4-12.5-10.5-10-10.5-10 6-14 6-14-20-14.5-20-14.5v36 36 27 27l19 7.5 19 7.5" style="fill:#2e1317;stroke:#2e1317"/><g style="fill:#fffbe1;stroke:#fffbe1"><path d="m448 679v-42l-12 20-12 20 12 1 12 1"/><path d="m288 677l-17-53-12-23.5-12-23.5-9 6-9 6 6.5 17.5 6.5 17.5 7.5 21.5 7.5 21.5 15.5 5 15.5 5"/></g><path d="m328 644l48-17 15.5-16 15.5-16 15-6.5 15-6.5 10.5-8 10.5-8 2-21.5 2-21.5 6.5-13 6.5-13 4-21.5 4-21.5 11-20.5 11-20.5 1-26.5 1-26.5 5.5-28 5.5-28-5.5-22-5.5-22-3-11.5-3-11.5-13-19.5-13-19.5-1-28.5-1-28.5-4-31.5-4-31.5-16-18.5-16-18.5-29.5-2-29.5-2-24.5-1-24.5-1-19 15.5-19 15.5-14 21.5-14 21.5-10 23.5-10 23.5-9.5 24-9.5 24-9 26.5-9 26.5-.5 28-.5 28-8 25.5-8 25.5 1.5 18 1.5 18 2.5 14 2.5 14-12.5-15-12.5-15 10.5 19 10.5 19 14 19.5 14 19.5 7 8.5 7 8.5 8.5 19.5 8.5 19.5 8.5 3.5 8.5 3.5 3.5-19 3.5-19 13.5 21 13.5 21-5.5 8-5.5 8-.5-1.5-.5-1.5-.5-1-.5-1v-1-1l-.5-.5-.5-.5-.5-.5-.5-.5-1-.5-1-.5-.5-.5-.5-.5-.5-.5-.5-.5-1 .5-1 .5-.5 1.5-.5 1.5v1 1 1 1 1 1l.5.5.5.5.5 1 .5 1 .5 1.5.5 1.5 11 17 11 17 13 24 13 24" style="fill:#2e1317;stroke:#2e1317"/><path d="m22 640h2l1.5-.5 1.5-.5.5-2 .5-2-1-1-1-1-1.5-1-1.5-1h-1-1l-2 .5-2 .5.5 1.5.5 1.5-1 1-1 1 1.5 1 1.5 1 1.5.5 1.5.5" style="fill:#2a204f;stroke:#2a204f"/><path d="m127 631v1l-7.5-40.5-7.5-40.5-9.5-23-9.5-23-5.5-17-5.5-17 6.5 28 6.5 28 8.5 25 8.5 25 7.5 27 7.5 27" style="fill:#6b1f40;stroke:#6b1f40"/><path d="m271 610l1 1-10.5-20-10.5-20-22-41.5-22-41.5-19-16-19-16-11-22.5-11-22.5 6.5-24.5 6.5-24.5-9 23-9 23 1.5 19 1.5 19 25 19.5 25 19.5 14 21.5 14 21.5 13 22.5 13 22.5.5 1 .5 1 10.5 17.5 10.5 17.5" style="fill:#8e376c;stroke:#8e376c"/><path d="m71 597l-8-31-4.5 1-4.5 1 8.5 14.5 8.5 14.5" style="fill:#2e1317;stroke:#2e1317"/><path d="m296 597l4 1 1-1 1-1-11-17-11-17-1.5-.5-1.5-.5-1-.5-1-.5-.5.5-.5.5.5 1.5.5 1.5v1.5 1.5l.5.5.5.5.5 1.5.5 1.5 1 .5 1 .5.5.5.5.5 1 1 1 1 .5 1 .5 1h1.5 1.5l1.5.5 1.5.5.5.5.5.5.5.5.5.5.5.5.5.5.5 1 .5 1 .5.5.5.5v1 1l.5.5.5.5v1.5 1.5l.5.5.5.5v1.5 1.5 1.5 1.5" style="fill:#6b1f40;stroke:#6b1f40"/><path d="m294 593l2 1v-1.5-1.5l-.5-.5-.5-.5v-1.5-1.5l-.5-.5-.5-.5v-1-1l-.5-.5-.5-.5-.5-1-.5-1-.5-.5-.5-.5-.5-.5-.5-.5-.5-.5-.5-.5-1.5-.5-1.5-.5v1.5 1.5 1 1l.5.5.5.5.5.5.5.5 1 .5 1 .5-.5.5-.5.5-.5.5-.5.5v1 1l.5 1 .5 1 .5.5.5.5.5.5.5.5h1.5 1.5" style="fill:#2e1317;stroke:#2e1317"/><path d="m35 588l3 1 1.5-.5 1.5-.5v-2.5-2.5l-1-1-1-1-1.5-1-1.5-1-1-1-1-1-2 .5-2 .5-.5 1.5-.5 1.5v2 2l1.5 1 1.5 1 1.5.5 1.5.5" style="fill:#2a204f;stroke:#2a204f"/><path d="m326 581l4-43 2-25.5 2-25.5-5.5-23-5.5-23-11 23.5-11 23.5v11.5 11.5l8.5 20 8.5 20 4 15 4 15" style="fill:#6b1f40;stroke:#6b1f40"/><path d="m445 570l3 1 .5-1.5.5-1.5v-1.5-1.5l-.5-1.5-.5-1.5-1.5-1-1.5-1-1.5.5-1.5.5v2.5 2.5l.5 1.5.5 1.5 1 .5 1 .5" style="fill:#2a204f;stroke:#2a204f"/><path d="m589 568l34-20 13-3.5 13-3.5 20 4.5 20 4.5-15.5-20.5-15.5-20.5 1.5-20 1.5-20 9-17.5 9-17.5 8-11.5 8-11.5 2.5-10.5 2.5-10.5 5 9.5 5 9.5v-35.5-35.5-34.5-34.5-24.5-24.5l-17.5-7-17.5-7-11.5-10-11.5-10-16-3.5-16-3.5-10.5-1-10.5-1-11.5-6-11.5-6-15.5 3.5-15.5 3.5-9 7.5-9 7.5 5 18.5 5 18.5 6.5 29 6.5 29 6.5 29 6.5 29-6.5-1-6.5-1 5 25.5 5 25.5-2.5 16-2.5 16-1 .5-1 .5-1 2-1 2 .5 2 .5 2v2 2l-5 36.5-5 36.5 4.5 23.5 4.5 23.5 19 7 19 7" style="fill:#fffbe1;stroke:#fffbe1"/><path d="m288 558l11-16-13.5-21-13.5-21-3.5 19-3.5 19 .5 1.5.5 1.5.5 1 .5 1v1 1l.5.5.5.5.5.5.5.5.5 1 .5 1 .5.5.5.5h1 1l.5-.5.5-.5 1-.5 1-.5 1-.5 1-.5 1-.5 1-.5.5.5.5.5.5.5.5.5 1 .5 1 .5.5.5.5.5.5.5.5.5v1 1l.5 1 .5 1 .5 1.5.5 1.5" style="fill:#6b1f40;stroke:#6b1f40"/><path d="m710 541l1-53v-.5-.5-35.5-35.5-35.5-35.5l.5-38 .5-38v-37-37-28.5-28.5l-9.5-10-9.5-10-14-7.5-14-7.5-16-7.5-16-7.5-16-2.5-16-2.5-22-7.5-22-7.5-8.5 11-8.5 11-4.5 30-4.5 30-10 21-10 21 12 23.5 12 23.5 6 28.5 6 28.5-1.5 25-1.5 25 8.5 25 8.5 25-8.5 7.5-8.5 7.5 1.5 1 1.5 1 1 1 1 1 1 1.5 1 1.5.5.5.5.5 1.5-.5 1.5-.5v1.5 1.5l2.5-16 2.5-16-5-25.5-5-25.5 6.5 1 6.5 1-6.5-29-6.5-29-6.5-29-6.5-29-5-18.5-5-18.5 9-7.5 9-7.5 15.5-3.5 15.5-3.5 11.5 6 11.5 6 10.5 1 10.5 1 16 3.5 16 3.5 11.5 10 11.5 10 17.5 7 17.5 7v24.5 24.5 34.5 34.5 35.5 35.5 33 33 1.5 1.5 2 2 2.5 2.5 2 2 1.5 1.5 2 2 1 1 1 1 1 1 1.5 1.5 1 1 1 1 1 1 1.5 1.5 1 1 1 1 1 1 1.5 1.5 1 1 1 1 1 1 1 1 1.5 1.5 1 1 1.5 1.5" style="fill:#f7c594;stroke:#f7c594"/><path d="m709 493l1 1v-1.5-1.5-2-2-2.5-2.5-2-2-1.5-1.5l-.5 9-.5 9" style="fill:#ca8ddc;stroke:#ca8ddc"/><path d="m711 487v1h.5.5v-36.5-36.5-35.5-35.5-35.5-35.5-2-2l-.5 38-.5 38v35.5 35.5 35.5 35.5" style="fill:#fffbe1;stroke:#fffbe1"/><path d="m24 474l55-7-32 1.5-32 1.5.5 1 .5 1 1.5.5 1.5.5h1.5 1.5l1 .5 1 .5" style="fill:#6b1f40;stroke:#6b1f40"/><g style="fill:#b56b5e;stroke:#b56b5e"><path d="m92 467l1 1 .5-2.5.5-2.5 1-1.5 1-1.5-.5-1.5-.5-1.5-.5-2-.5-2-1-1-1-1-2-.5-2-.5h-1-1-1-1-1-1-1-1l-1 .5-1 .5-1 .5-1 .5h2 2 2 2l2 .5 2 .5 1 1 1 1 .5 1.5.5 1.5v2.5 2.5l.5 2 .5 2"/><path d="m130 461l2-1h1.5 1.5l.5-.5.5-.5.5-1.5.5-1.5.5-1.5.5-1.5 1-1.5 1-1.5 1.5-.5 1.5-.5 1-1.5 1-1.5-1.5-19-1.5-19 9-23 9-23 11.5-45 11.5-45 6-25.5 6-25.5 9.5-26 9.5-26 13-22.5 13-22.5 14-21.5 14-21.5 17-18.5 17-18.5 25-10.5 25-10.5 26 2.5 26 2.5 23.5 11 23.5 11 24.5 11 24.5 11 2.5.5 2.5.5h1.5 1.5 1 1 1 1l1 .5 1 .5h1 1 1 1 1 1 1.5 1.5 1 1l.5.5.5.5h1 1l.5 1.5.5 1.5-7 47-7 47 7.5-28 7.5-28-9.5-22.5-9.5-22.5-39.5-23.5-39.5-23.5-35-2-35-2h-.5-.5-1.5-1.5-1.5-1.5-2.5-2.5-2-2l-1.5-.5-1.5-.5h-2-2l-22 12.5-22 12.5-16 19.5-16 19.5-14 21.5-14 21.5-13.5 22-13.5 22-10.5 25-10.5 25-10.5 24-10.5 24-3 31.5-3 31.5-18.5 39-18.5 39v2 2l-.5 1-.5 1-.5 1.5-.5 1.5v1 1l-.5 1-.5 1-.5 1.5-.5 1.5.5.5.5.5-.5 1-.5 1-.5 1.5-.5 1.5-.5 1-.5 1v1 1l-.5 1-.5 1 .5 1.5.5 1.5.5 1 .5 1v1 1 1 1 1 1 2 2l.5 1 .5 1h1 1l1 1 1 1 .5 1 .5 1 .5.5.5.5 1 1 1 1 1.5.5 1.5.5"/></g><path d="m22 456l3 1 1.5-.5 1.5-.5 2-.5 2-.5 2-.5 2-.5-.5-.5-.5-.5h-1-1-1-1l-.5.5-.5.5h-1.5-1.5-1-1-1-1l-1.5-.5-1.5-.5v-.5-.5h-2-2-1.5-1.5-1.5-1.5-1.5-1.5-2-2-1.5-1.5v1.5 1.5h1.5 1.5l1 .5 1 .5h1 1 2 2l1.5-.5 1.5-.5 2 .5 2 .5h2 2" style="fill:#b660a9;stroke:#b660a9"/><path d="m102 456l3 1 .5-1.5.5-1.5-1-.5-1-.5-.5-.5-.5-.5-1-1-1-1-1-.5-1-.5v-1-1l.5-.5.5-.5.5-.5.5-.5.5-1 .5-1 1-.5 1-.5-1-.5-1-.5-1 .5-1 .5-40 5.5-40 5.5 1.5.5 1.5.5h1 1 1 1 1.5 1.5l.5-.5.5-.5h1 1 1 1l.5.5.5.5 1-.5 1-.5h2.5 2.5 2 2 2.5 2.5 2 2l1.5-.5 1.5-.5 2 .5 2 .5h2 2l2-.5 2-.5h2.5 2.5l1-.5 1-.5 1-.5 1-.5h1 1 1 1 1 1 1 1l2 .5 2 .5h2 2l1 1 1 1 .5 1 .5 1 1.5.5 1.5.5" style="fill:#cf9e81;stroke:#cf9e81"/><path d="m20 452v1l40-5.5 40-5.5v-.5-.5l.5-1.5.5-1.5.5-1 .5-1 .5-.5.5-.5v-1-1l.5-.5.5-.5-.5-1-.5-1 .5-.5.5-.5.5-.5.5-.5.5-.5.5-.5.5.5.5.5 1.5-1 1.5-1 1-1 1-1v-1.5-1.5-1-1l.5-.5.5-.5.5-.5.5-.5 1-1 1-1v-1.5-1.5l.5-.5.5-.5 1-.5 1-.5-1-14.5-1-14.5 16-13.5 16-13.5 1-19.5 1-19.5 5-24.5 5-24.5 11.5-24 11.5-24 9.5-25 9.5-25 14-21.5 14-21.5 13.5-22 13.5-22 14.5-20.5 14.5-20.5-16.5-8-16.5-8-21-2.5-21-2.5-23 3.5-23 3.5-21 .5-21 .5-24 1.5-24 1.5-38-8-38-8v37.5 37.5 16.5 16.5h23.5 23.5l24.5 3 24.5 3 23 4.5 23 4.5 5-2.5 5-2.5 19 2.5 19 2.5-.5 14-.5 14-5.5 15-5.5 15-6 24.5-6 24.5-10 25.5-10 25.5-16.5 19-16.5 19-3.5 26-3.5 26-6 24.5-6 24.5-42 9-42 9h1.5 1.5 1.5 1.5 2 2" style="fill:#f7c594;stroke:#f7c594"/><path d="m0 451v1h1.5 1.5 2 2 1.5 1.5l42-9 42-9 6-24.5 6-24.5 3.5-26 3.5-26 16.5-19 16.5-19 10-25.5 10-25.5 6-24.5 6-24.5 5.5-15 5.5-15 .5-14 .5-14-19-2.5-19-2.5-5 2.5-5 2.5-23-4.5-23-4.5-24.5-3-24.5-3h-23.5-23.5v37 37 35.5 35.5 35.5 35.5 35.5 35.5 21 21" style="fill:#fffbe1;stroke:#fffbe1"/><path d="m100 441v1l1-.5 1-.5 1 .5 1 .5 2-1 2-1 1.5-.5 1.5-.5-1-1.5-1-1.5.5-1.5.5-1.5 1-1 1-1-1-2.5-1-2.5-1.5 1-1.5 1-.5-.5-.5-.5-.5.5-.5.5-.5.5-.5.5-.5.5-.5.5.5 1 .5 1-.5.5-.5.5v1 1l-.5.5-.5.5-.5 1-.5 1-.5 1.5-.5 1.5" style="fill:#ca8ddc;stroke:#ca8ddc"/><path d="m115 433l2 1v-1-1-.5-.5-1.5-1.5l-.5-1.5-.5-1.5.5-1.5.5-1.5.5-2 .5-2v-1-1l-1-.5-1-.5-1 1-1 1-.5.5-.5.5-.5.5-.5.5v1 1 1.5 1.5l-1 1-1 1 1 2.5 1 2.5 1-1.5 1-1.5.5.5.5.5v1.5 1.5.5.5" style="fill:#cf9e81;stroke:#cf9e81"/><path d="m551 433l1 1v-2-2l-.5-2-.5-2 1-2 1-2-1-1-1-1-1.5.5-1.5.5-.5 1.5-.5 1.5-1 1.5-1 1.5v2 2l1.5 1 1.5 1h1.5 1.5" style="fill:#f7c594;stroke:#f7c594"/><path d="m117 431v1l.5-1 .5-1 .5-1.5.5-1.5.5-1 .5-1-.5-.5-.5-.5.5-1.5.5-1.5.5-1 .5-1v-1-1l.5-1.5.5-1.5.5-1 .5-1v-2-2l-1.5 1.5-1.5 1.5-.5.5-.5.5v-1-1l-1 .5-1 .5-.5.5-.5.5v1.5 1.5l1 .5 1 .5v1 1l-.5 2-.5 2-.5 1.5-.5 1.5.5 1.5.5 1.5v1.5 1.5" style="fill:#b660a9;stroke:#b660a9"/><path d="m528 424v1l1-.5 1-.5 1-1 1-1v-1.5-1.5-1-1-1-1l.5-.5.5-.5.5-1 .5-1 .5-.5.5-.5v-1-1-1-1l-.5-1-.5-1v-1-1-1-1l.5-1.5.5-1.5 2.5-9.5 2.5-9.5-1.5-24-1.5-24 1.5-30 1.5-30-18-49-18-49 .5-1.5.5-1.5-2 .5-2 .5-1 1-1 1v1.5 1.5l-.5 2-.5 2 .5 1.5.5 1.5 1 1 1 1 .5 2 .5 2 .5 1.5.5 1.5v2.5 2.5l.5 1 .5 1 1.5 1 1.5 1 .5 1.5.5 1.5.5 1.5.5 1.5.5 2 .5 2v1 1l.5 2 .5 2v1 1l1 1.5 1 1.5.5 2.5.5 2.5.5 1 .5 1 .5 1 .5 1 .5.5.5.5.5.5.5.5v1.5 1.5l8 45.5 8 45.5-.5 25-.5 25-2.5 24-2.5 24" style="fill:#b56b5e;stroke:#b56b5e"/><path d="m321 421l45-6 6-21.5 6-21.5-21 8.5-21 8.5-7.5 16-7.5 16" style="fill:#2a204f;stroke:#2a204f"/><g style="fill:#cf9e81;stroke:#cf9e81"><path d="m119 412l1-1 1.5-1.5 1.5-1.5 18.5-39 18.5-39 3-31.5 3-31.5 10.5-24 10.5-24 10.5-25 10.5-25 13.5-22 13.5-22 14-21.5 14-21.5 16-19.5 16-19.5 22-12.5 22-12.5-29.5-1.5-29.5-1.5-33-.5-33-.5-32.5-1-32.5-1-42-1-42-1h-2-2-2-2-2.5-2.5-2-2-1.5-1.5l-22.5-1-22.5-1v2 2 1 1l38 8 38 8 24-1.5 24-1.5 21-.5 21-.5 23-3.5 23-3.5 21 2.5 21 2.5 16.5 8 16.5 8-14.5 20.5-14.5 20.5-13.5 22-13.5 22-14 21.5-14 21.5-9.5 25-9.5 25-11.5 24-11.5 24-5 24.5-5 24.5-1 19.5-1 19.5-16 13.5-16 13.5 1 14.5 1 14.5v1 1"/><path d="m541 411l1 1 1-.5 1-.5 8.5-7.5 8.5-7.5-8.5-25-8.5-25 1.5-25 1.5-25-6-28.5-6-28.5-12-23.5-12-23.5 10-21 10-21 4.5-30 4.5-30 8.5-11 8.5-11 22 7.5 22 7.5 16 2.5 16 2.5 16 7.5 16 7.5 14 7.5 14 7.5 9.5 10 9.5 10v-35.5-35.5-14.5-14.5h-1-1l-1-.5-1-.5-32-2-32-2-32-1.5-32-1.5-28.5-2-28.5-2-45.5-1.5-45.5-1.5 39.5 23.5 39.5 23.5 9.5 22.5 9.5 22.5-7.5 28-7.5 28-1 .5-1 .5h-1-1-1-1-1-1-1.5-1.5l18 50 18 50-1.5 30-1.5 30 1.5 24 1.5 24-2.5 9.5-2.5 9.5 1 .5 1 .5v1 1 1.5 1.5l.5.5.5.5.5.5.5.5.5.5.5.5.5 2 .5 2"/></g><path d="m395 349l45-24 9.5-26 9.5-26-5.5-28-5.5-28-18-15.5-18-15.5 18 3.5 18 3.5-2-26.5-2-26.5-12-23.5-12-23.5-25.5-9-25.5-9-14 14.5-14 14.5v17.5 17.5l19.5 16 19.5 16-20.5 14-20.5 14-25 5.5-25 5.5-2 29.5-2 29.5 13.5 20 13.5 20 18 15.5 18 15.5 23.5 4.5 23.5 4.5" style="fill:#6b1f40;stroke:#6b1f40"/><path d="m400 343l42-27 7-28.5 7-28.5-14-21.5-14-21.5-8-22.5-8-22.5 15.5-11 15.5-11-12-23.5-12-23.5-15 4.5-15 4.5 3 20.5 3 20.5-6 27.5-6 27.5 5.5 16 5.5 16 5.5 16 5.5 16-13.5 7-13.5 7-.5 14-.5 14-4.5 8-4.5 8 16 7 16 7" style="fill:#8e376c;stroke:#8e376c"/><path d="m398 336l42-27 6-29.5 6-29.5-16-18.5-16-18.5-7-24.5-7-24.5-1-1-1-1-3.5 26-3.5 26 1.5 2 1.5 2 1 1 1 1 1.5 1 1.5 1 .5 1.5.5 1.5.5 2 .5 2 .5 1.5.5 1.5 1 1 1 1 1-1.5 1-1.5 1-1 1-1v-.5-.5-1.5-1.5l1.5-.5 1.5-.5 1.5 1 1.5 1 1 1 1 1 1 1.5 1 1.5 1 1 1 1 1 1.5 1 1.5v2 2l-18 6-18 6 13.5 20 13.5 20-8.5 1-8.5 1 .5 1 .5 1 1.5.5 1.5.5.5 1.5.5 1.5.5.5.5.5 1 .5 1 .5 1 1 1 1 1 1.5 1 1.5 1 1 1 1-1 1.5-1 1.5-1.5.5-1.5.5-1.5-.5-1.5-.5h-1-1l-4 12-4 12" style="fill:#b660a9;stroke:#b660a9"/><path d="m408 312l3 1 1.5-.5 1.5-.5 1-1.5 1-1.5-1-1-1-1-1-1.5-1-1.5-1-1-1-1-1-.5-1-.5-.5-.5-.5-.5-.5-1.5-.5-1.5-1.5-.5-1.5-.5-.5-1-.5-1-.5 2.5-.5 2.5.5 2 .5 2 .5 1.5.5 1.5 1 1.5 1 1.5.5 1.5.5 1.5h1 1" style="fill:#b56b5e;stroke:#b56b5e"/><path d="m429 285l-19-38 7.5 16 7.5 16 2 3 2 3" style="fill:#ca8ddc;stroke:#ca8ddc"/><path d="m427 239l1 1v-2-2l-1-1.5-1-1.5-1-1-1-1-1-1.5-1-1.5-1-1-1-1-1.5-1-1.5-1-1.5.5-1.5.5v1.5 1.5l2.5.5 2.5.5 1 1 1 1v1.5 1.5l1 1 1 1 1.5 1 1.5 1 .5.5.5.5" style="fill:#b56b5e;stroke:#b56b5e"/><path d="m513 225l1 1-.5-2.5-.5-2.5-1-1.5-1-1.5v-1-1l-.5-2-.5-2v-1-1l-.5-2-.5-2-.5-1.5-.5-1.5-.5-1.5-.5-1.5-1.5-1-1.5-1-.5-1-.5-1-.5 1.5-.5 1.5.5.5.5.5.5 1.5.5 1.5v1.5 1.5 1 1 2 2 1.5 1.5l.5.5.5.5v1 1h1 1l1 1 1 1 1 .5 1 .5.5.5.5.5.5 1.5.5 1.5" style="fill:#8e376c;stroke:#8e376c"/><path d="m396 213l1 1 3.5-26 3.5-26-8.5 22-8.5 22 4.5 3.5 4.5 3.5" style="fill:#b56b5e;stroke:#b56b5e"/><path d="m567 180l3 1h2 2l.5-2 .5-2v-1-1l-.5-2-.5-2-1-1-1-1h-1.5-1.5l-1 1-1 1v2 2l-.5 2-.5 2 .5.5.5.5" style="fill:#f7c594;stroke:#f7c594"/><path d="m498 171l1 1 1-1 1-1 2-.5 2-.5-.5 1.5-.5 1.5h1.5 1.5 1 1 1 1 1 1l1-.5 1-.5 7-46 7-46v1.5 1.5h-1-1l-1-1-1-1-.5-.5-.5-.5-1-.5-1-.5-1.5-.5-1.5-.5h-1-1-1.5-1.5l-1.5-.5-1.5-.5h-1-1-1.5-1.5l-.5-1-.5-1-2.5-.5-2.5-.5 1.5 1 1.5 1h-2.5-2.5-1-1-2.5-2.5-2-2-2.5-2.5l-1.5-.5-1.5-.5h-2-2-2.5-2.5l-1 1-1 1v1.5 1.5l.5-1 .5-1 1-.5 1-.5h2.5 2.5l1 .5 1 .5h2 2 2.5 2.5 2 2l2 .5 2 .5h2 2 2 2 1 1 1.5 1.5l1.5.5 1.5.5.5-.5.5-.5 1 .5 1 .5h2 2l-20 7-20 7 3 13 3 13 15.5-3 15.5-3-1.5 26.5-1.5 26.5h-1.5-1.5-1.5-1.5-1.5-1.5l-1.5-.5-1.5-.5h-1-1l-.5-.5-.5-.5-.5-1-.5-1 .5-1.5.5-1.5.5-.5.5-.5-.5-1-.5-1-1-1-1-1-1-1-1-1-.5-.5-.5-.5-.5-1-.5-1 1 2 1 2 .5 2 .5 2-.5 1.5-.5 1.5.5 1.5.5 1.5.5 2 .5 2 1 1 1 1 .5 1.5.5 1.5" style="fill:#8e376c;stroke:#8e376c"/><path d="m503 165h3v-.5-.5l-2-.5-2-.5-1-1-1-1v-2.5-2.5-.5-.5l7-7 7-7v1.5 1.5l1.5-.5 1.5-.5.5.5.5.5.5.5.5.5.5.5.5.5.5 1 .5 1v1 1 1 1l-.5.5-.5.5-.5 1-.5 1v1.5 1.5h1.5 1.5v1 1l-.5 1.5-.5 1.5-2 .5-2 .5-2.5.5-2.5.5 1.5-26.5 1.5-26.5-15.5 3-15.5 3 3.5 15 3.5 15 .5 1 .5 1 .5.5.5.5 1 1 1 1 1 1 1 1 .5 1 .5 1-.5.5-.5.5-.5 1.5-.5 1.5.5 1 .5 1 .5.5.5.5h1 1l1.5.5 1.5.5" style="fill:#b56b5e;stroke:#b56b5e"/><path d="m506 164v1h1.5 1.5 1.5 1.5l2.5-.5 2.5-.5 2-.5 2-.5-.5-.5-.5-.5-1.5-.5-1.5-.5h-1-1l-.5-.5-.5-.5-1-.5-1-.5h-1-1-1-1l-.5-.5-.5-.5h-1-1l-1-.5-1-.5v1 1l-.5.5-.5.5-1 .5-1 .5 1 1 1 1 2 .5 2 .5" style="fill:#ca8ddc;stroke:#ca8ddc"/><path d="m520 162l1 1 .5-1.5.5-1.5v-1-1h-1.5-1.5-1.5-1.5l-1.5-.5-1.5-.5-1.5-.5-1.5-.5v-1-1-1-1l.5-.5.5-.5 1-.5 1-.5-.5-.5-.5-.5.5-.5.5-.5v-1-1l.5-1 .5-1v-1.5-1.5l-1.5 1-1.5 1-1 1.5-1 1.5.5 1.5.5 1.5-1.5 1-1.5 1-1 1-1 1-1.5 1-1.5 1-1 .5-1 .5v2.5 2.5l1-.5 1-.5.5-.5.5-.5v-1-1l1 .5 1 .5h1 1l.5.5.5.5h1 1 1 1l1 .5 1 .5.5.5.5.5h1 1l1.5.5 1.5.5" style="fill:#b660a9;stroke:#b660a9"/><path d="m513 157l3 1h1.5 1.5v-1.5-1.5l.5-1 .5-1 .5-.5.5-.5v-1-1-1-1l-.5-1-.5-1-.5-.5-.5-.5-.5-.5-.5-.5-.5-.5-.5-.5-1.5.5-1.5.5-.5 1-.5 1v1 1l-.5.5-.5.5.5.5.5.5-1 .5-1 .5-.5.5-.5.5v1 1 1 1l1.5.5 1.5.5" style="fill:#8e376c;stroke:#8e376c"/><path d="m500 155v1l1-.5 1-.5 1.5-1 1.5-1 1-1 1-1 1.5-1 1.5-1-.5-1.5-.5-1.5 1-1.5 1-1.5 1.5-1 1.5-1-7 7-7 7" style="fill:#cf9e81;stroke:#cf9e81"/><path d="m435 154l3 1 1.5-.5 1.5-.5v-2.5-2.5h-.5-.5l-.5 1-.5 1-2 .5-2 .5-1.5-.5-1.5-.5-1.5-.5-1.5-.5-1-1.5-1-1.5-1-1-1-1-1-1.5-1-1.5.5-1.5.5-1.5 1-1.5 1-1.5h2 2l2 .5 2 .5-10.5-12-10.5-12v13.5 13.5l11 7 11 7" style="fill:#b56b5e;stroke:#b56b5e"/><path d="m432 151l3 1 2-.5 2-.5.5-1 .5-1-.5-2-.5-2-1-1.5-1-1.5-.5-1.5-.5-1.5-1-1-1-1-2-.5-2-.5h-2-2l-1 1.5-1 1.5-.5 1.5-.5 1.5 1 1.5 1 1.5 1 1 1 1 1 1.5 1 1.5 1.5.5 1.5.5" style="fill:#b660a9;stroke:#b660a9"/><path d="m477 91l1 1 20-7 20-7v.5.5l-16.5 2.5-16.5 2.5h-2-2l-1.5-.5-1.5-.5-2-.5-2-.5-1-1-1-1v-1.5-1.5l3-.5 3-.5-1-.5-1-.5h-2.5-2.5l-1 .5-1 .5-.5 1-.5 1 1 2 1 2 1 1 1 1 1 1.5 1 1.5.5 1.5.5 1.5 1 .5 1 .5" style="fill:#b56b5e;stroke:#b56b5e"/><path d="m485 84l33-5-1.5.5-1.5.5h-1-1-1-1l-1.5-.5-1.5-.5h-1.5-1.5-2-2-1-1l-.5-.5-.5-.5-.5.5-.5.5h-1.5-1.5-1-1-1-1-1-1l-1-.5-1-.5h-1-1l-.5-.5-.5-.5-.5.5-.5.5h-1.5-1.5l-1.5-.5-1.5-.5h-2-2v1.5 1.5l1 1 1 1 2 .5 2 .5 1.5.5 1.5.5h2 2" style="fill:#cf9e81;stroke:#cf9e81"/><path d="m527 81h2v-1.5-1.5l-.5-1.5-.5-1.5h-1-1l-.5-.5-.5-.5h-1-1-1.5-1.5-1-1-1-1-1-1l-1-.5-1-.5h-1-1-1-1-1.5-1.5l.5 1 .5 1h1.5 1.5 1 1l1.5.5 1.5.5h1.5 1.5 1 1l1.5.5 1.5.5 1 .5 1 .5.5.5.5.5 1 1 1 1" style="fill:#6b1f40;stroke:#6b1f40"/><g style="fill:#b660a9;stroke:#b660a9"><path d="m508 79l3 1h1 1 1 1l1.5-.5 1.5-.5v-.5-.5h-2-2l-1-.5-1-.5-.5.5-.5.5-1.5-.5-1.5-.5h-1.5-1.5-1-1-2-2-2-2l-2-.5-2-.5h-2-2-2.5-2.5-2-2l-3 .5-3 .5h2 2l1.5.5 1.5.5h1.5 1.5l.5-.5.5-.5.5.5.5.5h1 1l1 .5 1 .5h1 1 1 1 1 1 1.5 1.5l.5-.5.5-.5.5.5.5.5h1 1 2 2 1.5 1.5"/><path d="m708 37l2 1v-.5-.5l-29.5-3-29.5-3-32.5-1.5-32.5-1.5-33.5-2-33.5-2-34-1.5-34-1.5-44.5-1-44.5-1 35 2 35 2 45.5 1.5 45.5 1.5 28.5 2 28.5 2 32 1.5 32 1.5 32 2 32 2"/></g><path d="m710 37v1h1 1v-2.5-2.5-2.5-2.5-2-2-2.5-2.5h-1-1-2-2-2.5-2.5-2-2l-1.5-.5-1.5-.5h-1.5-1.5-1-1-1.5-1.5-1-1-1-1-1-1-1.5-1.5l-.5-.5-.5-.5h-1-1l-.5-.5-.5-.5-1-.5-1-.5-.5-.5-.5-.5h-1-1l-.5-.5-.5-.5v-1-1l-.5-.5-.5-.5-.5-1-.5-1-.5-.5-.5-.5v-1-1-1-1-1.5-1.5h-36.5-36.5-35.5-35.5-9-9v1.5 1.5l-1 1.5-1 1.5-.5 1.5-.5 1.5-1 1.5-1 1.5-.5 1.5-.5 1.5-.5.5-.5.5-2.5-.5-2.5-.5h-1-1l-.5-1.5-.5-1.5-.5-2-.5-2 .5-1.5.5-1.5.5-2.5.5-2.5h-1.5-1.5-2.5-2.5-2-2-1.5-1.5l-11 6.5-11 6.5-24.5 1-24.5 1-20.5 2-20.5 2h.5.5l44.5 1 44.5 1 34 1.5 34 1.5 33.5 2 33.5 2 32.5 1.5 32.5 1.5 29.5 3 29.5 3" style="fill:#617bb9;stroke:#617bb9"/><g style="fill:#a3baed;stroke:#a3baed"><path d="m343 18l3 1h2 2 2.5 2.5 1.5 1.5 1.5 1.5l20.5-2 20.5-2 24.5-1 24.5-1 11-6.5 11-6.5h-35.5-35.5-35.5-35.5-35.5-35.5-35.5-35.5-35.5-35.5-35.5-35.5-23.5-23.5v3 3l32.5 2 32.5 2 42 1 42 1 32.5 1 32.5 1 33 .5 33 .5 29.5 1.5 29.5 1.5h2 2"/><path d="m694 18l3 1h2 2 2.5 2.5 2 2 1 1v-9.5-9.5h-24-24v1.5 1.5 1 1 1 1l.5.5.5.5.5 1 .5 1 .5.5.5.5v1 1l.5.5.5.5h1 1l.5.5.5.5 1 .5 1 .5.5.5.5.5h1 1l.5.5.5.5h1.5 1.5 1 1 1 1 1 1 1.5 1.5 1 1 1.5 1.5"/><path d="m495 16l1-1 .5-1.5.5-1.5 1-1.5 1-1.5.5-1.5.5-1.5 1-1.5 1-1.5v-1.5-1.5h-3-3-2-2-2-2l-.5 2.5-.5 2.5-.5 1.5-.5 1.5.5 2 .5 2 .5 1.5.5 1.5h1 1l2.5.5 2.5.5"/></g><path d="m45 10h3 2 2 2.5 2.5 2 2 2 2l-32.5-2-32.5-2v1 1l22.5 1 22.5 1" style="fill:#ca8ddc;stroke:#ca8ddc"/></g></svg>