<svg xmlns="http://www.w3.org/2000/svg" viewBox="0 0 712 960"><path d="m0 0h712v960h-712z" style="fill:#b8b6a8"/><g style="stroke-linejoin:round;stroke-width:.7"><path d="m0 959v1h1.5 1.5 2 2 2.5 2.5 2 2 2.5 2.5 2 2 2.5 2.5 1 1v-.5-.5l-1.5-18-1.5-18v-17-17l1-18 1-18 1-19 1-19 .5-16.5.5-16.5.5-16.5.5-16.5 1-18 1-18 1.5-15.5 1.5-15.5v-15.5-15.5l-.5-17.5-.5-17.5 1-15 1-15 2-14 2-14-.5-14.5-.5-14.5-.5-16.5-.5-16.5-2-15-2-15 .5-15.5.5-15.5 2-16 2-16 3.5-15.5 3.5-15.5 2.5-17.5 2.5-17.5 4-17.5 4-17.5-.5-.5-.5-.5-31.5-8-31.5-8v21.5 21.5 20 20 20 20 20 20 20 20 20 20 20 20 20 20 20 20 20 20 20 20 20 20 19.5 19.5 20 20 20 20 20 20 16 16" style="fill:#703d1d;stroke:#703d1d"/><path d="m32 959v1h1.5 1.5 2 2 1.5 1.5v-.5-.5l-5-9-5-9 4.5-13.5 4.5-13.5-2-12-2-12h-2-2l-1-.5-1-.5-.5-.5-.5-.5 2-24.5 2-24.5v-2-2-2.5-2.5l.5-1.5.5-1.5v-2-2l.5-1 .5-1-.5-.5-.5-.5 2.5-15.5 2.5-15.5 1.5-15.5 1.5-15.5 2.5-17.5 2.5-17.5 2-18 2-18 1.5-18.5 1.5-18.5 1.5-18.5 1.5-18.5 2-18 2-18 .5-18 .5-18-3-16-3-16-3-17-3-17v-17-17l2.5-17.5 2.5-17.5 2.5-17.5 2.5-17.5 4.5-13.5 4.5-13.5-3-21-3-21-4 17.5-4 17.5-2.5 17.5-2.5 17.5-3.5 15.5-3.5 15.5-2 16-2 16-.5 15.5-.5 15.5 2 15 2 15 .5 16.5.5 16.5.5 14.5.5 14.5-2 14-2 14-1 15-1 15 .5 17.5.5 17.5v15.5 15.5l-1.5 15.5-1.5 15.5-1 18-1 18-.5 16.5-.5 16.5-.5 16.5-.5 16.5-1 19-1 19-1 18-1 18v17 17l1.5 18 1.5 18" style="fill:#9d6140;stroke:#9d6140"/><path d="m42 959v1h1.5 1.5 2 2 2.5 2.5.5.5v-.5-.5l-9.5-2.5-9.5-2.5-2-12-2-12 11-7 11-7 1-9 1-9-9.5-4-9.5-4 2 12 2 12-4.5 13.5-4.5 13.5 5 9 5 9" style="fill:#989583;stroke:#989583"/><path d="m55 959v1h21.5 21.5 20 20 20 20 5.5 5.5v-.5-.5l-12.5-.5-12.5-.5h19 19 20 20 20 20l-3.5.5-3.5.5h-20-20l-22 .5-22 .5h20 20 20 20 20 20 20 20 20 20 20 20 20 20 20 20 20 20 20 20 12 12v-.5-.5l-.5-1-.5-1-1-12-1-12 1-13 1-13-2.5-11.5-2.5-11.5-5-12-5-12 2-14 2-14-5-11-5-11-2-14-2-14-1.5-14.5-1.5-14.5-2-14-2-14-2-14-2-14-2.5-13.5-2.5-13.5 2-10 2-10-1.5-10.5-1.5-10.5 7.5-1.5 7.5-1.5 3-9 3-9-1-14-1-14 3-15 3-15 3-17 3-17-1-17-1-17v-19-19l-4-14-4-14-3 2-3 2 1.5-5.5 1.5-5.5-10 6-10 6 .5 2.5.5 2.5v2 2l-.5 2-.5 2-.5 1.5-.5 1.5.5 1 .5 1 1-.5 1-.5 5.5-4 5.5-4 2 21.5 2 21.5 1 12 1 12 2-15 2-15-1.5-3.5-1.5-3.5 2-16 2-16 3 7.5 3 7.5-.5 16.5-.5 16.5 1 17 1 17-3 17-3 17-4 15-4 15 1 16 1 16h-6-6l-2.5 6.5-2.5 6.5-4 5-4 5-.5 4.5-.5 4.5-13.5 1.5-13.5 1.5-11 9-11 9-7 3-7 3-6.5 9.5-6.5 9.5-5.5 14.5-5.5 14.5-13 6-13 6-12 6-12 6-22.5 15-22.5 15-10-11.5-10-11.5-8.5-10.5-8.5-10.5-10-10-10-10-5-13.5-5-13.5 1-15 1-15-6.5-6.5-6.5-6.5-13.5 5.5-13.5 5.5-13.5-5.5-13.5-5.5-8.5-11.5-8.5-11.5-5.5-13.5-5.5-13.5-4-14-4-14-12-5-12-5-3.5-15.5-3.5-15.5-5-14-5-14-9.5-10.5-9.5-10.5-6-14-6-14-14 2-14 2 .5-16.5.5-16.5 3.5-16.5 3.5-16.5-1-15-1-15-3-14-3-14-2-4-2-4-4.5-15.5-4.5-15.5-4.5-15.5-4.5-15.5-2.5-17.5-2.5-17.5.5-15.5.5-15.5 5.5-19 5.5-19 8-12 8-12 10-10 10-10 11-9 11-9 12.5-7.5 12.5-7.5 13-7 13-7 12.5-5.5 12.5-5.5 1.5-1 1.5-1 1.5-1 1.5-1h1.5 1.5v-.5-.5l1-.5 1-.5 1.5-.5 1.5-.5 1-1 1-1 2-.5 2-.5 1.5-.5 1.5-.5 1.5-1 1.5-1 1.5-.5 1.5-.5 2-.5 2-.5 2.5-.5 2.5-.5 16.5-3 16.5-3 17.5-1.5 17.5-1.5 19 1 19 1 16.5 3.5 16.5 3.5 19.5 7 19.5 7-13.5-6.5-13.5-6.5-14.5-4-14.5-4-15.5-1.5-15.5-1.5-8-7.5-8-7.5h-21-21-20-20-20-20-20-20-20-20-20-20-20-20-20-20-12.5-12.5v7.5 7.5 20 20 20 20 20 20 12 12l7 14 7 14 7.5 11.5 7.5 11.5 5 9 5 9 5.5 12.5 5.5 12.5 5 15 5 15 4.5 15.5 4.5 15.5 3 14 3 14-1 14-1 14h3.5 3.5l-9 5.5-9 5.5-2.5 17.5-2.5 17.5-2 18-2 18 1.5 18.5 1.5 18.5 3.5 16.5 3.5 16.5 1 17 1 17 1 9 1 9 1 8 1 8 .5 2.5.5 2.5 4.5 5.5 4.5 5.5-7.5 4.5-7.5 4.5 1 5 1 5 2.5-7.5 2.5-7.5 3.5 7.5 3.5 7.5-4.5 11-4.5 11 1.5 9.5 1.5 9.5-4.5 7.5-4.5 7.5v10 10l-4 15-4 15-1.5 15.5-1.5 15.5-.5 15.5-.5 15.5-7.5 14-7.5 14-.5 1-.5 1v2 2l-.5 1.5-.5 1.5v2.5 2.5 2 2l12 4 12 4-3.5 10-3.5 10-10 9-10 9 1-.5 1-.5 1-.5 1-.5 1.5-.5 1.5-.5h1 1 1 1 1 1 1.5 1.5l.5.5.5.5v1 1l-.5.5-.5.5-1 .5-1 .5h-1-1l-.5.5-.5.5-.5.5-.5.5h-1.5-1.5-1-1-1-1-1.5-1.5l1 .5 1 .5h2 2l9.5 4 9.5 4-1 9-1 9-11 7-11 7 2 12 2 12 9.5 2.5 9.5 2.5" style="fill:#b8b6a8;stroke:#b8b6a8"/><path d="m189 959v1h1 1l22-.5 22-.5h20 20l3.5-.5 3.5-.5h-20-20-20-20-19-19l12.5.5 12.5.5" style="fill:#989583;stroke:#989583"/><path d="m615 959v1h21.5 21.5 10.5 10.5v-.5-.5l-6.5-3.5-6.5-3.5 1.5-17.5 1.5-17.5 6-7 6-7h-5-5l-.5-19.5-.5-19.5-1-19-1-19 7.5-4.5 7.5-4.5-8-10-8-10-.5-10.5-.5-10.5-4-16-4-16-1.5-17.5-1.5-17.5-2-16-2-16-1-17-1-17-2-18-2-18-2.5-16.5-2.5-16.5-3-17-3-17-3-14.5-3-14.5-3-16-3-16 3-9 3-9 11.5-4.5 11.5-4.5-11.5-7.5-11.5-7.5 2.5-2.5 2.5-2.5 8 7 8 7 1.5-16.5 1.5-16.5-2.5-17.5-2.5-17.5-3.5-16.5-3.5-16.5-4-2-4-2-5 14-5 14v-13-13l1.5-12.5 1.5-12.5-1.5-13.5-1.5-13.5-8-12-8-12-5.5-12.5-5.5-12.5-1-15-1-15 10-4 10-4 14 3 14 3 4-3 4-3v-8-8l-6.5-9.5-6.5-9.5-5-8-5-8-8.5-10.5-8.5-10.5-7.5-12.5-7.5-12.5-8-11-8-11 2-10 2-10 13 2.5 13 2.5 10 9 10 9 9 11 9 11 9.5 9.5 9.5 9.5-1 17-1 17-2.5 15.5-2.5 15.5v11 11l3-17 3-17 3-17 3-17 3.5-16.5 3.5-16.5-1.5-9.5-1.5-9.5-.5-15.5-.5-15.5 3-15 3-15 2-14 2-14-4.5-3.5-4.5-3.5h-1.5-1.5-1-1l-.5 16-.5 16 .5 14.5.5 14.5-4 14-4 14-8.5-9.5-8.5-9.5 4.5-6.5 4.5-6.5-10.5-4.5-10.5-4.5-5.5-10.5-5.5-10.5-1-13.5-1-13.5h-20-20-20-20-20-20-20-20-20-20-20-20-16-16l8 7.5 8 7.5 15.5 1.5 15.5 1.5 14.5 4 14.5 4 13.5 6.5 13.5 6.5 11 9 11 9 9 11 9 11 7.5 12 7.5 12 8 8 8 8 8.5.5 8.5.5 6.5 2.5 6.5 2.5 6.5 3.5 6.5 3.5 6.5 11.5 6.5 11.5-4 9-4 9 2 15 2 15 4 24.5 4 24.5 1 1 1 1 .5 1.5.5 1.5 1 1.5 1 1.5.5 1.5.5 1.5 1 1.5 1 1.5.5 1.5.5 1.5 1 1.5 1 1.5.5 1.5.5 1.5.5 1 .5 1 5 15 5 15-3.5 15-3.5 15-3 12-3 12 4.5 9.5 4.5 9.5-6 6-6 6-7-7-7-7-4.5-4.5-4.5-4.5 3 25 3 25 .5 1 .5 1 10-6 10-6-1.5 5.5-1.5 5.5 3-2 3-2 4 14 4 14v19 19l1 17 1 17-3 17-3 17-3 15-3 15 1 14 1 14-3 9-3 9-7.5 1.5-7.5 1.5 1.5 10.5 1.5 10.5-2 10-2 10 2.5 13.5 2.5 13.5 2 14 2 14 2 14 2 14 1.5 14.5 1.5 14.5 2 14 2 14 5 11 5 11-2 14-2 14 5 12 5 12 2.5 11.5 2.5 11.5-1 13-1 13 1 12 1 12 .5 1 .5 1" style="fill:#faf5e2;stroke:#faf5e2"/><path d="m679 959v1h.5.5v-.5-.5l1-1 1-1 .5-2.5.5-2.5v-.5-.5-1.5-1.5l-1-1-1-1-2-.5-2-.5-1 1-1 1h-1.5-1.5v-2-2-2.5-2.5l.5-1.5.5-1.5 2 .5 2 .5 1.5.5 1.5.5 1.5 1.5 1.5 1.5h1 1l1-1.5 1-1.5v-2-2l.5-2 .5-2 .5-1.5.5-1.5v-2.5-2.5-2-2l.5-2 .5-2v-2-2-2-2-.5-.5l-7-8-7-8 7-9 7-9-3-17-3-17 .5-17.5.5-17.5-4-5-4-5-1-9-1-9v-5-5-9-9l1-2 1-2-5-5-5-5 1.5-.5 1.5-.5-3.5-7.5-3.5-7.5-1.5.5-1.5.5-.5-8.5-.5-8.5 3-1.5 3-1.5v-12-12l-2-14-2-14-1.5-16.5-1.5-16.5-1.5-17.5-1.5-17.5-2.5-17.5-2.5-17.5-1.5-18.5-1.5-18.5 2.5-16.5 2.5-16.5 1.5-16.5 1.5-16.5-1-19-1-19-3-17-3-17-3-17-3-17-4-4-4-4-.5-16.5-.5-16.5 1-11 1-11 6 10 6 10 3.5-16.5 3.5-16.5 3-17 3-17 3-17 3-17 3-17 3-17 5.5-14.5 5.5-14.5 2 2 2 2-2.5 13-2.5 13-1.5 11.5-1.5 11.5-1.5 12.5-1.5 12.5 4.5 7.5 4.5 7.5-4.5 11.5-4.5 11.5 2 18 2 18h2.5 2.5l2-.5 2-.5 1.5-.5 1.5-.5 2-.5 2-.5 1.5-.5 1.5-.5 2-.5 2-.5 1.5-.5 1.5-.5 2-1 2-1 1.5-.5 1.5-.5v-21.5-21.5-20-20-20-20-20-20-20-20-20-20-12.5-12.5h-7.5-7.5-11.5-11.5l4.5 3.5 4.5 3.5-2 14-2 14-3 15-3 15 .5 15.5.5 15.5 1.5 9.5 1.5 9.5-3.5 16.5-3.5 16.5-3 17-3 17-3 17-3 17v-11-11l2.5-15.5 2.5-15.5 1-17 1-17-9.5-9.5-9.5-9.5-9-11-9-11-10-9-10-9-13-2.5-13-2.5-2 10-2 10 8 11 8 11 7.5 12.5 7.5 12.5 8.5 10.5 8.5 10.5 5 8 5 8 6.5 9.5 6.5 9.5v8 8l-4 3-4 3-14-3-14-3-10 4-10 4 1 15 1 15 5.5 12.5 5.5 12.5 8 12 8 12 1.5 13.5 1.5 13.5-1.5 12.5-1.5 12.5v13 13l5-14 5-14 4 2 4 2 3.5 16.5 3.5 16.5 2.5 17.5 2.5 17.5-1.5 16.5-1.5 16.5-8-7-8-7-2.5 2.5-2.5 2.5 11.5 7.5 11.5 7.5-11.5 4.5-11.5 4.5-3 9-3 9 3 16 3 16 3 14.5 3 14.5 3 17 3 17 2.5 16.5 2.5 16.5 2 18 2 18 1 17 1 17 2 16 2 16 1.5 17.5 1.5 17.5 4 16 4 16 .5 10.5.5 10.5 8 10 8 10-7.5 4.5-7.5 4.5 1 19 1 19 .5 19.5.5 19.5h5 5l-6 7-6 7-1.5 17.5-1.5 17.5 6.5 3.5 6.5 3.5" style="fill:#b8b6a8;stroke:#b8b6a8"/><path d="m680 959v1h1.5 1.5.5.5v-.5-.5l4-16 4-16 2-17 2-17v-16-16l-.5-16.5-.5-16.5.5-18.5.5-18.5-1.5-18.5-1.5-18.5-1.5-15.5-1.5-15.5-2-16-2-16-1.5-16.5-1.5-16.5-1-18-1-18v-13-13l2.5-15.5 2.5-15.5-2.5-14.5-2.5-14.5-3-15-3-15-1-14-1-14 2.5-12.5 2.5-12.5.5-13.5.5-13.5-1-12-1-12-4.5-13.5-4.5-13.5-4.5-14-4.5-14-7-23.5-7-23.5-1 16-1 16 3.5 16.5 3.5 16.5 2.5 17.5 2.5 17.5.5 16.5.5 16.5-.5 17.5-.5 17.5-2.5 15.5-2.5 15.5.5 15.5.5 15.5 2.5 16.5 2.5 16.5 1 18 1 18 2.5 17.5 2.5 17.5 2 17 2 17 3 17 3 17 2.5 17 2.5 17 3 17 3 17 1.5 18.5 1.5 18.5 1 19 1 19 .5 30 .5 30v2 2 2 2l-.5 2-.5 2v2 2 2.5 2.5l-.5 1.5-.5 1.5-.5 2-.5 2v2 2l-1 1.5-1 1.5.5 1.5.5 1.5-1 1-1 1v2.5 2.5l-.5 1-.5 1-.5 2.5-.5 2.5-1 1-1 1" style="fill:#9d6140;stroke:#9d6140"/><path d="m684 959v1h14 14v-7.5-7.5-20-20-20-20-20-20-20-20-20-20-20-20-20-20-20-20-19.5-19.5-20-20-20-20-20-20-20-20-20-20-20-20-20-20-.5-.5l-1-5-1-5-6.5 15.5-6.5 15.5 2-8 2-8 2.5-2 2.5-2-4-3-4-3-3-5-3-5 10-6 10-6v-2.5-2.5-2.5-2.5l-1.5.5-1.5.5-30 6.5-30 6.5-.5 1-.5 1v1.5 1.5l-.5 2-.5 2-.5 1.5-.5 1.5-.5 3-.5 3 7 23.5 7 23.5 4.5 14 4.5 14 4.5 13.5 4.5 13.5 1 12 1 12-.5 13.5-.5 13.5-2.5 12.5-2.5 12.5 1 14 1 14 3 15 3 15 2.5 14.5 2.5 14.5-2.5 15.5-2.5 15.5v13 13l1 18 1 18 1.5 16.5 1.5 16.5 2 16 2 16 1.5 15.5 1.5 15.5 1.5 18.5 1.5 18.5-.5 18.5-.5 18.5.5 16.5.5 16.5v16 16l-2 17-2 17-4 16-4 16" style="fill:#703d1d;stroke:#703d1d"/><path d="m683 951v1l.5-1 .5-1v-2.5-2.5l1-1 1-1-.5-1.5-.5-1.5h-1-1l-.5 1-.5 1-.5 1-.5 1-1.5-.5-1.5-.5-1.5-.5-1.5-.5-1-1-1-1v-1-1-1.5-1.5l-.5 1.5-.5 1.5v2.5 2.5 2 2h1.5 1.5l1-1 1-1 2 .5 2 .5 1 1 1 1v1.5 1.5" style="fill:#989583;stroke:#989583"/><path d="m681 944l1-2 .5-1 .5-1-1.5-1.5-1.5-1.5-1.5-.5-1.5-.5-2-.5-2-.5v1.5 1.5 1 1l1 1 1 1 1.5.5 1.5.5 1.5.5 1.5.5" style="fill:#9d6140;stroke:#9d6140"/><path d="m684 937l-2-12 .5 5.5.5 5.5.5.5.5.5" style="fill:#faf5e2;stroke:#faf5e2"/><g style="fill:#989583;stroke:#989583"><path d="m690 904v1l-.5-30-.5-30-1-19-1-19-1.5-18.5-1.5-18.5-3-17-3-17-2.5-17-2.5-17-3-17-3-17-2-17-2-17-2.5-17.5-2.5-17.5-1-18-1-18-2.5-16.5-2.5-16.5-.5-15.5-.5-15.5 2.5-15.5 2.5-15.5.5-17.5.5-17.5-.5-16.5-.5-16.5-2.5-17.5-2.5-17.5-3.5-16.5-3.5-16.5 1-16 1-16 .5-3 .5-3 .5-1.5.5-1.5.5-2 .5-2v-1.5-1.5l.5-1 .5-1v-.5-.5l1-1 1-1 .5-.5.5-.5h1 1l.5.5.5.5h1 1l1 .5 1 .5h1 1l.5-.5.5-.5h1 1 1.5 1.5 1 1 1 1l.5-.5.5-.5h1.5 1.5 1 1l1-.5 1-.5-2-18-2-18 4.5-11.5 4.5-11.5-4.5-7.5-4.5-7.5 1.5-12.5 1.5-12.5 1.5-11.5 1.5-11.5 2.5-13 2.5-13-2-2-2-2-5.5 14.5-5.5 14.5-3 17-3 17-3 17-3 17-3 17-3 17-3.5 16.5-3.5 16.5-6-10-6-10-1 11-1 11 .5 16.5.5 16.5 4 4 4 4 3 17 3 17 3 17 3 17 1 19 1 19-1.5 16.5-1.5 16.5-2.5 16.5-2.5 16.5 1.5 18.5 1.5 18.5 2.5 17.5 2.5 17.5 1.5 17.5 1.5 17.5 1.5 16.5 1.5 16.5 2 14 2 14v12 12l-3 1.5-3 1.5.5 8.5.5 8.5 1.5-.5 1.5-.5 3.5 7.5 3.5 7.5-1.5.5-1.5.5 5 5 5 5-1 2-1 2v9 9 5 5l1 9 1 9 4 5 4 5-.5 17.5-.5 17.5 3 17 3 17-7 9-7 9 7 8 7 8"/><path d="m30 888l1 1v-.5-.5-1.5-1.5l10-9 10-9 3.5-10 3.5-10-12-4-12-4-2 24.5-2 24.5"/></g><g style="fill:#faf5e2;stroke:#faf5e2"><path d="m31 888v1h1.5 1.5 1 1 1 1 1.5 1.5l.5-.5.5-.5.5-.5.5-.5h1 1l1-.5 1-.5.5-.5.5-.5v-1-1l-.5-.5-.5-.5h-1.5-1.5-1-1-1-1-1-1l-1.5.5-1.5.5-1 .5-1 .5-1 .5-1 .5v1.5 1.5"/><path d="m673 879l14-22-7.5 3.5-7.5 3.5.5 7.5.5 7.5"/></g><g style="fill:#989583;stroke:#989583"><path d="m525 871l-1-17-6-4-6-4-1.5 4.5-1.5 4.5 5 6 5 6 3 2 3 2"/><path d="m507 865l-9-13 2 4 2 4 2.5 2.5 2.5 2.5"/><path d="m35 820l1 1 7.5-14 7.5-14 .5-15.5.5-15.5 1.5-15.5 1.5-15.5 4-15 4-15v-10-10l4.5-7.5 4.5-7.5-1.5-9.5-1.5-9.5 4.5-11 4.5-11-3.5-7.5-3.5-7.5-2.5 7.5-2.5 7.5-1-5-1-5 7.5-4.5 7.5-4.5-4.5-5.5-4.5-5.5-.5-2.5-.5-2.5-1-8-1-8-1-9-1-9-1-17-1-17-3.5-16.5-3.5-16.5-1.5-18.5-1.5-18.5 2-18 2-18 2.5-17.5 2.5-17.5 9-5.5 9-5.5 1 .5 1 .5.5 1 .5 1 .5.5.5.5v1 1l-.5.5-.5.5h-1.5-1.5-1-1l-.5.5-.5.5h-1-1-1-1-1.5-1.5-1-1-1-1l-1.5-.5-1.5-.5-.5-1-.5-1 .5-1.5.5-1.5 2-.5 2-.5h2 2l1-.5 1-.5 1-14 1-14-3-14-3-14-4.5-15.5-4.5-15.5-5-15-5-15-5.5-12.5-5.5-12.5-5-9-5-9-7.5-11.5-7.5-11.5-7-14-7-14v2.5 2.5 2 2 2.5 2.5 2 2 2.5 2.5 2 2l5.5 13.5 5.5 13.5 6 13 6 13 3.5 9.5 3.5 9.5-3 14.5-3 14.5h-2.5-2.5l-1.5-.5-1.5-.5-2-.5-2-.5h-2.5-2.5l28.5 8.5 28.5 8.5 3 21 3 21-4.5 13.5-4.5 13.5-2.5 17.5-2.5 17.5-2.5 17.5-2.5 17.5v17 17l3 17 3 17 3 16 3 16-.5 18-.5 18-2 18-2 18-1.5 18.5-1.5 18.5-1.5 18.5-1.5 18.5-2 18-2 18-2.5 17.5-2.5 17.5-1.5 15.5-1.5 15.5-2.5 15.5-2.5 15.5"/><path d="m383 767l45-30 12-6 12-6 13-6 13-6 5.5-14.5 5.5-14.5 6.5-9.5 6.5-9.5 7-3 7-3 11-9 11-9 13.5-1.5 13.5-1.5.5-4.5.5-4.5 4-5 4-5 2.5-6.5 2.5-6.5h6 6l-1-16-1-16 4-15 4-15 3-17 3-17-1-17-1-17 .5-16.5.5-16.5-3-7.5-3-7.5-2 16-2 16 1.5 3.5 1.5 3.5-2 15-2 15-1-12-1-12-4 22-4 22-.5 1.5-.5 1.5-.5.5-.5.5-.5.5-.5.5-.5.5-.5.5-.5 1-.5 1-.5.5-.5.5-.5.5-.5.5v1.5 1.5l6-8 6-8 5-10 5-10 3 2 3 2-3.5 22.5-3.5 22.5-.5 1-.5 1-.5 1.5-.5 1.5-1 1.5-1 1.5-.5 1.5-.5 1.5-1 1.5-1 1.5-.5 1.5-.5 1.5-.5 2-.5 2 .5 21 .5 21h-10-10l-8.5 4.5-8.5 4.5-10 10-10 10-16 2-16 2-4 15-4 15-5 15-5 15-15.5 4.5-15.5 4.5-12 8-12 8-16.5 9-16.5 9-7.5-12.5-7.5-12.5-18-17.5-18-17.5-.5-1.5-.5-1.5-.5-1-.5-1-.5-.5-.5-.5v-1.5-1.5l-1-1-1-1-.5-.5-.5-.5-.5-1-.5-1v-2-2l-.5-.5-.5-.5-.5-1-.5-1-.5-1.5-.5-1.5.5-1.5.5-1.5v-1-1l-1-1-1-1-.5-.5-.5-.5v-19.5-19.5l-21.5 5.5-21.5 5.5-2-.5-2-.5-1.5-.5-1.5-.5-.5-.5-.5-.5-.5-.5-.5-.5-1.5-.5-1.5-.5-8-11-8-11-10.5-20.5-10.5-20.5-.5-1-.5-1v-1-1-1.5-1.5l-.5-.5-.5-.5v-1-1l-.5-.5-.5-.5v-1-1l-.5-1-.5-1v-1-1l-.5-1.5-.5-1.5-1-1.5-1-1.5h-1-1-1-1l-.5-.5-.5-.5-1 .5-1 .5v1 1l-.5.5-.5.5h-1-1-1-1l-1 .5-1 .5h-1-1l-.5-.5-.5-.5h-1-1-1-1l-.5-1-.5-1-.5-.5-.5-.5v-1-1l-.5-1.5-.5-1.5-.5-1-.5-1v-1-1l-.5-1-.5-1 .5-.5.5-.5-.5-.5-.5-.5v-1-1l-.5-1-.5-1-1-1-1-1v-1-1-1.5-1.5l-.5-2-.5-2-.5-1-.5-1v-1-1-1-1l-.5-1-.5-1v-1-1l-.5-.5-.5-.5v-1-1l-.5-1-.5-1-.5-1.5-.5-1.5v-1-1l-.5-.5-.5-.5-.5-.5-.5-.5v-1.5-1.5l-.5-.5-.5-.5-.5-.5-.5-.5v-1-1l-1-1-1-1-.5-.5-.5-.5-6-14-6-14 9.5-5.5 9.5-5.5 11.5 8.5 11.5 8.5-7-16.5-7-16.5v-.5-.5l-1.5-1-1.5-1-1-1-1-1-1.5-1-1.5-1h-2-2-2-2-2.5-2.5l-1.5.5-1.5.5h-2-2-1.5-1.5l.5 2 .5 2v2 2l-.5 2-.5 2h-1-1l-1.5-.5-1.5-.5h-1.5-1.5-1.5-1.5l-1 .5-1 .5-1.5 1-1.5 1-1.5.5-1.5.5-1.5.5-1.5.5-1 1-1 1-1.5.5-1.5.5-.5.5-.5.5h-1.5-1.5l-1.5.5-1.5.5-1.5 1-1.5 1-1.5.5-1.5.5-2 1-2 1-1.5.5-1.5.5-2-.5-2-.5 2-15 2-15 5.5-14 5.5-14-2.5-16.5-2.5-16.5-7.5-17.5-7.5-17.5-.5-1.5-.5-1.5-.5-1-.5-1 6 3.5 6 3.5-.5-1-.5-1-.5-.5-.5-.5-.5-1-.5-1-.5-1.5-.5-1.5-.5-.5-.5-.5-.5-1-.5-1-.5-1.5-.5-1.5-.5-1.5-.5-1.5-.5-.5-.5-.5-.5-1-.5-1-.5-1.5-.5-1.5v-1-1l-.5-1-.5-1-.5-1.5-.5-1.5-.5-.5-.5-.5v-1.5-1.5-.5-.5l-8-17.5-8-17.5v-.5-.5l-4-17-4-17 1-16 1-16-.5-.5-.5-.5v-2-2l.5-1.5.5-1.5.5-2 .5-2 .5-1.5.5-1.5 1-1.5 1-1.5v-2-2l1-1.5 1-1.5.5-1.5.5-1.5 1-2 1-2-5.5 19-5.5 19-.5 15.5-.5 15.5 2.5 17.5 2.5 17.5 4.5 15.5 4.5 15.5 4.5 15.5 4.5 15.5 2 4 2 4 3 14 3 14 1 15 1 15-3.5 16.5-3.5 16.5-.5 16.5-.5 16.5 14-2 14-2 6 14 6 14 9.5 10.5 9.5 10.5 5 14 5 14 3.5 15.5 3.5 15.5 12 5 12 5 4 14 4 14 5.5 13.5 5.5 13.5 8.5 11.5 8.5 11.5 13.5 5.5 13.5 5.5 13.5-5.5 13.5-5.5 6.5 6.5 6.5 6.5-1 15-1 15 5 13.5 5 13.5 10 10 10 10 8.5 10.5 8.5 10.5 10 11.5 10 11.5"/></g><path d="m392 742l33-18 12-8 12-8 15.5-4.5 15.5-4.5 5-15 5-15 4-15 4-15 16-2 16-2 10-10 10-10 8.5-4.5 8.5-4.5h10 10l-.5-21-.5-21 .5-2 .5-2 .5-1.5.5-1.5 1-1.5 1-1.5.5-1.5.5-1.5 1-1.5 1-1.5.5-1.5.5-1.5.5-1 .5-1 1-16.5 1-16.5-12 20.5-12 20.5 6.5-13.5 6.5-13.5-6 3-6 3v-1.5-1.5l.5-.5.5-.5.5-.5.5-.5.5-1 .5-1 .5-.5.5-.5.5-.5.5-.5.5-.5.5-.5.5-1.5.5-1.5v-.5-.5l.5-1.5.5-1.5-1-1-1-1-1.5-.5-1.5-.5.5-2 .5-2 1-1 1-1 .5-2 .5-2 .5-1.5.5-1.5-2-.5-2-.5-1.5-.5-1.5-.5.5-1.5.5-1.5v-1.5-1.5l1-.5 1-.5.5-1.5.5-1.5.5-.5.5-.5.5-1 .5-1 .5-1.5.5-1.5.5-1 .5-1 .5-2 .5-2v-2.5-2.5l.5-1 .5-1v-.5-.5l-6-7.5-6-7.5-1-9-1-9-5-12-5-12-5.5 12.5-5.5 12.5.5-17.5.5-17.5v1.5 1.5l-1 .5-1 .5-1.5-.5-1.5-.5-1-1.5-1-1.5-1-1.5-1-1.5v-1-1l-1-1.5-1-1.5-1-1-1-1-1.5-1-1.5-1-.5-1.5-.5-1.5 1-1 1-1 .5-1 .5-1 1-.5 1-.5h1 1l1.5 1 1.5 1 .5 1.5.5 1.5-.5 2-.5 2 .5 1.5.5 1.5-.5 2-.5 2 1 1 1 1 1-2 1-2v-1.5-1.5l.5-1.5.5-1.5.5-2 .5-2 .5-1.5.5-1.5.5-2 .5-2 .5-1.5.5-1.5.5-2 .5-2 .5-1 .5-1v-.5-.5l3-8 3-8 17-14 17-14-3-11-3-11-13.5 2-13.5 2-14.5 4.5-14.5 4.5-13 7-13 7-13 7-13 7-12 8-12 8-11.5 6.5-11.5 6.5-12 6.5-12 6.5h1.5 1.5 2 2l1.5-.5 1.5-.5 1.5-1 1.5-1 1.5-.5 1.5-.5 2-.5 2-.5 1.5 1 1.5 1-9 10-9 10-4.5 16.5-4.5 16.5v-2-2l.5-2 .5-2v-2-2l-.5-.5-.5-.5v-1-1-1-1-2-2l-1-.5-1-.5-.5.5-.5.5-.5 1-.5 1-1 .5-1 .5h-1-1l-7.5 7-7.5 7-11.5 6-11.5 6-1-1.5-1-1.5 1-1 1-1-1-.5-1-.5-.5 1.5-.5 1.5-1.5-1.5-1.5-1.5-15.5 3-15.5 3 1 1 1 1-1 1-1 1-1 1-1 1-1 1.5-1 1.5-.5-1.5-.5-1.5-1 .5-1 .5-1.5.5-1.5.5-1-.5-1-.5-.5.5-.5.5-.5.5-.5.5-1-1.5-1-1.5-.5.5-.5.5-.5 1-.5 1 .5.5.5.5 1.5.5 1.5.5v1.5 1.5h-1-1l-.5.5-.5.5-.5.5-.5.5-.5.5-.5.5-.5-1-.5-1-.5.5-.5.5-.5.5-.5.5h-1-1l-.5.5-.5.5-1-.5-1-.5-.5.5-.5.5-1-.5-1-.5-1-1-1-1-1.5-1-1.5-1-1-1-1-1-1-1-1-1h-1-1l-.5-1-.5-1 .5-1.5.5-1.5.5-.5.5-.5h1.5 1.5l2-.5 2-.5 1-1 1-1 1-1 1-1h1 1l1-.5 1-.5h1.5 1.5v-.5-.5l-7-2-7-2-15.5-.5-15.5-.5-9-11-9-11-2 8-2 8v.5.5l1-1 1-1h1 1v1.5 1.5l.5.5.5.5.5.5.5.5v1 1l.5-1 .5-1 .5-1.5.5-1.5v1 1l.5.5.5.5 1 1 1 1 1.5 1 1.5 1 1.5 1 1.5 1 .5 1.5.5 1.5 1 1.5 1 1.5 7 3.5 7 3.5-1-.5-1-.5-2-.5-2-.5-1 1-1 1 16.5 9 16.5 9 1.5.5 1.5.5.5.5.5.5h1.5 1.5l.5.5.5.5h1 1 1 1l1.5.5 1.5.5 27 9 27 9 1 .5 1 .5.5 2 .5 2-1.5.5-1.5.5v1.5 1.5l-.5 1.5-.5 1.5-1.5 1-1.5 1h-2-2l-1.5-.5-1.5-.5h-1.5-1.5l-1-.5-1-.5-.5-.5-.5-.5h-1-1l-.5-.5-.5-.5-1-.5-1-.5-.5-.5-.5-.5h-1-1v-1-1h-1.5-1.5l-.5-.5-.5-.5-.5-.5-.5-.5-.5-.5-.5-.5h-1-1v1.5 1.5l.5.5.5.5.5.5.5.5-.5 1.5-.5 1.5 12 11 12 11-5 8.5-5 8.5-11 13-11 13 5.5 4.5 5.5 4.5 4 2.5 4 2.5-13 14-13 14-1-1-1-1-5-13.5-5-13.5 9 7 9 7-.5-2-.5-2 .5-2 .5-2h2 2l-1-1.5-1-1.5-.5-1.5-.5-1.5v-2-2l-1-1.5-1-1.5-1-1.5-1-1.5-.5-.5-.5-.5-1-2-1-2-1.5 1-1.5 1-1-1-1-1h-1-1l-2-.5-2-.5-1.5-.5-1.5-.5-1.5-1-1.5-1h-1-1l1 2.5 1 2.5 1 .5 1 .5-9 6.5-9 6.5-14.5 5-14.5 5-8-16.5-8-16.5 10.5 20.5 10.5 20.5 8 11 8 11 6 2.5 6 2.5 21.5-5.5 21.5-5.5.5 20 .5 20 1 1 1 1v1 1l-.5 1.5-.5 1.5.5 1.5.5 1.5.5 1 .5 1 .5.5.5.5v2 2l.5 1 .5 1 .5.5.5.5 1 1 1 1v1.5 1.5l.5.5.5.5.5 1 .5 1 .5-1 .5-1-1-1.5-1-1.5 1.5.5 1.5.5 1.5-.5 1.5-.5 1.5.5 1.5.5 1.5.5 1.5.5 1.5 1 1.5 1 1 1 1 1 1-1.5 1-1.5.5-1.5.5-1.5h1 1l.5-.5.5-.5 1-.5 1-.5 2-.5 2-.5-8 7.5-8 7.5-2-1-2-1-1.5-.5-1.5-.5-1-1.5-1-1.5-1 1-1 1 18 17.5 18 17.5 7.5 12.5 7.5 12.5" style="fill:#29281c;stroke:#29281c"/><path d="m394 727l15-25 12.5-6.5 12.5-6.5 14 1 14 1 6-14 6-14 6-14 6-14 4.5-12.5 4.5-12.5 5-13 5-13 7.5-12.5 7.5-12.5 6.5-12.5 6.5-12.5 1.5-7 1.5-7-6 14.5-6 14.5-7.5 12.5-7.5 12.5-6 14-6 14-11.5 27-11.5 27v-1.5-1.5l.5-.5.5-.5v-1-1-1.5-1.5l.5-.5.5-.5v-1-1l.5-1.5.5-1.5-1 1.5-1 1.5-.5 1.5-.5 1.5-1 1.5-1 1.5.5 1.5.5 1.5-.5 2-.5 2-.5 1.5-.5 1.5-1 1.5-1 1.5-9.5 15-9.5 15-1-.5-1-.5-1.5-.5-1.5-.5-1.5-.5-1.5-.5-1.5-1-1.5-1-1.5-.5-1.5-.5-1-2-1-2-1-.5-1-.5-2-.5-2-.5h-2-2-1.5-1.5l-2.5 5.5-2.5 5.5-9.5 16.5-9.5 16.5-1-.5-1-.5-1-1-1-1-1-2.5-1-2.5v1.5 1.5 1 1l1 1.5 1 1.5.5 1 .5 1" style="fill:#703d1d;stroke:#703d1d"/><path d="m397 725l19-33 2.5-5.5 2.5-5.5-10.5 9-10.5 9-5.5 3.5-5.5 3.5-4.5-3.5-4.5-3.5 5.5 9 5.5 9 1 2.5 1 2.5 1 1 1 1 1 .5 1 .5" style="fill:#989583;stroke:#989583"/><path d="m341 707l5-5-3.5 2.5-3.5 2.5h1 1" style="fill:#b8b6a8;stroke:#b8b6a8"/><path d="m450 693l19-30-10.5 11-10.5 11-7-1-7-1 1 2 1 2 1.5.5 1.5.5 1.5 1 1.5 1 1.5.5 1.5.5 1.5.5 1.5.5 1 .5 1 .5" style="fill:#989583;stroke:#989583"/><path d="m453 692h2l1.5-.5 1.5-.5 1-1.5 1-1.5.5-1.5.5-1.5-2-.5-2-.5-1.5.5-1.5.5-1 1.5-1 1.5-1 1-1 1 1 1 1 1h.5.5" style="fill:#b8b6a8;stroke:#b8b6a8"/><path d="m352 686l16-15 1 1.5 1 1.5 1 1 1 1v1 1l-1 .5-1 .5-1.5.5-1.5.5-.5.5-.5.5-1 .5-1 .5-1.5.5-1.5.5-1.5 1-1.5 1h-2-2l-1.5-.5-1.5-.5-1.5-1-1.5-1-1-1.5-1-1.5-1-1-1-1 .5-1.5.5-1.5-1.5.5-1.5.5-1.5-.5-1.5-.5 1 1.5 1 1.5-.5 1-.5 1 .5 1.5.5 1.5 1-1 1-1 1 1.5 1 1.5 1.5.5 1.5.5 2 1 2 1" style="fill:#703d1d;stroke:#703d1d"/><g style="fill:#989583;stroke:#989583"><path d="m351 684l3 1h2 2l1.5-1 1.5-1 1.5-.5 1.5-.5 1-.5 1-.5.5-.5.5-.5 1.5-.5 1.5-.5 1-.5 1-.5v-1-1l-1-1-1-1-1-1.5-1-1.5-2 .5-2 .5-1 .5-1 .5-.5.5-.5.5h-1-1l-.5 1.5-.5 1.5-1 1.5-1 1.5-1-1-1-1-1.5-1-1.5-1-1.5-.5-1.5-.5-1.5-.5-1.5-.5-.5 1.5-.5 1.5 1 1 1 1 1 1.5 1 1.5 1.5 1 1.5 1"/><path d="m389 670h2 2 2l.5-2 .5-2-1-1-1-1-.5-2-.5-2-1-1-1-1h-1.5-1.5v2 2l-.5 1.5-.5 1.5.5 2 .5 2 .5.5.5.5"/></g><g style="fill:#703d1d;stroke:#703d1d"><path d="m346 667l3 1v-2-2l-1-1.5-1-1.5-1-1-1-1-1.5-1-1.5-1-1-1-1-1-1 1.5-1 1.5.5 1.5.5 1.5.5 1.5.5 1.5 1.5 1 1.5 1 1.5.5 1.5.5"/><path d="m401 664h2l1.5-.5 1.5-.5 1-1.5 1-1.5 1-1 1-1h1.5 1.5l1-1 1-1 2-.5 2-.5 1-1 1-1 .5-1.5.5-1.5-1.5.5-1.5.5-1.5 1-1.5 1-1 1-1 1h-2.5-2.5l-1-1-1-1-.5-1.5-.5-1.5-.5-2-.5-2-1 1.5-1 1.5.5 1.5.5 1.5-.5.5-.5.5.5 1 .5 1 1 1 1 1v1.5 1.5l-1 1-1 1h-1.5-1.5l-.5-1.5-.5-1.5v-2.5-2.5l1-1 1-1h-1-1l-.5 2-.5 2-.5 1.5-.5 1.5.5 2 .5 2 1 .5 1 .5"/><path d="m353 663h2l1.5.5 1.5.5h2.5 2.5 2 2l1.5-1 1.5-1-1-1-1-1-1.5 1-1.5 1h-1-1-1.5-1.5l-2-.5-2-.5h-1-1l-1-1.5-1-1.5-1-1-1-1-.5-2-.5-2 .5-1.5.5-1.5 2-1 2-1-1.5-.5-1.5-.5-1 1-1 1-.5 2-.5 2 .5 1.5.5 1.5 1 1.5 1 1.5.5 1.5.5 1.5.5 1 .5 1"/></g><g style="fill:#989583;stroke:#989583"><path d="m363 662h2l1.5-1 1.5-1-.5-1.5-.5-1.5-1-1-1-1h-1.5-1.5l-1-1-1-1-1-1.5-1-1.5-1-1-1-1-1-.5-1-.5-2 1-2 1-.5 1.5-.5 1.5.5 2 .5 2 1 1 1 1 1 1.5 1 1.5h1 1l2 .5 2 .5h1.5 1.5"/><path d="m401 662h3l1-1 1-1v-1.5-1.5l-1-1-1-1-.5-1-.5-1-.5-.5-.5-.5-1 1-1 1v2.5 2.5l.5 1.5.5 1.5"/></g><path d="m443 662l23-15 5-15 5-15 4-16 4-16 1.5-7 1.5-7-4 15.5-4 15.5-5 15-5 15-13 12.5-13 12.5-1 1-1 1 .5 1.5.5 1.5h.5.5" style="fill:#703d1d;stroke:#703d1d"/><path d="m443 657l26-25 5-15 5-15 4-15.5 4-15.5v-.5-.5l5.5-12 5.5-12 3.5-30.5 3.5-30.5-.5-1.5-.5-1.5-.5-1.5-.5-1.5-.5-2-.5-2-.5-1.5-.5-1.5v-1-1l-1.5-1-1.5-1 .5-1.5.5-1.5-1-1.5-1-1.5-1-2-1-2-.5-.5-.5-.5-.5-.5-.5-.5-9-19-9-19-1-1.5-1-1.5-1-1.5-1-1.5-.5.5-.5.5 6.5 14.5 6.5 14.5 4 17.5 4 17.5-.5-1.5-.5-1.5-.5-2-.5-2-.5-1.5-.5-1.5-.5-2-.5-2-.5-1.5-.5-1.5-.5-2-.5-2-1-1-1-1-1-1.5-1-1.5-.5-1.5-.5-1.5-1-1.5-1-1.5-1-1-1-1-1-1.5-1-1.5-1-1-1-1-1-1-1-1-1-1.5-1-1.5-.5-.5-.5-.5 6 16 6 16 .5 1 .5 1v21.5 21.5l-5.5-19-5.5-19v-1.5-1.5l-1.5-.5-1.5-.5h-1-1l-1.5-1-1.5-1-1-1-1-1-2-.5-2-.5 7.5 20.5 7.5 20.5-5 22-5 22v2.5 2.5l.5.5.5.5v1 1l-.5.5-.5.5v1 1l1-.5 1-.5v-1-1l.5-.5.5-.5.5-.5.5-.5.5-1 .5-1 .5-.5.5-.5 1-1 1-1 .5-2 .5-2 .5-1.5.5-1.5v-1.5-1.5l-.5 1-.5 1-.5 1-.5 1-.5 1.5-.5 1.5-.5.5-.5.5-.5 1-.5 1h-1.5-1.5l7.5-13 7.5-13-3.5 8-3.5 8-2 20-2 20-4.5 6.5-4.5 6.5h-7-7l-3.5 9.5-3.5 9.5-8 8-8 8-7.5 10-7.5 10 .5 2 .5 2 .5 1.5.5 1.5 1 1 1 1h2.5 2.5l1-1 1-1 1.5-1 1.5-1 1.5-.5 1.5-.5 1.5-1 1.5-1 1-1 1-1 .5-1.5.5-1.5 1-1.5 1-1.5 8-12 8-12 .5 2.5.5 2.5-2 18-2 18" style="fill:#989583;stroke:#989583"/><path d="m443 656v1l2-18 2-18-.5-2.5-.5-2.5-8 12-8 12 8-.5 8-.5-1.5 8.5-1.5 8.5" style="fill:#703d1d;stroke:#703d1d"/><path d="m474 656l23-54 6-14 6-14 7.5-12.5 7.5-12.5 6-14.5 6-14.5-8 14-8 14-1.5 2-1.5 2-.5 1-.5 1-.5 1-.5 1-1 1.5-1 1.5-.5 1.5-.5 1.5-1 1-1 1-.5 1-.5 1-8.5 12.5-8.5 12.5-5 15-5 15-2.5 10-2.5 10-.5 1.5-.5 1.5v1 1l-.5.5-.5.5v1.5 1.5 1 1l-.5.5-.5.5v1.5 1.5" style="fill:#989583;stroke:#989583"/><path d="m373 655l3 1 1-1 1-1v-1.5-1.5l-.5-1.5-.5-1.5-1-1.5-1-1.5-1.5-.5-1.5-.5-1-1.5-1-1.5-1-.5-1-.5 1 1.5 1 1.5 1 1.5 1 1.5.5 1.5.5 1.5 1.5 1 1.5 1v1 1h-1-1l-1.5-.5-1.5-.5-1.5-.5-1.5-.5-.5-.5-.5-.5-.5-1-.5-1-1-1-1-1-1-1.5-1-1.5-.5-1.5-.5-1.5v-1.5-1.5l-1.5 1-1.5 1 .5 2 .5 2 1 1 1 1 1.5 1 1.5 1v2 2l1.5.5 1.5.5 1.5 1 1.5 1 1.5.5 1.5.5" style="fill:#703d1d;stroke:#703d1d"/><path d="m374 653h2v-1-1l-1.5-1-1.5-1-.5-1.5-.5-1.5-1-1.5-1-1.5-1-1.5-1-1.5-1-1-1-1-1-1-1-1-1.5.5-1.5.5v1.5 1.5l.5 1.5.5 1.5 1 1.5 1 1.5 1 1 1 1 .5 1 .5 1 .5.5.5.5 1.5.5 1.5.5 1.5.5 1.5.5" style="fill:#989583;stroke:#989583"/><path d="m446 653l15-11 5-15 5-15-8.5 10.5-8.5 10.5-4 10-4 10" style="fill:#b8b6a8;stroke:#b8b6a8"/><path d="m329 650l1 1-.5-20-.5-20v19.5 19.5" style="fill:#703d1d;stroke:#703d1d"/><path d="m412 650l21-19 2.5-8.5 2.5-8.5-8 11-8 11-5 7-5 7" style="fill:#b8b6a8;stroke:#b8b6a8"/><path d="m383 649l3 1 .5-1.5.5-1.5-.5-2-.5-2h-.5-.5v1.5 1.5h-1-1l-1-1.5-1-1.5-1-1.5-1-1.5-1-1-1-1-.5-1.5-.5-1.5v-1-1-.5-.5-2-2l1-1 1-1-1.5 1-1.5 1v2.5 2.5 2 2 1.5 1.5l1 1 1 1 .5 1.5.5 1.5 1 1.5 1 1.5 1.5.5 1.5.5" style="fill:#703d1d;stroke:#703d1d"/><path d="m383 646h2v-1.5-1.5l-.5-2.5-.5-2.5-1-1-1-1-.5-2-.5-2 1-1 1-1-.5-2-.5-2-1.5-.5-1.5-.5-.5.5-.5.5-1 1-1 1v2 2 .5.5 1 1l.5 1.5.5 1.5 1 1 1 1 1 1.5 1 1.5 1 1.5 1 1.5" style="fill:#989583;stroke:#989583"/><path d="m450 630l10-30-4.5 7.5-4.5 7.5-.5 7.5-.5 7.5" style="fill:#b8b6a8;stroke:#b8b6a8"/><g style="fill:#703d1d;stroke:#703d1d"><path d="m282 621l4 1-6-2.5-6-2.5 1.5.5 1.5.5.5.5.5.5.5.5.5.5 1.5.5 1.5.5"/><path d="m412 619l3 1 1-1 1-1 .5-2 .5-2 .5-1.5.5-1.5-.5-1.5-.5-1.5-.5 1.5-.5 1.5v2.5 2.5l-1 1-1 1-1.5-.5-1.5-.5-2.5-.5-2.5-.5-.5-1.5-.5-1.5-1-1.5-1-1.5-.5-1.5-.5-1.5-1-1.5-1-1.5-.5-1.5-.5-1.5.5-2.5.5-2.5-.5 1-.5 1-1 1-1 1 .5 2 .5 2 .5 1.5.5 1.5 1 1.5 1 1.5.5 1.5.5 1.5 1 1.5 1 1.5 1 1 1 1 2 .5 2 .5h.5.5"/></g><g style="fill:#989583;stroke:#989583"><path d="m288 618l-5-21-.5 7.5-.5 7.5 3 3 3 3"/><path d="m412 617l3 1 1-1 1-1v-2.5-2.5l.5-1.5.5-1.5-.5-2-.5-2-.5-1.5-.5-1.5-1-1.5-1-1.5-1-1-1-1-1-1-1-1-1-1.5-1-1.5-1.5.5-1.5.5-1.5 1-1.5 1-.5 1-.5 1-.5 2.5-.5 2.5.5 1.5.5 1.5 1 1.5 1 1.5.5 1.5.5 1.5 1 1.5 1 1.5.5 1.5.5 1.5 2.5.5 2.5.5"/></g><g style="fill:#703d1d;stroke:#703d1d"><path d="m464 614h2l.5-1.5.5-1.5 1-1.5 1-1.5 1-1 1-1 .5-2 .5-2 .5-1.5.5-1.5 1-1.5 1-1.5v-2-2l1-1 1-1v-1-1-.5-.5l1-14 1-14v11 11l3.5-16.5 3.5-16.5v-4.5-4.5l-.5 1-.5 1v2 2 2 2l-1 1.5-1 1.5-.5 1.5-.5 1.5h-1-1l.5-2 .5-2 .5-2 .5-2 .5-1.5.5-1.5v-1.5-1.5-2-2l.5-1.5.5-1.5 1 2.5 1 2.5 2-16 2-16-.5-11.5-.5-11.5-2 16-2 16-3 17-3 17-3.5 16.5-3.5 16.5-4 15-4 15v.5.5"/><path d="m302 613h2l1-1 1-1 1-1.5 1-1.5 1-1 1-1-1-1.5-1-1.5-1 1-1 1-1.5.5-1.5.5 1 .5 1 .5.5-.5.5-.5.5-1 .5-1 .5 1.5.5 1.5-.5.5-.5.5-.5 1-.5 1-1.5.5-1.5.5-1.5-.5-1.5-.5-2-1.5-2-1.5-1-1-1-1-1-1.5-1-1.5-.5-1.5-.5-1.5-.5-1.5-.5-1.5-.5-2-.5-2-.5-1.5-.5-1.5-.5-2-.5-2 1-1 1-1 2.5 12.5 2.5 12.5 4 2.5 4 2.5"/><path d="m507 612l3 1 1.5-.5 1.5-.5 2-.5 2-.5 1-1 1-1 1.5-1 1.5-1 .5-1.5.5-1.5-2-.5-2-.5.5 1 .5 1-1 1-1 1-1.5 1-1.5 1-1.5.5-1.5.5h-1-1l-1-2-1-2 1-1.5 1-1.5 1-1 1-1 2 .5 2 .5 1.5.5 1.5.5-2.5-1-2.5-1-1.5-.5-1.5-.5-1 1.5-1 1.5-1 1-1 1-.5 2-.5 2 .5 1.5.5 1.5"/></g><g style="fill:#989583;stroke:#989583"><path d="m300 610l3 1 1.5-.5 1.5-.5.5-1 .5-1 .5-.5.5-.5-.5-1.5-.5-1.5-.5 1-.5 1-.5.5-.5.5-1-.5-1-.5-1-2-1-2-1-1-1-1-.5-1.5-.5-1.5-1-1.5-1-1.5-1-1-1-1-.5-2-.5-2-1-1-1-1-1-1.5-1-1.5-1 1-1 1 .5 2 .5 2 .5 1.5.5 1.5.5 2 .5 2 .5 1.5.5 1.5.5 1.5.5 1.5 1 1.5 1 1.5 1 1 1 1 2 1.5 2 1.5"/><path d="m510 610h2l1.5-.5 1.5-.5 1.5-1 1.5-1 1-1 1-1-.5-1-.5-1-1.5-.5-1.5-.5-2-.5-2-.5-1 1-1 1-1 1.5-1 1.5 1 2 1 2"/></g><g style="fill:#703d1d;stroke:#703d1d"><path d="m552 608l10-28-3.5-10.5-3.5-10.5v1 1l1-2.5 1-2.5.5 1.5.5 1.5.5 2 .5 2v2 2l.5 1.5.5 1.5.5 2 .5 2-.5 1.5-.5 1.5v2.5 2.5l-.5 1.5-.5 1.5v1.5 1.5l-.5 1.5-.5 1.5v1 1h-1-1l-1.5-.5-1.5-.5-1.5-.5-1.5-.5-.5 1.5-.5 1.5.5 1.5.5 1.5-.5 1.5-.5 1.5-.5 2-.5 2v1 1l1.5 1 1.5 1h.5.5"/><path d="m315 606l26-28-.5 2-.5 2-1 1-1 1-1 1-1 1-.5.5-.5.5-.5 1-.5 1h-1.5-1.5l-.5-1-.5-1-1-1.5-1-1.5-1-1-1-1-1-1.5-1-1.5v-2-2l-1-1.5-1-1.5-.5-1.5-.5-1.5-1.5-1-1.5-1 1 1.5 1 1.5 1 1.5 1 1.5v2 2l.5 1.5.5 1.5 1 1.5 1 1.5h-2-2l-.5 2-.5 2 .5 2 .5 2-3 6.5-3 6.5h-1-1l1 1 1 1"/></g><path d="m315 604l6-13-9-7-9-7 5 13.5 5 13.5h1 1" style="fill:#989583;stroke:#989583"/><path d="m243 600l-4-22-3.5-13.5-3.5-13.5-4-4-4-4 4 14 4 14 5.5 13.5 5.5 13.5v1 1" style="fill:#b8b6a8;stroke:#b8b6a8"/><path d="m427 598l-4-24-2.5 7.5-2.5 7.5 4.5 4.5 4.5 4.5" style="fill:#989583;stroke:#989583"/><path d="m553 592l3 1h1 1v-1-1l.5-1.5.5-1.5h-.5-.5l-1 1-1 1h-1-1-1-1l-1-.5-1-.5-1-.5-1-.5-.5-.5-.5-.5h-1-1l.5-.5.5-.5 1-.5 1-.5.5-1 .5-1-1 .5-1 .5h-2-2-2.5-2.5l-1 1-1 1 1.5 1 1.5 1h2 2l2 .5 2 .5 1 1 1 1h.5.5l1.5.5 1.5.5" style="fill:#9d6140;stroke:#9d6140"/><path d="m554 590h2l1-1 1-1v-2.5-2.5l-.5-1.5-.5-1.5.5-2 .5-2-.5-1.5-.5-1.5-1-.5-1-.5v2 2l-.5 1.5-.5 1.5-1 1.5-1 1.5-.5 1.5-.5 1.5.5 2.5.5 2.5h1 1" style="fill:#b8b6a8;stroke:#b8b6a8"/><g style="fill:#989583;stroke:#989583"><path d="m331 589h3l.5-1 .5-1 .5-.5.5-.5 1-1 1-1 1-1 1-1 .5-2 .5-2-4-2.5-4-2.5-5.5-4.5-5.5-4.5-1-.5-1-.5h-1-1l-.5.5-.5.5.5 1.5.5 1.5 1.5 1 1.5 1 .5 1.5.5 1.5 1 1.5 1 1.5v2 2l1 1.5 1 1.5 1 1 1 1 1 1.5 1 1.5.5 1 .5 1"/><path d="m550 589l2 1-.5-2.5-.5-2.5.5-1.5.5-1.5 1-1.5 1-1.5.5-1.5.5-1.5v-2-2l1 .5 1 .5.5 1.5.5 1.5-.5 2-.5 2 .5 1.5.5 1.5v2.5 2.5h.5.5v-1.5-1.5l.5-1.5.5-1.5v-2.5-2.5l.5-1.5.5-1.5-.5-2-.5-2-.5-1.5-.5-1.5v-2-2l-.5-2-.5-2-.5-1.5-.5-1.5-1 2.5-1 2.5-1 2.5-1 2.5-1 1-1 1-.5 2-.5 2 .5 1.5.5 1.5-.5 1.5-.5 1.5-.5 2-.5 2v.5.5l-.5 1-.5 1-1 .5-1 .5-.5.5-.5.5h1 1l.5.5.5.5 1 .5 1 .5"/></g><path d="m253 587l29-10 9-6.5 9-6.5-13 7-13 7-5.5-14.5-5.5-14.5-6-5-6-5 2-.5 2-.5.5-1.5.5-1.5.5-.5.5-.5 1 .5 1 .5.5 1.5.5 1.5v1 1l.5 1 .5 1-1 1-1 1-.5.5-.5.5-1-.5-1-.5h-1.5-1.5l-.5-1-.5-1-.5-1-.5-1 5.5 21 5.5 21-9.5-11.5-9.5-11.5 1.5-3.5 1.5-3.5 6 13 6 13-5-15-5-15-1-17-1-17-1-1-1-1-.5-1.5-.5-1.5-1-1.5-1-1.5-1-1-1-1-.5-2-.5-2-.5-1.5-.5-1.5-1-2.5-1-2.5-5 7-5 7-7 8-7 8-1-1-1-1-1-1-1-1-1-1.5-1-1.5-.5-1.5-.5-1.5v-2.5-2.5-2-2l-.5-1.5-.5-1.5v-2.5-2.5-2-2l.5-2.5.5-2.5-1-.5-1-.5-.5 2-.5 2v2 2l.5 2 .5 2v2 2l.5 2 .5 2v2 2l-.5.5-.5.5v-1.5-1.5l-.5-.5-.5-.5-.5-1.5-.5-1.5.5 2 .5 2v1.5 1.5 1 1l1 1 1 1 .5 1 .5 1v1 1l.5.5.5.5-.5.5-.5.5.5 1 .5 1v1 1l.5 1 .5 1 10-7.5 10-7.5 5-4 5-4v18.5 18.5l-.5-1-.5-1-1.5-2-1.5-2 .5 1.5.5 1.5v1 1l.5 1 .5 1v1 1l.5.5.5.5v1 1l.5.5.5.5v1.5 1.5 1 1l.5 1 .5 1 8 16.5 8 16.5" style="fill:#703d1d;stroke:#703d1d"/><path d="m477 587v1l.5-1 .5-1 .5-1.5.5-1.5v-1-1-11-11l-1 14-1 14" style="fill:#29281c;stroke:#29281c"/><path d="m262 582l-11-42v-.5-.5l6 5 6 5 5.5 14.5 5.5 14.5 13-7 13-7-1-.5-1-.5-3.5-8.5-3.5-8.5 14 3.5 14 3.5v-.5-.5l-2.5-10.5-2.5-10.5 9 8.5 9 8.5 11-13.5 11-13.5-12-11-12-11 16-5.5 16-5.5-27-9-27-9 8.5 8 8.5 8h-2-2l-.5.5-.5.5-1 .5-1 .5-.5.5-.5.5h-1-1l-.5.5-.5.5-1 .5-1 .5-.5.5-.5.5-.5.5-.5.5v-1-1l-1 .5-1 .5.5 1.5.5 1.5-.5.5-.5.5-1-1-1-1-.5-1-.5-1-.5-1.5-.5-1.5-.5-.5-.5-.5-1-.5-1-.5-.5-1.5-.5-1.5-.5-2-.5-2-1-1-1-1-1-1-1-1-.5-.5-.5-.5-1-.5-1-.5-1-1-1-1-.5-2-.5-2h1 1 1 1v-1-1l-16.5-9-16.5-9-1-1-1-1-1-1.5-1-1.5-1-1-1-1-1-1.5-1-1.5-.5-1.5-.5-1.5-1.5-1-1.5-1-1.5-1-1.5-1-.5 1-.5 1-.5 1.5-.5 1.5.5 2 .5 2 .5 1.5.5 1.5h-1-1l-1-1.5-1-1.5-1-1.5-1-1.5-.5-1.5-.5-1.5-.5-2-.5-2-1-1-1-1-.5-1-.5-1v-.5-.5l-.5-1-.5-1-.5-.5-.5-.5-.5-.5-.5-.5-.5-1-.5-1-.5-.5-.5-.5v-1-1l-.5-.5-.5-.5-.5-.5-.5-.5-.5-.5-.5-.5-.5-1-.5-1v-1-1l-.5-.5-.5-.5-.5-.5-.5-.5-.5-1-.5-1-.5-.5-.5-.5-.5-.5-.5-.5-1.5-.5-1.5-.5-1 1-1 1-1 1-1 1-.5.5-.5.5-1 .5-1 .5-1 1-1 1-1 1-1 1 8.5 22.5 8.5 22.5 1 1.5 1 1.5 1 1 1 1 1 1 1 1v-1.5-1.5l-.5-1.5-.5-1.5-.5-1-.5-1 12.5-2 12.5-2 11.5 7.5 11.5 7.5 11.5 15.5 11.5 15.5-1 1-1 1-.5 1-.5 1-1.5.5-1.5.5-.5.5-.5.5h-1.5-1.5-2-2l-.5.5-.5.5h-1.5-1.5l-1.5-.5-1.5-.5h-1-1l-1-.5-1-.5h-1.5-1.5l-1.5 1-1.5 1 .5 1 .5 1 1 1 1 1 1 1.5 1 1.5 1 1 1 1 1 1.5 1 1.5v2 2l-.5 1-.5 1-2-.5-2-.5-1-.5-1-.5-.5-1-.5-1-.5-1.5-.5-1.5-.5-1.5-.5-1.5-.5-.5-.5-.5-.5 1-.5 1-.5 2-.5 2-1.5.5-1.5.5-2-.5-2-.5-1.5-.5-1.5-.5-1.5-.5-1.5-.5h-1-1l-1-1-1-1 1 17 1 17 5 15 5 15-6-13-6-13-1.5 3.5-1.5 3.5 9.5 11.5 9.5 11.5" style="fill:#989583;stroke:#989583"/><path d="m352 579h2l1.5-.5 1.5-.5 1-1.5 1-1.5v-1-1-2.5-2.5l-.5-.5-.5-.5v2.5 2.5 1 1l-.5 1-.5 1-1.5.5-1.5.5h-1-1-1.5-1.5l-.5-1-.5-1-1.5-1-1.5-1-1-1-1-1-1-1.5-1-1.5-1-1-1-1-.5-2-.5-2-.5-1.5-.5-1.5v-1-1l-1-.5-1-.5-.5 1.5-.5 1.5 1 1.5 1 1.5.5 1.5.5 1.5 1 1.5 1 1.5.5 1.5.5 1.5 1 1.5 1 1.5 1 1 1 1 1.5.5 1.5.5 1.5 1 1.5 1h1 1" style="fill:#703d1d;stroke:#703d1d"/><path d="m352 577h2l1.5-.5 1.5-.5.5-1 .5-1v-1-1-2.5-2.5l-5-4-5-4-5.5-1-5.5-1v1 1l.5 1.5.5 1.5.5 2 .5 2 1 1 1 1 1 1.5 1 1.5 1 1 1 1 1.5 1 1.5 1 .5 1 .5 1h1.5 1.5" style="fill:#989583;stroke:#989583"/><g style="fill:#703d1d;stroke:#703d1d"><path d="m466 577v1l2-20 2-20v1.5 1.5l-.5 1.5-.5 1.5-.5 2-.5 2 1.5 2 1.5 2-.5 1.5-.5 1.5-.5 2-.5 2-1 1-1 1-.5 2-.5 2-1 1-1 1 1 1.5 1 1.5-.5 1.5-.5 1.5-.5.5-.5.5 1 1.5 1 1.5"/><path d="m438 576l3 1 1-1 1-1 1-1.5 1-1.5.5-1.5.5-1.5-.5-1.5-.5-1.5v1.5 1.5l-.5.5-.5.5-.5 1-.5 1-.5.5-.5.5-.5.5-.5.5h-1-1l-2-1-2-1-1-1-1-1-1-1.5-1-1.5-1-1-1-1-.5-2-.5-2 .5-1.5.5-1.5-.5-2-.5-2 .5-1 .5-1-1 2-1 2v1.5 1.5 2 2l.5 1 .5 1 .5 1.5.5 1.5 1 1.5 1 1.5 1 1 1 1 1.5 1 1.5 1 1 .5 1 .5"/></g><path d="m439 574h2l.5-.5.5-.5.5-.5.5-.5.5-1 .5-1 .5-.5.5-.5v-1.5-1.5l-4-11.5-4-11.5-4 4.5-4 4.5-.5 1-.5 1 .5 2 .5 2-.5 1.5-.5 1.5.5 2 .5 2 1 1 1 1 1 1.5 1 1.5 1 1 1 1 2 1 2 1" style="fill:#989583;stroke:#989583"/><g style="fill:#703d1d;stroke:#703d1d"><path d="m524 573l18-12v-6.5-6.5l.5 1.5.5 1.5v2 2l-.5 1.5-.5 1.5-1.5 1-1.5 1-.5 1.5-.5 1.5-1 1.5-1 1.5-.5 1.5-.5 1.5-2 .5-2 .5-1 1-1 1-1.5-.5-1.5-.5.5-2 .5-2 .5-1.5.5-1.5v-1.5-1.5l-1 2.5-1 2.5-.5 1.5-.5 1.5-.5 2-.5 2"/><path d="m497 572h2l1-1 1-1 1-1.5 1-1.5.5-1.5.5-1.5 1-1.5 1-1.5 1-1 1-1v.5.5l.5 1.5.5 1.5v1.5 1.5l.5-1 .5-1 1-1 1-1 .5-1.5.5-1.5 1-1.5 1-1.5.5-1 .5-1 .5-1 .5-1 1.5-11.5 1.5-11.5h-3-3l-6 16.5-6 16.5v-1-1l-1 2-1 2-.5 1.5-.5 1.5-1 1.5-1 1.5v1 1"/></g><path d="m526 571l3 1 1-1 1-1 2-.5 2-.5.5-1.5.5-1.5 1-1.5 1-1.5.5-1.5.5-1.5 1.5-1 1.5-1 .5-1.5.5-1.5v-2-2l-.5-1.5-.5-1.5-1 .5-1 .5-1.5 1-1.5 1-1 1-1 1-1.5 1-1.5 1-1 1-1 1-1 1.5-1 1.5v.5.5 1.5 1.5l-.5 1.5-.5 1.5-.5 2-.5 2" style="fill:#989583;stroke:#989583"/><path d="m487 570v1l5-7.5 5-7.5 3.5-10.5 3.5-10.5 1.5-16.5 1.5-16.5-1-8.5-1-8.5-3.5 30.5-3.5 30.5-5.5 12-5.5 12" style="fill:#703d1d;stroke:#703d1d"/><path d="m287 568l-1-21 7.5 1.5 7.5 1.5 7-2 7-2-9-11-9-11-7.5-2.5-7.5-2.5-13 2-13 2 5 15 5 15 6.5 3.5 6.5 3.5 3-1 3-1 1 5 1 5" style="fill:#b8b6a8;stroke:#b8b6a8"/><g style="fill:#703d1d;stroke:#703d1d"><path d="m317 566l1 1-.5-1.5-.5-1.5.5-.5.5-.5h1 1l1 .5 1 .5 11-13 11-13 5-8.5 5-8.5-11 13.5-11 13.5-9-8.5-9-8.5.5 1 .5 1 .5 1 .5 1 1 1 1 1 .5.5.5.5v1 1l.5.5.5.5.5 1 .5 1 .5.5.5.5v1 1 1 1l.5 1 .5 1-.5.5-.5.5-.5-.5-.5-.5v1 1l-1 .5-1 .5-14-3.5-14-3.5 3.5 8.5 3.5 8.5-1-2.5-1-2.5h1 1l1.5 1 1.5 1 1.5.5 1.5.5 2 .5 2 .5h1 1l1 1 1 1 1.5-1 1.5-1 1 2 1 2"/><path d="m366 565l3 1 1-1 1-1 .5-2 .5-2h1 1l-.5-1-.5-1 .5-1.5.5-1.5v-1.5-1.5l-1-1-1-1 .5 1.5.5 1.5-.5 2-.5 2-.5 1.5-.5 1.5-1 1.5-1 1.5h-1-1l-1-.5-1-.5-.5-.5-.5-.5-.5-.5-.5-.5v-1-1l-.5-1-.5-1v-1-1l-.5-.5-.5-.5.5-.5.5-.5h2 2l-1.5-1-1.5-1-1-1-1-1h-1.5-1.5l.5 1.5.5 1.5.5 2 .5 2 .5 1.5.5 1.5 1 1.5 1 1.5.5 1.5.5 1.5 1 .5 1 .5"/><path d="m458 564h2l.5-1.5.5-1.5 1-1.5 1-1.5.5-1.5.5-1.5 1 1.5 1 1.5 1-1 1-1-1-1.5-1-1.5h1 1l.5-1.5.5-1.5-.5-1-.5-1-1 1-1 1-.5.5-.5.5-.5 1-.5 1-.5.5-.5.5-.5.5-.5.5v1 1l-1 .5-1 .5v-1-1l.5-.5.5-.5v-1-1l-.5-.5-.5-.5v-2.5-2.5l-1 2-1 2v1.5 1.5l.5 1.5.5 1.5-.5 2-.5 2v1.5 1.5"/></g><g style="fill:#989583;stroke:#989583"><path d="m367 563h2l1-1.5 1-1.5.5-1.5.5-1.5.5-2 .5-2-.5-1.5-.5-1.5-.5-1.5-.5-1.5h-1.5-1.5l-.5 1.5-.5 1.5-.5 1-.5 1h-2-2l-.5.5-.5.5.5.5.5.5v1 1l.5 1 .5 1v1 1l.5.5.5.5.5.5.5.5 1 .5 1 .5"/><path d="m502 562l12-33-1 2-1 2-1 1.5-1 1.5-.5 1.5-.5 1.5-1 1.5-1 1.5-.5 1.5-.5 1.5-.5 2-.5 2-.5 1.5-.5 1.5-.5 2-.5 2-.5 1.5-.5 1.5v.5.5 1 1"/></g><path d="m480 555h2l.5-1.5.5-1.5 1-1.5 1-1.5v-2-2-2-2l.5-1 .5-1-1-2.5-1-2.5-.5 1.5-.5 1.5v2 2 1.5 1.5l-.5 1.5-.5 1.5-.5 2-.5 2-.5 2-.5 2" style="fill:#29281c;stroke:#29281c"/><path d="m437 554h2l1-1 1-1-.5-2-.5-2-1-1-1-1-2 .5-2 .5-1 1-1 1 1 1.5 1 1.5 1 1 1 1h.5.5" style="fill:#b8b6a8;stroke:#b8b6a8"/><path d="m319 552v1l1-.5 1-.5v-1-1l.5.5.5.5.5-.5.5-.5-.5-1-.5-1v-1-1-1-1l-.5-.5-.5-.5-.5-1-.5-1-.5-.5-.5-.5v-1-1l-.5-.5-.5-.5-1-1-1-1-.5-1-.5-1-.5-1-.5-1 2.5 10.5 2.5 10.5" style="fill:#29281c;stroke:#29281c"/><g style="fill:#703d1d;stroke:#703d1d"><path d="m381 552l16-18-3.5 1-3.5 1-3 7-3 7-1-.5-1-.5-1-1-1-1-.5-1.5-.5-1.5-.5-2-.5-2 1-1 1-1 .5-2 .5-2 1.5-.5 1.5-.5 2 .5 2 .5-.5-1.5-.5-1.5-1.5.5-1.5.5h-1.5-1.5l-.5 1.5-.5 1.5-1 1.5-1 1.5-.5 1.5-.5 1.5v1.5 1.5l.5 1.5.5 1.5.5 1.5.5 1.5 1 1 1 1"/><path d="m573 551l24-41-1 16.5-1 16.5 3.5-22.5 3.5-22.5-3-2-3-2-5 10-5 10-6 8-6 8 6-3 6-3-6.5 13.5-6.5 13.5"/></g><path d="m384 550l6-14-1-1-1-1-2-.5-2-.5-1.5.5-1.5.5-.5 2-.5 2-1 1-1 1 .5 2 .5 2 .5 1.5.5 1.5 1 1 1 1 1 .5 1 .5" style="fill:#989583;stroke:#989583"/><path d="m462 548h3l.5-1 .5-1 .5-.5.5-.5.5-1.5.5-1.5.5-1 .5-1 .5-1 .5-1 3.5-8 3.5-8-7.5 13-7.5 13" style="fill:#b8b6a8;stroke:#b8b6a8"/><path d="m460 546v1l5-22 5-22h-.5-.5l-2 11-2 11-2.5 10.5-2.5 10.5" style="fill:#703d1d;stroke:#703d1d"/><path d="m328 545l-1-19-8.5-9.5-8.5-9.5-3.5 6.5-3.5 6.5 10.5 9.5 10.5 9.5 2 3 2 3" style="fill:#b8b6a8;stroke:#b8b6a8"/><g style="fill:#29281c;stroke:#29281c"><path d="m253 544h3l1 .5 1 .5.5-.5.5-.5 1-1 1-1-.5-1-.5-1v-1-1l-.5-1.5-.5-1.5-1-.5-1-.5-.5.5-.5.5-.5 1.5-.5 1.5-2 .5-2 .5v.5.5l.5 1 .5 1 .5 1 .5 1"/><path d="m236 540v-37l-5 4-5 4-10 7.5-10 7.5.5 1.5.5 1.5v1 1l.5.5.5.5.5 1 .5 1h1 1 1 1l.5.5.5.5h1 1l1-.5 1-.5h1 1 1 1l.5-.5.5-.5v-1-1l1-.5 1-.5.5.5.5.5h1 1 1 1l1 1.5 1 1.5 1.5 2 1.5 2 .5 1 .5 1"/></g><path d="m193 537l5-21-5.5-6.5-5.5-6.5 1.5 12.5 1.5 12.5 1.5 4.5 1.5 4.5" style="fill:#b8b6a8;stroke:#b8b6a8"/><path d="m340 533l3 1v-1-1l-.5-2-.5-2-.5-1.5-.5-1.5-1-1.5-1-1.5-1-1-1-1-1-1.5-1-1.5-1-1-1-1-.5-1.5-.5-1.5-1.5-1-1.5-1-1-1-1-1-1.5-1-1.5-1-1-1-1-1-2-1-2-1h-1.5-1.5l-2-.5-2-.5-.5 1.5-.5 1.5 1 1 1 1 1.5 1 1.5 1 1 .5 1 .5 11.5 10.5 11.5 10.5-1-.5-1-.5.5 1 .5 1 .5 1 .5 1" style="fill:#703d1d;stroke:#703d1d"/><path d="m340 530l-23-21 1 1 1 1 1 1 1 1 2 .5 2 .5 1 1 1 1 1 1 1 1 1 1.5 1 1.5 1.5.5 1.5.5 1 1.5 1 1.5.5 1.5.5 1.5.5.5.5.5 1 .5 1 .5" style="fill:#29281c;stroke:#29281c"/><path d="m403 526h2l1.5.5 1.5.5 2-.5 2-.5 1-1 1-1 1-1.5 1-1.5.5-1.5.5-1.5.5-2 .5-2v-2-2l-1-1-1-1v1.5 1.5l.5.5.5.5v1 1 1 1l-.5 1-.5 1-.5.5-.5.5-.5.5-.5.5-.5.5-.5.5-.5 1-.5 1-.5.5-.5.5-.5.5-.5.5-1.5-.5-1.5-.5-1-.5-1-.5-1-.5-1-.5-.5-2-.5-2-1-1-1-1-.5-1.5-.5-1.5.5-2 .5-2 1 .5 1 .5-2-.5-2-.5-.5 1.5-.5 1.5 1 1.5 1 1.5.5 1.5.5 1.5v2 2l1 1.5 1 1.5.5.5.5.5" style="fill:#703d1d;stroke:#703d1d"/><path d="m407 524l3 1 .5-.5.5-.5.5-.5.5-.5.5-1 .5-1 .5-.5.5-.5.5-.5.5-.5.5-.5.5-.5.5-1 .5-1v-1-1-1-1l-.5-.5-.5-.5v-1.5-1.5l-1-2-1-2-1.5-.5-1.5-.5-.5 2-.5 2-.5 1.5-.5 1.5h-1.5-1.5l-.5-.5-.5-.5-1 .5-1 .5h-.5-.5l-1-.5-1-.5-.5 2-.5 2 .5 1.5.5 1.5 1 1 1 1 .5 2 .5 2 1 .5 1 .5 1 .5 1 .5" style="fill:#989583;stroke:#989583"/><g style="fill:#703d1d;stroke:#703d1d"><path d="m433 524h2l1-1 1-1v-.5-.5l-1 .5-1 .5h-1-1l1.5-13.5 1.5-13.5-8.5-13.5-8.5-13.5 7.5 10.5 7.5 10.5-3 10-3 10 2.5 7.5 2.5 7.5"/><path d="m362 523h2l1-1 1-1 2-.5 2-.5 1-1 1-1 1-1.5 1-1.5 1.5-.5 1.5-.5 1-1.5 1-1.5v-.5-.5l-1 .5-1 .5-.5.5-.5.5-.5.5-.5.5-1 .5-1 .5-.5.5-.5.5-.5.5-.5.5-.5.5-.5.5-1 .5-1 .5h-1-1l-.5.5-.5.5h-1-1l.5-1 .5-1 .5-1.5.5-1.5-1.5 1-1.5 1-.5 1.5-.5 1.5v2 2h.5.5"/></g><path d="m211 522l14-16 5-7 5-7-.5-.5-.5-.5-.5-1.5-.5-1.5v-1-1-1.5-1.5l-.5-.5-.5-.5v-1-1-1-1l-.5 1-.5 1v1 1l-.5.5-.5.5-.5.5-.5.5-.5 1-.5 1v1 1h-1-1l-1 1-1 1-1 .5-1 .5-.5.5-.5.5v1 1l-.5.5-.5.5-.5.5-.5.5-1 .5-1 .5h-1-1l-.5.5-.5.5-.5.5-.5.5-.5 1-.5 1-.5.5-.5.5-.5-.5-.5-.5v-1-1l-.5-1-.5-1v-1-1l-.5-.5-.5-.5v-1-1l-.5-.5-.5-.5-.5-1-.5-1-.5-.5-.5-.5-.5-1-.5-1-.5 2.5-.5 2.5v2 2 2.5 2.5l.5 1.5.5 1.5v2 2 2.5 2.5l.5 1.5.5 1.5 1 1.5 1 1.5 1 1 1 1 1 1 1 1" style="fill:#989583;stroke:#989583"/><path d="m271 522l4 1v-.5-.5-1.5-1.5l-1-1-1-1-.5-1.5-.5-1.5-1-1.5-1-1.5h-1-1v2.5 2.5l.5 2.5.5 2.5 1 .5 1 .5" style="fill:#29281c;stroke:#29281c"/><path d="m275 522v1l.5-1 .5-1v-2-2l-1-1.5-1-1.5-1-1-1-1-1-1.5-1-1.5-1-1-1-1-.5-1-.5-1 1.5-1 1.5-1-1-.5-1-.5-1 1-1 1-.5 1.5-.5 1.5v2.5 2.5l.5.5.5.5.5 1.5.5 1.5.5 1.5.5 1.5.5 1 .5 1-.5-2.5-.5-2.5v-2.5-2.5h1 1l1 1.5 1 1.5.5 1.5.5 1.5 1 1 1 1v1.5 1.5" style="fill:#703d1d;stroke:#703d1d"/><g style="fill:#989583;stroke:#989583"><path d="m433 522h2l1-.5 1-.5 1.5-1.5 1.5-1.5 1-1 1-1 1-1.5 1-1.5v-1.5-1.5l1-2 1-2 1-1 1-1 1-1 1-1 1-1.5 1-1.5 1.5-.5 1.5-.5 1-2.5 1-2.5-8-12-8-12-10-3-10-3-1 2.5-1 2.5 8.5 13.5 8.5 13.5-1.5 13.5-1.5 13.5"/><path d="m363 519h2l.5-.5.5-.5h1 1l1-.5 1-.5.5-.5.5-.5.5-.5.5-.5.5-.5.5-.5 1-.5 1-.5.5-.5.5-.5.5-.5.5-.5 1-.5 1-.5v-.5-.5l.5-1 .5-1-.5-1.5-.5-1.5h-1.5-1.5l-1.5.5-1.5.5-.5 2-.5 2-1.5.5-1.5.5-1.5 1-1.5 1-.5 1-.5 1-.5 1.5-.5 1.5-.5 1-.5 1"/></g><path d="m256 518l4 1 1.5-.5 1.5-.5.5-2 .5-2 .5-1 .5-1v-2.5-2.5l.5-1.5.5-1.5 1-1 1-1 1 .5 1 .5h1.5 1.5l1 .5 1 .5h1 1l1.5.5 1.5.5h1.5 1.5l.5-.5.5-.5h2 2 1.5 1.5l.5-.5.5-.5 1.5-.5 1.5-.5.5-1 .5-1 1-1 1-1v-.5-.5l-7.5-11.5-7.5-11.5-12.5-7.5-12.5-7.5-15.5-1.5-15.5-1.5.5 1 .5 1 1 1.5 1 1.5 1 1 1 1-.5 2-.5 2 .5 1.5.5 1.5.5 2 .5 2 .5 1.5.5 1.5v2.5 2.5l.5 1.5.5 1.5v2 2 1.5 1.5l1 2.5 1 2.5.5 1.5.5 1.5.5 2 .5 2 1 1 1 1 1 1.5 1 1.5.5 1.5.5 1.5 1 1 1 1 1 1 1 1h1 1l1.5.5 1.5.5 1.5.5 1.5.5" style="fill:#29281c;stroke:#29281c"/><path d="m343 518l-16-18-5.5.5-5.5.5 1 .5 1 .5 2 1 2 1 1 1 1 1 1.5 1 1.5 1 1 1 1 1 1.5 1 1.5 1 .5 1.5.5 1.5 1.5.5 1.5.5 1.5 1 1.5 1h2 2" style="fill:#b8b6a8;stroke:#b8b6a8"/><path d="m581 516v1l4-22 4-22v-.5-.5-1.5-1.5l.5-1 .5-1-1-1.5-1-1.5-1.5-1-1.5-1 .5 1 .5 1-.5 1-.5 1-.5 1-.5 1v2.5 2.5l-.5 2-.5 2 .5-1 .5-1 1-1 1-1v2.5 2.5 2 2l-.5 2-.5 2 .5 1.5.5 1.5-.5 2-.5 2-1 1-1 1-1.5-.5-1.5-.5-2-1-2-1-.5 1.5-.5 1.5 1.5.5 1.5.5 2 .5 2 .5-.5 1.5-.5 1.5-.5 2-.5 2-1 1-1 1-.5 2-.5 2 1.5.5 1.5.5 1 1 1 1-.5 1.5-.5 1.5" style="fill:#9d6140;stroke:#9d6140"/><path d="m455 512l3 1 .5-1.5.5-1.5-1-1.5-1-1.5.5-1.5.5-1.5-.5-2-.5-2 1-1 1-1-.5-2-.5-2-.5-.5-.5-.5-1 2.5-1 2.5-1.5.5-1.5.5-1 1.5-1 1.5-1 1-1 1-1 1-1 1-1 2-1 2 1-.5 1-.5 1-1.5 1-1.5 1-1 1-1 1-1 1-1 1.5-1 1.5-1 1 1 1 1-1 1.5-1 1.5-1 1-1 1 .5 2 .5 2 .5.5.5.5" style="fill:#703d1d;stroke:#703d1d"/><path d="m202 510l1-1v-2-2l-.5-2-.5-2v-2-2l-.5-2-.5-2v-2-2l.5-2 .5-2 1 .5 1 .5.5 1 .5 1 .5.5.5.5.5 1 .5 1 .5.5.5.5v1 1l.5.5.5.5v1 1l.5 1 .5 1v1 1l.5.5.5.5.5-.5.5-.5.5-1 .5-1 .5-.5.5-.5.5-.5.5-.5h1 1l1-.5 1-.5.5-.5.5-.5.5-.5.5-.5v-1-1l.5-.5.5-.5 1-.5 1-.5 1-2 1-2 1-1.5 1-1.5.5-1.5.5-1.5.5-2 .5-2v-2-2l-.5-2-.5-2-.5-1.5-.5-1.5-1-1-1-1-1.5-1-1.5-1v-2-2l-7.5-5.5-7.5-5.5-7.5-5-7.5-5-2.5 3.5-2.5 3.5.5 7.5.5 7.5v7 7l1 1 1 1v1 1l.5.5.5.5.5.5.5.5v1.5 1.5l.5.5.5.5.5.5.5.5v1 1l.5 1.5.5 1.5.5 1 .5 1v1 1l.5.5.5.5v1 1l.5 1 .5 1v1 1 1 1l.5 1 .5 1 .5 1.5.5 1.5.5.5.5.5v1.5 1.5" style="fill:#29281c;stroke:#29281c"/><g style="fill:#703d1d;stroke:#703d1d"><path d="m379 509v1l9-12.5 9-12.5 3-7 3-7-10 15.5-10 15.5.5-1.5.5-1.5v-2-2l-1 .5-1 .5v2 2l-.5 2-.5 2h-1-1l.5 1.5.5 1.5-.5 1-.5 1"/><path d="m480 509v-43l-2.5 1-2.5 1-3 1.5-3 1.5 5.5 19 5.5 19"/><path d="m544 507l1-1-.5-1.5-.5-1.5 1.5-1 1.5-1 1-1 1-1-.5-2-.5-2-.5-1.5-.5-1.5h-.5-.5l.5 1.5.5 1.5v2 2l-1.5.5-1.5.5-1.5 1-1.5 1-1.5-.5-1.5-.5-10-10-10-10-8.5-16.5-8.5-16.5 1.5 6.5 1.5 6.5-1 3-1 3-3.5-4.5-3.5-4.5 1 2 1 2 1 1.5 1 1.5-.5 1.5-.5 1.5 1.5 1 1.5 1v1 1l.5 1.5.5 1.5.5 2 .5 2 .5 1.5.5 1.5.5 1.5.5 1.5 6-2.5 6-2.5 3.5 9.5 3.5 9.5 9 4 9 4h1 1"/><path d="m426 505h2l-1-1-1-1 .5-2 .5-2v-1-1l-.5-2-.5-2-1-1-1-1-1-.5-1-.5h-1-1l1 1.5 1 1.5 1 1 1 1v1 1l.5 1 .5 1-.5 1.5-.5 1.5h-1-1l-1-.5-1-.5-1-1-1-1-1-1-1-1-.5-2-.5-2 .5-2 .5-2-1 .5-1 .5v2.5 2.5l.5 1.5.5 1.5 1 1.5 1 1.5 1 1 1 1 2 .5 2 .5 1.5.5 1.5.5"/></g><g style="fill:#989583;stroke:#989583"><path d="m383 502l20-31-1.5 1-1.5 1-1 1-1 1-1 1.5-1 1.5-1 1-1 1-1 1-1 1-1.5 1-1.5 1-1 1-1 1-.5 2-.5 2-.5 1.5-.5 1.5-.5 1-.5 1v2 2l-.5 1.5-.5 1.5"/><path d="m422 502h2l.5-1.5.5-1.5-.5-1-.5-1v-1-1l-1-1-1-1-1-1.5-1-1.5-1-1-1-1-.5-1-.5-1-.5 1.5-.5 1.5-.5 2-.5 2 .5 2 .5 2 1 1 1 1 1 1 1 1 1 .5 1 .5"/></g><path d="m469 502v1h.5.5l-7.5-20.5-7.5-20.5 1.5 6.5 1.5 6.5 5.5 13.5 5.5 13.5" style="fill:#9d6140;stroke:#9d6140"/><path d="m351 501l3 1h2 2l1.5-1 1.5-1 .5-1.5.5-1.5v-1.5-1.5l1.5-.5 1.5-.5-.5-2-.5-2-1-.5-1-.5-16 5.5-16 5.5.5-1.5.5-1.5-.5-.5-.5-.5-.5-.5-.5-.5v-1.5-1.5h1 1l.5.5.5.5.5.5.5.5.5.5.5.5h1.5 1.5v1 1h1 1l.5.5.5.5 1 .5 1 .5.5.5.5.5h1 1l.5.5.5.5 1 .5 1 .5h1.5 1.5" style="fill:#703d1d;stroke:#703d1d"/><path d="m538 501l3 1 1.5-1 1.5-1 1.5-.5 1.5-.5v-2-2l-.5-1.5-.5-1.5-10-10.5-10-10.5-10.5-9.5-10.5-9.5-2-2-2-2 8.5 16.5 8.5 16.5 10 10 10 10" style="fill:#989583;stroke:#989583"/><path d="m537 499l3 1-.5-1.5-.5-1.5-1.5-1-1.5-1-.5-1.5-.5-1.5-2-.5-2-.5-1.5-.5-1.5-.5.5 2 .5 2 1 1 1 1 1 1 1 1 2 .5 2 .5" style="fill:#b8b6a8;stroke:#b8b6a8"/><path d="m298 497v1l-11.5-15.5-11.5-15.5-11.5-7.5-11.5-7.5-12.5 2-12.5 2 15.5 1.5 15.5 1.5 12.5 7.5 12.5 7.5 7.5 11.5 7.5 11.5" style="fill:#703d1d;stroke:#703d1d"/><path d="m308 496l1-1-.5-1.5-.5-1.5 1-.5 1-.5v1 1l.5-.5.5-.5.5-.5.5-.5 1-.5 1-.5.5-.5.5-.5h1 1l.5-.5.5-.5 1-.5 1-.5.5-.5.5-.5h2 2v-.5-.5l-17.5-6.5-17.5-6.5 1 1 1 1 1 .5 1 .5.5.5.5.5 1 1 1 1 1 1 1 1 .5 2 .5 2 .5 1.5.5 1.5 1 .5 1 .5.5.5.5.5.5 1.5.5 1.5.5 1 .5 1 1 1 1 1" style="fill:#29281c;stroke:#29281c"/><path d="m580 494l3 1 1-1 1-1 .5-2 .5-2-.5-1.5-.5-1.5.5-2 .5-2v-2-2-2.5-2.5l-1 1-1 1-.5 1-.5 1-.5 1-.5 1-.5 1.5-.5 1.5-.5 1-.5 1-.5.5-.5.5-.5 1.5-.5 1.5-1 .5-1 .5v1.5 1.5l2 1 2 1" style="fill:#989583;stroke:#989583"/><path d="m234 491l1 1v-1.5-1.5-2-2l-.5-1.5-.5-1.5v-2.5-2.5l-.5-1.5-.5-1.5-.5-2-.5-2-.5-1.5-.5-1.5.5-2 .5-2-1-1-1-1-1-1.5-1-1.5.5 1.5.5 1.5v1.5 1.5l-1-1-1-1-1-1-1-1-1-1.5-1-1.5v2 2l1.5 1 1.5 1 1 1 1 1 .5 1.5.5 1.5.5 2 .5 2v2 2l-.5 2-.5 2-.5 1.5-.5 1.5-1 1.5-1 1.5-1 2-1 2 1-1 1-1h1 1v-1-1l.5-1 .5-1 .5-.5.5-.5.5-.5.5-.5v-1-1l.5-1 .5-1v1 1 1 1l.5.5.5.5v1.5 1.5 1 1l.5 1.5.5 1.5" style="fill:#703d1d;stroke:#703d1d"/><g style="fill:#9d6140;stroke:#9d6140"><path d="m325 485v1l-8.5-8-8.5-8-1.5-.5-1.5-.5h-1-1-1-1l-.5-.5-.5-.5h-1.5-1.5l-.5-.5-.5-.5-1.5-.5-1.5-.5v1 1h-1-1-1-1l.5 2 .5 2 17.5 6.5 17.5 6.5"/><path d="m491 477l-8-35-6.5-14.5-6.5-14.5 5 14 5 14 3 9.5 3 9.5.5 1.5.5 1.5.5 2 .5 2 .5 1.5.5 1.5.5 2 .5 2 .5 1.5.5 1.5"/></g><path d="m589 472v1l-2-21.5-2-21.5-5.5 4-5.5 4 5.5 12 5.5 12 1.5 1 1.5 1 1 1.5 1 1.5-.5 1-.5 1v1.5 1.5" style="fill:#989583;stroke:#989583"/><g style="fill:#703d1d;stroke:#703d1d"><path d="m188 471l1 1v-7-7l-.5-7.5-.5-7.5 2.5-3.5 2.5-3.5 7.5 5 7.5 5 7.5 5.5 7.5 5.5-8.5-22.5-8.5-22.5v1 1l-1 1-1 1 7 16.5 7 16.5-11.5-8.5-11.5-8.5-9.5 5.5-9.5 5.5 6 14 6 14"/><path d="m585 465v1l.5-1 .5-1-.5-1-.5-1-5.5-12-5.5-12-1 .5-1 .5-.5-1-.5-1 .5-1.5.5-1.5.5-2 .5-2v-2-2l-.5-2.5-.5-2.5-.5-1-.5-1-.5-.5-.5-.5-1-2-1-2-.5-2-.5-2v-2-2l-.5-1-.5-1-.5-.5-.5-.5-.5-1.5-.5-1.5-.5-.5-.5-.5-1 .5-1 .5h-1-1l.5-.5.5-.5v-1-1l-.5-1-.5-1v-1-1-1-1l.5-.5.5-.5-.5-1-.5-1-1 1-1 1-.5.5-.5.5-.5.5-.5.5-.5.5-.5.5-1 .5-1 .5v1 1l-.5 1-.5 1-.5 17.5-.5 17.5 5.5-12.5 5.5-12.5 5 12 5 12 1 9 1 9 6 7.5 6 7.5"/><path d="m478 463l1 1-6-16-6-16 2 9.5 2 9.5 3.5 6 3.5 6"/><path d="m298 458l1-1h1 1l.5-.5.5-.5.5-.5.5-.5.5 1 .5 1 .5-.5.5-.5.5-.5.5-.5.5-.5.5-.5h1 1v-1.5-1.5l-1.5-.5-1.5-.5v1.5 1.5l-1.5.5-1.5.5h-1-1l-1 .5-1 .5-2-.5-2-.5-1.5-.5-1.5-.5-1.5-.5-1.5-.5-1.5-1-1.5-1-1-1-1-1v-1.5-1.5l1.5-.5 1.5-.5 1.5-1 1.5-1-2 .5-2 .5h-1.5-1.5l-.5.5-.5.5-.5 1.5-.5 1.5.5 1 .5 1h1 1l1 1 1 1 1 1 1 1 1.5 1 1.5 1 1 1 1 1 1 .5 1 .5.5-.5.5-.5 1 .5 1 .5"/><path d="m493 456l1 1-6.5-14.5-6.5-14.5-3-5-3-5 9 19 9 19"/></g><path d="m295 454l4 1 1-.5 1-.5h1 1l1.5-.5 1.5-.5v-1.5-1.5l-.5-.5-.5-.5 9-4.5 9-4.5-.5-.5-.5-.5 15-3.5 15-3.5 3.5-.5 3.5-.5 19.5-8.5 19.5-8.5v-1.5-1.5l.5-1.5.5-1.5-.5-1.5-.5-1.5-.5-1-.5-1-1.5.5-1.5.5-.5 1.5-.5 1.5-1 1.5-1 1.5-1.5.5-1.5.5-1.5 1-1.5 1h-2-2l-2 .5-2 .5-1.5.5-1.5.5-2 .5-2 .5-14 5-14 5-20.5 5.5-20.5 5.5h-1.5-1.5l-1 .5-1 .5h-1-1l-1 1-1 1-1 1-1 1-1.5 1-1.5 1-1.5.5-1.5.5v1.5 1.5l1 1 1 1 1.5 1 1.5 1 1.5.5 1.5.5 1.5.5 1.5.5" style="fill:#989583;stroke:#989583"/><path d="m150 452l24-16-10.5-3.5-10.5-3.5-1.5 11.5-1.5 11.5" style="fill:#b8b6a8;stroke:#b8b6a8"/><g style="fill:#703d1d;stroke:#703d1d"><path d="m309 449l1-1 .5-.5.5-.5 1 .5 1 .5 1.5-.5 1.5-.5 1-.5 1-.5.5 1.5.5 1.5 1-1.5 1-1.5 1-1 1-1 1-1 1-1-1-1-1-1-9 4.5-9 4.5.5-1 .5-1 .5-.5.5-.5 1 1.5 1 1.5"/><path d="m268 448l-14-7 1 1 1 1 1 1.5 1 1.5 1 1 1 1 1-1 1-1 2 .5 2 .5 1 .5 1 .5"/><path d="m243 443h2l-.5-1.5-.5-1.5-.5-2-.5-2 .5-1.5.5-1.5.5-1 .5-1-1-1-1-1-.5-.5-.5-.5v-1-1l-.5 1.5-.5 1.5-.5 1-.5 1v-1-1l-.5-.5-.5-.5-.5-.5-.5-.5v-1.5-1.5h-1-1l-1 1-1 1 .5 1 .5 1 1 1 1 1 .5 2 .5 2 .5 1.5.5 1.5 1 1.5 1 1.5 1 1.5 1 1.5"/><path d="m360 440l23-12 7.5-7 7.5-7-19.5 8.5-19.5 8.5-1.5 1-1.5 1-1 .5-1 .5 1.5 1.5 1.5 1.5.5-1.5.5-1.5 1 .5 1 .5-1 1-1 1 1 1.5 1 1.5"/></g><path d="m92 439l1-1v-2-2h-2.5-2.5l-1.5.5-1.5.5-2 .5-2 .5-1.5.5-1.5.5-1.5 1-1.5 1h2 2 2 2 2.5 2.5 2 2" style="fill:#faf5e2;stroke:#faf5e2"/><g style="fill:#9d6140;stroke:#9d6140"><path d="m322 439l1 1 15.5-3 15.5-3 1-.5 1-.5 1.5-1 1.5-1-3.5.5-3.5.5-15 3.5-15 3.5"/><path d="m122 436l4 1 1.5-.5 1.5-.5h-1.5-1.5l-1.5-.5-1.5-.5 7-10.5 7-10.5 12.5-13 12.5-13v-.5-.5l-19 17-19 17 5.5-14.5 5.5-14.5 3-15.5 3-15.5v15.5 15.5l1-.5 1-.5-.5-.5-.5-.5 1-.5 1-.5.5-.5.5-.5.5-.5.5-.5.5-.5.5-.5.5-1 .5-1 1.5-.5 1.5-.5 3-12 3-12-.5-15-.5-15-4.5 13-4.5 13h-.5-.5l-1.5.5-1.5.5-.5-1-.5-1v-2-2l-.5-1.5-.5-1.5-.5-2-.5-2-.5-1.5-.5-1.5v-2.5-2.5l-1-1-1-1-.5-2-.5-2-1-1-1-1-.5-2-.5-2-.5-1-.5-1-1-1.5-1-1.5-.5-2-.5-2-1-1-1-1-6-3.5-6-3.5 9.5 19.5 9.5 19.5-8.5-17-8.5-17 7.5 17.5 7.5 17.5 2.5 16.5 2.5 16.5-5.5 14-5.5 14-2 15-2 15"/></g><path d="m301 436v1l20.5-5.5 20.5-5.5 14-5 14-5h-1.5-1.5-1.5-1.5l10-11 10-11-13.5 9-13.5 9h-1.5-1.5l-1 1.5-1 1.5-1.5.5-1.5.5-.5 1-.5 1-16 1.5-16 1.5-16.5 2-16.5 2-2 1-2 1-.5 1-.5 1-2 .5-2 .5-1.5.5-1.5.5h-1-1l-12.5-8-12.5-8-8-10-8-10 3-17.5 3-17.5-1 1-1 1-1 1-1 1-1.5.5-1.5.5-1 1.5-1 1.5-.5 1.5-.5 1.5 1 1.5 1 1.5-1 1-1 1-.5 2-.5 2v1 1h-1-1l-.5-1-.5-1 .5-1 .5-1 .5-.5.5-.5-1-1-1-1v1.5 1.5l-.5 1.5-.5 1.5v1 1l-1-.5-1-.5-1.5.5-1.5.5-2 .5-2 .5-1.5.5-1.5.5-1 1.5-1 1.5-1.5.5-1.5.5-1 1-1 1-.5.5-.5.5-1 .5-1 .5-1.5.5-1.5.5-12-9-12-9-.5-.5-.5-.5v-1.5-1.5l.5-1.5.5-1.5 1-1.5 1-1.5 1-1.5 1-1.5-1 1-1 1-.5.5-.5.5-1 .5-1 .5-.5 1.5-.5 1.5v1 1l-.5.5-.5.5v1 1 1.5 1.5l-.5.5-.5.5.5.5.5.5v1 1l-1 .5-1 .5-.5.5-.5.5-.5.5-.5.5-.5 1-.5 1v.5.5l1.5 16.5 1.5 16.5h1.5 1.5l1.5.5 1.5.5h1 1l.5-2 .5-2v-2-2l-.5-2-.5-2h1.5 1.5l9.5-7 9.5-7 7-5 7-5 4 8 4 8 1.5.5 1.5.5.5.5.5.5.5.5.5.5.5 1 .5 1 .5.5.5.5.5.5.5.5v1 1l.5 1 .5 1 .5.5.5.5.5.5.5.5.5.5.5.5v1 1l.5.5.5.5.5 1 .5 1 .5.5.5.5.5.5.5.5.5 1 .5 1 2-8 2-8 9 11 9 11 15.5.5 15.5.5 7 2 7 2" style="fill:#703d1d;stroke:#703d1d"/><path d="m123 435l3 1h1.5 1.5l2-1 2-1 1.5-.5 1.5-.5 1.5-1 1.5-1 1.5-.5 1.5-.5h1.5 1.5l.5-.5.5-.5 1.5-.5 1.5-.5 1-1 1-1v-.5-.5l6-9.5 6-9.5-.5 7.5-.5 7.5h1.5 1.5l-1.5-16.5-1.5-16.5-12.5 13-12.5 13-7 10.5-7 10.5" style="fill:#29281c;stroke:#29281c"/><g style="fill:#b8b6a8;stroke:#b8b6a8"><path d="m307 435l36-6-16 2-16 2-2 1-2 1"/><path d="m233 434l-13-27 3.5 7.5 3.5 7.5 3 6 3 6"/></g><path d="m406 432l9-33 9-10 9-10-1.5-1-1.5-1-6 9-6 9-6 17.5-6 17.5v-1-1 2 2" style="fill:#703d1d;stroke:#703d1d"/><g style="fill:#989583;stroke:#989583"><path d="m269 431h2l1.5-.5 1.5-.5 2-.5 2-.5.5-1 .5-1-.5-.5-.5-.5-17-21.5-17-21.5-.5-.5-.5-.5.5-1.5.5-1.5v-2-2l1-1.5 1-1.5 1.5-1.5 1.5-1.5-9 5-9 5 1-15.5 1-15.5 1-.5 1-.5.5-1 .5-1 .5-.5.5-.5.5.5.5.5h1 1l.5 1 .5 1 .5.5.5.5-.5.5-.5.5-.5.5-.5.5-1 .5-1 .5-1.5.5-1.5.5v1 1l-.5 1-.5 1v1.5 1.5.5.5l-3 17.5-3 17.5 8 10 8 10 12.5 8 12.5 8"/><path d="m406 430l12-35 6-9 6-9-2 .5-2 .5-1.5.5-1.5.5-1.5 1-1.5 1-1.5.5-1.5.5h-2-2-1.5-1.5l-.5-.5-.5-.5-.5-1-.5-1h-2.5-2.5l-2 .5-2 .5h-1-1-1-1-1-1l-1.5-.5-1.5-.5-1-.5-1-.5-1 .5-1 .5-2-1-2-1-1-1-1-1-1-1.5-1-1.5-.5-1.5-.5-1.5-1-1.5-1-1.5-1-1-1-1-.5-1.5-.5-1.5-.5-1-.5-1-7.5-13.5-7.5-13.5-10.5-9.5-10.5-9.5-16-2-16-2-16 4-16 4-14 6-14 6-20.5 13.5-20.5 13.5v1.5 1.5l-.5.5-.5.5-.5.5-.5.5v1.5 1.5l-.5.5-.5.5v1 1 1 1l-.5 1-.5 1v1 1l-.5.5-.5.5h-1-1l-.5-1-.5-1v-2-2-2-2l-1-2-1-2-1 .5-1 .5h-1-1l-1 .5-1 .5-1 1-1 1-.5.5-.5.5-1 .5-1 .5-1 1-1 1-.5.5-.5.5-.5 1-.5 1-1 1-1 1-.5.5-.5.5h-1-1l-1 1-1 1 12 9 12 9-2.5.5-2.5.5-1.5-.5-1.5-.5-2-12-2-12 3.5 3 3.5 3h5 5l7-12.5 7-12.5 13-6 13-6 14-6 14-6 15-2 15-2 14.5-1.5 14.5-1.5 14 14 14 14-1.5 22-1.5 22-14 5-14 5-20 11.5-20 11.5 16.5-2 16.5-2 16-1.5 16-1.5h-2.5-2.5-1.5-1.5-2-2-2.5-2.5l-1.5.5-1.5.5h-2.5-2.5-2-2l-1.5.5-1.5.5h-1.5-1.5l14-5 14-5 8.5-11.5 8.5-11.5 5 4 5 4-5.5 8.5-5.5 8.5 13.5-9 13.5-9-.5-1-.5-1-1.5.5-1.5.5-1.5 1-1.5 1h-2-2l-1-1.5-1-1.5-.5-1.5-.5-1.5v-2-2-2.5-2.5l.5-1.5.5-1.5 1-1.5 1-1.5 1 1.5 1 1.5 1 1 1 1 1 1 1 1-.5-1-.5-1-1-1.5-1-1.5.5-1.5.5-1.5.5 1.5.5 1.5.5.5.5.5 1 .5 1 .5 1 1 1 1 .5.5.5.5 1 .5 1 .5h2 2 1 1l-.5 1-.5 1-.5 1.5-.5 1.5-1.5-.5-1.5-.5-1-.5-1-.5-1-.5-1-.5-2-1.5-2-1.5 13.5 15 13.5 15v2 2 1 1 1 1l.5.5.5.5v2 2l-.5 2-.5 2v1 1"/></g><path d="m278 426l1 1 2-1 2-1 20-11.5 20-11.5 14-5 14-5v-.5-.5l-1.5-7-1.5-7-8.5 2.5-8.5 2.5 6.5-2.5 6.5-2.5-1-15-1-15 6.5 8.5 6.5 8.5-.5-8-.5-8-10.5-11-10.5-11-13.5-1-13.5-1 8.5.5 8.5.5 3.5 8.5 3.5 8.5-12-9-12-9-8.5 5-8.5 5-10 10-10 10-12.5 14.5-12.5 14.5 17 21.5 17 21.5" style="fill:#29281c;stroke:#29281c"/><path d="m151 425v1l1.5-.5 1.5-.5 1.5-.5 1.5-.5 1.5-1 1.5-1 1-.5 1-.5.5-7.5.5-7.5-6 9.5-6 9.5" style="fill:#703d1d;stroke:#703d1d"/><path d="m124 421l38-34 .5-1 .5-1 .5-.5.5-.5.5-.5.5-.5 1-.5 1-.5v-1-1l-.5-.5-.5-.5.5-.5.5-.5v-1.5-1.5-1-1l.5-.5.5-.5v-1-1l.5-1.5.5-1.5 1-.5 1-.5.5-.5.5-.5 1-1 1-1v-.5-.5l1.5-1.5 1.5-1.5 1.5-.5 1.5-.5 1-1 1-1 1.5-1 1.5-1 1-1 1-1 1.5-1 1.5-1 1-1 1-1-.5-1-.5-1-2 .5-2 .5v-1.5-1.5-1-1l-17.5 18-17.5 18 4.5-12.5 4.5-12.5-1-13-1-13-7.5-10.5-7.5-10.5-7.5-12-7.5-12-5-3-5-3-5.5-14.5-5.5-14.5-5.5-19.5-5.5-19.5v2 2l.5 1.5.5 1.5v1 1 1 1l.5.5.5.5v1.5 1.5l.5 1.5.5 1.5.5.5.5.5v1.5 1.5l.5 1.5.5 1.5v1 1l.5 1.5.5 1.5 7 19.5 7 19.5 1 2 1 2 1 1 1 1 1 1.5 1 1.5 1 1 1 1 1 1.5 1 1.5 1 1 1 1 1 1.5 1 1.5 3 1 3 1 9.5 15.5 9.5 15.5.5 15 .5 15-3 12-3 12-10.5 15-10.5 15 1-1.5 1-1.5.5-2 .5-2 1-1 1-1 .5-2 .5-2 1-1 1-1 .5-1.5.5-1.5.5-.5.5-.5.5-1 .5-1v-15.5-15.5l-3 15.5-3 15.5-5.5 14.5-5.5 14.5" style="fill:#989583;stroke:#989583"/><g style="fill:#b8b6a8;stroke:#b8b6a8"><path d="m313 420h3l1.5-.5 1.5-.5h2 2 2.5 2.5l1.5-.5 1.5-.5h2.5 2.5 2 2 1.5 1.5 2.5 2.5l.5-1 .5-1 1.5-.5 1.5-.5 1-1.5 1-1.5h1.5 1.5l5.5-8.5 5.5-8.5-5-4-5-4-8.5 11.5-8.5 11.5-14 5-14 5"/><path d="m570 418l1 1-3-25-3-25 4.5 4.5 4.5 4.5 7 7 7 7 6-6 6-6-4.5-9.5-4.5-9.5 3-12 3-12 3.5-15 3.5-15-5-15-5-15 1 2 1 2 .5 2 .5 2v17.5 17.5l-4 11-4 11-11 9-11 9-6 7-6 7 5.5 15 5.5 15 .5 1 .5 1v2 2l.5 2 .5 2 1 2 1 2"/></g><path d="m459 417h2l.5-1.5.5-1.5v-1.5-1.5l-.5-1.5-.5-1.5-.5-.5-.5-.5v1.5 1.5l.5.5.5.5v1 1l-.5.5-.5.5h-1-1l-7.5-16-7.5-16 4.5 11 4.5 11 3.5 6.5 3.5 6.5" style="fill:#9d6140;stroke:#9d6140"/><g style="fill:#29281c;stroke:#29281c"><path d="m364 416h3 1.5 1.5l2-.5 2-.5 1.5-.5 1.5-.5 2-.5 2-.5h2 2l1.5-1 1.5-1 1.5-.5 1.5-.5 1-1.5 1-1.5 5.5-4.5 5.5-4.5-14.5-10.5-14.5-10.5-1-1.5-1-1.5-1 1.5-1 1.5-.5 1.5-.5 1.5v2.5 2.5 2 2l.5 1.5.5 1.5 1 1.5 1 1.5h2 2l1.5-1 1.5-1 1.5-.5 1.5-.5.5 1 .5 1-10 11-10 11"/><path d="m204 415v1l1-1 1-1v-1-1l1-1 1-1 1-1 1-1 1-.5 1-.5.5-.5.5-.5 1-1 1-1 1-1 1-1-4-8-4-8-7 5-7 5-9.5 7-9.5 7h2 2l1.5-.5 1.5-.5h2.5 2.5 2 2 2 2l1.5 1 1.5 1 1 1 1 1 1.5 1 1.5 1"/></g><path d="m400 414l2-1 .5-1 .5-1 .5-.5.5-.5 1 .5 1 .5-13.5-15-13.5-15-1-1-1-1-1-1-1-1 14.5 10.5 14.5 10.5-5.5 4.5-5.5 4.5.5-1.5.5-1.5 1.5-.5 1.5-.5.5 1 .5 1 .5 1.5.5 1.5-.5 1.5-.5 1.5v1.5 1.5h1 1" style="fill:#703d1d;stroke:#703d1d"/><path d="m458 414h2l.5-.5.5-.5v-1-1l-.5-.5-.5-.5v-1.5-1.5l-4.5-15.5-4.5-15.5-4 3-4 3 7.5 16 7.5 16" style="fill:#989583;stroke:#989583"/><path d="m130 413l21-30-1.5.5-1.5.5-.5 1-.5 1-.5.5-.5.5-.5.5-.5.5-.5.5-.5.5-1 .5-1 .5.5.5.5.5-1 .5-1 .5-.5 1-.5 1-.5.5-.5.5-.5 1.5-.5 1.5-1 1-1 1-.5 2-.5 2-1 1-1 1-.5 2-.5 2-1 1.5-1 1.5" style="fill:#703d1d;stroke:#703d1d"/><path d="m69 410l20-12-11-9-11-9-.5 14.5-.5 14.5 1.5.5 1.5.5" style="fill:#faf5e2;stroke:#faf5e2"/><g style="fill:#989583;stroke:#989583"><path d="m172 405l3 1 1-1 1-1 1.5-1 1.5-1v-1-1l-.5-2-.5-2-1-1-1-1-2 .5-2 .5-1 1-1 1-1 1-1 1 1 1.5 1 1.5.5 1.5.5 1.5"/><path d="m565 403l1 1-5.5-15-5.5-15 6-7 6-7 11-9 11-9 4-11 4-11v-17.5-17.5l.5 2.5.5 2.5-1.5.5-1.5.5-1 1-1 1 2 .5 2 .5 1-.5 1-.5.5 1.5.5 1.5-.5 1.5-.5 1.5.5 2 .5 2-.5 1.5-.5 1.5v2.5 2.5l-.5 1.5-.5 1.5-.5 2-.5 2-1 1.5-1 1.5-17 14-17 14-1 1-1 1-.5 1-.5 1v2 2l-.5.5-.5.5v1.5 1.5l-.5 1.5-.5 1.5-.5 1-.5 1-.5 1-.5 1-.5 2-.5 2-.5 1.5-.5 1.5-.5 2-.5 2-.5 1.5-.5 1.5-.5 2-.5 2-.5 1.5-.5 1.5v1.5 1.5 2 2l.5 1.5.5 1.5 1-.5 1-.5.5-1 .5-1v-1-1l1-.5 1-.5.5-.5.5-.5.5-.5.5-.5.5-.5.5-.5 1-1 1-1 .5 1 .5 1-.5.5-.5.5v1 1 1 1l.5 1 .5 1v1 1l-.5.5-.5.5h1 1l1-.5 1-.5.5.5.5.5.5 1.5.5 1.5"/></g><path d="m546 401l3 1 1-.5 1-.5v-1.5-1.5l-1 .5-1 .5-.5-1.5-.5-1.5v-2-2l-1 2-1 2-1-1-1-1 .5-2 .5-2-.5-1.5-.5-1.5.5-2 .5-2-.5-1.5-.5-1.5-1.5-1-1.5-1h-1-1l-1 .5-1 .5h1.5 1.5 1 1l.5.5.5.5v1.5 1.5 1 1 1 1 1 1l-.5.5-.5.5-.5-1-.5-1-1-1-1-1-1.5-1-1.5-1 .5-2.5.5-2.5-.5 1-.5 1-1 1-1 1 .5 1.5.5 1.5 1.5 1 1.5 1 1 1 1 1 1 1.5 1 1.5v1 1l1 1.5 1 1.5 1 1.5 1 1.5" style="fill:#703d1d;stroke:#703d1d"/><path d="m277 396l3 1 1-1 1-1v-2.5-2.5l-1-1-1-1h-2.5-2.5l-1.5.5-1.5.5-2 .5-2 .5.5 1.5.5 1.5 1.5.5 1.5.5 1.5 1 1.5 1h1 1" style="fill:#989583;stroke:#989583"/><path d="m186 394l3 1 2.5-.5 2.5-.5v-.5-.5l17-19.5 17-19.5 1-1.5 1-1.5.5-.5.5-.5 1-1 1-1-1 15.5-1 15.5 9-5 9-5 10.5-10.5 10.5-10.5 13.5-12.5 13.5-12.5-15 2-15 2-14 6-14 6-13 6-13 6-7 12.5-7 12.5h-5-5l-3.5-3-3.5-3 2 12 2 12" style="fill:#b8b6a8;stroke:#b8b6a8"/><path d="m507 394h2l.5-1.5.5-1.5 1-1.5 1-1.5.5-1.5.5-1.5-1-1.5-1-1.5h-2-2l-.5 2-.5 2-.5 1.5-.5 1.5.5 1.5.5 1.5.5 1 .5 1" style="fill:#703d1d;stroke:#703d1d"/><path d="m194 393v1l1.5-.5 1.5-.5 1-.5 1-.5.5-.5.5-.5 1-1 1-1 1.5-.5 1.5-.5 1-1.5 1-1.5 1.5-.5 1.5-.5 2-.5 2-.5 1.5-.5 1.5-.5 1 .5 1 .5v-1-1l.5-1.5.5-1.5v-1.5-1.5l.5-2 .5-2 .5-1.5.5-1.5.5-1.5.5-1.5 1-1.5 1-1.5v-1.5-1.5-.5-.5l.5-1 .5-1 1-1 1-1-17 19.5-17 19.5" style="fill:#989583;stroke:#989583"/><path d="m351 391v1l1.5-22 1.5-22 .5 8 .5 8-6.5-8.5-6.5-8.5 1 15 1 15v1.5 1.5-1.5-1.5l-6.5 2.5-6.5 2.5 8.5-2.5 8.5-2.5 1.5 7 1.5 7" style="fill:#703d1d;stroke:#703d1d"/><path d="m542 390l1-1v-1-1-1-1-1-1-1.5-1.5l-.5-.5-.5-.5h-1-1-1.5-1.5l-.5 2.5-.5 2.5 1.5 1 1.5 1 1 1 1 1 .5 1 .5 1" style="fill:#989583;stroke:#989583"/><path d="m387 386l3 1 .5-1.5.5-1.5.5-1 .5-1h-1-1-2-2l-1-.5-1-.5-.5-.5-.5-.5-1-1-1-1-1-.5-1-.5-.5-.5-.5-.5-.5-1.5-.5-1.5-.5 1.5-.5 1.5 1 1.5 1 1.5.5 1 .5 1 2 1.5 2 1.5 1 .5 1 .5 1 .5 1 .5" style="fill:#b8b6a8;stroke:#b8b6a8"/><path d="m221 382h2v-1-1l.5-2 .5-2 1-1 1-1-1-1.5-1-1.5.5-1.5.5-1.5 1-1.5 1-1.5 1.5-.5 1.5-.5 1-1 1-1 1-1 1-1v-.5-.5l-1-.5-1-.5-.5-1.5-.5-1.5-.5-.5-.5-.5-.5 1-.5 1-1 1-1 1-1 .5-1 .5v1.5 1.5l-1 1.5-1 1.5-.5 1.5-.5 1.5-.5 1.5-.5 1.5-.5 2-.5 2 1 1 1 1-.5.5-.5.5-.5 1-.5 1 .5 1 .5 1" style="fill:#29281c;stroke:#29281c"/><g style="fill:#703d1d;stroke:#703d1d"><path d="m243 382l1 1 12.5-14.5 12.5-14.5 10-10 10-10 8.5-5 8.5-5 13.5 1 13.5 1 10.5 11 10.5 11-14-14-14-14-14.5 1.5-14.5 1.5-13.5 12.5-13.5 12.5-10.5 10.5-10.5 10.5-1.5 1.5-1.5 1.5-1 1.5-1 1.5v2 2l-.5 1.5-.5 1.5"/><path d="m409 381l1 1 12-6.5 12-6.5 11.5-6.5 11.5-6.5 12-8 12-8 13-7 13-7 13-7 13-7 14.5-4.5 14.5-4.5 13.5-2 13.5-2 3 11 3 11 1-1.5 1-1.5.5-2 .5-2 .5-1.5.5-1.5v-2.5-2.5l.5-1.5.5-1.5-.5-2-.5-2 .5-1.5.5-1.5-.5-1.5-.5-1.5-1 .5-1 .5-19 3.5-19 3.5h-1.5-1.5-1.5-1.5l-1 .5-1 .5-1.5.5-1.5.5-.5.5-.5.5-1 .5-1 .5-13.5 7-13.5 7-13.5 6.5-13.5 6.5-12 8-12 8-23 12-23 12 12-8 12-8 12.5-7.5 12.5-7.5 12-8 12-8 13.5-6 13.5-6 19-9 19-9v-1-1l1.5-.5 1.5-.5-2-.5-2-.5 1.5-.5 1.5-.5 1.5-.5 1.5-.5 1.5-.5 1.5-.5h-1.5-1.5l-.5.5-.5.5h-1.5-1.5-1-1l-.5.5-.5.5h-1-1l-1 .5-1 .5-14.5 5.5-14.5 5.5-12.5 7.5-12.5 7.5-14.5 9-14.5 9-24.5 15-24.5 15-1 1-1 1-1 .5-1 .5-.5.5-.5.5-.5.5-.5.5-1.5-.5-1.5-.5-12.5-21.5-12.5-21.5 5.5 9 5.5 9-1.5 6.5-1.5 6.5 1 2 1 2 1 1 1 1 1 1.5 1 1.5.5 1.5.5 1.5 1 1.5 1 1.5-1 1-1 1h-2.5-2.5l-1.5.5-1.5.5h-1-1-2-2l-.5-1.5-.5-1.5-.5-.5-.5-.5v-1.5-1.5-2-2l-.5-.5-.5-.5.5-1 .5-1-.5-1.5-.5-1.5v-2.5-2.5l-1-1-1-1v-2-2-1-1l1 14 1 14-7-7-7-7 .5 1 .5 1 .5 1.5.5 1.5 1 1 1 1 1 1.5 1 1.5.5 1.5.5 1.5 1 1.5 1 1.5 1 1 1 1 2 1 2 1 .5-1 .5-1h1 1 1 1 1 1 1.5 1.5l.5-.5.5-.5h1 1l.5-.5.5-.5 1 .5 1 .5.5 1.5.5 1.5h2.5 2.5l.5 1 .5 1"/></g><path d="m390 379l3 1h1 1 1 1 1 1l2-.5 2-.5-.5-1.5-.5-1.5-1-.5-1-.5-.5.5-.5.5h-1-1l-.5.5-.5.5h-1.5-1.5-1-1-1-1-1-1l-.5 1-.5 1 1-.5 1-.5 1 .5 1 .5" style="fill:#29281c;stroke:#29281c"/><path d="m152 378l35-36 9.5-10.5 9.5-10.5 10-10 10-10 14-9 14-9v-.5-.5l7-11.5 7-11.5 13-21 13-21 11-10.5 11-10.5 12-8 12-8 17-7 17-7v-.5-.5l4-12 4-12 2.5-14 2.5-14-.5-14.5-.5-14.5-5.5-11.5-5.5-11.5-7.5-.5-7.5-.5-12-6-12-6-16.5 1.5-16.5 1.5-13.5 6.5-13.5 6.5-14 6-14 6-.5-4.5-.5-4.5-1.5-4.5-1.5-4.5-2 1-2 1-1.5.5-1.5.5-1.5 1-1.5 1-1.5.5-1.5.5-2 .5-2 .5-1.5.5-1.5.5-1.5.5-1.5.5-14.5 10.5-14.5 10.5-19.5 10.5-19.5 10.5 10-10 10-10 11.5-8 11.5-8 14.5-7 14.5-7-3.5-.5-3.5-.5-13.5 6-13.5 6-18 10-18 10-2 1.5-2 1.5-10 10-10 10-8 7-8 7-2.5 10.5-2.5 10.5-6.5 30-6.5 30 5.5 19.5 5.5 19.5 5.5 14.5 5.5 14.5 5 3 5 3 7.5 12 7.5 12 7.5 10.5 7.5 10.5 1 13 1 13-4.5 12.5-4.5 12.5" style="fill:#b8b6a8;stroke:#b8b6a8"/><path d="m63 377l3 1h1 1 1 1 1.5 1.5 1 1 1 1l.5-.5.5-.5h1 1 1.5 1.5l.5-.5.5-.5v-1-1l-.5-.5-.5-.5-.5-1-.5-1-1-.5-1-.5h-3.5-3.5l-1 .5-1 .5h-2-2l-2 .5-2 .5-.5 1.5-.5 1.5.5 1 .5 1" style="fill:#703d1d;stroke:#703d1d"/><path d="m310 376h2l.5-1.5.5-1.5-1-1.5-1-1.5-1-1-1-1-2-.5-2-.5-1 1-1 1 1 1.5 1 1.5.5 1.5.5 1.5 1.5.5 1.5.5h.5.5" style="fill:#989583;stroke:#989583"/><path d="m169 375l1 1 1-1 1-1h1 1l.5-.5.5-.5 1-1 1-1 .5-1 .5-1 .5-.5.5-.5 1-1 1-1 1-.5 1-.5.5-.5.5-.5 1-1 1-1 1-.5 1-.5h1 1l1-.5 1-.5 1-.5 1-.5 1 1.5 1 1.5 1-1 1-1 1-1 1-1 1-1 1-1 20.5-13.5 20.5-13.5 14-6 14-6 16-4 16-4 16 2 16 2 10.5 9.5 10.5 9.5 7.5 13.5 7.5 13.5 7 7 7 7-1-14-1-14 1 .5 1 .5.5.5.5.5.5.5.5.5 1 .5 1 .5.5.5.5.5.5.5.5.5v1 1h1.5 1.5l-.5 1.5-.5 1.5 1 .5 1 .5 1.5-6.5 1.5-6.5-5.5-9-5.5-9 1.5 1 1.5 1 1.5.5 1.5.5.5.5.5.5.5 1 .5 1 1 1 1 1 1.5 1 1.5 1 1 1 1 1 1 1 1 1h1 1l1 .5 1 .5 1 1.5 1 1.5 2.5-11 2.5-11-.5-9-.5-9-10-9-10-9-5-3-5-3-9 3-9 3-8.5 5.5-8.5 5.5-10.5 3.5-10.5 3.5-9-3-9-3-4.5-5.5-4.5-5.5-9.5-6.5-9.5-6.5-8.5 4.5-8.5 4.5-9.5 4.5-9.5 4.5-11 7-11 7-18.5 19-18.5 19v1.5 1.5l2-.5 2-.5-8.5 8.5-8.5 8.5-1 1.5-1 1.5-1 1.5-1 1.5-.5 1.5-.5 1.5v1.5 1.5" style="fill:#29281c;stroke:#29281c"/><path d="m392 375h2l1.5-.5 1.5-.5h2.5 2.5l1-1 1-1-1-1.5-1-1.5-.5-1.5-.5-1.5-1-1.5-1-1.5-1-1-1-1-1-2-1-2-1-.5-1-.5.5-1.5.5-1.5h-1.5-1.5v-1-1l-.5-.5-.5-.5-.5-.5-.5-.5-1-.5-1-.5-.5-.5-.5-.5-.5-.5-.5-.5-1-.5-1-.5v1 1 2 2l1 1 1 1v2.5 2.5l.5 1.5.5 1.5-.5 1-.5 1 .5.5.5.5v2 2 1.5 1.5l.5.5.5.5.5 1.5.5 1.5h2 2" style="fill:#989583;stroke:#989583"/><path d="m195 374h2l.5-.5.5-.5v-1-1l.5-1 .5-1v-1-1-1-1l.5-.5.5-.5v-1.5-1.5l.5-.5.5-.5.5-.5.5-.5v-1.5-1.5l-1 1-1 1-1 1-1 1-1 1-1 1-1-1.5-1-1.5-1 .5-1 .5 1 2 1 2v2 2 2 2l.5 1 .5 1" style="fill:#703d1d;stroke:#703d1d"/><g style="fill:#989583;stroke:#989583"><path d="m421 372l46-24 12-8 12-8 13.5-6.5 13.5-6.5 13.5-7 13.5-7-1.5.5-1.5.5h-1-1l-1 .5-1 .5h-1-1l-.5.5-.5.5-1.5-.5-1.5-.5 12-3 12-3h1.5 1.5v-.5-.5l2-.5 2-.5 1-1 1-1 .5-.5.5-.5.5-.5.5-.5h1 1l-1-.5-1-.5-.5-.5-.5-.5-.5-.5-.5-.5-.5-.5-.5-.5-.5 1-.5 1-.5.5-.5.5-1.5.5-1.5.5-19 9-19 9-13.5 6-13.5 6-12 8-12 8-12.5 7.5-12.5 7.5-12 8-12 8"/><path d="m412 369l3 1 .5-.5.5-.5.5-.5.5-.5 1-.5 1-.5 1-1 1-1h-1.5-1.5l-1 1-1 1-1.5-.5-1.5-.5 4-6 4-6-.5-17.5-.5-17.5-1 15.5-1 15.5-.5-1-.5-1-1-.5-1-.5h-1-1l-.5-.5-.5-.5-1-1-1-1-1-1.5-1-1.5-1-.5-1-.5h-1-1l-1-1-1-1-1-1-1-1-1.5-1-1.5-1-1-1-1-1-.5-1-.5-1-.5-.5-.5-.5-1.5-.5-1.5-.5-1.5-1-1.5-1 12.5 21.5 12.5 21.5"/></g><path d="m413 366l3 1 1-1 1-1h1.5 1.5l24.5-15 24.5-15v-.5-.5l11-9 11-9v-4-4l-3.5 1.5-3.5 1.5-13-2-13-2-12.5 3.5-12.5 3.5-7 2.5-7 2.5.5 17.5.5 17.5-4 6-4 6" style="fill:#b8b6a8;stroke:#b8b6a8"/><g style="fill:#703d1d;stroke:#703d1d"><path d="m555 365v1l.5-1 .5-1 .5-1.5.5-1.5v-1.5-1.5l.5-.5.5-.5v-2-2l.5-1 .5-1 1-1 1-1-3 8-3 8"/><path d="m174 362v1l8.5-8.5 8.5-8.5.5 1 .5 1-1 1-1 1-1.5 1-1.5 1-1 1-1 1-1.5 1-1.5 1-1 1-1 1-1.5.5-1.5.5-1.5 1.5-1.5 1.5"/><path d="m225 358v1l1-.5 1-.5 1-1 1-1 .5-1 .5-1 .5.5.5.5.5 1.5.5 1.5 1 .5 1 .5v-1.5-1.5l.5-1 .5-1v-1-1l1.5-.5 1.5-.5 1-.5 1-.5.5-.5.5-.5.5-.5.5-.5-.5-.5-.5-.5-.5-1-.5-1h-1-1l-.5-.5-.5-.5-.5.5-.5.5-.5 1-.5 1-1 .5-1 .5-1 1-1 1-.5.5-.5.5-1 1.5-1 1.5-1 1-1 1-.5 1-.5 1"/></g><path d="m143 356l3-1 .5-9 .5-9-7.5-8-7.5-8 .5 1 .5 1 .5 2 .5 2 1 1 1 1 .5 2 .5 2 1 1 1 1v2.5 2.5l.5 1.5.5 1.5.5 2 .5 2 .5 1.5.5 1.5v2 2l.5 1 .5 1" style="fill:#29281c;stroke:#29281c"/><g style="fill:#703d1d;stroke:#703d1d"><path d="m147 355l9-26-2-.5-2-.5-.5-1.5-.5-1.5v1 1h-.5-.5l-.5-1.5-.5-1.5-.5-.5-.5-.5-.5 1-.5 1v2 2h-1-1l-7-16.5-7-16.5-1-1.5-1-1.5-1-1-1-1-1-1.5-1-1.5-1-1-1-1-1-1.5-1-1.5-1-1-1-1-1-2-1-2-1 .5-1 .5v-1.5-1.5l-.5.5-.5.5-.5 1-.5 1v1.5 1.5l.5.5.5.5.5 1.5.5 1.5.5 1 .5 1v1 1l.5 1.5.5 1.5.5 1 .5 1 .5.5.5.5.5 1.5.5 1.5.5 1.5.5 1.5.5 1 .5 1 .5.5.5.5.5 1.5.5 1.5.5 1 .5 1 .5.5.5.5.5 1 .5 1 1 1 1 1 .5 2 .5 2 1 1.5 1 1.5 7.5 8 7.5 8-.5 9-.5 9h.5.5"/><path d="m328 355l3 1v-2-2l-.5-2-.5-2-.5-1.5-.5-1.5-1.5-1-1.5-1-.5 1.5-.5 1.5.5 2 .5 2v2 2l1 .5 1 .5"/><path d="m302 351h2l1.5.5 1.5.5h1.5 1.5l1.5-.5 1.5-.5 1-1.5 1-1.5 1-1 1-1h1.5 1.5l-.5-1.5-.5-1.5-1-1-1-1h-1.5-1.5l.5 1.5.5 1.5-.5 2-.5 2-1 1-1 1h-2.5-2.5l-1.5-.5-1.5-.5-.5-.5-.5-.5-1 .5-1 .5.5 1 .5 1"/><path d="m418 350l2-31-13-21-13-21-16 2.5-16 2.5-14 6-14 6-1.5.5-1.5.5h-2-2-1-1-1.5-1.5l-1.5.5-1.5.5-1.5-.5-1.5-.5v-6-6l-12.5-7.5-12.5-7.5-11.5-4.5-11.5-4.5-7 12-7 12-14 9-14 9-10 10-10 10-9.5 10.5-9.5 10.5v1 1l18.5-19 18.5-19 11-7 11-7 9.5-4.5 9.5-4.5 8.5-4.5 8.5-4.5 9.5 6.5 9.5 6.5 4.5 5.5 4.5 5.5 9 3 9 3 10.5-3.5 10.5-3.5 8.5-5.5 8.5-5.5 9-3 9-3 5 3 5 3 10 9 10 9 .5 9 .5 9-2.5 11-2.5 11 1 1 1 1 .5.5.5.5h1 1l1 .5 1 .5.5 1 .5 1"/></g><path d="m304 349l3 1h2.5 2.5l1-1 1-1 .5-2 .5-2-.5-1.5-.5-1.5-3 .5-3 .5-1 1-1 1-1 1-1 1-.5 1-.5 1 .5.5.5.5" style="fill:#989583;stroke:#989583"/><path d="m134 344l-19-39 .5 1 .5 1 .5 1.5.5 1.5 8.5 17 8.5 17" style="fill:#29281c;stroke:#29281c"/><path d="m330 342l-7-17-8.5-.5-8.5-.5 12 9 12 9" style="fill:#703d1d;stroke:#703d1d"/><path d="m470 334v1l14.5-9 14.5-9 12.5-7.5 12.5-7.5 14.5-5.5 14.5-5.5-1.5.5-1.5.5-1.5-.5-1.5-.5 2-7 2-7 8 5.5 8 5.5h2 2 1.5 1.5 1 1l.5-.5.5-.5.5.5.5.5.5 1 .5 1v1 1l.5.5.5.5h1 1l.5.5.5.5 1-.5 1-.5v1 1l.5-.5.5-.5.5-.5.5-.5.5-1 .5-1 1-.5 1-.5 3.5-2.5 3.5-2.5-.5-2-.5-2-1-2-1-2-3 .5-3 .5h-1-1l1 1.5 1 1.5h-1-1-1-1l-1-1-1-1-.5-1-.5-1-27.5-8-27.5-8-1 .5-1 .5 1 1 1 1 1.5.5 1.5.5 1 1.5 1 1.5 1 1 1 1 1 1 1 1 1 1.5 1 1.5.5 1.5.5 1.5v2.5 2.5l-.5 1-.5 1-.5 1-.5 1-.5 1-.5 1-2-.5-2-.5-15.5-9.5-15.5-9.5 9.5 14 9.5 14-4 2.5-4 2.5-11-6-11-6-7.5 3.5-7.5 3.5-13.5.5-13.5.5-7.5 3-7.5 3-11.5-9-11.5-9 1-19 1-19-.5-.5-.5-.5v-1-1l-8 16-8 16 13 21 13 21 7-2.5 7-2.5 12.5-3.5 12.5-3.5 13 2 13 2 3.5-1.5 3.5-1.5v4 4l-11 9-11 9" style="fill:#989583;stroke:#989583"/><g style="fill:#9d6140;stroke:#9d6140"><path d="m145 329h2v-2-2l.5-1 .5-1 .5.5.5.5.5 1.5.5 1.5h.5.5v-1-1l.5 1.5.5 1.5 2 .5 2 .5-9.5-15.5-9.5-15.5-3-1-3-1 7 16.5 7 16.5"/><path d="m697 326l13-31 1 5 1 5v-2.5-2.5-2-2-2.5-2.5-2-2-2-2-2.5-2.5l-10 6-10 6 3 5 3 5 4 3 4 3-2.5 2-2.5 2-2 8-2 8"/></g><path d="m532 307l3 1 .5-.5.5-.5h1 1l1-.5 1-.5h1 1l1.5-.5 1.5-.5 1-.5 1-.5.5-.5.5-.5 1.5-.5 1.5-.5 1-.5 1-.5h1.5 1.5l-12 3-12 3" style="fill:#b8b6a8;stroke:#b8b6a8"/><path d="m432 304l15-6 13.5-.5 13.5-.5 7.5-3.5 7.5-3.5 11 6 11 6 4-2.5 4-2.5v-.5-.5l-10-10.5-10-10.5-9-10-9-10-11-9-11-9-15-1.5-15-1.5.5 1 .5 1v1 1h-2-2l-2-.5-2-.5-.5 1.5-.5 1.5-.5 2-.5 2-.5.5-.5.5-2 .5-2 .5-2 1-2 1-1 19-1 19 11.5 9 11.5 9" style="fill:#29281c;stroke:#29281c"/><g style="fill:#9d6140;stroke:#9d6140"><path d="m63 301l1 1-28.5-8.5-28.5-8.5h-1.5-1.5l-2-.5-2-.5v.5.5l31.5 8 31.5 8"/><path d="m559 300v1l19-3.5 19-3.5-2-.5-2-.5h-1.5-1.5v-1.5-1.5l-1 .5-1 .5-.5 1-.5 1-.5.5-.5.5-.5.5-.5.5v-1-1l-1 .5-1 .5-.5-.5-.5-.5h-1-1l-.5-.5-.5-.5v-1-1l-.5-1-.5-1-.5-.5-.5-.5-.5.5-.5.5h-1-1-1.5-1.5-2-2l-1.5.5-1.5.5-1.5.5-1.5.5-1.5.5-1.5.5 2 .5 2 .5-1.5.5-1.5.5v1 1l1.5-.5 1.5-.5.5-.5.5-.5.5-1 .5-1 .5.5.5.5.5.5.5.5.5.5.5.5 1 .5 1 .5h-1-1l-.5.5-.5.5-.5.5-.5.5-1 1-1 1-2 .5-2 .5"/></g><path d="m519 296v1l-9.5-14-9.5-14-11-10-11-10-14.5-11.5-14.5-11.5-1 .5-1 .5-.5-.5-.5-.5h-1-1l-1-.5-1-.5-1.5-.5-1.5-.5h-1-1l-1-.5-1-.5-.5 1.5-.5 1.5v1 1l-.5.5-.5.5h-1-1-1.5-1.5v1 1l.5 1.5.5 1.5 15 1.5 15 1.5 11 9 11 9 9 10 9 10 10 10.5 10 10.5" style="fill:#703d1d;stroke:#703d1d"/><path d="m316 295l3 1 1.5-.5 1.5-.5h1.5 1.5 1 1 2 2l1.5-.5 1.5-.5-2.5-.5-2.5-.5-11.5-9.5-11.5-9.5-12.5-7.5-12.5-7.5 11.5-5.5 11.5-5.5 13.5-5.5 13.5-5.5 12.5-3.5 12.5-3.5 14.5-4.5 14.5-4.5 16-2 16-2 8.5 3 8.5 3-12 11-12 11 1-.5 1-.5h1 1 1.5 1.5l.5-.5.5-.5v-1-1-1-1l-.5-1-.5-1 .5-.5.5-.5h1 1 1 1 1.5 1.5 1 1l1-1 1-1-.5-1.5-.5-1.5v-1-1h1.5 1.5 1 1l.5-.5.5-.5v-1-1l.5-1.5.5-1.5 1 .5 1 .5h1 1l1.5.5 1.5.5 1 .5 1 .5h1 1l.5.5.5.5 1-.5 1-.5-11-9-11-9-17.5 2.5-17.5 2.5-15 5-15 5-15 5-15 5-14.5 5.5-14.5 5.5-5-11-5-11v-.5-.5l.5-2 .5-2-13 21-13 21 11.5 4.5 11.5 4.5 12.5 7.5 12.5 7.5v6 6" style="fill:#989583;stroke:#989583"/><path d="m329 293l5 1 14-6 14-6 16-2.5 16-2.5 8-16 8-16 12-11 12-11-8.5-3-8.5-3-16 2-16 2-14.5 4.5-14.5 4.5-12.5 3.5-12.5 3.5-13.5 5.5-13.5 5.5-11.5 5.5-11.5 5.5 12.5 7.5 12.5 7.5 11.5 9.5 11.5 9.5" style="fill:#b8b6a8;stroke:#b8b6a8"/><path d="m590 293h3l1-1 1-1 1.5-.5 1.5-.5-.5-2.5-.5-2.5-3.5 2.5-3.5 2.5v1.5 1.5" style="fill:#703d1d;stroke:#703d1d"/><path d="m547 291l3 1 1.5-.5 1.5-.5 1-.5 1-.5h1 1l.5-.5.5-.5h1 1 1.5 1.5l.5-.5.5-.5h1.5 1.5l-8-5.5-8-5.5-2 7-2 7" style="fill:#b8b6a8;stroke:#b8b6a8"/><path d="m531 288l4 1 .5-1 .5-1 .5-1 .5-1v-.5-.5l-5.5-11.5-5.5-11.5 27.5 8 27.5 8-6-10.5-6-10.5-10-9-10-9-8-6-8-6-1-4-1-4 11.5 8.5 11.5 8.5 6 3 6 3-14-15-14-15-.5-.5-.5-.5-5.5-22.5-5.5-22.5-.5-.5-.5-.5-6.5-13.5-6.5-13.5-5.5-12-5.5-12-6-13-6-13-8.5-9.5-8.5-9.5-9.5-10.5-9.5-10.5-15.5-8.5-15.5-8.5h-2-2l-17.5-3.5-17.5-3.5-15.5-2.5-15.5-2.5-23 1.5-23 1.5-16.5 3.5-16.5 3.5-14.5 5.5-14.5 5.5-17 8-17 8 13.5-4 13.5-4 12.5-5.5 12.5-5.5 12.5-2.5 12.5-2.5 13.5-2.5 13.5-2.5-9.5 6.5-9.5 6.5-12.5 7.5-12.5 7.5-12.5 10.5-12.5 10.5 12.5-6 12.5-6 11.5-5.5 11.5-5.5h28.5 28.5l1-.5 1-.5-.5-.5-.5-.5v-1.5-1.5h1 1l.5.5.5.5v1 1l.5-.5.5-.5-.5-1-.5-1v-1-1h1 1l1 .5 1 .5 15.5 19 15.5 19-1.5 26-1.5 26 .5 1 .5 1v1 1l-.5 1-.5 1-.5 2-.5 2-6 12-6 12-11 6.5-11 6.5-13 5-13 5-16 14.5-16 14.5 5 11 5 11 14.5-5.5 14.5-5.5 15-5 15-5 15-5 15-5 17.5-2.5 17.5-2.5 11 9 11 9 14.5 11.5 14.5 11.5 11 10 11 10 15.5 9.5 15.5 9.5" style="fill:#29281c;stroke:#29281c"/><path d="m24 287l6-29-3.5-9.5-3.5-9.5-6-13-6-13-5.5-13.5-5.5-13.5v20 20 19.5 19.5 9.5 9.5l2 .5 2 .5h1.5 1.5 2.5 2.5l2 .5 2 .5 1.5.5 1.5.5h2.5 2.5" style="fill:#b8b6a8;stroke:#b8b6a8"/><path d="m537 284v1l.5-1 .5-1v-2.5-2.5l-.5-1.5-.5-1.5-1-1.5-1-1.5-1-1-1-1-1-1-1-1-1-1.5-1-1.5-1.5-.5-1.5-.5-1-1-1-1 1-.5 1-.5 5.5 11.5 5.5 11.5" style="fill:#703d1d;stroke:#703d1d"/><path d="m254 282v1l7-12 7-12-7 11.5-7 11.5" style="fill:#989583;stroke:#989583"/><path d="m584 281h2 1 1l-1-1.5-1-1.5h1 1l3-.5 3-.5-.5-1-.5-1-.5-1.5-.5-1.5-1-1.5-1-1.5-.5-1.5-.5-1.5-1-1.5-1-1.5-.5-1.5-.5-1.5-1-1.5-1-1.5-.5-1.5-.5-1.5-1-1-1-1-.5-.5-.5-.5-17.5-16-17.5-16-1-.5-1-.5-1-.5-1-.5-.5-2-.5-2-1-1-1-1 14 15 14 15-6-3-6-3-11.5-8.5-11.5-8.5 1 4 1 4 8 6 8 6 10 9 10 9 6 10.5 6 10.5.5 1 .5 1 1 1 1 1" style="fill:#703d1d;stroke:#703d1d"/><g style="fill:#9d6140;stroke:#9d6140"><path d="m649 281v1l30-6.5 30-6.5-2 1-2 1-1.5.5-1.5.5-2 .5-2 .5-1.5.5-1.5.5-2 .5-2 .5-1.5.5-1.5.5-2 .5-2 .5h-2.5-2.5l-1 .5-1 .5h-1-1-1.5-1.5l-.5.5-.5.5h-1-1-1-1-1.5-1.5-1-1l-.5.5-.5.5h-1-1l-1-.5-1-.5h-1-1l-.5-.5-.5-.5h-1-1l-.5.5-.5.5-1 1-1 1"/><path d="m113 277v1l.5-1 .5-1 .5-.5.5-.5v1.5 1.5l1-.5 1-.5-7-19.5-7-19.5-1.5 1-1.5 1-.5.5-.5.5-1 .5-1 .5 8 17.5 8 17.5"/></g><path d="m585 274l-12-22 4.5 8.5 4.5 8.5 1.5 2.5 1.5 2.5" style="fill:#989583;stroke:#989583"/><path d="m580 251l1 1-4-24.5-4-24.5-2-15-2-15 4-9 4-9-6.5-11.5-6.5-11.5-6.5-3.5-6.5-3.5-6.5-2.5-6.5-2.5-8.5-.5-8.5-.5-8-8-8-8-7.5-12-7.5-12-9-11-9-11-11-9-11-9 10.5 9.5 10.5 9.5 14 20 14 20 10 21.5 10 21.5 1 2 1 2 6 20.5 6 20.5.5 1.5.5 1.5.5.5.5.5.5 1 .5 1 .5 1.5.5 1.5v2 2 1 1l.5 1 .5 1 .5 1.5.5 1.5v1 1l.5 1 .5 1 .5 1.5.5 1.5.5.5.5.5.5 1 .5 1 1 1.5 1 1.5 17.5 16 17.5 16" style="fill:#b8b6a8;stroke:#b8b6a8"/><g style="fill:#703d1d;stroke:#703d1d"><path d="m410 247l1 1 2-1 2-1 2-.5 2-.5.5-.5.5-.5.5-2 .5-2 .5-1.5.5-1.5 2 .5 2 .5h2 2v-1-1l-.5-1-.5-1-1 1-1 1h-1-1-1.5-1.5-1-1-1-1l-.5.5-.5.5.5 1 .5 1v1 1 1 1l-.5.5-.5.5h-1.5-1.5-1-1l-1 .5-1 .5v1 1"/><path d="m97 241v1l1-.5 1-.5.5-.5.5-.5 1.5-1 1.5-1-.5-1.5-.5-1.5v-1-1l-.5-1.5-.5-1.5v-1.5-1.5l-.5-.5-.5-.5-.5-1.5-.5-1.5v-1.5-1.5l-.5-.5-.5-.5v-1-1-1-1l-.5-1.5-.5-1.5v-2-2l-.5-.5-.5-.5v-19-19l7.5-15 7.5-15-10 18-10 18-1 16-1 16 4 17 4 17"/><path d="m293 221v1l16-14.5 16-14.5 13-5 13-5 11-6.5 11-6.5 6-12 6-12-.5 1-.5 1v1 1l-.5 1-.5 1 .5 1.5.5 1.5-.5.5-.5.5v1.5 1.5l-.5 1.5-.5 1.5-.5.5-.5.5-1 .5-1 .5-1 1-1 1h-1.5-1.5l-17 7-17 7-12 8-12 8-11 10.5-11 10.5-.5 2-.5 2"/></g><path d="m543 218l2 1-1-1.5-1-1.5-.5-1-.5-1-.5-.5-.5-.5-.5-1.5-.5-1.5-.5-1-.5-1v-1-1l-.5-1.5-.5-1.5-.5-1-.5-1v-1-1-2-2l-.5-1.5-.5-1.5-.5-1-.5-1-.5-.5-.5-.5-.5-1.5-.5-1.5v1.5 1.5l.5.5.5.5v1.5 1.5l.5 1.5.5 1.5v1 1l.5 1 .5 1 .5 1.5.5 1.5v1 1l.5 1 .5 1v2 2l1 1 1 1 .5 2 .5 2 1 .5 1 .5" style="fill:#989583;stroke:#989583"/><path d="m274 210l20-10 3-7 3-7-1-7-1-7 3-1 3-1 5.5-5.5 5.5-5.5 2-2 2-2 1-8 1-8 8-5.5 8-5.5-2.5-8.5-2.5-8.5 2.5-1.5 2.5-1.5 5.5-2.5 5.5-2.5 7-2 7-2 7.5.5 7.5.5 2-5 2-5-5.5-11.5-5.5-11.5-6 4-6 4-6-6-6-6-8.5-3.5-8.5-3.5-10.5 5.5-10.5 5.5-8-4-8-4-11 6-11 6-13.5 4.5-13.5 4.5-2.5-5.5-2.5-5.5-5.5-1-5.5-1-11.5 8.5-11.5 8.5-11.5 7.5-11.5 7.5-11.5 6.5-11.5 6.5-.5-6.5-.5-6.5 3.5-5.5 3.5-5.5-11 9-11 9-7.5 11.5-7.5 11.5v11 11l4 8 4 8 3.5 4.5 3.5 4.5 3.5-6.5 3.5-6.5 4 2 4 2 8.5-1.5 8.5-1.5 3-1 3-1 2.5-1.5 2.5-1.5 8 .5 8 .5 1.5 4.5 1.5 4.5 6 2 6 2 7.5-1.5 7.5-1.5 7.5 1.5 7.5 1.5 3-3 3-3-1.5 4.5-1.5 4.5-2 6-2 6 6-3 6-3 4 1 4 1 4 1 4 1 1.5 5.5 1.5 5.5h-6-6l5.5 4.5 5.5 4.5-.5 2-.5 2" style="fill:#faf5e2;stroke:#faf5e2"/><path d="m537 210l1 1v-2-2l-.5-1-.5-1v-1-1l-.5-1.5-.5-1.5-.5-1-.5-1v-1-1l-.5-1.5-.5-1.5v-1.5-1.5l-.5-.5-.5-.5v-1.5-1.5l-.5-.5-.5-.5v-1.5-1.5l-1-1.5-1-1.5-.5-1.5-.5-1.5v-2.5-2.5l-.5-1.5-.5-1.5-1-1.5-1-1.5 5.5 22.5 5.5 22.5" style="fill:#9d6140;stroke:#9d6140"/><g style="fill:#989583;stroke:#989583"><path d="m96 207l1 1 6.5-30 6.5-30 2.5-10.5 2.5-10.5 8-7 8-7 10-10 10-10-1 .5-1 .5-1.5.5-1.5.5-1 1.5-1 1.5-1.5.5-1.5.5-1 1-1 1-.5.5-.5.5-.5 1-.5 1h-1.5-1.5l10.5-9.5 10.5-9.5 12-7.5 12-7.5 14.5-7.5 14.5-7.5 1.5-1 1.5-1 1-1 1-1h1 1l.5-1 .5-1 1.5-.5 1.5-.5 1.5-1 1.5-1 1.5-.5 1.5-.5 2-.5 2-.5 1.5-.5 1.5-.5 1-1 1-1-12.5 5.5-12.5 5.5-13 7-13 7-12.5 7.5-12.5 7.5-11 9-11 9-10 10-10 10-8 12-8 12 1-.5 1-.5v-1-1h1 1v-1-1l.5-1 .5-1 1-1 1-1v1 1l1-.5 1-.5 1.5-.5 1.5-.5v1 1l-.5 1.5-.5 1.5-7.5 15-7.5 15v19 19"/><path d="m532 185l1 1-6-20.5-6-20.5.5 2 .5 2v1 1 1.5 1.5l.5 1.5.5 1.5.5.5.5.5.5 1 .5 1 .5 2.5.5 2.5 1 1.5 1 1.5.5 1.5.5 1.5v2.5 2.5l.5 1.5.5 1.5 1 1.5 1 1.5v1.5 1.5"/></g><path d="m90 174l1 1 10-18 10-18 .5-1.5.5-1.5v-1-1l-1.5.5-1.5.5-1 .5-1 .5v-1-1l-1 1-1 1-.5 1-.5 1v1 1h-1-1v1 1l-1 .5-1 .5-1 2-1 2-.5 1.5-.5 1.5-1 1.5-1 1.5v2 2l-1 1.5-1 1.5-.5 1.5-.5 1.5-.5 2-.5 2-.5 1.5-.5 1.5v2 2" style="fill:#9d6140;stroke:#9d6140"/><path d="m374 165v1h1.5 1.5l1-1 1-1 1-.5 1-.5.5-.5.5-.5.5-1.5.5-1.5v-1.5-1.5l.5-.5.5-.5-.5-1.5-.5-1.5.5-1 .5-1v-1-1l.5-1 .5-1 .5-2 .5-2 .5-1 .5-1v-1-1l-.5-1-.5-1v-.5-.5l1.5-25.5 1.5-25.5-15.5-19-15.5-19-1 1-1 1 .5 1.5.5 1.5 1 1.5 1 1.5.5 1.5.5 1.5h-1-1l-1-.5-1-.5-.5-.5-.5-.5h-1-1l-1-.5-1-.5-.5-1-.5-1h-28.5-28.5l-11.5 5.5-11.5 5.5-12.5 6-12.5 6 5-6.5 5-6.5 16.5-11.5 16.5-11.5h-1.5-1.5l-1.5 1-1.5 1h-1-1-1-1l-1-1-1-1h-1-1l-.5-.5-.5-.5.5-.5.5-.5 1-.5 1-.5h1 1 1 1l.5-.5.5-.5.5.5.5.5.5-.5.5-.5h1.5 1.5 1 1l.5.5.5.5-.5 1.5-.5 1.5 5-4.5 5-4.5-14.5 4.5-14.5 4.5-15.5 4.5-15.5 4.5-13.5 5.5-13.5 5.5-14 6-14 6-14 9.5-14 9.5 18-10 18-10 13.5-6 13.5-6 3.5.5 3.5.5 14.5-6 14.5-6 9-1 9-1-14 6.5-14 6.5 1.5 4.5 1.5 4.5.5 4.5.5 4.5 14-6 14-6 13.5-6.5 13.5-6.5 16.5-1.5 16.5-1.5 12 6 12 6 7.5.5 7.5.5 5.5 11.5 5.5 11.5.5 14.5.5 14.5-2.5 14-2.5 14-4 12-4 12" style="fill:#989583;stroke:#989583"/><path d="m525 164l1 1-.5-2.5-.5-2.5-.5-1-.5-1-.5-.5-.5-.5-.5-1.5-.5-1.5v-1.5-1.5-1-1l-.5-2-.5-2-1-2-1-2-.5-.5-.5-.5-9.5-21-9.5-21-14-20-14-20-10.5-9.5-10.5-9.5-19.5-7-19.5-7-16.5-3.5-16.5-3.5-19-1-19-1-17.5 1.5-17.5 1.5-16.5 3-16.5 3-.5 1-.5 1h-1.5-1.5l-1 1-1 1h-2-2l-.5.5-.5.5-1 .5-1 .5-1.5.5-1.5.5h-1-1l-1 .5-1 .5-1.5.5-1.5.5-.5.5-.5.5-1 .5-1 .5-1.5.5-1.5.5h-1.5-1.5l-1.5 1-1.5 1-1.5 1-1.5 1-1 1-1 1-1.5.5-1.5.5-2 .5-2 .5-1.5.5-1.5.5-1.5 1-1.5 1-1.5.5-1.5.5-.5 1-.5 1h-1-1l-1 1-1 1-1.5 1-1.5 1h1 1l17-8 17-8 14.5-5.5 14.5-5.5 16.5-3.5 16.5-3.5 19.5-1.5 19.5-1.5 18 1 18 1 20.5 5 20.5 5 15.5 8.5 15.5 8.5 9.5 10.5 9.5 10.5 8.5 9.5 8.5 9.5 6 13 6 13 5.5 12 5.5 12 6.5 13.5 6.5 13.5" style="fill:#9d6140;stroke:#9d6140"/><path d="m299 144l13-13-6 5-6 5-.5 1.5-.5 1.5" style="fill:#b8b6a8;stroke:#b8b6a8"/><path d="m518 140l1 1-10-21.5-10-21.5 9.5 21 9.5 21" style="fill:#989583;stroke:#989583"/><path d="m88 135l19-15 9.5-8.5 9.5-8.5 5.5-6.5 5.5-6.5 7.5-7.5 7.5-7.5 9-5 9-5 3.5-5.5 3.5-5.5h-8-8l-1 3.5-1 3.5-11.5 2.5-11.5 2.5-7.5 5.5-7.5 5.5-5.5-2.5-5.5-2.5-3 4-3 4v9 9l-2 3-2 3-6 7-6 7v8.5 8.5" style="fill:#faf5e2;stroke:#faf5e2"/><g style="fill:#703d1d;stroke:#703d1d"><path d="m386 135v1l1.5-26 1.5-26-1.5 25.5-1.5 25.5"/><path d="m433 110h2l-.5-1.5-.5-1.5-1-1.5-1-1.5-1-1-1-1-1-1.5-1-1.5-1-1-1-1 .5 1 .5 1 .5.5.5.5.5 1 .5 1 1 1 1 1h-1-1l-10.5-14-10.5-14 1.5 7.5 1.5 7.5 4.5 4.5 4.5 4.5 6.5 5 6.5 5"/><path d="m153 109l39-21v-.5-.5l1-.5 1-.5 1-1 1-1 1.5-1 1.5-1 1.5-.5 1.5-.5.5-1 .5-1-18 9.5-18 9.5 11.5-8.5 11.5-8.5 6.5-1 6.5-1 1-.5 1-.5 1-.5 1-.5 1-1 1-1 .5-.5.5-.5 1-.5 1-.5 1-1 1-1 1.5-1 1.5-1 2-1 2-1 1.5-.5 1.5-.5 1.5-.5 1.5-.5 2-.5 2-.5 1.5-.5 1.5-.5 1.5-1 1.5-1 1.5-.5 1.5-.5 2-1 2-1 14-6.5 14-6.5-9 1-9 1-14.5 6-14.5 6-14.5 7-14.5 7-11.5 8-11.5 8-10 10-10 10"/><path d="m134 104h3l.5-1 .5-1 .5-.5.5-.5 1-1 1-1 1.5-.5 1.5-.5 1-1.5 1-1.5 1.5-.5 1.5-.5 1-.5 1-.5 2-1.5 2-1.5 14-9.5 14-9.5 14-6 14-6 13.5-5.5 13.5-5.5 15.5-4.5 15.5-4.5 14.5-4.5 14.5-4.5-5 4.5-5 4.5-16.5 11.5-16.5 11.5-5 6.5-5 6.5 12.5-10.5 12.5-10.5 12.5-7.5 12.5-7.5 9.5-6.5 9.5-6.5-13.5 2.5-13.5 2.5-12.5 2.5-12.5 2.5-12.5 5.5-12.5 5.5-13.5 4-13.5 4h-1-1l-14.5 7.5-14.5 7.5-12 7.5-12 7.5-10.5 9.5-10.5 9.5"/></g><path d="m429 104h2l-1-1-1-1-.5-1-.5-1-.5-.5-.5-.5-.5-1-.5-1-1-2-1-2-1-1-1-1-1-1.5-1-1.5-1-1-1-1-1-1-1-1-1-1.5-1-1.5-1-1-1-1-1.5-1-1.5-1-.5-.5-.5-.5 10.5 14 10.5 14" style="fill:#989583;stroke:#989583"/><path d="m167 98l36-19-6.5 1-6.5 1-11.5 8.5-11.5 8.5" style="fill:#29281c;stroke:#29281c"/><g style="fill:#b8b6a8;stroke:#b8b6a8"><path d="m348 96l3-19-.5 4.5-.5 4.5-1 5-1 5"/><path d="m661 89l8-28-.5-14.5-.5-14.5.5-16 .5-16h-20.5-20.5-4.5-4.5l1 13.5 1 13.5 5.5 10.5 5.5 10.5 10.5 4.5 10.5 4.5-4.5 6.5-4.5 6.5 8.5 9.5 8.5 9.5"/></g><path d="m192 87v1l14.5-10.5 14.5-10.5-2 1-2 1-1.5 1-1.5 1-1 1-1 1-1 .5-1 .5-.5.5-.5.5-1 1-1 1-1 .5-1 .5-1 .5-1 .5-.5 1-.5 1-1.5.5-1.5.5-1.5 1-1.5 1-1 1-1 1-1 .5-1 .5" style="fill:#989583;stroke:#989583"/><path d="m358 57h2l-.5-1.5-.5-1.5-1-1.5-1-1.5-.5-1.5-.5-1.5 1-1 1-1-1-.5-1-.5h-1-1v1 1l.5 1 .5 1-.5.5-.5.5v-1-1l-.5-.5-.5-.5h-1-1v1.5 1.5l.5.5.5.5-1 .5-1 .5.5 1 .5 1 1 .5 1 .5h1 1l.5.5.5.5 1 .5 1 .5" style="fill:#703d1d;stroke:#703d1d"/><path d="m278 41h2 1 1l1.5-1 1.5-1h1.5 1.5l.5-1.5.5-1.5-.5-.5-.5-.5h-1-1-1.5-1.5l-.5.5-.5.5-.5-.5-.5-.5-.5.5-.5.5h-1-1-1-1l-1 .5-1 .5-.5.5-.5.5.5.5.5.5h1 1l1 1 1 1" style="fill:#b8b6a8;stroke:#b8b6a8"/><path d="m243 36v1l1.5-.5 1.5-.5 1-.5 1-.5.5-.5.5-.5 1.5-.5 1.5-.5 1-.5 1-.5h1 1l1.5-.5 1.5-.5 1-.5 1-.5.5-.5.5-.5h2 2l1-1 1-1h1.5 1.5l.5-1 .5-1-2.5.5-2.5.5-2 .5-2 .5-1.5.5-1.5.5-1.5 1-1.5 1-1.5.5-1.5.5-2 .5-2 .5-1 1-1 1-1.5.5-1.5.5-1 .5-1 .5" style="fill:#989583;stroke:#989583"/><path d="m418 30h4l-20.5-5-20.5-5-18-1-18-1-19.5 1.5-19.5 1.5 23-1.5 23-1.5 15.5 2.5 15.5 2.5 17.5 3.5 17.5 3.5" style="fill:#703d1d;stroke:#703d1d"/><path d="m270 20l23-7-5-5-5-5-10.5 4.5-10.5 4.5 4 4 4 4" style="fill:#faf5e2;stroke:#faf5e2"/></g></svg>