<svg xmlns="http://www.w3.org/2000/svg" viewBox="0 0 720 960"><path d="m0 0h720v960h-720z" style="fill:#fffff4"/><g style="stroke-linejoin:round;stroke-width:.7"><path d="m0 959v1h1.5 1.5 2 2 2.5 2.5 2 2 1.5 1.5v-.5-.5l-4.5-5.5-4.5-5.5-5-3-5-3v2 2 2.5 2.5 2 2 2 2" style="fill:#36231b;stroke:#36231b"/><path d="m19 959v1h19 19 12.5 12.5v-.5-.5-2-2l1-1 1-1 .5-1.5.5-1.5 1.5-1 1.5-1 2-1 2-1 8.5-8.5 8.5-8.5 3-10 3-10 3 4.5 3 4.5-1.5 13.5-1.5 13.5-4.5 7.5-4.5 7.5h18 18 17.5 17.5 18 18 18 18 17.5 17.5.5.5v-.5-.5-14-14l-1.5-13.5-1.5-13.5-1.5-14-1.5-14-1.5-15.5-1.5-15.5-7.5-7-7.5-7 .5-6.5.5-6.5-5.5 7-5.5 7 1.5-10.5 1.5-10.5 9-5.5 9-5.5-.5-10.5-.5-10.5-4-10.5-4-10.5-4 11-4 11-2-12.5-2-12.5 5-8 5-8 .5-13 .5-13-5-3-5-3-7-1.5-7-1.5-9.5 8.5-9.5 8.5 5.5-7 5.5-7 3.5-6.5 3.5-6.5 10-.5 10-.5v-13-13l-1.5-12-1.5-12 11-5 11-5 11.5-2 11.5-2 5.5-10.5 5.5-10.5-5-.5-5-.5-6.5 1.5-6.5 1.5-7 4-7 4-12.5 1-12.5 1-9.5-3.5-9.5-3.5-7-2.5-7-2.5-.5-8.5-.5-8.5-3-.5-3-.5-6-5-6-5 7-3.5 7-3.5 3-11 3-11 3-2.5 3-2.5-9.5 8.5-9.5 8.5-2.5 1-2.5 1-7 4-7 4 1.5-5 1.5-5-5.5-4.5-5.5-4.5-9.5 7-9.5 7-5.5 5.5-5.5 5.5-8.5-8-8.5-8-9.5 7.5-9.5 7.5-4 3.5-4 3.5-9.5.5-9.5.5-2.5-6-2.5-6-2.5 10.5-2.5 10.5-3.5 7-3.5 7-7-4-7-4-4.5-3.5-4.5-3.5-2.5 8-2.5 8-3 3-3 3-7.5-5-7.5-5-.5 6.5-.5 6.5 5.5 16 5.5 16 1 .5 1 .5h1 1v-1-1l.5-1 .5-1h1 1v1 1l.5.5.5.5-.5 1-.5 1v1 1l-.5.5-.5.5.5.5.5.5.5.5.5.5v.5.5l-.5.5-.5.5-.5.5-.5.5-1.5-.5-1.5-.5-.5-1-.5-1-.5-1-.5-1-.5-2.5-.5-2.5-6.5-3-6.5-3-3.5 6.5-3.5 6.5-5 8.5-5 8.5v2 2 2 2l1.5 1 1.5 1 1 1 1 1 2 .5 2 .5-1 1-1 1-1.5 1-1.5 1-.5 1.5-.5 1.5-1.5.5-1.5.5v1.5 1.5l2 .5 2 .5v1 1h1 1l.5-.5.5-.5.5-.5.5-.5.5.5.5.5 1 .5 1 .5.5.5.5.5.5.5.5.5-.5.5-.5.5-1 .5-1 .5v-1-1l-.5-.5-.5-.5-.5.5-.5.5-1 .5-1 .5-.5.5-.5.5v1 1l-1.5-.5-1.5-.5-1-.5-1-.5v2 2 2 2 2 2l14 4 14 4 12 3.5 12 3.5 12 3 12 3 9 7.5 9 7.5-5.5 3.5-5.5 3.5.5 11 .5 11-1 3-1 3-5.5 6-5.5 6-10.5 3.5-10.5 3.5 6 2.5 6 2.5 12 1 12 1-2 6.5-2 6.5-6-2-6-2-6.5 8-6.5 8-7.5 7.5-7.5 7.5-6.5 5-6.5 5 3.5 4.5 3.5 4.5 3.5 4 3.5 4-6 6-6 6-1.5 7-1.5 7-4 8-4 8-5 2.5-5 2.5-2.5 3.5-2.5 3.5-2.5-.5-2.5-.5v2 2 1.5 1.5l5 3 5 3 4.5 5.5 4.5 5.5" style="fill:#1e150a;stroke:#1e150a"/><path d="m82 959v1h1.5 1.5 2 2 2.5 2.5 2 2 2.5 2.5 1 1v-.5-.5l-.5-1-.5-1v-1.5-1.5l.5-1.5.5-1.5v-1-1-1-1-1-1-1.5-1.5-1-1l-.5-.5-.5-.5-.5-.5-.5-.5-1 .5-1 .5h-1-1l-.5.5-.5.5-.5.5-.5.5-1 .5-1 .5-.5.5-.5.5v1 1l-1 .5-1 .5-2 1-2 1-1.5 1-1.5 1-.5 1.5-.5 1.5-1 1-1 1v2 2" style="fill:#5c3a31;stroke:#5c3a31"/><g style="fill:#36231b;stroke:#36231b"><path d="m105 959v1h1.5 1.5.5.5l4.5-7.5 4.5-7.5 1.5-13.5 1.5-13.5-3-4.5-3-4.5-3 10-3 10-8.5 8.5-8.5 8.5 1-.5 1-.5v-1-1l.5-.5.5-.5 1-.5 1-.5.5-.5.5-.5.5-.5.5-.5h1 1l1-.5 1-.5.5.5.5.5.5.5.5.5v1 1 1.5 1.5 1 1 1 1 1 1l-.5 1.5-.5 1.5v1.5 1.5l.5 1 .5 1"/><path d="m288 959v1h1.5 1.5 2 2 2.5 2.5 1 1v-.5-.5l-4-14.5-4-14.5-3-13.5-3-13.5-2-13-2-13-.5-14-.5-14 5-11 5-11-4.5-11-4.5-11 3-13 3-13 6-3.5 6-3.5 3.5 14.5 3.5 14.5 2.5 13 2.5 13 1.5 14.5 1.5 14.5-7-8.5-7-8.5-7.5 3.5-7.5 3.5 5 13 5 13 10.5 7 10.5 7 2.5 12.5 2.5 12.5 3 24.5 3 24.5h1 1v-.5-.5l-2-16.5-2-16.5-1-13.5-1-13.5-2.5-14.5-2.5-14.5-.5-14-.5-14 2-12 2-12v-10.5-10.5l-6-10-6-10 .5-8 .5-8-4.5-.5-4.5-.5 1-11.5 1-11.5-1.5-10.5-1.5-10.5-2.5-13-2.5-13 1.5-9.5 1.5-9.5-2.5-7-2.5-7 4-6 4-6-2.5 8-2.5 8 10.5-.5 10.5-.5 7 4.5 7 4.5-3 2-3 2-3.5 8-3.5 8 1.5 6.5 1.5 6.5 3 6.5 3 6.5 5.5-4.5 5.5-4.5 3.5 8 3.5 8-10 7-10 7 5 4.5 5 4.5-1 10-1 10 7.5 1 7.5 1 3-9 3-9-3-12.5-3-12.5-1-5-1-5 1-8 1-8 8.5-3 8.5-3-1.5-7.5-1.5-7.5 6.5-2 6.5-2-2 7-2 7 4.5 5 4.5 5 5.5 10.5 5.5 10.5 11-2.5 11-2.5 5 8 5 8 9.5 4 9.5 4-1.5-4.5-1.5-4.5 5.5-7 5.5-7 5 9 5 9 8.5 4 8.5 4 2.5-3.5 2.5-3.5 7.5 4 7.5 4 4-9 4-9 5.5-7 5.5-7 5 6 5 6 1.5 9 1.5 9 8.5-3.5 8.5-3.5 5 1 5 1 1-.5 1-.5 6.5 2.5 6.5 2.5 5.5-3 5.5-3 5 2 5 2 3.5-3 3.5-3 5.5-.5 5.5-.5 8.5-5 8.5-5 9-1 9-1-2.5-2-2.5-2 7 6 7 6 9.5-3 9.5-3-4.5 9.5-4.5 9.5-3-.5-3-.5 1 12 1 12-.5 1-.5 1 3 5 3 5 1.5 6 1.5 6 6 3 6 3 1.5 6 1.5 6-.5 6.5-.5 6.5 6.5 5 6.5 5 11 9.5 11 9.5v-18-18-18-18-17.5-17.5-18-18-17.5-17.5-13.5-13.5l-3-3-3-3-6-2.5-6-2.5-5 7.5-5 7.5-11-1-11-1-7.5-3-7.5-3-10.5-.5-10.5-.5-8.5-2-8.5-2-6.5 4.5-6.5 4.5-7 2.5-7 2.5-14.5 5-14.5 5-4.5-7.5-4.5-7.5-10-1-10-1-7 .5-7 .5-7-9-7-9-4.5 5-4.5 5-4-5-4-5-.5-4-.5-4-8-2-8-2-7-6.5-7-6.5-9-1-9-1-13 .5-13 .5-6.5-10.5-6.5-10.5-4.5-8.5-4.5-8.5.5-8 .5-8-11-5-11-5-11 .5-11 .5-12.5-2.5-12.5-2.5-9.5-7-9.5-7-8-10-8-10-6.5-9-6.5-9-8-10-8-10-4-6.5-4-6.5-5.5-12.5-5.5-12.5-5-12.5-5-12.5-4-13-4-13-1-8.5-1-8.5-5-13-5-13 3-11.5 3-11.5 12.5-3.5 12.5-3.5 13.5-1 13.5-1-13-1-13-1-14-.5-14-.5-12.5.5-12.5.5 5-7 5-7 2-10.5 2-10.5-4.5-11.5-4.5-11.5-1.5-8-1.5-8 6-9 6-9 4-7.5 4-7.5 1-6 1-6-1-1.5-1-1.5-13.5-.5-13.5-.5-8-7.5-8-7.5-8 7-8 7-8.5 8-8.5 8-4 6-4 6 2.5 10 2.5 10-4 7-4 7 1 12.5 1 12.5 1 13 1 13 4 11.5 4 11.5 4.5-.5 4.5-.5 4.5 10 4.5 10-4.5 9.5-4.5 9.5 5.5 6.5 5.5 6.5 4 11.5 4 11.5-5.5 8.5-5.5 8.5 8-3.5 8-3.5v10 10l3.5 11 3.5 11 8.5 7.5 8.5 7.5 3 12.5 3 12.5-1 12-1 12 4 9.5 4 9.5-10.5 4.5-10.5 4.5v9.5 9.5l-10 3-10 3-1.5 8-1.5 8-13-3-13-3-7 .5-7 .5-7-10-7-10h-6.5-6.5l-10.5 7.5-10.5 7.5-12.5 2-12.5 2-10 5-10 5-9 7-9 7-4.5 15.5-4.5 15.5v18.5 18.5 14.5 14.5l5-8.5 5-8.5 3.5-6.5 3.5-6.5 6.5 3 6.5 3-5.5-16-5.5-16 .5-6.5.5-6.5 7.5 5 7.5 5 3-3 3-3 2.5-8 2.5-8 4.5 3.5 4.5 3.5 7 4 7 4 3.5-7 3.5-7 2.5-10.5 2.5-10.5 2.5 6 2.5 6 9.5-.5 9.5-.5 4-3.5 4-3.5 9.5-7.5 9.5-7.5 8.5 8 8.5 8 5.5-5.5 5.5-5.5 9.5-7 9.5-7 5.5 4.5 5.5 4.5-1.5 5-1.5 5 7-4 7-4 2.5-1 2.5-1 9.5-8.5 9.5-8.5-3 2.5-3 2.5-3 11-3 11-7 3.5-7 3.5 6 5 6 5 3 .5 3 .5.5 8.5.5 8.5 7 2.5 7 2.5 9.5 3.5 9.5 3.5 12.5-1 12.5-1 7-4 7-4 6.5-1.5 6.5-1.5 5 .5 5 .5-5.5 10.5-5.5 10.5-11.5 2-11.5 2-11 5-11 5 1.5 12 1.5 12v13 13l-10 .5-10 .5-3.5 6.5-3.5 6.5-5.5 7-5.5 7 9.5-8.5 9.5-8.5 7 1.5 7 1.5 5 3 5 3-.5 13-.5 13-5 8-5 8 2 12.5 2 12.5 4-11 4-11 4 10.5 4 10.5.5 10.5.5 10.5-9 5.5-9 5.5-1.5 10.5-1.5 10.5 5.5-7 5.5-7-.5 6.5-.5 6.5 7.5 7 7.5 7 1.5 15.5 1.5 15.5 1.5 14 1.5 14 1.5 13.5 1.5 13.5v14 14"/></g><path d="m302 959v1h1.5 1.5 2 2 2.5 2.5 2 2 2.5 2.5 2 2 1.5 1.5l-3-24.5-3-24.5-2.5-12.5-2.5-12.5-10.5-7-10.5-7-5-13-5-13 7.5-3.5 7.5-3.5 7 8.5 7 8.5-1.5-14.5-1.5-14.5-2.5-13-2.5-13-3.5-14.5-3.5-14.5-6 3.5-6 3.5-3 13-3 13 4.5 11 4.5 11-5 11-5 11 .5 14 .5 14 2 13 2 13 3 13.5 3 13.5 4 14.5 4 14.5" style="fill:#5c3a31;stroke:#5c3a31"/><path d="m332 959v1h1.5 1.5 2 2 2.5 2.5 2 2 2.5 2.5 2 2 2.5 2.5 2 2 2 2 2.5 2.5 1.5 1.5v-.5-.5l4-12 4-12 3.5-12 3.5-12 6 8 6 8 5 16.5 5 16.5h19.5 19.5 17.5 17.5 18 18 17.5 17.5 18 18 17.5 17.5 10.5 10.5v-.5-.5l-1-15-1-15v-15.5-15.5l6 1 6 1 3 15 3 15 3 15 3 15h18.5 18.5 4.5 4.5v-13.5-13.5-17.5-17.5-18-18-8.5-8.5l-11-9.5-11-9.5-6.5-5-6.5-5 .5-6.5.5-6.5-1.5-6-1.5-6-6-3-6-3-1.5-6-1.5-6-3-5-3-5 .5-1 .5-1-1-12-1-12 3 .5 3 .5 4.5-9.5 4.5-9.5-9.5 3-9.5 3-7-6-7-6 2.5 2 2.5 2-9 1-9 1-8.5 5-8.5 5-5.5.5-5.5.5-3.5 3-3.5 3-5-2-5-2-5.5 3-5.5 3-6.5-2.5-6.5-2.5-1 .5-1 .5-5-1-5-1-8.5 3.5-8.5 3.5-1.5-9-1.5-9-5-6-5-6-5.5 7-5.5 7-4 9-4 9-7.5-4-7.5-4-2.5 3.5-2.5 3.5-8.5-4-8.5-4-5-9-5-9-5.5 7-5.5 7 1.5 4.5 1.5 4.5-9.5-4-9.5-4-5-8-5-8-11 2.5-11 2.5-5.5-10.5-5.5-10.5-4.5-5-4.5-5 2-7 2-7-6.5 2-6.5 2 1.5 7.5 1.5 7.5-8.5 3-8.5 3-1 8-1 8 1 5 1 5 3 12.5 3 12.5-3 9-3 9-7.5-1-7.5-1 1-10 1-10-5-4.5-5-4.5 10-7 10-7-3.5-8-3.5-8-5.5 4.5-5.5 4.5-3-6.5-3-6.5-1.5-6.5-1.5-6.5 3.5-8 3.5-8 3-2 3-2-7-4.5-7-4.5-10.5.5-10.5.5 2.5-8 2.5-8-4 6-4 6 2.5 7 2.5 7-1.5 9.5-1.5 9.5 2.5 13 2.5 13 1.5 10.5 1.5 10.5-1 11.5-1 11.5 4.5.5 4.5.5-.5 8-.5 8 6 10 6 10v10.5 10.5l-2 12-2 12 .5 14 .5 14 2.5 14.5 2.5 14.5 1 13.5 1 13.5 2 16.5 2 16.5" style="fill:#1e150a;stroke:#1e150a"/><g style="fill:#36231b;stroke:#36231b"><path d="m378 959v1h1.5 1.5 2 2 2.5 2.5 2 2 2.5 2.5 2 2 2.5 2.5 2 2 1.5 1.5l-5-16.5-5-16.5-6-8-6-8-3.5 12-3.5 12-4 12-4 12"/><path d="m652 959v1h.5.5v-.5-.5l-1-17-1-17 .5-14.5.5-14.5 4.5 5 4.5 5 6 27 6 27h.5.5l-3-15-3-15-3-15-3-15-6-1-6-1v15.5 15.5l1 15 1 15"/></g><path d="m653 959v1h.5.5v-.5-.5l1.5-11.5 1.5-11.5 7 12 7 12h1 1l-6-27-6-27-4.5-5-4.5-5-.5 14.5-.5 14.5 1 17 1 17" style="fill:#5c3a31;stroke:#5c3a31"/><path d="m654 959v1h1.5 1.5 2 2 2.5 2.5 2 2 .5.5l-7-12-7-12-1.5 11.5-1.5 11.5" style="fill:#855248;stroke:#855248"/><path d="m90 957l3 1h1 1l1.5-1 1.5-1v-2-2l.5-2 .5-2-.5-1.5-.5-1.5-1 1.5-1 1.5-1 1-1 1-.5 1.5-.5 1.5-1.5 1-1.5 1v1 1" style="fill:#fffff4;stroke:#fffff4"/><g style="fill:#36231b;stroke:#36231b"><path d="m492 955l18-7-7-5-7-5-7 2.5-7 2.5-4.5 5.5-4.5 5.5 9.5.5 9.5.5"/><path d="m5 936l5-7 5-2.5 5-2.5 4-8 4-8 1.5-7 1.5-7 6-6 6-6-3.5-4-3.5-4-3.5-4.5-3.5-4.5 6.5-5 6.5-5 7.5-7.5 7.5-7.5 6.5-8 6.5-8 6 2 6 2 2-6.5 2-6.5-12-1-12-1-6-2.5-6-2.5 10.5-3.5 10.5-3.5 5.5-6 5.5-6 1-3 1-3-.5-11-.5-11 5.5-3.5 5.5-3.5-9-7.5-9-7.5-12-3-12-3-12-3.5-12-3.5-14-4-14-4v18 18 17.5 17.5 18 18 17.5 17.5 18 18 17.5 17.5 2 2l2.5.5 2.5.5"/></g><path d="m645 844h2l1.5-.5 1.5-.5 1-1.5 1-1.5.5-1.5.5-1.5.5-2 .5-2-.5-1.5-.5-1.5h-.5-.5l-1.5-.5-1.5-.5-1.5-.5-1.5-.5-1 1-1 1-1.5 1-1.5 1-1 1-1 1v3.5 3.5l2 1.5 2 1.5h1 1" style="fill:#5c3a31;stroke:#5c3a31"/><g style="fill:#36231b;stroke:#36231b"><path d="m180 841l11-18-6.5 8.5-6.5 8.5 1 .5 1 .5"/><path d="m638 840l1 1v-3.5-3.5l1-1 1-1 1.5-1 1.5-1 1-1 1-1 1.5.5 1.5.5 1.5.5 1.5.5-1-1.5-1-1.5h-2-2l-2 .5-2 .5-1.5.5-1.5.5-.5 2-.5 2-.5 1.5-.5 1.5.5 2 .5 2"/><path d="m348 817l23-6-2-7.5-2-7.5-.5 1.5-.5 1.5-1 1-1 1 .5 2 .5 2-1 1-1 1h-1-1l-1-1.5-1-1.5v-1-1l.5-1 .5-1 1-1 1-1 .5-1 .5-1h2 2l-8-1-8-1-10.5 4.5-10.5 4.5 7.5 2 7.5 2 1.5 5 1.5 5"/></g><path d="m361 807h2l1-1 1-1-.5-2-.5-2 1-1 1-1 .5-1.5.5-1.5h-2-2l-.5 1-.5 1-1 1-1 1-.5 1-.5 1v1 1l1 1.5 1 1.5" style="fill:#1e150a;stroke:#1e150a"/><g style="fill:#36231b;stroke:#36231b"><path d="m412 798l27-10-3-10-3-10-5.5-3-5.5-3-7 7-7 7 2.5 8.5 2.5 8.5-.5 2.5-.5 2.5"/><path d="m165 796l19-16 10.5-7.5 10.5-7.5-7.5-6-7.5-6 10.5-6.5 10.5-6.5-8.5-5.5-8.5-5.5-5.5 12-5.5 12-5.5 12.5-5.5 12.5-3.5 9-3.5 9"/><path d="m215 791l27-10 3-13 3-13-9-4.5-9-4.5-5.5 6.5-5.5 6.5.5 1.5.5 1.5-7 10.5-7 10.5 4.5 4 4.5 4"/><path d="m475 785h2l1-1 1-1 .5-2 .5-2 1.5-.5 1.5-.5 1-1.5 1-1.5-1-1-1-1-2 .5-2 .5-1.5.5-1.5.5-.5 1.5-.5 1.5-.5 2-.5 2 .5 1.5.5 1.5"/></g><path d="m281 769l12-23-3.5-10.5-3.5-10.5 1-11.5 1-11.5-2-11-2-11-5 5-5 5v2.5 2.5l4 4 4 4-5.5 3-5.5 3 1 13 1 13 4 8.5 4 8.5-.5 6.5-.5 6.5.5 2 .5 2" style="fill:#5c3a31;stroke:#5c3a31"/><path d="m418 752l14-17-7 6-7 6v2.5 2.5" style="fill:#36231b;stroke:#36231b"/><g style="fill:#5c3a31;stroke:#5c3a31"><path d="m541 729l6-9 6.5-4.5 6.5-4.5-7.5-10-7.5-10-8 3-8 3 8.5 7.5 8.5 7.5-2.5 8.5-2.5 8.5"/><path d="m575 724l2-23 7 4 7 4 7.5 3 7.5 3-3.5-13.5-3.5-13.5-11.5-2.5-11.5-2.5-2.5 13-2.5 13 2 7.5 2 7.5"/></g><path d="m203 720l11-22-5 6-5 6-.5 5-.5 5" style="fill:#36231b;stroke:#36231b"/><path d="m398 712l12-17-8.5-.5-8.5-.5 2.5 9 2.5 9" style="fill:#1e150a;stroke:#1e150a"/><path d="m2 707l3 1v-1-1l.5-.5.5-.5 1-.5 1-.5.5-.5.5-.5.5.5.5.5v1 1l1-.5 1-.5.5-.5.5-.5-.5-.5-.5-.5-.5-.5-.5-.5-1-.5-1-.5-.5-.5-.5-.5-.5.5-.5.5-.5.5-.5.5h-1-1v-1-1l-2-.5-2-.5v2 2 1.5 1.5l1 .5 1 .5" style="fill:#36231b;stroke:#36231b"/><path d="m562 697h2l.5-1.5.5-1.5-.5-2-.5-2 .5-1.5.5-1.5-1-1.5-1-1.5h-2-2l-.5 2-.5 2 .5 1.5.5 1.5.5 1.5.5 1.5 1 1.5 1 1.5" style="fill:#5c3a31;stroke:#5c3a31"/><g style="fill:#36231b;stroke:#36231b"><path d="m0 695v1l1.5-.5 1.5-.5.5-1.5.5-1.5 1.5-1 1.5-1 1-1 1-1-2-.5-2-.5-1-1-1-1-1.5-1-1.5-1v1.5 1.5 2 2 2.5 2.5"/><path d="m33 660l3 1 .5-.5.5-.5.5-.5.5-.5v-.5-.5l-.5-.5-.5-.5-.5-.5-.5-.5.5-.5.5-.5v-1-1l.5-1 .5-1-.5-.5-.5-.5v-1-1h-1-1l-.5 1-.5 1v1 1h-1-1l-1-.5-1-.5.5 2.5.5 2.5.5 1 .5 1 .5 1 .5 1"/></g><path d="m561 655l29-10 7-2.5 7-2.5 6.5-4.5 6.5-4.5 8.5 2 8.5 2 10.5.5 10.5.5 7.5 3 7.5 3 11 1 11 1 5-7.5 5-7.5 6 2.5 6 2.5 3 3 3 3v-2.5-2.5-2-2-2-2-2.5-2.5-2-2-2.5-2.5-1.5-1.5l-.5-.5-.5-.5-7.5-12-7.5-12-8-2-8-2-9 .5-9 .5-11-1-11-1-10 2.5-10 2.5-6.5 2.5-6.5 2.5-10-1.5-10-1.5-10.5 2.5-10.5 2.5-11.5-1-11.5-1-11-4-11-4-11-5.5-11-5.5-8.5-6.5-8.5-6.5-7 6.5-7 6.5-2-7-2-7-8.5-3-8.5-3-7.5-4.5-7.5-4.5-.5-10-.5-10-1-8-1-8-6-1.5-6-1.5 3-10 3-10-7.5-2.5-7.5-2.5-9 4.5-9 4.5-8-1-8-1v-11.5-11.5l5-8 5-8-1.5-9-1.5-9-7-9-7-9-5.5-3-5.5-3-10.5 5.5-10.5 5.5-11.5-3-11.5-3-9.5 8.5-9.5 8.5-11.5 2-11.5 2-7 5-7 5-6-7.5-6-7.5-5-11-5-11 1-9.5 1-9.5 12-3 12-3 12.5-4 12.5-4 9-9 9-9 4.5-13 4.5-13 12-1 12-1 6.5 11 6.5 11 7 10 7 10 3 1.5 3 1.5 6-1 6-1-10-6.5-10-6.5-3.5-13.5-3.5-13.5 3-10.5 3-10.5v-7-7l-8.5 6-8.5 6h-15-15l-12-6-12-6-12-4.5-12-4.5-14-2-14-2-10.5-6-10.5-6 1-12 1-12-2-11.5-2-11.5 3.5-12.5 3.5-12.5 4.5-12 4.5-12 7.5-10.5 7.5-10.5 2-7.5 2-7.5 11.5-1.5 11.5-1.5 9-6.5 9-6.5 6.5-7.5 6.5-7.5-4-8.5-4-8.5 2.5-2.5 2.5-2.5-3-2.5-3-2.5.5-9.5.5-9.5-9-2.5-9-2.5-7.5 2.5-7.5 2.5h-11.5-11.5l-11-1-11-1-10 4.5-10 4.5 1.5-9.5 1.5-9.5-7.5 6-7.5 6-.5 15.5-.5 15.5-18.5 11.5-18.5 11.5-1.5 1.5-1.5 1.5-7.5 10.5-7.5 10.5-3.5 14-3.5 14-6 14.5-6 14.5-4 14.5-4 14.5 3.5 18.5 3.5 18.5v10.5 10.5l-5.5 11-5.5 11-3.5 6.5-3.5 6.5h9.5 9.5l5-3 5-3 .5-1 .5-1 1-1 1-1 1.5.5 1.5.5 1 1.5 1 1.5 1.5.5 1.5.5 1 1 1 1-.5 1-.5 1 .5.5.5.5.5.5.5.5v1 1 1.5 1.5l1 1 1 1v1 1l.5 1 .5 1-.5 2-.5 2-5.5 13-5.5 13 10.5-1 10.5-1 1 .5 1 .5 1.5 1.5 1.5 1.5.5 1.5.5 1.5-1 1.5-1 1.5 1 1.5 1 1.5 1 1 1 1v2 2l-1 1-1 1-1 1.5-1 1.5-1 1-1 1h-1.5-1.5l-.5-1.5-.5-1.5-.5-1.5-.5-1.5-.5-1.5-.5-1.5-1.5-.5-1.5-.5-1.5-1-1.5-1-1 1-1 1v1.5 1.5l-.5 1.5-.5 1.5-1.5 1-1.5 1 .5 2 .5 2 1 1.5 1 1.5v1 1 1 1l-.5 1-.5 1 .5 13 .5 13 4.5 10 4.5 10 15.5 3 15.5 3 7 10 7 10-3 12-3 12-4.5 11-4.5 11-3.5 9-3.5 9-10 2-10 2-2.5 13.5-2.5 13.5-8.5-7.5-8.5-7.5-10.5-8-10.5-8-19 5.5-19 5.5 1.5 1 1.5 1-.5 1.5-.5 1.5-.5.5-.5.5-1 .5-1 .5-1 1-1 1-.5.5-.5.5-.5 1-.5 1-1.5.5-1.5.5-.5.5-.5.5h-1.5-1.5l-2-.5-2-.5-1-.5-1-.5-1-.5-1-.5-12.5 6-12.5 6-13.5 13-13.5 13v2.5 2.5 2.5 2.5 2 2 2 2 1.5 1.5l4.5-15.5 4.5-15.5 9-7 9-7 10-5 10-5 12.5-2 12.5-2 10.5-7.5 10.5-7.5h6.5 6.5l7 10 7 10 7-.5 7-.5 13 3 13 3 1.5-8 1.5-8 10-3 10-3v-9.5-9.5l10.5-4.5 10.5-4.5-4-9.5-4-9.5 1-12 1-12-3-12.5-3-12.5-8.5-7.5-8.5-7.5-3.5-11-3.5-11v-10-10l-8 3.5-8 3.5 5.5-8.5 5.5-8.5-4-11.5-4-11.5-5.5-6.5-5.5-6.5 4.5-9.5 4.5-9.5-4.5-10-4.5-10-4.5.5-4.5.5-4-11.5-4-11.5-1-13-1-13-1-12.5-1-12.5 4-7 4-7-2.5-10-2.5-10 4-6 4-6 8.5-8 8.5-8 8-7 8-7 8 7.5 8 7.5 13.5.5 13.5.5 1 1.5 1 1.5-1 6-1 6-4 7.5-4 7.5-6 9-6 9 1.5 8 1.5 8 4.5 11.5 4.5 11.5-2 10.5-2 10.5-5 7-5 7 12.5-.5 12.5-.5 14 .5 14 .5 13 1 13 1-13.5 1-13.5 1-12.5 3.5-12.5 3.5-3 11.5-3 11.5 5 13 5 13 1 8.5 1 8.5 4 13 4 13 5 12.5 5 12.5 5.5 12.5 5.5 12.5 4 6.5 4 6.5 8 10 8 10 6.5 9 6.5 9 8 10 8 10 9.5 7 9.5 7 12.5 2.5 12.5 2.5 11-.5 11-.5 11 5 11 5-.5 8-.5 8 4.5 8.5 4.5 8.5 6.5 10.5 6.5 10.5 13-.5 13-.5 9 1 9 1 7 6.5 7 6.5 8 2 8 2 .5 4 .5 4 4 5 4 5 4.5-5 4.5-5 7 9 7 9 7-.5 7-.5 10 1 10 1 4.5 7.5 4.5 7.5" style="fill:#5c3a31;stroke:#5c3a31"/><path d="m9 646h2l.5-1.5.5-1.5 1.5-1 1.5-1 .5-1.5.5-1.5-1.5-1-1.5-1-1 1-1 1v1.5 1.5l-1.5.5-1.5.5h-1-1l.5 2 .5 2h1 1" style="fill:#1e150a;stroke:#1e150a"/><path d="m719 609l1 1v-1-1l-.5-.5-.5-.5-9-20-9-20-12.5-.5-12.5-.5-11.5 1-11.5 1-11.5.5-11.5.5-7 3.5-7 3.5-9.5.5-9.5.5-19.5.5-19.5.5-11-6-11-6-12.5-2.5-12.5-2.5-7.5-9-7.5-9-6.5-7.5-6.5-7.5-7-4.5-7-4.5-2.5-8.5-2.5-8.5-7-5.5-7-5.5-1-10-1-10-9-9-9-9-5.5-11-5.5-11-7.5-8.5-7.5-8.5-5.5-8-5.5-8-3.5-10.5-3.5-10.5 14-1.5 14-1.5 2.5-3.5 2.5-3.5-13-1.5-13-1.5 2-8 2-8-.5-10-.5-10-7.5-6.5-7.5-6.5 6.5-7 6.5-7-1-10-1-10h-23.5-23.5l-2-1-2-1-2 .5-2 .5-1.5.5-1.5.5.5 2 .5 2v1 1l-.5.5-.5.5-10-5-10-5-11-2-11-2-3-4.5-3-4.5-7.5-5.5-7.5-5.5 7.5-6 7.5-6 .5-4.5.5-4.5 3-9.5 3-9.5-1.5-7.5-1.5-7.5-4.5-6.5-4.5-6.5 5-6.5 5-6.5 3-11 3-11v-.5-.5l-.5-5-.5-5 8.5-4 8.5-4 5-4 5-4 2-10.5 2-10.5 3-8 3-8-3-9.5-3-9.5-3-8-3-8-4-8.5-4-8.5-5-6-5-6h-11-11l-14.5 3.5-14.5 3.5-16.5 1-16.5 1-13.5 11-13.5 11-.5 2-.5 2v2 2 2 2l-.5 2-.5 2v1 1 1.5 1.5l-.5 1.5-.5 1.5.5 2 .5 2-.5 1.5-.5 1.5-1 1-1 1-16 12.5-16 12.5 18.5-11.5 18.5-11.5.5-15.5.5-15.5 7.5-6 7.5-6-1.5 9.5-1.5 9.5 10-4.5 10-4.5 11 1 11 1h11.5 11.5l7.5-2.5 7.5-2.5 9 2.5 9 2.5-.5 9.5-.5 9.5 3 2.5 3 2.5-2.5 2.5-2.5 2.5 4 8.5 4 8.5-6.5 7.5-6.5 7.5-9 6.5-9 6.5-11.5 1.5-11.5 1.5-2 7.5-2 7.5-7.5 10.5-7.5 10.5-4.5 12-4.5 12-3.5 12.5-3.5 12.5 2 11.5 2 11.5-1 12-1 12 10.5 6 10.5 6 14 2 14 2 12 4.5 12 4.5 12 6 12 6h15 15l8.5-6 8.5-6v7 7l-3 10.5-3 10.5 3.5 13.5 3.5 13.5 10 6.5 10 6.5-6 1-6 1-3-1.5-3-1.5-7-10-7-10-6.5-11-6.5-11-12 1-12 1-4.5 13-4.5 13-9 9-9 9-12.5 4-12.5 4-12 3-12 3-1 9.5-1 9.5 5 11 5 11 6 7.5 6 7.5 7-5 7-5 11.5-2 11.5-2 9.5-8.5 9.5-8.5 11.5 3 11.5 3 10.5-5.5 10.5-5.5 5.5 3 5.5 3 7 9 7 9 1.5 9 1.5 9-5 8-5 8v11.5 11.5l8 1 8 1 9-4.5 9-4.5 7.5 2.5 7.5 2.5-3 10-3 10 6 1.5 6 1.5 1 8 1 8 .5 10 .5 10 7.5 4.5 7.5 4.5 8.5 3 8.5 3 2 7 2 7 7-6.5 7-6.5 8.5 6.5 8.5 6.5 11 5.5 11 5.5 11 4 11 4 11.5 1 11.5 1 10.5-2.5 10.5-2.5 10 1.5 10 1.5 6.5-2.5 6.5-2.5 10-2.5 10-2.5 11 1 11 1 9-.5 9-.5 8 2 8 2 7.5 12 7.5 12" style="fill:#855248;stroke:#855248"/><path d="m719 607l1 1v-2-2l-.5-.5-.5-.5-5.5-12.5-5.5-12.5-10-16-10-16-1-.5-1-.5v-1.5-1.5l-.5-1-.5-1-1.5-.5-1.5-.5-1-1-1-1-1-1.5-1-1.5-1.5-.5-1.5-.5-2-.5-2-.5v-2-2l.5-1 .5-1h2 2l.5.5.5.5 1 .5 1 .5 1 .5 1 .5.5-.5.5-.5-.5-1-.5-1-1.5-1-1.5-1-2.5-.5-2.5-.5h-1.5-1.5-2-2l-1.5-.5-1.5-.5 1.5 1 1.5 1 1 1 1 1 .5 2 .5 2 .5 1.5.5 1.5 2 .5 2 .5.5 1 .5 1 2 .5 2 .5.5 1.5.5 1.5 1 1.5 1 1.5 1 1 1 1-.5.5-.5.5 1.5.5 1.5.5-.5.5-.5.5v1.5 1.5l1.5.5 1.5.5h1 1v1 1l.5.5.5.5 1 .5 1 .5.5.5.5.5.5.5.5.5.5.5.5.5 1 .5 1 .5v1 1l.5.5.5.5.5.5.5.5.5 1.5.5 1.5 9 20 9 20" style="fill:#bc8d6d;stroke:#bc8d6d"/><path d="m719 603l1 1v-18.5-18.5-18-18-7.5-7.5l-4.5 9.5-4.5 9.5h-6.5-6.5l-1 9-1 9-1-1-1-1-.5-.5-.5-.5-1-.5-1-.5-1.5-1.5-1.5-1.5 10 16 10 16 5.5 12.5 5.5 12.5" style="fill:#d8a48b;stroke:#d8a48b"/><path d="m259 599l3 1h2 2l1-1.5 1-1.5v-1-1l-2-.5-2-.5h-2-2l-1 1.5-1 1.5.5 1 .5 1" style="fill:#5c3a31;stroke:#5c3a31"/><path d="m0 587v1l13.5-13 13.5-13 12.5-6 12.5-6h1.5 1.5 1.5 1.5l.5.5.5.5 1 .5 1 .5 1.5-.5 1.5-.5.5-.5.5-.5.5-1 .5-1 1-1 1-1 .5-.5.5-.5.5-.5.5-.5h1 1v-1.5-1.5-1-1l19-5.5 19-5.5 1 .5 1 .5h1.5 1.5l1.5-1 1.5-1 .5-1.5.5-1.5 1-1.5 1-1.5h2 2l1.5.5 1.5.5v1 1 1.5 1.5l2 1 2 1-.5-1.5-.5-1.5-.5-.5-.5-.5.5-.5.5-.5.5-1 .5-1 .5-.5.5-.5.5.5.5.5.5.5.5.5h1.5 1.5l.5.5.5.5.5.5.5.5-.5.5-.5.5-.5.5-.5.5-.5 1.5-.5 1.5v1.5 1.5l1 1 1 1 .5 1.5.5 1.5h1 1l1.5-1 1.5-1 .5-1.5.5-1.5h.5.5.5.5l7-7.5 7-7.5 13.5-15 13.5-15 3-12 3-12-7-10-7-10-1 .5-1 .5-1 1-1 1-1 1-1 1-1.5 1-1.5 1-2 1-2 1h1 1l1.5-.5 1.5-.5 2-.5 2-.5 1-1 1-1v2.5 2.5.5.5h.5.5.5.5l1-1 1-1 .5-1 .5-1 .5-.5.5-.5.5-.5.5-.5.5.5.5.5h1 1l.5 1 .5 1 .5.5.5.5v1 1 1 1 1.5 1.5 1 1 1 1l-.5.5-.5.5h-1-1l-.5 1-.5 1-1 .5-1 .5-1 .5-1 .5-.5.5-.5.5-.5 1.5-.5 1.5v1.5 1.5l.5 1 .5 1 .5.5.5.5v1 1l.5.5.5.5v1.5 1.5 1 1l.5.5.5.5v1 1 1.5 1.5l.5 1.5.5 1.5-10.5 8-10.5 8-13 3.5-13 3.5-25 2.5-25 2.5-12.5 6.5-12.5 6.5-14.5 7-14.5 7-17.5 14-17.5 14v2.5 2.5 1.5 1.5" style="fill:#8c6566;stroke:#8c6566"/><path d="m0 578v1l17.5-14 17.5-14-14.5 10-14.5 10-.5-1-.5-1h-1-1l-1.5.5-1.5.5v3.5 3.5.5.5" style="fill:#ffefd0;stroke:#ffefd0"/><path d="m558 578l39-1 9.5-.5 9.5-.5 7-3.5 7-3.5 11.5-.5 11.5-.5 11.5-1 11.5-1 12.5.5 12.5.5-.5-1.5-.5-1.5-.5-.5-.5-.5-.5-.5-.5-.5v-1-1l-1-.5-1-.5-.5-.5-.5-.5-.5-.5-.5-.5-.5-.5-.5-.5-1-.5-1-.5-.5-.5-.5-.5v-1-1h-1-1l-1.5-.5-1.5-.5v-1.5-1.5l.5-.5.5-.5-1.5-.5-1.5-.5-9.5 1.5-9.5 1.5-8.5-3-8.5-3-9 4-9 4-12.5 1-12.5 1-12 1-12 1-11.5-2.5-11.5-2.5-13.5-1-13.5-1-6-6-6-6-8-9-8-9-4-10.5-4-10.5-7-4-7-4-3-11.5-3-11.5.5-10.5.5-10.5-.5-8-.5-8-1.5-6.5-1.5-6.5-1.5-9-1.5-9-10 7-10 7-1 1-1 1-1 1-1 1-2-.5-2-.5-1.5.5-1.5.5h-1-1l2.5-6.5 2.5-6.5-2.5-14.5-2.5-14.5 8-10.5 8-10.5-9 3-9 3-.5 1-.5 1h-1.5-1.5l-1.5.5-1.5.5h-1-1l-2-10-2-10 4-8 4-8-3.5-4-3.5-4-2-7-2-7 8-7.5 8-7.5-12.5-8.5-12.5-8.5-12.5 1.5-12.5 1.5-19 3-19 3h23.5 23.5l1 10 1 10-6.5 7-6.5 7 7.5 6.5 7.5 6.5.5 10 .5 10-2 8-2 8 13 1.5 13 1.5-2.5 3.5-2.5 3.5-14 1.5-14 1.5 3.5 10.5 3.5 10.5 5.5 8 5.5 8 7.5 8.5 7.5 8.5 5.5 11 5.5 11 9 9 9 9 1 10 1 10 7 5.5 7 5.5 2.5 8.5 2.5 8.5 7 4.5 7 4.5 6.5 7.5 6.5 7.5 7.5 9 7.5 9 12.5 2.5 12.5 2.5 11 6 11 6" style="fill:#8c6566;stroke:#8c6566"/><path d="m6 571l29-20 14.5-7 14.5-7 12.5-6.5 12.5-6.5v-.5-.5l15.5-3 15.5-3 11-.5 11-.5 22-10 22-10-.5-1.5-.5-1.5v-1.5-1.5-1-1l-.5-.5-.5-.5v-1-1-1.5-1.5l-.5-.5-.5-.5v-1-1l-.5-.5-.5-.5-.5-1-.5-1v-1.5-1.5l-1-.5-1-.5-.5.5-.5.5h-1-1l-.5.5-.5.5-1 .5-1 .5-.5 1-.5 1h-2-2l-1.5-.5-1.5-.5-2.5-1-2.5-1-1-1-1-1-1-1-1-1-1.5-1-1.5-1-1-1-1-1-2-.5-2-.5-1.5-.5-1.5-.5-1.5-1-1.5-1-.5-1-.5-1-.5-.5-.5-.5-.5-1.5-.5-1.5-.5-1.5-.5-1.5v-2-2l.5-.5.5-.5v-1.5-1.5-2-2-1-1l-.5-2-.5-2-5-7-5-7-16.5-17-16.5-17-.5-.5-.5-.5-.5-1.5-.5-1.5-1-.5-1-.5-.5-.5-.5-.5h-1-1v-1-1l-.5-.5-.5-.5.5-1 .5-1v-1-1-1-1l-.5-.5-.5-.5-.5-.5-.5-.5-1-.5-1-.5-.5-.5-.5-.5-.5-.5-.5-.5h-1-1l-.5-1-.5-1h-1-1l-.5-.5-.5-.5-.5-1-.5-1h-2-2-2-2l-1.5-.5-1.5-.5 1-1.5 1-1.5.5-1.5.5-1.5v-2-2l4.5-10.5 4.5-10.5-2.5-12.5-2.5-12.5 2-14.5 2-14.5 10-7.5 10-7.5 9.5-8 9.5-8-8-5-8-5 5-12 5-12v-.5-.5l4-14 4-14 2.5-13.5 2.5-13.5 5-12.5 5-12.5 9.5-8.5 9.5-8.5v-.5-.5l9.5-9 9.5-9 4-4.5 4-4.5 9.5-20.5 9.5-20.5.5-1 .5-1 1-1 1-1 1.5-1 1.5-1 1-1 1-1 1.5-1 1.5-1 2-1 2-1v-.5-.5l12.5-5.5 12.5-5.5 13-9.5 13-9.5v-.5-.5h-20-20-17.5-17.5-18-18-17.5-17.5-9-9l.5 1.5.5 1.5 1 1.5 1 1.5.5 1.5.5 1.5-1 .5-1 .5-1-.5-1-.5-1-1-1-1-.5-.5-.5-.5v-1-1l-.5-.5-.5-.5-1-1.5-1-1.5h-19.5-19.5-17-17l-8.5 12.5-8.5 12.5-.5-.5-.5-.5v19.5 19.5 18 18 17.5 17.5 18 18 17.5 17.5 18 18 17.5 17.5 18 18 17.5 17.5 18 18 17.5 17.5 18 18 18 18 17.5 17.5 18 18 4.5 4.5l1.5-.5 1.5-.5h1 1l.5 1 .5 1" style="fill:#fffff4;stroke:#fffff4"/><path d="m707 564h2l1.5-.5 1.5-.5 2-.5 2-.5 1-1 1-1-1.5-1-1.5-1-1.5-.5-1.5-.5-2 .5-2 .5-1.5.5-1.5.5-.5 1.5-.5 1.5 1.5 1 1.5 1" style="fill:#f3c3ac;stroke:#f3c3ac"/><path d="m148 559l5-27 10-2 10-2 3.5-9 3.5-9 4.5-11 4.5-11-13.5 15-13.5 15-7 7.5-7 7.5.5 2 .5 2v1 1h-1-1l-.5.5-.5.5-.5 1-.5 1v1 1l-.5.5-.5.5-.5.5-.5.5-1 .5-1 .5-.5-.5-.5-.5-.5.5-.5.5-1.5-.5-1.5-.5-1-.5-1-.5.5-1.5.5-1.5v-2-2-2.5-2.5-2-2h-1.5-1.5l-2-1-2-1v-1.5-1.5-1-1l-1.5-.5-1.5-.5h-2-2l-1 1.5-1 1.5-.5 1.5-.5 1.5-1.5 1-1.5 1h-1.5-1.5l-1-.5-1-.5 10.5 8 10.5 8 8.5 7.5 8.5 7.5" style="fill:#855248;stroke:#855248"/><path d="m580 555l24-2 12.5-1 12.5-1 9-4 9-4 8.5 3 8.5 3 9.5-1.5 9.5-1.5.5-.5.5-.5-1-1-1-1-1-1.5-1-1.5-.5-1.5-.5-1.5-2-.5-2-.5-10.5-4.5-10.5-4.5-11 1.5-11 1.5-11 4-11 4-17.5 1.5-17.5 1.5-1-.5-1-.5-1.5.5-1.5.5-1.5-1-1.5-1h-1-1l-1.5.5-1.5.5-1.5-1-1.5-1-2.5.5-2.5.5-1 .5-1 .5-1.5.5-1.5.5-2 .5-2 .5v1 1l-2-.5-2-.5h-1-1l-1.5-.5-1.5-.5-1-1.5-1-1.5-1.5-.5-1.5-.5-1.5-.5-1.5-.5-1-1.5-1-1.5-.5-1.5-.5-1.5-.5-1-.5-1-3-11.5-3-11.5-5-8.5-5-8.5-2.5-11.5-2.5-11.5-6-8-6-8 4-7.5 4-7.5-.5-14.5-.5-14.5 1-7.5 1-7.5-3-11-3-11-4.5-9-4.5-9-8.5-6.5-8.5-6.5 2-9.5 2-9.5-1-8-1-8-5.5-7-5.5-7-7-8-7-8-5-9.5-5-9.5-7-6-7-6-2-8.5-2-8.5-4.5-7.5-4.5-7.5-5.5-8.5-5.5-8.5-2-7.5-2-7.5v-7-7l-4.5-10-4.5-10 3-8 3-8 3.5-11 3.5-11-.5-7.5-.5-7.5 3-8.5 3-8.5-1-10-1-10-2.5-8-2.5-8-10.5-11-10.5-11-1 .5-1 .5h-1-1-2-2l-.5-.5-.5-.5h-1-1l-1-.5-1-.5h-1-1l-.5-.5-.5-.5-.5-.5-.5-.5-1-.5-1-.5-1-1-1-1h-2-2l-1.5-1-1.5-1v-1-1l-1.5.5-1.5.5.5 1 .5 1 .5.5.5.5-.5 1-.5 1 .5.5.5.5h1 1l.5.5.5.5 1 .5 1 .5.5.5.5.5 1 1 1 1 2.5 6.5 2.5 6.5 3.5 5.5 3.5 5.5.5 11 .5 11v4 4l2 8.5 2 8.5-1 10-1 10-9 10.5-9 10.5 1.5 11.5 1.5 11.5 4.5 2.5 4.5 2.5 6.5.5 6.5.5 3-1.5 3-1.5 2 11 2 11 5 9.5 5 9.5-.5 4.5-.5 4.5-6-8.5-6-8.5-2 11-2 11 4 8 4 8 .5 10 .5 10 10.5 12.5 10.5 12.5 12.5 8.5 12.5 8.5-8 7.5-8 7.5 2 7 2 7 3.5 4 3.5 4-4 8-4 8 6.5 8.5 6.5 8.5 9-3 9-3-8 10.5-8 10.5 7 4.5 7 4.5-.5 8.5-.5 8.5v6 6l10-7 10-7 1.5 9 1.5 9 1.5 6.5 1.5 6.5.5 8 .5 8-.5 10.5-.5 10.5 3 11.5 3 11.5 7 4 7 4 4 10.5 4 10.5 8 9 8 9 6 6 6 6 13.5 1 13.5 1 11.5 2.5 11.5 2.5" style="fill:#a68388;stroke:#a68388"/><path d="m696 553l2-18h6.5 6.5l4.5-9.5 4.5-9.5v-19-19-9.5-9.5l-11 6-11 6-3.5 7.5-3.5 7.5-10.5 4-10.5 4 1.5 14.5 1.5 14.5 2.5.5 2.5.5 1.5 1 1.5 1 .5 1 .5 1 1 1.5 1 1.5 1 1 1 1 1 1.5 1 1.5.5 1.5.5 1.5 1 1.5 1 1.5.5 1.5.5 1.5-1.5-.5-1.5-.5-1.5-1-1.5-1v1.5 1.5l1 .5 1 .5 1.5 1.5 1.5 1.5 1 .5 1 .5.5.5.5.5 1 1 1 1" style="fill:#f3c3ac;stroke:#f3c3ac"/><path d="m56 552l4 1h1.5 1.5l.5-.5.5-.5 1.5-.5 1.5-.5.5-1 .5-1 .5-.5.5-.5 1-1 1-1 1-.5 1-.5.5-.5.5-.5.5-1.5.5-1.5-1.5-1-1.5-1v1 1 1.5 1.5h-1-1l-.5.5-.5.5-.5.5-.5.5-1 1-1 1-.5 1-.5 1-.5.5-.5.5-1.5.5-1.5.5-1-.5-1-.5-.5-.5-.5-.5h-1.5-1.5-1.5-1.5l1 .5 1 .5 1 .5 1 .5" style="fill:#855248;stroke:#855248"/><path d="m136 546l3 1 .5-.5.5-.5.5.5.5.5 1-.5 1-.5.5-.5.5-.5.5-.5.5-.5v-1-1l.5-1 .5-1 .5-.5.5-.5h1 1v-1-1l-.5-2-.5-2h-.5-.5v1.5 1.5l-1 .5-1 .5-1 1.5-1 1.5-1 1-1 1h-1-1l-1-1.5-1-1.5v-2-2l-.5-.5-.5-.5.5-2 .5-2 .5-1.5.5-1.5.5-.5.5-.5.5-.5.5-.5-.5-.5-.5-.5-.5-.5-.5-.5h-1.5-1.5l-.5-.5-.5-.5-.5-.5-.5-.5-.5.5-.5.5-.5 1-.5 1-.5.5-.5.5.5.5.5.5.5 1.5.5 1.5h1.5 1.5v2 2 2.5 2.5 2 2l-.5 1.5-.5 1.5 1 .5 1 .5" style="fill:#ad6f61;stroke:#ad6f61"/><path d="m689 544l3 1-.5-1.5-.5-1.5-1-1.5-1-1.5-.5-1.5-.5-1.5-1-1.5-1-1.5-1-1-1-1-1-1.5-1-1.5-.5.5-.5.5.5 1 .5 1 .5 1 .5 1 1.5 1 1.5 1 .5 1.5.5 1.5-2-.5-2-.5-1-.5-1-.5-1-1.5-1-1.5-1.5-.5-1.5-.5-2-.5-2-.5-.5-1.5-.5-1.5v2 2l2 .5 2 .5 1.5.5 1.5.5 1 1.5 1 1.5 1 1 1 1 1.5.5 1.5.5.5 1 .5 1 1.5 1 1.5 1" style="fill:#ffefd0;stroke:#ffefd0"/><path d="m539 543h2l2 .5 2 .5v-1-1l2-.5 2-.5 1.5-.5 1.5-.5 1-.5 1-.5-1-.5-1-.5 1-.5 1-.5-.5-.5-.5-.5h-1-1-1-1v-1-1l1 .5 1 .5v-1-1l-1-.5-1-.5-1-.5-1-.5-6.5-.5-6.5-.5-1.5 2.5-1.5 2.5-2-1-2-1-.5-1.5-.5-1.5-1-.5-1-.5.5 1 .5 1 .5 1.5.5 1.5 1 1.5 1 1.5 1.5.5 1.5.5 1.5.5 1.5.5 1 1.5 1 1.5 1.5.5 1.5.5" style="fill:#d8a48b;stroke:#d8a48b"/><path d="m139 542h2l1-1 1-1 1-1.5 1-1.5 1-.5 1-.5v-1.5-1.5h-.5-.5l-.5 1.5-.5 1.5-1.5 1-1.5 1h-1-1l-.5-1.5-.5-1.5-1-1-1-1v-1.5-1.5l-.5 2-.5 2 .5.5.5.5v2 2l1 1.5 1 1.5" style="fill:#bc8d6d;stroke:#bc8d6d"/><path d="m575 541l35-3 11-4 11-4 11-1.5 11-1.5 10.5 4.5 10.5 4.5-.5-1-.5-1-2-.5-2-.5-.5-1.5-.5-1.5-.5-2-.5-2-1-1-1-1-1.5-1-1.5-1-.5-1-.5-1h-1.5-1.5l-2 .5-2 .5-1 1-1 1-12.5 1.5-12.5 1.5-13-1-13-1-17 2-17 2-2-1-2-1-1 1-1 1-2.5-.5-2.5-.5-1 .5-1 .5-1 1-1 1-1 1.5-1 1.5v1 1l-1-.5-1-.5v1 1h1 1 1 1l.5.5.5.5-1 .5-1 .5 1 .5 1 .5 2.5-.5 2.5-.5 1.5 1 1.5 1 1.5-.5 1.5-.5h1 1l1.5 1 1.5 1 1.5-.5 1.5-.5 1 .5 1 .5" style="fill:#c7a2a8;stroke:#c7a2a8"/><g style="fill:#5c3a31;stroke:#5c3a31"><path d="m277 540l12-13-6 2-6 2v4.5 4.5"/><path d="m129 538h2v-2-2l-1-1.5-1-1.5h-2-2l-1.5 1-1.5 1-.5 1.5-.5 1.5 1.5 1 1.5 1 1.5-.5 1.5-.5 1 .5 1 .5"/></g><path d="m683 537l4 1-.5-1.5-.5-1.5-1.5-1-1.5-1-.5-1-.5-1-.5-1-.5-1-1-.5-1-.5-1-.5-1-.5-.5-.5-.5-.5h-2-2l-.5 1-.5 1 .5 1.5.5 1.5 2 .5 2 .5 1.5.5 1.5.5 1 1.5 1 1.5 1 .5 1 .5" style="fill:#fffff4;stroke:#fffff4"/><path d="m255 535l10-21-6 7-6 7 1 3.5 1 3.5" style="fill:#5c3a31;stroke:#5c3a31"/><path d="m531 535l3-5 6.5.5 6.5.5-8.5-16-8.5-16-3-8.5-3-8.5-5.5-10-5.5-10 1.5-9.5 1.5-9.5-.5-13-.5-13v-13-13l-5-10.5-5-10.5v-12-12l-4.5-8.5-4.5-8.5-1.5-8-1.5-8-3.5-7.5-3.5-7.5-6.5-8-6.5-8-4.5-7.5-4.5-7.5-2.5-5-2.5-5-3-10-3-10-4-7.5-4-7.5-6.5-9.5-6.5-9.5-2-9.5-2-9.5-3.5-10.5-3.5-10.5-2.5-10-2.5-10-3-11-3-11 3.5-8 3.5-8v-9-9l2.5-10.5 2.5-10.5-1-11.5-1-11.5-16.5-12.5-16.5-12.5h-1.5-1.5l-1.5-.5-1.5-.5-1.5-1.5-1.5-1.5-1-1-1-1-1.5-.5-1.5-.5-2 .5-2 .5h-2-2-1.5-1.5l1 .5 1 .5-.5.5-.5.5 1.5 1 1.5 1h2 2 2 2l10.5 11 10.5 11 2.5 8 2.5 8 1 10 1 10-3 8.5-3 8.5.5 7.5.5 7.5-3.5 11-3.5 11-3 8-3 8 4.5 10 4.5 10v7 7l2 7.5 2 7.5 5.5 8.5 5.5 8.5 4.5 7.5 4.5 7.5 2 8.5 2 8.5 7 6 7 6 5 9.5 5 9.5 7 8 7 8 5.5 7 5.5 7 1 8 1 8-2 9.5-2 9.5 8.5 6.5 8.5 6.5 4.5 9 4.5 9 3 11 3 11-1 7.5-1 7.5.5 14.5.5 14.5-4 7.5-4 7.5 6 8 6 8 2.5 11.5 2.5 11.5 5 8.5 5 8.5 3 11.5 3 11.5 1 .5 1 .5.5 1.5.5 1.5 2 1 2 1" style="fill:#c7a2a8;stroke:#c7a2a8"/><path d="m549 532l2 1 1-1.5 1-1.5 1-1 1-1 1-.5 1-.5 3.5-4.5 3.5-4.5 3-1.5 3-1.5-1.5-.5-1.5-.5-2 .5-2 .5-1-1-1-1h-2-2l-1.5.5-1.5.5-1.5-.5-1.5-.5-2-.5-2-.5-1.5-.5-1.5-.5-1-1.5-1-1.5-1-1-1-1-.5-2-.5-2-.5-1-.5-1h-.5-.5v1.5 1.5l.5 1.5.5 1.5-.5.5-.5.5v-1-1l-.5-1-.5-1-.5 1.5-.5 1.5v1 1l-.5-1-.5-1-.5-1.5-.5-1.5-.5-.5-.5-.5v1.5 1.5l-.5 1-.5 1v-1.5-1.5l-.5-.5-.5-.5.5-1 .5-1-.5-1-.5-1 8.5 16 8.5 16 1 .5 1 .5" style="fill:#f3c3ac;stroke:#f3c3ac"/><path d="m568 528l34-4 13 1 13 1 12.5-1.5 12.5-1.5-1.5.5-1.5.5-1.5-.5-1.5-.5-2 .5-2 .5-.5 1.5-.5 1.5-2-.5-2-.5-1-1-1-1-2-.5-2-.5-1.5.5-1.5.5h-1-1l-.5-.5-.5-.5-1-.5-1-.5-1.5-.5-1.5-.5-.5-.5-.5-.5-1-.5-1-.5-1.5-.5-1.5-.5-1-1-1-1h-2.5-2.5l-1-1-1-1-2 .5-2 .5-1.5.5-1.5.5h-2.5-2.5l-1.5.5-1.5.5-1.5-1-1.5-1-1.5.5-1.5.5h-1-1l-2-.5-2-.5h-1-1-1-1l-.5-.5-.5-.5-2 .5-2 .5-3 1.5-3 1.5-3.5 4.5-3.5 4.5 2.5.5 2.5.5 1-1 1-1 2 1 2 1" style="fill:#d6beca;stroke:#d6beca"/><path d="m235 526l11-20-7-1-7-1 1.5 11 1.5 11" style="fill:#5c3a31;stroke:#5c3a31"/><path d="m638 526l4 1 .5-1.5.5-1.5 2-.5 2-.5 1.5.5 1.5.5 1.5-.5 1.5-.5 1-1 1-1 2-.5 2-.5h1.5 1.5l.5 1 .5 1 1.5.5 1.5.5h2 2 1.5 1.5l-1.5-14.5-1.5-14.5 10.5-4 10.5-4 3.5-7.5 3.5-7.5 11-6 11-6v-19.5-19.5-18-18l-3 8-3 8-4 10.5-4 10.5-1 10.5-1 10.5-5 9-5 9-7 7.5-7 7.5-10.5 7.5-10.5 7.5 2 11.5 2 11.5-13 4.5-13 4.5-1.5-.5-1.5-.5h-2-2-2-2l-2-.5-2-.5-1-1-1-1-1.5-1-1.5-1-1.5-.5-1.5-.5-2-1-2-1 1.5 1.5 1.5 1.5 1 1 1 1 1.5.5 1.5.5 1 .5 1 .5.5.5.5.5 1.5.5 1.5.5 1 .5 1 .5.5.5.5.5h1 1l1.5-.5 1.5-.5 2 .5 2 .5 1 1 1 1" style="fill:#ffefd0;stroke:#ffefd0"/><path d="m420 525l7-10-5.5 2.5-5.5 2.5 2 2.5 2 2.5" style="fill:#855248;stroke:#855248"/><path d="m89 523v1l25-2.5 25-2.5 13-3.5 13-3.5 10.5-8 10.5-8-22 10-22 10-11 .5-11 .5-15.5 3-15.5 3" style="fill:#ffefd0;stroke:#ffefd0"/><path d="m637 522l26-9-2-11.5-2-11.5 10.5-7.5 10.5-7.5 7-7.5 7-7.5 5-9 5-9 1-10.5 1-10.5 4-10.5 4-10.5 3-8 3-8v-2-2-2.5-2.5-2-2-1-1l-.5 1-.5 1-1-.5-1-.5h-1-1l1.5-14 1.5-14 1-6 1-6v-20-20-17.5-17.5-18-18-17.5-17.5-18-18-17.5-17.5-18-18-17.5-17.5-18-18-3-3h-15-15-17.5-17.5-18-18-17.5-17.5-18-18-17.5-17.5-18-18-17.5-17.5-18-18-17.5-17.5-4.5-4.5l11 6 11 6 10 7.5 10 7.5 16-3.5 16-3.5 7 6 7 6 .5 7 .5 7 4.5 7 4.5 7 2 7.5 2 7.5-1 11-1 11 2 11.5 2 11.5 3.5 11.5 3.5 11.5 3 9.5 3 9.5 4 13 4 13 4 12 4 12 3.5 10 3.5 10 1.5 10.5 1.5 10.5 6 10.5 6 10.5 3 11 3 11 4 12.5 4 12.5 4.5 13.5 4.5 13.5-3.5 8-3.5 8-9 6-9 6 8 8.5 8 8.5v10 10l4 5.5 4 5.5 1 12 1 12-.5 13.5-.5 13.5 5.5 13.5 5.5 13.5 13.5 2 13.5 2 15.5 3.5 15.5 3.5h.5.5l2 1 2 1 1.5.5 1.5.5 1.5 1 1.5 1 1 1 1 1 2 .5 2 .5h2 2 2 2l1.5.5 1.5.5" style="fill:#fffff4;stroke:#fffff4"/><path d="m583 516h2l1.5-.5 1.5-.5 1.5 1 1.5 1 1.5-.5 1.5-.5h2.5 2.5l1.5-.5 1.5-.5 2-.5 2-.5 1 1 1 1h2.5 2.5l-1.5-1.5-1.5-1.5h-.5-.5-24-24l1 1 1 1 2-.5 2-.5 1.5.5 1.5.5 2-.5 2-.5.5.5.5.5h1 1 1 1l2 .5 2 .5" style="fill:#e9d8e4;stroke:#e9d8e4"/><path d="m551 513l3 1 1.5-.5 1.5-.5h2 2 24 24l-15.5-3.5-15.5-3.5-13.5-2-13.5-2-5.5-13.5-5.5-13.5.5 1 .5 1v1.5 1.5l-.5.5-.5.5-.5-1-.5-1 .5 1.5.5 1.5 1 1.5 1 1.5-1 1-1 1v2.5 2.5l.5.5.5.5v2 2l.5.5.5.5.5 1 .5 1-1 .5-1 .5-.5-1.5-.5-1.5-.5-.5-.5-.5-.5 1.5-.5 1.5.5 1 .5 1 .5 2 .5 2 1 1 1 1 1 1.5 1 1.5 1.5.5 1.5.5 2 .5 2 .5" style="fill:#ffefd0;stroke:#ffefd0"/><path d="m531 507l1-2v-1.5-1.5l.5.5.5.5.5 1.5.5 1.5.5 1 .5 1v-1-1l.5-1.5.5-1.5.5 1 .5 1v1 1l.5-.5.5-.5-.5-1.5-.5-1.5v-1.5-1.5l-2.5-13.5-2.5-13.5-1.5-11.5-1.5-11.5-1.5-9.5-1.5-9.5-2-7.5-2-7.5 1.5-12.5 1.5-12.5-6.5-11-6.5-11 5.5-9.5 5.5-9.5-4.5-13-4.5-13-2-12-2-12-7.5-8-7.5-8-1.5-9.5-1.5-9.5-5-7.5-5-7.5-4-7-4-7-5-10.5-5-10.5-1.5-9.5-1.5-9.5-5-5.5-5-5.5-3-10-3-10-1-5.5-1-5.5-4-8-4-8 2.5-10.5 2.5-10.5-.5-7-.5-7 1-9 1-9 .5-10 .5-10-2-12-2-12-2.5-9.5-2.5-9.5h-2-2l-1.5.5-1.5.5-2 .5-2 .5-.5 1.5-.5 1.5-1.5.5-1.5.5-2 .5-2 .5h-2-2-2.5-2.5l-1.5-.5-1.5-.5-1.5-1-1.5-1-1-1-1-1-.5-.5-.5-.5h-1-1l-.5-.5-.5-.5-.5-1-.5-1-.5-.5-.5-.5-.5-.5-.5-.5v-1-1l-1.5.5-1.5.5v.5.5l16.5 12.5 16.5 12.5 1 11.5 1 11.5-2.5 10.5-2.5 10.5v9 9l-3.5 8-3.5 8 3 11 3 11 2.5 10 2.5 10 3.5 10.5 3.5 10.5 2 9.5 2 9.5 6.5 9.5 6.5 9.5 4 7.5 4 7.5 3 10 3 10 2.5 5 2.5 5 4.5 7.5 4.5 7.5 6.5 8 6.5 8 3.5 7.5 3.5 7.5 1.5 8 1.5 8 4.5 8.5 4.5 8.5v12 12l5 10.5 5 10.5v13 13l.5 13 .5 13-1.5 9.5-1.5 9.5 5.5 10 5.5 10 3 8.5 3 8.5.5 1 .5 1-.5 1-.5 1 .5.5.5.5v1.5 1.5" style="fill:#d6beca;stroke:#d6beca"/><path d="m541 501l2-1-.5-1-.5-1-.5-.5-.5-.5v-2-2l-.5-.5-.5-.5v-2.5-2.5l1-1 1-1-1-1.5-1-1.5-.5-1.5-.5-1.5.5 1 .5 1 .5-.5.5-.5v-1.5-1.5l-.5-1-.5-1 .5-13.5.5-13.5-1-12-1-12-4-5.5-4-5.5v-10-10l-8-8.5-8-8.5 9-6 9-6 3.5-8 3.5-8-4.5-13.5-4.5-13.5-4-12.5-4-12.5-3-11-3-11-6-10.5-6-10.5-1.5-10.5-1.5-10.5-3.5-10-3.5-10-4-12-4-12-4-13-4-13-3-9.5-3-9.5-3.5-11.5-3.5-11.5-2-11.5-2-11.5 1-11 1-11-2-7.5-2-7.5-4.5-7-4.5-7-.5-7-.5-7-7-6-7-6-1.5 1-1.5 1 2.5 9.5 2.5 9.5 2 12 2 12-.5 10-.5 10-1 9-1 9 .5 7 .5 7-2.5 10.5-2.5 10.5 4 8 4 8 1 5.5 1 5.5 3 10 3 10 5 5.5 5 5.5 1.5 9.5 1.5 9.5 5 10.5 5 10.5 4 7 4 7 5 7.5 5 7.5 1.5 9.5 1.5 9.5 7.5 8 7.5 8 2 12 2 12 4.5 13 4.5 13-5.5 9.5-5.5 9.5 6.5 11 6.5 11-1.5 12.5-1.5 12.5 2 7.5 2 7.5 1.5 9.5 1.5 9.5 1.5 11.5 1.5 11.5 2.5 13.5 2.5 13.5h.5.5l.5-1.5.5-1.5.5.5.5.5.5 1.5.5 1.5" style="fill:#e9d8e4;stroke:#e9d8e4"/><g style="fill:#5c3a31;stroke:#5c3a31"><path d="m250 498l14-15-8.5 4.5-8.5 4.5 1.5 3 1.5 3"/><path d="m226 490l14-15-7.5 2.5-7.5 2.5.5 5 .5 5"/><path d="m208 483l8-19-5 9-5 9 1 .5 1 .5"/></g><path d="m165 476l3 1h2 2l.5-1 .5-1-1-.5-1-.5h-.5-.5l-1.5-.5-1.5-.5-1-.5-1-.5-1.5-.5-1.5-.5-.5-.5-.5-.5-1-.5-1-.5-1-1-1-1-.5-.5-.5-.5-.5-.5-.5-.5-.5-.5-.5-.5-1.5-.5-1.5-.5-1.5-.5-1.5-.5h-2-2l-1-1-1-1-.5-1-.5-1h-.5-.5v1 1l.5 1 .5 1 1.5 1 1.5 1 1.5.5 1.5.5 2 .5 2 .5 1 1 1 1 1.5 1 1.5 1 1 1 1 1 1 1 1 1 2.5 1 2.5 1" style="fill:#d6beca;stroke:#d6beca"/><path d="m171 474l2 1v-.5-.5l.5-1 .5-1-.5-1.5-.5-1.5.5-.5.5-.5.5-1 .5-1 1.5.5 1.5.5.5-.5.5-.5v-1.5-1.5l.5-1.5.5-1.5v-1-1-1.5-1.5h-.5-.5l-1 1.5-1 1.5v1 1l.5.5.5.5-.5.5-.5.5-1 .5-1 .5-.5.5-.5.5-.5.5-.5.5-.5.5-.5.5-.5 1-.5 1v1 1 2 2" style="fill:#f3c3ac;stroke:#f3c3ac"/><path d="m173 474v1l1-.5 1-.5.5-.5.5-.5h1 1l.5-.5.5-.5 1 .5 1 .5.5-1.5.5-1.5.5-.5.5-.5 1-.5 1-.5 1-.5 1-.5-1.5.5-1.5.5-1.5-.5-1.5-.5v-2.5-2.5-3.5-3.5h-.5-.5v1.5 1.5 1 1l-.5 1.5-.5 1.5v1.5 1.5l-.5.5-.5.5-1.5-.5-1.5-.5-.5 1-.5 1-.5.5-.5.5.5 1.5.5 1.5-.5 1-.5 1" style="fill:#ffefd0;stroke:#ffefd0"/><path d="m167 473l3 1v-.5-.5-1.5-1.5l-.5-1.5-.5-1.5.5-1.5.5-1.5 1.5-1 1.5-1 .5-1.5.5-1.5.5-2 .5-2h1 1l1-.5 1-.5v-2.5-2.5l-1 1-1 1-2 .5-2 .5-1.5.5-1.5.5-1 1-1 1-1 1.5-1 1.5-.5 1.5-.5 1.5 1 .5 1 .5 1 1 1 1-1 1.5-1 1.5.5 1.5.5 1.5-.5.5-.5.5-11-15-11-15-1 1.5-1 1.5v2 2l.5 1.5.5 1.5 1 1.5 1 1.5 1 1 1 1-1 1.5-1 1.5 1 1 1 1 1.5 1 1.5 1 1.5.5 1.5.5.5.5.5.5.5.5.5.5.5.5.5.5 1 1 1 1 1 .5 1 .5.5.5.5.5 1.5.5 1.5.5 1 .5 1 .5" style="fill:#bc8d6d;stroke:#bc8d6d"/><path d="m170 473v1h.5.5v-2-2-1-1l.5-1 .5-1 .5-.5.5-.5.5-.5.5-.5.5-.5.5-.5 1-.5 1-.5.5-.5.5-.5-.5-.5-.5-.5v-1-1l1-1.5 1-1.5v-.5-.5l-1 .5-1 .5h-1-1l-.5 2-.5 2-.5 1.5-.5 1.5-1.5 1-1.5 1-.5 1.5-.5 1.5.5 1.5.5 1.5v1.5 1.5" style="fill:#d8a48b;stroke:#d8a48b"/><path d="m167 471l1-1-.5-1.5-.5-1.5 1-1.5 1-1.5-1-1-1-1-1-.5-1-.5.5-1.5.5-1.5 1-1.5 1-1.5 1-1 1-1h-1-1l-1 .5-1 .5-1.5.5-1.5.5-1.5-.5-1.5-.5-1.5-1-1.5-1-1 1-1 1-1 .5-1 .5-1-1-1-1 .5-.5.5-.5.5-1 .5-1 .5-.5.5-.5v-1-1h-1-1l-.5.5-.5.5h-1.5-1.5l-.5.5-.5.5h-1-1v-1-1l.5-1 .5-1 .5-.5.5-.5.5-.5.5-.5.5-.5.5-.5-1-.5-1-.5v-1-1-1.5-1.5l-.5 1-.5 1-.5 1.5-.5 1.5 11 15 11 15" style="fill:#ad6f61;stroke:#ad6f61"/><path d="m181 467l3 1 1.5-.5 1.5-.5.5-1 .5-1h1 1l.5-.5.5-.5v-1-1-1-1-1.5-1.5-1-1-1-1l-.5-.5-.5-.5-.5-1-.5-1h-1-1l-.5-.5-.5-.5-.5.5-.5.5-.5.5-.5.5-.5 1-.5 1-1 1-1 1v3.5 3.5 2.5 2.5" style="fill:#fffff4;stroke:#fffff4"/><path d="m148 462l3 1-1.5-1-1.5-1-1-1-1-1 1-1.5 1-1.5-1-1-1-1-1-1.5-1-1.5-.5-1.5-.5-1.5v-2-2l1-1.5 1-1.5.5-1.5.5-1.5.5-1 .5-1-.5-1-.5-1-1-.5-1-.5v-1-1-1-1h-1-1l-.5-1-.5-1-.5-.5-.5-.5-.5-.5-.5-.5-.5-.5-.5-.5-.5-1-.5-1v-1-1l-.5-1.5-.5-1.5-1 .5-1 .5h-3-3v-1-1l1-1.5 1-1.5 1-1 1-1 1.5-.5 1.5-.5 1.5-1 1.5-1 1.5-.5 1.5-.5.5-1 .5-1 .5-1.5.5-1.5-.5-2-.5-2-1.5-.5-1.5-.5-1.5.5-1.5.5-6 5.5-6 5.5-.5-1.5-.5-1.5.5-.5.5-.5-.5-.5-.5-.5v-1-1l-.5-1-.5-1-.5-.5-.5-.5.5-.5.5-.5.5-.5.5-.5h1 1l1-.5 1-.5.5.5.5.5h1 1l.5.5.5.5h1.5 1.5l1-1 1-1 .5-1 .5-1 1.5-1 1.5-1 .5-1 .5-1v-1-1-1-1l-1-1.5-1-1.5-1-.5-1-.5-8-11-8-11v-.5-.5l1-1 1-1 1.5-.5 1.5-.5v-.5-.5l-1-1-1-1 1-1.5 1-1.5v-1-1l-1-1.5-1-1.5v-2-2l-.5-1-.5-1-2-.5-2-.5-1.5.5-1.5.5-1.5 1-1.5 1-1 1-1 1-1.5-.5-1.5-.5v2 2l-.5 1-.5 1 .5 1 .5 1 .5 1 .5 1v1 1 1 1 1 1l-1 .5-1 .5v1 1h-1-1l-1 .5-1 .5-.5 1-.5 1-1.5-.5-1.5-.5-1.5-.5-1.5-.5-.5-.5-.5-.5.5-.5.5-.5.5-.5.5-.5 1-.5 1-.5.5-.5.5-.5.5-.5.5-.5v-1-1-1-1l-.5-1-.5-1-2-1-2-1-.5-2-.5-2-10.5 7-10.5 7-.5-2-.5-2-1.5-.5-1.5-.5 8.5-.5 8.5-.5 10 6 10 6 1-1.5 1-1.5 1.5-1 1.5-1 .5-1.5.5-1.5v-2.5-2.5l-.5-1.5-.5-1.5 1-1.5 1-1.5 2-1 2-1 1-.5 1-.5 1 1 1 1-.5 1.5-.5 1.5v2 2l-1 1.5-1 1.5-.5 1.5-.5 1.5v1.5 1.5l-1 1-1 1-1 .5-1 .5-1 1-1 1-.5.5-.5.5-.5.5-.5.5h-1.5-1.5l-1 1-1 1-.5.5-.5.5-1 .5-1 .5-1 1-1 1-.5.5-.5.5-.5 1-.5 1-.5 1.5-.5 1.5-.5.5-.5.5-.5 1-.5 1-.5 1.5-.5 1.5v1 1l16.5 17 16.5 17 5 7 5 7 .5-.5.5-.5 1.5 12 1.5 12 .5 1 .5 1 1 1 1 1h2 2" style="fill:#d8a48b;stroke:#d8a48b"/><path d="m139 459l1 1v-1-1-.5-.5l-.5-1-.5-1v-1-1l.5-1 .5-1v-2-2-2.5-2.5-2-2l-1-2-1-2-.5.5-.5.5.5 2 .5 2v1 1 2 2 1.5 1.5l-.5.5-.5.5v2 2l.5 1.5.5 1.5.5 1.5.5 1.5" style="fill:#ffefd0;stroke:#ffefd0"/><path d="m140 457v1h.5.5l-1.5-12-1.5-12 1 2 1 2v2 2 2.5 2.5 2 2l-.5 1-.5 1v1 1l.5 1 .5 1" style="fill:#f3c3ac;stroke:#f3c3ac"/><path d="m153 455l2-1 1-1 1-1 1.5 1 1.5 1 1.5.5 1.5.5 1.5-.5 1.5-.5 1-.5 1-.5 2-1 2-1 1.5-1 1.5-1 1-1 1-1 1-1 1-1 1-.5 1-.5-15.5-3-15.5-3-4.5-10-4.5-10-.5-13-.5-13-1.5 1-1.5 1-.5 1-.5 1v1 1l1.5-.5 1.5-.5 1.5.5 1.5.5.5 2 .5 2-.5 1.5-.5 1.5-.5 1-.5 1-.5 1-.5 1-1 .5-1 .5-1 1-1 1v1 1 1.5 1.5l.5 1.5.5 1.5v1 1l.5 1 .5 1 .5.5.5.5.5.5.5.5.5.5.5.5.5 1 .5 1h1 1v1 1 1 1l1 .5 1 .5.5 1 .5 1v1.5 1.5 1 1l1 .5 1 .5-.5.5-.5.5-.5.5-.5.5-.5.5-.5.5-.5 1-.5 1v1 1h1 1l.5-.5.5-.5h1.5 1.5l.5-.5.5-.5h1 1v1 1l-.5.5-.5.5-.5 1-.5 1-.5.5-.5.5 1 1 1 1" style="fill:#855248;stroke:#855248"/><g style="fill:#ad6f61;stroke:#ad6f61"><path d="m134 418l2-1v-1.5-1.5-1-1l1-1 1-1 1-.5 1-.5.5-1 .5-1-1.5.5-1.5.5-1.5 1-1.5 1-1.5.5-1.5.5-1 1-1 1-1 1.5-1 1.5v1 1h3 3"/><path d="m435 416h2l1.5-.5 1.5-.5 2 .5 2 .5 1-1 1-1 1-1 1-1v-6-6l.5-8.5.5-8.5-7-4.5-7-4.5 2.5 14.5 2.5 14.5-2.5 6.5-2.5 6.5"/><path d="m124 409l12-11v-1-1l-1 1-1 1h-1.5-1.5l-.5-.5-.5-.5h-1-1l-.5-.5-.5-.5-1 .5-1 .5h-1-1l-.5.5-.5.5-.5.5-.5.5.5.5.5.5.5 1 .5 1v1 1l.5.5.5.5-.5.5-.5.5.5 1.5.5 1.5"/></g><path d="m104 398l30-5-5-9-5-9-1.5-4.5-1.5-4.5 5 9 5 9-12 5-12 5-1-.5-1-.5-1-1-1-1-1-1-1-1-1-1-1-1v-1.5-1.5l-.5 2.5-.5 2.5.5 1 .5 1 1 1 1 1 1 1.5 1 1.5.5 1 .5 1" style="fill:#f3c3ac;stroke:#f3c3ac"/><path d="m107 394l24-10-5-9-5-9-2 1-2 1-1 1.5-1 1.5-1.5.5-1.5.5-2 .5-2 .5-1 1-1 1 2 9 2 9h-1.5-1.5l-1-1-1-1-1-1-1-1-1-1.5-1-1.5v-2-2l-1 1-1 1v1.5 1.5l1 1 1 1 1 1 1 1 1 1 1 1 1 .5 1 .5" style="fill:#ffefd0;stroke:#ffefd0"/><path d="m110 393l-4-18-1 .5-1 .5-.5 1.5-.5 1.5-1 1.5-1 1.5v2 2l1 1.5 1 1.5 1 1 1 1 1 1 1 1h1.5 1.5" style="fill:#fffff4;stroke:#fffff4"/><path d="m93 386l1 1v-1-1-.5-.5l-1-2.5-1-2.5-9-8.5-9-8.5.5 1 .5 1 .5.5.5.5h1 1l.5 1 .5 1h1 1l.5.5.5.5.5.5.5.5 1 .5 1 .5.5.5.5.5.5.5.5.5v1 1 1 1l-.5 1-.5 1 .5.5.5.5v1 1h1 1l.5.5.5.5 1 .5 1 .5.5 1.5.5 1.5" style="fill:#ffefd0;stroke:#ffefd0"/><path d="m94 384v1l.5-1.5.5-1.5.5-1 .5-1 .5-.5.5-.5.5-1.5.5-1.5.5-1 .5-1 .5-.5.5-.5 1-1 1-1 1-.5 1-.5.5-.5.5-.5 1-1 1-1h1.5 1.5l.5-.5.5-.5.5-.5.5-.5 1-1 1-1-2 .5-2 .5h-1.5-1.5l-10-6-10-6-8.5.5-8.5.5h-1-1l.5 1 .5 1 .5.5.5.5v1 1 1.5 1.5h1 1l1 .5 1 .5 9 8.5 9 8.5 1 2.5 1 2.5" style="fill:#f3c3ac;stroke:#f3c3ac"/><g style="fill:#855248;stroke:#855248"><path d="m137 382l2 1-.5-2-.5-2 1.5-1 1.5-1 .5-1.5.5-1.5v-1.5-1.5l1-1 1-1 1.5 1 1.5 1 1.5.5 1.5.5.5 1.5.5 1.5.5 1.5.5 1.5v-2.5-2.5l1-1 1-1 1-1 1-1 2-.5 2-.5-1-1.5-1-1.5 1-1.5 1-1.5-.5-1.5-.5-1.5-1.5-1.5-1.5-1.5.5 1 .5 1 .5 1 .5 1-.5 2-.5 2-1 1-1 1-1.5 1-1.5 1-1.5.5-1.5.5-1.5-.5-1.5-.5-2-1-2-1-.5-1.5-.5-1.5 1.5-1 1.5-1 1-1 1-1 1-1.5 1-1.5 1.5-.5 1.5-.5h1.5 1.5l-10.5 1-10.5 1 5.5-13 5.5-13-1 1.5-1 1.5-1.5 1.5-1.5 1.5-9 11.5-9 11.5 8 11 8 11"/><path d="m237 382h2 2 2 1.5 1.5l1-1 1-1-1-1.5-1-1.5-1.5-.5-1.5-.5h-1.5-1.5l-1 1-1 1h-2-2l-.5 2-.5 2h2 2"/></g><path d="m153 381h3l1-1 1-1 1-1.5 1-1.5 1-1 1-1v-2-2l-1-1-1-1-2 .5-2 .5-1 1-1 1-1 1-1 1v2.5 2.5l.5 1.5.5 1.5" style="fill:#d8a48b;stroke:#d8a48b"/><path d="m715 370h2l1 .5 1 .5.5-1 .5-1v-1.5-1.5-2-2-2.5-2.5-2-2-2.5-2.5-2-2-2-2-2.5-2.5-2-2-.5-.5l-1 6-1 6-1.5 14-1.5 14" style="fill:#ffefd0;stroke:#ffefd0"/><path d="m146 368l3 1 1.5-.5 1.5-.5 1.5-1 1.5-1 1-1 1-1 .5-2 .5-2-.5-1-.5-1-.5-1-.5-1-1-.5-1-.5h-1.5-1.5l-1.5.5-1.5.5-1 1.5-1 1.5-1 1-1 1-1.5 1-1.5 1 .5 1.5.5 1.5 2 1 2 1" style="fill:#8c6566;stroke:#8c6566"/><path d="m107 364h3l2-.5 2-.5 1-.5 1-.5 1-1 1-1v-1.5-1.5l.5-1.5.5-1.5 1-1.5 1-1.5v-2-2l.5-1.5.5-1.5-1-1-1-1-1 .5-1 .5.5 2 .5 2v2 2l-1 1.5-1 1.5-1 1-1 1 1 1.5 1 1.5-1 1-1 1-1.5-.5-1.5-.5v-.5-.5l-1.5 1-1.5 1-1 1.5-1 1.5" style="fill:#ffefd0;stroke:#ffefd0"/><path d="m99 363l3 1 .5-1 .5-1-1-.5-1-.5 1-.5 1-.5.5-.5.5-.5.5-.5.5-.5v-1-1l-1-.5-1-.5-.5-1.5-.5-1.5-1-1-1-1 .5 1 .5 1v1 1 1 1l-.5.5-.5.5-.5.5-.5.5-1 .5-1 .5-.5.5-.5.5-.5.5-.5.5.5.5.5.5 1.5.5 1.5.5" style="fill:#bc8d6d;stroke:#bc8d6d"/><path d="m424 362h2l1.5-.5 1.5-.5h1.5 1.5l.5-1 .5-1-6.5-8.5-6.5-8.5 2 10 2 10" style="fill:#ad6f61;stroke:#ad6f61"/><path d="m63 361l3 1h2 2 2 2l-1-.5-1-.5h-1-1v-1.5-1.5-1-1l-.5-.5-.5-.5-.5-1-.5-1v-.5-.5l-1-.5-1-.5v2 2l-.5 1.5-.5 1.5-1 1.5-1 1.5" style="fill:#ffefd0;stroke:#ffefd0"/><path d="m101 361l2 1 1-.5 1-.5h1 1v-1-1l1-.5 1-.5v-1-1-1-1-1-1l-.5-1-.5-1-.5-1-.5-1 .5 2.5.5 2.5-1.5-.5-1.5-.5-1-1-1-1-1-1-1-1-1-1.5-1-1.5-1-1-1-1-1-1.5-1-1.5-1-1-1-1-1.5-1-1.5-1-1.5-1.5-1.5-1.5-.5 1-.5 1 .5 1.5.5 1.5h2.5 2.5l.5 1.5.5 1.5 1 1.5 1 1.5.5 2 .5 2 2 1 2 1 1 1 1 1 .5 1.5.5 1.5 1 .5 1 .5v1 1l-.5.5-.5.5-.5.5-.5.5-1 .5-1 .5" style="fill:#ad6f61;stroke:#ad6f61"/><path d="m112 360l3 1 1-1 1-1-1-1.5-1-1.5 1-1 1-1 1-1.5 1-1.5v-2-2l-.5-2-.5-2-2 1-2 1-1 1.5-1 1.5.5 1.5.5 1.5v2.5 2.5l-.5 1.5-.5 1.5v.5.5" style="fill:#fffff4;stroke:#fffff4"/><path d="m274 360l15-6-10 1-10 1 2.5 2 2.5 2" style="fill:#855248;stroke:#855248"/><path d="m121 359v1l9-11.5 9-11.5-1 .5-1 .5-1.5-.5-1.5-.5-1-1-1-1-.5-2-.5-2-.5-1.5-.5-1.5v2.5 2.5 1 1 1 1l-.5.5-.5.5.5 1 .5 1 .5.5.5.5h-1-1l-.5-.5-.5-.5-.5-1-.5-1-.5-.5-.5-.5h-1-1-1-1l-1-.5-1-.5v-1-1-1.5-1.5l-.5.5-.5.5v2 2l-1.5.5-1.5.5-1 1-1 1-1.5.5-1.5.5-1.5-.5-1.5-.5-.5-1-.5-1-1-.5-1-.5-.5-.5-.5-.5v-1.5-1.5l-.5-.5-.5-.5.5-.5.5-.5 1-.5 1-.5-1.5-.5-1.5-.5-1.5 1-1.5 1 .5 1.5.5 1.5.5.5.5.5v1 1l.5 1 .5 1 .5.5.5.5.5.5.5.5.5.5.5.5 1 .5 1 .5 1.5.5 1.5.5 1-1 1-1 1.5-1 1.5-1 1.5-.5 1.5-.5 2 .5 2 .5.5 1 .5 1 1 7.5 1 7.5-1.5.5-1.5.5-1 1-1 1" style="fill:#ad6f61;stroke:#ad6f61"/><path d="m74 358l21-14-1-1.5-1-1.5-.5-1.5-.5-1.5h-2.5-2.5l-.5-1.5-.5-1.5-4.5 1.5-4.5 1.5-3.5 7.5-3.5 7.5 1.5.5 1.5.5.5 2 .5 2" style="fill:#bc8d6d;stroke:#bc8d6d"/><path d="m531 358h2l.5-.5.5-.5-.5-2-.5-2 .5-1.5.5-1.5-1-1.5-1-1.5-1.5.5-1.5.5-1 1.5-1 1.5 1 1 1 1v1 1l1 1.5 1 1.5" style="fill:#fffff4;stroke:#fffff4"/><path d="m126 355v1l-1-7.5-1-7.5v2 2l1 1.5 1 1.5v1 1l-1 1.5-1 1.5 1 1 1 1" style="fill:#bc8d6d;stroke:#bc8d6d"/><path d="m68 352v1h1 1l3.5-7.5 3.5-7.5 4.5-1.5 4.5-1.5.5-1 .5-1-.5-1-.5-1h-1-1l-.5-.5-.5-.5h-1-1v-1.5-1.5-.5-.5-1.5-1.5-1-1l-.5-1-.5-1h-1-1l-.5-.5-.5-.5v-1-1-1.5-1.5l1-1 1-1h1 1l.5.5.5.5.5.5.5.5 2-.5 2-.5 13-17 13-17v-.5-.5l-8-6-8-6h1.5 1.5l1.5-.5 1.5-.5 1.5-.5 1.5-.5 2-.5 2-.5 1.5-.5 1.5-.5 2-1 2-1-3.5-18.5-3.5-18.5 4-14.5 4-14.5v-.5-.5l4.5-13.5 4.5-13.5 3-14.5 3-14.5 9.5-10.5 9.5-10.5 1.5-1.5 1.5-1.5 16-12.5 16-12.5v-.5-.5-2-2-1.5-1.5-2-2-1-1-1-1-1-1l.5-1 .5-1v-1-1-1-1-1-1l-.5-1-.5-1v-1-1l.5-.5.5-.5 1-1 1-1v-.5-.5l.5-1 .5-1 .5-1 .5-1-1-.5-1-.5-.5.5-.5.5-2 15-2 15-7 11-7 11-1 .5-1 .5-1.5 1-1.5 1-1.5.5-1.5.5-2 .5-2 .5-1.5.5-1.5.5-1 1-1 1-.5.5-.5.5-1 .5-1 .5-1 1-1 1-12 12.5-12 12.5-1.5 15-1.5 15-7.5 21.5-7.5 21.5-5 12-5 12 8 5 8 5-9.5 8-9.5 8-10 7.5-10 7.5-2 14.5-2 14.5 2.5 12.5 2.5 12.5-4.5 10.5-4.5 10.5 1 .5 1 .5" style="fill:#d8a48b;stroke:#d8a48b"/><g style="fill:#855248;stroke:#855248"><path d="m105 352l3 1-.5-2.5-.5-2.5.5-1 .5-1v-2-2l-1-.5-1-.5-.5-.5-.5-.5-.5-.5-.5-.5-.5-.5-.5-.5-.5-1-.5-1v-1-1l-.5-.5-.5-.5-.5-1.5-.5-1.5.5-1.5.5-1.5 1-.5 1-.5 1.5-.5 1.5-.5.5-.5.5-.5 1-.5 1-.5h2 2l.5-.5.5-.5h1.5 1.5l1.5.5 1.5.5.5 2 .5 2-.5 2-.5 2v1.5 1.5 1 1l1 .5 1 .5h1 1 1 1l.5.5.5.5.5 1 .5 1 .5.5.5.5h1 1l-.5-.5-.5-.5-.5-1-.5-1 .5-.5.5-.5v-1-1-1-1-2.5-2.5l.5-1.5.5-1.5.5-.5.5-.5.5-1 .5-1 .5-.5.5-.5v-1-1l.5-.5.5-.5v-1.5-1.5-1-1l.5-.5.5-.5.5-.5.5-.5 1-.5 1-.5-1.5-.5-1.5-.5-1-1.5-1-1.5-1.5-.5-1.5-.5-1 1-1 1-.5 1-.5 1 1.5-1 1.5-1 1 .5 1 .5v2 2l-1 1.5-1 1.5-.5 1.5-.5 1.5h-1-1l-.5-1-.5-1v-1.5-1.5l.5-2 .5-2-5 3-5 3h-9.5-9.5l3.5-6.5 3.5-6.5 5.5-11 5.5-11v-10.5-10.5l-2 1-2 1-1.5.5-1.5.5-2 .5-2 .5-1.5.5-1.5.5-1.5.5-1.5.5h-1.5-1.5l-.5 1-.5 1h1.5 1.5l.5.5.5.5h1 1 1 1l.5.5.5.5.5 1 .5 1 .5.5.5.5h1 1 1 1l1 .5 1 .5.5.5.5.5v1 1l-.5 1-.5 1-13 17-13 17-2 1-2 1-1 1-1 1 .5 2 .5 2v2 2l-.5 1.5-.5 1.5v1.5 1.5h1 1l.5.5.5.5h1 1l.5 1 .5 1 1.5 1.5 1.5 1.5 1.5 1 1.5 1 1 1 1 1 1 1.5 1 1.5 1 1 1 1 1 1.5 1 1.5 1 1 1 1 1 1 1 1"/><path d="m226 347l7-22 11.5-.5 11.5-.5 13.5 1.5 13.5 1.5 2-7.5 2-7.5-10.5 5.5-10.5 5.5-9-8.5-9-8.5-10.5 7.5-10.5 7.5-.5 13-.5 13"/></g><path d="m108 339l3 1 1.5-.5 1.5-.5 1-1 1-1-2 .5-2 .5-2-.5-2-.5 1-1 1-1-1-1.5-1-1.5-1-1.5-1-1.5-1 .5-1 .5-.5.5-.5.5.5.5.5.5v1.5 1.5l.5.5.5.5 1 .5 1 .5.5 1 .5 1" style="fill:#bc8d6d;stroke:#bc8d6d"/><path d="m108 337l4 1 2-.5 2-.5 1.5-.5 1.5-.5v-2-2l.5-.5.5-.5.5-2 .5-2-.5-2-.5-2-1.5-.5-1.5-.5h-1.5-1.5l-.5.5-.5.5h-2-2l-1 .5-1 .5-.5.5-.5.5-1.5.5-1.5.5-1 .5-1 .5-.5 1.5-.5 1.5 1.5-1 1.5-1 1.5.5 1.5.5 1 1.5 1 1.5 1 1.5 1 1.5-1 1-1 1" style="fill:#d8a48b;stroke:#d8a48b"/><path d="m134 337l3 1 1-.5 1-.5 1.5-1.5 1.5-1.5 1-1.5 1-1.5.5-2 .5-2-.5-1-.5-1v-1-1l-1-1-1-1v-1.5-1.5-1-1l-.5-.5-.5-.5-.5-.5-.5-.5.5-1 .5-1-1-1-1-1-1 .5-1 .5-.5.5-.5.5-.5.5-.5.5v1 1 1.5 1.5l-.5.5-.5.5v1 1l-.5.5-.5.5-.5 1-.5 1-.5.5-.5.5-.5 1.5-.5 1.5.5 1.5.5 1.5.5 2 .5 2 1 1 1 1" style="fill:#8c6566;stroke:#8c6566"/><path d="m135 335l3 1 1-1 1-1v-1-1l-1 .5-1 .5h-1.5-1.5l-.5-1-.5-1-.5-1.5-.5-1.5 1-1.5 1-1.5.5-1.5.5-1.5 1 1.5 1 1.5.5 1.5.5 1.5.5 2 .5 2 1-1.5 1-1.5-.5-1.5-.5-1.5-1-1.5-1-1.5v-2-2h-1.5-1.5l-.5 1.5-.5 1.5-.5 1.5-.5 1.5-1 1.5-1 1.5v2 2l1 1.5 1 1.5h.5.5" style="fill:#d8a48b;stroke:#d8a48b"/><g style="fill:#f3c3ac;stroke:#f3c3ac"><path d="m115 334h2l.5-1.5.5-1.5v-2.5-2.5l-1.5-.5-1.5-.5-2 .5-2 .5-.5 1.5-.5 1.5v1.5 1.5h1 1l1 1 1 1h.5.5"/><path d="m135 333h3l1-.5 1-.5-.5-2-.5-2-.5-1.5-.5-1.5-1-1.5-1-1.5-.5 1.5-.5 1.5-1 1.5-1 1.5.5 1.5.5 1.5.5 1 .5 1"/></g><g style="fill:#ad6f61;stroke:#ad6f61"><path d="m81 326v1l.5-1.5.5-1.5v-2-2l-.5-2-.5-2 1-1 1-1 2-1 2-1-2 .5-2 .5-.5-.5-.5-.5-.5-.5-.5-.5h-1-1l-1 1-1 1v1.5 1.5 1 1l.5.5.5.5h1 1l.5 1 .5 1v1 1 1.5 1.5"/><path d="m96 325l17-10-8.5 2.5-8.5 2.5v2.5 2.5"/></g><path d="m310 325h2 2 2l.5-2 .5-2 1.5-.5 1.5-.5-.5-1-.5-1-1.5.5-1.5.5h-1.5-1.5l-1.5.5-1.5.5v2 2 .5.5" style="fill:#36231b;stroke:#36231b"/><path d="m128 318h2l.5-1.5.5-1.5 1-1.5 1-1.5v-2-2l-1-.5-1-.5-1.5 1-1.5 1-.5 2-.5 2v1.5 1.5l.5 1 .5 1" style="fill:#ad6f61;stroke:#ad6f61"/><path d="m84 309h2l1.5-.5 1.5-.5 1.5-1 1.5-1 .5-1.5.5-1.5 2-.5 2-.5.5-1 .5-1h-2-2l-1.5-.5-1.5-.5-.5 1.5-.5 1.5 1 1.5 1 1.5-1 1-1 1-2 .5-2 .5-1.5-.5-1.5-.5 2-5 2-5-6.5-1.5-6.5-1.5-.5 1-.5 1v1 1l-.5 2-.5 2v2 2l.5-.5.5-.5.5-2 .5-2 1 1 1 1 1 1.5 1 1.5 1.5.5 1.5.5 1.5 1 1.5 1" style="fill:#f3c3ac;stroke:#f3c3ac"/><path d="m83 307l3 1 2-.5 2-.5 1-1 1-1-1-1.5-1-1.5.5-1.5.5-1.5 1.5.5 1.5.5h2 2l.5-1 .5-1 1-1 1-1v-1-1l-1 .5-1 .5-.5.5-.5.5-.5.5-.5.5-.5.5-.5.5-1.5-.5-1.5-.5-1-.5-1-.5-1.5-.5-1.5-.5.5-2 .5-2 1-1 1-1 1-1.5 1-1.5.5-2 .5-2-1 .5-1 .5-1.5 1-1.5 1-1 1-1 1-1.5 1-1.5 1-1.5.5-1.5.5-.5 2-.5 2-.5 1.5-.5 1.5-1.5-.5-1.5-.5-.5-2-.5-2-.5 1-.5 1 6.5 1.5 6.5 1.5-2 5-2 5" style="fill:#ffefd0;stroke:#ffefd0"/><g style="fill:#fffff4;stroke:#fffff4"><path d="m93 297l3 1 .5-.5.5-.5.5-.5.5-.5.5-.5.5-.5 1-.5 1-.5.5-1.5.5-1.5 1-1.5 1-1.5.5-1.5.5-1.5.5-2 .5-2 .5-1.5.5-1.5h-2-2l-1.5 1-1.5 1-1.5.5-1.5.5-1.5.5-1.5.5-.5 2-.5 2-1 1.5-1 1.5-1 1-1 1-.5 2-.5 2 1.5.5 1.5.5 1 .5 1 .5"/><path d="m76 296l3 1 .5-1.5.5-1.5.5-2 .5-2 1.5-.5 1.5-.5 1.5-1 1.5-1 1-1 1-1 1.5-1 1.5-1 1-.5 1-.5-5.5-3-5.5-3-4 8-4 8 .5 2 .5 2"/></g><path d="m334 288l1-1v-1-1l-.5-2-.5-2 1.5-.5 1.5-.5 2-.5 2-.5 2 1 2 1 19-3 19-3 12.5-1.5 12.5-1.5-10.5-12.5-10.5-12.5-.5-10-.5-10-4-8-4-8-.5 1-.5 1-1.5.5-1.5.5h-1-1l-7-5-7-5-2.5-6.5-2.5-6.5-5-7.5-5-7.5 5-11.5 5-11.5-1.5-11.5-1.5-11.5-8.5 4.5-8.5 4.5-5.5 1-5.5 1-12.5 5-12.5 5-3 11-3 11-5 6.5-5 6.5 4.5 6.5 4.5 6.5 1.5 7.5 1.5 7.5-3 9.5-3 9.5-.5 4.5-.5 4.5-7.5 6-7.5 6 7.5 5.5 7.5 5.5 3 4.5 3 4.5 11 2 11 2 10 5 10 5" style="fill:#ad6f61;stroke:#ad6f61"/><path d="m113 277v1l.5-1 .5-1v-1-1l-.5-.5-.5-.5-1-.5-1-.5h-1-1-1-1l-.5-.5-.5-.5-.5-1-.5-1-.5-.5-.5-.5h-1-1-1-1l-.5-.5-.5-.5h-1.5-1.5l.5-1 .5-1 8 6 8 6" style="fill:#8c6566;stroke:#8c6566"/><g style="fill:#5c3a31;stroke:#5c3a31"><path d="m154 276l3 1 1-1 1-1v-2.5-2.5l-1-1-1-1-1-1.5-1-1.5-1 1-1 1-.5 2-.5 2h2 2l-1 1-1 1v1.5 1.5"/><path d="m129 248l13-18-5 4-5 4-1.5 5-1.5 5"/></g><path d="m372 214h2l1.5-.5 1.5-.5.5-1 .5-1 2-11 2-11 6 8.5 6 8.5.5-4.5.5-4.5-5-9.5-5-9.5-2-11-2-11-3 1.5-3 1.5-6.5-.5-6.5-.5-4.5-2.5-4.5-2.5-5 11.5-5 11.5 5 7.5 5 7.5 2.5 6.5 2.5 6.5 7 5 7 5" style="fill:#bc8d6d;stroke:#bc8d6d"/><path d="m107 210v1l7.5-21.5 7.5-21.5v-.5-.5l-.5-1.5-.5-1.5v-1.5-1.5-1-1-1-1-1-1-1-1l.5-.5.5-.5v-1.5-1.5-1-1l-.5-.5-.5-.5v-1-1l.5-1 .5-1 .5-.5.5-.5v-1-1l1-.5 1-.5 12-12.5 12-12.5-9.5 8.5-9.5 8.5-5 12.5-5 12.5-2.5 13.5-2.5 13.5-4 14-4 14" style="fill:#ffefd0;stroke:#ffefd0"/><path d="m118 192v1l6-14.5 6-14.5 3.5-14 3.5-14 7.5-10.5 7.5-10.5-9.5 10.5-9.5 10.5-3 14.5-3 14.5-4.5 13.5-4.5 13.5" style="fill:#855248;stroke:#855248"/><path d="m122 167v1l1.5-15 1.5-15-1 .5-1 .5v1 1l-.5.5-.5.5-.5 1-.5 1v1 1l.5.5.5.5v1 1 1.5 1.5l-.5.5-.5.5v1 1 1 1 1 1 1 1 1.5 1.5l.5 1.5.5 1.5" style="fill:#f3c3ac;stroke:#f3c3ac"/><path d="m178 160l12-13h-8-8l2 6.5 2 6.5" style="fill:#36231b;stroke:#36231b"/><path d="m297 150v1l12.5-5 12.5-5 5.5-1 5.5-1 8.5-4.5 8.5-4.5 9-10.5 9-10.5 1-10 1-10-2-8.5-2-8.5v-4-4l-.5-11-.5-11-3.5-5.5-3.5-5.5-2.5-6.5-2.5-6.5-1.5-.5-1.5-.5-11.5-8.5-11.5-8.5h-2-2-1.5-1.5v1.5 1.5l-1 1.5-1 1.5-1 1-1 1-2 .5-2 .5-1 1-1 1-2 .5-2 .5-1.5.5-1.5.5-1.5-.5-1.5-.5-1-.5-1-.5-.5-.5-.5-.5-1-.5-1-.5v-1-1l-.5-.5-.5-.5-.5-.5-.5-.5-.5-.5-.5-.5-1-.5-1-.5-.5-.5-.5-.5-.5-.5-.5-.5-1-.5-1-.5h-2-2l1.5 1 1.5 1-.5 1.5-.5 1.5h1 1l-.5 1-.5 1v2 2 1 1l.5.5.5.5v1 1l.5 1 .5 1h-1-1l-.5.5-.5.5-.5.5-.5.5-1 1.5-1 1.5h11 11l5 6 5 6 4 8.5 4 8.5 3 8 3 8 3 9.5 3 9.5-3 8-3 8-2 10.5-2 10.5-5 4-5 4-8.5 4-8.5 4 .5 5 .5 5" style="fill:#8c6566;stroke:#8c6566"/><path d="m194 145l3 1 1.5-.5 1.5-.5 1.5-1 1.5-1-.5-1.5-.5-1.5-2-.5-2-.5h-1-1l-1.5-1-1.5-1-.5 1.5-.5 1.5.5 1.5.5 1.5.5 1 .5 1" style="fill:#36231b;stroke:#36231b"/><g style="fill:#ffefd0;stroke:#ffefd0"><path d="m10 137l3 1 .5-1.5.5-1.5.5-2 .5-2-.5-1.5-.5-1.5-1 .5-1 .5-1.5.5-1.5.5-1 1.5-1 1.5 1 1 1 1 .5 1 .5 1"/><path d="m149 112v1l1-1 1-1 1-.5 1-.5.5-.5.5-.5 1-1 1-1 1.5-.5 1.5-.5 2-.5 2-.5 1.5-.5 1.5-.5 1.5-1 1.5-1 1-.5 1-.5v-.5-.5l6.5-11 6.5-11 2.5-14.5 2.5-14.5.5-.5.5-.5 1-.5 1-.5 1-.5 1-.5.5-1 .5-1-9.5 20.5-9.5 20.5-4 4.5-4 4.5-9.5 9-9.5 9"/><path d="m6 105h2l1-1 1-1 1-1.5 1-1.5 1-1 1-1 .5-2 .5-2-1.5-.5-1.5-.5-1.5 1-1.5 1-.5 1.5-.5 1.5-.5 1.5-.5 1.5-.5 2-.5 2"/></g><path d="m171 100v1l7-11 7-11 2-15 2-15-2.5 14.5-2.5 14.5-6.5 11-6.5 11" style="fill:#f3c3ac;stroke:#f3c3ac"/><path d="m187 86v1l1-1 1-1 .5-1.5.5-1.5-.5-2-.5-2 .5-1.5.5-1.5v-1.5-1.5-1-1l.5-2 .5-2v-2-2-2-2l.5-2 .5-2h-1-1l-1 1-1 1-.5.5-.5.5v1 1l.5 1 .5 1v1 1 1 1 1 1l-.5 1-.5 1v1 1 1 1 1 1 2 2 1.5 1.5 2 2" style="fill:#ad6f61;stroke:#ad6f61"/><path d="m718 68l1-36-.5 5.5-.5 5.5v12.5 12.5" style="fill:#ffefd0;stroke:#ffefd0"/><path d="m190 53v1h1 1l13.5-11 13.5-11-1-.5-1-.5 19.5-2.5 19.5-2.5h-1.5-1.5l-1-1-1-1-1-1-1-1-2-.5-2-.5-1.5.5-1.5.5-1.5 1-1.5 1-1.5.5-1.5.5 1 1 1 1h-1.5-1.5l-.5-1-.5-1-1.5-.5-1.5-.5h-1-1-1.5-1.5l-1 .5-1 .5-1.5 1-1.5 1-1.5.5-1.5.5-1.5 1-1.5 1-1.5.5-1.5.5-1 .5-1 .5-2 1-2 1-1.5 1-1.5 1-1 1-1 1-1.5 1-1.5 1-1 1-1 1-.5 1-.5 1-.5 1-.5 1-1 .5-1 .5-1 .5-1 .5 1 .5 1 .5-.5 1-.5 1-.5 1-.5 1" style="fill:#bc8d6d;stroke:#bc8d6d"/><path d="m210 31v1l1-.5 1-.5 1.5-.5 1.5-.5 1.5-1 1.5-1 1.5-.5 1.5-.5 1.5-1 1.5-1 1-.5 1-.5 1-.5 1-.5 16.5-11 16.5-11-13 9.5-13 9.5-12.5 5.5-12.5 5.5" style="fill:#ffefd0;stroke:#ffefd0"/><path d="m217 31l2 1 16.5-1 16.5-1 14.5-3.5 14.5-3.5 1-1.5 1-1.5.5-.5.5-.5.5-.5.5-.5h1 1l-.5-1-.5-1v-1-1l-.5-.5-.5-.5v-1-1-2-2l.5-1 .5-1h-1-1l.5-1.5.5-1.5-1.5-1-1.5-1h-.5-.5l-12.5 13-12.5 13-19.5 2.5-19.5 2.5" style="fill:#ad6f61;stroke:#ad6f61"/><path d="m402 28l3 1h2.5 2.5 2 2l2-.5 2-.5 1.5-.5 1.5-.5.5-1.5.5-1.5 2-.5 2-.5 1.5-.5 1.5-.5h2 2l1.5-1 1.5-1-16 3.5-16 3.5-10-7.5-10-7.5-11-6-11-6h-1.5-1.5-2.5-2.5-1-1l17.5 8.5 17.5 8.5 1.5-.5 1.5-.5v1 1l.5.5.5.5.5.5.5.5.5 1 .5 1 .5.5.5.5h1 1l.5.5.5.5 1 1 1 1 1.5 1 1.5 1" style="fill:#ffefd0;stroke:#ffefd0"/><path d="m235 27h3l-1-1-1-1 1.5-.5 1.5-.5 1.5-1 1.5-1 1.5-.5 1.5-.5 2 .5 2 .5 1 1 1 1 1 1 1 1h1.5 1.5v-.5-.5l2.5-.5 2.5-.5h-1.5-1.5l-2-.5-2-.5h-13-13l-1 .5-1 .5h1.5 1.5 1 1l1.5.5 1.5.5.5 1 .5 1" style="fill:#d8a48b;stroke:#d8a48b"/><path d="m1 25l17-25h-1.5-1.5-2.5-2.5-2-2-2.5-2.5-.5-.5v1.5 1.5 2 2 2.5 2.5 2 2 2.5 2.5 1.5 1.5l.5.5.5.5" style="fill:#ffefd0;stroke:#ffefd0"/><path d="m256 25v1l12.5-13 12.5-13h-3.5-3.5-1-1l1 .5 1 .5.5 1 .5 1 .5.5.5.5h1.5 1.5l1 1 1 1 1 1.5 1 1.5-.5 1.5-.5 1.5-.5 2-.5 2-1 1-1 1-1.5.5-1.5.5-.5-.5-.5-.5-1 .5-1 .5-1.5.5-1.5.5-1 1-1 1-1.5.5-1.5.5-2 .5-2 .5-2.5.5-2.5.5" style="fill:#bc8d6d;stroke:#bc8d6d"/><path d="m254 23l4 1h1.5 1.5l2-.5 2-.5 1.5-.5 1.5-.5 1-1 1-1v-.5-.5-9.5-9.5h-1.5-1.5-2.5-2.5-.5-.5v.5.5l-16.5 11-16.5 11h13 13" style="fill:#f3c3ac;stroke:#f3c3ac"/><path d="m270 19v1l1.5-.5 1.5-.5 1-.5 1-.5.5.5.5.5 1.5-.5 1.5-.5 1-1 1-1 .5-2 .5-2 .5-1.5.5-1.5-1-1.5-1-1.5-1-1-1-1h-1.5-1.5l-.5-.5-.5-.5-.5-1-.5-1-1-.5-1-.5h-1-1v9.5 9.5" style="fill:#d8a48b;stroke:#d8a48b"/><path d="m350 17l3 1-1-1-1-1-.5-.5-.5-.5-1-.5-1-.5-.5-.5-.5-.5h-1-1l-.5-.5-.5-.5.5-1 .5-1-.5-.5-.5-.5-.5-1-.5-1-1-.5-1-.5-1-1-1-1-1.5-1-1.5-1h-1-1-1.5-1.5l-1.5-1-1.5-1h-.5-.5l11.5 8.5 11.5 8.5" style="fill:#ad6f61;stroke:#ad6f61"/><path d="m370 17h2l1-.5 1-.5h-2-2-2-2l-1.5-1-1.5-1 .5-.5.5-.5-1-.5-1-.5-1.5-1.5-1.5-1.5-1-1-1-1-2-.5-2-.5-1-1-1-1-.5-2-.5-2h-2-2-2-2v1.5 1.5h1 1l.5-.5.5-.5.5 1 .5 1 .5.5.5.5v1 1h1 1l.5.5.5.5 1.5 1 1.5 1 1 1 1 1 1 .5 1 .5.5.5.5.5.5.5.5.5h1 1l1 .5 1 .5h1 1l.5.5.5.5h2 2" style="fill:#d8a48b;stroke:#d8a48b"/><path d="m381 17l3 1h1.5 1.5v-.5-.5l-17.5-8.5-17.5-8.5h-1-1l.5 2 .5 2 1 1 1 1 2 .5 2 .5 1 1 1 1 1.5 1.5 1.5 1.5h1.5 1.5 2 2l2-.5 2-.5 1.5.5 1.5.5 1 1 1 1 1.5 1.5 1.5 1.5" style="fill:#f3c3ac;stroke:#f3c3ac"/><path d="m300 12l3 1 1.5-.5 1.5-.5 2-.5 2-.5 1-1 1-1 2-.5 2-.5 1-1 1-1 1-1.5 1-1.5v-1.5-1.5h-1-1l-.5 1.5-.5 1.5v1 1l-.5.5-.5.5h-1-1l-.5 1-.5 1h-1-1l-.5.5-.5.5h-1-1l-1 .5-1 .5h-1-1l-.5.5-.5.5-1.5-.5-1.5-.5-1-.5-1-.5-1-1-1-1-.5-1.5-.5-1.5-1-2-1-2h-1.5-1.5-2-2l1 .5 1 .5.5.5.5.5.5.5.5.5 1 .5 1 .5.5.5.5.5.5.5.5.5.5.5.5.5v1 1l1 .5 1 .5.5.5.5.5 1 .5 1 .5" style="fill:#ad6f61;stroke:#ad6f61"/><path d="m99 10l2-1-.5-1.5-.5-1.5-1-1.5-1-1.5-.5-1.5-.5-1.5h-2-2-1-1l1 1.5 1 1.5.5.5.5.5v1 1l.5.5.5.5 1 1 1 1 1 .5 1 .5" style="fill:#ffefd0;stroke:#ffefd0"/><path d="m300 10l3 1 .5-.5.5-.5h1 1l1-.5 1-.5h1 1l.5-.5.5-.5h1 1l.5-1 .5-1h1 1l.5-.5.5-.5v-1-1l.5-1.5.5-1.5h-1.5-1.5l-.5 1-.5 1-.5 1-.5 1-1.5 1-1.5 1-1.5.5-1.5.5-2-.5-2-.5-1-1-1-1-.5-.5-.5-.5-1-.5-1-.5-.5-1-.5-1h-2-2l1 2 1 2 .5 1.5.5 1.5 1 1 1 1 1 .5 1 .5" style="fill:#d8a48b;stroke:#d8a48b"/><path d="m349 10h4l-1.5-1-1.5-1-.5-.5-.5-.5h-1-1v-1-1l-.5-.5-.5-.5-.5-1-.5-1-.5.5-.5.5h-1-1v-1.5-1.5h-3-3-2-2-2-2l1.5 1 1.5 1h1.5 1.5 1 1l1.5 1 1.5 1 1 1 1 1 1 .5 1 .5 1.5-.5 1.5-.5v1 1l1.5 1 1.5 1" style="fill:#bc8d6d;stroke:#bc8d6d"/><path d="m303 6l4 1 1.5-.5 1.5-.5 1.5-1 1.5-1 .5-1 .5-1 .5-1 .5-1h-3-3-2.5-2.5-2-2-1.5-1.5l.5 1 .5 1 1 .5 1 .5.5.5.5.5 1 1 1 1" style="fill:#f3c3ac;stroke:#f3c3ac"/></g></svg>