<svg xmlns="http://www.w3.org/2000/svg" viewBox="0 0 720 952"><g style="fill:#0c0906"><path d="m0 0h720v952h-720z"/><path d="m0 951v1h23.5 23.5 24.5 24.5 24.5 24.5 24.5 24.5 24.5 24.5 24.5 24.5 24 24 24.5 24.5 24.5 24.5 24.5 24.5 24.5 24.5 24.5 24.5 24 24 24.5 24.5 19 19v-5.5-5.5-24.5-24.5-24.5-24.5-24.5-24.5-24-24-24.5-24.5-24.5-24.5-24.5-24.5-24.5-24.5-24.5-24.5-2-2h-1-1l-1 1.5-1 1.5v2 2l-1 1.5-1 1.5-1 1-1 1-1.5-.5-1.5-.5 5.5-11 5.5-11v-3-3-2.5-2.5l-8-12.5-8-12.5.5-5 .5-5-17.5-5-17.5-5-5.5 7-5.5 7-14.5-7-14.5-7-12 5-12 5-10-8.5-10-8.5-18.5-1-18.5-1-18-.5-18-.5-1 13.5-1 13.5-6.5 3-6.5 3-2 11-2 11-10.5-2-10.5-2-4.5 3-4.5 3-5.5 6-5.5 6-5.5 11-5.5 11-7.5 6-7.5 6-3.5 6-3.5 6 6 13 6 13 8 7.5 8 7.5 4.5 16 4.5 16 .5 7 .5 7 5.5 14 5.5 14 2 19.5 2 19.5 2 18 2 18 10 4.5 10 4.5 15.5-8 15.5-8 24.5-16 24.5-16v-.5-.5l13.5-10.5 13.5-10.5 15-5 15-5-8 14-8 14-1 .5-1 .5-1 1-1 1-1 1-1 1-2 .5-2 .5-1 1-1 1-1.5 1-1.5 1-1 1-1 1-1.5.5-1.5.5-1 1-1 1 8.5 13 8.5 13-4 17.5-4 17.5-13 11.5-13 11.5-13 11-13 11-13.5 11-13.5 11-17 13-17 13-11.5-26.5-11.5-26.5h-1.5-1.5-1-1l-1-.5-1-.5h-1-1-1-1l-.5.5-.5.5-.5.5-.5.5-1 .5-1 .5 11.5 10.5 11.5 10.5-4 22-4 22-4.5-13-4.5-13-7-9-7-9-1.5 1-1.5 1-1.5-.5-1.5-.5h-1-1l-2-.5-2-.5-9 12.5-9 12.5 1 .5 1 .5.5 1.5.5 1.5v2 2h2 2l1.5 1 1.5 1h2 2l1 1.5 1 1.5h2 2l.5 2 .5 2-1.5 1-1.5 1-1.5.5-1.5.5-1 1.5-1 1.5 1 1 1 1 2 .5 2 .5 1.5 1 1.5 1h11 11l-14 6.5-14 6.5-1-1.5-1-1.5-1.5.5-1.5.5-.5.5-.5.5h-1-1-1-1l-1.5-.5-1.5-.5-1.5-.5-1.5-.5-.5-.5-.5-.5-11.5-13.5-11.5-13.5 5.5-18 5.5-18v-.5-.5l10.5-14 10.5-14 9.5-14.5 9.5-14.5 2-20.5 2-20.5-1-21.5-1-21.5-3.5-19.5-3.5-19.5-8.5-14-8.5-14h-12.5-12.5l-15.5-6-15.5-6 4-14 4-14 .5-16 .5-16-9 9.5-9 9.5 2 12 2 12-14-3.5-14-3.5-13-8.5-13-8.5-16-2-16-2-5.5-4-5.5-4 8.5-5 8.5-5-13-11.5-13-11.5-14-8-14-8-12.5-11-12.5-11-12-11.5-12-11.5-12-11-12-11-31.5-10-31.5-10h-2-2l-1.5-.5-1.5-.5h-1-1l-1-.5-1-.5-1.5-.5-1.5-.5h-1-1l-1-.5-1-.5-1-1-1-1h-1-1l-.5-1-.5-1-1.5-1.5-1.5-1.5-3-19.5-3-19.5 4.5-19 4.5-19 2-19 2-19-1-9.5-1-9.5v-5.5-5.5l-11.5-6-11.5-6 16.5-3.5 16.5-3.5 6.5 12 6.5 12 7 14.5 7 14.5 11.5 12.5 11.5 12.5 6 10.5 6 10.5-13 2.5-13 2.5v11.5 11.5l-2.5 9.5-2.5 9.5 9.5 4 9.5 4 14-2.5 14-2.5 17-7 17-7-7.5-10-7.5-10 7-14.5 7-14.5 1-22.5 1-22.5 7-17 7-17 7.5-16 7.5-16 7-2.5 7-2.5 1 20 1 20 12 9.5 12 9.5 17.5 2 17.5 2 20 4.5 20 4.5 17 7 17 7 13.5-10 13.5-10 13-10.5 13-10.5 8-14 8-14-8.5-14-8.5-14-5.5-18-5.5-18 7.5-17 7.5-17 13.5-10.5 13.5-10.5 15.5-8 15.5-8 20-3.5 20-3.5 21 3 21 3 20 3.5 20 3.5 16.5 7 16.5 7 5 17.5 5 17.5-1 18-1 18-4.5 17-4.5 17-4.5 6-4.5 6 4-4 4-4-3 15.5-3 15.5-3 16.5-3 16.5 4.5 19 4.5 19 .5 19.5.5 19.5 9 14.5 9 14.5 10.5 13 10.5 13 23 19 23 19v-24-24-24.5-24.5-24-24-24.5-24.5-24.5-24.5-24.5-24.5-24.5-24.5-24.5-24.5-24-24-6-6h-18.5-18.5-24.5-24.5-24.5-24.5-24.5-24.5-24.5-24.5-24-24-24.5-24.5-24.5-24.5-24.5-24.5-24.5-24.5-24.5-24.5-24.5-24.5-24-24-24.5-24.5-24-24v.5.5 24.5 24.5 24.5 24.5 24.5 24.5 24 24 24.5 24.5 24.5 24.5 24.5 24.5 24.5 24.5 24.5 24.5 24.5 24.5 24 24 24.5 24.5 24.5 24.5 24.5 24.5 24.5 24.5 24.5 24.5 24 24 24.5 24.5 24.5 24.5 11 11" style="stroke:#0c0906;stroke-linejoin:round;stroke-width:.7"/></g><g style="stroke-linejoin:round;stroke-width:.7"><path d="m692 950l21-7-17 3.5-17 3.5h6.5 6.5" style="fill:#382927;stroke:#382927"/><path d="m432 887l28-13h-11-11l-.5 1-.5 1h-1-1l-1-.5-1-.5-1 1-1 1v1 1 1.5 1.5l-.5 1-.5 1 1 1.5 1 1.5" style="fill:#131424;stroke:#131424"/><path d="m419 885l3 1h1 1 1 1l.5-.5.5-.5 1.5-.5 1.5-.5.5-1 .5-1v-1.5-1.5-1-1l1-1 1-1 1 .5 1 .5h1 1l.5-1 .5-1-1.5-1-1.5-1-2-.5-2-.5-1-1-1-1 1-1.5 1-1.5 1.5-.5 1.5-.5-9 9.5-9 9.5 1.5.5 1.5.5" style="fill:#382927;stroke:#382927"/><path d="m415 883l1 1 9-9.5 9-9.5 1.5-1 1.5-1-.5-2-.5-2h-2-2l-1-1.5-1-1.5h-2-2l-1.5-1-1.5-1h-2-2v-2-2l-.5-1.5-.5-1.5-1-.5-1-.5h-1-1l-1-.5-1-.5 1-.5 1-.5-1-.5-1-.5-1 1-1 1-1-1.5-1-1.5-.5-1.5-.5-1.5h-.5-.5-1-1-1.5-1.5v2 2l-.5 1.5-.5 1.5.5 2 .5 2 .5 1.5.5 1.5 1 1.5 1 1.5.5 1.5.5 1.5-1.5 1-1.5 1-.5 1.5-.5 1.5h-1-1l7.5-24 7.5-24v-.5-.5l18.5-20 18.5-20v-.5-.5-.5-.5l-1 1-1 1v1 1l-.5.5-.5.5-.5.5-.5.5-.5 1-.5 1-1 1-1 1h-1-1l1-1.5 1-1.5.5-.5.5-.5.5-1 .5-1 1-1 1-1 .5-.5.5-.5.5-1 .5-1v-1.5-1.5l-.5 1-.5 1-1 1-1 1-1 1-1 1-1 1.5-1 1.5-1 1-1 1-1 1.5-1 1.5-1 1-1 1-1 1.5-1 1.5-1 1-1 1-1.5 1-1.5 1-1 .5-1 .5-1.5 1-1.5 1-1 1.5-1 1.5-1 .5-1 .5-1.5 1-1.5 1-.5 1.5-.5 1.5-1.5 1-1.5 1-.5 1.5-.5 1.5-1 1.5-1 1.5-.5 1.5-.5 1.5-1 1.5-1 1.5-1 1-1 1h-1.5-1.5l-5.5 18-5.5 18 11.5 13.5 11.5 13.5" style="fill:#32344d;stroke:#32344d"/><path d="m411 872l-1-19-1.5 7-1.5 7 2 2.5 2 2.5" style="fill:#382927;stroke:#382927"/><path d="m469 865l8-44-11.5-10.5-11.5-10.5-4 10.5-4 10.5 7 9 7 9 4.5 13 4.5 13" style="fill:#131424;stroke:#131424"/><path d="m399 864h2l.5-1.5.5-1.5 1.5-1 1.5-1-.5-1.5-.5-1.5-1-1.5-1-1.5-.5-1.5-.5-1.5-.5-2-.5-2 .5-1.5.5-1.5v-2-2h1.5 1.5 1 1v-.5-.5l16.5-15 16.5-15-12.5 4-12.5 4-7.5 24-7.5 24" style="fill:#fffdf3;stroke:#fffdf3"/><path d="m444 852h2l1.5-.5 1.5-.5 1-1.5 1-1.5.5-1.5.5-1.5-1-1.5-1-1.5-1-1-1-1-1-1.5-1-1.5-1 1-1 1-1 1-1 1v.5.5 2 2l-1 .5-1 .5v-1-1h-1-1l-.5-.5-.5-.5-.5-.5-.5-.5 1-.5 1-.5-.5-.5-.5-.5-.5-.5-.5-.5-1.5.5-1.5.5-1 1.5-1 1.5-1 1-1 1h1.5 1.5l1 1 1 1 1 1.5 1 1.5 1-1 1-1 1.5 1 1.5 1 1.5.5 1.5.5" style="fill:#382927;stroke:#382927"/><g style="fill:#131424;stroke:#131424"><path d="m492 851l34-26 13.5-11 13.5-11 13-11 13-11 13-11.5 13-11.5 4-17.5 4-17.5-8.5-13-8.5-13-20 15.5-20 15.5-.5 1-.5 1 4 7.5 4 7.5-.5 1-.5 1-1 .5-1 .5h-1-1l-.5.5-.5.5-.5-.5-.5-.5h-1.5-1.5l-1.5.5-1.5.5-19.5 7-19.5 7-1 .5-1 .5-17 16-17 16-2 .5-2 .5-1 .5-1 .5 11.5 26.5 11.5 26.5"/><path d="m440 847l2-1v-2-2l-1.5.5-1.5.5.5-1.5.5-1.5-1.5-1-1.5-1 1-1 1-1 .5-2 .5-2-1.5-.5-1.5-.5-1.5.5-1.5.5v1.5 1.5l-.5 1.5-.5 1.5v1.5 1.5l1.5-.5 1.5-.5.5.5.5.5.5.5.5.5-1 .5-1 .5.5.5.5.5.5.5.5.5h1 1v1 1"/></g><path d="m414 846h2l9-12.5 9-12.5-13.5 9-13.5 9 .5 1.5.5 1.5 1 1.5 1 1.5 1-1 1-1 1 .5 1 .5-1 .5-1 .5 1 .5 1 .5" style="fill:#382927;stroke:#382927"/><path d="m406 838v1h.5.5l13.5-9 13.5-9 2 .5 2 .5h1 1l1.5.5 1.5.5 1.5-1 1.5-1 4-10.5 4-10.5 1-.5 1-.5.5-.5.5-.5.5-.5.5-.5h1 1 1 1l1 .5 1 .5h1 1 1.5 1.5l1-.5 1-.5 2-.5 2-.5-.5-.5-.5-.5 1-.5 1-.5 1-1 1-1 1-1 1-1 1-1 1-1v-.5-.5l11.5-12 11.5-12 14.5-9.5 14.5-9.5 20-16.5 20-16.5-18.5 4.5-18.5 4.5-1 1-1 1-.5.5-.5.5-.5.5-.5.5-1 .5-1 .5-.5.5-.5.5-.5.5-.5.5-.5.5-.5.5-1 .5-1 .5-.5.5-.5.5-.5.5-.5.5h-1-1l-.5 1-.5 1-1.5.5-1.5.5 1 .5 1 .5 2-1 2-1 1.5-.5 1.5-.5 1-1 1-1 1.5-1 1.5-1 .5-1 .5-1v-.5-.5l16.5-6 16.5-6-13.5 10.5-13.5 10.5-13.5 10.5-13.5 10.5-27.5 19-27.5 19-2 .5-2 .5-1.5.5-1.5.5-1.5 1-1.5 1-1.5.5-1.5.5-2 .5-2 .5-1 .5-1 .5 1 1 1 1 1.5-.5 1.5-.5 2 .5 2 .5-.5 1.5-.5 1.5-1 1-1 1-2.5.5-2.5.5-16.5 15-16.5 15" style="fill:#4e74c3;stroke:#4e74c3"/><path d="m403 819v1h1.5 1.5l1-1 1-1 1-1.5 1-1.5.5-1.5.5-1.5 1-1.5 1-1.5.5-1.5.5-1.5 1.5-1 1.5-1 .5-1.5.5-1.5 1.5-1 1.5-1v-.5-.5l11.5-13.5 11.5-13.5 3-21.5 3-21.5-.5-24-.5-24-3.5-21-3.5-21-7-17.5-7-17.5-1.5-14-1.5-14 8 16 8 16 5 19.5 5 19.5 2.5 22 2.5 22 2.5 21 2.5 21 10.5 7.5 10.5 7.5 1.5-1 1.5-1 1.5-.5 1.5-.5 1.5-1 1.5-1 1.5-.5 1.5-.5 1.5-1 1.5-1 1.5-.5 1.5-.5 2-.5 2-.5 1.5-.5 1.5-.5 1.5-1 1.5-1 1.5-.5 1.5-.5 23.5-17 23.5-17 1-1 1-1 .5-.5.5-.5 1-.5 1-.5.5-.5.5-.5.5-.5.5-.5h1 1l1-.5 1-.5.5-.5.5-.5.5-.5.5-.5.5-.5.5-.5.5-.5.5-.5 1-1 1-1-24.5 16-24.5 16-15.5 8-15.5 8-10-4.5-10-4.5-2-18-2-18-2-19.5-2-19.5-5.5-14-5.5-14-.5-7-.5-7-4.5-16-4.5-16-8-7.5-8-7.5-6-13-6-13 3.5-6 3.5-6 7.5-6 7.5-6 5.5-11 5.5-11 5.5-6 5.5-6 4.5-3 4.5-3 10.5 2 10.5 2 2-11 2-11 6.5-3 6.5-3 1-13.5 1-13.5 18 .5 18 .5 18.5 1 18.5 1 10 8.5 10 8.5 12-5 12-5 14.5 7 14.5 7 5.5-7 5.5-7 17.5 5 17.5 5-.5 5-.5 5 8 12.5 8 12.5v-3-3-2.5-2.5-2-2-2-2-2.5-2.5-.5-.5l-23-19-23-19-10.5-13-10.5-13-9-14.5-9-14.5-.5-19.5-.5-19.5-4.5-19-4.5-19 3-16.5 3-16.5 3-15.5 3-15.5-4 4-4 4 4.5-6 4.5-6 4.5-17 4.5-17 1-18 1-18-5-17.5-5-17.5-16.5-7-16.5-7-20-3.5-20-3.5-21-3-21-3-20 3.5-20 3.5-15.5 8-15.5 8-13.5 10.5-13.5 10.5-7.5 17-7.5 17 5.5 18 5.5 18 8.5 14 8.5 14-8 14-8 14-13 10.5-13 10.5-13.5 10-13.5 10-17-7-17-7-20-4.5-20-4.5-17.5-2-17.5-2-12-9.5-12-9.5-1-20-1-20-7 2.5-7 2.5-7.5 16-7.5 16-7 17-7 17-1 22.5-1 22.5-7 14.5-7 14.5 7.5 10 7.5 10-17 7-17 7-14 2.5-14 2.5-9.5-4-9.5-4 2.5-9.5 2.5-9.5v-11.5-11.5l13-2.5 13-2.5-6-10.5-6-10.5-11.5-12.5-11.5-12.5-7-14.5-7-14.5-6.5-12-6.5-12-16.5 3.5-16.5 3.5 11.5 6 11.5 6v5.5 5.5l1 9.5 1 9.5-2 19-2 19-4.5 19-4.5 19 3 19.5 3 19.5-1-20-1-20 10-12.5 10-12.5 4 4.5 4 4.5-11.5 13-11.5 13 9 12.5 9 12.5 23-.5 23-.5 19-5.5 19-5.5 16.5-7.5 16.5-7.5-5-11.5-5-11.5 2-19.5 2-19.5 3-20.5 3-20.5 12.5-1 12.5-1 4 13.5 4 13.5-12.5 6.5-12.5 6.5 3 17.5 3 17.5v9.5 9.5l4.5 13 4.5 13-18.5 18.5-18.5 18.5-19-5.5-19-5.5-30 1-30 1 31.5 10 31.5 10 12 11 12 11 12 11.5 12 11.5 12.5 11 12.5 11 14 8 14 8 13 11.5 13 11.5-8.5 5-8.5 5 5.5 4 5.5 4 16 2 16 2 13 8.5 13 8.5 14 3.5 14 3.5-2-12-2-12 9-9.5 9-9.5-.5 16-.5 16-4 14-4 14 15.5 6 15.5 6h12.5 12.5l8.5 14 8.5 14 3.5 19.5 3.5 19.5 1 21.5 1 21.5-2 20.5-2 20.5-9.5 14.5-9.5 14.5-10.5 14-10.5 14" style="fill:#131424;stroke:#131424"/><path d="m414 815v1l12.5-4 12.5-4 2.5-.5 2.5-.5 1-1 1-1 .5-1.5.5-1.5-2-.5-2-.5-1.5.5-1.5.5-1-1-1-1-1 .5-1 .5-1 .5-1 .5-2 .5-2 .5-1 1-1 1-1.5-.5-1.5-.5 13-12 13-12 15-7.5 15-7.5 14.5-10 14.5-10 12.5-5.5 12.5-5.5-13.5 11-13.5 11-25.5 18.5-25.5 18.5 27.5-19 27.5-19 13.5-10.5 13.5-10.5 13.5-10.5 13.5-10.5-16.5 6.5-16.5 6.5-.5 1-.5 1-1.5 1-1.5 1-1 1-1 1-1.5.5-1.5.5-2 1-2 1-1 .5-1 .5-1.5 1-1.5 1-1 1-1 1-1.5.5-1.5.5-.5 1-.5 1h-1-1l-1.5 1-1.5 1-26.5 15-26.5 15-18.5 20-18.5 20" style="fill:#97c5f2;stroke:#97c5f2"/><path d="m425 804l3 1 1-1 1-1 2-.5 2-.5 1-.5 1-.5 1-.5 1-.5 1-.5 1-.5 2-.5 2-.5 1.5-.5 1.5-.5 1.5-1 1.5-1 1.5-.5 1.5-.5 2-.5 2-.5 25.5-18.5 25.5-18.5 13.5-11 13.5-11-12.5 5.5-12.5 5.5-14.5 10-14.5 10-15 7.5-15 7.5-13 12-13 12" style="fill:#fffdf3;stroke:#fffdf3"/><g style="fill:#192547;stroke:#192547"><path d="m421 798v1l1-.5 1-.5 1-1.5 1-1.5 1.5-1 1.5-1v-.5-.5l10-14.5 10-14.5 2-21.5 2-21.5 2 4.5 2 4.5 9 8.5 9 8.5 1 .5 1 .5 1 .5 1 .5 2-.5 2-.5-10.5-7.5-10.5-7.5-2.5-21-2.5-21-2.5-22-2.5-22-5-19.5-5-19.5-8-16-8-16 1.5 14 1.5 14 7 17.5 7 17.5 3.5 21 3.5 21 .5 24 .5 24-3 21.5-3 21.5-11.5 13.5-11.5 13.5"/><path d="m474 795l1 1 17-16 17-16-13.5 12-13.5 12-1 1-1 1-1 1-1 1-1 1-1 1-1 .5-1 .5"/></g><path d="m428 792v1l1-.5 1-.5 1.5-1 1.5-1 1-1 1-1 1-1.5 1-1.5 1-1 1-1 1-1.5 1-1.5 1-1 1-1 1-1.5 1-1.5 1-1 1-1v-.5-.5l13.5-13 13.5-13-9-8.5-9-8.5-2-4.5-2-4.5-2 21.5-2 21.5-10 14.5-10 14.5" style="fill:#243667;stroke:#243667"/><path d="m482 787v1l13.5-12 13.5-12 1-.5 1-.5v-.5-.5l19.5-6.5 19.5-6.5 1.5-.5 1.5-.5h1.5 1.5l.5.5.5.5.5-.5.5-.5h1 1l1-.5 1-.5.5-1 .5-1-1-.5-1-.5-.5-.5-.5-.5.5-.5.5-.5-.5-1-.5-1-1.5-.5-1.5-.5-1.5-1-1.5-1h-2-2l-.5-1-.5-1 .5-1.5.5-1.5 1 .5 1 .5 1-1 1-1 .5-.5.5-.5.5-1 .5-1v-.5-.5l14-11 14-11-12-3-12-3-23.5 17-23.5 17h1 1l1.5-1 1.5-1 1.5-.5 1.5-.5 1.5-1 1.5-1 1-1 1-1 1-1 1-1 1.5-1 1.5-1 1.5-.5 1.5-.5 2-1.5 2-1.5 18-3.5 18-3.5-20 16.5-20 16.5-14.5 9.5-14.5 9.5-11.5 12-11.5 12" style="fill:#32344d;stroke:#32344d"/><path d="m442 783h2l1-1 1-1 .5-1 .5-1 .5-.5.5-.5.5-.5.5-.5v-1-1l1-1 1-1 26.5-14 26.5-14 1.5-1 1.5-1h1 1l.5-1 .5-1h-1.5-1.5l-1.5.5-1.5.5-26.5 12-26.5 12-.5 1.5-.5 1.5v1.5 1.5l-.5 1-.5 1-.5.5-.5.5-1 1-1 1-.5 1-.5 1-.5.5-.5.5-1 1.5-1 1.5" style="fill:#4e74c3;stroke:#4e74c3"/><path d="m451 774v1l26.5-15 26.5-15-26.5 14-26.5 14v.5.5" style="fill:#79a8ed;stroke:#79a8ed"/><path d="m447 772v1l1-1 1-1 .5-1 .5-1 .5-1.5.5-1.5v-.5-.5l9.5-7 9.5-7 17-4.5 17-4.5 1.5-.5 1.5-.5h1.5 1.5l1.5-.5 1.5-.5 1-1 1-1 1.5-1 1.5-1 1-.5 1-.5-1-.5-1-.5 1.5-.5 1.5-.5.5-1 .5-1h1 1l.5-.5.5-.5.5-.5.5-.5 1-.5 1-.5.5-.5.5-.5.5-.5.5-.5.5-.5.5-.5 1-.5 1-.5.5-.5.5-.5.5-.5.5-.5 1-1 1-1v-.5-.5l.5-.5.5-.5-2 1.5-2 1.5-1.5.5-1.5.5-1.5 1-1.5 1-1 1-1 1-1 1-1 1-1.5 1-1.5 1-1.5.5-1.5.5-1.5 1-1.5 1h-1-1l-1.5.5-1.5.5-1.5 1-1.5 1-1.5.5-1.5.5-2 .5-2 .5-1.5.5-1.5.5-1.5 1-1.5 1-1.5.5-1.5.5-1.5 1-1.5 1-1.5.5-1.5.5-1.5 1-1.5 1-2 .5-2 .5-1-.5-1-.5-1-.5-1-.5-13.5 13-13.5 13" style="fill:#2f4686;stroke:#2f4686"/><path d="m451 765v1l26.5-12 26.5-12-17 4.5-17 4.5-9.5 7-9.5 7" style="fill:#3b5aa7;stroke:#3b5aa7"/><g style="fill:#192547;stroke:#192547"><path d="m511 762v1l19.5-7 19.5-7-19.5 6.5-19.5 6.5"/><path d="m561 744l2 1-4-7.5-4-7.5-.5.5-.5.5-1 1-1 1-1-.5-1-.5-.5 1.5-.5 1.5.5 1 .5 1h2 2l1.5 1 1.5 1 1.5.5 1.5.5.5 1 .5 1-.5.5-.5.5.5.5.5.5"/></g><path d="m556 727v1l20-15.5 20-15.5 1-1 1-1 1.5-.5 1.5-.5 1-1 1-1 1.5-1 1.5-1 1-1 1-1 2-.5 2-.5 1-1 1-1 1-1 1-1 1-.5 1-.5-2-10-2-10-18.5 12-18.5 12-1 1-1 1-.5.5-.5.5-.5.5-.5.5-.5.5-.5.5-.5.5-.5.5-1 .5-1 .5h-1-1l-.5.5-.5.5-.5.5-.5.5-1 .5-1 .5-.5.5-.5.5-1 1-1 1 12 3 12 3-14 11-14 11" style="fill:#382927;stroke:#382927"/><path d="m533 725v1l16.5-6.5 16.5-6.5-16.5 6-16.5 6" style="fill:#79a8ed;stroke:#79a8ed"/><path d="m537 719v1l18.5-4.5 18.5-4.5-18 3.5-18 3.5-.5.5-.5.5" style="fill:#3b5aa7;stroke:#3b5aa7"/><g style="fill:#131424;stroke:#131424"><path d="m577 685v1l18.5-12 18.5-12 2 10 2 10 8-14 8-14-15 5-15 5-13.5 10.5-13.5 10.5"/><path d="m255 650l34-12 16.5-4 16.5-4-.5-13-.5-13-7-5.5-7-5.5-12.5 8-12.5 8-8.5-10-8.5-10-7 3-7 3-.5 15-.5 15 .5 11 .5 11 2 1.5 2 1.5"/><path d="m627 636l-2-16 .5 7 .5 7 .5 1 .5 1"/><path d="m688 617l-8-22-11-11.5-11-11.5-14-6.5-14-6.5-13-9.5-13-9.5-12-1.5-12-1.5 12 10.5 12 10.5 12.5 6.5 12.5 6.5 10.5 5 10.5 5 11 10.5 11 10.5 8 7.5 8 7.5"/><path d="m620 613l27-3-9-12.5-9-12.5-1.5 8-1.5 8-3 6-3 6"/></g><path d="m308 526l30-2 2-6.5 2-6.5 10.5-12 10.5-12 4.5-15 4.5-15-2.5-14-2.5-14-9.5-11-9.5-11-6-5-6-5-8.5-4-8.5-4h-10.5-10.5l5.5 14 5.5 14 10 12.5 10 12.5 1 4.5 1 4.5-14.5-9.5-14.5-9.5-14.5-10-14.5-10 9.5 13 9.5 13-12.5-9-12.5-9-13-10.5-13-10.5-7.5 2-7.5 2-6.5 8.5-6.5 8.5 5.5 19 5.5 19 11.5 13 11.5 13 14.5 10 14.5 10 14.5 10 14.5 10 1.5 1 1.5 1" style="fill:#0c0906;stroke:#0c0906"/><path d="m593 526l-1-9-7-5.5-7-5.5 7.5 10 7.5 10" style="fill:#131424;stroke:#131424"/><path d="m379 524l23-7 12.5-12 12.5-12v-17.5-17.5l3-21.5 3-21.5 6.5-18 6.5-18 11.5-13 11.5-13 10 11 10 11 2.5 4 2.5 4 13.5 10 13.5 10-8-11.5-8-11.5 4-9.5 4-9.5 9 5.5 9 5.5h7 7l6.5-17 6.5-17 8.5-16 8.5-16 10-14.5 10-14.5 9-15.5 9-15.5 6-14.5 6-14.5 5.5-17.5 5.5-17.5 4.5-20 4.5-20-6-18.5-6-18.5-18.5-6-18.5-6-21-3.5-21-3.5-22-1.5-22-1.5-18 6-18 6-15 9.5-15 9.5-12 12.5-12 12.5-1.5 20-1.5 20h.5.5l6-24.5 6-24.5 1-1 1-1 1.5-1.5 1.5-1.5 13.5-10.5 13.5-10.5 15.5-8 15.5-8 21.5-2 21.5-2 21 3.5 21 3.5 23 5.5 23 5.5 1.5 1 1.5 1 .5.5.5.5 1.5.5 1.5.5 4 18.5 4 18.5-4 19.5-4 19.5-3 3.5-3 3.5 2.5-23 2.5-23-1.5-.5-1.5-.5-9.5-9-9.5-9 3 12 3 12 .5 14.5.5 14.5-8-6.5-8-6.5-14 3.5-14 3.5-2.5 12-2.5 12-14 25-14 25-.5 1-.5 1-.5 1.5-.5 1.5-1.5 1.5-1.5 1.5-6.5 14.5-6.5 14.5-8.5 16-8.5 16 8 11.5 8 11.5 8-16.5 8-16.5v12 12l-6 9.5-6 9.5-15 2.5-15 2.5-19.5 5-19.5 5-8 16.5-8 16.5-5 18.5-5 18.5-3.5 21-3.5 21-12.5 15-12.5 15-.5-18-.5-18-2.5-20-2.5-20 4-18.5 4-18.5-9-14-9-14 19.5-14 19.5-14 .5-.5.5-.5 1-1 1-1 .5-1 .5-1 .5-.5.5-.5.5-.5.5-.5.5-.5.5-.5.5-1 .5-1 .5-.5.5-.5 1-1 1-1v-.5-.5l.5-1 .5-1 .5-1.5.5-1.5v-2-2l1-1.5 1-1.5 1-1 1-1 1-1.5 1-1.5.5-1.5.5-1.5.5-2 .5-2 .5-1.5.5-1.5-.5-2-.5-2v-.5-.5l-2.5.5-2.5.5-1.5 1-1.5 1-.5 1.5-.5 1.5-1.5 11-1.5 11-16 11.5-16 11.5 9-17.5 9-17.5-1.5.5-1.5.5-1.5 1-1.5 1-1 1-1 1-1.5 1-1.5 1-1.5.5-1.5.5-1.5 1-1.5 1-1 1-1 1-1 .5-1 .5-1 1-1 1-.5.5-.5.5-.5.5-.5.5-.5 1-.5 1-.5.5-.5.5-.5.5-.5.5-.5.5-.5.5-.5 1-.5 1-.5.5-.5.5-.5.5-.5.5-.5.5-.5.5-1 .5-1 .5v1 1l1.5-.5 1.5-.5v1 1l1 .5 1 .5v1 1l.5.5.5.5v1 1l.5 1 .5 1-.5.5-.5.5-.5.5-.5.5-.5.5-.5.5h-1.5-1.5-1-1-1-1l-1.5-.5-1.5-.5.5-1.5.5-1.5.5-2 .5-2-1 .5-1 .5-.5 1.5-.5 1.5-1 1-1 1-1 1.5-1 1.5-1 1-1 1-1 1-1 1-1.5 1-1.5 1-1 1-1 1-1 .5-1 .5 5.5-14 5.5-14-3-4-3-4-14.5 4.5-14.5 4.5v19 19l4.5-10 4.5-10 9.5-2 9.5-2-10.5 14-10.5 14 13-8 13-8 10 14.5 10 14.5v19.5 19.5l-.5 22-.5 22-1 19.5-1 19.5-2 8.5-2 8.5" style="fill:#192547;stroke:#192547"/><path d="m709 508l3 1 1-1 1-1 1-1.5 1-1.5v-2-2l1-1.5 1-1.5h1 1v-2.5-2.5-2-2-1-1l-5.5 11-5.5 11" style="fill:#131424;stroke:#131424"/><path d="m396 504l25-30 3.5-21 3.5-21 5-18.5 5-18.5 8-16.5 8-16.5-8.5 15.5-8.5 15.5h-3.5-3.5l-10.5 18-10.5 18 1.5-17.5 1.5-17.5 5-17.5 5-17.5-9.5-1.5-9.5-1.5-7.5-2-7.5-2 15.5-8.5 15.5-8.5-19.5 14-19.5 14 9 14 9 14-4 18.5-4 18.5 2.5 20 2.5 20 .5 18 .5 18" style="fill:#243667;stroke:#243667"/><path d="m407 490l-3-23-1.5-19-1.5-19-.5 19-.5 19 3.5 11.5 3.5 11.5" style="fill:#2f4686;stroke:#2f4686"/><path d="m607 490l-8-16-10.5-2-10.5-2-16-4.5-16-4.5-13.5-2-13.5-2 2 4.5 2 4.5 12 2.5 12 2.5 13.5-.5 13.5-.5 10 6.5 10 6.5 6.5 3.5 6.5 3.5" style="fill:#131424;stroke:#131424"/><path d="m395 438l1-1 .5-1.5.5-1.5v-2.5-2.5-2-2-2.5-2.5l-1.5.5-1.5.5-.5 2-.5 2 .5 1.5.5 1.5-.5 1.5-.5 1.5 1 1.5 1 1.5v2 2" style="fill:#192547;stroke:#192547"/><path d="m435 430l15-23 2-9.5 2-9.5 7-1.5 7-1.5-12.5 3-12.5 3-3.5 11-3.5 11-.5 8.5-.5 8.5" style="fill:#0c0906;stroke:#0c0906"/><path d="m409 429l21-36h3.5 3.5l8.5-15.5 8.5-15.5v-.5-.5l13.5-8 13.5-8 10.5-21.5 10.5-21.5-1 .5-1 .5-.5 1.5-.5 1.5-.5.5-.5.5-.5 1-.5 1-.5 1.5-.5 1.5-1 .5-1 .5-7.5 15-7.5 15-1.5-.5-1.5-.5-2-.5-2-.5-6-2.5-6-2.5-8.5 9-8.5 9-5.5 9-5.5 9 8-16.5 8-16.5-7.5 11.5-7.5 11.5-10 24.5-10 24.5 4.5-20 4.5-20 9.5-15 9.5-15-1.5-5-1.5-5-6.5 12-6.5 12-2-9.5-2-9.5-.5-1-.5-1-.5.5-.5.5-15.5 8.5-15.5 8.5 7.5 2 7.5 2 9.5 1.5 9.5 1.5-5 17.5-5 17.5-1.5 17.5-1.5 17.5" style="fill:#2f4686;stroke:#2f4686"/><path d="m664 424l-3-19-9.5-14-9.5-14-10.5-10-10.5-10-7-9.5-7-9.5-2 15.5-2 15.5 7.5 12 7.5 12 10 10 10 10 13 5.5 13 5.5" style="fill:#0c0906;stroke:#0c0906"/><g style="fill:#192547;stroke:#192547"><path d="m629 422l-19-25-10.5-14-10.5-14-4-1.5-4-1.5 10.5 14 10.5 14 11.5 13 11.5 13 2 1 2 1"/><path d="m188 419l37-37-4.5-13-4.5-13v-9.5-9.5l-3-17.5-3-17.5 12.5-6.5 12.5-6.5-4-13.5-4-13.5-12.5 1-12.5 1-3 20.5-3 20.5-2 19.5-2 19.5 5 11.5 5 11.5-16.5 7.5-16.5 7.5-19 5.5-19 5.5-23 .5-23 .5-9-12.5-9-12.5 11.5-13 11.5-13-4-4.5-4-4.5-10 12.5-10 12.5 1 20 1 20 1.5 1.5 1.5 1.5.5 1 .5 1h1 1l1 1 1 1 1 .5 1 .5h1 1l1.5.5 1.5.5 1 .5 1 .5h1 1l1.5.5 1.5.5h2 2l30-1 30-1 19 5.5 19 5.5"/></g><path d="m413 411l20-49 7.5-11.5 7.5-11.5-8 16.5-8 16.5 5.5-9 5.5-9 8.5-9 8.5-9 6 2.5 6 2.5-9.5-15-9.5-15-18 15-18 15 1-.5 1-.5.5-.5.5-.5.5-1.5.5-1.5 2 9.5 2 9.5 6.5-12 6.5-12 1.5 5 1.5 5-9.5 15-9.5 15-4.5 20-4.5 20" style="fill:#3b5aa7;stroke:#3b5aa7"/><path d="m89 408l44-2 19.5-1 19.5-1 11-6.5 11-6.5 7-5.5 7-5.5 4.5-10 4.5-10-6.5-10-6.5-10 .5-21.5.5-21.5-2.5-2-2.5-2v22.5 22.5l-3 3.5-3 3.5 1.5 1 1.5 1 .5 1.5.5 1.5 1 1.5 1 1.5-.5 1-.5 1-4 10-4 10-14 6-14 6-6.5 5-6.5 5 16 1.5 16 1.5-19 1.5-19 1.5-23 1.5-23 1.5 7-4.5 7-4.5-12.5 3-12.5 3 1 2.5 1 2.5" style="fill:#243667;stroke:#243667"/><path d="m98 406l46-3 19-1.5 19-1.5-16-1.5-16-1.5 6.5-5 6.5-5-1 1-1 1h-1-1l-1 .5-1 .5-1.5.5-1.5.5-.5.5-.5.5-.5.5-.5.5h-1-1l-1 .5-1 .5h-1-1l-.5.5-.5.5h-1-1-1.5-1.5l-1.5.5-1.5.5h-1-1-1.5-1.5-2-2-1.5-1.5l-1 .5-1 .5h-2.5-2.5-2-2-1-1l-7 4.5-7 4.5" style="fill:#2f4686;stroke:#2f4686"/><g style="fill:#0c0906;stroke:#0c0906"><path d="m282 404l12-30-3.5-14-3.5-14-12-11.5-12-11.5-13-10.5-13-10.5 2 20.5 2 20.5 9 15.5 9 15.5 10.5 13.5 10.5 13.5 1 1.5 1 1.5"/><path d="m267 397l-16-26-8.5-16-8.5-16-5-4.5-5-4.5 6 14.5 6 14.5 8 12.5 8 12.5 7.5 6.5 7.5 6.5"/><path d="m363 397l-18-20 8.5 10 8.5 10h.5.5"/></g><path d="m125 395v1h1.5 1.5 2 2 1.5 1.5 1 1l1.5-.5 1.5-.5h1.5 1.5 1 1l.5-.5.5-.5h1 1l1-.5 1-.5h1 1l.5-.5.5-.5.5-.5.5-.5 1.5-.5 1.5-.5 1-.5 1-.5h1 1l1-1 1-1-2 .5-2 .5-1.5.5-1.5.5-2 .5-2 .5-1.5.5-1.5.5-1.5 1-1.5 1h-2-2l-1.5.5-1.5.5-2 .5-2 .5h-2-2-2.5-2.5-.5-.5" style="fill:#243667;stroke:#243667"/><g style="fill:#0c0906;stroke:#0c0906"><path d="m81 391l4-22-3 10.5-3 10.5 1 .5 1 .5"/><path d="m570 382l-6-24v9.5 9.5l3 2.5 3 2.5"/></g><path d="m454 361v1l19.5-5 19.5-5 15-2.5 15-2.5 6-9.5 6-9.5v-12-12l-8 16.5-8 16.5-8-11.5-8-11.5 8.5-16 8.5-16 6.5-14.5 6.5-14.5-15.5 24.5-15.5 24.5-10.5 21.5-10.5 21.5-13.5 8-13.5 8" style="fill:#243667;stroke:#243667"/><path d="m315 357l16-28-7.5-11-7.5-11-20.5-3-20.5-3-8 6.5-8 6.5 12.5 12 12.5 12 15 9.5 15 9.5h.5.5" style="fill:#0c0906;stroke:#0c0906"/><path d="m357 357l2-1 1-1 1-1 1.5-1 1.5-1 1-1 1-1 1-1 1-1 1-1.5 1-1.5 1-1 1-1 .5-1.5.5-1.5 1-.5 1-.5 1-1 1-1 1-1 1-1v-1-1-.5-.5l.5-.5.5-.5-1-.5-1-.5-.5-1-.5-1-1-1-1-1-1-1.5-1-1.5-1-1-1-1 2-.5 2-.5 1.5-.5 1.5-.5 2-.5 2-.5 1-1 1-1 2.5-1 2.5-1 1-1 1-1 1.5-1 1.5-1 1-2 1-2 1.5-1 1.5-1 1-1 1-1 1-1.5 1-1.5 1-1 1-1 1-1 1-1 1-1.5 1-1.5.5-1 .5-1-20 12.5-20 12.5-5-7-5-7-13 13-13 13-.5 1.5-.5 1.5 14.5-4.5 14.5-4.5 3 4 3 4-5.5 14-5.5 14" style="fill:#243667;stroke:#243667"/><path d="m197 354l2 1 .5-1 .5-1-1-1.5-1-1.5-.5-1.5-.5-1.5-1.5-1-1.5-1-1.5.5-1.5.5-1 1.5-1 1.5 1 1 1 1 1.5.5 1.5.5 1.5 1 1.5 1" style="fill:#2f4686;stroke:#2f4686"/><path d="m373 346l3 1h1 1 1 1 1.5 1.5l.5-.5.5-.5.5-.5.5-.5.5-.5.5-.5-.5-1-.5-1v-1-1l-.5-.5-.5-.5v-1-1l-1-.5-1-.5v-1-1l-1.5.5-1.5.5-1 1-1 1-1 1-1 1-.5 2-.5 2-.5 1.5-.5 1.5" style="fill:#131424;stroke:#131424"/><path d="m479 343l15-30-9 14.5-9 14.5 1.5.5 1.5.5" style="fill:#3b5aa7;stroke:#3b5aa7"/><path d="m543 342l19-25 1.5-9 1.5-9-10.5 13-10.5 13-.5 8.5-.5 8.5" style="fill:#131424;stroke:#131424"/><path d="m417 341l36-30 9.5 15 9.5 15 2 .5 2 .5 9-14.5 9-14.5v-.5-.5h-1-1l-.5 1-.5 1-1.5 1-1.5 1-1 1-1 1-1 .5-1 .5 6.5-16.5 6.5-16.5-3.5-7.5-3.5-7.5-2 1-2 1-1 1-1 1-1 1-1 1-1.5 1-1.5 1-1.5.5-1.5.5-1.5 1-1.5 1-1.5.5-1.5.5-1.5 1-1.5 1-1 1-1 1-1.5-.5-1.5-.5v-1.5-1.5l.5-.5.5-.5.5-1 .5-1 1-1 1-1v-1-1l.5-1 .5-1 1-1 1-1v-1-1l1-.5 1-.5 1-1.5 1-1.5.5-2 .5-2 1.5-1.5 1.5-1.5.5-2 .5-2-1 1.5-1 1.5h-1-1l.5-1.5.5-1.5.5-1 .5-1 .5-1.5.5-1.5.5-.5.5-.5.5-1 .5-1 .5-1.5.5-1.5v-1-1-1.5-1.5l-1.5-.5-1.5-.5h-1-1l-.5-.5-.5-.5-.5-.5-.5-.5h-2-2l-1 .5-1 .5-.5 1-.5 1-.5.5-.5.5v1 1l-.5 1-.5 1-.5 1.5-.5 1.5-.5 1-.5 1-1 1-1 1h-1-1l-.5-2.5-.5-2.5v-1.5-1.5l-.5 1.5-.5 1.5-.5 1-.5 1-.5.5-.5.5-.5.5-.5.5-1 .5-1 .5-.5 1.5-.5 1.5-1 1-1 1-1 1-1 1v1.5 1.5l1-.5 1-.5 1-1.5 1-1.5 6 3 6 3 7.5-8 7.5-8-12 20.5-12 20.5-10 15.5-10 15.5-1 .5-1 .5-.5 1-.5 1-1 1-1 1-.5.5-.5.5-.5 1-.5 1-.5.5-.5.5-.5.5-.5.5-.5.5-.5.5-.5 1-.5 1-1 1-1 1 .5 1 .5 1-.5 1.5-.5 1.5-.5.5-.5.5-1 .5-1 .5" style="fill:#4e74c3;stroke:#4e74c3"/><path d="m396 340l32-23 1.5-11 1.5-11-2 .5-2 .5-1 1-1 1-1.5.5-1.5.5-1.5 1-1.5 1-1 1-1 1-1.5 1-1.5 1-9 17.5-9 17.5" style="fill:#131424;stroke:#131424"/><path d="m235 335l-3-35-1 8.5-1 8.5 2.5 9 2.5 9" style="fill:#192547;stroke:#192547"/><path d="m426 333l20-26 9-15.5 9-15.5-6.5 10-6.5 10-9.5 15-9.5 15-3 3.5-3 3.5" style="fill:#5f90e5;stroke:#5f90e5"/><path d="m379 332v1l1-.5 1-.5.5-.5.5-.5.5-.5.5-.5.5-.5.5-.5.5-1 .5-1 .5-.5.5-.5.5-.5.5-.5.5-.5.5-.5.5-1 .5-1 .5-.5.5-.5.5-.5.5-.5 1-1 1-1v-.5-.5l1-.5 1-.5 1.5-1.5 1.5-1.5-.5-.5-.5-.5.5-1 .5-1 1-.5 1-.5-.5-1-.5-1-1 1-1 1-1.5.5-1.5.5-1.5 1-1.5 1-1 1-1 1-1 1.5-1 1.5-1.5.5-1.5.5v1 1l-1 .5-1 .5-1 1-1 1-.5.5-.5.5v1.5 1.5l1 1 1 1 .5-.5.5-.5-1 1.5-1 1.5-.5.5-.5.5" style="fill:#3b5aa7;stroke:#3b5aa7"/><path d="m118 330l12-12-13.5 1-13.5 1 7.5 5 7.5 5" style="fill:#192547;stroke:#192547"/><path d="m378 330l2 1 1-1.5 1-1.5-.5.5-.5.5-1-1-1-1v-1.5-1.5l.5-.5.5-.5 1-1 1-1 1-.5 1-.5v-1-1l1.5-.5 1.5-.5 1-1.5 1-1.5-2.5 1-2.5 1-1 1-1 1-2 .5-2 .5-1.5.5-1.5.5-2 .5-2 .5 1 1 1 1 1 1.5 1 1.5 1 1 1 1 .5 1 .5 1" style="fill:#2f4686;stroke:#2f4686"/><path d="m540 323l15-25-3-6.5-3-6.5-4.5 8-4.5 8v11 11" style="fill:#131424;stroke:#131424"/><path d="m465 322l23-23-5-1.5-5-1.5-6.5 13-6.5 13" style="fill:#3b5aa7;stroke:#3b5aa7"/><path d="m430 321v1l.5-1 .5-1 1-.5 1-.5v-.5-.5l9-15 9-15-5.5-10.5-5.5-10.5-1.5.5-1.5.5-1 1-1 1-1 1.5-1 1.5-1 1-1 1-1 1-1 1-14.5 17-14.5 17 1-.5 1-.5 1.5-1 1.5-1 1-1 1-1 1.5-1 1.5-1 1.5-1 1.5-1-2-.5-2-.5 13.5-12.5 13.5-12.5 1 .5 1 .5v1.5 1.5l-.5 1.5-.5 1.5-1 1.5-1 1.5-1 1-1 1-1.5.5-1.5.5-1.5 1.5-1.5 1.5 1 .5 1 .5.5-1 .5-1h1 1l.5-1 .5-1 1.5-.5 1.5-.5.5-.5.5-.5 1.5 1 1.5 1v.5.5l.5 2 .5 2-.5 1.5-.5 1.5-.5 2-.5 2-.5 1.5-.5 1.5-1 1.5-1 1.5-1 1-1 1-1 1.5-1 1.5v2 2l-.5 1.5-.5 1.5-.5 1-.5 1" style="fill:#243667;stroke:#243667"/><path d="m484 319l2-1 1-1 1-1-.5-.5-.5-.5 7.5-17.5 7.5-17.5 8-24 8-24-.5 1.5-.5 1.5-.5 1-.5 1-.5.5-.5.5v1 1l-.5.5-.5.5-.5 1-.5 1-.5.5-.5.5-.5.5-.5.5v1 1l-.5.5-.5.5-.5 1-.5 1-.5.5-.5.5-.5.5-.5.5-.5.5-.5.5-.5.5-.5.5-1 1.5-1 1.5 2.5-.5 2.5-.5-.5 1.5-.5 1.5-1 1.5-1 1.5-1 1-1 1-1 1.5-1 1.5-1 1-1 1-1.5 1-1.5 1-1.5.5-1.5.5h-1-1l.5-1 .5-1h-.5-.5l-.5.5-.5.5 3.5 7.5 3.5 7.5-6.5 16.5-6.5 16.5" style="fill:#5f90e5;stroke:#5f90e5"/><path d="m433 318v1l10-15.5 10-15.5v-.5-.5l-1.5-15-1.5-15-1 1.5-1 1.5-1 .5-1 .5-.5 1-.5 1-.5.5-.5.5-1 .5-1 .5-1 1-1 1 5.5 10.5 5.5 10.5-9 15-9 15" style="fill:#2f4686;stroke:#2f4686"/><path d="m393 317v1l1-.5 1-.5 1-1 1-1 1.5-1 1.5-1 1.5-.5 1.5-.5 1.5-1 1.5-1 1-1 1-1 1.5-1 1.5-1 1.5-.5 1.5-.5 1.5-1 1.5-1 1-1 1-1 1.5-1 1.5-1 1.5-.5 1.5-.5 1-1 1-1 2-.5 2-.5.5-1.5.5-1.5 1.5-1 1.5-1 2.5-.5 2.5-.5-1.5-1-1.5-1-.5.5-.5.5-1.5.5-1.5.5-.5 1-.5 1h-1-1l-.5 1-.5 1-1-.5-1-.5-1 .5-1 .5-.5 1.5-.5 1.5-1.5 1-1.5 1-1.5.5-1.5.5-1 1-1 1-1.5.5-1.5.5-1.5 1-1.5 1-1.5 1-1.5 1-1 1-1 1-1.5 1-1.5 1-1 .5-1 .5-1 1-1 1-1.5 1.5-1.5 1.5-1 .5-1 .5" style="fill:#32344d;stroke:#32344d"/><path d="m370 315l40-25 1-1 1-1 .5-.5.5-.5.5-.5.5-.5.5-.5.5-.5.5-.5.5-.5.5-1 .5-1 1-.5 1-.5v-.5-.5l11-12.5 11-12.5 3-16 3-16h-.5-.5l-11 14-11 14-13 11.5-13 11.5-14.5 10-14.5 10-4.5 3.5-4.5 3.5 5 7 5 7" style="fill:#192547;stroke:#192547"/><path d="m487 315l1 1 1.5-1 1.5-1 .5-1 .5-1 4.5-7.5 4.5-7.5 8-12.5 8-12.5v-3.5-3.5l9.5-12 9.5-12 7-19.5 7-19.5-1-.5-1-.5 1-1.5 1-1.5.5-1.5.5-1.5v-2.5-2.5l-.5 1.5-.5 1.5-.5 1.5-.5 1.5-1-.5-1-.5v-2-2l-.5-2-.5-2-.5 1.5-.5 1.5-.5 2-.5 2-.5 1.5-.5 1.5h-1-1l-1.5-1.5-1.5-1.5v-2-2l.5-2 .5-2v-2-2l.5-1.5.5-1.5 1-1.5 1-1.5 1-1 1-1 1.5 1 1.5 1 1.5 1.5 1.5 1.5-6.5 5.5-6.5 5.5-9 30-9 30-.5-2-.5-2v-1-1l.5-.5.5-.5v-1-1l.5-1 .5-1v-1-1-1-1l.5-.5.5-.5-.5-.5-.5-.5v-1.5-1.5l.5-.5.5-.5v-1-1-1-1l.5-.5.5-.5v-1.5-1.5l.5-.5.5-.5v-1-1-1-1l.5-1.5.5-1.5h-.5-.5l-.5 1.5-.5 1.5v1 1l-.5 1-.5 1-.5 1-.5 1-.5 2.5-.5 2.5-.5 2.5-.5 2.5-8 24-8 24-7.5 17.5-7.5 17.5" style="fill:#79a8ed;stroke:#79a8ed"/><path d="m397 312l1 1 1-1 1-1 14.5-17 14.5-17-2 1-2 1-1 1-1 1h-1-1-1-1l-1 .5-1 .5-.5 1-.5 1-.5.5-.5.5-.5.5-.5.5-.5.5-.5.5-.5.5-.5.5-1 1-1 1-.5 1-.5 1-1 1.5-1 1.5-1 1-1 1-1 1-1 1-1 1.5-1 1.5-1 1-1 1-1.5 1-1.5 1-1 2-1 2 1.5-.5 1.5-.5 1-1 1-1 .5 1 .5 1-1 .5-1 .5-.5 1-.5 1" style="fill:#2f4686;stroke:#2f4686"/><path d="m494 312v1l1-.5 1-.5.5-1.5.5-1.5.5-1 .5-1 .5-.5.5-.5.5-1.5.5-1.5 1-.5 1-.5 15.5-24.5 15.5-24.5 1.5-1.5 1.5-1.5.5-1.5.5-1.5.5-1 .5-1v-.5-.5l9-20 9-20v-.5-.5-2-2l.5-1.5.5-1.5-.5-2-.5-2v-2-2l-.5-.5-.5-.5v-2-2l-6-18-6-18-15.5-8-15.5-8-23 3-23 3 19.5 2.5 19.5 2.5 2.5-.5 2.5-.5h2 2l2-.5 2-.5h2 2l2-.5 2-.5h2 2l.5 2 .5 2-1.5 1.5-1.5 1.5 1 .5 1 .5 10 27.5 10 27.5-7 19.5-7 19.5-9.5 12-9.5 12v3.5 3.5l-8 12.5-8 12.5-4.5 7.5-4.5 7.5h1 1" style="fill:#5f90e5;stroke:#5f90e5"/><path d="m84 308l8-32-6-4.5-6-4.5-.5 19-.5 19 2.5 1.5 2.5 1.5" style="fill:#192547;stroke:#192547"/><path d="m385 307l24-22-12.5 5-12.5 5 .5 6 .5 6" style="fill:#131424;stroke:#131424"/><path d="m409 301l4 1v-.5-.5l11.5-12.5 11.5-12.5-13.5 12.5-13.5 12.5" style="fill:#32344d;stroke:#32344d"/><path d="m413 301v1l1.5-.5 1.5-.5 1-1 1-1 1.5-.5 1.5-.5 1.5-1 1.5-1 .5-1.5.5-1.5 1-.5 1-.5 1.5-1.5 1.5-1.5 1.5-.5 1.5-.5 1-1 1-1 1-1.5 1-1.5.5-1.5.5-1.5v-1.5-1.5l-1-.5-1-.5-11.5 12.5-11.5 12.5" style="fill:#192547;stroke:#192547"/><path d="m580 290l20-26-7 5.5-7 5.5-3 7.5-3 7.5" style="fill:#243667;stroke:#243667"/><g style="fill:#3b5aa7;stroke:#3b5aa7"><path d="m453 287v1l12-20.5 12-20.5-7.5 8-7.5 8-6-3-6-3 1.5 15 1.5 15"/><path d="m462 286l3 1 1-1 1-1 1.5-1 1.5-1 1.5-.5 1.5-.5 1.5-1 1.5-1 1.5-.5 1.5-.5 1.5-1 1.5-1 1-1 1-1 1-1 1-1 2-1 2-1 .5-.5.5-.5v-.5-.5l14-21 14-21 .5-2.5.5-2.5.5-1 .5-1-14.5 16.5-14.5 16.5-2-.5-2-.5-.5-1.5-.5-1.5-.5-.5-.5-.5h-1.5-1.5l-1 1-1 1-.5 1-.5 1-1 1.5-1 1.5-.5 2-.5 2-4.5 9.5-4.5 9.5.5-2 .5-2 1-1 1-1 .5-1.5.5-1.5.5-1.5.5-1.5-1 1.5-1 1.5-1 .5-1 .5v1 1l-1 1-1 1-.5 1-.5 1v1 1l-1 1-1 1-.5 1-.5 1-.5.5-.5.5v1.5 1.5"/><path d="m421 281h2l1-1 1-1 2-1 2-1 1-1 1-1 1-1 1-1 1-1.5 1-1.5 1-1 1-1 1.5-.5 1.5-.5 1-1 1-1 1-.5 1-.5.5-.5.5-.5.5-1 .5-1v-1.5-1.5l1-1 1-1 1-1 1-1 .5-1.5.5-1.5-1.5 1-1.5 1-1 1-1 1-12.5 13-12.5 13"/></g><path d="m419 280v1h1 1l12.5-13 12.5-13v-.5-.5l.5-16 .5-16v.5.5l-3 16-3 16-11 12.5-11 12.5" style="fill:#243667;stroke:#243667"/><path d="m468 278l9-19-1.5 1.5-1.5 1.5-.5 2-.5 2-.5 1.5-.5 1.5-.5 1.5-.5 1.5-1 1-1 1-.5 2-.5 2" style="fill:#2f4686;stroke:#2f4686"/><path d="m491 272h2l1.5-.5 1.5-.5 1.5-1 1.5-1 1-1 1-1 1-1.5 1-1.5 1-1 1-1 1-1.5 1-1.5.5-1.5.5-1.5-2.5.5-2.5.5-.5 1-.5 1-1 1-1 1-.5.5-.5.5-1 .5-1 .5-.5 1.5-.5 1.5-.5.5-.5.5-1 .5-1 .5-.5 1-.5 1-.5 1-.5 1" style="fill:#79a8ed;stroke:#79a8ed"/><path d="m491 269v1h.5.5l.5-1 .5-1 1-.5 1-.5.5-.5.5-.5.5-1.5.5-1.5 1-.5 1-.5.5-.5.5-.5 1-1 1-1 .5-1 .5-1 1-1.5 1-1.5.5-.5.5-.5.5-.5.5-.5.5-.5.5-.5.5-.5.5-.5.5-1 .5-1 .5-.5.5-.5v-1-1l.5-.5.5-.5.5-.5.5-.5.5-1 .5-1 .5-.5.5-.5v-1-1l.5-.5.5-.5.5-1 .5-1 .5-1.5.5-1.5.5-2.5.5-2.5-14 21-14 21" style="fill:#4e74c3;stroke:#4e74c3"/><path d="m474 258h2l1-1.5 1-1.5 1-1.5 1-1.5.5-1 .5-1 1-1 1-1 .5-1.5.5-1.5-1 .5-1 .5h-.5-.5l.5-1.5.5-1.5v-1-1l.5-.5.5-.5v-1-1l.5-1 .5-1v-1-1l-.5-.5-.5-.5v-1-1l-1-.5-1-.5h-1-1l-.5.5-.5.5v1 1l-1 .5-1 .5h-2-2-1-1l-.5 1-.5 1h2 2l.5.5.5.5.5.5.5.5h1 1l1.5.5 1.5.5v1.5 1.5 1 1l-.5 1.5-.5 1.5-.5 1-.5 1-.5.5-.5.5-.5 1.5-.5 1.5-.5 1-.5 1-.5 1.5-.5 1.5" style="fill:#5f90e5;stroke:#5f90e5"/><path d="m446 254v1l1-1 1-1 1.5-1 1.5-1 1-.5 1-.5.5-.5.5-.5.5-.5.5-.5.5-1 .5-1 .5-1.5.5-1.5-5-10.5-5-10.5-.5 16-.5 16" style="fill:#2f4686;stroke:#2f4686"/><path d="m492 253l29-33 .5-1 .5-1v-1-1l.5-1.5.5-1.5-19.5 16-19.5 16-.5 1.5-.5 1.5h1.5 1.5l.5.5.5.5.5 1.5.5 1.5 2 .5 2 .5" style="fill:#4e74c3;stroke:#4e74c3"/><path d="m458 251h2l1-1 1-1 .5-1 .5-1 .5-1.5.5-1.5-1.5 1.5-1.5 1.5h-1-1v-2-2l1-1 1-1v-.5-.5l.5-1 .5-1v-1-1l.5-1 .5-1 .5-.5.5-.5.5-1.5.5-1.5v-.5-.5l.5-1.5.5-1.5v-1.5-1.5-2-2l-.5-.5-.5-.5-.5-.5-.5-.5v-1-1l-.5-1-.5-1v-1-1-1-1l-.5-.5-.5-.5-.5-2-.5-2v-.5-.5l-1-1.5-1-1.5-.5-.5-.5-.5-15.5-6.5-15.5-6.5-1 .5-1 .5-1.5-.5-1.5-.5-.5-.5-.5-.5h-.5-.5l1 2 1 2 1 1.5 1 1.5 1 1 1 1 2 .5 2 .5 1.5-1 1.5-1 .5-.5.5-.5.5-.5.5-.5h1 1l.5-.5.5-.5.5-1 .5-1 .5-.5.5-.5.5-.5.5-.5.5-.5.5-.5.5.5.5.5 1 .5 1 .5v1 1l.5.5.5.5.5.5.5.5h1 1v1.5 1.5l-4.5 12-4.5 12 1 1.5 1 1.5 1.5.5 1.5.5.5.5.5.5h.5.5v-.5-.5l5 10.5 5 10.5v1.5 1.5l.5 2.5.5 2.5" style="fill:#3b5aa7;stroke:#3b5aa7"/><path d="m519 250l18-60 6.5-5.5 6.5-5.5v1.5 1.5 2 2l.5 2 .5 2v2.5 2.5l-.5 1.5-.5 1.5-1 1.5-1 1.5 1 .5 1 .5-10-27.5-10-27.5-8 17-8 17-13.5 10-13.5 10-13 20-13 20 12-6.5 12-6.5 6-5.5 6-5.5 13.5-5 13.5-5v1.5 1.5 1.5 1.5l-.5 1.5-.5 1.5v1 1 1 1l-.5.5-.5.5v1.5 1.5l-.5.5-.5.5v1 1 1 1l-.5.5-.5.5v1.5 1.5l.5.5.5.5-.5.5-.5.5v1 1 1 1l-.5 1-.5 1v1 1l-.5.5-.5.5v1 1l.5 2 .5 2" style="fill:#97c5f2;stroke:#97c5f2"/><path d="m459 247h2l1.5-1.5 1.5-1.5.5-1 .5-1v-1-1l.5-.5.5-.5.5-1 .5-1 1-.5 1-.5.5-1 .5-1h1 1 2 2l1-.5 1-.5v-1-1l.5-.5.5-.5h1 1l1 .5 1 .5v1 1l.5.5.5.5v1 1l-.5 1-.5 1v1 1l-.5.5-.5.5v1 1l-.5 1.5-.5 1.5h.5.5l1-.5 1-.5v-.5-.5l20-18.5 20-18.5-13.5 5-13.5 5-6 5.5-6 5.5-12 6.5-12 6.5-1 1-1 1v2 2" style="fill:#79a8ed;stroke:#79a8ed"/><path d="m484 244v1l19.5-16 19.5-16h.5.5v-1.5-1.5-1.5-1.5l-20 18.5-20 18.5" style="fill:#5f90e5;stroke:#5f90e5"/><path d="m538 244v1l14-25 14-25 2.5-12 2.5-12 14-3.5 14-3.5 8 6.5 8 6.5-.5-14.5-.5-14.5-3-12-3-12 11 9.5 11 9.5-2.5 23-2.5 23 3-3.5 3-3.5 4-19.5 4-19.5-4-18.5-4-18.5-3 6.5-3 6.5-19.5-3-19.5-3-18.5-1.5-18.5-1.5-9-.5-9-.5-5.5 4-5.5 4 18 5.5 18 5.5 7.5 14 7.5 14-7.5 24-7.5 24-9 20-9 20" style="fill:#243667;stroke:#243667"/><path d="m461 240v1l13-20 13-20 13.5-10 13.5-10 8-17 8-17-1-.5-1-.5-1 1.5-1 1.5v2 2 1 1 1.5 1.5l-.5 1.5-.5 1.5-.5 2.5-.5 2.5-.5 1.5-.5 1.5-.5.5-.5.5-1 .5-1 .5-1 1-1 1-1.5 1-1.5 1-1 1-1 1-.5 2-.5 2-1 1.5-1 1.5-.5 1-.5 1-1 1-1 1-1.5.5-1.5.5-1 1-1 1h-1-1l-.5-1-.5-1v-2-2l-.5.5-.5.5v1.5 1.5l-.5 1.5-.5 1.5-.5.5-.5.5-.5 1-.5 1-1 1-1 1h-1-1l3.5-26.5 3.5-26.5 1-.5 1-.5 1-.5 1-.5h1.5 1.5l-19.5-2.5-19.5-2.5 1 1 1 1 1 1 1 1 .5.5.5.5 1 .5 1 .5 1 .5 1 .5 8.5-6 8.5-6-1.5 18.5-1.5 18.5-1-1.5-1-1.5-.5-2-.5-2v2.5 2.5l-5.5 21-5.5 21-2-1-2-1-1-1-1-1-1-1.5-1-1.5-.5-1.5-.5-1.5-1-1.5-1-1.5-1 1-1 1-.5 2.5-.5 2.5v.5.5l2 13 2 13-.5 1.5-.5 1.5-.5.5-.5.5-.5 1-.5 1v1 1l-.5 1-.5 1" style="fill:#79a8ed;stroke:#79a8ed"/><path d="m465 229v1l-2-13-2-13 .5 2 .5 2 .5.5.5.5v1 1 1 1l.5 1 .5 1v1 1l.5.5.5.5.5.5.5.5v2 2 1.5 1.5l-.5 1.5-.5 1.5" style="fill:#5f90e5;stroke:#5f90e5"/><path d="m525 221l9-35 2-18.5 2-18.5-6.5 16-6.5 16v20 20" style="fill:#fffdf3;stroke:#fffdf3"/><path d="m439 217l1 1 4.5-12 4.5-12-1 1-1 1-1 1.5-1 1.5-.5 1.5-.5 1.5-1 1.5-1 1.5-1.5.5-1.5.5-1.5-.5-1.5-.5-.5-1-.5-1 .5-.5.5-.5v-1-1l.5-.5.5-.5v-1-1l-.5-1-.5-1-.5-.5-.5-.5-1-.5-1-.5-1.5 1-1.5 1-2-.5-2-.5 5 9.5 5 9.5 1.5 2 1.5 2" style="fill:#192547;stroke:#192547"/><path d="m475 209l11-42-5.5 19-5.5 19-3-18.5-3-18.5-15.5-8-15.5-8 10 6 10 6-11.5-3-11.5-3-.5 1-.5 1v2 2l1 2 1 2v2 2l1 1.5 1 1.5v-2-2-1.5-1.5l1 1 1 1 1.5 1 1.5 1 .5 1.5.5 1.5 1-1 1-1 .5 2 .5 2 6 11.5 6 11.5 1 1.5 1 1.5.5-2.5.5-2.5 1-1 1-1 1 1.5 1 1.5.5 1.5.5 1.5 1 1.5 1 1.5 1 1 1 1 2 1 2 1" style="fill:#5f90e5;stroke:#5f90e5"/><path d="m436 205l3 1 1.5-.5 1.5-.5 1-1.5 1-1.5.5-1.5.5-1.5 1-1.5 1-1.5 1-1 1-1v-1.5-1.5h-1-1l-.5-.5-.5-.5-.5-.5-.5-.5v-1-1l-1-.5-1-.5-.5-.5-.5-.5-.5.5-.5.5-.5.5-.5.5-.5.5-.5.5-.5 1-.5 1-.5.5-.5.5h-1-1l-.5.5-.5.5-.5.5-.5.5 1 .5 1 .5.5.5.5.5.5 1 .5 1v1 1l-.5.5-.5.5v1 1l-.5.5-.5.5.5 1 .5 1" style="fill:#243667;stroke:#243667"/><path d="m475 205l11-38v-2.5-2.5l-.5-2-.5-2-.5-1.5-.5-1.5-1-1.5-1-1.5-1-1-1-1-1-1.5-1-1.5-1.5-1.5-1.5-1.5-1-.5-1-.5-1-.5-1-.5-.5-.5-.5-.5-1-1-1-1-1-1-1-1 23-3 23-3 15.5 8 15.5 8 6 18 6 18 2-19 2-19-17-7.5-17-7.5-33.5-1-33.5-1 12 15 12 15 1 1.5 1 1.5v1 1 1.5 1.5l.5 1.5.5 1.5h-1-1l-19-21-19-21 .5-1 .5-1 1-1 1-1 1-1 1-1h-3-3l-5 17-5 17-.5 2-.5 2 .5 2.5.5 2.5v-2-2l.5-1 .5-1 1-2 1-2 .5-1 .5-1 15.5 8 15.5 8 3 18.5 3 18.5" style="fill:#4e74c3;stroke:#4e74c3"/><path d="m556 203v1l7.5-24 7.5-24-7.5-14-7.5-14-18-5.5-18-5.5 5.5-4 5.5-4 9 .5 9 .5 18.5 1.5 18.5 1.5 19.5 3 19.5 3 3-6.5 3-6.5-1.5-.5-1.5-.5-.5-.5-.5-.5-1.5-1-1.5-1 1.5 5.5 1.5 5.5-20-3.5-20-3.5-20-3.5-20-3.5-21-1.5-21-1.5-27.5 12.5-27.5 12.5-1 1-1 1-1 1-1 1-.5 1-.5 1 18.5 15.5 18.5 15.5-12-15-12-15 22-2 22-2 20.5 3 20.5 3 9.5 11.5 9.5 11.5-3 17.5-3 17.5v2 2l.5 2 .5 2-.5 1.5-.5 1.5v2 2" style="fill:#2f4686;stroke:#2f4686"/><path d="m458 199l1 1-6-11.5-6-11.5-.5 1-.5 1-1 .5-1 .5h-1.5-1.5l-.5-1.5-.5-1.5-1-1-1-1-1-1.5-1-1.5-.5 1.5-.5 1.5h-1-1-1.5-1.5l-.5 1.5-.5 1.5-.5.5-.5.5v1.5 1.5l-.5 1.5-.5 1.5v.5.5l15.5 6.5 15.5 6.5" style="fill:#4e74c3;stroke:#4e74c3"/><g style="fill:#5f90e5;stroke:#5f90e5"><path d="m491 197h2l1-1 1-1 .5-1 .5-1 .5-.5.5-.5.5-1.5.5-1.5v-1.5-1.5l.5-.5.5-.5v2 2l.5 1 .5 1h1 1l1-1 1-1 1.5-.5 1.5-.5 1-1 1-1 .5-1 .5-1-1.5 1-1.5 1-.5.5-.5.5h-1-1-1-1l-2-21.5-2-21.5-3.5 26.5-3.5 26.5"/><path d="m541 197h2l.5-1.5.5-1.5.5-2 .5-2 .5-1.5.5-1.5.5 2 .5 2v2 2l1 .5 1 .5.5-1.5.5-1.5.5-1.5.5-1.5-.5-2-.5-2v-2-2-1.5-1.5l-1.5-1.5-1.5-1.5-1.5-1-1.5-1-1 1-1 1-1 1.5-1 1.5-.5 1.5-.5 1.5v2 2l-.5 2-.5 2v2 2l1.5 1.5 1.5 1.5"/></g><path d="m502 187h2 1 1l.5-.5.5-.5 1.5-1 1.5-1 1-1.5 1-1.5.5-2 .5-2 1-1 1-1 1.5-1 1.5-1 1-1 1-1 1-.5 1-.5.5-.5.5-.5.5-1.5.5-1.5-1 .5-1 .5-.5.5-.5.5-1 .5-1 .5-1 1-1 1-.5.5-.5.5-1 .5-1 .5-1 1-1 1-.5.5-.5.5v1.5 1.5l-1 1-1 1-.5.5-.5.5h-1-1l-.5.5-.5.5h-1-1l12.5-18.5 12.5-18.5 1.5-1.5 1.5-1.5-.5-2-.5-2h-2-2l-2 .5-2 .5h-2-2l-2 .5-2 .5h-2-2l-2.5.5-2.5.5h-1.5-1.5l-1 .5-1 .5-1 .5-1 .5 2 21.5 2 21.5" style="fill:#4e74c3;stroke:#4e74c3"/><path d="m555 187l1 1 3-17.5 3-17.5-9.5-11.5-9.5-11.5-20.5-3-20.5-3-22 2-22 2 33.5 1 33.5 1 17 7.5 17 7.5-2 19-2 19v2 2" style="fill:#3b5aa7;stroke:#3b5aa7"/><path d="m422 186l3 1 1-.5 1-.5v-.5-.5-.5-.5-2-2-2-2l-.5-2-.5-2v-2-2l.5-2 .5-2 .5-1.5.5-1.5.5 1.5.5 1.5 1 1.5 1 1.5.5-1.5.5-1.5.5-2.5.5-2.5.5-2 .5-2v-.5-.5l-1-2-1-2 .5-2 .5-2v-1-1-2-2l-.5-2-.5-2 .5-1.5.5-1.5.5-2 .5-2 1-1 1-1-.5-1-.5-1-1.5 1.5-1.5 1.5-1 1-1 1-4.5 27.5-4.5 27.5.5.5.5.5" style="fill:#2f4686;stroke:#2f4686"/><path d="m419 184l1 1h.5.5l4.5-27.5 4.5-27.5-6 24.5-6 24.5.5 2.5.5 2.5" style="fill:#243667;stroke:#243667"/><g style="fill:#3b5aa7;stroke:#3b5aa7"><path d="m427 184v1l.5-1.5.5-1.5v-1.5-1.5l.5-.5.5-.5.5-1.5.5-1.5h1.5 1.5 1 1l.5-1.5.5-1.5v-2-2l-1-2-1-2-.5-2.5-.5-2.5-.5 2.5-.5 2.5-.5 1.5-.5 1.5-1-1.5-1-1.5-.5-1.5-.5-1.5-.5 1.5-.5 1.5-.5 2-.5 2v2 2l.5 2 .5 2v2 2 2 2"/><path d="m503 183h2l.5-.5.5-.5h1 1l.5-.5.5-.5 1-1 1-1v-1.5-1.5l.5-.5.5-.5 1-1 1-1 1-.5 1-.5.5-.5.5-.5 1-1 1-1 1-.5 1-.5.5-.5.5-.5 1-.5 1-.5.5-2.5.5-2.5-.5 1-.5 1-1 1-1 1-1.5.5-1.5.5-1 1.5-1 1.5-1 1-1 1-2 .5-2 .5h-1-1l8-5.5 8-5.5.5-1.5.5-1.5v-1.5-1.5-1-1-2-2l1-1.5 1-1.5-12.5 18.5-12.5 18.5"/></g><path d="m441 180h3l1-.5 1-.5.5-1 .5-1-.5-2-.5-2-1 1-1 1-.5-1.5-.5-1.5-1.5-1-1.5-1-1-1-1-1v1.5 1.5 2 2l1 1 1 1 .5 1.5.5 1.5" style="fill:#79a8ed;stroke:#79a8ed"/><path d="m509 172h2l2-.5 2-.5 1-1 1-1 1-1.5 1-1.5 1.5-.5 1.5-.5 1-1 1-1 .5-1 .5-1-8 5.5-8 5.5" style="fill:#2f4686;stroke:#2f4686"/><path d="m483 169h2l-.5-1.5-.5-1.5v-1.5-1.5-1-1l-1-1.5-1-1.5-18.5-15.5-18.5-15.5 19 21 19 21" style="fill:#3b5aa7;stroke:#3b5aa7"/><path d="m489 169l3-37-8.5 6-8.5 6 1.5 1.5 1.5 1.5 1 1.5 1 1.5 1 1 1 1 1 1.5 1 1.5.5 1.5.5 1.5.5 2 .5 2 .5 2 .5 2 1 1.5 1 1.5" style="fill:#97c5f2;stroke:#97c5f2"/><path d="m458 164l-20-12-.5 1-.5 1-1 2-1 2 11.5 3 11.5 3" style="fill:#79a8ed;stroke:#79a8ed"/><g style="fill:#3b5aa7;stroke:#3b5aa7"><path d="m550 157h2l.5-1.5.5-1.5-1-1.5-1-1.5-.5-1.5-.5-1.5-1-1.5-1-1.5-1.5-.5-1.5-.5v1.5 1.5l.5 1.5.5 1.5 1 1 1 1 .5 2 .5 2 .5.5.5.5"/><path d="m434 154v1l5-17 5-17h3 3l27.5-12.5 27.5-12.5 21 1.5 21 1.5 20 3.5 20 3.5 20 3.5 20 3.5-1.5-5.5-1.5-5.5-23-5.5-23-5.5-21-3.5-21-3.5-21.5 2-21.5 2-15.5 8-15.5 8-13.5 10.5-13.5 10.5.5 1 .5 1-1 1-1 1-.5 2-.5 2-.5 1.5-.5 1.5.5 2 .5 2v2 2 1 1l-.5 2-.5 2 1 2 1 2"/></g><path d="m627 142l3 1-11-9.5-11-9.5 9.5 9 9.5 9" style="fill:#32344d;stroke:#32344d"/><path d="m464 108h2 .5.5l.5-1 .5-1 1.5-.5 1.5-.5 1-1 1-1 2-.5 2-.5 1-1 1-1 1.5-1 1.5-1 1.5-.5 1.5-.5 1.5-.5 1.5-.5 1.5-1 1.5-1-1-.5-1-.5-1.5 1-1.5 1-1.5.5-1.5.5-1.5 1-1.5 1-1.5.5-1.5.5-1.5 1-1.5 1-1.5.5-1.5.5-1 1-1 1-1.5 1-1.5 1-1.5.5-1.5.5.5.5.5.5" style="fill:#5f90e5;stroke:#5f90e5"/><path d="m626 108l-31-11-21-3.5-21-3.5-22-1.5-22-1.5-10 3-10 3 1 .5 1 .5-1.5 1-1.5 1-1.5.5-1.5.5-1.5.5-1.5.5-1.5 1-1.5 1-1 1-1 1-2 .5-2 .5-1 1-1 1-1.5.5-1.5.5-.5 1-.5 1 17.5-8 17.5-8 21 1.5 21 1.5 22 2.5 22 2.5 19 4 19 4" style="fill:#4e74c3;stroke:#4e74c3"/></g></svg>