<svg xmlns="http://www.w3.org/2000/svg" viewBox="0 0 720 960"><g style="fill:#1b1a10"><path d="m0 0h720v960h-720z"/><path d="m0 959v1h23.5 23.5 24.5 24.5 24.5 24.5 24.5 24.5 24.5 24.5 24.5 24.5 10.5 10.5v-.5-.5l3.5-21 3.5-21 5.5-17.5 5.5-17.5-6-22-6-22-.5-.5-.5-.5-1.5-7.5-1.5-7.5 4.5-12 4.5-12 2.5-9 2.5-9 7-12.5 7-12.5 13.5-6 13.5-6 1.5-5 1.5-5 17-2 17-2 12-.5 12-.5 15 18 15 18-2-16.5-2-16.5-1-.5-1-.5-.5-1-.5-1-1.5-.5-1.5-.5-13-11.5-13-11.5-5.5-12-5.5-12-4-14-4-14-12.5-1-12.5-1-11-4.5-11-4.5-13-1.5-13-1.5-13.5 2.5-13.5 2.5-16 16.5-16 16.5-23-10.5-23-10.5-11.5-1-11.5-1 1-13.5 1-13.5-6-1.5-6-1.5 13.5-6 13.5-6h-16-16-.5-.5l-15-1.5-15-1.5 3-13.5 3-13.5 3.5-13 3.5-13 9-14.5 9-14.5 9-3 9-3 5.5 12 5.5 12-3.5 3-3.5 3-14.5 3-14.5 3 9.5 2 9.5 2 17 1.5 17 1.5 1.5 5.5 1.5 5.5-10 4.5-10 4.5 16 2.5 16 2.5 12 3.5 12 3.5-9.5-12-9.5-12-9-14.5-9-14.5-6-17-6-17-4.5-18-4.5-18-3-17.5-3-17.5-4-16.5-4-16.5-3-14.5-3-14.5 18.5 3 18.5 3 9-2.5 9-2.5h-16-16l-12.5-7-12.5-7-6.5-5-6.5-5-6.5-17-6.5-17-5-12.5-5-12.5.5 14 .5 14-3 7-3 7-4 8.5-4 8.5-3.5 2-3.5 2-1 9.5-1 9.5 7.5-4 7.5-4-3 14.5-3 14.5-10 13-10 13-2 15.5-2 15.5 1 15.5 1 15.5 7-1.5 7-1.5 5-10.5 5-10.5 9.5-1 9.5-1-10 11-10 11 2 16.5 2 16.5-5 10.5-5 10.5-5 13.5-5 13.5-2.5 6-2.5 6-.5 10-.5 10-2.5 8-2.5 8-1 1.5-1 1.5-1 1-1 1-2 .5-2 .5-1.5.5-1.5.5-1.5 1.5-1.5 1.5-14.5 11-14.5 11-1 2-1 2-1 1-1 1-1.5 1-1.5 1-1 1-1 1-1.5.5-1.5.5-1.5.5-1.5.5h-1.5-1.5l-1.5-1-1.5-1h-1-1l-1 1.5-1 1.5-1 1-1 1-1.5 1-1.5 1-.5 1.5-.5 1.5-1.5.5-1.5.5-1.5.5-1.5.5-.5 1.5-.5 1.5-1 1.5-1 1.5-1.5.5-1.5.5-1.5 1-1.5 1-1 1-1 1-1 1-1 1-13.5 16-13.5 16v2.5 2.5 2.5 2.5 1.5 1.5l15.5-6.5 15.5-6.5 2 5.5 2 5.5-17.5 6.5-17.5 6.5v24.5 24.5 24.5 24.5 24 24 24.5 24.5 16 16" style="stroke:#1b1a10;stroke-linejoin:round;stroke-width:.7"/></g><g style="stroke-linejoin:round;stroke-width:.7"><path d="m313 959v1h1.5 1.5 2 2 2.5 2.5 2 2 2 2v-.5-.5l6-15.5 6-15.5 4.5-19.5 4.5-19.5 3-16.5 3-16.5 2-20.5 2-20.5 11.5-31.5 11.5-31.5-6-8-6-8v6 6l-11 8.5-11 8.5-9.5 15-9.5 15-7.5 21.5-7.5 21.5 6 22 6 22-5.5 17.5-5.5 17.5-3.5 21-3.5 21" style="fill:#822c1c;stroke:#822c1c"/><path d="m333 959v1h26 26 24.5 24.5 2 2v-.5-.5-1.5-1.5-1.5-1.5-1-1l.5-1 .5-1-.5-1.5-.5-1.5.5-.5.5-.5.5-.5.5-.5h1 1 .5.5v1 1l.5.5.5.5v1 1 1.5 1.5l.5.5.5.5-.5.5-.5.5-.5.5-.5.5-.5 1-.5 1-1 1.5-1 1.5h25 25 4.5 4.5v-.5-.5l-3-18-3-18 2-19 2-19-1.5-19-1.5-19-17.5-6.5-17.5-6.5-16.5 2.5-16.5 2.5-7 4-7 4-14.5-4-14.5-4 3-8.5 3-8.5 15.5-12.5 15.5-12.5v-1-1-1.5-1.5l-.5-1.5-.5-1.5-2-1.5-2-1.5-1-.5-1-.5-1-.5-1-.5-1-1.5-1-1.5-.5-1.5-.5-1.5-1-1.5-1-1.5-1-2-1-2v-.5-.5l-.5-.5-.5-.5-1.5-.5-1.5-.5-1-1.5-1-1.5-1-1-1-1-.5-1.5-.5-1.5h1.5 1.5l2.5-.5 2.5-.5-.5-1.5-.5-1.5-.5-1-.5-1-.5-.5-.5-.5-.5-1-.5-1-.5-.5-.5-.5-.5-.5-.5-.5-.5-.5-.5-.5-.5-.5-.5-.5-1 .5-1 .5-.5.5-.5.5-.5.5-.5.5h-1-1l-1 1-1 1-11.5 31.5-11.5 31.5-2 20.5-2 20.5-3 16.5-3 16.5-4.5 19.5-4.5 19.5-6 15.5-6 15.5" style="fill:#1b1a10;stroke:#1b1a10"/><path d="m438 959v1h1 1l1-1.5 1-1.5.5-1 .5-1 .5-.5.5-.5.5-.5.5-.5-.5-.5-.5-.5v-1.5-1.5-1-1l-.5-.5-.5-.5v-1-1h-.5-.5-1-1l-.5.5-.5.5-.5.5-.5.5.5 1.5.5 1.5-.5 1-.5 1v1 1 1.5 1.5 1.5 1.5" style="fill:#583b32;stroke:#583b32"/><path d="m499 959v1h1.5 1.5 2 2 1.5 1.5v-.5-.5l-.5-2-.5-2v-2.5-2.5-2-2l-.5-2-.5-2-.5-1.5-.5-1.5v-2-2-2.5-2.5l.5-1.5.5-1.5.5-2 .5-2-.5-1.5-.5-1.5 1-.5 1-.5 4 11.5 4 11.5.5 1 .5 1v1 1l-.5.5-.5.5v1 1l-.5 1-.5 1v1 1l-.5.5-.5.5v1 1l-.5 1-.5 1 .5 1 .5 1h2.5 2.5 2.5 2.5 2 2 2.5 2.5 2 2 2.5 2.5 2 2 2.5 2.5 2 2 2 2 1.5 1.5v-.5-.5l2.5-13.5 2.5-13.5 1.5.5 1.5.5h1.5 1.5l.5.5.5.5.5-.5.5-.5h1 1l.5-.5.5-.5.5.5.5.5 1 .5 1 .5.5.5.5.5v1 1l.5.5.5.5.5 1 .5 1 .5-.5.5-.5h1 1l.5-.5.5-.5 1-.5 1-.5 1-.5 1-.5.5 1.5.5 1.5.5.5.5.5.5 1 .5 1 .5 1.5.5 1.5-.5 1.5-.5 1.5.5.5.5.5-.5 1-.5 1 1 1 1 1-.5.5-.5.5v1.5 1.5l.5 1.5.5 1.5h1 1v-.5-.5l9.5.5 9.5.5h3 3 2 2 2 2v-.5-.5l-7-14-7-14-6-13.5-6-13.5-10-1-10-1-.5-.5-.5-.5-.5 1.5-.5 1.5-.5 1.5-.5 1.5v1.5 1.5l.5 1.5.5 1.5-.5 1.5-.5 1.5-1 1.5-1 1.5-1.5-.5-1.5-.5-5-11.5-5-11.5 10-3 10-3 1-2 1-2-9-15-9-15-6-9-6-9v-.5-.5l.5-2.5.5-2.5v-2.5-2.5l.5-1.5.5-1.5v-2.5-2.5l-.5-1.5-.5-1.5-1-1.5-1-1.5-.5-2-.5-2h-1.5-1.5l-1-.5-1-.5-1-1-1-1-.5-2-.5-2-1-1-1-1-1.5-1-1.5-1-1-1-1-1-1-1-1-1 1-.5 1-.5 1-1.5 1-1.5-1.5-.5-1.5-.5h-1-1l-.5.5-.5.5-1.5 1-1.5 1-.5 1-.5 1v1 1l-.5 1.5-.5 1.5h-1.5-1.5l-1-.5-1-.5-1-1-1-1 .5-2.5.5-2.5-1-1-1-1v-1-1l.5-1 .5-1 .5-1.5.5-1.5.5-.5.5-.5v-1.5-1.5l1.5-.5 1.5-.5v-1-1l.5-.5.5-.5.5-.5.5-.5.5-1 .5-1 .5-.5.5-.5h1 1l.5-.5.5-.5 1 .5 1 .5v1 1l-.5.5-.5.5v.5.5 1 1 1.5 1.5l.5 1 .5 1 1 1 1 1h2.5 2.5l1-.5 1-.5 1.5-.5 1.5-.5.5-.5.5-.5.5 1 .5 1 1.5-.5 1.5-.5.5-2 .5-2-.5-1-.5-1-.5-1-.5-1h-1.5-1.5l-.5 1.5-.5 1.5h-1.5-1.5l4.5.5 4.5.5.5 1 .5 1 .5 2 .5 2v1 1 1.5 1.5l-1.5.5-1.5.5h-1-1-.5-.5-1.5-1.5l-2 .5-2 .5.5 1 .5 1 .5.5.5.5.5 1 .5 1h1 1l.5.5.5.5.5.5.5.5 1 .5 1 .5v1 1 1 1l.5 1.5.5 1.5 2-.5 2-.5 1 1.5 1 1.5.5 2 .5 2 1-.5 1-.5h1 1 .5.5l1-1 1-1 .5-.5.5-.5.5 1 .5 1 1 1 1 1 .5-.5.5-.5v-1.5-1.5l1.5.5 1.5.5.5-.5.5-.5.5.5.5.5.5.5.5.5 1 .5 1 .5-.5 1-.5 1 1.5.5 1.5.5.5.5.5.5h.5.5v-2-2l-.5-.5-.5-.5v-1.5-1.5l-1-2-1-2-.5-1-.5-1-1-1.5-1-1.5-.5-1-.5-1 10.5-10.5 10.5-10.5v-.5-.5l-11.5-18-11.5-18 .5 1.5.5 1.5v1.5 1.5 1 1 1 1l-1.5-.5-1.5-.5-1.5-1-1.5-1-.5-.5-.5-.5v-1.5-1.5l.5-1.5.5-1.5-5-10-5-10-15.5-7.5-15.5-7.5-1.5.5-1.5.5-1.5-1-1.5-1-1-1-1-1-1-1-1-1v-1.5-1.5l-1-.5-1-.5-1-1-1-1h-1-1-1.5-1.5l-1.5-.5-1.5-.5-2-1.5-2-1.5 6 12 6 12-6.5 7-6.5 7-6.5-16-6.5-16-5 6-5 6h1.5 1.5l1 1 1 1 .5 2 .5 2 1.5.5 1.5.5 1 1 1 1 1 1.5 1 1.5.5 1.5.5 1.5 1 1.5 1 1.5.5 1.5.5 1.5-.5 2-.5 2-.5 1-.5 1 .5 7.5.5 7.5-3 5-3 5-1-1-1-1v-1.5-1.5l.5-1.5.5-1.5-.5-.5-.5-.5-.5-1-.5-1-.5-.5-.5-.5.5-1 .5-1-1 .5-1 .5-1.5-.5-1.5-.5-1.5 1-1.5 1h-1-1l-1.5-.5-1.5-.5 1-.5 1-.5 1.5-.5 1.5-.5v-1-1-1-1l-.5-.5-.5-.5-16-4.5-16-4.5 1.5.5 1.5.5.5 1 .5 1 1 .5 1 .5 4 17 4 17-2-.5-2-.5-15-18-15-18-12 .5-12 .5v1.5 1.5l-.5.5-.5.5-.5 1-.5 1-.5 1.5-.5 1.5v1 1l-.5 1-.5 1 .5 1.5.5 1.5v1 1l-.5 1-.5 1 .5 1.5.5 1.5v1 1l-1 1-1 1 .5 1.5.5 1.5.5 1 .5 1v1 1 .5.5 3 3 .5.5l5.5 7.5 5.5 7.5 2 1.5 2 1.5.5 1.5.5 1.5h1 1l.5-2 .5-2v-2-2h2 2l1 1.5 1 1.5.5 1.5.5 1.5 1.5 1 1.5 1-1 1-1 1h-1.5-1.5l-1 1-1 1h-1-1l-2-.5-2-.5v1 1l-11.5 11.5-11.5 11.5-3.5 9-3.5 9 11-3 11-3 23.5 1 23.5 1 17.5 6.5 17.5 6.5 1.5 19 1.5 19-2 19-2 19 3 18 3 18" style="fill:#822c1c;stroke:#822c1c"/><path d="m509 959v1h1.5 1.5 1.5 1.5l-.5-1-.5-1 .5-1 .5-1v-1-1l.5-.5.5-.5v-1-1l.5-1 .5-1v-1-1l.5-.5.5-.5v-1-1l-.5-1-.5-1-.5-.5-.5-.5-1-1.5-1-1.5v-1.5-1.5l-.5-1.5-.5-1.5-.5-2-.5-2-.5-1.5-.5-1.5.5-1.5.5-1.5v-1-1l-.5-1-.5-1-1 .5-1 .5-1 .5-1 .5.5 1.5.5 1.5-.5 2-.5 2-.5 1.5-.5 1.5v2.5 2.5 2 2l.5 1.5.5 1.5.5 2 .5 2v2 2 2.5 2.5l.5 2 .5 2" style="fill:#1b1a10;stroke:#1b1a10"/><path d="m563 959v1h1.5 1.5 2 2 2.5 2.5 2 2v-.5-.5l-5.5-13.5-5.5-13.5-2.5 13.5-2.5 13.5" style="fill:#583b32;stroke:#583b32"/><path d="m579 959v1h1.5 1.5 2 2v-.5-.5l1-1 1-1 1-1 1-1 2-.5 2-.5.5-1.5.5-1.5h-2-2v-2.5-2.5l-.5-1.5-.5-1.5 1.5-1 1.5-1-1-2-1-2-1 .5-1 .5-.5.5-.5.5h-1-1l-.5.5-.5.5-.5-1-.5-1-.5-.5-.5-.5v-1-1l-.5-.5-.5-.5-1-.5-1-.5-.5-.5-.5-.5-.5.5-.5.5h-1-1l-.5.5-.5.5-.5-.5-.5-.5h-1.5-1.5l-1.5-.5-1.5-.5 5.5 13.5 5.5 13.5" style="fill:#1b1a10;stroke:#1b1a10"/><path d="m586 959v1h1.5 1.5 2 2 2.5 2.5l-.5-1.5-.5-1.5v-1.5-1.5l.5-.5.5-.5-1-1-1-1 .5-1 .5-1-.5-.5-.5-.5.5-1.5.5-1.5-.5-1.5-.5-1.5-.5-1-.5-1-.5-.5-.5-.5-.5-1.5-.5-1.5-1 .5-1 .5 1 2 1 2-1.5 1-1.5 1 .5 1.5.5 1.5v2.5 2.5h2 2l-.5 1.5-.5 1.5-2 .5-2 .5-1 1-1 1-1 1-1 1" style="fill:#583b32;stroke:#583b32"/><g style="fill:#c84228;stroke:#c84228"><path d="m600 959v1h1.5 1.5 2 2 2.5 2.5 2 2 1.5 1.5l-9.5-.5-9.5-.5"/><path d="m633 959v1h1.5 1.5.5.5v-.5-.5l-4.5-18-4.5-18-8-28-8-28-1 .5-1 .5v2 2 1 1l-.5.5-.5.5v2 2l-.5 2-.5 2v2.5 2.5l-.5 1.5-.5 1.5-1 .5-1 .5-.5-1.5-.5-1.5-.5-2-.5-2-.5-1.5-.5-1.5-.5-1.5-.5-1.5-.5-1.5-.5-1.5h-.5-.5l-1.5-.5-1.5-.5-11.5-24-11.5-24-.5-1-.5-1v-2-2l-1-1-1-1-1 .5-1 .5-.5-1.5-.5-1.5-1-.5-1-.5v2 2l-.5 2-.5 2v2 2 2.5 2.5l-.5 1.5-.5 1.5-1 .5-1 .5 6 9 6 9 9 15 9 15 1.5.5 1.5.5v.5.5 2 2 1 1l-.5 1-.5 1-1 1-1 1-.5.5-.5.5-.5 1-.5 1-1 1-1 1 10 1 10 1 6 13.5 6 13.5 7 14 7 14"/></g><path d="m637 959v1h1 1v-.5-.5-1-1-2.5-2.5-2-2l-.5-1-.5-1v-.5-.5l-.5-1.5-.5-1.5v-2-2-1-1-1.5-1.5l-.5-1.5-.5-1.5v-2-2-1-1l-1-.5-1-.5-.5-1.5-.5-1.5v-1-1l-.5-1-.5-1 1-1 1-1 .5-1 .5-1 .5-1 .5-1v-1.5-1.5-1-1-1.5-1.5-1-1l.5-1.5.5-1.5v-1-1l-.5-1-.5-1 .5-1.5.5-1.5-.5-2.5-.5-2.5-.5-2-.5-2-.5-1.5-.5-1.5-.5-2-.5-2-.5 1.5-.5 1.5v1 1 1 1l.5 1 .5 1 .5.5.5.5v1 1 1 1 1.5 1.5l-.5.5-.5.5v1 1l.5.5.5.5-.5 1-.5 1 .5.5.5.5-.5.5-.5.5h-1-1l-.5-1-.5-1v-1-1l-.5-.5-.5-.5-.5-.5-.5-.5-.5-1-.5-1-.5-.5-.5-.5-.5-.5-.5-.5-.5-.5-.5-.5v-1-1-1.5-1.5-1-1-1-1l-1.5-.5-1.5-.5.5 1 .5 1-.5.5-.5.5v1 1l-1.5-.5-1.5-.5-1-.5-1-.5-.5-1.5-.5-1.5v-1.5-1.5-1-1l-1-1.5-1-1.5-.5-2-.5-2v.5.5l8 28 8 28 4.5 18 4.5 18" style="fill:#822c1c;stroke:#822c1c"/><path d="m639 959v1h26 26 14.5 14.5v-8.5-8.5l-1-.5-1-.5-1 1-1 1-1 1.5-1 1.5-1 1-1 1-1.5.5-1.5.5.5 2 .5 2-.5 1.5-.5 1.5-1.5-1-1.5-1v1 1h-1.5-1.5l-12.5-10.5-12.5-10.5 3.5-3 3.5-3 5.5-2 5.5-2-4-3.5-4-3.5.5-7.5.5-7.5-2.5-9-2.5-9-4.5-1-4.5-1-5-6-5-6-11-3.5-11-3.5-3 12.5-3 12.5-.5 1.5-.5 1.5.5 1 .5 1v1 1l-.5 1.5-.5 1.5v1 1 1.5 1.5 1 1 1.5 1.5l-.5 1-.5 1 1.5 17 1.5 17 .5 1 .5 1v2 2 2.5 2.5 1 1" style="fill:#1b1a10;stroke:#1b1a10"/><g style="fill:#583b32;stroke:#583b32"><path d="m211 957l14-22 7-16.5 7-16.5v-13.5-13.5l-3.5 10.5-3.5 10.5v-1-1-1.5-1.5l-.5-1.5-.5-1.5.5-1 .5-1-.5-1.5-.5-1.5-1-1.5-1-1.5-2.5 20.5-2.5 20.5-8 15.5-8 15.5 1.5 2.5 1.5 2.5"/><path d="m703 957h3v-1-1l1.5 1 1.5 1 .5-1.5.5-1.5-.5-2-.5-2 1.5-.5 1.5-.5 1-1 1-1 1-1.5 1-1.5 1-1 1-1 1 .5 1 .5v-2.5-2.5-2.5-2.5-2-2-1-1l-.5 1-.5 1v2 2 1 1 1.5 1.5l-.5 1-.5 1-10-5-10-5 11-8 11-8v-3-3-2-2l-.5 1-.5 1v1 1l-.5 1-.5 1-.5.5-.5.5-.5.5-.5.5-.5.5-.5.5-1 .5-1 .5-.5.5-.5.5v1 1h-1-1l-2-12.5-2-12.5 7-7.5 7-7.5v-2-2l-.5-.5-.5-.5-31-8-31-8h-1.5-1.5l-1-.5-1-.5h-1-1l-1-.5-1-.5-1.5-.5-1.5-.5h-1-1l-1-.5-1-.5h-2-2v2 2l-.5.5-.5.5v1 1l-.5 1-.5 1-.5.5-.5.5.5.5.5.5-.5.5-.5.5v1 1l-.5 1-.5 1v1 1 2 2l.5 2 .5 2 .5 1.5.5 1.5.5 2 .5 2 .5 2.5.5 2.5 3-12.5 3-12.5 11 3.5 11 3.5 5 6 5 6 4.5 1 4.5 1 2.5 9 2.5 9-.5 7.5-.5 7.5 4 3.5 4 3.5-5.5 2-5.5 2-3.5 3-3.5 3 12.5 10.5 12.5 10.5"/></g><path d="m544 948l6-32-3.5 11-3.5 11 .5 5 .5 5" style="fill:#c84228;stroke:#c84228"/><g style="fill:#583b32;stroke:#583b32"><path d="m638 945v1l-1.5-17-1.5-17-.5 1-.5 1-1 1-1 1 .5 1 .5 1v1 1l.5 1.5.5 1.5 1 .5 1 .5v1 1 2 2l.5 1.5.5 1.5v1.5 1.5 1 1 2 2l.5 1.5.5 1.5"/><path d="m516 941l1 1-4-11.5-4-11.5 1-.5 1-.5.5 1 .5 1v1 1l-.5 1.5-.5 1.5.5 1.5.5 1.5.5 2 .5 2 .5 1.5.5 1.5v1.5 1.5l1 1.5 1 1.5"/></g><path d="m718 940l1-2v-1.5-1.5-1-1-2-2l.5-1 .5-1v-2.5-2.5-2-2-2-2l-11 8-11 8 10 5 10 5" style="fill:#1b1a10;stroke:#1b1a10"/><path d="m124 934l3 1h2 2l1-1.5 1-1.5v-1-1-2.5-2.5l-1-1-1-1-1-1.5-1-1.5-.5-1.5-.5-1.5-.5-1.5-.5-1.5-.5-1-.5-1h-.5-.5v1.5 1.5l.5 2 .5 2 .5 1.5.5 1.5 1 1.5 1 1.5-1 1-1 1 .5 1 .5 1-1.5-.5-1.5-.5-1-1-1-1-.5-2-.5-2v-2-2-1.5-1.5l-1-1-1-1v-2.5-2.5-2-2l.5-1 .5-1 1 1 1 1 .5 2.5.5 2.5-3 2-3 2 3 10.5 3 10.5" style="fill:#583b32;stroke:#583b32"/><path d="m125 928l3 1-.5-1-.5-1 1-1 1-1-1-1.5-1-1.5-.5-1.5-.5-1.5-.5-2-.5-2v-1.5-1.5l-.5-1.5-.5-1.5-.5-2.5-.5-2.5-1-1-1-1-.5 1-.5 1v2 2 2.5 2.5l1 1 1 1v1.5 1.5 2 2l.5 2 .5 2 1 1 1 1" style="fill:#822c1c;stroke:#822c1c"/><g style="fill:#c84228;stroke:#c84228"><path d="m575 925l-12-22-5-4-5-4 10 14 10 14 1 1 1 1"/><path d="m529 922l3 1 1-1 1-1v-1.5-1.5-2-2l1-1.5 1-1.5 1.5-.5 1.5-.5v-2.5-2.5-1.5-1.5l-1.5-1.5-1.5-1.5-3.5-2.5-3.5-2.5-2.5-17-2.5-17 13 6.5 13 6.5-8.5-14-8.5-14-8 5.5-8 5.5-2.5 18-2.5 18 8 15 8 15h.5.5"/></g><path d="m579 918l3 1 1-1.5 1-1.5.5-1.5.5-1.5-.5-1.5-.5-1.5v-1.5-1.5l.5-1.5.5-1.5.5-1.5.5-1.5-.5-1-.5-1-.5-.5-.5-.5v-1-1l.5-.5.5-.5h.5.5l.5-.5.5-.5v-1-1l.5-.5.5-.5.5-1 .5-1-10 3-10 3 5 11.5 5 11.5" style="fill:#583b32;stroke:#583b32"/><path d="m710 917h2v-1-1l.5-.5.5-.5 1-.5 1-.5.5-.5.5-.5.5-.5.5-.5.5-.5.5-.5.5-1 .5-1v-1-1l.5-1 .5-1v-3-3l-.5-.5-.5-.5-1-2-1-2 .5-1 .5-1 .5-.5.5-.5-1-1.5-1-1.5-.5-1.5-.5-1.5-2-.5-2-.5 1-1 1-1 1-1.5 1-1.5 1 1 1 1 1 1 1 1v-2.5-2.5l-7 7.5-7 7.5 2 12.5 2 12.5" style="fill:#1b1a10;stroke:#1b1a10"/><path d="m543 907h2l1-1 1-1 1-1.5 1-1.5.5-1.5.5-1.5 1-1.5 1-1.5.5-.5.5-.5-9-10.5-9-10.5.5 11 .5 11v1.5 1.5l1.5 1.5 1.5 1.5h2 2l-.5 2-.5 2 .5.5.5.5" style="fill:#583b32;stroke:#583b32"/><path d="m586 901l1 1 1-1 1-1 .5-1 .5-1 .5-.5.5-.5 1-1 1-1 .5-1 .5-1v-1-1-2-2-.5-.5l-1.5-.5-1.5-.5-1 2-1 2-.5 1-.5 1-.5.5-.5.5v1 1l-.5.5-.5.5h-.5-.5l-.5.5-.5.5v1 1l.5.5.5.5.5 1 .5 1" style="fill:#bc7b69;stroke:#bc7b69"/><path d="m631 899h2l.5-.5.5-.5-.5-.5-.5-.5.5-1 .5-1-.5-.5-.5-.5v-1-1l.5-.5.5-.5v-1.5-1.5-1-1-1-1l-.5-.5-.5-.5-.5-1-.5-1v-1-1-1-1l.5-1.5.5-1.5-.5-.5-.5-.5-.5-2-.5-2-.5-1.5-.5-1.5-.5-2-.5-2 1-1 1-1 1-1.5 1-1.5 1-1 1-1 .5-1.5.5-1.5-1-1-1-1-.5-1.5-.5-1.5-.5-1.5-.5-1.5-.5 2.5-.5 2.5-1 1.5-1 1.5-1.5-.5-1.5-.5-8-24.5-8-24.5h-2-2l-.5-1.5-.5-1.5-1-.5-1-.5-1.5-.5-1.5-.5h-1-1l-1-.5-1-.5-1.5.5-1.5.5h-1-1l-1-.5-1-.5h-1-1l.5.5.5.5-.5 2-.5 2 1 2 1 2v1.5 1.5l.5.5.5.5v2 2h-.5-.5l-.5-.5-.5-.5-1.5-.5-1.5-.5-1 .5-1 .5-.5.5-.5.5.5.5.5.5.5.5.5.5.5 1 .5 1-4 8-4 8 10.5 11 10.5 11 1-1.5 1-1.5 11.5 7.5 11.5 7.5-.5 2.5-.5 2.5-.5 1.5-.5 1.5v1.5 1.5l1.5.5 1.5.5v1 1 1 1 1.5 1.5 1 1l.5.5.5.5.5.5.5.5.5.5.5.5.5 1 .5 1 .5.5.5.5.5.5.5.5v1 1l.5 1 .5 1" style="fill:#c84228;stroke:#c84228"/><path d="m719 897l1 1v-3-3-2.5-2.5-2-2-.5-.5l-1-1-1-1-1-1-1-1-1 1.5-1 1.5-1 1-1 1 2 .5 2 .5.5 1.5.5 1.5 1 1.5 1 1.5-.5.5-.5.5-.5 1-.5 1 1 2 1 2" style="fill:#583b32;stroke:#583b32"/><g style="fill:#822c1c;stroke:#822c1c"><path d="m232 896l7-21v-3-3-2-2l-.5-2-.5-2v-2-2l-1.5-.5-1.5-.5v-1.5-1.5l.5-1.5.5-1.5v-.5-.5l-.5-.5-.5-.5.5-2.5.5-2.5-.5-2-.5-2h-2-2l-1.5.5-1.5.5v2.5 2.5l-1 1.5-1 1.5v2 2 2 2 1.5 1.5l.5 1.5.5 1.5v2.5 2.5l.5 1.5.5 1.5v1 1l.5 2 .5 2v2 2l1 1.5 1 1.5.5 1.5.5 1.5-.5 1-.5 1 .5 1.5.5 1.5v1.5 1.5 1 1"/><path d="m605 892l2-1 .5-1.5.5-1.5v-2.5-2.5l.5-2 .5-2-.5-.5-.5-.5v-.5-.5l-1.5.5-1.5.5-.5-1-.5-1-.5-1.5-.5-1.5-1.5 1.5-1.5 1.5.5 1.5.5 1.5.5 1.5.5 1.5.5 1.5.5 1.5.5 2 .5 2 .5 1.5.5 1.5"/></g><g style="fill:#583b32;stroke:#583b32"><path d="m618 882l3 1v-1-1l.5-.5.5-.5-.5-1-.5-1v-1.5-1.5l.5-1.5.5-1.5.5-2.5.5-2.5-.5-1.5-.5-1.5-1-.5-1-.5-1-1-1-1-1-1-1-1-.5-.5-.5-.5-1-.5-1-.5h-2-2l-.5-.5-.5-.5-.5 1-.5 1 1 1 1 1 1 1.5 1 1.5.5 1.5.5 1.5.5 2 .5 2 1 1.5 1 1.5v1 1 1.5 1.5l.5 1.5.5 1.5 1 .5 1 .5"/><path d="m605 878l3-1v-2.5-2.5l-.5-.5-.5-.5v-1-1-1-1-2-2l-1 .5-1 .5-.5.5-.5.5-.5 1-.5 1v1 1h-1-1v-1-1l-.5-.5-.5-.5.5-.5.5-.5v-.5-.5l-.5-.5-.5-.5-.5-.5-.5-.5-.5.5-.5.5v1.5 1.5l-.5.5-.5.5v1 1 1 1l.5 1 .5 1 .5 1.5.5 1.5h.5.5l1.5-1.5 1.5-1.5.5 1.5.5 1.5.5 1 .5 1"/></g><path d="m608 878l1 1v-2-2l.5-.5.5-.5v-1-1-2-2l1-.5 1-.5v-.5-.5l-.5-1.5-.5-1.5-1-1.5-1-1.5-1-1-1-1-.5 1.5-.5 1.5.5 1 .5 1v2 2 1 1 1 1l.5.5.5.5v2.5 2.5.5.5" style="fill:#895b4e;stroke:#895b4e"/><path d="m596 875l3 1-.5-1.5-.5-1.5-.5-1-.5-1v-1-1-1-1l.5-.5.5-.5v-1.5-1.5l.5-.5.5-.5.5.5.5.5.5.5.5.5v.5.5l-.5.5-.5.5.5.5.5.5v1 1h1 1v-1-1l.5-1 .5-1 .5-.5.5-.5 1-.5 1-.5-.5-1-.5-1 .5-1.5.5-1.5.5-1 .5-1 .5.5.5.5h2 2l1 .5 1 .5.5.5.5.5 1 1 1 1 1 1 1 1 1 .5 1 .5.5 1.5.5 1.5-11.5-7.5-11.5-7.5-1 1.5-1 1.5-10.5-11-10.5-11 4-8 4-8 .5 1.5.5 1.5v1.5 1.5l1 1 1 1-1 1.5-1 1.5-1.5.5-1.5.5-1.5-.5-1.5-.5-1-1-1-1h-1-1l-1.5.5-1.5.5 11.5 24 11.5 24" style="fill:#822c1c;stroke:#822c1c"/><path d="m127 873l4-6-3 1.5-3 1.5.5 1 .5 1 .5.5.5.5" style="fill:#583b32;stroke:#583b32"/><path d="m632 873l1 1v-2-2-1-1l.5-1 .5-1v-1-1l.5-.5.5-.5-.5-.5-.5-.5.5-.5.5-.5.5-1 .5-1v-1-1l.5-.5.5-.5v-2-2h-.5-.5l-.5 1.5-.5 1.5-1 1-1 1-1 1.5-1 1.5-1 1-1 1 .5 2 .5 2 .5 1.5.5 1.5.5 2 .5 2" style="fill:#822c1c;stroke:#822c1c"/><path d="m719 872l1 1v-3-3-1-1l-.5-.5-.5-.5-.5-1-.5-1v-1-1-1-1l-1-.5-1-.5h-1-1l-.5.5-.5.5-.5-.5-.5-.5-1-.5-1-.5h1 1v-1-1-1-1l.5-.5.5-.5-1-1-1-1-1-1.5-1-1.5-.5-1.5-.5-1.5-.5-1.5-.5-1.5h1.5 1.5l1.5.5 1.5.5 1.5 1 1.5 1 .5 1.5.5 1.5v.5.5l-1 1.5-1 1.5 1 1 1 1h1.5 1.5v-2-2-2.5-2.5-.5-.5l-.5-.5-.5-.5-11-6.5-11-6.5v-.5-.5l-.5-1-.5-1-.5-.5-.5-.5-1-.5-1-.5h-2-2-1-1l-1.5-.5-1.5-.5-.5 1.5-.5 1.5h1.5 1.5l1.5.5 1.5.5 1.5 1 1.5 1 1 1 1 1v2.5 2.5l-.5 1.5-.5 1.5h-1-1l1-1.5 1-1.5v-1-1l-.5-1.5-.5-1.5-1.5-1-1.5-1-1.5.5-1.5.5v1.5 1.5l1 1 1 1v.5.5l-1-1-1-1-1.5-.5-1.5-.5-1 .5-1 .5-1-1-1-1-.5-1.5-.5-1.5-1.5-.5-1.5-.5-.5-.5-.5-.5-.5-1-.5-1-1.5-.5-1.5-.5-.5-.5-.5-.5-.5-.5-.5-.5h-1-1l-1-.5-1-.5-.5-.5-.5-.5-.5-.5-.5-.5-.5-.5-.5-.5-.5-1-.5-1-1.5-.5-1.5-.5-.5-.5-.5-.5h-1.5-1.5l-2.5.5-2.5.5-1 1-1 1-1.5 1-1.5 1-1 1-1 1-.5 1.5-.5 1.5-.5.5-.5.5-.5 1-.5 1-1 1-1 1-.5 2-.5 2-1 1-1 1-.5.5-.5.5v1.5 1.5 2 2l11.5-13 11.5-13v11.5 11.5l21 6.5 21 6.5 7.5 7.5 7.5 7.5-27.5-5.5-27.5-5.5 31 8 31 8" style="fill:#895b4e;stroke:#895b4e"/><path d="m124 869l1 1 8-9.5 8-9.5-8.5 9-8.5 9" style="fill:#583b32;stroke:#583b32"/><path d="m712 867l-15-15-1 .5-1 .5 1 1 1 1 .5.5.5.5.5 1 .5 1 .5.5.5.5.5.5.5.5v1 1h-1-1l-20-4-20-4-9.5-10.5-9.5-10.5 11.5-4 11.5-4-.5 10.5-.5 10.5-1.5-1-1.5-1-1.5-1-1.5-1-1.5-.5-1.5-.5v-2-2l1-1.5 1-1.5v2.5 2.5-11.5-11.5l-11.5 13-11.5 13v1 1l.5 1.5.5 1.5.5 1.5.5 1.5 1 1 1 1h.5.5 2 2l1 .5 1 .5h1 1l1.5.5 1.5.5 1 .5 1 .5h1 1l1 .5 1 .5h1.5 1.5l27.5 5.5 27.5 5.5" style="fill:#e8dbbc;stroke:#e8dbbc"/><path d="m550 865h2l1-1 1-1 .5-2 .5-2 .5-1.5.5-1.5v-2.5-2.5l.5-1.5.5-1.5.5-2 .5-2v-2-2l-1-1-1-1-2-.5-2-.5-.5-1-.5-1 .5 2.5.5 2.5 1.5.5 1.5.5.5 2 .5 2v1 1l-1.5 1-1.5 1 1 1 1 1-.5 1.5-.5 1.5-.5 2-.5 2h-1-1v-1-1l-1.5-1.5-1.5-1.5.5 1.5.5 1.5v2 2 2 2l.5.5.5.5" style="fill:#583b32;stroke:#583b32"/><path d="m343 864l20-26-9-2.5-9-2.5-1 15.5-1 15.5" style="fill:#c84228;stroke:#c84228"/><path d="m719 864l1 1v-3-3-2.5-2.5-1-1h-1.5-1.5l-1-1-1-1-1-.5-1-.5h-1-1l1 1 1 1-.5.5-.5.5v1 1 1 1h-1-1l1 .5 1 .5.5.5.5.5.5-.5.5-.5h1 1l1 .5 1 .5v1 1 1 1l.5 1 .5 1" style="fill:#822c1c;stroke:#822c1c"/><path d="m699 862h2v-1-1l-.5-.5-.5-.5-.5-.5-.5-.5-.5-1-.5-1-.5-.5-.5-.5-1-1-1-1v-.5-.5h-2-2l-.5-.5-.5-.5h-1.5-1.5-1-1l-.5-.5-.5-.5h-1-1l-1-.5-1-.5h-2-2l-.5-.5-.5-.5h-1-1-1-1l-1-.5-1-.5-.5-.5-.5-.5h-1-1-2-2l.5-10.5.5-10.5-11.5 4-11.5 4 9.5 10.5 9.5 10.5 20 4 20 4" style="fill:#ffe;stroke:#ffe"/><g style="fill:#1b1a10;stroke:#1b1a10"><path d="m507 860l3 1 .5-1.5.5-1.5.5-1.5.5-1.5v-.5-.5l1-1 1-1 .5-.5.5-.5 1-.5 1-.5 1-1 1-1 .5-.5.5-.5 1-.5 1-.5 1.5-.5 1.5-.5.5-.5.5-.5.5-.5.5-.5-.5-.5-.5-.5v-1.5-1.5l.5-.5.5-.5-.5-.5-.5-.5.5-.5.5-.5v-1.5-1.5l.5-1.5.5-1.5.5-1.5.5-1.5v-2.5-2.5h-1.5-1.5l-1.5.5-1.5.5-.5 1.5-.5 1.5-1 1.5-1 1.5v1 1 .5.5l-.5 1.5-.5 1.5-1 1-1 1-.5.5-.5.5v1.5 1.5l-1 1-1 1-.5.5-.5.5v1 1l-1 .5-1 .5-1 2-1 2-1-.5-1-.5.5 1.5.5 1.5-1 1.5-1 1.5.5 1.5.5 1.5v.5.5"/><path d="m551 858h2l.5-2 .5-2 .5-1.5.5-1.5-1-1-1-1 1.5-1 1.5-1v-1-1l-.5-2-.5-2-1.5-.5-1.5-.5-.5-2.5-.5-2.5-3-14-3-14 .5 8 .5 8 1 15 1 15 1.5 1.5 1.5 1.5v1 1"/></g><path d="m512 854v1l8.5-8.5 8.5-8.5v-5.5-5.5l-.5 1.5-.5 1.5-.5 1.5-.5 1.5v1.5 1.5l-.5.5-.5.5.5.5.5.5-.5.5-.5.5v1.5 1.5l.5.5.5.5-.5.5-.5.5-.5.5-.5.5-1.5.5-1.5.5-1 .5-1 .5-.5.5-.5.5-1 1-1 1-1 .5-1 .5-.5.5-.5.5-1 1-1 1" style="fill:#583b32;stroke:#583b32"/><path d="m695 852v1l1-.5 1-.5-21-6.5-21-6.5v-2.5-2.5l-1 1.5-1 1.5v2 2l1.5.5 1.5.5 1.5 1 1.5 1 1.5 1 1.5 1h2 2 1 1l.5.5.5.5 1 .5 1 .5h1 1 1 1l.5.5.5.5h2 2l1 .5 1 .5h1 1l.5.5.5.5h1 1 1.5 1.5l.5.5.5.5h2 2" style="fill:#c5b093;stroke:#c5b093"/><path d="m626 851l3 1 1-1.5 1-1.5.5-2.5.5-2.5v-1-1-2-2-1.5-1.5l.5-.5.5-.5 1-1 1-1 .5-2 .5-2v-.5-.5l-5-14.5-5-14.5 11 8 11 8 2.5-.5 2.5-.5h1.5 1.5l.5.5.5.5 1.5.5 1.5.5.5 1 .5 1 .5.5.5.5.5.5.5.5.5.5.5.5 1 .5 1 .5h1 1l.5.5.5.5.5.5.5.5 1.5.5 1.5.5-1-1-1-1-1-1.5-1-1.5-1-1-1-1-1-1.5-1-1.5-.5-1.5-.5-1.5-1.5-.5-1.5-.5-.5-2-.5-2v-1-1h2.5 2.5l-2-.5-2-.5-.5-.5-.5-.5-.5-.5-.5-.5-.5-.5-.5-.5-.5-1-.5-1v-1-1l-.5-.5-.5-.5-.5-.5-.5-.5v-1.5-1.5-1-1-1-1-1-1l1-.5 1-.5-1-1-1-1-.5-1.5-.5-1.5-.5-.5-.5-.5-.5-1-.5-1-1-1-1-1-.5-2-.5-2-.5-1.5-.5-1.5-1-1.5-1-1.5-1.5-1-1.5-1-3 3-3 3-1.5-14-1.5-14 4-10.5 4-10.5-1 1.5-1 1.5-1 2-1 2-1.5-.5-1.5-.5-11.5-18-11.5-18-1.5-1-1.5-1 .5 1.5.5 1.5-.5 1-.5 1-2-1-2-1v.5.5l2.5 12.5 2.5 12.5-8-1.5-8-1.5 6 23 6 23v-2.5-2.5-2-2-1.5-1.5l.5-1.5.5-1.5.5-1 .5-1 1.5-.5 1.5-.5 8.5 9.5 8.5 9.5-4 6.5-4 6.5-2-1-2-1-1.5-.5-1.5-.5-1-1.5-1-1.5-1-1-1-1-1.5-1.5-1.5-1.5v1.5 1.5 1 1l1 .5 1 .5v1 1 1 1l-.5.5-.5.5h-1.5-1.5l.5 1.5.5 1.5h1 1l.5.5.5.5.5.5.5.5.5 1 .5 1 .5.5.5.5v1 1 1 1l.5 1 .5 1v1 1l-.5.5-.5.5v1 1 1 1 .5.5l-1 1-1 1 .5 2.5.5 2.5 8 24.5 8 24.5" style="fill:#822c1c;stroke:#822c1c"/><path d="m713 849l2 1 1-1.5 1-1.5v-.5-.5l-.5-1.5-.5-1.5-1.5-1-1.5-1-1.5-.5-1.5-.5h-1.5-1.5l.5 1.5.5 1.5.5 1.5.5 1.5 1 1.5 1 1.5h1 1" style="fill:#c84228;stroke:#c84228"/><g style="fill:#583b32;stroke:#583b32"><path d="m235 848l1 1-5-4.5-5-4.5v4 4l1-1.5 1-1.5v-2.5-2.5l1.5-.5 1.5-.5h2 2l.5 2 .5 2-.5 2.5-.5 2.5"/><path d="m412 847l14-8 16.5-2.5 16.5-2.5-23.5-1-23.5-1-11 3-11 3 3.5-9 3.5-9 11.5-11.5 11.5-11.5-15.5 12.5-15.5 12.5-3 8.5-3 8.5 14.5 4 14.5 4"/><path d="m505 847h2 1 1 1 1l1-.5 1-.5v-1-1l.5-.5.5-.5 1-1 1-1v-1.5-1.5l.5-.5.5-.5 1-1 1-1 .5-1.5.5-1.5-.5 1-.5 1-2 .5-2 .5-1.5-.5-1.5-.5-2 .5-2 .5-1 1-1 1-.5 2-.5 2v2 2 1 1"/><path d="m244 845l3 1h2 2l1.5-1 1.5-1h2 2 1.5 1.5l1.5-.5 1.5-.5 2 .5 2 .5 1.5-.5 1.5-.5 1.5.5 1.5.5 1.5-1 1.5-1 .5-12 .5-12 2.5 12 2.5 12 1.5-8.5 1.5-8.5 10.5-6 10.5-6-11-7.5-11-7.5-6.5-1-6.5-1 3-6.5 3-6.5-8 10-8 10-15 5.5-15 5.5-1.5-15.5-1.5-15.5 6-15.5 6-15.5 3.5-10 3.5-10 9.5-12.5 9.5-12.5 20.5-1.5 20.5-1.5 9-9 9-9 3-12.5 3-12.5-7.5 2-7.5 2-1 4.5-1 4.5-12 9.5-12 9.5-15 3-15 3-2.5 5-2.5 5-10.5 12-10.5 12-5-8.5-5-8.5-6 14.5-6 14.5-7.5 3-7.5 3 2.5-8.5 2.5-8.5 5-11.5 5-11.5 6-8.5 6-8.5-12.5 4-12.5 4-10.5 13-10.5 13-4 3.5-4 3.5 3.5-11.5 3.5-11.5 9.5-14 9.5-14 7.5-10 7.5-10-12 9.5-12 9.5-9.5 13-9.5 13-5.5-8-5.5-8 5.5.5 5.5.5-6-8.5-6-8.5 10-14.5 10-14.5-2-5.5-2-5.5-11.5 13-11.5 13-2.5 16-2.5 16-10.5 13.5-10.5 13.5-6 14.5-6 14.5-14 10.5-14 10.5-7 15.5-7 15.5 5.5-11 5.5-11 13-9.5 13-9.5 11-13 11-13 8.5-9 8.5-9 4.5 18 4.5 18 3.5 10 3.5 10 2 1.5 2 1.5-.5-16.5-.5-16.5 11.5 5 11.5 5 6.5 7 6.5 7 7.5-2 7.5-2 3.5 8 3.5 8-12 17.5-12 17.5-8.5-12.5-8.5-12.5-7-4.5-7-4.5 6 6 6 6 6.5 12 6.5 12 1 8.5 1 8.5 6-4.5 6-4.5 6-3.5 6-3.5 10.5 3.5 10.5 3.5 2.5 8 2.5 8-.5 2-.5 2"/><path d="m622 845l3 1 1-1 1-1 .5-2 .5-2v-2-2l-1-1.5-1-1.5h-2-2v1.5 1.5l.5 1.5.5 1.5v1 1l-.5 2-.5 2"/></g><path d="m280 843l1-1h1 1l-2.5-12-2.5-12-.5 12-.5 12 1.5.5 1.5.5" style="fill:#822c1c;stroke:#822c1c"/><path d="m719 841l1 1v-25.5-25.5-24.5-24.5-24-24-4-4l-.5-.5-.5-.5.5-14 .5-14v-2-2-1-1l-.5-.5-.5-.5-1.5-1.5-1.5-1.5-19.5 1.5-19.5 1.5-14-6-14-6-1.5 1.5-1.5 1.5-8 6.5-8 6.5-1-1-1-1-1-1-1-1h-1.5-1.5l-1-1-1-1v-2.5-2.5l-1.5-.5-1.5-.5v1.5 1.5l-1 1-1 1-1 1-1 1 1 .5 1 .5v1 1l1 1 1 1 1 1.5 1 1.5.5 1.5.5 1.5.5 1.5.5 1.5v-1.5-1.5l1.5-1 1.5-1 1.5.5 1.5.5 1.5 1 1.5 1 1 1 1 1 2 1 2 1 3 4.5 3 4.5-.5-1-.5-1-1.5-1-1.5-1-.5 1-.5 1v1 1l.5 1 .5 1 .5 2.5.5 2.5 1 17 1 17v2 2l-4 10.5-4 10.5 1.5 14 1.5 14 3-3 3-3-.5-1.5-.5-1.5v-1.5-1.5-2-2l.5-1.5.5-1.5v-1-1-.5-.5-2-2l-.5-.5-.5-.5v-1.5-1.5l.5-.5.5-.5.5-.5.5-.5.5-.5.5-.5v-1-1l1-.5 1-.5.5-.5.5-.5.5.5.5.5.5 1.5.5 1.5.5 1.5.5 1.5-.5 1.5-.5 1.5v1 1l.5 1 .5 1v1 1 2 2l3.5 17 3.5 17-.5-.5-.5-.5-1 .5-1 .5v1 1 1 1 1 1 1.5 1.5l.5.5.5.5.5.5.5.5v1 1l.5 1 .5 1 .5.5.5.5.5.5.5.5.5.5.5.5 2 .5 2 .5 1-1 1-1v-1-1l.5-.5.5-.5v-1.5-1.5-1-1h1 1 1 1 1.5 1.5l.5 1.5.5 1.5 1 .5 1 .5.5.5.5.5.5 1 .5 1 1 1 1 1 .5.5.5.5.5 2 .5 2 .5 1 .5 1h1 1l.5 1 .5 1 .5.5.5.5.5.5.5.5.5.5.5.5.5 1 .5 1 .5.5.5.5.5.5.5.5v1 1l1 .5 1 .5.5.5.5.5v1 1l.5.5.5.5-.5 1-.5 1 11 6.5 11 6.5" style="fill:#583b32;stroke:#583b32"/><path d="m691 838h2l.5-1.5.5-1.5v-2.5-2.5l-1-1-1-1-1.5-1-1.5-1-1.5-.5-1.5-.5h-1.5-1.5l-.5 1.5-.5 1.5v1 1l.5 1 .5 1 1.5.5 1.5.5 1 1 1 1v-.5-.5l-1-1-1-1v-1.5-1.5l1.5-.5 1.5-.5 1.5 1 1.5 1 .5 1.5.5 1.5v1 1l-1 1.5-1 1.5" style="fill:#bc7b69;stroke:#bc7b69"/><path d="m318 837l1 1 7.5-21.5 7.5-21.5 9.5-15 9.5-15 11-8.5 11-8.5v-6-6l6 8 6 8 1-1 1-1h1 1l.5-.5.5-.5.5-.5.5-.5 1-.5 1-.5.5.5.5.5.5.5.5.5.5.5.5.5.5.5.5.5.5 1 .5 1 .5.5.5.5.5 1 .5 1 1-1 1-1v-1-1l-.5-1.5-.5-1.5.5-1 .5-1v-1-1l-.5-1.5-.5-1.5.5-1 .5-1v-1-1l.5-1.5.5-1.5.5-1 .5-1 .5-.5.5-.5v-1.5-1.5l-17 2-17 2-1.5 5-1.5 5-13.5 6-13.5 6-7 12.5-7 12.5-2.5 9-2.5 9-4.5 12-4.5 12 1.5 7.5 1.5 7.5" style="fill:#583b32;stroke:#583b32"/><path d="m561 836v1l1-.5 1-.5.5-1.5.5-1.5v-2.5-2.5-2-2l.5-2 .5-2v-2-2l1 .5 1 .5.5 1.5.5 1.5 1-.5 1-.5v-2-2l-1-1-1-1-1-1.5-1-1.5-.5-2-.5-2-1-1.5-1-1.5-2 .5-2 .5.5 1 .5 1-.5 1-.5 1 .5 2 .5 2 1 1.5 1 1.5.5 1.5.5 1.5v2.5 2.5l-.5 1.5-.5 1.5v2.5 2.5l-.5 2.5-.5 2.5" style="fill:#895b4e;stroke:#895b4e"/><path d="m681 833l2-1-.5-1-.5-1v-1-1l.5-1.5.5-1.5.5-1.5.5-1.5-1-.5-1-.5.5-1.5.5-1.5-1-1.5-1-1.5-1.5-.5-1.5-.5-2-.5-2-.5-.5-1.5-.5-1.5-2-.5-2-.5-.5-1.5-.5-1.5-1.5-1-1.5-1h-2.5-2.5v1 1l.5 2 .5 2 1.5.5 1.5.5.5 1.5.5 1.5 1 1.5 1 1.5 1 1 1 1 1 1.5 1 1.5 1 1 1 1 .5 1 .5 1 .5.5.5.5 1.5.5 1.5.5.5 1.5.5 1.5 1 1 1 1" style="fill:#c84228;stroke:#c84228"/><path d="m700 829l-6-22 1.5 4 1.5 4 1.5 7 1.5 7" style="fill:#1b1a10;stroke:#1b1a10"/><g style="fill:#583b32;stroke:#583b32"><path d="m580 828l3 1 1.5-.5 1.5-.5 1-1.5 1-1.5-1-1-1-1v-1.5-1.5l-.5-1.5-.5-1.5-.5-1-.5-1-.5-.5-.5-.5-.5-.5-.5-.5.5-.5.5-.5 1-.5 1-.5.5-1 .5-1-1-.5-1-.5-.5-.5-.5-.5-.5-.5-.5-.5-.5.5-.5.5-1.5-.5-1.5-.5v1.5 1.5l-.5.5-.5.5-1-1-1-1-.5-1-.5-1-.5.5-.5.5-1 1-1 1h-.5-.5-1-1l-1 .5-1 .5 1 1.5 1 1.5 1 1 1 1v2 2l1 1 1 1v2 2l.5 1 .5 1 1.5-.5 1.5-.5h1 1l1 1 1 1"/><path d="m636 827v1l1-1 1-1 .5-1 .5-1 .5-.5.5-.5.5-1.5.5-1.5 1-1 1-1 1.5-1 1.5-1 1-1 1-1-11-8-11-8 5 14.5 5 14.5"/></g><path d="m697 827v1l.5-1 .5-1-.5-.5-.5-.5v-1-1l-.5-.5-.5-.5-1-.5-1-.5v-1-1l-.5-.5-.5-.5-.5-.5-.5-.5-.5-1-.5-1-.5-.5-.5-.5-.5-.5-.5-.5-.5-.5-.5-.5-.5-1-.5-1h-1-1l-.5-1-.5-1-.5 1-.5 1h-.5-.5l-1-.5-1-.5-.5-1-.5-1-1.5-1-1.5-1-1-1-1-1-1-.5-1-.5-.5-1.5-.5-1.5v-1.5-1.5l2.5.5 2.5.5-.5-1.5-.5-1.5h-1.5-1.5-1-1-1-1v1 1 1.5 1.5l-.5.5-.5.5v1 1l-1 1-1 1 1.5 1 1.5 1 .5 1.5.5 1.5 2 .5 2 .5.5 1.5.5 1.5 2 .5 2 .5 1.5.5 1.5.5 1 1.5 1 1.5-.5 1.5-.5 1.5 1 .5 1 .5 1.5.5 1.5.5h1 1 2 2l1 .5 1 .5.5.5.5.5.5 1 .5 1" style="fill:#822c1c;stroke:#822c1c"/><path d="m476 818l2-18 17 5.5 17 5.5 5-13.5 5-13.5 12.5-10 12.5-10 3-9.5 3-9.5-13.5 7-13.5 7-14 3-14 3-17.5 5-17.5 5-13.5 10-13.5 10 9 4.5 9 4.5 11 7 11 7" style="fill:#c84228;stroke:#c84228"/><g style="fill:#822c1c;stroke:#822c1c"><path d="m199 815l24-35-3.5-8-3.5-8-7.5 2-7.5 2-6.5-7-6.5-7-11.5-5-11.5-5 .5 16.5.5 16.5 1 1.5 1 1.5v.5.5l7 4.5 7 4.5 8.5 12.5 8.5 12.5"/><path d="m232 814l30-11 8-10 8-10 .5-1 .5-1v-1.5-1.5h.5.5l4-15 4-15 .5-2 .5-2v-.5-.5l-8.5-10.5-8.5-10.5 11.5-7 11.5-7 1-.5 1-.5h2 2 2 2l1.5-1.5 1.5-1.5-20.5 1.5-20.5 1.5-9.5 12.5-9.5 12.5-3.5 10-3.5 10-6 15.5-6 15.5 1.5 15.5 1.5 15.5"/></g><path d="m313 811l3 1 .5-1.5.5-1.5 2-.5 2-.5v-2-2l-1-1.5-1-1.5 1-1 1-1h-1.5-1.5l-1 1-1 1-1.5.5-1.5.5v2.5 2.5 2 2" style="fill:#583b32;stroke:#583b32"/><g style="fill:#c84228;stroke:#c84228"><path d="m682 810h1l.5-1 .5-1-.5-2-.5-2-.5-.5-.5-.5-1-1-1-1-.5-1-.5-1-.5-.5-.5-.5-1-.5-1-.5-2.5-.5-2.5-.5v1.5 1.5l.5 1.5.5 1.5 1 .5 1 .5 1 1 1 1 1.5 1 1.5 1 .5 1 .5 1 1 .5 1 .5"/><path d="m556 808h3l.5-1 .5-1-.5-1-.5-1-.5-1.5-.5-1.5v-1-1-1-1l-1-.5-1-.5-.5-.5-.5-.5-.5-.5-.5-.5h-1-1l-.5-1-.5-1-.5-.5-.5-.5-.5-1-.5-1h-1.5-1.5l-1 1.5-1 1.5-1 .5-1 .5 1 1 1 1 1 1 1 1 1.5 1 1.5 1 1 1 1 1 .5 2 .5 2 1 1 1 1 1 .5 1 .5"/></g><path d="m606 802h4l-.5-2.5-.5-2.5-1.5-.5-1.5-.5h-3-3l-1-1-1-1-1.5-.5-1.5-.5-2-.5-2-.5-1.5-.5-1.5-.5v-1.5-1.5l-1-1-1-1-1 1.5-1 1.5h-1-1l.5 2.5.5 2.5.5 1 .5 1 1 1.5 1 1.5.5 1 .5 1 .5-2 .5-2-.5-.5-.5-.5h1 1l1 .5 1 .5h1 1l1.5-.5 1.5-.5 1 .5 1 .5h1 1l1.5.5 1.5.5 1 .5 1 .5.5 1.5.5 1.5" style="fill:#895b4e;stroke:#895b4e"/><path d="m532 798h3l.5-1.5.5-1.5v-1-1l.5-1 .5-1-1-.5-1-.5h-1.5-1.5-1.5-1.5l-.5 2.5-.5 2.5 1 1 1 1 1 .5 1 .5" style="fill:#c84228;stroke:#c84228"/><g style="fill:#583b32;stroke:#583b32"><path d="m424 796h2l1-1 1-1h1.5 1.5l1-1 1-1-1.5-1-1.5-1-.5-1.5-.5-1.5-1-1.5-1-1.5h-2-2v2 2l-.5 2-.5 2h-1-1v1.5 1.5l2 .5 2 .5"/><path d="m606 796l3 1 1-1 1-1v-.5-.5-1-1-1-1l.5-.5.5-.5v-1-1l-.5-1-.5-1v-1-1-1-1l-.5-.5-.5-.5-.5-1-.5-1-.5-.5-.5-.5-.5-.5-.5-.5h-1-1l-.5-1.5-.5-1.5-10.5 10.5-10.5 10.5-.5-2.5-.5-2.5h1 1l1-1.5 1-1.5 1 1 1 1v1.5 1.5l1.5.5 1.5.5 2 .5 2 .5 1.5.5 1.5.5 1 1 1 1h3 3"/><path d="m535 790l2 1 1.5-1 1.5-1 .5-.5.5-.5h1 1l1.5.5 1.5.5h1.5 1.5l2-.5 2-.5h1.5 1.5l-1.5-.5-1.5-.5-.5-.5-.5-.5-.5-.5-.5-.5h-1-1v-1.5-1.5h-2.5-2.5l-1-1-1-1-.5-1-.5-1v-1.5-1.5l-1 .5-1 .5v1.5 1.5l-.5.5-.5.5-.5.5-.5.5-.5.5-.5.5-1.5-.5-1.5-.5-1-.5-1-.5 1-1 1-1 .5-1.5.5-1.5 1.5-1 1.5-1 1-1 1-1 1 1 1 1v-.5-.5l.5-.5.5-.5v-1-1l-1-.5-1-.5-.5.5-.5.5h-1-1l-.5.5-.5.5-.5 1-.5 1-.5.5-.5.5-.5.5-.5.5v1 1l-1.5.5-1.5.5v1.5 1.5l-.5.5-.5.5-.5 1.5-.5 1.5-.5 1-.5 1v1 1l1 1 1 1h1.5 1.5 1.5 1.5"/></g><path d="m557 788h2l1.5-.5 1.5-.5v-1.5-1.5-1-1l-.5-2-.5-2-.5-1-.5-1-.5 2-.5 2-1.5.5-1.5.5-.5-1-.5-1-.5.5-.5.5-1.5.5-1.5.5-1 .5-1 .5v1.5 1.5h1 1l.5.5.5.5.5.5.5.5 1.5.5 1.5.5h.5.5" style="fill:#1b1a10;stroke:#1b1a10"/><g style="fill:#583b32;stroke:#583b32"><path d="m292 786l10-32-1-5.5-1-5.5-.5 1-.5 1v1.5 1.5l.5 1.5.5 1.5v1 1l-.5 2-.5 2-1 1-1 1-.5 2-.5 2v2 2l-.5 2-.5 2h-1-1l-.5-1.5-.5-1.5.5-1.5.5-1.5v-2.5-2.5l-1-1-1-1 .5-2 .5-2 .5-1.5.5-1.5 1-1 1-1 1-1.5 1-1.5-.5-1-.5-1-1 1-1 1v1 1l-1 .5-1 .5-.5.5-.5.5-.5.5-.5.5h-1-1v-1.5-1.5l-4 15-4 15 1-.5 1-.5-.5-1.5-.5-1.5 1-1.5 1-1.5 1 1 1 1v1.5 1.5 1 1l.5 2 .5 2v1 1l1 .5 1 .5 1.5.5 1.5.5h.5.5"/><path d="m413 785l2 1-5.5-7.5-5.5-7.5 1 2 1 2 1 1.5 1 1.5.5 1.5.5 1.5 1 1.5 1 1.5 1 .5 1 .5"/></g><path d="m658 785l-7-34v.5.5l.5 1 .5 1 .5 1 .5 1v1.5 1.5l-.5 1.5-.5 1.5 1 1 1 1-.5 2-.5 2v2 2l.5 2 .5 2 .5.5.5.5-.5 1-.5 1 .5 1.5.5 1.5 1 1 1 1 .5.5.5.5" style="fill:#895b4e;stroke:#895b4e"/><path d="m533 781l3 1 .5-.5.5-.5.5-.5.5-.5.5-.5.5-.5v-1.5-1.5l1-.5 1-.5v-1-1l-1-1-1-1-1 1-1 1-1.5 1-1.5 1-.5 1.5-.5 1.5-1 1-1 1 1 .5 1 .5" style="fill:#1b1a10;stroke:#1b1a10"/><path d="m653 778l1 1 .5-1 .5-1-.5-.5-.5-.5-.5-2-.5-2v-2-2l.5-2 .5-2-1-1-1-1 .5-1.5.5-1.5v-1.5-1.5l-.5-1-.5-1-.5-1-.5-1h-2-2-1-1l-1-1.5-1-1.5-.5 1.5-.5 1.5v2 2 1.5 1.5l.5 1.5.5 1.5 1.5 1 1.5 1 1 1.5 1 1.5.5 1.5.5 1.5.5 2 .5 2 1 1 1 1 .5 1 .5 1" style="fill:#c84228;stroke:#c84228"/><g style="fill:#583b32;stroke:#583b32"><path d="m551 775h3l.5-1.5.5-1.5h1.5 1.5l.5 1 .5 1 .5 1 .5 1-4.5-.5-4.5-.5"/><path d="m620 773l8-13-8.5-9.5-8.5-9.5v1.5 1.5l-.5.5-.5.5-.5.5-.5.5.5.5.5.5.5 1 .5 1 1.5.5 1.5.5v1 1l-.5 1-.5 1 .5 1.5.5 1.5v1 1l.5 1 .5 1 1 1 1 1v1 1l.5 1 .5 1-1 .5-1 .5h-1.5-1.5l-.5-1-.5-1-.5-.5-.5-.5-.5-1-.5-1-.5-1.5-.5-1.5v-1-1-1-1-1-1l.5-1 .5-1 .5-.5.5-.5-.5-.5-.5-.5-.5-.5-.5-.5-1-.5-1-.5.5-.5.5-.5-.5-1.5-.5-1.5-.5 1.5-.5 1.5v1.5 1.5 2 2 2.5 2.5 1.5 1.5l1.5 1.5 1.5 1.5 1 1 1 1 1 1.5 1 1.5 1.5.5 1.5.5 2 1 2 1"/></g><path d="m604 772v1h1.5 1.5l.5-.5.5-.5v-1-1-1-1l-1-.5-1-.5v-1-1-1.5-1.5-1.5-1.5l-6-23-6-23 8 1.5 8 1.5-2.5-12.5-2.5-12.5-1.5 1-1.5 1h-1-1l-1.5 1-1.5 1-1 1-1 1h-1.5-1.5l-1 1-1 1h-.5-.5l-.5 1.5-.5 1.5-.5.5-.5.5v1 1 1 1l-.5 1-.5 1v1 1l-.5.5-.5.5-.5.5-.5.5v1.5 1.5 1 1l-.5.5-.5.5-1.5-.5-1.5-.5-21-10-21-10-1.5 1.5-1.5 1.5 15.5 7.5 15.5 7.5 5 10 5 10h2.5 2.5l11.5 18 11.5 18" style="fill:#c84228;stroke:#c84228"/><path d="m293 771h2l.5-2 .5-2v-2-2l.5-2 .5-2 1-1 1-1 .5-2 .5-2v-1-1l-.5-1.5-.5-1.5v-1.5-1.5l.5-1 .5-1v-1.5-1.5l1-1.5 1-1.5 1-1 1-1v-1.5-1.5-1-1l-.5-1-.5-1-1.5-.5-1.5-.5h-1-1l-.5.5-.5.5-.5.5-.5.5-.5 1-.5 1v2 2 1 1l.5 1 .5 1-.5 1-.5 1 .5 1.5.5 1.5.5 1 .5 1-1 1.5-1 1.5-1 1-1 1-.5 1.5-.5 1.5-.5 2-.5 2 1 1 1 1v2.5 2.5l-.5 1.5-.5 1.5.5 1.5.5 1.5" style="fill:#822c1c;stroke:#822c1c"/><path d="m403 769l1 1v-3-3-.5-.5-1-1l-.5-1-.5-1-2.5.5-2.5.5h-1.5-1.5l.5 1.5.5 1.5 1 1 1 1 1 1.5 1 1.5 1.5.5 1.5.5" style="fill:#583b32;stroke:#583b32"/><path d="m247 768h2l1-1 1-1 1.5-1 1.5-1-.5-.5-.5-.5-1.5-1-1.5-1-1-1-1-1-1.5 1-1.5 1v2 2l.5 1.5.5 1.5h.5.5" style="fill:#c84228;stroke:#c84228"/><path d="m616 768l2-1-.5-1-.5-1v-1-1l-1-1-1-1-.5-1-.5-1v-1-1l-.5-1.5-.5-1.5.5-1 .5-1v-1-1l-1.5-.5-1.5-.5-.5-1-.5-1-.5-.5-.5-.5.5-.5.5-.5.5-.5.5-.5v-1.5-1.5l-1.5.5-1.5.5-.5 1-.5 1 .5 1.5.5 1.5-.5.5-.5.5 1 .5 1 .5.5.5.5.5.5.5.5.5-.5.5-.5.5-.5 1-.5 1v1 1 1 1 1 1l.5 1.5.5 1.5.5 1 .5 1 .5.5.5.5.5 1 .5 1h1.5 1.5" style="fill:#1b1a10;stroke:#1b1a10"/><g style="fill:#583b32;stroke:#583b32"><path d="m465 765l-8-34 2 16.5 2 16.5 2 .5 2 .5"/><path d="m495 756l6-10-.5-7.5-.5-7.5-1 1-1 1-1 1-1 1-1 1-1 1 1 1.5 1 1.5-2 1-2 1-.5 1-.5 1 .5.5.5.5.5 1 .5 1 .5.5.5.5-.5 1.5-.5 1.5v1.5 1.5l1 1 1 1"/></g><path d="m645 752h2 2 2v-.5-.5-2-2-1-1l-.5-1-.5-1v-1-1l.5-1.5.5-1.5-.5-1.5-.5-1.5-.5 1-.5 1-.5.5-.5.5v1 1 1 1l-.5 1-.5 1-.5.5-.5.5-.5.5-.5.5-1 .5-1 .5v1 1l1 1.5 1 1.5" style="fill:#822c1c;stroke:#822c1c"/><path d="m288 751h2l.5-.5.5-.5.5-.5.5-.5 1-.5 1-.5v-1-1l1-1 1-1-.5-1.5-.5-1.5-1.5-1-1.5-1-1 1.5-1 1.5-.5 1-.5 1-.5 2-.5 2v1.5 1.5" style="fill:#1b1a10;stroke:#1b1a10"/><path d="m619 751l3 1 .5-1.5.5-1.5 1-1.5 1-1.5v-1-1l-1.5-1-1.5-1-.5-1.5-.5-1.5-1-1-1-1-.5-.5-.5-.5-.5-1-.5-1h-1.5-1.5v2 2l.5 1.5.5 1.5.5 2 .5 2 .5 1.5.5 1.5 1 1.5 1 1.5" style="fill:#c84228;stroke:#c84228"/><path d="m220 749h2l.5-1.5.5-1.5 1-1.5 1-1.5v-1-1-1.5-1.5l-1-1-1-1-1.5 1-1.5 1-1 1-1 1-.5 1.5-.5 1.5.5 2 .5 2 1 1 1 1" style="fill:#822c1c;stroke:#822c1c"/><g style="fill:#895b4e;stroke:#895b4e"><path d="m643 746v1l1-.5 1-.5.5-.5.5-.5.5-.5.5-.5.5-1 .5-1v-1-1-1-1l.5-.5.5-.5.5-1 .5-1-.5-1.5-.5-1.5-.5-.5-.5-.5-.5.5-.5.5-1 .5-1 .5v1 1l-.5.5-.5.5-.5.5-.5.5-.5.5-.5.5v1.5 1.5l.5.5.5.5v2 2"/><path d="m579 745l3 1v-1-1-1-1-1.5-1.5l-.5-1.5-.5-1.5h-2.5-2.5l-.5 1.5-.5 1.5v1.5 1.5l.5.5.5.5 1.5 1 1.5 1"/></g><path d="m289 743v1l.5-1 .5-1 1-1.5 1-1.5 1.5 1 1.5 1 .5-1 .5-1-.5-1-.5-1v-1-1-2-2l.5-1 .5-1 .5-.5.5-.5.5-.5.5-.5h1 1l1.5.5 1.5.5.5 1 .5 1v1 1 1.5 1.5l1.5-1.5 1.5-1.5-.5-1.5-.5-1.5-.5-2-.5-2-1-1-1-1 .5-2 .5-2 .5-1.5.5-1.5v-1-1l1-1.5 1-1.5v-2-2l.5-1.5.5-1.5-1.5 1.5-1.5 1.5h-2-2-2-2l.5 1 .5 1v.5.5l-.5 1.5-.5 1.5.5 2 .5 2v2 2l.5 1 .5 1-1 1-1 1-1.5 1-1.5 1-.5 1.5-.5 1.5h-1-1l-2-1-2-1h-1-1l.5-1 .5-1 1-1 1-1 1-1.5 1-1.5.5-1.5.5-1.5.5-2 .5-2 .5-1.5.5-1.5 1-1.5 1-1.5-11.5 7-11.5 7 8.5 10.5 8.5 10.5" style="fill:#583b32;stroke:#583b32"/><path d="m479 743l3 1h1 1l1.5-1 1.5-1 1.5.5 1.5.5 1-.5 1-.5 2-1 2-1-1-1.5-1-1.5 1-1 1-1 1-1 1-1 1-1 1-1 .5-1 .5-1 .5-2 .5-2-.5-1.5-.5-1.5-1-1.5-1-1.5-.5-1.5-.5-1.5-1-1.5-1-1.5-1-1-1-1-1.5-.5-1.5-.5-.5-2-.5-2-1-1-1-1h-1.5-1.5l-14.5-6-14.5-6 1.5 9 1.5 9 12.5 13.5 12.5 13.5v1 1 1 1l-1.5.5-1.5.5-1 .5-1 .5" style="fill:#1b1a10;stroke:#1b1a10"/><path d="m151 736l8-26-4 11.5-4 11.5v1.5 1.5" style="fill:#822c1c;stroke:#822c1c"/><g style="fill:#583b32;stroke:#583b32"><path d="m483 736l1 1-12.5-13.5-12.5-13.5-1.5-9-1.5-9 14.5 6 14.5 6 5-6 5-6 6.5 16 6.5 16 6.5-7 6.5-7-6-12-6-12h-1.5-1.5l.5-.5.5-.5v-1-1l1-.5 1-.5h2 2 1 1l1 .5 1 .5 1 1 1 1h1 1v.5.5l1 1 1 1 .5.5.5.5.5 2 .5 2v1.5 1.5l1 1 1 1 1 1 1 1 1.5 1 1.5 1 1.5-.5 1.5-.5 1.5-1.5 1.5-1.5-1-.5-1-.5-.5-2.5-.5-2.5.5-4 .5-4 4.5-5.5 4.5-5.5-10-10.5-10-10.5-1-.5-1-.5-1.5-.5-1.5-.5-17.5-2.5-17.5-2.5.5 2 .5 2 .5 1 .5 1v1 1l-.5.5-.5.5v1.5 1.5l1.5.5 1.5.5.5-.5.5-.5h1.5 1.5 2 2l.5-.5.5-.5.5.5.5.5h1 1l1 .5 1 .5 2-.5 2-.5 1.5 1 1.5 1h2 2l1.5 1 1.5 1 1 1 1 1 .5 2 .5 2 .5 1 .5 1-.5 1.5-.5 1.5h-1.5-1.5-2-2-2.5-2.5-2-2-1-1-1.5-1.5v4.5 4.5l-30 4.5-30 4.5 11-12.5 11-12.5-16-3-16-3 .5 1 .5 1 .5 2 .5 2 1 1 1 1v1 1l1.5 1 1.5 1 .5 1.5.5 1.5-2 .5-2 .5-.5 1.5-.5 1.5-1 .5-1 .5-1-1-1-1-1 .5-1 .5-.5.5-.5.5-.5-.5-.5-.5-.5-.5-.5-.5-.5-.5-.5-.5v-1-1l-.5-1-.5-1v-1-1l-.5-.5-.5-.5v-1-1l-.5-1-.5-1 .5-1.5.5-1.5-1-.5-1-.5-.5 1.5-.5 1.5v2 2l1 1.5 1 1.5v1 1l.5 1.5.5 1.5-1 1.5-1 1.5 1 1 1 1h-1.5-1.5l-2-18.5-2-18.5v-1-1l-.5-.5-.5-.5.5-.5.5-.5.5-1 .5-1 .5-14.5.5-14.5h-1.5-1.5l-1.5.5-1.5.5-2 1-2 1-13 15.5-13 15.5 5-15 5-15h-.5-.5l-1.5-.5-1.5-.5h-2-2l-2 .5-2 .5h-1-1l-1.5.5-1.5.5-.5-2-.5-2v-2-2l-.5-1-.5-1v-12.5-12.5l9.5-13 9.5-13-16.5-1.5-16.5-1.5-16 4.5-16 4.5 4 14.5 4 14.5-11 10.5-11 10.5-6-9.5-6-9.5-10.5-11-10.5-11-4-12-4-12-10.5 1-10.5 1-8-16.5-8-16.5-5.5-19-5.5-19-3.5-20-3.5-20-4.5-19.5-4.5-19.5 10.5-7 10.5-7 22 .5 22 .5 18.5-6 18.5-6 12.5-12 12.5-12 10.5-12.5 10.5-12.5 13 10.5 13 10.5 10.5 13 10.5 13 17.5 6.5 17.5 6.5h22.5 22.5l17.5-6 17.5-6 10.5-10.5 10.5-10.5-.5 20-.5 20-4 18.5-4 18.5-3.5 15.5-3.5 15.5-4.5 18-4.5 18-4.5 22.5-4.5 22.5 12 8 12 8 11-11.5 11-11.5 1 .5 1 .5 1.5-.5 1.5-.5.5-2 .5-2 1 1 1 1 2 1 2 1 7-6.5 7-6.5 8.5-7 8.5-7 1.5-11 1.5-11 11-4.5 11-4.5-10.5-4-10.5-4v-3-3l4.5-6 4.5-6-3-5.5-3-5.5-5.5 7-5.5 7 .5-6 .5-6-5.5-6-5.5-6 6.5-5.5 6.5-5.5 2-16.5 2-16.5-3-13.5-3-13.5 2-10.5 2-10.5-1.5-14-1.5-14-8-8-8-8-8-.5-8-.5-8-9.5-8-9.5-18.5-3-18.5-3-20-2.5-20-2.5-22 1-22 1-17.5 7-17.5 7-16.5 4-16.5 4-16-6.5-16-6.5-18-4.5-18-4.5-19.5-1-19.5-1-18.5 2.5-18.5 2.5-1-16.5-1-16.5 6.5-16 6.5-16 9.5-15 9.5-15 9.5-13 9.5-13 14-4 14-4 5.5-7 5.5-7-9.5-8-9.5-8-14 1-14 1-11 5.5-11 5.5-14.5 3-14.5 3-14 9-14 9-11 11.5-11 11.5-8.5 12-8.5 12-.5 6.5-.5 6.5-5 11.5-5 11.5-.5 8-.5 8-1.5 13.5-1.5 13.5-3.5 11-3.5 11-10.5 9-10.5 9 3 17 3 17-10 12.5-10 12.5-8.5 12-8.5 12-13 7-13 7 11 3.5 11 3.5 12.5 11 12.5 11-10 7.5-10 7.5 1.5 9.5 1.5 9.5 1.5 8 1.5 8 5-13.5 5-13.5 7 12.5 7 12.5 10.5-13.5 10.5-13.5-1.5 12-1.5 12 6 9.5 6 9.5 1 21.5 1 21.5-21.5 4-21.5 4-1 1-1 1h-2.5-2.5l-1.5.5-1.5.5-1 1-1 1-1.5 1-1.5 1v1.5 1.5l-.5 1-.5 1 1 1 1 1 1.5.5 1.5.5 1 .5 1 .5 1 9 1 9-.5-1-.5-1 1-1 1-1-.5-1-.5-1-.5-1.5-.5-1.5 1-1 1-1 1-.5 1-.5v-1-1l-1-.5-1-.5h-1-1l-.5-1.5-.5-1.5-1 1.5-1 1.5.5 1 .5 1-1.5.5-1.5.5-1-.5-1-.5-1.5.5-1.5.5-1 .5-1 .5-1 1-1 1-1.5.5-1.5.5-1 .5-1 .5v1.5 1.5 1.5 1.5l-.5 1.5-.5 1.5-1 1.5-1 1.5h-1-1l-1.5 1-1.5 1-1.5.5-1.5.5h-1-1l-.5-.5-.5-.5-1.5.5-1.5.5-.5-.5-.5-.5v-1-1l-.5.5-.5.5-1 .5-1 .5-.5.5-.5.5v1 1l-.5.5-.5.5-1 .5-1 .5-.5 1.5-.5 1.5-1 1-1 1-10.5 12-10.5 12h-.5-.5v25 25l2.5.5 2.5.5v2 2l1 1 1 1 .5.5.5.5-.5 1-.5 1-.5 1.5-.5 1.5 1.5-.5 1.5-.5v1.5 1.5l-.5 1.5-.5 1.5-1.5 1-1.5 1-1 1-1 1h-1-1-.5-.5v2 2 2.5 2.5 1.5 1.5l13.5-16 13.5-16-2 .5-2 .5-1.5-.5-1.5-.5 11.5-7 11.5-7 1.5-.5 1.5-.5.5-1.5.5-1.5 1.5-1 1.5-1 1-1 1-1 1-1.5 1-1.5h1 1l1.5 1 1.5 1h1.5 1.5v-.5-.5l-.5-1-.5-1-.5-1.5-.5-1.5 1-1 1-1 1.5-1 1.5-1h2 2l2-.5 2-.5 1.5-.5 1.5-.5h.5.5l14.5-11 14.5-11-19 4.5-19 4.5-10 9.5-10 9.5h-1-1l-.5-1.5-.5-1.5 2-.5 2-.5 1.5-.5 1.5-.5 1.5-1 1.5-1 .5-1.5.5-1.5v-1.5-1.5l-.5 1-.5 1-.5 1-.5 1-1.5 1-1.5 1-1.5.5-1.5.5-1.5.5-1.5.5h-1-1-1.5-1.5l-2-.5-2-.5v-1.5-1.5-2.5-2.5-2-2l1.5-1 1.5-1 .5-1 .5-1 1-1 1-1 .5-.5.5-.5.5-.5.5-.5 1-.5 1-.5 21-8.5 21-8.5h.5.5l15.5 3 15.5 3 2.5-8 2.5-8 .5-10 .5-10 2.5-6 2.5-6 5-13.5 5-13.5 5-10.5 5-10.5-2-16.5-2-16.5 10-11 10-11-9.5 1-9.5 1-5 10.5-5 10.5-7 1.5-7 1.5-1-15.5-1-15.5 2-15.5 2-15.5 10-13 10-13 3-14.5 3-14.5-7.5 4-7.5 4 1-9.5 1-9.5 3.5-2 3.5-2 4-8.5 4-8.5 3-7 3-7-.5-14-.5-14 5 12.5 5 12.5 6.5 17 6.5 17 6.5 5 6.5 5 12.5 7 12.5 7h16 16l-9 2.5-9 2.5-18.5-3-18.5-3 3 14.5 3 14.5 4 16.5 4 16.5 3 17.5 3 17.5 4.5 18 4.5 18 6 17 6 17 9 14.5 9 14.5 9.5 12 9.5 12-12-3.5-12-3.5-16-2.5-16-2.5 10-4.5 10-4.5-1.5-5.5-1.5-5.5-17-1.5-17-1.5-9.5-2-9.5-2 14.5-3 14.5-3 3.5-3 3.5-3-5.5-12-5.5-12-9 3-9 3-9 14.5-9 14.5-3.5 13-3.5 13-3 13.5-3 13.5 15 1.5 15 1.5-3 .5-3 .5-1.5.5-1.5.5-1.5-.5-1.5-.5 6.5-.5 6.5-.5h16 16l-13.5 6-13.5 6 6 1.5 6 1.5-1 13.5-1 13.5 11.5 1 11.5 1-9.5-5-9.5-5 11.5-7 11.5-7v12.5 12.5l-2-.5-2-.5 23 10.5 23 10.5-2-.5-2-.5-7.5-12-7.5-12 12.5-4 12.5-4h13 13l13.5-2.5 13.5-2.5 13 1.5 13 1.5 11 4.5 11 4.5 12.5 1 12.5 1 4 14 4 14 5.5 12 5.5 12 7.5 1.5 7.5 1.5-1-.5-1-.5-1.5-.5-1.5-.5-2-.5-2-.5-1.5.5-1.5.5-1.5-.5-1.5-.5 13 11.5 13 11.5 16 4.5 16 4.5"/><path d="m618 736l1 1 1.5-1.5 1.5-1.5-.5-2-.5-2-.5-1.5-.5-1.5-1-.5-1-.5v-2-2h-1.5-1.5v1 1l-.5 1.5-.5 1.5v2.5 2.5 1 1h1.5 1.5l.5 1 .5 1"/></g><path d="m652 736l25-11 16.5 1 16.5 1 1.5-10 1.5-10-5-6.5-5-6.5-9.5 4-9.5 4-13-10.5-13-10.5-1 16-1 16-2 11.5-2 11.5" style="fill:#1b1a10;stroke:#1b1a10"/><path d="m0 731v1l17.5-6.5 17.5-6.5-2-5.5-2-5.5-15.5 6.5-15.5 6.5v3 3 2 2" style="fill:#583b32;stroke:#583b32"/><path d="m291 730h2l.5-1.5.5-1.5 1.5-1 1.5-1 1-1 1-1-.5-1-.5-1v-2-2l-.5-2-.5-2 .5-1.5.5-1.5v-.5-.5l-.5-1-.5-1-1 .5-1 .5-1 1.5-1 1.5-.5 1.5-.5 1.5-.5 2-.5 2-.5 1.5-.5 1.5-1 1.5-1 1.5-1 1-1 1-.5 1-.5 1h1 1l2 1 2 1" style="fill:#1b1a10;stroke:#1b1a10"/><path d="m635 725l3 1 1-2 1-2v-.5-.5l-2-1-2-1-1.5-1-1.5-1-.5-1.5-.5-1.5.5-2 .5-2v-1-1l-1-1-1-1 1-.5 1-.5 1 1 1 1 1 1.5 1 1.5 1.5-14.5 1.5-14.5-.5-.5-.5-.5-.5-1-.5-1-.5-.5-.5-.5v-1-1-1-1l-.5-.5-.5-.5v-1.5-1.5-1-1h-1-1l-.5-.5-.5-.5h-1-1l-.5 1-.5 1-.5.5-.5.5.5.5.5.5.5.5.5.5-.5 1-.5 1-.5.5-.5.5h-1-1l-.5.5-.5.5.5 1 .5 1-.5 1-.5 1-.5 2-.5 2-.5 2-.5 2-.5.5-.5.5 1 .5 1 .5.5 1.5.5 1.5h-1-1l-1-2-1-2-1-1.5-1-1.5-1.5-.5-1.5-.5h-1-1l-1.5 1.5-1.5 1.5v1 1l11.5 18 11.5 18" style="fill:#c84228;stroke:#c84228"/><path d="m640 721v1l1-1.5 1-1.5v-2-2l-.5-.5-.5-.5-.5-1-.5-1-.5-.5-.5-.5-1-.5-1-.5-1-1.5-1-1.5-1-1-1-1-1 .5-1 .5 1 1 1 1v1 1l-.5 2-.5 2 .5 1.5.5 1.5 1.5 1 1.5 1 2 1 2 1" style="fill:#bc7b69;stroke:#bc7b69"/><path d="m389 719l19-21-7.5 2-7.5 2-2 8.5-2 8.5" style="fill:#583b32;stroke:#583b32"/><g style="fill:#822c1c;stroke:#822c1c"><path d="m580 718l3 1 .5-.5.5-.5v-1-1-1.5-1.5l.5-.5.5-.5.5-.5.5-.5v-1-1l.5-1 .5-1v-1-1-1-1l.5-.5.5-.5.5-1.5.5-1.5-.5-.5-.5-.5v-1.5-1.5l1-2 1-2-1-.5-1-.5-1 1-1 1h-1-1v-1.5-1.5l-.5-.5-.5-.5-1-.5-1-.5-2.5-11.5-2.5-11.5-9-6.5-9-6.5v-.5-.5-.5-.5h-1-1l.5-1 .5-1 .5.5.5.5v-1-1-.5-.5l-.5-.5-.5-.5-.5-.5-.5-.5-.5-.5-.5-.5v-1-1l-1-.5-1-.5-.5-.5-.5-.5.5-1 .5-1-1-.5-1-.5-.5-1-.5-1h-1-1-1-1l-.5-.5-.5-.5-.5.5-.5.5.5 1 .5 1-6.5 9-6.5 9-.5-1-.5-1-1-.5-1-.5-.5.5-.5.5-1.5.5-1.5.5 10 10.5 10 10.5-4.5 5.5-4.5 5.5v1.5 1.5h1 1l.5 1 .5 1 .5.5.5.5v1 1l-.5.5-.5.5h-1-1l-1-.5-1-.5.5 2.5.5 2.5 1 .5 1 .5 21 10 21 10"/><path d="m641 714l1 1-1-17-1-17-1.5 14.5-1.5 14.5 1 .5 1 .5.5.5.5.5.5 1 .5 1"/><path d="m440 707l-15-3 1.5.5 1.5.5 1.5-.5 1.5-.5 2 .5 2 .5 1.5.5 1.5.5 1 .5 1 .5"/></g><path d="m588 698l1 1h.5.5l1-1 1-1h1.5 1.5l1-1 1-1 1.5-1 1.5-1h1 1l1.5-1 1.5-1v-.5-.5l-1.5-.5-1.5-.5-.5-.5-.5-.5-1 .5-1 .5-.5.5-.5.5-.5.5-.5.5h-1-1l-.5-.5-.5-.5-2 .5-2 .5-1 2-1 2v1.5 1.5" style="fill:#895b4e;stroke:#895b4e"/><path d="m1 696h2l1-1 1-1 1.5-1 1.5-1 .5-1.5.5-1.5v-1.5-1.5l-1.5.5-1.5.5-1.5 1-1.5 1-1.5.5-1.5.5v2 2 1 1h.5.5" style="fill:#1b1a10;stroke:#1b1a10"/><g style="fill:#895b4e;stroke:#895b4e"><path d="m537 693h2l.5-.5.5-.5v-1-1l-.5-.5-.5-.5-.5-1-.5-1h-1-1v-1.5-1.5l-.5 4-.5 4 1 .5 1 .5"/><path d="m523 692l2 1-.5-2-.5-2-.5-.5-.5-.5-1-1-1-1v-.5-.5h-1-1l-1-1-1-1-1-.5-1-.5h-1-1-2-2l-1 .5-1 .5v1 1l-.5.5-.5.5h1.5 1.5l2 1.5 2 1.5 1.5.5 1.5.5h1.5 1.5 1 1l1 1 1 1"/></g><path d="m609 692l1-2-.5-1.5-.5-1.5-.5-1-.5-1-1.5-1-1.5-1h-2-2l-1 1-1 1-1-1.5-1-1.5h-2-2l-1.5-1-1.5-1-1 1-1 1-.5 2-.5 2-1.5 1.5-1.5 1.5v1.5 1.5h1 1l1-1 1-1 1 .5 1 .5 2-.5 2-.5.5.5.5.5h1 1l.5-.5.5-.5.5-.5.5-.5 1-.5 1-.5.5.5.5.5 1.5.5 1.5.5 2 1 2 1" style="fill:#583b32;stroke:#583b32"/><path d="m624 692h2l-.5-1.5-.5-1.5-1-.5-1-.5.5-.5.5-.5.5-2 .5-2-1.5-.5-1.5-.5-1-.5-1-.5-2-.5-2-.5-1-1-1-1-1-.5-1-.5v1.5 1.5l-.5.5-.5.5-1.5-.5-1.5-.5h-1.5-1.5l1.5 1.5 1.5 1.5 1 1.5 1 1.5 1 .5 1 .5 1.5-1.5 1.5-1.5h1 1l1.5.5 1.5.5 1 1.5 1 1.5 1 2 1 2" style="fill:#bc7b69;stroke:#bc7b69"/><path d="m439 690l60-9v-4.5-4.5l-19-3.5-19-3.5-11 12.5-11 12.5" style="fill:#1b1a10;stroke:#1b1a10"/><path d="m0 689v1l1.5-.5 1.5-.5 1.5-1 1.5-1 .5-1.5.5-1.5.5-1 .5-1-.5-.5-.5-.5-1-1-1-1v-2-2l-2.5-.5-2.5-.5v3 3 2.5 2.5 2 2" style="fill:#822c1c;stroke:#822c1c"/><path d="m583 688l1 1 1.5-1.5 1.5-1.5.5-2 .5-2 1-1 1-1 1.5 1 1.5 1h2 2l1 1.5 1 1.5 1-1 1-1h2 2l1.5 1 1.5 1 .5 1 .5 1 1.5 1 1.5 1v-1-1l-1-.5-1-.5-1-1.5-1-1.5-1.5-1.5-1.5-1.5h-1.5-1.5l-1.5.5-1.5.5-1.5-.5-1.5-.5-1.5-1-1.5-1-.5-1.5-.5-1.5-1-.5-1-.5h-1-1v2.5 2.5l-1 1-1 1-.5 2-.5 2-1 1.5-1 1.5" style="fill:#895b4e;stroke:#895b4e"/><path d="m581 687l2 1 1-1.5 1-1.5.5-2 .5-2 1-1 1-1v-2.5-2.5h1 1l1 .5 1 .5.5 1.5.5 1.5 1.5 1 1.5 1 1.5.5 1.5.5 1.5-.5 1.5-.5h1.5 1.5 1.5 1.5l1.5.5 1.5.5.5-.5.5-.5v-1.5-1.5l1-14 1-14 1-1 1-1 1-1 1-1v-1.5-1.5l-1-1-1-1-1.5-1-1.5-1 1.5-1.5 1.5-1.5-14.5 1-14.5 1-.5.5-.5.5-1 1.5-1 1.5-1.5 1-1.5 1-1 1-1 1h-1-1l-1.5-.5-1.5-.5-2.5.5-2.5.5-1.5.5-1.5.5-1.5.5-1.5.5-.5.5-.5.5-1 .5-1 .5-1 1-1 1 9 6.5 9 6.5 2.5 11.5 2.5 11.5" style="fill:#c84228;stroke:#c84228"/><g style="fill:#895b4e;stroke:#895b4e"><path d="m719 685l1 1v-3-3-2.5-2.5-2-2-2.5-2.5-2-2-2.5-2.5l-.5 14-.5 14"/><path d="m622 682l3 1 .5-2 .5-2-.5-1.5-.5-1.5v-2-2h-1-1l.5-1 .5-1-.5-1.5-.5-1.5-.5-.5-.5-.5v-1.5-1.5l-.5-1.5-.5-1.5-.5-1.5-.5-1.5-1-1.5-1-1.5-1-1-1-1v-1-1l-1-.5-1-.5-1 14-1 14 1 .5 1 .5 1 1 1 1 2 .5 2 .5 1 .5 1 .5"/></g><g style="fill:#822c1c;stroke:#822c1c"><path d="m417 681h3l-1-1-1-1 1-1.5 1-1.5-.5-1.5-.5-1.5v-1-1l-1-1.5-1-1.5v-2-2l.5-1.5.5-1.5 1 .5 1 .5 1.5-1 1.5-1 1-1 1-1 2 .5 2 .5 16 3 16 3 19 3.5 19 3.5h1.5 1.5 1 1 2 2 2.5 2.5 2 2 1.5 1.5l.5-1.5.5-1.5h-1.5-1.5l-1.5-1.5-1.5-1.5-1.5.5-1.5.5-2-.5-2-.5-1.5-.5-1.5-.5-1-1.5-1-1.5v-2-2l-1-.5-1-.5h-1-1l-.5-.5-.5-.5-.5.5-.5.5h-2-2-1.5-1.5l-.5.5-.5.5-1.5-.5-1.5-.5v-1.5-1.5l.5-.5.5-.5v-1-1l-.5-1-.5-1-.5 1-.5 1-1 1.5-1 1.5-1.5.5-1.5.5h-1-1l3.5-5 3.5-5 17.5 2.5 17.5 2.5-5-10-5-10-13-1.5-13-1.5 15.5-4 15.5-4 1-2 1-2 15.5-6 15.5-6 1-.5 1-.5 1-1 1-1 .5-1.5.5-1.5 1-.5 1-.5 1-1.5 1-1.5v-1.5-1.5l-.5-1-.5-1-1 .5-1 .5-1.5-.5-1.5-.5-.5-1.5-.5-1.5-.5-.5-.5-.5-.5-2-.5-2-1.5-.5-1.5-.5.5.5.5.5-.5.5-.5.5v1 1l-.5 1-.5 1 1 .5 1 .5 1 1.5 1 1.5-.5 1.5-.5 1.5-1 1.5-1 1.5-1.5.5-1.5.5h-1-1l-1.5-.5-1.5-.5-.5-.5-.5-.5.5-1 .5-1 1-1 1-1 .5-1.5.5-1.5-1.5-.5-1.5-.5-1-.5-1-.5v-2-2l.5-2 .5-2 1.5-.5 1.5-.5 1-1 1-1 2-.5 2-.5 1 1 1 1 1 1.5 1 1.5-.5 1-.5 1-10.5-1.5-10.5-1.5-2-11-2-11 1.5-.5 1.5-.5-12-8-12-8 .5 1 .5 1 .5.5.5.5-.5.5-.5.5.5.5.5.5-.5 1-.5 1h-1-1l-.5-.5-.5-.5v-1-1l-1-1.5-1-1.5.5 1.5.5 1.5-.5 1.5-.5 1.5-.5.5-.5.5-1 .5-1 .5h-1.5-1.5l-2-.5-2-.5-15.5 1.5-15.5 1.5-16 8.5-16 8.5-6.5 9-6.5 9-15.5 8-15.5 8 5 4.5 5 4.5-2-.5-2-.5h-2.5-2.5-2-2l-1.5-1-1.5-1-1-.5-1-.5-1.5-.5-1.5-.5.5 1 .5 1v2 2l.5 2 .5 2 1.5-.5 1.5-.5h1 1l2-.5 2-.5h2 2l1.5.5 1.5.5h.5.5l1.5-.5 1.5-.5 1 .5 1 .5h1 1 1 1l.5-.5.5-.5h1 1l.5.5.5.5.5-1 .5-1 1 .5 1 .5 2-1 2-1 1.5-.5 1.5-.5h1.5 1.5v-.5-.5l7.5-9 7.5-9v-1.5-1.5l.5-1 .5-1-.5-2-.5-2 1-1 1-1 1.5-.5 1.5-.5.5-.5.5-.5.5 1 .5 1 1 .5 1 .5 1 .5 1 .5.5-1.5.5-1.5v-.5-.5l-.5-1.5-.5-1.5 2 .5 2 .5 1 1 1 1 1 1 1 1v1.5 1.5 2 2l1.5 1.5 1.5 1.5.5 1 .5 1v1 1l.5 1 .5 1h1 1l1.5-1 1.5-1-.5-1.5-.5-1.5-.5-1.5-.5-1.5 1-.5 1-.5 1.5-.5 1.5-.5v1.5 1.5l-.5 1.5-.5 1.5 1 1.5 1 1.5h1 1l1-.5 1-.5.5-.5.5-.5.5.5.5.5.5-.5.5-.5-.5-1-.5-1-.5-1.5-.5-1.5-.5-.5-.5-.5-.5-1-.5-1-1-1-1-1-.5-.5-.5-.5h-1.5-1.5l-1.5-.5-1.5-.5h-1-1l-.5-.5-.5-.5-1-.5-1-.5-.5-.5-.5-.5 8-3 8-3 1 .5 1 .5 1-1 1-1 2 .5 2 .5 1.5.5 1.5.5h1.5 1.5v-1-1l-1-1-1-1-.5-2-.5-2-1.5-.5-1.5-.5h-2.5-2.5l-1-1-1-1-1 1-1 1h-1-1l-1-1.5-1-1.5.5-1.5.5-1.5 1-1 1-1 2-.5 2-.5 1.5.5 1.5.5.5 1 .5 1h16 16l-4.5 7.5-4.5 7.5-1 9.5-1 9.5-14 17.5-14 17.5-15-16-15-16h-1.5-1.5l.5 1.5.5 1.5v2.5 2.5l-.5 1.5-.5 1.5v1 1l-2.5.5-2.5.5.5 1 .5 1 .5 2 .5 2v1 1l-1.5-.5-1.5-.5-1.5-1-1.5-1-1.5-.5-1.5-.5v-3-3l-1.5.5-1.5.5h-1-1l-.5 1-.5 1-.5 14.5-.5 14.5 2.5-.5 2.5-.5.5 1.5.5 1.5-.5 1-.5 1 .5 1.5.5 1.5v2.5 2.5l-.5 1.5-.5 1.5h-1-1l-.5-1-.5-1-.5-1-.5-1v-1-1l-.5-.5-.5-.5-.5-1-.5-1 2 18.5 2 18.5"/><path d="m639 680l1 1-.5-2.5-.5-2.5-.5-1-.5-1v-1-1l.5-1 .5-1-1-1-1-1 .5-.5.5-.5-.5-1-.5-1-2-1-2-1-1-1-1-1-1.5-1-1.5-1-1.5-.5-1.5-.5-1.5 1-1.5 1v1.5 1.5 1.5 1.5l.5.5.5.5.5 1.5.5 1.5-.5 1-.5 1h1 1v2 2l.5 1.5.5 1.5.5-1 .5-1-.5-1-.5-1 .5-.5.5-.5h1 1l.5-.5.5-.5.5-1 .5-1-.5-.5-.5-.5-.5-.5-.5-.5.5-.5.5-.5.5-1 .5-1h1 1l.5.5.5.5h1 1v1 1 1.5 1.5l.5.5.5.5v1 1 1 1l.5.5.5.5.5 1 .5 1"/></g><path d="m430 679l2-1 .5-1.5.5-1.5 2-.5 2-.5-.5-1.5-.5-1.5-1.5-1-1.5-1v-1-1l-1-1-1-1-.5-2-.5-2-.5-1-.5-1-2-.5-2-.5-1 1-1 1-1.5 1-1.5 1-.5 1.5-.5 1.5.5 1 .5 1v1 1l.5.5.5.5v1 1l.5 1 .5 1v1 1l.5.5.5.5.5.5.5.5.5.5.5.5.5-.5.5-.5 1-.5 1-.5 1 1 1 1" style="fill:#1b1a10;stroke:#1b1a10"/><g style="fill:#822c1c;stroke:#822c1c"><path d="m657 678l3 1 1-1 1-1v-1.5-1.5l-.5-1.5-.5-1.5-1-1.5-1-1.5-.5-.5-.5-.5.5 2 .5 2-.5 1.5-.5 1.5-1.5-.5-1.5-.5-.5-2-.5-2-1-.5-1-.5v3 3l.5 1.5.5 1.5 2 .5 2 .5"/><path d="m20 676l3 1 2-.5 2-.5 1-1 1-1 1-1 1-1 1.5-1 1.5-1 1.5-.5 1.5-.5 1-1.5 1-1.5.5-1.5.5-1.5 1.5-.5 1.5-.5-11.5 7-11.5 7"/></g><path d="m677 676h2l.5-1.5.5-1.5-.5-2-.5-2-1-1-1-1-1-1.5-1-1.5v1 1l-.5 2-.5 2v2 2l1 1 1 1h.5.5" style="fill:#1b1a10;stroke:#1b1a10"/><path d="m270 675l4 1 16-16.5 16-16.5h-13-13l-12.5 4-12.5 4 7.5 12 7.5 12" style="fill:#822c1c;stroke:#822c1c"/><path d="m643 674l-6-9 .5 1 .5 1-.5.5-.5.5 1 1 1 1 1.5 1 1.5 1 .5 1 .5 1" style="fill:#895b4e;stroke:#895b4e"/><path d="m655 673l3 1 .5-1.5.5-1.5-.5-2-.5-2-1.5-2-1.5-2-1-1-1-1 2-.5 2-.5.5-1.5.5-1.5 1.5-.5 1.5-.5 1-1.5 1-1.5-1-.5-1-.5.5-2 .5-2-1.5.5-1.5.5-2 .5-2 .5.5 1.5.5 1.5v1.5 1.5l-1 1-1 1-1 .5-1 .5-.5 2-.5 2 .5 1.5.5 1.5v1 1l1 .5 1 .5.5 2 .5 2" style="fill:#c84228;stroke:#c84228"/><path d="m177 669l22-22-12 6.5-12 6.5 1 4.5 1 4.5" style="fill:#583b32;stroke:#583b32"/><path d="m518 669h3l-.5-1-.5-1-.5-2-.5-2-1-1-1-1-1.5-1-1.5-1h-2-2l-1.5-1-1.5-1-2 .5-2 .5v2 2l1 1.5 1 1.5 1.5.5 1.5.5 2 .5 2 .5 1.5-.5 1.5-.5 1.5 1.5 1.5 1.5" style="fill:#895b4e;stroke:#895b4e"/><path d="m2 659l23-23-6-4.5-6-4.5-5.5 16-5.5 16" style="fill:#1b1a10;stroke:#1b1a10"/><path d="m652 658v1l1-.5 1-.5 1-1 1-1v-1.5-1.5l-.5-1.5-.5-1.5 2-.5 2-.5 1.5-.5 1.5-.5-.5 2-.5 2 1 .5 1 .5 5-6 5-6-11 8.5-11 8.5h.5.5" style="fill:#895b4e;stroke:#895b4e"/><path d="m232 656v-25l-11.5 7-11.5 7 9.5 5 9.5 5 2 .5 2 .5" style="fill:#822c1c;stroke:#822c1c"/><path d="m478 655h2l1.5-.5 1.5-.5 1-1.5 1-1.5.5-1 .5-1-.5-2-.5-2-3.5 5-3.5 5" style="fill:#c84228;stroke:#c84228"/><path d="m630 654l16-13-9 2.5-9 2.5-6-5.5-6-5.5-1.5 1.5-1.5 1.5 1.5 1 1.5 1 1 1 1 1 1.5.5 1.5.5v2.5 2.5l1 1 1 1h1.5 1.5l1 1 1 1 1 1 1 1" style="fill:#895b4e;stroke:#895b4e"/><g style="fill:#c84228;stroke:#c84228"><path d="m417 653h2l.5-1.5.5-1.5v-2.5-2.5l-.5-1.5-.5-1.5.5-1 .5-1-.5-1.5-.5-1.5-2.5.5-2.5.5-.5 1-.5 1-.5.5-.5.5.5.5.5.5v1 1l.5 1 .5 1 .5.5.5.5v1 1l.5 1 .5 1 .5 1 .5 1"/><path d="m532 653l13-18h-1.5-1.5l-1-.5-1-.5h-1-1l-.5-1-.5-1-1.5-.5-1.5-.5-1-1.5-1-1.5 1.5.5 1.5.5 1-1 1-1-1-.5-1-.5-.5-1-.5-1-2-.5-2-.5-1-1-1-1-2 .5-2 .5v1 1l-2-.5-2-.5-1.5-.5-1.5-.5-1-1.5-1-1.5-15.5 4-15.5 4 13 1.5 13 1.5 5 10 5 10 1.5.5 1.5.5 1 .5 1 .5 1.5-.5 1.5-.5.5-.5.5-.5 1 .5 1 .5.5 1 .5 1"/></g><path d="m62 652v1l1.5-.5 1.5-.5 1.5-.5 1.5-.5 1-1 1-1 1.5-1 1.5-1 1-1 1-1 1-2 1-2h-.5-.5l-1.5.5-1.5.5-2 .5-2 .5h-2-2l-1.5 1-1.5 1-1 1-1 1 .5 1.5.5 1.5.5 1 .5 1" style="fill:#822c1c;stroke:#822c1c"/><path d="m442 652l18-20-10 5.5-10 5.5 1 4.5 1 4.5" style="fill:#583b32;stroke:#583b32"/><g style="fill:#895b4e;stroke:#895b4e"><path d="m558 650v1l1-1 1-1 1-.5 1-.5.5-.5.5-.5 1.5-.5 1.5-.5 1.5-.5 1.5-.5.5-1 .5-1 1.5-.5 1.5-.5 1-1 1-1 .5-.5.5-.5 1-.5 1-.5h2 2 2 2l.5-.5.5-.5.5-1 .5-1h-1-1l-2.5.5-2.5.5-2 .5-2 .5-1.5.5-1.5.5-2 .5-2 .5-1 1-1 1-1 1-1 1-1.5 1-1.5 1-1 1-1 1-1.5 1-1.5 1v.5.5"/><path d="m677 650l39-3-.5-1.5-.5-1.5h-1.5-1.5l-1 1-1 1-1.5 1-1.5 1-1-1-1-1 .5-2 .5-2v-2-2l.5-1.5.5-1.5 1.5-1 1.5-1 1-1 1-1 1-1 1-1 1.5-1 1.5-1h1.5 1.5v-3.5-3.5-2-2-2.5-2.5-2-2l-14 .5-14 .5-10 1.5-10 1.5-11.5 13.5-11.5 13.5 14 6 14 6"/></g><path d="m719 650l1 1v-3-3-2.5-2.5-1-1l-1.5-.5-1.5-.5-1 .5-1 .5-1.5.5-1.5.5-.5.5-.5.5-.5 1-.5 1-1 .5-1 .5v-1.5-1.5-1-1l.5-1 .5-1 1-1 1-1 .5-.5.5-.5.5-1 .5-1 .5-1 .5-1-1 1-1 1-1 1-1 1-1.5 1-1.5 1-.5 1.5-.5 1.5v2 2l-.5 2-.5 2 1 1 1 1 1.5-1 1.5-1 1-1 1-1h1.5 1.5l.5 1.5.5 1.5 1.5 1.5 1.5 1.5" style="fill:#c5b093;stroke:#c5b093"/><path d="m556 649h2l1.5-1 1.5-1 1-1 1-1 1.5-1 1.5-1 1-1 1-1 1-1 1-1 2-.5 2-.5 1.5-.5 1.5-.5 2-.5 2-.5 2.5-.5 2.5-.5v-.5-.5l-.5-1-.5-1v-.5-.5l-.5-2-.5-2v-2.5-2.5-2-2l.5-1.5.5-1.5.5-.5.5-.5.5-1 .5-1 .5-2 .5-2v-.5-.5l-1-1-1-1-1-1-1-1-.5-1.5-.5-1.5-1-.5-1-.5-1.5-1-1.5-1-1 1-1 1-1.5-.5-1.5-.5-1.5 1-1.5 1-1.5.5-1.5.5-2 .5-2 .5-1.5.5-1.5.5-1.5 1-1.5 1h-1-1-1-1l-2-.5-2-.5-.5-.5-.5-.5-15.5 6-15.5 6 1 .5 1 .5h1 1l.5.5.5.5h1 1l.5.5.5.5 1 .5 1 .5.5 1 .5 1 1 1 1 1 2 .5 2 .5.5 1 .5 1 1 .5 1 .5 2-.5 2-.5 1.5.5 1.5.5.5-.5.5-.5 1 .5 1 .5 1.5.5 1.5.5 2 .5 2 .5 1 1 1 1 1 1.5 1 1.5v1 1h-1-1-1.5-1.5l-.5 1-.5 1 .5.5.5.5 1 .5 1 .5v1 1l.5.5.5.5.5.5.5.5.5.5.5.5v.5.5 1 1l-.5-.5-.5-.5-.5 1-.5 1" style="fill:#583b32;stroke:#583b32"/><g style="fill:#1b1a10;stroke:#1b1a10"><path d="m48 647l20-19-1 1-1 1-1.5.5-1.5.5h-1-1-1-1l-1.5 1.5-1.5 1.5v1.5 1.5l-.5 1.5-.5 1.5-1.5 1-1.5 1-1.5.5-1.5.5-2 .5-2 .5.5 1.5.5 1.5h1 1"/><path d="m447 646h2l1-1 1-1 1.5-1 1.5-1 1-1 1-1-1-1.5-1-1.5-1.5.5-1.5.5-1 .5-1 .5-1.5.5-1.5.5-1.5.5-1.5.5 1 1.5 1 1.5 1 1 1 1"/></g><g style="fill:#bc7b69;stroke:#bc7b69"><path d="m628 646l18-5 1.5-1.5 1.5-1.5 11.5-13.5 11.5-13.5 10-1.5 10-1.5 14-.5 14-.5v-3-3-1.5-1.5l-12.5-3-12.5-3-1.5-18-1.5-18-2-17.5-2-17.5 1-14 1-14-2.5-18-2.5-18-2-.5-2-.5-2 17.5-2 17.5 2.5 19.5 2.5 19.5 1.5 20 1.5 20-11 23-11 23-2 1-2 1-1 1-1 1h-1-1l.5-2 .5-2-.5-1.5-.5-1.5v-1-1-1.5-1.5-2-2l-.5-2-.5-2-1.5-.5-1.5-.5-1.5-1-1.5-1 .5-1.5.5-1.5 1.5-.5 1.5-.5 1 .5 1 .5-.5-1-.5-1-.5-1-.5-1-1-1-1-1-.5-.5-.5-.5-1-.5-1-.5-1-1.5-1-1.5-1.5.5-1.5.5-1.5-.5-1.5-.5-1-1.5-1-1.5-1.5-.5-1.5-.5-1.5-1-1.5-1-1-1-1-1v-.5-.5l-2-.5-2-.5-1 .5-1 .5-1 .5-1 .5.5 1.5.5 1.5h3 3l1 .5 1 .5 1 1 1 1 1.5 1 1.5 1 1.5.5 1.5.5 1 1.5 1 1.5.5 1.5.5 1.5h-1.5-1.5l-1-.5-1-.5-1.5-1-1.5-1-1.5-1.5-1.5-1.5h-1.5-1.5l-.5.5-.5.5-1 .5-1 .5-.5 1.5-.5 1.5-.5.5-.5.5 1 .5 1 .5 1.5 1.5 1.5 1.5 1-.5 1-.5 1 1 1 1 .5 1.5.5 1.5 1 1.5 1 1.5.5 1.5.5 1.5 1 2.5 1 2.5 1.5-1 1.5-1 .5-.5.5-.5.5-.5.5-.5h1 1l.5.5.5.5.5.5.5.5v1.5 1.5l-.5.5-.5.5-.5.5-.5.5-.5.5-.5.5-.5 1-.5 1h-1-1l-.5.5-.5.5-.5.5-.5.5 1 .5 1 .5.5.5.5.5v1 1l-.5.5-.5.5-1-.5-1-.5-1-1-1-1-1-1-1-1-2-.5-2-.5-1-1-1-1-1.5-1-1.5-1 1.5-1.5 1.5-1.5.5-1 .5-1-.5-1-.5-1-.5 1-.5 1-7-12.5-7-12.5-5.5-16.5-5.5-16.5-.5-2-.5-2v-1.5-1.5l-1-.5-1-.5-1-1.5-1-1.5v-1-1l-.5-.5-.5-.5-.5-.5-.5-.5-1-.5-1-.5-1.5-.5-1.5-.5-.5-.5-.5-.5-.5-1-.5-1-.5-1.5-.5-1.5-.5-.5-.5-.5-.5-1-.5-1-1-1-1-1-.5-.5-.5-.5-.5-.5-.5-.5-.5-.5-.5-.5-1.5-1-1.5-1h-1-1l1 1.5 1 1.5.5 1.5.5 1.5.5 2 .5 2h1 1l1 2 1 2 1 .5 1 .5 1 1 1 1 1 .5 1 .5-3 12.5-3 12.5-.5 1-.5 1-.5 1-.5 1v1 1l4 12.5 4 12.5h.5.5l5-10 5-10-3.5 19-3.5 19-2.5 13.5-2.5 13.5-.5 1-.5 1 14.5-1 14.5-1 6 5.5 6 5.5"/><path d="m577 645h2l1-1 1-1 1.5-1 1.5-1 1-1.5 1-1.5h-2-2-2-2l-1 .5-1 .5-.5.5-.5.5-1 1-1 1-1.5.5-1.5.5-.5 1-.5 1 2.5-.5 2.5-.5 1.5.5 1.5.5"/></g><path d="m379 643l26-31-1-.5-1-.5-.5 1-.5 1-.5-.5-.5-.5h-1-1l-.5.5-.5.5h-1-1-1-1l-1-.5-1-.5-1.5.5-1.5.5-5 15-5 15" style="fill:#1b1a10;stroke:#1b1a10"/><path d="m708 643l2-1 .5-1 .5-1 .5-.5.5-.5 1.5-.5 1.5-.5 1-.5 1-.5 1.5.5 1.5.5v-2.5-2.5-2.5-2.5-.5-.5h-1.5-1.5l-1.5 1-1.5 1-.5 1-.5 1-.5 1-.5 1-.5.5-.5.5-1 1-1 1-.5 1-.5 1v1 1 1.5 1.5" style="fill:#e8dbbc;stroke:#e8dbbc"/><g style="fill:#822c1c;stroke:#822c1c"><path d="m36 641l4 1h1.5 1.5 1 1l1.5-.5 1.5-.5 1.5-.5 1.5-.5 1.5-1 1.5-1 .5-1 .5-1 .5-1 .5-1 1.5-1.5 1.5-1.5.5-1.5.5-1.5.5-.5.5-.5.5-1 .5-1 .5-.5.5-.5v-1-1l.5-.5.5-.5 1-.5 1-.5.5 1.5.5 1.5.5-.5.5-.5-.5 1-.5 1 1 1 1 1h-1-1l.5 1 .5 1 19-4.5 19-4.5 1.5-1.5 1.5-1.5 1.5-.5 1.5-.5 2-.5 2-.5 1-1 1-1 1-1.5 1-1.5-15.5-3-15.5-3 10.5 2.5 10.5 2.5-13.5 5.5-13.5 5.5-1-.5-1-.5 1-1.5 1-1.5v-2-2l1-1.5 1-1.5 1-1 1-1 .5-1.5.5-1.5-21 8.5-21 8.5-3.5 8.5-3.5 8.5v-2.5-2.5l.5-1.5.5-1.5v-2-2l-.5 1-.5 1-1.5 1-1.5 1v2 2 2.5 2.5 1.5 1.5"/><path d="m339 640l27-3-10.5-4-10.5-4-1.5-7.5-1.5-7.5-1 1-1 1-1 .5-1 .5-1 1.5-1 1.5h-.5-.5l-1.5-.5-1.5-.5-1.5.5-1.5.5v1 1h-1.5-1.5l-1.5.5-1.5.5-.5.5-.5.5v.5.5h1 1l-1.5 1-1.5 1-1.5-.5-1.5-.5h-1-1l.5-1 .5-1 1-.5 1-.5 1-1 1-1-1-.5-1-.5 7 3.5 7 3.5 3 6.5 3 6.5"/></g><path d="m259 639l-12-14 3 5.5 3 5.5 3 1.5 3 1.5" style="fill:#1b1a10;stroke:#1b1a10"/><path d="m39 637l7-17-1 .5-1 .5-.5.5-.5.5-.5.5-.5.5-1 1-1 1v2 2l-.5 1.5-.5 1.5v2.5 2.5" style="fill:#c84228;stroke:#c84228"/><path d="m556 636h2v-1-1l-1-1.5-1-1.5-1-1-1-1-2-.5-2-.5-1.5-.5-1.5-.5-1-.5-1-.5-.5.5-.5.5-1.5-.5-1.5-.5-2 .5-2 .5-1 1-1 1-1.5-.5-1.5-.5 1 1.5 1 1.5 1.5.5 1.5.5.5 1 .5 1h1 1l1 .5 1 .5h1.5 1.5l-.5-1-.5-1 .5-.5.5-.5.5.5.5.5h1 1 1 1l.5 1 .5 1 1 .5 1 .5h1.5 1.5" style="fill:#895b4e;stroke:#895b4e"/><path d="m586 634v1h1 1l2.5-13.5 2.5-13.5-1 2-1 2v1 1l-1 1.5-1 1.5-1 1-1 1v2.5 2.5l.5 1.5.5 1.5-.5 2-.5 2-1 .5-1 .5.5 1 .5 1" style="fill:#c84228;stroke:#c84228"/><path d="m61 631h2l1.5-.5 1.5-.5 1-1 1-1-.5-1-.5-1h1 1l-1-1-1-1 .5-1 .5-1-.5.5-.5.5-.5-1.5-.5-1.5-1 .5-1 .5-.5.5-.5.5v1 1l-.5.5-.5.5-.5 1-.5 1-.5.5-.5.5-.5 1.5-.5 1.5h1 1" style="fill:#583b32;stroke:#583b32"/><g style="fill:#895b4e;stroke:#895b4e"><path d="m585 631v1l1-.5 1-.5.5-2 .5-2-.5-1.5-.5-1.5v-2.5-2.5l1-1 1-1 1-1.5 1-1.5v-1-1l1-2 1-2 3.5-19 3.5-19-5 10-5 10-1 9-1 9-.5 2-.5 2-.5 1-.5 1-.5.5-.5.5-.5 1.5-.5 1.5v2 2 2.5 2.5l.5 2 .5 2"/><path d="m625 630v-26l-3.5-2-3.5-2-.5 1-.5 1-1 1-1 1-1 1-1 1-1.5 1-1.5 1-1 1-1 1v1.5 1.5l-.5 1.5-.5 1.5 1 .5 1 .5 1.5.5 1.5.5h1.5 1.5l.5-1.5.5-1.5 1 .5 1 .5 1 1 1 1 .5 1.5.5 1.5 1 1.5 1 1.5.5 1.5.5 1.5.5 1.5.5 1.5"/></g><g style="fill:#c84228;stroke:#c84228"><path d="m316 626h2l1.5.5 1.5.5 1.5-1 1.5-1h-1-1v-.5-.5l.5-.5.5-.5 1.5-.5 1.5-.5h1.5 1.5v-1-1l1.5-.5 1.5-.5 1.5.5 1.5.5h.5.5l-.5-2-.5-2-2 .5-2 .5-1.5.5-1.5.5-1.5 1-1.5 1-2 .5-2 .5-1 1-1 1-1 .5-1 .5-.5 1-.5 1"/><path d="m466 626l28-35 1-9.5 1-9.5 4.5-7.5 4.5-7.5h-16-16l-2.5.5-2.5.5v1.5 1.5l1 1 1 1h2.5 2.5l1.5.5 1.5.5.5 2 .5 2 1 1 1 1v1 1h-1.5-1.5l-1.5-.5-1.5-.5-2-.5-2-.5-1 1-1 1-1-.5-1-.5-2-1-2-1-1.5-.5-1.5-.5-2-.5-2-.5-1.5.5-1.5.5-.5 2-.5 2v3 3l1 .5 1 .5.5.5.5.5h1 1l1.5.5 1.5.5h1.5 1.5l.5.5.5.5 1 1 1 1 .5 1 .5 1 .5.5.5.5.5 1.5.5 1.5.5 1 .5 1-.5.5-.5.5-.5-.5-.5-.5-.5.5-.5.5-1 .5-1 .5h1.5 1.5l-1 1-1 1-1.5 1-1.5 1-1 1-1 1-1.5-.5-1.5-.5-1-.5-1-.5-1-1.5-1-1.5-.5-1-.5-1v-1-1l-.5-1-.5-1-1-.5-1-.5-1.5-1-1.5-1-1.5-.5-1.5-.5-1.5-2-1.5-2-1-.5-1-.5-1-.5-1-.5-1.5 1-1.5 1v1 1l.5 1 .5 1v2 2 1 1l.5 1.5.5 1.5 15 16 15 16"/></g><path d="m352 625l21-7-13.5-1-13.5-1 3 4.5 3 4.5" style="fill:#1b1a10;stroke:#1b1a10"/><path d="m1 624l21-24-.5 1-.5 1-1 1-1 1-1 1-1 1-1 1.5-1 1.5-1 1-1 1-1 1-1 1-1.5 1-1.5 1v2 2l-1.5 1-1.5 1-1 1-1 1-1 .5-1 .5" style="fill:#895b4e;stroke:#895b4e"/><path d="m0 623v1h.5.5l1-.5 1-.5 1-1 1-1 1.5-1 1.5-1v-2-2l1.5-1 1.5-1 1-1 1-1 1-1 1-1 1-1.5 1-1.5 1-1 1-1 1-1 1-1 .5-1 .5-1 1-1 1-1 .5-1.5.5-1.5v-.5-.5l10.5-13.5 10.5-13.5 15.5-9 15.5-9 21.5-4 21.5-4-5-13-5-13-23.5-1.5-23.5-1.5h-1.5-1.5-2-2-1-1l-.5.5-.5.5v1.5 1.5l1 1 1 1 1.5 1 1.5 1 .5 1.5.5 1.5-1.5 1-1.5 1-1.5.5-1.5.5h-1-1l-1-15.5-1-15.5.5-1.5.5-1.5v-1-1-1-1-1.5-1.5-2-2-1-1-1.5-1.5l-.5-1.5-.5-1.5v-.5-.5l-14.5-15.5-14.5-15.5h-1.5-1.5l-1-.5-1-.5-1-1.5-1-1.5-1.5-.5-1.5-.5v-1.5-1.5l1-1 1-1 .5-2 .5-2-1-1-1-1-.5-1-.5-1v-.5-.5l1.5-1 1.5-1 1-1 1-1h1 1l.5-1 .5-1 1.5-.5 1.5-.5 1.5-1 1.5-1 .5-1.5.5-1.5-2-.5-2-.5-1-1-1-1-1.5-1.5-1.5-1.5-.5-1-.5-1-1.5-.5-1.5-.5-1-1.5-1-1.5v-2-2l1-1.5 1-1.5.5-1.5.5-1.5 1-1.5 1-1.5 1-1 1-1 1-2 1-2v-.5-.5l16.5-5.5 16.5-5.5 15.5-22 15.5-22-.5-1-.5-1 3.5-14 3.5-14 4.5-15 4.5-15 3-17.5 3-17.5 5.5-17.5 5.5-17.5 9-13.5 9-13.5 7.5-11 7.5-11 12-10.5 12-10.5 13.5-7.5 13.5-7.5 15.5-3 15.5-3 7.5-10 7.5-10 14-4.5 14-4.5 8.5 2.5 8.5 2.5 16-3.5 16-3.5 14 7.5 14 7.5 8.5-7 8.5-7 12.5-6 12.5-6 24 3.5 24 3.5 12.5-3 12.5-3 12 1 12 1 14 8.5 14 8.5-19 4.5-19 4.5 5 9.5 5 9.5 5 3.5 5 3.5 13 8.5 13 8.5v9.5 9.5l8.5 11.5 8.5 11.5 11 4.5 11 4.5 12.5 11 12.5 11 9.5 15 9.5 15 4.5 14 4.5 14-2.5 18-2.5 18-2.5 6-2.5 6 2 17 2 17 1.5 14 1.5 14 4 13.5 4 13.5 10.5 8 10.5 8 1.5 11 1.5 11-5 13.5-5 13.5-13 18.5-13 18.5-17.5 7-17.5 7h1 1l15.5-5.5 15.5-5.5 14.5-10 14.5-10 9.5 8 9.5 8 1.5 17 1.5 17 2 11.5 2 11.5-1.5 25-1.5 25 .5 1 .5 1 1 1 1 1v2 2l11-23 11-23-1.5-20-1.5-20-2.5-19.5-2.5-19.5 2-17.5 2-17.5 2 .5 2 .5 2.5 18 2.5 18-1 14-1 14 2 17.5 2 17.5 1.5 18 1.5 18 12.5 3 12.5 3v-2-2-.5-.5h-.5-.5l-1 .5-1 .5-.5-.5-.5-.5-.5.5-.5.5h-1-1l-1-.5-1-.5h-1-1l-.5.5-.5.5h-1-1-1-1l-3.5-18.5-3.5-18.5-1.5-20-1.5-20-1-21.5-1-21.5 1-18.5 1-18.5-2-5.5-2-5.5-14 4.5-14 4.5-2-12-2-12-10-6.5-10-6.5-5-2.5-5-2.5-3.5-9-3.5-9 1.5-11 1.5-11-5-16-5-16 3-16.5 3-16.5 4.5-15 4.5-15 9.5-11 9.5-11-8 4.5-8 4.5-1-10-1-10-7.5-13-7.5-13-7-12.5-7-12.5-8-16-8-16-5 1.5-5 1.5 9.5 14 9.5 14 4.5 14.5 4.5 14.5-14.5-8-14.5-8-9.5-10-9.5-10-7-7-7-7-5.5-13-5.5-13-7.5-11-7.5-11-3-6-3-6 12 9.5 12 9.5 18.5 1 18.5 1-17-4-17-4-6.5-11-6.5-11-.5-7-.5-7-15-5.5-15-5.5-16-4-16-4-18.5-2-18.5-2-13.5 3-13.5 3-14.5 4.5-14.5 4.5-11-7.5-11-7.5-5.5 14-5.5 14-8-3.5-8-3.5-13.5-9.5-13.5-9.5-12.5 12-12.5 12-18 1.5-18 1.5-15 7.5-15 7.5-15 8.5-15 8.5-9 11.5-9 11.5-10.5-1-10.5-1 4 13 4 13-15.5 8-15.5 8-13 10.5-13 10.5-3 17.5-3 17.5 1.5 12 1.5 12-2.5 7-2.5 7-9-6.5-9-6.5 2 9 2 9-2.5 12-2.5 12 1 6.5 1 6.5-4 8.5-4 8.5-7.5 8-7.5 8-4.5 5-4.5 5 .5 10 .5 10-10 12-10 12-3 12-3 12v3 3 2 2l13.5 9 13.5 9 5.5 11.5 5.5 11.5 1 14.5 1 14.5-7.5 14-7.5 14-3 13.5-3 13.5 5-3.5 5-3.5 13-7 13-7 5.5-6 5.5-6h16.5 16.5l7 4.5 7 4.5-4 5.5-4 5.5-18.5 4.5-18.5 4.5-14 10.5-14 10.5-19.5 26.5-19.5 26.5h-.5-.5v.5.5" style="fill:#c5b093;stroke:#c5b093"/><path d="m520 623l4 1v-1-1l2-.5 2-.5-.5-1-.5-1-1-.5-1-.5-.5-.5-.5-.5h-1-1l-.5-.5-.5-.5h-1-1l-1-.5-1-.5-1 2-1 2 1 1.5 1 1.5 1.5.5 1.5.5" style="fill:#895b4e;stroke:#895b4e"/><path d="m640 622l1-1v-1-1l-.5-.5-.5-.5-1-.5-1-.5.5-.5.5-.5.5-.5.5-.5h1 1l.5-1 .5-1 .5-.5.5-.5.5-.5.5-.5.5-.5.5-.5v-1.5-1.5l-.5-.5-.5-.5-.5-.5-.5-.5h-1-1l-.5.5-.5.5-.5.5-.5.5-1.5 1-1.5 1 .5 1.5.5 1.5-1 .5-1 .5-.5.5-.5.5-.5.5-.5.5-1.5-.5-1.5-.5-.5-1-.5-1-1.5-.5-1.5-.5.5-1 .5-1-1.5 1.5-1.5 1.5 1.5 1 1.5 1 1 1 1 1 2 .5 2 .5 1 1 1 1 1 1 1 1 1 .5 1 .5" style="fill:#e7967f;stroke:#e7967f"/><path d="m0 621v1h.5.5v-.5-.5l-.5-16.5-.5-16.5v1.5 1.5 2 2 2.5 2.5 2 2 2.5 2.5 2 2 2 2 2 2" style="fill:#ffe;stroke:#ffe"/><path d="m1 621v1l19.5-26.5 19.5-26.5 14-10.5 14-10.5 18.5-4.5 18.5-4.5 4-5.5 4-5.5-7-4.5-7-4.5h-16.5-16.5l-5.5 6-5.5 6-13 7-13 7-5 3.5-5 3.5 3-13.5 3-13.5 7.5-14 7.5-14-1-14.5-1-14.5-5.5-11.5-5.5-11.5-13.5-9-13.5-9v2.5 2.5 2 2 2.5 2.5 1 1l.5 2.5.5 2.5 1 1 1 1 1-1 1-1h1.5 1.5l1.5.5 1.5.5-.5 2-.5 2-1 1-1 1-1.5 1-1.5 1-1.5.5-1.5.5-1 .5-1 .5v3.5 3.5 2 2 .5.5l1.5.5 1.5.5.5-.5.5-.5h1 1l.5-.5.5-.5h1.5 1.5l.5.5.5.5v1 1 1 1l-.5.5-.5.5h-1.5-1.5l-.5.5-.5.5-.5.5-.5.5-1.5-.5-1.5-.5-1-1-1-1v1.5 1.5 1 1l10.5 7 10.5 7-10.5 14.5-10.5 14.5v24.5 24.5 8 8l.5 16.5.5 16.5" style="fill:#e8dbbc;stroke:#e8dbbc"/><path d="m239 621l32-8-3.5-6-3.5-6-14.5 6-14.5 6 2 4 2 4" style="fill:#822c1c;stroke:#822c1c"/><g style="fill:#895b4e;stroke:#895b4e"><path d="m319 620l2 1 2-.5 2-.5 1.5-1 1.5-1 1.5-.5 1.5-.5 2-.5 2-.5.5 2 .5 2 1-1.5 1-1.5 1-.5 1-.5 1-1 1-1-1-1.5-1-1.5-1 1-1 1h-2.5-2.5l-1.5.5-1.5.5-1.5 1-1.5 1-1.5.5-1.5.5-1.5 1-1.5 1-1 .5-1 .5"/><path d="m643 620h2l1.5-.5 1.5-.5 1-1.5 1-1.5 1-1 1-1 .5-2 .5-2-.5-1.5-.5-1.5-.5 2-.5 2-1 1-1 1h-2-2l-1 1.5-1 1.5v2 2"/></g><path d="m655 620h2l1-1 1-1 2-1 2-1v-2-2l-1-1-1-1-.5-1-.5-1-.5-.5-.5-.5-1-1-1-1v-1-1-1-1-1-1-1-1l-1-.5-1-.5-.5-1-.5-1-1-.5-1-.5-1.5.5-1.5.5-.5 1.5-.5 1.5 1.5 1 1.5 1 1.5.5 1.5.5.5 2 .5 2v2 2 1.5 1.5 1 1l.5 1.5.5 1.5-.5 2-.5 2" style="fill:#e7967f;stroke:#e7967f"/><path d="m83 619l27-11-10.5-2.5-10.5-2.5h-.5-.5l-.5 1.5-.5 1.5-1 1-1 1-1 1.5-1 1.5v2 2l-1 1.5-1 1.5 1 .5 1 .5" style="fill:#c84228;stroke:#c84228"/><path d="m427 615l3 1v-1-1l-.5-2-.5-2-.5-1-.5-1-.5-1-.5-1-1-.5-1-.5-.5-.5-.5-.5h-1-1l-.5 1-.5 1v3 3l1.5.5 1.5.5 1.5 1 1.5 1" style="fill:#895b4e;stroke:#895b4e"/><path d="m606 615l1 1 .5-1.5.5-1.5v-1.5-1.5l1-1 1-1 1.5-1 1.5-1 1-1 1-1 1-1 1-1 .5-1 .5-1-1.5.5-1.5.5-2 .5-2 .5-1.5.5-1.5.5-2 .5-2 .5.5 1.5.5 1.5-.5 2-.5 2 .5 1.5.5 1.5.5.5.5.5" style="fill:#c84228;stroke:#c84228"/><path d="m631 614l3 1 .5-.5.5-.5.5-.5.5-.5 1-.5 1-.5-.5-1.5-.5-1.5-1-2.5-1-2.5-.5-1.5-.5-1.5-1-1.5-1-1.5-.5-1.5-.5-1.5-1-1-1-1-1 .5-1 .5v2 2 1 1l.5 1 .5 1v1.5 1.5l.5 1 .5 1-.5 1-.5 1-.5 1-.5 1 1.5.5 1.5.5.5 1 .5 1" style="fill:#e8dbbc;stroke:#e8dbbc"/><path d="m177 612l3 1 1.5-.5 1.5-.5 3-.5 3-.5h.5.5l-6.5.5-6.5.5" style="fill:#822c1c;stroke:#822c1c"/><path d="m310 609l22-21-4-14.5-4-14.5 16-4.5 16-4.5 16.5 1.5 16.5 1.5-9.5 13-9.5 13v12.5 12.5l1.5.5 1.5.5v-1.5-1.5-1-1h1 1l1-.5 1-.5h1 1l1 .5 1 .5 15.5-8 15.5-8 6.5-9 6.5-9 16-8.5 16-8.5 15.5-1.5 15.5-1.5 1-.5 1-.5.5-1 .5-1-.5-.5-.5-.5-.5-.5-.5-.5h1 1l.5-1 .5-1 .5-.5.5-.5h1 1l1.5.5 1.5.5 1 1.5 1 1.5v1 1l.5.5.5.5h1 1l.5-1 .5-1-.5-.5-.5-.5.5-.5.5-.5-.5-.5-.5-.5-.5-1-.5-1 4.5-22.5 4.5-22.5 4.5-18 4.5-18 3.5-15.5 3.5-15.5 4-18.5 4-18.5.5-20 .5-20-10.5 10.5-10.5 10.5-17.5 6-17.5 6h-22.5-22.5l-17.5-6.5-17.5-6.5-10.5-13-10.5-13-13-10.5-13-10.5-10.5 12.5-10.5 12.5-12.5 12-12.5 12-18.5 6-18.5 6-22-.5-22-.5-10.5 7-10.5 7 4.5 19.5 4.5 19.5 3.5 20 3.5 20 5.5 19 5.5 19 8 16.5 8 16.5 10.5-1 10.5-1 4 12 4 12 10.5 11 10.5 11 6 9.5 6 9.5" style="fill:#895b4e;stroke:#895b4e"/><path d="m391 609l-10-9-1-.5-1-.5h-1-1l-1 .5-1 .5h-1-1v1 1 1.5 1.5l1 .5 1 .5 1.5 1 1.5 1h2 2 2.5 2.5l2 .5 2 .5" style="fill:#c84228;stroke:#c84228"/><path d="m415 608v1l.5-1 .5-1h1 1l1.5-.5 1.5-.5.5-1 .5-1h1 1l.5.5.5.5 1 .5 1 .5.5 1 .5 1 2.5-.5 2.5-.5v-1-1l.5-1.5.5-1.5v-2.5-2.5l-.5-1.5-.5-1.5v-.5-.5l-.5-1-.5-1-1-.5-1-.5-7.5 9-7.5 9" style="fill:#583b32;stroke:#583b32"/><path d="m588 607v1l1-9 1-9h-.5-.5l-1 .5-1 .5-.5.5-.5.5-1 .5-1 .5-.5.5-.5.5v1 1l.5.5.5.5.5 1 .5 1-1 .5-1 .5.5 1.5.5 1.5 1 1 1 1 1 1 1 1" style="fill:#822c1c;stroke:#822c1c"/><path d="m627 607l1-2v-1.5-1.5l-.5-1-.5-1v-1-1-2-2l-1.5-1.5-1.5-1.5-1-.5-1-.5.5-.5.5-.5.5-1.5.5-1.5 1-.5 1-.5.5-.5.5-.5h1.5 1.5l-.5-1-.5-1-1.5-.5-1.5-.5 1-1.5 1-1.5h-3-3l-.5-1.5-.5-1.5 1-.5 1-.5 1-.5 1-.5-11.5-12-11.5-12 5.5 16.5 5.5 16.5 7 12.5 7 12.5" style="fill:#e7967f;stroke:#e7967f"/><path d="m659 607l1 1 1.5-25 1.5-25-2-11.5-2-11.5-1.5-17-1.5-17-9.5-8-9.5-8-14.5 10-14.5 10-15.5 5.5-15.5 5.5 1.5 1 1.5 1 .5.5.5.5.5.5.5.5.5.5.5.5 1 1 1 1 .5 1 .5 1 .5.5.5.5.5 1.5.5 1.5.5 1 .5 1 .5.5.5.5 1.5.5 1.5.5 1 .5 1 .5.5.5.5.5.5.5.5.5v1 1l1 1.5 1 1.5v-12-12l15.5-4 15.5-4 10.5-8 10.5-8 1.5 22 1.5 22 .5 27.5.5 27.5-1-2-1-2-1-1-1-1-1-1-1-1-1-.5-1-.5 1.5 2.5 1.5 2.5 1 1 1 1 .5 1 .5 1 .5 1 .5 1 .5 1 .5 1 1 .5 1 .5v1 1 1 1 1 1 1 1l1 1 1 1" style="fill:#e8dbbc;stroke:#e8dbbc"/><path d="m496 605l5-21-3 7.5-3 7.5 1 2 1 2-1.5-.5-1.5-.5.5-1.5.5-1.5-1 1.5-1 1.5.5 1.5.5 1.5h1 1" style="fill:#583b32;stroke:#583b32"/><path d="m553 605h2 1 1l1.5-1 1.5-1 1.5-.5 1.5-.5 2-.5 2-.5 1.5-.5 1.5-.5 1.5-1 1.5-1 1.5.5 1.5.5 1-1 1-1 1.5 1 1.5 1 1 .5 1 .5 1-.5 1-.5-.5-1-.5-1-.5-.5-.5-.5v-1-1l.5-.5.5-.5 1-.5 1-.5.5-.5.5-.5 1-.5 1-.5-4-12.5-4-12.5-1-.5-1-.5v2.5 2.5l-1.5 1.5-1.5 1.5v1.5 1.5l-1.5 1-1.5 1-1.5.5-1.5.5h-1.5-1.5-1.5-1.5l-1-1.5-1-1.5.5-1.5.5-1.5-.5-2-.5-2 .5-1.5.5-1.5 1-1.5 1-1.5.5-1 .5-1h1 1l.5.5.5.5 1 1.5 1 1.5-.5-1.5-.5-1.5 1-1 1-1-.5-.5-.5-.5v-1.5-1.5-1-1l.5-.5.5-.5h1.5 1.5l1.5-.5 1.5-.5.5.5.5.5v1 1 1 1 1.5 1.5h2 2l3-12.5 3-12.5-1.5 1.5-1.5 1.5-1 1.5-1 1.5-.5 1.5-.5 1.5-1 1-1 1-.5 1-.5 1-.5.5-.5.5h-1.5-1.5l-1 1-1 1-1.5-.5-1.5-.5-1-.5-1-.5-.5-1.5-.5-1.5-1.5-.5-1.5-.5-.5 1-.5 1 1.5 1 1.5 1 1 1.5 1 1.5v1 1l.5 1.5.5 1.5-1.5-1-1.5-1-1.5-.5-1.5-.5-.5 2-.5 2v2 2l-1.5 1.5-1.5 1.5v2 2 1 1 2.5 2.5l.5 1.5.5 1.5v2.5 2.5l-1 1-1 1-1.5 1.5-1.5 1.5.5 1 .5 1v1.5 1.5l1.5-.5 1.5-.5 1.5.5 1.5.5 2-.5 2-.5.5-1.5.5-1.5-1.5-1-1.5-1-.5-1.5-.5-1.5 2-.5 2-.5 1-.5 1-.5 2-.5 2-.5h2 2l1 1.5 1 1.5-.5 1.5-.5 1.5.5 2 .5 2-.5 1.5-.5 1.5h-1.5-1.5l-1 1-1 1-1 .5-1 .5h-2-2l-.5.5-.5.5-.5.5-.5.5h-1-1l-1 .5-1 .5h-1-1l-.5.5-.5.5h-1-1-1-1v-2.5-2.5l-1 .5-1 .5-.5 1.5-.5 1.5-1 1-1 1-1 .5-1 .5.5.5.5.5 2 .5 2 .5" style="fill:#895b4e;stroke:#895b4e"/><path d="m497 603l-2-4-.5 1.5-.5 1.5 1.5.5 1.5.5" style="fill:#1b1a10;stroke:#1b1a10"/><path d="m555 601h2 1 1l.5-.5.5-.5h1 1l1-.5 1-.5h1 1l.5-.5.5-.5.5-.5.5-.5h2 2l1-.5 1-.5 1-1 1-1v-.5-.5l.5-1 .5-1-1-1-1-1-1 1.5-1 1.5-1.5-.5-1.5-.5-.5-2-.5-2-.5-2-.5-2-2 .5-2 .5.5 1.5.5 1.5 1.5 1 1.5 1-.5 1.5-.5 1.5-2 .5-2 .5-1.5-.5-1.5-.5-1.5.5-1.5.5-1 1.5-1 1.5v2.5 2.5" style="fill:#c84228;stroke:#c84228"/><path d="m458 599l3 1 1-1 1-1 1.5-1 1.5-1 1-1 1-1h-1.5-1.5-1-1l-1-1.5-1-1.5.5-1.5.5-1.5v-1.5-1.5l-1.5.5-1.5.5-1 .5-1 .5.5 1.5.5 1.5.5 1.5.5 1.5-1.5 1-1.5 1h-1-1l1 1.5 1 1.5 1 .5 1 .5" style="fill:#583b32;stroke:#583b32"/><path d="m540 596h2l1.5-.5 1.5-.5 1-1.5 1-1.5.5-1.5.5-1.5-1-1.5-1-1.5-1-.5-1-.5-2 1-2 1-.5 1.5-.5 1.5-1 1-1 1-.5 1-.5 1 .5.5.5.5 1.5.5 1.5.5" style="fill:#c84228;stroke:#c84228"/><path d="m25 594v1l1-.5 1-.5.5-.5.5-.5v-1-1l.5-.5.5-.5 1-.5 1-.5.5-.5.5-.5v1 1l.5.5.5.5 1.5-.5 1.5-.5v-1.5-1.5-1.5-1.5l.5-.5.5-.5 1-.5 1-.5 1-1 1-1 1.5 1 1.5 1 .5-1.5.5-1.5.5-1 .5-1 2-.5 2-.5 1-.5 1-.5 1.5-.5 1.5-.5 1-1 1-1 .5-1 .5-1 .5-.5.5-.5.5-.5.5-.5h1 1l.5.5.5.5 1-.5 1-.5v-1-1-1-1l-.5.5-.5.5h-1.5-1.5-1-1-1-1v-1-1l-.5-1-.5-1h1 1l.5-.5.5-.5 1.5-.5 1.5-.5v-1.5-1.5l1.5-1 1.5-1 1-1 1-1 1.5-.5 1.5-.5h2.5 2.5l1-1 1-1-15.5 9-15.5 9-10.5 13.5-10.5 13.5" style="fill:#895b4e;stroke:#895b4e"/><path d="m704 594h2 1 1l.5-.5.5-.5h1 1l1 .5 1 .5h1 1l.5-.5.5-.5.5.5.5.5 1-.5 1-.5-.5-.5-.5-.5h-2-2-2.5-2.5l-1.5.5-1.5.5-1.5-.5-1.5-.5-2-21-2-21-1.5-22.5-1.5-22.5 1.5-19 1.5-19 3-9.5 3-9.5 7.5-8 7.5-8v-24-24-24.5-24.5-2.5-2.5l-8 11-8 11-8-8-8-8-10.5 1.5-10.5 1.5-9.5-1.5-9.5-1.5-8-4.5-8-4.5-4-6.5-4-6.5 3.5-10 3.5-10 5-15.5 5-15.5 16.5-4.5 16.5-4.5-1.5-3-1.5-3 5.5-13 5.5-13-5.5-10-5.5-10-6 12.5-6 12.5-7.5-15.5-7.5-15.5-1 6.5-1 6.5-8.5 5-8.5 5 4.5-3 4.5-3-3-12.5-3-12.5-4-13.5-4-13.5-8.5-12.5-8.5-12.5-.5 8-.5 8 3 13.5 3 13.5-9.5-15-9.5-15-5-19.5-5-19.5-18-2-18-2 11.5-4 11.5-4-4.5-9-4.5-9-17.5-7-17.5-7-13-7.5-13-7.5-13.5-1.5-13.5-1.5-17.5-3-17.5-3-15.5 1-15.5 1-13.5 1-13.5 1-14-3.5-14-3.5-16 4.5-16 4.5-15-6-15-6-9 5.5-9 5.5-10 9.5-10 9.5-16-1.5-16-1.5-8.5-3-8.5-3-5 1-5 1-4.5-6-4.5-6-12-1.5-12-1.5-9.5-7-9.5-7-5.5-9-5.5-9-15.5-6-15.5-6h-24-24-23.5-23.5v1 1 24.5 24.5 24.5 24.5 24 24 24.5 24.5 14.5 14.5h2.5 2.5l.5.5.5.5.5 1 .5 1 .5 1.5.5 1.5-.5.5-.5.5-1 .5-1 .5-1.5.5-1.5.5-1 .5-1 .5v26 26 24.5 24.5 4.5 4.5l1.5 1 1.5 1h-1.5-1.5v25 25 9.5 9.5l3-12 3-12 10-12 10-12-.5-10-.5-10 4.5-5 4.5-5 7.5-8 7.5-8 4-8.5 4-8.5-1-6.5-1-6.5 2.5-12 2.5-12-2-9-2-9 9 6.5 9 6.5 2.5-7 2.5-7-1.5-12-1.5-12 3-17.5 3-17.5 13-10.5 13-10.5 15.5-8 15.5-8-4-13-4-13 10.5 1 10.5 1 9-11.5 9-11.5 15-8.5 15-8.5 15-7.5 15-7.5 18-1.5 18-1.5 12.5-12 12.5-12 13.5 9.5 13.5 9.5 8 3.5 8 3.5 5.5-14 5.5-14 11 7.5 11 7.5 14.5-4.5 14.5-4.5 13.5-3 13.5-3 18.5 2 18.5 2 16 4 16 4 15 5.5 15 5.5.5 7 .5 7 6.5 11 6.5 11 17 4 17 4-18.5-1-18.5-1-12-9.5-12-9.5 3 6 3 6 7.5 11 7.5 11 5.5 13 5.5 13 7 7 7 7 9.5 10 9.5 10 14.5 8 14.5 8-4.5-14.5-4.5-14.5-9.5-14-9.5-14 5-1.5 5-1.5 8 16 8 16 7 12.5 7 12.5 7.5 13 7.5 13 1 10 1 10 8-4.5 8-4.5-9.5 11-9.5 11-4.5 15-4.5 15-3 16.5-3 16.5 5 16 5 16-1.5 11-1.5 11 3.5 9 3.5 9 5 2.5 5 2.5 10 6.5 10 6.5 2 12 2 12 14-4.5 14-4.5 2 5.5 2 5.5-1 18.5-1 18.5 1 21.5 1 21.5 1.5 20 1.5 20 3.5 18.5 3.5 18.5" style="fill:#e8dbbc;stroke:#e8dbbc"/><path d="m433 593v1h1.5 1.5l-.5-1.5-.5-1.5v-1-1-2-2l-.5-1-.5-1v-1-1l1.5-1 1.5-1-.5-1-.5-1-.5.5-.5.5-1.5.5-1.5.5-1 1-1 1 .5 2 .5 2-.5 1-.5 1v1.5 1.5l1 .5 1 .5.5 1 .5 1" style="fill:#895b4e;stroke:#895b4e"/><path d="m576 593v1h1.5 1.5l.5-1.5.5-1.5-.5-2-.5-2 .5-1.5.5-1.5-1-1.5-1-1.5h-2-2l-2 .5-2 .5-1 .5-1 .5.5 2 .5 2 .5 2 .5 2 1.5.5 1.5.5 1-1.5 1-1.5 1 1 1 1-.5 1-.5 1" style="fill:#bc7b69;stroke:#bc7b69"/><path d="m86 592l21-19-12.5 5-12.5 5 2 4.5 2 4.5" style="fill:#1b1a10;stroke:#1b1a10"/><g style="fill:#ffe;stroke:#ffe"><path d="m655 592l-1-55-1.5-22-1.5-22-10.5 8-10.5 8-15.5 4-15.5 4v12 12l1 .5 1 .5v1.5 1.5l15.5 15 15.5 15 2.5 1 2.5 1 1.5.5 1.5.5 1.5 1 1.5 1 1.5.5 1.5.5.5 1 .5 1 1 .5 1 .5 1 1 1 1 1 1 1 1 1 2 1 2"/><path d="m703 592l3 1 1.5-.5 1.5-.5h2.5 2.5 2 2l.5.5.5.5h.5.5v-24.5-24.5-24-24-24.5-24.5-7.5-7.5l-7.5 8-7.5 8-3 9.5-3 9.5-1.5 19-1.5 19 1.5 22.5 1.5 22.5 2 21 2 21"/></g><path d="m37 591h2l1.5-.5 1.5-.5 1.5-1 1.5-1h1 1l1-1.5 1-1.5.5-1.5.5-1.5v-1.5-1.5-1.5-1.5l-2 .5-2 .5-.5 1-.5 1-.5 1.5-.5 1.5-1.5-1-1.5-1-1 1-1 1-1 .5-1 .5-.5.5-.5.5v1.5 1.5 1.5 1.5l.5.5.5.5" style="fill:#822c1c;stroke:#822c1c"/><path d="m638 590h3l-.5-1.5-.5-1.5-1-1.5-1-1.5-1.5-.5-1.5-.5-1.5-1-1.5-1-1-1-1-1-1-.5-1-.5-1 1.5-1 1.5 1.5.5 1.5.5.5 1 .5 1 1.5 1.5 1.5 1.5 1.5 1 1.5 1 1 .5 1 .5" style="fill:#c5b093;stroke:#c5b093"/><path d="m450 588l2 1-1.5-1.5-1.5-1.5v-2-2-1.5-1.5l-1-1-1-1-1-1-1-1-2-.5-2-.5.5 1.5.5 1.5v.5.5l-.5 1.5-.5 1.5 1.5 2 1.5 2 1.5.5 1.5.5 1.5 1 1.5 1" style="fill:#583b32;stroke:#583b32"/><path d="m551 588l3 1 1-.5 1-.5 1.5-1.5 1.5-1.5 1-1 1-1v-2.5-2.5l-.5-1.5-.5-1.5v-2.5-2.5-1-1-2-2l-1 .5-1 .5-1.5-.5-1.5-.5-2-.5-2-.5.5-1.5.5-1.5h-2.5-2.5l-.5 1-.5 1-.5 1-.5 1-.5.5-.5.5-1 .5-1 .5h-1.5-1.5l-1-.5-1-.5-1-.5-1-.5-.5-1-.5-1-2-.5-2-.5-.5-1-.5-1-.5-1-.5-1-1.5-.5-1.5-.5-1-.5-1-.5 2 11 2 11 10.5 1.5 10.5 1.5.5 2 .5 2 .5.5.5.5.5 1.5.5 1.5" style="fill:#c84228;stroke:#c84228"/><path d="m649 587l1 1-1.5-2.5-1.5-2.5-.5-1-.5-1-1.5-.5-1.5-.5-1.5-1-1.5-1-1.5-.5-1.5-.5-2.5-1-2.5-1h-1.5-1.5l1 1 1 1 1.5 1 1.5 1 1.5.5 1.5.5 1 1.5 1 1.5 1.5.5 1.5.5 1.5-.5 1.5-.5 1 1.5 1 1.5 1 .5 1 .5" style="fill:#c5b093;stroke:#c5b093"/><path d="m537 586l3 1 2-1 2-1 .5-1 .5-1v-1-1l.5-.5.5-.5-.5-.5-.5-.5 1.5.5 1.5.5.5-1 .5-1-1-1.5-1-1.5-1-1-1-1-2 .5-2 .5-1 1-1 1-1.5.5-1.5.5-.5 2-.5 2v2 2l1 .5 1 .5" style="fill:#583b32;stroke:#583b32"/><path d="m70 583l-2-18 .5 1.5.5 1.5h1 1l1 .5 1 .5v1 1l-1 .5-1 .5-1 1-1 1 .5 1.5.5 1.5.5 1 .5 1-1 1-1 1 .5 1 .5 1" style="fill:#822c1c;stroke:#822c1c"/><path d="m567 578h3l1.5-.5 1.5-.5 1.5-1 1.5-1v-1.5-1.5l-1 1-1 1-1.5.5-1.5.5h-1-1l-.5-1.5-.5-1.5v-1-1l-.5-.5-.5-.5.5-.5.5-.5v-1.5-1.5-1-1l-1.5-.5-1.5-.5-1 1.5-1 1.5-.5 1.5-.5 1.5.5 2 .5 2-.5 1.5-.5 1.5 1 1.5 1 1.5h1.5 1.5" style="fill:#583b32;stroke:#583b32"/><path d="m451 577l1 1v-3-3l.5-2 .5-2 1.5-.5 1.5-.5 2 .5 2 .5 1.5.5 1.5.5 2 1 2 1-8 3-8 3" style="fill:#895b4e;stroke:#895b4e"/><path d="m569 575h2l1.5-.5 1.5-.5 1-1 1-1 1.5-1.5 1.5-1.5v-2.5-2.5l-1-.5-1-.5-.5.5-.5.5-.5 1-.5 1-2-.5-2-.5v-.5-.5l-1-1.5-1-1.5-.5-.5-.5-.5h-1-1l-.5 1-.5 1 1.5.5 1.5.5v1 1 1.5 1.5l-.5.5-.5.5.5.5.5.5v1 1l.5 1.5.5 1.5" style="fill:#822c1c;stroke:#822c1c"/><path d="m629 574v1h1.5 1.5l-15.5-15-15.5-15 .5 2 .5 2 11.5 12 11.5 12 2 .5 2 .5" style="fill:#e8dbbc;stroke:#e8dbbc"/><path d="m57 572l2-1 1.5-.5 1.5-.5 1 .5 1 .5 1.5-.5 1.5-.5-.5-1-.5-1 1-1.5 1-1.5-1-.5-1-.5-1.5-.5-1.5-.5-1-1-1-1 .5-1 .5-1-1.5.5-1.5.5-.5.5-.5.5h-1-1l.5 1 .5 1v1 1h1 1 1 1 1.5 1.5l.5-.5.5-.5v1 1 1 1l-1 .5-1 .5-.5-.5-.5-.5h-1-1l-.5.5-.5.5-.5.5-.5.5-.5 1-.5 1" style="fill:#822c1c;stroke:#822c1c"/><path d="m539 566h3l1-.5 1-.5.5-.5.5-.5.5-1 .5-1 .5-1 .5-1v-.5-.5l-1-2-1-2-.5 1-.5 1h-2-2l-1 .5-1 .5-1 1.5-1 1.5-1 .5-1 .5.5 1 .5 1 1 .5 1 .5 1 .5 1 .5" style="fill:#bc7b69;stroke:#bc7b69"/><path d="m571 565l4 1 .5-1 .5-1 .5-.5.5-.5 1 .5 1 .5 1 .5 1 .5v-1-1l.5-1 .5-1 .5-1 .5-1h-2-2v-1.5-1.5-1-1-1-1l-.5-.5-.5-.5-1.5.5-1.5.5h-1.5-1.5l-.5.5-.5.5v1 1 1.5 1.5l.5.5.5.5-1 1-1 1 .5 1.5.5 1.5v.5.5" style="fill:#c84228;stroke:#c84228"/><path d="m555 564l3 1 1-.5 1-.5 1.5-1.5 1.5-1.5v-2-2l.5-2 .5-2 1.5.5 1.5.5 1.5 1 1.5 1-.5-1.5-.5-1.5v-1-1l-1-1.5-1-1.5-1.5-1-1.5-1-1 .5-1 .5-.5 2-.5 2-1.5 1.5-1.5 1.5-.5 1-.5 1-.5.5-.5.5-1 .5-1 .5-1 1-1 1-.5 1.5-.5 1.5 2 .5 2 .5" style="fill:#bc7b69;stroke:#bc7b69"/><g style="fill:#895b4e;stroke:#895b4e"><path d="m464 563h2l1-1 1-1v-1.5-1.5l2.5-.5 2.5-.5-.5-1-.5-1-1.5-.5-1.5-.5-2 .5-2 .5-1 1-1 1-.5 1.5-.5 1.5 1 1.5 1 1.5"/><path d="m530 561l4 1 1-.5 1-.5 1-1.5 1-1.5v-.5-.5l-.5-1-.5-1 .5-2 .5-2 .5-1.5.5-1.5.5-1 .5-1-1-1-1-1v-2-2l1.5-1 1.5-1 1.5-.5 1.5-.5 1-1.5 1-1.5 1-.5 1-.5v-1-1l-11 11.5-11 11.5-1.5.5-1.5.5 1 .5 1 .5 1.5.5 1.5.5.5 1 .5 1 .5 1 .5 1"/></g><path d="m547 559v1h2.5 2.5l1-1 1-1 1-.5 1-.5.5-.5.5-.5.5-1 .5-1v-1.5-1.5h-1.5-1.5l-1-1-1-1h-2.5-2.5l-1 1-1 1-1 .5-1 .5.5 1.5.5 1.5 1 2 1 2" style="fill:#583b32;stroke:#583b32"/><path d="m538 557v1l1-.5 1-.5h2 2l.5-1 .5-1-.5-1.5-.5-1.5v-.5-.5l.5-1.5.5-1.5 1-1 1-1 2-.5 2-.5 1-1 1-1 1 1 1 1 1 1.5 1 1.5.5 1.5.5 1.5v1.5 1.5l1.5-1.5 1.5-1.5.5-2 .5-2 1-.5 1-.5.5-1 .5-1 .5-1.5.5-1.5.5-1 .5-1 1.5-.5 1.5-.5.5-2 .5-2-1-1-1-1h-2.5-2.5l-2 .5-2 .5-1.5.5-1.5.5v1 1l-.5.5-.5.5-.5 1-.5 1-1 1-1 1h-1-1l-1-1.5-1-1.5.5-.5.5-.5-.5-1-.5-1-.5-1-.5-1-1 .5-1 .5-1 1.5-1 1.5-1.5.5-1.5.5-1.5 1-1.5 1v2 2l1 1 1 1-.5 1-.5 1-.5 1.5-.5 1.5-.5 2-.5 2 .5 1 .5 1" style="fill:#c84228;stroke:#c84228"/><path d="m289 556l25-19 11 1.5 11 1.5 14-.5 14-.5 14 .5 14 .5-3.5-3-3.5-3-14-4-14-4-17.5-1-17.5-1-11.5 1-11.5 1-8 12.5-8 12.5 3 2.5 3 2.5" style="fill:#bc7b69;stroke:#bc7b69"/><path d="m544 551v1l1-.5 1-.5 1-1 1-1h2.5 2.5l1 1 1 1h1.5 1.5l-.5-1.5-.5-1.5-1-1.5-1-1.5-1-1-1-1-1 1-1 1-2 .5-2 .5-1 1-1 1-.5 1.5-.5 1.5" style="fill:#822c1c;stroke:#822c1c"/><path d="m571 549l3 1 1-1 1-1h1.5 1.5l.5-.5.5-.5.5-1 .5-1h-2-2-1-1v-1.5-1.5l-1-1-1-1-1.5.5-1.5.5h-2-2l-.5 1.5-.5 1.5 1.5.5 1.5.5.5 1.5.5 1.5 1 .5 1 .5" style="fill:#583b32;stroke:#583b32"/><path d="m492 547h3l1-.5 1-.5.5-.5.5-.5.5-1.5.5-1.5-.5-1.5-.5-1.5-1.5-.5-1.5-.5h-1-1l-.5.5-.5.5-.5 1-.5 1h-1-1l.5.5.5.5.5.5.5.5-.5 1-.5 1-1 .5-1 .5 2 .5 2 .5" style="fill:#c84228;stroke:#c84228"/><path d="m575 545h2v-.5-.5-1.5-1.5-1.5-1.5-1-1l.5-.5.5-.5.5-.5.5-.5.5-1 .5-1 .5-.5.5-.5 1-.5 1-.5-1-2-1-2h-1-1l-.5-2-.5-2-.5-1.5-.5-1.5-1-1.5-1-1.5 17.5-7 17.5-7v-.5-.5l7.5-14 7.5-14 2.5-14 2.5-14-4-7.5-4-7.5-5-13.5-5-13.5-2.5-15-2.5-15-2-19-2-19-1.5-15-1.5-15-.5-14-.5-14 1-7.5 1-7.5-4.5-8-4.5-8-3-7.5-3-7.5 4-1 4-1-10.5-13-10.5-13-5.5-3-5.5-3-11.5-8-11.5-8-13.5-5-13.5-5-1-16-1-16-9-10.5-9-10.5-9-2.5-9-2.5 5.5-15 5.5-15-14.5-3.5-14.5-3.5-9.5 10-9.5 10-9.5-10.5-9.5-10.5-10 .5-10 .5-10-1.5-10-1.5-8 9.5-8 9.5-13.5-1-13.5-1-11.5-6.5-11.5-6.5-14 4.5-14 4.5-15.5 5-15.5 5-8.5 1-8.5 1-1 1.5-1 1.5-15 5-15 5-10.5 7-10.5 7 3-7.5 3-7.5-10.5 13-10.5 13-10 11.5-10 11.5-11.5 13-11.5 13-8 16-8 16-3 18.5-3 18.5-5 18.5-5 18.5-5.5 15-5.5 15 .5 1 .5 1 .5 15.5.5 15.5-15.5 8-15.5 8-17 4.5-17 4.5-1 2-1 2-1 1-1 1-1 1.5-1 1.5-.5 1.5-.5 1.5-1 1.5-1 1.5v2 2l1 1.5 1 1.5 1.5.5 1.5.5.5 1 .5 1 1.5.5 1.5.5 2 .5 2 .5 1 1 1 1 1 1 1 1-1 1.5-1 1.5-.5 1.5-.5 1.5-2 .5-2 .5-1 1-1 1-2 .5-2 .5-1 1-1 1-1 .5-1 .5.5 1 .5 1 1 1 1 1-.5 2-.5 2-1 1-1 1v1.5 1.5l1.5.5 1.5.5 1 1.5 1 1.5 1 .5 1 .5h1.5 1.5l22.5-11.5 22.5-11.5 1 1 1 1 .5.5.5.5 1 1 1 1-10.5 25-10.5 25 .5 1.5.5 1.5v1.5 1.5 1 1 2 2 1.5 1.5 1 1 1 1l-.5 1.5-.5 1.5v2.5 2.5l-1.5 1-1.5 1 1 1 1 1 1.5 1 1.5 1 .5 1.5.5 1.5h1.5 1.5l1 1 1 1h2 2l1 .5 1 .5 23.5 1.5 23.5 1.5 5 13 5 13-1-21.5-1-21.5-6-9.5-6-9.5 1.5-12 1.5-12-10.5 13.5-10.5 13.5-7-12.5-7-12.5-5 13.5-5 13.5-1.5-8-1.5-8-1.5-9.5-1.5-9.5 10-7.5 10-7.5-12.5-11-12.5-11-11-3.5-11-3.5 13-7 13-7 8.5-12 8.5-12 10-12.5 10-12.5-3-17-3-17 10.5-9 10.5-9 3.5-11 3.5-11 1.5-13.5 1.5-13.5.5-8 .5-8 5-11.5 5-11.5.5-6.5.5-6.5 8.5-12 8.5-12 11-11.5 11-11.5 14-9 14-9 14.5-3 14.5-3 11-5.5 11-5.5 14-1 14-1 9.5 8 9.5 8-5.5 7-5.5 7-14 4-14 4-9.5 13-9.5 13-9.5 15-9.5 15-6.5 16-6.5 16 1 16.5 1 16.5 18.5-2.5 18.5-2.5 19.5 1 19.5 1 18 4.5 18 4.5 16 6.5 16 6.5 16.5-4 16.5-4 17.5-7 17.5-7 22-1 22-1 20 2.5 20 2.5 18.5 3 18.5 3 8 9.5 8 9.5 8 .5 8 .5 8 8 8 8 1.5 14 1.5 14-2 10.5-2 10.5 3 13.5 3 13.5-2 16.5-2 16.5-6.5 5.5-6.5 5.5 5.5 6 5.5 6-.5 6-.5 6 5.5-7 5.5-7 3 5.5 3 5.5-4.5 6-4.5 6v3 3l10.5 4 10.5 4-11 4.5-11 4.5-1.5 11-1.5 11-8.5 7-8.5 7-7 6.5-7 6.5v1 1l2-.5 2-.5h2.5 2.5l1 1 1 1-.5 2-.5 2-1.5.5-1.5.5-.5 1-.5 1h2 2l1.5-.5 1.5-.5 1 1 1 1v1.5 1.5" style="fill:#895b4e;stroke:#895b4e"/><path d="m577 544v1h2 2l1-1 1-1 .5-1.5.5-1.5 1-1.5 1-1.5 1.5-1.5 1.5-1.5-1-.5-1-.5-1-1-1-1-1-.5-1-.5-1 .5-1 .5-.5.5-.5.5-.5 1-.5 1-.5.5-.5.5-.5.5-.5.5v1 1 1.5 1.5 1.5 1.5" style="fill:#c84228;stroke:#c84228"/><path d="m551 541h2l1-1 1-1 .5-1 .5-1 .5-.5.5-.5v-1-1l1.5-.5 1.5-.5v-1-1l-2-1-2-1-1-1-1-1-.5 2-.5 2-1.5.5-1.5.5-1-.5-1-.5v1 1l.5 1 .5 1 .5 1 .5 1-.5.5-.5.5 1 1.5 1 1.5" style="fill:#822c1c;stroke:#822c1c"/><path d="m458 537l29-7 9-14.5 9-14.5 3-16.5 3-16.5 2-17.5 2-17.5 4.5-16 4.5-16-1-13-1-13-8 1.5-8 1.5-21 3.5-21 3.5-16 2.5-16 2.5-15-8.5-15-8.5-10-7-10-7-8.5-16-8.5-16-12.5 10-12.5 10-12 9.5-12 9.5-12 11.5-12 11.5-19-.5-19-.5-20.5-1.5-20.5-1.5 2 17.5 2 17.5 2.5 18 2.5 18 4.5 15 4.5 15 6 13.5 6 13.5 9 10 9 10 1-13.5 1-13.5 9-10.5 9-10.5 13-10.5 13-10.5 8-14.5 8-14.5 14.5-7.5 14.5-7.5 16-.5 16-.5 6.5 13 6.5 13 10 14.5 10 14.5 9.5 3 9.5 3 6.5 14 6.5 14 4.5 14.5 4.5 14.5" style="fill:#bc7b69;stroke:#bc7b69"/><path d="m511 536l13-19-9 7.5-9 7.5 2.5 2 2.5 2" style="fill:#1b1a10;stroke:#1b1a10"/><path d="m85 527l3 1 1.5-.5 1.5-.5.5-2 .5-2-.5-1.5-.5-1.5-1-1.5-1-1.5-1.5.5-1.5.5-.5 2-.5 2v1 1l-.5 1.5-.5 1.5h.5.5" style="fill:#ffe;stroke:#ffe"/><path d="m51 526h2l1.5-.5 1.5-.5 1.5-1 1.5-1-.5-1.5-.5-1.5-1.5-1-1.5-1-1-1-1-1v-1.5-1.5l.5-.5.5-.5h1 1 2 2 1.5 1.5l-1-.5-1-.5h-2-2l-1-1-1-1h-1.5-1.5l-.5-1.5-.5-1.5-1.5-1-1.5-1-1-1-1-1 1.5-1 1.5-1v-2.5-2.5l1 15.5 1 15.5" style="fill:#bc7b69;stroke:#bc7b69"/><path d="m416 524l-10-12-14-9.5-14-9.5-16 .5-16 .5-13 4.5-13 4.5-13 8.5-13 8.5 19.5.5 19.5.5h21.5 21.5l19 .5 19 .5 1 1 1 1" style="fill:#583b32;stroke:#583b32"/><path d="m0 522v1l10.5-14.5 10.5-14.5-10.5-7-10.5-7v2.5 2.5 2 2 2.5 2.5 2 2 2 2 2.5 2.5 2 2 2.5 2.5 2 2 1 1" style="fill:#ffe;stroke:#ffe"/><g style="fill:#1b1a10;stroke:#1b1a10"><path d="m346 517h2l-1-1-1-1 .5-2 .5-2h1 1l1.5 1 1.5 1 1 1 1 1 1-1.5 1-1.5 1-1 1-1h.5.5l-.5-1-.5-1-2-.5-2-.5-1.5.5-1.5.5h-1.5-1.5l-1.5-.5-1.5-.5-2 .5-2 .5v1.5 1.5l1.5 1.5 1.5 1.5 1 1 1 1v.5.5"/><path d="m320 515l3 1 1.5-.5 1.5-.5 2 .5 2 .5 1-1 1-1 1.5-1 1.5-1h2 2l1-.5 1-.5-2-1-2-1-1-1-1-1-2-.5-2-.5-1.5.5-1.5.5-1.5 1-1.5 1-1 1-1 1-1.5 1-1.5 1v1 1"/><path d="m364 515l3 1 1.5-.5 1.5-.5v-1.5-1.5l.5-1.5.5-1.5 1.5-1 1.5-1-1.5-.5-1.5-.5-2 .5-2 .5-1 1-1 1-1.5.5-1.5.5h-1.5-1.5l1 1 1 1h.5.5l.5 1.5.5 1.5h.5.5"/><path d="m376 515l3 1 1-1 1-1h2.5 2.5l-.5-1.5-.5-1.5-1.5-1-1.5-1-.5-1.5-.5-1.5h-1.5-1.5v1 1 1 1l-1 1.5-1 1.5v1 1"/></g><path d="m139 513l3 1 1.5-.5 1.5-.5.5-2 .5-2 .5-1.5.5-1.5.5-2 .5-2-1-1-1-1h-1.5-1.5l-1 1-1 1-.5 1.5-.5 1.5-.5 2-.5 2v2 2" style="fill:#895b4e;stroke:#895b4e"/><g style="fill:#c5b093;stroke:#c5b093"><path d="m43 512l3 1 1.5-.5 1.5-.5v-2.5-2.5l-1-1-1-1h-1.5-1.5l-1 1-1 1-1 1.5-1 1.5 1 1 1 1h.5.5"/><path d="m77 509h2l1.5.5 1.5.5v-1.5-1.5-2-2-.5-.5l9-7.5 9-7.5h-6-6l-5.5 11-5.5 11"/></g><g style="fill:#bc7b69;stroke:#bc7b69"><path d="m92 507l9-17-.5-1.5-.5-1.5-9 7.5-9 7.5 2.5 1 2.5 1 1 1 1 1 1.5.5 1.5.5"/><path d="m610 501v1l13-18.5 13-18.5 5-13.5 5-13.5-1.5-11-1.5-11-10.5-8-10.5-8-4-13.5-4-13.5-1.5-14-1.5-14-2-17-2-17 2.5-6 2.5-6 2.5-18 2.5-18-4.5-14-4.5-14-9.5-15-9.5-15-12.5-11-12.5-11-11-4.5-11-4.5-8.5-11.5-8.5-11.5v-9.5-9.5l-13-8.5-13-8.5-5-3.5-5-3.5-5-9.5-5-9.5 19-4.5 19-4.5-14-8.5-14-8.5-12-1-12-1-12.5 3-12.5 3 .5 1.5.5 1.5.5 1 .5 1 .5 1.5.5 1.5h-1-1-1-1l1 1 1 1 1 1 1 1 1.5.5 1.5.5 2 .5 2 .5 1 1 1 1v2.5 2.5l-1.5.5-1.5.5-1.5 1-1.5 1-1.5.5-1.5.5-1.5-.5-1.5-.5-1-8.5-1-8.5-1-1.5-1-1.5-1-1-1-1-.5-.5-.5-.5v-1.5-1.5l1.5-.5 1.5-.5 2 1.5 2 1.5-24-3.5-24-3.5-12.5 6-12.5 6-8.5 7-8.5 7-14-7.5-14-7.5-16 3.5-16 3.5-8.5-2.5-8.5-2.5-14 4.5-14 4.5-7.5 10-7.5 10-15.5 3-15.5 3-13.5 7.5-13.5 7.5-12 10.5-12 10.5-7.5 11-7.5 11-9 13.5-9 13.5-5.5 17.5-5.5 17.5-3 17.5-3 17.5-4.5 15-4.5 15-3.5 14-3.5 14 5.5-15 5.5-15 5-18.5 5-18.5 3-18.5 3-18.5 8-16 8-16 11.5-13 11.5-13 10-11.5 10-11.5 10.5-13 10.5-13-3 7.5-3 7.5 10.5-7 10.5-7 15-5 15-5 1-1.5 1-1.5 8.5-1 8.5-1 15.5-5 15.5-5 14-4.5 14-4.5 11.5 6.5 11.5 6.5 13.5 1 13.5 1 8-9.5 8-9.5 10 1.5 10 1.5 10-.5 10-.5 9.5 10.5 9.5 10.5 9.5-10 9.5-10 14.5 3.5 14.5 3.5h1 1-1-1l-5.5 15-5.5 15 9 2.5 9 2.5 9 10.5 9 10.5 1 16 1 16 13.5 5 13.5 5 11.5 8 11.5 8 5.5 3 5.5 3 10.5 13 10.5 13-4 1-4 1 3 7.5 3 7.5 4.5 8 4.5 8-1 7.5-1 7.5.5 14 .5 14 1.5 15 1.5 15 2 19 2 19 2.5 15 2.5 15 5 13.5 5 13.5 4 7.5 4 7.5-2.5 14-2.5 14-7.5 14-7.5 14"/></g><g style="fill:#583b32;stroke:#583b32"><path d="m402 493l-7-11-8-6.5-8-6.5-2.5-6-2.5-6-12.5-2-12.5-2-8 11.5-8 11.5 16 3 16 3 14.5 3 14.5 3 4 2.5 4 2.5"/><path d="m313 490l14-18 4-7.5 4-7.5-6 3.5-6 3.5-2-.5-2-.5-3 13.5-3 13.5"/></g><path d="m2 477l3 1 .5-.5.5-.5.5-.5.5-.5h1.5 1.5l.5-.5.5-.5v-1-1-1-1l-.5-.5-.5-.5h-1.5-1.5l-.5.5-.5.5h-1-1l-.5.5-.5.5-1.5-.5-1.5-.5v1.5 1.5.5.5l1 1 1 1" style="fill:#ffe;stroke:#ffe"/><path d="m49 472v1l10.5-25 10.5-25 .5 1 .5 1v1 1l.5.5.5.5-.5 1-.5 1-1.5.5-1.5.5h-1-1v1 1l.5.5.5.5-.5 1-.5 1-.5.5-.5.5h-1-1l-.5.5-.5.5-1 .5-1 .5h-1-1l-.5.5-.5.5-.5.5-.5.5h-1-1l5.5-11.5 5.5-11.5-22.5 11.5-22.5 11.5 14.5 15.5 14.5 15.5" style="fill:#bc7b69;stroke:#bc7b69"/><path d="m153 466h2l1.5-.5 1.5-.5.5-2 .5-2 .5-1.5.5-1.5 1-1.5 1-1.5h-1-1l-1.5 1-1.5 1-1 1-1 1-1 1-1 1-1 1.5-1 1.5 1 1 1 1" style="fill:#895b4e;stroke:#895b4e"/><path d="m0 458v1l1-.5 1-.5 1.5-.5 1.5-.5 1.5-1 1.5-1 1-1 1-1 .5-2 .5-2-1.5-.5-1.5-.5h-1.5-1.5l-1 1-1 1-1-1-1-1-.5-2.5-.5-2.5v1.5 1.5 2.5 2.5 2 2 1.5 1.5" style="fill:#ffe;stroke:#ffe"/><path d="m418 444l-7-29 2.5 14 2.5 14 1 .5 1 .5" style="fill:#895b4e;stroke:#895b4e"/><path d="m336 442l3 1 1-1 1-1 1.5-1 1.5-1 1.5-.5 1.5-.5.5-2 .5-2-1-1-1-1-.5-1-.5-1 1.5.5 1.5.5.5-1.5.5-1.5v-1.5-1.5l-.5-.5-.5-.5-1 .5-1 .5h-1-1l-2-.5-2-.5h-1-1l-1 1.5-1 1.5-.5 1.5-.5 1.5-1 1-1 1v1.5 1.5l.5 1.5.5 1.5.5 2 .5 2h.5.5" style="fill:#583b32;stroke:#583b32"/><path d="m54 441h2l.5-.5.5-.5.5-.5.5-.5h1 1l1-.5 1-.5.5-.5.5-.5h1 1l.5-.5.5-.5.5-1 .5-1-.5-.5-.5-.5v-1-1h1 1l1.5-.5 1.5-.5.5-1 .5-1-.5-.5-.5-.5v-1-1l-.5-1-.5-1-1-1-1-1-.5-.5-.5-.5-1-1-1-1-5.5 11.5-5.5 11.5" style="fill:#c5b093;stroke:#c5b093"/><g style="fill:#583b32;stroke:#583b32"><path d="m134 439l18-22-9.5 11-9.5 11h.5.5"/><path d="m153 439l15-27 4.5-12 4.5-12-6.5-3-6.5-3-2 18.5-2 18.5-3.5 10-3.5 10"/></g><path d="m332 434l1 1v-1.5-1.5l1-1 1-1 .5-1.5.5-1.5 1-1.5 1-1.5h1 1l2 .5 2 .5h1 1l1-.5 1-.5.5.5.5.5-1-1-1-1-1.5-.5-1.5-.5-2-.5-2-.5-1 1-1 1-1.5 1-1.5 1-1 1-1 1-.5 2-.5 2-1 1-1 1 1 .5 1 .5" style="fill:#822c1c;stroke:#822c1c"/><path d="m106 429l3 1 .5-1.5.5-1.5.5-2 .5-2v-2-2l-.5-2-.5-2-.5-1.5-.5-1.5-2 .5-2 .5v2 2 2 2 2.5 2.5l.5 1.5.5 1.5" style="fill:#895b4e;stroke:#895b4e"/><path d="m10 422v1l1-.5 1-.5 1-1 1-1 2-.5 2-.5 1-1 1-1 2-.5 2-.5.5-1.5.5-1.5 1-1.5 1-1.5-1-1-1-1-1-1-1-1-2-.5-2-.5-1.5-.5-1.5-.5 1.5 1.5 1.5 1.5 1 1 1 1 2 .5 2 .5-.5 1.5-.5 1.5-1.5 1-1.5 1-1.5.5-1.5.5-.5 1-.5 1h-1-1l-1 1-1 1-1.5 1-1.5 1" style="fill:#bc7b69;stroke:#bc7b69"/><path d="m575 414l3 1 .5-1.5.5-1.5-.5-2-.5-2-.5-1.5-.5-1.5-1.5-1-1.5-1-1.5-.5-1.5-.5-.5 2-.5 2 1 1 1 1v2 2l1.5 1 1.5 1" style="fill:#895b4e;stroke:#895b4e"/><path d="m98 408l11-13 5-13.5 5-13.5-8-.5-8-.5-11.5 7-11.5 7 4 11.5 4 11.5 5 2 5 2" style="fill:#1b1a10;stroke:#1b1a10"/><path d="m109 408l3 1 .5-1.5.5-1.5.5-2 .5-2 .5-1.5.5-1.5-1.5-1-1.5-1-1 1-1 1h-2.5-2.5l-1 1-1 1v2 2l1.5 1 1.5 1 1.5.5 1.5.5" style="fill:#895b4e;stroke:#895b4e"/><path d="m389 407l3 1 .5-1.5.5-1.5v-2.5-2.5l.5-1.5.5-1.5-.5-2-.5-2-.5-1.5-.5-1.5-1-1.5-1-1.5-.5-1.5-.5-1.5-.5-1.5-.5-1.5h-.5-.5v2 2l.5 2 .5 2 .5 1.5.5 1.5-.5.5-.5.5-1-.5-1-.5h-1-1l-1-.5-1-.5v-1-1-1-1l-.5-.5-.5-.5-.5-1-.5-1-1-1-1-1v-1-1-1.5-1.5l-1-1-1-1v-1-1l.5-1 .5-1 2-.5 2-.5-6-17.5-6-17.5-10 2.5-10 2.5-1 16.5-1 16.5-6.5 14-6.5 14 14.5 1 14.5 1 6-2 6-2 7 4 7 4" style="fill:#e7967f;stroke:#e7967f"/><path d="m36 403l9-17-5.5 8-5.5 8 1 .5 1 .5" style="fill:#bc7b69;stroke:#bc7b69"/><path d="m388 393l1-1-.5-1.5-.5-1.5-.5-2-.5-2v-2-2l-1-1.5-1-1.5-.5-1.5-.5-1.5-1-1.5-1-1.5-.5-1-.5-1-2 .5-2 .5-.5 1-.5 1v1 1l1 1 1 1v1.5 1.5 1 1l1 1 1 1 .5 1 .5 1 .5.5.5.5v1 1 1 1l1 .5 1 .5h1 1l1 .5 1 .5" style="fill:#e8dbbc;stroke:#e8dbbc"/><path d="m19 378v1l17-4.5 17-4.5 15.5-8 15.5-8-.5-15.5-.5-15.5-15.5 22-15.5 22-16.5 5.5-16.5 5.5" style="fill:#bc7b69;stroke:#bc7b69"/><path d="m694 374l24-10-12.5-1-12.5-1 .5 6 .5 6" style="fill:#ffe;stroke:#ffe"/><g style="fill:#895b4e;stroke:#895b4e"><path d="m236 370l38-2 8-5.5 8-5.5-.5-4-.5-4-10.5-6-10.5-6 .5-8 .5-8-6-7-6-7-13 10.5-13 10.5-2-6.5-2-6.5 10.5-13 10.5-13v-8.5-8.5l-20.5 1.5-20.5 1.5 1.5 17 1.5 17-3 20.5-3 20.5 13.5 10 13.5 10h2.5 2.5"/><path d="m451 370l43-1 13-11.5 13-11.5 4-18.5 4-18.5-4.5-16-4.5-16-19-4.5-19-4.5-20.5.5-20.5.5-18.5 4-18.5 4-7 10.5-7 10.5 12.5-7 12.5-7 12-.5 12-.5 10 4 10 4 10 9.5 10 9.5-14-5.5-14-5.5-11 7.5-11 7.5 12.5 10 12.5 10-11 9.5-11 9.5-5 4-5 4 15 4.5 15 4.5"/></g><g style="fill:#bc7b69;stroke:#bc7b69"><path d="m464 367l39-5 6-14.5 6-14.5-3.5-4-3.5-4 7.5-14 7.5-14-10-12.5-10-12.5h-.5-.5l1 .5 1 .5 1 .5 1 .5 1.5.5 1.5.5 1.5 1 1.5 1 .5 1.5.5 1.5v1 1l-.5.5-.5.5v1 1l.5 1 .5 1v1 1l-.5.5-.5.5v1 1l-.5 1-.5 1v1 1 1 1l-.5.5-.5.5.5 1 .5 1-1 1-1 1h-1-1l-9.5-14-9.5-14-1-1.5-1-1.5.5-1 .5-1 2 12 2 12 6.5 14 6.5 14-4 8-4 8-8.5 9-8.5 9-8.5 4-8.5 4 1 1.5 1 1.5"/><path d="m223 366l3-17-6 3.5-6 3.5 4.5 5 4.5 5"/></g><path d="m193 354l9-31-5.5-18-5.5-18-5.5 3-5.5 3 1 6.5 1 6.5.5 12 .5 12 3 8 3 8 2 4 2 4" style="fill:#1b1a10;stroke:#1b1a10"/><path d="m704 352l16-22v-25.5-25.5-24.5-24.5-24.5-24.5-24.5-24.5-24.5-24.5-24-24-17.5-17.5h-7-7-24.5-24.5-24.5-24.5-24.5-24.5-24-24-24.5-24.5-24.5-24.5-24.5-24.5-24.5-24.5-24.5-24.5-24-24-24.5-24.5-8-8l.5 2 .5 2v2.5 2.5l-1 1-1 1 1.5 1 1.5 1-1 1-1 1h-1-1v-2-2-1-1l-1-.5-1-.5v-2-2-1-1l.5-1 .5-1h-3-3-2-2-2.5-2.5-2-2-2-2v2 2l-1 1-1 1-1.5-.5-1.5-.5-.5-1.5-.5-1.5h-1-1-1-1l-1 .5-1 .5-.5.5-.5.5-.5.5-.5.5-.5-.5-.5-.5-1-.5-1-.5 1-1.5 1-1.5h-1.5-1.5-2.5-2.5-2-2-2.5-2.5l15.5 6 15.5 6 5.5 9 5.5 9 9.5 7 9.5 7 12 1.5 12 1.5 4.5 6 4.5 6 5-1 5-1 8.5 3 8.5 3 16 1.5 16 1.5 10-9.5 10-9.5 9-5.5 9-5.5 15 6 15 6 16-4.5 16-4.5 14 3.5 14 3.5 13.5-1 13.5-1 15.5-1 15.5-1 17.5 3 17.5 3 13.5 1.5 13.5 1.5 13 7.5 13 7.5 17.5 7 17.5 7 4.5 9 4.5 9-11.5 4-11.5 4 18 2 18 2 5 19.5 5 19.5 9.5 15 9.5 15-3-13.5-3-13.5.5-8 .5-8 8.5 12.5 8.5 12.5 4 13.5 4 13.5 3 12.5 3 12.5-4.5 3-4.5 3 8.5-5 8.5-5 1-6.5 1-6.5 7.5 15.5 7.5 15.5 6-12.5 6-12.5 5.5 10 5.5 10-5.5 13-5.5 13 1.5 3 1.5 3-16.5 4.5-16.5 4.5-5 15.5-5 15.5-3.5 10-3.5 10 4 6.5 4 6.5 8 4.5 8 4.5 9.5 1.5 9.5 1.5 10.5-1.5 10.5-1.5 8 8 8 8" style="fill:#ffe;stroke:#ffe"/><path d="m3 348l-3-2v1 1h1.5 1.5" style="fill:#c5b093;stroke:#c5b093"/><path d="m462 340h2l-1-1-1-1 .5-2 .5-2 .5-1.5.5-1.5-2-.5-2-.5-1.5-.5-1.5-.5-.5 2-.5 2 .5 1.5.5 1.5 1 1 1 1 1.5 1 1.5 1" style="fill:#bc7b69;stroke:#bc7b69"/><path d="m323 314l-5-31-14-2.5-14-2.5 7.5 9 7.5 9 9 9 9 9" style="fill:#895b4e;stroke:#895b4e"/><path d="m507 303h2l1-1 1-1-.5-1-.5-1 .5-.5.5-.5v-1-1-1-1l.5-1 .5-1v-1-1l.5-.5.5-.5v-1-1l-.5-1-.5-1v-1-1l.5-.5.5-.5v-1-1l-.5-1.5-.5-1.5-1.5-1-1.5-1 .5 1.5.5 1.5-1.5 1-1.5 1h2 2v2.5 2.5h-1-1l-.5 1.5-.5 1.5-1.5 1-1.5 1h-1-1l-1-1.5-1-1.5-1-1-1-1-1.5-1-1.5-1-.5-1.5-.5-1.5-1.5-1-1.5-1v-1-1l-2-.5-2-.5 9.5 14 9.5 14" style="fill:#e7967f;stroke:#e7967f"/><path d="m134 295l13-21 3.5-13 3.5-13-4.5 5-4.5 5-4.5 12-4.5 12-1 6.5-1 6.5" style="fill:#1b1a10;stroke:#1b1a10"/><path d="m567 294l-6-30 1 12.5 1 12.5 2 2.5 2 2.5" style="fill:#bc7b69;stroke:#bc7b69"/><path d="m503 290h2l1.5-1 1.5-1v-.5-.5-1.5-1.5l-1-1-1-1-.5-.5-.5-.5v-1.5-1.5l-.5-1.5-.5-1.5-.5-.5-.5-.5-1-.5-1-.5-1.5-.5-1.5-.5h-1-1l-.5-.5-.5-.5-.5.5-.5.5h-1.5-1.5l.5 2 .5 2v1 1l1.5 1 1.5 1 .5 1.5.5 1.5 1.5 1 1.5 1 1 1 1 1 1 1.5 1 1.5" style="fill:#e8dbbc;stroke:#e8dbbc"/><path d="m508 287v1l.5-1.5.5-1.5h1 1v-2.5-2.5h-2-2l1.5-1 1.5-1-.5-1.5-.5-1.5-1.5-.5-1.5-.5-1-.5-1-.5-1-.5-1-.5-2.5-1-2.5-1h-2-2-2.5-2.5-.5-.5l-.5 1-.5 1 1 1.5 1 1.5 2 .5 2 .5-.5-2-.5-2h1.5 1.5l.5-.5.5-.5.5.5.5.5h1 1l1.5.5 1.5.5 1 .5 1 .5.5.5.5.5.5 1.5.5 1.5v1.5 1.5l.5.5.5.5 1 1 1 1v1.5 1.5" style="fill:#c5b093;stroke:#c5b093"/><path d="m573 283l-1-21-3-8.5-3-8.5h-9.5-9.5l6 8.5 6 8.5 7 10.5 7 10.5" style="fill:#583b32;stroke:#583b32"/><path d="m353 278l33-13 15.5-7 15.5-7 19 2.5 19 2.5 22 1.5 22 1.5 14.5-3 14.5-3-3-18-3-18-4.5-10-4.5-10-10-14.5-10-14.5-15.5-9-15.5-9-17.5-3-17.5-3-15-3-15-3h-15.5-15.5l-17.5 3-17.5 3-19 1.5-19 1.5-18 4.5-18 4.5-12 12.5-12 12.5-8.5 15.5-8.5 15.5-4 19.5-4 19.5 17.5 3 17.5 3h21.5 21.5l18 4.5 18 4.5 15.5 6 15.5 6" style="fill:#bc7b69;stroke:#bc7b69"/><path d="m169 262l17-15-.5-3-.5-3-2-5.5-2-5.5-8-3.5-8-3.5.5 14 .5 14 1.5 5.5 1.5 5.5" style="fill:#1b1a10;stroke:#1b1a10"/><g style="fill:#e7967f;stroke:#e7967f"><path d="m347 261l31-9 15.5-4 15.5-4 17 3.5 17 3.5-.5-1.5-.5-1.5v-.5-.5l-1-1-1-1h-1-1l-1-.5-1-.5v-2-2l1-.5 1-.5-15.5-6.5-15.5-6.5 19.5-7 19.5-7 2-.5 2-.5 1.5.5 1.5.5h2.5 2.5l.5-.5.5-.5 2 .5 2 .5v-1-1l-1-1.5-1-1.5-1-.5-1-.5-3.5-4-3.5-4h2 2l2-.5 2-.5 1.5.5 1.5.5.5-1 .5-1 .5-1.5.5-1.5-.5-1-.5-1-18-6-18-6 11-2 11-2h1.5 1.5l.5-.5.5-.5h1.5 1.5l-1-1-1-1-1-.5-1-.5-8.5-7-8.5-7 1-1 1-1v-.5-.5l-.5-.5-.5-.5-.5-.5-.5-.5v-.5-.5l1-.5 1-.5-19-2-19-2-18 2.5-18 2.5-16-.5-16-.5-16 1-16 1-18.5 4-18.5 4-11 8.5-11 8.5 1.5 8 1.5 8 11 8.5 11 8.5-12 7.5-12 7.5-1.5 4.5-1.5 4.5-.5 9-.5 9 15.5-2 15.5-2 19.5 1 19.5 1 17.5 2 17.5 2 2 3.5 2 3.5"/><path d="m518 259v-24l-.5-9.5-.5-9.5-.5 1-.5 1v1 1 1 1l-.5 1-.5 1v1 1l-.5.5-.5.5v1 1l.5 1 .5 1-.5.5-.5.5v1 1l-.5.5-.5.5 1 .5 1 .5.5-.5.5-.5v1 1h-1-1l-1 .5-1 .5-7.5 2.5-7.5 2.5-4.5 6-4.5 6-.5 1-.5 1h2.5 2.5 2 2l2 .5 2 .5h2 2l2-.5 2-.5 1 1 1 1 1.5-.5 1.5-.5 2 .5 2 .5h.5.5"/></g><path d="m480 256l3 1h2 2l.5-1 .5-1-2 .5-2 .5-1.5-.5-1.5-.5-21.5-8-21.5-8-1 .5-1 .5v2 2l1 .5 1 .5h1 1l1 1 1 1v.5.5l.5 1.5.5 1.5 2.5.5 2.5.5h1.5 1.5l1.5.5 1.5.5 1 .5 1 .5 1.5-.5 1.5-.5 2 .5 2 .5h2 2l2 .5 2 .5 1.5.5 1.5.5h2 2 1 1" style="fill:#c5b093;stroke:#c5b093"/><path d="m481 255l3 1 2-.5 2-.5 4.5-6 4.5-6 7.5-2.5 7.5-2.5v-.5-.5l-9.5-5-9.5-5-1 1-1 1-1-.5-1-.5-1.5.5-1.5.5-.5.5-.5.5-.5.5-.5.5v1 1l-1 .5-1 .5-.5.5-.5.5.5.5.5.5-.5.5-.5.5h-1-1l-.5-1-.5-1v-2-2l1-1 1-1 11.5-12.5 11.5-12.5-7-16-7-16-26.5-7.5-26.5-7.5 8.5 7 8.5 7 2 .5 2 .5 1.5.5 1.5.5 2 .5 2 .5 1 1 1 1 1.5 1 1.5 1 1 1 1 1-1 .5-1 .5-1.5-.5-1.5-.5h-2-2l-.5-.5-.5-.5h-1.5-1.5l-1.5-.5-1.5-.5-.5-.5-.5-.5-1-.5-1-.5-1-.5-1-.5-11 2-11 2 18 6 18 6 2 1 2 1 1 1.5 1 1.5 1.5.5 1.5.5 1.5 1 1.5 1 .5 1.5.5 1.5h-1-1-1.5-1.5-1-1l-.5-.5-.5-.5-1-.5-1-.5h-2-2-1-1l-1-.5-1-.5h-2-2l-1.5-.5-1.5-.5 3.5 4 3.5 4 2 .5 2 .5 1.5 1 1.5 1 1.5.5 1.5.5 1.5 1 1.5 1 1 1 1 1 1 1.5 1 1.5-1.5.5-1.5.5-1.5-.5-1.5-.5h-1.5-1.5l-.5-.5-.5-.5h-1-1l-1-.5-1-.5h-1-1l-.5-.5-.5-.5h-1-1-1.5-1.5l-.5-.5-.5-.5h-1-1-1-1l-1.5-.5-1.5-.5-19.5 7-19.5 7 15.5 6.5 15.5 6.5 21.5 8 21.5 8" style="fill:#e8dbbc;stroke:#e8dbbc"/><path d="m454 243l18-22-15.5 1-15.5 1 6.5 10 6.5 10" style="fill:#ffe;stroke:#ffe"/><path d="m479 237h2l.5-.5.5-.5-.5-.5-.5-.5.5-.5.5-.5 1-.5 1-.5v-1-1l.5-.5.5-.5.5-.5.5-.5 1.5-.5 1.5-.5 1 .5 1 .5 1-1 1-1-1-1.5-1-1.5.5-.5.5-.5v-1-1-1-1h-1.5-1.5l-.5.5-.5.5-.5.5-.5.5h-1-1l-.5 1-.5 1v1 1l-.5.5-.5.5-.5.5-.5.5-.5-1-.5-1-.5 2-.5 2-1 1-1 1v2 2l.5 1 .5 1" style="fill:#e7967f;stroke:#e7967f"/><g style="fill:#c5b093;stroke:#c5b093"><path d="m512 237v1l1-.5 1-.5h1 1v-1-1l-.5.5-.5.5-1-.5-1-.5.5-.5.5-.5v-1-1l.5-.5.5-.5-.5-1-.5-1v-1-1l.5-.5.5-.5v-1-1l.5-1 .5-1v-1-1-1-1l.5-1 .5-1-7-15-7-15-11.5-13-11.5-13-18.5-5-18.5-5h-2.5-2.5l-1 .5-1 .5v.5.5l.5.5.5.5.5.5.5.5v.5.5l-1 1-1 1 26.5 7.5 26.5 7.5 7 16 7 16-11.5 12.5-11.5 12.5.5-2 .5-2 .5 1 .5 1 .5-.5.5-.5.5-.5.5-.5v-1-1l.5-1 .5-1h1 1l.5-.5.5-.5.5-.5.5-.5h1.5 1.5v1 1 1 1l-.5.5-.5.5 1 1.5 1 1.5 9.5 5 9.5 5"/><path d="m0 235v1l1-.5 1-.5 1.5-.5 1.5-.5 1-.5 1-.5.5-.5.5-.5-.5-1.5-.5-1.5-.5-1-.5-1-.5-.5-.5-.5h-2.5-2.5v2 2 2 2 .5.5"/></g><path d="m180 225l19-19 4.5-7 4.5-7-4.5-8-4.5-8v-5.5-5.5l-5 6.5-5 6.5-1.5 8.5-1.5 8.5-2 9.5-2 9.5-1 5.5-1 5.5" style="fill:#1b1a10;stroke:#1b1a10"/><path d="m88 221l8-8v-9.5-9.5l-8.5 6-8.5 6 4.5 7.5 4.5 7.5" style="fill:#e8dbbc;stroke:#e8dbbc"/><path d="m470 217l3 1 1.5-.5 1.5-.5-1-1.5-1-1.5-1-1-1-1-1.5-1-1.5-1-1.5-.5-1.5-.5-1.5-1-1.5-1-2-.5-2-.5 1 .5 1 .5 1 1.5 1 1.5v1 1l-2-.5-2-.5-.5.5-.5.5h-2.5-2.5l-1.5-.5-1.5-.5-2 .5-2 .5 1.5.5 1.5.5h1 1 1 1l.5.5.5.5h1.5 1.5 1 1l.5.5.5.5h1 1l1 .5 1 .5h1 1l.5.5.5.5h1.5 1.5" style="fill:#c5b093;stroke:#c5b093"/><g style="fill:#bc7b69;stroke:#bc7b69"><path d="m271 213h2l1.5-.5 1.5-.5 2-.5 2-.5 1-1 1-1v-1.5-1.5l-1.5-.5-1.5-.5h-2.5-2.5l-1.5.5-1.5.5h-1-1l.5 2 .5 2 .5 1.5.5 1.5"/><path d="m348 209l39-3 6.5-3 6.5-3-16-.5-16-.5-14.5 2-14.5 2 1 2.5 1 2.5 3.5.5 3.5.5"/></g><path d="m490 206l1-27-11-2.5-11-2.5 1.5 6 1.5 6 5.5 7 5.5 7 3.5 3 3.5 3" style="fill:#ffe;stroke:#ffe"/><path d="m256 202l31-13-15.5 3-15.5 3v3.5 3.5" style="fill:#bc7b69;stroke:#bc7b69"/><path d="m475 202h2l-.5-1.5-.5-1.5-1.5-1-1.5-1-1.5-.5-1.5-.5-1-1.5-1-1.5-2-1-2-1 .5 1 .5 1-.5 1.5-.5 1.5-.5 1-.5 1-1.5-.5-1.5-.5-2 .5-2 .5h-2-2l1.5.5 1.5.5h2 2l1 .5 1 .5h1 1 2 2l1 .5 1 .5.5.5.5.5h1 1 1.5 1.5" style="fill:#c5b093;stroke:#c5b093"/><g style="fill:#bc7b69;stroke:#bc7b69"><path d="m452 195l-14-8h-17.5-17.5l15.5 2 15.5 2 9 2 9 2"/><path d="m377 190l12-6-6.5 3-6.5 3h.5.5"/></g><path d="m589 183l-10-28 1.5 10 1.5 10 3.5 4 3.5 4" style="fill:#ffe;stroke:#ffe"/><path d="m469 181l2-1-1-1-1-1-1.5-1-1.5-1-1-1-1-1-2-.5-2-.5-1.5-.5-1.5-.5-2-.5-2-.5 1 .5 1 .5 1 1 1 1h-1.5-1.5l-.5.5-.5.5h-1.5-1.5l1 .5 1 .5 1 .5 1 .5.5.5.5.5 1.5.5 1.5.5h1.5 1.5l.5.5.5.5h2 2l1.5.5 1.5.5" style="fill:#c5b093;stroke:#c5b093"/><path d="m556 141l22-20-12 4.5-12 4.5 1 5.5 1 5.5" style="fill:#ffe;stroke:#ffe"/><path d="m463 139l-11-11 4 4.5 4 4.5 1.5 1 1.5 1" style="fill:#bc7b69;stroke:#bc7b69"/><g style="fill:#583b32;stroke:#583b32"><path d="m296 134l23-17-8.5 1-8.5 1-3 7.5-3 7.5"/><path d="m352 132l1-21-15.5 6-15.5 6 15 3.5 15 3.5v1 1"/></g><path d="m541 129l1-1 .5-1.5.5-1.5-.5-1-.5-1-1-1-1-1-2-.5-2-.5h-1-1l-1 1.5-1 1.5.5 1.5.5 1.5 1 1 1 1 2 .5 2 .5h1 1" style="fill:#ffe;stroke:#ffe"/><path d="m440 91l3 1 1.5-.5 1.5-.5 1.5-1 1.5-1 1.5-.5 1.5-.5v-2.5-2.5l-1-1-1-1-2-.5-2-.5-1.5-.5-1.5-.5-1-1-1-1-1-1-1-1-.5-.5-.5-.5 1 8.5 1 8.5" style="fill:#c5b093;stroke:#c5b093"/><path d="m441 75h2l-.5-1.5-.5-1.5-.5-1-.5-1-.5-1.5-.5-1.5-2-1.5-2-1.5-1.5.5-1.5.5v1.5 1.5l.5.5.5.5 1 1 1 1 1 1.5 1 1.5.5.5.5.5h1 1" style="fill:#895b4e;stroke:#895b4e"/><path d="m158 53h2l1.5-.5 1.5-.5 2-.5 2-.5-.5-1.5-.5-1.5-1.5-1-1.5-1-1.5.5-1.5.5-1.5 1-1.5 1v1 1l.5 1 .5 1" style="fill:#ffe;stroke:#ffe"/><g style="fill:#e8dbbc;stroke:#e8dbbc"><path d="m151 15h2l1-1 1-1-1.5-1-1.5-1 1-1 1-1v-2.5-2.5l-.5-2-.5-2h-1.5-1.5l-.5 1-.5 1v1 1 2 2l1 .5 1 .5v1 1 2 2"/><path d="m122 5l3 1 1-1 1-1v-2-2h-2.5-2.5-2.5-2.5-2-2-.5-.5l-1 1.5-1 1.5 1 .5 1 .5.5.5.5.5.5-.5.5-.5.5-.5.5-.5 1-.5 1-.5h1 1 1 1l.5 1.5.5 1.5"/></g></g></svg>