<svg xmlns="http://www.w3.org/2000/svg" viewBox="0 0 712 960"><g style="fill:#0d1939"><path d="m0 0h712v960h-712z"/><path d="m0 959v1h1.5 1.5 2 2 2.5 2.5 2 2 2.5 2.5 2 2 2.5 2.5.5.5v-.5-.5h-12-12l6.5-.5 6.5-.5h11.5 11.5 11 11 11 11 11 11 11 11 11.5 11.5 11 11 11 11 11 11 11 11l10-.5 10-.5h9 9l9.5.5 9.5.5 9.5-.5 9.5-.5h10 10 10.5 10.5 11 11l9.5.5 9.5.5h10 10l7-2 7-2-4-5.5-4-5.5-6-5-6-5 2.5-3.5 2.5-3.5-2.5-4.5-2.5-4.5 2 3 2 3 6 2.5 6 2.5 7-1 7-1 4 4 4 4 2.5-1.5 2.5-1.5 5 2 5 2 6-2.5 6-2.5 4-2 4-2 7.5-2.5 7.5-2.5 2.5-2.5 2.5-2.5 2-2 2-2 5.5 2 5.5 2 7-2 7-2 2-5 2-5-6.5-2.5-6.5-2.5-7.5-.5-7.5-.5-2-4.5-2-4.5v-4-4l2-7 2-7 .5-3.5.5-3.5 3.5-4.5 3.5-4.5 5.5-4 5.5-4 5 4 5 4 7-1 7-1 3.5-4.5 3.5-4.5 2.5 4.5 2.5 4.5 3 1.5 3 1.5 5.5 1.5 5.5 1.5 5-4 5-4 6.5.5 6.5.5 1.5-2.5 1.5-2.5 6.5 1 6.5 1 2-4 2-4 6.5-1.5 6.5-1.5 2.5-3.5 2.5-3.5-2.5-4.5-2.5-4.5-1.5-3-1.5-3-1.5 1.5-1.5 1.5-4.5-.5-4.5-.5-3-3-3-3-6-3-6-3-3-6.5-3-6.5-5.5-1.5-5.5-1.5-6 1-6 1-5.5-3.5-5.5-3.5-7.5-1.5-7.5-1.5-8-.5-8-.5-7-2-7-2-6.5-1.5-6.5-1.5-7-4-7-4-5-5-5-5-5.5-5-5.5-5-2-5-2-5 2.5-6.5 2.5-6.5 5-6 5-6 4-7 4-7 6-4.5 6-4.5 4.5-3.5 4.5-3.5 4-5 4-5-4.5-1.5-4.5-1.5-6.5 4.5-6.5 4.5-6.5 4-6.5 4-7 3-7 3-1-7-1-7-5.5-5.5-5.5-5.5 5-4 5-4 7-4.5 7-4.5 7-4 7-4 5.5-5.5 5.5-5.5 6-5 6-5 6-5 6-5 7-4.5 7-4.5 3-6 3-6-6.5 4.5-6.5 4.5-7 4-7 4-7.5 3.5-7.5 3.5-8.5 3-8.5 3-9 1-9 1h-10-10l-8.5-2.5-8.5-2.5.5-8.5.5-8.5 2-12 2-12-1-1-1-1h-1-1l-1.5.5-1.5.5-4.5 3-4.5 3-9.5-.5-9.5-.5-1-.5-1-.5-.5 1-.5 1v1 1l1.5.5 1.5.5 2-.5 2-.5 1 .5 1 .5 9.5.5 9.5.5-1.5 5-1.5 5-1.5-.5-1.5-.5-2-.5-2-.5h-2-2l-2-.5-2-.5-1.5-.5-1.5-.5-1-.5-1-.5-1-1-1-1-.5.5-.5.5-1-1.5-1-1.5 3.5 4 3.5 4 1 2 1 2 8 5 8 5v3.5 3.5 8 8l-1.5 8.5-1.5 8.5-.5 8.5-.5 8.5-.5 8.5-.5 8.5 1.5 10 1.5 10 2.5 7.5 2.5 7.5 2.5 6.5 2.5 6.5-2 7-2 7-11.5 6.5-11.5 6.5-9-2.5-9-2.5-4.5-6.5-4.5-6.5-.5-16.5-.5-16.5-.5-.5-.5-.5v-3-3-2-2-2.5-2.5-2-2l-.5-1.5-.5-1.5v-1-1-1.5-1.5l-.5-1.5-.5-1.5h-1-1-.5-.5l-1.5-.5-1.5-.5-1-.5-1-.5-.5 1-.5 1 1 1 1 1 1.5-.5 1.5-.5 1 1.5 1 1.5-.5 1.5-.5 1.5-2 .5-2 .5v1 1h-1-1l-1-1-1-1-1-1-1-1 .5-.5.5-.5-.5-1-.5-1-.5-1.5-.5-1.5-.5-.5-.5-.5-1-.5-1-.5v-1-1h1 1l1 .5 1 .5h6.5 6.5v-9-9l-1.5-10.5-1.5-10.5-1-.5-1-.5h-1-1l-.5.5-.5.5h-1-1l-1.5-.5-1.5-.5-1-.5-1-.5h-1.5-1.5l-1.5-.5-1.5-.5-1 .5-1 .5-1.5-.5-1.5-.5-1.5-.5-1.5-.5v-2-2l-7 3.5-7 3.5-7-2-7-2h-9.5-9.5l-3 5-3 5-6 5-6 5-4 1-4 1-7 4-7 4v-4.5-4.5l-1-4-1-4 4.5-9.5 4.5-9.5-6 1-6 1-.5 6.5-.5 6.5-2 8-2 8-2.5 9-2.5 9-2.5 8.5-2.5 8.5-4.5 6.5-4.5 6.5-2 7-2 7-3.5 6.5-3.5 6.5-.5 8-.5 8-1.5 7.5-1.5 7.5v9 9l-1 9-1 9v6 6l5-.5 5-.5v3 3l-2 6-2 6-3.5 3.5-3.5 3.5-1 4-1 4-.5 5-.5 5-3 5-3 5-2.5 2.5-2.5 2.5-1 6-1 6-6 2-6 2-6 2.5-6 2.5-3.5-.5-3.5-.5-6 5-6 5-8.5 6-8.5 6-1 1.5-1 1.5-.5.5-.5.5h-.5-.5-1-1l-.5.5-.5.5-1 .5-1 .5-1 1-1 1 .5.5.5.5.5 1 .5 1-1 1-1 1h-1-1l-2.5-7.5-2.5-7.5-2-9-2-9v-9-9l1.5-7.5 1.5-7.5 2.5-8 2.5-8 4.5-6.5 4.5-6.5 3.5-7.5 3.5-7.5 2.5-8.5 2.5-8.5 3-8 3-8 2.5-9 2.5-9 1.5-9.5 1.5-9.5 1.5-9.5 1.5-9.5v-10-10l-4-2-4-2-5 6.5-5 6.5-4.5 6.5-4.5 6.5-4 7-4 7-4.5 6.5-4.5 6.5-4 7-4 7-5 6.5-5 6.5-4 6-4 6-4.5 6.5-4.5 6.5-4 6-4 6-4 7-4 7-4.5 7-4.5 7-4.5 6.5-4.5 6.5-3.5 6.5-3.5 6.5-4.5 5.5-4.5 5.5-4.5 6.5-4.5 6.5-4.5 7-4.5 7-4.5 6.5-4.5 6.5-5 7.5-5 7.5v3.5 3.5 2 2 2.5 2.5 2 2 2 2 2.5 2.5 2 2" style="stroke:#0d1939;stroke-linejoin:round;stroke-width:.7"/></g><g style="stroke-linejoin:round;stroke-width:.7"><path d="m31 959v1h.5.5v-.5-.5h11.5 11.5 11 11 11.5 11.5 11 11 11 11 11 11 11 11 11.5 11.5 11 11 11 11 11 11 11 11 11.5 11.5 11 11 11 11 11 11l21.5.5 21.5.5h11.5 11.5 11 11 11 11 11 11 11.5 11.5 11 11 11 11 11 11 11 11 11.5 11.5 11 11 11 11 7 7v-4-4-11-11-11.5-11.5-11-11-11-11-11-11-11-11-11.5-11.5-11-11-11-11-11-11-11-11-11.5-11.5-11-11-11-11-9.5-9.5l-1-.5-1-.5-.5-1-.5-1v-1-1l-.5-.5-.5-.5v-1-1l-1 .5-1 .5-.5-.5-.5-.5v-1-1l.5-1 .5-1v-1-1l.5-.5.5-.5.5-.5.5-.5.5-.5.5-.5.5-1 .5-1 .5-.5.5-.5v1 1l.5 1 .5 1v-13-13-11-11-11-11-11-11-11.5-11.5-5.5-5.5l-4 3-4 3-6 1-6 1-1.5 1.5-1.5 1.5-3.5 9-3.5 9-.5-6-.5-6-2.5-4.5-2.5-4.5 2-7 2-7 1-7 1-7 2-7 2-7 .5-7.5.5-7.5 6-5.5 6-5.5 6.5-1.5 6.5-1.5v-1.5-1.5-2-2-2-2l-1.5-1-1.5-1-2 .5-2 .5-2.5.5-2.5.5h-8.5-8.5l-8.5-.5-8.5-.5-8 1-8 1h-7-7l-12.5 1-12.5 1-1 .5-1 .5h-1-1l-10-2.5-10-2.5-10-3-10-3 8 4 8 4 8 3 8 3 1 7 1 7-3 8-3 8-2.5 9-2.5 9-2.5 8.5-2.5 8.5-2 6-2 6-6.5 4.5-6.5 4.5-8 2-8 2-8 3.5-8 3.5-7 3-7 3-6 5-6 5-7 3-7 3-15 6-15 6-2.5-3-2.5-3-4.5-4.5-4.5-4.5 1-10 1-10 1.5-9.5 1.5-9.5 4-15 4-15-1 1-1 1-.5 1-.5 1-2.5 9-2.5 9-2.5 8-2.5 8-.5 10.5-.5 10.5-.5 9.5-.5 9.5-2.5 12-2.5 12v1.5 1.5l-.5 2-.5 2-2 12-2 12-.5 8.5-.5 8.5 8.5 2.5 8.5 2.5h10 10l9-1 9-1 8.5-3 8.5-3 7.5-3.5 7.5-3.5 7-4 7-4 6.5-4.5 6.5-4.5-3 6-3 6-7 4.5-7 4.5-6 5-6 5-6 5-6 5-5.5 5.5-5.5 5.5-7 4-7 4-7 4.5-7 4.5-5 4-5 4 5.5 5.5 5.5 5.5 1 7 1 7 7-3 7-3 6.5-4 6.5-4 6.5-4.5 6.5-4.5 4.5 1.5 4.5 1.5-4 5-4 5-4.5 3.5-4.5 3.5-6 4.5-6 4.5-4 7-4 7-5 6-5 6-2.5 6.5-2.5 6.5 2 5 2 5 5.5 5 5.5 5 5 5 5 5 7 4 7 4 6.5 1.5 6.5 1.5 7 2 7 2 8 .5 8 .5 7.5 1.5 7.5 1.5 5.5 3.5 5.5 3.5 6-1 6-1 5.5 1.5 5.5 1.5 3 6.5 3 6.5 6 3 6 3 3 3 3 3 4.5.5 4.5.5 1.5-1.5 1.5-1.5 1.5 3 1.5 3 2.5 4.5 2.5 4.5-2.5 3.5-2.5 3.5-6.5 1.5-6.5 1.5-2 4-2 4-6.5-1-6.5-1-1.5 2.5-1.5 2.5-6.5-.5-6.5-.5-5 4-5 4-5.5-1.5-5.5-1.5-3-1.5-3-1.5-2.5-4.5-2.5-4.5-3.5 4.5-3.5 4.5-7 1-7 1-5-4-5-4-5.5 4-5.5 4-3.5 4.5-3.5 4.5-.5 3.5-.5 3.5-2 7-2 7v4 4l2 4.5 2 4.5 7.5.5 7.5.5 6.5 2.5 6.5 2.5-2 5-2 5-7 2-7 2-5.5-2-5.5-2-2 2-2 2-2.5 2.5-2.5 2.5-7.5 2.5-7.5 2.5-4 2-4 2-6 2.5-6 2.5-5-2-5-2-2.5 1.5-2.5 1.5-4-4-4-4-7 1-7 1-6-2.5-6-2.5-2-3-2-3 2.5 4.5 2.5 4.5-2.5 3.5-2.5 3.5 6 5 6 5 4 5.5 4 5.5-7 2-7 2h-10-10l-9.5-.5-9.5-.5h-11-11-10.5-10.5-10-10l-9.5.5-9.5.5-9.5-.5-9.5-.5h-9-9l-10 .5-10 .5h-11-11-11-11-11-11-11-11-11.5-11.5-11-11-11-11-11-11-11-11-11.5-11.5l-6.5.5-6.5.5h12 12" style="fill:#0a237b;stroke:#0a237b"/><g style="fill:#0d1939;stroke:#0d1939"><path d="m32 959v1h12.5 12.5 11 11 11.5 11.5 11 11 11 11 11 11 11 11 11.5 11.5 11 11 11 11 11 11 11 11 11.5 11.5 11 11 11 11 11 11 11 11 9.5 9.5l-21.5-.5-21.5-.5h-11-11-11-11-11-11-11.5-11.5-11-11-11-11-11-11-11-11-11.5-11.5-11-11-11-11-11-11-11-11-11.5-11.5-11-11-11.5-11.5"/><path d="m484 944h2v-1-1l.5-2 .5-2-1-1-1-1 .5-2 .5-2h-2-2l-.5 2-.5 2v1 1l-.5 1.5-.5 1.5 1.5 1 1.5 1 .5.5.5.5"/><path d="m467 941h2l1-1 1-1 1.5 1 1.5 1 .5-1.5.5-1.5 1.5-1 1.5-1-1-1-1-1-1.5 1-1.5 1-1.5.5-1.5.5-1.5.5-1.5.5v1.5 1.5"/></g><path d="m0 925v1l5-7.5 5-7.5 4.5-6.5 4.5-6.5 4.5-7 4.5-7 4.5-6.5 4.5-6.5 4.5-5.5 4.5-5.5 3.5-6.5 3.5-6.5 4.5-6.5 4.5-6.5 4.5-7 4.5-7 4-7 4-7 4-6 4-6 4.5-6.5 4.5-6.5 4-6 4-6 5-6.5 5-6.5 4-7 4-7 4.5-6.5 4.5-6.5 4-7 4-7 4.5-6.5 4.5-6.5 5-6.5 5-6.5 4 2 4 2v10 10l-1.5 9.5-1.5 9.5-1.5 9.5-1.5 9.5-2.5 9-2.5 9 1.5 6 1.5 6-.5 6.5-.5 6.5-3.5 5.5-3.5 5.5-3 6.5-3 6.5-1.5-1.5-1.5-1.5-3.5 5.5-3.5 5.5-2 7-2 7-.5 6.5-.5 6.5-1 3.5-1 3.5 2.5 7.5 2.5 7.5 1.5 4.5 1.5 4.5 3.5 7.5 3.5 7.5 8.5-6 8.5-6 6-5 6-5 3.5.5 3.5.5 6-2.5 6-2.5 6-2 6-2 1-6 1-6 2.5-2.5 2.5-2.5 3-5 3-5 .5-5 .5-5 1-4 1-4 3.5-3.5 3.5-3.5 2-6 2-6v-3-3l-5 .5-5 .5v-6-6l1-9 1-9v-9-9l1.5-7.5 1.5-7.5.5-8 .5-8 3.5-6.5 3.5-6.5 2-7 2-7 4.5-6.5 4.5-6.5 2.5-8.5 2.5-8.5 2.5-9 2.5-9 2-8 2-8 .5-6.5.5-6.5 6-1 6-1-3-5.5-3-5.5v-5-5l2.5-4.5 2.5-4.5 7 3 7 3 8 2.5 8 2.5 5.5-1.5 5.5-1.5 11 5.5 11 5.5 1-1 1-1 1 .5 1 .5 1.5.5 1.5.5 1.5-1 1.5-1 2-1 2-1 7.5-5 7.5-5 8.5-1.5 8.5-1.5 6.5-4.5 6.5-4.5 6-5.5 6-5.5v-.5-.5l11-1.5 11-1.5 6-3 6-3 3-8 3-8 1.5-7 1.5-7 1-10 1-10-3-6-3-6 1-2 1-2 4-6 4-6 3-17.5 3-17.5-.5-9.5-.5-9.5.5-11 .5-11-.5-10.5-.5-10.5-2-9-2-9-3-7-3-7-3-8-3-8-2-8.5-2-8.5-2.5 2.5-2.5 2.5-.5 8.5-.5 8.5-4.5-1.5-4.5-1.5-7-1-7-1v-4.5-4.5l2-5 2-5 1.5-7.5 1.5-7.5v-6-6l-5.5-2.5-5.5-2.5-4-3.5-4-3.5-6.5-6.5-6.5-6.5-1 .5-1 .5-.5-.5-.5-.5-.5.5-.5.5h-1-1l-1-.5-1-.5-1-1-1-1-1.5-1-1.5-1-1.5.5-1.5.5-1.5-.5-1.5-.5.5-1 .5-1h-1.5-1.5l-.5-1-.5-1-1.5-1-1.5-1h-1.5-1.5l-1 1-1 1-.5-.5-.5-.5h-1-1l-1-.5-1-.5-.5-.5-.5-.5-.5.5-.5.5-.5-.5-.5-.5-.5 1-.5 1-1.5.5-1.5.5h-1-1l-.5-3-.5-3v-4.5-4.5l-.5.5-.5.5h-1.5-1.5l-.5-1-.5-1 .5-1.5.5-1.5h-1.5-1.5l-1-1-1-1-2-.5-2-.5-1-1-1-1v-1-1l-.5-.5-.5-.5h-1.5-1.5l-1.5-.5-1.5-.5-1-1.5-1-1.5-1-1-1-1-9.5-1.5-9.5-1.5-16.5 1.5-16.5 1.5-1 .5-1 .5-4.5-3-4.5-3-6.5.5-6.5.5-8-6.5-8-6.5-3 5.5-3 5.5-2 9-2 9-2.5 8.5-2.5 8.5-3 8-3 8-3.5 7.5-3.5 7.5-3 8.5-3 8.5-2 9-2 9-7.5-.5-7.5-.5-8.5 1.5-8.5 1.5v9 9l3.5 8 3.5 8 4.5 6.5 4.5 6.5 2.5 8.5 2.5 8.5 3 8 3 8 4 7 4 7-1 10.5-1 10.5 2 9 2 9-1 10-1 10 2 9 2 9 2.5 8.5 2.5 8.5 3.5 8 3.5 8-.5 9.5-.5 9.5-3.5 7.5-3.5 7.5-2.5 8.5-2.5 8.5-2.5 8.5-2.5 8.5-3 8.5-3 8.5-.5 8.5-.5 8.5-1.5 9.5-1.5 9.5-2.5 8.5-2.5 8.5-4.5 6.5-4.5 6.5-4.5 7-4.5 7-5 6-5 6-4.5 6.5-4.5 6.5-5 6-5 6-4 7-4 7-5.5 6-5.5 6-4.5 5.5-4.5 5.5-4 7-4 7-4 7-4 7-4 7-4 7-4.5 7-4.5 7-4 7-4 7-5 6-5 6-4 7-4 7-4.5 6.5-4.5 6.5-4.5 7-4.5 7-4.5 6.5-4.5 6.5-4.5 8-4.5 8v3 3 2.5 2.5" style="fill:#2d1b09;stroke:#2d1b09"/><path d="m0 913v1l4.5-8 4.5-8 4.5-6.5 4.5-6.5 4.5-7 4.5-7 4.5-6.5 4.5-6.5 4-7 4-7 5-6 5-6 4-7 4-7 4.5-7 4.5-7 4-7 4-7 4-7 4-7 4-7 4-7 4.5-5.5 4.5-5.5 5.5-6 5.5-6 4-7 4-7 5-6 5-6 4.5-6.5 4.5-6.5 5-6 5-6 4.5-7 4.5-7 4.5-6.5 4.5-6.5 2.5-8.5 2.5-8.5 1.5-9.5 1.5-9.5.5-8.5.5-8.5 3-8.5 3-8.5 2.5-8.5 2.5-8.5 2.5-8.5 2.5-8.5 3.5-7.5 3.5-7.5.5-9.5.5-9.5-3.5-8-3.5-8-2.5-8.5-2.5-8.5-2-9-2-9 1-10 1-10-2-9-2-9 1-10.5 1-10.5-4-7-4-7-3-8-3-8-2.5-8.5-2.5-8.5-4.5-6.5-4.5-6.5-3.5-8-3.5-8v-9-9l8.5-1.5 8.5-1.5 7.5.5 7.5.5 2-9 2-9 3-8.5 3-8.5 3.5-7.5 3.5-7.5 3-8 3-8 2.5-8.5 2.5-8.5 2-9 2-9 3-5.5 3-5.5-1-1-1-1-1.5-1-1.5-1-1-.5-1-.5h-.5-.5l-1 .5-1 .5h-2-2l-1.5-.5-1.5-.5-2.5-.5-2.5-.5-.5-2-.5-2 .5-1.5.5-1.5-1.5-.5-1.5-.5-2 .5-2 .5-1 .5-1 .5-.5 1-.5 1-7.5 4.5-7.5 4.5-14 4-14 4-.5-1.5-.5-1.5h-.5-.5l-6 6-6 6-5.5 5.5-5.5 5.5-6 5-6 5-7.5 3.5-7.5 3.5-6.5 3-6.5 3-2.5 7.5-2.5 7.5 4 5 4 5 8-2 8-2 8.5-2.5 8.5-2.5 6.5-5 6.5-5 6-5 6-5 6-5 6-5 6-5 6-5 6-5 6-5 7-4.5 7-4.5 9.5.5 9.5.5-1.5 9.5-1.5 9.5-2 9-2 9-3.5 7.5-3.5 7.5-4 7.5-4 7.5-2.5 8.5-2.5 8.5-1.5 9.5-1.5 9.5-8-2-8-2-9-2-9-2-2.5 7.5-2.5 7.5 2.5 9 2.5 9 4.5 6.5 4.5 6.5 4 7 4 7 2.5 8.5 2.5 8.5 3.5 7.5 3.5 7.5 1.5 9 1.5 9v10 10l.5 7.5.5 7.5-2 8-2 8 1 9 1 9 2.5 8 2.5 8-1 8-1 8-3.5 6.5-3.5 6.5-5.5-5-5.5-5-3 4-3 4-6-1.5-6-1.5-3-4-3-4-1-6-1-6 5-5 5-5-2.5-5.5-2.5-5.5-6 .5-6 .5-3.5 1.5-3.5 1.5h-5-5l-1 1-1 1-3-1-3-1-2 2.5-2 2.5 1.5-2.5 1.5-2.5 2.5-6.5 2.5-6.5 3.5-7.5 3.5-7.5-.5-5.5-.5-5.5 3-3.5 3-3.5 2-7 2-7-6-3-6-3-7-4-7-4-4.5-5.5-4.5-5.5 1.5-6 1.5-6-3.5-3.5-3.5-3.5-4.5-6.5-4.5-6.5-3.5-4.5-3.5-4.5-3-4-3-4-4-2.5-4-2.5-.5-7.5-.5-7.5-.5-9.5-.5-9.5 2-9 2-9 2.5-8.5 2.5-8.5-3 .5-3 .5-4.5 6.5-4.5 6.5-3.5 7.5-3.5 7.5-2 9-2 9-4.5 6.5-4.5 6.5-4.5 3-4.5 3-7.5.5-7.5.5-2.5-4.5-2.5-4.5v13 13 11 11 11.5 11.5 11 11 11 11 11 11 11 11 11.5 11.5 11 11 11 11 11 11 11 11 11.5 11.5 11 11 11 11 11 11 11 11 11.5 11.5 11 11 11 11 11 11 11 11 11.5 11.5 11 11 11 11 7 7" style="fill:#a42807;stroke:#a42807"/><path d="m129 912h2l1-1 1-1-.5-1-.5-1-.5-.5-.5-.5 1-1 1-1 1-.5 1-.5.5-.5.5-.5h1 1 .5.5l.5-.5.5-.5 1-1.5 1-1.5-3.5-7.5-3.5-7.5-1.5-4.5-1.5-4.5-2.5-7.5-2.5-7.5 1-3.5 1-3.5.5-6.5.5-6.5 2-7 2-7 3.5-5.5 3.5-5.5 1.5 1.5 1.5 1.5 3-6.5 3-6.5 3.5-5.5 3.5-5.5.5-6.5.5-6.5-1.5-6-1.5-6-3 8-3 8-2.5 8.5-2.5 8.5-3.5 7.5-3.5 7.5-4.5 6.5-4.5 6.5-2.5 8-2.5 8-1.5 7.5-1.5 7.5v9 9l2 9 2 9 2.5 7.5 2.5 7.5" style="fill:#373247;stroke:#373247"/><path d="m412 750l23-13 2-7 2-7-2.5-6.5-2.5-6.5-2.5-7.5-2.5-7.5-1.5-10-1.5-10 .5-8.5.5-8.5.5-8.5.5-8.5 1.5-8.5 1.5-8.5v-8-8-3.5-3.5l-8-5-8-5h-1.5-1.5l-.5-.5-.5-.5h-1.5-1.5l-1 1-1 1-.5.5-.5.5-1 .5-1 .5-.5 1.5-.5 1.5-.5.5-.5.5-.5-1-.5-1-.5 1.5-.5 1.5-.5 1-.5 1 5 7 5 7-6-4-6-4-5 3-5 3-.5 9-.5 9-.5 9.5-.5 9.5 1 9 1 9-1 15.5-1 15.5.5 16.5.5 16.5 4.5 6.5 4.5 6.5 9 2.5 9 2.5" style="fill:#2d1b09;stroke:#2d1b09"/><path d="m383 698l1 1 1-15.5 1-15.5-1-9-1-9 .5-9.5.5-9.5.5-9 .5-9 5-3 5-3 6 4 6 4-5-7-5-7v-.5-.5-2-2l-.5-1.5-.5-1.5 1-1.5 1-1.5 1-1 1-1 1.5.5 1.5.5 2 .5 2 .5h1.5 1.5l.5.5.5.5h1.5 1.5l-1-2-1-2-3.5-4-3.5-4 1.5-.5 1.5-.5 3-.5 3-.5-1-.5-1-.5-2 .5-2 .5-1.5-.5-1.5-.5v-1-1l.5-1 .5-1 1.5-.5 1.5-.5 1-.5 1-.5 1.5-.5 1.5-.5h1 1 1 1 1 1 1.5 1.5l.5-.5.5-.5h1 1 1 1l1 .5 1 .5 1.5-.5 1.5-.5h1.5 1.5l1.5-.5 1.5-.5h1 1l1 1 1 1 .5-2 .5-2v-1.5-1.5l-2 1-2 1-1.5.5-1.5.5h-2.5-2.5-2-2-2.5-2.5-2-2l-1.5.5-1.5.5h-2.5-2.5l-1.5.5-1.5.5h-2-2l-6 5.5-6 5.5-6.5 4.5-6.5 4.5-8.5 1.5-8.5 1.5-7.5 5-7.5 5-1 1-1 1v1 1l-.5.5-.5.5-.5 1-.5 1-.5.5-.5.5-.5.5-.5.5h-1-1l-1.5-.5-1.5-.5-.5-1-.5-1-1-1-1-1-11-5.5-11-5.5-5.5 1.5-5.5 1.5-8-2.5-8-2.5-7-3-7-3-2.5 4.5-2.5 4.5v5 5l3 5.5 3 5.5-4.5 9.5-4.5 9.5 1 4 1 4v4.5 4.5l7-4 7-4 4-1 4-1 6-5 6-5 3-5 3-5h9.5 9.5l7 2 7 2 7-3.5 7-3.5 7.5-3 7.5-3 5.5 7 5.5 7 1.5 10.5 1.5 10.5v9 9h-6.5-6.5l2.5.5 2.5.5 1 .5 1 .5 1.5.5 1.5.5h.5.5 1 1l.5 1.5.5 1.5v1.5 1.5 1 1l.5 1.5.5 1.5v2 2 2.5 2.5 2 2 3 3" style="fill:#373247;stroke:#373247"/><path d="m372 678h2v-1-1l2-.5 2-.5.5-1.5.5-1.5-1-1.5-1-1.5-1.5.5-1.5.5-1-1-1-1 .5-1 .5-1-2.5-.5-2.5-.5-1-.5-1-.5h-1-1v1 1l1 .5 1 .5.5.5.5.5.5 1.5.5 1.5.5 1 .5 1-.5.5-.5.5 1 1 1 1 1 1 1 1" style="fill:#0a237b;stroke:#0a237b"/><path d="m698 664l1-9h-3-3l.5 4 .5 4 2 .5 2 .5" style="fill:#0d4fc3;stroke:#0d4fc3"/><path d="m368 625l3 1h1 1l.5-.5.5-.5h1 1l1 .5 1 .5-5.5-7-5.5-7-7.5 3-7.5 3v2 2l1.5.5 1.5.5 1.5.5 1.5.5 1-.5 1-.5 1.5.5 1.5.5h1.5 1.5l1 .5 1 .5" style="fill:#0a237b;stroke:#0a237b"/><path d="m710 621l2 1v-2.5-2.5-2.5-2.5-2-2-1-1l-.5-1-.5-1v-1-1l-.5.5-.5.5-.5 1-.5 1-.5.5-.5.5-.5.5-.5.5-.5.5-.5.5v1 1l-.5 1-.5 1v1 1l.5.5.5.5 1-.5 1-.5v1 1l.5.5.5.5v1 1l.5 1 .5 1" style="fill:#0d4fc3;stroke:#0d4fc3"/><g style="fill:#0d1939;stroke:#0d1939"><path d="m337 608l3 1h1 1l.5-.5.5-.5.5-.5.5-.5.5-1 .5-1 .5-.5.5-.5v-1-1l1-1 1-1-2 1-2 1-1.5 1-1.5 1-1.5-.5-1.5-.5-1-.5-1-.5-1 1-1 1 1 1 1 1 .5 1 .5 1"/><path d="m398 600v1l.5-1 .5-1 .5-1.5.5-1.5.5 1 .5 1 .5-.5.5-.5.5-1.5.5-1.5 1-.5 1-.5.5-.5.5-.5 1-1 1-1-2-.5-2-.5-1.5-.5-1.5-.5-1 1-1 1-1 1.5-1 1.5.5 1.5.5 1.5v2 2"/></g><g style="fill:#2d1b09;stroke:#2d1b09"><path d="m431 588l3-10-9.5-.5-9.5-.5-3 .5-3 .5-1.5.5-1.5.5 1 1.5 1 1.5.5-.5.5-.5 1 1 1 1 1 .5 1 .5 1.5.5 1.5.5 2 .5 2 .5h2 2l2 .5 2 .5 1.5.5 1.5.5"/><path d="m409 573l19 1 4.5-3 4.5-3h-1.5-1.5l-1.5.5-1.5.5-1-.5-1-.5h-1-1-1-1l-.5.5-.5.5h-1.5-1.5-1-1-1-1-1-1l-1.5.5-1.5.5-1 .5-1 .5-1.5.5-1.5.5 1 .5 1 .5"/></g><path d="m405 566v1h2 2l1.5-.5 1.5-.5h2.5 2.5l1.5-.5 1.5-.5h2 2 2.5 2.5 2 2 2.5 2.5l1.5-.5 1.5-.5 2-1 2-1 2.5-12 2.5-12 .5-9.5.5-9.5.5-10.5.5-10.5 2.5-8 2.5-8 2.5-9 2.5-9v-.5-.5-2.5-2.5-1-1-1.5-1.5l-.5-1.5-.5-1.5v-1-1l-.5-2-.5-2-3 17.5-3 17.5-4 6-4 6-1 2-1 2 3 6 3 6-1 10-1 10-1.5 7-1.5 7-3 8-3 8-6 3-6 3-11 1.5-11 1.5" style="fill:#0d1939;stroke:#0d1939"/><path d="m279 548l10-6-8-2-8-2-1 3.5-1 3.5 4 1.5 4 1.5" style="fill:#373247;stroke:#373247"/><path d="m466 544l30-12 7-3 7-3 6-5 6-5 7-3 7-3 8-3.5 8-3.5 8-2 8-2 6.5-4.5 6.5-4.5 2-6 2-6 2.5-8.5 2.5-8.5 2.5-9 2.5-9 3-8 3-8-1-7-1-7-8-3-8-3-8-4-8-4-.5-1-.5-1-.5-1-.5-1-1.5-1-1.5-1-1-1-1-1-1-.5-1-.5-1-1-1-1-.5-1.5-.5-1.5-.5-1.5-.5-1.5-.5-.5-.5-.5-1-1-1-1-1-1.5-1-1.5-1-1-1-1-.5-2.5-.5-2.5-2 9.5-2 9.5-3 8.5-3 8.5-2.5 8.5-2.5 8.5-3.5 7.5-3.5 7.5-4.5 6.5-4.5 6.5-4 7-4 7-5.5 6-5.5 6-6 5-6 5-4 7-4 7 3.5-.5 3.5-.5 5.5-5.5 5.5-5.5 4.5-5 4.5-5 5-6 5-6 5-6 5-6 4-7 4-7 5-6 5-6 3.5-7 3.5-7 1 7 1 7-1 9-1 9-7 1-7 1-2.5 8.5-2.5 8.5-5 6.5-5 6.5-4.5 2.5-4.5 2.5-2 4-2 4h-4-4l-3.5 3.5-3.5 3.5-6.5 5-6.5 5-10 8.5-10 8.5-.5-9-.5-9 2-8 2-8 3.5-18 3.5-18-.5-.5-.5-.5h-.5-.5l-.5 3-.5 3-4 15-4 15-1.5 9.5-1.5 9.5-1 10-1 10 4.5 4.5 4.5 4.5 2.5 3 2.5 3" style="fill:#0d4fc3;stroke:#0d4fc3"/><path d="m175 532l7-13 1-8 1-8-2.5-8-2.5-8-1-9-1-9 2-8 2-8-.5-7.5-.5-7.5v-10-10l-1.5-9-1.5-9-3.5-7.5-3.5-7.5-2.5-8.5-2.5-8.5-4-7-4-7-4.5-6.5-4.5-6.5-2.5-9-2.5-9 2.5-7.5 2.5-7.5 9 2 9 2 8 2 8 2 1.5-9.5 1.5-9.5 2.5-8.5 2.5-8.5 4-7.5 4-7.5 3.5-7.5 3.5-7.5 2-9 2-9 1.5-9.5 1.5-9.5-9.5-.5-9.5-.5-7 4.5-7 4.5-6 5-6 5-6 5-6 5-6 5-6 5-6 5-6 5-6.5 5-6.5 5-8.5 2.5-8.5 2.5-8 2-8 2-4-5-4-5 2.5-7.5 2.5-7.5 6.5-3 6.5-3 7.5-3.5 7.5-3.5 6-5 6-5 5.5-5.5 5.5-5.5 6-6 6-6v-.5-.5l-1-1-1-1h-1-1-1.5-1.5l-.5-.5-.5-.5h-1-1l-.5.5-.5.5-1-.5-1-.5-1.5 1-1.5 1-1.5-.5-1.5-.5h-1-1l-1 .5-1 .5-1.5-.5-1.5-.5h-1-1l-7.5-3-7.5-3-5.5-3-5.5-3-6.5-2.5-6.5-2.5-5.5-2.5-5.5-2.5-12-6-12-6v-.5-.5h-.5-.5l-9.5-2-9.5-2-11.5 2-11.5 2v13.5 13.5 11 11 11 11 11.5 11.5 11 11 11 11 11 11 4.5 4.5l2.5 4.5 2.5 4.5 7.5-.5 7.5-.5 4.5-3 4.5-3 4.5-6.5 4.5-6.5 2-9 2-9 3.5-7.5 3.5-7.5 4.5-6.5 4.5-6.5 3-.5 3-.5-2.5 8.5-2.5 8.5-2 9-2 9 .5 9.5.5 9.5.5 7.5.5 7.5 4 2.5 4 2.5 3 4 3 4 3.5 4.5 3.5 4.5 4.5 6.5 4.5 6.5 3.5 3.5 3.5 3.5-1.5 6-1.5 6 4.5 5.5 4.5 5.5 7 4 7 4 6 3 6 3-2 7-2 7-3 3.5-3 3.5.5 5.5.5 5.5-3.5 7.5-3.5 7.5-2.5 6.5-2.5 6.5-1.5 2.5-1.5 2.5 2-2.5 2-2.5 3 1 3 1 1-1 1-1h5 5l3.5-1.5 3.5-1.5 6-.5 6-.5 2.5 5.5 2.5 5.5-5 5-5 5 1 6 1 6 3 4 3 4 6 1.5 6 1.5 3-4 3-4 5.5 5 5.5 5" style="fill:#f34f15;stroke:#f34f15"/><g style="fill:#373247;stroke:#373247"><path d="m377 531l16-6-8 1-8 1v2 2"/><path d="m265 528l6-2-6.5-1.5-6.5-1.5 3.5 2.5 3.5 2.5"/></g><path d="m458 525l20-17 6.5-5 6.5-5 3.5-3.5 3.5-3.5h4 4l2-4 2-4 4.5-2.5 4.5-2.5 5-6.5 5-6.5 2.5-8.5 2.5-8.5 7-1 7-1 1-9 1-9-1-7-1-7-3.5 7-3.5 7-5 6-5 6-4 7-4 7-5 6-5 6-5 6-5 6-4.5 5-4.5 5-5.5 5.5-5.5 5.5-3.5.5-3.5.5 4-7 4-7 6-5 6-5 5.5-6 5.5-6 4-7 4-7 4.5-6.5 4.5-6.5 3.5-7.5 3.5-7.5 2.5-8.5 2.5-8.5 3-8.5 3-8.5 2-9.5 2-9.5-7-5.5-7-5.5-4.5 4-4.5 4v2 2 1 1l-.5 1-.5 1-1 1.5-1 1.5v2 2l-.5 1-.5 1-.5 1.5-.5 1.5v1 1l-.5 1-.5 1-1 1.5-1 1.5-2.5 9-2.5 9-6 7.5-6 7.5-5 7.5-5 7.5-7 5.5-7 5.5-.5 1-.5 1h-2-2l-.5.5-.5.5-3.5 18-3.5 18-2 8-2 8 .5 9 .5 9" style="fill:#1279ea;stroke:#1279ea"/><path d="m383 514l3 1 1.5-.5 1.5-.5 2-.5 2-.5 1-1 1-1-2 .5-2 .5h-2-2-2.5-2.5l-1.5-.5-1.5-.5-.5.5-.5.5 1.5 1 1.5 1h1 1" style="fill:#373247;stroke:#373247"/><path d="m682 509l7-18 1.5-1.5 1.5-1.5 6-1 6-1 4-3 4-3v-12.5-12.5-11-11-8-8l-6.5 1.5-6.5 1.5-6 5.5-6 5.5-.5 7.5-.5 7.5-2 7-2 7-1 7-1 7-2 7-2 7 2.5 4.5 2.5 4.5.5 6 .5 6" style="fill:#0d4fc3;stroke:#0d4fc3"/><path d="m402 500l1-1h1 1 1.5 1.5v-2-2l-1-1.5-1-1.5v-1-1l-.5-1-.5-1-.5 1.5-.5 1.5-.5 1.5-.5 1.5-.5 2-.5 2v1 1" style="fill:#0d1939;stroke:#0d1939"/><path d="m237 494l7-7-7 2-7 2 3.5 1.5 3.5 1.5" style="fill:#373247;stroke:#373247"/><path d="m379 492l6-4-3.5-.5-3.5-.5.5 2.5.5 2.5" style="fill:#0d1939;stroke:#0d1939"/><path d="m462 463v1l.5-1 .5-1 1-1 1-1 .5-3 .5-3-1.5-10-1.5-10 2-15.5 2-15.5v-2.5-2.5l-.5-1-.5-1-.5-.5-.5-.5.5-1 .5-1-1-1.5-1-1.5-.5-.5-.5-.5v-.5-.5l-.5-1.5-.5-1.5v-2-2l-.5-1-.5-1v-1-1-1-1-1-1l.5-1 .5-1-.5-.5-.5-.5.5-.5.5-.5-.5-.5-.5-.5.5-1 .5-1v-1-1-1-1h1 1 1 1l1 .5 1 .5h2 2l1.5 1.5 1.5 1.5.5-1 .5-1v-2.5-2.5l.5-1.5.5-1.5.5-1 .5-1v-.5-.5l.5-1.5.5-1.5v-1.5-1.5h-2-2-2.5-2.5-2.5-2.5l-1 1-1 1-.5 1.5-.5 1.5h-2-2l-5-6.5-5-6.5v-13.5-13.5l.5-11 .5-11-8.5-5.5-8.5-5.5-1 1.5-1 1.5-1.5 1-1.5 1-1.5.5-1.5.5-1.5-.5-1.5-.5-6-5.5-6-5.5-6.5-4.5-6.5-4.5-6.5-4.5-6.5-4.5-7.5-3.5-7.5-3.5-6.5-5-6.5-5-7-4-7-4-7-4-7-4-8-3-8-3h-9-9l-15 1.5-15 1.5-1 .5-1 .5.5 1 .5 1 16.5-1.5 16.5-1.5 9.5 1.5 9.5 1.5 2 .5 2 .5 1.5.5 1.5.5 2 .5 2 .5 1 1 1 1 1.5.5 1.5.5 1.5 1 1.5 1h2 2l.5 2 .5 2 .5 1.5.5 1.5 1.5 1 1.5 1h1 1v1 1l.5.5.5.5 1 .5 1 .5.5.5.5.5h1 1l.5.5.5.5 1 .5 1 .5.5.5.5.5-.5.5-.5.5.5.5.5.5.5 1 .5 1 1 1 1 1h1.5 1.5l1.5 1 1.5 1 .5 1 .5 1h1.5 1.5 1.5 1.5 1.5 1.5l-2-.5-2-.5 1.5-.5 1.5-.5 2 .5 2 .5 1.5.5 1.5.5 1.5 1 1.5 1 1 1 1 1-.5.5-.5.5 1 .5 1 .5 6.5 6.5 6.5 6.5 4 3.5 4 3.5 5.5 2.5 5.5 2.5v6 6l-1.5 7.5-1.5 7.5-2 5-2 5v4.5 4.5l7 1 7 1 4.5 1.5 4.5 1.5.5-8.5.5-8.5 2.5-2.5 2.5-2.5 2 8.5 2 8.5 3 8 3 8 3 7 3 7 2 9 2 9 .5 10.5.5 10.5-.5 11-.5 11 .5 9.5.5 9.5.5 2 .5 2v1 1l.5 1.5.5 1.5v1.5 1.5 1 1 2.5 2.5" style="fill:#373247;stroke:#373247"/><path d="m664 463v-14l-1.5 5.5-1.5 5.5 1.5 1.5 1.5 1.5" style="fill:#0d4fc3;stroke:#0d4fc3"/><path d="m467 454l1 1 .5-.5.5-.5-.5-.5-.5-.5-2-10.5-2-10.5 1.5-12.5 1.5-12.5v-2-2l-2 15.5-2 15.5 1.5 10 1.5 10h.5.5" style="fill:#6ed564;stroke:#6ed564"/><path d="m468 453l1 1h2 2l.5-1 .5-1v-.5-.5l-1-.5-1-.5 1.5-.5 1.5-.5 1.5-1 1.5-1h1 1l.5-1 .5-1h-2.5-2.5l-1.5.5-1.5.5-.5.5-.5.5-1-2-1-2v-2.5-2.5-2-2-2.5-2.5l-.5-1.5-.5-1.5v-2.5-2.5l-.5-1.5-.5-1.5v-2.5-2.5l-.5-1.5-.5-1.5v-1.5-1.5l-1.5 12.5-1.5 12.5 2 10.5 2 10.5" style="fill:#dcd8cc;stroke:#dcd8cc"/><path d="m474 451v1l7-5.5 7-5.5 5-7.5 5-7.5v-.5-.5l-.5-.5-.5-.5-.5 1-.5 1-1.5 1-1.5 1-.5 1.5-.5 1.5-1 1-1 1-.5 2-.5 2-1 1-1 1-1.5 1.5-1.5 1.5-.5 1-.5 1-1 .5-1 .5-.5 1-.5 1h-1-1l-1.5 1-1.5 1-1.5.5-1.5.5 1 .5 1 .5" style="fill:#0d4fc3;stroke:#0d4fc3"/><path d="m472 447l1-1 1.5-.5 1.5-.5h2.5 2.5l1-.5 1-.5.5-1 .5-1h-1.5-1.5-1-1l1-.5 1-.5.5-.5.5-.5.5-1 .5-1v-1.5-1.5l-1 .5-1 .5h-1-1l-1-.5-1-.5-1-1-1-1-.5-.5-.5-.5-.5-1-.5-1v-2-2l.5-.5.5-.5v-1.5-1.5l.5-1.5.5-1.5v-1-1l.5-.5.5-.5.5-.5.5-.5 1-1.5 1-1.5-1 .5-1 .5-1.5.5-1.5.5-1 .5-1 .5-.5 1.5-.5 1.5h-1-1v-2.5-2.5h-.5-.5v2.5 2.5l.5 1.5.5 1.5v2.5 2.5l.5 1.5.5 1.5v2.5 2.5 2 2 2.5 2.5l1 2 1 2" style="fill:#f34f15;stroke:#f34f15"/><path d="m479 442h2 1.5 1.5l1.5-1.5 1.5-1.5 1-1 1-1 .5-2 .5-2 1-1 1-1h-1-1l-1.5 1-1.5 1-1.5-.5-1.5-.5-.5 1.5-.5 1.5v1.5 1.5l-.5 1-.5 1-.5.5-.5.5-1 .5-1 .5" style="fill:#373247;stroke:#373247"/><path d="m479 436h2l1-.5 1-.5.5-1.5.5-1.5 1.5.5 1.5.5 1.5-1 1.5-1h1 1l.5-1.5.5-1.5h-1.5-1.5-1-1l-1.5-2-1.5-2-.5-1.5-.5-1.5-.5-.5-.5-.5v-1.5-1.5l-.5-1.5-.5-1.5v-1.5-1.5l-1.5.5-1.5.5-1 1.5-1 1.5-.5.5-.5.5-.5.5-.5.5v1 1l-.5 1.5-.5 1.5v1.5 1.5l-.5.5-.5.5v2 2l.5 1 .5 1 .5.5.5.5 1 1 1 1 1 .5 1 .5" style="fill:#dcd8cc;stroke:#dcd8cc"/><path d="m488 428h2 1.5 1.5l1.5-1 1.5-1 .5-1 .5-1v-10.5-10.5l-9.5-3.5-9.5-3.5-.5 2.5-.5 2.5.5 1 .5 1-1.5.5-1.5.5h-1-1-1.5-1.5l-1.5-.5-1.5-.5v2 2 1.5 1.5l.5 1.5.5 1.5h.5.5v-1.5-1.5l2-.5 2-.5h1 1l1.5-.5 1.5-.5 2 1.5 2 1.5 1-.5 1-.5.5 1 .5 1h1 1l.5 1 .5 1h1 1l.5.5.5.5.5.5.5.5.5.5.5.5.5 1 .5 1-1 1-1 1-.5-.5-.5-.5-1-.5-1-.5h-1-1l.5-.5.5-.5-1-.5-1-.5-1 2-1 2 .5 1.5.5 1.5 1.5 2 1.5 2" style="fill:#373247;stroke:#373247"/><path d="m498 425v1l6-7.5 6-7.5 2.5-9 2.5-9-.5-1-.5-1-1-.5-1-.5-.5.5-.5.5-1 .5-1 .5-1-1-1-1h-1-1v1.5 1.5l-.5 1.5-.5 1.5-.5.5-.5.5v1 1l-.5.5-.5.5-.5.5-.5.5 1.5-8.5 1.5-8.5 8-3.5 8-3.5 1-1.5 1-1.5.5-1 .5-1v-1-1-2-2l-3 .5-3 .5 2.5-12.5 2.5-12.5v-.5-.5l-.5-7.5-.5-7.5-4-6-4-6-1.5-11.5-1.5-11.5-.5 1.5-.5 1.5-.5 1.5-.5 1.5-.5.5-.5.5-1 .5-1 .5h-1-1-1-1v-1.5-1.5-2-2l-.5-.5-.5-.5-1-1-1-1-.5-1-.5-1-1-.5-1-.5-.5 1-.5 1h-1-1-1.5-1.5l-.5 1.5-.5 1.5-.5 1-.5 1-1.5.5-1.5.5-1.5 1-1.5 1-1.5-.5-1.5-.5-1-1-1-1h-.5-.5-1-1l-.5.5-.5.5h-1-1l-1 .5-1 .5-.5-6.5-.5-6.5 2-9 2-9 2-9 2-9-5.5-13.5-5.5-13.5h-1.5-1.5l-1-.5-1-.5-6-5.5-6-5.5-6.5-7-6.5-7-1-1-1-1-.5-.5-.5-.5-1-.5-1-.5h-1-1v-1-1h-1-1l-1-.5-1-.5h-1-1l-.5-.5-.5-.5-.5-.5-.5-.5-1-.5-1-.5h-1-1-1-1l-.5-.5-.5-.5h-1.5-1.5l-1.5-.5-1.5-.5h-1-1l-.5-.5-.5-.5-1-.5-1-.5-1-.5-1-.5-1-.5-1-.5-.5-.5-.5-.5-1-.5-1-.5h-1.5-1.5l-10.5-1-10.5-1h-11.5-11.5l-12.5 1-12.5 1h-.5-.5l-2 .5-2 .5-1 .5-1 .5h-1.5-1.5l-2 .5-2 .5-1.5.5-1.5.5h-2.5-2.5l-1.5.5-1.5.5-1.5.5-1.5.5 10-1.5 10-1.5 9.5-1.5 9.5-1.5 10.5-.5 10.5-.5h11 11l9.5 2 9.5 2 8.5 2.5 8.5 2.5 7.5 3.5 7.5 3.5 4 7 4 7 5 6 5 6 2 6.5 2 6.5-.5 7.5-.5 7.5 5-6 5-6 5-4 5-4 3.5 5.5 3.5 5.5-1.5 10-1.5 10-2 9-2 9-2.5 8.5-2.5 8.5-4.5 7.5-4.5 7.5-1.5-10-1.5-10-4.5-6.5-4.5-6.5-7 4-7 4-6.5-3-6.5-3-6.5-4.5-6.5-4.5-3-7-3-7-3-4-3-4-11 1-11 1 7 1.5 7 1.5 6 4.5 6 4.5 5.5 5.5 5.5 5.5 6 5 6 5 7.5.5 7.5.5 8.5 5.5 8.5 5.5-.5 11-.5 11v10.5 10.5l7 9.5 7 9.5.5-1.5.5-1.5 1-1 1-1 1.5-.5 1.5-.5h1.5 1.5 2 2 2.5 2.5l.5-1.5.5-1.5v-.5-.5l-.5-10.5-.5-10.5h8.5 8.5 2 2l1.5.5 1.5.5 3 .5 3 .5-3 16-3 16-.5 1.5-.5 1.5v1 1h-1-1v-1.5-1.5-1.5-1.5l-.5-.5-.5-.5v-1-1l-.5-1.5-.5-1.5-2.5-.5-2.5-.5-1.5.5-1.5.5-1.5 1-1.5 1-1.5.5-1.5.5-2-.5-2-.5-1 1-1 1-.5 1-.5 1-.5 1-.5 1-.5 1.5-.5 1.5v2.5 2.5l-.5 1-.5 1v.5.5 2 2 2.5 2.5l.5 1.5.5 1.5v2.5 2.5 2 2 2 2l.5 1 .5 1 .5 1 .5 1 9.5 3.5 9.5 3.5v10.5 10.5l.5.5.5.5" style="fill:#dcd8cc;stroke:#dcd8cc"/><g style="fill:#a42807;stroke:#a42807"><path d="m483 420l1 1 1-2 1-2 1 .5 1 .5-.5.5-.5.5h1 1l1 .5 1 .5.5.5.5.5 1-1 1-1-.5-1-.5-1-.5-.5-.5-.5-.5-.5-.5-.5-.5-.5-.5-.5h-1-1l-.5-1-.5-1h-1-1l-.5-1-.5-1-1 .5-1 .5v1.5 1.5l.5 1.5.5 1.5v1.5 1.5"/><path d="m469 418h2l.5-1.5.5-1.5 1-.5 1-.5 1.5-.5 1.5-.5 1-.5 1-.5 1.5-.5 1.5-.5-2-1.5-2-1.5-1.5.5-1.5.5h-1-1l-2 .5-2 .5v1.5 1.5 2.5 2.5"/></g><path d="m607 410h2l1-.5 1-.5v-.5-.5l.5-1 .5-1 .5-1 .5-1h-1.5-1.5-1-1l-1 .5-1 .5-1.5.5-1.5.5h-1-1-1.5-1.5l-1-.5-1-.5h-1-1l-.5-.5-.5-.5-.5.5-.5.5-1-.5-1-.5-.5-.5-.5-.5-.5-.5-.5-.5-.5-.5-.5-.5-1-.5-1-.5-1-1-1-1-1.5-1-1.5-1 .5-.5.5-.5-.5-.5-.5-.5h-1-1l-.5-.5-.5-.5-1-.5-1-.5-.5-.5-.5-.5-.5.5-.5.5h-1-1l-1-.5-1-.5h-1-1-1-1l-.5-.5-.5-.5-.5-1-.5-1h-1-1l-.5-.5-.5-.5h-1-1l-.5-.5-.5-.5-1-.5-1-.5.5 1.5.5 1.5 1 1 1 1 1 .5 1 .5 1 1 1 1 1.5 1 1.5 1 .5 1 .5 1 .5 1 .5 1 10 3 10 3 10 2.5 10 2.5" style="fill:#373247;stroke:#373247"/><path d="m611 408v1l12.5-1 12.5-1h7 7l8-1 8-1 8.5.5 8.5.5h8.5 8.5l1-2.5 1-2.5h-6-6l-9-1-9-1-9.5 1-9.5 1-9.5-.5-9.5-.5-10.5 2-10.5 2-.5 1-.5 1-.5 1-.5 1" style="fill:#0d1939;stroke:#0d1939"/><path d="m601 406h2l1.5-.5 1.5-.5 1-.5 1-.5h1 1 1.5 1.5l10.5-2 10.5-2 9.5.5 9.5.5 9.5-1 9.5-1 9 1 9 1h6 6l-1 2.5-1 2.5 2.5-.5 2.5-.5 2-.5 2-.5 1.5 1 1.5 1v-1.5-1.5-2-2-2-2-2.5-2.5-2-2-2.5-2.5-2-2-2.5-2.5-.5-.5l-11 .5-11 .5-8.5 1.5-8.5 1.5-7.5-1-7.5-1-6.5-2.5-6.5-2.5-4.5 1.5-4.5 1.5 2-6 2-6-3.5-4.5-3.5-4.5-3.5 1-3.5 1-3 7-3 7-2.5 2.5-2.5 2.5-2 6-2 6-4.5 8.5-4.5 8.5-1-.5-1-.5-2-.5-2-.5-1.5-.5-1.5-.5h-2.5-2.5l-2.5.5-2.5.5 1 1 1 1 1 .5 1 .5.5.5.5.5.5.5.5.5.5.5.5.5 1 .5 1 .5.5-.5.5-.5.5.5.5.5h1 1l1 .5 1 .5h1.5 1.5" style="fill:#1c4f14;stroke:#1c4f14"/><path d="m473 404h2l1.5-.5 1.5-.5-.5-1-.5-1 .5-2.5.5-2.5-.5-1-.5-1-.5-1-.5-1h-2.5-2.5-1.5-1.5l-1 2-1 2 .5 1 .5 1v2.5 2.5l1.5.5 1.5.5h1.5 1.5" style="fill:#a42807;stroke:#a42807"/><path d="m501 401l1-1 .5-.5.5-.5v-1-1l.5-.5.5-.5.5-1.5.5-1.5v-1.5-1.5h1 1l1 1 1 1 1-.5 1-.5.5-.5.5-.5 1 .5 1 .5.5 1 .5 1 1-1.5 1-1.5.5-1 .5-1v-1-1l.5-1.5.5-1.5.5-1 .5-1v-2-2l-8 3.5-8 3.5-1.5 8.5-1.5 8.5" style="fill:#6ed564;stroke:#6ed564"/><path d="m602 400l9-17 2-6 2-6 2.5-2.5 2.5-2.5 3-7 3-7 3.5-1 3.5-1 3.5 4.5 3.5 4.5-2 6-2 6 4.5-1.5 4.5-1.5 6.5 2.5 6.5 2.5 7.5 1 7.5 1 8.5-1.5 8.5-1.5 11-.5 11-.5v-13-13-11.5-11.5-11-11-11-11-11-11-5-5l-.5-.5-.5-.5-5-2-5-2 5.5-6 5.5-6v-12-12-11-11-11-11-11.5-11.5-11-11-11-11-11-11-11-11-11.5-11.5-1-1l-1 2-1 2-.5 1.5-.5 1.5-1.5-1-1.5-1-1 1-1 1-.5 2-.5 2-1.5.5-1.5.5h-1-1l2.5-8 2.5-8-1-7-1-7 1-3.5 1-3.5h-2-2-2.5-2.5-2-2-2-2-2.5-2.5-2-2-2.5-2.5-2-2-1-1l1.5 9 1.5 9 .5 6.5.5 6.5v4 4l1.5 6.5 1.5 6.5.5 9 .5 9 2 9 2 9 .5 7.5.5 7.5-1 9-1 9-2 9-2 9-2.5 9-2.5 9-2 9-2 9-2 9-2 9-3.5 7.5-3.5 7.5-2.5 8.5-2.5 8.5-2 9.5-2 9.5-2 9-2 9-2 9-2 9-2.5 8.5-2.5 8.5-3 8-3 8-4 5.5-4 5.5-4.5-6.5-4.5-6.5-1.5-5.5-1.5-5.5-.5-1.5-.5-1.5-.5-7.5-.5-7.5-2.5-8-2.5-8-4-7-4-7-2-7-2-7-2.5-5.5-2.5-5.5-.5 7.5-.5 7.5-3.5 5-3.5 5-2-6-2-6-6-3-6-3-5.5-4.5-5.5-4.5-3.5-.5-3.5-.5-5.5-1-5.5-1 3 2 3 2 2.5 7.5 2.5 7.5 4-3 4-3 4 7 4 7 5.5 4 5.5 4-2 3-2 3 3 5 3 5 6.5 3.5 6.5 3.5 7 3 7 3-1.5 6-1.5 6-3.5 3.5-3.5 3.5 4.5 6.5 4.5 6.5 2.5 7.5 2.5 7.5 2.5 8.5 2.5 8.5 3.5 8 3.5 8-2 9-2 9-5 5-5 5-7-2-7-2-13.5-4-13.5-4h-1-1l.5 1.5.5 1.5 1 .5 1 .5.5.5.5.5h1 1l.5.5.5.5h1 1l.5 1 .5 1 .5.5.5.5h1 1 1 1l1 .5 1 .5h1 1l.5-.5.5-.5.5.5.5.5 1 .5 1 .5.5.5.5.5h1 1l.5.5.5.5-.5.5-.5.5 1.5 1 1.5 1 2.5-.5 2.5-.5h2.5 2.5l1.5.5 1.5.5 2 .5 2 .5 1 .5 1 .5" style="fill:#3b8f24;stroke:#3b8f24"/><path d="m224 398l-6-4-5-5-5-5-.5 3-.5 3 5.5 3.5 5.5 3.5 3 .5 3 .5" style="fill:#373247;stroke:#373247"/><path d="m465 395l1 1 1-2 1-2h1.5 1.5 2.5 2.5v-2-2-2-2-2.5-2.5l-.5-1.5-.5-1.5v-2.5-2.5-2-2l-.5 1.5-.5 1.5-1 .5-1 .5h-1-1v1 1l-1.5-.5-1.5-.5-1-.5-1-.5v-.5-.5l1.5-1 1.5-1-.5-1.5-.5-1.5-.5-1.5-.5-1.5h-1-1-1-1v1 1 1 1l-.5 1-.5 1 .5.5.5.5-.5.5-.5.5.5.5.5.5-.5 1-.5 1v1 1 1 1 1 1l.5 1 .5 1v2 2l1-1 1-1v-1-1-1-1l.5-1 .5-1v-1-1l.5.5.5.5.5.5.5.5v1.5 1.5l-.5.5-.5.5v1 1 1 1l.5 1 .5 1-.5.5-.5.5v1 1h-1-1l1 1.5 1 1.5-.5 1-.5 1" style="fill:#f34f15;stroke:#f34f15"/><path d="m497 394l4-20-1.5-9.5-1.5-9.5-7.5 2-7.5 2-2.5 7.5-2.5 7.5 1.5 9.5 1.5 9.5 6.5.5 6.5.5h1.5 1.5" style="fill:#fffff2;stroke:#fffff2"/><path d="m597 394l10-10 2-9 2-9-3.5-8-3.5-8-2.5-8.5-2.5-8.5-2.5-7.5-2.5-7.5-4.5-6.5-4.5-6.5 3.5-3.5 3.5-3.5 1.5-6 1.5-6-7-3-7-3-6.5-3.5-6.5-3.5-3-5-3-5 2-3 2-3-5.5-4-5.5-4-4-7-4-7-4 3-4 3-2.5-7.5-2.5-7.5-3-2-3-2 5.5 1 5.5 1 3.5.5 3.5.5 5.5 4.5 5.5 4.5 6 3 6 3 2 6 2 6 3.5-5 3.5-5 .5-7.5.5-7.5 2.5 5.5 2.5 5.5 2 7 2 7 4 7 4 7 2.5 8 2.5 8 .5 7.5.5 7.5.5 1.5.5 1.5 1.5 5.5 1.5 5.5 4.5 6.5 4.5 6.5 4-5.5 4-5.5 3-8 3-8 2.5-8.5 2.5-8.5 2-9 2-9 2-9 2-9 2-9.5 2-9.5 2.5-8.5 2.5-8.5 3.5-7.5 3.5-7.5 2-9 2-9 2-9 2-9 2.5-9 2.5-9 2-9 2-9 1-9 1-9-.5-7.5-.5-7.5-2-9-2-9-.5-9-.5-9-1.5-6.5-1.5-6.5v-4-4l-.5-6.5-.5-6.5-1.5-9-1.5-9h-2-2-1-1l.5 7.5.5 7.5-1.5 7.5-1.5 7.5.5 5.5.5 5.5.5 6.5.5 6.5.5 7.5.5 7.5 3.5 8 3.5 8-1 8-1 8v6 6l3 6 3 6-3.5 7-3.5 7-1 9-1 9-4 5-4 5 2.5 5.5 2.5 5.5-1.5 8.5-1.5 8.5-4 7.5-4 7.5-2 8-2 8-2.5 12.5-2.5 12.5-4.5 8-4.5 8-.5 5.5-.5 5.5-.5-2-.5-2 .5-1.5.5-1.5h1 1l-.5-1-.5-1-1-1-1-1h-1-1l-.5-.5-.5-.5v-1-1l1 .5 1 .5.5.5.5.5.5-.5.5-.5v-1-1l.5-1 .5-1 .5-1.5.5-1.5.5-1 .5-1-2-.5-2-.5-1.5-.5-1.5-.5-.5.5-.5.5-.5-.5-.5-.5-1.5.5-1.5.5-.5.5-.5.5-1 .5-1 .5h-1.5-1.5l-2-7-2-7 5-6 5-6-4.5-8-4.5-8-3-3-3-3-.5 1-.5 1-.5 1-.5 1-.5 1.5-.5 1.5v1 1l.5 1 .5 1-1.5.5-1.5.5v1 1l-.5 1-.5 1-1.5.5-1.5.5-.5.5-.5.5-2-8-2-8-2-4-2-4-2-2-2-2 .5-5 .5-5-2-8-2-8-3-12-3-12 2-6.5 2-6.5-4.5-6.5-4.5-6.5v-6-6l-1.5-7.5-1.5-7.5-1-7.5-1-7.5 4-6 4-6 5 5 5 5 1-4 1-4-3.5-3.5-3.5-3.5-5-3.5-5-3.5-3.5-5.5-3.5-5.5 7 1 7 1 6-1 6-1 2-4 2-4-3.5-7-3.5-7-5-2-5-2-3-5-3-5-3-5-3-5h-2.5-2.5-2.5-2.5-2-2-2-2-2.5-2.5-2-2l3.5 8 3.5 8 2 8 2 8 2 7 2 7 .5 6.5.5 6.5-1 5-1 5 3 6.5 3 6.5-3 5-3 5 1.5 7.5 1.5 7.5 1 5 1 5 .5 4.5.5 4.5-1.5 6-1.5 6-4-7.5-4-7.5-1-7-1-7-2-6-2-6-3-6-3-6-1.5-6.5-1.5-6.5-1.5-4-1.5-4-3-4-3-4-3.5-1.5-3.5-1.5-4.5-5.5-4.5-5.5-2.5-6-2.5-6-4-7-4-7-.5-8-.5-8h-1.5-1.5-2.5-2.5-2-2-2.5-2.5-2-2-2.5-2.5-2-2-2-2l.5 7 .5 7-1.5 2.5-1.5 2.5-5 5-5 5 7.5 2.5 7.5 2.5 4 6.5 4 6.5 2 7 2 7-.5 3.5-.5 3.5.5 7.5.5 7.5 2 8 2 8 2 5.5 2 5.5-1 8-1 8-2-3.5-2-3.5-1.5-3.5-1.5-3.5-7.5-3.5-7.5-3.5-6-4-6-4-3-6-3-6-4.5-7-4.5-7v-7-7l-4.5-5.5-4.5-5.5v-8-8l-.5-5-.5-5-3.5-10-3.5-10h-3-3-2-2-2-2-2.5-2.5-2-2-2.5-2.5-.5-.5v1.5 1.5h1.5 1.5 1 1l.5 1 .5 1-1 1-1 1h-1-1-2-2v-1-1l.5-1 .5-1-.5-.5-.5-.5h-1-1l-.5.5-.5.5-.5-.5-.5-.5-1-1-1-1h-12.5-12.5-11.5-11.5-3.5-3.5l2.5 7.5 2.5 7.5 2 7 2 7 4 7 4 7 7.5 2.5 7.5 2.5 3.5 5 3.5 5 1 7 1 7 3 4 3 4-1.5 3.5-1.5 3.5 7-2 7-2 1.5 8 1.5 8 4.5 5.5 4.5 5.5 6.5 3.5 6.5 3.5 4.5 5.5 4.5 5.5-5-1-5-1-3.5 2-3.5 2 6.5 4.5 6.5 4.5-3.5-.5-3.5-.5-7.5-3.5-7.5-3.5-8.5-2.5-8.5-2.5-5-4.5-5-4.5-5.5.5-5.5.5-6.5.5-6.5.5-7.5-.5-7.5-.5-4-4-4-4-4.5-1-4.5-1-6-3-6-3h-7-7l-7-2-7-2-5 3-5 3 5.5 3 5.5 3 6.5-.5 6.5-.5 3.5 1.5 3.5 1.5 11.5 5.5 11.5 5.5 1.5-.5 1.5-.5.5.5.5.5h1.5 1.5l1.5.5 1.5.5h1 1l.5-.5.5-.5h1 1l.5 1 .5 1 1.5.5 1.5.5 1 1.5 1 1.5 1 1 1 1 1 1.5 1 1.5.5.5.5.5 1 1.5 1 1.5h1 1l1.5.5 1.5.5 1.5 1 1.5 1 1.5-.5 1.5-.5h1 1 1.5 1.5l1.5.5 1.5.5 1.5 1 1.5 1 1 1 1 1 1.5 1.5 1.5 1.5 5-3.5 5-3.5h5 5l3 3 3 3 4.5 2 4.5 2 2.5 3.5 2.5 3.5 7 2 7 2 6.5 2.5 6.5 2.5 5.5 3 5.5 3 5 3 5 3 5.5 2.5 5.5 2.5-1.5-5.5-1.5-5.5-4.5-2.5-4.5-2.5-4.5-5-4.5-5-4-5-4-5 1.5-.5 1.5-.5 4.5 5.5 4.5 5.5 5.5 3.5 5.5 3.5 5.5 3 5.5 3 4.5 5.5 4.5 5.5-3 2-3 2-2 4-2 4 8 3 8 3 2 4.5 2 4.5 5.5 4.5 5.5 4.5 2 3 2 3 5 8.5 5 8.5 4 3.5 4 3.5 6.5 2.5 6.5 2.5 2.5 6.5 2.5 6.5 1.5.5 1.5.5-1 6-1 6-1.5 4.5-1.5 4.5 3.5-.5 3.5-.5 3.5 4.5 3.5 4.5 2 5 2 5 .5 5 .5 5-1.5 6.5-1.5 6.5-1 6-1 6 2 8 2 8 2.5 1 2.5 1v11.5 11.5l13.5 4 13.5 4 7 2 7 2" style="fill:#50bf2f;stroke:#50bf2f"/><path d="m463 389l1 1h1 1v-1-1l.5-.5.5-.5-.5-1-.5-1v-1-1-1-1l.5-.5.5-.5v-1.5-1.5l-.5-.5-.5-.5-.5-.5-.5-.5v1 1l-.5 1-.5 1v1 1 1 1l-1 1-1 1 .5 1.5.5 1.5v.5.5" style="fill:#dcd8cc;stroke:#dcd8cc"/><path d="m553 381l1 1h1 1v-11.5-11.5l-2.5-1-2.5-1-2-8-2-8 1-6 1-6 1.5-6.5 1.5-6.5-.5-5-.5-5-2-5-2-5-3.5-4.5-3.5-4.5-3.5.5-3.5.5 1.5-4.5 1.5-4.5 1-6 1-6-1.5-.5-1.5-.5-2.5-6.5-2.5-6.5-6.5-2.5-6.5-2.5-4-3.5-4-3.5 1 1 1 1 1 1.5 1 1.5.5 1.5.5 1.5.5 2 .5 2 1.5.5 1.5.5 1 1.5 1 1.5-1 1-1 1h-1-1l-1.5-1-1.5-1-1.5-1-1.5-1-1-1-1-1-1-1.5-1-1.5-1-1-1-1v-2.5-2.5-2-2h1 1l1.5 1 1.5 1-5-8.5-5-8.5-2-3-2-3-5.5-4.5-5.5-4.5-2-4.5-2-4.5-8-3-8-3 2-4 2-4 3-2 3-2-4.5-5.5-4.5-5.5-5.5-3-5.5-3-5.5-3.5-5.5-3.5-4.5-5.5-4.5-5.5-1.5.5-1.5.5 4 5 4 5 4.5 5 4.5 5 4.5 2.5 4.5 2.5 1.5 5.5 1.5 5.5-5.5-2.5-5.5-2.5-5-3-5-3-5.5-3-5.5-3-6.5-2.5-6.5-2.5-7-2-7-2-2.5-3.5-2.5-3.5-4.5-2-4.5-2-3-3-3-3h-5-5l-5 3.5-5 3.5v1.5 1.5l-1 .5-1 .5v1 1l-.5.5-.5.5-.5.5-.5.5h-1.5-1.5l-.5.5-.5.5.5.5.5.5.5 1 .5 1-1 1-1 1-.5.5-.5.5-.5 1.5-.5 1.5v1.5 1.5l1.5.5 1.5.5 2 .5 2 .5h2 2l1.5-.5 1.5-.5h2.5 2.5l1.5-1 1.5-1-.5-5.5-.5-5.5 7 1 7 1 .5 4.5.5 4.5-1.5-.5-1.5-.5-.5.5-.5.5h-1-1-1-1l-1-.5-1-.5-.5.5-.5.5h-1.5-1.5l8 1.5 8 1.5 9 4 9 4h-3-3l1 .5 1 .5.5.5.5.5h1 1l1.5.5 1.5.5h1.5 1.5l.5.5.5.5h1 1 1 1l1 .5 1 .5.5.5.5.5.5.5.5.5h1 1l1 .5 1 .5h1 1v1 1h1 1l1 .5 1 .5.5.5.5.5 1 1 1 1 6.5 5 6.5 5 8.5 8 8.5 8 5.5 13.5 5.5 13.5-2 9-2 9-2 9-2 9 .5 6.5.5 6.5-.5-1.5-.5-1.5 1-1.5 1-1.5 1-1 1-1 .5-1 .5-1v-.5-.5-.5-.5-.5-.5l-1-1-1-1 .5-1.5.5-1.5.5-2 .5-2 .5-1.5.5-1.5v-2.5-2.5l.5-1.5.5-1.5v-2.5-2.5l.5-1.5.5-1.5v-2.5-2.5l.5-1 .5-1 1-.5 1-.5 1.5 1 1.5 1 1 1 1 1 1 1.5 1 1.5h2 2l1 1.5 1 1.5.5 2.5.5 2.5.5 1 .5 1 .5.5.5.5h1.5 1.5v1.5 1.5l1.5 1 1.5 1v2 2l.5 2.5.5 2.5.5 1 .5 1v1 1l.5 1 .5 1 .5.5.5.5v1 1 1 1l-.5.5-.5.5-1-.5-1-.5h-1.5-1.5l1 1 1 1 .5.5.5.5v2 2 1.5 1.5h1 1 1 1l1-.5 1-.5.5-.5.5-.5.5-1.5.5-1.5.5-1.5.5-1.5.5-1 .5-1 .5-.5.5-.5.5-.5.5-.5h1 1l1 .5 1 .5.5 1 .5 1 4.5 5 4.5 5v8.5 8.5l5 12.5 5 12.5.5 2 .5 2v2 2l-1 .5-1 .5-1.5-.5-1.5-.5-1.5-.5-1.5-.5-.5-.5-.5-.5-.5-1-.5-1-1-1-1-1v-1-1-2.5-2.5l-1.5-.5-1.5-.5v1.5 1.5l-.5 1.5-.5 1.5-2.5 12.5-2.5 12.5 3-.5 3-.5 4.5-4 4.5-4 7 5.5 7 5.5.5 2.5.5 2.5 1 1 1 1 1 1.5 1 1.5 1 1 1 1" style="fill:#6ed564;stroke:#6ed564"/><path d="m187 378l6-8 4.5-3.5 4.5-3.5-4-2.5-4-2.5-4-3-4-3h-4-4l.5 2.5.5 2.5-1 6-1 6 5 4.5 5 4.5" style="fill:#373247;stroke:#373247"/><path d="m467 372l3 1v-1-1h1 1l1-.5 1-.5.5-1.5.5-1.5v-.5-.5l-1.5-1.5-1.5-1.5h-2-2l-1-.5-1-.5.5 1.5.5 1.5.5 1.5.5 1.5-1.5 1-1.5 1v.5.5l1 .5 1 .5" style="fill:#a42807;stroke:#a42807"/><path d="m501 360h2v-1-1l.5-1.5.5-1.5v-.5-.5-2-2l.5-.5.5-.5v-1.5-1.5-1-1l.5-1.5.5-1.5-.5-.5-.5-.5v-1.5-1.5l-.5-1-.5-1-.5-2-.5-2v-2-2l.5-2.5.5-2.5-1.5-.5-1.5-.5h-2-2-7.5-7.5l-.5 11-.5 11v1 1l.5.5.5.5.5.5.5.5h1 1 1 1l1 .5 1 .5.5-.5.5-.5h1 1l.5-.5.5-.5h1.5 1.5l.5-.5.5-.5.5.5.5.5.5 1 .5 1 .5 1.5.5 1.5v1 1l.5.5.5.5v1.5 1.5 1.5 1.5" style="fill:#373247;stroke:#373247"/><g style="fill:#6ed564;stroke:#6ed564"><path d="m504 354v1l3-16 3-16-3-.5-3-.5 1 .5 1 .5 1 1 1 1-.5 1.5-.5 1.5v2 2l.5 2 .5 2-.5 1.5-.5 1.5-.5 1-.5 1-.5 1.5-.5 1.5v1 1 1.5 1.5l-.5.5-.5.5v2 2"/><path d="m478 353v1l.5-1 .5-1 1-1 1-1 2 .5 2 .5 1.5-.5 1.5-.5 1.5-1 1.5-1 1.5-.5 1.5-.5 2.5.5 2.5.5-.5-1-.5-1-.5-.5-.5-.5-.5.5-.5.5h-1.5-1.5l-.5.5-.5.5h-1-1l-.5.5-.5.5-1-.5-1-.5h-1-1-1-1l-.5-.5-.5-.5-.5-.5-.5-.5v-1-1l-.5 1.5-.5 1.5h-2.5-2.5-2-2-1.5-1.5l-1.5.5-1.5.5h2.5 2.5 2.5 2.5 2 2v1.5 1.5l-.5 1.5-.5 1.5"/><path d="m458 352h4l-7-9.5-7-9.5v-10.5-10.5 13.5 13.5l5 6.5 5 6.5"/></g><path d="m536 351l2-1v-2-2l-.5-2-.5-2-.5-.5-.5-.5-.5-1-.5-1-.5-1-.5-1-.5-1.5-.5-1.5-.5-.5-.5-.5-.5-1-.5-1-.5-1.5-.5-1.5h-1-1l-.5.5-.5.5v.5.5l-.5 1.5-.5 1.5v2 2 2.5 2.5 1 1l1 1 1 1 .5 1 .5 1 .5.5.5.5 1.5.5 1.5.5 1.5.5 1.5.5" style="fill:#c7ff84;stroke:#c7ff84"/><path d="m455 344l21-1 1-8 1-8-10-.5-10-.5-3.5 5.5-3.5 5.5 2 3.5 2 3.5" style="fill:#fffff2;stroke:#fffff2"/><path d="m481 342v1l.5-11 .5-11h7.5 7.5-8.5-8.5l.5 10.5.5 10.5" style="fill:#6ed564;stroke:#6ed564"/><path d="m522 341v1l.5-1.5.5-1.5v-1.5-1.5l-.5-10-.5-10-2-2-2-2v-11-11l-.5-1-.5-1-1-.5-1-.5h-1-1l-.5.5-.5.5-.5.5-.5.5-.5 1-.5 1 1.5 11.5 1.5 11.5 4 6 4 6 .5 7.5.5 7.5" style="fill:#c7ff84;stroke:#c7ff84"/><path d="m536 341l1 1-5-12.5-5-12.5v-8.5-8.5l-4.5-5-4.5-5v11 11l2 2 2 2 .5 10 .5 10 1.5.5 1.5.5v-2-2l.5-1.5.5-1.5v-.5-.5l.5-.5.5-.5h1 1l.5 1.5.5 1.5.5 1 .5 1 .5.5.5.5.5 1.5.5 1.5.5 1 .5 1 .5 1 .5 1" style="fill:#9ffc5d;stroke:#9ffc5d"/><path d="m491 340h2l1.5-.5 1.5-.5 2 .5 2 .5.5-.5.5-.5.5-2 .5-2-.5-1.5-.5-1.5-.5-2-.5-2v-2-2l-1.5-.5-1.5-.5-.5.5-.5.5v1.5 1.5l-1.5.5-1.5.5v1.5 1.5l-.5 1.5-.5 1.5-1 .5-1 .5.5 2.5.5 2.5" style="fill:#2d1b09;stroke:#2d1b09"/><path d="m505 340l1 1 .5-1 .5-1 .5-1.5.5-1.5-.5-2-.5-2v-2-2l.5-1.5.5-1.5-1-1-1-1-1-.5-1-.5-.5 2.5-.5 2.5v2 2l.5 2 .5 2 .5 1 .5 1v1.5 1.5" style="fill:#a42807;stroke:#a42807"/><path d="m490 334v1l1-.5 1-.5.5-1.5.5-1.5v-1.5-1.5l1.5-.5 1.5-.5v-1.5-1.5l-2.5-.5-2.5-.5-1 1.5-1 1.5.5 1.5.5 1.5v2 2 .5.5" style="fill:#0d1939;stroke:#0d1939"/><path d="m580 327h2l1.5-.5 1.5-.5.5-2 .5-2-1-1-1-1-1-1.5-1-1.5-.5 1.5-.5 1.5v1.5 1.5l-1 1-1 1 .5 1 .5 1" style="fill:#6ed564;stroke:#6ed564"/><g style="fill:#1c4f14;stroke:#1c4f14"><path d="m274 322l15-7 3-3 3-3 2-2.5 2-2.5-6-1-6-1-6.5 3.5-6.5 3.5v5 5 1.5 1.5"/><path d="m365 319l9-11 4-3 4-3-4.5-3-4.5-3-7.5-.5-7.5-.5-3.5.5-3.5.5-3.5-1.5-3.5-1.5-6.5-.5-6.5-.5h-5.5-5.5l1 7 1 7 6.5 3.5 6.5 3.5 7.5.5 7.5.5 7.5 2.5 7.5 2.5"/></g><g style="fill:#fffff2;stroke:#fffff2"><path d="m502 318l-2-14-6-2-6-2-9-.5-9-.5-5.5 5.5-5.5 5.5-.5 3.5-.5 3.5 9-1 9-1 6.5-3.5 6.5-3.5 1 3.5 1 3.5 5.5 1.5 5.5 1.5"/><path d="m454 305l9-15 2.5-8.5 2.5-8.5 2-9 2-9 1.5-10 1.5-10-3.5-5.5-3.5-5.5-5 4-5 4-5 6-5 6 .5-7.5.5-7.5-2-6.5-2-6.5-5-6-5-6-4-7-4-7-7.5-3.5-7.5-3.5-8.5-2.5-8.5-2.5-9.5-2-9.5-2h-11-11l-10.5.5-10.5.5-9.5 1.5-9.5 1.5-10 1.5-10 1.5-7 5-7 5-3.5 8-3.5 8 6 2 6 2 9.5-.5 9.5-.5 8 3 8 3 8 3 8 3 7 4.5 7 4.5 6.5 5 6.5 5 1 .5 1 .5 1 .5 1 .5.5 1 .5 1 11-1 11-1 3 4 3 4 3 7 3 7 6.5 4.5 6.5 4.5 6.5 3 6.5 3 7-4 7-4 4.5 6.5 4.5 6.5 1.5 10 1.5 10"/></g><path d="m478 295l3 1 1.5-1 1.5-1 1.5-.5 1.5-.5.5-1 .5-1 .5-1.5.5-1.5h1.5 1.5 1 1l.5-1 .5-1 1.5-1 1.5-1 .5-2 .5-2 1-1 1-1-.5-2.5-.5-2.5v-2-2l-1.5-1-1.5-1v-1.5-1.5h-1.5-1.5l-1 1.5-1 1.5-1 1-1 1-1 1-1 1h-1-1l-.5 1-.5 1-1 1-1 1-.5.5-.5.5-.5 1-.5 1-1.5.5-1.5.5-.5.5-.5.5-.5 1-.5 1-1 1-1 1-1 .5-1 .5-.5 1-.5 1-1 1-1 1-1 1.5-1 1.5.5 1.5.5 1.5 1-.5 1-.5h1 1l.5-.5.5-.5h1 1 .5.5l1 1 1 1" style="fill:#1279ea;stroke:#1279ea"/><path d="m503 290l1-1v-1-1-1-1l-.5-.5-.5-.5-.5-1-.5-1v-1-1l-.5-1-.5-1-1 1-1 1-.5 2-.5 2-1.5 1-1.5 1 1 .5 1 .5.5 1 .5 1h1.5 1.5l1 .5 1 .5" style="fill:#373247;stroke:#373247"/><path d="m421 284l3 1 1.5-.5 1.5-.5 1.5-1 1.5-1 1-1.5 1-1.5-7.5-.5-7.5-.5-6-5-6-5-5.5-5.5-5.5-5.5-6-4.5-6-4.5-7-1.5-7-1.5-.5-1-.5-1-1-.5-1-.5-1-.5-1-.5-1-.5-1-.5-7-4.5-7-4.5-7-4-7-4-8-3-8-3-8.5-2.5-8.5-2.5-10 1-10 1-4-7.5-4-7.5v-.5-.5l.5-1.5.5-1.5-1-1-1-1 .5-1.5.5-1.5-.5-.5-.5-.5h-1.5-1.5l-1 1-1 1-.5.5-.5.5-.5-.5-.5-.5v1 1l-1 .5-1 .5-.5.5-.5.5-.5.5-.5.5-1 1-1 1 .5.5.5.5-1 .5-1 .5-.5-.5-.5-.5-.5.5-.5.5h-1-1l.5 1 .5 1h-1-1l-.5.5-.5.5h1.5 1.5l.5.5.5.5.5.5.5.5 1 .5 1 .5v-1-1l.5-.5.5-.5.5-.5.5-.5h1.5 1.5l.5 2 .5 2-.5 2-.5 2-1 1.5-1 1.5-.5 1-.5 1-1 1.5-1 1.5 2.5.5 2.5.5 15-1.5 15-1.5h9 9l8 3 8 3 7 4 7 4 7 4 7 4 6.5 5 6.5 5 7.5 3.5 7.5 3.5 6.5 4.5 6.5 4.5 6.5 4.5 6.5 4.5 6 5.5 6 5.5" style="fill:#6ed564;stroke:#6ed564"/><path d="m472 284v1l1-.5 1-.5 1-1 1-1 .5-1 .5-1 .5-.5.5-.5 1.5-.5 1.5-.5.5-1 .5-1 .5-.5.5-.5 1-1 1-1 .5-1 .5-1h1 1l1-1 1-1 1-1 1-1 1-1.5 1-1.5-.5-.5-.5-.5-1 .5-1 .5-1 1-1 1-1 1-1 1-1.5 1-1.5 1-1 1-1 1-1 1.5-1 1.5-1 1-1 1-1 1-1 1-1 1.5-1 1.5-1 .5-1 .5v.5.5" style="fill:#0d4fc3;stroke:#0d4fc3"/><path d="m472 282v1l1-.5 1-.5 1-1.5 1-1.5 1-1 1-1 1-1 1-1 1-1.5 1-1.5 1-1 1-1 1.5-1 1.5-1 1-1 1-1 1-1 1-1 1-.5 1-.5-.5-1-.5-1-1-.5-1-.5v1.5 1.5l-1 1-1 1h-1-1-.5-.5l-1.5.5-1.5.5h-1.5-1.5l.5-1.5.5-1.5v-2-2l1.5-2 1.5-2-.5-1-.5-1-.5-.5-.5-.5-.5-1-.5-1-1-1-1-1-1-.5-1-.5-.5 1-.5 1v2.5 2.5l-.5 1.5-.5 1.5v2.5 2.5l-.5 1.5-.5 1.5v2.5 2.5l-.5 1.5-.5 1.5-.5 2-.5 2-.5 1.5-.5 1.5 1 1 1 1" style="fill:#373247;stroke:#373247"/><path d="m630 278l1-11 4.5-8 4.5-8-1 .5-1 .5-2 .5-2 .5-.5 1.5-.5 1.5-.5 1-.5 1-.5 1.5-.5 1.5-.5 1-.5 1v1 1l-.5.5-.5.5-.5-.5-.5-.5-1-.5-1-.5v1 1l.5.5.5.5h1 1l1 1 1 1 .5 1 .5 1h-1-1l-.5 1.5-.5 1.5.5 2 .5 2" style="fill:#6ed564;stroke:#6ed564"/><path d="m583 273h2l1-1 1-1 .5-2 .5-2-1-1-1-1v-1.5-1.5l-1-1-1-1-2 .5-2 .5-.5 1.5-.5 1.5.5 1.5.5 1.5.5 2 .5 2 1 1 1 1" style="fill:#50bf2f;stroke:#50bf2f"/><path d="m479 266h3l1.5-.5 1.5-.5-.5-1-.5-1 2-.5 2-.5-.5-1.5-.5-1.5-1-1-1-1-1-1-1-1-1.5 2-1.5 2v2 2l-.5 1.5-.5 1.5" style="fill:#2d1b09;stroke:#2d1b09"/><path d="m486 265h2l1-1 1-1v-1.5-1.5l1 .5 1 .5-.5-2.5-.5-2.5-1-1.5-1-1.5h-2-2l-1-1.5-1-1.5-1-1-1-1-1.5-1-1.5-1-1 .5-1 .5 1 .5 1 .5 1 1 1 1 .5 1 .5 1 .5.5.5.5.5 1 .5 1 1 1 1 1 1 1 1 1 .5 1.5.5 1.5-2 .5-2 .5.5 1 .5 1h.5.5" style="fill:#3b8f24;stroke:#3b8f24"/><path d="m379 264h2l.5-.5.5-.5.5.5.5.5 1-.5 1-.5-1-.5-1-.5.5-.5.5-.5-1-1-1-1-1.5-1-1.5-1-1.5-.5-1.5-.5-2-.5-2-.5-1.5.5-1.5.5 2 .5 2 .5h-1.5-1.5-1.5-1.5l-.5 1-.5 1 1.5.5 1.5.5 1.5-.5 1.5-.5 1.5 1 1.5 1 1 1 1 1 1 .5 1 .5" style="fill:#1c4f14;stroke:#1c4f14"/><path d="m104 263l20-4 7-4 7-4 6-5.5 6-5.5 6-5 6-5 6-5 6-5 3.5-5.5 3.5-5.5-9 2-9 2-9 1.5-9 1.5-5 6-5 6-6.5 4.5-6.5 4.5-6 5-6 5-6.5 4.5-6.5 4.5 3.5 3.5 3.5 3.5" style="fill:#2d1b09;stroke:#2d1b09"/><path d="m516 259h2l1-1 1-1-1-1.5-1-1.5-1.5-.5-1.5-.5-.5-2-.5-2-.5-1.5-.5-1.5-1-1.5-1-1.5-1-1-1-1-1.5-1-1.5-1h-1-1v2 2 2.5 2.5l1 1 1 1 1 1.5 1 1.5 1 1 1 1 1.5 1 1.5 1 1.5 1 1.5 1" style="fill:#50bf2f;stroke:#50bf2f"/><path d="m615 257h3l1-.5 1-.5.5-.5.5-.5 1.5-.5 1.5-.5-1-5.5-1-5.5-.5-6-.5-6-5 6-5 6 2 7 2 7" style="fill:#6ed564;stroke:#6ed564"/><path d="m341 255h2l1.5-.5 1.5-.5.5-1 .5-1 .5.5.5.5.5-.5.5-.5.5.5.5.5 1 .5 1 .5h1 1l.5.5.5.5 1-1 1-1-1-1-1-1-.5-1-.5-1-.5-.5-.5-.5.5-.5.5-.5-.5-.5-.5-.5-1-.5-1-.5-.5-.5-.5-.5h-1-1l-.5-.5-.5-.5-1-.5-1-.5-.5-.5-.5-.5v-1-1h-1-1l-1.5-1-1.5-1 .5 1.5.5 1.5v4.5 4.5l.5 3 .5 3" style="fill:#1c4f14;stroke:#1c4f14"/><path d="m625 255l1-1 1.5.5 1.5.5 2 .5 2 .5.5-1.5.5-1.5 2-.5 2-.5 1-.5 1-.5 2.5-12.5 2.5-12.5 2-8 2-8 4-7.5 4-7.5 1.5-8.5 1.5-8.5-2.5-5.5-2.5-5.5 4-5 4-5 1-9 1-9 3.5-7 3.5-7-3-6-3-6v-6-6l1-8 1-8-3.5-8-3.5-8-.5-7.5-.5-7.5-.5-6.5-.5-6.5-.5-5.5-.5-5.5 1.5-7.5 1.5-7.5-.5-7.5-.5-7.5h-12.5-12.5-11-11-11.5-11.5-11-11-3-3l3 5 3 5 3 5 3 5 5 2 5 2 3.5 7 3.5 7-2 4-2 4-6 1-6 1-7-1-7-1 3.5 5.5 3.5 5.5 5 3.5 5 3.5 3.5 3.5 3.5 3.5-1 4-1 4-5-5-5-5-4 6-4 6 1 7.5 1 7.5 1.5 7.5 1.5 7.5v6 6l4.5 6.5 4.5 6.5-2 6.5-2 6.5.5 1 .5 1 .5.5.5.5.5.5.5.5v1 1l1 .5 1 .5v1 1l.5.5.5.5v1 1l.5-1 .5-1v-1.5-1.5l3-8.5 3-8.5-2-6-2-6-2-3-2-3 2.5-6.5 2.5-6.5 5.5-2.5 5.5-2.5 7-1 7-1 3.5-6.5 3.5-6.5 2.5-5 2.5-5 1 3 1 3h6 6l3-4 3-4-1 6-1 6 1.5 6 1.5 6 4-3 4-3 1.5 5.5 1.5 5.5-6 5-6 5-4.5-.5-4.5-.5 4 4.5 4 4.5-1.5 4.5-1.5 4.5 2.5 6.5 2.5 6.5-1 8-1 8-4.5 5-4.5 5-6 10.5-6 10.5-4.5-3.5-4.5-3.5-5 3-5 3-.5-6.5-.5-6.5-1-5-1-5-7.5-3-7.5-3 2.5 7 2.5 7 1.5 3.5 1.5 3.5 3 4 3 4 4.5 9 4.5 9 3 3 3 3 4.5 8 4.5 8 .5 6 .5 6 1 5.5 1 5.5.5.5.5.5" style="fill:#82ea3c;stroke:#82ea3c"/><path d="m711 245l1 1v-3-3-2.5-2.5-2-2-1-1l-5.5 6-5.5 6 5 2 5 2" style="fill:#50bf2f;stroke:#50bf2f"/><path d="m336 241h3l.5-.5.5-.5-.5-1.5-.5-1.5-.5-1.5-.5-1.5-.5-2-.5-2h-2-2l-1.5-1-1.5-1-1.5-.5-1.5-.5-1-1-1-1-2-.5-2-.5-1.5-.5-1.5-.5-2-.5-2-.5 1 1 1 1 1 1.5 1 1.5 1.5.5 1.5.5h1.5 1.5l.5.5.5.5v1 1l1 1 1 1 2 .5 2 .5 1 1 1 1h1.5 1.5l-.5 1.5-.5 1.5.5 1 .5 1" style="fill:#0d1939;stroke:#0d1939"/><path d="m361 240l2 1-6.5-5-6.5-5-7-4.5-7-4.5-8-3-8-3-8-3-8-3-9.5.5-9.5.5-6-2-6-2 3.5-8 3.5-8 7-5 7-5-2.5.5-2.5.5-1.5.5-1.5.5-1.5 1-1.5 1-1 1-1 1-1.5 1-1.5 1-.5 1.5-.5 1.5-.5 2-.5 2-1 1-1 1-1 .5-1 .5 4 7.5 4 7.5 10-1 10-1 8.5 2.5 8.5 2.5 8 3 8 3 7 4 7 4 7 4.5 7 4.5" style="fill:#dcd8cc;stroke:#dcd8cc"/><path d="m596 227l1-1 1.5-.5 1.5-.5.5-1 .5-1v-1-1l1.5-.5 1.5-.5-.5-1-.5-1v-1-1l.5-1.5.5-1.5.5-1 .5-1 .5-1 .5-1-4.5-9-4.5-9-3-4-3-4-1.5-3.5-1.5-3.5-2.5-7-2.5-7v-1.5-1.5l-.5-1.5-.5-1.5v1.5 1.5l-.5 1-.5 1v-1-1l-.5-.5-.5-.5v-1-1l-1-.5-1-.5v-1-1l-.5-.5-.5-.5-.5-.5-.5-.5-.5-1-.5-1 3 12 3 12 2 8 2 8-.5 5-.5 5 2 2 2 2 2 4 2 4 2 8 2 8" style="fill:#6ed564;stroke:#6ed564"/><path d="m260 223l2-1-.5-1-.5-1 1-.5 1-.5-2.5-.5-2.5-.5 1-1.5 1-1.5.5-1 .5-1-2-.5-2-.5-2 .5-2 .5h-2-2l-2 .5-2 .5h-1-1-1-1-2.5-2.5l-1.5-1-1.5-1-1.5-.5-1.5-.5-1.5-1-1.5-1-1-1-1-1-1.5-1-1.5-1 8 6.5 8 6.5 6.5-.5 6.5-.5 4.5 3 4.5 3" style="fill:#1c4f14;stroke:#1c4f14"/><path d="m570 220l1-15-1.5-7.5-1.5-7.5-1.5-7-1.5-7v-6-6h-4-4l2.5 8.5 2.5 8.5-1.5 7.5-1.5 7.5v6.5 6.5l3.5 2.5 3.5 2.5 2 3 2 3" style="fill:#3b8f24;stroke:#3b8f24"/><path d="m459 218l2 1h1.5 1.5l-8.5-8-8.5-8-6.5-5-6.5-5 6.5 7 6.5 7 6 5.5 6 5.5" style="fill:#c7ff84;stroke:#c7ff84"/><g style="fill:#3b8f24;stroke:#3b8f24"><path d="m241 214h2 1 1l2-.5 2-.5h2 2l2-.5 2-.5 2 .5 2 .5 1-1.5 1-1.5.5-2 .5-2h-1.5-1.5l-1 1-1 1h-2-2l-2-.5-2-.5-1.5.5-1.5.5-2 .5-2 .5h-2-2-1.5-1.5l-7-5.5-7-5.5-6.5-4.5-6.5-4.5-8.5.5-8.5.5v.5.5.5.5l2-.5 2-.5 1.5-1 1.5-1 1 1 1 1h1.5 1.5l1 1 1 1 1.5 1 1.5 1 1 1 1 1 1.5 1.5 1.5 1.5 1 .5 1 .5 1.5 1 1.5 1 1 1 1 1 1.5 1 1.5 1 1 1 1 1 1.5 1 1.5 1 1.5.5 1.5.5 1.5 1 1.5 1h2.5 2.5"/><path d="m147 212l28-8 7.5-4.5 7.5-4.5-8 2.5-8 2.5-13 4-13 4-1 .5-1 .5.5 1.5.5 1.5"/><path d="m536 211h2l1-1 1-1 .5-1 .5-1-.5-1.5-.5-1.5-1.5 1-1.5 1h-1-1l-.5 1-.5 1v1 1l1 .5 1 .5"/></g><path d="m237 209h3 2 2l2-.5 2-.5 1.5-.5 1.5-.5 2 .5 2 .5h2 2l1-1 1-1h1.5 1.5l-.5-2-.5-2h-1.5-1.5l-.5.5-.5.5-.5.5-.5.5v1 1l-1-.5-1-.5-.5-.5-.5-.5-.5-.5-.5-.5h-1.5-1.5l-1 1-1 1h-1.5-1.5l-1.5.5-1.5.5-.5-1-.5-1-2-.5-2-.5-1-1-1-1-2-.5-2-.5-1.5-1-1.5-1-4-3.5-4-3.5-6-5-6-5-8 4.5-8 4.5 8.5-.5 8.5-.5 6.5 4.5 6.5 4.5 7 5.5 7 5.5" style="fill:#50bf2f;stroke:#50bf2f"/><path d="m145 208v1h.5.5l1-.5 1-.5v-.5-.5l9-3.5 9-3.5 13.5-4.5 13.5-4.5v-.5-.5l8-4.5 8-4.5 6 5 6 5 4 3.5 4 3.5h.5.5 2.5 2.5l1 1 1 1h1.5 1.5l1.5.5 1.5.5 1.5 2 1.5 2h1.5 1.5l1-1 1-1 .5-.5.5-.5h1 1l-.5-1-.5-1h1 1l.5-.5.5-.5.5.5.5.5 1-.5 1-.5-.5-.5-.5-.5-2-.5-2-.5-1 1-1 1h-2-2-1.5-1.5l-5-6.5-5-6.5-4-6.5-4-6.5.5-2.5.5-2.5 4.5-3.5 4.5-3.5 1 6 1 6 4.5-5 4.5-5 6-3 6-3 4-5 4-5-2-3-2-3-7 1-7 1-9 1.5-9 1.5-8 1-8 1-7 3-7 3-5 5-5 5-5.5-1.5-5.5-1.5-8 1.5-8 1.5-6 1-6 1 5 5 5 5 .5 7.5.5 7.5-6 2-6 2-5-.5-5-.5-5.5-2.5-5.5-2.5.5-7.5.5-7.5.5-6.5.5-6.5 6.5-.5 6.5-.5h6.5 6.5l-4.5-3.5-4.5-3.5-8 1-8 1-7.5-.5-7.5-.5-4.5-3.5-4.5-3.5-7.5 1-7.5 1-7-3-7-3-4.5 1.5-4.5 1.5-3-2-3-2-5 2.5-5 2.5v-4-4l6-3 6-3 7-4 7-4 6.5-4.5 6.5-4.5 7.5-3 7.5-3 9-2 9-2 7 1 7 1 8.5-1.5 8.5-1.5 7-1 7-1 8.5 2 8.5 2h8 8l7.5.5 7.5.5 7 1 7 1 8 2 8 2 7 2.5 7 2.5 7 3 7 3 3.5 3.5 3.5 3.5 4.5-.5 4.5-.5 7.5-.5 7.5-.5 7.5 2 7.5 2-.5 5.5-.5 5.5-6 3-6 3-6 3-6 3 9 6.5 9 6.5 1.5-.5 1.5-.5 2-.5 2-.5 1.5-.5 1.5-.5h1.5 1.5l1-1 1-1 .5-1 .5-1-1.5.5-1.5.5.5-.5.5-.5.5-1.5.5-1.5-1.5-.5-1.5-.5-1-.5-1-.5-.5-1.5-.5-1.5v-1-1l.5-1 .5-1 2-.5 2-.5.5-1.5.5-1.5v-.5-.5l-1-1-1-1-.5-1.5-.5-1.5.5-1 .5-1 .5 1.5.5 1.5h.5.5l.5-2 .5-2-1-1.5-1-1.5-.5-.5-.5-.5-1-1.5-1-1.5-1-1-1-1-1-1.5-1-1.5-1.5-.5-1.5-.5h-2-2l.5.5.5.5-1 .5-1 .5h-1-1-1-1-1-1l-1.5-.5-1.5-.5.5-1 .5-1-1.5-.5-1.5-.5-11.5-5.5-11.5-5.5-3.5-1.5-3.5-1.5-6.5.5-6.5.5-5.5-3-5.5-3 5-3 5-3 7 2 7 2h7 7l6 3 6 3 4.5 1 4.5 1 4 4 4 4 7.5.5 7.5.5 6.5-.5 6.5-.5 5.5-.5 5.5-.5 5 4.5 5 4.5 8.5 2.5 8.5 2.5 7.5 3.5 7.5 3.5 3.5.5 3.5.5-6.5-4.5-6.5-4.5 3.5-2 3.5-2 5 1 5 1-4.5-5.5-4.5-5.5-6.5-3.5-6.5-3.5-4.5-5.5-4.5-5.5-1.5-8-1.5-8-7 2-7 2 1.5-3.5 1.5-3.5-3-4-3-4-1-7-1-7-3.5-5-3.5-5-7.5-2.5-7.5-2.5-4-7-4-7-2-7-2-7-2.5-7.5-2.5-7.5h-1.5-1.5-2-2-2.5-2.5-2-2-2-2l-.5 2-.5 2v1 1l.5 1 .5 1-1 1-1 1h-1-1-1-1v-1-1l-.5-1-.5-1-.5.5-.5.5-.5.5-.5.5-.5.5-.5.5h-1-1l-1-.5-1-.5-1-1.5-1-1.5-1-1-1-1 .5-1.5.5-1.5h-2.5-2.5-2-2-2.5-2.5-1-1l-5.5 6-5.5 6-5 3-5 3-6-3-6-3-6 2-6 2-7 2-7 2-5.5 2-5.5 2-4.5 6.5-4.5 6.5-5 4-5 4 1.5 5.5 1.5 5.5 6.5-.5 6.5-.5 4 .5 4 .5 5 1 5 1 6.5 1.5 6.5 1.5 6.5 4.5 6.5 4.5 6.5-1.5 6.5-1.5 7 2.5 7 2.5 6.5 2.5 6.5 2.5 7.5 1.5 7.5 1.5 5.5-1.5 5.5-1.5 7 3 7 3 8-.5 8-.5 7.5 3.5 7.5 3.5 5.5 3.5 5.5 3.5-3.5 9-3.5 9-8-2.5-8-2.5-8-3-8-3-7.5-1-7.5-1-5-5-5-5-9-1-9-1h-7-7l-8 1-8 1-7-1.5-7-1.5-8.5.5-8.5.5-8-1-8-1h-9-9l-9.5 1-9.5 1-7-1-7-1-3-7-3-7-4.5-2.5-4.5-2.5-4-4-4-4-5.5-2-5.5-2-7-2-7-2-3-3-3-3v-8-8l5-6 5-6 3-3.5 3-3.5 5.5-3.5 5.5-3.5 4.5 4.5 4.5 4.5 3.5 2.5 3.5 2.5v-9-9h-11.5-11.5-11-11-11-11-2.5-2.5l1 5.5 1 5.5-6 1.5-6 1.5-6.5 5-6.5 5-6.5-4.5-6.5-4.5-2.5 2.5-2.5 2.5-1-10-1-10h-11.5-11.5v.5.5 11 11 11 11 11.5 11.5 11 11 7.5 7.5l6.5 1.5 6.5 1.5 4-2 4-2 8 1 8 1 7.5-2 7.5-2 6.5-3.5 6.5-3.5 8 2 8 2 6.5-.5 6.5-.5 6-1 6-1-2 6.5-2 6.5-7.5 1.5-7.5 1.5-7 3-7 3-6.5 3.5-6.5 3.5-7 3-7 3-8 1.5-8 1.5-6.5 3.5-6.5 3.5-8.5 4-8.5 4v3.5 3.5 2 2 2.5 2.5 2 2 1 1l11.5-2 11.5-2 9.5 2 9.5 2 6-2 6-2 7.5.5 7.5.5 6.5 3.5 6.5 3.5 6 2.5 6 2.5 6 5 6 5 4.5-6.5 4.5-6.5 3 4 3 4 5.5 10 5.5 10 1 .5 1 .5.5-.5.5-.5h1 1l.5.5.5.5h1.5 1.5 1 1l1 1 1 1" style="fill:#82ea3c;stroke:#82ea3c"/><path d="m148 207v1l13-4 13-4 8-2.5 8-2.5.5-1 .5-1 1-.5 1-.5v-.5-.5l-13.5 4.5-13.5 4.5-9 3.5-9 3.5" style="fill:#50bf2f;stroke:#50bf2f"/><path d="m516 207l4-10-2-7-2-7-4.5-6-4.5-6 1-6 1-6-5.5 3.5-5.5 3.5 1 6 1 6 4 3 4 3v6.5 6.5l4 5 4 5" style="fill:#3b8f24;stroke:#3b8f24"/><path d="m117 206h2l1.5.5 1.5.5 1-.5 1-.5h1 1l1.5.5 1.5.5 1.5-1 1.5-1h-.5-.5l-1-.5-1-.5-9.5-3-9.5-3-8.5-2.5-8.5-2.5-7.5-3.5-7.5-3.5-7.5-3.5-7.5-3.5-10-3.5-10-3.5 12 6 12 6 5.5 2.5 5.5 2.5 6.5 2.5 6.5 2.5 5.5 3 5.5 3 7.5 3 7.5 3" style="fill:#a42807;stroke:#a42807"/><path d="m243 206l3-1-1.5-2-1.5-2-1.5-.5-1.5-.5h-1.5-1.5l-1-1-1-1h-2.5-2.5-.5-.5l1.5 1 1.5 1 2 .5 2 .5 1 1 1 1 2 .5 2 .5.5 1 .5 1" style="fill:#6ed564;stroke:#6ed564"/><path d="m129 204l2 1v-.5-.5l-6.5-5.5-6.5-5.5-7.5-.5-7.5-.5-7-3-7-3-6.5-5-6.5-5-8.5-2.5-8.5-2.5h-8-8v.5.5l10 3.5 10 3.5 7.5 3.5 7.5 3.5 7.5 3.5 7.5 3.5 8.5 2.5 8.5 2.5 9.5 3 9.5 3" style="fill:#3b8f24;stroke:#3b8f24"/><path d="m131 204v1h.5.5l-5.5-10-5.5-10-3-4-3-4-4.5 6.5-4.5 6.5-6-5-6-5-6-2.5-6-2.5-6.5-3.5-6.5-3.5-7.5-.5-7.5-.5-6 2-6 2h.5.5 8 8l8.5 2.5 8.5 2.5 6.5 5 6.5 5 7 3 7 3 7.5.5 7.5.5 6.5 5.5 6.5 5.5" style="fill:#50bf2f;stroke:#50bf2f"/><path d="m205 200l3 1h2 2l1-.5 1-.5-.5-.5-.5-.5-1-.5-1-.5-1.5-.5-1.5-.5-.5-.5-.5-.5-1-.5-1-.5-1-1-1-1-1.5-.5-1.5-.5-.5 1.5-.5 1.5.5 2 .5 2 2.5.5 2.5.5" style="fill:#2d1b09;stroke:#2d1b09"/><path d="m213 199l1 1h.5.5l-1.5-1.5-1.5-1.5-1-1-1-1-1.5-1-1.5-1-1-1-1-1h-1.5-1.5l-1-1-1-1-1.5 1-1.5 1 1.5.5 1.5.5 1.5.5 1.5.5 1 1 1 1 1 .5 1 .5.5.5.5.5 1.5.5 1.5.5 1 .5 1 .5" style="fill:#1c4f14;stroke:#1c4f14"/><path d="m245 199h3 2 2l1-1 1-1 2 .5 2 .5 1-1 1-1 .5-.5.5-.5.5-.5.5-.5 1-.5 1-.5v-1-1l.5.5.5.5.5-.5.5-.5 1-1 1-1h1.5 1.5l.5.5.5.5-.5 1.5-.5 1.5 1 1 1 1 5.5-6 5.5-6 16.5-3.5 16.5-3.5 2-.5 2-.5v-.5-.5h-1.5-1.5l-1-1-1-1 1-1 1-1-9-6.5-9-6.5 6-3 6-3 6-3 6-3 .5-5.5.5-5.5-7.5-2-7.5-2-7.5.5-7.5.5-4.5.5-4.5.5-3.5-3.5-3.5-3.5-7-3-7-3-7-2.5-7-2.5-8-2-8-2-7-1-7-1-7.5-.5-7.5-.5h-8-8l-8.5-2-8.5-2-7 1-7 1-8.5 1.5-8.5 1.5-7-1-7-1-9 2-9 2-7.5 3-7.5 3-6.5 4.5-6.5 4.5-7 4-7 4-6 3-6 3v4 4l5-2.5 5-2.5 3 2 3 2 4.5-1.5 4.5-1.5 7 3 7 3 7.5-1 7.5-1 4.5 3.5 4.5 3.5 7.5.5 7.5.5 8-1 8-1 4.5 3.5 4.5 3.5h-6.5-6.5l-6.5.5-6.5.5-.5 6.5-.5 6.5-.5 7.5-.5 7.5 5.5 2.5 5.5 2.5 5 .5 5 .5 6-2 6-2-.5-7.5-.5-7.5-5-5-5-5 6-1 6-1 8-1.5 8-1.5 5.5 1.5 5.5 1.5 5-5 5-5 7-3 7-3 8-1 8-1 9-1.5 9-1.5 7-1 7-1 2 3 2 3-4 5-4 5-6 3-6 3-4.5 5-4.5 5-1-6-1-6-4.5 3.5-4.5 3.5-.5 2.5-.5 2.5 4 6.5 4 6.5 5 6.5 5 6.5" style="fill:#9ffc5d;stroke:#9ffc5d"/><path d="m272 198v1l1-.5 1-.5 1-1 1-1 .5-2 .5-2 .5-1.5.5-1.5 1.5-1 1.5-1 1-1 1-1 1.5-1 1.5-1 1.5-.5 1.5-.5 2.5-.5 2.5-.5 1.5-.5 1.5-.5 1.5-.5 1.5-.5h2.5 2.5l1.5-.5 1.5-.5 2-.5 2-.5h1.5 1.5l1-.5 1-.5-16.5 3.5-16.5 3.5-5.5 6-5.5 6-.5 1.5-.5 1.5" style="fill:#c7ff84;stroke:#c7ff84"/><g style="fill:#9ffc5d;stroke:#9ffc5d"><path d="m620 192l12-21 4.5-5 4.5-5 1-8 1-8-2.5-6.5-2.5-6.5 1.5-4.5 1.5-4.5-4-4.5-4-4.5 4.5.5 4.5.5 6-5 6-5-1.5-5.5-1.5-5.5-4 3-4 3-1.5-6-1.5-6 1-6 1-6-3 4-3 4h-6-6l-1-3-1-3-2.5 5-2.5 5-3.5 6.5-3.5 6.5-7 1-7 1-5.5 2.5-5.5 2.5-2.5 6.5-2.5 6.5 2 3 2 3 2 6 2 6-3 8.5-3 8.5.5 1.5.5 1.5v1.5 1.5l7.5 3 7.5 3 1 5 1 5 .5 6.5.5 6.5 5-3 5-3 4.5 3.5 4.5 3.5"/><path d="m189 179l3 1 .5-1.5.5-1.5.5-2 .5-2-.5-1.5-.5-1.5-1.5 1-1.5 1-1 1-1 1-1.5 1-1.5 1 .5 1.5.5 1.5h1.5 1.5"/><path d="m407 179l-18-8-8-1.5-8-1.5-1.5 1-1.5 1h-2.5-2.5l-1.5.5-1.5.5h-2-2l-2-.5-2-.5-1.5-.5-1.5-.5v-1.5-1.5h-2-2l-1 1-1 1-1 .5-1 .5-.5-.5-.5-.5h-1-1l-.5-.5-.5-.5h-1.5-1.5l-.5.5-.5.5-.5.5-.5.5h-1-1-1-1-1.5-1.5-1-1v1 1l.5.5.5.5.5-.5.5-.5h1.5 1.5 1 1l.5-.5.5-.5h1 1v1 1h12.5 12.5l15.5 1.5 15.5 1.5h1.5 1.5l1 .5 1 .5.5.5.5.5 1 .5 1 .5 1 .5 1 .5h3 3"/></g><path d="m321 174v1h.5.5v-.5-.5l2-.5 2-.5 2-.5 2-.5h2.5 2.5v-1-1h-1-1l-.5.5-.5.5h-1-1-1.5-1.5l-.5.5-.5.5-.5-.5-.5-.5v-1-1h1 1 1.5 1.5 1 1 1 1l.5-.5.5-.5.5-.5.5-.5h1.5 1.5l.5.5.5.5h1 1l.5.5.5.5 1-.5 1-.5 1-1 1-1-2-.5-2-.5-.5.5-.5.5-.5-4-.5-4 1-3 1-3 1.5-.5 1.5-.5-1-.5-1-.5-.5-1.5-.5-1.5-1 1-1 1h-1.5-1.5l-1-1-1-1 .5-.5.5-.5h1.5 1.5l-.5-1.5-.5-1.5 1-.5 1-.5 1 .5 1 .5 1-.5 1-.5.5 1 .5 1h1 1l.5-.5.5-.5 1 .5 1 .5 1.5.5 1.5.5h1 1l.5.5.5.5.5.5.5.5.5 1 .5 1 1-.5 1-.5-1.5-1.5-1.5-1.5-1-1-1-1-1.5-1-1.5-1-1.5-.5-1.5-.5h-1.5-1.5-1-1l-1.5.5-1.5.5-1.5-1-1.5-1-1.5-.5-1.5-.5h-1-1l-.5 2-.5 2h-.5-.5l-.5-1.5-.5-1.5-.5 1-.5 1 .5 1.5.5 1.5 1 1 1 1v.5.5l-.5 1.5-.5 1.5.5 1.5.5 1.5 1 1 1 1v1.5 1.5l-1 1-1 1-.5 1.5-.5 1.5-.5.5-.5.5 1.5-.5 1.5-.5-.5 1-.5 1-1 1-1 1h-1.5-1.5l-1.5.5-1.5.5-2 .5-2 .5-1.5.5-1.5.5-1 1-1 1 1 1 1 1h1.5 1.5" style="fill:#6ed564;stroke:#6ed564"/><path d="m322 174v1l12.5-1 12.5-1h11.5 11.5l10.5 1 10.5 1-15.5-1.5-15.5-1.5h-12.5-12.5-2.5-2.5l-2 .5-2 .5-2 .5-2 .5" style="fill:#c7ff84;stroke:#c7ff84"/><g style="fill:#9ffc5d;stroke:#9ffc5d"><path d="m408 171l-4-6v2 2l2 1 2 1"/><path d="m387 168l-1-9-7-1-7-1 .5 5.5.5 5.5h1.5 1.5l.5-.5.5-.5 1 .5 1 .5h1 1 1 1l.5-.5.5-.5 1.5.5 1.5.5"/></g><path d="m342 166l1-1 2 .5 2 .5h2 2l.5-1.5.5-1.5.5-.5.5-.5 1-1 1-1-.5-1-.5-1-.5-.5-.5-.5.5-.5.5-.5h1.5 1.5l.5-.5.5-.5.5-.5.5-.5v-1-1l1-.5 1-.5v-1.5-1.5l-1 .5-1 .5-.5-1-.5-1-.5-.5-.5-.5-.5-.5-.5-.5h-1-1l-1.5-.5-1.5-.5-1-.5-1-.5-.5.5-.5.5h-1-1l-.5-1-.5-1-1 .5-1 .5 1 2 1 2 .5 2 .5 2-1.5.5-1.5.5-1 3-1 3 .5 4 .5 4" style="fill:#82ea3c;stroke:#82ea3c"/><path d="m424 161l-5-9-2 2-2 2 4.5 2.5 4.5 2.5" style="fill:#6ed564;stroke:#6ed564"/><path d="m330 159l3 1 1-1 1-1v-1.5-1.5l-1-1-1-1-.5-1.5-.5-1.5-2 .5-2 .5-.5 1-.5 1v1 1l.5 1.5.5 1.5 1 .5 1 .5" style="fill:#50bf2f;stroke:#50bf2f"/><path d="m31 153h2l.5-1.5.5-1.5.5-1 .5-1 .5-1.5.5-1.5-1.5-1-1.5-1h-1-1l-1.5 1-1.5 1-1 1-1 1v1 1l1 1.5 1 1.5 1.5.5 1.5.5" style="fill:#9ffc5d;stroke:#9ffc5d"/><path d="m286 150l6-12-7.5.5-7.5.5 2 4.5 2 4.5 2.5 1 2.5 1" style="fill:#82ea3c;stroke:#82ea3c"/><g style="fill:#50bf2f;stroke:#50bf2f"><path d="m344 150l2 1-.5-2-.5-2-1-2-1-2-1-.5-1-.5-1 .5-1 .5.5 1.5.5 1.5h-1.5-1.5l-.5.5-.5.5 1 1 1 1h1.5 1.5l1-1 1-1 .5 1.5.5 1.5"/><path d="m0 148v1l8.5-4 8.5-4 6.5-3.5 6.5-3.5 8-1.5 8-1.5 7-3 7-3 6.5-3.5 6.5-3.5 7-3 7-3 7.5-1.5 7.5-1.5 2-6.5 2-6.5-6 1-6 1-6.5.5-6.5.5-8-2-8-2-6.5 3.5-6.5 3.5-7.5 2-7.5 2-8-1-8-1-4 2-4 2-6.5-1.5-6.5-1.5v1.5 1.5 2 2 2.5 2.5.5.5l7-2.5 7-2.5 9-1 9-1 8.5-1 8.5-1 8.5-2.5 8.5-2.5 4.5 4.5 4.5 4.5-7 3-7 3-8 3-8 3-6.5 1-6.5 1-7 4-7 4-8.5 1.5-8.5 1.5h-.5-.5v2 2 2 2 1 1"/></g><path d="m178 147l14-10 5 1 5 1 5-1.5 5-1.5h8 8l8-3 8-3 1-6 1-6-8.5-1.5-8.5-1.5h-9.5-9.5l-8.5-1.5-8.5-1.5-7-1-7-1-8.5-.5-8.5-.5-8.5 2.5-8.5 2.5-9-.5-9-.5-7.5 1.5-7.5 1.5-7 4-7 4-4 4-4 4 5.5 1.5 5.5 1.5 7 2.5 7 2.5 9-1 9-1 5.5.5 5.5.5 7.5 1.5 7.5 1.5 7-3 7-3 2.5 3 2.5 3v2.5 2.5" style="fill:#c7ff84;stroke:#c7ff84"/><g style="fill:#3b8f24;stroke:#3b8f24"><path d="m1 138l17-3 7-4 7-4 6.5-1 6.5-1 8-3 8-3 7-3 7-3-4.5-4.5-4.5-4.5-8.5 2.5-8.5 2.5-8.5 1-8.5 1-9 1-9 1-7 2.5-7 2.5v3 3 2 2 2.5 2.5 2 2 .5.5h.5.5"/><path d="m552 138l3-12-.5-4.5-.5-4.5-1-5-1-5-1.5-7.5-1.5-7.5 3-5 3-5-3-6.5-3-6.5 1-5 1-5-.5-6.5-.5-6.5-2-7-2-7-2-8-2-8-3.5-8-3.5-8h-1.5-1.5-2.5-2.5-2-2-2.5-2.5-2-2-2-2-2.5-2.5-2-2-2.5-2.5-2-2-1-1l.5 8 .5 8 4 7 4 7 2.5 6 2.5 6 4.5 5.5 4.5 5.5 3.5 1.5 3.5 1.5 3 4 3 4 1.5 4 1.5 4 1.5 6.5 1.5 6.5 3 6 3 6 2 6 2 6 1 7 1 7 4 7.5 4 7.5"/><path d="m351 131h2l.5-1.5.5-1.5.5-2 .5-2-1.5.5-1.5.5-1.5 1-1.5 1-1.5-.5-1.5-.5h-1.5-1.5v2 2l1.5-.5 1.5-.5 2-.5 2-.5.5 1.5.5 1.5"/></g><path d="m10 126h2 2 2l1.5-1 1.5-1 1-1 1-1-.5-1-.5-1-1.5.5-1.5.5-2-.5-2-.5-1 1-1 1-1 1-1 1 .5 1 .5 1" style="fill:#1c4f14;stroke:#1c4f14"/><path d="m308 126l3 1h1 1 1 1 1 1l1-.5 1-.5-.5-.5-.5-.5h2 2l-.5-1-.5-1h-1-1l-.5.5-.5.5h-1-1l-1.5-.5-1.5-.5h-1.5-1.5l-.5-.5-.5-.5-1.5.5-1.5.5 1.5.5 1.5.5-.5 1-.5 1" style="fill:#6ed564;stroke:#6ed564"/><path d="m477 126l2-16-2-5.5-2-5.5-2-8-2-8-.5-7.5-.5-7.5.5-3.5.5-3.5-2-7-2-7-4-6.5-4-6.5-7.5-2.5-7.5-2.5 5-5 5-5 1.5-2.5 1.5-2.5-.5-7-.5-7h-3.5-3.5-2-2-2-2-2.5-2.5-2-2-2.5-2.5-2-2-2.5-2.5-2-2-1.5-1.5l3.5 10 3.5 10 .5 5 .5 5v8 8l4.5 5.5 4.5 5.5v7 7l4.5 7 4.5 7 3 6 3 6 6 4 6 4 7.5 3.5 7.5 3.5 1.5 3.5 1.5 3.5 2 3.5 2 3.5" style="fill:#82ea3c;stroke:#82ea3c"/><g style="fill:#9ffc5d;stroke:#9ffc5d"><path d="m373 125h2l1-1 1-1-.5-2-.5-2-1-1-1-1-2 .5-2 .5.5 1.5.5 1.5.5 2 .5 2h.5.5"/><path d="m352 114l7-18-5.5-3.5-5.5-3.5-7.5-3.5-7.5-3.5-8 .5-8 .5-7-3-7-3-5.5 1.5-5.5 1.5-7.5-1.5-7.5-1.5-6.5-2.5-6.5-2.5-7-2.5-7-2.5-6.5 1.5-6.5 1.5-6.5-4.5-6.5-4.5-6.5-1.5-6.5-1.5-5-1-5-1-4-.5-4-.5-6.5.5-6.5.5-1.5-5.5-1.5-5.5 5-4 5-4 4.5-6.5 4.5-6.5 5.5-2 5.5-2 7-2 7-2 6-2 6-2 6 3 6 3 5-3 5-3 5.5-6 5.5-6h-2-2-2.5-2.5-2-2-2.5-2.5-2-2-1.5-1.5l1 .5 1 .5-.5 1-.5 1 .5.5.5.5h1 1l.5-.5.5-.5.5 1 .5 1-.5.5-.5.5-.5.5-.5.5v1 1l-1.5-.5-1.5-.5-.5-1-.5-1-1.5-1-1.5-1-.5-.5-.5-.5-1 1-1 1-.5.5-.5.5-.5-1-.5-1-1-1-1-1-1-1-1-1h-11.5-11.5-11-11-7-7l4.5 6.5 4.5 6.5 5 4 5 4-6-.5-6-.5-6 5-6 5-3.5-6-3.5-6 2-9 2-9h-1.5-1.5-2-2-2.5-2.5-2-2-2.5-2.5-1.5-1.5v9 9l-3.5-2.5-3.5-2.5-4.5-4.5-4.5-4.5-5.5 3.5-5.5 3.5-3 3.5-3 3.5-5 6-5 6v8 8l3 3 3 3 7 2 7 2 5.5 2 5.5 2 4 4 4 4 4.5 2.5 4.5 2.5 3 7 3 7 7 1 7 1 9.5-1 9.5-1h9 9l8 1 8 1 8.5-.5 8.5-.5 7 1.5 7 1.5 8-1 8-1h7 7l9 1 9 1 5 5 5 5 7.5 1 7.5 1 8 3 8 3 8 2.5 8 2.5"/></g><path d="m420 108l3 1 1.5-.5 1.5-.5 1-1.5 1-1.5-1-1-1-1-2 .5-2 .5-1.5-.5-1.5-.5-.5 1-.5 1 .5 1.5.5 1.5h.5.5" style="fill:#3b8f24;stroke:#3b8f24"/><g style="fill:#50bf2f;stroke:#50bf2f"><path d="m122 98l17-5-6.5-1.5-6.5-1.5-3.5 4-3.5 4h1.5 1.5"/><path d="m569 95l10-6-2-2-2-2-3 4.5-3 4.5v.5.5"/></g><path d="m507 84l8-10-6-1-6-1-3-3.5-3-3.5-3 6-3 6h6 6l2 3.5 2 3.5" style="fill:#82ea3c;stroke:#82ea3c"/><path d="m212 82l-2-8-1.5 1.5-1.5 1.5 2.5 2.5 2.5 2.5" style="fill:#c7ff84;stroke:#c7ff84"/><g style="fill:#9ffc5d;stroke:#9ffc5d"><path d="m33 80l9-11 5 1 5 1 6.5 2 6.5 2 2.5 1.5 2.5 1.5 3-4 3-4 3.5-6.5 3.5-6.5-1-7-1-7-7 .5-7 .5-4.5 5.5-4.5 5.5-5.5-1.5-5.5-1.5-5.5.5-5.5.5-4.5 6.5-4.5 6.5 1.5 6 1.5 6 1.5 1 1.5 1"/><path d="m79 79h2l.5-1.5.5-1.5 1-1.5 1-1.5v-1-1l-1-1.5-1-1.5-1.5.5-1.5.5-.5 2-.5 2 .5 1.5.5 1.5v1 1 .5.5"/></g><path d="m694 77l7-11-4.5 2.5-4.5 2.5 1 3 1 3" style="fill:#1c4f14;stroke:#1c4f14"/><path d="m186 75l3 1 .5-1.5.5-1.5.5-1 .5-1 1-1 1-1-2-.5-2-.5-1 1-1 1-1.5 1-1.5 1 .5.5.5.5.5 1 .5 1" style="fill:#c7ff84;stroke:#c7ff84"/><path d="m616 63l12-8 1.5-2.5 1.5-2.5-7.5 1-7.5 1h-2-2l2 5 2 5v.5.5" style="fill:#9ffc5d;stroke:#9ffc5d"/><path d="m256 56l11-9 1 4 1 4 5-4.5 5-4.5-3.5-1.5-3.5-1.5 3-2 3-2 3.5-2.5 3.5-2.5-3.5-4.5-3.5-4.5-8 2.5-8 2.5-5 2.5-5 2.5 1 2.5 1 2.5.5 1.5.5 1.5.5 1 .5 1h-1-1l.5 2 .5 2-.5 1.5-.5 1.5v1 1l1 1 1 1" style="fill:#50bf2f;stroke:#50bf2f"/><path d="m635 56h2l.5-1.5.5-1.5 1.5-1 1.5-1 1-1 1-1-1-1.5-1-1.5-1.5.5-1.5.5-.5 2-.5 2-1.5.5-1.5.5v2 2h.5.5" style="fill:#9ffc5d;stroke:#9ffc5d"/><path d="m245 46h2l.5-1.5.5-1.5h1.5 1.5v-1-1l1-1.5 1-1.5-1.5-.5-1.5-.5 1-1 1-1-1.5-1-1.5-1-1.5.5-1.5.5-2 .5-2 .5-1.5.5-1.5.5-1 1.5-1 1.5 1.5.5 1.5.5 1 1.5 1 1.5 1 1 1 1 .5.5.5.5" style="fill:#50bf2f;stroke:#50bf2f"/><path d="m625 45l12-10-2-1-2-1-4-1.5-4-1.5-3 5-3 5 3 2.5 3 2.5" style="fill:#9ffc5d;stroke:#9ffc5d"/><path d="m219 41l3 1 1.5-.5 1.5-.5 2 .5 2 .5 1-1 1-1-1-1.5-1-1.5-1.5.5-1.5.5-2-.5-2-.5-1.5.5-1.5.5v1.5 1.5" style="fill:#50bf2f;stroke:#50bf2f"/><path d="m698 37h2l1.5-.5 1.5-.5.5-2 .5-2 1-1 1-1 1.5 1 1.5 1 .5-1.5.5-1.5 1-2 1-2v-1.5-1.5-2-2-2.5-2.5-2-2-2.5-2.5-2-2h-2.5-2.5-2-2l-1 3.5-1 3.5 1 7 1 7-2.5 8-2.5 8" style="fill:#1c4f14;stroke:#1c4f14"/><path d="m165 30l12-10 6 .5 6 .5-5-4-5-4-4.5-6.5-4.5-6.5h-2.5-2.5-1.5-1.5l-2 9-2 9 3.5 6 3.5 6" style="fill:#c7ff84;stroke:#c7ff84"/><g style="fill:#9ffc5d;stroke:#9ffc5d"><path d="m43 24l13-10 6-1.5 6-1.5-1-5.5-1-5.5h-3-3-2-2-2.5-2.5-2-2-2-2-2.5-2.5-2-2-2.5-2.5-2-2-1-1l1 10 1 10 2.5-2.5 2.5-2.5 6.5 4.5 6.5 4.5"/><path d="m287 9h2l.5-.5.5-.5.5-.5.5-.5.5-.5.5-.5.5 1 .5 1v1 1h1 1 1 1l1-1 1-1-.5-1-.5-1v-1-1l.5-2 .5-2h-3-3-2.5-2.5-2-2-1-1l-.5 1.5-.5 1.5 1 1 1 1 1 1.5 1 1.5 1 .5 1 .5"/></g><path d="m242 8l3 1v-1-1l.5-.5.5-.5.5-.5.5-.5-.5-1-.5-1-.5.5-.5.5h-1-1l-.5-.5-.5-.5.5-1 .5-1-1-.5-1-.5h-3-3-2-2-1-1l1 1 1 1 1 1 1 1 .5 1 .5 1 .5-.5.5-.5 1-1 1-1 .5.5.5.5 1.5 1 1.5 1 .5 1 .5 1" style="fill:#82ea3c;stroke:#82ea3c"/><path d="m384 7h2l1-1 1-1-.5-1-.5-1h-1-1-1.5-1.5v-1.5-1.5h-1.5-1.5-2-2-.5-.5l1 1 1 1 .5.5.5.5.5-.5.5-.5h1 1l.5.5.5.5-.5 1-.5 1v1 1h2 2" style="fill:#3b8f24;stroke:#3b8f24"/></g></svg>