<svg xmlns="http://www.w3.org/2000/svg" viewBox="0 0 712 960"><g style="fill:#171109"><path d="m0 0h712v960h-712z"/><path d="m0 959v1h12.5 12.5 11 11 11.5 11.5 11 11 11 11 11 11 11 11 11.5 11.5 4.5 4.5v-.5-.5l2.5-4 2.5-4-3.5-.5-3.5-.5v-4-4l-4-10-4-10 2.5-6 2.5-6 .5-4.5.5-4.5-1-5-1-5-3-6.5-3-6.5-1-5-1-5-1-8-1-8 2.5-2.5 2.5-2.5-4-6-4-6-.5-6-.5-6v-9-9l2-5 2-5-2.5-3.5-2.5-3.5v-6-6l-.5-3-.5-3 2.5-2.5 2.5-2.5 2 2 2 2 2-3 2-3v-5-5l-4.5 3-4.5 3-3.5-5.5-3.5-5.5 2.5-4.5 2.5-4.5-1.5-3.5-1.5-3.5-.5-5.5-.5-5.5-1.5-8-1.5-8-1.5-6.5-1.5-6.5.5-7.5.5-7.5-.5-7.5-.5-7.5-1.5-7.5-1.5-7.5.5-8 .5-8 .5-8.5.5-8.5-2-7-2-7v-8-8l2-7 2-7-1.5-4-1.5-4v-6-6l.5-5.5.5-5.5v-7-7l-2.5.5-2.5.5-1.5-9-1.5-9 1-8 1-8-1.5-7.5-1.5-7.5v-8-8l-2-9-2-9 .5-7 .5-7-1.5-7.5-1.5-7.5v-9-9l-1-9-1-9v-10-10l-1-10.5-1-10.5-1-8-1-8-.5-9.5-.5-9.5-1-10-1-10-1.5-15-1.5-15-.5-.5-.5-.5-.5-11-.5-11v-11-11l-1-10-1-10-.5-10-.5-10v-11-11-10-10l-1.5-9.5-1.5-9.5-.5-9.5-.5-9.5v-9.5-9.5l-2.5-19.5-2.5-19.5-.5-.5-.5-.5v-2-2l-.5-1-.5-1 .5-1.5.5-1.5v-1-1-.5-.5l.5-1.5.5-1.5v-1-1l-.5-1-.5-1v-2-2-1-1-1.5-1.5h-13-13-11-11-11.5-11.5-11-11-11-11v11 11 11 11 11.5 11.5 11 11 11 11 11 11 11 11 11.5 11.5 11 11 11 11 11 11 11 11 11.5 11.5 11 11 11 11 11 11 11 11 11.5 11.5 11 11 11 11 11 11 11 11 11.5 11.5 11 11 11 11 11 11 11 11 11.5 11.5 11 11 11 11 11 11 11 11 11.5 11.5 11 11 11 11 11 11 11 11 11.5 11.5 11 11 11 11 11 11 11 11 11.5 11.5 2 2" style="stroke:#171109;stroke-linejoin:round;stroke-width:.7"/></g><g style="stroke-linejoin:round;stroke-width:.7"><path d="m190 959v1h1.5 1.5 2 2v-.5-.5l-.5-6.5-.5-6.5h5 5l5.5-.5 5.5-.5 3.5-5 3.5-5v-2-2l6.5 4.5 6.5 4.5-5 2-5 2-3 1-3 1 3.5 2 3.5 2h2 2l.5 3.5.5 3.5-9.5 1.5-9.5 1.5h13.5 13.5 11 11 11 11 11 11 11 11 10.5 10.5v-.5-.5l-4-3.5-4-3.5-6-5-6-5-5-4-5-4-2.5-2.5-2.5-2.5-3-3.5-3-3.5-5.5-3.5-5.5-3.5-6.5-4.5-6.5-4.5-1.5-2.5-1.5-2.5-3.5-2.5-3.5-2.5-7-4.5-7-4.5-5-5-5-5-5-4-5-4-3-7-3-7 .5-7.5.5-7.5-.5-8-.5-8v-8-8l-1-9-1-9-.5-9.5-.5-9.5-.5-8.5-.5-8.5-.5-9-.5-9v-8-8l-1-8-1-8-1.5-7.5-1.5-7.5.5-9.5.5-9.5-.5-9-.5-9-.5-8.5-.5-8.5-.5-9.5-.5-9.5-.5-9.5-.5-9.5v-9-9l-.5-9-.5-9-1-8-1-8-.5-10.5-.5-10.5-.5-9.5-.5-9.5-.5-7.5-.5-7.5-.5-10-.5-10v-8-8l-1.5-9.5-1.5-9.5v-9-9l-1.5-8.5-1.5-8.5-1.5-4-1.5-4-1-1-1-1-.5-1.5-.5-1.5-3 2-3 2h-5-5l-3.5 4-3.5 4h3 3l-5 5-5 5-3-3-3-3 .5-6.5.5-6.5-5-1.5-5-1.5 4 3 4 3-3.5 4.5-3.5 4.5-4.5-1.5-4.5-1.5v-5-5l-2-3.5-2-3.5-3-5-3-5 4-7 4-7 3 2 3 2-1-5-1-5h5.5 5.5l6.5 2.5 6.5 2.5 5.5-.5 5.5-.5h6 6l1.5-5.5 1.5-5.5-3.5-2-3.5-2 1.5 5.5 1.5 5.5-6-4-6-4-4-2-4-2-3-4-3-4-5.5-2-5.5-2 .5 5.5.5 5.5-5-2-5-2-4-2-4-2-1-3-1-3-.5-4-.5-4-3-9.5-3-9.5-1.5-10.5-1.5-10.5-2-12.5-2-12.5h-.5-.5l1.5 15 1.5 15 1 10 1 10 .5 9.5.5 9.5 1 8 1 8 1 10.5 1 10.5v10 10l1 9 1 9v9 9l1.5 7.5 1.5 7.5-.5 7-.5 7 2 9 2 9v8 8l1.5 7.5 1.5 7.5-1 8-1 8 1.5 9 1.5 9 2.5-.5 2.5-.5v7 7l-.5 5.5-.5 5.5v6 6l1.5 4 1.5 4-2 7-2 7v8 8l2 7 2 7-.5 8.5-.5 8.5-.5 8-.5 8 1.5 7.5 1.5 7.5.5 7.5.5 7.5-.5 7.5-.5 7.5 1.5 6.5 1.5 6.5 1.5 8 1.5 8 .5 5.5.5 5.5 1.5 3.5 1.5 3.5-2.5 4.5-2.5 4.5 3.5 5.5 3.5 5.5 4.5-3 4.5-3v5 5l-2 3-2 3-2-2-2-2-2.5 2.5-2.5 2.5.5 3 .5 3v6 6l2.5 3.5 2.5 3.5-2 5-2 5v9 9l.5 6 .5 6 4 6 4 6-2.5 2.5-2.5 2.5 1 8 1 8 1 5 1 5 3 6.5 3 6.5 1 5 1 5-.5 4.5-.5 4.5-2.5 6-2.5 6 4.5-6 4.5-6 .5 2.5.5 2.5 6 2 6 2-10.5 2-10.5 2-.5-.5-.5-.5 4 10 4 10v4 4l3.5.5 3.5.5-2.5 4-2.5 4" style="fill:#2b1e1c;stroke:#2b1e1c"/><path d="m197 959v1h1.5 1.5 2 2 2.5 2.5 2 2 .5.5l9.5-1.5 9.5-1.5-.5-3.5-.5-3.5h-2-2l-3.5-2-3.5-2 3-1 3-1 5-2 5-2-6.5-4.5-6.5-4.5v2 2l-3.5 5-3.5 5-5.5.5-5.5.5h-5-5l.5 6.5.5 6.5" style="fill:#171109;stroke:#171109"/><path d="m350 959v1h12.5 12.5 11 11 11.5 11.5 11 11 11 11 11 11 11 11 11.5 11.5 11 11v-.5-.5l-.5-4.5-.5-4.5.5-8.5.5-8.5v-9-9l.5-8.5.5-8.5-1-8-1-8 1-8.5 1-8.5-.5-8.5-.5-8.5.5-7.5.5-7.5v-8-8l-1-9-1-9 1-8.5 1-8.5v-8-8l-.5-9.5-.5-9.5v-10-10-9-9-8.5-8.5l.5-8.5.5-8.5v-9-9l-1-8-1-8 .5-9.5.5-9.5-.5-10-.5-10v-10-10l.5-9.5.5-9.5-.5-8.5-.5-8.5v-10-10-8-8-10.5-10.5-9-9-8-8l-.5-8.5-.5-8.5.5-9.5.5-9.5v-10.5-10.5-11-11-9-9-9-9-8-8l.5-10 .5-10-.5-8.5-.5-8.5v-10-10l.5-8.5.5-8.5 2 2 2 2 .5-1 .5-1v-2-2-2-2l-.5-1.5-.5-1.5v-2-2-.5-.5-2-2-1-1-1.5-1.5-2-2l.5-.5.5-.5v-1.5-1.5-2-2l.5-1.5.5-1.5v-1.5-1.5l-.5-.5-.5-.5v-1-1l.5-.5.5-.5v-1.5-1.5-1.5-1.5l-.5-9.5-.5-9.5.5-9.5.5-9.5.5-8.5.5-8.5-.5-7.5-.5-7.5.5-8.5.5-8.5v-9-9-9.5-9.5l-.5-9.5-.5-9.5-.5-16-.5-16v-1.5-1.5l-.5-1-.5-1 .5-1.5.5-1.5v-1-1-1.5-1.5-2-2-1-1-1.5-1.5l-.5-1-.5-1h-1.5-1.5l-.5 10.5-.5 10.5v11 11 10 10 9 9 9.5 9.5l-.5 10.5-.5 10.5v10 10l-.5 9.5-.5 9.5v11 11 11.5 11.5l-.5 9.5-.5 9.5.5 10.5.5 10.5v10 10l-.5 9.5-.5 9.5.5 10 .5 10-.5 10.5-.5 10.5v8 8 10 10 10.5 10.5 10 10 9 9l-.5 8.5-.5 8.5v8 8 10.5 10.5l-.5 9.5-.5 9.5.5 8.5.5 8.5-.5 8.5-.5 8.5.5 8.5.5 8.5-.5 8-.5 8v8 8l1 7 1 7-2 4-2 4 1.5 8.5 1.5 8.5-4.5 6-4.5 6-2-7.5-2-7.5-.5-7.5-.5-7.5.5-8.5.5-8.5v-7-7-8.5-8.5l-.5-7.5-.5-7.5-.5-7.5-.5-7.5.5-7.5.5-7.5-.5-4.5-.5-4.5-.5-10-.5-10v-9-9l-1-8-1-8v-10-10l-.5-10-.5-10v-10-10-10-10-9-9l-.5-9.5-.5-9.5v-10.5-10.5l-1-10.5-1-10.5-1.5-.5-1.5-.5.5.5.5.5-.5.5-.5.5-.5-.5-.5-.5-.5-1-.5-1-.5.5-.5.5-.5.5-.5.5h-1-1l-.5-6-.5-6-4.5 1.5-4.5 1.5-1.5-1.5-1.5-1.5-4-.5-4-.5-1.5 2.5-1.5 2.5-2-4-2-4h-5-5l-7-1-7-1-2-.5-2-.5-4-1-4-1-5.5-.5-5.5-.5-4.5 1.5-4.5 1.5-4-1-4-1-7 1.5-7 1.5-5.5-.5-5.5-.5-3 2-3 2h-2.5-2.5l-3.5 1.5-3.5 1.5 1 6.5 1 6.5-1 9-1 9v10 10l-.5 8.5-.5 8.5.5 8.5.5 8.5 1 10.5 1 10.5v10 10 10 10l.5 9.5.5 9.5-1 9-1 9 .5 9 .5 9v9 9l1 9 1 9 .5 8.5.5 8.5-.5 8.5-.5 8.5v8.5 8.5l.5 9.5.5 9.5-4 4-4 4-1.5-6.5-1.5-6.5-1.5-8.5-1.5-8.5-3-6.5-3-6.5-1 9-1 9-.5 9.5-.5 9.5-4 6-4 6-8.5-2.5-8.5-2.5-8.5-3-8.5-3-5.5-2.5-5.5-2.5-8-3-8-3-8-3-8-3-8-3-8-3-8.5-3-8.5-3-.5 2.5-.5 2.5 5.5 2.5 5.5 2.5 2.5 3.5 2.5 3.5 3.5 3.5 3.5 3.5 2.5-4.5 2.5-4.5 1 4.5 1 4.5 4-1 4-1 6 1 6 1 5.5 3.5 5.5 3.5h5 5l5.5 3 5.5 3-1 3-1 3h6 6l1.5 2.5 1.5 2.5h5 5l4.5 6 4.5 6h3 3l1-3 1-3 1 3 1 3 3.5-3.5 3.5-3.5 3.5-1 3.5-1 2.5 5.5 2.5 5.5-1 6-1 6-2.5 4.5-2.5 4.5h-5-5l-7-2.5-7-2.5-3 2-3 2 5 1 5 1-6 1-6 1-5.5-2.5-5.5-2.5-8-2.5-8-2.5 4.5-2.5 4.5-2.5-7 1-7 1-6.5-2.5-6.5-2.5-7-3-7-3-8.5-3-8.5-3-4-5-4-5-5-1-5-1-2-3-2-3-5 1-5 1 .5-3 .5-3-1.5 5-1.5 5 1.5.5 1.5.5 1 1 1 1 2 .5 2 .5 2 .5 2 .5h1.5 1.5l1.5 1 1.5 1 1 1 1 1 2 .5 2 .5 2 1 2 1 1 .5 1 .5 1 .5 1 .5 2 .5 2 .5 1.5.5 1.5.5 1.5 1 1.5 1 1.5.5 1.5.5 1.5.5 1.5.5.5.5.5.5 1 .5 1 .5 8 3.5 8 3.5 7.5 3.5 7.5 3.5 8 3.5 8 3.5 15 7 15 7 .5-4.5.5-4.5 2-1 2-1 6.5-1.5 6.5-1.5 2.5 7 2.5 7 2.5 6.5 2.5 6.5h-3-3l-7.5-1.5-7.5-1.5h-2-2l-1 10.5-1 10.5-4.5 13-4.5 13-7.5-4-7.5-4-7.5-4-7.5-4-7.5-3.5-7.5-3.5-6.5-3.5-6.5-3.5-7.5-3.5-7.5-3.5-7.5-3.5-7.5-3.5-7.5-4-7.5-4-7-4-7-4 2 6 2 6 4 5 4 5 5 2 5 2-1.5 2-1.5 2-6.5 1.5-6.5 1.5-2-1-2-1-6.5-4.5-6.5-4.5 5.5-4 5.5-4-5-3-5-3-2-3-2-3 3.5-.5 3.5-.5-4.5-6.5-4.5-6.5v-8-8l1-4.5 1-4.5-2-8-2-8 3-5 3-5-4-7-4-7-1-9.5-1-9.5v-9-9l-.5-9.5-.5-9.5-1-9-1-9-.5-8.5-.5-8.5-1-10.5-1-10.5-.5-8.5-.5-8.5v-9-9l-1-9-1-9-1-9-1-9-.5-9-.5-9-.5-9.5-.5-9.5v-8-8l-2-18.5-2-18.5-6.5-2.5-6.5-2.5-7.5 1.5-7.5 1.5-.5 3.5-.5 3.5h-8-8l-4-2-4-2h-1-1l-6-1-6-1 3 9.5 3 9.5.5 4 .5 4 1 3 1 3 4 2 4 2 5 2 5 2-.5-5.5-.5-5.5 5.5 2 5.5 2 3 4 3 4 4 2 4 2 6 4 6 4-1.5-5.5-1.5-5.5 3.5 2 3.5 2-1.5 5.5-1.5 5.5h-6-6l-5.5.5-5.5.5-6.5-2.5-6.5-2.5h-5.5-5.5l1 5 1 5-3-2-3-2-4 7-4 7 3 5 3 5 2 3.5 2 3.5v5 5l4.5 1.5 4.5 1.5 3.5-4.5 3.5-4.5-4-3-4-3 5 1.5 5 1.5-.5 6.5-.5 6.5 3 3 3 3 5-5 5-5h-3-3l3.5-4 3.5-4h5 5l3-2 3-2 .5 1.5.5 1.5 1 1 1 1 1.5 4 1.5 4 1.5 8.5 1.5 8.5v9 9l1.5 9.5 1.5 9.5v8 8l.5 10 .5 10 .5 7.5.5 7.5.5 9.5.5 9.5.5 10.5.5 10.5 1 8 1 8 .5 9 .5 9v9 9l.5 9.5.5 9.5.5 9.5.5 9.5.5 8.5.5 8.5.5 9 .5 9-.5 9.5-.5 9.5 1.5 7.5 1.5 7.5 1 8 1 8v8 8l.5 9 .5 9 .5 8.5.5 8.5.5 9.5.5 9.5 1 9 1 9v8 8l.5 8 .5 8-.5 7.5-.5 7.5 3 7 3 7 5 4 5 4 5 5 5 5 7 4.5 7 4.5 3.5 2.5 3.5 2.5 1.5 2.5 1.5 2.5 6.5 4.5 6.5 4.5 5.5 3.5 5.5 3.5 3 3.5 3 3.5 2.5 2.5 2.5 2.5 5 4 5 4 6 5 6 5 4 3.5 4 3.5" style="fill:#3d2f36;stroke:#3d2f36"/><path d="m553 959v1h12.5 12.5 11 11 11.5 11.5 11 11 11 11 11 11 6 6v-.5-.5l1-7.5 1-7.5-4-2-4-2 2.5-3.5 2.5-3.5 1.5-4.5 1.5-4.5 1-7 1-7-1-7.5-1-7.5v-6-6l.5-4.5.5-4.5-.5-5.5-.5-5.5.5-5.5.5-5.5.5-7 .5-7 .5-7.5.5-7.5 1-8 1-8v-8-8l-.5-6.5-.5-6.5-1-7.5-1-7.5 2-8 2-8-1.5-4.5-1.5-4.5 1.5-6.5 1.5-6.5 1.5-9 1.5-9v-1.5-1.5l-1.5 1-1.5 1h-1-1l-1-1.5-1-1.5 1-1 1-1 1.5 1 1.5 1-.5-1.5-.5-1.5-.5-2-.5-2 1-1 1-1v-2.5-2.5l-.5-1.5-.5-1.5.5-1 .5-1 1 .5 1 .5v-2.5-2.5-2.5-2.5-1-1l-1-.5-1-.5-.5-1-.5-1-1-1-1-1 .5-1.5.5-1.5v-1-1l-.5-1-.5-1 .5-1.5.5-1.5h1 1l1 .5 1 .5v-11.5-11.5-11-11-11.5-11.5-11-11-11-11-11-11-11-11-11.5-11.5-11-11-11-11-11-11-11-11-11.5-11.5-11-11-10-10l-1-2-1-2-1.5.5-1.5.5.5 2 .5 2v1 1h-1-1l-.5-1.5-.5-1.5.5-.5.5-.5-.5-1-.5-1-1-1-1-1-.5-.5-.5-.5-.5-1-.5-1 1.5-.5 1.5-.5 1.5 1 1.5 1 1-1 1-1 1.5.5 1.5.5v-3-3-1.5-1.5l-.5 1.5-.5 1.5h-1-1l-.5-1.5-.5-1.5v-.5-.5l1-1 1-1-.5-.5-.5-.5.5-1 .5-1-.5-1.5-.5-1.5v-1.5-1.5l-1-.5-1-.5-1-1-1-1-1 1-1 1-.5-.5-.5-.5-.5 1-.5 1-.5 1.5-.5 1.5h-1-1l-1.5-.5-1.5-.5-1-.5-1-.5 1-1 1-1-.5-.5-.5-.5.5-1.5.5-1.5-1-.5-1-.5-.5-.5-.5-.5h-1.5-1.5l-.5.5-.5.5 1 1 1 1 1 .5 1 .5-.5 1.5-.5 1.5-1.5 1-1.5 1-1.5.5-1.5.5h-1.5-1.5l-1.5.5-1.5.5-.5.5-.5.5.5.5.5.5 1 .5 1 .5-1 .5-1 .5-1.5-.5-1.5-.5h-1-1-1-1l-.5-1.5-.5-1.5-2-.5-2-.5-1.5-.5-1.5-.5v-.5-.5l.5-1.5.5-1.5 1 1 1 1v-1.5-1.5l-1.5-.5-1.5-.5-1 .5-1 .5-1 .5-1 .5 1 4 1 4 3 5.5 3 5.5-5 3-5 3-6.5 1.5-6.5 1.5-5-1-5-1-1.5-5.5-1.5-5.5-4 2.5-4 2.5-1.5-2.5-1.5-2.5-5.5 5.5-5.5 5.5-1.5.5-1.5.5-2.5 1.5-2.5 1.5 1 2.5 1 2.5-5 3-5 3-1-4-1-4-3-1-3-1-5.5-2.5-5.5-2.5-.5 3-.5 3 1 6 1 6 4.5 4.5 4.5 4.5 1.5-3.5 1.5-3.5-3 6.5-3 6.5-5-1.5-5-1.5-2-4-2-4-4-4.5-4-4.5-.5-6.5-.5-6.5-.5-8.5-.5-8.5v-8-8l-.5-17.5-.5-17.5-2-2-2-2-.5 8.5-.5 8.5v10 10l.5 8.5.5 8.5-.5 10-.5 10v8 8 9 9 9 9 11 11 10.5 10.5l-.5 9.5-.5 9.5.5 8.5.5 8.5v8 8 9 9 10.5 10.5 8 8 10 10l.5 8.5.5 8.5-.5 9.5-.5 9.5v10 10l.5 10 .5 10-.5 9.5-.5 9.5 1 8 1 8v9 9l-.5 8.5-.5 8.5v8.5 8.5 9 9 10 10l.5 9.5.5 9.5v8 8l-1 8.5-1 8.5 1 9 1 9v8 8l-.5 7.5-.5 7.5.5 8.5.5 8.5-1 8.5-1 8.5 1 8 1 8-.5 8.5-.5 8.5v9 9l-.5 8.5-.5 8.5.5 4.5.5 4.5" style="fill:#2b1e1c;stroke:#2b1e1c"/><g style="fill:#171109;stroke:#171109"><path d="m701 959v1h5.5 5.5v-7-7-11-11-11.5-11.5-11-11-11-11-11-11-11-11-11.5-11.5-11-11-11-11-11-11-8.5-8.5l-1.5 9-1.5 9-1.5 6.5-1.5 6.5 1.5 4.5 1.5 4.5-2 8-2 8 1 7.5 1 7.5.5 6.5.5 6.5v8 8l-1 8-1 8-.5 7.5-.5 7.5-.5 7-.5 7-.5 5.5-.5 5.5.5 5.5.5 5.5-.5 4.5-.5 4.5v6 6l1 7.5 1 7.5-1 7-1 7-1.5 4.5-1.5 4.5-2.5 3.5-2.5 3.5 4 2 4 2-1 7.5-1 7.5"/><path d="m257 957l6-4-4-3-4-3-3-.5-3-.5-.5 5.5-.5 5.5 1.5-4.5 1.5-4.5 3 4.5 3 4.5"/><path d="m290 956l9-9-5.5-.5-5.5-.5-1 2.5-1 2.5 2 2.5 2 2.5"/><path d="m306 938l1-7-5.5.5-5.5.5 5 3 5 3"/><path d="m248 937l8-4v-2-2h5.5 5.5l-6.5-1.5-6.5-1.5-2.5-.5-2.5-.5-1-3-1-3-5.5-2.5-5.5-2.5 1.5 3 1.5 3v6 6l3.5 1.5 3.5 1.5 1 1 1 1"/><path d="m181 923l21-4-6-2-6-2-.5-2.5-.5-2.5-4.5 6-4.5 6 .5.5.5.5"/><path d="m257 922l3-7-3.5-3.5-3.5-3.5 2-3.5 2-3.5 1-3 1-3-4.5.5-4.5.5-7.5 3.5-7.5 3.5 1.5 3.5 1.5 3.5 5 1.5 5 1.5 1.5 4.5 1.5 4.5h3 3"/><path d="m558 920l1-1 1-1 1-1-1-1.5-1-1.5.5-1.5.5-1.5v-2.5-2.5l-1-1-1-1-1 1.5-1 1.5.5 1.5.5 1.5v2 2l.5 2 .5 2v1 1"/><path d="m280 919h2l1.5-.5 1.5-.5-.5-2-.5-2 .5-1.5.5-1.5-1-1.5-1-1.5-1.5.5-1.5.5-2 .5-2 .5 1 1 1 1 1 1 1 1 .5 2 .5 2-.5.5-.5.5"/><path d="m211 910h2l.5-1.5.5-1.5-1-1.5-1-1.5-1.5-.5-1.5-.5-1.5 1-1.5 1-1.5.5-1.5.5 1.5 1 1.5 1 1.5-.5 1.5-.5 1 1 1 1v.5.5"/><path d="m220 908l3-9-3.5 1.5-3.5 1.5 2 3 2 3"/></g><g style="fill:#564249;stroke:#564249"><path d="m520 883l-4-14-3 2-3 2 5 5 5 5"/><path d="m501 862v-10l1 2 1 2-1 3-1 3"/><path d="m512 848l1-13-1 4-1 4 .5 2.5.5 2.5"/><path d="m483 839h2v-2-2l1-1.5 1-1.5-1.5-.5-1.5-.5h-1.5-1.5v2 2l-1 1.5-1 1.5 1.5.5 1.5.5h.5.5"/><path d="m449 837l3 1 1.5-.5 1.5-.5.5-2 .5-2-1.5-.5-1.5-.5-1-1.5-1-1.5-1 1-1 1 .5 2 .5 2-1 1-1 1h.5.5"/></g><path d="m375 829l7-11-1.5-9.5-1.5-9.5-2.5 1-2.5 1-2 9-2 9 2.5 5 2.5 5" style="fill:#2b1e1c;stroke:#2b1e1c"/><path d="m479 828h2l1-1 1-1 1.5-1 1.5-1h2 2l-1-1.5-1-1.5h-2-2l-1 .5-1 .5-1.5.5-1.5.5v1 1 1.5 1.5" style="fill:#564249;stroke:#564249"/><g style="fill:#2b1e1c;stroke:#2b1e1c"><path d="m38 826l11-1 .5-5.5.5-5.5-7-.5-7-.5 1 6 1 6v.5.5"/><path d="m125 826h2l1.5-.5 1.5-.5 1-1.5 1-1.5 1-1 1-1-1-1.5-1-1.5h-2-2l-.5 2-.5 2-.5 1.5-.5 1.5-.5 1-.5 1"/></g><g style="fill:#564249;stroke:#564249"><path d="m362 823l8-14 1-8 1-8 2.5-8 2.5-8-2-7-2-7-4-1-4-1 1-5 1-5-1.5.5-1.5.5-7.5 1-7.5 1-6.5-4.5-6.5-4.5-7.5-3.5-7.5-3.5-7-4-7-4-7-4-7-4-3.5-3-3.5-3-7-3-7-3-5.5-5.5-5.5-5.5v-7-7l-1 8-1 8-7.5-3.5-7.5-3.5-3 6.5-3 6.5-1.5 7.5-1.5 7.5-.5 9.5-.5 9.5 6.5 4.5 6.5 4.5 7 4 7 4 7 4.5 7 4.5 7 4 7 4 7 4 7 4 6.5 4.5 6.5 4.5 6.5 4.5 6.5 4.5 6.5 5 6.5 5 7 4 7 4 3 2 3 2"/><path d="m493 822h2l1.5.5 1.5.5 1-1.5 1-1.5v-2-2l-1.5-1-1.5-1v-1-1l-1-.5-1-.5v2 2l-.5 1.5-.5 1.5-1.5 1-1.5 1 1 1 1 1"/></g><path d="m92 821l9-13-4-6-4-6-6 1.5-6 1.5 1 6 1 6 4.5 5 4.5 5" style="fill:#2b1e1c;stroke:#2b1e1c"/><path d="m363 821l5-17 1.5-8.5 1.5-8.5.5-9 .5-9-7-4-7-4-7-4-7-4-7-3-7-3-7-4-7-4-7-3.5-7-3.5-6.5-4.5-6.5-4.5-6.5-4.5-6.5-4.5-7-4-7-4-7-4-7-4-3.5 5-3.5 5 6.5.5 6.5.5 6.5 4.5 6.5 4.5 7.5 3.5 7.5 3.5 1 8 1 8-3 5-3 5-7-4.5-7-4.5-7-4-7-4-3.5-5.5-3.5-5.5-2-3-2-3-1 9-1 9 4.5 6 4.5 6 7 4 7 4 7 4 7 4 6.5 4.5 6.5 4.5 5.5 1.5 5.5 1.5 4.5 5 4.5 5 7.5 3.5 7.5 3.5 6.5 4.5 6.5 4.5 6 5 6 5 6.5 4.5 6.5 4.5 1.5.5 1.5.5" style="fill:#635162;stroke:#635162"/><path d="m55 818l3 1-.5-1.5-.5-1.5.5-2 .5-2 1-1 1-1-1-.5-1-.5-1-1-1-1-1 .5-1 .5-1 1-1 1 1 1 1 1 .5 2 .5 2v1 1" style="fill:#2b1e1c;stroke:#2b1e1c"/><path d="m478 817l-6-14 3.5-.5 3.5-.5 2.5-2 2.5-2v-1-1l3-5 3-5 1-7 1-7 6-3 6-3-.5-1-.5-1-1-5-1-5 2.5-4.5 2.5-4.5-5-1-5-1-1.5 2.5-1.5 2.5-4-2.5-4-2.5 2.5-4.5 2.5-4.5-4 1-4 1 2-8 2-8 3 1 3 1-2-5-2-5 3.5 7 3.5 7 2 3 2 3 6-1 6-1 3.5-.5 3.5-.5 1.5-.5 1.5-.5-1.5-3-1.5-3-1.5-1.5-1.5-1.5-6 2-6 2 .5-3.5.5-3.5-2.5-4.5-2.5-4.5-5-.5-5-.5v-5-5l-6 1-6 1-6.5-2.5-6.5-2.5h-3-3v-2.5-2.5l-4.5-2.5-4.5-2.5-3.5-1.5-3.5-1.5-1-1-1-1-5-4-5-4-4.5 1-4.5 1-1-2-1-2-6.5-2.5-6.5-2.5-2.5 6.5-2.5 6.5-2.5.5-2.5.5 1.5 3 1.5 3v2 2l1.5 5.5 1.5 5.5 3.5 4.5 3.5 4.5 2.5.5 2.5.5 1.5 4 1.5 4-4.5.5-4.5.5-2 3-2 3-.5 6.5-.5 6.5 5.5 1.5 5.5 1.5 4.5 5 4.5 5-1.5 4.5-1.5 4.5 2 4 2 4 1.5.5 1.5.5 2-5 2-5 1-2.5 1-2.5 2.5 5.5 2.5 5.5-2 4-2 4-5 1-5 1-3.5 1.5-3.5 1.5-2 3.5-2 3.5 8 1 8 1-2.5 5.5-2.5 5.5 5 4 5 4-1 3-1 3h4 4l-1-7.5-1-7.5-.5-3.5-.5-3.5.5-6.5.5-6.5 2-3 2-3 4 4.5 4 4.5-3 5-3 5 5 1 5 1 3.5 3.5 3.5 3.5 1 6 1 6 .5-6 .5-6 2.5 3.5 2.5 3.5 3.5 6.5 3.5 6.5h1 1" style="fill:#564249;stroke:#564249"/><path d="m133 816l5-13-4 6-4 6 1.5.5 1.5.5" style="fill:#2b1e1c;stroke:#2b1e1c"/><path d="m483 816l2-6v2 2l-1 1-1 1" style="fill:#564249;stroke:#564249"/><path d="m179 815l9-11-5-3-5-3-3 6.5-3 6.5 3.5-2.5 3.5-2.5v4.5 4.5" style="fill:#171109;stroke:#171109"/><g style="fill:#564249;stroke:#564249"><path d="m527 815l-11-9 3.5 4.5 3.5 4.5h2 2"/><path d="m440 812l15-1-6-1-6-1-1.5.5-1.5.5v1 1"/><path d="m420 808l-7-9 1 3 1 3 2.5 1.5 2.5 1.5"/><path d="m501 805l12-4-1-2-1-2-3-.5-3-.5-5 3-5 3-.5.5-.5.5 3.5 1 3.5 1"/></g><path d="m468 793l7-11-2.5 2.5-2.5 2.5-1.5-5-1.5-5 6 1 6 1 2 5 2 5v-5-5-4-4l-1.5-2-1.5-2v-5-5l-4.5 3.5-4.5 3.5-6.5 2.5-6.5 2.5-1.5 5.5-1.5 5.5 1.5 2 1.5 2 4 1 4 1 1 3.5 1 3.5" style="fill:#3d2f36;stroke:#3d2f36"/><path d="m86 792l7-7-.5-4.5-.5-4.5-1 5.5-1 5.5-2 2.5-2 2.5" style="fill:#2b1e1c;stroke:#2b1e1c"/><g style="fill:#564249;stroke:#564249"><path d="m500 792l11-5-6 1-6 1 .5 1.5.5 1.5"/><path d="m494 789h2l1-1 1-1 1-1.5 1-1.5h1 1v-1.5-1.5l-1-1-1-1-2 .5-2 .5v1 1l-.5 1.5-.5 1.5-.5 2-.5 2"/></g><g style="fill:#785f6a;stroke:#785f6a"><path d="m346 786l-5-11-2.5-3.5-2.5-3.5 4-2.5 4-2.5-3.5-3.5-3.5-3.5-4.5 4.5-4.5 4.5 3 5 3 5 4.5 3.5 4.5 3.5 1.5 2 1.5 2"/><path d="m314 782h16l-4.5-3.5-4.5-3.5-2 1.5-2 1.5-1.5 2-1.5 2"/><path d="m359 781l3 1 1-1 1-1 .5-2 .5-2 .5-1.5.5-1.5-1.5-1-1.5-1h-1-1l-.5 2-.5 2-1 1-1 1-.5 1.5-.5 1.5 1 .5 1 .5"/></g><g style="fill:#564249;stroke:#564249"><path d="m461 778l12-6-1-2-1-2-6 3.5-6 3.5 1 1.5 1 1.5"/><path d="m412 773l-3-9-1.5-5.5-1.5-5.5-1.5 4-1.5 4 4 6 4 6h.5.5"/></g><path d="m456 763l11-7-4.5-1.5-4.5-1.5 8 .5 8 .5-3-1-3-1-5.5-3.5-5.5-3.5-.5 2.5-.5 2.5-.5 6.5-.5 6.5h.5.5" style="fill:#3d2f36;stroke:#3d2f36"/><path d="m326 761l3 1 .5-1.5.5-1.5-.5-1-.5-1-1-1-1-1-1.5 1-1.5 1-1.5-.5-1.5-.5.5 2 .5 2h1 1l.5-.5.5-.5.5 1 .5 1" style="fill:#785f6a;stroke:#785f6a"/><path d="m438 755h2l1.5.5 1.5.5.5-1 .5-1 1.5-.5 1.5-.5v-1.5-1.5l-1.5.5-1.5.5-1 .5-1 .5-1 1-1 1-.5-1.5-.5-1.5-1.5 1-1.5 1 1 1 1 1" style="fill:#3d2f36;stroke:#3d2f36"/><path d="m319 752l-8-6 2 2 2 2 2 1 2 1" style="fill:#785f6a;stroke:#785f6a"/><path d="m415 749v-4l-3.5-1.5-3.5-1.5-.5 3-.5 3 4 .5 4 .5" style="fill:#564249;stroke:#564249"/><g style="fill:#3d2f36;stroke:#3d2f36"><path d="m278 747l-11-11-7-3-7-3 4-2.5 4-2.5-3.5-4.5-3.5-4.5-1.5-2.5-1.5-2.5-3.5 6.5-3.5 6.5 6 5 6 5 7 4.5 7 4.5 4 2 4 2"/><path d="m467 745l8-6-4 1-4 1v2 2"/></g><path d="m525 740l4-12-2.5 5.5-2.5 5.5.5.5.5.5" style="fill:#564249;stroke:#564249"/><g style="fill:#3d2f36;stroke:#3d2f36"><path d="m428 739l5-5 4.5.5 4.5.5-6-3.5-6-3.5-2 2-2 2 1.5 2.5 1.5 2.5-.5 1-.5 1"/><path d="m273 738l2-12-1 2-1 2v4 4"/></g><path d="m320 735l8-6 .5-2.5.5-2.5 6.5 1 6.5 1 .5-3.5.5-3.5-4-4-4-4-3.5 3.5-3.5 3.5-6 3-6 3-4-1.5-4-1.5h-.5-.5v1.5 1.5l1 1 1 1 1 .5 1 .5h2 2l1 1.5 1 1.5v2 2l1.5.5 1.5.5" style="fill:#564249;stroke:#564249"/><path d="m415 735l5-11-2-2-2-2-.5 7-.5 7v.5.5" style="fill:#3d2f36;stroke:#3d2f36"/><g style="fill:#564249;stroke:#564249"><path d="m534 729v-10l-1.5 2.5-1.5 2.5 1.5 2.5 1.5 2.5"/><path d="m301 723l3 1 .5-1.5.5-1.5h1 1v-4.5-4.5l1.5-7.5 1.5-7.5h-2-2l-3.5-3-3.5-3h-2-2l-2.5-3-2.5-3-1.5 1.5-1.5 1.5-2 .5-2 .5-1 1-1 1h-1-1v-1-1-1.5-1.5l1-1 1-1h1 1l.5-.5.5-.5 1-.5 1-.5 1.5.5 1.5.5.5 1 .5 1-5.5-2-5.5-2-4-1-4-1 2.5 7 2.5 7 5.5 4.5 5.5 4.5 3.5 1.5 3.5 1.5-1 3-1 3 6-1 6-1-1.5 7-1.5 7"/></g><path d="m475 719l2-14v-2-2l-7 4.5-7 4.5 2.5 3.5 2.5 3.5 3.5 1 3.5 1" style="fill:#3d2f36;stroke:#3d2f36"/><path d="m326 715l3-11-4.5 1.5-4.5 1.5 2.5 4 2.5 4h.5.5" style="fill:#564249;stroke:#564249"/><path d="m446 715l4-12 2-4 2-4-4.5 3-4.5 3-.5-2.5-.5-2.5-2 4-2 4 3 5.5 3 5.5" style="fill:#3d2f36;stroke:#3d2f36"/><g style="fill:#2b1e1c;stroke:#2b1e1c"><path d="m530 712l3-17 .5-8.5.5-8.5-1-9.5-1-9.5v-10-10l-.5-9.5-.5-9.5.5-9.5.5-9.5-.5-8.5-.5-8.5v-10.5-10.5l-.5-10.5-.5-10.5.5-7.5.5-7.5-1-9-1-9 1-10 1-10-.5-10-.5-10-.5-9.5-.5-9.5v-9-9l-.5-8.5-.5-8.5v-9-9-9-9l-3.5-6-3.5-6-5.5.5-5.5.5-2.5-2.5-2.5-2.5-2.5-6-2.5-6-.5 1.5-.5 1.5-1.5.5-1.5.5-1 .5-1 .5-1.5-.5-1.5-.5-.5-1.5-.5-1.5 1.5-1 1.5-1 .5 1.5.5 1.5 1-1.5 1-1.5-.5-.5-.5-.5 2.5 1 2.5 1 3.5-3.5 3.5-3.5 6.5 3 6.5 3-2 6-2 6 6 1 6 1-1.5-3.5-1.5-3.5 1-9 1-9-4.5-2.5-4.5-2.5-1-6.5-1-6.5-2 5-2 5-2.5 3.5-2.5 3.5-2-1-2-1-1.5-7.5-1.5-7.5-5.5-5-5.5-5-3.5 4.5-3.5 4.5-4 3-4 3 2.5 3.5 2.5 3.5 2 2 2 2-.5 7.5-.5 7.5-2.5 4-2.5 4h-1-1-1.5-1.5-2-2l-.5 2-.5 2h-1-1l-.5-.5-.5-.5h-1-1-1-1l-5.5-.5-5.5-.5-6 .5-6 .5-2-3.5-2-3.5-1.5-1-1.5-1-2-5-2-5-1.5-6.5-1.5-6.5 8-2 8-2 4.5-1 4.5-1 4 1 4 1 6-1 6-1 1-4 1-4-1.5 1.5-1.5 1.5-5.5-1-5.5-1-1-2-1-2-5.5-1.5-5.5-1.5-4.5 3.5-4.5 3.5h-6-6l-6.5-4-6.5-4 1.5 4.5 1.5 4.5-2.5 4.5-2.5 4.5 3-1 3-1-3 5-3 5-1 5.5-1 5.5 2 3 2 3-6.5-.5-6.5-.5-3.5-1.5-3.5-1.5 3.5 4.5 3.5 4.5-1 2.5-1 2.5-3.5 5.5-3.5 5.5 1 8 1 8 .5 8.5.5 8.5-.5 9.5-.5 9.5v7.5 7.5 9 9 8 8l.5 7.5.5 7.5v11 11l.5 9 .5 9 .5 8.5.5 8.5v9 9 9 9l.5 8.5.5 8.5-.5 9-.5 9 .5 9.5.5 9.5 2 8 2 8 7.5 3.5 7.5 3.5 7.5 3.5 7.5 3.5 8 3.5 8 3.5 8 3 8 3 8 3 8 3 7.5 3.5 7.5 3.5 7.5 3.5 7.5 3.5 8 3.5 8 3.5 4.5 2.5 4.5 2.5"/><path d="m369 711l8-10-3.5.5-3.5.5-.5 4.5-.5 4.5"/></g><path d="m361 709l9-26 1-10.5 1-10.5h2 2l7.5 1.5 7.5 1.5h3 3l-2.5-6.5-2.5-6.5-2.5-7-2.5-7-6.5 1.5-6.5 1.5-2 1-2 1-.5 4.5-.5 4.5-1.5 9-1.5 9v9 9l-3 8.5-3 8.5-8-3.5-8-3.5-6-4-6-4-7.5-2.5-7.5-2.5-7-3.5-7-3.5-7-4-7-4-6.5-3.5-6.5-3.5-6-3-6-3-7.5-3.5-7.5-3.5-6.5-4-6.5-4 .5-7.5.5-7.5 2.5 2.5 2.5 2.5 7 3 7 3 6 3 6 3 5-.5 5-.5 1-8 1-8-6.5-4.5-6.5-4.5-5.5-2.5-5.5-2.5-6.5-4-6.5-4-1.5-5-1.5-5 1.5-5 1.5-5-.5 3-.5 3 5-1 5-1 2 3 2 3 5 1 5 1 4 5 4 5 8.5 3 8.5 3 7 3 7 3 6.5 2.5 6.5 2.5 7-1 7-1-4.5 2.5-4.5 2.5 8 2.5 8 2.5 5.5 2.5 5.5 2.5 6-1 6-1-5-1-5-1 3-2 3-2 7 2.5 7 2.5h5 5l2.5-4.5 2.5-4.5 1-6 1-6-2.5-5.5-2.5-5.5-3.5 1-3.5 1-3.5 3.5-3.5 3.5-1-3-1-3-1 3-1 3h-3-3l-4.5-6-4.5-6h-5-5l-1.5-2.5-1.5-2.5h-6-6l1-3 1-3-5.5-3-5.5-3h-5-5l-5.5-3.5-5.5-3.5-6-1-6-1-4 1-4 1-1-4.5-1-4.5-2.5 4.5-2.5 4.5-3.5-3.5-3.5-3.5-2.5-3.5-2.5-3.5-5.5-2.5-5.5-2.5.5-2.5.5-2.5 8.5 3 8.5 3 8 3 8 3 8 3 8 3 8 3 8 3 5.5 2.5 5.5 2.5 8.5 3 8.5 3 8.5 2.5 8.5 2.5 4-6 4-6 .5-9.5.5-9.5 1-9 1-9 3 6.5 3 6.5 1.5 8.5 1.5 8.5 1.5 6.5 1.5 6.5 4-4 4-4-.5-9.5-.5-9.5v-8.5-8.5l.5-8.5.5-8.5-.5-8.5-.5-8.5-1-9-1-9v-9-9l-.5-9-.5-9 1-9 1-9-.5-9.5-.5-9.5v-10-10-10-10l-1-10.5-1-10.5-.5-8.5-.5-8.5.5-8.5.5-8.5v-10-10l1-9 1-9-1-6.5-1-6.5 3.5-1.5 3.5-1.5-.5-8-.5-8 3.5-3.5 3.5-3.5 5-1.5 5-1.5 5.5-6 5.5-6 4-2 4-2 4.5 1.5 4.5 1.5 6.5 1.5 6.5 1.5 5.5.5 5.5.5 3-1.5 3-1.5h6 6l4.5-4.5 4.5-4.5 8 3 8 3-2.5-4-2.5-4 3-2 3-2-2-5-2-5-4.5-.5-4.5-.5-2.5 1.5-2.5 1.5-5.5 2.5-5.5 2.5h-4-4l-5-.5-5-.5-1 1-1 1 .5 1.5.5 1.5-.5 2-.5 2v2 2h-1-1l-2.5-.5-2.5-.5v-2-2l-.5-1.5-.5-1.5-.5-1.5-.5-1.5-6-1.5-6-1.5-4 1-4 1-6.5.5-6.5.5-4.5-1-4.5-1-5-1-5-1-1.5-3.5-1.5-3.5.5-5.5.5-5.5-3.5-7.5-3.5-7.5h-1.5-1.5l-.5-1-.5-1v-2-2l1.5-1.5 1.5-1.5v-4.5-4.5l2.5-8 2.5-8-1-2.5-1-2.5-3-6-3-6 2-8.5 2-8.5.5-1.5.5-1.5 1-.5 1-.5v-1-1-1-1l-.5-.5-.5-.5-.5-.5-.5-.5 1-.5 1-.5v-1-1l-.5-.5-.5-.5h-1.5-1.5l-1 1.5-1 1.5v2 2l1 1.5 1 1.5-.5 1.5-.5 1.5h-1-1v-1.5-1.5-1.5-1.5l-.5-1.5-.5-1.5.5-2 .5-2-.5-1.5-.5-1.5 1-1 1-1 .5-1 .5-1-1.5-.5-1.5-.5-.5-9-.5-9 2.5-3 2.5-3 6.5-1 6.5-1 3.5 1.5 3.5 1.5 4-5 4-5-.5-3.5-.5-3.5-5 2-5 2h-2.5-2.5l2.5-1.5 2.5-1.5 5.5-8.5 5.5-8.5v-1-1l.5-1 .5-1 1-.5 1-.5h-2-2l-.5.5-.5.5h-.5-.5l-.5 2-.5 2-1.5.5-1.5.5h-1.5-1.5l-.5 1.5-.5 1.5-.5 1-.5 1-.5 1.5-.5 1.5-1 1-1 1h-1.5-1.5l-1.5-.5-1.5-.5-1-1.5-1-1.5-1 1-1 1-1-1.5-1-1.5-1.5-.5-1.5-.5-.5-1.5-.5-1.5-1-1.5-1-1.5-.5-1.5-.5-1.5v-2.5-2.5-1.5-1.5l-1 8.5-1 8.5-.5 15-.5 15 1 10.5 1 10.5.5 9.5.5 9.5v10 10 19.5 19.5 11 11l-.5 8.5-.5 8.5v8.5 8.5l1.5 8.5 1.5 8.5.5 9.5.5 9.5v10 10 9 9 8.5 8.5l-.5 7.5-.5 7.5-.5 3.5-.5 3.5-4-6-4-6-1-6-1-6-2-8.5-2-8.5-2.5 7.5-2.5 7.5-2 16-2 16-9.5 2-9.5 2-10-1-10-1-10-1-10-1-10.5-.5-10.5-.5-8.5-.5-8.5-.5-10.5-1-10.5-1-1 3-1 3 8 1 8 1h6 6l6 2 6 2 2.5-.5 2.5-.5 8 .5 8 .5 4 2 4 2 4 4 4 4v-5-5l6.5 2.5 6.5 2.5h6.5 6.5l4-1 4-1 5.5 3.5 5.5 3.5 5 5 5 5 2.5-2.5 2.5-2.5 2 3.5 2 3.5 3.5 6.5 3.5 6.5-2 6-2 6-3 6-3 6-3.5-6.5-3.5-6.5-4 3-4 3-8.5-.5-8.5-.5-8.5-1-8.5-1-8.5-1.5-8.5-1.5-6.5-1.5-6.5-1.5-10-1-10-1-9-1.5-9-1.5-9-1-9-1-8 .5-8 .5.5 1.5.5 1.5 1-1 1-1 2 .5 2 .5 1 .5 1 .5 10 1.5 10 1.5h9.5 9.5l5 1 5 1 4 2 4 2 9.5 1.5 9.5 1.5 9 1.5 9 1.5 9.5 1.5 9.5 1.5 9 1.5 9 1.5.5 9 .5 9-.5 10.5-.5 10.5-2 9.5-2 9.5h-1.5-1.5-1.5-1.5l-1.5-.5-1.5-.5-10-2-10-2-9.5-2-9.5-2-9-2-9-2-15.5-4-15.5-4h-1.5-1.5-1-1l-.5-.5-.5-.5h-1.5-1.5l-1.5-.5-1.5-.5-.5-.5-.5-.5h-1.5-1.5l-1.5-.5-1.5-.5h-1-1l-.5-.5-.5-.5h-1-1-1.5-1.5l-.5-.5-.5-.5h-1-1-1.5-1.5-1.5-1.5l-1-.5-1-.5-1 .5-1 .5-1-6-1-6-.5-8.5-.5-8.5-.5-8.5-.5-8.5v-.5-.5l-1-1.5-1-1.5.5-1.5.5-1.5-.5-2-.5-2-.5-1.5-.5-1.5 1-1.5 1-1.5-.5-1.5-.5-1.5-.5-1-.5-1v-2-2l-.5-2-.5-2v-3-3-3-3l-.5-2-.5-2 .5-1.5.5-1.5-.5-1-.5-1 .5-.5.5-.5-.5-.5-.5-.5-.5-1-.5-1 .5-.5.5-.5v-1-1-1-1l-.5-1-.5-1v-.5-.5-1.5-1.5l-.5-1-.5-1 .5-1.5.5-1.5v-1-1l-.5-1-.5-1 .5-1.5.5-1.5v-1-1l-.5-1-.5-1-.5-1.5-.5-1.5v-1-1l.5-1 .5-1v-2-2l-.5-1.5-.5-1.5-.5-1.5-.5-1.5-.5-2-.5-2-.5-2.5-.5-2.5-.5 1-.5 1v2 2l.5 2 .5 2v1.5 1.5l2 18.5 2 18.5v8 8l.5 9.5.5 9.5.5 9 .5 9 1 9 1 9 1 9 1 9v9 9l.5 8.5.5 8.5 1 10.5 1 10.5.5 8.5.5 8.5 1 9 1 9 .5 9.5.5 9.5v9 9l1 9.5 1 9.5 4 7 4 7-3 5-3 5 2 8 2 8-1 4.5-1 4.5v8 8l4.5 6.5 4.5 6.5-3.5.5-3.5.5 2 3 2 3 5 3 5 3v1.5 1.5l.5.5.5.5.5.5.5.5.5-1 .5-1 .5-.5.5-.5h1 1l.5.5.5.5v1.5 1.5l.5.5.5.5v1 1h-1-1l-1-.5-1-.5-1.5-.5-1.5-.5-.5-.5-.5-.5-.5-1-.5-1-1-1-1-1 1.5-1 1.5-1-5.5 4-5.5 4 6.5 4.5 6.5 4.5 2 1 2 1 6.5-1.5 6.5-1.5 1.5-2 1.5-2-5-2-5-2-4-5-4-5-2-6-2-6 7 4 7 4 7.5 4 7.5 4 7.5 3.5 7.5 3.5 7.5 3.5 7.5 3.5 6.5 3.5 6.5 3.5 7.5 3.5 7.5 3.5 7.5 4 7.5 4 7.5 4 7.5 4" style="fill:#564249;stroke:#564249"/><path d="m707 706h2l1.5-1 1.5-1v-2-2-2-2-2.5-2.5-2-2-1-1l-1-.5-1-.5-.5 1-.5 1 .5 1.5.5 1.5v2.5 2.5l-1 1-1 1 .5 2 .5 2 .5 1.5.5 1.5-1.5-1-1.5-1-1 1-1 1 1 1.5 1 1.5" style="fill:#171109;stroke:#171109"/><path d="m360 705l6-17v-9-9l1.5-9 1.5-9-15-7-15-7-8-3.5-8-3.5-7.5-3.5-7.5-3.5-8-3.5-8-3.5-1.5.5-1.5.5h1 1l1 .5 1 .5.5.5.5.5.5.5.5.5h1 1l1 .5 1 .5.5.5.5.5.5.5.5.5-1.5-.5-1.5-.5-1-.5-1-.5-1.5-.5-1.5-.5-2-.5-2-.5-1.5-.5-1.5-.5-1.5-.5-1.5-.5-1.5-1-1.5-1-1-1-1-1-2-.5-2-.5-1-1-1-1 .5-1 .5-1-1-.5-1-.5-1-.5-1-.5h-1.5-1.5l1 1 1 1-1.5-.5-1.5-.5-1-.5-1-.5h-1-1l-1-.5-1-.5-1.5-.5-1.5-.5-.5-.5-.5-.5-1-.5-1-.5v-1.5-1.5l-2-.5-2-.5-2-.5-2-.5-1-1-1-1-1.5-.5-1.5-.5 1.5 5 1.5 5 6.5 4 6.5 4 5.5 2.5 5.5 2.5 6.5 4.5 6.5 4.5-1 8-1 8-5 .5-5 .5-6-3-6-3-7-3-7-3-2.5-2.5-2.5-2.5-.5 7.5-.5 7.5 6.5 4 6.5 4 7.5 3.5 7.5 3.5 6 3 6 3 6.5 3.5 6.5 3.5 7 4 7 4 7 3.5 7 3.5 7.5 2.5 7.5 2.5 6 4 6 4 8 3.5 8 3.5" style="fill:#635162;stroke:#635162"/><path d="m292 701l1-1 1.5.5 1.5.5.5-1 .5-1h-2-2v-1.5-1.5l-1-1-1-1-2-.5-2-.5-.5 1.5-.5 1.5 1 1 1 1 1 1.5 1 1.5h1 1" style="fill:#3d2f36;stroke:#3d2f36"/><path d="m128 691l10-6-1.5-2.5-1.5-2.5-4.5 3-4.5 3 1 2.5 1 2.5" style="fill:#2b1e1c;stroke:#2b1e1c"/><path d="m279 691h2l1-1 1-1 2-.5 2-.5 1.5-1.5 1.5-1.5-.5-1-.5-1-1.5-.5-1.5-.5-1 .5-1 .5-.5.5-.5.5h-1-1l-1 1-1 1v1.5 1.5 1 1" style="fill:#3d2f36;stroke:#3d2f36"/><g style="fill:#564249;stroke:#564249"><path d="m539 687l5-7-1.5-.5-1.5-.5-1 4-1 4"/><path d="m378 678l10-12-6 2-6 2 1 3.5 1 3.5v.5.5"/></g><path d="m250 672h2v-1-1l-.5-.5-.5-.5v-1.5-1.5l-.5-.5-.5-.5h-1-1l-.5.5-.5.5-.5 1-.5 1-.5-.5-.5-.5-.5-.5-.5-.5v-1.5-1.5l-1.5 1-1.5 1 1 1 1 1 .5 1 .5 1 .5.5.5.5 1.5.5 1.5.5 1 .5 1 .5" style="fill:#3d2f36;stroke:#3d2f36"/><path d="m710 672l2 1v-2.5-2.5-2.5-2.5-2-2l-1-.5-1-.5h-1-1l-.5 1.5-.5 1.5.5 1 .5 1v1 1l-.5 1.5-.5 1.5 1 1 1 1 .5 1 .5 1" style="fill:#171109;stroke:#171109"/><path d="m540 666l8-2-1-6-1-6-1.5 1-1.5 1 2.5-6.5 2.5-6.5-2-4-2-4-3.5.5-3.5.5 1 4 1 4 .5 5 .5 5-.5 5.5-.5 5.5.5 1.5.5 1.5" style="fill:#564249;stroke:#564249"/><path d="m260 648l3 1 1-1 1-1-1-.5-1-.5-1-1-1-1-2-.5-2-.5-1.5-.5-1.5-.5.5 2 .5 2 1.5.5 1.5.5 1 .5 1 .5" style="fill:#785f6a;stroke:#785f6a"/><path d="m268 640l3-13-3.5 4.5-3.5 4.5 2 2 2 2" style="fill:#635162;stroke:#635162"/><path d="m330 637l-12-6-7.5-3.5-7.5-3.5 6.5 4 6.5 4 7 2.5 7 2.5" style="fill:#785f6a;stroke:#785f6a"/><path d="m483 630l5-15v-10-10l-1-8.5-1-8.5-8.5-2.5-8.5-2.5-8-3-8-3-8.5-2.5-8.5-2.5-6.5-.5-6.5-.5.5 9 .5 9 1 7 1 7 1 8 1 8 8 3 8 3 8 3 8 3 8 3.5 8 3.5 3.5 1 3.5 1" style="fill:#171109;stroke:#171109"/><path d="m540 627l9-12-1.5-8.5-1.5-8.5 2-4 2-4-1-7-1-7v-8-8l.5-8 .5-8-.5-8.5-.5-8.5.5-8.5.5-8.5-.5-8.5-.5-8.5.5-9.5.5-9.5v-10.5-10.5-8-8l.5-8.5.5-8.5v-9-9-10-10-10.5-10.5-10-10-8-8l.5-10.5.5-10.5-.5-10-.5-10 .5-9.5.5-9.5v-10-10l-.5-10.5-.5-10.5.5-9.5.5-9.5v-11.5-11.5-11-11l.5-9.5.5-9.5v-10-10l.5-10.5.5-10.5v-9.5-9.5-9-9-10-10-11-11l.5-10.5.5-10.5h-1.5-1.5l.5 10 .5 10-.5 17-.5 17v1 1 11.5 11.5 10 10l-.5 9.5-.5 9.5v11 11l-.5 10-.5 10v9 9 10 10l-.5 9.5-.5 9.5.5 10.5.5 10.5v9.5 9.5 10 10l-1 8-1 8 .5 9.5.5 9.5v8 8l-2 7.5-2 7.5.5 6.5.5 6.5-5 2-5 2-1-7-1-7-.5-8.5-.5-8.5v-7-7-14.5-14.5l-.5-.5-.5-.5v-1.5-1.5-2-2-1.5-1.5-1-1-.5-.5-2-2l-.5-.5-.5-.5v-1.5-1.5-2-2l.5-2 .5-2-.5-1.5-.5-1.5.5-3 .5-3-1-2-1-2-1-.5-1-.5v2 2h-1.5-1.5l-1.5.5-1.5.5-1 .5-1 .5 1.5 7.5 1.5 7.5 2.5 9.5 2.5 9.5 1 10.5 1 10.5v10.5 10.5l.5 9.5.5 9.5v9 9 10 10 10 10l.5 10 .5 10v10 10l1 8 1 8v9 9l.5 10 .5 10 .5 4.5.5 4.5-.5 7.5-.5 7.5.5 7.5.5 7.5.5 7.5.5 7.5v8.5 8.5 7 7l-.5 8.5-.5 8.5.5 7.5.5 7.5 2 7.5 2 7.5" style="fill:#564249;stroke:#564249"/><path d="m109 625l-11-9 3.5 3.5 3.5 3.5 2 1 2 1" style="fill:#2b1e1c;stroke:#2b1e1c"/><g style="fill:#785f6a;stroke:#785f6a"><path d="m298 623l3 1-.5-.5-.5-.5-.5-.5-.5-.5-1-.5-1-.5h-1-1l-.5-.5-.5-.5-.5-.5-.5-.5-1-.5-1-.5h-1-1l1.5-.5 1.5-.5-1-.5-1-.5-.5-.5-.5-.5-1.5-.5-1.5-.5-1.5-.5-1.5-.5-1.5-1-1.5-1-1.5-.5-1.5-.5-2-.5-2-.5-.5 1-.5 1 1 1 1 1 2 .5 2 .5 1 1 1 1 1.5 1 1.5 1 1.5.5 1.5.5 1.5.5 1.5.5 2 .5 2 .5 1.5.5 1.5.5 1 .5 1 .5"/><path d="m265 608l3 1-1-1-1-1h1.5 1.5l-2-1-2-1-2-.5-2-.5-1-1-1-1-1.5-1-1.5-1h-1.5-1.5v1.5 1.5l1 .5 1 .5.5.5.5.5 1.5.5 1.5.5 1 .5 1 .5h1 1l1 .5 1 .5"/></g><path d="m171 598l-3-9 1.5 1.5 1.5 1.5v3 3" style="fill:#171109;stroke:#171109"/><path d="m367 594l5-13-1.5-2.5-1.5-2.5-2 8.5-2 8.5 1 .5 1 .5" style="fill:#2b1e1c;stroke:#2b1e1c"/><path d="m356 589l7-15 1-10 1-10 .5-9 .5-9v-1.5-1.5h-1.5-1.5l-6 3.5-6 3.5 5 2 5 2-2 2-2 2 1.5 6.5 1.5 6.5-4 10-4 10h-6.5-6.5l-9-2.5-9-2.5 8 3 8 3 8 3 8 3 1.5.5 1.5.5" style="fill:#635162;stroke:#635162"/><path d="m352 581l8-20-1.5-6.5-1.5-6.5 2-2 2-2-5-2-5-2 6-3.5 6-3.5-1-.5-1-.5-9-2.5-9-2.5-8.5-2.5-8.5-2.5-8.5-2.5-8.5-2.5-8-3-8-3-9-2.5-9-2.5-7-2-7-2-12-4-12-4-1.5 3.5-1.5 3.5 3.5 1.5 3.5 1.5 1.5-.5 1.5-.5 5.5 4 5.5 4 8.5 2.5 8.5 2.5 1.5 8.5 1.5 8.5-2 5-2 5-8.5-2.5-8.5-2.5-9-2.5-9-2.5 4.5 7.5 4.5 7.5 2 .5 2 .5 1.5.5 1.5.5 2-.5 2-.5v1 1h1 1l1.5 1 1.5 1 1.5.5 1.5.5 1.5 1 1.5 1 8 1.5 8 1.5 7 .5 7 .5 4.5 4.5 4.5 4.5 7 3.5 7 3.5h.5.5l9 2.5 9 2.5h6.5 6.5" style="fill:#785f6a;stroke:#785f6a"/><g style="fill:#171109;stroke:#171109"><path d="m167 577l10-2-3.5-6.5-3.5-6.5-3 5.5-3 5.5 1.5 2 1.5 2"/><path d="m198 577l2-14-1.5 1.5-1.5 1.5.5 5.5.5 5.5"/></g><path d="m318 575l2 1-7-3.5-7-3.5-4.5-4.5-4.5-4.5-7-.5-7-.5-8-1.5-8-1.5 9 3.5 9 3.5 8.5 3 8.5 3 8 3 8 3" style="fill:#635162;stroke:#635162"/><g style="fill:#171109;stroke:#171109"><path d="m160 559h2l.5-1.5.5-1.5 1.5-1 1.5-1-1-1-1-1v-1.5-1.5l-1.5-.5-1.5-.5-1 1.5-1 1.5 1 1 1 1-.5 1.5-.5 1.5v1.5 1.5"/><path d="m204 558l-7-7-1 1-1 1 4.5 2.5 4.5 2.5"/></g><path d="m242 547l3 1-4.5-7.5-4.5-7.5 9 2.5 9 2.5 8.5 2.5 8.5 2.5 2-5 2-5-1.5-8.5-1.5-8.5-8.5-2.5-8.5-2.5-5.5-4-5.5-4-1.5.5-1.5.5-3.5-1.5-3.5-1.5 1.5-3.5 1.5-3.5v-.5-.5h-.5-.5l-3.5 7-3.5 7-.5 9-.5 9-.5 7.5-.5 7.5 7.5 3.5 7.5 3.5" style="fill:#635162;stroke:#635162"/><path d="m165 541l7-13-1.5 1.5-1.5 1.5-2 5-2 5" style="fill:#171109;stroke:#171109"/><g style="fill:#564249;stroke:#564249"><path d="m266 539l5-15-1.5.5-1.5.5-2.5 5-2.5 5 1.5 2 1.5 2"/><path d="m361 532l2 1h1.5 1.5v-.5-.5l-9.5-2.5-9.5-2.5-8-3-8-3-9-3-9-3-2-.5-2-.5-9.5-2.5-9.5-2.5-8.5-2.5-8.5-2.5-8.5-3-8.5-3-9.5-2.5-9.5-2.5v.5.5l12 4 12 4 7 2 7 2 9 2.5 9 2.5 8 3 8 3 8.5 2.5 8.5 2.5 8.5 2.5 8.5 2.5 9 2.5 9 2.5"/></g><path d="m366 532v1l-6-3.5-6-3.5-8.5-2.5-8.5-2.5-8-2.5-8-2.5-4-.5-4-.5 9 3 9 3 8 3 8 3 9.5 2.5 9.5 2.5" style="fill:#3d2f36;stroke:#3d2f36"/><path d="m238 530l3-9 4.5-4.5 4.5-4.5-8 .5-8 .5.5 7.5.5 7.5 1.5 1 1.5 1" style="fill:#564249;stroke:#564249"/><path d="m263 528l-8-10 .5 3.5.5 3.5 3.5 1.5 3.5 1.5" style="fill:#785f6a;stroke:#785f6a"/><g style="fill:#3d2f36;stroke:#3d2f36"><path d="m466 517l3 1 1-1 1-1-.5-2-.5-2 1.5-.5 1.5-.5-.5-1-.5-1-1.5.5-1.5.5-1.5 1-1.5 1-.5 1.5-.5 1.5.5 1 .5 1"/><path d="m309 514l4 1-9.5-3.5-9.5-3.5-8.5-2.5-8.5-2.5-8-2-8-2-8-3-8-3-5.5-.5-5.5-.5 1 .5 1 .5h.5.5l9.5 2.5 9.5 2.5 8.5 3 8.5 3 8.5 2.5 8.5 2.5 9.5 2.5 9.5 2.5"/><path d="m455 513l1-15-3.5 5.5-3.5 5.5 3 2 3 2"/><path d="m468 507h2l1.5-.5 1.5-.5v-1.5-1.5l-1-1-1-1h-1.5-1.5l-1 1-1 1v1.5 1.5l1 .5 1 .5"/><path d="m434 499h2l1.5.5 1.5.5 2-.5 2-.5-.5-1.5-.5-1.5-1.5-1-1.5-1-1.5-.5-1.5-.5-1 1.5-1 1.5-.5 1.5-.5 1.5h.5.5"/><path d="m468 492l7-11-5.5.5-5.5.5 2 5 2 5"/><path d="m453 488l1-15-2 7-2 7 1.5.5 1.5.5"/></g><path d="m452 486h2v-2-2l1-1.5 1-1.5-.5-1.5-.5-1.5h-1.5-1.5l-1 1-1 1v1.5 1.5l1 1 1 1v1 1 .5.5" style="fill:#564249;stroke:#564249"/><g style="fill:#3d2f36;stroke:#3d2f36"><path d="m436 483l7-7-4-1-4-1 .5 4.5.5 4.5"/><path d="m363 477l13-11-1.5-6.5-1.5-6.5-1.5-8-1.5-8-3-5-3-5-.5 9.5-.5 9.5-1.5 9.5-1.5 9.5-5.5 4.5-5.5 4.5 7 1.5 7 1.5"/></g><path d="m363 470l5-13-3 6-3 6 .5.5.5.5" style="fill:#2b1e1c;stroke:#2b1e1c"/><path d="m348 466l3 1h1.5 1.5 1.5 1.5v-.5-.5l1.5-10.5 1.5-10.5.5-18 .5-18-9-1.5-9-1.5-9.5-1.5-9.5-1.5-9-1.5-9-1.5-9.5-1.5-9.5-1.5-4-2-4-2-5-1-5-1h-9.5-9.5l-10-1.5-10-1.5-2 6-2 6-1.5 8.5-1.5 8.5 2 11.5 2 11.5h1.5 1.5 1 1l.5.5.5.5h1.5 1.5 1 1l.5.5.5.5h1 1l1.5.5 1.5.5h1.5 1.5l.5.5.5.5 1.5.5 1.5.5h1.5 1.5l.5.5.5.5h1 1 1.5 1.5l-6.5-2.5-6.5-2.5-9-1-9-1-1-7.5-1-7.5 6.5 2.5 6.5 2.5 9 2 9 2 6.5-2.5 6.5-2.5v-8-8l-6.5-5-6.5-5-7.5-1.5-7.5-1.5h-7-7l3-4 3-4 7 1 7 1 8.5 1 8.5 1 3.5.5 3.5.5 9.5 1.5 9.5 1.5 9.5 1.5 9.5 1.5 6.5 1.5 6.5 1.5 10 1.5 10 1.5 8.5 2.5 8.5 2.5-.5.5-.5.5-4.5 6.5-4.5 6.5 3 3 3 3v7.5 7.5l-4 3-4 3-6 4-6 4-10.5-2.5-10.5-2.5-9-2-9-2-8-2-8-2-11-1.5-11-1.5 15.5 4 15.5 4 9 2 9 2 9.5 2 9.5 2 10 2 10 2" style="fill:#785f6a;stroke:#785f6a"/><path d="m357 466v1l2-9.5 2-9.5.5-10.5.5-10.5-.5-9-.5-9-.5 18-.5 18-1.5 10.5-1.5 10.5" style="fill:#635162;stroke:#635162"/><path d="m468 466l3 1-.5-1.5-.5-1.5v-1-1-.5-.5l.5-1.5.5-1.5-.5-1.5-.5-1.5-1.5 1-1.5 1-1.5.5-1.5.5 1 1.5 1 1.5v2 2l1 .5 1 .5" style="fill:#5f3c2f;stroke:#5f3c2f"/><g style="fill:#3d2f36;stroke:#3d2f36"><path d="m465 464l1 1v-2-2l-1-1.5-1-1.5 1.5-.5 1.5-.5 1.5-1 1.5-1 .5 1.5.5 1.5-.5 1.5-.5 1.5v.5.5l1.5-1.5 1.5-1.5.5-1 .5-1-.5-1.5-.5-1.5-1.5-1-1.5-1h-2-2l-1.5 1-1.5 1 .5 1.5.5 1.5-.5 2-.5 2 .5 1.5.5 1.5h.5.5"/><path d="m452 463l2-14-2.5 5.5-2.5 5.5 1.5 1.5 1.5 1.5"/></g><path d="m337 462l12-8 4-3 4-3v-7.5-7.5l-3-3-3-3 4.5-6.5 4.5-6.5.5-.5.5-.5-8.5-2.5-8.5-2.5-10-1.5-10-1.5-6.5-1.5-6.5-1.5-9.5-1.5-9.5-1.5-9.5-1.5-9.5-1.5-3.5-.5-3.5-.5-8.5-1-8.5-1-7-1-7-1-3 4-3 4h7 7l7.5 1.5 7.5 1.5 6.5 5 6.5 5v8 8l-6.5 2.5-6.5 2.5-9-2-9-2-6.5-2.5-6.5-2.5 1 7.5 1 7.5 9 1 9 1 6.5 2.5 6.5 2.5 11 1.5 11 1.5 8 2 8 2 9 2 9 2 10.5 2.5 10.5 2.5" style="fill:#96747d;stroke:#96747d"/><path d="m437 459l3-13-3 4-3 4 1.5 2.5 1.5 2.5" style="fill:#3d2f36;stroke:#3d2f36"/><path d="m227 458h2l1-1 1-1v-1.5-1.5l-1-1-1-1-1 .5-1 .5-1-1-1-1-2-.5-2-.5 1 1 1 1 1 1 1 1 .5 2 .5 2 .5.5.5.5" style="fill:#635162;stroke:#635162"/><path d="m466 441l7-13-5 3-5 3 1.5 3.5 1.5 3.5" style="fill:#3d2f36;stroke:#3d2f36"/><path d="m220 440l2-1 1 .5 1 .5h1.5 1.5l-2-11.5-2-11.5 1.5-8.5 1.5-8.5 2-6 2-6-1-.5-1-.5-2-.5-2-.5-1 1-1 1-.5-1.5-.5-1.5-.5 2-.5 2 1.5.5 1.5.5-.5 1.5-.5 1.5-1-1.5-1-1.5-1.5-.5-1.5-.5v1.5 1.5l-.5 1-.5 1 .5 8.5.5 8.5.5 8.5.5 8.5 1 6 1 6" style="fill:#635162;stroke:#635162"/><path d="m450 438l7-11-5.5 1.5-5.5 1.5 1 1 1 1v-1.5-1.5-1-1l1-.5 1-.5.5-.5.5-.5h1 1 1 1v1.5 1.5l.5.5.5.5v1 1l-.5.5-.5.5-.5 1-.5 1-.5 1.5-.5 1.5h-1-1l-.5-1-.5-1-1-1.5-1-1.5v1.5 1.5l1 1.5 1 1.5" style="fill:#3d2f36;stroke:#3d2f36"/><path d="m451 437h2l.5-1.5.5-1.5.5-1 .5-1 .5-.5.5-.5v-1-1l-.5-.5-.5-.5v-1.5-1.5h-1-1-1-1l-.5.5-.5.5-1 .5-1 .5v1 1 1.5 1.5l1 1.5 1 1.5.5 1 .5 1" style="fill:#564249;stroke:#564249"/><path d="m436 434l4-12-2.5 3.5-2.5 3.5.5 2.5.5 2.5" style="fill:#3d2f36;stroke:#3d2f36"/><path d="m261 431l6-14-3.5-4.5-3.5-4.5-8.5-2-8.5-2h-5-5l-1.5 6.5-1.5 6.5 1.5 4.5 1.5 4.5v-.5-.5l-.5-1-.5-1-1-1-1-1 1.5-.5 1.5-.5 3-6.5 3-6.5 9.5 1.5 9.5 1.5-3.5 7.5-3.5 7.5h-1-1l-1.5-.5-1.5-.5-2 .5-2 .5-1.5-.5-1.5-.5-1.5 1-1.5 1h-1.5-1.5l2.5.5 2.5.5 1.5-.5 1.5-.5 2 .5 2 .5h2 2l1.5.5 1.5.5 2 .5 2 .5 1.5.5 1.5.5 1 .5 1 .5" style="fill:#635162;stroke:#635162"/><path d="m233 425v1h1.5 1.5l1.5-1 1.5-1 1.5.5 1.5.5 2-.5 2-.5 1.5.5 1.5.5h1 1v-.5-.5h1.5 1.5 2.5 2.5l1.5-.5 1.5-.5.5-1 .5-1h-1-1l-.5-.5-.5-.5-.5.5-.5.5-1-.5-1-.5-.5-.5-.5-.5-.5.5-.5.5h-1-1l.5 1 .5 1-.5.5-.5.5h-1-1-1-1l-1.5-.5-1.5-.5h-1.5-1.5l-1.5-.5-1.5-.5-2-.5-2-.5-1-.5-1-.5-.5.5-.5.5-1.5.5-1.5.5 1 1 1 1 .5 1 .5 1" style="fill:#b28282;stroke:#b28282"/><path d="m251 424v1l3.5-7.5 3.5-7.5-9.5-1.5-9.5-1.5-3 6.5-3 6.5.5-.5.5-.5 5.5-5 5.5-5 9 6 9 6-.5 1-.5 1-1.5.5-1.5.5h-2.5-2.5-1.5-1.5" style="fill:#785f6a;stroke:#785f6a"/><path d="m246 422l3 1h1 1 1 1l.5-.5.5-.5-.5-1-.5-1h1 1l.5-.5.5-.5.5.5.5.5 1 .5 1 .5.5-.5.5-.5.5.5.5.5h1 1l-9-6-9-6-5.5 5-5.5 5 1 .5 1 .5 2 .5 2 .5 1.5.5 1.5.5h1.5 1.5" style="fill:#a085a3;stroke:#a085a3"/><g style="fill:#3d2f36;stroke:#3d2f36"><path d="m470 417l4-14-6 1-6 1 4 6 4 6"/><path d="m452 414l3-15-4.5 3.5-4.5 3.5 1 1 1 1-.5-2-.5-2 1-1.5 1-1.5 1-1 1-1 1.5 1 1.5 1 .5 1.5.5 1.5v2 2l-.5.5-.5.5-.5 1-.5 1-1 .5-1 .5-.5-1.5-.5-1.5-1-.5-1-.5.5 2.5.5 2.5 1.5.5 1.5.5"/></g><path d="m451 412l2-1 .5-1 .5-1 .5-.5.5-.5v-2-2l-.5-1.5-.5-1.5-1.5-1-1.5-1-1 1-1 1-1 1.5-1 1.5.5 2 .5 2 1 .5 1 .5.5 1.5.5 1.5" style="fill:#564249;stroke:#564249"/><path d="m435 409l5-11-3.5 3.5-3.5 3.5 1 2 1 2" style="fill:#3d2f36;stroke:#3d2f36"/><path d="m464 408l3 1 1.5-.5 1.5-.5 1-1.5 1-1.5-.5-1.5-.5-1.5-2-.5-2-.5-1.5.5-1.5.5-.5 2-.5 2 .5 1 .5 1" style="fill:#564249;stroke:#564249"/><path d="m372 407l6-12 2-6 2-6-3.5-6.5-3.5-6.5-2-3.5-2-3.5-2.5 2.5-2.5 2.5-5-5-5-5-5.5-3.5-5.5-3.5-4 1-4 1h-6.5-6.5l-6.5-2.5-6.5-2.5v5 5l-4-4-4-4-4-2-4-2-8-.5-8-.5-2.5.5-2.5.5-6-2-6-2h-6-6l-8-1-8-1-1 1-1 1h1 1l1 .5 1 .5-.5.5-.5.5.5.5.5.5-.5 1-.5 1-1 1-1 1-.5.5-.5.5-.5-1.5-.5-1.5-2 2.5-2 2.5v3 3l-.5 4.5-.5 4.5h1 1l5.5-1.5 5.5-1.5h5.5 5.5l-3 5-3 5 4.5-.5 4.5-.5-4.5 3.5-4.5 3.5 7-.5 7-.5 7.5 5 7.5 5 10 1 10 1 6.5 1.5 6.5 1.5 8.5 1.5 8.5 1.5 8.5 1 8.5 1 8.5.5 8.5.5 4-3 4-3 3.5 6.5 3.5 6.5" style="fill:#635162;stroke:#635162"/><path d="m216 393v1l.5-1 .5-1v-1.5-1.5l1.5.5 1.5.5 1 1.5 1 1.5.5-1.5.5-1.5-1.5-.5-1.5-.5.5-2 .5-2 8-.5 8-.5 9 1 9 1 9 1.5 9 1.5-7.5-5-7.5-5-7 .5-7 .5-.5-.5-.5-.5-6.5-3-6.5-3-8.5-7-8.5-7v-.5-.5h-.5-.5v3 3l.5 2 .5 2v2 2l.5 1 .5 1 .5 1.5.5 1.5-1 1.5-1 1.5.5 1.5.5 1.5.5 2 .5 2-.5 1.5-.5 1.5 1 1.5 1 1.5" style="fill:#745147;stroke:#745147"/><g style="fill:#3d2f36;stroke:#3d2f36"><path d="m468 390l6-8-6-3-6-3 2.5 7 2.5 7h.5.5"/><path d="m453 388l5-9-5-3-5-3-1 6.5-1 6.5 3.5 1 3.5 1"/><path d="m436 385l4-14-4.5 3.5-4.5 3.5 2.5 3.5 2.5 3.5"/></g><path d="m324 380l8-2-.5-2.5-.5-2.5v-2.5-2.5l-.5-1.5-.5-1.5-4.5 1.5-4.5 1.5 1.5 6 1.5 6" style="fill:#745147;stroke:#745147"/><path d="m243 379l1 1 4.5-3.5 4.5-3.5-4.5.5-4.5.5 3-5 3-5h-5.5-5.5l-5.5 1.5-5.5 1.5h-1-1l.5-4.5.5-4.5v-3-3l2-2.5 2-2.5h-2.5-2.5l-.5 1.5-.5 1.5-1.5-.5-1.5-.5-.5-1-.5-1 1-1 1-1 1.5.5 1.5.5 1-1.5 1-1.5-.5-1.5-.5-1.5-1.5-1-1.5-1-.5-.5-.5-.5-1-1-1-1-1-1.5-1-1.5 2.5-.5 2.5-.5-3-7.5-3-7.5 2.5-1.5 2.5-1.5 8.5 1.5 8.5 1.5 10 1 10 1 2-9.5 2-9.5-6.5-4.5-6.5-4.5-9.5-.5-9.5-.5h-6-6l8-4.5 8-4.5v-.5-.5h-2.5-2.5-2-2-2.5-2.5-1-1l-1-.5-1-.5v-.5-.5l7.5-2 7.5-2 9 .5 9 .5h8 8l10.5.5 10.5.5h10 10l11-.5 11-.5 13.5 1 13.5 1 1 .5 1 .5 4.5 4 4.5 4 4-1 4-1v-7-7l1-7 1-7-1.5-9-1.5-9v-6-6l-6.5-1.5-6.5-1.5v.5.5l-.5 1-.5 1v1.5 1.5 2 2 1 1l-1 .5-1 .5h-1.5-1.5l.5-1 .5-1 .5-1 .5-1-.5-.5-.5-.5-.5.5-.5.5v-1-1l.5-1 .5-1-.5-.5-.5-.5-1-1-1-1-10-.5-10-.5h-4-4l-3.5-1.5-3.5-1.5-6 1-6 1-6-1-6-1-6 2.5-6 2.5-5.5.5-5.5.5h-6-6l-5.5-.5-5.5-.5-8.5 3.5-8.5 3.5-1-.5-1-.5-.5-.5-.5-.5h-1-1l-.5-1-.5-1 .5-.5.5-.5-.5-.5-.5-.5-.5-.5-.5-.5-1-.5-1-.5h-1-1-1-1v-1-1l.5-1 .5-1 1.5-1 1.5-1h-1.5-1.5-2.5-2.5-1-1l-1.5-7-1.5-7-2-6-2-6 1-6 1-6 2.5 4.5 2.5 4.5-2.5-6.5-2.5-6.5-2.5-8-2.5-8 .5-6.5.5-6.5-1-6-1-6 2.5-3.5 2.5-3.5-3.5-3.5-3.5-3.5-.5-7-.5-7 6.5 1.5 6.5 1.5 3 4 3 4 6 1 6 1 4-3 4-3 6 1.5 6 1.5 3.5-2.5 3.5-2.5 7-1 7-1 3.5-2.5 3.5-2.5 4.5-.5 4.5-.5 6.5-1 6.5-1 4.5-2.5 4.5-2.5 6.5-.5 6.5-.5 6.5-2.5 6.5-2.5 5-.5 5-.5 6.5 3.5 6.5 3.5 7 1 7 1v4 4 5 5l-1 7.5-1 7.5h-3-3l-14.5 5.5-14.5 5.5h2 2 1.5 1.5l.5-.5.5-.5h1 1 1 1 1.5 1.5l.5-.5.5-.5 1.5.5 1.5.5 1 1 1 1 .5 1 .5 1-.5.5-.5.5h-1-1l-.5-.5-.5-.5-1-.5-1-.5h-2-2l-.5.5-.5.5h-1.5-1.5l-1.5.5-1.5.5h-1-1-1-1l-1 .5-1 .5 2 .5 2 .5 2.5-.5 2.5-.5h2 2 2.5 2.5v10 10l-.5 10.5-.5 10.5-2 10-2 10 1.5-.5 1.5-.5v-2-2-2-2-1-1l.5-1 .5-1v-2-2-1-1l.5-.5.5-.5v-1-1-1.5-1.5l.5-1.5.5-1.5v-1-1l.5-11 .5-11 2.5.5 2.5.5 2 8 2 8 1 9.5 1 9.5 2 9 2 9 .5-3.5.5-3.5 1.5-5.5 1.5-5.5 1.5-15 1.5-15v-.5-.5-11-11l-.5-9-.5-9v-9-9l-1-10-1-10v-10-10l-.5-.5-.5-.5.5-10 .5-10-.5-8.5-.5-8.5v-12.5-12.5-.5-.5h-1.5-1.5l.5 1 .5 1 .5 1.5.5 1.5-.5.5-.5.5-.5 1-.5 1 .5 1.5.5 1.5v1.5 1.5l-.5 1.5-.5 1.5-1 1.5-1 1.5 1 1 1 1 .5 2 .5 2 .5 1.5.5 1.5h-1.5-1.5l-5-3.5-5-3.5-3.5-11-3.5-11h-1-1l-3.5 2-3.5 2-16 4.5-16 4.5 1-1 1-1-9 2.5-9 2.5-8.5 2.5-8.5 2.5-8.5 2.5-8.5 2.5-8 3-8 3-9 2.5-9 2.5-6.5 3.5-6.5 3.5v1 1l8.5-2.5 8.5-2.5 8-3 8-3 8-2.5 8-2.5 8.5-2.5 8.5-2.5 14.5-4 14.5-4 9-2.5 9-2.5 10.5-2.5 10.5-2.5 1 .5 1 .5-.5 1.5-.5 1.5v2.5 2.5 2 2 2 2l3-3 3-3 1.5 9 1.5 9 3 8 3 8 .5 3.5.5 3.5-5.5 10.5-5.5 10.5-8 1.5-8 1.5-3.5 1.5-3.5 1.5-8.5.5-8.5.5-8.5 1.5-8.5 1.5h-1.5-1.5l-1 .5-1 .5-7.5 3.5-7.5 3.5-7 1-7 1-8 3-8 3-12 2-12 2-1-1-1-1h-1-1l-1-.5-1-.5-1-.5-1-.5 5.5-3 5.5-3 8.5-2.5 8.5-2.5 9.5-2 9.5-2 9-2 9-2 8.5-2.5 8.5-2.5 10.5-2 10.5-2h1.5 1.5 1.5 1.5l.5-.5.5-.5 1-.5 1-.5 1.5-.5 1.5-.5h2 2 1 1l1-.5 1-.5 1.5-.5 1.5-.5h1 1l1-.5 1-.5 1-1 1-1v-1-1-1.5-1.5l-.5-1.5-.5-1.5.5-2 .5-2v-2-2-2-2-1.5-1.5l.5-1.5.5-1.5v-3-3h-.5-.5l-.5 1-.5 1v2 2l-.5 1.5-.5 1.5v2 2 2.5 2.5l-.5 1.5-.5 1.5v1.5 1.5l-.5 1.5-.5 1.5-1 1.5-1 1.5-1 1-1 1-9 2.5-9 2.5-9 2-9 2-9 2-9 2-8.5 2.5-8.5 2.5-9 2-9 2-9 2-9 2-14.5 2.5-14.5 2.5-1.5-6-1.5-6-1.5-16-1.5-16h-.5-.5l-.5 10-.5 10v9 9l1.5 5.5 1.5 5.5.5 9.5.5 9.5 1 10 1 10 .5 8.5.5 8.5.5 9 .5 9 .5 8.5.5 8.5v8 8l-5.5 3.5-5.5 3.5h-6-6l-6.5 2-6.5 2-1.5 2.5-1.5 2.5h-6-6l-10 2-10 2v1 1l8.5-1 8.5-1 8.5.5 8.5.5 12-2 12-2v-.5-.5l1.5-4 1.5-4-1.5 4.5-1.5 4.5 7.5 2 7.5 2 .5 6 .5 6-.5.5-.5.5-1 1-1 1-.5.5-.5.5h-2-2l-.5 1-.5 1h1 1 1 1l.5 1 .5 1h1 1 1 1l-1 1-1 1 2 7 2 7 .5 8.5.5 8.5 2 9.5 2 9.5-1.5-.5-1.5-.5v2.5 2.5l1 1.5 1 1.5v2 2 1.5 1.5l.5 1.5.5 1.5-.5 2-.5 2v2.5 2.5 2 2l1 1 1 1 .5 1 .5 1-.5 1.5-.5 1.5h1.5 1.5l1 1.5 1 1.5.5 1.5.5 1.5h-1-1v1 1l-1 .5-1 .5-1-1-1-1-.5.5-.5.5.5 1 .5 1 1.5.5 1.5.5v1 1l-.5.5-.5.5-.5.5-.5.5-1 .5-1 .5 8.5 7 8.5 7 6.5 3 6.5 3" style="fill:#785f6a;stroke:#785f6a"/><g style="fill:#3d2f36;stroke:#3d2f36"><path d="m460 363h2 1 1l.5.5.5.5h1 1l.5-2 .5-2-.5-.5-.5-.5h-2.5-2.5-2-2-1-1l-1-.5-1-.5h-2-2l-1.5-.5-1.5-.5h-1-1-1.5-1.5-2-2l-.5-.5-.5-.5h-2-2l2 3.5 2 3.5 6-.5 6-.5 5.5.5 5.5.5"/><path d="m592 361l7-9-4 1-4 1 .5 3.5.5 3.5"/><path d="m477 360l5-8 .5-7.5.5-7.5-2-2-2-2v1.5 1.5l.5 1.5.5 1.5v2 2l-.5 2-.5 2-.5 1.5-.5 1.5v2.5 2.5l-.5 1.5-.5 1.5-1 1-1 1h1 1"/></g><path d="m535 360l10-4-.5-6.5-.5-6.5 2-7.5 2-7.5v-8-8l-.5-9.5-.5-9.5 1-8 1-8v-10-10-9.5-9.5l-.5-10.5-.5-10.5.5-9.5.5-9.5v-10-10-9-9l.5-10 .5-10v-11-11l.5-9.5.5-9.5v-10-10-11.5-11.5l-.5 9.5-.5 9.5-.5 9.5-.5 9.5v9.5 9.5l-.5 9.5-.5 9.5.5 7.5.5 7.5-.5 8.5-.5 8.5v9 9l-1 7.5-1 7.5-2 6-2 6-5-2.5-5-2.5-1-8.5-1-8.5-.5 1.5-.5 1.5v1.5 1.5l-.5 1.5-.5 1.5.5 2 .5 2 .5 1.5.5 1.5v1.5 1.5 2 2l-1 1.5-1 1.5h1 1v1 1l-.5.5-.5.5.5 1 .5 1h1 1v1.5 1.5l-1 1-1 1v1 1h3.5 3.5l2.5 5.5 2.5 5.5v5 5l-1 5.5-1 5.5-.5-.5-.5-.5h-1.5-1.5-2-2v-1-1l1-.5 1-.5 1-1 1-1 .5-.5.5-.5.5-.5.5-.5.5-.5.5-.5.5-1 .5-1-.5.5-.5.5h-1-1-1.5-1.5l-1-1-1-1-.5 1-.5 1-.5 3-.5 3 .5 1.5.5 1.5-.5 2-.5 2v2 2 1.5 1.5l.5.5.5.5v2 2 .5.5 1 1 1.5 1.5l1-1 1-1 1.5-1 1.5-1 .5 1.5.5 1.5-.5 2-.5 2 1.5-.5 1.5-.5.5.5.5.5-.5 2-.5 2-1-1-1-1-1.5-1-1.5-1-.5 1.5-.5 1.5-.5 1-.5 1v14.5 14.5 7 7l.5 8.5.5 8.5 1 7 1 7" style="fill:#635162;stroke:#635162"/><path d="m467 359l1 1h2 2 1.5 1.5l1-1 1-1 .5-1.5.5-1.5v-2.5-2.5l.5-1.5.5-1.5.5-2 .5-2v-2-2l-.5-1.5-.5-1.5v-1.5-1.5h-.5-.5l-1-.5-1-.5-2.5-.5-2.5-.5h-2.5-2.5l-1.5-.5-1.5-.5h-2-2-2.5-2.5l-1.5-.5-1.5-.5h-2.5-2.5-2-2l-1.5-.5-1.5-.5-2.5-.5-2.5-.5-1.5.5-1.5.5-1.5 1-1.5 1 .5 1.5.5 1.5v2.5 2.5 2 2l.5 1.5.5 1.5v2.5 2.5 2 2l1.5 1 1.5 1h2 2l.5.5.5.5h2 2 1.5 1.5 1 1l1.5.5 1.5.5h2 2l1 .5 1 .5h1 1 2 2 2.5 2.5" style="fill:#15f500;stroke:#15f500"/><path d="m213 358v1l1-.5 1-.5.5-.5.5-.5.5-.5.5-.5v-1-1l-1.5-.5-1.5-.5-.5-1-.5-1 .5-.5.5-.5 1 1 1 1 1-.5 1-.5v-1-1h1 1l-.5-1.5-.5-1.5-1-.5-1-.5h-2.5-2.5l-.5 1.5-.5 1.5.5 2 .5 2v3 3h.5.5" style="fill:#635162;stroke:#635162"/><g style="fill:#3d2f36;stroke:#3d2f36"><path d="m494 356l2-1 1.5-.5 1.5-.5.5-1.5.5-1.5-2.5-1-2.5-1 .5.5.5.5-1 1.5-1 1.5-.5-1.5-.5-1.5-1.5 1-1.5 1 .5 1.5.5 1.5 1.5.5 1.5.5"/><path d="m582 355l6-13-1.5 3.5-1.5 3.5-4.5-4.5-4.5-4.5-1-6-1-6 .5-3 .5-3 5.5 2.5 5.5 2.5 3 1 3 1 1 4 1 4 5-3 5-3-1-2.5-1-2.5 2.5-1.5 2.5-1.5 1.5-.5 1.5-.5 5.5-5.5 5.5-5.5 1.5 2.5 1.5 2.5 4-2.5 4-2.5 1.5 5.5 1.5 5.5 5 1 5 1 6.5-1.5 6.5-1.5 5-3 5-3-3-5.5-3-5.5-1-4-1-4h-2-2l-.5-1.5-.5-1.5.5-1 .5-1-.5-1.5-.5-1.5-1 1-1 1-.5 2-.5 2v1 1l-1.5 2-1.5 2 1 .5 1 .5v1.5 1.5l-1.5.5-1.5.5-.5 1-.5 1-.5-1.5-.5-1.5h-2-2l-1.5-1-1.5-1 1-2 1-2h-1.5-1.5l2 5 2 5-1.5 3.5-1.5 3.5v-1.5-1.5h-1-1l-.5-.5-.5-.5-1-.5-1-.5v-1-1l.5.5.5.5.5.5.5.5h1.5 1.5v-1-1-1-1h-1-1l-1 .5-1 .5-1.5-.5-1.5-.5-.5-.5-.5-.5v-.5-.5l.5-1.5.5-1.5 1-1 1-1-1.5 1-1.5 1-1-1-1-1-1.5-1-1.5-1-1-1-1-1-.5-1-.5-1-1.5.5-1.5.5.5 1.5.5 1.5v1 1l-1 .5-1 .5-1.5-.5-1.5-.5-1.5-1-1.5-1-.5 1.5-.5 1.5h2.5 2.5l-1 1-1 1-1.5 1-1.5 1h-1-1l-.5-1.5-.5-1.5-1-.5-1-.5-1-1-1-1 1.5.5 1.5.5.5-1 .5-1-6-2-6-2-6-1.5-6-1.5-3 3-3 3-4.5.5-4.5.5-2.5-2.5-2.5-2.5-2.5-.5-2.5-.5v-7.5-7.5l-1.5-11-1.5-11 .5 17.5.5 17.5v8 8l.5 8.5.5 8.5.5 6.5.5 6.5 4 4.5 4 4.5 2 4 2 4 5 1.5 5 1.5"/></g><path d="m222 349l3 1 .5-1.5.5-1.5h2.5 2.5l.5 1.5.5 1.5.5-.5.5-.5 1-1 1-1 .5-1 .5-1-.5-.5-.5-.5.5-.5.5-.5-1-.5-1-.5h-1-1l1-1 1-1 1-3 1-3 10.5 1 10.5 1 8.5.5 8.5.5 10.5.5 10.5.5 10 1 10 1 10 1 10 1 9.5-2 9.5-2h-.5-.5l-.5 1-.5 1-1 .5-1 .5h-2-2-1-1-1-1-1-1l-1.5-.5-1.5-.5-12-.5-12-.5-10-1-10-1-10-1-10-1-10.5-.5-10.5-.5-14-1.5-14-1.5-2.5.5-2.5.5 1 1.5 1 1.5 1 1 1 1 .5.5.5.5 1.5 1 1.5 1 .5 1.5.5 1.5-1 1.5-1 1.5-1.5-.5-1.5-.5-1 1-1 1 .5 1 .5 1" style="fill:#745147;stroke:#745147"/><path d="m359 346l8-12-1.5-8.5-1.5-8.5-2.5-3-2.5-3-1 10-1 10 .5 7.5.5 7.5h.5.5" style="fill:#3d2f36;stroke:#3d2f36"/><path d="m217 345l2 1-1-1.5-1-1.5h-1.5-1.5l.5-1.5.5-1.5-.5-1-.5-1-1-1-1-1v-2-2h-1-1l.5 1 .5 1v1 1 1 1l-.5.5-.5.5.5 1 .5 1 .5.5.5.5-.5.5-.5.5.5 1 .5 1h2.5 2.5" style="fill:#745147;stroke:#745147"/><g style="fill:#2b1e1c;stroke:#2b1e1c"><path d="m358 343h2l1.5-.5 1.5-.5 1-1.5 1-1.5-.5-1.5-.5-1.5-1-1.5-1-1.5-1.5.5-1.5.5-1 1.5-1 1.5v2 2l.5 1 .5 1"/><path d="m570 341l-3-13-.5 4.5-.5 4.5 2 2 2 2"/><path d="m192 340l8-8-1.5-1.5-1.5-1.5-3 4.5-3 4.5.5 1 .5 1"/></g><path d="m337 340l3 1h1 1 1 1 1 1 2 2l1-.5 1-.5.5-1 .5-1v-.5-.5l.5-10 .5-10v-18-18h-.5-.5l-1.5.5-1.5.5-1.5-.5-1.5-.5h-1-1-1.5-1.5-1.5-1.5-2-2-2-2-2-2-2.5-2.5-2-2-2.5-2.5-2-2l-2.5-.5-2.5-.5h-1.5-1.5-1.5-1.5-1-1-1-1-1-1-1.5-1.5-2-2-1-1-1.5-1.5l-2 .5-2 .5h-2-2l-1.5-.5-1.5-.5h-1-1-1.5-1.5-2-2-2.5-2.5-2-2-2.5-2.5l-1.5.5-1.5.5h-1-1-1.5-1.5l-1-.5-1-.5-8 4.5-8 4.5h6 6l9.5.5 9.5.5 6.5 4.5 6.5 4.5-2 9.5-2 9.5-10-1-10-1-8.5-1.5-8.5-1.5-2.5 1.5-2.5 1.5 3 7.5 3 7.5 14 1.5 14 1.5 10.5.5 10.5.5 10 1 10 1 10 1 10 1 12 .5 12 .5" style="fill:#96747d;stroke:#96747d"/><path d="m353 337v1h.5.5v-.5-.5l1-10.5 1-10.5 1-10 1-10-2-7.5-2-7.5v18 18l-.5 10-.5 10" style="fill:#785f6a;stroke:#785f6a"/><path d="m354 337v1l2-16 2-16 2.5-7.5 2.5-7.5 2 8.5 2 8.5 1 6 1 6 4 6 4 6 .5-3.5.5-3.5.5-7.5.5-7.5v-8.5-8.5-9-9-10-10l-.5-9.5-.5-9.5-1.5-8.5-1.5-8.5v-8.5-8.5l.5-8.5.5-8.5v-11-11l-1.5 15-1.5 15-1.5 5.5-1.5 5.5-.5 3.5-.5 3.5-2-9-2-9-1-9.5-1-9.5-2-8-2-8-2.5-.5-2.5-.5-.5 11-.5 11 1.5-10 1.5-10 2 9 2 9 1.5 9.5 1.5 9.5-1.5 12-1.5 12 1 1 1 1 6.5 1.5 6.5 1.5v6 6l1.5 9 1.5 9-1 7-1 7v7 7l-4 1-4 1-4.5-4-4.5-4 .5 1.5.5 1.5h-1.5-1.5-2-2v.5.5h.5.5l2 7.5 2 7.5-1 10-1 10-1 10.5-1 10.5" style="fill:#635162;stroke:#635162"/><path d="m340 336l-2-8 .5-4.5.5-4.5-2-5.5-2-5.5-4 1-4 1-5.5-.5-5.5-.5-4-3-4-3 1-5 1-5 2.5-5 2.5-5-8 .5-8 .5.5 1 .5 1v1 1l.5.5.5.5-.5 1-.5 1 1 1 1 1 .5.5.5.5h1.5 1.5l-1 1-1 1-.5-.5-.5-.5-.5-.5-.5-.5-.5.5-.5.5h-1-1-1-1l.5 1 .5 1 1 1 1 1h-1-1-1-1l-.5 1.5-.5 1.5 1 1 1 1-.5 1.5-.5 1.5 1.5 1 1.5 1h-2-2-1.5-1.5l-1 1-1 1h-1-1-.5-.5l6.5.5 6.5.5 4.5 1.5 4.5 1.5-3 2-3 2 5 4.5 5 4.5 3.5 1 3.5 1h5 5l3.5 2.5 3.5 2.5 1.5.5 1.5.5" style="fill:#a085a3;stroke:#a085a3"/><path d="m391 334l3-5 .5-5.5.5-5.5-2.5 3-2.5 3-1 5-1 5h1.5 1.5" style="fill:#2b1e1c;stroke:#2b1e1c"/><path d="m289 333l7-5 1-2 1-2 2.5-2.5 2.5-2.5 3-2 3-2-4.5-1.5-4.5-1.5-6.5-.5-6.5-.5-2 1.5-2 1.5-8 2.5-8 2.5-3 6-3 6 3.5-.5 3.5-.5 4.5-2 4.5-2 1 1 1 1 4 2 4 2 1 .5 1 .5" style="fill:#b28282;stroke:#b28282"/><path d="m476 332l2 1-1-1.5-1-1.5-2-.5-2-.5h-2-2-2.5-2.5-2-2l-2-.5-2-.5h-2-2-2-2l-2-.5-2-.5-1.5.5-1.5.5h-.5-.5l1.5.5 1.5.5h2 2 2.5 2.5l1.5.5 1.5.5h2.5 2.5 2 2l1.5.5 1.5.5h2.5 2.5l2.5.5 2.5.5" style="fill:#564249;stroke:#564249"/><path d="m210 331v1h1 1v-2.5-2.5l.5-2 .5-2-.5-1.5-.5-1.5v-1.5-1.5-2-2l-1-1.5-1-1.5v-2.5-2.5h-.5-.5l-.5 1-.5 1v1 1l.5 1.5.5 1.5.5 1 .5 1v1 1l-.5 1.5-.5 1.5.5 1 .5 1v1 1l-.5 1.5-.5 1.5.5 1 .5 1v1.5 1.5" style="fill:#635162;stroke:#635162"/><path d="m248 331h2l1.5-.5 1.5-.5-.5-2-.5-2-1-1-1-1-.5-2-.5-2-1 1-1 1-1 1.5-1 1.5v1 1l.5 1.5.5 1.5 1 .5 1 .5" style="fill:#b28282;stroke:#b28282"/><path d="m706 330h2v-1-1l-.5-2-.5-2 1.5-.5 1.5-.5 1 2 1 2v-1.5-1.5-2.5-2.5l-1.5-.5-1.5-.5-1 1-1 1-1.5-1-1.5-1-1.5.5-1.5.5.5 1 .5 1 .5.5.5.5 1 1 1 1 .5 1 .5 1-.5.5-.5.5.5 1.5.5 1.5" style="fill:#3d2f36;stroke:#3d2f36"/><path d="m312 325h2l-.5-1.5-.5-1.5.5-2 .5-2h-2-2l-2-.5-2-.5v2 2l1.5 1 1.5 1 1 1 1 1h.5.5" style="fill:#96747d;stroke:#96747d"/><g style="fill:#2b1e1c;stroke:#2b1e1c"><path d="m585 319h2l1.5.5 1.5.5.5-1 .5-1-.5-1.5-.5-1.5-.5-2-.5-2h-1-1l-1.5 1-1.5 1-1.5-.5-1.5-.5v1 1l1.5 1 1.5 1 .5 1.5.5 1.5"/><path d="m597 319l4-6h-2-2v3 3"/></g><path d="m267 318v1l8-2.5 8-2.5 2-1.5 2-1.5.5-1.5.5-1.5-7-2.5-7-2.5-3.5.5-3.5.5-.5 4.5-.5 4.5.5 2.5.5 2.5" style="fill:#a085a3;stroke:#a085a3"/><path d="m257 316l5-17-5.5-3.5-5.5-3.5-9-.5-9-.5-3.5 3.5-3.5 3.5 8.5-1.5 8.5-1.5 5.5 4.5 5.5 4.5-4 4-4 4-5-4.5-5-4.5h-6-6l4 4 4 4-1.5 1.5-1.5 1.5 9 1 9 1h5 5" style="fill:#635162;stroke:#635162"/><g style="fill:#2b1e1c;stroke:#2b1e1c"><path d="m639 315l3-7-2-5-2-5-2 .5-2 .5-1 1-1 1-.5 1.5-.5 1.5v.5.5l.5.5.5.5 1.5.5 1.5.5 1-.5 1-.5h1 1v1 1 1 1h-1.5-1.5l-.5-.5-.5-.5-.5-.5-.5-.5v1 1l1 .5 1 .5.5.5.5.5h1 1v1.5 1.5"/><path d="m658 315h2l1.5-.5 1.5-.5.5-2 .5-2-1.5-.5-1.5-.5-1 1.5-1 1.5-1-1-1-1-1-.5-1-.5-1 1-1 1 .5 1.5.5 1.5 2 .5 2 .5"/></g><path d="m709 313h2l.5-1.5.5-1.5v-2.5-2.5-2-2-2.5-2.5-2-2-1-1l-.5-.5-.5-.5v-1.5-1.5l-.5-.5-.5-.5v-1.5-1.5l-1 1-1 1-.5.5-.5.5v.5.5l1 1 1 1v1 1l-.5 1-.5 1 .5 1.5.5 1.5-1 1-1 1 1 .5 1 .5v1.5 1.5l.5 1.5.5 1.5-.5 1-.5 1 .5.5.5.5-1 1-1 1v.5.5l.5 1.5.5 1.5" style="fill:#3d2f36;stroke:#3d2f36"/><path d="m288 311h2l1-1 1-1h1.5 1.5 2 2l-1.5-1-1.5-1 .5-1.5.5-1.5-1-1-1-1-1.5 1-1.5 1 1 .5 1 .5-1 1-1 1h-1.5-1.5l-.5.5-.5.5-.5 1.5-.5 1.5h.5.5" style="fill:#b28282;stroke:#b28282"/><path d="m462 310l19-3 2.5-2.5 2.5-2.5-5-3.5-5-3.5 6.5-2.5 6.5-2.5-7.5-.5-7.5-.5-3.5.5-3.5.5-6.5-.5-6.5-.5-1 2.5-1 2.5h-6-6l-7.5.5-7.5.5 3 3 3 3h-7-7l3 2.5 3 2.5 5 1 5 1 2.5-2.5 2.5-2.5 6 1 6 1 6 1 6 1v1.5 1.5" style="fill:#2b1e1c;stroke:#2b1e1c"/><path d="m169 309l5-3-5.5.5-5.5.5 3 1 3 1" style="fill:#5f3c2f;stroke:#5f3c2f"/><path d="m248 307l-4-10 1 3 1 3 1 2 1 2" style="fill:#96747d;stroke:#96747d"/><path d="m331 307l-8-8-5.5-1.5-5.5-1.5 3.5 4 3.5 4 5-1 5-1 1 2.5 1 2.5" style="fill:#a085a3;stroke:#a085a3"/><path d="m647 307l1-2 1.5-.5 1.5-.5v-1.5-1.5l-1-.5-1-.5-1.5-1-1.5-1-.5-.5-.5-.5v-1-1l.5-.5.5-.5h-1.5-1.5l.5-.5.5-.5.5-.5.5-.5.5-.5.5-.5v-1-1l-.5-.5-.5-.5h-1.5-1.5l-.5.5-.5.5.5.5.5.5.5.5.5.5-.5 1-.5 1h-1-1l.5.5.5.5v2 2l-1 2-1 2 1.5 1 1.5 1h2 2l.5 1.5.5 1.5" style="fill:#2b1e1c;stroke:#2b1e1c"/><path d="m213 306l-4-19-.5-8.5-.5-8.5-2-7-2-7-7 .5-7 .5-7.5 1.5-7.5 1.5-13 .5-13 .5-1-.5-1-.5h-2-2-1-1l-2 .5-2 .5-1-1-1-1-.5-2-.5-2h-.5-.5l4.5 7 4.5 7 6.5 4 6.5 4 .5-.5.5-.5.5-2 .5-2v1 1l2 .5 2 .5 1-1 1-1 1.5-.5 1.5-.5 1 1.5 1 1.5.5-2 .5-2h1 1l1 1.5 1 1.5 1.5.5 1.5.5 1-1.5 1-1.5.5.5.5.5.5-.5.5-.5.5-.5.5-.5 1-.5 1-.5.5-.5.5-.5v1 1h1 1l.5-.5.5-.5 1-.5 1-.5h1 1l.5-.5.5-.5h1 1l1 .5 1 .5.5-.5.5-.5h1 1l.5-.5.5-.5.5.5.5.5.5 1.5.5 1.5 1 .5 1 .5v1 1 1 1l1 .5 1 .5-.5.5-.5.5v1 1 1 1 2 2l.5 2.5.5 2.5.5 2 .5 2 .5 1.5.5 1.5.5 1.5.5 1.5v2 2h.5.5l1.5.5 1.5.5" style="fill:#745147;stroke:#745147"/><path d="m289 306v1h1.5 1.5l1-1 1-1-1-.5-1-.5-3.5-2.5-3.5-2.5.5-4.5.5-4.5-5.5-1.5-5.5-1.5 2 7.5 2 7.5 5 2 5 2" style="fill:#a085a3;stroke:#a085a3"/><path d="m679 306l2-1-1-.5-1-.5-.5-.5-.5-.5.5-.5.5-.5 1.5-.5 1.5-.5h1.5 1.5l1.5-.5 1.5-.5 1.5-1 1.5-1 .5-1.5.5-1.5-1-.5-1-.5-1-1-1-1v2 2l.5 1 .5 1-1-1-1-1-1.5-1.5-1.5-1.5.5 1.5.5 1.5-.5.5-.5.5-1 .5-1 .5h-1-1l-.5-.5-.5-.5h-1-1v1 1l-.5 1-.5 1 .5.5.5.5-1.5.5-1.5.5v1 1h1 1l1.5.5 1.5.5" style="fill:#3d2f36;stroke:#3d2f36"/><g style="fill:#5f3c2f;stroke:#5f3c2f"><path d="m672 305h2v-1-1l-.5-.5-.5-.5-1-1.5-1-1.5-1-1-1-1 1-1.5 1-1.5 1.5.5 1.5.5 2-.5 2-.5h2 2l1-.5 1-.5 1.5 1.5 1.5 1.5 1 1 1 1-.5-1-.5-1v-2-2l.5-.5.5-.5h1.5 1.5l.5.5.5.5 1 .5 1 .5h1 1l-.5-1.5-.5-1.5.5-1 .5-1h1 1l1.5 1 1.5 1 1.5-.5 1.5-.5-1 1.5-1 1.5 1 1.5 1 1.5 1 1 1 1 1-1 1-1-.5-1.5-.5-1.5.5-1 .5-1v-1-1l-1-1-1-1v-.5-.5l.5-.5.5-.5 1-1 1-1-1-1-1-1 .5-1.5.5-1.5.5-2 .5-2v-2-2-2-2-2.5-2.5-2-2-2.5-2.5-2.5-2.5l-3.5-3.5-3.5-3.5-8.5 2-8.5 2-6 1-6 1-5.5 1.5-5.5 1.5-2-2-2-2-4 1-4 1-4 1.5-4 1.5-5 2-5 2-2.5-1.5-2.5-1.5-4.5 1.5-4.5 1.5h-4-4l-4.5.5-4.5.5-7-.5-7-.5-2 2-2 2-4.5 1.5-4.5 1.5-2.5-5-2.5-5-6-6.5-6-6.5h-.5-.5v2 2l.5 1.5.5 1.5v2 2 2 2l-.5 1-.5 1 1.5 11 1.5 11v7.5 7.5l2.5.5 2.5.5 2.5 2.5 2.5 2.5 4.5-.5 4.5-.5 3-3 3-3 6 1.5 6 1.5 6 2 6 2h2 2l1.5 1 1.5 1 1.5.5 1.5.5 1-.5 1-.5v-1-1l-.5-1.5-.5-1.5 1.5-.5 1.5-.5.5 1 .5 1 1 1 1 1 1.5 1 1.5 1 1 1 1 1 1.5-1 1.5-1 2-.5 2-.5h1.5 1.5v-2-2l-.5-.5-.5-.5h1 1l.5-1 .5-1-.5-.5-.5-.5-.5-.5-.5-.5.5-.5.5-.5h1.5 1.5l.5.5.5.5v1 1l-.5.5-.5.5-.5.5-.5.5-.5.5-.5.5h1.5 1.5l-.5.5-.5.5v1 1l.5.5.5.5 1.5 1 1.5 1 1.5-2 1.5-2v-1-1l.5-2 .5-2 1-1 1-1 .5 1.5.5 1.5-.5 1-.5 1 .5 1.5.5 1.5h2 2l1-.5 1-.5 1-.5 1-.5 1.5.5 1.5.5v1.5 1.5l-1-1-1-1-.5 1.5-.5 1.5v.5.5l1.5.5 1.5.5 2 .5 2 .5.5 1.5.5 1.5"/><path d="m160 304h16l.5-3.5.5-3.5 7.5-1.5 7.5-1.5 6.5 2.5 6.5 2.5v-1.5-1.5l-.5-2-.5-2v-2-2l.5-1 .5-1v-2-2-1-1-1-1l.5-.5.5-.5-1-.5-1-.5v-1-1-1-1l-1-.5-1-.5h-2-2l-1 1-1 1-.5.5-.5.5-.5.5-.5.5h-1-1-1.5-1.5-1-1l-.5.5-.5.5v1 1l-1.5-.5-1.5-.5-.5-1-.5-1-1.5-.5-1.5-.5-1.5.5-1.5.5-1.5-.5-1.5-.5-1-1.5-1-1.5h-1-1l-.5 2-.5 2 .5 1 .5 1-1 .5-1 .5-.5-.5-.5-.5h-2.5-2.5v1 1h-1.5-1.5l-1.5-1-1.5-1-6.5-4-6.5-4-4.5-7-4.5-7v-.5-.5l-1-1-1-1 2 12.5 2 12.5 1.5 10.5 1.5 10.5 6 1 6 1h1 1l4 2 4 2"/></g><path d="m610 304h2l1.5-1 1.5-1 1-1 1-1h-2.5-2.5l.5-1.5.5-1.5h-2-2l-.5 1-.5 1-1.5-.5-1.5-.5 1 1 1 1 1 .5 1 .5.5 1.5.5 1.5" style="fill:#2b1e1c;stroke:#2b1e1c"/><path d="m441 302h16l-1.5-1.5-1.5-1.5-6.5 1.5-6.5 1.5" style="fill:#3d2f36;stroke:#3d2f36"/><path d="m673 302l1 1 1.5-.5 1.5-.5-.5-.5-.5-.5.5-1 .5-1v-1-1h1 1l.5.5.5.5h1 1l1-.5 1-.5.5-.5.5-.5-.5-1.5-.5-1.5-1 .5-1 .5h-2-2l-2 .5-2 .5-1.5-.5-1.5-.5-1 1.5-1 1.5 1 1 1 1 1 1.5 1 1.5" style="fill:#2b1e1c;stroke:#2b1e1c"/><path d="m698 301h2l.5-1.5.5-1.5.5-1 .5-1 .5.5.5.5 1-1 1-1-1-1.5-1-1.5 1-1.5 1-1.5-1.5.5-1.5.5-1.5-1-1.5-1h-1-1l-.5 1-.5 1 .5 1.5.5 1.5h-1-1l-.5 1.5-.5 1.5.5.5.5.5-1 1-1 1 1 .5 1 .5 1.5.5 1.5.5" style="fill:#3d2f36;stroke:#3d2f36"/><g style="fill:#b28282;stroke:#b28282"><path d="m298 299h2l-1-1-1-1-.5-1-.5-1-1-1-1-1-1-1.5-1-1.5-1-1-1-1-1 1.5-1 1.5.5 1.5.5 1.5h1 1l1.5 1 1.5 1 .5 1.5.5 1.5h1 1"/><path d="m299 295h2l.5-.5.5-.5.5.5.5.5.5.5.5.5 1-1 1-1h-1.5-1.5l-.5-.5-.5-.5-1-1-1-1 .5-1 .5-1-.5-.5-.5-.5v-1-1l-.5-1-.5-1h-1-1-1.5-1.5l-1.5-.5-1.5-.5-2 .5-2 .5 1 1 1 1 2 .5 2 .5 1 1 1 1 1 1.5 1 1.5 1 1 1 1v.5.5"/></g><path d="m318 291l16-2-5-1-5-1-3 1.5-3 1.5v.5.5" style="fill:#a085a3;stroke:#a085a3"/><path d="m711 289l1 1v-3-3-2.5-2.5-2-2-2.5-2.5-2-2-2.5-2.5-2-2-2-2-2.5-2.5-2-2l-1 1-1 1v2.5 2.5 2.5 2.5 2 2 2.5 2.5 2 2 2 2l-.5 2-.5 2-.5 1.5-.5 1.5 1 1 1 1v1.5 1.5l.5.5.5.5v1.5 1.5" style="fill:#564249;stroke:#564249"/><path d="m531 285l1 1 .5-1 .5-1 .5-1.5.5-1.5 1.5 1 1.5 1 1 1 1 1 .5-2 .5-2-.5-.5-.5-.5-1.5.5-1.5.5.5-2 .5-2-.5-1.5-.5-1.5-1.5 1-1.5 1-1 1-1 1v2 2 1.5 1.5" style="fill:#785f6a;stroke:#785f6a"/><path d="m518 282h2l.5-.5.5-.5.5-.5.5-.5.5 1 .5 1 .5.5.5.5.5-.5.5-.5-.5-.5-.5-.5 1.5.5 1.5.5-2.5-9.5-2.5-9.5-1.5-7.5-1.5-7.5-6-3.5-6-3.5-4.5 2.5-4.5 2.5-7 1.5-7 1.5-8-3-8-3h-8-8l-11 .5-11 .5-1 .5-1 .5v1.5 1.5l-1 1-1 1h-1-1l-1-1-1-1-1-.5-1-.5-1.5-.5-1.5-.5h-1-1l-.5-1-.5-1v-1-1l-1-.5-1-.5h-1-1-2-2l-5 1.5-5 1.5-3.5 3.5-3.5 3.5.5 8 .5 8h2.5 2.5l3-2 3-2 5.5.5 5.5.5 7-1.5 7-1.5 4 1 4 1 4.5-1.5 4.5-1.5 5.5.5 5.5.5 4 1 4 1 2 .5 2 .5 7 1 7 1h5 5l2 4 2 4 1.5-2.5 1.5-2.5 4 .5 4 .5 1.5 1.5 1.5 1.5 4.5-1.5 4.5-1.5.5 6 .5 6" style="fill:#5f3c2f;stroke:#5f3c2f"/><g style="fill:#785f6a;stroke:#785f6a"><path d="m241 281h2l1.5-.5 1.5-.5h2.5 2.5 2 2 2.5 2.5 2 2 1.5 1.5 1 1l1.5.5 1.5.5h2 2l2-.5 2-.5h-2-2l-1.5-.5-1.5-.5h-2-2-2-2-1-1-1.5-1.5-2-2-1-1-1.5-1.5-2-2-2.5-2.5l-1.5.5-1.5.5h-1.5-1.5l1 .5 1 .5h1.5 1.5"/><path d="m339 281h3 1.5 1.5 1 1l1.5.5 1.5.5 1.5-.5 1.5-.5v-.5-.5h-1.5-1.5-1-1l-.5-.5-.5-.5h-1-1l-1 .5-1 .5h-1-1-1-1-1-1-1.5-1.5-2-2-2-2-2.5-2.5-2-2-2.5-2.5-2-2-2-2l2.5.5 2.5.5h2 2 2.5 2.5 2 2 2.5 2.5 2 2 2 2 2 2"/></g><path d="m158 279h3v-1-1h2.5 2.5l.5.5.5.5 1-.5 1-.5-.5-1-.5-1-1-1.5-1-1.5-1.5.5-1.5.5-1 1-1 1-2-.5-2-.5v-1-1l-.5 2-.5 2-.5.5-.5.5 1.5 1 1.5 1" style="fill:#564249;stroke:#564249"/><g style="fill:#635162;stroke:#635162"><path d="m236 279v1h1.5 1.5l1.5-.5 1.5-.5h2.5 2.5 2 2 1.5 1.5 1 1 2 2 1.5 1.5 1 1 2 2 2 2l-11-.5-11-.5-16-.5-16-.5-.5.5-.5.5 1 .5 1 .5h1 1 2.5 2.5 2 2 2.5 2.5"/><path d="m273 279l3 1h2 2 1.5 1.5 1 1 2 2 1.5 1.5 1 1 1 1 1 1 1.5 1.5 1.5 1.5 2 2 2 2 2.5 2.5 2 2 2.5 2.5 2 2 2 2v-.5-.5h-11.5-11.5-19-19"/></g><g style="fill:#564249;stroke:#564249"><path d="m334 279v1h1.5 1.5 1 1 1 1 1 1l1-.5 1-.5h1 1l.5.5.5.5h1 1 1.5 1.5 2 2 1.5 1.5l-.5-1.5-.5-1.5-1-.5-1-.5-10.5.5-10.5.5h-8-8l-10.5-.5-10.5-.5h-11-11l-10-.5-10-.5h-9-9l-10 1-10 1 16 .5 16 .5 11 .5 11 .5h19 19 11.5 11.5"/><path d="m183 277l3 1v-1-1l.5-.5.5-.5h1 1 1.5 1.5 1 1l.5-.5.5-.5.5-.5.5-.5 1-1 1-1h2 2l-.5-1.5-.5-1.5-.5-.5-.5-.5-.5.5-.5.5h-1-1l-.5.5-.5.5-1-.5-1-.5h-1-1l-.5.5-.5.5h-1-1l-1 .5-1 .5-.5.5-.5.5h-1-1v-1-1l-.5.5-.5.5-1 .5-1 .5-.5.5-.5.5-.5.5-.5.5-.5-.5-.5-.5-1 1.5-1 1.5 1.5-.5 1.5-.5 1.5.5 1.5.5.5 1 .5 1"/></g><path d="m218 277v1l.5-.5.5-.5 10-1 10-1h9 9l10 .5 10 .5h11 11l10.5.5 10.5.5h8 8l10.5-.5 10.5-.5-13.5-1-13.5-1-11 .5-11 .5h-10-10l-10.5-.5-10.5-.5h-8-8l-9-.5-9-.5-7.5 2-7.5 2" style="fill:#745147;stroke:#745147"/><path d="m149 261l26-1 7.5-1.5 7.5-1.5 7-.5 7-.5 1-1 1-1h-1-1-1-1l-.5-1-.5-1h-1-1-1-1l.5-1 .5-1-11 2-11 2h-8-8l-5.5.5-5.5.5-6.5 1-6.5 1-.5-1-.5-1h-.5-.5l.5 2 .5 2 1 1 1 1 2-.5 2-.5h1 1 2 2l1 .5 1 .5" style="fill:#956142;stroke:#956142"/><g style="fill:#96747d;stroke:#96747d"><path d="m272 260l6-4 5 1 5 1 2-5.5 2-5.5h-4-4l-5.5 2.5-5.5 2.5-3.5 1.5-3.5 1.5 3 2.5 3 2.5"/><path d="m291 260l3 1 1-1 1-1 1-1.5 1-1.5.5-1.5.5-1.5.5-1 .5-1h-1-1l-1 1.5-1 1.5-1.5-.5-1.5-.5-1 1-1 1v2.5 2.5"/></g><path d="m575 260l9-3 2-2 2-2 7 .5 7 .5 4.5-.5 4.5-.5h4 4l4.5-1.5 4.5-1.5 2.5 1.5 2.5 1.5 5-2 5-2 4-1.5 4-1.5 4-1 4-1 2 2 2 2 5.5-1.5 5.5-1.5 6-1 6-1 8.5-2 8.5-2 3.5 3.5 3.5 3.5 1-1 1-1v-1.5-1.5-2-2-2.5-2.5-1-1l-7.5 2.5-7.5 2.5h-9-9l-8.5 1-8.5 1-7.5-.5-7.5-.5-7.5 1.5-7.5 1.5-7.5.5-7.5.5h-8-8-8-8l-11.5.5-11.5.5-.5-1-.5-1-1-1-1-1h-.5-.5l6 6.5 6 6.5 2.5 5 2.5 5" style="fill:#745147;stroke:#745147"/><path d="m136 257l13-2 5.5-.5 5.5-.5h8 8l11-2 11-2h2 2l.5-.5.5-.5 1-1 1-1h-1.5-1.5l-1.5.5-1.5.5-2-.5-2-.5-1.5.5-1.5.5h-2.5-2.5-2-2l-2 .5-2 .5h-2-2-3-3-1.5-1.5-1.5-1.5l-1.5.5-1.5.5h-1-1-1.5-1.5-2-2-1.5-1.5l-1 .5-1 .5h-2-2-1.5-1.5-2.5-2.5l.5 2 .5 2 .5 1 .5 1" style="fill:#b48469;stroke:#b48469"/><path d="m540 257l2-11v-5-5l-2.5-5.5-2.5-5.5h-3.5-3.5l.5 1 .5 1 .5 1 .5 1 .5 1 .5 1-.5 1.5-.5 1.5-1 1.5-1 1.5.5 1.5.5 1.5.5 1.5.5 1.5v1 1l1 1 1 1h1.5 1.5 1 1l.5-.5.5-.5-.5 1-.5 1-.5.5-.5.5-.5.5-.5.5-.5.5-.5.5-1 1-1 1-1 .5-1 .5v1 1h2 2 1.5 1.5l.5.5.5.5" style="fill:#785f6a;stroke:#785f6a"/><path d="m133 254v1h.5.5.5.5l-.5-2-.5-2h2.5 2.5v-.5-.5l1-.5 1-.5-1.5-.5-1.5-.5-1.5-.5-1.5-.5-1 1.5-1 1.5-.5-1.5-.5-1.5 1.5-1 1.5-1h2.5 2.5v-.5-.5h1.5 1.5v-1-1l-1-.5-1-.5h-2-2-1-1l-1-1.5-1-1.5-.5-1.5-.5-1.5v-1-1-.5-.5-1.5-1.5-2-2-1.5-1.5l.5-1.5.5-1.5h1.5 1.5 2 2v-1.5-1.5l-1 .5-1 .5-.5.5-.5.5-1-.5-1-.5h-1-1-1-1v-2-2l-.5-1.5-.5-1.5-.5 10-.5 10 .5 11 .5 11h.5.5l1 1 1 1" style="fill:#564249;stroke:#564249"/><path d="m129 251l1 1-.5-11-.5-11 .5-10 .5-10-.5-10-.5-10v-8-8l-.5-5.5-.5-5.5 3-7 3-7-.5-5.5-.5-5.5-.5-.5-.5-.5-1-1-1-1-.5.5-.5.5h-1-1v-1-1l.5-1 .5-1v-1-1-1-1l1-.5 1-.5 1-1 1-1-.5-.5-.5-.5.5-1 .5-1-.5-1.5-.5-1.5.5-.5.5-.5h1.5 1.5l-3-3-3-3-2.5-6.5-2.5-6.5 2.5-17 2.5-17-1 .5-1 .5v1.5 1.5h-1.5-1.5v-1-1l.5-.5.5-.5-.5-.5-.5-.5-1-.5-1-.5v-1-1l.5-.5.5-.5-.5-.5-.5-.5v-1.5-1.5l.5-.5.5-.5.5-.5.5-.5.5-.5.5-.5-.5-2-.5-2-.5-1.5-.5-1.5-1-1.5-1-1.5-.5-1.5-.5-1.5-.5-1.5-.5-1.5-.5-2-.5-2-.5-1.5-.5-1.5-.5-1-.5-1 2.5 19.5 2.5 19.5v9.5 9.5l.5 9.5.5 9.5 1.5 9.5 1.5 9.5v10 10 11 11l.5 10 .5 10 1 10 1 10v11 11l.5 11 .5 11" style="fill:#2b1e1c;stroke:#2b1e1c"/><path d="m239 251l5-9v-1-1l-3.5 1-3.5 1 1 3 1 3v1.5 1.5" style="fill:#96747d;stroke:#96747d"/><path d="m139 250v1h1.5 1.5 2 2l1-.5 1-.5v-.5-.5l9.5-1 9.5-1 2.5.5 2.5.5-1.5.5-1.5.5h3 3 2 2l2-.5 2-.5h2 2 2.5 2.5l1.5-.5 1.5-.5 2 .5 2 .5 1.5-.5 1.5-.5h1.5 1.5l.5-.5.5-.5v-.5-.5l-1.5-2-1.5-2-10.5 1-10.5 1h-11-11l1.5-2.5 1.5-2.5 10.5-1.5 10.5-1.5-10 .5-10 .5-10 .5-10 .5 1.5 1 1.5 1 1 1 1 1 .5 1 .5 1-1.5.5-1.5.5-1.5.5-1.5.5h-2-2-2.5-2.5l-1.5 1-1.5 1 .5 1.5.5 1.5 1-1.5 1-1.5 1.5.5 1.5.5 1.5.5 1.5.5-1 .5-1 .5" style="fill:#b28282;stroke:#b28282"/><path d="m424 250h2l1-1 1-1v-1.5-1.5l1-.5 1-.5-.5-1-.5-1-2-.5-2-.5 1 1 1 1-1.5.5-1.5.5-1-1.5-1-1.5-1.5.5-1.5.5-1 .5-1 .5-1.5-.5-1.5-.5v1 1l.5 1 .5 1h1 1l1.5.5 1.5.5 1 .5 1 .5 1 1 1 1" style="fill:#564249;stroke:#564249"/><path d="m148 249v1h1.5 1.5 2 2 1.5 1.5 1 1l1.5-.5 1.5-.5h1.5 1.5 1.5 1.5l1.5-.5 1.5-.5-2.5-.5-2.5-.5-9.5 1-9.5 1" style="fill:#f8b04b;stroke:#f8b04b"/><path d="m484 249l14-3 4.5-2.5 4.5-2.5 6 3.5 6 3.5 1-.5 1-.5 1.5-.5 1.5-.5h1.5 1.5v-2-2l1 .5 1 .5 1 2 1 2 .5-1 .5-1v-1-1l-.5-1.5-.5-1.5-.5-1.5-.5-1.5 1-1.5 1-1.5.5-1.5.5-1.5-.5-1-.5-1-.5-1-.5-1-.5-1-.5-1v-1-1l1-1 1-1v-1.5-1.5h-1-1l-.5-1-.5-1 .5-.5.5-.5v-1-1h-1-1l-.5 1.5-.5 1.5-.5-1.5-.5-1.5-1-1.5-1-1.5-1.5-.5-1.5-.5-1.5.5-1.5.5h1.5 1.5l-.5 1.5-.5 1.5h-1.5-1.5l-1 1-1 1-1 2.5-1 2.5 1 .5 1 .5-.5 1.5-.5 1.5-1.5.5-1.5.5-1 1-1 1-2 .5-2 .5-.5 1.5-.5 1.5h1.5 1.5l-.5 1.5-.5 1.5h-1.5-1.5l-.5-1.5-.5-1.5v-1-1l-.5-1.5-.5-1.5-8-3-8-3-4.5 4.5-4.5 4.5h-6-6l-3 1.5-3 1.5-5.5-.5-5.5-.5-6.5-1.5-6.5-1.5-4.5-1.5-4.5-1.5-4 2-4 2-5.5 6-5.5 6h2 2 1 1l1 .5 1 .5 1.5.5 1.5.5 1-.5 1-.5 1.5-.5 1.5-.5 1 1.5 1 1.5 1.5-.5 1.5-.5-1-1-1-1 2 .5 2 .5.5 1 .5 1 11-.5 11-.5h8 8l8 3 8 3" style="fill:#745147;stroke:#745147"/><path d="m206 245v1l-.5-6-.5-6-7.5-2-7.5-2-12 2-12 2-8.5-.5-8.5-.5-8.5 1-8.5 1 .5 1.5.5 1.5 1-1 1-1 1.5.5 1.5.5 1.5.5 1.5.5 1.5-.5 1.5-.5 10-.5 10-.5 10-.5 10-.5 1-.5 1-.5h1.5 1.5 2 2 1.5 1.5 1 1 2 2v1.5 1.5l1 1 1 1-.5 1-.5 1 1.5 2 1.5 2" style="fill:#96747d;stroke:#96747d"/><g style="fill:#b48469;stroke:#b48469"><path d="m140 244v1h2 2l1.5-.5 1.5-.5 1.5-.5 1.5-.5-.5-1-.5-1-1-1-1-1-1.5-1-1.5-1-1.5.5-1.5.5-1.5-.5-1.5-.5-1.5-.5-1.5-.5-1 1-1 1 1 1.5 1 1.5h1 1 2 2l1 .5 1 .5v1 1h-1.5-1.5"/><path d="m160 243h22l10.5-1 10.5-1 .5-1 .5-1-1-1-1-1v-1.5-1.5h-2-2-1-1-1.5-1.5-2-2-1.5-1.5l-1 .5-1 .5-10.5 1.5-10.5 1.5-1.5 2.5-1.5 2.5"/></g><path d="m388 242l16-4 .5-3.5.5-3.5-4 1.5-4 1.5-3-6-3-6-3 2-3 2 .5 7.5.5 7.5 1 .5 1 .5" style="fill:#745147;stroke:#745147"/><g style="fill:#956142;stroke:#956142"><path d="m562 241l23-1h8 8 8 8l7.5-.5 7.5-.5 7.5-1.5 7.5-1.5 7.5.5 7.5.5 8.5-1 8.5-1h9 9l7.5-2.5 7.5-2.5v-2-2l-3.5-4.5-3.5-4.5-2.5-.5-2.5-.5-9 .5-9 .5-7.5.5-7.5.5-7.5 2.5-7.5 2.5-7.5-1.5-7.5-1.5h-8-8-8-8-8.5-8.5l-13.5 1.5-13.5 1.5.5.5.5.5 4 4 4 4 8.5.5 8.5.5 8-1.5 8-1.5h10 10l8.5.5 8.5.5 1.5 1.5 1.5 1.5-10 1-10 1-10 .5-10 .5-10.5.5-10.5.5-9.5.5-9.5.5h-1-1l.5 1 .5 1"/><path d="m524 239l-4-6-.5-.5-.5-.5 2.5 3.5 2.5 3.5"/></g><path d="m563 239l19-1 10.5-.5 10.5-.5 10-.5 10-.5 10-1 10-1-1.5-1.5-1.5-1.5-8.5-.5-8.5-.5h-10-10l-8 1.5-8 1.5-8.5-.5-8.5-.5-4-4-4-4-.5 1.5-.5 1.5.5.5.5.5-.5 1-.5 1 1 1 1 1 .5.5.5.5h1.5 1.5l1 1 1 1h-1-1l-.5.5-.5.5h-1-1l-1 .5-1 .5-.5-.5-.5-.5-.5-.5-.5-.5-.5 1-.5 1 1 1 1 1h1 1" style="fill:#b48469;stroke:#b48469"/><path d="m557 236v1h.5.5.5.5l.5-1 .5-1 .5.5.5.5.5.5.5.5 1-.5 1-.5h1 1l.5-.5.5-.5h1 1l-1-1-1-1h-1.5-1.5l-.5-.5-.5-.5-1-1-1-1 .5-1 .5-1-.5-.5-.5-.5.5-1.5.5-1.5-.5-.5-.5-.5-.5 2-.5 2v1 1 1.5 1.5l-1 .5-1 .5.5-1.5.5-1.5-.5-1-.5-1 .5-1.5.5-1.5v-1-1l.5-.5.5-.5-.5-.5-.5-.5v-1.5-1.5l.5-1.5.5-1.5v-.5-.5l-.5-1-.5-1-.5 1.5-.5 1.5v2 2 1.5 1.5l-.5.5-.5.5v2 2 1.5 1.5 1 1 2 2" style="fill:#b28282;stroke:#b28282"/><path d="m356 235h3l1-.5 1-.5v-1-1-2-2-1.5-1.5l.5-1 .5-1h-1-1-1-1l-.5 1-.5 1-1.5-.5-1.5-.5 1 1 1 1 .5.5.5.5-.5 1-.5 1v1 1l.5-.5.5-.5.5.5.5.5-.5 1-.5 1-.5 1-.5 1" style="fill:#635162;stroke:#635162"/><path d="m503 234h3l.5-1.5.5-1.5h-1.5-1.5l.5-1.5.5-1.5 2-.5 2-.5 1-1 1-1 1.5-.5 1.5-.5.5-1.5.5-1.5-1-.5-1-.5-.5-.5-.5-.5 1-3 1-3-2.5-5.5-2.5-5.5h3 3l2.5-4 2.5-4 3.5-3.5 3.5-3.5-3-4-3-4 2-6 2-6-1-7-1-7-1-3.5-1-3.5 3-6 3-6-.5-4.5-.5-4.5-.5-5.5-.5-5.5-.5-6.5-.5-6.5-.5-5-.5-5v-8-8l-5-2-5-2 4.5-6 4.5-6v-.5-.5l-3-5-3-5 2-3 2-3-2.5-2.5-2.5-2.5-4.5 3-4.5 3-11-2-11-2-.5 1.5-.5 1.5 1 1 1 1 1.5 1 1.5 1-.5 1.5-.5 1.5h-1-1v-1.5-1.5l-1.5.5-1.5.5-1.5-1-1.5-1-1-1-1-1-1-2.5-1-2.5.5 8 .5 8 1 8 1 8-.5 4.5-.5 4.5-4 3.5-4 3.5-2.5-6.5-2.5-6.5-.5-6.5-.5-6.5-3 5-3 5-6 4-6 4-5-2-5-2 1 2.5 1 2.5-.5 3.5-.5 3.5-6 5.5-6 5.5-3.5-5-3.5-5 2-3 2-3 1-8.5 1-8.5v-.5-.5l-1-.5-1-.5-.5-1-.5-1 .5-2 .5-2v-2-2-2-2l1-.5 1-.5v-1.5-1.5l1-1 1-1 1-1 1-1 1.5 1 1.5 1 1 5 1 5 3 4 3 4 3.5-6 3.5-6 1-.5 1-.5 1-1 1-1h1 1l.5-.5.5-.5 1.5.5 1.5.5-.5-1-.5-1h-1-1-1-1l-.5-1-.5-1-.5-.5-.5-.5v-1-1l-.5-.5-.5-.5 1-.5 1-.5h1 1 1 1 1 1l.5.5.5.5 1.5.5 1.5.5.5 1 .5 1h1 1l.5-1.5.5-1.5-1-1.5-1-1.5 1-1 1-1h1 1l.5-1 .5-1 2-.5 2-.5 1.5.5 1.5.5.5 1.5.5 1.5.5 2 .5 2 1.5-1 1.5-1-.5-1.5-.5-1.5v-1-1l-1-.5-1-.5-1-1-1-1-.5-.5-.5-.5-1-.5-1-.5h-1-1-1-1l-1-.5-1-.5-1.5-.5-1.5-.5-1.5 1-1.5 1v1 1 1 1l-1 1.5-1 1.5-1.5-.5-1.5-.5-1-1.5-1-1.5 1-1 1-1v-1-1l.5-1 .5-1h-1.5-1.5l-1-.5-1-.5h-1.5-1.5l1-1 1-1 .5-2 .5-2 .5-.5.5-.5 1-1.5 1-1.5-.5-1-.5-1h-4.5-4.5l-4.5.5-4.5.5-4 2.5-4 2.5-1.5 1.5-1.5 1.5.5 1 .5 1h1 1l1 .5 1 .5 1.5.5 1.5.5v2.5 2.5l1 1 1 1 7-3 7-3 .5 4.5.5 4.5-3.5 6-3.5 6-.5-1-.5-1-1-.5-1-.5-1-1-1-1h-1-1l-.5-1-.5-1-.5-1.5-.5-1.5h-1-1-1.5-1.5l-.5.5-.5.5h-1-1l-.5-1-.5-1-1.5.5-1.5.5-1-1.5-1-1.5-1.5-.5-1.5-.5-2-.5-2-.5-5.5 8.5-5.5 8.5-2.5 1.5-2.5 1.5h2.5 2.5l5-2 5-2 .5 3.5.5 3.5-4 5-4 5-3.5-1.5-3.5-1.5-6.5 1-6.5 1v2 2l6 3 6 3-4.5 4.5-4.5 4.5-2 2.5-2 2.5v.5.5l-.5 1-.5 1v1.5 1.5l1 1 1 1h1.5 1.5l.5.5.5.5v1 1l-1 .5-1 .5.5.5.5.5.5.5.5.5v1 1 1 1l-1 .5-1 .5-.5 1.5-.5 1.5h1 1l1 3 1 3-.5 6.5-.5 6.5 8 .5 8 .5-1.5 1.5-1.5 1.5 1.5 3.5 1.5 3.5-1.5 3.5-1.5 3.5 5-3 5-3 3.5 3.5 3.5 3.5.5-2.5.5-2.5-.5-2-.5-2 2-3.5 2-3.5-2-2.5-2-2.5 1-5.5 1-5.5 2 1 2 1 3.5-1.5 3.5-1.5 1.5-3.5 1.5-3.5 1-2 1-2 .5 6 .5 6 .5.5.5.5 7.5-1.5 7.5-1.5 7.5 1.5 7.5 1.5-.5 4.5-.5 4.5 4 3.5 4 3.5-2.5 1.5-2.5 1.5 1 2 1 2 5.5 1.5 5.5 1.5-2 4-2 4-2.5-2.5-2.5-2.5-1 1.5-1 1.5-1.5 3.5-1.5 3.5-2 1-2 1-2 1-2 1-5 2-5 2 1 2.5 1 2.5-4.5-2.5-4.5-2.5-2 7-2 7-3-8-3-8-2-3-2-3-2 2-2 2-1.5 3.5-1.5 3.5-6 .5-6 .5 4-2 4-2-9-8.5-9-8.5-.5 1-.5 1h-1-1l-.5 1.5-.5 1.5-1.5-.5-1.5-.5 1.5-1.5 1.5-1.5-1-1-1-1-1 1-1 1v1 1l-1 .5-1 .5.5-1.5.5-1.5-.5-.5-.5-.5.5-1 .5-1 1-1 1-1h-1-1l-1.5.5-1.5.5-2.5 8-2.5 8v4.5 4.5l1 1 1 1-.5 2-.5 2v1.5 1.5l3.5 7.5 3.5 7.5-.5 5.5-.5 5.5 1.5 3.5 1.5 3.5 5 1 5 1 4.5 1 4.5 1 6.5-.5 6.5-.5 4-1 4-1 6 1.5 6 1.5-4-8-4-8 1-2 1-2 3.5-3 3.5-3 2.5 3.5 2.5 3.5 2.5 8.5 2.5 8.5 5 .5 5 .5h4 4l5.5-2.5 5.5-2.5 2.5-1.5 2.5-1.5 4.5.5 4.5.5 2 5 2 5-3 2-3 2 2.5 4 2.5 4 .5 1.5.5 1.5v1 1l.5 1.5.5 1.5" style="fill:#5f3c2f;stroke:#5f3c2f"/><g style="fill:#745147;stroke:#745147"><path d="m558 233l2-1v-1.5-1.5-1-1l.5-2 .5-2 13.5-1.5 13.5-1.5h8.5 8.5 8 8 8 8l7.5 1.5 7.5 1.5 7.5-2.5 7.5-2.5 7.5-.5 7.5-.5 9-.5 9-.5 2.5.5 2.5.5 3.5 4.5 3.5 4.5v-2-2-2.5-2.5-2-2-2.5-2.5-2-2-2.5-2.5-.5-.5l-5 1-5 1h-6-6l-7 .5-7 .5-6.5.5-6.5.5-4.5-1.5-4.5-1.5-5-1-5-1-2 3-2 3-3.5-.5-3.5-.5-6-.5-6-.5-3-1-3-1-2.5-.5-2.5-.5-3.5-.5-3.5-.5-5.5 2.5-5.5 2.5-8 .5-8 .5-2.5-6.5-2.5-6.5-2-3-2-3 4.5.5 4.5.5 6.5-1.5 6.5-1.5.5-2.5.5-2.5-2-4.5-2-4.5-6.5 2.5-6.5 2.5-2.5-.5-2.5-.5 1.5-5.5 1.5-5.5-4-4-4-4-1 10.5-1 10.5 1.5 12 1.5 12v1 1h-1-1l-.5.5-.5.5.5 1 .5 1 .5.5.5.5.5.5.5.5v1 1l-1 .5-1 .5v1 1l-.5.5-.5.5v1 1l-.5 1-.5 1-.5 1.5-.5 1.5v1.5 1.5l.5.5.5.5-.5.5-.5.5v1 1l-.5 1.5-.5 1.5.5 1 .5 1-.5 1.5-.5 1.5"/><path d="m132 232v1l10-2 10-2h6 6l1.5-2.5 1.5-2.5 6.5-2 6.5-2h6 6l5.5-3.5 5.5-3.5v-8-8l-.5-8.5-.5-8.5-.5-9-.5-9-.5-8.5-.5-8.5-1-10-1-10-.5-9.5-.5-9.5-1.5-5.5-1.5-5.5v-9-9l.5-10 .5-10-.5-.5-.5-.5-2-9-2-9-8.5 1.5-8.5 1.5-7.5 3-7.5 3-7.5-2.5-7.5-2.5-10.5-4-10.5-4-1-.5-1-.5 6 6 6 6 4 1 4 1 2.5 4.5 2.5 4.5 7 1 7 1 3 2 3 2 3.5-3 3.5-3h1 1l4-1 4-1 2.5-3.5 2.5-3.5 1 7 1 7 1 5.5 1 5.5-1.5 7.5-1.5 7.5-4 1-4 1v-3-3l-2-6-2-6-2.5-2-2.5-2-4 2-4 2-3.5.5-3.5.5v3 3l1 4 1 4-3 4-3 4-9 .5-9 .5 5 4 5 4h7 7l4 1 4 1 2.5.5 2.5.5 3.5 1 3.5 1 3.5-2.5 3.5-2.5 4-1 4-1 1 13.5 1 13.5 1 1.5 1 1.5v2.5 2.5l.5 1.5.5 1.5v2 2l-.5 2-.5 2 .5 1.5.5 1.5-.5 1.5-.5 1.5v2.5 2.5l.5 1.5.5 1.5v1.5 1.5 2.5 2.5l.5 1.5.5 1.5-1 1-1 1-1.5 1-1.5 1-.5 1-.5 1-2-.5-2-.5h-5.5-5.5l-.5-1.5-.5-1.5-5.5.5-5.5.5-4.5 1.5-4.5 1.5-5.5 3.5-5.5 3.5-3.5-1-3.5-1 2.5 5.5 2.5 5.5 6.5 2.5 6.5 2.5 1 4 1 4-9.5 4.5-9.5 4.5v1.5 1.5h-2-2-1.5-1.5l-.5 1.5-.5 1.5v1.5 1.5 2 2 1.5 1.5"/><path d="m232 232l17-7 5.5.5 5.5.5h6 6l5.5-.5 5.5-.5 6-2.5 6-2.5 6 1 6 1 6-1 6-1 3.5 1.5 3.5 1.5h4 4l10 .5 10 .5 1.5.5 1.5.5.5-1 .5-1h1 1 1 1v-.5-.5l-1-1-1-1-8.5-1-8.5-1-8-1-8-1-8.5.5-8.5.5-9 .5-9 .5-9 1-9 1-9.5.5-9.5.5-13.5 1-13.5 1 2-2 2-2 9.5-.5 9.5-.5 8.5-.5 8.5-.5 19-2 19-2-12 .5-12 .5-10.5.5-10.5.5-19 1.5-19 1.5-1.5 1-1.5 1-.5 1-.5 1v1 1h1 1 1 1l1 .5 1 .5.5.5.5.5.5.5.5.5-.5.5-.5.5.5 1 .5 1h1 1l.5.5.5.5 1 .5 1 .5"/></g><path d="m652 232h22 10 10l7-2.5 7-2.5h-9-9l-10 1-10 1-9 1.5-9 1.5" style="fill:#b48469;stroke:#b48469"/><path d="m190 229v1l1.5-4.5 1.5-4.5-1.5 4-1.5 4" style="fill:#745147;stroke:#745147"/><path d="m228 223l27-2 9.5-.5 9.5-.5 9-1 9-1 9-.5 9-.5 8.5-.5 8.5-.5 8 1 8 1 8.5 1 8.5 1 1.5-12 1.5-12-1.5-9.5-1.5-9.5-2-9-2-9-1.5 10-1.5 10v1 1l-.5 1.5-.5 1.5v1.5 1.5 1 1l-.5.5-.5.5v1 1 2 2l-.5 1-.5 1v1 1 2 2 2 2l-10 2-10 2-12 .5-12 .5-19 2-19 2-8.5.5-8.5.5-9.5.5-9.5.5-2 2-2 2" style="fill:#564249;stroke:#564249"/><path d="m451 223h2v-2-2l.5-2 .5-2-.5-1.5-.5-1.5 1-1 1-1-2.5-8.5-2.5-8.5-2.5-3.5-2.5-3.5-3.5 3-3.5 3-1 2-1 2 4 8 4 8 .5 1.5.5 1.5.5 1.5.5 1.5v2 2l2.5.5 2.5.5" style="fill:#3d2f36;stroke:#3d2f36"/><path d="m554 220l2-18 .5-8.5.5-8.5v-10.5-10.5-10-10l.5-9.5.5-9.5-.5-8.5-.5-8.5.5-8.5.5-8.5-.5-8.5-.5-8.5-1-.5-1-.5-.5 9.5-.5 9.5v10 10 9 9l.5 8.5.5 8.5-1.5 10-1.5 10 .5 9.5.5 9.5.5 9.5.5 9.5v7.5 7.5" style="fill:#2b1e1c;stroke:#2b1e1c"/><path d="m512 219l1 1 1-2.5 1-2.5 1-1 1-1h1.5 1.5l.5-1.5.5-1.5h-1.5-1.5l1.5-.5 1.5-.5 1.5.5 1.5.5 1 1.5 1 1.5.5 1.5.5 1.5.5-1.5.5-1.5 1-1.5 1-1.5v-2-2-1.5-1.5l-.5-1.5-.5-1.5-.5-2-.5-2 .5-1.5.5-1.5v-1.5-1.5l.5-1.5.5-1.5v-.5-.5l-.5-10-.5-10 .5-8.5.5-8.5v-9-9-9-9-9.5-9.5l1-9 1-9-1-14.5-1-14.5-.5-1.5-.5-1.5-1.5.5-1.5.5.5 2 .5 2-1 1-1 1v1.5 1.5l-1.5.5-1.5.5 1 1 1 1-1 1-1 1-4.5 6-4.5 6 5 2 5 2v8 8l.5 5 .5 5 .5 6.5.5 6.5.5 5.5.5 5.5.5 4.5.5 4.5-3 6-3 6 1 3.5 1 3.5 1 7 1 7-2 6-2 6 3 4 3 4-3.5 3.5-3.5 3.5-2.5 4-2.5 4h-3-3l2.5 5.5 2.5 5.5-1 3-1 3" style="fill:#564249;stroke:#564249"/><path d="m213 218h2 2.5 2.5 1.5 1.5l19-1.5 19-1.5 10.5-.5 10.5-.5 12-.5 12-.5v-.5-.5h2.5 2.5 2 2l2-.5 2-.5h2 2v-.5-.5h2 2l-1.5-.5-1.5-.5h-2-2l-10 1.5-10 1.5-9.5.5-9.5.5-9.5.5-9.5.5-14 .5-14 .5h-1-1l-1 .5-1 .5-1-.5-1-.5h-2-2-1-1l-1-4-1-4 7.5-1.5 7.5-1.5 8.5-1.5 8.5-1.5 4-5.5 4-5.5-1-9-1-9-7-3-7-3 3.5-1.5 3.5-1.5 8.5-1.5 8.5-1.5 9-2 9-2 8.5-1 8.5-1 8.5-.5 8.5-.5 11.5-2.5 11.5-2.5-2.5.5-2.5.5-2-.5-2-.5h-1.5-1.5-2.5-2.5l-1.5.5-1.5.5-2 .5-2 .5h-2-2l-2 .5-2 .5h-2-2l-2 .5-2 .5-2.5.5-2.5.5-3 .5-3 .5-1.5.5-1.5.5h-2.5-2.5-1.5-1.5l-9.5 2-9.5 2-9.5 1.5-9.5 1.5-13 1.5-13 1.5.5-3 .5-3 8.5-1.5 8.5-1.5 8.5-1.5 8.5-1.5 16-1.5 16-1.5 9.5-1.5 9.5-1.5 16-2 16-2 14.5-5.5 14.5-5.5h3 3l1-7.5 1-7.5v-5-5-4-4l-7-1-7-1-6.5-3.5-6.5-3.5-5 .5-5 .5-6.5 2.5-6.5 2.5-6.5.5-6.5.5-4.5 2.5-4.5 2.5-6.5 1-6.5 1-4.5.5-4.5.5-3.5 2.5-3.5 2.5-7 1-7 1-3.5 2.5-3.5 2.5-6-1.5-6-1.5-4 3-4 3-6-1-6-1-3-4-3-4-6.5-1.5-6.5-1.5.5 7 .5 7 3.5 3.5 3.5 3.5-2.5 3.5-2.5 3.5 1 6 1 6-.5 6.5-.5 6.5 2.5 8 2.5 8 2.5 6.5 2.5 6.5-2.5-4.5-2.5-4.5-1 6-1 6 2 6 2 6 1.5 7 1.5 7" style="fill:#96747d;stroke:#96747d"/><path d="m131 217h2 1 1l1 .5 1 .5.5-.5.5-.5 1-.5 1-.5 9.5-4.5 9.5-4.5-1-4-1-4-6.5-2.5-6.5-2.5-2.5-5.5-2.5-5.5 3.5 1 3.5 1 5.5-3.5 5.5-3.5 4.5-1.5 4.5-1.5 5.5-.5 5.5-.5.5 1.5.5 1.5h5.5 5.5l2 .5 2 .5v-.5-.5l-.5-1.5-.5-1.5-.5-1.5-.5-1.5h1 1l1-.5 1-.5h1 1l-.5-.5-.5-.5.5-1 .5-1-.5-1.5-.5-1.5 1-1.5 1-1.5-.5-1.5-.5-1.5v-2.5-2.5-.5-.5-1.5-1.5l-.5-1.5-.5-1.5-.5-1.5-.5-1.5v-1.5-1.5l.5-1.5.5-1.5-1-1.5-1-1.5.5-1.5.5-1.5v-1.5-1.5l-1-13.5-1-13.5-4 1-4 1-3.5 2.5-3.5 2.5-3.5-1-3.5-1-2.5-.5-2.5-.5-4-1-4-1h-7-7l-5-4-5-4 9-.5 9-.5 3-4 3-4-1-4-1-4v-3-3l3.5-.5 3.5-.5 4-2 4-2 2.5 2 2.5 2 2 6 2 6v3 3l4-1 4-1 1.5-7.5 1.5-7.5-1-5.5-1-5.5-1-7-1-7-2.5 3.5-2.5 3.5-4 1-4 1h-1-1l-3.5 3-3.5 3-3-2-3-2-7-1-7-1-2.5-4.5-2.5-4.5-4-1-4-1-6-6-6-6v-1-1l-.5-.5-.5-.5v-1.5-1.5l.5-1 .5-1-.5-.5-.5-.5v-1-1l-.5-.5-.5-.5v-1-1l-.5-1-.5-1v-.5-.5l1-1 1-1v-.5-.5l.5-1 .5-1 1-.5 1-.5 1-1.5 1-1.5 1.5-.5 1.5-.5.5-1.5.5-1.5 1-1.5 1-1.5h-2.5-2.5-2.5-2.5-1-1l-.5 2.5-.5 2.5v2.5 2.5 2 2l-.5 2-.5 2v2 2 3.5 3.5l.5 1 .5 1 .5 1.5.5 1.5.5 2 .5 2 .5 1.5.5 1.5.5 1.5.5 1.5 1 1.5 1 1.5.5 1.5.5 1.5 1 1 1 1v1 1l1 .5 1 .5-.5.5-.5.5-.5.5-.5.5v1 1 1 1l-.5 1-.5 1 .5.5.5.5 1.5.5 1.5.5-2.5 17-2.5 17 2.5 6.5 2.5 6.5 3 3 3 3v1.5 1.5l-.5.5-.5.5.5 1 .5 1 1 1 1 1-.5 1-.5 1v1 1l-1 1.5-1 1.5-.5 2.5-.5 2.5.5 5.5.5 5.5-3 7-3 7 .5 5.5.5 5.5v8 8l.5 10 .5 10 .5 1.5.5 1.5v2 2" style="fill:#5f3c2f;stroke:#5f3c2f"/><path d="m222 215h2 2 2l1 .5 1 .5 1-.5 1-.5 10-1.5 10-1.5 5-1.5 5-1.5 4.5-4.5 4.5-4.5 7 3 7 3h6 6l11.5 1.5 11.5 1.5 1.5-.5 1.5-.5h1 1 1.5 1.5l.5-.5.5-.5.5.5.5.5.5-.5.5-.5h1 1l1-.5 1-.5h1 1l.5.5.5.5.5-.5.5-.5h1.5 1.5l1 .5 1 .5 2.5-9 2.5-9 1-9.5 1-9.5.5-11 .5-11h-2.5-2.5-2-2l-11.5 2.5-11.5 2.5-8.5.5-8.5.5-8.5 1-8.5 1-9 2-9 2-8.5 1.5-8.5 1.5-3.5 1.5-3.5 1.5 7 3 7 3 1 9 1 9-4 5.5-4 5.5-8.5 1.5-8.5 1.5-7.5 1.5-7.5 1.5 1 4 1 4" style="fill:#a085a3;stroke:#a085a3"/><path d="m234 215l28-1 9.5-.5 9.5-.5 9.5-.5 9.5-.5 10-1.5 10-1.5-11.5-1.5-11.5-1.5h-6-6l-7-3-7-3-4.5 4.5-4.5 4.5-5 1.5-5 1.5-10 1.5-10 1.5h1 1" style="fill:#b28282;stroke:#b28282"/><g style="fill:#564249;stroke:#564249"><path d="m190 214l10-8-4.5-3.5-4.5-3.5 2-3.5 2-3.5-4 4-4 4-3 3-3 3 4.5 4 4.5 4"/><path d="m560 214v1l.5-1 .5-1v-1-1l.5-.5.5-.5v-1-1l1-.5 1-.5v-1-1l-.5-.5-.5-.5-.5-.5-.5-.5-.5-1-.5-1 .5-.5.5-.5h1 1v-1-1h-1.5-1.5l-1 .5-1 .5v1.5 1.5 1.5 1.5l-.5.5-.5.5v1 1l.5.5.5.5v1.5 1.5l.5 1 .5 1"/></g><path d="m306 212v1l12-.5 12-.5 10-2 10-2-1.5.5-1.5.5h-1.5-1.5l-1.5.5-1.5.5h-3.5-3.5l-1 .5-1 .5h-1-1-1-1-1-1-1.5-1.5-2-2l-2 .5-2 .5h-2-2-2.5-2.5" style="fill:#745147;stroke:#745147"/><path d="m351 212l11-9-1.5-8.5-1.5-8.5-.5-9-.5-9-1.5 8.5-1.5 8.5-1.5 8.5-1.5 8.5-.5 5-.5 5" style="fill:#3d2f36;stroke:#3d2f36"/><path d="m323 210v1h1.5 1.5 1 1 1 1 1 1l1-.5 1-.5-2.5-.5-2.5-.5h1.5 1.5l1.5-.5 1.5-.5h2.5 2.5l2-.5 2-.5-1-.5-1-.5h-1.5-1.5l-.5.5-.5.5-.5-.5-.5-.5h-1-1l-1 .5-1 .5h-1-1l-.5.5-.5.5-.5-.5-.5-.5-.5.5-.5.5h-1.5-1.5-1-1l-1.5.5-1.5.5h2 2l1.5.5 1.5.5h-2-2" style="fill:#b28282;stroke:#b28282"/><path d="m353 210l3 1 1.5-.5 1.5-.5 1-1.5 1-1.5-.5-1.5-.5-1.5-1-1.5-1-1.5-1-1-1-1-1 1.5-1 1.5-.5 1.5-.5 1.5v2 2 .5.5" style="fill:#2b1e1c;stroke:#2b1e1c"/><path d="m329 209l5 1h3.5 3.5l1.5-.5 1.5-.5h1.5 1.5l2-10 2-10 .5-10.5.5-10.5v-10-10l-.5 11-.5 11-1 9.5-1 9.5-2.5 9-2.5 9-2 .5-2 .5h-2.5-2.5l-1.5.5-1.5.5h-1.5-1.5" style="fill:#96747d;stroke:#96747d"/><path d="m542 209l4-12 1-7.5 1-7.5v-9-9l.5-8.5.5-8.5-.5-7.5-.5-7.5.5-9.5.5-9.5v-9.5-9.5l.5-9.5.5-9.5.5-9.5.5-9.5v-1-1l-.5-.5-.5-.5v-10.5-10.5l-.5-16-.5-16h-1.5-1.5-2.5-2.5-2-2-2-2-1-1v1.5 1.5.5.5l.5 1.5.5 1.5v1 1l-1 .5-1 .5v2 2 1 1l.5.5.5.5.5.5.5.5-1 .5-1 .5v1.5 1.5l.5 1 .5 1-.5 1-.5 1 1 9 1 9 1 9 1 9-.5 9.5-.5 9.5v7 7l-.5 9.5-.5 9.5v10 10l-.5 10-.5 10-.5 16.5-.5 16.5 1 8.5 1 8.5 5 2.5 5 2.5" style="fill:#785f6a;stroke:#785f6a"/><path d="m576 203l16-1 5.5-2.5 5.5-2.5 3.5.5 3.5.5 2.5.5 2.5.5 3 1 3 1 6 .5 6 .5 3.5.5 3.5.5 2-3 2-3 5 1 5 1 4.5 1.5 4.5 1.5 6.5-.5 6.5-.5 7-.5 7-.5h6 6l5-1 5-1v-12.5-12.5-11-11-11-11-11-11-11-11-11.5-11.5-10.5-10.5l-2-4.5-2-4.5-1-4-1-4-4-2-4-2-4.5 5-4.5 5-7 1-7 1-5.5-.5-5.5-.5-5 4-5 4-3.5-1.5-3.5-1.5-3 3-3 3-3 .5-3 .5-2.5 2.5-2.5 2.5-1.5-.5-1.5-.5-4.5 1.5-4.5 1.5-.5-5.5-.5-5.5-3 5.5-3 5.5-3-2-3-2-5.5-.5-5.5-.5h-1-1l-4.5-.5-4.5-.5-9.5 5-9.5 5-.5-1-.5-1-.5-1.5-.5-1.5 2-.5 2-.5-1-1-1-1-1-1.5-1-1.5v-1-1l-.5-1.5-.5-1.5.5-2 .5-2-.5-1.5-.5-1.5-.5-2-.5-2-.5-.5-.5-.5-.5-1-.5-1 .5 16 .5 16 .5 9.5.5 9.5v9.5 9.5 9 9l-.5 8.5-.5 8.5.5 7.5.5 7.5-.5 8.5-.5 8.5-.5 9.5-.5 9.5.5 9.5.5 9.5 1-.5 1-.5h1.5 1.5l-1.5-12-1.5-12 1-10.5 1-10.5 4 4 4 4-1.5 5.5-1.5 5.5 2.5.5 2.5.5 6.5-2.5 6.5-2.5 2 4.5 2 4.5-.5 2.5-.5 2.5-6.5 1.5-6.5 1.5-4.5-.5-4.5-.5 2 3 2 3 2.5 6.5 2.5 6.5" style="fill:#5f3c2f;stroke:#5f3c2f"/><path d="m220 202l22-2 7-3 7-3 .5-10 .5-10-8.5-.5-8.5-.5-8.5 1.5-8.5 1.5 5 1 5 1 7 4 7 4-6 4-6 4-3.5.5-3.5.5h-1.5-1.5l-3 .5-3 .5-2.5-4.5-2.5-4.5 3 7.5 3 7.5" style="fill:#785f6a;stroke:#785f6a"/><path d="m596 199l9-5-5.5-1.5-5.5-1.5 1 4 1 4" style="fill:#745147;stroke:#745147"/><path d="m245 197l10-12-2.5-5.5-2.5-5.5-5 1.5-5 1.5 5 4 5 4-3 6-3 6h.5.5" style="fill:#635162;stroke:#635162"/><path d="m583 195l7-7-5 3-5 3 1.5.5 1.5.5" style="fill:#745147;stroke:#745147"/><path d="m225 194v1h1.5 1.5l3.5-4 3.5-4-.5-2.5-.5-2.5-8.5-1.5-8.5-1.5 1.5 5.5 1.5 5.5 2.5 2 2.5 2" style="fill:#b28282;stroke:#b28282"/><path d="m404 193l2-10-2.5-.5-2.5-.5 1 4.5 1 4.5.5 1 .5 1" style="fill:#3d2f36;stroke:#3d2f36"/><path d="m616 191l1-9-1 4-1 4 .5.5.5.5" style="fill:#745147;stroke:#745147"/><path d="m433 187l5-7-3.5 2.5-3.5 2.5 1 1 1 1" style="fill:#3d2f36;stroke:#3d2f36"/><path d="m530 186v1l.5-16.5.5-16.5.5-10 .5-10v-10-10l.5-9.5.5-9.5v-7-7l.5-9.5.5-9.5-1-9-1-9-1-9-1-9v2.5 2.5l.5 1.5.5 1.5v1 1 1.5 1.5l-1 1-1 1 1 1.5 1 1.5-.5 1.5-.5 1.5 1 14.5 1 14.5-1 9-1 9v9.5 9.5 9 9 9 9l-.5 8.5-.5 8.5.5 10 .5 10" style="fill:#635162;stroke:#635162"/><path d="m193 177v1l.5-1 .5-1 1.5-1 1.5-1 1-1 1-1-.5-1.5-.5-1.5v-2.5-2.5-1.5-1.5l-1 1.5-1 1.5.5 1.5.5 1.5-.5 1-.5 1 .5.5.5.5h-1-1l-1 .5-1 .5h-1-1l.5 1.5.5 1.5.5 1.5.5 1.5" style="fill:#564249;stroke:#564249"/><g style="fill:#3d2f36;stroke:#3d2f36"><path d="m380 175h3v-1.5-1.5l.5-2 .5-2-1-1-1-1-1.5 1.5-1.5 1.5v2 2l.5 1 .5 1"/><path d="m438 175l4-14 4.5 2.5 4.5 2.5-1-2.5-1-2.5 5-2 5-2 2-1 2-1 2-1 2-1 1.5-3.5 1.5-3.5 1-1.5 1-1.5 2.5 2.5 2.5 2.5 2-4 2-4-5.5-1.5-5.5-1.5-1-2-1-2 2.5-1.5 2.5-1.5-4-3.5-4-3.5.5-4.5.5-4.5-7.5-1.5-7.5-1.5-7.5 1.5-7.5 1.5-.5-.5-.5-.5-.5-6-.5-6-1 2-1 2-1.5 3.5-1.5 3.5-3.5 1.5-3.5 1.5-2-1-2-1-1 5.5-1 5.5 2 2.5 2 2.5 3-.5 3-.5-2.5 2.5-2.5 2.5-.5-2-.5-2-2 3.5-2 3.5.5 2 .5 2-.5 2.5-.5 2.5-3.5-3.5-3.5-3.5-5 3-5 3 9 8.5 9 8.5-4 2-4 2 6-.5 6-.5 1.5-3.5 1.5-3.5 2-2 2-2 2 3 2 3 3 8 3 8"/></g><path d="m217 165l26-3 9.5-1.5 9.5-1.5 9.5-2 9.5-2-10 1.5-10 1.5-10 1-10 1-13.5 1-13.5 1 1-.5 1-.5h2 2l1.5-.5 1.5-.5 2-.5 2-.5 1.5-.5 1.5-.5h1.5 1.5 1 1l3-.5 3-.5 10.5-1.5 10.5-1.5 11-1.5 11-1.5v-.5-.5l-16 1.5-16 1.5-8.5 1.5-8.5 1.5-8.5 1.5-8.5 1.5-.5 3-.5 3" style="fill:#785f6a;stroke:#785f6a"/><path d="m214 162l27-2 10-1 10-1 10-1.5 10-1.5h1.5 1.5 2.5 2.5l1.5-.5 1.5-.5 3-.5 3-.5h-1.5-1.5-2-2l-1.5-.5-1.5-.5 11-1 11-1 10-1.5 10-1.5 12-2.5 12-2.5-1.5-.5-1.5-.5-.5.5-.5.5h-1.5-1.5-1-1-1-1l-.5.5-.5.5h-1.5-1.5-2-2l-16 2-16 2-9.5 1.5-9.5 1.5v.5.5l-8 2-8 2-13.5 1-13.5 1-3 .5-3 .5h-1-1-1.5-1.5l-1.5.5-1.5.5-2 .5-2 .5-1.5.5-1.5.5h-2-2l-1 .5-1 .5" style="fill:#564249;stroke:#564249"/><path d="m376 162v1-19.5-19.5-10-10l-.5-9.5-.5-9.5-1-10.5-1-10.5v10 10l1 10 1 10v9 9l.5 9 .5 9v11 11" style="fill:#635162;stroke:#635162"/><path d="m241 157l27-2 8-2 8-2-11 1.5-11 1.5-10.5 1.5-10.5 1.5" style="fill:#745147;stroke:#745147"/><path d="m709 154l2-22v-11-11l-.5-7-.5-7v11 11 11 11l-.5 7-.5 7" style="fill:#564249;stroke:#564249"/><path d="m445 153l12-6 1-7 1-7v-8.5-8.5h-6-6l-5 3-5 3 1 7 1 7 .5 6.5.5 6.5 2.5 2 2.5 2" style="fill:#2b1e1c;stroke:#2b1e1c"/><path d="m197 152v1l.5-1.5.5-1.5-.5-1.5-.5-1.5.5-2 .5-2v-2-2l-.5-1.5-.5-1.5v-2.5-2.5l-1-1.5-1-1.5v1.5 1.5l-.5 1.5-.5 1.5 1 1.5 1 1.5-.5 1.5-.5 1.5v1.5 1.5l.5 1.5.5 1.5.5 1.5.5 1.5v1.5 1.5" style="fill:#564249;stroke:#564249"/><path d="m288 152l3 1h2 2 1.5 1.5l2.5-.5 2.5-.5 2-.5 2-.5h2 2l2-.5 2-.5h2 2l2-.5 2-.5 1.5-.5 1.5-.5h2.5 2.5 1.5 1.5l1-.5 1-.5h1 1 1 1l1.5-.5 1.5-.5h1.5 1.5l.5-.5.5-.5h2 2l1 .5 1 .5.5.5.5.5h1 1l.5-.5.5-.5-.5-1-.5-1-1-1-1-1-12 2.5-12 2.5-10 1.5-10 1.5-11 1-11 1" style="fill:#635162;stroke:#635162"/><g style="fill:#3d2f36;stroke:#3d2f36"><path d="m392 148l3 1 .5-1.5.5-1.5h1 1l.5-1 .5-1 1.5-3.5 1.5-3.5-1.5-3.5-1.5-3.5 1.5-1.5 1.5-1.5-8-.5-8-.5 1 .5 1 .5 1 1.5 1 1.5.5 1.5.5 1.5-2-.5-2-.5-1-1-1-1-1.5-1-1.5-1v-1-1l-.5-1.5-.5-1.5 1-1.5 1-1.5-.5-1.5-.5-1.5v-1.5-1.5l.5-1.5.5-1.5 1-2 1-2h-1-1l-2 8.5-2 8.5 3 6 3 6 1 2.5 1 2.5 1.5-.5 1.5-.5h1 1l-1 1-1 1-.5 1-.5 1 .5.5.5.5-.5 1.5-.5 1.5 1-.5 1-.5v-1-1l1-1 1-1 1 1 1 1-1.5 1.5-1.5 1.5"/><path d="m132 137l1 1 .5-2.5.5-2.5 1-1.5 1-1.5v-1-1l.5-1 .5-1-1-1-1-1-.5-1-.5-1 .5-.5.5-.5v-1.5-1.5h-1.5-1.5l-.5.5-.5.5.5 1.5.5 1.5-.5 1-.5 1 .5.5.5.5-1 1-1 1-1 .5-1 .5v1 1 1 1l-.5 1-.5 1v1 1h1 1l.5-.5.5-.5 1 1 1 1"/></g><path d="m421 133l5-5-3 .5-3 .5.5 2 .5 2" style="fill:#5f3c2f;stroke:#5f3c2f"/><path d="m387 132l4 1-.5-1.5-.5-1.5-1-1.5-1-1.5-1-.5-1-.5.5-6.5.5-6.5-1-3-1-3-1 2-1 2-.5 1.5-.5 1.5v1.5 1.5l.5 1.5.5 1.5-1 1.5-1 1.5.5 1.5.5 1.5v1 1l1.5 1 1.5 1 1 1 1 1" style="fill:#564249;stroke:#564249"/><path d="m222 110l24-4 8-3 8-3 7-1 7-1 7.5-3.5 7.5-3.5-10 2-10 2-9 2-9 2-18 3.5-18 3.5h-1.5-1.5l1 .5 1 .5 1 .5 1 .5h1 1l1 1 1 1" style="fill:#745147;stroke:#745147"/><path d="m217 106l36-7 9-2 9-2 10-2 10-2 1-.5 1-.5 8.5-1.5 8.5-1.5 8.5-2.5 8.5-2.5 9.5-2 9.5-2 7-4.5 7-4.5-1-8.5-1-8.5-1.5-8.5-1.5-8.5-1.5-8.5-1.5-8.5-1 9-1 9-1.5 12.5-1.5 12.5 1.5-10 1.5-10 3 4 3 4 1 9 1 9-6.5 4.5-6.5 4.5-9 2-9 2-9.5 2-9.5 2-9.5 1.5-9.5 1.5-9.5 2.5-9.5 2.5 8.5-3 8.5-3 15-4 15-4-10.5 2-10.5 2-8.5 2.5-8.5 2.5-9 2-9 2-9.5 2-9.5 2-8.5 2.5-8.5 2.5-5.5 3-5.5 3h1.5 1.5" style="fill:#564249;stroke:#564249"/><path d="m379 106h2l.5-1.5.5-1.5-1-1.5-1-1.5v-2-2l1-1.5 1-1.5-1-1-1-1v-1.5-1.5l-1 1-1 1 .5 1.5.5 1.5-.5 2-.5 2 .5 1.5.5 1.5v1.5 1.5 1.5 1.5" style="fill:#3d2f36;stroke:#3d2f36"/><path d="m438 104l9-7-4 2-4 2-.5 1.5-.5 1.5" style="fill:#564249;stroke:#564249"/><path d="m564 104l12-10h6 6l-5.5-3-5.5-3-3.5-1.5-3.5-1.5-4 4-4 4 1 5.5 1 5.5" style="fill:#745147;stroke:#745147"/><path d="m202 101l29-5 9-2 9-2 9-2 9-2 8.5-2.5 8.5-2.5 9-2 9-2 9-2 9-2 9-2.5 9-2.5-9.5 2-9.5 2-9 2-9 2-9 2-9 2-8.5 2-8.5 2-8.5 1.5-8.5 1.5-8.5 2.5-8.5 2.5-12.5 3-12.5 3 1-5.5 1-5.5 7-2.5 7-2.5 8-2 8-2 6.5-9 6.5-9-4 8-4 8-16 3.5-16 3.5-1-10.5-1-10.5 6-4 6-4 14-2.5 14-2.5 1 1.5 1 1.5v1 1l-.5.5-.5.5v1 1l.5 1.5.5 1.5-1.5-8-1.5-8-7 1-7 1-7 2-7 2-2.5-1.5-2.5-1.5 7.5-2.5 7.5-2.5 5.5-2.5 5.5-2.5 8-2.5 8-2.5 8.5-2.5 8.5-2.5 8-3 8-3 8.5-3 8.5-3-14.5 4-14.5 4-8.5 2.5-8.5 2.5-8 2.5-8 2.5-8 3-8 3-8.5 2.5-8.5 2.5v-1-1l6.5-3.5 6.5-3.5 9-2.5 9-2.5 8-3 8-3 8.5-2.5 8.5-2.5 8.5-2.5 8.5-2.5 9-2.5 9-2.5h2 2l1-1 1-1 1.5-.5 1.5-.5 2-.5 2-.5 1.5-.5 1.5-.5 2-.5 2-.5 1.5-.5 1.5-.5 2-.5 2-.5 1.5-.5 1.5-.5 2-1 2-1h-1.5-1.5-2.5-2.5-2-2-2-2-2.5-2.5-.5-.5l-6 2.5-6 2.5-4.5 2.5-4.5 2.5-4.5.5-4.5.5-7.5 2.5-7.5 2.5-7.5 2.5-7.5 2.5-7 2.5-7 2.5-6.5-.5-6.5-.5-7.5 2.5-7.5 2.5 1-5.5 1-5.5 1-3.5 1-3.5-2.5-6-2.5-6h-3-3-2-2-2.5-2.5-2-2-2-2-2.5-2.5-.5-.5v1.5 1.5 1.5 1.5 1 1l-.5 1.5-.5 1.5 1 1.5 1 1.5v1 1l.5.5.5.5-.5.5-.5.5.5 1 .5 1-.5.5-.5.5v1 1l.5.5.5.5v1 1 1.5 1.5l.5.5.5.5-.5 1-.5 1v1.5 1.5l-.5 2-.5 2 .5 1.5.5 1.5-.5 2-.5 2 .5 1.5.5 1.5.5 2 .5 2 .5 2 .5 2 1.5 16 1.5 16 1.5 6 1.5 6" style="fill:#96747d;stroke:#96747d"/><path d="m145 100l21 1 8-2 8-2-6-.5-6-.5-8.5-.5-8.5-.5-4 2.5-4 2.5" style="fill:#956142;stroke:#956142"/><path d="m207 100l25-6 8.5-2.5 8.5-2.5 8.5-1.5 8.5-1.5 8.5-2 8.5-2 9-2 9-2 9-2 9-2 9.5-2 9.5-2 1-1 1-1 1-1.5 1-1.5.5-1.5.5-1.5v-1.5-1.5l.5-1.5.5-1.5v-2.5-2.5-2-2l.5-1.5.5-1.5v-2-2l.5-1 .5-1v-.5-.5-2-2-2-2-2.5-2.5-2-2l.5-2 .5-2v-2-2-2.5-2.5l-10.5 2.5-10.5 2.5-9 2.5-9 2.5-8.5 3-8.5 3-8 3-8 3-8.5 2.5-8.5 2.5-8 2.5-8 2.5-5.5 2.5-5.5 2.5-7.5 2.5-7.5 2.5 2.5 1.5 2.5 1.5 7-2 7-2 7-1 7-1 1.5 8 1.5 8-6.5 9-6.5 9-8 2-8 2-7 2.5-7 2.5-1 5.5-1 5.5" style="fill:#a085a3;stroke:#a085a3"/><g style="fill:#3d2f36;stroke:#3d2f36"><path d="m424 97l12-11 .5-3.5.5-3.5-1-2.5-1-2.5 5 2 5 2 6-4 6-4 3-5 3-5 .5 6.5.5 6.5 2.5 6.5 2.5 6.5 4-3.5 4-3.5.5-4.5.5-4.5-1-8-1-8-.5-8-.5-8v-.5-.5l-.5-2-.5-2v9.5 9.5l.5 8.5.5 8.5-4 7-4 7v-11-11l-.5-15.5-.5-15.5-.5 1-.5 1h-1-1l-1 1-1 1 1 1.5 1 1.5-.5 1.5-.5 1.5h-1-1l-.5-1-.5-1 .5 2 .5 2 .5.5.5.5.5 1 .5 1 .5 1.5.5 1.5-.5 2-.5 2 1 1 1 1h-1-1l-1-.5-1-.5-.5-1-.5-1v-1-1l-1-.5-1-.5-1-1.5-1-1.5-1.5-.5-1.5-.5-.5.5-.5.5h-1-1l-1 1-1 1 4.5 6 4.5 6-5 8.5-5 8.5-1.5-1-1.5-1-.5-.5-.5-.5-.5-.5-.5-.5v-1-1l-.5-1-.5-1 .5-1.5.5-1.5v-1-1l-.5-1-.5-1 .5-1.5.5-1.5v-1-1l.5-.5.5-.5.5-.5.5-.5v-1.5-1.5l.5-.5.5-.5.5-1 .5-1-3.5 6-3.5 6-3-4-3-4-1-5-1-5 .5 10 .5 10-2 14.5-2 14.5-1-1-1-1-.5-1.5-.5-1.5.5-1.5.5-1.5-.5-2-.5-2v-2-2l.5-2 .5-2-.5-1.5-.5-1.5-.5-2-.5-2-1 8.5-1 8.5-2 3-2 3 3.5 5 3.5 5"/><path d="m270 92l19-5 9.5-1.5 9.5-1.5 9.5-2 9.5-2 9-2 9-2 6.5-4.5 6.5-4.5-1-9-1-9-3-4-3-4-1.5 10-1.5 10-.5 2-.5 2v1.5 1.5 1 1l-1 1-1 1-1 .5-1 .5h-1-1l-1.5.5-1.5.5-1 .5-1 .5h-1-1-2-2l-1.5.5-1.5.5-1 .5-1 .5-.5.5-.5.5h-1.5-1.5-1.5-1.5l-15 4-15 4-8.5 3-8.5 3"/></g><path d="m427 91l4-29-.5-10-.5-10-1.5-1-1.5-1-1 1-1 1-1 1-1 1v1.5 1.5l.5 1.5.5 1.5v1.5 1.5l.5 1.5.5 1.5-.5 2-.5 2 .5 1.5.5 1.5-1 .5-1 .5.5 2 .5 2 .5 1.5.5 1.5-.5 2-.5 2v2 2l.5 2 .5 2-.5 1.5-.5 1.5.5 1.5.5 1.5 1 1 1 1" style="fill:#2b1e1c;stroke:#2b1e1c"/><path d="m169 90l2-6 1.5-6.5 1.5-6.5-4 3.5-4 3.5 1 6 1 6h.5.5" style="fill:#5f3c2f;stroke:#5f3c2f"/><path d="m296 90l17-3 8.5-.5 8.5-.5 3.5-1.5 3.5-1.5 8-1.5 8-1.5v-.5-.5l-1-.5-1-.5h-2.5-2.5l-9.5 2-9.5 2-8.5 2.5-8.5 2.5-8.5 1.5-8.5 1.5h1.5 1.5" style="fill:#745147;stroke:#745147"/><path d="m212 85l32-7 4-8 4-8-.5-1.5-.5-1.5v-1-1l.5-.5.5-.5v-1-1l-1-1.5-1-1.5-1 10-1 10-6.5-2-6.5-2-.5 5.5-.5 5.5-11 2.5-11 2.5.5-9 .5-9 5.5-.5 5.5-.5 3-4 3-4 10-2.5 10-2.5-14 2.5-14 2.5-6 4-6 4 1 10.5 1 10.5" style="fill:#785f6a;stroke:#785f6a"/><path d="m378 85l3 1v-.5-.5-.5-.5-1.5-1.5-1-1l-.5-1-.5-1 .5-1.5.5-1.5v-1-1l-.5-1-.5-1v-2-2l1-.5 1-.5v-2-2l-2.5 3-2.5 3 .5 9 .5 9" style="fill:#3d2f36;stroke:#3d2f36"/><path d="m381 84v1l2-2.5 2-2.5 4.5-4.5 4.5-4.5-6-3-6-3-1 .5-1 .5v2 2l.5 1 .5 1v1 1l-.5 1.5-.5 1.5.5 1 .5 1v1 1 1.5 1.5" style="fill:#564249;stroke:#564249"/><path d="m212 83l22-5 .5-5.5.5-5.5-2-4.5-2-4.5h6 6l-2 6.5-2 6.5-1-.5-1-.5.5-1.5.5-1.5h-1.5-1.5l6.5 2 6.5 2 1-10 1-10-10 2.5-10 2.5-3 4-3 4-5.5.5-5.5.5-.5 9-.5 9" style="fill:#635162;stroke:#635162"/><path d="m467 83l8-14-.5-8.5-.5-8.5v-9.5-9.5l-.5-1.5-.5-1.5-1.5-.5-1.5-.5-2 .5-2 .5.5 15.5.5 15.5v11 11" style="fill:#2b1e1c;stroke:#2b1e1c"/><path d="m565 82l9-7 .5-4.5.5-4.5 1.5-3 1.5-3-7-2-7-2 1.5 5.5 1.5 5.5-1 7.5-1 7.5" style="fill:#745147;stroke:#745147"/><path d="m353 79v1l5.5-10.5 5.5-10.5-.5-3.5-.5-3.5-3-8-3-8-1.5-9-1.5-9-3 3-3 3v2 2 1.5 1.5 1 1 1 1l-.5 1.5-.5 1.5v3 3l-.5 1.5-.5 1.5v1.5 1.5 2 2 2 2l-.5 2-.5 2 .5 1.5.5 1.5.5-2 .5-2 1.5-12.5 1.5-12.5 1-9 1-9 1.5 8.5 1.5 8.5 1.5 8.5 1.5 8.5 1 8.5 1 8.5-7 4.5-7 4.5h2.5 2.5l1 .5 1 .5" style="fill:#635162;stroke:#635162"/><g style="fill:#2b1e1c;stroke:#2b1e1c"><path d="m446 76l10-17-4.5-6-4.5-6-1 .5-1 .5-.5 1-.5 1-.5.5-.5.5v1.5 1.5l-.5.5-.5.5-.5.5-.5.5v1 1l-.5 1.5-.5 1.5.5 1 .5 1v1 1l-.5 1.5-.5 1.5.5 1 .5 1v1 1l.5.5.5.5.5.5.5.5 1.5 1 1.5 1"/><path d="m347 72h2l1.5-.5 1.5-.5 1.5-1 1.5-1v-2-2l-1-1.5-1-1.5h-2-2l-.5 2-.5 2-.5 1.5-.5 1.5v1.5 1.5"/></g><path d="m239 71l4-13h-6-6l2 4.5 2 4.5h1.5 1.5l-.5 1.5-.5 1.5 1 .5 1 .5" style="fill:#785f6a;stroke:#785f6a"/><path d="m124 69h3v-1.5-1.5l1-.5 1-.5-1.5-.5-1.5-.5-.5-.5-.5-.5.5-1 .5-1v-1-1-1-1l.5-.5.5-.5.5-.5.5-.5-1-.5-1-.5v-1-1l-1-1-1-1 .5 2 .5 2-.5.5-.5.5-.5.5-.5.5-.5.5-.5.5v1.5 1.5l.5.5.5.5-.5.5-.5.5v1 1l1 .5 1 .5.5.5.5.5-.5.5-.5.5v1 1" style="fill:#3d2f36;stroke:#3d2f36"/><path d="m372 63l1 1 .5-15 .5-15 1-8.5 1-8.5v-.5-.5l-1-.5-1-.5v-1.5-1.5l-.5-1.5-.5-1.5v-1-1-1.5-1.5l-.5-1.5-.5-1.5v12.5 12.5l.5 8.5.5 8.5-.5 10-.5 10" style="fill:#635162;stroke:#635162"/><path d="m423 63v1l1-.5 1-.5-.5-1.5-.5-1.5.5-2 .5-2-.5-1.5-.5-1.5v-1.5-1.5l-.5-1.5-.5-1.5-1 .5-1 .5v2 2 2 2l-.5 2-.5 2 .5 1 .5 1 1 .5 1 .5" style="fill:#3d2f36;stroke:#3d2f36"/><path d="m556 63h2l-.5-1.5-.5-1.5.5-2 .5-2v-2-2l-.5-2-.5-2-1 1-1 1v2.5 2.5 1 1 1 1l.5 2 .5 2" style="fill:#2b1e1c;stroke:#2b1e1c"/><path d="m522 58v1l1-1 1-1-1-1-1-1 1.5-.5 1.5-.5v-1.5-1.5l1-1 1-1-.5-2-.5-2 1.5-.5 1.5-.5.5 1.5.5 1.5.5-1.5.5-1.5-1-1.5-1-1.5 1-1 1-1v-1.5-1.5-1-1l-.5-1.5-.5-1.5v-2.5-2.5l.5-1 .5-1-.5-1-.5-1-.5 1-.5 1v1.5 1.5l-.5 1.5-.5 1.5-.5 2-.5 2-.5 1.5-.5 1.5-1.5-.5-1.5-.5-8-3-8-3-7.5-.5-7.5-.5-8.5-2.5-8.5-2.5-3-6-3-6 9.5-6 9.5-6h-1.5-1.5-2-2-2.5-2.5-2-2-2-2v1.5 1.5l-1 1-1 1h-1-1l-1.5-.5-1.5-.5h-3-3l-1.5-.5-1.5-.5-1.5 1-1.5 1 1 2 1 2 .5 1 .5 1-1 1.5-1 1.5-.5.5-.5.5-.5 2-.5 2-1 1-1 1h1.5 1.5l1 .5 1 .5h1.5 1.5l2 1.5 2 1.5 1.5-1 1.5-1 1.5.5 1.5.5 1 .5 1 .5h1 1 1 1l1 .5 1 .5.5.5.5.5 1 1 1 1 1 .5 1 .5v1 1l.5 1.5.5 1.5 1 .5 1 .5.5.5.5.5 1.5 1 1.5 1 11 2 11 2 4.5-3 4.5-3 2.5 2.5 2.5 2.5-2 3-2 3 3 5 3 5" style="fill:#745147;stroke:#745147"/><path d="m194 56l1 1h.5.5l-.5-2-.5-2-.5-2-.5-2-.5-1.5-.5-1.5.5-2 .5-2-.5-1.5-.5-1.5.5-2 .5-2v-1.5-1.5l-1-.5-1-.5h-.5-.5l-9.5 1.5-9.5 1.5-14.5 1-14.5 1h-1.5-1.5l-1.5-.5-1.5-.5h-2.5-2.5-2-2l-3-.5-3-.5 10.5 4 10.5 4 7.5 2.5 7.5 2.5 7.5-3 7.5-3 8.5-1.5 8.5-1.5 2 9 2 9" style="fill:#956142;stroke:#956142"/><path d="m462 54h2l-1-1-1-1 .5-2 .5-2-.5-1.5-.5-1.5-.5-1-.5-1-.5-.5-.5-.5-.5-2-.5-2-1.5-.5-1.5-.5-.5-.5-.5-.5h-1-1-1-1-1-1l-1 .5-1 .5.5.5.5.5v1 1l.5.5.5.5.5 1 .5 1h1 1 1 1l.5 1 .5 1 1 1.5 1 1.5 1 .5 1 .5v1 1l.5 1 .5 1 1 .5 1 .5" style="fill:#564249;stroke:#564249"/><path d="m564 54l19-10 4.5.5 4.5.5h1 1l5.5.5 5.5.5 3 2 3 2 3-5.5 3-5.5.5 5.5.5 5.5 4.5-1.5 4.5-1.5 1.5.5 1.5.5 2.5-2.5 2.5-2.5 3-.5 3-.5 3-3 3-3 3.5 1.5 3.5 1.5 5-4 5-4 5.5.5 5.5.5 7-1 7-1 4.5-5 4.5-5 4 2 4 2 1 4 1 4 2 4.5 2 4.5v-3-3-2-2-2.5-2.5-2-2-2.5-2.5-1.5-1.5l-8 1.5-8 1.5-9.5 1-9.5 1-8 1-8 1-8 1-8 1-6 1-6 1-7.5 1.5-7.5 1.5h-8.5-8.5l-4.5.5-4.5.5-8 2-8 2-5.5 1-5.5 1-1-1-1-1-.5-1.5-.5-1.5-1-1.5-1-1.5.5 2 .5 2 .5 1.5.5 1.5-.5 2-.5 2 .5 1.5.5 1.5v1 1l1 1.5 1 1.5 1 1 1 1-2 .5-2 .5.5 1.5.5 1.5.5 1 .5 1" style="fill:#745147;stroke:#745147"/><path d="m550 53l1 1 .5-17 .5-17-.5-10-.5-10h-1-1l.5 16 .5 16v10.5 10.5" style="fill:#635162;stroke:#635162"/><g style="fill:#564249;stroke:#564249"><path d="m485 49h2l.5-1.5.5-1.5-1.5-1-1.5-1-1-1-1-1 .5-1.5.5-1.5-1.5-1-1.5-1-.5-.5-.5-.5-1-.5-1-.5-1.5 1-1.5 1v.5.5l1 2.5 1 2.5 1 1 1 1 1.5 1 1.5 1 1.5-.5 1.5-.5v1.5 1.5"/><path d="m440 44l7-12-.5-4.5-.5-4.5-7 3-7 3 1.5 1 1.5 1-2 .5-2 .5-1 1-1 1h1 1l.5 1.5.5 1.5.5 1 .5 1h1 1l1 1 1 1 1 .5 1 .5.5 1 .5 1"/></g><path d="m392 40h3l1-1 1-1 .5-1.5.5-1.5.5-1 .5-1 .5-1.5.5-1.5h1.5 1.5l1.5-.5 1.5-.5.5-2 .5-2-.5-1-.5-1 1-1.5 1-1.5h1 1l1.5 1 1.5 1 1.5-.5 1.5-.5-1-1.5-1-1.5-.5-.5-.5-.5 2-1 2-1-8-3.5-8-3.5-5.5-4-5.5-4h-2-2-1.5-1.5l.5 2.5.5 2.5h-1-1-1.5-1.5v2 2l-.5 2-.5 2-1 1.5-1 1.5v.5.5 1.5 1.5 2.5 2.5l.5 1.5.5 1.5 1 1.5 1 1.5.5 1.5.5 1.5 1.5.5 1.5.5 1 1.5 1 1.5 1-1 1-1 1 1.5 1 1.5 1.5.5 1.5.5" style="fill:#745147;stroke:#745147"/><path d="m346 37v1h.5.5l.5-1.5.5-1.5v-1-1-1-1-1.5-1.5-2-2-2-2-2-2-2.5-2.5l.5-1.5.5-1.5-1-.5-1-.5v2.5 2.5 2 2l-.5 2-.5 2v2 2 2.5 2.5 2 2 2 2" style="fill:#96747d;stroke:#96747d"/><path d="m143 36l29-2 9.5-1.5 9.5-1.5-1-1-1-1-10.5 1.5-10.5 1.5-8.5.5-8.5.5h-13.5-13.5l-2-1-2-1v1 1l1 .5 1 .5 3 .5 3 .5h2 2 2.5 2.5l1.5.5 1.5.5h1.5 1.5" style="fill:#b6723e;stroke:#b6723e"/><path d="m523 36l3 1 .5-1.5.5-1.5.5-2 .5-2 .5-1.5.5-1.5v-1.5-1.5l.5-1 .5-1v-1.5-1.5l1-.5 1-.5-.5-.5-.5-.5-.5-.5-.5-.5v-1-1-2-2l1-.5 1-.5v-1-1l-.5-1.5-.5-1.5v-.5-.5-1.5-1.5h-1.5-1.5-2.5-2.5-2-2-2.5-2.5-2-2-2-2-2.5-2.5-2-2-2.5-2.5-2-2l-9.5 6-9.5 6 3 6 3 6 8.5 2.5 8.5 2.5 7.5.5 7.5.5 8 3 8 3" style="fill:#956142;stroke:#956142"/><path d="m423 35h2l.5-.5.5-.5h1.5 1.5l1-1 1-1 2-.5 2-.5-1.5-1-1.5-1-1-1-1-1v-2.5-2.5l-1.5-.5-1.5-.5-1-.5-1-.5h-1-1l-.5-1-.5-1v-.5-.5l-1-.5-1-.5v1.5 1.5l-.5.5-.5.5-1 .5-1 .5-.5 1.5-.5 1.5h-1.5-1.5l-1 .5-1 .5-.5 1-.5 1v1 1l2 .5 2 .5 1.5.5 1.5.5 1 1.5 1 1.5 1.5-.5 1.5-.5.5 1 .5 1" style="fill:#745147;stroke:#745147"/><path d="m565 35l11-2 8-2 8-2 4.5-.5 4.5-.5h8.5 8.5l7.5-1.5 7.5-1.5 6-1 6-1 8-1 8-1 8-1 8-1 9.5-1 9.5-1 8-1.5 8-1.5v-1.5-1.5l-10.5 1.5-10.5 1.5-9 1-9 1-9 1.5-9 1.5-9.5 1.5-9.5 1.5-8.5.5-8.5.5-10.5.5-10.5.5-17.5 1.5-17.5 1.5-1.5-1-1.5-1v1 1l1 1.5 1 1.5.5 1.5.5 1.5 1 1 1 1" style="fill:#956142;stroke:#956142"/><path d="m124 33h27l8.5-.5 8.5-.5 10.5-1.5 10.5-1.5 1-1 1-1-.5-2.5-.5-2.5-8.5 4-8.5 4h-8.5-8.5l-15 .5-15 .5 8-3.5 8-3.5 8.5-1.5 8.5-1.5 7-1.5 7-1.5-9 1-9 1-8.5-.5-8.5-.5 6-3 6-3h19 19v-1-1l-10-.5-10-.5h-9-9l-8.5 2.5-8.5 2.5-7 2-7 2 .5 6 .5 6 2 1 2 1" style="fill:#db9348;stroke:#db9348"/><path d="m126 31l30-1h8.5 8.5l8.5-4 8.5-4h-2-2-2-2l-1.5-.5-1.5-.5-1.5-1-1.5-1 1.5-.5 1.5-.5.5-.5.5-.5h1.5 1.5l1.5-.5 1.5-.5 1.5-1 1.5-1-.5-.5-.5-.5h-19-19l-6 3-6 3 8.5.5 8.5.5 9-1 9-1-7 1.5-7 1.5-8.5 1.5-8.5 1.5-8 3.5-8 3.5" style="fill:#f8b04b;stroke:#f8b04b"/><path d="m192 31l2 1 .5-1 .5-1-.5-.5-.5-.5v-1.5-1.5-1-1l-.5-.5-.5-.5v-1-1l.5-.5.5-.5-.5-1-.5-1 .5-.5.5-.5-.5-.5-.5-.5v-1-1l-1-1.5-1-1.5h-.5-.5-1-1v1 1l.5.5.5.5.5 1 .5 1v1.5 1.5 1.5 1.5l.5 2.5.5 2.5-1 1-1 1 1 1 1 1h.5.5" style="fill:#b48469;stroke:#b48469"/><path d="m453 31l3 1 1-1.5 1-1.5v-1-1-1-1l-2-1.5-2-1.5-.5 1-.5 1v1 1l-1 1-1 1 1 1.5 1 1.5" style="fill:#564249;stroke:#564249"/><path d="m119 30l1 1-.5-6-.5-6 7-2 7-2 8.5-2.5 8.5-2.5h9 9l10 .5 10 .5h1 1v-.5-.5l-7.5-3-7.5-3-7.5-2-7.5-2h-1-1l-7 4-7 4-13.5 4.5-13.5 4.5.5 1 .5 1v1 1l.5.5.5.5v1 1l.5.5.5.5-.5 1-.5 1v1.5 1.5" style="fill:#b6723e;stroke:#b6723e"/><path d="m222 30l15-5 6.5.5 6.5.5 7-2.5 7-2.5 7.5-2.5 7.5-2.5 7.5-2.5 7.5-2.5 4.5-.5 4.5-.5 4.5-2.5 4.5-2.5 6-2.5 6-2.5h-12-12-11-11-11-11-11.5-11.5-6-6l2.5 6 2.5 6-1 3.5-1 3.5-1 5.5-1 5.5" style="fill:#b28282;stroke:#b28282"/><path d="m368 29h3l-.5-1.5-.5-1.5-.5-2-.5-2-1-1-1-1 1-1.5 1-1.5.5-1.5.5-1.5v-1.5-1.5l-.5-1.5-.5-1.5.5-1 .5-1 .5-.5.5-.5-.5-1.5-.5-1.5-.5-1-.5-1h-2.5-2.5-2-2-2.5-2.5-2-2l3.5 11 3.5 11 5 3.5 5 3.5" style="fill:#96747d;stroke:#96747d"/><path d="m115 28l1 1v-3.5-3.5-2-2l.5-2 .5-2v-2-2-2.5-2.5l.5-2.5.5-2.5h-1.5-1.5v1.5 1.5 1 1 2 2l.5 1 .5 1v1 1l-.5 1.5-.5 1.5v.5.5 1 1l-.5 1.5-.5 1.5.5 1 .5 1v2 2" style="fill:#2b1e1c;stroke:#2b1e1c"/><path d="m380 28h2l1-1 1-1v-2.5-2.5l-.5-1.5-.5-1.5-.5-2-.5-2h-1-1l-1 1.5-1 1.5-.5 1.5-.5 1.5v2 2l1 1.5 1 1.5.5.5.5.5" style="fill:#956142;stroke:#956142"/><g style="fill:#b6723e;stroke:#b6723e"><path d="m517 27l10-10-4-4-4-4-8.5 1-8.5 1-1.5-.5-1.5-.5-8 1-8 1-2.5 3.5-2.5 3.5 1.5-.5 1.5-.5h3 3l5 1.5 5 1.5 5.5 1.5 5.5 1.5 4.5 1.5 4.5 1.5"/><path d="m563 27l35-3 10.5-.5 10.5-.5 8.5-.5 8.5-.5 9.5-1.5 9.5-1.5 9-1.5 9-1.5 9-1 9-1 10.5-1.5 10.5-1.5v-1-1l-9 1.5-9 1.5-9 1-9 1-9.5 1.5-9.5 1.5-10.5.5-10.5.5-9.5 1.5-9.5 1.5-11 .5-11 .5-15.5 1.5-15.5 1.5-1-.5-1-.5v-.5-.5h-.5-.5l-.5 1-.5 1 1.5 1 1.5 1"/></g><path d="m559 26l1 1v-1-1l.5-1 .5-1-.5-1.5-.5-1.5.5-1.5.5-1.5v-3.5-3.5-2-2l.5-1 .5-1h1 1l1.5-.5 1.5-.5h-2-2v-1.5-1.5h-2.5-2.5-.5-.5l.5 1 .5 1v1.5 1.5 1 1 2 2 1.5 1.5 1 1l-.5 1.5-.5 1.5.5 1 .5 1v1.5 1.5l.5 1 .5 1" style="fill:#745147;stroke:#745147"/><path d="m408 25l1-1h2 2 1.5 1.5l.5-1.5.5-1.5 1-.5 1-.5.5-.5.5-.5v-1.5-1.5l-1.5-.5-1.5-.5-2 1-2 1 .5.5.5.5 1 1.5 1 1.5-1.5.5-1.5.5-1.5-1-1.5-1h-1-1l-1 1.5-1 1.5.5 1 .5 1h.5.5" style="fill:#5f3c2f;stroke:#5f3c2f"/><path d="m437 25l5-5-4-2-4-2 1.5 4.5 1.5 4.5" style="fill:#564249;stroke:#564249"/><path d="m564 25l31-3 11-.5 11-.5 9.5-1.5 9.5-1.5 10.5-.5 10.5-.5 9.5-1.5 9.5-1.5 9-1 9-1 9-1.5 9-1.5v-1.5-1.5-1-1l-9.5 1.5-9.5 1.5-8 1-8 1h-9.5-9.5l-17 .5-17 .5 9-1.5 9-1.5 9-1 9-1 10-2.5 10-2.5h-3-3-2-2-2.5-2.5-2-2-2.5-2.5-2-2-2.5-2.5-2-2l-10 1-10 1-10.5.5-10.5.5h-12.5-12.5-1.5-1.5-1-1-1-1-1.5-1.5l-1.5.5-1.5.5h-1-1l-.5 1-.5 1h12 12l8.5-.5 8.5-.5 8.5-.5 8.5-.5h9 9l-8.5 1.5-8.5 1.5-9 .5-9 .5-9 1-9 1-10.5.5-10.5.5-1-.5-1-.5v3.5 3.5l10-.5 10-.5h9 9l9-1 9-1h9 9l-4.5 2-4.5 2-10 1-10 1-7 1-7 1-15 1-15 1 1 .5 1 .5" style="fill:#db9348;stroke:#db9348"/><path d="m562 23v1l15-1 15-1 7-1 7-1 10-1 10-1 4.5-2 4.5-2h-9-9l-9 1-9 1h-9-9l-10 .5-10 .5-.5 1.5-.5 1.5.5 1.5.5 1.5h.5.5" style="fill:#f8b04b;stroke:#f8b04b"/><path d="m179 21l3 1h2 2 2 2v-1.5-1.5-1.5-1.5l-.5-1-.5-1-1.5 1-1.5 1-1.5.5-1.5.5h-1.5-1.5l-.5.5-.5.5-1.5.5-1.5.5 1.5 1 1.5 1" style="fill:#db9348;stroke:#db9348"/><path d="m422 17v1l1.5-1.5 1.5-1.5 4-2.5 4-2.5 4.5-.5 4.5-.5h4.5 4.5l-1-2-1-2 1.5-1 1.5-1 1.5.5 1.5.5h3 3l-1.5-1-1.5-1-.5.5-.5.5h-1-1l-.5-.5-.5-.5-1-1-1-1h-11.5-11.5-11-11-8.5-8.5l5.5 4 5.5 4 8 3.5 8 3.5 1.5.5 1.5.5 1 .5 1 .5" style="fill:#564249;stroke:#564249"/><path d="m117 16v1l13.5-4.5 13.5-4.5 7-4 7-4h-3-3-2-2-1-1l-6.5 2.5-6.5 2.5-7 4.5-7 4.5-1 1-1 1" style="fill:#956142;stroke:#956142"/><path d="m374 15l2 1 1-1.5 1-1.5.5-2 .5-2v-2-2h1.5 1.5 1 1l-.5-2.5-.5-2.5h-1.5-1.5-2-2-2-2v.5.5l.5 1.5.5 1.5v1.5 1.5 1 1l.5 1.5.5 1.5v1.5 1.5" style="fill:#564249;stroke:#564249"/><path d="m119 13v1l7-4.5 7-4.5 6.5-2.5 6.5-2.5h-1.5-1.5-2-2-2.5-2.5-2-2l-1 1.5-1 1.5-.5 1.5-.5 1.5-1.5.5-1.5.5-1 1.5-1 1.5-1 .5-1 .5-.5 1-.5 1" style="fill:#745147;stroke:#745147"/><path d="m310 13l32-9 3.5-2 3.5-2h-1.5-1.5l-2 1-2 1-1.5.5-1.5.5-2 .5-2 .5-1.5.5-1.5.5-2 .5-2 .5-1.5.5-1.5.5-2 .5-2 .5-1.5.5-1.5.5-1 1-1 1h-2-2l-1 1-1 1" style="fill:#635162;stroke:#635162"/><path d="m563 11l21-1 9-1 9-1 9-.5 9-.5 8.5-1.5 8.5-1.5h-9-9l-8.5.5-8.5.5-8.5.5-8.5.5h-12-12v2 2l1 .5 1 .5" style="fill:#f8b04b;stroke:#f8b04b"/><path d="m190 10v1h.5.5l.5-1.5.5-1.5v-1-1-1.5-1.5-1.5-1.5h-1.5-1.5-2.5-2.5-2-2-2.5-2.5-2-2-2-2-2.5-2.5-1-1l7.5 2 7.5 2 7.5 3 7.5 3" style="fill:#956142;stroke:#956142"/><path d="m624 10l34-1h9.5 9.5l8-1 8-1 9.5-1.5 9.5-1.5v-2-2h-1.5-1.5-2-2-2.5-2.5-2-2-2.5-2.5-2-2-2.5-2.5-1-1l-10 2.5-10 2.5-9 1-9 1-9 1.5-9 1.5" style="fill:#b6723e;stroke:#b6723e"/><path d="m464 5h2l1-1 1-1v-1.5-1.5h-2-2-2.5-2.5-2-2-1.5-1.5l1 1 1 1 .5.5.5.5h1 1l.5-.5.5-.5 1.5 1 1.5 1 1.5.5 1.5.5" style="fill:#5f3c2f;stroke:#5f3c2f"/><path d="m577 3h25l10.5-.5 10.5-.5 10-1 10-1h-11.5-11.5-11-11-11-11-6.5-6.5v1.5 1.5h2 2 1.5 1.5 1 1 1 1 1.5 1.5" style="fill:#b6723e;stroke:#b6723e"/></g></svg>