<svg xmlns="http://www.w3.org/2000/svg" viewBox="0 0 960 712"><path d="m0 0h960v712h-960z" style="fill:#393526"/><g style="stroke-linejoin:round;stroke-width:.7"><path d="m959 712h1v-12.5-12.5-11-11-11.5-11.5-11-11-8.5-8.5h-.5-.5v2 2 1 1 1 1 1 1 1.5 1.5 1 1 1 1 1 1 1.5 1.5 1 1 1 1 1 1 1.5 1.5 1 1 1 1 1 1l-.5 1.5-.5 1.5v-12-12l-3-7-3-7-7 3-7 3-8.5 3-8.5 3-8 3-8 3-6.5 1.5-6.5 1.5-5.5 2.5-5.5 2.5-8 1-8 1-7 4.5-7 4.5-7.5 2.5-7.5 2.5-7 3-7 3-8 3-8 3-6.5 3.5-6.5 3.5-6 1.5-6 1.5-6.5 3.5-6.5 3.5-8.5 1.5-8.5 1.5-7.5 3.5-7.5 3.5-7.5 2.5-7.5 2.5-7.5 3-7.5 3-9.5 7.5-9.5 7.5h12.5 12.5 11.5 11.5 11 11 11 11 11 11 11 11 11.5 11.5 11 11 11 11 11 11 11 11 11.5 11.5 1 1" style="fill:#88b3c9;stroke:#88b3c9"/><path d="m959 603h1v-1.5-1.5-2-2-2.5-2.5-.5-.5h-.5-.5l-8 3.5-8 3.5-8 3-8 3-8.5 2.5-8.5 2.5-8 3-8 3-8 3-8 3-8.5 3-8.5 3-8 3-8 3-8 3-8 3-8 3-8 3-8 3-8 3-8.5 3-8.5 3-8 3-8 3-8 3-8 3-8.5 2.5-8.5 2.5-8 3-8 3-8.5 3-8.5 3-7 4.5-7 4.5 8.5-3 8.5-3 8-2 8-2 7.5-3.5 7.5-3.5 7-2 7-2 8.5-3 8.5-3 8.5-2.5 8.5-2.5 8-3 8-3 8-3 8-3 7.5-3.5 7.5-3.5 8.5-3 8.5-3 7.5-3.5 7.5-3.5 8-3 8-3 8.5-2.5 8.5-2.5 8-3 8-3 8.5-3 8.5-3 8-3 8-3 9 1 9 1" style="fill:#6e9091;stroke:#6e9091"/><path d="m959 590h1v-1.5-1.5-.5-.5h-.5-.5l-.5.5-.5.5-8.5 3-8.5 3-7.5 3.5-7.5 3.5-8 3-8 3-8 3-8 3-8.5 2.5-8.5 2.5-8.5 3-8.5 3-8 3-8 3-8 3-8 3-8 3-8 3-8 3-8 3-8 3.5-8 3.5-8.5 2.5-8.5 2.5-8 3-8 3-8 3-8 3-8.5 2.5-8.5 2.5-15.5 6.5-15.5 6.5v2 2l-.5 2-.5 2v2 2 2.5 2.5l.5 1.5.5 1.5v1.5 1.5h.5.5v-1.5-1.5-1.5-1.5-1-1-1-1-1-1-1.5-1.5-1.5-1.5l7-4.5 7-4.5 8.5-3 8.5-3 8-3 8-3 8.5-2.5 8.5-2.5 8-3 8-3 8-3 8-3 8.5-3 8.5-3 8-3 8-3 8-3 8-3 8-3 8-3 8-3 8-3 8.5-3 8.5-3 8-3 8-3 8-3 8-3 8.5-2.5 8.5-2.5 8-3 8-3 8-3.5 8-3.5" style="fill:#59747c;stroke:#59747c"/><path d="m959 586h1v-1.5-1.5-1.5-1.5h-.5-.5l-8.5 3-8.5 3-8.5 2.5-8.5 2.5-8 3-8 3-8 3-8 3-8 3-8 3-8 3-8 3-8.5 3-8.5 3-8 3-8 3-8.5 2.5-8.5 2.5-8 3-8 3-8 3-8 3-8.5 3-8.5 3-8 3-8 3-8.5 2.5-8.5 2.5-8 3-8 3-8 3-8 3-12 1-12 1v.5.5l8 1.5 8 1.5 8-3 8-3 8.5-2.5 8.5-2.5 8-3 8-3 8.5-3 8.5-3 8-3 8-3 8.5-2.5 8.5-2.5 7.5-3.5 7.5-3.5 8.5-2.5 8.5-2.5 8-3.5 8-3.5 14.5-4 14.5-4-1.5 1-1.5 1 9-3 9-3 8.5-3 8.5-3 8-3 8-3 8-3 8-3 15-5 15-5" style="fill:#393526;stroke:#393526"/><path d="m959 580h1v-1.5-1.5-2-2-2-2h-.5-.5l-8 4-8 4-8 3-8 3-8.5 2.5-8.5 2.5-8 3-8 3-8 3.5-8 3.5-8 3-8 3-8 3-8 3-8 3-8 3-8 3-8 3-8.5 3-8.5 3-8 3-8 3-8 3-8 3-8 3-8 3-8.5 2.5-8.5 2.5-8 3.5-8 3.5-8 3-8 3-12.5 3.5-12.5 3.5h-.5-.5-.5-.5v.5.5l12-1 12-1 8-3 8-3 8-3 8-3 8.5-2.5 8.5-2.5 8-3 8-3 8.5-3 8.5-3 8-3 8-3 8-3 8-3 8.5-2.5 8.5-2.5 8-3 8-3 8.5-3 8.5-3 8-3 8-3 8-3 8-3 8-3 8-3 8-3 8-3 8.5-2.5 8.5-2.5 8.5-3 8.5-3" style="fill:#374142;stroke:#374142"/><path d="m959 569h1v-.5-.5h-.5-.5l-5.5 2-5.5 2-8 3-8 3-8 3-8 3-8 3-8 3-8 3-8 3-8 3-8 3-8 3-8 3-8.5 3-8.5 3-8 3-8 3-8 3-8 3-8.5 2.5-8.5 2.5-8 3-8 3-8 3.5-8 3.5-8 3-8 3-8 3-8 3-8 3-8 3-14.5 4-14.5 4-1-10.5-1-10.5-.5-16.5-.5-16.5h-.5-.5v1.5 1.5 2 2 2.5 2.5 2 2l-.5 1.5-.5 1.5-.5-11-.5-11-.5-21-.5-21v2.5 2.5 2.5 2.5 2 2 2.5 2.5 2 2 2.5 2.5 1.5 1.5 11.5 11.5l.5 10.5.5 10.5-.5 14-.5 14-1.5 1-1.5 1-8.5 3-8.5 3-8 3-8 3-8 3-8 3-8.5 2.5-8.5 2.5-15.5 6.5-15.5 6.5h2.5 2.5 2 2 2.5 2.5 2 2 .5.5l-1-.5-1-.5v-1.5-1.5l1.5-.5 1.5-.5 2-.5 2-.5 1.5-.5 1.5-.5 1.5-1 1.5-1 8.5-3 8.5-3 8-3 8-3 8-3 8-3 10-3.5 10-3.5 1-.5 1-.5 1-.5 1-.5v-.5-.5-.5-.5-12-12l1 12 1 12 12.5-3.5 12.5-3.5 8-3 8-3 8-3.5 8-3.5 8.5-2.5 8.5-2.5 8-3 8-3 8-3 8-3 8-3 8-3 8.5-3 8.5-3 8-3 8-3 8-3 8-3 8-3 8-3 8-3 8-3 8-3.5 8-3.5 8-3 8-3 8.5-2.5 8.5-2.5 8-3 8-3 8-4 8-4" style="fill:#59747c;stroke:#59747c"/><path d="m959 568h1v-12.5-12.5-11-11-11.5-11.5-11-11-11-11-11-11-11-11h-.5-.5l-2.5 1.5-2.5 1.5-7 4-7 4-8 3.5-8 3.5-7 4-7 4-9.5 3.5-9.5 3.5h-.5-.5l-8 4-8 4-7 4-7 4-6.5 2.5-6.5 2.5-7 4-7 4-6.5 2.5-6.5 2.5-6 3.5-6 3.5-8 3-8 3-9 2.5-9 2.5-1 .5-1 .5-1.5.5-1.5.5-1.5 1-1.5 1-1 .5-1 .5-.5.5-.5.5-8 3.5-8 3.5-14 6-14 6-9 4-9 4-11 4.5-11 4.5-2.5 9-2.5 9 .5 12 .5 12 1.5.5 1.5.5-.5 1.5-.5 1.5v2.5 2.5 2 2 2.5 2.5 2 2 2.5 2.5 1 1 2.5 2.5l.5 1.5.5 1.5-.5 1.5-.5 1.5-.5 2-.5 2v11 11l2.5 11 2.5 11-2 1.5-2 1.5 14.5-4 14.5-4 8-3 8-3 8-3 8-3 8-3 8-3 8-3.5 8-3.5 8-3 8-3 8.5-2.5 8.5-2.5 8-3 8-3 8-3 8-3 8.5-3 8.5-3 8-3 8-3 8-3 8-3 8-3 8-3 8-3 8-3 8-3 8-3 8-3 8-3 5.5-2 5.5-2" style="fill:#88b3c9;stroke:#88b3c9"/><path d="m959 410h1v-.5-.5h-.5-.5l-8 3.5-8 3.5-7.5 3.5-7.5 3.5-8 3.5-8 3.5-7.5 3.5-7.5 3.5-4.5.5-4.5.5 7.5-3.5 7.5-3.5 7.5-3.5 7.5-3.5 8-3.5 8-3.5 13-4.5 13-4.5v-2.5-2.5-.5-.5h-.5-.5l-.5-2.5-.5-2.5v2.5 2.5l-.5 1-.5 1-2 1-2 1-1.5 1-1.5 1-1.5.5-1.5.5-1.5.5-1.5.5-1.5 1-1.5 1-1.5.5-1.5.5-1.5 1-1.5 1-1.5.5-1.5.5-2 .5-2 .5-2 1-2 1-.5.5-.5.5-8 3.5-8 3.5-7.5 3.5-7.5 3.5-7.5 3.5-7.5 3.5-7.5 3.5-7.5 3.5-8 3.5-8 3.5-7.5 3.5-7.5 3.5-7.5 3.5-7.5 3.5-8 3-8 3-7.5 3.5-7.5 3.5-8 3.5-8 3.5-7.5 3.5-7.5 3.5-7.5 3.5-7.5 3.5-8 3-8 3-10.5 5-10.5 5-.5.5-.5.5-8.5 3.5-8.5 3.5-5-1-5-1 10.5-5 10.5-5 2.5-.5 2.5-.5 1-1 1-1 1-1 1-1-3 .5-3 .5-8.5 3.5-8.5 3.5-7 4-7 4-8.5 2.5-8.5 2.5-6.5 3.5-6.5 3.5-4.5 2-4.5 2-9.5 2.5-9.5 2.5-1 1-1 1-1.5 1.5-1.5 1.5h-.5-.5l-1 .5-1 .5-1 .5-1 .5-1.5 1-1.5 1h-1-1l-4.5 2.5-4.5 2.5-6 1-6 1-7.5 2.5-7.5 2.5-5.5 3.5-5.5 3.5-6.5 3-6.5 3-5.5 2.5-5.5 2.5-4.5 3.5-4.5 3.5-6 3-6 3-7.5 3.5-7.5 3.5-8 3.5-8 3.5-7.5 3.5-7.5 3.5-10.5 4-10.5 4-1.5.5-1.5.5-.5.5-.5.5-1.5.5-1.5.5v1 1l-.5 1-.5 1-.5 1-.5 1-.5 1.5-.5 1.5-1 1-1 1v1 1l.5 1 .5 1-.5 1-.5 1-3.5 5-3.5 5v1 1l-.5 10-.5 10h-.5-.5v2 2l-4.5 4.5-4.5 4.5 1 9.5 1 9.5h1.5 1.5 1 1l2-10.5 2-10.5 4-17.5 4-17.5v-1.5-1.5l.5-.5.5-.5v-1-1l.5-1 .5-1v-1-1l.5-.5.5-.5v-1-1l.5-1 .5-1v-1-1-1-1l.5.5.5.5 1 .5 1 .5.5-.5.5-.5.5-.5.5-.5h1 1l-.5 1.5-.5 1.5v1.5 1.5 1 1l-.5.5-.5.5-.5 2-.5 2-.5.5-.5.5-2 9.5-2 9.5-2.5 8.5-2.5 8.5-2.5 12.5-2.5 12.5h2.5 2.5 1 1l2-9.5 2-9.5 2.5-9 2.5-9 2.5-9 2.5-9v-1.5-1.5l.5-1.5.5-1.5v-1-1l.5-1 .5-1 .5-1.5.5-1.5v-1-1h1 1l.5-.5.5-.5 1-.5 1-.5.5-.5.5-.5h1 1l1.5-.5 1.5-.5 6 .5 6 .5 5.5-5.5 5.5-5.5 7.5-3.5 7.5-3.5 8-3.5 8-3.5 7.5-3.5 7.5-3.5 8-3 8-3 7.5-3.5 7.5-3.5 7.5-3.5 7.5-3.5 8-3.5 8-3.5 8-3 8-3 7.5-3.5 7.5-3.5 7-4 7-4 12.5-5.5 12.5-5.5 1-1 1-1 1.5-.5 1.5-.5 2-.5 2-.5 1.5-.5 1.5-.5 1 .5 1 .5.5 1.5.5 1.5.5 2 .5 2v2 2 2 2h.5.5v-2-2-1.5-1.5-1-1-1-1-1-1-1-1l-.5-.5-.5-.5-.5-1-.5-1-1-.5-1-.5-9 4-9 4-8 3-8 3-7.5 3.5-7.5 3.5-7.5 3.5-7.5 3.5-7.5 3.5-7.5 3.5-8 3.5-8 3.5 1-1 1-1 7.5-3.5 7.5-3.5 7.5-3.5 7.5-3.5 7.5-3.5 7.5-3.5 8-3.5 8-3.5 7.5-3.5 7.5-3.5 11.5-4.5 11.5-4.5-1 1-1 1h-1-1l-1 1-1 1 3 9 3 9 .5 20 .5 20v-2-2-2.5-2.5-2-2-2.5-2.5-2-2-2-2-2-2l.5-1.5.5-1.5-.5-1.5-.5-1.5v-1-1-1.5-1.5-2-2-1-1-1-1-1-1-1.5-1.5-1-1-1-1-1-1l1-.5 1-.5h2 2l11-4.5 11-4.5 9-4 9-4 5.5-3 5.5-3 7.5-3.5 7.5-3.5 9.5-3.5 9.5-3.5 1-.5 1-.5 1.5-1 1.5-1 1.5-.5 1.5-.5 1-.5 1-.5 7.5-3.5 7.5-3.5 7.5-3.5 7.5-3.5 7.5-3.5 7.5-3.5 7.5-3.5 7.5-3.5 8-3 8-3 7.5-4 7.5-4 13-5 13-5 9.5-3.5 9.5-3.5 7-4 7-4 8-3.5 8-3.5 7-4 7-4 2.5-1.5 2.5-1.5" style="fill:#59747c;stroke:#59747c"/><path d="m959 409h1v-.5-.5l-13 4.5-13 4.5-8 3.5-8 3.5-7.5 3.5-7.5 3.5-7.5 3.5-7.5 3.5 4.5-.5 4.5-.5 7.5-3.5 7.5-3.5 8-3.5 8-3.5 7.5-3.5 7.5-3.5 8-3.5 8-3.5" style="fill:#374142;stroke:#374142"/><path d="m959 402h1v-1.5-1.5-2-2-1.5-1.5h-.5-.5l-1 .5-1 .5-.5.5-.5.5-8 4-8 4-8 3.5-8 3.5-7 4-7 4-7.5 3.5-7.5 3.5-8 3-8 3-13.5 6-13.5 6-.5.5-.5.5-8 4-8 4-13 6.5-13 6.5 7.5-2 7.5-2 8.5-3 8.5-3 7.5-3.5 7.5-3.5 6.5-2.5 6.5-2.5 7.5-3.5 7.5-3.5 7.5-3.5 7.5-3.5 12.5-4.5 12.5-4.5 2-1 2-1 1-1 1-1 1.5-1 1.5-1 1-1 1-1 1.5-.5 1.5-.5h1 1l1-.5 1-.5 1-1 1-1h1 1l1-.5 1-.5 1.5-.5 1.5-.5 2-.5 2-.5 1.5-1 1.5-1v-2.5-2.5l.5 2.5.5 2.5" style="fill:#88b3c9;stroke:#88b3c9"/><path d="m959 392h1v-12.5-12.5-11-11-11.5-11.5-11-11-11-11-11-11-11-11h-.5-.5l-7 4-7 4-6.5 2.5-6.5 2.5-6.5 2.5-6.5 2.5-1 7.5-1 7.5-1.5 3.5-1.5 3.5-3.5 7.5-3.5 7.5-6 4-6 4-5 5-5 5-4.5 2-4.5 2-1.5 7.5-1.5 7.5-6 4-6 4-8 3-8 3-9 1-9 1-9.5 2-9.5 2-2.5 7.5-2.5 7.5-6.5-1.5-6.5-1.5-5.5 3.5-5.5 3.5-4.5 5.5-4.5 5.5-8 2.5-8 2.5-1.5 10-1.5 10 4.5 5 4.5 5 4.5 6.5 4.5 6.5 5 6.5 5 6.5 5 6 5 6 7.5 1.5 7.5 1.5 9.5 1.5 9.5 1.5 14.5-6.5 14.5-6.5 7.5-4 7.5-4 7.5-3.5 7.5-3.5 8-3.5 8-3.5 7.5-3.5 7.5-3.5 7.5-3.5 7.5-3.5 14.5-6.5 14.5-6.5 1-.5 1-.5" style="fill:#f5ffef;stroke:#f5ffef"/><path d="m959 234h1v-1.5-1.5-2-2-1-1h-.5-.5l-.5 1-.5 1-1 .5-1 .5-2 .5-2 .5-.5-1.5-.5-1.5.5-2 .5-2v-2-2-2-2l1.5-1 1.5-1 .5-.5.5-.5 2-1 2-1v-12.5-12.5-11.5-11.5-11-11-11-11-11-11-11-11-11.5-11.5-11-11-11-11-3-3h-8-8-5.5-5.5v1.5 1.5l-5.5 4.5-5.5 4.5-.5 2.5-.5 2.5h-2.5-2.5l-.5 7.5-.5 7.5-1.5 2.5-1.5 2.5-.5 4.5-.5 4.5 1.5 3.5 1.5 3.5-4 7.5-4 7.5v7 7l2.5 4.5 2.5 4.5-2.5 5.5-2.5 5.5 1 5 1 5-2.5 1-2.5 1h-2-2l-1.5 5.5-1.5 5.5-2 3-2 3 1 4 1 4-1 3.5-1 3.5-3.5 5.5-3.5 5.5-4.5 5.5-4.5 5.5-3 5-3 5-4.5 5.5-4.5 5.5-5.5 6-5.5 6-2 6-2 6-5-2-5-2-2.5 2.5-2.5 2.5v5 5l-4.5 3-4.5 3-4 3-4 3-6 1-6 1-4.5 6.5-4.5 6.5-4.5 4.5-4.5 4.5-6-1.5-6-1.5-4 3-4 3h-2-2l-5 2-5 2-4 5-4 5-5 3.5-5 3.5-6 3-6 3-4 6-4 6-4.5 3.5-4.5 3.5-1.5-4-1.5-4 1 10.5 1 10.5 1 10 1 10 5 6.5 5 6.5 5 6 5 6 4.5 6.5 4.5 6.5 9 10.5 9 10.5 1.5-10 1.5-10 8-2.5 8-2.5 4.5-5.5 4.5-5.5 5.5-3.5 5.5-3.5 6.5 1.5 6.5 1.5 2.5-7.5 2.5-7.5 9.5-2 9.5-2 9-1 9-1 8-3 8-3 6-4 6-4 1.5-7.5 1.5-7.5 4.5-2 4.5-2 5-5 5-5 6-4 6-4 3.5-7.5 3.5-7.5 1.5-3.5 1.5-3.5 1-7.5 1-7.5 6.5-2.5 6.5-2.5 6.5-2.5 6.5-2.5 7-4 7-4" style="fill:#d8fef1;stroke:#d8fef1"/><path d="m959 225h1v-1.5-1.5-2-2-2.5-2.5-2-2l-2 1-2 1-.5.5-.5.5-1.5 1-1.5 1v2 2 2 2l-.5 2-.5 2 .5 1.5.5 1.5 2-.5 2-.5 1-.5 1-.5.5-1 .5-1" style="fill:#f5ffef;stroke:#f5ffef"/><path d="m958 643l1-3v-1-1-1-1-1-1-1.5-1.5-1-1-1-1-1-1-1.5-1.5-1-1-1-1-1-1-1.5-1.5-1-1-1-1-1-1-2-2l-9-1-9-1-8 3-8 3-8.5 3-8.5 3-8 3-8 3-8.5 2.5-8.5 2.5-8 3-8 3-7.5 3.5-7.5 3.5-8.5 3-8.5 3-7.5 3.5-7.5 3.5-8 3-8 3-8 3-8 3-8.5 2.5-8.5 2.5-8.5 3-8.5 3-7 2-7 2-7.5 3.5-7.5 3.5-8 2-8 2-8.5 3-8.5 3v1.5 1.5 1.5 1.5 1 1 1 1 1 1 1.5 1.5 1.5 1.5h1.5 1.5l9.5-7.5 9.5-7.5 7.5-3 7.5-3 7.5-2.5 7.5-2.5 7.5-3.5 7.5-3.5 8.5-1.5 8.5-1.5 6.5-3.5 6.5-3.5 6-1.5 6-1.5 6.5-3.5 6.5-3.5 8-3 8-3 7-3 7-3 7.5-2.5 7.5-2.5 7-4.5 7-4.5 8-1 8-1 5.5-2.5 5.5-2.5 6.5-1.5 6.5-1.5 8-3 8-3 8.5-3 8.5-3 7-3 7-3 3 7 3 7v12 12" style="fill:#779dac;stroke:#779dac"/><path d="m958 587l1-1-15 5-15 5-8 3-8 3-8 3-8 3-8.5 3-8.5 3-9 3-9 3-9 3-9 3-8 3.5-8 3.5-8 3-8 3-8.5 2.5-8.5 2.5-8 3-8 3-8 3-8 3-8.5 3-8.5 3-8 3-8 3-8 3-8 3-8.5 2.5-8.5 2.5-12.5 5.5-12.5 5.5-.5.5-.5.5-.5.5-.5.5h2 2l2-.5 2-.5h1 1l.5.5.5.5 1-1.5 1-1.5 15.5-6.5 15.5-6.5 8.5-2.5 8.5-2.5 8-3 8-3 8-3 8-3 8.5-2.5 8.5-2.5 8-3.5 8-3.5 8-3 8-3 8-3 8-3 8-3 8-3 8-3 8-3 8.5-3 8.5-3 8.5-2.5 8.5-2.5 8-3 8-3 8-3 8-3 7.5-3.5 7.5-3.5 8.5-3 8.5-3" style="fill:#374142;stroke:#374142"/><path d="m957 404l1-2-1.5 1-1.5 1-2 .5-2 .5-1.5.5-1.5.5-1 .5-1 .5h-1-1l-1 1-1 1-1 .5-1 .5h-1-1l-1.5.5-1.5.5-1 1-1 1-1.5 1-1.5 1-1 1-1 1 2-.5 2-.5 1.5-.5 1.5-.5 1.5-1 1.5-1 1.5-.5 1.5-.5 1.5-1 1.5-1 1.5-.5 1.5-.5 1.5-.5 1.5-.5 1.5-1 1.5-1 2-1 2-1" style="fill:#779dac;stroke:#779dac"/><path d="m956 394l1-1-14.5 6.5-14.5 6.5-7.5 3.5-7.5 3.5-7.5 3.5-7.5 3.5-8 3.5-8 3.5-7.5 3.5-7.5 3.5-7.5 4-7.5 4 13.5-6 13.5-6 8-3 8-3 7.5-3.5 7.5-3.5 7-4 7-4 8-3.5 8-3.5 8-4 8-4" style="fill:#d8fef1;stroke:#d8fef1"/><path d="m933 3v-3h-13-13-11-11-9.5-9.5l.5 1 .5 1v1 1l-1.5 2-1.5 2-3 2-3 2-4 4-4 4-4 3-4 3v-7-7l-3 4.5-3 4.5 4.5 5.5 4.5 5.5-4.5 6.5-4.5 6.5-2 1-2 1-2.5 6.5-2.5 6.5-4 4.5-4 4.5-.5 3.5-.5 3.5-4.5-2.5-4.5-2.5.5 1.5.5 1.5v5 5l-5.5 3-5.5 3-2.5 2.5-2.5 2.5 3.5 5.5 3.5 5.5-4.5-.5-4.5-.5-3 5-3 5-6.5 3-6.5 3-4 5-4 5-7.5.5-7.5.5-5 6-5 6-4 6-4 6-6.5 2-6.5 2-3 1-3 1-5.5.5-5.5.5-3.5 2.5-3.5 2.5-5 2-5 2 1.5 3 1.5 3-7.5 7-7.5 7 5 7 5 7 4.5 6.5 4.5 6.5 1 8 1 8 1 10.5 1 10.5 1 10 1 10 1 12.5 1 12.5 1.5 4 1.5 4 4.5-3.5 4.5-3.5 4-6 4-6 6-3 6-3 5-3.5 5-3.5 4-5 4-5 5-2 5-2h2 2l4-3 4-3 6 1.5 6 1.5 4.5-4.5 4.5-4.5 4.5-6.5 4.5-6.5 6-1 6-1 4-3 4-3 4.5-3 4.5-3v-5-5l2.5-2.5 2.5-2.5 5 2 5 2 2-6 2-6 5.5-6 5.5-6 4.5-5.5 4.5-5.5 3-5 3-5 4.5-5.5 4.5-5.5 3.5-5.5 3.5-5.5 1-3.5 1-3.5-1-4-1-4 2-3 2-3 1.5-5.5 1.5-5.5h2 2l2.5-1 2.5-1-1-5-1-5 2.5-5.5 2.5-5.5-2.5-4.5-2.5-4.5v-7-7l4-7.5 4-7.5-1.5-3.5-1.5-3.5.5-4.5.5-4.5 1.5-2.5 1.5-2.5.5-7.5.5-7.5h2.5 2.5l.5-2.5.5-2.5 5.5-4.5 5.5-4.5" style="fill:#baf0f6;stroke:#baf0f6"/><path d="m923 420l1-1-12.5 4.5-12.5 4.5-7.5 3.5-7.5 3.5-7.5 3.5-7.5 3.5-6.5 2.5-6.5 2.5-7.5 3.5-7.5 3.5-8.5 3-8.5 3-7.5 2-7.5 2-1-.5-1-.5-1.5 1-1.5 1-1.5.5-1.5.5-1 .5-1 .5h-.5-.5l-2 .5-2 .5-2 1-2 1-.5.5-.5.5-1.5.5-1.5.5-1 1-1 1h-1-1l-1 .5-1 .5-1 1-1 1-2.5.5-2.5.5-1-1-1-1v-1-1l-.5-1-.5-1v-1-1l-.5-2-.5-2-.5-1.5-.5-1.5v-2-2l-1.5-1-1.5-1v2 2l.5 2 .5 2v2 2l.5 2 .5 2 .5 1.5.5 1.5.5 1 .5 1-1 1-1 1h1 1l-1 .5-1 .5-1 .5-1 .5-5 3.5-5 3.5-3 3-3 3h-5.5-5.5l-7.5 3.5-7.5 3.5-10.5 5-10.5 5-1 1-1 1-2.5.5-2.5.5-.5 1-.5 1-1.5 1-1.5 1-1.5.5-1.5.5.5 1.5.5 1.5.5-.5.5-.5h1.5 1.5l1.5-.5 1.5-.5.5-.5.5-.5 1-.5 1-.5h1.5 1.5l10.5-5 10.5-5 8-3 8-3 7.5-3.5 7.5-3.5 7.5-3.5 7.5-3.5 8-3.5 8-3.5 7.5-3.5 7.5-3.5 8-3 8-3 7.5-3.5 7.5-3.5 7.5-3.5 7.5-3.5 8-3.5 8-3.5 7.5-3.5 7.5-3.5 7.5-3.5 7.5-3.5 7.5-3.5 7.5-3.5 8-3.5 8-3.5" style="fill:#779dac;stroke:#779dac"/><path d="m918 85l-7-9 2.5 4.5 2.5 4.5h1 1" style="fill:#baf0f6;stroke:#baf0f6"/><path d="m890 443h1l-13 5-13 5-7.5 4-7.5 4-8 3-8 3-7.5 3.5-7.5 3.5-7.5 3.5-7.5 3.5-7.5 3.5-7.5 3.5-7.5 3.5-7.5 3.5 9-2.5 9-2.5 8-3 8-3 6-3.5 6-3.5 6.5-2.5 6.5-2.5 7-4 7-4 6.5-2.5 6.5-2.5 7-4 7-4 8-4 8-4" style="fill:#779dac;stroke:#779dac"/><path d="m867 4v-2l-.5-1-.5-1h-12-12-11-11-11-11-11-11-11-11-11.5-11.5-11-11-1.5-1.5v1.5 1.5 1 1l-6 1.5-6 1.5-7 4.5-7 4.5-6 1-6 1-8.5-.5-8.5-.5-6.5 2.5-6.5 2.5-1 1.5-1 1.5-.5 5.5-.5 5.5-2-2-2-2-6.5 1.5-6.5 1.5.5 6.5.5 6.5-2.5-1-2.5-1-5 4-5 4-1.5 2.5-1.5 2.5 1.5 3.5 1.5 3.5-2.5 3.5-2.5 3.5-5-1.5-5-1.5v-4-4l-7.5 5-7.5 5 2.5-.5 2.5-.5v1 1l-.5 1.5-.5 1.5 1 1.5 1 1.5 1.5-.5 1.5-.5-.5-1-.5-1-.5-.5-.5-.5 1.5-1 1.5-1 1.5.5 1.5.5v1 1 2.5 2.5l-1.5 1-1.5 1h8 8l3 7 3 7 4.5 6.5 4.5 6.5 4.5 6.5 4.5 6.5 5 6.5 5 6.5 4.5 6.5 4.5 6.5 4.5 6.5 4.5 6.5 4.5 6.5 4.5 6.5 6 8 6 8 7.5-7 7.5-7-1.5-3-1.5-3 5-2 5-2 3.5-2.5 3.5-2.5 5.5-.5 5.5-.5 3-1 3-1 6.5-2 6.5-2 4-6 4-6 5-6 5-6 7.5-.5 7.5-.5 4-5 4-5 6.5-3 6.5-3 3-5 3-5 4.5.5 4.5.5-3.5-5.5-3.5-5.5 2.5-2.5 2.5-2.5 5.5-3 5.5-3v-5-5l-.5-1.5-.5-1.5 4.5 2.5 4.5 2.5.5-3.5.5-3.5 4-4.5 4-4.5 2.5-6.5 2.5-6.5 2-1 2-1 4.5-6.5 4.5-6.5-4.5-5.5-4.5-5.5 3-4.5 3-4.5v7 7l4-3 4-3 4-4 4-4 3-2 3-2 1.5-2 1.5-2" style="fill:#99dcf6;stroke:#99dcf6"/><path d="m865 618l-29 8-8 3.5-8 3.5-8.5 2.5-8.5 2.5-7.5 3.5-7.5 3.5-8.5 2.5-8.5 2.5-8 3-8 3-8.5 3-8.5 3-8 3-8 3-8.5 2.5-8.5 2.5-8 3-8 3-8-1.5-8-1.5 1 1.5 1 1.5 1 1 1 1-.5 1.5-.5 1.5-8.5 3.5-8.5 3.5-8.5 3-8.5 3-8 3-8 3-12 4.5-12 4.5h3.5 3.5 1.5 1.5l8-3.5 8-3.5 8-3 8-3 14-4.5 14-4.5 12.5-5.5 12.5-5.5 8.5-2.5 8.5-2.5 8-3 8-3 8-3 8-3 8.5-3 8.5-3 8-3 8-3 8-3 8-3 8.5-2.5 8.5-2.5 8-3 8-3 8-3.5 8-3.5 9-3 9-3 1.5-1 1.5-1" style="fill:#1f1e12;stroke:#1f1e12"/><path d="m851 443l1-1-14.5 6.5-14.5 6.5-9.5-1.5-9.5-1.5-7.5-1.5-7.5-1.5-5-6-5-6-5-6.5-5-6.5-4.5-6.5-4.5-6.5-4.5-5-4.5-5-9-10.5-9-10.5-4.5-6.5-4.5-6.5-5-6-5-6-5-6.5-5-6.5-1-10-1-10-1-10.5-1-10.5-1-12.5-1-12.5-1-10-1-10-1-10.5-1-10.5-1-8-1-8-4.5-6.5-4.5-6.5-5-7-5-7-6-8-6-8-4.5-6.5-4.5-6.5-4.5-6.5-4.5-6.5-4.5-6.5-4.5-6.5-5-6.5-5-6.5-4.5-6.5-4.5-6.5-4.5-6.5-4.5-6.5-3-7-3-7h-8-8-1.5-1.5l-.5-.5-.5-.5h-1-1-1-1l-1-.5-1-.5h1 1l-.5-.5-.5-.5h-1-1-1-1-1.5-1.5l-1 1-1 1-1.5.5-1.5.5-.5 1-.5 1-.5.5-.5.5-1 .5-1 .5-.5.5-.5.5-.5.5-.5.5h-1-1l-.5 1-.5 1-.5.5-.5.5h-1-1l-.5.5-.5.5-.5 1-.5 1h-1-1l-.5.5-.5.5-.5 1-.5 1-1.5.5-1.5.5-.5.5-.5.5-1 .5-1 .5-.5.5-.5.5-5.5 3-5.5 3-4.5 4.5-4.5 4.5-6.5 4.5-6.5 4.5-6 5-6 5-6.5 4.5-6.5 4.5-6.5 5-6.5 5-6 5-6 5-4.5 5.5-4.5 5.5-5-6-5-6-5-6-5-6-8.5-10-8.5-10-6-6.5-6-6.5-6.5-4.5-6.5-4.5h-8.5-8.5l-9 6.5-9 6.5-6 4-6 4-6 5-6 5-5 6-5 6-5.5 6-5.5 6-5 6-5 6-5 6-5 6h-8-8l-5.5 5.5-5.5 5.5-5.5 6-5.5 6-5 6-5 6-5.5 5.5-5.5 5.5-5 6-5 6-5 6-5 6-5.5 5.5-5.5 5.5-5.5 6-5.5 6-5.5 6-5.5 6h-.5-.5l-5.5 7-5.5 7-5.5 6-5.5 6-5 6-5 6-5.5 5.5-5.5 5.5-5 6-5 6-5 6-5 6-5.5 6-5.5 6-5.5 5.5-5.5 5.5-5 6-5 6-5 6-5 6-5 6-5 6-5.5 6-5.5 6-5 6-5 6-5.5 5.5-5.5 5.5-5 6-5 6-7 8.5-7 8.5v2 2l4.5-4 4.5-4 4.5-3.5 4.5-3.5 8-11 8-11 1-.5 1-.5-.5-1.5-.5-1.5 2-.5 2-.5.5-1.5.5-1.5.5-.5.5-.5-.5-.5-.5-.5v-1-1l1-.5 1-.5.5-.5.5-.5v1 1l.5-.5.5-.5.5-.5.5-.5 1-.5 1-.5-.5-.5-.5-.5-.5-.5-.5-.5.5-.5.5-.5.5-.5.5-.5h.5.5l-.5.5-.5.5.5.5.5.5.5-.5.5-.5 1.5-1 1.5-1 1.5-.5 1.5-.5 1-.5 1-.5-1-1-1-1 1-1 1-1 .5-1 .5-1 1-1 1-1 3.5-3 3.5-3 .5-3 .5-3 4-3 4-3 5-6 5-6 3-3 3-3 2.5-4 2.5-4 4.5-3.5 4.5-3.5 2.5-5.5 2.5-5.5 5.5-4.5 5.5-4.5 4-5 4-5 5.5-6 5.5-6 4-4 4-4 4-6 4-6 4-3 4-3 5.5-5.5 5.5-5.5 3-3.5 3-3.5 4-6 4-6 4.5-4.5 4.5-4.5 3.5-4.5 3.5-4.5 4.5-3.5 4.5-3.5 4-4.5 4-4.5 2.5-4.5 2.5-4.5 7-6.5 7-6.5.5-1 .5-1 .5-.5.5-.5.5-1 .5-1 1.5-.5 1.5-.5.5-1 .5-1 1.5-1 1.5-1 .5-1 .5-1 .5-.5.5-.5v-.5-.5-1-1l.5.5.5.5 1.5-1 1.5-1 1-2 1-2 1-1 1-1 1-1.5 1-1.5 1-1 1-1 1.5-1 1.5-1h2 2l2 .5 2 .5 2 1 2 1 6-4.5 6-4.5 7-8.5 7-8.5 1-.5 1-.5v-1-1l.5-1 .5-1 1.5-1.5 1.5-1.5-.5-1-.5-1 1-1 1-1 1-1 1-1 .5-.5.5-.5.5-1 .5-1 1-1 1-1 .5-.5.5-.5h.5.5l1.5-1 1.5-1 6-6 6-6 9-5.5 9-5.5 1.5-.5 1.5-.5 1-1 1-1 1.5-1 1.5-1 1-1 1-1 1-1.5 1-1.5 1.5-.5 1.5-.5 1.5-1 1.5-1 1-.5 1-.5 2 .5 2 .5 2 1 2 1h.5.5l7 5.5 7 5.5 2 2 2 2 5 6 5 6 5 6 5 6 5 6 5 6 8 8.5 8 8.5 1-.5 1-.5.5-1.5.5-1.5.5-1.5.5-1.5.5-2 .5-2 6.5-5 6.5-5 6-5 6-5 6.5-4.5 6.5-4.5 6.5-4.5 6.5-4.5 9-6 9-6 7-5 7-5 6.5-4.5 6.5-4.5 9-7.5 9-7.5h6.5 6.5l9 2 9 2 4.5 6.5 4.5 6.5 4.5 6.5 4.5 6.5 4.5 6.5 4.5 6.5 5 8 5 8 4.5 7 4.5 7 4.5 6.5 4.5 6.5 5 6.5 5 6.5 4.5 6.5 4.5 6.5 5 6 5 6 3 7 3 7 1 8 1 8 1.5 8 1.5 8 .5 8.5.5 8.5 1 9 1 9v10 10l1.5 8.5 1.5 8.5 2 9.5 2 9.5 4.5 6 4.5 6 5 8.5 5 8.5h-1-1l-.5-.5-.5-.5-.5-1-.5-1-.5-1.5-.5-1.5-.5-.5-.5-.5-1-.5-1-.5-.5-1.5-.5-1.5-1.5-1-1.5-1-.5-1.5-.5-1.5-1-1-1-1h-1.5-1.5l-.5 2-.5 2 6 6 6 6 2 8 2 8 4-7 4-7 1 .5 1 .5.5.5.5.5-1 .5-1 .5.5 1.5.5 1.5v2 2l.5.5.5.5v1.5 1.5l.5 1.5.5 1.5.5.5.5.5.5 1 .5 1 1 1 1 1 .5.5.5.5.5 1 .5 1 .5 1 .5 1 .5 1 .5 1 1 1 1 1 .5.5.5.5.5.5.5.5.5.5.5.5.5 1 .5 1 .5.5.5.5.5.5.5.5v1 1l1.5 1 1.5 1 1 2.5 1 2.5.5 1.5.5 1.5.5 1.5.5 1.5.5-1 .5-1v-2-2-2.5-2.5l1.5-.5 1.5-.5 1 .5 1 .5h1 1l-.5.5-.5.5v1 1l.5 1 .5 1v1 1 1 1l.5.5.5.5v1 1 1.5 1.5h1 1v1 1l.5.5.5.5.5 1 .5 1 .5.5.5.5.5.5.5.5.5 1 .5 1 .5 1.5.5 1.5.5.5.5.5.5.5.5.5.5 1 .5 1 1 1 1 1 1 .5 1 .5 1 .5 1 .5 1 1.5 1 1.5v2 2l-.5 1.5-.5 1.5 1 1.5 1 1.5 1 1 1 1 .5-2 .5-2v-2-2l.5-2 .5-2 1-1 1-1h1.5 1.5l.5.5.5.5-.5 1-.5 1 1 1 1 1 .5.5.5.5.5 1 .5 1 .5 1.5.5 1.5 1 .5 1 .5 1-.5 1-.5 1.5-.5 1.5-.5 1.5-1 1.5-1 1 .5 1 .5 13-6.5 13-6.5 8-4 8-4" style="fill:#374142;stroke:#374142"/><path d="m798 467h1l-1-.5-1-.5-.5-1.5-.5-1.5-.5-1-.5-1-.5-.5-.5-.5-1-1-1-1 .5-1 .5-1-.5-.5-.5-.5h-1.5-1.5l-.5 1.5-.5 1.5v3 3 3 3h1 1l2-1 2-1 2-.5 2-.5" style="fill:#59747c;stroke:#59747c"/><path d="m789 471l1-1h-1-1l-1.5.5-1.5.5-1 .5-1 .5-.5.5-.5.5v-1-1l-.5-.5-.5-.5-.5-1-.5-1-.5-.5-.5-.5h-1-1v1 1l-.5-1-.5-1-.5-1-.5-1v1.5 1.5l-.5 1-.5 1-.5 2.5-.5 2.5v1.5 1.5l2.5-.5 2.5-.5 1-1 1-1 1-.5 1-.5h1 1l1-1 1-1 1.5-.5 1.5-.5" style="fill:#374142;stroke:#374142"/><path d="m788 458l1-3-1 1-1 1-.5 2-.5 2v2 2l-.5 2-.5 2-1-1-1-1-1-1.5-1-1.5.5-1.5.5-1.5v-2-2l-1-1.5-1-1.5-1-.5-1-.5 1 2 1 2-.5 1.5-.5 1.5-.5.5-.5.5h-.5-.5l-1-1-1-1v1 1 2 2l.5 1 .5 1 .5 1 .5 1v-1-1h1 1l.5.5.5.5.5 1 .5 1 .5.5.5.5v1 1l.5-.5.5-.5 1-.5 1-.5 1.5-.5 1.5-.5v-3-3-3-3" style="fill:#415764;stroke:#415764"/><path d="m779 460l1-3-1-2-1-2-1-.5-1-.5-1-1-1-1-.5-1-.5-1-.5-.5-.5-.5-.5-.5-.5-.5-.5-1.5-.5-1.5h-.5-.5l-1.5-.5-1.5-.5 1 1 1 1 .5 1 .5 1 1 1 1 1v1 1l1 .5 1 .5 1 1 1 1 .5.5.5.5.5 1 .5 1 .5 1.5.5 1.5v1 1l.5-.5.5-.5" style="fill:#3f6587;stroke:#3f6587"/><path d="m777 461h1v-1-1h-.5-.5l-1-1-1-1-1-1.5-1-1.5-1-1-1-1-1-1.5-1-1.5-1-.5-1-.5-.5.5-.5.5v1 1l.5.5.5.5-.5.5-.5.5.5 1 .5 1 1 2 1 2 1 1 1 1 1 1.5 1 1.5 1 .5 1 .5v-2-2-1-1l1 1 1 1" style="fill:#59747c;stroke:#59747c"/><g style="fill:#4e77a3;stroke:#4e77a3"><path d="m777 459h1l-.5-1.5-.5-1.5-.5-1-.5-1-.5-.5-.5-.5-1-1-1-1-1-.5-1-.5v-1-1l-1-1-1-1-.5-1-.5-1-1-1-1-1-.5-1-.5-1-.5-.5-.5-.5-.5-.5-.5-.5-.5.5-.5.5v2 2l.5 1 .5 1 .5.5.5.5 1.5 1 1.5 1 1 .5 1 .5 1 1.5 1 1.5 1 1 1 1 1 1.5 1 1.5 1 1 1 1"/><path d="m774 470l1-2v-1.5-1.5l-1-.5-1-.5-1-1.5-1-1.5-1-1-1-1h-.5-.5v2 2l.5 1.5.5 1.5.5 2 .5 2v1 1l.5 1 .5 1v1 1l1 1 1 1v-1.5-1.5l.5-2.5.5-2.5"/></g><path d="m769 478l-1-2-.5-1.5-.5-1.5-.5-2-.5-2v-2-2l-.5-2-.5-2v-2-2l1.5 1 1.5 1h.5.5l-1-2-1-2-.5-1-.5-1 .5-.5.5-.5-.5-.5-.5-.5v-1-1l.5-.5.5-.5-1.5-1-1.5-1-.5-.5-.5-.5-.5-1-.5-1h-.5-.5l-1-.5-1-.5 1 1.5 1 1.5.5 1.5.5 1.5v2 2l.5 2 .5 2v2 2l.5 2 .5 2v1.5 1.5l.5 1 .5 1v1.5 1.5 1.5 1.5h-.5-.5l.5 2 .5 2v1.5 1.5l1-.5 1-.5 1-.5 1-.5h-1-1l1-1 1-1" style="fill:#6e9091;stroke:#6e9091"/><path d="m769 443h1l-.5-1-.5-1-.5-.5-.5-.5-.5-.5-.5-.5-.5-1-.5-1-.5-.5-.5-.5v-1-1h-1-1v-1.5-1.5-1-1l-.5-.5-.5-.5v-1-1-1-1l-.5-1-.5-1v-1-1l.5-.5.5-.5h-1-1l-1-.5-1-.5v1.5 1.5l-.5 1.5-.5 1.5v2.5 2.5 2 2l.5 2 .5 2 1.5 1 1.5 1h.5.5l.5-.5.5-.5.5.5.5.5.5.5.5.5.5 1 .5 1 1.5.5 1.5.5" style="fill:#59747c;stroke:#59747c"/><path d="m765 475v-3-1.5-1.5l-.5-1-.5-1h-.5-.5v-2.5-2.5l-.5 1-.5 1-.5 1-.5 1-.5-1.5-.5-1.5v-1-1l-.5-1-.5-1v-2-2l-.5-2-.5-2-.5-1.5-.5-1.5-.5-1.5-.5-1.5.5-.5.5-.5-.5-1-.5-1-1-1-1-1v2 2l.5 2 .5 2 .5 1.5.5 1.5v2 2 1 1l-.5 2-.5 2 .5 1.5.5 1.5v1 1l.5 1 .5 1 .5 2 .5 2v2 2 1.5 1.5l-1-1-1-1-1-.5-1-.5 1 1.5 1 1.5 1 1 1 1v1 1l-1 1-1 1-.5-.5-.5-.5-1-.5-1-.5-.5-.5-.5-.5-1-1-1-1 .5 1.5.5 1.5.5.5.5.5v1 1l-.5 1-.5 1h-1.5-1.5l-.5.5-.5.5h-1.5-1.5l-1.5.5-1.5.5-.5.5-.5.5-2-6.5-2-6.5-1-5-1-5 .5-8.5.5-8.5-1-.5-1-.5v9.5 9.5l2 12 2 12-1 .5-1 .5-1 .5-1 .5h-1.5-1.5l-.5-1-.5-1-.5 2-.5 2h-6-6l-.5-10.5-.5-10.5 1 .5 1 .5-1.5-1.5-1.5-1.5v10 10l-8 8.5-8 8.5 3-.5 3-.5-1 1-1 1 10.5-5 10.5-5 7.5-3.5 7.5-3.5h5.5 5.5l3-3 3-3 5-3.5 5-3.5v-1.5-1.5l-.5-2-.5-2h.5.5" style="fill:#415764;stroke:#415764"/><g style="fill:#779dac;stroke:#779dac"><path d="m763 501l1-1-9.5 3.5-9.5 3.5-7.5 3.5-7.5 3.5-5.5 3-5.5 3 14-6 14-6 8-3.5 8-3.5"/><path d="m763 467h1v-1.5-1.5l-.5-2-.5-2v-2-2l-.5-2-.5-2v-2-2l-.5-1.5-.5-1.5-1-1.5-1-1.5-.5 1.5-.5 1.5.5.5.5.5v1 1 1 1 1.5 1.5l.5 1.5.5 1.5v1 1l.5 1 .5 1v3 3l.5-1 .5-1 .5-1 .5-1v2.5 2.5"/></g><path d="m761 443h1v-2-2h-.5-.5l-.5 1-.5 1-1.5-.5-1.5-.5-1-1-1-1-.5 1-.5 1 1 1 1 1 .5 1 .5 1-.5.5-.5.5.5 1.5.5 1.5.5 1.5.5 1.5.5 2 .5 2v2 2l.5 1 .5 1v1 1l.5 1.5.5 1.5v-3-3l-.5-1-.5-1v-1-1l-.5-1.5-.5-1.5v-1.5-1.5-1-1-1-1l-.5-.5-.5-.5.5-1.5.5-1.5 1 .5 1 .5" style="fill:#3f6587;stroke:#3f6587"/><path d="m760 441l1-2-1.5-1-1.5-1-.5-2-.5-2v-2-2-2.5-2.5l.5-1.5.5-1.5v-1.5-1.5l-1.5.5-1.5.5v2.5 2.5 2 2l-.5 1-.5 1-.5-1.5-.5-1.5-.5-1.5-.5-1.5-1-2.5-1-2.5v2 2l-.5 1.5-.5 1.5-.5-1-.5-1-1-.5-1-.5-.5-1-.5-1-1-.5-1-.5-1-1-1-1-1-.5-1-.5v-1-1l-1-1.5-1-1.5-1-1-1-1-.5 1.5-.5 1.5.5 1.5.5 1.5 1 1 1 1 1 1 1 1 .5.5.5.5.5 1 .5 1 1 1 1 1 .5.5.5.5.5 1 .5 1 1 1 1 1 .5.5.5.5.5.5.5.5.5.5.5.5.5 1 .5 1 .5 1.5.5 1.5 1 1 1 1 .5-1 .5-1 1 1 1 1 1.5.5 1.5.5" style="fill:#415764;stroke:#415764"/><path d="m758 483v-2l-1-1-1-1-1-1.5-1-1.5-1-1-1-1-1-1-1-1-1-1.5-1-1.5-1-1-1-1-1-1.5-1-1.5h-.5-.5l-.5-1-.5-1h-1-1l.5 1.5.5 1.5v1.5 1.5l1 2 1 2 .5 1 .5 1 1 1.5 1 1.5 1 1 1 1 1 .5 1 .5 1 1 1 1 .5.5.5.5 1 .5 1 .5.5.5.5.5 1-1 1-1" style="fill:#374142;stroke:#374142"/><path d="m758 479v-3-2-2l-.5-2-.5-2-.5-1-.5-1-5.5-7-5.5-7-4-6.5-4-6.5 9 11 9 11 .5-2 .5-2v-1-1-2-2l-.5-1.5-.5-1.5-.5-2-.5-2v-2-2l-1-1-1-1-.5-1.5-.5-1.5-.5-1-.5-1-.5-.5-.5-.5-.5-.5-.5-.5-.5-.5-.5-.5-1-1-1-1-.5-1-.5-1-.5-.5-.5-.5-1-1-1-1-.5-1-.5-1-.5-.5-.5-.5-1-1-1-1-1-1-1-1-1.5-1-1.5-1v1 1 1.5 1.5 2 2l.5 1.5.5 1.5v1 1 1.5 1.5l.5 1.5.5 1.5v1 1 1.5 1.5l.5 1.5.5 1.5v1 1 1.5 1.5l.5 2 .5 2v1.5 1.5l.5 2 .5 2 1.5.5 1.5.5.5.5.5.5 1 .5 1 .5.5 1.5.5 1.5 1 1.5 1 1.5 1 1 1 1 1 1.5 1 1.5 1 1 1 1 1 1 1 1 1 .5 1 .5 1 1 1 1" style="fill:#4e77a3;stroke:#4e77a3"/><path d="m756 466v-2l-.5-1.5-.5-1.5-9-11-9-11 4 6.5 4 6.5 5.5 7 5.5 7" style="fill:#779dac;stroke:#779dac"/><g style="fill:#3f6587;stroke:#3f6587"><path d="m752 486v-2l-.5-.5-.5-.5-.5-1.5-.5-1.5-1-.5-1-.5-1-1-1-1-1-1.5-1-1.5-.5-1-.5-1-.5 1.5-.5 1.5.5 1 .5 1 1 .5 1 .5.5 1.5.5 1.5h1 1l.5 1 .5 1-.5 2-.5 2-2 1-2 1h1.5 1.5l.5-.5.5-.5h1.5 1.5l.5-1 .5-1"/><path d="m749 426l1-3v-2-2l-1.5-1-1.5-1v-1-1l-.5-.5-.5-.5-.5-.5-.5-.5-.5-1-.5-1-.5-.5-.5-.5-.5-.5-.5-.5-.5-.5-.5-.5-1-1-1-1-.5-1-.5-1-1-1-1-1-.5-.5-.5-.5-1-.5-1-.5v2 2l.5 2 .5 2 1.5.5 1.5.5 1.5 1 1.5 1 1 1 1 1 1 1.5 1 1.5 1 1 1 1v1.5 1.5h-.5-.5l.5 1 .5 1 1 .5 1 .5.5 1 .5 1"/></g><path d="m748 487l1-4-.5-1-.5-1h-1-1l-.5-1.5-.5-1.5-1-.5-1-.5-.5-1-.5-1-.5-1-.5-1-1-.5-1-.5v1.5 1.5 1 1l.5.5.5.5v1 1 1 1 1.5 1.5 1 1l.5 1.5.5 1.5 1.5-.5 1.5-.5 2-1 2-1" style="fill:#4e77a3;stroke:#4e77a3"/><g style="fill:#59747c;stroke:#59747c"><path d="m746 421v-3l-1-1-1-1-1-1.5-1-1.5-1-1-1-1-1.5-1-1.5-1-1.5-.5-1.5-.5-.5-2-.5-2v-2-2l1 .5 1 .5.5.5.5.5 1 1 1 1-.5-1-.5-1-.5-1-.5-1-.5-.5-.5-.5-1-1-1-1-.5-1-.5-1-.5-.5-.5-.5-.5-1.5-.5-1.5v-1.5-1.5l-.5-.5-.5-.5v-2-2l-.5-1.5-.5-1.5 1-.5 1-.5-.5-.5-.5-.5-1-.5-1-.5v2 2 1.5 1.5l.5 1 .5 1v1.5 1.5 1 1l.5 1 .5 1v2 2l-.5 1.5-.5 1.5-1 .5-1 .5 1 1.5 1 1.5v2 2l.5 2 .5 2v3 3l.5 1 .5 1v2.5 2.5l.5 1.5.5 1.5v2.5 2.5l.5 1.5.5 1.5v2.5 2.5l.5 1.5.5 1.5-.5 1.5-.5 1.5h-.5-.5v.5.5l1 1 1 1 1 .5 1 .5h.5.5l-.5-2-.5-2v-1.5-1.5-1-1l-.5-1.5-.5-1.5v-1.5-1.5-1-1l-.5-1.5-.5-1.5v-1.5-1.5-1-1l-.5-1.5-.5-1.5v-2-2-1.5-1.5-1-1l1.5 1 1.5 1-.5-1.5-.5-1.5.5-1.5.5-1.5 1 1 1 1 1 1.5 1 1.5v1 1l1 .5 1 .5 1 1 1 1 1 .5 1 .5h.5.5"/><path d="m743 464h1l-.5-1.5-.5-1.5-1-.5-1-.5-.5-.5-.5-.5-1.5-.5-1.5-.5v1.5 1.5 2 2l.5 2 .5 2 .5 1.5.5 1.5 1 .5 1 .5.5 1 .5 1 .5-1.5.5-1.5-1-2-1-2v-1.5-1.5l-.5-1.5-.5-1.5h1 1l.5 1 .5 1"/></g><path d="m740 491l1-1-.5-1.5-.5-1.5v-1-1-1.5-1.5-1-1-1-1l-.5-.5-.5-.5v-1-1-1.5-1.5l-.5-1.5-.5-1.5-.5-2-.5-2v-2-2-1.5-1.5l-.5-2-.5-2v-1.5-1.5h-.5-.5l-.5 8.5-.5 8.5 1 5 1 5 2 6.5 2 6.5" style="fill:#3f6587;stroke:#3f6587"/><path d="m737 493l-4-24v-9.5-9.5l-1-1-1-1h-.5-.5l-1-1.5-1-1.5v-2-2-2.5-2.5l-.5-1.5-.5-1.5-1-1.5-1-1.5v2 2l.5 2 .5 2-.5 1.5-.5 1.5-1.5-1-1.5-1 .5 1 .5 1 1 1 1 1 1 1.5 1 1.5 1 1 1 1v1 1h-1-1l-1-1-1-1-1-1.5-1-1.5-.5-1.5-.5-1.5-1-1-1-1-1.5-1-1.5-1-.5-1.5-.5-1.5-1.5-1-1.5-1-1.5-1-1.5-1v1.5 1.5l2 1 2 1 .5 1.5.5 1.5.5 1.5.5 1.5 2 1.5 2 1.5 1 .5 1 .5.5 1.5.5 1.5 1 1 1 1 .5 2 .5 2v2 2 2 2l.5 2 .5 2v2 2l.5 2 .5 2v2 2 1.5 1.5l-.5-1.5-.5-1.5-.5-.5-.5-.5-1-.5-1-.5h-1-1l.5-.5.5-.5-.5-.5-.5-.5-.5-.5-.5-.5h-.5-.5l-.5-.5-.5-.5-1-1-1-1-.5-1-.5-1-1 .5-1 .5v2 2l1.5 1.5 1.5 1.5 1 1.5 1 1.5.5.5.5.5.5.5.5.5.5.5.5.5.5.5.5.5.5 1 .5 1 .5.5.5.5.5.5.5.5.5.5.5.5.5 1 .5 1 .5 1 .5 1 .5 1 .5 1h1.5 1.5l1-.5 1-.5 1-.5 1-.5" style="fill:#374142;stroke:#374142"/><path d="m732 447l1-3-.5-1.5-.5-1.5v-2.5-2.5l-.5-1.5-.5-1.5v-2.5-2.5l-.5-1.5-.5-1.5v-2.5-2.5l-.5-1-.5-1v2.5 2.5 2 2 1 1l-.5.5-.5.5 1 1 1 1v1.5 1.5 2 2 1 1l.5 1 .5 1v2 2h.5.5" style="fill:#6e9091;stroke:#6e9091"/><path d="m730 448h1v-.5-.5-2-2l-.5-1-.5-1v-1-1-2-2-1.5-1.5l-1-1-1-1-1-10.5-1-10.5 1.5 4.5 1.5 4.5v-3-3l-.5-2-.5-2v-2-2l-1-1.5-1-1.5 1-.5 1-.5-.5-1.5-.5-1.5v-.5-.5l-.5-1.5-.5-1.5-.5-1.5-.5-1.5-.5-.5-.5-.5v-1.5-1.5h1 1l.5-1 .5-1v-1.5-1.5-2-2l-4 7-4 7-2-8-2-8-6-6-6-6 .5 9 .5 9 .5 9.5.5 9.5 2.5 13 2.5 13 1 .5 1 .5.5 1 .5 1 1 1 1 1 1 1 1 1v1 1l1 .5 1 .5 1.5 1.5 1.5 1.5 1.5 1 1.5 1 .5-1.5.5-1.5-.5-2-.5-2v-2-2l1 1.5 1 1.5.5 1.5.5 1.5v2.5 2.5 2 2l1 1.5 1 1.5" style="fill:#415764;stroke:#415764"/><path d="m729 450v-2l-1-1-1-1-1-1.5-1-1.5-1-1-1-1-.5-1-.5-1-1.5-1.5-1.5-1.5-1-.5-1-.5v-1-1l-1-1-1-1-1-1-1-1-.5-1-.5-1-1-.5-1-.5-.5 1-.5 1 .5 1.5.5 1.5 1.5 1 1.5 1 1.5 1 1.5 1 .5 1.5.5 1.5 1.5 1 1.5 1 1 1 1 1 .5 1.5.5 1.5 1 1.5 1 1.5 1 1 1 1h1 1" style="fill:#393526;stroke:#393526"/><path d="m729 429v-2-2-2-2.5-2.5l-1.5-4.5-1.5-4.5 1 10.5 1 10.5.5-.5.5-.5" style="fill:#779dac;stroke:#779dac"/><path d="m728 497l1-4-.5-1-.5-1-.5-1-.5-1-.5-.5-.5-.5-.5-.5-.5-.5-.5-.5-.5-.5-.5-1-.5-1-.5-.5-.5-.5-.5-.5-.5-.5-.5-.5-.5-.5-.5-.5-.5-.5-1-1.5-1-1.5-1-.5-1-.5.5 10.5.5 10.5h6 6" style="fill:#3f6587;stroke:#3f6587"/><path d="m728 482v-3-2-2l-.5-2-.5-2v-2-2l-.5-2-.5-2v-2-2-2-2l-.5-2-.5-2-1-1-1-1-.5-1.5-.5-1.5-1-.5-1-.5.5 1 .5 1 .5 1 .5 1 .5 1.5.5 1.5v1 1l.5 1 .5 1v2 2 1 1l.5 1 .5 1v2 2 1 1 1 1 1 1 1 1l-.5-1-.5-1-1-.5-1-.5-.5-.5-.5-.5-.5-1-.5-1-1.5-1-1.5-1v1.5 1.5l1 1 1 1 .5.5.5.5h.5.5l.5.5.5.5.5.5.5.5-.5.5-.5.5h1 1l1 .5 1 .5.5.5.5.5.5 1.5.5 1.5" style="fill:#415764;stroke:#415764"/><g style="fill:#3f6587;stroke:#3f6587"><path d="m728 400l1-3v-2-2l-.5-1-.5-1v-1-1-1.5-1.5l-.5-1-.5-1-.5 1-.5 1h-1-1v1.5 1.5l.5.5.5.5.5 1.5.5 1.5.5 1.5.5 1.5v.5.5l.5 1.5.5 1.5"/><path d="m725 476v-2-1-1-1-1-1-1-2-2l-.5-1-.5-1v-1-1-2-2l-.5-1-.5-1v-1-1l-.5-1.5-.5-1.5-.5-1-.5-1-.5-1-.5-1-2-1.5-2-1.5-.5-1.5-.5-1.5-1-1-1-1-1 1-1 1v2.5 2.5l.5 1.5.5 1.5v2.5 2.5 2 2l.5 1.5.5 1.5.5 2 .5 2 1 1 1 1 .5 1.5.5 1.5 1.5 1 1.5 1 .5 1 .5 1 .5.5.5.5 1 .5 1 .5.5 1 .5 1"/></g><path d="m725 399v-2h-1-1l-1.5-1-1.5-1-.5.5-.5.5v1.5 1.5l.5.5.5.5v1 1 1 1l.5 1 .5 1v1 1 1 1l.5.5.5.5v1.5 1.5l.5 2 .5 2 .5 2 .5 2 .5-1 .5-1v-2-2l-.5-2-.5-2v-2-2l-.5-2-.5-2 .5-1.5.5-1.5.5-1 .5-1" style="fill:#374142;stroke:#374142"/><path d="m724 495v-2l-1-1-1-1-1.5-1-1.5-1h-1-1v2.5 2.5 2 2l2 .5 2 .5 1-1 1-1 .5-1 .5-1" style="fill:#4e77a3;stroke:#4e77a3"/><path d="m722 420l1-2-.5-2-.5-2v-1.5-1.5l-.5-.5-.5-.5v-1-1-1-1l-.5-1-.5-1v-1-1-1-1l-.5-.5-.5-.5v-1.5-1.5l-1.5-1.5-1.5-1.5-1-1-1-1-1-1.5-1-1.5-1-1-1-1-1-1.5-1-1.5h-1-1v2.5 2.5 2 2l.5 2 .5 2 .5 1.5.5 1.5 2-4.5 2-4.5 4.5 14.5 4.5 14.5.5.5.5.5" style="fill:#3f6587;stroke:#3f6587"/><path d="m722 377l-10-17-4.5-6-4.5-6v3 3l.5 2.5.5 2.5h1.5 1.5l1 1 1 1 .5 1.5.5 1.5 1.5 1 1.5 1 .5 1.5.5 1.5 1 .5 1 .5.5.5.5.5.5 1.5.5 1.5.5 1 .5 1 .5.5.5.5h1 1" style="fill:#393526;stroke:#393526"/><g style="fill:#4e77a3;stroke:#4e77a3"><path d="m721 433l-4-16-3.5 2.5-3.5 2.5 5.5 6 5.5 6v-.5-.5"/><path d="m720 419h1l-4.5-14.5-4.5-14.5-2 4.5-2 4.5v2 2l1 1.5 1 1.5 1 1 1 1 .5 1.5.5 1.5 1.5 1 1.5 1 .5 1.5.5 1.5 1.5 1 1.5 1v.5.5"/></g><path d="m717 471v-3h-.5-.5l-1.5-1-1.5-1-.5-.5-.5-.5-.5-1-.5-1v-1-1l.5-.5.5-.5-.5-1-.5-1v-2-2-1-1-1-1l-.5-.5-.5-.5v-1.5-1.5-2-2-1-1-1.5-1.5-1.5-1.5-1.5-1.5l-.5-1.5-.5-1.5.5-1 .5-1-2.5-13-2.5-13-.5-9.5-.5-9.5-.5-9-.5-9 .5-2 .5-2-.5-2.5-.5-2.5v-3-3l-2-9.5-2-9.5-1.5-8.5-1.5-8.5v-10-10l-1-9-1-9-.5-8.5-.5-8.5-1.5-8-1.5-8-1-8-1-8-3-7-3-7-5-6-5-6-4.5-6.5-4.5-6.5-5-6.5-5-6.5-4.5-6.5-4.5-6.5-4.5-7-4.5-7h-.5-.5l-5-7-5-7-4.5-6.5-4.5-6.5-5-6.5-5-6.5-4.5-6.5-4.5-6.5-14.5-3-14.5-3-9 7.5-9 7.5-6.5 4.5-6.5 4.5-7 5-7 5-.5.5-.5.5-7.5 5.5-7.5 5.5-6 5-6 5-7 4.5-7 4.5-6 5-6 5-7.5 4.5-7.5 4.5-.5 2-.5 2-.5 1.5-.5 1.5-.5 1.5-.5 1.5-1 .5-1 .5 4-3.5 4-3.5 4.5-.5 4.5-.5-3.5 5.5-3.5 5.5-6 2.5-6 2.5.5 6.5.5 6.5-4.5 3.5-4.5 3.5-2.5 5.5-2.5 5.5 1 1 1 1 3 1.5 3 1.5 6.5-2.5 6.5-2.5 3.5-6.5 3.5-6.5 2 4 2 4 3.5-.5 3.5-.5 3-2.5 3-2.5 2.5-2.5 2.5-2.5 6.5-3.5 6.5-3.5 1 3 1 3-5 4-5 4-1 5.5-1 5.5 1.5-.5 1.5-.5 3.5-4.5 3.5-4.5 6.5-4.5 6.5-4.5 5.5-3.5 5.5-3.5 5.5-6 5.5-6-2 6-2 6 4.5 1.5 4.5 1.5-4 3-4 3 1.5 4 1.5 4 2 2 2 2 6-5 6-5-2-7-2-7 1.5 1.5 1.5 1.5 6 2.5 6 2.5 2 2 2 2 2.5 4.5 2.5 4.5-6.5 2.5-6.5 2.5 5.5 4.5 5.5 4.5 6 4.5 6 4.5-.5 2.5-.5 2.5-5-6-5-6-3.5 3.5-3.5 3.5-.5 3.5-.5 3.5-1 2.5-1 2.5-2 5-2 5 1.5 6.5 1.5 6.5 1.5 1.5 1.5 1.5 3.5-.5 3.5-.5 3 6.5 3 6.5-2 2-2 2 3-1 3-1 .5 3.5.5 3.5 4-1 4-1 5.5 8.5 5.5 8.5 2 .5 2 .5-.5 1.5-.5 1.5.5.5.5.5 1 .5 1 .5 1 1 1 1h1 1l.5 1 .5 1-.5 1.5-.5 1.5 1.5 1 1.5 1 .5 1.5.5 1.5.5.5.5.5-1 .5-1 .5-.5-1-.5-1-1.5-1-1.5-1-.5 1.5-.5 1.5-.5-2-.5-2-1.5-.5-1.5-.5v-2-2l-.5-2-.5-2-1-1-1-1-.5-2-.5-2-3 2.5-3 2.5 3 3 3 3-6-3.5-6-3.5-3.5.5-3.5.5-4.5-5.5-4.5-5.5-4-4-4-4 .5-7.5.5-7.5-3.5 6-3.5 6-2 6-2 6 1.5 6.5 1.5 6.5-2.5 3.5-2.5 3.5 5-3 5-3 5.5 5 5.5 5-1.5 1.5-1.5 1.5-2.5-2.5-2.5-2.5-3.5 3.5-3.5 3.5-4.5.5-4.5.5 3 3.5 3 3.5 2 5 2 5-4-3-4-3-4 3-4 3 .5 6.5.5 6.5 1.5 2 1.5 2-5 5-5 5 1 7 1 7h3 3l1-1 1-1 4-2.5 4-2.5 4.5 4.5 4.5 4.5 3 6 3 6 3.5 3.5 3.5 3.5 4 3.5 4 3.5 2.5 3.5 2.5 3.5 5 5 5 5 2 6 2 6 2.5 2.5 2.5 2.5 3 6.5 3 6.5 2.5 4.5 2.5 4.5 2 2 2 2 4.5 4 4.5 4-3 1.5-3 1.5-4-3-4-3 1-1.5 1-1.5-4.5-1.5-4.5-1.5-3-3-3-3-3-2-3-2-4.5-4-4.5-4-3.5-4.5-3.5-4.5-3.5-2.5-3.5-2.5 3-1 3-1-4.5-5.5-4.5-5.5-5 3.5-5 3.5 4.5 4.5 4.5 4.5-1 4-1 4-2 3-2 3-2.5-6.5-2.5-6.5-3 .5-3 .5 2 5 2 5 5 2 5 2 5-2 5-2-3.5 1.5-3.5 1.5 3 7.5 3 7.5 4 3 4 3 1.5-1.5 1.5-1.5 2.5 2.5 2.5 2.5.5 7.5.5 7.5-.5 1-.5 1 2 5 2 5 5 2 5 2-5.5 1.5-5.5 1.5 2 5 2 5 7 6 7 6 9.5-2.5 9.5-2.5 4.5-2 4.5-2 6.5-3.5 6.5-3.5 8.5-2.5 8.5-2.5 7-4 7-4 8.5-3.5 8.5-3.5 8-8.5 8-8.5v-10-10-2-2l1-.5 1-.5.5 1 .5 1" style="fill:#514634;stroke:#514634"/><path d="m716 468h1l-.5-1.5-.5-1.5-1-1-1-1-.5-2-.5-2-.5-1.5-.5-1.5v-2-2-2.5-2.5l-.5-1.5-.5-1.5v-2.5-2.5l1-1 1-1 1 1 1 1-.5-1.5-.5-1.5-2-1-2-1v1.5 1.5 1.5 1.5 1 1 2 2 1.5 1.5l.5.5.5.5v1 1 1 1 2 2l.5 1 .5 1-.5.5-.5.5v1 1l.5 1 .5 1 .5.5.5.5 1.5 1 1.5 1" style="fill:#415764;stroke:#415764"/><path d="m715 384l-8-16 2.5 5.5 2.5 5.5 1.5 2.5 1.5 2.5" style="fill:#3f6587;stroke:#3f6587"/><path d="m706 5v-2-1.5-1.5h-12-12-11-11-11-11-11-11-11-11-11.5-11.5-11-11-11-11-11-11-11-11-11.5-11.5-11-11-11-11-11-11-11-11-11.5-11.5-11-11-11-11-11-11-11.5-11.5-11-11-11-11-11-11-11-11-11.5-11.5-11-11-7-7l.5 1 .5 1-11 .5-11 .5-4.5 5.5-4.5 5.5.5 7 .5 7-2.5 5.5-2.5 5.5-2.5 3.5-2.5 3.5-2 3-2 3-4 3-4 3-.5-.5-.5-.5-4.5 6-4.5 6-4 5-4 5-5 1-5 1-6.5-.5-6.5-.5 1 5 1 5-5 .5-5 .5-1.5 6.5-1.5 6.5-5 7-5 7v12 12 11 11 11 11 11 11 8.5 8.5l6-1.5 6-1.5 5.5.5 5.5.5v-4-4l-4.5-1-4.5-1 7.5.5 7.5.5 3 1 3 1 .5-6.5.5-6.5h2 2l4-5 4-5v-4.5-4.5l5.5-1.5 5.5-1.5-.5-2.5-.5-2.5 5-4 5-4 6 2 6 2 8-.5 8-.5 3-4 3-4-6.5-2.5-6.5-2.5 6-3 6-3 4.5 3.5 4.5 3.5 5.5-1 5.5-1 2.5-2.5 2.5-2.5 4.5-4.5 4.5-4.5 1.5.5 1.5.5 6-1 6-1-2-2-2-2-.5-1-.5-1 6 1 6 1 3-3 3-3 2-3 2-3 2 4 2 4 5-4.5 5-4.5 1 1 1 1h4 4l3.5-1.5 3.5-1.5 2-3 2-3 2.5 3 2.5 3 .5 5.5.5 5.5 2.5-3.5 2.5-3.5-1.5-3.5-1.5-3.5 3 5 3 5 4.5-.5 4.5-.5 6 2.5 6 2.5 5-3 5-3 5.5-1.5 5.5-1.5 5-2 5-2 4 2 4 2 3-2.5 3-2.5 1.5 2.5 1.5 2.5 5.5-1.5 5.5-1.5 2-1 2-1 1 2 1 2 5.5 1 5.5 1 4.5-2.5 4.5-2.5 1.5.5 1.5.5 6.5-.5 6.5-.5h6 6l-.5 1-.5 1 9-6.5 9-6.5h8.5 8.5l6.5 4.5 6.5 4.5 6 6.5 6 6.5-4-6-4-6 4-4 4-4 1-1 1-1 2.5.5 2.5.5 3.5 1 3.5 1 2-4 2-4h4 4l3-2 3-2 4 1 4 1 4 1.5 4 1.5 5-2 5-2 2.5.5 2.5.5 5.5.5 5.5.5.5-1.5.5-1.5h3.5 3.5l2-4 2-4 4 2 4 2 6.5-2.5 6.5-2.5 4.5 1.5 4.5 1.5 1.5 1 1.5 1 5.5 2 5.5 2 1-.5 1-.5.5-.5.5-.5 1.5-.5 1.5-.5.5-1 .5-1 .5-.5.5-.5h1 1l.5-1 .5-1 .5-.5.5-.5h1 1l.5-.5.5-.5.5-1 .5-1h1 1l.5-.5.5-.5.5-.5.5-.5 1-.5 1-.5.5-.5.5-.5.5-1 .5-1 .5-2 .5-2-1-1-1-1 1-1.5 1-1.5 1-1 1-1 2-.5 2-.5 1-1 1-1 1 1.5 1 1.5 7.5-5 7.5-5v4 4l5 1.5 5 1.5 2.5-3.5 2.5-3.5-1.5-3.5-1.5-3.5 1.5-2.5 1.5-2.5 5-4 5-4 2.5 1 2.5 1-.5-6.5-.5-6.5 6.5-1.5 6.5-1.5 2 2 2 2 .5-5.5.5-5.5 1-1.5 1-1.5 6.5-2.5 6.5-2.5 8.5.5 8.5.5 6-1 6-1 7-4.5 7-4.5 6-1.5 6-1.5" style="fill:#7fc9f3;stroke:#7fc9f3"/><path d="m701 520l1-1h-1.5-1.5l-1 .5-1 .5-.5.5-.5.5-1.5.5-1.5.5h-1.5-1.5l-.5.5-.5.5-.5-1.5-.5-1.5 1.5-.5 1.5-.5 1.5-1 1.5-1 .5-1 .5-1-10.5 5-10.5 5 5 1 5 1 8.5-3.5 8.5-3.5" style="fill:#6e9091;stroke:#6e9091"/><path d="m682 712h1v-1.5-1.5l-.5-1.5-.5-1.5v-2.5-2.5-2-2l.5-2 .5-2v-2-2l-1 1.5-1 1.5-.5-.5-.5-.5h-1-1l-2 .5-2 .5h-2-2l-.5.5-.5.5-1 .5-1 .5-1.5.5-1.5.5-2 .5-2 .5-1.5.5-1.5.5-1.5 1-1.5 1-1.5.5-1.5.5-1 .5-1 .5 9-3 9-3 6.5 8 6.5 8v.5.5h1 1" style="fill:#415764;stroke:#415764"/><path d="m681 667l-5-22v-11-11-2.5-2.5-1-1-1.5-1.5-2-2-1-1-1-1-1-1-1.5-1.5-2-2-1-1-1.5-1.5-2-2l-.5-.5-.5-.5.5-1 .5-1-.5-2.5-.5-2.5-.5-12-.5-12 2.5-9 2.5-9h-2-2l-1 .5-1 .5v1 1 1 1 1 1 1.5 1.5 1 1 1 1 1 1 2 2 1.5 1.5 1 1l.5 1.5.5 1.5-.5 1.5-.5 1.5.5 11 .5 11v13 13l.5 16.5.5 16.5 1 10.5 1 10.5 2-1.5 2-1.5" style="fill:#779dac;stroke:#779dac"/><path d="m680 711l-13-16-9 3-9 3-1 .5-1 .5-1.5.5-1.5.5-1.5.5-1.5.5-1.5 1-1.5 1-1.5.5-1.5.5-2 .5-2 .5-1.5.5-1.5.5-2 1.5-2 1.5h3.5 3.5 2 2l9-3.5 9-3.5 8-3 8-3 5.5 6 5.5 6" style="fill:#59747c;stroke:#59747c"/><path d="m679 712h1v-.5-.5h-.5-.5l-.5-1-.5-1v-1-1l-1-.5-1-.5h-1-1l-.5-.5-.5-.5-.5-.5-.5-.5-1 .5-1 .5h-1-1l-.5-.5-.5-.5-.5.5-.5.5-.5.5-.5.5-1 .5-1 .5-.5.5-.5.5-.5.5-.5.5h-1-1l-.5-.5-.5-.5-1 .5-1 .5h-1-1l-.5.5-.5.5-.5 1-.5 1h2 2 2 2 2.5 2.5 2 2 2.5 2.5 2 2 .5.5" style="fill:#779dac;stroke:#779dac"/><path d="m679 711h1l-5.5-6-5.5-6-8 3-8 3-9 3.5-9 3.5h3 3 2.5 2.5 2 2 1 1l.5-1 .5-1 .5-.5.5-.5h1 1l1-.5 1-.5.5.5.5.5h1 1l.5-.5.5-.5.5-.5.5-.5 1-.5 1-.5.5-.5.5-.5.5-.5.5-.5.5.5.5.5h1 1l1-.5 1-.5.5.5.5.5.5.5.5.5h1 1l1 .5 1 .5v1 1l.5 1 .5 1" style="fill:#6e9091;stroke:#6e9091"/><path d="m677 619l1-3-.5-1.5-.5-1.5v-2.5-2.5-1-1-2.5-2.5-2-2-2.5-2.5-2-2-2.5-2.5l.5-1.5.5-1.5-1.5-.5-1.5-.5.5 2.5.5 2.5-.5 1-.5 1 .5.5.5.5v2 2 1.5 1.5 1 1 2 2 1.5 1.5 1 1 1 1 1 1 2 2 1.5 1.5 1 1 2.5 2.5l.5-2 .5-2" style="fill:#739fd1;stroke:#739fd1"/><path d="m676 684l1-3-1-1-1-1-1-1.5-1-1.5-1 .5-1 .5-1 .5-1 .5-.5 1.5-.5 1.5-8.5 4-8.5 4-6.5 1-6.5 1-5.5 2.5-5.5 2.5-13.5 3.5-13.5 3.5-1.5 1-1.5 1-1.5.5-1.5.5-2 .5-2 .5-1.5.5-1.5.5v1.5 1.5l1 .5 1 .5h2.5 2.5 2.5 2.5 1.5 1.5l12-4.5 12-4.5 8-3 8-3 8.5-3 8.5-3 8.5-3.5 8.5-3.5" style="fill:#393526;stroke:#393526"/><path d="m674 674h1l-1-12-1-12v12 12h.5.5" style="fill:#415764;stroke:#415764"/><path d="m673 616h1v-13-13l-.5-11-.5-11v2 2 2 2 2 2 2.5 2.5 2 2 2.5 2.5 2 2 1.5 1.5 2 2 2.5 2.5 3 3" style="fill:#4e77a3;stroke:#4e77a3"/><path d="m672 635l1-3v-2-2-2.5-2.5-2-2-1.5-1.5-3-3-2.5-2.5-2-2-1.5-1.5l-.5-20-.5-20-3-9-3-9 1 .5 1 .5.5 1 .5 1 .5.5.5.5v1 1 1 1 1 1 1 1 1.5 1.5 2 2 2.5 2.5 1 1 1 1 1.5 1.5l.5 21 .5 21 .5 11 .5 11" style="fill:#415764;stroke:#415764"/><path d="m672 536l-23 9-7.5 3.5-7.5 3.5-8 3.5-8 3.5-7.5 3.5-7.5 3.5-7.5 3.5-7.5 3.5-7.5 3.5-7.5 3.5-1 1-1 1 8-3.5 8-3.5 7.5-3.5 7.5-3.5 7.5-3.5 7.5-3.5 7.5-3.5 7.5-3.5 8-3 8-3 9-4 9-4 1-1 1-1h1 1l1-1 1-1" style="fill:#1f1e12;stroke:#1f1e12"/><path d="m671 691l1-1-14 4.5-14 4.5-8 3-8 3-8 3.5-8 3.5h1.5 1.5l8.5-3.5 8.5-3.5 8-3 8-3 11-3.5 11-3.5.5-.5.5-.5" style="fill:#393526;stroke:#393526"/><path d="m670 674l1-28-.5-10.5-.5-10.5v-11.5-11.5h-.5-.5v-2-2-1.5-1.5-1-1-1-1-1-1-1.5-1.5-2-2-1-1-1.5-1.5-2-2-1-1-1.5-1.5-2-2-1-1-1.5-1.5-2-2-2-2l-.5-2-.5-2-.5-1.5-.5-1.5-1-.5-1-.5-1.5.5-1.5.5-2 .5-2 .5-1.5.5-1.5.5-1 1-1 1 5.5-1 5.5-1 1.5 7.5 1.5 7.5.5 8.5.5 8.5v8 8 9 9 10.5 10.5l.5 13.5.5 13.5-.5 1.5-.5 1.5v1.5 1.5 1 1l-.5 2-.5 2v1 1 1 1l1.5-1 1.5-1" style="fill:#779dac;stroke:#779dac"/><path d="m669 693l1-1-11 3.5-11 3.5-8 3-8 3-8.5 3.5-8.5 3.5h3.5 3.5 1 1l2-1.5 2-1.5 1.5-.5 1.5-.5 2-.5 2-.5 1.5-.5 1.5-.5 1.5-1 1.5-1 1.5-.5 1.5-.5 1.5-.5 1.5-.5 1-.5 1-.5 1-.5 1-.5 1.5-.5 1.5-.5 1.5-1 1.5-1 1.5-.5 1.5-.5 2-.5 2-.5 1.5-.5 1.5-.5 1-.5 1-.5" style="fill:#374142;stroke:#374142"/><path d="m669 660l-1-27v-10.5-10.5-9-9-8-8l-.5-8.5-.5-8.5-1.5-7.5-1.5-7.5-5.5 1-5.5 1-12.5 5.5-12.5 5.5-7 4-7 4-7.5 3.5-7.5 3.5-8 3-8 3-8 3.5-8 3.5-7.5 3.5-7.5 3.5-7.5 3.5-7.5 3.5-8 3-8 3-7.5 3.5-7.5 3.5-8 3.5-8 3.5-7.5 3.5-7.5 3.5-5.5 5.5-5.5 5.5-6-.5-6-.5-.5.5-.5.5-1.5.5-1.5.5-1.5 1-1.5 1-1 1-1 1-1 1-1 1 .5 2 .5 2 1.5-.5 1.5-.5v1.5 1.5l-1.5.5-1.5.5-1.5 1-1.5 1-.5 1-.5 1-2.5 9-2.5 9-2.5 9-2.5 9-2 9.5-2 9.5h12.5 12.5 11.5 11.5 11 11 11 11 11 11 11 11 5 5l15.5-6.5 15.5-6.5 8.5-2.5 8.5-2.5 8-3 8-3 8-3 8-3 8.5-3 8.5-3v-1-1-1-1l.5-2 .5-2v-1-1-1.5-1.5l.5-1.5.5-1.5" style="fill:#88b3c9;stroke:#88b3c9"/><path d="m669 602h1v-1.5-1.5-2.5-2.5-2-2-2.5-2.5-2-2-2.5-2.5-2.5-2.5-1.5-1.5-1-1-1-1-2.5-2.5h-.5-.5v1.5 1.5 1 1 2 2 1.5 1.5 1 1 2 2 1.5 1.5 1 1 2 2 1.5 1.5 1 1 1 1 1 1 1.5 1.5 2 2" style="fill:#6e9091;stroke:#6e9091"/><path d="m668 681l1-3-10 3.5-10 3.5-8 3-8 3-8 3-8 3-8.5 3-8.5 3 13.5-3.5 13.5-3.5 5.5-2.5 5.5-2.5 6.5-1 6.5-1 8.5-4 8.5-4" style="fill:#374142;stroke:#374142"/><path d="m666 533l1-3-1.5-.5-1.5-.5-2 .5-2 .5-1.5.5-1.5.5v.5.5l1 1 1 1-1.5 1-1.5 1v1 1l-1 .5-1 .5-1.5.5-1.5.5-.5 1-.5 1 1-.5 1-.5 1.5-.5 1.5-.5 2-.5 2-.5 1-1 1-1 1.5-1 1.5-1 1-1 1-1" style="fill:#6e9091;stroke:#6e9091"/><path d="m659 534l-2-2-8 4.5-8 4.5-8 3-8 3-8 3-8 3-7.5 3.5-7.5 3.5-7.5 3.5-7.5 3.5-8 3.5-8 3.5-7.5 3.5-7.5 3.5-7.5 3.5-7.5 3.5-7.5 3.5-7.5 3.5-7.5 3.5-7.5 3.5-8 3.5-8 3.5-8 3-8 3-4.5 2.5-4.5 2.5v1.5 1.5l2 1 2 1 9-4 9-4 7.5-3.5 7.5-3.5 3.5-2 3.5-2-1-1-1-1 1-.5 1-.5.5-.5.5-.5h1 1v-1-1l1-.5 1-.5h1 1l.5-.5.5-.5h1 1v1 1l-1 .5-1 .5-.5 1-.5 1 8.5-3.5 8.5-3.5 7.5-3.5 7.5-3.5 1.5-1 1.5-1-.5-1.5-.5-1.5 1-1 1-1h1.5 1.5l1.5-.5 1.5-.5 1-1 1-1 2-.5 2-.5 1.5-.5 1.5-.5 1.5-1 1.5-1v1 1l-1.5 1-1.5 1-1.5.5-1.5.5-1 1-1 1 8-3.5 8-3.5 7.5-3.5 7.5-3.5 8-3 8-3 7.5-3.5 7.5-3.5 8-3.5 8-3.5 6.5-3 6.5-3 .5-1 .5-1 1.5-.5 1.5-.5 1-.5 1-.5v-1-1l1.5-1 1.5-1" style="fill:#779dac;stroke:#779dac"/><g style="fill:#393526;stroke:#393526"><path d="m658 195l-9-15-.5 1.5-.5 1.5 2 4.5 2 4.5 3 1.5 3 1.5"/><path d="m634 146h1l-5-8-5-8-4.5-6.5-4.5-6.5-4.5-6.5-4.5-6.5-4.5-6.5-4.5-6.5-9-2-9-2h-6.5-6.5l14.5 3 14.5 3 4.5 6.5 4.5 6.5 5 6.5 5 6.5 4.5 6.5 4.5 6.5 5 7 5 7"/><path d="m626 491l-9-8-2-2-2-2-2.5-4.5-2.5-4.5-3-6.5-3-6.5-2.5-2.5-2.5-2.5-2-6-2-6-5-5-5-5-2.5-3.5-2.5-3.5-4-3.5-4-3.5-3.5-3.5-3.5-3.5-3-6-3-6-4.5-4.5-4.5-4.5-4 2.5-4 2.5-1 1-1 1h-3-3l-1-7-1-7 5-5 5-5-1.5-2-1.5-2-.5-6.5-.5-6.5 4-3 4-3 4 3 4 3-2-5-2-5-3-3.5-3-3.5 4.5-.5 4.5-.5 3.5-3.5 3.5-3.5 2.5 2.5 2.5 2.5 1.5-1.5 1.5-1.5-5.5-5-5.5-5-5 3-5 3 2.5-3.5 2.5-3.5-1.5-6.5-1.5-6.5 2-6 2-6 3.5-6 3.5-6-.5 7.5-.5 7.5 4 4 4 4 4.5 5.5 4.5 5.5 3.5-.5 3.5-.5 6 3.5 6 3.5-3-3-3-3 3-2.5 3-2.5-5.5-8.5-5.5-8.5-4 1-4 1-.5-3.5-.5-3.5-3 1-3 1 2-2 2-2-3-6.5-3-6.5-3.5.5-3.5.5-1.5-1.5-1.5-1.5-1.5-6.5-1.5-6.5 2-5 2-5 1-2.5 1-2.5.5-3.5.5-3.5 3.5-3.5 3.5-3.5 5 6 5 6 .5-2.5.5-2.5-6-4.5-6-4.5-5.5-4.5-5.5-4.5 6.5-2.5 6.5-2.5-2.5-4.5-2.5-4.5-2-2-2-2-6-2.5-6-2.5-1.5-1.5-1.5-1.5 2 7 2 7-6 5-6 5-2-2-2-2-1.5-4-1.5-4 4-3 4-3-4.5-1.5-4.5-1.5 2-6 2-6-5.5 6-5.5 6-5.5 3.5-5.5 3.5-6.5 4.5-6.5 4.5-3.5 4.5-3.5 4.5-1.5.5-1.5.5 1-5.5 1-5.5 5-4 5-4-1-3-1-3-6.5 3.5-6.5 3.5-2.5 2.5-2.5 2.5-3 2.5-3 2.5-3.5.5-3.5.5-2-4-2-4-3.5 6.5-3.5 6.5-6.5 2.5-6.5 2.5-3-1.5-3-1.5-1-1-1-1 2.5-5.5 2.5-5.5 4.5-3.5 4.5-3.5-.5-6.5-.5-6.5 6-2.5 6-2.5 3.5-5.5 3.5-5.5-4.5.5-4.5.5-4 3.5-4 3.5-8-8.5-8-8.5-5-6-5-6-5-6-5-6-5-6-5-6-2-2-2-2-7-5.5-7-5.5.5 1.5.5 1.5v1.5 1.5l-1 8-1 8-8 5-8 5 1-.5 1-.5 1-.5 1-.5v-1-1l1-.5 1-.5 1.5.5 1.5.5.5-.5.5-.5.5-1 .5-1v1.5 1.5l-2.5 7.5-2.5 7.5-6 1-6 1 3-6.5 3-6.5-3.5 4.5-3.5 4.5-.5 5.5-.5 5.5.5 3.5.5 3.5-5.5-5-5.5-5-3 3-3 3 5.5 3.5 5.5 3.5h-6-6l-4.5 6.5-4.5 6.5-4.5 6.5-4.5 6.5-5 6.5-5 6.5-5 6-5 6-3.5 6.5-3.5 6.5-5.5 5.5-5.5 5.5-4.5 6.5-4.5 6.5-9 11-9 11-6 3-6 3-3.5 6.5-3.5 6.5.5 2.5.5 2.5-6.5 1.5-6.5 1.5 2 2 2 2 1.5 3 1.5 3-5 6-5 6-4.5-.5-4.5-.5.5-2.5.5-2.5h3 3l2.5-2 2.5-2-6-2-6-2-6 2-6 2-2.5 1.5-2.5 1.5-2 5-2 5-6.5 1-6.5 1v3 3l2.5 3.5 2.5 3.5 1 1 1 1-8.5-1-8.5-1-1.5 4.5-1.5 4.5-6.5 4.5-6.5 4.5-6 7-6 7-5 6.5-5 6.5-4 4-4 4-5.5 5.5-5.5 5.5-4.5 6.5-4.5 6.5-4 5-4 5-5 4.5-5 4.5-4 5-4 5-2 4-2 4-1 1-1 1-4.5 2.5-4.5 2.5-3.5 2-3.5 2 5-6 5-6 4.5-6.5 4.5-6.5 5-6 5-6 5-6 5-6 5-6.5 5-6.5v-2-2l-6 6-6 6-3 1-3 1h-2-2l-5.5.5-5.5.5-7 .5-7 .5 4.5 1 4.5 1 7.5 2 7.5 2-7 3-7 3-4 2-4 2 3-3 3-3-5.5-3-5.5-3-1 1-1 1 1 1 1 1-1 .5-1 .5-1.5.5-1.5.5.5 1.5.5 1.5 1.5 1 1.5 1v1 1 1 1l-1.5-.5-1.5-.5-.5.5-.5.5-.5.5-.5.5-.5.5-.5.5-1-.5-1-.5-.5-.5-.5-.5h-1-1v1 1l-.5.5-.5.5-1 .5-1 .5-.5.5-.5.5-1 .5-1 .5-2 .5-2 .5.5 1.5.5 1.5 1 .5 1 .5.5-.5.5-.5h1.5 1.5l1.5.5 1.5.5h1 1v1.5 1.5l.5.5.5.5.5-.5.5-.5.5 1 .5 1v1.5 1.5l-6.5 2-6.5 2-1.5-6-1.5-6-8 11-8 11-4.5 3.5-4.5 3.5-4.5 4-4.5 4v12.5 12.5 11 11 11.5 11.5 7.5 7.5l9-.5 9-.5 3.5 8.5 3.5 8.5.5-4.5.5-4.5-3.5-5.5-3.5-5.5-2-3-2-3 4 1 4 1 4.5 5.5 4.5 5.5 4-1.5 4-1.5 3.5-4.5 3.5-4.5 3.5-6.5 3.5-6.5-1.5-4.5-1.5-4.5 4 1 4 1 .5-5 .5-5 6-2 6-2 3.5-.5 3.5-.5 3.5-1.5 3.5-1.5 1.5-4.5 1.5-4.5 4-2.5 4-2.5 4-2 4-2v-4-4l5-2 5-2v-4-4l.5-3.5.5-3.5-.5-4-.5-4 3-3 3-3 5.5-3.5 5.5-3.5 5 1 5 1-4.5-5.5-4.5-5.5 2.5 1 2.5 1 6.5-1.5 6.5-1.5-2-8-2-8 2.5-3.5 2.5-3.5 4 1 4 1 6.5 2 6.5 2-.5-2.5-.5-2.5v-1-1l-1.5-6.5-1.5-6.5 5 1 5 1 5.5 4.5 5.5 4.5-1.5-3-1.5-3-5.5-4.5-5.5-4.5-.5-3.5-.5-3.5h4 4l1.5-2.5 1.5-2.5 2-1.5 2-1.5 5 4 5 4 3-1 3-1 1.5-5.5 1.5-5.5 1.5.5 1.5.5-3.5-6-3.5-6 4-1 4-1 2-2 2-2 1.5-2.5 1.5-2.5 1 6 1 6 6.5 2.5 6.5 2.5-2.5-6-2.5-6h2 2l4 1 4 1v-6-6-5-5l4 3.5 4 3.5 3-3 3-3-4.5-2.5-4.5-2.5-1-5-1-5 3 3 3 3 4.5 2 4.5 2 1.5-2.5 1.5-2.5-1.5-3.5-1.5-3.5v-5-5l5.5 5.5 5.5 5.5 5.5 1.5 5.5 1.5-2-5.5-2-5.5-4-4-4-4 1.5-4.5 1.5-4.5 2 3 2 3 1 3 1 3 1.5 4 1.5 4 4.5-.5 4.5-.5-1.5-4.5-1.5-4.5-2.5-5.5-2.5-5.5h6 6l2 2.5 2 2.5h5 5l4 2 4 2 2.5-2.5 2.5-2.5 1.5.5 1.5.5-2 4-2 4 4-.5 4-.5 5-3 5-3 3 1 3 1-1.5 5-1.5 5-2.5 5.5-2.5 5.5h.5.5l.5-1 .5-1 4-8 4-8 7-13 7-13 .5-1 .5-1 .5-1 .5-1 1-1.5 1-1.5.5-1.5.5-1.5 1-1.5 1-1.5 4-7.5 4-7.5 4-7 4-7 3.5-7.5 3.5-7.5 4-7 4-7 5.5-4 5.5-4h.5.5l.5-1.5.5-1.5 1-1 1-1 1-1 1-1 4.5-5.5 4.5-5.5 1.5-4.5 1.5-4.5 2-3.5 2-3.5 4.5 5 4.5 5-1 .5-1 .5-1 .5-1 .5v1 1l-4 8-4 8-3.5 7.5-3.5 7.5-4 7.5-4 7.5-3.5 7.5-3.5 7.5-3.5 7.5-3.5 7.5-3.5 7.5-3.5 7.5-6 5-6 5 .5-10.5.5-10.5-.5 1.5-.5 1.5v1.5 1.5l-.5 1.5-.5 1.5-1 1.5-1 1.5-.5 1.5-.5 1.5-.5 1.5-.5 1.5-.5.5-.5.5-.5 1-.5 1-.5 1.5-.5 1.5-1.5 1-1.5 1-1 1-1 1-.5 1-.5 1h-1.5-1.5l-.5.5-.5.5-.5.5-.5.5v1 1l1 .5 1 .5-1 2-1 2-.5.5-.5.5v1.5 1.5l-.5.5-.5.5-.5.5-.5.5v1 1l-.5 1-.5 1-.5.5-.5.5-.5.5-.5.5v1 1l-.5 1-.5 1-.5.5-.5.5v1 1l-.5.5-.5.5-1 1-1 1-.5 1.5-.5 1.5-1 1-1 1-1 .5-1 .5v1 1l-1 2-1 2v.5.5l5-6 5-6 10-6.5 10-6.5-4 8.5-4 8.5-3.5 7.5-3.5 7.5-4.5 6.5-4.5 6.5-6.5 4.5-6.5 4.5-7 4-7 4-.5 1-.5 1v1.5 1.5l-5 8-5 8-4 7-4 7-4.5 10.5-4.5 10.5v.5.5l4.5-7 4.5-7 6-5 6-5 8-3.5 8-3.5-4.5 9-4.5 9-2.5 5.5-2.5 5.5-3.5 7.5-3.5 7.5-4 7-4 7-3.5 7-3.5 7-2.5 6.5-2.5 6.5-4 7-4 7-4 6-4 6-7 4-7 4-6 2.5-6 2.5 4-7 4-7 4-13 4-13 .5 1 .5 1-.5 1-.5 1-4.5 8-4.5 8-3 6-3 6-4.5 8.5-4.5 8.5-.5.5-.5.5v2 2l-.5 1.5-.5 1.5 5.5-6.5 5.5-6.5 12.5-5.5 12.5-5.5-4 7.5-4 7.5-3.5 7-3.5 7-3 7-3 7-2.5 3.5-2.5 3.5-3.5 7.5-3.5 7.5-3.5 7.5-3.5 7.5-3.5 6.5-3.5 6.5-6.5 5-6.5 5-11.5 7-11.5 7h1.5 1.5l1.5-1 1.5-1 1-1 1-1 1.5-.5 1.5-.5h1 1l.5-1 .5-1 1.5-.5 1.5-.5.5-.5.5-.5 1-.5 1-.5 1.5-.5 1.5-.5.5-.5.5-.5h1.5 1.5l1.5-.5 1.5-.5v1 1l-1 1.5-1 1.5-1 1.5-1 1.5-.5 1.5-.5 1.5-1 2.5-1 2.5-4 8.5-4 8.5-3.5 7.5-3.5 7.5-6 11-6 11h12 12 11 11 10 10l-.5-1-.5-1-1.5.5-1.5.5-1-1-1-1 1-1.5 1-1.5 1.5-.5 1.5-.5.5 1 .5 1h1 1l.5-2 .5-2 1.5-.5 1.5-.5-.5 1.5-.5 1.5-1 1.5-1 1.5-1 2-1 2h1.5 1.5 2 2 2.5 2.5 2 2 2.5 2.5 2 2 2.5 2.5l8-2.5 8-2.5 6.5.5 6.5.5 7-4 7-4 7.5-2.5 7.5-2.5 7.5-3 7.5-3 6.5-3.5 6.5-3.5 8-3 8-3 .5-2.5.5-2.5 6.5-3.5 6.5-3.5-4 5.5-4 5.5 7-3 7-3 4 5.5 4 5.5.5-10 .5-10v-1-1l3.5-5 3.5-5-2-.5-2-.5h-2-2l-2 .5-2 .5-.5-1.5-.5-1.5.5-2 .5-2 .5-1.5.5-1.5 1-1.5 1-1.5 2-.5 2-.5 3-3.5 3-3.5 7-2 7-2-1 .5-1 .5-.5 2-.5 2 10.5-4 10.5-4 7.5-3.5 7.5-3.5 8-3.5 8-3.5 7.5-3.5 7.5-3.5 6-3 6-3 4.5-3.5 4.5-3.5 5.5-2.5 5.5-2.5 6.5-3 6.5-3 5.5-3.5 5.5-3.5 7.5-2.5 7.5-2.5 6-1 6-1 4.5-2.5 4.5-2.5-4-3.5-4-3.5-3-3-3-3 1-1.5 1-1.5 11 6 11 6 1.5-1.5 1.5-1.5 1-1 1-1-7-6-7-6-2-5-2-5 5.5-1.5 5.5-1.5-5-2-5-2-2-5-2-5 .5-1 .5-1-.5-7.5-.5-7.5-2.5-2.5-2.5-2.5-1.5 1.5-1.5 1.5-4-3-4-3-3-7.5-3-7.5 3.5-1.5 3.5-1.5-5 2-5 2-5-2-5-2-2-5-2-5 3-.5 3-.5 2.5 6.5 2.5 6.5 2-3 2-3 1-4 1-4-4.5-4.5-4.5-4.5 5-3.5 5-3.5 4.5 5.5 4.5 5.5-3 1-3 1 3.5 2.5 3.5 2.5 3.5 4.5 3.5 4.5 4.5 4 4.5 4 3 2 3 2 3 3 3 3 4.5 1.5 4.5 1.5-1 1.5-1 1.5 4 3 4 3 3-1.5 3-1.5"/><path d="m621 142l-5-3-2-8-2-8-5-5.5-5-5.5-2-2-2-2-1 5-1 5 3.5 6.5 3.5 6.5 4.5.5 4.5.5 2.5 5 2.5 5h2 2"/><path d="m608 331l-1-1-.5-1.5-.5-1.5-1.5-1-1.5-1 .5-1.5.5-1.5-.5-1-.5-1h-1-1l-1-1-1-1-1-.5-1-.5-.5-.5-.5-.5.5-1.5.5-1.5-2-.5-2-.5.5 2 .5 2 1 1 1 1 .5 2 .5 2v2 2l1.5.5 1.5.5.5 2 .5 2 .5-1.5.5-1.5 1.5 1 1.5 1 .5 1 .5 1 1-.5 1-.5"/></g><path d="m603 552h1l-11-6-11-6-1 1.5-1 1.5 3 3 3 3 4 3.5 4 3.5h1 1l1.5-1 1.5-1 1-.5 1-.5 1-.5 1-.5" style="fill:#514634;stroke:#514634"/><g style="fill:#393526;stroke:#393526"><path d="m600 501l-9-9 2.5 4.5 2.5 4.5h2 2"/><path d="m597 141l-7-17 .5-3.5.5-3.5-1.5 2-1.5 2-.5 6.5-.5 6.5 5 3.5 5 3.5"/><path d="m596 366l-11-13 3.5 6.5 3.5 6.5h2 2"/><path d="m592 353l-8-12-4-4-4-4 3 4.5 3 4.5 4 5 4 5 1 .5 1 .5"/></g><g style="fill:#514634;stroke:#514634"><path d="m587 535v-2l-1.5-.5-1.5-.5-1-1.5-1-1.5-.5-1.5-.5-1.5-1.5-1-1.5-1-1-1-1-1-1.5-1-1.5-1-1.5.5-1.5.5.5 1.5.5 1.5 1.5 1 1.5 1 .5 1.5.5 1.5 1 1.5 1 1.5v1 1l1 1.5 1 1.5 1-1 1-1 1 1.5 1 1.5 1.5-.5 1.5-.5.5-1 .5-1"/><path d="m587 522l-6-10-5-5-5-5-2.5.5-2.5.5 5 3.5 5 3.5 3.5 6 3.5 6h2 2"/></g><path d="m587 77v-2l-1.5-.5-1.5-.5-1.5 1-1.5 1 .5.5.5.5.5 1 .5 1-1.5.5-1.5.5-1-1.5-1-1.5.5-1.5.5-1.5v-1-1l-2.5.5-2.5.5-.5 1-.5 1v1.5 1.5l-1 1.5-1 1.5h1 1 1 1l.5.5.5.5h-1-1l1 .5 1 .5h1 1 1 1l.5.5.5.5h1.5 1.5l1.5-1 1.5-1v-2.5-2.5" style="fill:#7fc9f3;stroke:#7fc9f3"/><path d="m587 53l1-3-.5-1.5-.5-1.5h-1.5-1.5l-.5 1.5-.5 1.5v1.5 1.5l.5 1.5.5 1.5 1.5-1 1.5-1v-.5-.5" style="fill:#99dcf6;stroke:#99dcf6"/><path d="m584 506l-8-10 3 4 3 4 1 1 1 1" style="fill:#514634;stroke:#514634"/><g style="fill:#393526;stroke:#393526"><path d="m583 105l-3-9-2.5.5-2.5.5-2 7.5-2 7.5 4.5-1.5 4.5-1.5v4 4l1.5-6 1.5-6"/><path d="m575 283l-4-14-2.5-1.5-2.5-1.5 3 6.5 3 6.5 1.5 2 1.5 2"/></g><path d="m573 78v-3l.5-1 .5-1-1-1.5-1-1.5-1 1-1 1-2 .5-2 .5-1 1-1 1-1 1.5-1 1.5 1 1 1 1-.5 2-.5 2 1.5-.5 1.5-.5 1-1 1-1h1.5 1.5l1-1.5 1-1.5" style="fill:#99dcf6;stroke:#99dcf6"/><g style="fill:#514634;stroke:#514634"><path d="m572 541v-2l-1.5.5-1.5.5-1.5-1-1.5-1h-1-1l-1 1.5-1 1.5 1 1 1 1 1.5 1 1.5 1 1-1 1-1 1.5.5 1.5.5v-1.5-1.5"/><path d="m571 554l-11-11-2.5 2.5-2.5 2.5 5.5 3 5.5 3h2.5 2.5"/><path d="m569 521h1l-.5-1-.5-1-1.5.5-1.5.5-1.5-1-1.5-1-1.5-.5-1.5-.5-1 1.5-1 1.5 1 1 1 1 1.5-1 1.5-1 .5 1.5.5 1.5 1.5.5 1.5.5 1-.5 1-.5v-1-1"/></g><path d="m567 577v-2l-1.5 1-1.5 1-1.5.5-1.5.5-2 .5-2 .5-1 1-1 1-1.5.5-1.5.5h-1.5-1.5l-1 1-1 1 .5 1.5.5 1.5 1.5-1 1.5-1 1.5-.5 1.5-.5 1.5-1 1.5-1h1 1l1-1 1-1 1.5-.5 1.5-.5 1.5-1 1.5-1" style="fill:#88b3c9;stroke:#88b3c9"/><g style="fill:#393526;stroke:#393526"><path d="m567 318l-7-3 3 4 3 4 .5-2.5.5-2.5"/><path d="m566 377l-6-14v1 1l1 5.5 1 5.5-4.5.5-4.5.5 4.5 1.5 4.5 1.5 2-1.5 2-1.5"/></g><path d="m565 503h1l-4-7.5-4-7.5-4.5-5.5-4.5-5.5 1.5 4 1.5 4 3.5 5.5 3.5 5.5 3 3.5 3 3.5" style="fill:#514634;stroke:#514634"/><g style="fill:#393526;stroke:#393526"><path d="m563 172l-5-1-1.5.5-1.5.5.5 8 .5 8v4 4l2.5-7.5 2.5-7.5 1-4.5 1-4.5"/><path d="m561 114l-1-11-4 4-4 4-7.5 2-7.5 2v4 4l-2 2-2 2-4.5 4.5-4.5 4.5 6-3 6-3 6-5.5 6-5.5 3.5 2.5 3.5 2.5-5.5 5.5-5.5 5.5-2 2-2 2-6.5 2.5-6.5 2.5 5 .5 5 .5 6.5-4.5 6.5-4.5 4.5-6.5 4.5-6.5 1-4.5 1-4.5"/></g><g style="fill:#514634;stroke:#514634"><path d="m557 428l-4-16-2.5 3.5-2.5 3.5 4.5 4.5 4.5 4.5"/><path d="m552 540l-10-6-.5.5-.5.5 4 1.5 4 1.5 1.5 1 1.5 1"/><path d="m551 244l-4-14-6.5 3.5-6.5 3.5 2-2.5 2-2.5-6.5-1.5-6.5-1.5-4.5 3.5-4.5 3.5-6 5-6 5-3.5-3.5-3.5-3.5 4.5-3 4.5-3-.5-1.5-.5-1.5h-5-5l-3.5 2.5-3.5 2.5-2.5 4.5-2.5 4.5 6 2.5 6 2.5-6.5 4.5-6.5 4.5-7 4-7 4-6.5 4.5-6.5 4.5-5 4-5 4-4 4.5-4 4.5 2.5 1.5 2.5 1.5 3.5 2.5 3.5 2.5-6 5-6 5 5.5-1.5 5.5-1.5 3.5-4 3.5-4 1-1 1-1 1.5-.5 1.5-.5 5-2 5-2 3-2.5 3-2.5 4 2 4 2 6-3 6-3 3.5-4.5 3.5-4.5-3-1-3-1 3-4.5 3-4.5-1.5-4.5-1.5-4.5 3.5-.5 3.5-.5 1.5-3.5 1.5-3.5 1.5-2.5 1.5-2.5 6-2.5 6-2.5-1 2-1 2-.5 2.5-.5 2.5h3 3l4-1 4-1 6-1.5 6-1.5 1.5 1 1.5 1"/><path d="m550 560l1-3-1-1-1-1-1.5-1-1.5-1-1-1-1-1-1.5 1-1.5 1 .5 1.5.5 1.5 1-.5 1-.5 1 1 1 1 1 1 1 1 1 .5 1 .5"/><path d="m549 432l-8-4 3.5 5.5 3.5 5.5.5-3.5.5-3.5"/><path d="m549 253l-13-3 .5 2.5.5 2.5h5.5 5.5l.5-1 .5-1"/></g><path d="m549 90l-13-5h-6-6l2 2.5 2 2.5 8-1 8-1 2.5 1 2.5 1" style="fill:#99dcf6;stroke:#99dcf6"/><g style="fill:#514634;stroke:#514634"><path d="m546 528l1-3-1-1-1-1-.5-2-.5-2-1.5-.5-1.5-.5-1 1.5-1 1.5-.5 1.5-.5 1.5h2.5 2.5l.5 1.5.5 1.5 1 .5 1 .5"/><path d="m546 419v-2l.5-1.5.5-1.5-1.5-1-1.5-1-1 1-1 1 .5 2 .5 2-.5 1.5-.5 1.5v1.5 1.5l1.5-.5 1.5-.5v-2-2h.5.5"/><path d="m542 437l-5-13-5.5 2.5-5.5 2.5-1 8.5-1 8.5-2.5 4.5-2.5 4.5 4.5 3.5 4.5 3.5 2-4 2-4-3-3-3-3 4-5.5 4-5.5h4 4"/></g><path d="m538 103l1-1-5.5-2-5.5-2-1.5-1-1.5-1-4.5-1.5-4.5-1.5-6.5 2.5-6.5 2.5-4-2-4-2-2 4-2 4h-3.5-3.5l-.5 1.5-.5 1.5-5.5-.5-5.5-.5-2.5-.5-2.5-.5-5 2-5 2-4-1.5-4-1.5-4-1-4-1-3 2-3 2h-4-4l-2 4-2 4-3.5-1-3.5-1-2.5-.5-2.5-.5-1 1-1 1-4 4-4 4 4 6 4 6 8.5 10 8.5 10 5 6 5 6 5 6 5 6 4.5-5.5 4.5-5.5 6-5 6-5 6.5-5 6.5-5 6.5-4.5 6.5-4.5 6-5 6-5 6.5-4.5 6.5-4.5 4.5-4.5 4.5-4.5 5.5-3 5.5-3" style="fill:#99dcf6;stroke:#99dcf6"/><g style="fill:#514634;stroke:#514634"><path d="m536 477l-8-6-6-5-6-5v7.5 7.5l1 4 1 4 4-4 4-4 5 .5 5 .5"/><path d="m529 218l-9-1-1.5 4.5-1.5 4.5 6-4 6-4"/></g><path d="m524 186l-12 6 4.5-1.5 4.5-1.5 1.5-1.5 1.5-1.5" style="fill:#393526;stroke:#393526"/><g style="fill:#514634;stroke:#514634"><path d="m523 274l1-3v-1-1l-1.5-1-1.5-1-.5 1.5-.5 1.5-.5 2-.5 2v1 1l-.5 2-.5 2 1.5-.5 1.5-.5.5-1.5.5-1.5.5-1 .5-1"/><path d="m522 201l-14 8-6.5 4.5-6.5 4.5 4 1.5 4 1.5 6-2 6-2 .5-5.5.5-5.5 3-2.5 3-2.5"/></g><path d="m521 122l1-1-9 6-9 6-6.5 4.5-6.5 4.5-6.5 4.5-6.5 4.5-6 5-6 5-6.5 5-6.5 5 7.5-4.5 7.5-4.5 6-5 6-5 7-4.5 7-4.5 6-5 6-5 7.5-5.5 7.5-5.5" style="fill:#393526;stroke:#393526"/><path d="m516 600v-2h-1-1l-.5.5-.5.5h-1-1l-1 .5-1 .5v1 1h-1-1l-.5.5-.5.5-1 .5-1 .5 1 1 1 1 1.5-1 1.5-1 1.5-.5 1.5-.5h.5.5l.5-1 .5-1 1-.5 1-.5" style="fill:#88b3c9;stroke:#88b3c9"/><g style="fill:#514634;stroke:#514634"><path d="m514 301l-9-5-2.5 5.5-2.5 5.5 2 3.5 2 3.5 2.5-.5 2.5-.5.5-4.5.5-4.5 2-1.5 2-1.5"/><path d="m503 341l-12-2v3 3l6-2 6-2"/><path d="m497 359l1-3-1.5-.5-1.5-.5-1.5-1-1.5-1-1.5.5-1.5.5v.5.5l.5 1.5.5 1.5-1 1.5-1 1.5 1.5.5 1.5.5 1-1 1-1 2-.5 2-.5"/><path d="m494 371l-11 1 2 2 2 2 1-2.5 1-2.5h2.5 2.5"/></g><path d="m492 272l-6-6-5.5 1.5-5.5 1.5 5.5 2 5.5 2-1.5 2.5-1.5 2.5 4.5-3 4.5-3" style="fill:#393526;stroke:#393526"/><g style="fill:#1f1e12;stroke:#1f1e12"><path d="m489 457l-16-4 2 1 2 1 6 1 6 1"/><path d="m481 569l-13-9-4 1-4 1-4-2.5-4-2.5 5.5 4.5 5.5 4.5 8-1 8-1 1 2.5 1 2.5"/></g><g style="fill:#514634;stroke:#514634"><path d="m480 423l-4-4-2.5 3.5-2.5 3.5 2.5 3 2.5 3 2-4.5 2-4.5"/><path d="m480 249l-13-1-.5 3.5-.5 3.5-3 5.5-3 5.5 5.5-4.5 5.5-4.5 4.5-2.5 4.5-2.5v-1.5-1.5"/><path d="m476 343l-1-13-.5-3.5-.5-3.5-2.5 1-2.5 1 2 5 2 5-4 4-4 4 5.5.5 5.5.5v-.5-.5"/></g><path d="m474 585l-10-10-4.5 1.5-4.5 1.5 5.5 3 5.5 3 4 .5 4 .5" style="fill:#1f1e12;stroke:#1f1e12"/><path d="m465 626l1-1-2-1-2-1v-1.5-1.5l-8 4-8 4 1.5 1.5 1.5 1.5 8-2.5 8-2.5" style="fill:#6e9091;stroke:#6e9091"/><path d="m460 590l1-3-1.5-.5-1.5-.5-2-.5-2-.5-1.5-.5-1.5-.5h-2.5-2.5v1 1l2 .5 2 .5 1.5.5 1.5.5 1.5.5 1.5.5 2 .5 2 .5" style="fill:#1f1e12;stroke:#1f1e12"/><g style="fill:#514634;stroke:#514634"><path d="m456 250l-12 2 2 2 2 2 4-3 4-3"/><path d="m454 262l-14 4-5.5 5.5-5.5 5.5-6.5 5-6.5 5 6.5-.5 6.5-.5 5-2 5-2v-2-2l3.5-2.5 3.5-2.5 1.5-4 1.5-4 2.5-1.5 2.5-1.5"/><path d="m453 311l-15 5-2-1-2-1 2 3.5 2 3.5 5-3 5-3 2.5-2 2.5-2"/></g><path d="m451 639l1-1-1.5.5-1.5.5h-1-1l-.5.5-.5.5-1 .5-1 .5-.5.5-.5.5h-1-1v1 1l-.5 1.5-.5 1.5-.5 1-.5 1v1 1l-.5 1.5-.5 1.5v1.5 1.5l.5-1 .5-1 1.5-1 1.5-1 1.5-.5 1.5-.5v-1.5-1.5l-1.5.5-1.5.5-.5-2-.5-2 1-1 1-1 1-1 1-1 1.5-1 1.5-1 1.5-.5 1.5-.5" style="fill:#779dac;stroke:#779dac"/><g style="fill:#1f1e12;stroke:#1f1e12"><path d="m451 582l-8-8 3 4 3 4h1 1"/><path d="m450 592l-11 1-2 3-2 3-4 4.5-4 4.5 4.5-2.5 4.5-2.5 2.5-2.5 2.5-2.5 4.5-3 4.5-3"/></g><path d="m441 639l-5 7-2.5 8.5-2.5 8.5-2 9.5-2 9.5-2.5 8.5-2.5 8.5 2.5-6.5 2.5-6.5 2.5-8.5 2.5-8.5 2-9 2-9 2.5-6 2.5-6" style="fill:#374142;stroke:#374142"/><path d="m441 200l-9-10-2 3.5-2 3.5-1.5 4.5-1.5 4.5-4.5 5.5-4.5 5.5 1-1.5 1-1.5 1.5-.5 1.5-.5 1.5-1 1.5-1 1-1 1-1 1.5-1 1.5-1 1.5-.5 1.5-.5 1-1.5 1-1.5 1.5-.5 1.5-.5 1-.5 1-.5 1-.5 1-.5" style="fill:#514634;stroke:#514634"/><path d="m438 623l-14 4-3 3.5-3 3.5 1 .5 1 .5 1.5-.5 1.5-.5 1.5-1 1.5-1-1-1-1-1 1-.5 1-.5h3 3l1.5-.5 1.5-.5.5-2 .5-2 1-.5 1-.5" style="fill:#1f1e12;stroke:#1f1e12"/><g style="fill:#514634;stroke:#514634"><path d="m437 260v-2h-2-2-2.5-2.5l-1.5.5-1.5.5-.5 2-.5 2-.5 1.5-.5 1.5-1.5 1-1.5 1v2 2h2 2l1-1.5 1-1.5 1-1 1-1 1.5-1 1.5-1 1-1 1-1h1.5 1.5l.5-1.5.5-1.5"/><path d="m437 237h-12l-4.5 6.5-4.5 6.5 5.5-2 5.5-2 5-4.5 5-4.5"/></g><path d="m437 204v-2l-1.5.5-1.5.5-1 1.5-1 1.5-1.5.5-1.5.5-1.5 1-1.5 1-1 1-1 1-1.5 1-1.5 1-1.5.5-1.5.5-1 1.5-1 1.5-1 1-1 1-1 1-1 1-.5 1.5-.5 1.5.5 1 .5 1v1 1 1 1l-.5 1.5-.5 1.5v1.5 1.5l-1 1-1 1-.5 1.5-.5 1.5-1 1-1 1-1 1.5-1 1.5-1 1-1 1-1.5 1-1.5 1-.5 1.5-.5 1.5 1 1 1 1v1 1l-.5 2-.5 2-1 1-1 1-.5 1.5-.5 1.5-.5 2-.5 2-1 1-1 1-1 .5-1 .5-1.5 1-1.5 1-1.5 1.5-1.5 1.5-.5.5-.5.5-1 1-1 1v1.5 1.5l-.5 10.5-.5 10.5 6-5 6-5 3.5-7.5 3.5-7.5 3.5-7.5 3.5-7.5 3.5-7.5 3.5-7.5 4-7.5 4-7.5 3.5-7.5 3.5-7.5 4-8 4-8" style="fill:#1f1e12;stroke:#1f1e12"/><path d="m434 640l1-3h-1-1l-.5.5-.5.5-.5.5-.5.5-1-.5-1-.5-.5-.5-.5-.5v1 1 1 1l-.5 1-.5 1v1 1l-.5.5-.5.5v1 1l-.5 1-.5 1v1 1l-.5.5-.5.5v1.5 1.5l1-2 1-2 .5-1.5.5-1.5 1-1.5 1-1.5 1.5-.5 1.5-.5v2.5 2.5l.5-2 .5-2 .5-.5.5-.5v-1-1-1.5-1.5" style="fill:#779dac;stroke:#779dac"/><path d="m431 651l1-1v-2.5-2.5l-1.5.5-1.5.5-1 1.5-1 1.5-.5 1.5-.5 1.5-1 2-1 2-4 17.5-4 17.5-2 10.5-2 10.5h2.5 2.5l2.5-12.5 2.5-12.5 2.5-8.5 2.5-8.5 2-9.5 2-9.5" style="fill:#88b3c9;stroke:#88b3c9"/><path d="m431 630l1-1h-3-3l-1 .5-1 .5 1 1 1 1-1.5 1-1.5 1-1.5.5-1.5.5-1-.5-1-.5 1 1 1 1 .5.5.5.5 1 .5 1 .5 1.5-.5 1.5-.5.5-1 .5-1 .5-1 .5-1v-1-1l1.5-.5 1.5-.5" style="fill:#393526;stroke:#393526"/><path d="m429 334l-13 1v2 2l6.5-2.5 6.5-2.5" style="fill:#514634;stroke:#514634"/><path d="m425 640l1-3-1.5.5-1.5.5-1-.5-1-.5-.5-.5-.5-.5-1-1-1-1-2 .5-2 .5-1 1.5-1 1.5-.5 1.5-.5 1.5-.5 2-.5 2 .5 1.5.5 1.5 2-.5 2-.5h2 2l2 .5 2 .5.5-1 .5-1-.5-1-.5-1v-1-1l1-1 1-1" style="fill:#1f1e12;stroke:#1f1e12"/><g style="fill:#514634;stroke:#514634"><path d="m424 181l-1-13-3.5 4.5-3.5 4.5 2.5 2 2.5 2h1.5 1.5"/><path d="m419 274l1-2-3.5 1-3.5 1-4.5 3.5-4.5 3.5 6.5-3 6.5-3 1-.5 1-.5"/><path d="m418 261l-8 2 3.5.5 3.5.5.5-1.5.5-1.5"/></g><path d="m414 680h1l-4-5.5-4-5.5-7 3-7 3 4-5.5 4-5.5-6.5 3.5-6.5 3.5-.5 2.5-.5 2.5-8 3-8 3-6.5 3.5-6.5 3.5-7.5 3-7.5 3-7.5 2.5-7.5 2.5-7 4-7 4-6.5-.5-6.5-.5-8 2.5-8 2.5h3 3 2.5 2.5 2 2 2.5 2.5 2 2 2.5 2.5 2 2 2 2 2 2l7.5-4 7.5-4 8-3 8-3 7.5-3.5 7.5-3.5 8-3.5 8-3.5 7-1 7-1v2.5 2.5l-.5 1.5-.5 1.5-.5 2-.5 2-.5 1.5-.5 1.5-.5 1.5-.5 1.5.5 1 .5 1-1.5.5-1.5.5-2.5 1-2.5 1-3 .5-3 .5-1.5.5-1.5.5-2-.5-2-.5-.5 1.5-.5 1.5-1.5.5-1.5.5-1 1-1 1h2.5 2.5 2.5 2.5 2 2 2.5 2.5 2 2 2.5 2.5 2 2 1.5 1.5l-1-9.5-1-9.5 4.5-4.5 4.5-4.5v-2-2" style="fill:#1f1e12;stroke:#1f1e12"/><path d="m411 233l1-3v-1-1-1-1l-.5-1-.5-1h-.5-.5l-.5 2.5-.5 2.5-4 8.5-4 8.5-3.5 7.5-3.5 7.5-4.5 8.5-4.5 8.5 1.5-1.5 1.5-1.5 1.5-1 1.5-1 .5-1.5.5-1.5.5-.5.5-.5.5-1 .5-1v-1-1l.5-.5.5-.5.5-.5.5-.5v-1-1l.5-1 .5-1 .5-.5.5-.5v-1-1l-.5-.5-.5-.5.5-1 .5-1 .5-1.5.5-1.5 1.5-1 1.5-1 1-1 1-1 1-1.5 1-1.5 1-1 1-1 .5-1.5.5-1.5 1-1 1-1v-1.5-1.5" style="fill:#374142;stroke:#374142"/><path d="m410 190l-10-2 3.5.5 3.5.5 1.5.5 1.5.5" style="fill:#514634;stroke:#514634"/><path d="m409 229l1-5-5.5 4-5.5 4-4 7-4 7-3.5 7.5-3.5 7.5-4 7-4 7-4 7.5-4 7.5.5 1.5.5 1.5-.5 1.5-.5 1.5-.5 1-.5 1-.5.5-.5.5v1 1l-.5.5-.5.5-.5.5-.5.5h-.5-.5l-.5-1-.5-1-.5 1-.5 1v1 1 1.5 1.5l-.5 1-.5 1-.5 1.5-.5 1.5-.5.5-.5.5v1 1l-.5.5-.5.5-.5 1-.5 1-.5.5-.5.5v1 1l-.5.5-.5.5-.5 1-.5 1-.5.5-.5.5-.5.5-.5.5v1 1l-.5 1-.5 1-1 .5-1 .5v1.5 1.5l-.5 1-.5 1-1 1-1 1-.5.5-.5.5-.5 1-.5 1-.5 1.5-.5 1.5-.5.5-.5.5-.5.5-.5.5-.5-1-.5-1-.5 1-.5 1v2 2l-4 5.5-4 5.5-3.5 7.5-3.5 7.5-2.5 5.5-2.5 5.5-3 3-3 3-3.5 7.5-3.5 7.5-2 6-2 6-4 5.5-4 5.5-4 7-4 7-3.5 7.5-3.5 7.5-4 7-4 7-5 9-5 9-4 8.5-4 8.5-4 7-4 7-8 13.5-8 13.5-.5 1.5-.5 1.5-3.5 8-3.5 8-6 9.5-6 9.5-.5 1-.5 1-.5 1.5-.5 1.5-1 1.5-1 1.5v1 1l-.5 1-.5 1-1 1-1 1-.5 1.5-.5 1.5-.5.5-.5.5-.5 1-.5 1-1 1-1 1v1 1l-.5 1-.5 1-1 1-1 1-.5 1-.5 1-.5 1.5-.5 1.5-.5.5-.5.5v1 1l-1 .5-1 .5-.5 1-.5 1-3.5 8-3.5 8-4 7-4 7-4 7.5-4 7.5-4 7-4 7-3 8-3 8 3.5-2.5 3.5-2.5-2.5 7-2.5 7h3 3 2 2l2-8.5 2-8.5 4-4 4-4 5-11 5-11-3-2.5-3-2.5 3.5-7.5 3.5-7.5 3-7.5 3-7.5 4-7 4-7 4-7 4-7 3.5-7.5 3.5-7.5 4.5-6.5 4.5-6.5 4.5-4 4.5-4 4.5-6 4.5-6 4.5-8.5 4.5-8.5 3-6 3-6 4.5-8 4.5-8-1-5-1-5 3.5-7.5 3.5-7.5 4-7 4-7 8.5-9.5 8.5-9.5 4.5-10.5 4.5-10.5 4-7 4-7 5-8 5-8 2-5.5 2-5.5 2-7 2-7 7-9 7-9 1-2 1-2v-1-1l1-.5 1-.5 1-1 1-1 .5-1.5.5-1.5-1-.5-1-.5.5-.5.5-.5-.5-1-.5-1 .5-.5.5-.5v-1-1l.5-.5.5-.5v-1-1l.5-.5.5-.5.5-1 .5-1 .5-.5.5-.5.5-.5.5-.5v-1-1l.5-1 .5-1 .5-.5.5-.5.5-.5.5-.5v-1-1l.5-1 .5-1h1 1l.5 1.5.5 1.5 1-2 1-2-1-.5-1-.5v-1-1l.5-.5.5-.5.5-.5.5-.5h1.5 1.5l.5-1 .5-1 3.5-8 3.5-8 5-9 5-9 4.5-8.5 4.5-8.5 3.5-7.5 3.5-7.5 4-8.5 4-8.5" style="fill:#415764;stroke:#415764"/><g style="fill:#514634;stroke:#514634"><path d="m406 162l1-3-1-1-1-1 1-1.5 1-1.5-.5-1.5-.5-1.5-1-.5-1-.5h-1-1l1 1.5 1 1.5-.5 1.5-.5 1.5h-.5-.5v1.5 1.5l1 1.5 1 1.5v1 1l1-1 1-1"/><path d="m405 176l-10 4-3.5 7.5-3.5 7.5 5-4.5 5-4.5 3.5-5 3.5-5"/><path d="m403 145l-7-1-3.5-2.5-3.5-2.5 1 3.5 1 3.5 1 4 1 4 4.5 1 4.5 1-1-.5-1-.5-.5-.5-.5-.5.5-2 .5-2 1-1 1-1 .5-1.5.5-1.5"/></g><g style="fill:#393526;stroke:#393526"><path d="m402 682l-14 2-8 3.5-8 3.5-7.5 3.5-7.5 3.5-8 3-8 3-7.5 4-7.5 4h1.5 1.5 2.5 2.5 2 2 2.5 2.5 2 2 2.5 2.5l6.5-5 6.5-5 7-4.5 7-4.5h6 6l2 4 2 4-2 2-2 2 2.5-1 2.5-1 1.5-.5 1.5-.5-.5-1-.5-1 .5-1.5.5-1.5.5-1.5.5-1.5.5-2 .5-2 .5-1.5.5-1.5v-2.5-2.5"/><path d="m400 257v-2l-1-1-1-1-.5 1-.5 1 .5.5.5.5v1 1l-.5.5-.5.5-.5 1-.5 1v1 1l-.5.5-.5.5-.5.5-.5.5v1 1l-.5 1-.5 1-.5.5-.5.5-.5 1.5-.5 1.5 1-.5 1-.5 1-1 1-1 .5-2 .5-2 .5-1.5.5-1.5 1-1 1-1 .5-2 .5-2"/></g><path d="m400 170l-12-2 2.5-3.5 2.5-3.5-1.5-2-1.5-2-2.5 2.5-2.5 2.5.5 2.5.5 2.5v6 6l5-4 5-4 2-.5 2-.5" style="fill:#514634;stroke:#514634"/><path d="m395 701l-4-8h-6-6l-7 4.5-7 4.5-6.5 5-6.5 5h3 3 2 2 2.5 2.5 2 2 .5.5l1-1 1-1 1.5-.5 1.5-.5.5-1.5.5-1.5 2 .5 2 .5 1.5-.5 1.5-.5 3-.5 3-.5 2-2 2-2" style="fill:#374142;stroke:#374142"/><path d="m386 309l-14 6-4 6-4 6 .5 3 .5 3 7-4 7-4 3.5-7.5 3.5-7.5v-.5-.5" style="fill:#1f1e12;stroke:#1f1e12"/><path d="m385 120v-3l-.5-1.5-.5-1.5h-.5-.5l-.5.5-.5.5-1 1-1 1-1.5 1-1.5 1h-1-1l-1.5.5-1.5.5v-1-1l-1-.5-1-.5 1-1 1-1 .5-1.5.5-1.5-1.5 1-1.5 1-1.5.5-1.5.5-1 1.5-1 1.5-1 1-1 1-1.5 1-1.5 1-1 1-1 1-1.5.5-1.5.5-.5.5-.5.5-5 7-5 7-5 6-5 6-5 5-5 5-8.5 4-8.5 4-7 8.5-7 8.5-6 4.5-6 4.5-.5.5-.5.5-6 4.5-6 4.5h-5-5l-1.5 1-1.5 1-.5-.5-.5-.5v1 1 .5.5l-.5.5-.5.5-.5 1-.5 1 .5 1.5.5 1.5 1 .5 1 .5 1.5-.5 1.5-.5 1.5-.5 1.5-.5.5 1 .5 1-.5 1-.5 1-.5 1.5-.5 1.5h-1-1l-.5.5-.5.5-.5.5-.5.5-.5 1-.5 1-.5-.5-.5-.5-.5-.5-.5-.5-.5.5-.5.5-1 .5-1 .5 1 1 1 1-5 2.5-5 2.5 4-3.5 4-3.5-1-1-1-1h-1-1l-1 .5-1 .5-1-1-1-1-7 6.5-7 6.5-2.5 4.5-2.5 4.5-4 4.5-4 4.5-4.5 3.5-4.5 3.5-3.5 4.5-3.5 4.5-4.5 4.5-4.5 4.5-4 6-4 6-3 3.5-3 3.5-5.5 5.5-5.5 5.5-4 3-4 3-4 6-4 6-4 4-4 4-5.5 6-5.5 6-4 5-4 5-5.5 4.5-5.5 4.5-2.5 5.5-2.5 5.5-4.5 3.5-4.5 3.5-2.5 4-2.5 4-3 3-3 3-5 6-5 6-4 3-4 3-.5 3-.5 3-3.5 3-3.5 3 7-.5 7-.5 5.5-.5 5.5-.5h2 2l3-1 3-1 1-6 1-6h3 3l2.5-4.5 2.5-4.5 1-2.5 1-2.5 3.5-5.5 3.5-5.5 3-3 3-3 4-3 4-3-1.5 4.5-1.5 4.5 5-4.5 5-4.5-.5-3.5-.5-3.5 5.5-2.5 5.5-2.5 1.5 1.5 1.5 1.5-1 2-1 2-3.5 5-3.5 5 8-6.5 8-6.5-1 2-1 2 6.5-4.5 6.5-4.5 1.5-4.5 1.5-4.5 8.5 1 8.5 1-1-1-1-1-2.5-3.5-2.5-3.5v-3-3l6.5-1 6.5-1 2-5 2-5 2.5-1.5 2.5-1.5 6-2 6-2 6 2 6 2-2.5 2-2.5 2h-3-3l-.5 2.5-.5 2.5 4.5.5 4.5.5 5-6 5-6-1.5-3-1.5-3-2-2-2-2 6.5-1.5 6.5-1.5-.5-2.5-.5-2.5 3.5-6.5 3.5-6.5 6-3 6-3-1-1.5-1-1.5-.5-1-.5-1-1.5.5-1.5.5 1-1.5 1-1.5 1-1 1-1 2-.5 2-.5.5 1.5.5 1.5-.5 1.5-.5 1.5-1 .5-1 .5v1.5 1.5l9-11 9-11 4.5-6.5 4.5-6.5 5.5-5.5 5.5-5.5 3.5-6.5 3.5-6.5 5-6 5-6 5-6.5 5-6.5 4.5-6.5 4.5-6.5 4.5-6.5 4.5-6.5h6 6l-5.5-3.5-5.5-3.5 3-3 3-3 5.5 5 5.5 5-.5-3.5-.5-3.5.5-5.5.5-5.5 3.5-4.5 3.5-4.5 8-5 8-5 1-8 1-8" style="fill:#514634;stroke:#514634"/><path d="m384 279l1-1-5 9-5 9-3.5 8-3.5 8 1-1 1-1 1.5-1 1.5-1 .5-1.5.5-1.5.5-1 .5-1 .5-.5.5-.5.5-1.5.5-1.5.5-1.5.5-1.5 1-1.5 1-1.5.5-1.5.5-1.5v-1.5-1.5l.5-1.5.5-1.5v-1.5-1.5l1-1 1-1" style="fill:#374142;stroke:#374142"/><path d="m382 115l1-1-2-1-2-1-2-.5-2-.5-1 .5-1 .5-.5 1.5-.5 1.5-1 1-1 1 1 .5 1 .5v1 1l1.5-.5 1.5-.5h1 1l1.5-1 1.5-1 1-1 1-1" style="fill:#393526;stroke:#393526"/><path d="m378 142v-3l-.5 1-.5 1-.5.5-.5.5-1.5-.5-1.5-.5-1 .5-1 .5v1 1l-1 .5-1 .5-1 .5-1 .5-3 6.5-3 6.5 6-1 6-1 2.5-7.5 2.5-7.5" style="fill:#514634;stroke:#514634"/><path d="m374 333l-20 13-5 6-5 6-.5.5-.5.5-3.5 7-3.5 7-6.5 11-6.5 11 7-4 7-4 6.5-4.5 6.5-4.5 4.5-6.5 4.5-6.5 3.5-7.5 3.5-7.5 4-8.5 4-8.5" style="fill:#1f1e12;stroke:#1f1e12"/><path d="m368 296l1-3-.5-1.5-.5-1.5-1 1.5-1 1.5-.5 1.5-.5 1.5-1 1.5-1 1.5-.5 1-.5 1 .5 1 .5 1h.5.5l.5-.5.5-.5.5-.5.5-.5v-1-1l.5-.5.5-.5.5-1 .5-1" style="fill:#59747c;stroke:#59747c"/><path d="m368 283l-10-6h-4-4l-1 5.5-1 5.5 4.5.5 4.5.5h4 4l1.5-3 1.5-3" style="fill:#1f1e12;stroke:#1f1e12"/><path d="m362 618l-10 8 4-3 4-3 1-1 1-1" style="fill:#514634;stroke:#514634"/><g style="fill:#59747c;stroke:#59747c"><path d="m361 324l1-1-.5-1.5-.5-1.5h-1-1l-.5 1-.5 1v1 1l-.5.5-.5.5-.5.5-.5.5-.5 1-.5 1v1 1l-.5.5-.5.5-.5.5-.5.5-.5 1-.5 1-.5.5-.5.5v1 1l-.5.5-.5.5v1 1l-.5.5-.5.5.5 1 .5 1-.5.5-.5.5 1 .5 1 .5 1-1 1-1 .5-.5.5-.5v-1-1l.5-.5.5-.5.5-1 .5-1v-1-1l.5-.5.5-.5.5-.5.5-.5.5-1 .5-1v-1-1l.5-.5.5-.5.5-.5.5-.5v-1.5-1.5"/><path d="m361 308v-3l-.5.5-.5.5-.5 1.5-.5 1.5-.5.5-.5.5v1 1l-.5.5-.5.5-.5 1-.5 1-.5.5-.5.5v1 1l-.5.5-.5.5-.5 1-.5 1-.5.5-.5.5-.5.5-.5.5v1 1l-.5.5-.5.5-.5.5-.5.5v1.5 1.5l-.5 1-.5 1 1-.5 1-.5.5-1 .5-1v-1-1l.5-.5.5-.5.5-.5.5-.5.5-1 .5-1 .5-.5.5-.5v-1-1l.5-.5.5-.5.5-1 .5-1 .5-.5.5-.5v-1-1l.5-.5.5-.5.5-1.5.5-1.5.5-1 .5-1"/></g><path d="m360 306l1-1v-1-1l-7 13-7 13-4 8-4 8 .5 1 .5 1 .5-.5.5-.5.5-.5.5-.5.5-1.5.5-1.5.5-1 .5-1 .5-.5.5-.5 1-1 1-1 .5-1 .5-1v-1.5-1.5l.5-1 .5-1v-1.5-1.5l.5-.5.5-.5.5-.5.5-.5v-1-1l.5-.5.5-.5.5-.5.5-.5.5-1 .5-1 .5-.5.5-.5v-1-1l.5-.5.5-.5.5-1 .5-1 .5-.5.5-.5v-1-1l.5-.5.5-.5.5-1.5.5-1.5" style="fill:#374142;stroke:#374142"/><path d="m354 126l1-1-9 5.5-9 5.5-6 6-6 6 2-.5 2-.5.5.5.5.5-1.5 1.5-1.5 1.5-1 1-1 1-1 1.5-1 1.5-1.5.5-1.5.5-1.5 1-1.5 1-1 1-1 1-1 .5-1 .5-1.5 1.5-1.5 1.5-.5 1-.5 1v1 1l-1 .5-1 .5 8.5-4 8.5-4 5-5 5-5 5-6 5-6 5-7 5-7" style="fill:#393526;stroke:#393526"/><path d="m350 122h-12l-6.5.5-6.5.5-1.5-.5-1.5-.5-4.5 2.5-4.5 2.5-5.5-1-5.5-1-1-2-1-2-2 1-2 1-5.5 1.5-5.5 1.5-1.5-2.5-1.5-2.5-3 2.5-3 2.5-4-2-4-2-5 2-5 2-5.5 1.5-5.5 1.5-5 3-5 3-6-2.5-6-2.5-4.5.5-4.5.5-3-5-3-5 1.5 3.5 1.5 3.5-2.5 3.5-2.5 3.5-.5-5.5-.5-5.5-2.5-3-2.5-3-2 3-2 3-3.5 1.5-3.5 1.5h-4-4l-1-1-1-1-5 4.5-5 4.5-2-4-2-4-2 3-2 3-3 3-3 3-6-1-6-1 .5 1 .5 1 2 2 2 2-6 1-6 1-1.5-.5-1.5-.5-4.5 4.5-4.5 4.5-2.5 2.5-2.5 2.5-5.5 1-5.5 1-4.5-3.5-4.5-3.5-6 3-6 3 6.5 2.5 6.5 2.5-3 4-3 4-8 .5-8 .5-6-2-6-2-5 4-5 4 .5 2.5.5 2.5-5.5 1.5-5.5 1.5v4.5 4.5l-4 5-4 5h-2-2l-.5 6.5-.5 6.5-3-1-3-1-7.5-.5-7.5-.5 4.5 1 4.5 1v4 4l-5.5-.5-5.5-.5-6 1.5-6 1.5v13 13 11 11 11 11 11 11 11.5 11.5 11 11 1 1l3.5-5.5 3.5-5.5 1-2.5 1-2.5 5-1 5-1 2.5-6.5 2.5-6.5 8-1 8-1 3-5 3-5 5.5-4 5.5-4 6-2 6-2 1-6 1-6 5-3 5-3h8 8l5-1 5-1 5-2.5 5-2.5 5.5-.5 5.5-.5 5 1 5 1 3-1 3-1 5.5 1.5 5.5 1.5 2-3.5 2-3.5 4 1 4 1 2.5 7 2.5 7 5.5-6 5.5-6 5.5-6 5.5-6 5.5-5.5 5.5-5.5 5-6 5-6 5-6 5-6 5.5-5.5 5.5-5.5 5-6 5-6 5.5-6 5.5-6 5.5-5.5 5.5-5.5h8 8l5-6 5-6 5-6 5-6 5.5-6 5.5-6 5-6 5-6 6-5 6-5 6-4 6-4 .5-1 .5-1" style="fill:#99dcf6;stroke:#99dcf6"/><g style="fill:#1f1e12;stroke:#1f1e12"><path d="m348 385l-12 6-6 5-6 5-4 7.5-4 7.5 1.5 3.5 1.5 3.5 6.5-4.5 6.5-4.5 5-6 5-6 3-8 3-8v-.5-.5"/><path d="m345 326l-6-2-5 3-5 3-4 .5-4 .5 2-4 2-4-1.5-.5-1.5-.5-2.5 2.5-2.5 2.5-4-2-4-2h-5-5l-2-2.5-2-2.5h-6-6l2.5 5.5 2.5 5.5 1.5 4.5 1.5 4.5-4.5.5-4.5.5-1.5-4-1.5-4-1-3-1-3-2-3-2-3-1.5 4.5-1.5 4.5 4 4 4 4 2 5.5 2 5.5-5.5-1.5-5.5-1.5-5.5-5.5-5.5-5.5v5 5l1.5 3.5 1.5 3.5-1.5 2.5-1.5 2.5-4.5-2-4.5-2-3-3-3-3 1 5 1 5 4.5 2.5 4.5 2.5-3 3-3 3-4-3.5-4-3.5v5 5 6 6l-4-1-4-1h-2-2l2.5 6 2.5 6-6.5-2.5-6.5-2.5-1-6-1-6-1.5 2.5-1.5 2.5-2 2-2 2-4 1-4 1 3.5 6 3.5 6-1.5-.5-1.5-.5-1.5 5.5-1.5 5.5-3 1-3 1-5-4-5-4-2 1.5-2 1.5-1.5 2.5-1.5 2.5h-4-4l.5 3.5.5 3.5 5.5 4.5 5.5 4.5 1.5 3 1.5 3-5.5-4.5-5.5-4.5-5-1-5-1 1.5 6.5 1.5 6.5v1 1l.5 2.5.5 2.5-6.5-2-6.5-2-4-1-4-1-2.5 3.5-2.5 3.5 2 8 2 8-6.5 1.5-6.5 1.5-2.5-1-2.5-1 4.5 5.5 4.5 5.5-5-1-5-1-5.5 3.5-5.5 3.5-3 3-3 3 .5 4 .5 4-.5 3.5-.5 3.5v4 4l-5 2-5 2v4 4l-4 2-4 2-4 2.5-4 2.5-1.5 4.5-1.5 4.5-3.5 1.5-3.5 1.5-3.5.5-3.5.5-6 2-6 2-.5 5-.5 5-4-1-4-1 1.5 4.5 1.5 4.5-3.5 6.5-3.5 6.5-3.5 4.5-3.5 4.5-4 1.5-4 1.5-4.5-5.5-4.5-5.5-4-1-4-1 2 3 2 3 3.5 5.5 3.5 5.5-.5 4.5-.5 4.5.5 1.5.5 1.5-1.5.5-1.5.5-.5.5-.5.5v1 1h-1-1l-1-.5-1-.5v-1-1l.5-.5.5-.5-.5-.5-.5-.5-.5-1-.5-1h-1-1l-.5-.5-.5-.5.5-.5.5-.5v-1-1l1 .5 1 .5.5.5.5.5-.5.5-.5.5h1 1l1 .5 1 .5h2 2l-3.5-8.5-3.5-8.5-9 .5-9 .5v1 1l1.5-.5 1.5-.5 1 .5 1 .5 1-1 1-1 .5-.5.5-.5 1-.5 1-.5 1.5.5 1.5.5v1 1l-1.5 1.5-1.5 1.5-1 1.5-1 1.5-1-1-1-1-1-1-1-1h-2-2v2 2 2 2 2 2 2.5 2.5 2 2 2.5 2.5 2 2 2.5 2.5 2 2 .5.5h1.5 1.5 1.5 1.5l.5-.5.5-.5-1-.5-1-.5.5-1.5.5-1.5.5-.5.5-.5-.5-1-.5-1v-1-1h1 1l.5 1 .5 1v2 2l-.5 1.5-.5 1.5-.5 1-.5 1-.5 1-.5 1-2 .5-2 .5-1 1.5-1 1.5v13 13 11 11 11 11 6 6h5 5 11.5 11.5 11 11 11 11 11 11 11 11 11 11l3.5-8 3.5-8 4-7 4-7 3.5-7.5 3.5-7.5 4-7 4-7 7.5-13.5 7.5-13.5 1-.5 1-.5v-1-1l.5-.5.5-.5.5-1.5.5-1.5v-1.5-1.5l.5-.5.5-.5.5-1 .5-1 .5-1.5.5-1.5.5-.5.5-.5.5-.5.5-.5.5-.5.5-.5.5-1 .5-1v-1-1l.5-.5.5-.5.5-.5.5-.5.5-1 .5-1 .5-.5.5-.5v-1-1l.5-.5.5-.5.5-1 .5-1 1-1 1-1 .5-1 .5-1 4-7.5 4-7.5 6-11.5 6-11.5 8-13.5 8-13.5 4-7 4-7 4-8.5 4-8.5 4-8 4-8 3.5-7.5 3.5-7.5 3.5-7.5 3.5-7.5 4.5-7 4.5-7 3.5-7.5 3.5-7.5 4-7 4-7 3.5-7.5 3.5-7.5 3.5-6.5 3.5-6.5 4-6.5 4-6.5 4.5-8 4.5-8 2.5-5.5 2.5-5.5 1.5-5 1.5-5"/></g><g style="fill:#374142;stroke:#374142"><path d="m343 359l1-1v-.5-.5l-7 9-7 9-2 7-2 7-2 5.5-2 5.5v-1.5-1.5l.5-1 .5-1 6.5-11 6.5-11 3.5-7 3.5-7"/><path d="m338 351v-4h-.5-.5l-4.5 8-4.5 8-4 6.5-4 6.5-3.5 6.5-3.5 6.5-3.5 7.5-3.5 7.5-4 7-4 7-3.5 7.5-3.5 7.5-4.5 7-4.5 7-3.5 7.5-3.5 7.5-3.5 7.5-3.5 7.5-4 8-4 8 5-9 5-9 4-7 4-7 3.5-7.5 3.5-7.5 4-7 4-7 4-5.5 4-5.5 2-6 2-6 3.5-7.5 3.5-7.5 3-3 3-3 2.5-5.5 2.5-5.5 3.5-7.5 3.5-7.5 4-5.5 4-5.5"/></g><path d="m332 633l-12 2h2 2l4-1 4-1" style="fill:#514634;stroke:#514634"/><path d="m332 421l-16 7-6 5-6 5-4.5 7-4.5 7h-.5-.5l-4.5 7-4.5 7-3 8-3 8-7 11.5-7 11.5-4 13-4 13-4 7-4 7 6-2.5 6-2.5 7-4 7-4 4-6 4-6 4-7 4-7 2.5-6.5 2.5-6.5 3.5-7 3.5-7 4-7 4-7 3.5-7.5 3.5-7.5 2.5-5.5 2.5-5.5 4.5-9 4.5-9" style="fill:#1f1e12;stroke:#1f1e12"/><path d="m330 148l-1-1-2 .5-2 .5-1.5 1-1.5 1h-.5-.5l-.5.5-.5.5-1 1-1 1-.5 1-.5 1-.5.5-.5.5-1 1-1 1-1 1-1 1 .5 1 .5 1 1-.5 1-.5 1-1 1-1 1.5-1 1.5-1 1.5-.5 1.5-.5 1-1.5 1-1.5 1-1 1-1 1.5-1.5 1.5-1.5" style="fill:#514634;stroke:#514634"/><path d="m316 334l-1-1h-1-1l-.5-2-.5-2-1-1-1-1-1-1.5-1-1.5-.5 1.5-.5 1.5-.5 2-.5 2 1 1 1 1 1 1 1 1 2 .5 2 .5 1-1 1-1" style="fill:#393526;stroke:#393526"/><path d="m294 452h1v-.5-.5l-8.5 9.5-8.5 9.5-4 7-4 7-3.5 7.5-3.5 7.5 1 5 1 5 .5-1 .5-1-.5-1-.5-1 7-11.5 7-11.5 3-8 3-8 4.5-7 4.5-7" style="fill:#374142;stroke:#374142"/><path d="m280 197l1-1-2-1-2-1-2-.5-2-.5h-2-2l-1.5 1-1.5 1-1 1-1 1-1 1.5-1 1.5-1 1-1 1-1 2-1 2h5 5l6-4.5 6-4.5" style="fill:#393526;stroke:#393526"/><path d="m275 538l-25 11-5.5 6.5-5.5 6.5-.5 2-.5 2-1 1-1 1-.5 1.5-.5 1.5-1 1.5-1 1.5-1.5.5-1.5.5-.5 2-.5 2-1 1.5-1 1.5-.5.5-.5.5-2 1-2 1-.5 1.5-.5 1.5v2.5 2.5l-.5 1.5-.5 1.5-.5 1.5-.5 1.5-1 1.5-1 1.5-.5 1.5-.5 1.5-1 1.5-1 1.5-1 1-1 1-.5 1-.5 1-4 8-4 8-3.5 7.5-3.5 7.5-2 6-2 6 11.5-7 11.5-7 6.5-5 6.5-5 3.5-6.5 3.5-6.5 3.5-7.5 3.5-7.5 3.5-7.5 3.5-7.5 2.5-3.5 2.5-3.5 3-7 3-7 3.5-7 3.5-7 4-7.5 4-7.5" style="fill:#1f1e12;stroke:#1f1e12"/><g style="fill:#393526;stroke:#393526"><path d="m272 421l-4-10-1 3-1 3 3 2 3 2"/><path d="m262 217l-1-2-1.5.5-1.5.5-1.5.5-1.5.5-1-.5-1-.5-.5-1.5-.5-1.5-1.5 1-1.5 1-.5 1-.5 1-1.5.5-1.5.5-.5 1-.5 1-.5.5-.5.5-.5 1-.5 1 1 1 1 1 1-.5 1-.5h1 1l1 1 1 1 1-.5 1-.5.5-.5.5-.5.5.5.5.5.5.5.5.5.5-1 .5-1 .5-.5.5-.5.5-.5.5-.5h1 1l.5-1.5.5-1.5.5-1 .5-1"/><path d="m261 282l1-3-.5-1.5-.5-1.5-2 .5-2 .5-1 1-1 1-1 1.5-1 1.5 1.5-.5 1.5-.5.5 1 .5 1 1 1.5 1 1.5v-1.5-1.5l1-.5 1-.5"/></g><g style="fill:#1f1e12;stroke:#1f1e12"><path d="m259 705l1-3-1.5.5-1.5.5-.5 2-.5 2h-1-1l-.5-1-.5-1-1.5.5-1.5.5-1 1.5-1 1.5 1 1 1 1 1.5-.5 1.5-.5.5 1 .5 1h.5.5l1-2 1-2 1-1.5 1-1.5"/><path d="m253 329l-7-5v2 2l3.5.5 3.5.5"/></g><path d="m252 228l-2-2-4 3.5-4 3.5 5-2.5 5-2.5" style="fill:#393526;stroke:#393526"/><g style="fill:#374142;stroke:#374142"><path d="m240 555l1-1-4.5 6-4.5 6-4.5 4-4.5 4-4.5 6.5-4.5 6.5-3.5 7.5-3.5 7.5-4 7-4 7-4 7-4 7-3 7.5-3 7.5-3.5 7.5-3.5 7.5 3 2.5 3 2.5.5-1 .5-1 .5-1 .5-1 .5-1 .5-1 .5-.5.5-.5h1 1 1 1l.5-1 .5-1 1-.5 1-.5h-1.5-1.5l2-6 2-6 3.5-7.5 3.5-7.5 4-8 4-8 .5-1.5.5-1.5v-1-1l.5-1 .5-1 .5-.5.5-.5.5-.5.5-.5v-1-1l.5-1 .5-1 .5-1.5.5-1.5.5-.5.5-.5.5-1 .5-1v-2-2l.5-.5.5-.5-.5-.5-.5-.5v-1-1l.5-1 .5-1h1 1 1 1l1.5-.5 1.5-.5 1-1.5 1-1.5.5-2 .5-2 1.5-.5 1.5-.5 1-1.5 1-1.5.5-1.5.5-1.5 1-1 1-1 .5-2 .5-2 .5-1.5.5-1.5v-2-2"/><path d="m227 554l1-3-6 11.5-6 11.5-4 7.5-4 7.5 6-9.5 6-9.5 3.5-8 3.5-8"/></g><path d="m226 583l1-1-1.5.5-1.5.5h-1-1-1-1l-.5 1-.5 1v1 1l.5.5.5.5-.5.5-.5.5v2 2l-.5 1-.5 1-.5.5-.5.5-.5 1.5-.5 1.5-.5 1-.5 1v1 1l-.5.5-.5.5-.5.5-.5.5-.5 1-.5 1v1 1l-.5 1.5-.5 1.5.5-1 .5-1 1-1 1-1 1-1.5 1-1.5.5-1.5.5-1.5 1-1.5 1-1.5.5-1.5.5-1.5.5-1.5.5-1.5v-2.5-2.5l.5-1.5.5-1.5 2-1 2-1" style="fill:#393526;stroke:#393526"/><path d="m222 644v-2l-1.5.5-1.5.5h-1.5-1.5l-.5.5-.5.5-1.5.5-1.5.5-1 .5-1 .5-.5.5-.5.5-1.5.5-1.5.5-.5 1-.5 1h-1-1l-1.5.5-1.5.5-1 1-1 1-1.5 1-1.5 1 1.5-.5 1.5-.5 1.5-.5 1.5-.5 2-.5 2-.5 1-1 1-1 2-.5 2-.5 1-1 1-1 2-.5 2-.5 1-1 1-1v1 1l-1 1.5-1 1.5-.5 1-.5 1h-1-1l-1.5 1-1.5 1-.5 1.5-.5 1.5 1.5-.5 1.5-.5 1 1.5 1 1.5 1-2.5 1-2.5.5-1.5.5-1.5 1-1.5 1-1.5 1-1.5 1-1.5" style="fill:#374142;stroke:#374142"/><path d="m219 646v-2l-1 1-1 1-2 .5-2 .5-1 1-1 1-2 .5-2 .5-1 1-1 1-2 .5-2 .5-1 1-1 1-.5.5-.5.5.5.5.5.5 1-.5 1-.5.5-.5.5-.5h1 1l.5-.5.5-.5 1-.5 1-.5.5-.5.5-.5h1 1l.5-.5.5-.5 1-.5 1-.5h1 1l1-.5 1-.5 1-1.5 1-1.5" style="fill:#59747c;stroke:#59747c"/><path d="m216 651l1-2-1 .5-1 .5h-1-1l-1 .5-1 .5-.5.5-.5.5h-1-1l-.5.5-.5.5-1 .5-1 .5-.5.5-.5.5h-1-1l-.5.5-.5.5-1 .5-1 .5-.5-.5-.5-.5.5-.5.5-.5 1-1 1-1-1.5.5-1.5.5-1.5.5-1.5.5-1 .5-1 .5-.5 1-.5 1h-1-1-1-1l-.5.5-.5.5-.5 1-.5 1-.5 1-.5 1 2 2.5 2 2.5 12-4.5 12-4.5-6 3.5-6 3.5.5 2 .5 2 1.5 2.5 1.5 2.5-4.5 4.5-4.5 4.5-7.5 3.5-7.5 3.5-2.5 3.5-2.5 3.5 8-3.5 8-3.5-1 2-1 2-3.5 4.5-3.5 4.5 5-2 5-2-7.5 3.5-7.5 3.5 4.5 2.5 4.5 2.5h.5.5l6-11 6-11 3.5-7.5 3.5-7.5 4-8.5 4-8.5-1-1.5-1-1.5-1.5.5-1.5.5.5-1.5.5-1.5 1.5-1 1.5-1h1 1" style="fill:#415764;stroke:#415764"/><path d="m216 346l-8 2-1 5-1 5 5-6 5-6" style="fill:#514634;stroke:#514634"/><path d="m213 659l-24 9-2-2.5-2-2.5-.5 1-.5 1-5 11-5 11-4 4-4 4-2 8.5-2 8.5h3 3 2.5 2.5 2 2 2.5 2.5 2 2 .5.5l-4.5-2.5-4.5-2.5 7.5-3.5 7.5-3.5-5 2-5 2 3.5-4.5 3.5-4.5 1-2 1-2-8 3.5-8 3.5 2.5-3.5 2.5-3.5 7.5-3.5 7.5-3.5 4.5-4.5 4.5-4.5-1.5-2.5-1.5-2.5-.5-2-.5-2 6-3.5 6-3.5" style="fill:#59747c;stroke:#59747c"/><path d="m212 369l-6 2 .5-.5.5-.5 2.5-.5 2.5-.5" style="fill:#1f1e12;stroke:#1f1e12"/><path d="m206 594l1-3-1 1-1 1-.5 1-.5 1-.5.5-.5.5v1 1l-.5.5-.5.5-.5 1-.5 1-.5.5-.5.5-.5.5-.5.5v1 1l-.5 1-.5 1-.5.5-.5.5-.5.5-.5.5-.5.5-.5.5-.5 1.5-.5 1.5-.5 1-.5 1-.5.5-.5.5v1.5 1.5l.5-1 .5-1 1-1 1-1 .5-1 .5-1v-1-1l1-1 1-1 .5-1 .5-1 .5-.5.5-.5.5-1.5.5-1.5 1-1 1-1 .5-1 .5-1v-1-1l1-1.5 1-1.5" style="fill:#374142;stroke:#374142"/><path d="m205 396l-11-1 4.5 2.5 4.5 2.5 1-2 1-2" style="fill:#1f1e12;stroke:#1f1e12"/><path d="m187 628l1-2-7.5 13.5-7.5 13.5-4 7-4 7-3.5 7.5-3.5 7.5-4 7-4 7-3.5 8-3.5 8h1.5 1.5 2.5 2.5.5.5l2.5-7 2.5-7-3.5 2.5-3.5 2.5 3-8 3-8 4-7 4-7 4-7.5 4-7.5 4-7 4-7 3.5-8 3.5-8" style="fill:#374142;stroke:#374142"/><path d="m184 307l-9 1 3.5-.5 3.5-.5h1 1" style="fill:#393526;stroke:#393526"/><path d="m171 295h1l-2.5-7-2.5-7-4-1-4-1-2 3.5-2 3.5-5.5-1.5-5.5-1.5-3 1-3 1-5-1-5-1-5.5.5-5.5.5-5 2.5-5 2.5-5 1-5 1h-8-8l-5 3-5 3-1 6-1 6-6 2-6 2-5.5 4-5.5 4-3 5-3 5-8 1-8 1-2.5 6.5-2.5 6.5-5 1-5 1-1 2.5-1 2.5-3.5 5.5-3.5 5.5v12 12 11 11 11 11 11.5 11.5 11 11 7 7l7-8.5 7-8.5 5-6 5-6 5.5-5.5 5.5-5.5 5-6 5-6 5.5-6 5.5-6 5-6 5-6 5-6 5-6 5-6 5-6 5.5-5.5 5.5-5.5 5.5-6 5.5-6 5-6 5-6 5-6 5-6 5.5-5.5 5.5-5.5 5-6 5-6 5.5-6 5.5-6 5.5-7 5.5-7" style="fill:#baf0f6;stroke:#baf0f6"/><path d="m158 367l-16 13 3.5-5 3.5-5 1-2 1-2-1.5-1.5-1.5-1.5-5.5 2.5-5.5 2.5.5 3.5.5 3.5-5 4.5-5 4.5 1.5-4.5 1.5-4.5-4 3-4 3-3 3-3 3-3.5 5.5-3.5 5.5-1 2.5-1 2.5-2.5 4.5-2.5 4.5h-3-3l-1 6-1 6 6-6 6-6v2 2l-5 6.5-5 6.5-5 6-5 6-5 6-5 6-4.5 6.5-4.5 6.5-5 6-5 6 3.5-2 3.5-2 4.5-2.5 4.5-2.5 1-1 1-1 2-4 2-4 4-5 4-5 5-4.5 5-4.5 4-5 4-5 4.5-6.5 4.5-6.5 5.5-5.5 5.5-5.5 4-4 4-4 5-6.5 5-6.5 6-7 6-7 1-2 1-2" style="fill:#374142;stroke:#374142"/><path d="m126 504l-9 3-2.5 5.5-2.5 5.5 4.5-1 4.5-1 .5-5.5.5-5.5 2-.5 2-.5" style="fill:#393526;stroke:#393526"/><path d="m114 2l-1-2h-13-13-11-11-11-11-11-11-10.5-10.5v.5.5 11.5 11.5 11 11 11 11 11 11 11 11 3 3l5-7 5-7 1.5-6.5 1.5-6.5 5-.5 5-.5-1-5-1-5 6.5.5 6.5.5 5-1 5-1 4-5 4-5 4.5-6 4.5-6 .5.5.5.5 4-3 4-3 2-3 2-3 2.5-3.5 2.5-3.5 2.5-5.5 2.5-5.5-.5-7-.5-7 4.5-5.5 4.5-5.5 11-.5 11-.5" style="fill:#739fd1;stroke:#739fd1"/><path d="m84 434l-15-4-4.5-1-4.5-1-1 1-1 1-.5 1-.5 1 5.5 3 5.5 3-3 3-3 3 4-2 4-2 7-3 7-3" style="fill:#514634;stroke:#514634"/><path d="m61 532l-9-7 4.5 4.5 4.5 4.5v-1-1" style="fill:#1f1e12;stroke:#1f1e12"/><g style="fill:#514634;stroke:#514634"><path d="m56 447v-2-1-1l-1.5-1-1.5-1-.5-1.5-.5-1.5-1.5 1-1.5 1-.5.5-.5.5-.5-.5-.5-.5.5-.5.5-.5h-.5-.5l-.5.5-.5.5-.5.5-.5.5.5.5.5.5.5.5.5.5-1 .5-1 .5-.5.5-.5.5-.5.5-.5.5v-1-1l-.5.5-.5.5-1 .5-1 .5v1 1l.5.5.5.5-.5.5-.5.5-.5 1.5-.5 1.5 1-.5 1-.5.5-.5.5-.5 1-.5 1-.5.5-.5.5-.5v-1-1h1 1l.5.5.5.5 1 .5 1 .5.5-.5.5-.5.5-.5.5-.5.5-.5.5-.5 1.5.5 1.5.5"/><path d="m50 466v-3l-.5-1-.5-1-.5.5-.5.5-.5-.5-.5-.5v-1.5-1.5h-1-1l-1.5-.5-1.5-.5h-1.5-1.5l-.5.5-.5.5-1-.5-1-.5-1 .5-1 .5 1.5 6 1.5 6 6.5-2 6.5-2"/></g><path d="m41 319v-2l-1.5.5-1.5.5-1 1.5-1 1.5h-1-1l-1 1.5-1 1.5 1.5.5 1.5.5h1.5 1.5 1 1l.5-1.5.5-1.5v-1.5-1.5" style="fill:#baf0f6;stroke:#baf0f6"/><path d="m38 580l-6-10-.5 3.5-.5 3.5 3.5 1.5 3.5 1.5" style="fill:#1f1e12;stroke:#1f1e12"/><g style="fill:#393526;stroke:#393526"><path d="m26 599l-1-3h-2-2l-1-.5-1-.5h-1-1l.5-.5.5-.5-.5-.5-.5-.5-1-.5-1-.5v1 1l-.5.5-.5.5.5.5.5.5h1 1l.5 1 .5 1 .5.5.5.5-.5.5-.5.5v1 1l1 .5 1 .5h1 1v-1-1l.5-.5.5-.5 1.5-.5 1.5-.5"/><path d="m13 581v-2l-1.5-.5-1.5-.5-1 .5-1 .5-.5.5-.5.5-1 1-1 1-1-.5-1-.5-1.5.5-1.5.5v.5.5h2 2l1 1 1 1 1 1 1 1 1-1.5 1-1.5 1.5-1.5 1.5-1.5"/><path d="m8 622l1-3v-2-2l-.5-1-.5-1h-1-1v1 1l.5 1 .5 1-.5.5-.5.5-.5 1.5-.5 1.5 1 .5 1 .5-.5.5-.5.5h-1.5-1.5-1.5-1.5v3.5 3.5l1-1.5 1-1.5 2-.5 2-.5.5-1 .5-1 .5-1 .5-1"/></g></g></svg>