<svg xmlns="http://www.w3.org/2000/svg" viewBox="0 0 960 720"><path d="m0 0h960v720h-960z" style="fill:#312727"/><g style="stroke-linejoin:round;stroke-width:.7"><path d="m959 720h1v-24-24h-.5-.5l-.5-1-.5-1-.5 1.5-.5 1.5-18.5-16.5-18.5-16.5h-19.5-19.5l.5 8 .5 8-10 3.5-10 3.5-.5 7-.5 7-8.5-15-8.5-15-15-3.5-15-3.5-23.5-12-23.5-12 16-6.5 16-6.5 41.5-2 41.5-2 .5-.5.5-.5h-.5-.5l-36 .5-36 .5h-3-3l-2 .5-2 .5-1.5.5-1.5.5-2 .5-2 .5-.5.5-.5.5-25.5 5.5-25.5 5.5 21 8.5 21 8.5 21.5 13.5 21.5 13.5 33 28 33 28-21.5-13.5-21.5-13.5-28-21-28-21 .5 1.5.5 1.5.5.5.5.5v1 1l.5.5.5.5-.5 1-.5 1v1 1l.5.5.5.5v1.5 1.5l2 1 2 1 1 1 1 1h2.5 2.5l1.5.5 1.5.5 1 1.5 1 1.5 1 1 1 1 1.5 1 1.5 1 1.5.5 1.5.5.5 1.5.5 1.5 1 2 1 2 22.5 20 22.5 20h37 37 8.5 8.5" style="fill:#8e8588;stroke:#8e8588"/><path d="m959 672h1v-30-30h-.5-.5l-21.5-6.5-21.5-6.5-2.5-.5-2.5-.5-1.5-.5-1.5-.5-2-.5-2-.5-1.5-.5-1.5-.5-2-.5-2-.5-1.5-.5-1.5-.5-1.5.5-1.5.5-2 .5-2 .5-2 1-2 1v.5.5l-.5.5-.5.5-1.5.5-1.5.5.5 1 .5 1 .5.5.5.5h1 1l.5.5.5.5h1 1l1.5.5 1.5.5h21.5 21.5l12.5 28.5 12.5 28.5-16-13.5-16-13.5 16.5 17.5 16.5 17.5.5 1 .5 1" style="fill:#efc7b3;stroke:#efc7b3"/><path d="m959 612h1v-1.5-1.5h-.5-.5l-21.5-5-21.5-5 21.5 6.5 21.5 6.5" style="fill:#7e5149;stroke:#7e5149"/><path d="m959 609h1v-37-37-35.5-35.5-35.5-35.5-35.5-35.5-35.5-35.5-35.5-35.5-35.5-35.5-35.5-35.5-19-19h-16.5-16.5-35.5-35.5-35.5-35.5-21.5-21.5l-.5.5-.5.5-16.5 21-16.5 21-3 .5-3 .5 8.5-22 8.5-22h-1.5-1.5-2-2-2.5-2.5-2-2-2.5-2.5-2-2-2-2-2.5-2.5l-16 20.5-16 20.5-10.5 20-10.5 20-10.5 19-10.5 19 4.5 12 4.5 12 10 4.5 10 4.5-4.5 10.5-4.5 10.5.5 10 .5 10 11 12.5 11 12.5 11.5 4 11.5 4 5 3.5 5 3.5 5.5 11 5.5 11 7.5 11.5 7.5 11.5-9 17-9 17 1 1 1 1-.5 1-.5 1-.5.5-.5.5.5.5.5.5 1 1 1 1-10 13.5-10 13.5-.5 1.5-.5 1.5.5 1 .5 1h1 1l1 .5 1 .5-.5.5-.5.5-.5.5-.5.5-.5.5-.5.5h-1-1l.5 2 .5 2h1 1v1 1l-.5 1.5-.5 1.5-1.5 1-1.5 1-1 1-1 1 .5 1.5.5 1.5h1.5 1.5l1 .5 1 .5-6 12-6 12-.5.5-.5.5-5.5 9.5-5.5 9.5h-19-19l-9 29-9 29 .5-1.5.5-1.5v-1-1-1-1-1.5-1.5-1-1-1-1l.5-.5.5-.5v-1.5-1.5l.5-.5.5-.5v-1-1-1-1l.5-1 .5-1 .5-1 .5-1 .5-2 .5-2 .5-2 .5-2 .5-1 .5-1 6.5 26 6.5 26 5.5-13.5 5.5-13.5-5.5 13.5-5.5 13.5-10 29-10 29 23.5.5 23.5.5 10 2.5 10 2.5 5.5-4.5 5.5-4.5 21.5 22 21.5 22 .5 1 .5 1 35 5.5 35 5.5 2-.5 2-.5 1.5-.5 1.5-.5 2-.5 2-.5h3 3l36.5-1 36.5-1 2-1 2-1 2-.5 2-.5 1.5-.5 1.5-.5 1.5.5 1.5.5 2 .5 2 .5 1.5.5 1.5.5 2 .5 2 .5 1.5.5 1.5.5 2.5.5 2.5.5 21.5 5 21.5 5" style="fill:#312727;stroke:#312727"/><path d="m957 673l1-3-16.5-17.5-16.5-17.5-18-15-18-15-1.5-.5-1.5-.5h-1-1l-.5-.5-.5-.5h-1-1l-.5-.5-.5-.5-.5-1-.5-1 1.5-.5 1.5-.5-41.5 2-41.5 2-16 6.5-16 6.5 23.5 12 23.5 12 15 3.5 15 3.5 8.5 15 8.5 15 .5-7 .5-7 10-3.5 10-3.5-.5-8-.5-8h19.5 19.5l18.5 16.5 18.5 16.5" style="fill:#aaa5ab;stroke:#aaa5ab"/><path d="m957 662l-25-57h-21.5-21.5l18 15 18 15 16 13.5 16 13.5" style="fill:#ffe;stroke:#ffe"/><g style="fill:#7e5149;stroke:#7e5149"><path d="m892 714l-66-56-21.5-13.5-21.5-13.5v1 1l-1.5.5-1.5.5 1.5 1 1.5 1 1 1 1 1h1 1v1 1l1 .5 1 .5.5 1.5.5 1.5 1.5.5 1.5.5 28 21 28 21 21.5 13.5 21.5 13.5"/><path d="m882 598h1v-.5-.5l-36.5 1-36.5 1 36-.5 36-.5"/></g><path d="m867 720h1l-22.5-20-22.5-20 .5 1 .5 1 .5 1.5.5 1.5 1 1.5 1 1.5 1 1 1 1 .5 1.5.5 1.5v1 1l.5 1 .5 1 1 1 1 1 .5.5.5.5 1 .5 1 .5 1 1 1 1 1.5 1 1.5 1 1.5.5 1.5.5 1.5 1 1.5 1 1.5.5 1.5.5 1 1 1 1 1.5 1 1.5 1 1.5.5 1.5.5 1.5 1 1.5 1 1 1 1 1 1 1 1 1h1 1" style="fill:#aaa5ab;stroke:#aaa5ab"/><path d="m864 720h1l-1-1-1-1-1-1-1-1-1.5-1-1.5-1-1.5-.5-1.5-.5-1.5-1-1.5-1-1-1-1-1-1.5-.5-1.5-.5-1.5-1-1.5-1-1.5-.5-1.5-.5-1.5-1-1.5-1h-.5-.5l-20.5-13.5-20.5-13.5 22.5 22 22.5 22h1.5 1.5 2.5 2.5 2 2 2.5 2.5 2 2 1 1" style="fill:#ffe;stroke:#ffe"/><path d="m840 720h1l-22.5-22-22.5-22h-1-1l-2-.5-2-.5h-2-2l.5-2 .5-2v-2-2-2-2l-1-1.5-1-1.5-1.5-.5-1.5-.5-1-1.5-1-1.5 1-1 1-1v-2.5-2.5l-.5-1-.5-1-.5-1.5-.5-1.5-1-1-1-1-1-1-1-1-.5-2-.5-2-1-1-1-1-1-1-1-1h-1.5-1.5l-1-.5-1-.5-1.5-.5-1.5-.5-.5-.5-.5-.5-1-.5-1-.5-1.5-.5-1.5-.5-1-.5-1-.5h-2-2l-2.5-.5-2.5-.5 11.5 13 11.5 13h1.5 1.5l1 1 1 1 .5 1.5.5 1.5.5 1 .5 1-1.5-.5-1.5-.5-.5.5-.5.5-.5 1.5-.5 1.5v.5.5l.5 1.5.5 1.5.5 1.5.5 1.5-.5 1.5-.5 1.5h-1-1l32.5 24.5 32.5 24.5h1.5 1.5 1 1" style="fill:#8e8588;stroke:#8e8588"/><path d="m837 703h1l-1-1-1-1-1-.5-1-.5-.5-.5-.5-.5-1-1-1-1-.5-1-.5-1v-1-1l-.5-1.5-.5-1.5-1-1-1-1-1-1.5-1-1.5-.5-1.5-.5-1.5-.5-1-.5-1-1-2-1-2-.5-1.5-.5-1.5-1.5-.5-1.5-.5-1.5-1-1.5-1-1-1-1-1-1-1.5-1-1.5-1.5-.5-1.5-.5h-2.5-2.5l-1-1-1-1-2-1-2-1-.5 1-.5 1-.5 1.5-.5 1.5v2 2l-.5 2-.5 2 .5 1.5.5 1.5h1 1l20.5 13.5 20.5 13.5" style="fill:#efc7b3;stroke:#efc7b3"/><path d="m835 673l-40-33 14 12.5 14 12.5 6 4 6 4" style="fill:#312727;stroke:#312727"/><path d="m834 720h1l-32.5-24.5-32.5-24.5-1-.5-1-.5-.5-1.5-.5-1.5-1-1-1-1v-2-2l-.5.5-.5.5 2.5 16.5 2.5 16.5-1-.5-1-.5h-1.5-1.5l-1-1-1-1h-1-1l-1-.5-1-.5h-.5-.5l-2-.5-2-.5-1-1-1-1h-1-1l-.5-.5-.5-.5-.5-.5-.5-.5-1-.5-1-.5-.5-1.5-.5-1.5.5-.5.5-.5 1-.5 1-.5 1.5.5 1.5.5h1 1l1 .5 1 .5v2 2l.5.5.5.5 1.5.5 1.5.5 1-.5 1-.5h1 1 1 1 1.5 1.5l1-2 1-2h1.5 1.5l1.5-.5 1.5-.5 2 .5 2 .5 1 .5 1 .5h2.5 2.5l.5.5.5.5 1 .5 1 .5 1.5.5 1.5.5 1 .5 1 .5 2 .5 2 .5 2 .5 2 .5 1 1 1 1 1.5 1 1.5 1 1 1 1 1 .5 1 .5 1 2 1 2 1 1 1 1 1 1.5 1 1.5 1 .5 1.5.5 1.5 1 1.5 1 1.5 1 1 1 1 1 1.5 1 1.5 1 1 1 1v1.5 1.5h3 3" style="fill:#7e5149;stroke:#7e5149"/><path d="m827 720h1v-1.5-1.5l-1-1-1-1-1-1.5-1-1.5-1-1-1-1-1-1.5-1-1.5-.5-1.5-.5-1.5-1.5-1-1.5-1-1-1-1-1-2-1-2-1h-.5-.5l-.5 1.5-.5 1.5-.5.5-.5.5-1 .5-1 .5-.5-.5-.5-.5-.5-.5-.5-.5v-1-1l-.5-.5-.5-.5.5-1 .5-1-.5.5-.5.5h-1-1l-.5.5-.5.5-1 .5-1 .5-1 1-1 1v.5.5l12 3.5 12 3.5.5 1.5.5 1.5 1 1 1 1 .5.5.5.5.5 1 .5 1 .5 1.5.5 1.5h1 1" style="fill:#e09f8b;stroke:#e09f8b"/><path d="m824 720h1l-.5-1.5-.5-1.5-.5-1-.5-1-.5-.5-.5-.5-1-1-1-1-.5-1.5-.5-1.5h-.5-.5l-.5-1-.5-1-.5-1-.5-1-1.5-1-1.5-1-1 1-1 1 .5 1.5.5 1.5.5 2 .5 2 .5 1.5.5 1.5 1 1.5 1 1.5.5 1 .5 1h3.5 3.5" style="fill:#ffe;stroke:#ffe"/><path d="m818 709h1l-12-3.5-12-3.5v1.5 1.5 2.5 2.5l1 1 1 1 .5 2 .5 2 .5 1.5.5 1.5 1 .5 1 .5h3 3 2 2 2.5 2.5.5.5l-.5-1-.5-1-1-1.5-1-1.5-.5-1.5-.5-1.5-.5-2-.5-2-.5-1.5-.5-1.5 1-1 1-1 1.5 1 1.5 1 .5 1 .5 1 .5 1 .5 1" style="fill:#efc7b3;stroke:#efc7b3"/><path d="m809 698h1l-.5-1-.5-1-1-1-1-1-1.5-1-1.5-1-1-1-1-1-2-.5-2-.5-2-.5-2-.5-1 .5-1 .5-1 1.5-1 1.5-.5 1.5-.5 1.5.5 2 .5 2 .5 1.5.5 1.5.5.5.5.5 1.5-1 1.5-1 1-1 1-1 1-.5 1-.5.5-.5.5-.5h1 1l.5-.5.5-.5-.5 1-.5 1 .5.5.5.5v1 1l.5.5.5.5.5.5.5.5 1-.5 1-.5.5-.5.5-.5.5-1.5.5-1.5" style="fill:#df484d;stroke:#df484d"/><path d="m800 720h1l-1-.5-1-.5-.5-1.5-.5-1.5-.5-2-.5-2-1-1-1-1v-2.5-2.5-1.5-1.5-.5-.5l-1.5 1-1.5 1-.5-.5-.5-.5-.5-1.5-.5-1.5-.5 1.5-.5 1.5v1.5 1.5 2 2 1 1l1 .5 1 .5.5 1.5.5 1.5.5.5.5.5.5 1 .5 1 1 1 1 1h2 2" style="fill:#8e8588;stroke:#8e8588"/><path d="m800 687l1-3-1.5-.5-1.5-.5h-1.5-1.5l-1.5-.5-1.5-.5-1.5-1-1.5-1-1.5-.5-1.5-.5-2-.5-2-.5-1.5-.5-1.5-.5.5 1.5.5 1.5h-1.5-1.5l1.5.5 1.5.5 2 .5 2 .5 1.5.5 1.5.5 2 .5 2 .5 1.5.5 1.5.5 2 .5 2 .5 1 .5 1 .5" style="fill:#672326;stroke:#672326"/><g style="fill:#e09f8b;stroke:#e09f8b"><path d="m795 720h1l-1-1-1-1-.5-1-.5-1-.5-.5-.5-.5-.5-1.5-.5-1.5-1-.5-1-.5v-1-1-2-2-1.5-1.5l.5-1.5.5-1.5-.5-2-.5-2 .5-1.5.5-1.5 1-1.5 1-1.5 1-.5 1-.5-1-.5-1-.5-1.5-.5-1.5-.5-1-.5-1-.5-.5-.5-.5-.5h-2.5-2.5-.5-.5-2-2-1-1-1-1-1-1l-1 .5-1 .5 1 1 1 1h1 1 1 1l.5.5.5.5 1 .5 1 .5v1 1 1 1l-.5 1-.5 1v1.5 1.5h1 1l.5-1.5.5-1.5v-1-1l.5-1 .5-1h2 2l.5 2 .5 2 1 1 1 1v1 1 3 3l-1 1-1 1-1 1.5-1 1.5h-2-2-1.5-1.5v-1-1l-1-1-1-1-5.5 7-5.5 7h3 3 2 2 2.5 2.5 2 2 2.5 2.5 2 2 2 2"/><path d="m795 662l1-2v-1.5-1.5l-.5-.5-.5-.5v-1-1l.5-1 .5-1-.5-.5-.5-.5v-1-1l-.5-.5-.5-.5-.5-1.5-.5-1.5-1.5-.5-1.5-.5h-.5-.5l-.5-1-.5-1-1.5.5-1.5.5v2 2l-1.5 1-1.5 1v2.5 2.5l-1 1-1 1 1 1.5 1 1.5 1.5.5 1.5.5 1 1.5 1 1.5v2 2 2 2l-.5 2-.5 2h2 2l2 .5 2 .5-.5-1.5-.5-1.5.5-2 .5-2v-2-2l.5-1.5.5-1.5"/></g><path d="m792 603l1-1-35-5.5-35-5.5-.5 1-.5 1-2 .5-2 .5 2 .5 2 .5 9.5 9.5 9.5 9.5 25.5-5.5 25.5-5.5" style="fill:#7e5149;stroke:#7e5149"/><path d="m789 644h1l-.5-1.5-.5-1.5-1-.5-1-.5v-1-1h-1-1l-1-1-1-1-1.5-1-1.5-1 1.5-.5 1.5-.5v-1-1l-21-8.5-21-8.5-9.5-9.5-9.5-9.5-.5.5-.5.5-15-6.5-15-6.5-1-.5-1-.5-.5-.5-.5-.5h-1-1l-.5-.5-.5-.5-1-.5-1-.5-1-.5-1-.5-1-1-1-1-.5-.5-.5-.5v-1-1-1-1-1.5-1.5l-.5-.5-.5-.5h-1-1l-.5-.5-.5-.5h-1.5-1.5-2-2-1.5-1.5l-1 .5-1 .5-2-.5-2-.5-1-1-1-1-2-.5-2-.5-1-1-1-1-2-.5-2-.5-1.5-.5-1.5-.5-2-1-2-1h-16-16l23 9.5 23 9.5.5 1 .5 1 1 .5 1 .5.5.5.5.5.5 1 .5 1 .5 1.5.5 1.5 2 .5 2 .5h1 1l.5.5.5.5.5.5.5.5.5.5.5.5v-1.5-1.5-1-1l-.5-.5-.5-.5.5-.5.5-.5.5.5.5.5h1.5 1.5l.5.5.5.5.5.5.5.5h1 1l1 1 1 1 4 9 4 9h-1.5-1.5-1-1l.5-1 .5-1v-1-1l.5-.5.5-.5.5-.5.5-.5.5-.5.5-.5-1-.5-1-.5v-1-1l-.5-.5-.5-.5-.5-.5-.5-.5h-.5-.5l.5 1.5.5 1.5v1 1l-.5 1.5-.5 1.5-1-.5-1-.5-.5-.5-.5-.5-.5-.5-.5-.5-1-.5-1-.5h-1-1l-.5.5-.5.5-.5-.5-.5-.5-1-.5-1-.5-.5-.5-.5-.5v-1-1h-1-1l-.5.5-.5.5h-1.5-1.5l-.5-.5-.5-.5-.5-.5-.5-.5v-1-1-1-1-1.5-1.5h-.5-.5l-10.5-4.5-10.5-4.5-.5-1.5-.5-1.5-1-.5-1-.5-1-.5-1-.5-1.5.5-1.5.5-1.5-.5-1.5-.5-.5 1.5-.5 1.5-.5 1.5-.5 1.5-.5 1-.5 1 27.5 25 27.5 25 1 2 1 2-.5 1.5-.5 1.5-7 12.5-7 12.5 19.5 10.5 19.5 10.5.5-1 .5-1h1.5 1.5 1.5 1.5l-.5-1.5-.5-1.5h1 1l.5-.5.5-.5.5-.5.5-.5.5-1 .5-1-1.5.5-1.5.5h-1-1l-1-.5-1-.5-.5-1.5-.5-1.5-.5-.5-.5-.5v-1.5-1.5l-.5-1.5-.5-1.5h1.5 1.5l.5-1 .5-1 .5-1 .5-1 .5-1 .5-1v-1.5-1.5l1-.5 1-.5 1-1 1-1h-1.5-1.5l-2.5.5-2.5.5v1.5 1.5l-8.5-13-8.5-13v-1.5-1.5l9.5-1 9.5-1h3.5 3.5l-1.5-.5-1.5-.5-1 1-1 1-1-.5-1-.5-.5 1.5-.5 1.5.5 1 .5 1 1.5.5 1.5.5 1.5.5 1.5.5 1.5 1 1.5 1 1.5.5 1.5.5 1.5.5 1.5.5-.5-2.5-.5-2.5v-2-2l-1-1.5-1-1.5 1-.5 1-.5-1-2-1-2h2 2l2 .5 2 .5 1 1 1 1 1.5 1 1.5 1 1.5-.5 1.5-.5 1.5.5 1.5.5 2 .5 2 .5 1 .5 1 .5 2.5.5 2.5.5h2 2l.5-1 .5-1h2 2l1.5.5 1.5.5 2 .5 2 .5 1.5.5 1.5.5 1.5 1 1.5 1-.5 1.5-.5 1.5h-.5-.5l1 1 1 1 1 1 1 1 .5 2 .5 2 1 1 1 1 1 1 1 1 .5 1.5.5 1.5.5 1 .5 1 1.5-1 1.5-1v-2-2l1.5-.5 1.5-.5.5 1 .5 1" style="fill:#df484d;stroke:#df484d"/><path d="m787 699v-2l-1-1-1-1-.5-2-.5-2h-2-2l-.5 1-.5 1v1 1l-.5 1.5-.5 1.5h-1-1v1.5 1.5l-.5 1.5-.5 1.5-.5 1-.5 1 1 1 1 1v1 1h1.5 1.5 2 2l1-1.5 1-1.5 1-1 1-1v-3-3" style="fill:#efc7b3;stroke:#efc7b3"/><path d="m785 666l1-3-1-1-1-1h-1.5-1.5l-1.5.5-1.5.5v2.5 2.5l.5 1.5.5 1.5 1.5 1 1.5 1 1-1 1-1 .5-1.5.5-1.5v-.5-.5" style="fill:#ffe;stroke:#ffe"/><path d="m780 684h1l-1-.5-1-.5-2-.5-2-.5-1.5.5-1.5.5h-1.5-1.5l-1 2-1 2 1 1 1 1 1 .5 1 .5.5-.5.5-.5.5.5.5.5h1 1v1 1l-1 .5-1 .5-1.5 1-1.5 1 .5 1 .5 1h2 2l.5-1 .5-1 .5-1 .5-1v-1-1-1-1l-1-.5-1-.5-.5-.5-.5-.5h-1-1-1-1l-1-1-1-1 1-.5 1-.5h1 1 1 1 1 1 2 2" style="fill:#df484d;stroke:#df484d"/><path d="m780 680l-1-3-9 1.5-9 1.5h8 8 1.5 1.5" style="fill:#312727;stroke:#312727"/><path d="m776 658l-1-2-.5-1.5-.5-1.5-1-1-1-1h-1.5-1.5-.5-.5-1-1l-1-1-1-1-2-.5-2-.5-1-.5-1-.5.5 2.5.5 2.5.5 2 .5 2v1 1l1.5 2 1.5 2h.5.5l.5-.5.5-.5v-2-2l-.5-.5-.5-.5v-1-1l.5-.5.5-.5 1 .5 1 .5v1 1l-.5.5-.5.5.5.5.5.5h1 1l1 1.5 1 1.5.5-1.5.5-1.5.5-.5.5-.5 1.5.5 1.5.5" style="fill:#df484d;stroke:#df484d"/><path d="m775 704l1-3v-1.5-1.5-1.5-1.5l-.5 1-.5 1h-2-2l-.5-1-.5-1h-.5-.5l-2.5-16.5-2.5-16.5h-.5-.5l-.5.5-.5.5-.5 2.5-.5 2.5-.5 1.5-.5 1.5h-.5-.5l-6-5-6-5 1.5-.5 1.5-.5v-.5-.5h-.5-.5-19.5-19.5l-.5 1-.5 1-.5 1-.5 1 1.5 1.5 1.5 1.5 1 1 1 1 1.5 1 1.5 1 1.5.5 1.5.5 1.5 1 1.5 1 1.5.5 1.5.5 2 .5 2 .5 1.5.5 1.5.5-.5 1.5-.5 1.5h-1.5-1.5l.5 1.5.5 1.5h-1-1-1.5-1.5l-1.5-.5-1.5-.5h-1-1-1.5-1.5l-2.5-.5-2.5-.5h-1.5-1.5-1.5-1.5l-.5 1-.5 1v2.5 2.5l.5 1 .5 1 .5 1 .5 1v1.5 1.5h1 1l.5.5.5.5v1 1 .5.5l-.5.5-.5.5-.5.5-.5.5.5.5.5.5 1 .5 1 .5h1 1l.5-.5.5-.5.5.5.5.5 1 .5 1 .5 1 .5 1 .5.5 2.5.5 2.5 1.5.5 1.5.5-.5-1-.5-1 1-1 1-1h2 2l-1-1-1-1-.5-1-.5-1h-1-1l-.5-.5-.5-.5-.5-.5-.5-.5-.5-1-.5-1-.5-.5-.5-.5-.5-.5-.5-.5-.5-.5-.5-.5-.5-.5-.5-.5-1-1-1-1 13.5-2 13.5-2 9 16 9 16h2.5 2.5l5.5-7 5.5-7 .5-1 .5-1" style="fill:#8e8588;stroke:#8e8588"/><path d="m775 692v-2h-1-1l-.5-.5-.5-.5-.5.5-.5.5-1-.5-1-.5-1-1-1-1h-1.5-1.5-1-1-1-1l-1 .5-1 .5v1.5 1.5l1 .5 1 .5h1 1l1 1 1 1h1.5 1.5l1 .5 1 .5h.5.5l1.5-1 1.5-1 1-.5 1-.5" style="fill:#a63136;stroke:#a63136"/><path d="m772 671l1-3-.5-1.5-.5-1.5-.5-1.5-.5-1.5v-.5-.5l-1-1.5-1-1.5h-1-1l-.5-.5-.5-.5.5-.5.5-.5v-1-1l-1-.5-1-.5-.5.5-.5.5v1 1l.5.5.5.5v2 2 2 2l1 1 1 1 .5 1.5.5 1.5 1 .5 1 .5h1 1" style="fill:#e09f8b;stroke:#e09f8b"/><path d="m772 632l1-3-1.5-1-1.5-1-1.5-.5-1.5-.5-2-.5-2-.5-1.5-.5-1.5-.5h-2-2l-.5 1-.5 1 1 .5 1 .5 1.5.5 1.5.5 1 .5 1 .5.5.5.5.5 1.5.5 1.5.5 1 .5 1 .5h1.5 1.5.5.5" style="fill:#a63136;stroke:#a63136"/><path d="m768 651h1l-11.5-13-11.5-13-1-.5-1-.5-2-.5-2-.5-1.5-.5-1.5-.5-1.5.5-1.5.5-1.5-1-1.5-1-1-1-1-1-2-.5-2-.5h-2-2l1 2 1 2 17.5 12.5 17.5 12.5 1 .5 1 .5 2 .5 2 .5 1 1 1 1h1 1" style="fill:#7e5149;stroke:#7e5149"/><path d="m762 663l1-1-1.5-2-1.5-2v-1-1l-.5-2-.5-2-.5-2.5-.5-2.5-17.5-12.5-17.5-12.5-1 .5-1 .5 1 1.5 1 1.5v2 2l.5 2.5.5 2.5 16.5 12 16.5 12-2 .5-2 .5h-1.5-1.5l-1.5.5-1.5.5 2 1.5 2 1.5.5 1.5.5 1.5h2.5 2.5l1.5.5 1.5.5v1.5 1.5l.5-1.5.5-1.5.5-2.5.5-2.5" style="fill:#e09f8b;stroke:#e09f8b"/><g style="fill:#efc7b3;stroke:#efc7b3"><path d="m759 671h1v-1.5-1.5l-1.5-.5-1.5-.5h-2.5-2.5l-.5-1.5-.5-1.5-2-1.5-2-1.5 6 5 6 5"/><path d="m757 720h1l-9-16-9-16 .5 1.5.5 1.5 1 1 1 1 1 1.5 1 1.5 1 1 1 1 1 1.5 1 1.5 1 1 1 1v1 1l-19-6.5-19-6.5 1 1 1 1 .5.5.5.5.5.5.5.5.5.5.5.5.5.5.5.5.5 1 .5 1 .5.5.5.5.5.5.5.5h1 1l.5 1 .5 1 1 1 1 1 1.5 1 1.5 1 1 1 1 1 1.5 1 1.5 1 1 1 1 1 1.5.5 1.5.5 1 1.5 1 1.5.5 1 .5 1h3 3 2 2 2 2"/></g><path d="m757 691h1v-1.5-1.5l-1.5-.5-1.5-.5-.5-.5-.5-.5v-2-2l-1-.5-1-.5h-1-1l-1.5-.5-1.5-.5-1 .5-1 .5-.5.5-.5.5.5 1.5.5 1.5 1 .5 1 .5.5.5.5.5.5.5.5.5h1 1l1 1 1 1 2 .5 2 .5" style="fill:#8e8588;stroke:#8e8588"/><path d="m757 659l-33-24 13 12 13 12v.5.5h1.5 1.5l2-.5 2-.5" style="fill:#df484d;stroke:#df484d"/><path d="m751 705v-2l-1-1-1-1-1-1.5-1-1.5-1-1-1-1-1-1.5-1-1.5-1-1-1-1-.5-1.5-.5-1.5-13.5 2-13.5 2 19 6.5 19 6.5" style="fill:#ffe;stroke:#ffe"/><path d="m750 659l-26-24-1.5-.5-1.5-.5-1.5-.5-1.5-.5-1.5-1-1.5-1-1.5-.5-1.5-.5-1.5-.5-1.5-.5-.5-1-.5-1 .5-1.5.5-1.5-9.5 1-9.5 1 1-.5 1-.5.5-.5.5-.5 1 .5 1 .5 1.5-.5 1.5-.5h2.5 2.5l1.5.5 1.5.5-.5 2-.5 2 .5 1 .5 1 18.5 11.5 18.5 11.5 1 .5 1 .5.5.5.5.5 1 .5 1 .5 1 1 1 1" style="fill:#a63136;stroke:#a63136"/><path d="m749 659h1l-1-1-1-1-1-.5-1-.5-.5-.5-.5-.5-1-.5-1-.5v1.5 1.5l-18.5-13-18.5-13-.5-1-.5-1 .5-2 .5-2-1.5-.5-1.5-.5h-2.5-2.5l-1.5.5-1.5.5-1-.5-1-.5-.5.5-.5.5-1 .5-1 .5v1.5 1.5h.5.5 2.5 2.5l1.5-.5 1.5-.5 1 .5 1 .5 1 1.5 1 1.5-.5 2-.5 2v2 2 2.5 2.5 2 2l1 1.5 1 1.5h1.5 1.5l2.5-.5 2.5-.5h1.5 1.5l.5 1.5.5 1.5.5.5.5.5 2 .5 2 .5 1 1 1 1 .5 1 .5 1-1.5.5-1.5.5-.5.5-.5.5h-1.5-1.5l-1-1-1-1-.5-.5-.5-.5-.5-1-.5-1h-1-1l-.5 1-.5 1h19.5 19.5" style="fill:#7e5149;stroke:#7e5149"/><path d="m743 657v-3l-18.5-11.5-18.5-11.5 18.5 13 18.5 13" style="fill:#672326;stroke:#672326"/><path d="m742 720h1l-.5-1-.5-1-1-1.5-1-1.5-1.5-.5-1.5-.5-1-1-1-1-1.5-1-1.5-1-1-1-1-1-1.5-1-1.5-1h-2-2l-1 1-1 1 .5 1 .5 1 1.5 1.5 1.5 1.5 1.5.5 1.5.5 1 1.5 1 1.5 1.5.5 1.5.5.5 1 .5 1h3.5 3.5.5.5" style="fill:#e09f8b;stroke:#e09f8b"/><path d="m741 1l1-1h-3-3-2.5-2.5-2-2-2.5-2.5-1.5-1.5l-8.5 22-8.5 22 3-.5 3-.5 16.5-21 16.5-21" style="fill:#7e5149;stroke:#7e5149"/><path d="m733 720h1l-.5-1-.5-1-1.5-.5-1.5-.5-1-1.5-1-1.5-1.5-.5-1.5-.5-1.5-1.5-1.5-1.5-1.5-.5-1.5-.5-.5.5-.5.5-1 .5-1 .5-.5 1-.5 1 .5.5.5.5v1 1 1 1l-.5 1-.5 1h2 2 2.5 2.5 2 2 2.5 2.5" style="fill:#df484d;stroke:#df484d"/><path d="m731 679l1-3-1.5-.5-1.5-.5-2-.5-2-.5-1.5-.5-1.5-.5-1.5-1-1.5-1-1.5-.5-1.5-.5-1.5-1-1.5-1-1-1-1-1-1.5-1.5-1.5-1.5h-1.5-1.5l.5 1.5.5 1.5v1.5 1.5l.5.5.5.5.5 1.5.5 1.5 1 .5 1 .5h1 1l1.5-.5 1.5-.5-.5 1-.5 1-.5.5-.5.5-.5.5-.5.5h-1-1l.5 1.5.5 1.5 2.5.5 2.5.5h1.5 1.5 1 1l1.5.5 1.5.5h1.5 1.5 1 1l-.5-1.5-.5-1.5h1.5 1.5" style="fill:#7e5149;stroke:#7e5149"/><g style="fill:#672326;stroke:#672326"><path d="m724 660l-1-2-1-1-1-1-2-.5-2-.5-.5-.5-.5-.5-.5-1.5-.5-1.5-1 1-1 1-1 .5-1 .5v1.5 1.5h1 1l.5 1 .5 1 .5.5.5.5 1 1 1 1h1.5 1.5l.5-.5.5-.5 1.5-.5 1.5-.5"/><path d="m722 593l1-2-.5-1-.5-1h-.5-.5-1-1-1-1l-1-.5-1-.5-.5-1-.5-1h-1.5-1.5-2-2l-1 1.5-1 1.5-.5.5-.5.5 1.5-.5 1.5-.5 2 .5 2 .5 1 1 1 1 2.5 1 2.5 1 2-.5 2-.5"/></g><path d="m721 596l1-1-2-.5-2-.5-2.5-1-2.5-1-1-1-1-1-2-.5-2-.5-1.5.5-1.5.5.5-.5.5-.5 1-1.5 1-1.5h2 2 1.5 1.5l-6.5-13.5-6.5-13.5v2 2h-1.5-1.5l-.5-1-.5-1-.5-.5-.5-.5-1-.5-1-.5-1-1-1-1-1.5-1-1.5-1-1-1-1-1-1.5-1.5-1.5-1.5.5 1.5.5 1.5 10 15.5 10 15.5-1.5 1-1.5 1-1 .5-1 .5-1.5-.5-1.5-.5-2-.5-2-.5-1-1-1-1 15 6.5 15 6.5" style="fill:#a63136;stroke:#a63136"/><g style="fill:#7e5149;stroke:#7e5149"><path d="m721 589h1l-21.5-22-21.5-22-1 1-1 1 1 1.5 1 1.5 1.5.5 1.5.5 1.5 1 1.5 1-.5-1.5-.5-1.5-.5-1-.5-1h1 1l.5.5.5.5h1 1l1 .5 1 .5.5.5.5.5.5.5.5.5h1 1l.5 1 .5 1 .5.5.5.5.5.5.5.5.5.5.5.5 1.5 1 1.5 1 6.5 13.5 6.5 13.5.5 1 .5 1 1 .5 1 .5h1 1 1 1"/><path d="m718 710l1-1-.5-2.5-.5-2.5-1-.5-1-.5h-.5-.5l-.5 1-.5 1h-1-1v1.5 1.5l-.5 1.5-.5 1.5v1.5 1.5l-.5 1.5-.5 1.5-.5-1.5-.5-1.5h-1-1-.5-.5l.5 1.5.5 1.5.5.5.5.5.5 1 .5 1h2 2 1 1l.5-1 .5-1v-1-1-1-1l-.5-.5-.5-.5.5-1 .5-1 1-.5 1-.5"/></g><path d="m716 624h-7l1 .5 1 .5 1-1 1-1 1.5.5 1.5.5" style="fill:#a63136;stroke:#a63136"/><path d="m715 703h1l-1-.5-1-.5-.5-.5-.5-.5-.5.5-.5.5h-1-1l-1-.5-1-.5-.5-.5-.5-.5.5-.5.5-.5.5-.5.5-.5v-.5-.5-1-1l-.5-.5-.5-.5h-1-1v-1.5-1.5l-.5-1-.5-1-1 1.5-1 1.5v1 1l.5 1 .5 1 .5 1 .5 1-10-11-10-11 5 22 5 22h2 2 2 2 2.5 2.5.5.5l-.5-1-.5-1-.5-.5-.5-.5-.5-1.5-.5-1.5h.5.5 1 1l.5 1.5.5 1.5.5-1.5.5-1.5v-1.5-1.5l.5-1.5.5-1.5v-1.5-1.5h1 1l.5-1 .5-1" style="fill:#df484d;stroke:#df484d"/><path d="m713 278l-15-23-5.5-11-5.5-11-5-3.5-5-3.5-11.5-4-11.5-4-11-12.5-11-12.5-.5-10-.5-10 4.5-10.5 4.5-10.5-10-4.5-10-4.5-4.5-12-4.5-12 10.5-19 10.5-19 10.5-20 10.5-20 16-20.5 16-20.5h-2-2-2-2-2.5-2.5-2-2-2.5-2.5-2-2-2.5-2.5-2-2-1.5-1.5l-11.5 14.5-11.5 14.5-14 18.5-14 18.5 6 1.5 6 1.5 1.5 14 1.5 14-3.5 16-3.5 16 6 15.5 6 15.5-3 7.5-3 7.5 4.5 16 4.5 16 12 8.5 12 8.5 7.5 4 7.5 4 16 20 16 20-7 11-7 11-9.5-3-9.5-3-14.5-10-14.5-10-19-14.5-19-14.5-2-15.5-2-15.5-2-17.5-2-17.5-10.5-4-10.5-4-9-11.5-9-11.5 5.5 9 5.5 9-4 28.5-4 28.5v.5.5l.5 1.5.5 1.5.5 2 .5 2v2 2 2.5 2.5 2 2l-.5 2-.5 2-4 22.5-4 22.5v1.5 1.5l.5 1 .5 1 .5 2 .5 2 .5 1.5.5 1.5 1 1.5 1 1.5 1 1 1 1 1 1.5 1 1.5.5 1.5.5 1.5-.5 2-.5 2-.5 1.5-.5 1.5-.5 1.5-.5 1.5-.5.5-.5.5-1 .5-1 .5-1 1-1 1-.5.5-.5.5-.5 1.5-.5 1.5.5 1 .5 1v1 1l.5.5.5.5.5 1 .5 1v1 1l.5.5.5.5.5.5.5.5v1.5 1.5 1 1 1 1l-.5.5-.5.5-.5 1-.5 1-.5.5-.5.5-.5.5-.5.5-.5.5-.5.5-.5.5-.5.5-.5 1-.5 1-.5.5-.5.5-.5.5-.5.5-.5 1.5-.5 1.5 1.5 1 1.5 1h2 2l2 .5 2 .5 1 1 1 1 1 1.5 1 1.5 1 1 1 1-.5 1.5-.5 1.5-1.5-1-1.5-1h-1-1l-.5.5-.5.5-.5.5-.5.5.5 1 .5 1 .5.5.5.5 1 .5 1 .5 1.5.5 1.5.5.5 1.5.5 1.5-.5.5-.5.5-.5 1-.5 1 1.5.5 1.5.5h1 1 1 1v1 1l-.5 1.5-.5 1.5-16.5 11.5-16.5 11.5-1 2-1 2v2 2l.5.5.5.5-.5 1.5-.5 1.5-.5 1-.5 1v1.5 1.5 2.5 2.5l-.5 1.5-.5 1.5h1.5 1.5 1 1 1.5 1.5 1 1 1 1 1 1l.5-.5.5-.5 1-.5 1-.5h1 1 1 1 1 1l1 .5 1 .5.5.5.5.5 1 1 1 1 1 2 1 2-.5 1-.5 1 6 1.5 6 1.5 6.5 9.5 6.5 9.5 10.5-14 10.5-14 5.5-7 5.5-7-6.5 15.5-6.5 15.5-.5 1-.5 1v1.5 1.5 2 2 2.5 2.5 2 2l.5 2 .5 2v2 2 2 2 1 1 1.5 1.5l.5 1 .5 1-.5 1-.5 1-1 2.5-1 2.5 1-.5 1-.5.5-1 .5-1 1-1.5 1-1.5.5-1.5.5-1.5.5-2 .5-2 .5-1.5.5-1.5 1.5-1 1.5-1 1 1 1 1-.5 1.5-.5 1.5-16 25.5-16 25.5 1.5-1 1.5-1 .5-.5.5-.5.5-.5.5-.5v-1-1l.5-.5.5-.5v-1.5-1.5l.5-.5.5-.5.5-.5.5-.5h1 1l.5 1 .5 1 .5.5.5.5v1 1 1 1l.5 1 .5 1 .5.5.5.5v1 1 1 1 1.5 1.5 2 2l1 .5 1 .5 2 .5 2 .5 1 1 1 1 2 .5 2 .5 1.5.5 1.5.5 1.5 1 1.5 1 1.5.5 1.5.5 1.5.5 1.5.5v-.5-.5h16 16l1-1 1-1-20-3.5-20-3.5 10-29 10-29-6.5-26-6.5-26 4 22 4 22h-2-2l-1.5-.5-1.5-.5-1.5-.5-1.5-.5-1.5-.5-1.5-.5-1.5-2-1.5-2 9-29 9-29h19 19v-9.5-9.5l6-.5 6-.5 6-12 6-12-1-6.5-1-6.5-.5-2-.5-2h1 1l.5-.5.5-.5.5-.5.5-.5.5-.5.5-.5-1-.5-1-.5h-1-1-.5-.5l.5-2.5.5-2.5 10-13.5 10-13.5-.5.5-.5.5h-2-2l-1.5-1-1.5-1-1.5.5-1.5.5-.5-1.5-.5-1.5 1-1.5 1-1.5 1.5-.5 1.5-.5 2-.5 2-.5 9-17 9-17" style="fill:#7e5149;stroke:#7e5149"/><path d="m707 655v-3h-1.5-1.5l-1-1.5-1-1.5v-2-2-2.5-2.5-2-2l.5-2 .5-2-1-1.5-1-1.5-.5 1-.5 1v1 1 1 1 1.5 1.5l-.5 1-.5 1-.5.5-.5.5-.5.5-.5.5-.5-.5-.5-.5-1-.5-1-.5-.5-.5-.5-.5-.5-.5-.5-.5-.5-.5-.5-.5-.5-1-.5-1 .5-1.5.5-1.5.5-.5.5-.5-.5-1-.5-1h-.5-.5l8.5 13 8.5 13" style="fill:#e09f8b;stroke:#e09f8b"/><path d="m705 698l-1-2-.5-1-.5-1v-1-1l1-1.5 1-1.5-.5-1-.5-1v-2.5-2.5l-19.5-10.5-19.5-10.5-.5.5-.5.5-1 24.5-1 24.5v1.5 1.5 1.5 1.5l.5.5.5.5.5.5.5.5 1 .5 1 .5h2 2 2 2 2 2 2.5 2.5 2 2 2.5 2.5 1.5 1.5l-5-22-5-22 10 11 10 11" style="fill:#a63136;stroke:#a63136"/><path d="m705 584l-20-31-1.5-1-1.5-1-1.5-.5-1.5-.5-1-1.5-1-1.5 1-1 1-1-5.5 4.5-5.5 4.5-10-2.5-10-2.5-23.5-.5-23.5-.5 20 3.5 20 3.5h1.5 1.5 2.5 2.5 2 2l2 .5 2 .5h2 2l1 1 1 1h2.5 2.5l1.5.5 1.5.5.5 1 .5 1h-1-1-2.5-2.5l-1 1-1 1 .5 1.5.5 1.5h1.5 1.5 2 2 1.5 1.5l.5.5.5.5h1 1l.5.5.5.5v1.5 1.5 1 1 1 1l.5.5.5.5 1 1 1 1-.5-1.5-.5-1.5v-2.5-2.5l-.5-1.5-.5-1.5 1.5.5 1.5.5 1.5 1 1.5 1 1.5.5 1.5.5 1 1.5 1 1.5 1 1 1 1 1.5 1 1.5 1 1 1 1 1v1 1l-1.5.5-1.5.5-.5-.5-.5-.5-.5-.5-.5-.5h-1-1l-1-.5-1-.5-.5-.5-.5-.5-.5-.5-.5-.5h-1-1-1.5-1.5l1 .5 1 .5 1 .5 1 .5.5.5.5.5h1 1l.5.5.5.5 1 .5 1 .5 1 1 1 1 2 .5 2 .5 1.5.5 1.5.5 1-.5 1-.5 1.5-1 1.5-1" style="fill:#672326;stroke:#672326"/><path d="m701 563v-4l-1.5-1-1.5-1-.5-.5-.5-.5-.5-.5-.5-.5-.5-.5-.5-.5-.5-1-.5-1h-1-1l-.5-.5-.5-.5-.5-.5-.5-.5-1-.5-1-.5h-1-1l-.5-.5-.5-.5h-1-1l.5 1 .5 1 1.5 1.5 1.5 1.5 1 1 1 1 1.5 1 1.5 1 1 1 1 1 1 .5 1 .5.5.5.5.5.5 1 .5 1h1.5 1.5" style="fill:#df484d;stroke:#df484d"/><path d="m700 635v-2-1-1l.5-1 .5-1-1-.5-1-.5-1.5.5-1.5.5h-2.5-2.5l.5 1 .5 1-.5.5-.5.5-.5 1.5-.5 1.5.5 1 .5 1 .5.5.5.5.5.5.5.5.5.5.5.5 1 .5 1 .5.5.5.5.5.5-.5.5-.5.5-.5.5-.5.5-1 .5-1v-1.5-1.5" style="fill:#efc7b3;stroke:#efc7b3"/><path d="m697 582v-2l-1-1-1-1-1.5-1-1.5-1-1-1-1-1-1-1.5-1-1.5-1.5-.5-1.5-.5-1.5-1-1.5-1-1.5-.5-1.5-.5.5 1.5.5 1.5v2.5 2.5l.5 1.5.5 1.5h1.5 1.5 1 1l.5.5.5.5.5.5.5.5 1 .5 1 .5h1 1l.5.5.5.5.5.5.5.5 1.5-.5 1.5-.5" style="fill:#312727;stroke:#312727"/><path d="m697 321l1-1-1-1-1-1-.5-.5-.5-.5.5-.5.5-.5.5-1 .5-1-1-1-1-1-2 .5-2 .5-1.5.5-1.5.5-1 1.5-1 1.5.5 1.5.5 1.5 1.5-.5 1.5-.5 1.5 1 1.5 1h2 2" style="fill:#672326;stroke:#672326"/><path d="m690 272l-32-40-7.5-4-7.5-4-12-8.5-12-8.5-4.5-16-4.5-16 3-7.5 3-7.5-6-15.5-6-15.5 3.5-16 3.5-16-1.5-14-1.5-14-6-1.5-6-1.5 14-18.5 14-18.5 11.5-14.5 11.5-14.5h-34.5-34.5l-11.5 18.5-11.5 18.5-2 11.5-2 11.5 26.5 22.5 26.5 22.5-1 2-1 2-1 1-1 1h-2-2l-1.5.5-1.5.5-1.5 1-1.5 1-1 1-1 1-.5 1.5-.5 1.5 8 11 8 11-.5 1-.5 1v1 1l.5 1 .5 1v2 2l.5 1.5.5 1.5-.5 2-.5 2-14.5-1.5-14.5-1.5h-.5-.5l-19-5-19-5 5.5 36 5.5 36 4-28.5 4-28.5-5.5-9-5.5-9 9 11.5 9 11.5 10.5 4 10.5 4 2 17.5 2 17.5 2 15.5 2 15.5 19 14.5 19 14.5 14.5 10 14.5 10 9.5 3 9.5 3 7-11 7-11" style="fill:#8e8588;stroke:#8e8588"/><path d="m686 605l-8-18 .5 2 .5 2 .5 1 .5 1h.5.5l.5.5.5.5.5.5.5.5v1 1l1 .5 1 .5-.5.5-.5.5-.5.5-.5.5-.5.5-.5.5v1 1l-.5 1-.5 1h1 1 1.5 1.5" style="fill:#e09f8b;stroke:#e09f8b"/><path d="m680 601l1-3v-1-1l-.5-1.5-.5-1.5-.5-1-.5-1-.5-2-.5-2-1-1-1-1h-1-1l-.5-.5-.5-.5-.5-.5-.5-.5h-1.5-1.5l-.5-.5-.5-.5-.5.5-.5.5.5.5.5.5v1 1 1.5 1.5l-.5-.5-.5-.5-.5-.5-.5-.5-.5-.5-.5-.5h-1-1l-2-.5-2-.5v1.5 1.5 1 1 1 1l.5.5.5.5.5.5.5.5h1.5 1.5l.5-.5.5-.5h1 1v1 1l.5.5.5.5 1 .5 1 .5.5.5.5.5.5-.5.5-.5h1 1l1 .5 1 .5.5.5.5.5.5.5.5.5 1 .5 1 .5" style="fill:#a63136;stroke:#a63136"/><path d="m680 362v-2h-1-1l1 6.5 1 6.5-1-.5-1-.5h-1.5-1.5l-.5-1.5-.5-1.5 1-1 1-1 1.5-1 1.5-1 .5-1.5.5-1.5" style="fill:#672326;stroke:#672326"/><path d="m679 636l1-3-1-2-1-2h-.5-.5l-.5 1-.5 1 .5 1 .5 1-.5 2-.5 2-1 1-1 1-1.5 1-1.5 1-.5 1.5-.5 1.5-1 1-1 1v2.5 2.5l-1 1-1 1-.5 2-.5 2-1 1-1 1 .5 1.5.5 1.5.5-.5.5-.5 7-12.5 7-12.5" style="fill:#e09f8b;stroke:#e09f8b"/><path d="m679 317l-35 24 16.5-11 16.5-11 1-1 1-1" style="fill:#8e8588;stroke:#8e8588"/><path d="m677 629h1l-27.5-25-27.5-25 27 25 27 25" style="fill:#a63136;stroke:#a63136"/><g style="fill:#672326;stroke:#672326"><path d="m677 352h1l-.5-1-.5-1 .5-1.5.5-1.5-.5 2.5-.5 2.5"/><path d="m676 637l1-4-.5-1-.5-1 .5-1 .5-1-27-25-27-25 .5-1 .5-1 .5-1.5.5-1.5.5-1.5.5-1.5-1-1.5-1-1.5-.5-.5-.5-.5-.5-.5-.5-.5-.5-.5-.5-.5-1-.5-1-.5-1-1-1-1-.5-.5-.5-.5h-1.5-1.5l-1.5-.5-1.5-.5-.5-.5-.5-.5-1-.5-1-.5-1.5-.5-1.5-.5-1.5-.5-1.5-.5-1.5-1-1.5-1-1.5-.5-1.5-.5-2-.5-2-.5-1-1-1-1-2-.5-2-.5-1-.5-1-.5v1.5 1.5 1 1l.5.5.5.5-.5 1.5-.5 1.5-.5 1-.5 1-.5 1-.5 1-.5.5-.5.5h-1.5-1.5l5.5 5 5.5 5 16.5 1 16.5 1-12 4.5-12 4.5v1.5 1.5l-.5 1.5-.5 1.5v2 2l-1 1.5-1 1.5-1 1-1 1v2.5 2.5l.5 1.5.5 1.5 1 1.5 1 1.5 2 1 2 1 2-.5 2-.5.5-.5.5-.5.5-.5.5-.5v-1-1h1 1l.5-1 .5-1-.5-.5-.5-.5v-1-1-1-1-1.5-1.5l-.5-.5-.5-.5.5-.5.5-.5.5-.5.5-.5.5-.5.5-.5 1-.5 1-.5.5-.5.5-.5.5-.5.5-.5v1 1l-9.5 14.5-9.5 14.5.5 1.5.5 1.5 1.5 1 1.5 1 1.5.5 1.5.5 15.5-8.5 15.5-8.5 15 23 15 23-30-14-30-14 16 21 16 21h-1-1l.5 3 .5 3h.5.5l.5-1 .5-1 1-.5 1-.5 1.5-1 1.5-1 1 1 1 1 1 1.5 1 1.5 1 1 1 1-.5 1.5-.5 1.5h-2-2l-2.5-.5-2.5-.5 13 16 13 16 1-24.5 1-24.5-.5-1.5-.5-1.5 1-1 1-1 .5-2 .5-2 1-1 1-1v-2.5-2.5l1-1 1-1 .5-1.5.5-1.5 1.5-1 1.5-1 1-1 1-1"/></g><path d="m672 561l-1-2-1.5-.5-1.5-.5h-2.5-2.5l-1-1-1-1h-2-2l-2-.5-2-.5h-2-2-2.5-2.5-1.5-1.5l-1 1-1 1 2 1 2 1 1.5.5 1.5.5 2 .5 2 .5 1 1 1 1 2 .5 2 .5 1 1 1 1 2 .5 2 .5 1-.5 1-.5-.5-1.5-.5-1.5 1-1 1-1h2.5 2.5 1 1" style="fill:#a63136;stroke:#a63136"/><path d="m668 248l-32-9-6-3.5-6-3.5-4-7.5-4-7.5-10 4.5-10 4.5 14 18.5 14 18.5 20-3.5 20-3.5 2-4 2-4" style="fill:#e09f8b;stroke:#e09f8b"/><path d="m667 398l1-1-6 .5-6 .5v9.5 9.5l5.5-9.5 5.5-9.5" style="fill:#672326;stroke:#672326"/><path d="m665 720h1l-1-.5-1-.5-.5-.5-.5-.5-.5-.5-.5-.5v-1.5-1.5-1.5-1.5l-13-16-13-16-.5-1-.5-1-.5-1-.5-1h-.5-.5l8.5 18 8.5 18h-1-1l.5 2 .5 2 1-.5 1-.5.5 1.5.5 1.5-1 1-1 1 1 .5 1 .5h1.5 1.5 2 2 2.5 2.5.5.5" style="fill:#7e5149;stroke:#7e5149"/><path d="m662 655l-30-46-15.5 8.5-15.5 8.5.5.5.5.5 30 14 30 14" style="fill:#312727;stroke:#312727"/><path d="m658 585h1l-.5-1.5-.5-1.5-.5-1-.5-1-.5-.5-.5-.5-1-.5-1-.5-.5-1-.5-1-.5.5-.5.5-1.5.5-1.5.5h-2-2l-.5-.5-.5-.5-1-.5-1-.5-1.5.5-1.5.5-1-.5-1-.5 10.5 4.5 10.5 4.5" style="fill:#a63136;stroke:#a63136"/><path d="m652 577l1-1h-.5-.5l-1-.5-1-.5h-1-1l-.5-.5-.5-.5-1-.5-1-.5-.5-.5-.5-.5-.5-.5-.5-.5-.5-.5-.5-.5-1-.5-1-.5-1.5-.5-1.5-.5-.5.5-.5.5.5 1 .5 1-.5 1-.5 1 .5 1.5.5 1.5 1 .5 1 .5 1.5-.5 1.5-.5 1 .5 1 .5.5.5.5.5h2 2l1.5-.5 1.5-.5" style="fill:#672326;stroke:#672326"/><path d="m652 576h1l-23-9.5-23-9.5v.5.5l1 .5 1 .5.5.5.5.5 1.5.5 1.5.5h1.5 1.5l.5.5.5.5 1 1 1 1 1 .5 1 .5.5.5.5.5.5.5.5.5.5.5.5.5 1 1.5 1 1.5 1.5.5 1.5.5 1.5-.5 1.5-.5 1 .5 1 .5 1 .5 1 .5.5-1 .5-1-.5-1-.5-1 .5-.5.5-.5 1.5.5 1.5.5 1 .5 1 .5.5.5.5.5.5.5.5.5.5.5.5.5 1 .5 1 .5.5.5.5.5h1 1l1 .5 1 .5" style="fill:#a63136;stroke:#a63136"/><path d="m651 720h1l-1-.5-1-.5 1-1 1-1-.5-1.5-.5-1.5-1 .5-1 .5h-.5-.5l-16.5-5-16.5-5 3 7.5 3 7.5h2 2 2.5 2.5 2 2 2.5 2.5 2 2 2 2 2 2" style="fill:#672326;stroke:#672326"/><path d="m650 711l-17-36-.5-3-.5-3-1.5-1-1.5-1h-1-1-1-1l-.5.5-.5.5-.5 1-.5 1-.5 1-.5 1v1 1l-.5 1-.5 1-.5 1.5-.5 1.5.5 1.5.5 1.5-.5 1.5-.5 1.5-.5.5-.5.5-.5 1-.5 1v1.5 1.5 1 1 1 1 1.5 1.5l-.5.5-.5.5-.5.5-.5.5v2 2l1 .5 1 .5.5.5.5.5v1 1l1 .5 1 .5.5.5.5.5h1 1l.5-.5.5-.5 1 .5 1 .5 1.5.5 1.5.5h1 1 1 1 1 1l.5 1 .5 1 .5-.5.5-.5h1 1 1 1 1.5 1.5l1.5-.5 1.5-.5h1 1" style="fill:#df484d;stroke:#df484d"/><g style="fill:#a63136;stroke:#a63136"><path d="m648 715h1l-.5-2-.5-2-1.5.5-1.5.5h-1.5-1.5-1-1-1-1l-.5.5-.5.5-.5-1-.5-1h-1-1-1-1-1-1l-1.5-.5-1.5-.5-1-.5-1-.5-.5.5-.5.5h-1-1l-.5-.5-.5-.5-1-.5-1-.5v-1-1l-.5-.5-.5-.5-1-.5-1-.5-.5.5-.5.5 16.5 5 16.5 5"/><path d="m645 680l1-3-1-1-1-1-1-1.5-1-1.5-1-1-1-1-1.5 1-1.5 1-1 .5-1 .5-.5 1-.5 1 .5 1 .5 1 .5 1 .5 1 2.5.5 2.5.5h2 2"/></g><path d="m634 669l-32-42-.5-.5-.5-.5-1.5-.5-1.5-.5-1.5-1-1.5-1-.5-1.5-.5-1.5-1.5.5-1.5.5v1 1l.5 1 .5 1h1 1l.5.5.5.5.5.5.5.5 1 .5 1 .5 1 1 1 1 1 .5 1 .5.5 1.5.5 1.5.5.5.5.5.5 1 .5 1 1 1 1 1 .5.5.5.5 1 .5 1 .5v2 2l-.5 1.5-.5 1.5v2.5 2.5 1.5 1.5l-.5 1-.5 1v2 2l1.5 1 1.5 1 .5 1.5.5 1.5 1 .5 1 .5 1 1 1 1 1.5 1 1.5 1h1.5 1.5l.5-1 .5-1 .5-1 .5-1 .5-.5.5-.5h1 1 1 1l1.5 1 1.5 1h1 1" style="fill:#7e5149;stroke:#7e5149"/><path d="m630 434l1-3-1.5-.5-1.5-.5-2-.5-2-.5h-2-2l-1.5 1-1.5 1 .5 1.5.5 1.5 2 .5 2 .5 1.5.5 1.5.5h2 2l.5-1 .5-1" style="fill:#8e8588;stroke:#8e8588"/><path d="m622 674v-2h-1.5-1.5l-1.5-1-1.5-1-1-1-1-1-1-.5-1-.5-.5-1.5-.5-1.5-1.5-1-1.5-1v-2-2l.5-1 .5-1v-1.5-1.5l-8-3-8-3-.5 1-.5 1v1 1l-.5.5-.5.5-.5 1-.5 1v1 1 1 1 1 1 1 1l-.5.5-.5.5-.5 1-.5 1v1 1 1 1l-.5.5-.5.5v1.5 1.5 1 1 1 1l-.5.5-.5.5-.5 1-.5 1v1 1 1 1l.5 1 .5 1 2.5.5 2.5.5h2 2l2 .5 2 .5 1.5.5 1.5.5.5 1 .5 1 1.5-1 1.5-1 1-1 1-1v-1-1l-.5-1-.5-1 .5-1.5.5-1.5 1-1 1-1 .5-.5.5-.5.5-1 .5-1 1 1 1 1 .5.5.5.5 1 .5 1 .5v2 2 1 1l.5 1.5.5 1.5.5-1 .5-1 .5-.5.5-.5.5-1.5.5-1.5-.5-1.5-.5-1.5.5-1.5.5-1.5.5-1 .5-1" style="fill:#a63136;stroke:#a63136"/><path d="m621 574l-33-2 1.5.5 1.5.5 1 1 1 1 1 1.5 1 1.5.5 1.5.5 1.5.5 1 .5 1 12-4.5 12-4.5" style="fill:#312727;stroke:#312727"/><path d="m620 720h1l-3-7.5-3-7.5.5-.5.5-.5v-2-2l.5-.5.5-.5.5-.5.5-.5v-1.5-1.5-1-1-1-1-1.5-1.5l-.5-1.5-.5-1.5v-1-1-2-2l-1-.5-1-.5-.5-.5-.5-.5-1-1-1-1-.5 1-.5 1-.5.5-.5.5-1 1-1 1-.5 1.5-.5 1.5.5 1 .5 1v1 1l-1 1-1 1-1.5 1-1.5 1 .5 1.5.5 1.5v1.5 1.5 1 1l-.5.5-.5.5v1 1 1 1l.5 1 .5 1v1 1l.5.5.5.5v1 1l.5.5.5.5.5 1 .5 1 .5.5.5.5.5.5.5.5.5.5.5.5.5 1 .5 1h1 1 1 1l1 .5 1 .5h1.5 1.5" style="fill:#7e5149;stroke:#7e5149"/><path d="m616 720h1l-1-.5-1-.5h-1-1-1-1l-.5-1-.5-1-.5-.5-.5-.5-.5-.5-.5-.5-.5-.5-.5-.5-.5-1-.5-1-.5-.5-.5-.5v-1-1l-.5-.5-.5-.5v-1-1l-.5-1-.5-1v-1-1-1-1l.5-.5.5-.5v-1-1-1.5-1.5l-.5-1.5-.5-1.5-.5-1-.5-1-1.5-.5-1.5-.5-2-.5-2-.5h-2-2l-2.5-.5-2.5-.5-1 .5-1 .5v2 2l-1 1-1 1-.5 2-.5 2-1 1-1 1-.5 2-.5 2-.5 1.5-.5 1.5 15.5 7 15.5 7h1.5 1.5 2 2 .5.5" style="fill:#672326;stroke:#672326"/><path d="m616 482l-8-44-.5 1-.5 1-.5 2-.5 2-.5 2-.5 2v1.5 1.5l.5-1 .5-1 .5-1.5.5-1.5.5-1.5.5-1.5 1-1.5 1-1.5h1 1l.5 2 .5 2 .5 1.5.5 1.5v2.5 2.5 2 2 1 1 2 2 1 1l-.5 1-.5 1-.5 1.5-.5 1.5-.5 2-.5 2 .5 1.5.5 1.5 1 1 1 1v1 1l-1 .5-1 .5-1.5-.5-1.5-.5-.5-.5-.5-.5h-2.5-2.5l1.5.5 1.5.5 1.5.5 1.5.5 1.5.5 1.5.5h2 2" style="fill:#8e8588;stroke:#8e8588"/><path d="m614 458v-2-2-2-2.5-2.5l-.5-1.5-.5-1.5-.5-2-.5-2h-1-1l-1 1.5-1 1.5-.5 1.5-.5 1.5-.5 1.5-.5 1.5-.5 1-.5 1v-1.5-1.5l-.5 1-.5 1-.5 1-.5 1v1 1 1 1l-.5.5-.5.5v1.5 1.5l-.5.5-.5.5v1 1 1 1 1.5 1.5 1 1 1 1l-.5 1.5-.5 1.5 1.5 2 1.5 2h2.5 2.5l.5.5.5.5 1.5.5 1.5.5 1-.5 1-.5v-1-1l-1-1-1-1-.5-1.5-.5-1.5.5-2 .5-2 .5-1.5.5-1.5.5-1 .5-1v-1-1-2-2" style="fill:#aaa5ab;stroke:#aaa5ab"/><path d="m613 591v-2l-.5.5-.5.5-.5.5-.5.5-1 .5-1 .5-.5.5-.5.5-.5.5-.5.5-.5.5-.5.5.5.5.5.5v1.5 1.5 1 1 1 1l.5.5.5.5-.5 1-.5 1h-1-1v1 1l-.5.5-.5.5-.5.5-.5.5-2 .5-2 .5-.5.5-.5.5 1.5.5 1.5.5v1 1l-1 .5-1 .5-1 .5-1 .5h-1-1l-.5-.5-.5-.5h-1-1l-.5 1-.5 1h-1-1l-.5-1.5-.5-1.5-.5.5-.5.5.5 1.5.5 1.5v1.5 1.5 1 1 1 1 1 1l.5 1 .5 1v1 1 1 1 1 1l1 .5 1 .5v-2-2-1-1-1-1l.5-.5.5-.5.5.5.5.5 1-.5 1-.5.5 2 .5 2 1-2 1-2-1-.5-1-.5-.5-.5-.5-.5-.5-.5-.5-.5h-1-1l-.5-1-.5-1v-1-1l1.5-.5 1.5-.5 9.5-14.5 9.5-14.5" style="fill:#a63136;stroke:#a63136"/><path d="m609 648l1-3v-2-2l-1-.5-1-.5-.5-.5-.5-.5-1-1-1-1-.5-1-.5-1-.5-.5-.5-.5-.5-1.5-.5-1.5-1-.5-1-.5-1-1-1-1-1 2-1 2-.5-2-.5-2-1 .5-1 .5v2.5 2.5 1.5 1.5 2 2 1 1 2 2l8 3 8 3v-2.5-2.5" style="fill:#df484d;stroke:#df484d"/><path d="m608 285l-27-32-6.5-1.5-6.5-1.5-2-.5-2-.5-1 1-1 1v1 1l-.5.5-.5.5-.5.5-.5.5-1 .5-1 .5-.5-.5-.5-.5-.5-.5-.5-.5v-1-1-1.5-1.5l1.5-.5 1.5-.5-.5-.5-.5-.5-1-.5-1-.5-.5 1.5-.5 1.5-1-1-1-1v2.5 2.5l-1 1-1 1-.5 2-.5 2 .5 1.5.5 1.5 1.5 1 1.5 1h1.5 1.5l17 18 17 18-21.5-15.5-21.5-15.5 2 15 2 15 11.5 10 11.5 10 11-9.5 11-9.5 5.5-7 5.5-7" style="fill:#672326;stroke:#672326"/><path d="m607 720h1l-15.5-7-15.5-7-1 1.5-1 1.5-1 1.5-1 1.5-1 1-1 1-1 1.5-1 1.5-1 1.5-1 1.5h2 2 2 2 2 2 2.5 2.5 2 2 2.5 2.5 2 2 2.5 2.5 2 2 .5.5" style="fill:#312727;stroke:#312727"/><path d="m604 426l-11 14v2 2l-.5 1.5-.5 1.5-.5 2-.5 2v3 3l6.5-15.5 6.5-15.5" style="fill:#8e8588;stroke:#8e8588"/><path d="m604 105l-53-45 2-11.5 2-11.5 11.5-18.5 11.5-18.5h-2.5-2.5-2-2-2.5-2.5-2-2-2.5-2.5-2-2-2-2-2.5-2.5-2-2-.5-.5l-5 12-5 12 12 15.5 12 15.5 14 24 14 24 1-.5 1-.5 1.5-.5 1.5-.5h2 2 1.5 1.5l1 1 1 1h2.5 2.5 2 2v1 1 1.5 1.5l-1 .5-1 .5-2 1-2 1h2 2l1-1 1-1 1-2 1-2" style="fill:#aaa5ab;stroke:#aaa5ab"/><path d="m603 158l1-4-.5-1.5-.5-1.5v-2-2l-1.5-.5-1.5-.5-.5-1-.5-1-1-1.5-1-1.5-12 5.5-12 5.5.5 1.5.5 1.5 14.5 1.5 14.5 1.5" style="fill:#e09f8b;stroke:#e09f8b"/><path d="m603 141l-16-22 5 11 5 11 1 1.5 1 1.5.5 1 .5 1 1.5.5 1.5.5-.5-1-.5-1v-1-1l.5-1 .5-1" style="fill:#aaa5ab;stroke:#aaa5ab"/><path d="m602 369l-36-19 11 9.5 11 9.5h7 7" style="fill:#672326;stroke:#672326"/><path d="m602 105v-2h-2-2-2.5-2.5l-1-1-1-1h-1.5-1.5-2-2l-1.5.5-1.5.5-1 .5-1 .5 2-.5 2-.5h2.5 2.5l1 1 1 1 2 .5 2 .5 1.5.5 1.5.5v1 1l-24 7.5-24 7.5-13-17.5-13-17.5-10-8.5-10-8.5-6.5 6-6.5 6 16.5 19 16.5 19 5.5 29 5.5 29-11 21.5-11 21.5-26.5 7-26.5 7-28-7.5-28-7.5-22-13.5-22-13.5-10 9.5-10 9.5-20-10.5-20-10.5 12.5-19 12.5-19-14 3-14 3-17.5 18-17.5 18-11.5 13-11.5 13 17.5-13 17.5-13 26-22 26-22-16.5 20-16.5 20 8.5 12.5 8.5 12.5 23.5 6 23.5 6 14.5 17 14.5 17-15-30-15-30 12.5 7 12.5 7 1 1 1 1 .5.5.5.5.5.5.5.5 1 .5 1 .5 1 1 1 1 .5.5.5.5.5.5.5.5h1 1l1.5 1 1.5 1 21.5 10.5 21.5 10.5-25.5-4-25.5-4 9.5 21 9.5 21 9 23.5 9 23.5-13-22.5-13-22.5-4.5 12-4.5 12 13 15.5 13 15.5 14.5 4 14.5 4v20.5 20.5l9.5 7 9.5 7 16-12.5 16-12.5 3.5-24 3.5-24-5-20.5-5-20.5-.5-21-.5-21 17-15.5 17-15.5 4.5-35.5 4.5-35.5 19.5 3.5 19.5 3.5 12-5.5 12-5.5-5-11-5-11 .5-1.5.5-1.5 1-1 1-1 1.5-1 1.5-1 1.5-.5 1.5-.5 2-1 2-1 1-.5 1-.5v-1.5-1.5" style="fill:#efc7b3;stroke:#efc7b3"/><path d="m601 615v-2l-1.5-.5-1.5-.5-2-.5-2-.5-1-1-1-1-1.5.5-1.5.5h-1-1v1.5 1.5l.5 1 .5 1 .5 1.5.5 1.5h1 1l.5-1 .5-1h1 1l.5.5.5.5h1 1l1-.5 1-.5 1-.5 1-.5" style="fill:#df484d;stroke:#df484d"/><path d="m601 488l1-3-1-1-1-1-1.5 1-1.5 1-.5 1.5-.5 1.5-.5 2-.5 2-.5 1.5-.5 1.5-1 1.5-1 1.5-.5 1-.5 1-1 .5-1 .5-2 1.5-2 1.5-.5 1.5-.5 1.5-1.5 1-1.5 1-1 2-1 2-.5 1-.5 1-1 1-1 1-.5.5-.5.5-.5 1-.5 1h-1-1l-.5.5-.5.5.5.5.5.5-.5 1-.5 1v1 1 1.5 1.5l-.5-1-.5-1-1 1.5-1 1.5-.5 1.5-.5 1.5.5 1 .5 1-1 1-1 1-.5 1.5-.5 1.5v2.5 2.5l.5 1.5.5 1.5v2 2l10.5 32 10.5 32 .5-.5.5-.5-.5-1-.5-1v-1.5-1.5h1 1l1.5-.5 1.5-.5-1.5-1-1.5-1-.5-1.5-.5-1.5-.5-1.5-.5-1.5 1-1.5 1-1.5-1.5-.5-1.5-.5-1.5-.5-1.5-.5-.5-2-.5-2 1.5-1.5 1.5-1.5-.5-1-.5-1-.5-.5-.5-.5-.5-1-.5-1-.5-1.5-.5-1.5-1-1.5-1-1.5-.5-1.5-.5-1.5-.5-2-.5-2-.5-1.5-.5-1.5-.5-2-.5-2-.5-2-.5-2-1 .5-1 .5h-.5-.5v-1-1l-.5-1-.5-1v-1-1l.5-.5.5-.5.5-.5.5-.5-.5-.5-.5-.5v-1.5-1.5l-.5-.5-.5-.5v1 1l-.5.5-.5.5-.5-1-.5-1v-2-2-1-1l.5-1 .5-1v-1-1l16-25.5 16-25.5" style="fill:#8e8588;stroke:#8e8588"/><path d="m598 612l1-1-2-1-2-1-1-1.5-1-1.5-.5-1.5-.5-1.5v-2.5-2.5l1-1 1-1 1-1.5 1-1.5v-2-2l.5-1.5.5-1.5v-1.5-1.5l-.5-1-.5-1-.5-1.5-.5-1.5-1-1.5-1-1.5-1-1-1-1-1.5-.5-1.5-.5-5.5-5-5.5-5-1.5-1-1.5-1 .5 2 .5 2 .5 2 .5 2 .5 1.5.5 1.5.5 2 .5 2 .5 1.5.5 1.5 1 1.5 1 1.5.5 1.5.5 1.5.5 1 .5 1 .5.5.5.5.5 1 .5 1 1 .5 1 .5 1-1 1-1 .5-.5.5-.5.5-.5.5-.5v-1-1l-1-.5-1-.5v-1-1-1-1l.5-.5.5-.5.5 1 .5 1 1 1 1 1 .5.5.5.5v1.5 1.5l.5 1.5.5 1.5-.5 1.5-.5 1.5-1 2-1 2-1.5 1-1.5 1-1 1.5-1 1.5.5 1.5.5 1.5.5 1.5.5 1.5 1.5 1 1.5 1 1 1 1 1 2 .5 2 .5" style="fill:#7e5149;stroke:#7e5149"/><path d="m597 108v-2l-1.5-.5-1.5-.5-2-.5-2-.5-1-1-1-1h-2.5-2.5l-2 .5-2 .5-.5.5-.5.5-13.5-8-13.5-8-6.5-18-6.5-18-12.5-26-12.5-26h-37.5-37.5-35.5-35.5-35.5-35.5-31.5-31.5l-.5 1.5-.5 1.5-1 1-1 1-2-.5-2-.5-.5 1.5-.5 1.5-3 .5-3 .5-7.5 7-7.5 7 11.5 7 11.5 7 30.5-5 30.5-5-27.5 16-27.5 16-.5 1-.5 1-1.5.5-1.5.5-1 1-1 1-2 .5-2 .5-.5 1.5-.5 1.5-1.5.5-1.5.5-.5.5-.5.5-1 1-1 1-1 1-1 1-1 1.5-1 1.5-1 1-1 1-1 1.5-1 1.5-1.5.5-1.5.5-1.5 1.5-1.5 1.5-18 7.5-18 7.5 35-4 35-4 28.5 22.5 28.5 22.5-16 29.5-16 29.5 17.5-18 17.5-18 14-3 14-3-12.5 19-12.5 19 20 10.5 20 10.5 10-9.5 10-9.5 22 13.5 22 13.5 28 7.5 28 7.5 26.5-7 26.5-7 11-21.5 11-21.5-5.5-29-5.5-29-16.5-19-16.5-19 6.5-6 6.5-6 10 8.5 10 8.5 13 17.5 13 17.5 24-7.5 24-7.5" style="fill:#ffe;stroke:#ffe"/><path d="m594 592l1-3-.5-1.5-.5-1.5v-1.5-1.5l-.5-.5-.5-.5-1-1-1-1-.5-1-.5-1-.5.5-.5.5v1 1 1 1l1 .5 1 .5v1 1l-.5.5-.5.5-.5.5-.5.5-1 1-1 1-1-.5-1-.5-1.5 1.5-1.5 1.5.5 2 .5 2 1.5.5 1.5.5 1.5.5 1.5.5 1.5-1 1.5-1 1-2 1-2" style="fill:#df484d;stroke:#df484d"/><path d="m594 418l-28 29 4.5-1 4.5-1 5 6.5 5 6.5 4.5-20 4.5-20" style="fill:#8e8588;stroke:#8e8588"/><path d="m593 643v-2-2-2-1.5-1.5-2.5-2.5l-.5-.5-.5-.5-.5.5-.5.5v1 1 1 1 2 2l-1-.5-1-.5v-1-1-1-1-1-1l-.5-1-.5-1v-1-1-1-1-1-1-1.5-1.5l-.5-1.5-.5-1.5-10.5-32-10.5-32v1.5 1.5l1 2 1 2v2 2 1.5 1.5l-1 1-1 1-1 .5-1 .5-.5 1-.5 1 .5 1 .5 1 1.5-.5 1.5-.5 2 .5 2 .5.5 1.5.5 1.5.5 1.5.5 1.5v1 1l.5-1 .5-1 1 1 1 1 .5 1.5.5 1.5.5 1.5.5 1.5.5 2 .5 2 .5 1.5.5 1.5v2.5 2.5l.5 1.5.5 1.5-.5 1.5-.5 1.5h-1.5-1.5l-1.5-1-1.5-1-.5-1.5-.5-1.5-1-1.5-1-1.5-1-1.5-1-1.5-1-1-1-1-1-1-1-1-1 12-1 12 11 16 11 16v1.5 1.5l-.5 1.5-.5 1.5v1 1l.5 1 .5 1 .5-1 .5-1 .5-1 .5-1 .5-1.5.5-1.5-.5-.5-.5-.5.5-1 .5-1 .5-1.5.5-1.5v-1-1l.5-1 .5-1v1.5 1.5l-12.5 39-12.5 39h1 1l1-1.5 1-1.5 1-1.5 1-1.5 1-1 1-1 1-1.5 1-1.5 1-1.5 1-1.5.5-1.5.5-1.5.5-2 .5-2 1-1 1-1 .5-2 .5-2 1-1 1-1v-2-2l1-.5 1-.5-.5-1-.5-1v-1-1-1-1l.5-1 .5-1 .5-.5.5-.5v-1-1-1-1-1.5-1.5l.5-.5.5-.5v-1-1-1-1l.5-1 .5-1 .5-.5.5-.5v-1-1-1-1-1-1-1-1l.5-1 .5-1 .5-.5.5-.5v-1-1l.5-1 .5-1v-2-2" style="fill:#7e5149;stroke:#7e5149"/><path d="m592 494l-1-2v-1.5-1.5-1-1-2-2-2-2l-.5-2-.5-2v-2-2-2.5-2.5-2-2-1.5-1.5l.5-1 .5-1v-3-3l.5-2 .5-2 .5-1.5.5-1.5v-2-2l-10.5 14-10.5 14-6.5-9.5-6.5-9.5h-.5-.5l-10 28-10 28 20.5 4 20.5 4 1-2 1-2 1.5-1 1.5-1 .5-1.5.5-1.5 2-1.5 2-1.5 1-2.5 1-2.5.5-1 .5-1" style="fill:#312727;stroke:#312727"/><path d="m591 424l1-3v-2-2l-.5-2-.5-2-1.5.5-1.5.5-1 1-1 1 2-.5 2-.5.5 2 .5 2-.5 1.5-.5 1.5-2-3-2-3-7 15.5-7 15.5 4.5 7 4.5 7 5-18.5 5-18.5" style="fill:#aaa5ab;stroke:#aaa5ab"/><path d="m591 299l-34-36v1.5 1.5h-2-2l.5 1 .5 1-1.5.5-1.5.5-.5-1-.5-1-1 .5-1 .5 21.5 15.5 21.5 15.5" style="fill:#312727;stroke:#312727"/><path d="m590 642v-3l-.5 1-.5 1v1 1l-.5 1.5-.5 1.5-.5 1-.5 1 .5.5.5.5-.5 1.5-.5 1.5-.5 1-.5 1-.5 1-.5 1-.5 1.5-.5 1.5v1 1l-.5 1-.5 1-.5 1.5-.5 1.5-.5.5-.5.5v2 2 2.5 2.5l-.5 2-.5 2-10.5 20-10.5 20h1.5 1.5 1.5 1.5l12.5-39 12.5-39" style="fill:#8e8588;stroke:#8e8588"/><path d="m590 422l1-3-.5-2-.5-2-2 .5-2 .5 2 3 2 3" style="fill:#efc7b3;stroke:#efc7b3"/><path d="m585 646l-22-32-1.5-.5-1.5-.5-1-.5-1-.5-1.5.5-1.5.5-1 1.5-1 1.5-1.5.5-1.5.5-1 1.5-1 1.5-1 1-1 1-1 1.5-1 1.5-.5 1.5-.5 1.5-1 .5-1 .5-1 1-1 1h-1-1l-1 .5-1 .5-1 1-1 1-.5.5-.5.5.5 1 .5 1v2 2 1 1 1 1l-.5.5-.5.5-.5 1-.5 1-1 1-1 1h-1-1-1.5-1.5l-.5 1-.5 1 .5 1 .5 1 .5.5.5.5v1.5 1.5l1 1 1 1h2 2l1.5-.5 1.5-.5 1.5-.5 1.5-.5 1-1.5 1-1.5 1-1.5 1-1.5 14-6 14-6 4.5 19 4.5 19 .5-1 .5-1 .5-1.5.5-1.5.5-1 .5-1v-2-2l.5-.5.5-.5.5-1.5.5-1.5.5-1 .5-1v-1-1l.5-1.5.5-1.5-.5-1-.5-1v-1-1l.5-1.5.5-1.5v-1.5-1.5" style="fill:#df484d;stroke:#df484d"/><path d="m583 557l1-3-.5-.5-.5-.5v-1-1-1.5-1.5-2-2h-.5-.5l-4 8-4 8 1.5 1 1.5 1h1.5 1.5l.5-.5.5-.5.5-1 .5-1 .5-1 .5-1" style="fill:#a63136;stroke:#a63136"/><path d="m582 544h1v-1.5-1.5-1-1-1-1l-.5-.5-.5-.5-.5-1-.5-1v-1-1-1-1l-.5-.5-.5-.5-.5-1-.5-1h-1-1l-.5.5-.5.5-.5.5-.5.5v1.5 1.5l-.5.5-.5.5v1 1l-.5.5-.5.5-.5.5-.5.5-1.5 1-1.5 1v1 1l-.5 1-.5 1v1 1 2 2l.5 1 .5 1 .5-.5.5-.5v-1-1l.5.5.5.5v1.5 1.5l.5.5.5.5-.5.5-.5.5-.5.5-.5.5v1 1l.5 1 .5 1v1 1h.5.5l1-.5 1-.5 4-8 4-8" style="fill:#df484d;stroke:#df484d"/><path d="m580 680l1-4v-2.5-2.5l-.5 1-.5 1-.5 1.5-.5 1.5-.5 1-.5 1-.5 1-.5 1h-1.5-1.5l.5 1 .5 1 .5 1 .5 1v1 1l-.5 2.5-.5 2.5-1 1-1 1-.5 2-.5 2-1 1-1 1-1 1.5-1 1.5-.5 1.5-.5 1.5-1.5 1-1.5 1-.5 1.5-.5 1.5-.5.5-.5.5-1 2-1 2-1 2.5-1 2.5h.5.5l10.5-20 10.5-20" style="fill:#7e5149;stroke:#7e5149"/><path d="m580 605l1-3-.5-1.5-.5-1.5v-2.5-2.5l-.5-1.5-.5-1.5-.5-2-.5-2-.5-1.5-.5-1.5-.5-1.5-.5-1.5h-.5-.5l-1 1-1 1-1 1-1 1-1 1.5-1 1.5-.5 1.5-.5 1.5.5 1.5.5 1.5 1 1.5 1 1.5 1 1.5 1 1.5.5 1.5.5 1.5 1.5 1 1.5 1h1.5 1.5" style="fill:#312727;stroke:#312727"/><path d="m578 515l1-2-20.5-4-20.5-4 4.5-29.5 4.5-29.5.5-1 .5-1-1-2-1-2-3.5 26-3.5 26 16 16 16 16 .5-1 .5-1-.5-.5-.5-.5.5-.5.5-.5h1 1l.5-1 .5-1 .5-.5.5-.5 1-1 1-1" style="fill:#a63136;stroke:#a63136"/><path d="m578 104l1-1-14-24-14-24-12-15.5-12-15.5 5-12 5-12h-3-3-2-2-2.5-2.5-2-2-2.5-2.5l12.5 26 12.5 26 6.5 18 6.5 18 13.5 8 13.5 8" style="fill:#efc7b3;stroke:#efc7b3"/><path d="m577 680l1-2-4.5-19-4.5-19-14 6-14 6 14.5 1.5 14.5 1.5-.5 1-.5 1-.5.5-.5.5h-1-1-1.5-1.5l-.5-.5-.5-.5-.5.5-.5.5-.5-.5-.5-.5h-1.5-1.5v1 1 1 1 1.5 1.5l1 1 1 1 1 1 1 1 1 1 1 1 1.5 1 1.5 1 .5 1.5.5 1.5 1.5 1 1.5 1 1 1 1 1 1 .5 1 .5h1.5 1.5" style="fill:#a63136;stroke:#a63136"/><path d="m576 686v-2l-.5-1-.5-1-.5-1-.5-1-1-.5-1-.5-1-1-1-1-1.5-1-1.5-1-.5-1.5-.5-1.5-1.5-1-1.5-1-1-1-1-1-1-1-1-1-1-1-1-1v-1.5-1.5l-1-1-1-1-1-.5-1-.5-.5-.5-.5-.5-.5-.5-.5-.5h-1-1l-1-.5-1-.5-.5-.5-.5-.5h-1-1-1-1l-1 .5-1 .5-.5.5-.5.5-1 1-1 1-1.5.5-1.5.5-1.5.5-1.5.5h-2-2l-1-1-1-1-1-1-1-1-.5-.5-.5-.5-.5-1-.5-1-1-1-1-1h-1-1l-1-.5-1-.5-1.5.5-1.5.5h-2-2l-2-.5-2-.5-1-1-1-1-1-1.5-1-1.5-1-1-1-1-.5-1-.5-1v-2-2l1.5-1 1.5-1 1-1 1-1 .5-1.5.5-1.5v-1.5-1.5l-1-1-1-1-.5-2-.5-2-1.5-.5-1.5-.5-1-1-1-1 8.5-17 8.5-17 .5-1 .5-1 1-.5 1-.5.5-.5.5-.5h1 1l.5-.5.5-.5 1-.5 1-.5.5-.5.5-.5h1 1l.5-.5.5-.5h1.5 1.5 1 1l.5-.5.5-.5.5-.5.5-.5.5-.5.5-.5 1-.5 1-.5h1 1l.5-.5.5-.5h1 1v-1-1l.5-1.5.5-1.5-23.5 12-23.5 12 8-21.5 8-21.5 3-14.5 3-14.5 25 18.5 25 18.5v-1.5-1.5l-.5-2-.5-2-1-1.5-1-1.5-19-16.5-19-16.5-19.5 3-19.5 3-28 8.5-28 8.5 2 1 2 1 .5 1.5.5 1.5 1 1.5 1 1.5 1 1 1 1 1.5 1 1.5 1 .5 2 .5 2 1 1 1 1 1.5.5 1.5.5 1.5-.5 1.5-.5.5-.5.5-.5 1-.5 1-.5 1.5-.5 1.5-.5h1 1 1.5 1.5l.5 1 .5 1-1 .5-1 .5-1 1-1 1-1.5 1-1.5 1-1.5.5-1.5.5-2 .5-2 .5-1 1-1 1v2 2 2 2h1 1l1 .5 1 .5 1.5.5 1.5.5.5.5.5.5.5 1 .5 1 1.5 1.5 1.5 1.5 22-8 22-8-18 17.5-18 17.5 3.5 13.5 3.5 13.5v-2.5-2.5l1.5-.5 1.5-.5 1.5-.5 1.5-.5.5-2 .5-2 1-1 1-1 1-1.5 1-1.5 1-1 1-1 .5 2 .5 2 1 1 1 1-.5 1.5-.5 1.5-1 1.5-1 1.5-1.5.5-1.5.5-.5.5-.5.5-1 .5-1 .5-1.5.5-1.5.5-.5.5-.5.5-1.5.5-1.5.5 11 14.5 11 14.5h2 2 1 1l.5.5.5.5h1.5 1.5l.5.5.5.5h1 1l.5.5.5.5h1.5 1.5 2 2l.5.5.5.5 1 .5 1 .5.5 1.5.5 1.5-.5 1.5-.5 1.5-1 2-1 2-2 .5-2 .5-1 1-1 1-2.5.5-2.5.5.5 1 .5 1 .5 2 .5 2 .5 1.5.5 1.5 1 1 1 1 2 .5 2 .5.5 1.5.5 1.5-1 1.5-1 1.5-1 1-1 1 1.5 1 1.5 1 1 1.5 1 1.5 25-6.5 25-6.5-21 11.5-21 11.5 9.5-1 9.5-1-1 .5-1 .5-1 1.5-1 1.5.5 1.5.5 1.5-1 1.5-1 1.5-1 1-1 1v2 2h1 1l.5-1 .5-1 1-.5 1-.5 2-.5 2-.5 1-1 1-1 1.5-1 1.5-1 1.5-.5 1.5-.5 2-.5 2-.5h2 2l.5-1.5.5-1.5 1.5-1 1.5-1 .5-1.5.5-1.5 1-1.5 1-1.5 1-1 1-1 .5-2 .5-2 1-1 1-1 .5-2.5.5-2.5" style="fill:#672326;stroke:#672326"/><path d="m575 581h1l-1-1-1-1-.5 1-.5 1v-1-1l-.5-1.5-.5-1.5-.5-1.5-.5-1.5-2-.5-2-.5-1.5.5-1.5.5-.5.5-.5.5-1 .5-1 .5-1 .5-1 .5h-2-2-1-1-1.5-1.5l-1-1-1-1h-1-1l-1 .5-1 .5-1.5-.5-1.5-.5h-2.5-2.5l-1 1-1 1-.5.5-.5.5-1 .5-1 .5h-1-1-1-1-1-1l-.5.5-.5.5-1 .5-1 .5-.5.5-.5.5-.5.5-.5.5h-1-1l-1 .5-1 .5-1 .5-1 .5-1.5 13-1.5 13 30-13.5 30-13.5-2 1.5-2 1.5-1 2-1 2 1 1 1 1 1 1 1 1-.5-1.5-.5-1.5.5-1.5.5-1.5 1-1.5 1-1.5 1-1 1-1 1-1 1-1" style="fill:#df484d;stroke:#df484d"/><path d="m573 155h1l-.5-1.5-.5-1.5-19.5-3.5-19.5-3.5h.5.5l19 5 19 5" style="fill:#aaa5ab;stroke:#aaa5ab"/><path d="m571 583l-60 27 1.5-13 1.5-13h-1-1l-8.5 17-8.5 17 8.5 7 8.5 7h-.5-.5l-1 .5-1 .5h-1-1l10.5-1.5 10.5-1.5-14 4.5-14 4.5-1.5 1-1.5 1 .5 1 .5 1 1 1 1 1 1 1.5 1 1.5 1 1 1 1 2 .5 2 .5h2 2l1.5-.5 1.5-.5 1-1 1-1h1 1l.5-.5.5-.5.5-1 .5-1 1-1 1-1 .5-.5.5-.5 1 .5 1 .5.5-1.5.5-1.5.5-.5.5-.5 1 .5 1 .5v1.5 1.5l-.5 1-.5 1-1.5.5-1.5.5-1-1-1-1-.5 1.5-.5 1.5-.5.5-.5.5 1 1 1 1h1.5 1.5 1 1l1-1 1-1 .5-1 .5-1 .5-.5.5-.5v-1-1-1-1-2-2l-.5-1-.5-1 .5-.5.5-.5 1-1 1-1 1-.5 1-.5h1 1l1-1 1-1-1.5-.5-1.5-.5-1.5-.5-1.5-.5-.5-1.5-.5-1.5.5-.5.5-.5v-1.5-1.5l1-1.5 1-1.5 11-9 11-9v1.5 1.5l-.5 1.5-.5 1.5-1 1-1 1-.5 2-.5 2-1 1-1 1-1.5 1-1.5 1-.5.5-.5.5-1 1-1 1-.5.5-.5.5-1 .5-1 .5.5.5.5.5-.5.5-.5.5v1.5 1.5l1-1.5 1-1.5 1-1 1-1 1-1.5 1-1.5 1.5-.5 1.5-.5 1-1.5 1-1.5 1.5-.5 1.5-.5 1 .5 1 .5 1.5.5 1.5.5 1-12 1-12 1-2 1-2 2-1.5 2-1.5" style="fill:#a63136;stroke:#a63136"/><path d="m571 529v-3-1-1l-16-16-16-16 3.5-26 3.5-26-1-1-1-1-.5-.5-.5-.5-1-.5-1-.5h-1-1-1-1-1-1l-1 .5-1 .5-.5.5-.5.5h-1-1-1-1-1-1-1.5-1.5-1-1-1.5-1.5l-2 .5-2 .5-1.5.5-1.5.5-19 13.5-19 13.5-.5.5-.5.5-1.5.5-1.5.5h-1-1l-.5-.5-.5-.5h-1-1-.5-.5l-.5-.5-.5-.5-.5-.5-.5-.5-.5.5-.5.5-.5.5-.5.5-1 .5-1 .5-1 1-1 1-1 1-1 1-1 1.5-1 1.5-1 .5-1 .5 12 1 12 1 7 1.5 7 1.5-16.5 10-16.5 10 13.5 7.5 13.5 7.5 20.5-5 20.5-5 20.5 17 20.5 17v2 2l1 1.5 1 1.5.5 2 .5 2v-2-2l-.5-1.5-.5-1.5v-2.5-2.5l.5-1.5.5-1.5 1-1 1-1-.5-1-.5-1 .5-1.5.5-1.5 1-1.5 1-1.5.5 1 .5 1" style="fill:#df484d;stroke:#df484d"/><path d="m570 655l-29-3-1 1.5-1 1.5-1 1.5-1 1.5 1-1 1-1 .5-.5.5-.5 1-.5 1-.5h1 1 1 1l.5.5.5.5 1 .5 1 .5h1 1l.5.5.5.5.5.5.5.5 1 .5 1 .5 1 1 1 1v-1-1-1-1h1.5 1.5l.5.5.5.5.5-.5.5-.5.5.5.5.5h1.5 1.5 1 1l.5-.5.5-.5.5-1 .5-1" style="fill:#7e5149;stroke:#7e5149"/><g style="fill:#312727;stroke:#312727"><path d="m568 683l-50 13 1 1 1 1 .5.5.5.5.5.5.5.5 1 .5 1 .5.5 1.5.5 1.5.5 1 .5 1 21-11.5 21-11.5"/><path d="m568 566v-3-2-2l-1-2-1-2-25-18.5-25-18.5-3 14.5-3 14.5-8 21.5-8 21.5 23.5-12 23.5-12 .5-1 .5-1 .5-.5.5-.5h1 1l1.5.5 1.5.5 1 .5 1 .5v1 1l.5.5.5.5.5.5.5.5.5 1 .5 1h1 1l.5.5.5.5h1 1 1.5 1.5l1-.5 1-.5.5-1 .5-1 1-.5 1-.5 1-1 1-1"/><path d="m568 231l-17 2 1 7 1 7 1 1 1 1 .5-1.5.5-1.5 1 .5 1 .5.5.5.5.5-1.5.5-1.5.5v1.5 1.5 1 1l.5.5.5.5.5.5.5.5 1-.5 1-.5.5-.5.5-.5.5-.5.5-.5v-1-1l1-1 1-1 2 .5 2 .5-.5-1-.5-1v-2-2l-.5-2-.5-2-.5-1.5-.5-1.5.5-1.5.5-1.5 1-1.5 1-1.5"/></g><g style="fill:#a63136;stroke:#a63136"><path d="m563 574l1-1-.5-1-.5-1-1 .5-1 .5h-1.5-1.5-1-1l-.5-.5-.5-.5h-1-1l-.5-1-.5-1-.5-.5-.5-.5-.5-.5-.5-.5v-1-1l-1-.5-1-.5.5 1 .5 1 .5 1 .5 1v1 1l.5.5.5.5.5.5.5.5v1 1l-1-.5-1-.5-1-.5-1-.5-.5.5-.5.5-1-.5-1-.5h-2-2l-.5.5-.5.5h-1-1l-1 .5-1 .5h2.5 2.5l1.5.5 1.5.5 1-.5 1-.5h1 1l1 1 1 1h1.5 1.5 1 1 2 2l1-.5 1-.5 1-.5 1-.5"/><path d="m563 541l-41-34-20.5 5-20.5 5-13.5-7.5-13.5-7.5 16.5-10 16.5-10-7-1.5-7-1.5-12-1-12-1-1 .5-1 .5-1 .5-1 .5v1 1l-.5 1-.5 1-1 1-1 1-1.5 1-1.5 1h-2-2l-2 .5-2 .5-1.5-.5-1.5-.5-2.5.5-2.5.5 10.5 18 10.5 18-.5 1-.5 1-2 .5-2 .5-1.5.5-1.5.5-1.5.5-1.5.5-1.5 1-1.5 1-1 1-1 1 .5 2 .5 2v1 1l-2-.5-2-.5-.5 1.5-.5 1.5-.5.5-.5.5 1 .5 1 .5h1 1l1-.5 1-.5.5-1 .5-1 .5.5.5.5v-1.5-1.5l-.5-1.5-.5-1.5 28-8.5 28-8.5 19.5-3 19.5-3 19 16.5 19 16.5v-2-2"/></g><path d="m562 711l1-1h-2-2l-2 .5-2 .5-1.5.5-1.5.5-1.5 1-1.5 1-1 1-1 1-2 .5-2 .5-1 .5-1 .5-.5 1-.5 1h3.5 3.5 2 2 2.5 2.5 1 1l1-2.5 1-2.5 1-2 1-2" style="fill:#312727;stroke:#312727"/><g style="fill:#672326;stroke:#672326"><path d="m559 599l-22 18 1.5-.5 1.5-.5.5-.5.5-.5v-1-1h1 1l1 .5 1 .5h1 1l1.5.5 1.5.5 1.5-1 1.5-1 1-1 1-1 .5-2 .5-2 1-1 1-1 .5-1.5.5-1.5v-1.5-1.5"/><path d="m558 449h1l-6-1.5-6-1.5-4.5 29.5-4.5 29.5 10-28 10-28"/></g><path d="m555 390l1-3v-1-1h-1-1-1-1l-1.5-.5-1.5-.5.5-1 .5-1 .5-.5.5-.5-.5-1.5-.5-1.5-1.5-.5-1.5-.5.5 1.5.5 1.5-13 16.5-13 16.5 16.5-11.5 16.5-11.5" style="fill:#8e8588;stroke:#8e8588"/><path d="m552 574v-2l-.5-.5-.5-.5-.5-.5-.5-.5v-1-1l-.5-1-.5-1-.5-1-.5-1-1.5-.5-1.5-.5h-1-1l-.5.5-.5.5-.5 1-.5 1-.5 1.5-.5 1.5v1 1h-1-1l-.5.5-.5.5h-1-1l-1 .5-1 .5-.5.5-.5.5-.5.5-.5.5-.5.5-.5.5h-1-1-1.5-1.5l-.5.5-.5.5h-1-1l-.5.5-.5.5-1 .5-1 .5-.5.5-.5.5h-1-1l-.5.5-.5.5-1 .5-1 .5-.5 1-.5 1h1 1l1-.5 1-.5 1-.5 1-.5h1 1l.5-.5.5-.5.5-.5.5-.5 1-.5 1-.5.5-.5.5-.5h1 1 1 1 1 1l1-.5 1-.5.5-.5.5-.5 1-1 1-1 1-.5 1-.5h1 1l.5-.5.5-.5h2 2l1 .5 1 .5.5-.5.5-.5 1 .5 1 .5 1 .5 1 .5" style="fill:#7e5149;stroke:#7e5149"/><path d="m550 373l1-3-1-1-1-1-1-1.5-1-1.5-1-1-1-1-2-.5-2-.5h-2-2l-1.5-1-1.5-1 6.5 8.5 6.5 8.5-1-.5-1-.5-.5-.5-.5-.5-.5-1-.5-1 .5-.5.5-.5.5-.5.5-.5h1 1l1.5 1 1.5 1" style="fill:#8e8588;stroke:#8e8588"/><path d="m549 616l1-1-1.5-.5-1.5-.5h-1-1l-1-.5-1-.5h-1-1v1 1l-.5.5-.5.5-1.5.5-1.5.5-1 1.5-1 1.5v1.5 1.5l-.5.5-.5.5.5 1.5.5 1.5 1.5.5 1.5.5 1.5.5 1.5.5 1-.5 1-.5.5-1.5.5-1.5v-1.5-1.5l.5-.5.5-.5-.5-.5-.5-.5 1-.5 1-.5.5-.5.5-.5 1-1 1-1" style="fill:#7e5149;stroke:#7e5149"/><path d="m548 380l-1-3-6.5-8.5-6.5-8.5.5-1.5.5-1.5.5-.5.5-.5.5-.5.5-.5.5-1 .5-1 .5-.5.5-.5.5-.5.5-.5.5-.5.5-.5.5-.5.5-.5.5-1 .5-1 .5-.5.5-.5v-1-1-1-1-1.5-1.5l-.5-.5-.5-.5-.5-.5-.5-.5v-1-1l-.5-1-.5-1-.5-.5-.5-.5v-1-1l-.5-1-.5-1v-19-19-1.5-1.5l3.5-34.5 3.5-34.5v-.5-.5l-5.5-36-5.5-36h-.5-.5l-4.5 35.5-4.5 35.5-17 15.5-17 15.5.5 21 .5 21 5 20.5 5 20.5-3.5 24-3.5 24-16 12.5-16 12.5-9.5-7-9.5-7v-20.5-20.5l-14.5-4-14.5-4-13-15.5-13-15.5 4.5-12 4.5-12 13 22.5 13 22.5-9-23.5-9-23.5-9.5-21-9.5-21 25.5 4 25.5 4-21.5-10.5-21.5-10.5 1 1 1 1 1 .5 1 .5 1 1 1 1 .5.5.5.5 1 .5 1 .5 1.5.5 1.5.5v1 1l-26-17.5-26-17.5 15 30 15 30-14.5-17-14.5-17-23.5-6-23.5-6-8.5-12.5-8.5-12.5-1.5-.5-1.5-.5v1.5 1.5l-.5 1-.5 1v1.5 1.5 2 2 1 1l-.5-.5-.5-.5-.5-.5-.5-.5v1 1 1 1 1.5 1.5 1 1l-.5.5-.5.5-.5.5-.5.5-.5 1-.5 1-.5.5-.5.5v1 1l-.5.5-.5.5-.5 1-.5 1-.5.5-.5.5v1 1l-.5.5-.5.5.5 1 .5 1-.5 1.5-.5 1.5 1-1 1-1 1-.5 1-.5.5-.5.5-.5.5.5.5.5-.5 1.5-.5 1.5v1.5 1.5l-1 1-1 1-.5 1.5-.5 1.5-1 1.5-1 1.5-1.5.5-1.5.5-1.5 1-1.5 1-1-.5-1-.5h-1-1l10.5-8 10.5-8 19 10.5 19 10.5 9.5-3 9.5-3 15.5 20 15.5 20-12 2.5-12 2.5 9 17.5 9 17.5 12.5 15 12.5 15 1 1 1 1 1 1 1 1 1 1.5 1 1.5v2 2l18.5 13.5 18.5 13.5-29-11-29-11-1-.5-1-.5-1-.5-1-.5-1.5-1-1.5-1-1.5-.5-1.5-.5-2-.5-2-.5-1.5-.5-1.5-.5-2.5-.5-2.5-.5-31.5-1.5-31.5-1.5-5 10.5-5 10.5 18 2.5 18 2.5 3.5 20 3.5 20-7 14.5-7 14.5-1 16.5-1 16.5 20-2.5 20-2.5 17.5-4 17.5-4 12-6.5 12-6.5 8.5-17 8.5-17 8 1 8 1 14 19.5 14 19.5 19-13.5 19-13.5.5-1 .5-1v-1.5-1.5l1-1 1-1 .5-2 .5-2 .5-1.5.5-1.5.5-2 .5-2 1-1 1-1 .5-1.5.5-1.5 1-2 1-2 13-16.5 13-16.5" style="fill:#e09f8b;stroke:#e09f8b"/><path d="m548 314l1-4-.5-1.5-.5-1.5-1-1.5-1-1.5-1-1-1-1-1-1.5-1-1.5-.5-1.5-.5-1.5-.5-2-.5-2-.5-1-.5-1v19 19l.5-1.5.5-1.5.5-.5.5-.5 1-1 1-1 1-.5 1-.5.5-.5.5-.5.5-1.5.5-1.5.5-1.5.5-1.5" style="fill:#8e8588;stroke:#8e8588"/><path d="m547 420l-19-6 9 3.5 9 3.5.5-.5.5-.5" style="fill:#672326;stroke:#672326"/><path d="m547 242l1-4v-2-2-2.5-2.5-2-2l-.5-2-.5-2-.5-1.5-.5-1.5-3.5 34.5-3.5 34.5 4-22.5 4-22.5" style="fill:#8e8588;stroke:#8e8588"/><path d="m545 704l-19 2-.5-1-.5-1-.5-1.5-.5-1.5-1-.5-1-.5-.5-.5-.5-.5-.5-.5-.5-.5-1-1-1-1-1-1.5-1-1.5-1.5-1-1.5-1 1-1 1-1 1-1.5 1-1.5-.5-1.5-.5-1.5-2-.5-2-.5-1-1-1-1-.5-1.5-.5-1.5-.5-2-.5-2-.5-1-.5-1-1-.5-1-.5.5-1 .5-1-1-1-1-1-.5-.5-.5-.5v-1.5-1.5l-.5-1.5-.5-1.5-.5-.5-.5-.5-1-.5-1-.5-1-1-1-1-.5-1.5-.5-1.5-11-14.5-11-14.5-3.5-13.5-3.5-13.5-.5 1-.5 1 .5 1 .5 1v2 2l.5 1.5.5 1.5.5.5.5.5v1.5 1.5l-.5 1.5-.5 1.5.5.5.5.5.5 1 .5 1 .5 1.5.5 1.5v1 1 1.5 1.5 1.5 1.5 1.5 1.5l-.5.5-.5.5-.5 1-.5 1-.5.5-.5.5-.5.5-.5.5h-1-1-1.5-1.5l-1.5.5-1.5.5-.5 1-.5 1v1 1l-.5-.5-.5-.5h-1-1l.5 1 .5 1 .5.5.5.5-.5.5-.5.5.5.5.5.5.5 1 .5 1h1 1l-.5 1.5-.5 1.5v2.5 2.5l18 7 18 7 12 25.5 12 25.5h2.5 2.5 2 2 2.5 2.5 2 2 .5.5v-2-2l1-1 1-1 1-1.5 1-1.5-.5-1.5-.5-1.5 1-1.5 1-1.5 1-.5 1-.5" style="fill:#7e5149;stroke:#7e5149"/><path d="m532 492l-18-43-2 14.5-2 14.5 11 7 11 7" style="fill:#a63136;stroke:#a63136"/><path d="m530 643v-3l-1-.5-1-.5-.5.5-.5.5-.5 1.5-.5 1.5-1-.5-1-.5-.5.5-.5.5-1 1-1 1-.5 1-.5 1-.5.5-.5.5h-1-1l-1 1-1 1 1 .5 1 .5h1 1l1 1 1 1 .5 1 .5 1 .5.5.5.5 1 1 1 1v-1.5-1.5l-.5-.5-.5-.5-.5-1-.5-1 .5-1 .5-1-1-1-1-1 .5-.5.5-.5.5-1.5.5-1.5 1 1 1 1 1.5-.5 1.5-.5.5-1 .5-1" style="fill:#7e5149;stroke:#7e5149"/><path d="m528 630l-21 3-1.5 1-1.5 1-1.5 1-1.5 1-.5 1-.5 1 14-4.5 14-4.5" style="fill:#df484d;stroke:#df484d"/><path d="m520 663l1-3-.5-1.5-.5-1.5-1-.5-1-.5-.5-.5-.5-.5h-2-2-1.5-1.5l-.5-.5-.5-.5h-1-1l-.5-.5-.5-.5h-1.5-1.5l-.5-.5-.5-.5h-1-1-2-2l.5 1.5.5 1.5 1 1 1 1 1 .5 1 .5.5.5.5.5.5 1.5.5 1.5v1.5 1.5l.5.5.5.5 1 1 1 1-.5 1-.5 1 1 .5 1 .5 2.5-.5 2.5-.5 1-1 1-1 2-.5 2-.5 1-2 1-2" style="fill:#312727;stroke:#312727"/><g style="fill:#8e8588;stroke:#8e8588"><path d="m520 425l1-3-.5-.5-.5-.5v-2-2l-.5 1.5-.5 1.5-1 1-1 1-.5 2-.5 2-.5 1.5-.5 1.5-.5 2-.5 2-1 1-1 1v1.5 1.5l-.5 1-.5 1 1.5-.5 1.5-.5 2-.5 2-.5.5-1.5.5-1.5v-2.5-2.5-1.5-1.5l.5-1 .5-1"/><path d="m518 720h1l-12-25.5-12-25.5-18-7-18-7-.5 1-.5 1v2 2l-.5 1.5-.5 1.5-.5 1-.5 1-1.5.5-1.5.5-.5 1-.5 1-6 24-6 24-1-1.5-1-1.5 4-16 4-16 1.5-1.5 1.5-1.5.5-1.5.5-1.5 1-1.5 1-1.5 1-1 1-1 .5 1.5.5 1.5h1 1 .5.5l.5-1.5.5-1.5.5-2 .5-2v-2.5-2.5l21 29 21 29h3 3 2 2 2.5 2.5.5.5"/></g><path d="m518 168l-15-54h-.5-.5l-19.5-1.5-19.5-1.5-7.5 13-7.5 13-20-7.5-20-7.5-14-3.5-14-3.5-11-3.5-11-3.5-4.5 28-4.5 28 9-15 9-15 14 18.5 14 18.5 21 8.5 21 8.5 6-15.5 6-15.5 16.5 2 16.5 2 8 26.5 8 26.5-27.5 6.5-27.5 6.5-25.5-10-25.5-10-19-17.5-19-17.5v1 1l18.5 17.5 18.5 17.5 7 4 7 4 36 6.5 36 6.5 2.5-.5 2.5-.5 2-.5 2-.5 1-1 1-1 2-.5 2-.5 1-1 1-1v-.5-.5l5-17 5-17 .5-1 .5-1 1-.5 1-.5v-1-1l-.5-.5-.5-.5v-1-1l1-.5 1-.5-.5-.5-.5-.5.5-.5.5-.5.5-.5.5-.5 1 .5 1 .5h1 1l.5.5.5.5v1 1l-.5 1.5-.5 1.5v1.5 1.5 1 1l-.5 1-.5 1-.5 1.5-.5 1.5v1 1l-.5.5-.5.5.5.5.5.5.5-1 .5-1 .5-.5.5-.5 1-1 1-1 .5-1 .5-1 .5-1.5.5-1.5v-2-2l.5-2 .5-2v-2-2-2.5-2.5-1-1" style="fill:#aaa5ab;stroke:#aaa5ab"/><path d="m514 195l1-3-1 1-1 1-.5.5-.5.5-.5 1-.5 1-.5-.5-.5-.5.5-.5.5-.5v-1-1l.5-1.5.5-1.5h-.5-.5l-1 .5-1 .5-.5-.5-.5-.5-.5-1-.5-1h-1.5-1.5l-5 17-5 17 1-.5 1-.5 1-1 1-1 1.5-1 1.5-1 1-1 1-1 1-1 1-1 1-1.5 1-1.5 1-1 1-1 .5-2 .5-2 1-1 1-1 .5-2 .5-2 .5-1.5.5-1.5" style="fill:#efc7b3;stroke:#efc7b3"/><path d="m514 163l-22-33 10.5 15 10.5 15 .5 1.5.5 1.5" style="fill:#8e8588;stroke:#8e8588"/><path d="m513 183l1-3v-1-1l-.5-.5-.5-.5h-1-1l-1-.5-1-.5-.5.5-.5.5-.5.5-.5.5.5.5.5.5-1 .5-1 .5v1 1l.5.5.5.5v1 1l-1 .5-1 .5-.5 1-.5 1h1.5 1.5l.5 1 .5 1 .5.5.5.5 1-.5 1-.5h.5.5l.5-1 .5-1v-1-1-1.5-1.5" style="fill:#e09f8b;stroke:#e09f8b"/><path d="m512 632l-17-14 1 1 1 1 1.5.5 1.5.5.5 2 .5 2 1 1 1 1v1.5 1.5l-.5 1.5-.5 1.5-1 1-1 1-1.5 1-1.5 1v2 2l1.5-1 1.5-1 .5-1 .5-1 1.5-1 1.5-1 1.5-1 1.5-1h1 1l1-.5 1-.5h.5.5" style="fill:#7e5149;stroke:#7e5149"/><path d="m503 561l-44 16-.5.5-.5.5-1-.5-1-.5-1-.5-1-.5 6 11 6 11 .5-1 .5-1 18-17.5 18-17.5" style="fill:#a63136;stroke:#a63136"/><path d="m502 114h1l-21.5-11.5-21.5-11.5-11 17.5-11 17.5-22-7.5-22-7.5-16-6.5-16-6.5-12.5 21-12.5 21 8.5 17 8.5 17v-1-1l-.5-1.5-.5-1.5-1-1.5-1-1.5-1-1-1-1 4.5-28 4.5-28 11 3.5 11 3.5 14 3.5 14 3.5 20 7.5 20 7.5 7.5-13 7.5-13 19.5 1.5 19.5 1.5" style="fill:#efc7b3;stroke:#efc7b3"/><path d="m501 720h1l-21-29-21-29 2-.5 2-.5v1 1 2.5 2.5l.5 1.5.5 1.5-.5 1.5-.5 1.5v2.5 2.5l-.5 2-.5 2-.5 2.5-.5 2.5 14.5 8 14.5 8 .5 1 .5 1 1 1 1 1 .5 1.5.5 1.5 1 1.5 1 1.5.5 1.5.5 1.5.5 1.5.5 1.5h1 1" style="fill:#aaa5ab;stroke:#aaa5ab"/><path d="m498 720h1l-.5-1.5-.5-1.5-.5-1.5-.5-1.5-1-1.5-1-1.5-.5-1.5-.5-1.5-1-1-1-1-.5-1-.5-1h-.5-.5l-2-.5-2-.5-1-1-1-1h-2-2l-2 .5-2 .5-1 1-1 1-1 1.5-1 1.5-1 1-1 1-1.5 1-1.5 1-1 1-1 1-1 1-1 1-.5 1-.5 1-.5.5-.5.5-.5 1-.5 1h3 3 2 2 2.5 2.5 2 2 2.5 2.5 2 2 2.5 2.5 2 2 .5.5" style="fill:#ffe;stroke:#ffe"/><path d="m498 214l-16-53-16.5-2-16.5-2-6 15.5-6 15.5-21-8.5-21-8.5-14-18.5-14-18.5-9 15-9 15 1 1 1 1 1 1.5 1 1.5.5 1.5.5 1.5 19 17.5 19 17.5 25.5 10 25.5 10 27.5-6.5 27.5-6.5" style="fill:#8e8588;stroke:#8e8588"/><path d="m497 554l-32 5 14-.5 14-.5 2-2 2-2" style="fill:#312727;stroke:#312727"/><path d="m490 704h1l-14.5-8-14.5-8-1 .5-1 .5-1 1-1 1v2 2l-.5 2-.5 2-1 1-1 1-.5 2-.5 2-.5 1.5-.5 1.5.5 1 .5 1 .5-1 .5-1 1-.5 1-.5.5-.5.5-.5 1-.5 1-.5 1.5-.5 1.5-.5h1 1 1 1l.5-.5.5-.5 1-.5 1-.5h1 1l.5-.5.5-.5.5-.5.5-.5-.5 1.5-.5 1.5-.5 1-.5 1-1 1-1 1-1 1-1 1-1.5 1-1.5 1-1 2-1 2 1-1 1-1 1-1 1-1 1.5-1 1.5-1 1-1 1-1 1-1.5 1-1.5 1-1 1-1 2-.5 2-.5h2 2l1 1 1 1 2 .5 2 .5" style="fill:#efc7b3;stroke:#efc7b3"/><path d="m489 614l1-3-1-1-1-1-.5-2-.5-2-1 1-1 1-1 1.5-1 1.5-1 1-1 1-.5 2-.5 2-1.5.5-1.5.5-1.5.5-1.5.5v2.5 2.5l1.5-.5 1.5-.5.5-.5.5-.5 1.5-.5 1.5-.5 1-.5 1-.5.5-.5.5-.5 1.5-.5 1.5-.5 1-1.5 1-1.5" style="fill:#312727;stroke:#312727"/><path d="m476 231l1-1-36-6.5-36-6.5 29.5 8 29.5 8 6-1 6-1" style="fill:#efc7b3;stroke:#efc7b3"/><path d="m473 703l1-3-.5.5-.5.5-.5.5-.5.5h-1-1l-1 .5-1 .5-.5.5-.5.5h-1-1-1-1l-1.5.5-1.5.5-1 .5-1 .5-.5.5-.5.5-1 .5-1 .5-.5 1-.5 1-.5 2-.5 2 1 1.5 1 1.5v1.5 1.5h2.5 2.5l.5-1 .5-1 .5-.5.5-.5.5-1 .5-1 1-2 1-2 1.5-1 1.5-1 1-1 1-1 1-1 1-1 .5-1 .5-1" style="fill:#aaa5ab;stroke:#aaa5ab"/><path d="m472 468l1-1-14-19.5-14-19.5-8-1-8-1-8.5 17-8.5 17-12 6.5-12 6.5-17.5 4-17.5 4-20 2.5-20 2.5 1-16.5 1-16.5 7-14.5 7-14.5-3.5-20-3.5-20-18-2.5-18-2.5 5-10.5 5-10.5 31.5 1.5 31.5 1.5-29.5-2.5-29.5-2.5-21 14.5-21 14.5-16 17.5-16 17.5 1 17.5 1 17.5 20.5 10 20.5 10 25 5.5 25 5.5 22.5 1 22.5 1 22-5.5 22-5.5 24.5-10 24.5-10-.5 1-.5 1-1 1-1 1 .5.5.5.5.5 1 .5 1v2 2l-.5 1.5-.5 1.5 1-1 1-1 1-.5 1-.5.5-.5.5-.5.5-.5.5-.5.5.5.5.5.5.5.5.5h.5.5 1 1l.5.5.5.5h1 1l1.5-.5 1.5-.5" style="fill:#8e8588;stroke:#8e8588"/><path d="m471 628v-3-1.5-1.5-1-1l-.5-1.5-.5-1.5-.5-1-.5-1-.5-.5-.5-.5.5-1.5.5-1.5v-1.5-1.5l-.5-.5-.5-.5-.5-1.5-.5-1.5v-2-2l-.5-1-.5-1-6-11-6-11-2-1-2-1-1.5 1-1.5 1-1 .5-1 .5 7.5 10.5 7.5 10.5-.5 1-.5 1-1 1.5-1 1.5v1 1 2.5 2.5l-.5 1.5-.5 1.5v2 2l.5 2 .5 2v2 2l-.5 2-.5 2v2 2l-.5 1.5-.5 1.5 2 .5 2 .5 1.5-.5 1.5-.5h1.5 1.5 1 1l.5-.5.5-.5.5-.5.5-.5.5-1 .5-1 .5-.5.5-.5v-1.5-1.5" style="fill:#df484d;stroke:#df484d"/><path d="m467 290l-51-20 10 18.5 10 18.5 15.5-8.5 15.5-8.5" style="fill:#ffe;stroke:#ffe"/><path d="m464 674l1-3-.5-1.5-.5-1.5v-2.5-2.5-1-1l-2 .5-2 .5v2.5 2.5l-.5 2-.5 2-.5 1.5-.5 1.5h-.5-.5-1-1l-.5-1.5-.5-1.5-1 1-1 1-1 1.5-1 1.5-.5 1.5-.5 1.5-1.5 1.5-1.5 1.5 1.5 1.5 1.5 1.5v1 1 1.5 1.5l-.5 1.5-.5 1.5-1 1.5-1 1.5v2 2l-.5 2-.5 2v2 2 2 2l-1 1.5-1 1.5-2.5-.5-2.5-.5 1 1.5 1 1.5 1 1.5 1 1.5h3.5 3.5 2 2 1 1v-1.5-1.5l-1-1.5-1-1.5.5-2 .5-2-.5-1-.5-1 .5-1.5.5-1.5.5-2 .5-2 1-1 1-1 .5-2 .5-2v-2-2l1-1 1-1 1-.5 1-.5.5-2.5.5-2.5.5-2 .5-2v-2.5-2.5" style="fill:#e09f8b;stroke:#e09f8b"/><g style="fill:#a63136;stroke:#a63136"><path d="m463 552l-1-2h-1.5-1.5-1-1l-1.5.5-1.5.5-1 .5-1 .5-.5.5-.5.5-1.5.5-1.5.5-1.5-.5-1.5-.5-1-1-1-1h-1-1l1 1 1 1v2.5 2.5l.5 1.5.5 1.5h1.5 1.5l1-1 1-1 2-.5 2-.5 1.5-.5 1.5-.5 1.5-1 1.5-1 1-1 1-1 1-.5 1-.5"/><path d="m460 598l-15-21-1 2-1 2v2.5 2.5l5.5 18.5 5.5 18.5-.5 1.5-.5 1.5v1 1 1 1 2 2l1 1 1 1 .5-1.5.5-1.5v-2-2l.5-2 .5-2v-2-2l-.5-2-.5-2v-2-2l.5-1.5.5-1.5v-2.5-2.5-1-1l1-1.5 1-1.5.5-1 .5-1"/><path d="m459 650l1-3h-1-1l-.5-1-.5-1-.5-.5-.5-.5.5-.5.5-.5-.5-.5-.5-.5-.5-1-.5-1h1 1l.5.5.5.5v-1-1l.5-1 .5-1-2-.5-2-.5-.5.5-.5.5v2 2l-.5.5-.5.5-.5.5-.5.5-.5.5-.5.5v1.5 1.5l.5.5.5.5-.5.5-.5.5v1.5 1.5h1.5 1.5l.5 1.5.5 1.5-1 1.5-1 1.5.5 1.5.5 1.5 1 1.5 1 1.5v-2-2l1-1.5 1-1.5.5-1 .5-1v-2.5-2.5"/></g><path d="m458 578l1-1-1.5-1.5-1.5-1.5-.5-1-.5-1-.5-.5-.5-.5-1.5-.5-1.5-.5-1-.5-1-.5h-1-1v-2-2-2-2h-1.5-1.5l-.5-1.5-.5-1.5v-2.5-2.5l-1-1-1-1h1 1l-.5-2-.5-2-1.5-1-1.5-1-1-1-1-1-1-1.5-1-1.5-.5-1.5-.5-1.5-2-1-2-1 .5 1.5.5 1.5v1.5 1.5l-.5-.5-.5-.5-.5 1-.5 1v2 2l5.5 10 5.5 10-1.5 1-1.5 1-.5 1.5-.5 1.5 2 .5 2 .5 1.5.5 1.5.5-1 1.5-1 1.5.5 1.5.5 1.5v2 2l.5 1.5.5 1.5v-2.5-2.5l1-2 1-2 1-.5 1-.5 1.5-1 1.5-1 2 1 2 1 1 .5 1 .5 1 .5 1 .5" style="fill:#7e5149;stroke:#7e5149"/><path d="m457 664l1-3v-2-2l-1 1.5-1 1.5v2 2l-1-1.5-1-1.5-.5-1.5-.5-1.5 1-1.5 1-1.5-.5-1.5-.5-1.5h-1.5-1.5l-1.5 1.5-1.5 1.5-1.5.5-1.5.5-.5.5-.5.5-.5 1-.5 1-1 .5-1 .5-1 1.5-1 1.5-.5 1.5-.5 1.5-1 1-1 1v1 1l-.5 1-.5 1-.5 1.5-.5 1.5v1.5 1.5l1-1 1-1 1.5-1 1.5-1 1-1 1-1 2-.5 2-.5 1.5.5 1.5.5 1-1.5 1-1.5 1.5-1 1.5-1 1.5-.5 1.5-.5.5-1 .5-1" style="fill:#df484d;stroke:#df484d"/><g style="fill:#7e5149;stroke:#7e5149"><path d="m457 457l-49 20-22 5.5-22 5.5-22.5-1-22.5-1 1 .5 1 .5.5 1 .5 1v2.5 2.5l1 1 1 1 1-1 1-1 1-1.5 1-1.5 1.5-.5 1.5-.5 1 .5 1 .5-1 1-1 1 .5 1 .5 1-1 1-1 1-.5 1-.5 1-.5 1.5-.5 1.5-.5.5-.5.5-.5.5-.5.5-.5.5-.5.5h-1.5-1.5l-.5-.5-.5-.5v-1-1-1-1l-.5-1-.5-1v-1-1l-.5-.5-.5-.5-.5-.5-.5-.5v-1.5-1.5l.5-.5.5-.5v-2-2l-25-5.5-25-5.5-20.5-10-20.5-10-1-17.5-1-17.5 16-17.5 16-17.5 21-14.5 21-14.5 29.5 2.5 29.5 2.5 2.5.5 2.5.5 1.5.5 1.5.5 2 .5 2 .5 1.5.5 1.5.5 1.5 1 1.5 1 1 .5 1 .5 1 .5 1 .5 4.5-3.5 4.5-3.5-2-1.5-2-1.5-1.5-.5-1.5-.5-1.5-1-1.5-1-1-1-1-1-2-.5-2-.5-1-1-1-1-1.5-1-1.5-1-.5-2-.5-2-2-14-2-14-10-4.5-10-4.5-7.5-16-7.5-16-15.5-17-15.5-17-14.5 18-14.5 18 2 20.5 2 20.5-19.5 16-19.5 16-16 8.5-16 8.5-18 2.5-18 2.5 5.5-25 5.5-25-.5-23-.5-23 24.5-10 24.5-10 22.5-13 22.5-13 .5-12 .5-12-19 16.5-19 16.5-26.5 8-26.5 8-21.5-13-21.5-13-8-7.5-8-7.5-18 17.5-18 17.5 10 13.5 10 13.5 10.5 7 10.5 7-30.5 19-30.5 19v1.5 1.5l-.5 1.5-.5 1.5-.5 1.5-.5 1.5-.5 1.5-.5 1.5 22-10 22-10 13.5-16 13.5-16-2-25.5-2-25.5 13 14.5 13 14.5.5 28 .5 28 2.5 32 2.5 32 15 36 15 36 9.5-5.5 9.5-5.5 10.5 18 10.5 18 21.5 7 21.5 7 11.5 7 11.5 7h17.5 17.5l17.5-4 17.5-4 11 .5 11 .5h2 2l1.5-.5 1.5-.5 1.5-1 1.5-1 1.5-.5 1.5-.5 1-1 1-1 1.5-1 1.5-1 .5-1.5.5-1.5 1-.5 1-.5 1-2 1-2h2 2l1.5-.5 1.5-.5h2 2l2.5-.5 2.5-.5 1.5.5 1.5.5 2-.5 2-.5h2 2l1.5-1 1.5-1 1-1 1-1 .5-1 .5-1h-.5-.5l.5-1 .5-1 1-.5 1-.5 1-.5 1-.5 1-.5 1-.5 1-1.5 1-1.5 1-1 1-1 .5-1.5.5-1.5v-2-2l-.5-1-.5-1-.5-.5-.5-.5 1-1 1-1 .5-1 .5-1"/><path d="m454 637l1-1-1-1-1-1-.5 2-.5 2-.5.5-.5.5-.5.5-.5.5-.5.5-.5.5-.5 1-.5 1h-1-1-1-1v1 1l-1 .5-1 .5v1 1 1 1l-.5.5-.5.5-.5 1-.5 1-1.5.5-1.5.5-1.5.5-1.5.5-25.5 11-25.5 11-42.5 13-42.5 13-1.5 1-1.5 1-2-.5-2-.5.5 1 .5 1-.5 1.5-.5 1.5-.5 1.5-.5 1.5-1 1.5-1 1.5-1 1-1 1v1.5 1.5h1.5 1.5 1.5 1.5l21-14 21-14 28-7.5 28-7.5 27.5-10.5 27.5-10.5 1.5-.5 1.5-.5 1.5-1.5 1.5-1.5v-1.5-1.5l.5-.5.5-.5-.5-.5-.5-.5v-1.5-1.5l.5-.5.5-.5.5-.5.5-.5.5-.5.5-.5v-2-2"/></g><path d="m454 623l-11-37-.5-1.5-.5-1.5v-2-2l-.5-1.5-.5-1.5 1-1.5 1-1.5-1.5-.5-1.5-.5-2-.5-2-.5h-1.5-1.5v-1-1l-1-.5-1-.5v-1-1l-.5-.5-.5-.5v-1-1-1-1-1-1l-.5-1-.5-1v-1-1l-.5-.5-.5-.5-.5-.5-.5-.5.5-1 .5-1v-1-1l-.5-.5-.5-.5 1-1 1-1v-2-2l-1 .5-1 .5h-1-1l-1-.5-1-.5.5-.5.5-.5.5-1.5.5-1.5-30 1-30 1-24.5 3-24.5 3-15.5-5-15.5-5 27-.5 27-.5 25-15 25-15-11-.5-11-.5-17.5 4-17.5 4h-17.5-17.5l-11.5-7-11.5-7-21.5-7-21.5-7-10.5-18-10.5-18-9.5 5.5-9.5 5.5 11 4 11 4 17 17.5 17 17.5 22 8.5 22 8.5 17 2.5 17 2.5 18.5-3 18.5-3-26.5 9-26.5 9-20.5-1-20.5-1-34-1.5-34-1.5.5 1 .5 1h1 1l-.5 1.5-.5 1.5-1 .5-1 .5-1 1-1 1 1 1.5 1 1.5.5.5.5.5-1.5 1-1.5 1h-1.5-1.5l-.5 1-.5 1-.5 1-.5 1-1 .5-1 .5-2 .5-2 .5-1.5.5-1.5.5h-2.5-2.5-2-2l-2-.5-2-.5v-2-2l2.5-.5 2.5-.5 1.5-.5 1.5-.5.5-1 .5-1-6.5 14.5-6.5 14.5 14.5 1 14.5 1 5.5-14 5.5-14 31.5 1 31.5 1 17 3.5 17 3.5 19.5 1 19.5 1 26.5-6 26.5-6 7 11.5 7 11.5-14.5 4-14.5 4 29.5 3.5 29.5 3.5-12 5-12 5-14.5 18-14.5 18 6-14.5 6-14.5-18 5.5-18 5.5-27 3.5-27 3.5-11.5 13-11.5 13-19.5-4-19.5-4-25.5 10-25.5 10 1.5 11 1.5 11-20.5-4-20.5-4-27.5-2.5-27.5-2.5v1.5 1.5 1 1l.5 1 .5 1-.5.5-.5.5v1 1l-.5.5-.5.5v1.5 1.5 1 1 1 1l-.5.5-.5.5v1.5 1.5 1 1l-.5.5-.5.5v1 1l.5.5.5.5 1.5-.5 1.5-.5 25.5 7 25.5 7v1.5 1.5l-.5 1.5-.5 1.5-.5 1.5-.5 1.5-1 1.5-1 1.5-.5 1-.5 1h3 3 2 2 8 8 3.5 3.5l.5-1.5.5-1.5 1-1.5 1-1.5 1-1 1-1 .5-1.5.5-1.5v-2.5-2.5l1.5-.5 1.5-.5 2-.5 2-.5 1 1 1 1 .5 2 .5 2-.5 1.5-.5 1.5-.5 1.5-.5 1.5-.5.5-.5.5-.5 1-.5 1-.5 1.5-.5 1.5h2.5 2.5 2 2 2.5 2.5 2 2 2.5 2.5 2 2 2 2 2.5 2.5l-14-17-14-17 9 1.5 9 1.5 7 2.5 7 2.5 20-2.5 20-2.5 1.5.5 1.5.5.5.5.5.5.5.5.5.5.5 1 .5 1 1 1 1 1 .5.5.5.5h1 1l1 .5 1 .5.5 1.5.5 1.5.5.5.5.5 1 1 1 1 2 .5 2 .5 1.5-1 1.5-1-20.5-13.5-20.5-13.5 7-9.5 7-9.5 23.5 7 23.5 7 24-8.5 24-8.5 2.5 7 2.5 7 38.5-15 38.5-15v1.5 1.5l-1.5.5-1.5.5-1.5-.5-1.5-.5-1 1.5-1 1.5-.5 1.5-.5 1.5-1.5-.5-1.5-.5-.5.5-.5.5-.5 1-.5 1v3 3l1.5-.5 1.5-.5 1.5-.5 1.5-.5.5-1 .5-1 .5-.5.5-.5v-1-1-1-1l1-.5 1-.5v-1-1h1 1 1 1l.5-1 .5-1 .5-.5.5-.5.5-.5.5-.5.5-.5.5-.5.5-2 .5-2v-2-2-1-1-1-1l.5-1.5.5-1.5" style="fill:#672326;stroke:#672326"/><path d="m452 669l1-2-1.5 1-1.5 1-1 1.5-1 1.5-1.5-.5-1.5-.5-2 .5-2 .5-1 1-1 1-1.5 1-1.5 1-1 1-1 1-7 21-7 21h2 2 2 2 2.5 2.5 2 2 2.5 2.5l-1-1.5-1-1.5 6-24 6-24" style="fill:#7e5149;stroke:#7e5149"/><path d="m449 687v-2l-1.5-1.5-1.5-1.5-4 16-4 16 2.5.5 2.5.5 1-1.5 1-1.5v-2-2-2-2l.5-2 .5-2v-2-2l1-1.5 1-1.5.5-1.5.5-1.5v-1.5-1.5" style="fill:#aaa5ab;stroke:#aaa5ab"/><path d="m448 638l-77 30-2.5-7-2.5-7-24 8.5-24 8.5-23.5-7-23.5-7-7 9.5-7 9.5 20.5 13.5 20.5 13.5 42.5-13 42.5-13 25.5-11 25.5-11v-3-3l.5-1 .5-1 .5-.5.5-.5 1.5.5 1.5.5.5-1.5.5-1.5 1-1.5 1-1.5 1.5.5 1.5.5 1.5-.5 1.5-.5v-1.5-1.5" style="fill:#312727;stroke:#312727"/><path d="m444 657l1-1-27.5 10.5-27.5 10.5-28 7.5-28 7.5-21 14-21 14h2.5 2.5 2 2 2.5 2.5 2 2 2.5 2.5 1 1l17.5-12 17.5-12 37.5-5 37.5-5-.5 1-.5 1-1 1-1 1-.5 1-.5 1 1.5 1 1.5 1v1 1l-1.5 1.5-1.5 1.5-1 1-1 1-.5 2-.5 2-.5 1.5-.5 1.5-.5 2-.5 2v2 2 2 2h1 1l7-21 7-21v-1.5-1.5l.5-1.5.5-1.5.5-1 .5-1v-1-1l1-1 1-1 .5-1.5.5-1.5 1-1.5 1-1.5 1-.5 1-.5.5-1 .5-1" style="fill:#8e8588;stroke:#8e8588"/><path d="m444 524l-21-36h-2-2l-1.5.5-1.5.5h-2-2l-1 2-1 2 10 14.5 10 14.5-1 .5-1 .5-1 .5-1 .5-1.5.5-1.5.5-.5.5-.5.5h-1.5-1.5v2 2l.5.5.5.5 1 .5 1 .5.5 1.5.5 1.5.5.5.5.5.5 1 .5 1 2 .5 2 .5v-1-1l-.5-2-.5-2 1-1 1-1 1.5-1 1.5-1 1.5-.5 1.5-.5 1.5-.5 1.5-.5 2-.5 2-.5.5-1 .5-1" style="fill:#df484d;stroke:#df484d"/><path d="m444 481h1v-1-1l-.5 1-.5 1" style="fill:#672326;stroke:#672326"/><path d="m440 583l-59-7 14.5-4 14.5-4-7-11.5-7-11.5-26.5 6-26.5 6-19.5-1-19.5-1-17-3.5-17-3.5-31.5-1-31.5-1-5.5 14-5.5 14-14.5-1-14.5-1 6.5-14.5 6.5-14.5 1-1 1-1 1-1 1-1h1.5 1.5l1 1 1 1 1.5-1 1.5-1 1-1 1-1 .5-2 .5-2v-2-2l.5-1.5.5-1.5 1.5 1 1.5 1 .5 1.5.5 1.5 34 1.5 34 1.5 20.5 1 20.5 1 26.5-9 26.5-9-18.5 3-18.5 3-17-2.5-17-2.5-22-8.5-22-8.5-17-17.5-17-17.5-11-4-11-4-15-36-15-36-2.5-32-2.5-32-.5-28-.5-28-13-14.5-13-14.5 2 25.5 2 25.5-13.5 16-13.5 16-22 10-22 10 4.5 34 4.5 34 6 6 6 6-2 18.5-2 18.5 1 27 1 27-3 31.5-3 31.5 1.5 1 1.5 1 17.5 13 17.5 13-18-10.5-18-10.5-1 1-1 1 1 .5 1 .5-.5 1.5-.5 1.5-14 24.5-14 24.5-.5 1.5-.5 1.5.5 2.5.5 2.5h.5.5 2.5 2.5 1 1l1 .5 1 .5 21.5-.5 21.5-.5 16.5-31 16.5-31 4-17 4-17 2-5.5 2-5.5 19.5-7.5 19.5-7.5-13.5 16-13.5 16v1 1l-.5 1-.5 1-1 1-1 1-.5 1-.5 1-18.5 26-18.5 26 .5 1 .5 1h1.5 1.5 1 1l1-.5 1-.5h2 2l.5.5.5.5.5 1 .5 1 .5 1.5.5 1.5.5.5.5.5.5 1 .5 1v1.5 1.5l-.5 1.5-.5 1.5h-1-1l-.5.5-.5.5h-1.5-1.5-2-2-1-1-1-1l-.5.5-.5.5h-1.5-1.5l-.5-.5-.5-.5h-1-1-1.5-1.5v1 1l-.5 1.5-.5 1.5v1 1 1.5 1.5l-.5 1.5-.5 1.5v1.5 1.5 2 2l-.5 2-.5 2-.5 1.5-.5 1.5-.5 1.5-.5 1.5-.5 1.5-.5 1.5 27.5 2.5 27.5 2.5 20.5 4 20.5 4-1.5-11-1.5-11 25.5-10 25.5-10 19.5 4 19.5 4 11.5-13 11.5-13 27-3.5 27-3.5 18-5.5 18-5.5-6 14.5-6 14.5 14.5-18 14.5-18 12-5 12-5" style="fill:#312727;stroke:#312727"/><path d="m440 566l-11-20-1 1-1 1 .5.5.5.5v1 1l-.5 1-.5 1 .5.5.5.5.5.5.5.5v1 1l.5 1 .5 1v1 1 1 1 1 1l.5.5.5.5v1 1l1 .5 1 .5v1 1h1.5 1.5l.5-1.5.5-1.5 1.5-1 1.5-1" style="fill:#a63136;stroke:#a63136"/><path d="m439 391l-37-27-.5.5-.5.5-1-.5-1-.5-.5-.5-.5-.5-.5-.5-.5-.5-.5-1-.5-1h1 1l.5.5.5.5h1 1l-.5-1-.5-1h-1-1l-.5-.5-.5-.5h-1-1l-.5 1-.5 1-.5.5-.5.5-1.5.5-1.5.5-4.5 3.5-4.5 3.5 29 11 29 11" style="fill:#8e8588;stroke:#8e8588"/><path d="m430 522l-20-29-1 .5-1 .5-.5 1.5-.5 1.5-1.5 1-1.5 1-1 1-1 1-1.5.5-1.5.5-1.5 1-1.5 1-1.5.5-1.5.5h-2-2l-25 15-25 15-27 .5-27 .5 15.5 5 15.5 5 24.5-3 24.5-3 30-1 30-1-.5-1-.5-1-.5-.5-.5-.5-.5-1.5-.5-1.5-1-.5-1-.5-.5-.5-.5-.5v-2-2h1.5 1.5l.5-.5.5-.5 1.5-.5 1.5-.5 1-.5 1-.5 1-.5 1-.5" style="fill:#a63136;stroke:#a63136"/><path d="m427 686l-75 10-17.5 12-17.5 12h38 38 11.5 11.5l-.5-1-.5-1-.5-1-.5-1v-1-1l-.5-1-.5-1 .5-1.5.5-1.5.5-1.5.5-1.5v-1-1-1.5-1.5l1-1 1-1 .5-.5.5-.5.5-1 .5-1 1-1 1-1 1-1 1-1 .5-1 .5-1 1-1 1-1 .5-1 .5-1" style="fill:#aaa5ab;stroke:#aaa5ab"/><path d="m426 696v-2l-1.5-1-1.5-1-1 1-1 1-1 1-1 1-.5 1-.5 1-.5.5-.5.5-1 1-1 1v1.5 1.5 1 1l-.5 1.5-.5 1.5-.5 1.5-.5 1.5.5 1 .5 1v1 1l.5 1 .5 1 .5 1 .5 1h1 1v-2-2-2-2l.5-2 .5-2 .5-1.5.5-1.5.5-2 .5-2 1-1 1-1 1.5-1.5 1.5-1.5" style="fill:#e09f8b;stroke:#e09f8b"/><path d="m426 618l-37 12 1.5 6 1.5 6 17-12 17-12" style="fill:#a63136;stroke:#a63136"/><path d="m422 423l-26-39-22-10.5-22-10.5-4.5 2-4.5 2 12.5 14 12.5 14-16.5 19-16.5 19 9 14.5 9 14.5 20.5-14 20.5-14 14-5.5 14-5.5" style="fill:#efc7b3;stroke:#efc7b3"/><path d="m415 533l-34-21-5 12.5-5 12.5 22-2 22-2" style="fill:#df484d;stroke:#df484d"/><path d="m407 238v-2l-1.5-.5-1.5-.5-1-.5-1-.5-.5-.5-.5-.5-1-1-1-1-1-.5-1-.5-1-1-1-1-1.5-1-1.5-1h-1-1l-.5-.5-.5-.5-.5-.5-.5-.5-1-1-1-1-1-.5-1-.5-.5-.5-.5-.5-.5-.5-.5-.5-1-1-1-1h-.5-.5l-12-7-12-7 26 17.5 26 17.5" style="fill:#8e8588;stroke:#8e8588"/><path d="m401 365l1-1v-2-2l-1-1.5-1-1.5-1-1-1-1-1-1-1-1h-.5-.5l-13.5-4-13.5-4 .5 2 .5 2 1.5 1 1.5 1 1 1 1 1 2 .5 2 .5 1 1 1 1 1.5 1 1.5 1 1.5.5 1.5.5 2 1.5 2 1.5 1.5-.5 1.5-.5.5-.5.5-.5.5-1 .5-1h1 1l.5.5.5.5h1 1l.5 1 .5 1h-1-1l-.5-.5-.5-.5h-1-1l.5 1 .5 1 .5.5.5.5.5.5.5.5 1 .5 1 .5" style="fill:#df484d;stroke:#df484d"/><path d="m395 353h1l-12.5-15-12.5-15-9-17.5-9-17.5 12-2.5 12-2.5-15.5-20-15.5-20-9.5 3-9.5 3-19-10.5-19-10.5-10.5 8-10.5 8 10.5-26.5 10.5-26.5-7 3-7 3-.5.5-.5.5-26 18.5-26 18.5-29 5-29 5-29.5-24.5-29.5-24.5-4 16-4 16-9 20.5-9 20.5-11 15.5-11 15.5-16-2.5-16-2.5 1.5 16 1.5 16 18.5 1 18.5 1 30.5-19 30.5-19-10.5-7-10.5-7-10-13.5-10-13.5 18-17.5 18-17.5 8 7.5 8 7.5 21.5 13 21.5 13 26.5-8 26.5-8 19-16.5 19-16.5-.5 12-.5 12-22.5 13-22.5 13-24.5 10-24.5 10 .5 23 .5 23-5.5 25-5.5 25 18-2.5 18-2.5 16-8.5 16-8.5 19.5-16 19.5-16-2-20.5-2-20.5 14.5-18 14.5-18 15.5 17 15.5 17 7.5 16 7.5 16 10 4.5 10 4.5 2 14 2 14 13.5 4 13.5 4" style="fill:#8e8588;stroke:#8e8588"/><path d="m379 217h1l-12.5-7-12.5-7 12 7 12 7" style="fill:#aaa5ab;stroke:#aaa5ab"/><path d="m378 590l-38-9-6.5 8-6.5 8 25.5-3.5 25.5-3.5" style="fill:#672326;stroke:#672326"/><path d="m378 424v-2-2-2l-1-1.5-1-1.5-1.5-.5-1.5-.5-1.5 1-1.5 1-.5 1.5-.5 1.5 1 1.5 1 1.5 1.5.5 1.5.5 1 1 1 1 1-.5 1-.5" style="fill:#e09f8b;stroke:#e09f8b"/><path d="m372 641l-48 15h13.5 13.5l10.5-7.5 10.5-7.5" style="fill:#a63136;stroke:#a63136"/><path d="m371 272l-36-19 13 12.5 13 12.5 5-3 5-3" style="fill:#7e5149;stroke:#7e5149"/><path d="m351 344l-1-1-1-1-1-1-1-1.5-1-1.5-1.5-.5-1.5-.5-1.5-1-1.5-1h-.5-.5l-1 .5-1 .5-1.5.5-1.5.5-2 .5-2 .5-1 1-1 1h-1.5-1.5l-1.5-.5-1.5-.5-2-.5-2-.5-1-1-1-1 13 4 13 4h4.5 4.5" style="fill:#a63136;stroke:#a63136"/><path d="m350 335l1-3-1-1-1-1-1-1-1-1h-.5-.5l-1.5-.5-1.5-.5h-1.5-1.5l-.5.5-.5.5-1 .5-1 .5-.5 1.5-.5 1.5h-2-2l-1.5.5-1.5.5-2 .5-2 .5-1.5.5-1.5.5-2-.5-2-.5-1-1-1-1-1.5-1-1.5-1-.5 1-.5 1 1 1 1 1 1 1 1 1 1 1 1 1 2 .5 2 .5 1.5.5 1.5.5h1.5 1.5l1-1 1-1 2-.5 2-.5 1.5-.5 1.5-.5 1-.5 1-.5h2 2l1.5.5 1.5.5 2 .5 2 .5v-1-1" style="fill:#df484d;stroke:#df484d"/><path d="m346 328h1l-17.5 2-17.5 2 .5-1 .5-1-.5-2-.5-2h2 2 1 1l1 .5 1 .5h2 2l.5.5.5.5h1.5 1.5l1.5-.5 1.5-.5.5-.5.5-.5h1.5 1.5l2.5.5 2.5.5h1.5 1.5l1.5.5 1.5.5" style="fill:#8e8588;stroke:#8e8588"/><path d="m339 328l1-1-2.5-.5-2.5-.5h-1.5-1.5l-.5.5-.5.5-1.5.5-1.5.5h-1.5-1.5l-.5-.5-.5-.5h-2-2l-1-.5-1-.5h-1-1-2-2l.5 2 .5 2 1.5 1 1.5 1 1 1 1 1 2 .5 2 .5 1.5-.5 1.5-.5 2-.5 2-.5 1.5-.5 1.5-.5h2 2l.5-1.5.5-1.5 1-.5 1-.5" style="fill:#e09f8b;stroke:#e09f8b"/><path d="m332 495l-1-2 1-1 1-1-1-.5-1-.5-1.5.5-1.5.5-1 1.5-1 1.5-1 1-1 1-1-1-1-1v-2.5-2.5l-.5-1-.5-1-1-.5-1-.5v2 2l-.5.5-.5.5v1.5 1.5l.5.5.5.5.5.5.5.5v1 1l.5 1 .5 1v1 1 1 1l.5.5.5.5h1.5 1.5l.5-.5.5-.5.5-.5.5-.5.5-.5.5-.5.5-1.5.5-1.5.5-1 .5-1 1-1 1-1" style="fill:#8e8588;stroke:#8e8588"/><path d="m327 422l-26-25-10.5 2-10.5 2 1.5 5.5 1.5 5.5v3 3l-.5 1.5-.5 1.5.5 2 .5 2 1 1.5 1 1.5 13.5 1.5 13.5 1.5 7.5-4.5 7.5-4.5" style="fill:#7e5149;stroke:#7e5149"/><path d="m325 152l-52 44 1 .5 1 .5 7-3 7-3 1.5.5 1.5.5 16.5-20 16.5-20" style="fill:#aaa5ab;stroke:#aaa5ab"/><path d="m313 468l-14-15-1.5-.5-1.5-.5v1 1l-.5.5-.5.5-.5.5-.5.5v2 2l9.5 4 9.5 4" style="fill:#7e5149;stroke:#7e5149"/><path d="m304 603l-48-23 6.5 14 6.5 14 17.5-2.5 17.5-2.5" style="fill:#672326;stroke:#672326"/><path d="m299 453v-2l-.5-1.5-.5-1.5-1.5 1-1.5 1 .5-1.5.5-1.5h-.5-.5l-1 1-1 1v-2-2l-1 1.5-1 1.5v1 1l-.5.5-.5.5.5.5.5.5.5 1 .5 1-.5.5-.5.5v1 1 1 1l.5 1.5.5 1.5.5-1 .5-1h.5.5v-2-2l.5-.5.5-.5.5-.5.5-.5v-1-1l1.5.5 1.5.5" style="fill:#df484d;stroke:#df484d"/><path d="m295 440l-1-1-.5-.5-.5-.5h-.5-.5v-2-2l1-1.5 1-1.5-1.5-.5-1.5-.5-2-.5-2-.5-1-.5-1-.5-1-1.5-1-1.5-.5-2-.5-2 .5-1.5.5-1.5v-3-3l-18-3-18-3v11.5 11.5l4.5 17 4.5 17 18-.5 18-.5-.5-1.5-.5-1.5v-1-1-1-1l.5-.5.5-.5-.5-1-.5-1-.5-.5-.5-.5.5-.5.5-.5v-1-1l1-1.5 1-1.5v-2-2l1-.5 1-.5" style="fill:#e09f8b;stroke:#e09f8b"/><path d="m293 137l-57-45h-.5-.5-2-2l-1.5-.5-1.5-.5h-1-1-1.5-1.5-2-2-1-1-1.5-1.5-2-2-1-1l-.5.5-.5.5h-1-1-1.5-1.5l-1.5.5-1.5.5 19 2.5 19 2.5 14 4.5 14 4.5 10.5 20.5 10.5 20.5-13 23-13 23-27 21-27 21-1 1-1 1h-1.5-1.5l-.5.5-.5.5h-1-1l-.5.5-.5.5h-1-1l-1.5.5-1.5.5h1.5 1.5 1 1l.5.5.5.5h-1.5-1.5l-.5.5-.5.5-1 .5-1 .5h-1-1-1-1l-.5.5-.5.5h-1-1-1.5-1.5-1-1-1-1-1-1-1-1-1.5-1.5-1-1l-.5-.5-.5-.5h-1-1l-1-.5-1-.5h-1-1l-1-1-1-1-13-15.5-13-15.5v-33-33l16-22 16-22 7.5-10 7.5-10-1.5-9-1.5-9 1-13.5 1-13.5 19.5-13.5 19.5-13.5 3-.5 3-.5.5-1.5.5-1.5 2 .5 2 .5 1-1 1-1 .5-1.5.5-1.5h-2.5-2.5-2-2-2.5-2.5-2-2-2.5-2.5-2-2-2.5-2.5-2-2-1-1l.5 3 .5 3v1 1 1 1l-13.5 7.5-13.5 7.5-6 19.5-6 19.5-12.5 9-12.5 9-2.5 8-2.5 8 1 9.5 1 9.5-8.5 7-8.5 7 5.5 7 5.5 7-12 13.5-12 13.5 3 12 3 12 29.5 24.5 29.5 24.5 29-5 29-5v-1.5-1.5l.5-1.5.5-1.5 1.5-.5 1.5-.5 2-.5 2-.5 1-1 1-1 1.5-.5 1.5-.5 1.5-1 1.5-1 11.5-13 11.5-13 16-29.5 16-29.5" style="fill:#aaa5ab;stroke:#aaa5ab"/><path d="m292 353l-49 22 18.5-7 18.5-7 6-4 6-4" style="fill:#672326;stroke:#672326"/><path d="m291 709l1-3-.5-1-.5-1-1-1-1-1-.5-.5-.5-.5-.5-1.5-.5-1.5-1-.5-1-.5h-1-1l-.5-.5-.5-.5-1-1-1-1-1-.5-1-.5v.5.5l1 1.5 1 1.5 1 1 1 1 1.5 1 1.5 1 1 1 1 1-.5 1.5-.5 1.5-6-8.5-6-8.5-20 2.5-20 2.5-7-2.5-7-2.5-9-1.5-9-1.5 14 17 14 17h1.5 1.5v-1.5-1.5l-.5-1.5-.5-1.5.5-1.5.5-1.5 1-1 1-1 .5-.5.5-.5 1-.5 1-.5 1.5-.5 1.5-.5 2 .5 2 .5 1.5.5 1.5.5 1 1.5 1 1.5.5 1.5.5 1.5v1 1 2 2h3.5 3.5 2 2 2 2l.5-2 .5-2 .5-1.5.5-1.5 1-1.5 1-1.5 1.5-.5 1.5-.5 1 .5 1 .5v2 2l.5 1.5.5 1.5 1.5 1 1.5 1 1.5-.5 1.5-.5 2-.5 2-.5 1-1 1-1 1-1.5 1-1.5.5-1.5.5-1.5" style="fill:#a63136;stroke:#a63136"/><path d="m288 199v-3l.5-1 .5-1v-1.5-1.5l-10.5 26.5-10.5 26.5h1 1l.5-2 .5-2 1-1.5 1-1.5 1-1 1-1 1.5-2 1.5-2 .5-1.5.5-1.5-.5-1-.5-1 .5-.5.5-.5v-1-1l.5-.5.5-.5.5-1 .5-1 .5-.5.5-.5v-1-1l.5-.5.5-.5.5-1 .5-1 .5-.5.5-.5.5-.5.5-.5v-1-1-1.5-1.5-1-1-1-1l.5.5.5.5.5.5.5.5v-1-1-2-2" style="fill:#aaa5ab;stroke:#aaa5ab"/><path d="m288 26l-61 10-11.5-7-11.5-7 7.5-7 7.5-7-19.5 13.5-19.5 13.5-1 13.5-1 13.5 1.5 9 1.5 9-7.5 10-7.5 10 18-7.5 18-7.5h-1.5-1.5l-1.5.5-1.5.5h-2.5-2.5l-.5-.5-.5-.5 1.5-1 1.5-1 .5-1.5.5-1.5 1.5-.5 1.5-.5 1-1.5 1-1.5 2-1 2-1 .5-1 .5-1v-1.5-1.5l1.5-.5 1.5-.5.5.5.5.5h1.5 1.5l1.5-1.5 1.5-1.5 14.5-9 14.5-9-.5 1.5-.5 1.5-1 1-1 1-1.5 1-1.5 1-1.5.5-1.5.5-.5 1-.5 1 27.5-16 27.5-16" style="fill:#efc7b3;stroke:#efc7b3"/><path d="m287 314v-2-1-1l-.5-2-.5-2-1-1-1-1-1.5 1-1.5 1-1 1-1 1 .5 2 .5 2 .5 1.5.5 1.5.5 1.5.5 1.5 1.5-1 1.5-1 1-1 1-1" style="fill:#8e8588;stroke:#8e8588"/><path d="m286 706l1-3-1-1-1-1-1.5-1-1.5-1-1-1-1-1-1-1.5-1-1.5v-.5-.5l1 .5 1 .5-.5-1-.5-1-.5-.5-.5-.5-.5-.5-.5-.5-1.5-.5-1.5-.5 6 8.5 6 8.5" style="fill:#df484d;stroke:#df484d"/><path d="m286 148l-21-41-14-4.5-14-4.5-19-2.5-19-2.5-20 9-20 9-.5.5-.5.5-11 31.5-11 31.5 8 28 8 28 1 1 1 1 1 1.5 1 1.5 1.5.5 1.5.5 1.5 1 1.5 1 1 .5 1 .5h1.5 1.5l.5.5.5.5h1 1l1 .5 1 .5 1.5.5 1.5.5h1 1 1.5 1.5 2 2l.5-.5.5-.5h1.5 1.5l2-.5 2-.5 1.5-.5 1.5-.5h1 1l.5-.5.5-.5h1 1l.5-.5.5-.5h1.5 1.5l1-1 1-1-27-4.5-27-4.5-6.5-28-6.5-28 8.5-27 8.5-27 24-11.5 24-11.5 16.5 12 16.5 12 17 28 17 28-.5 2-.5 2-.5 1.5-.5 1.5-1 1.5-1 1.5-1 1-1 1-1 1.5-1 1.5-1 1-1 1-.5 1.5-.5 1.5 13-23 13-23" style="fill:#8e8588;stroke:#8e8588"/><path d="m285 720h1v-1.5-1.5l-2 .5-2 .5-1.5.5-1.5.5-1.5-1-1.5-1-.5-1.5-.5-1.5v-2-2l-1-.5-1-.5-1.5.5-1.5.5-1 1.5-1 1.5-.5 1.5-.5 1.5-.5 2-.5 2h2 2 2 2 2.5 2.5 2 2 1 1" style="fill:#672326;stroke:#672326"/><path d="m283 231l1-3-.5-.5-.5-.5-.5.5-.5.5-1 .5-1 .5-1 1-1 1-1.5 2-1.5 2-1 1-1 1-1 1.5-1 1.5-.5 2-.5 2 1 .5 1 .5 1.5-1 1.5-1 1.5-.5 1.5-.5 1-1.5 1-1.5.5-1.5.5-1.5 1-1 1-1v-1.5-1.5" style="fill:#efc7b3;stroke:#efc7b3"/><path d="m274 198l1-1-1-.5-1-.5-17.5 13-17.5 13-1.5 1-1.5 1-1.5.5-1.5.5-1 1-1 1-2 .5-2 .5-1.5.5-1.5.5-.5 1.5-.5 1.5v1.5 1.5l26-18.5 26-18.5" style="fill:#e09f8b;stroke:#e09f8b"/><path d="m271 174l-34-56-16.5-12-16.5-12-24 11.5-24 11.5-8.5 27-8.5 27 6.5 28 6.5 28 27 4.5 27 4.5 27-21 27-21 .5-1.5.5-1.5 1-1 1-1 1-1.5 1-1.5 1-1 1-1 1-1.5 1-1.5.5-1.5.5-1.5.5-2 .5-2" style="fill:#7e5149;stroke:#7e5149"/><path d="m264 295l-20-33-21 4.5-21 4.5-5.5 22-5.5 22 1 18.5 1 18.5 22.5-5 22.5-5 12-18.5 12-18.5 1-5 1-5" style="fill:#e09f8b;stroke:#e09f8b"/><path d="m254 293l-32-3 .5 19 .5 19 11.5-8 11.5-8 4-9.5 4-9.5" style="fill:#efc7b3;stroke:#efc7b3"/><path d="m251 716v-2l-.5-1.5-.5-1.5-1-1.5-1-1.5-1.5-.5-1.5-.5-2-.5-2-.5-1.5.5-1.5.5-1 .5-1 .5-.5.5-.5.5-1 1-1 1-.5 1.5-.5 1.5.5 1.5.5 1.5v1.5 1.5h3.5 3.5 2 2 2.5 2.5 1 1v-2-2" style="fill:#df484d;stroke:#df484d"/><path d="m248 200l-15-44-16.5-4-16.5-4-2-8.5-2-8.5-7-13.5-7-13.5-14 13.5-14 13.5-1.5 22-1.5 22-.5 16-.5 16 18 14.5 18 14.5 24.5-10 24.5-10 6.5-8 6.5-8" style="fill:#312727;stroke:#312727"/><path d="m243 48l-29 18 .5 1 .5 1h2 2l1.5-.5 1.5-.5.5-1.5.5-1.5 2-.5 2-.5 1-1 1-1 1.5-.5 1.5-.5.5-1 .5-1 .5-1 .5-1 1.5-.5 1.5-.5 1.5-1 1.5-1 1-1 1-1 .5-1.5.5-1.5" style="fill:#aaa5ab;stroke:#aaa5ab"/><path d="m235 92h1l-35 4-35 4-16 22-16 22v33 33l9 10.5 9 10.5-8-28-8-28 11.5-32 11.5-32 20-9 20-9 1.5-.5 1.5-.5h1.5 1.5 1 1l.5-.5.5-.5h1 1 2 2 1.5 1.5 1 1 2 2 1.5 1.5 1 1l1.5.5 1.5.5h2 2" style="fill:#efc7b3;stroke:#efc7b3"/><path d="m227 58v-2l-1.5-.5-1.5-.5-2-.5-2-.5-1 1-1 1-.5 2-.5 2-.5 1.5-.5 1.5 1.5 1 1.5 1 1-1 1-1 1.5-.5 1.5-.5 1-1.5 1-1.5.5-.5.5-.5" style="fill:#8e8588;stroke:#8e8588"/><path d="m218 69l1-1h-2-2l-.5-1-.5-1-1.5 1.5-1.5 1.5h-1.5-1.5l-.5-.5-.5-.5-1.5.5-1.5.5v1.5 1.5l-.5 1-.5 1 .5 1 .5 1 1.5.5 1.5.5 1-1.5 1-1.5v1 1l-1 1.5-1 1.5-1 1.5-1 1.5 1.5-.5 1.5-.5 1-1.5 1-1.5 1-1 1-1 1-1.5 1-1.5 1-1 1-1 1-1 1-1" style="fill:#e09f8b;stroke:#e09f8b"/><path d="m209 76v-2l-1 1.5-1 1.5-1.5-.5-1.5-.5-.5-1-.5-1-2 1-2 1-1 1.5-1 1.5-1.5.5-1.5.5-.5 1.5-.5 1.5-1.5 1-1.5 1 .5.5.5.5h2.5 2.5l1.5-.5 1.5-.5h1.5 1.5l1.5-1.5 1.5-1.5 1-1.5 1-1.5 1-1.5 1-1.5" style="fill:#aaa5ab;stroke:#aaa5ab"/><path d="m202 536l1-3h-1-1l-.5-1-.5-1-.5-1.5-.5-1.5-1.5-1-1.5-1-.5 1.5-.5 1.5v2 2l-.5 2-.5 2-1 1-1 1-1.5 1-1.5 1-1-1-1-1h-1.5-1.5l-1 1-1 1-1 1-1 1-.5 1-.5 1-1.5.5-1.5.5h1.5 1.5l1.5-.5 1.5-.5 1.5-.5 1.5-.5 1.5-.5 1.5-.5h1.5 1.5l2 1 2 1h1.5 1.5l1.5-1 1.5-1-.5-.5-.5-.5-1-1.5-1-1.5 1-1 1-1 1-.5 1-.5" style="fill:#7e5149;stroke:#7e5149"/><path d="m198 711l1-3-.5-2-.5-2-1-1-1-1-2 .5-2 .5-1.5.5-1.5.5v2.5 2.5l-.5 1.5-.5 1.5-1 1-1 1-1 1.5-1 1.5-.5 1.5-.5 1.5h2 2 2.5 2.5 1 1l.5-1.5.5-1.5.5-1 .5-1 .5-.5.5-.5.5-1.5.5-1.5" style="fill:#312727;stroke:#312727"/><path d="m198 242l-1-1h-1-1-1.5-1.5l-2 .5-2 .5h-1.5-1.5l-.5.5-.5.5h-2-2-1.5-1.5-1-1l-1.5-.5-1.5-.5-1-.5-1-.5h-1-1l-.5-.5-.5-.5h-1.5-1.5l.5 1 .5 1-1-.5-1-.5h-1.5-1.5l1 1 1 1h1 1l1 .5 1 .5h1 1l.5.5.5.5h1 1 1.5 1.5 1 1 1 1 1 1 1 1 1.5 1.5 1 1l.5-.5.5-.5h1 1 1 1l1-.5 1-.5.5-.5.5-.5h1.5 1.5" style="fill:#efc7b3;stroke:#efc7b3"/><path d="m196 10v-2-1-1l-.5-3-.5-3h-36.5-36.5-35.5-35.5-25.5-25.5v10 10 35.5 35.5 35.5 35.5 35.5 35.5 35.5 35.5 35.5 35.5 35.5 35.5 35.5 35.5 35.5 35.5 35.5 35.5 30.5 30.5h5 5 16 16l-.5-1.5-.5-1.5v-1-1-1.5-1.5-2-2l1-1.5 1-1.5.5-1 .5-1v-1.5-1.5-1-1-1-1l-.5-1-.5-1-2-.5-2-.5-1.5-.5-1.5-.5v-1-1l.5-.5.5-.5h1 1l1-.5 1-.5.5-.5.5-.5.5-.5.5-.5 1.5-.5 1.5-.5-4-20.5-4-20.5 1.5-.5 1.5-.5 1 1 1 1 1 1.5 1 1.5.5 1 .5 1h1.5 1.5 1.5 1.5l1.5-1 1.5-1-1-1-1-1-2-.5-2-.5h-.5-.5l13.5-35 13.5-35 3-31.5 3-31.5-1-27-1-27-4-24.5-4-24.5-4.5-34-4.5-34 .5-1.5.5-1.5.5-1.5.5-1.5.5-1.5.5-1.5v-1.5-1.5l-18.5-1-18.5-1-1.5-16-1.5-16 16 2.5 16 2.5 11-15.5 11-15.5 9-20.5 9-20.5 4-16 4-16-3-12-3-12 12-13.5 12-13.5-5.5-7-5.5-7 8.5-7 8.5-7-1-9.5-1-9.5 2.5-8 2.5-8 12.5-9 12.5-9 6-19.5 6-19.5 13.5-7.5 13.5-7.5" style="fill:#3978ad;stroke:#3978ad"/><path d="m194 547l1-2-2-1-2-1h-1.5-1.5l-1.5.5-1.5.5-1.5.5-1.5.5-1.5.5-1.5.5h-1.5-1.5l-2.5.5-2.5.5v2 2l2 .5 2 .5h2 2 2.5 2.5l1.5-.5 1.5-.5 2-.5 2-.5 1-.5 1-.5.5-1 .5-1" style="fill:#a63136;stroke:#a63136"/><path d="m191 644l-44-9-10 12.5-10 12.5 28.5-6 28.5-6 3.5-2 3.5-2" style="fill:#672326;stroke:#672326"/><path d="m185 523l-39 15 8 1.5 8 1.5-2.5-.5-2.5-.5-1.5-.5-1.5-.5-2-.5-2-.5h-2-2l-2 5.5-2 5.5v2 2h2.5 2.5l2 1 2 1 1-.5 1-.5 1.5.5 1.5.5h1 1l13.5-16 13.5-16" style="fill:#7e5149;stroke:#7e5149"/><path d="m182 521l-36 3 10.5-1 10.5-1 3-2 3-2-1 .5-1 .5-1.5.5-1.5.5-.5 1-.5 1 2-1 2-1 2 .5 2 .5h2 2 1.5 1.5" style="fill:#8e8588;stroke:#8e8588"/><path d="m175 720h1-8-8 2.5 2.5 2 2 2.5 2.5.5.5" style="fill:#312727;stroke:#312727"/><path d="m173 518l-6 4 .5-1 .5-1 1.5-.5 1.5-.5 1-.5 1-.5" style="fill:#aaa5ab;stroke:#aaa5ab"/><path d="m165 242l-1-2-1-.5-1-.5-1.5-1-1.5-1-1.5-.5-1.5-.5-1-1.5-1-1.5-1-1-1-1-9-10.5-9-10.5 13 15.5 13 15.5h1.5 1.5l1 .5 1 .5" style="fill:#ffe;stroke:#ffe"/><path d="m162 541l-16-3h2 2l2 .5 2 .5 1.5.5 1.5.5 2.5.5 2.5.5" style="fill:#8e8588;stroke:#8e8588"/><path d="m158 557v-2h-1-1l-1.5-.5-1.5-.5-1 .5-1 .5-.5 1-.5 1-1.5.5-1.5.5h-2-2l-2 .5-2 .5h-2-2l-1.5.5-1.5.5v-2.5-2.5h2 2l1.5-1 1.5-1h1.5 1.5v-2-2l-4 17-4 17 10.5-11 10.5-11 1-1 1-1 .5-1 .5-1" style="fill:#672326;stroke:#672326"/><path d="m158 112l1-1-11.5 32-11.5 32 11-31.5 11-31.5" style="fill:#aaa5ab;stroke:#aaa5ab"/><path d="m155 706l-51-14-.5 1-.5 1-.5 1-.5 1-.5 1.5-.5 1.5v1 1l-.5 1-.5 1v1 1 1 1 1 1 1 1 1.5 1.5l21 3 21 3h3 3 1 1l.5-1 .5-1 1-1.5 1-1.5.5-1.5.5-1.5.5-1.5.5-1.5v-1.5-1.5" style="fill:#a63136;stroke:#a63136"/><path d="m154 563l1-2-10.5 11-10.5 11-16.5 31-16.5 31-.5.5-.5.5v2 2l-.5 1.5-.5 1.5v2.5 2.5l-.5 1.5-.5 1.5v1.5 1.5l-.5 2-.5 2-.5 2-.5 2-.5.5-.5.5-1 .5-1 .5.5 1.5.5 1.5.5 2 .5 2 .5 1.5.5 1.5-.5 2-.5 2 .5 2.5.5 2.5-.5 1.5-.5 1.5v1.5 1.5l-1.5-.5-1.5-.5h-1-1l-.5 1-.5 1v1 1l.5.5.5.5h-1.5-1.5l-1 1-1 1-.5 1.5-.5 1.5h1.5 1.5 2 2l-.5 1.5-.5 1.5-.5 2-.5 2v1.5 1.5l.5 1 .5 1h2.5 2.5l1-1.5 1-1.5v-1-1l1.5-.5 1.5-.5v-1.5-1.5-1-1-1-1-1-1-1-1l.5-1 .5-1v-1-1l.5-1.5.5-1.5.5-1 .5-1 .5-1 .5-1-1.5.5-1.5.5-.5-.5-.5-.5v-1-1l.5-.5.5-.5v-1-1-1.5-1.5l.5-.5.5-.5v-1-1-1-1-1.5-1.5l.5-.5.5-.5v-1-1l.5-.5.5-.5-.5-1-.5-1v-1-1-1.5-1.5l.5-1.5.5-1.5.5-1.5.5-1.5.5-1.5.5-1.5.5-2 .5-2v-2-2-1.5-1.5l.5-1.5.5-1.5v-1.5-1.5-1-1l.5-1.5.5-1.5v-1-1l.5-2 .5-2 .5-2 .5-2 .5-1.5.5-1.5 1-1.5 1-1.5 1.5-1.5 1.5-1.5 18.5-26 18.5-26" style="fill:#7e5149;stroke:#7e5149"/><path d="m150 557l1-2-2-1-2-1h-2.5-2.5-1.5-1.5l-1.5 1-1.5 1h-2-2v2.5 2.5l1.5-.5 1.5-.5h2 2l2-.5 2-.5h2 2l1.5-.5 1.5-.5" style="fill:#a63136;stroke:#a63136"/><g style="fill:#672326;stroke:#672326"><path d="m141 720h1l-21-3-21-3-1.5.5-1.5.5v1 1l-1 1.5-1 1.5h3.5 3.5 2 2 2.5 2.5 2 2 2 2 2.5 2.5 2 2 2.5 2.5 2 2 2 2"/><path d="m134 628v-3l-.5-1-.5-1-.5-.5-.5-.5-.5-1.5-.5-1.5-.5-1-.5-1-.5-.5-.5-.5h-2-2l-1 .5-1 .5h-1-1-1.5-1.5l-.5-1-.5-1-1.5 1.5-1.5 1.5-1 1.5-1 1.5-.5 1.5-.5 1.5-.5 2-.5 2-.5 2-.5 2h1.5 1.5 1 1l.5.5.5.5h1.5 1.5l.5-.5.5-.5h1 1 1 1 2 2 1.5 1.5l.5-.5.5-.5h1 1l.5-1.5.5-1.5"/></g><path d="m121 500l-28-7 1 .5 1 .5h1.5 1.5l2 .5 2 .5.5 1.5.5 1.5-.5 2-.5 2-.5 1-.5 1h-2.5-2.5-2-2l-1.5-1-1.5-1-1-1-1-1v-2-2l17 2 17 2" style="fill:#7e5149;stroke:#7e5149"/><path d="m118 501l1-3-1.5-.5-1.5-.5h-2.5-2.5l-1.5.5-1.5.5-1.5 1-1.5 1-.5 1.5-.5 1.5 1.5 1 1.5 1h2 2l1.5-.5 1.5-.5 1.5-1 1.5-1 .5-.5.5-.5" style="fill:#8e8588;stroke:#8e8588"/><path d="m113 603l-35-26-.5 2-.5 2v.5.5l18 10.5 18 10.5" style="fill:#672326;stroke:#672326"/><path d="m102 502l1-4-.5-1.5-.5-1.5-2-.5-2-.5h-1.5-1.5l-1-.5-1-.5h-2-2l-1 1.5-1 1.5v2 2l1 1 1 1 1.5 1 1.5 1h2 2 2.5 2.5l.5-1 .5-1" style="fill:#8e8588;stroke:#8e8588"/><path d="m100 646l1-1-21.5.5-21.5.5 1 1 1 1-.5 1.5-.5 1.5v1 1l-.5.5-.5.5-1 1-1 1v1 1l-.5.5-.5.5v1 1l.5 1 .5 1-.5.5-.5.5-.5.5-.5.5-.5.5-.5.5-.5 1-.5 1h-1-1l-.5.5-.5.5-.5-.5-.5-.5-.5-.5-.5-.5-1-.5-1-.5-.5-.5-.5-.5-.5-.5-.5-.5-.5-.5-.5-.5v-1-1l.5-1.5.5-1.5.5-1 .5-1 1-1 1-1v-2-2l-.5-1-.5-1-1-1.5-1-1.5-1-1-1-1-1.5.5-1.5.5 2.5 16.5 2.5 16.5 27.5-6.5 27.5-6.5v-1.5-1.5l.5-1.5.5-1.5v-2.5-2.5l.5-1.5.5-1.5v-2-2" style="fill:#672326;stroke:#672326"/><path d="m97 668l1-4-27.5 6.5-27.5 6.5 2 .5 2 .5 1 1.5 1 1.5-.5 1.5-.5 1.5-1 .5-1 .5-1.5.5-1.5.5-.5.5-.5.5-.5.5-.5.5-1 .5-1 .5h-1-1l-.5.5-.5.5v1 1l1.5.5 1.5.5h1.5 1.5l.5-.5.5-.5.5-.5.5-.5.5-1 .5-1h1 1l.5-.5.5-.5h1 1l1-.5 1-.5.5.5.5.5h1 1l-.5 1.5-.5 1.5-1 .5-1 .5-1 .5-1 .5-.5 1-.5 1-1.5.5-1.5.5.5 2 .5 2-1.5 1.5-1.5 1.5-.5 1-.5 1-1 1.5-1 1.5v2 2 1.5 1.5 1 1l.5 1.5.5 1.5h2.5 2.5 2 2 2.5 2.5v-1.5-1.5-1.5-1.5l1-1 1-1h1.5 1.5l1.5.5 1.5.5 1-1.5 1-1.5 1 1 1 1v1 1l-.5 1.5-.5 1.5-.5.5-.5.5-.5 1-.5 1h3 3 1 1l11.5-13.5 11.5-13.5-.5-2.5-.5-2.5.5-2 .5-2-.5-1.5-.5-1.5-.5-2-.5-2-.5-1.5-.5-1.5 1-.5 1-.5.5-.5.5-.5.5-2 .5-2" style="fill:#312727;stroke:#312727"/><path d="m95 696l1-3-11.5 13.5-11.5 13.5h1.5 1.5.5.5l1-1 1-1 .5-.5.5-.5v-1-1l.5-.5.5-.5.5-1 .5-1v-1-1l1-1 1-1 .5-1.5.5-1.5 1-1 1-1h1.5 1.5l-.5-.5-.5-.5v-1-1l.5-1 .5-1h1 1l1.5.5 1.5.5v-1.5-1.5" style="fill:#672326;stroke:#672326"/><path d="m90 711l1-3h-2-2-1.5-1.5l-1 1-1 1v1 1l-.5 1-.5 1-.5.5-.5.5v1 1l-.5.5-.5.5-1 1-1 1h1.5 1.5 2 2 2.5 2.5.5.5l-.5-1-.5-1v-1.5-1.5l.5-2 .5-2" style="fill:#a63136;stroke:#a63136"/><g style="fill:#7e5149;stroke:#7e5149"><path d="m83 421l-12-12 4 24.5 4 24.5 2-18.5 2-18.5"/><path d="m77 581l1-4-1.5-1-1.5-1-13.5 35-13.5 35-.5-2.5-.5-2.5.5-1.5.5-1.5 13.5-26.5 13.5-26.5 1-1 1-1v-.5-.5"/></g><path d="m76 588l1-3-1-.5-1-.5-13.5 26.5-13.5 26.5 14-24.5 14-24.5" style="fill:#672326;stroke:#672326"/><path d="m68 714v-2l-1-1-1-1-1 1.5-1 1.5-1.5-.5-1.5-.5h-1.5-1.5l-1 1-1 1v1.5 1.5 1.5 1.5h2.5 2.5 2 2l.5-1 .5-1 .5-.5.5-.5.5-1.5.5-1.5" style="fill:#3978ad;stroke:#3978ad"/><path d="m59 651l1-3-1-1-1-1-1-.5-1-.5h-1-1-2.5-2.5l2 .5 2 .5 1 1 1 1-1.5 1-1.5 1h-1.5-1.5-1.5-1.5v2 2l-1 1-1 1-.5 1-.5 1 2-.5 2-.5 1.5-1 1.5-1 1-1 1-1h1.5 1.5 2 2v-1-1" style="fill:#7e5149;stroke:#7e5149"/><path d="m58 654l1-1h-2-2-1.5-1.5l-1 1-1 1-1.5 1-1.5 1-2 .5-2 .5-.5 1.5-.5 1.5v1 1l.5.5.5.5.5.5.5.5.5.5.5.5 1 .5 1 .5.5.5.5.5.5.5.5.5.5-.5.5-.5h1 1l.5-1 .5-1 .5-.5.5-.5.5-.5.5-.5.5-.5.5-.5-.5-1-.5-1v-1-1l.5-.5.5-.5v-1-1l1-1 1-1" style="fill:#a63136;stroke:#a63136"/><g style="fill:#7e5149;stroke:#7e5149"><path d="m54 691l1-3h-1-1l-.5-.5-.5-.5-1 .5-1 .5h-1-1l-.5.5-.5.5h-1-1l-.5 1-.5 1-.5.5-.5.5-.5.5-.5.5h-1.5-1.5l2 .5 2 .5.5 1 .5 1v1 1 1 1 1.5 1.5l1.5-1.5 1.5-1.5-.5-2-.5-2 1.5-.5 1.5-.5.5-1 .5-1 1-.5 1-.5 1-.5 1-.5"/><path d="m48 684l1-3-1-1.5-1-1.5-2-.5-2-.5-2.5-16.5-2.5-16.5 4 20.5 4 20.5 1-.5 1-.5"/></g></g></svg>