<!-- check out the rest at http://codepen.io/collection/DaMqWv/ -->

<svg xmlns="http://www.w3.org/2000/svg" viewBox="0 0 712 960">
    <path d="m0 0h712v960h-712z" style="fill:#6d7467" />
    <g style="stroke-linejoin:round;stroke-width:.7">
        <path d="m0 959v1h1.5 1.5 2 2v-.5-.5l.5-1 .5-1 1.5-1 1.5-1-1-1-1-1-1.5-1-1.5-1-.5 1.5-.5 1.5-1.5 1-1.5 1-1 .5-1 .5v1 1" style="fill:#7b5126;stroke:#7b5126" />
        <path d="m7 959v1h12.5 12.5 11 11 11.5 11.5 11 11 11 11 11 11 11 11 11.5 11.5 11 11 11 11 11 11 11 11 11.5 11.5 11 11 11 11 11 11 3.5 3.5v-.5-.5l-.5-8-.5-8-1.5-3.5-1.5-3.5-3-4.5-3-4.5-2.5-3.5-2.5-3.5-2-5-2-5-1.5-4.5-1.5-4.5-3.5-5.5-3.5-5.5-2-7.5-2-7.5v-3-3l-3-5-3-5-2.5-3.5-2.5-3.5.5-6.5.5-6.5-2.5-2-2.5-2 2-5 2-5-3-7-3-7-2-4-2-4v-3-3l-2-8.5-2-8.5-3-7-3-7-2-2-2-2 2-2 2-2-3.5-5.5-3.5-5.5.5-6 .5-6v-7-7l-.5-9.5-.5-9.5-.5-5.5-.5-5.5 1-7 1-7 1.5-8 1.5-8 3.5-5.5 3.5-5.5 7.5.5 7.5.5 3.5 7.5 3.5 7.5 3.5 7.5 3.5 7.5 4 7.5 4 7.5 3.5 7.5 3.5 7.5 3.5 7.5 3.5 7.5 2.5 7.5 2.5 7.5 1.5 7.5 1.5 7.5 4.5 7 4.5 7 1.5 6.5 1.5 6.5 3.5 4.5 3.5 4.5-5.5 3.5-5.5 3.5 3.5 1.5 3.5 1.5 1 5.5 1 5.5 3 3 3 3v6 6l-2 4-2 4v7 7l2 5.5 2 5.5-1 7-1 7 1 6 1 6 1.5 3.5 1.5 3.5v6 6l.5 7 .5 7 3 5 3 5-6 4-6 4 2.5 2.5 2.5 2.5 4.5 7 4.5 7h12 12 11 11 11 11 11 11 8.5 8.5v-.5-.5l1-1 1-1-.5-2-.5-2-1.5-.5-1.5-.5.5 1.5.5 1.5-1-.5-1-.5-.5-1.5-.5-1.5-1-1.5-1-1.5-1-1-1-1-1-1.5-1-1.5-.5-1-.5-1-.5-.5-.5-.5-4.5-7.5-4.5-7.5-4-7-4-7-4-7-4-7-6.5-11-6.5-11-.5-1-.5-1-.5-1.5-.5-1.5-1-.5-1-.5-.5-.5-.5-.5-4.5-7.5-4.5-7.5-4-7-4-7-4-7-4-7-4-7-4-7-4-7-4-7-4-7.5-4-7.5-4-7-4-7-4-7-4-7-4-7-4-7-4-7-4-7-4-7.5-4-7.5-3.5-6.5-3.5-6.5-2.5-5.5-2.5-5.5-3.5-7.5-3.5-7.5-6.5-11.5-6.5-11.5-.5-.5-.5-.5-3.5-7-3.5-7-3.5-6.5-3.5-6.5-.5-1.5-.5-1.5-4-7.5-4-7.5-4.5-10.5-4.5-10.5-1-1-1-1-1.5-.5-1.5-.5h-1-1l-1 .5-1 .5-1.5.5-1.5.5h-1-1l-2-.5-2-.5h-1-1l.5-1 .5-1 1.5-.5 1.5-.5h2.5 2.5l1.5.5 1.5.5 2.5-.5 2.5-.5v-1-1l-.5-.5-.5-.5-8-3.5-8-3.5-2.5-5.5-2.5-5.5-3-6-3-6-1-6-1-6 4-6 4-6 2-8 2-8-1-1.5-1-1.5-1.5 1-1.5 1-1 1-1 1h-2.5-2.5l-1.5.5-1.5.5-1.5-.5-1.5-.5-3.5-5-3.5-5 9.5 1.5 9.5 1.5-4-6-4-6 1-8.5 1-8.5-3.5-5.5-3.5-5.5.5-8.5.5-8.5-.5 1.5-.5 1.5-1.5.5-1.5.5-1 1.5-1 1.5-1 1-1 1-.5 2-.5 2-.5 1.5-.5 1.5-.5 1.5-.5 1.5-.5 1-.5 1-.5 2-.5 2v2.5 2.5l.5 1.5.5 1.5-.5 2-.5 2-.5 1.5-.5 1.5v2 2 1 1l.5 1 .5 1-1 1-1 1-1.5 1-1.5 1-.5 2-.5 2v2.5 2.5l.5 1.5.5 1.5.5 1.5.5 1.5 1 1.5 1 1.5 1.5.5 1.5.5 1.5 1 1.5 1 .5 1.5.5 1.5-1 2.5-1 2.5-3 9-3 9-2 17.5-2 17.5 3.5 8 3.5 8 2 8 2 8-6.5 7.5-6.5 7.5h-11.5-11.5l-1-10-1-10-.5-10.5-.5-10.5v-10-10-9-9l.5-10 .5-10-.5-10.5-.5-10.5-.5-9.5-.5-9.5-5.5.5-5.5.5-4.5 2.5-4.5 2.5h-4.5-4.5l-2.5 1.5-2.5 1.5-2.5-2.5-2.5-2.5h-4-4v4 4l-1 2.5-1 2.5-2.5 2.5-2.5 2.5-4-3-4-3-2-1-2-1-5.5-.5-5.5-.5-2-4.5-2-4.5v-3-3l-6 2-6 2 .5-4.5.5-4.5-5 1-5 1-3.5 4-3.5 4h-7-7-7-7v-5-5l-1-3-1-3-4 3.5-4 3.5-1 3-1 3-.5 1.5-.5 1.5h-4-4l-1.5-7.5-1.5-7.5 1-6.5 1-6.5-.5-7.5-.5-7.5v-8-8l-.5-1-.5-1h-1-1l-.5-1.5-.5-1.5h-1.5-1.5l-1.5 1-1.5 1-.5 5-.5 5-2 5.5-2 5.5-.5-1-.5-1 .5-1.5.5-1.5-.5-1-.5-1-.5-1.5-.5-1.5.5-2 .5-2 .5-1.5.5-1.5-.5-2.5-.5-2.5 1-10.5 1-10.5-1.5-6.5-1.5-6.5-.5-9.5-.5-9.5 3.5-10.5 3.5-10.5-2.5-5-2.5-5-2.5.5-2.5.5.5 8.5.5 8.5-.5 7.5-.5 7.5v10 10l-.5 9-.5 9v10 10 11 11 11 11l-.5 10.5-.5 10.5v9.5 9.5 9 9l.5 15 .5 15v1.5 1.5 1.5 1.5 2 2 1 1 1 1 1 1 1.5 1.5 1 1 1 1 1 1 1.5 1.5 2 2 1 1 1.5 1.5 2 2l-.5 1-.5 1-2 9.5-2 9.5-14.5.5-14.5.5v3 3 2 2 2.5 2.5 2 2 2.5 2.5 2 2 2.5 2.5l8 2.5 8 2.5 9-.5 9-.5 8 1 8 1 8.5-.5 8.5-.5 8-1 8-1 4.5 1.5 4.5 1.5 6 2.5 6 2.5 7-3 7-3 5.5 5.5 5.5 5.5-3.5 7.5-3.5 7.5-6.5 4.5-6.5 4.5-3 6.5-3 6.5-4 7-4 7-3.5-3.5-3.5-3.5h-7-7l-6.5 3.5-6.5 3.5-6 .5-6 .5-6.5 4.5-6.5 4.5-8-2-8-2-5.5-.5-5.5-.5-4 3-4 3h-.5-.5v12.5 12.5 11 11 11 11 11 11 11 11 11.5 11.5 11 11 11 11 11 11 9.5 9.5l1-.5 1-.5 1.5-1 1.5-1 .5-1.5.5-1.5 1.5 1 1.5 1 1 1 1 1-1.5 1-1.5 1-.5 1-.5 1" style="fill:#362911;stroke:#362911" />
        <path d="m372 959v1h1.5 1.5 2 2 2.5 2.5 2 2 2.5 2.5 2 2 2.5 2.5 2 2l-4.5-7-4.5-7-2.5-2.5-2.5-2.5 6-4 6-4-3-5-3-5-.5-7-.5-7v-6-6l-1.5-3.5-1.5-3.5-1-6-1-6 1-7 1-7-2-5.5-2-5.5v-7-7l2-4 2-4v-6-6l-3-3-3-3-1-5.5-1-5.5-3.5-1.5-3.5-1.5 5.5-3.5 5.5-3.5-3.5-4.5-3.5-4.5-1.5-6.5-1.5-6.5-4.5-7-4.5-7-1.5-7.5-1.5-7.5-2.5-7.5-2.5-7.5-3.5-7.5-3.5-7.5-3.5-7.5-3.5-7.5-4-7.5-4-7.5-3.5-7.5-3.5-7.5-3.5-7.5-3.5-7.5-7.5-.5-7.5-.5-3.5 5.5-3.5 5.5-1.5 8-1.5 8-1 7-1 7 .5 5.5.5 5.5.5 9.5.5 9.5v7 7l-.5 6-.5 6 3.5 5.5 3.5 5.5-2 2-2 2 2 2 2 2 3 7 3 7 2 8.5 2 8.5v3 3l2 4 2 4 3 7 3 7-2 5-2 5 2.5 2 2.5 2-.5 6.5-.5 6.5 2.5 3.5 2.5 3.5 3 5 3 5v3 3l2 7.5 2 7.5 3.5 5.5 3.5 5.5 1.5 4.5 1.5 4.5 2 5 2 5 2.5 3.5 2.5 3.5 3 4.5 3 4.5 1.5 3.5 1.5 3.5.5 8 .5 8" style="fill:#27383c;stroke:#27383c" />
        <path d="m513 959v1h1.5 1.5 2 2 2.5 2.5 2 2 2.5 2.5 2 2 2.5 2.5 2 2 2 2 2.5 2.5 1 1v-.5-.5l-7-1.5-7-1.5-6-.5-6-.5 6-2 6-2 7.5.5 7.5.5-5-2-5-2-.5-2.5-.5-2.5-6 .5-6 .5-6.5-.5-6.5-.5-7.5.5-7.5.5 2-4 2-4 4.5-3.5 4.5-3.5-3 .5-3 .5h-5-5l-3-4-3-4 4-3 4-3-5.5-3.5-5.5-3.5-2-.5-2-.5-1.5.5-1.5.5-4-6-4-6 6.5 1 6.5 1 5-5 5-5 4.5-3 4.5-3-5.5-2.5-5.5-2.5-2-4-2-4-6.5-1.5-6.5-1.5 2-2 2-2 3.5-4 3.5-4-3.5-2.5-3.5-2.5h-4-4l-2 6-2 6-1.5 6.5-1.5 6.5-3.5 1-3.5 1-6-8.5-6-8.5.5 1 .5 1 .5 1.5.5 1.5 1 2 1 2 1 .5 1 .5.5 1.5.5 1.5.5 1 .5 1 4.5 7 4.5 7 4.5 6.5 4.5 6.5 4.5 7 4.5 7 6 12.5 6 12.5.5 1 .5 1 1 1.5 1 1.5 1 1 1 1 1 1.5 1 1.5.5 1.5.5 1.5 1 .5 1 .5-.5-1.5-.5-1.5 1.5.5 1.5.5.5 2 .5 2-1 1-1 1" style="fill:#6d7467;stroke:#6d7467" />
        <path d="m558 959v1h12.5 12.5 11 11 11.5 11.5 11 11 11 11 11 11 9 9v-2-2-11.5-11.5-2.5-2.5l-.5-.5-.5-.5-6.5-5.5-6.5-5.5-5-6-5-6-5.5-5.5-5.5-5.5-5.5-5.5-5.5-5.5-5.5-5.5-5.5-5.5-6-5.5-6-5.5-5-6-5-6-6-5-6-5-6.5-4.5-6.5-4.5-2-4-2-4-6.5-3-6.5-3-3-5-3-5-5-6-5-6h-9-9-9-9l-1 5.5-1 5.5-1-4-1-4 4-2 4-2-4-2-4-2-6.5.5-6.5.5-6 2-6 2-3 4-3 4 6-1 6-1 3.5 5.5 3.5 5.5-7-1-7-1 2 2.5 2 2.5-4 4-4 4 5 4 5 4-5 1-5 1h-3-3l-3.5 2-3.5 2 1.5-3.5 1.5-3.5-1.5-.5-1.5-.5-5-4-5-4-3.5-1.5-3.5-1.5-2-5.5-2-5.5-1.5-5.5-1.5-5.5-3.5-3.5-3.5-3.5 6-6 6-6h-2-2l-1 .5-1 .5-1.5 1.5-1.5 1.5-.5.5-.5.5-1-.5-1-.5-.5-.5-.5-.5-.5-.5-.5-.5h-1-1l-.5-1-.5-1-.5-.5-.5-.5-.5-.5-.5-.5h-1-1l-1-.5-1-.5.5-1 .5-1 .5-1 .5-1v-1-1l1.5-.5 1.5-.5.5-1 .5-1 .5-.5.5-.5.5-.5.5-.5.5-.5.5-.5v-.5-.5l.5-.5.5-.5v-1-1l-.5.5-.5.5-1-.5-1-.5-.5-.5-.5-.5-.5-.5-.5-.5v-1-1h1 1l.5-1 .5-1 .5-.5.5-.5h-1-1l-.5.5-.5.5-1.5-.5-1.5-.5h-2-2-1-1-1-1l-4.5-3.5-4.5-3.5-4.5-5-4.5-5-1.5 1-1.5 1-1-.5-1-.5.5-1.5.5-1.5-1.5 1-1.5 1-.5 1.5-.5 1.5v1.5 1.5l.5 2.5.5 2.5 4 4.5 4 4.5-1 2-1 2-3 3-3 3 5.5 5.5 5.5 5.5 4 5 4 5-.5 5-.5 5 5 7.5 5 7.5h1.5 1.5l-.5 1.5-.5 1.5-1.5 1-1.5 1 .5 1.5.5 1.5v2.5 2.5l-1 1-1 1-.5 1-.5 1-.5 1.5-.5 1.5-.5 1.5-.5 1.5h-1.5-1.5-.5-.5l.5 1 .5 1 .5 1.5.5 1.5 1 1.5 1 1.5 1 1 1 1 1 1.5 1 1.5.5 1.5.5 1.5 1 1 1 1 1 1.5 1 1.5.5 1.5.5 1.5 1 2.5 1 2.5 6 8.5 6 8.5 3.5-1 3.5-1 1.5-6.5 1.5-6.5 2-6 2-6h4 4l3.5 2.5 3.5 2.5-3.5 4-3.5 4-2 2-2 2 6.5 1.5 6.5 1.5 2 4 2 4 5.5 2.5 5.5 2.5-4.5 3-4.5 3-5 5-5 5 6-1 6-1 4 .5 4 .5-5 5-5 5-1-1.5-1-1.5-1.5-.5-1.5-.5-1-.5-1-.5-1.5-.5-1.5-.5v-1.5-1.5l-6.5-1-6.5-1 4 6 4 6 1.5-.5 1.5-.5 2 .5 2 .5 5.5 3.5 5.5 3.5-4 3-4 3 3 4 3 4h5 5l3-.5 3-.5-4.5 3.5-4.5 3.5-2 4-2 4 7.5-.5 7.5-.5 6.5.5 6.5.5 6-.5 6-.5.5 2.5.5 2.5 5 2 5 2-7.5-.5-7.5-.5-6 2-6 2 6 .5 6 .5 7 1.5 7 1.5" style="fill:#969686;stroke:#969686" />
        <path d="m314 950l3 1 .5-1.5.5-1.5-1-1.5-1-1.5-.5-1-.5-1h-.5-.5l-1 1.5-1 1.5-1.5-.5-1.5-.5.5 2 .5 2 1.5.5 1.5.5h.5.5" style="fill:#27383c;stroke:#27383c" />
        <g style="fill:#595948;stroke:#595948">
            <path d="m310 942h2l1 .5 1 .5h.5.5l1-1.5 1-1.5-.5-1.5-.5-1.5-.5-2-.5-2v-2-2l-.5-.5-.5-.5h-2.5-2.5v2 2l-.5 1-.5 1 .5 1.5.5 1.5.5 1 .5 1-1 1-1 1 1 .5 1 .5" />
            <path d="m501 940l1 1-6-12.5-6-12.5-4.5-7-4.5-7-4.5-6.5-4.5-6.5-4.5-7-4.5-7 6.5 11 6.5 11 4 7 4 7 4 7 4 7 4.5 7.5 4.5 7.5" />
        </g>
        <path d="m309 927v1h2.5 2.5l-2-9.5-2-9.5v4 4 3 3l-.5 2-.5 2" style="fill:#27383c;stroke:#27383c" />
        <path d="m711 927l1 1v-1.5-1.5l-.5-.5-.5-.5-6-6-6-6-5.5-5.5-5.5-5.5-5.5-5.5-5.5-5.5-5.5-5.5-5.5-5.5-5.5-5.5-5.5-5.5-5.5-6-5.5-6-5.5-5.5-5.5-5.5-6-5-6-5-5.5-5.5-5.5-5.5-5.5-5.5-5.5-5.5-6-5.5-6-5.5-5.5-5.5-5.5-5.5-5.5-5.5-5.5-5.5-5.5-5.5-5.5-5.5-6-5-6-5-6-5.5-6-5.5-5.5-5.5-5.5-5.5-6-5-6-5-5-4-5-4h-6-6l-5-4.5-5-4.5-3.5-3.5-3.5-3.5h-5-5v-4-4l-5.5-4.5-5.5-4.5-2.5-5-2.5-5-2-7-2-7-6.5-3.5-6.5-3.5-3.5-4.5-3.5-4.5-3-5-3-5-5-3.5-5-3.5v-4-4l-5.5-5.5-5.5-5.5-4.5-6.5-4.5-6.5-5.5-5.5-5.5-5.5 1-3.5 1-3.5 5.5 5.5 5.5 5.5 6.5 4.5 6.5 4.5 4 2 4 2 1.5-3.5 1.5-3.5 2-4.5 2-4.5.5-2.5.5-2.5 2-3 2-3-3-6-3-6 5-1 5-1-.5-4-.5-4 .5-4.5.5-4.5 11 5 11 5-1-1-1-1-1-.5-1-.5-1-1-1-1-8-4-8-4-7.5-3.5-7.5-3.5-7.5-3.5-7.5-3.5-7.5-3-7.5-3-3.5 1.5-3.5 1.5v10 10l-.5 9.5-.5 9.5-3 3-3 3-3 4.5-3 4.5h-8-8l.5 1.5.5 1.5-1.5 4.5-1.5 4.5-8.5 4-8.5 4-.5-1.5-.5-1.5-1.5-1-1.5-1v-2-2l.5-1 .5-1v-2-2l.5-2 .5-2-.5-1.5-.5-1.5v-1.5-1.5l1-1 1-1 .5-1 .5-1-2-9-2-9-2-9-2-9-2-13-2-13 5-7 5-7 .5-11 .5-11-.5-.5-.5-.5-1.5-10-1.5-10-10.5-2-10.5-2 5.5 2 5.5 2 2 2.5 2 2.5 4 7 4 7-3.5 16.5-3.5 16.5-1 .5-1 .5-1 1-1 1-1 1-1 1v2.5 2.5l2.5 9 2.5 9 2 9.5 2 9.5-2.5 11-2.5 11h-1.5-1.5-1.5-1.5l5 6 5 6 .5 7.5.5 7.5 4 7 4 7 4 7.5 4 7.5 4.5 6.5 4.5 6.5 6 3 6 3v2 2l-.5 5.5-.5 5.5 3 7.5 3 7.5 3.5 7.5 3.5 7.5 4 6 4 6-3-7-3-7-2.5-6.5-2.5-6.5.5-8.5.5-8.5.5-7.5.5-7.5 2-5.5 2-5.5 3-4 3-4-4.5-2.5-4.5-2.5-.5-1.5-.5-1.5 2.5-4.5 2.5-4.5 6.5 3 6.5 3-5.5-.5-5.5-.5.5 4.5.5 4.5 4.5 1.5 4.5 1.5 1.5 5.5 1.5 5.5 8 1.5 8 1.5 4 4 4 4 3.5 2.5 3.5 2.5 6.5 3.5 6.5 3.5 1 5 1 5 4 6.5 4 6.5v6 6l2 4 2 4 2 5 2 5v2 2l-2 4.5-2 4.5 4.5 2.5 4.5 2.5 3 3 3 3-4.5-.5-4.5-.5 3.5 6.5 3.5 6.5 1.5.5 1.5.5.5-.5.5-.5h1 1l-.5.5-.5.5-.5 1-.5 1h-1-1v1 1l.5.5.5.5.5.5.5.5 1 .5 1 .5.5-.5.5-.5v1 1l-.5.5-.5.5v.5.5l-.5.5-.5.5-.5.5-.5.5-.5.5-.5.5-.5 1-.5 1v1 1l1.5.5 1.5.5h1 1 1.5 1.5 1 1l-.5 2-.5 2 1 1 1 1h2 2l1.5.5 1.5.5-6 6-6 6 3.5 3.5 3.5 3.5 1.5 5.5 1.5 5.5 2 5.5 2 5.5 3.5 1.5 3.5 1.5 5 4 5 4 1.5.5 1.5.5-1.5 3.5-1.5 3.5 3.5-2 3.5-2h3 3l5-1 5-1-5-4-5-4 4-4 4-4-2-2.5-2-2.5 7 1 7 1-3.5-5.5-3.5-5.5-6 1-6 1 3-4 3-4 6-2 6-2h-2-2l-1.5-.5-1.5-.5-1.5-.5-1.5-.5h-1.5-1.5l.5 1.5.5 1.5h-1.5-1.5l-.5-2.5-.5-2.5 3.5-1.5 3.5-1.5.5-3.5.5-3.5 4 7 4 7 6.5-.5 6.5-.5 4 2 4 2-4 2-4 2 1 4 1 4 1-5.5 1-5.5h9 9 9 9l5 6 5 6 3 5 3 5 6.5 3 6.5 3 2 4 2 4 6.5 4.5 6.5 4.5 6 5 6 5 5 6 5 6 6 5.5 6 5.5 5.5 5.5 5.5 5.5 5.5 5.5 5.5 5.5 5.5 5.5 5.5 5.5 5 6 5 6 6.5 5.5 6.5 5.5" style="fill:#6d7467;stroke:#6d7467" />
        <path d="m711 924l1 1v-1.5-1.5l-.5-.5-.5-.5-6-6-6-6-5.5-5.5-5.5-5.5-5.5-5.5-5.5-5.5-5.5-5.5-5.5-5.5-5.5-5.5-5.5-5.5-6-5.5-6-5.5-5.5-5.5-5.5-5.5-5.5-5.5-5.5-5.5-5.5-5.5-5.5-5.5-5.5-5.5-5.5-5.5-6-5.5-6-5.5-5.5-5.5-5.5-5.5-5.5-5.5-5.5-5.5-7.5-7-7.5-7-.5-.5-.5-.5-6.5-6-6.5-6-6-5-6-5-5.5-5.5-5.5-5.5-5.5-6-5.5-6-5.5-5.5-5.5-5.5-6-5-6-5-5.5-5.5-5.5-5.5-5-6-5-6-6-5.5-6-5.5-5.5-5.5-5.5-5.5-5.5-5.5-5.5-5.5-5-6-5-6-5.5-5.5-5.5-5.5-5.5-6-5.5-6 3 2 3 2 6 5 6 5 6 5 6 5 5.5 5.5 5.5 5.5 6 5.5 6 5.5 6 5 6 5 3 4 3 4 7 6.5 7 6.5 1.5 1 1.5 1 1 1.5 1 1.5 1 .5 1 .5.5.5.5.5v1 1h1 1l.5 1 .5 1 6 6 6 6 5.5 5.5 5.5 5.5 8 8.5 8 8.5 1 .5 1 .5.5.5.5.5.5.5.5.5.5.5.5.5.5.5.5.5 1.5 1 1.5 1 6 5.5 6 5.5 5.5 5.5 5.5 5.5 6 5 6 5 5.5 5.5 5.5 5.5 6 5 6 5 5.5 5.5 5.5 5.5 5.5 5.5 5.5 5.5 6 5 6 5 6 5.5 6 5.5 5.5 5.5 5.5 5.5 5.5 5.5 5.5 5.5 6 5 6 5 5.5 5.5 5.5 5.5 6 5.5 6 5.5 7.5 7 7.5 7v-3-3-2.5-2.5-1.5-1.5h-1-1l-6-6-6-6-5.5-5.5-5.5-5.5-6-5-6-5-5-6-5-6-6.5-5-6.5-5-5.5-5.5-5.5-5.5-6.5-4.5-6.5-4.5-5-6-5-6-6-5-6-5-5.5-6-5.5-6-6-5-6-5-5.5-5.5-5.5-5.5-5-4-5-4-4.5-5.5-4.5-5.5-5.5-6-5.5-6-4-5-4-5-5.5-3.5-5.5-3.5-1.5-7.5-1.5-7.5-5.5-4.5-5.5-4.5-2-6.5-2-6.5 4-5 4-5 4.5-4.5 4.5-4.5 2-1 2-1-3.5-3.5-3.5-3.5v-3.5-3.5l3-3 3-3 5 3 5 3v-7-7l-2.5-3.5-2.5-3.5-4 .5-4 .5v-5-5l-1-6-1-6-8-5-8-5-1-.5-1-.5-8-4-8-4-7.5-4-7.5-4-9-5.5-9-5.5-1-1-1-1-.5-.5-.5-.5h-1-1l-.5-.5-.5-.5-2-.5-2-.5-11-5-11-5-.5 4.5-.5 4.5.5 4 .5 4-5 1-5 1 3 6 3 6-2 3-2 3-.5 2.5-.5 2.5-2 4.5-2 4.5-1.5 3.5-1.5 3.5-4-2-4-2-6.5-4.5-6.5-4.5-5.5-5.5-5.5-5.5-1 3.5-1 3.5 5.5 5.5 5.5 5.5 4.5 6.5 4.5 6.5 5.5 5.5 5.5 5.5v4 4l5 3.5 5 3.5 3 5 3 5 3.5 4.5 3.5 4.5 6.5 3.5 6.5 3.5 2 7 2 7 2.5 5 2.5 5 5.5 4.5 5.5 4.5v4 4h5 5l3.5 3.5 3.5 3.5 5 4.5 5 4.5h6 6l5 4 5 4 6 5 6 5 5.5 5.5 5.5 5.5 6 5.5 6 5.5 6 5 6 5 5.5 5.5 5.5 5.5 5.5 5.5 5.5 5.5 5.5 5.5 5.5 5.5 6 5.5 6 5.5 5.5 5.5 5.5 5.5 5.5 5.5 5.5 5.5 6 5 6 5 5.5 5.5 5.5 5.5 5.5 6 5.5 6 5.5 5.5 5.5 5.5 5.5 5.5 5.5 5.5 5.5 5.5 5.5 5.5 5.5 5.5 5.5 5.5 6 6 6 6" style="fill:#595948;stroke:#595948" />
        <path d="m510 922l11-11-4.5.5-4.5.5-.5 4-.5 4-.5 1-.5 1" style="fill:#6d7467;stroke:#6d7467" />
        <path d="m711 921l1 1v-3-3-2.5-2.5-2-2-1.5-1.5l-7.5-7-7.5-7-6-5.5-6-5.5-5.5-5.5-5.5-5.5-6-5-6-5-5.5-5.5-5.5-5.5-5.5-5.5-5.5-5.5-6-5.5-6-5.5-6-5-6-5-5.5-5.5-5.5-5.5-5.5-5.5-5.5-5.5-6-5-6-5-5.5-5.5-5.5-5.5-6-5-6-5-5.5-5.5-5.5-5.5-6-5.5-6-5.5v4 4l7 7.5 7 7.5 7.5 7 7.5 7 5.5 5.5 5.5 5.5 5.5 5.5 5.5 5.5 6 5.5 6 5.5 5.5 5.5 5.5 5.5 5.5 5.5 5.5 5.5 5.5 5.5 5.5 5.5 5.5 5.5 5.5 5.5 6 5.5 6 5.5 5.5 5.5 5.5 5.5 5.5 5.5 5.5 5.5 5.5 5.5 5.5 5.5 5.5 5.5 5.5 5.5 6 6 6 6" style="fill:#362911;stroke:#362911" />
        <g style="fill:#6d7467;stroke:#6d7467">
            <path d="m504 908l10-10-4-.5-4-.5-6 1-6 1v1.5 1.5l1.5.5 1.5.5 1 .5 1 .5 1.5.5 1.5.5 1 1.5 1 1.5" />
            <path d="m531 905v-12l-5.5.5-5.5.5v3.5 3.5l5.5 2 5.5 2" />
        </g>
        <path d="m305 893l-3-15-7 4-7 4 4 .5 4 .5 4.5 3 4.5 3" style="fill:#27383c;stroke:#27383c" />
        <path d="m710 890h2v-13.5-13.5-11-11-11-11-11-11-11-11-11.5-11.5-11-11-11-11-4.5-4.5h-1-1l-8-4-8-4-7-4-7-4-11.5-6.5-11.5-6.5-1-.5-1-.5-8.5-4-8.5-4-7-4-7-4-7-4-7-4-7.5-4-7.5-4-7-4-7-4-7.5-3.5-7.5-3.5-7-4-7-4-7-4-7-4-7.5-4-7.5-4-7.5-4.5-7.5-4.5-2-.5-2-.5 8 5 8 5 1 6 1 6v5 5l4-.5 4-.5 2.5 3.5 2.5 3.5v7 7l-5-3-5-3-3 3-3 3v3.5 3.5l3.5 3.5 3.5 3.5-2 1-2 1-4.5 4.5-4.5 4.5-4 5-4 5 2 6.5 2 6.5 5.5 4.5 5.5 4.5 1.5 7.5 1.5 7.5 5.5 3.5 5.5 3.5 4 5 4 5 5.5 6 5.5 6 4.5 5.5 4.5 5.5 5 4 5 4 5.5 5.5 5.5 5.5 6 5 6 5 5.5 6 5.5 6 6 5 6 5 5 6 5 6 6.5 4.5 6.5 4.5 5.5 5.5 5.5 5.5 6.5 5 6.5 5 5 6 5 6 6 5 6 5 5.5 5.5 5.5 5.5 6 6 6 6" style="fill:#6d7467;stroke:#6d7467" />
        <path d="m300 869h2v-1-1l-1.5-1-1.5-1-1-1-1-1 2-.5 2-.5-1.5-.5-1.5-.5-1 .5-1 .5-1 1-1 1v1 1l2 .5 2 .5 1 1 1 1" style="fill:#27383c;stroke:#27383c" />
        <path d="m505 869l5-11 5-5 5-5 2.5-2 2.5-2 4.5 2.5 4.5 2.5.5-4.5.5-4.5-5.5-1.5-5.5-1.5-4.5.5-4.5.5h-4.5-4.5l1.5 3.5 1.5 3.5h-4-4l-4 1-4 1 4.5 5.5 4.5 5.5 1.5 5.5 1.5 5.5" style="fill:#6d7467;stroke:#6d7467" />
        <path d="m458 868l1 1-1-2-1-2-.5-1.5-.5-1.5-.5-1-.5-1-1-2.5-1-2.5-.5-1.5-.5-1.5-1-1.5-1-1.5-1-1-1-1-.5-1.5-.5-1.5-1-1.5-1-1.5-1-1-1-1-1-1.5-1-1.5-.5-1.5-.5-1.5-.5-1-.5-1-.5-2.5-.5-2.5-1.5-1-1.5-1-.5-1.5-.5-1.5-1-1-1-1-.5-1.5-.5-1.5v-1-1-1.5-1.5l-1.5-.5-1.5-.5-.5-2-.5-2-1-2-1-2-4-7-4-7-4-5-4-5-1-1.5-1-1.5-.5-1.5-.5-1.5-.5-2-.5-2-.5-1.5-.5-1.5-.5-.5-.5-.5-.5-1-.5-1-1-1-1-1-.5-1.5-.5-1.5-.5-1-.5-1-1-1-1-1-.5-.5-.5-.5-.5-.5-.5-.5v-1.5-1.5l-1-1-1-1v-1-1l-.5-1-.5-1-.5-1.5-.5-1.5-.5-.5-.5-.5-.5-.5-.5-.5-.5-.5-.5-.5.5-1 .5-1 .5-1.5.5-1.5-.5-1-.5-1-.5-.5-.5-.5-.5-.5-.5-.5-.5-.5-.5-.5-.5-1-.5-1-.5-1-.5-1-1 .5-1 .5.5 1 .5 1h-1-1v-1-1l-.5-.5-.5-.5-.5-.5-.5-.5v-1.5-1.5l-1-1-1-1v-1-1-1.5-1.5l-.5-1.5-.5-1.5-.5-.5-.5-.5v-1.5-1.5-1.5-1.5l-.5 1.5-.5 1.5-.5-1.5-.5-1.5-.5 1.5-.5 1.5-4-6-4-6-3.5-7.5-3.5-7.5-3-7.5-3-7.5.5-5.5.5-5.5v-2-2l-6-3-6-3-4.5-6.5-4.5-6.5-4-7.5-4-7.5-4-7-4-7-.5-7.5-.5-7.5-5-6-5-6-1 1.5-1 1.5v1 1l.5 1 .5 1 1 1.5 1 1.5 4.5 10.5 4.5 10.5 4 7.5 4 7.5 1 .5 1 .5.5.5.5.5.5.5.5.5v1.5 1.5l.5.5.5.5.5.5.5.5v1 1l.5.5.5.5.5 1 .5 1 .5.5.5.5v1 1l.5.5.5.5.5 1 .5 1 .5.5.5.5v1 1l.5.5.5.5.5.5.5.5.5 1 .5 1v1 1l.5 1.5.5 1.5 6.5 11.5 6.5 11.5 3.5 7.5 3.5 7.5 2.5 5.5 2.5 5.5 3.5 6.5 3.5 6.5 4 7.5 4 7.5 4 7 4 7 4 7 4 7 4 7 4 7 4 7 4 7 4 7.5 4 7.5 4 7 4 7 4 7 4 7 4 7 4 7 4 7 4 7 4.5 7.5 4.5 7.5" style="fill:#595948;stroke:#595948" />
        <path d="m525 859h2l1-1 1-1 2-.5 2-.5v-1-1l-1.5-1-1.5-1-1.5-.5-1.5-.5-.5 2-.5 2-1 1-1 1 .5 1 .5 1" style="fill:#6d7467;stroke:#6d7467" />
        <path d="m440 831h3l.5-1.5.5-1.5.5-1.5.5-1.5.5-1 .5-1 1-1 1-1v-2.5-2.5l-.5-1.5-.5-1.5 1.5-1 1.5-1 .5-1.5.5-1.5h-1.5-1.5l-1.5.5-1.5.5-5.5-6.5-5.5-6.5-2 2-2 2 .5 1 .5 1 1.5.5 1.5.5.5 1.5.5 1.5.5.5.5.5 1 .5 1 .5-1.5.5-1.5.5.5.5.5.5 1 .5 1 .5 1.5.5 1.5.5-.5.5-.5.5h-1.5-1.5l-1.5.5-1.5.5v1.5 1.5.5.5l-1.5-1-1.5-1 .5 1.5.5 1.5 1 1 1 1 .5 1.5.5 1.5 1.5 1 1.5 1 .5 2.5.5 2.5h.5.5" style="fill:#b5c1be;stroke:#b5c1be" />
        <path d="m538 822l5-7-5.5-2.5-5.5-2.5v2.5 2.5l3 3.5 3 3.5" style="fill:#6d7467;stroke:#6d7467" />
        <path d="m350 821l-2-16-4.5 4.5-4.5 4.5 5.5 3.5 5.5 3.5" style="fill:#39596c;stroke:#39596c" />
        <path d="m434 818v-1-1.5-1.5-.5-.5l-.5-1.5-.5-1.5-.5-.5-.5-.5-.5-.5-.5-.5-.5-1-.5-1-.5-.5-.5-.5-.5-.5-.5-.5v-1-1h-1.5-1.5l1 2 1 2 .5 2 .5 2 1.5.5 1.5.5v1.5 1.5 1 1l1.5 1 1.5 1" style="fill:#d9fbf2;stroke:#d9fbf2" />
        <path d="m503 816l-4-12 1 3 1 3 1 3 1 3" style="fill:#969686;stroke:#969686" />
        <path d="m563 815l13-5-6 2-6 2-.5.5-.5.5" style="fill:#6d7467;stroke:#6d7467" />
        <path d="m434 813v1l1.5-.5 1.5-.5h1.5 1.5l.5-.5.5-.5-1.5-.5-1.5-.5-1-.5-1-.5-.5-.5-.5-.5 1.5-.5 1.5-.5-1-.5-1-.5-.5-.5-.5-.5-.5-1.5-.5-1.5-1.5-.5-1.5-.5-.5-1-.5-1-1-.5-1-.5v-1-1l-.5-.5-.5-.5-.5-.5-.5-.5-1-.5-1-.5v-.5-.5l-1.5-1-1.5-1-.5-.5-.5-.5v-1.5-1.5l1.5-.5 1.5-.5.5-.5.5-.5v-1.5-1.5l-1-1-1-1-1.5-.5-1.5-.5h-1-1l-.5-1-.5-1-1-1-1-1-.5-.5-.5-.5h-1.5-1.5l-.5 2-.5 2 4 5 4 5 4 7 4 7h1.5 1.5v1 1l.5.5.5.5.5.5.5.5.5 1 .5 1 .5.5.5.5.5.5.5.5.5 1.5.5 1.5" style="fill:#baeaef;stroke:#baeaef" />
        <path d="m445 809l3-1-5-7.5-5-7.5.5-5 .5-5-4-5-4-5-5.5-5.5-5.5-5.5 3-3 3-3 1-2 1-2-4-4.5-4-4.5-.5-.5-.5-.5-.5-1.5-.5-1.5-1-1.5-1-1.5 1-1 1-1v-1-1l-1-1.5-1-1.5v-1-1l1-2.5 1-2.5 1.5-1 1.5-1v-.5-.5l-4.5-7-4.5-7-6.5-3.5-6.5-3.5 1-3.5 1-3.5-5.5-5.5-5.5-5.5-2-5-2-5-5 1-5 1-2.5 6.5-2.5 6.5 1.5 8 1.5 8v1.5 1.5 1.5 1.5l.5.5.5.5.5 1.5.5 1.5v1.5 1.5 1 1l1 1 1 1v1.5 1.5l.5.5.5.5.5.5.5.5v1 1h1 1l-.5-1-.5-1 1-.5 1-.5 1-6 1-6 3-5 3-5 5 6 5 6-1 12-1 12 1 1.5 1 1.5-1.5.5-1.5.5-1.5.5-1.5.5 1 1 1 1 1 1 1 1h2 2l1-1 1-1 .5-.5.5-.5 1 .5 1 .5 1 1 1 1 1 1 1 1 1.5 1 1.5 1 .5 1 .5 1-1.5-.5-1.5-.5-1 1-1 1h-1.5-1.5v2 2h-1.5-1.5l-.5-.5-.5-.5h-1.5-1.5-1-1-.5-.5l.5 1 .5 1 .5 1.5.5 1.5 1 1 1 1 .5 1 .5 1 .5.5.5.5.5 1.5.5 1.5 9 1.5 9 1.5.5 11.5.5 11.5 1 .5 1 .5.5.5.5.5.5.5.5.5v1 1l1 .5 1 .5 2-2 2-2 5.5 6.5 5.5 6.5" style="fill:#8cb5c7;stroke:#8cb5c7" />
        <path d="m424 793v1l-.5-11.5-.5-11.5-9-1.5-9-1.5.5 2 .5 2 .5 1.5.5 1.5 1 1.5 1 1.5.5-2 .5-2h1.5 1.5l.5.5.5.5 1 1 1 1 .5 1 .5 1h1 1l1.5.5 1.5.5 1 1 1 1v1.5 1.5l-.5.5-.5.5-1.5.5-1.5.5v1.5 1.5l.5.5.5.5 1.5 1 1.5 1" style="fill:#b5c1be;stroke:#b5c1be" />
        <g style="fill:#969686;stroke:#969686">
            <path d="m507 790h3l-.5-1.5-.5-1.5h1.5 1.5l1.5.5 1.5.5 1.5.5 1.5.5h2 2l-4-7-4-7-.5 3.5-.5 3.5-3.5 1.5-3.5 1.5.5 2.5.5 2.5" />
            <path d="m561 789l3 1 1.5-.5 1.5-.5 1-1.5 1-1.5-1.5-.5-1.5-.5h-1.5-1.5l-1.5.5-1.5.5-2 .5-2 .5 1 1 1 1h1.5 1.5" />
        </g>
        <path d="m463 780l1-1-.5-.5-.5-.5-1-1-1-1 1-.5 1-.5v-1-1h-1-1v-1-1l-1-.5-1-.5-1 1-1 1-.5-.5-.5-.5-1-.5-1-.5h-1.5-1.5l-.5 1-.5 1 1 .5 1 .5h1 1l.5.5.5.5.5.5.5.5.5 1 .5 1h1 1l.5.5.5.5.5.5.5.5 1 .5 1 .5" style="fill:#6d7467;stroke:#6d7467" />
        <path d="m331 778l6-10-3.5-5.5-3.5-5.5-2.5 6-2.5 6 3 4.5 3 4.5" style="fill:#39596c;stroke:#39596c" />
        <path d="m463 778l1 1 1.5-1.5 1.5-1.5 1-.5 1-.5h2 2l-1.5-.5-1.5-.5h-2-2l-1-1-1-1 .5-2 .5-2h-1-1-1.5-1.5-1-1l-1.5-.5-1.5-.5v-1-1l-1.5.5-1.5.5v1 1l-.5 1-.5 1h1.5 1.5l1 .5 1 .5.5.5.5.5 1-1 1-1 1 .5 1 .5v1 1h1 1v1 1l-1 .5-1 .5 1 1 1 1" style="fill:#5a7985;stroke:#5a7985" />
        <path d="m549 762l1 1-7-7.5-7-7.5v-4-4l-1.5-1-1.5-1-.5-.5-.5-.5-.5-.5-.5-.5-.5-.5-.5-.5-.5-.5-.5-.5-1-.5-1-.5-.5 1-.5 1-1.5-.5-1.5-.5-5-6-5-6-5.5-4.5-5.5-4.5-7-10-7-10-.5-1-.5-1h-1-1v-1-1l-.5-.5-.5-.5-1-.5-1-.5-1 1-1 1-.5.5-.5.5-.5-1-.5-1-1-1-1-1-.5-1.5-.5-1.5-2 .5-2 .5-.5-1.5-.5-1.5-.5-2-.5-2 .5-.5.5-.5 1 1 1 1 1 1.5 1 1.5 1.5.5 1.5.5-7-6.5-7-6.5-3-4-3-4-6-5-6-5-6-5.5-6-5.5-5.5-5.5-5.5-5.5-6-5-6-5-6-5-6-5-3-2-3-2 5.5 6 5.5 6 5.5 5.5 5.5 5.5 5 6 5 6 5.5 5.5 5.5 5.5 5.5 5.5 5.5 5.5 6 5.5 6 5.5 5 6 5 6 5.5 5.5 5.5 5.5 6 5 6 5 5.5 5.5 5.5 5.5 5.5 6 5.5 6 5.5 5.5 5.5 5.5 6 5 6 5 6.5 6 6.5 6" style="fill:#27383c;stroke:#27383c" />
        <path d="m405 756h3v-2-2h1.5 1.5l1-1 1-1 1.5.5 1.5.5-.5-1-.5-1-1.5-1-1.5-1-1 1.5-1 1.5-1 .5-1 .5-1.5.5-1.5.5-1.5-.5-1.5-.5h-2.5-2.5l-.5-1-.5-1-.5-2-.5-2 1-1 1-1-1-1-1-1 1.5-.5 1.5-.5 1.5-.5 1.5-.5-1-1.5-1-1.5-1 1-1 1-.5.5-.5.5-1.5-.5-1.5-.5-1-.5-1-.5.5-1 .5-1 1.5-.5 1.5-.5-1.5-.5-1.5-.5-1.5-1-1.5-1-.5 1.5-.5 1.5-.5 1-.5 1 .5.5.5.5.5.5.5.5.5.5.5.5.5 1.5.5 1.5.5 1 .5 1v1 1l1 1 1 1v1.5 1.5l.5.5.5.5.5.5.5.5 1 1 1 1h.5.5 1 1 1.5 1.5l.5.5.5.5" style="fill:#b5c1be;stroke:#b5c1be" />
        <path d="m402 751l3 1 1.5-.5 1.5-.5 1-.5 1-.5v-.5-.5l-1-.5-1-.5h-1-1l-.5-.5-.5-.5h-1.5-1.5l-.5.5-.5.5h-1-1l-.5-.5-.5-.5-1 1-1 1 .5 1 .5 1h2.5 2.5" style="fill:#baeaef;stroke:#baeaef" />
        <path d="m410 749v1l1-1.5 1-1.5-1-1-1-1-1-1-1-1-1-.5-1-.5-.5.5-.5.5-1 1-1 1h-2-2l-1-1-1-1-1 1-1 1 .5 2 .5 2 1-1 1-1 .5.5.5.5h1 1l.5-.5.5-.5h1.5 1.5l.5.5.5.5h1 1l1 .5 1 .5" style="fill:#9bd5e8;stroke:#9bd5e8" />
        <path d="m445 749h2 1 1 2 2l-3.5-6.5-3.5-6.5 4.5.5 4.5.5-3-3-3-3-4.5-2.5-4.5-2.5 2-4.5 2-4.5v-2-2l-2-5-2-5-2-4-2-4v-6-6l-4-6.5-4-6.5-1-5-1-5-6.5-3.5-6.5-3.5-3.5-2.5-3.5-2.5-4-4-4-4-8-1.5-8-1.5-1.5-5.5-1.5-5.5-4.5-1.5-4.5-1.5-.5-4.5-.5-4.5 5.5.5 5.5.5-6.5-3-6.5-3-2.5 4.5-2.5 4.5.5 1.5.5 1.5 4.5 2.5 4.5 2.5-3 4-3 4-2 5.5-2 5.5-.5 7.5-.5 7.5-.5 8.5-.5 8.5 2.5 6.5 2.5 6.5 3 7 3 7 .5-1.5.5-1.5-1-7.5-1-7.5-2-8.5-2-8.5 3-6 3-6 1-2 1-2 4 4 4 4 5.5 2.5 5.5 2.5 3.5 6 3.5 6 4.5 4.5 4.5 4.5 3.5 5.5 3.5 5.5 6 7.5 6 7.5 1.5 1 1.5 1 .5 1.5.5 1.5 1.5.5 1.5.5v1.5 1.5l-.5 1.5-.5 1.5 1 1.5 1 1.5-1 1-1 1-1-1.5-1-1.5-1 1-1 1h-1.5-1.5l-1.5-.5-1.5-.5.5 1.5.5 1.5 1 .5 1 .5 4.5 5 4.5 5 4.5 3.5 4.5 3.5" style="fill:#5a7985;stroke:#5a7985" />
        <path d="m321 748l11-13-3-7-3-7-1.5-8-1.5-8 2-3 2-3-3-7-3-7-4.5-2-4.5-2v1.5 1.5l.5.5.5.5-.5 1-.5 1v1 1l-.5.5-.5.5-.5 1-.5 1v11 11l3.5 7.5 3.5 7.5v8 8l2 1.5 2 1.5" style="fill:#39596c;stroke:#39596c" />
        <path d="m419 742l1 1-.5-2.5-.5-2.5v-1.5-1.5l.5-1.5.5-1.5 1.5-1 1.5-1-.5 1.5-.5 1.5 1 .5 1 .5 1.5-1 1.5-1-1-.5-1-.5-.5-1.5-.5-1.5-1.5-1-1.5-1-1-1-1-1-.5-1-.5-1-1 2.5-1 2.5v1 1l1 1.5 1 1.5v1 1l-1 1-1 1 1 1.5 1 1.5.5 1.5.5 1.5" style="fill:#5c8fab;stroke:#5c8fab" />
        <path d="m393 738l3 1 .5-.5.5-.5 1-1 1-1 1-12 1-12-5-6-5-6-3 5-3 5-1 6-1 6 .5 1 .5 1 .5 1 .5 1 .5.5.5.5.5.5.5.5.5.5.5.5.5 1 .5 1 1.5 1 1.5 1 1.5.5 1.5.5-1.5.5-1.5.5-.5 1-.5 1 1 .5 1 .5" style="fill:#9bd5e8;stroke:#9bd5e8" />
        <path d="m1 736l8-6 5.5.5 5.5.5 8 2 8 2 6.5-4.5 6.5-4.5 6-.5 6-.5 6.5-3.5 6.5-3.5h7 7l3.5 3.5 3.5 3.5 4-7 4-7 3-6.5 3-6.5 6.5-4.5 6.5-4.5 3.5-7.5 3.5-7.5-5.5-5.5-5.5-5.5-7 3-7 3-6-2.5-6-2.5-4.5-1.5-4.5-1.5-8 1-8 1-8.5.5-8.5.5-8-1-8-1-9 .5-9 .5-8-2.5-8-2.5v1.5 1.5 2.5 2.5l8 .5 8 .5h6 6l8 1 8 1-4 4-4 4 7.5-.5 7.5-.5-4 7-4 7-2.5 6.5-2.5 6.5 4.5-2.5 4.5-2.5 3 2 3 2-12 3.5-12 3.5-1 2-1 2-1 1.5-1 1.5-.5 1.5-.5 1.5-1 1.5-1 1.5-1 1-1 1-1 1.5-1 1.5h-1-1l-.5-1.5-.5-1.5v-1-1l.5-2 .5-2 1.5-.5 1.5-.5 1-1 1-1 1.5-1 1.5-1 1-1 1-1 .5-2 .5-2-1.5-.5-1.5-.5-1 .5-1 .5-1.5 1-1.5 1-.5 1.5-.5 1.5-1.5 1-1.5 1-1 1-1 1-1 1.5-1 1.5-1 1-1 1-1 1-1 1h-2.5-2.5l-1 .5-1 .5v3 3 2 2 1 1h.5.5" style="fill:#7b5126;stroke:#7b5126" />
        <path d="m523 734l3 1 .5-1 .5-1-8-8.5-8-8.5-5.5-5.5-5.5-5.5-6-6-6-6 7 10 7 10 5.5 4.5 5.5 4.5 5 6 5 6" style="fill:#362911;stroke:#362911" />
        <path d="m427 729h3l1-1 1-1 1 1.5 1 1.5 1-1 1-1-1-1.5-1-1.5.5-1.5.5-1.5v-1.5-1.5l-1.5-.5-1.5-.5-.5-1.5-.5-1.5-1.5-1-1.5-1 .5 1 .5 1-.5 1-.5 1h-1-1v-1-1l-.5-.5-.5-.5-1 .5-1 .5v1 1l-.5.5-.5.5-.5 1-.5 1-1.5 1-1.5 1 .5 1 .5 1 1 1 1 1 1.5 1 1.5 1 1.5.5 1.5.5" style="fill:#969686;stroke:#969686" />
        <path d="m16 727h2l1-1.5 1-1.5 1-1 1-1 1-1.5 1-1.5.5-1.5.5-1.5 1-1.5 1-1.5 1-2 1-2 .5-1 .5-1 .5-2 .5-2-1 .5-1 .5h-1-1l-1.5.5-1.5.5v.5.5l1.5.5 1.5.5-.5 2-.5 2-1 1-1 1-1.5 1-1.5 1-1 1-1 1-1.5.5-1.5.5-.5 2-.5 2v1 1l.5 1.5.5 1.5" style="fill:#6d7467;stroke:#6d7467" />
        <path d="m0 723v1l1-.5 1-.5h2.5 2.5l1-1 1-1 1-1 1-1 1-1.5 1-1.5 1-1 1-1 1.5-1 1.5-1 .5-1.5.5-1.5 1.5-1 1.5-1 1-.5 1-.5v-.5-.5-.5-.5l5-7 5-7-1.5 6.5-1.5 6.5-.5 2-.5 2-.5 1-.5 1 12-3.5 12-3.5-3-2-3-2-4.5 2.5-4.5 2.5 2.5-6.5 2.5-6.5 4-7 4-7-7.5.5-7.5.5 4-4 4-4-8-1-8-1h-6-6l-8-.5-8-.5v13 13 11 11 4.5 4.5" style="fill:#ad7346;stroke:#ad7346" />
        <path d="m421 719v1l.5-1 .5-1 .5-.5.5-.5v-1-1l1-.5 1-.5.5.5.5.5v1 1h1 1l.5-1 .5-1-.5-1-.5-1-6-7.5-6-7.5-3.5-5.5-3.5-5.5-4.5-4.5-4.5-4.5-3.5-6-3.5-6-5.5-2.5-5.5-2.5-4-4-4-4-1 2-1 2-3 6-3 6 2 8.5 2 8.5 1 7.5 1 7.5.5 1.5.5 1.5.5-1.5.5-1.5-1.5-8-1.5-8 2.5-6.5 2.5-6.5 5-1 5-1 2 5 2 5 5.5 5.5 5.5 5.5-1 3.5-1 3.5 6.5 3.5 6.5 3.5 4.5 7 4.5 7" style="fill:#5c8fab;stroke:#5c8fab" />
        <path d="m24 704v1l1.5-.5 1.5-.5h1 1l1-.5 1-.5 1.5-6.5 1.5-6.5-5 7-5 7" style="fill:#7b5126;stroke:#7b5126" />
        <path d="m710 699h2v-.5-.5l-.5-.5-.5-.5-8-4-8-4-7.5-3.5-7.5-3.5-11.5-6-11.5-6 11.5 6.5 11.5 6.5 7 4 7 4 8 4 8 4" style="fill:#969686;stroke:#969686" />
        <path d="m711 697l1 1v-3-3-2.5-2.5-2-2-2.5-2.5-2-2-2.5-2.5-2-2-2-2-2.5-2.5h-1-1l-8-3.5-8-3.5-8-3-8-3-7.5-3.5-7.5-3.5-7.5-3.5-7.5-3.5-7.5-3.5-7.5-3.5-11.5-4.5-11.5-4.5-9.5 1-9.5 1-15 .5-15 .5 8 4.5 8 4.5 7 4 7 4 7.5 3.5 7.5 3.5 7 4 7 4 7 4.5 7 4.5 11.5 6.5 11.5 6.5 11.5 6 11.5 6 7.5 3.5 7.5 3.5 8 4 8 4" style="fill:#fffff6;stroke:#fffff6" />
        <path d="m310 691v1l.5-1 .5-1 .5-.5.5-.5v-1-1l.5-1 .5-1-.5-.5-.5-.5v-1.5-1.5l-2 1-2 1-.5 1.5-.5 1.5 1 1.5 1 1.5.5 1 .5 1" style="fill:#595948;stroke:#595948" />
        <path d="m71 690l10-12-8.5-.5-8.5-.5-4 5.5-4 5.5 7 1 7 1h.5.5" style="fill:#ad7346;stroke:#ad7346" />
        <path d="m479 690l1-1 1-1 1-1-1-1.5-1-1.5-1.5-1-1.5-1-1.5-.5-1.5-.5-1-1.5-1-1.5-1-1-1-1-.5.5-.5.5.5 2 .5 2 .5 1.5.5 1.5 2-.5 2-.5.5 1.5.5 1.5 1 1 1 1 .5 1 .5 1" style="fill:#362911;stroke:#362911" />
        <path d="m655 669l2 1-11.5-6.5-11.5-6.5-7-4.5-7-4.5-7-4-7-4-7.5-3.5-7.5-3.5-7-4-7-4-8-4.5-8-4.5-1-.5-1-.5-1-.5-1-.5-1.5-.5-1.5-.5-1-1-1-1-2-.5-2-.5-1-1-1-1-1.5-.5-1.5-.5-.5-.5-.5-.5-1-.5-1-.5-2-1-2-1-1-.5-1-.5-1.5-1-1.5-1-1.5-1-1.5-1-1.5-.5-1.5-.5-2-1.5-2-1.5-.5-.5-.5-.5-1-.5-1-.5-1.5-.5-1.5-.5-.5-.5-.5-.5-1-1-1-1-2 .5-2 .5 7.5 4.5 7.5 4.5 7.5 4 7.5 4 7 4 7 4 7 4 7 4 7.5 3.5 7.5 3.5 7 4 7 4 7.5 4 7.5 4 7 4 7 4 7 4 7 4 8.5 4 8.5 4" style="fill:#969686;stroke:#969686" />
        <path d="m295 658l3 1h2 2v-1.5-1.5l-1-1-1-1h-2.5-2.5l-1 1-1 1 .5 1 .5 1h.5.5" style="fill:#595948;stroke:#595948" />
        <path d="m710 656h2v-1-1l-1-.5-1-.5-8.5-3.5-8.5-3.5-8-3.5-8-3.5-7.5-3.5-7.5-3.5-7.5-3.5-7.5-3.5-8.5-3.5-8.5-3.5-8.5-3.5-8.5-3.5-8-3.5-8-3.5-7.5-3.5-7.5-3.5-7.5-3.5-7.5-3.5-13.5-5-13.5-5h-9.5-9.5-13.5-13.5-1-1l1.5 1 1.5 1 1.5 1 1.5 1 1.5.5 1.5.5 1.5 1.5 1.5 1.5 2 .5 2 .5 2-.5 2-.5 11-.5 11-.5 14 2 14 2 1.5 1 1.5 1 1.5.5 1.5.5h1 1l1 .5 1 .5 1 1 1 1h1 1l1 .5 1 .5 1.5.5 1.5.5 1.5 1 1.5 1 1.5.5 1.5.5 1 1 1 1h1 1l1 .5 1 .5 1.5.5 1.5.5.5.5.5.5 1 .5 1 .5 1.5.5 1.5.5h1 1l1 .5 1 .5 1 1 1 1 1 .5 1 .5 11.5 4.5 11.5 4.5 7.5 3.5 7.5 3.5 7.5 3.5 7.5 3.5 7.5 3.5 7.5 3.5 8 3 8 3 8 3.5 8 3.5" style="fill:#8cb5c7;stroke:#8cb5c7" />
        <path d="m710 653l2 1v-1-1l-.5-.5-.5-.5-.5-1.5-.5-1.5-.5 1-.5 1-1.5-.5-1.5-.5-1.5-.5-1.5-.5-1-1-1-1-1-1.5-1-1.5h-2-2l-1-1-1-1-1.5 1-1.5 1-1-1-1-1-4-2.5-4-2.5-7.5-3.5-7.5-3.5-6.5-1.5-6.5-1.5-11-4-11-4 8.5 3.5 8.5 3.5 7.5 3.5 7.5 3.5 7.5 3.5 7.5 3.5 8 3.5 8 3.5 8.5 3.5 8.5 3.5" style="fill:#5a7985;stroke:#5a7985" />
        <path d="m711 651l1 1v-3-3-2-2l-1 .5-1 .5-.5.5-.5.5-1.5-4-1.5-4-3.5-5.5-3.5-5.5-.5 1-.5 1-1-.5-1-.5-.5.5-.5.5v1 1l1 .5 1 .5h1 1l.5.5.5.5h.5.5l-.5 2-.5 2 1 1.5 1 1.5v2 2l.5 1 .5 1h2 2l1.5 2 1.5 2 .5 1.5.5 1.5" style="fill:#595948;stroke:#595948" />
        <path d="m706 649l3 1 .5-1 .5-1-1.5-2-1.5-2h-2-2l-.5-1-.5-1v-2-2l-1-1.5-1-1.5-.5 1-.5 1-.5 1.5-.5 1.5-1 .5-1 .5-1.5-.5-1.5-.5h-1-1l-1.5.5-1.5.5 1 1 1 1 1.5-1 1.5-1 1 1 1 1h2 2l1 1.5 1 1.5 1 1 1 1 1.5.5 1.5.5" style="fill:#6d7467;stroke:#6d7467" />
        <path d="m336 648l1 1-.5-1.5-.5-1.5v-1-1l-.5-1-.5-1-.5-.5-.5-.5-.5-.5-.5-.5v-1-1l-.5-.5-.5-.5-.5-1-.5-1-.5-.5-.5-.5v-1-1l-.5-.5-.5-.5-.5-1-.5-1-.5-.5-.5-.5v-1-1l-.5-.5-.5-.5-.5-.5-.5-.5v-1.5-1.5l-.5-.5-.5-.5-.5-.5-.5-.5-1-.5-1-.5.5 1.5.5 1.5 3.5 6.5 3.5 6.5 3.5 7 3.5 7" style="fill:#27383c;stroke:#27383c" />
        <g style="fill:#39596c;stroke:#39596c">
            <path d="m709 644l1-1 1-.5 1-.5v-3-3-2-2-2.5-2.5-2-2-2.5-2.5-2-2-2-2-2-2l-.5-1-.5-1-.5-.5-.5-.5-.5.5-.5.5-1-.5-1-.5h-1-1l-.5-.5-.5-.5-1.5.5-1.5.5 4 4.5 4 4.5-5 6.5-5 6.5 3.5 5.5 3.5 5.5 1.5 4 1.5 4" />
            <path d="m696 641l2-1 .5-1.5.5-1.5.5-1 .5-1 .5-2 .5-2h-.5-.5l-.5-.5-.5-.5h-1-1l-1-.5-1-.5v-1-1l.5-.5.5-.5 1 .5 1 .5.5-1 .5-1h-.5-.5l-1.5-.5-1.5-.5-5-3.5-5-3.5-2.5-5.5-2.5-5.5-7-3-7-3-6-3-6-3h-7-7l-4.5-3-4.5-3v-3-3l11.5 3 11.5 3 9.5 2 9.5 2 11 4 11 4-6-3-6-3-2.5-6.5-2.5-6.5-4 3-4 3-5-5-5-5-5.5-4.5-5.5-4.5h-6.5-6.5l-8-2-8-2-2.5 4.5-2.5 4.5 2.5 4.5 2.5 4.5 1.5 6.5 1.5 6.5-8-3.5-8-3.5-6.5-2.5-6.5-2.5h-5-5l-1.5 2.5-1.5 2.5-8-.5-8-.5-8-3-8-3-9-3.5-9-3.5 1 .5 1 .5 1 1 1 1 1 .5 1 .5 1.5 1 1.5 1 13.5 5 13.5 5 7.5 3.5 7.5 3.5 7.5 3.5 7.5 3.5 8 3.5 8 3.5 8.5 3.5 8.5 3.5 11 4 11 4 6.5 1.5 6.5 1.5 7.5 3.5 7.5 3.5 4 2.5 4 2.5 1.5-.5 1.5-.5h1 1l1.5.5 1.5.5" />
        </g>
        <path d="m302 639l18-2-7.5-1.5-7.5-1.5-1.5 2.5-1.5 2.5" style="fill:#27383c;stroke:#27383c" />
        <path d="m354 636h2v-1-1l1-1.5 1-1.5-1.5.5-1.5.5h-1.5-1.5l-1.5-.5-1.5-.5h-2.5-2.5l.5 1.5.5 1.5 1 1 1 1 2-.5 2-.5 1.5.5 1.5.5" style="fill:#595948;stroke:#595948" />
        <path d="m519 634h2l1.5-.5 1.5-.5 1-1.5 1-1.5.5-1.5.5-1.5-2-.5-2-.5h-1-1l-2-.5-2-.5v1 1l1 1 1 1v1.5 1.5 1 1" style="fill:#6d7467;stroke:#6d7467" />
        <path d="m0 624v1l14.5-.5 14.5-.5 2-9.5 2-9.5v-.5-.5-2-2-2.5-2.5-2-2-2-2-2.5-2.5-2-2-2.5-2.5-2-2-2.5-2.5l.5-1 .5-1-.5-15-.5-15v-9-9-9.5-9.5l.5-10.5.5-10.5v-11-11-11-11-10-10l.5-9 .5-9v-10-10l.5-7.5.5-7.5-.5-8.5-.5-8.5 2.5-.5 2.5-.5 2.5 5 2.5 5-1.5-6.5-1.5-6.5 6.5.5 6.5.5 9.5 1 9.5 1h9 9 7 7 10 10l7.5 1.5 7.5 1.5 5.5 1 5.5 1 6.5-1.5 6.5-1.5 4.5 1.5 4.5 1.5 4 2 4 2 2 4 2 4-2.5 4.5-2.5 4.5 3 4.5 3 4.5-4 2-4 2-4.5.5-4.5.5v9.5 9.5l.5 8.5.5 8.5-8 10.5-8 10.5h-12-12l-4.5-5.5-4.5-5.5 1-8 1-8-.5-11.5-.5-11.5-3 5.5-3 5.5-2 2-2 2-3.5-3.5-3.5-3.5-4.5 1.5-4.5 1.5-1.5 3.5-1.5 3.5 4.5.5 4.5.5 4.5.5 4.5.5 4.5 1.5 4.5 1.5-4 5-4 5-6 2.5-6 2.5.5 2.5.5 2.5-6 2-6 2-4.5-4.5-4.5-4.5-2.5-2.5-2.5-2.5h-9.5-9.5v1.5 1.5 1.5 1.5l-.5 1-.5 1v8 8l.5 7.5.5 7.5-1 6.5-1 6.5 1.5 7.5 1.5 7.5h4 4l.5-1.5.5-1.5 1-3 1-3 4-3.5 4-3.5 1 3 1 3v5 5h7 7 7 7l3.5-4 3.5-4 5-1 5-1-.5 4.5-.5 4.5 6-2 6-2v3 3l2 4.5 2 4.5 5.5.5 5.5.5 2 1 2 1 4 3 4 3 2.5-2.5 2.5-2.5 1-2.5 1-2.5v-4-4h4 4l2.5 2.5 2.5 2.5 2.5-1.5 2.5-1.5h4.5 4.5l4.5-2.5 4.5-2.5 5.5-.5 5.5-.5.5 9.5.5 9.5.5 10.5.5 10.5-.5 10-.5 10v9 9 10 10l.5 10.5.5 10.5 1 10 1 10h11.5 11.5v-.5-.5l6-5.5 6-5.5-2-9-2-9-3-8.5-3-8.5 2-17.5 2-17.5 3-9 3-9-1 .5-1 .5-.5 1.5-.5 1.5-2.5 9-2.5 9-5.5 5.5-5.5 5.5-4 7.5-4 7.5-4 8.5-4 8.5v-10-10-10-10l.5-11 .5-11-.5-9.5-.5-9.5v-10-10-10-10-10.5-10.5-11-11-11-11-11-11l.5-10.5.5-10.5v-8.5-8.5l-9-2-9-2-10-1-10-1-9.5-.5-9.5-.5-3.5-4.5-3.5-4.5-2-6.5-2-6.5 7.5-.5 7.5-.5 8-1 8-1-2.5-1.5-2.5-1.5 3-4 3-4-6-.5-6-.5-5 1-5 1-4-2-4-2-1.5-2.5-1.5-2.5-2 1-2 1-7.5 2-7.5 2h-5-5-6-6-6-6l-7.5-.5-7.5-.5-4.5-1-4.5-1-7.5-1.5-7.5-1.5h-7-7l-6.5-.5-6.5-.5-5-.5-5-.5-11.5.5-11.5.5v12 12 11.5 11.5 11 11 11 11 11 11 11 11 7.5 7.5l3.5-.5 3.5-.5 3-2 3-2 4-3 4-3 2 4 2 4-2 4.5-2 4.5 3.5 6.5 3.5 6.5v7 7l.5 8.5.5 8.5v9 9 11.5 11.5 10 10l-.5 9.5-.5 9.5-.5 9.5-.5 9.5-.5 8-.5 8-9 5.5-9 5.5-1-1-1-1-1-.5-1-.5-1-1-1-1-1 1-1 1v2.5 2.5 2 2 1.5 1.5" style="fill:#595948;stroke:#595948" />
        <path d="m695 624l3 1v-.5-.5l-2.5-1-2.5-1 1-3 1-3 3-6.5 3-6.5 1.5-.5 1.5-.5.5.5.5.5h1 1l1 .5 1 .5.5-.5.5-.5.5.5.5.5.5 1 .5 1v-12-12-11-11-1.5-1.5h-1.5-1.5l-1.5-.5-1.5-.5h-1.5-1.5l-2-.5-2-.5-1.5-.5-1.5-.5-1.5-1-1.5-1 1-1 1-1 1.5.5 1.5.5 2-.5 2-.5h2 2l1.5 1 1.5 1h1 1l.5 1 .5 1v-3-3-2.5-2.5-2-2-2.5-2.5-2-2-.5-.5l-2-7-2-7-6-1-6-1-3.5 1.5-3.5 1.5-4.5-1.5-4.5-1.5-3.5-3-3.5-3 7.5-.5 7.5-.5 4.5-.5 4.5-.5-7.5-2.5-7.5-2.5-5.5 3.5-5.5 3.5 1 7.5 1 7.5-4-5-4-5-3.5-2.5-3.5-2.5-2 6-2 6-7.5-1.5-7.5-1.5-7.5-3-7.5-3-3.5-1.5-3.5-1.5-2-4-2-4-2.5 6.5-2.5 6.5-8-1.5-8-1.5v-4-4l.5 2.5.5 2.5 6-3 6-3 .5-5.5.5-5.5-1-4.5-1-4.5 5.5 5.5 5.5 5.5-.5-7.5-.5-7.5-9-2-9-2-4-6-4-6-5.5-5-5.5-5-10-10-10-10-1 .5-1 .5-1.5-.5-1.5-.5v-2.5-2.5-2.5-2.5l1-1 1-1 1 1.5 1 1.5v2 2l.5 2.5.5 2.5 3.5 6 3.5 6 7 2 7 2-.5-1.5-.5-1.5 4.5-4 4.5-4-5-1-5-1-6-4-6-4 3.5-5.5 3.5-5.5-6.5-3.5-6.5-3.5-5.5-3-5.5-3-4.5-1.5-4.5-1.5-2.5.5-2.5.5-4.5-3.5-4.5-3.5-5.5-1.5-5.5-1.5-5 1.5-5 1.5-3.5.5-3.5.5-4 4-4 4-.5 3.5-.5 3.5-5.5 2.5-5.5 2.5-4.5-4-4.5-4-1-1-1-1 4 3 4 3-4 4-4 4-4-3.5-4-3.5-2.5 6.5-2.5 6.5-3.5 6.5-3.5 6.5-2 5-2 5 3.5-5.5 3.5-5.5 3.5 3 3.5 3-3.5 6.5-3.5 6.5-3.5 7.5-3.5 7.5-3.5 6.5-3.5 6.5 4 2 4 2-3.5 5-3.5 5-2.5 3.5-2.5 3.5 7-1 7-1-3.5 5.5-3.5 5.5-2 4-2 4 5 7 5 7 1 .5 1 .5 1.5.5 1.5.5 1.5.5 1.5.5 1.5 1 1.5 1 1 .5 1 .5 8 3.5 8 3.5 7.5 3.5 7.5 3.5 8 3.5 8 3.5 10.5 5 10.5 5 1 1 1 1 2.5.5 2.5.5 9 3.5 9 3.5 8 3 8 3 8 .5 8 .5 1.5-2.5 1.5-2.5h5 5l6.5 2.5 6.5 2.5 8 3.5 8 3.5-1.5-6.5-1.5-6.5-2.5-4.5-2.5-4.5 2.5-4.5 2.5-4.5 8 2 8 2h6.5 6.5l5.5 4.5 5.5 4.5 5 5 5 5 4-3 4-3 2.5 6.5 2.5 6.5 6 3 6 3 .5 1 .5 1-1.5-.5-1.5-.5-9-2.5-9-2.5-10.5-4-10.5-4-11.5-3-11.5-3v3 3l4.5 3 4.5 3h7 7l6 3 6 3 7 3 7 3 2.5 5.5 2.5 5.5 5 3.5 5 3.5" style="fill:#27383c;stroke:#27383c" />
        <g style="fill:#595948;stroke:#595948">
            <path d="m698 624v1h.5.5l5-6.5 5-6.5-4-4.5-4-4.5-3 6.5-3 6.5-1 3-1 3 2.5 1 2.5 1" />
            <path d="m304 623l3 1h2 2l1.5-.5 1.5-.5v-1.5-1.5l-.5-.5-.5-.5-.5-1-.5-1-.5-.5-.5-.5v-1-1l-.5-.5-.5-.5-1-.5-1-.5-.5.5-.5.5-.5.5-.5.5v1 1l-.5 1-.5 1-.5 2.5-.5 2.5" />
        </g>
        <g style="fill:#27383c;stroke:#27383c">
            <path d="m303 622l1 1 .5-2.5.5-2.5.5-1 .5-1v-1-1l.5-.5.5-.5.5-.5.5-.5 1 .5 1 .5.5.5.5.5v1 1l.5.5.5.5.5 1 .5 1 .5.5.5.5v1.5 1.5l.5-2 .5-2-1-1.5-1-1.5-.5-1.5-.5-1.5-1-1.5-1-1.5-1.5-.5-1.5-.5-1.5-1-1.5-1v2 2 2.5 2.5l-.5 1.5-.5 1.5v1.5 1.5" />
            <path d="m243 621v1l6.5-7.5 6.5-7.5-2-8-2-8-3.5-8-3.5-8 3 8.5 3 8.5 2 9 2 9-6 5.5-6 5.5" />
        </g>
        <path d="m8 615l18-11 .5-8 .5-8 .5-9.5.5-9.5.5-9.5.5-9.5v-10-10-11.5-11.5-9-9l-.5-8.5-.5-8.5v-7-7l-3.5-6.5-3.5-6.5 2-4.5 2-4.5-2-4-2-4-4 3-4 3-3 2-3 2-3.5.5-3.5.5v1.5 1.5 2 2 2.5 2.5 1.5 1.5l1.5-4 1.5-4 6.5 2.5 6.5 2.5-8 5-8 5v12.5 12.5 11 11 11 11 11 11 11.5 11.5 11 11 7.5 7.5l1-1 1-1 1 1 1 1 1 .5 1 .5 1 1 1 1" style="fill:#6d7467;stroke:#6d7467" />
        <path d="m559 615l2 1 15-.5 15-.5 9.5-1 9.5-1-1-.5-1-.5-1-1-1-1-1-.5-1-.5h-1-1l-1.5-.5-1.5-.5-1-.5-1-.5-.5-.5-.5-.5-1.5-.5-1.5-.5-1-.5-1-.5h-1-1l-1-1-1-1-1.5-.5-1.5-.5-9-1.5-9-1.5-15 2.5-15 2.5 2 1 2 1 1 .5 1 .5.5.5.5.5 1.5.5 1.5.5 1 1 1 1 2 .5 2 .5 1 1 1 1 1.5.5 1.5.5 1 .5 1 .5" style="fill:#d9fbf2;stroke:#d9fbf2" />
        <path d="m33 604v1l.5-1 .5-1v-2-2-1.5-1.5-1-1-2-2-1.5-1.5-1-1-1-1-1-1-1.5-1.5-1-1-1-1-1-1-2-2-1.5-1.5-1.5-1.5l-.5 1-.5 1v2.5 2.5 2 2 2.5 2.5 2 2 2.5 2.5 2 2 2 2 2.5 2.5 2 2" style="fill:#27383c;stroke:#27383c" />
        <path d="m534 602l2 1 15-2.5 15-2.5 9 1.5 9 1.5-1.5-1-1.5-1-1.5-.5-1.5-.5-1-.5-1-.5h-1-1l-1-1-1-1-1-.5-1-.5h-1-1l-1.5-.5-1.5-.5-1.5-1-1.5-1-10.5 1-10.5 1-10 .5-10 .5 2 1.5 2 1.5 1.5.5 1.5.5 1.5 1 1.5 1 1.5 1 1.5 1" style="fill:#baeaef;stroke:#baeaef" />
        <path d="m693 601l3 1-.5-1-.5-1-11-4-11-4-9.5-2-9.5-2 10.5 4 10.5 4 9 2.5 9 2.5" style="fill:#595948;stroke:#595948" />
        <path d="m321 599l17-8 1.5-4.5 1.5-4.5-.5-1.5-.5-1.5h8 8l3-4.5 3-4.5 3-3 3-3 .5-9.5.5-9.5v-10-10l3.5-1.5 3.5-1.5 7.5 3 7.5 3 7.5 3.5 7.5 3.5 7.5 3.5 7.5 3.5 8 4 8 4-.5-1-.5-1-1.5-1-1.5-1-1.5-.5-1.5-.5-1.5-.5-1.5-.5-1.5-.5-1.5-.5-1.5-1-1.5-1-1.5-.5-1.5-.5v-1.5-1.5l-2.5-.5-2.5-.5-1.5-1-1.5-1-1-.5-1-.5-1.5-.5-1.5-.5h-1-1l-1-1-1-1v-.5-.5l-6.5-4-6.5-4-10.5-4-10.5-4-1-.5-1-.5v-2-2-1-1l-.5-1-.5-1 .5-.5.5-.5v-1-1l-.5-.5-.5-.5.5-2 .5-2-.5-.5-.5-.5v-2.5-2.5-1-1-1-1-1-1l.5-1 .5-1v-1-1l-.5-.5-.5-.5v-1-1-1-1-1.5-1.5l.5-1.5.5-1.5v-.5-.5-1.5-1.5-1.5-1.5-1-1-1-1-1-1-1.5-1.5-2-2-1-1-1-1-1-1-1.5-1.5l-.5-.5-.5-.5.5-.5.5-.5v-1-1-1.5-1.5-1-1-1-1-1-1-2-2l-.5-.5-.5-.5-2-5.5-2-5.5-1.5-10-1.5-10 .5-9.5.5-9.5 3.5-.5 3.5-.5 6.5-4.5 6.5-4.5 11.5-5.5 11.5-5.5 1-1 1-1 .5-.5.5-.5h1.5 1.5 1 1l.5-.5.5-.5-.5-1-.5-1-6-.5-6-.5-4 1-4 1-5.5 2-5.5 2-2-6.5-2-6.5-1.5-4.5-1.5-4.5-.5-9-.5-9-4-6-4-6-8-1-8-1-1.5 1-1.5 1h-1-1v-2-2l-2-.5-2-.5v1 1l-.5 1-.5 1-1.5-.5-1.5-.5-1.5.5-1.5.5-.5-1-.5-1-1.5-1-1.5-1-6 2-6 2-6-4-6-4-4-1.5-4-1.5-3.5 4.5-3.5 4.5-3-1-3-1h-2-2l-6 4-6 4-5.5 2-5.5 2-5.5 3.5-5.5 3.5 6.5.5 6.5.5-2.5 3.5-2.5 3.5-2.5 7-2.5 7-6 4-6 4-.5 3.5-.5 3.5 2 6 2 6-5 6-5 6 1.5 6 1.5 6 .5 6.5.5 6.5 2 2 2 2 5 4 5 4 .5 5.5.5 5.5-.5 7-.5 7v7 7l1.5 10 1.5 10 .5-2 .5-2v-2-2l1-1.5 1-1.5.5-1.5.5-1.5v-2.5-2.5l1-1 1-1 1-1.5 1-1.5 1-1 1-1 1.5-.5 1.5-.5 1.5-1.5 1.5-1.5-1.5-.5-1.5-.5-.5-1.5-.5-1.5.5-2 .5-2v-2-2l1-1 1-1v-1.5-1.5l1-1 1-1 1-1.5 1-1.5 1 1 1 1 .5 2.5.5 2.5-.5-10-.5-10 1.5-5.5 1.5-5.5-6.5-6-6.5-6-1-8-1-8 1-6 1-6 7-4 7-4 7.5-2.5 7.5-2.5 7 1.5 7 1.5 2.5.5 2.5.5 5.5 4.5 5.5 4.5 2.5 6.5 2.5 6.5-3 10.5-3 10.5 4 5.5 4 5.5 3 2 3 2 .5 7.5.5 7.5 2 7 2 7v7.5 7.5l.5 8.5.5 8.5 2 7 2 7-.5 8.5-.5 8.5v10 10l-1 8-1 8-.5 11.5-.5 11.5v1.5 1.5l.5 1 .5 1 .5.5.5.5v1 1l-.5.5-.5.5-1 .5-1 .5-.5.5-.5.5.5.5.5.5-.5.5-.5.5v1.5 1.5l-.5.5-.5.5-.5.5-.5.5-.5.5-.5.5h-1.5-1.5-2-2l-2-.5-2-.5v-.5-.5l-.5 1-.5 1-1 1-1 1v1.5 1.5l.5 1.5.5 1.5-.5 2-.5 2v2 2l-.5 1-.5 1v2 2l1.5 1 1.5 1 .5 1.5.5 1.5" style="fill:#969686;stroke:#969686" />
        <g style="fill:#27383c;stroke:#27383c">
            <path d="m594 597h2l1-1 1-1v-2.5-2.5l-1-1-1-1h-1.5-1.5l.5 1.5.5 1.5-.5 2-.5 2v1 1h.5.5" />
            <path d="m601 597h2 2 2 1.5 1.5l1.5.5 1.5.5-.5-2-.5-2-1.5-.5-1.5-.5-1.5-1-1.5-1-1.5-.5-1.5-.5-.5 1.5-.5 1.5-1 1.5-1 1.5.5.5.5.5" />
        </g>
        <path d="m520 593l1 1 10-.5 10-.5 10.5-1 10.5-1-14-2-14-2-11 .5-11 .5 1 1 1 1 .5.5.5.5 1.5.5 1.5.5 1 .5 1 .5" style="fill:#9bd5e8;stroke:#9bd5e8" />
        <g style="fill:#6d7467;stroke:#6d7467">
            <path d="m220 587l8-17 4-7.5 4-7.5 5.5-5.5 5.5-5.5 2.5-9 2.5-9-1 1-1 1-.5 1-.5 1v2 2l-.5.5-.5.5-.5 1-.5 1-1 .5-1 .5-3-7-3-7 4.5-5.5 4.5-5.5-.5-1-.5-1-1-2.5-1-2.5-.5-.5-.5-.5 2.5-8 2.5-8 2-13.5 2-13.5.5-1 .5-1 .5-1.5.5-1.5.5-1.5.5-1.5.5-2 .5-2 1-1 1-1 1-1.5 1-1.5 1.5-.5 1.5-.5.5-1.5.5-1.5 5-7 5-7 1-14 1-14h6.5 6.5l2.5 8 2.5 8-.5 1.5-.5 1.5.5 1 .5 1 .5 1.5.5 1.5v2.5 2.5l-1 1-1 1-1 1.5-1 1.5-1 .5-1 .5-.5 2-.5 2h.5.5l.5-.5.5-.5 1-1 1-1 .5-.5.5-.5 1-.5 1-.5.5-.5.5-.5.5-.5.5-.5.5-1 .5-1-.5-1.5-.5-1.5v-2-2l-.5-2-.5-2 .5-1.5.5-1.5.5-1.5.5-1.5.5-2 .5-2-.5-1.5-.5-1.5-.5-2-.5-2-1.5-.5-1.5-.5-1-1-1-1v-.5-.5l-1.5-1-1.5-1-.5-.5-.5-.5-1-.5-1-.5-1.5-.5-1.5-.5h-2.5-2.5l-1 1-1 1-2.5-.5-2.5-.5-1.5 5.5-1.5 5.5.5 10 .5 10 1 1 1 1 .5 1.5.5 1.5-1.5 1-1.5 1-1 1-1 1-1-.5-1-.5-1 1-1 1v1.5 1.5 1 1l-1.5 1.5-1.5 1.5-1.5.5-1.5.5-1 1-1 1-1 1.5-1 1.5-1 1-1 1v2.5 2.5l-.5 1.5-.5 1.5-1 1.5-1 1.5v2 2l-.5 2-.5 2 .5 1 .5 1v1 1 1.5 1.5 1 1l-.5 2-.5 2-.5 1.5-.5 1.5h-1-1l-1-1.5-1-1.5 1.5-1 1.5-1-.5-1.5-.5-1.5v-1.5-1.5l-.5-1.5-.5-1.5 2-1 2-1-1.5-10-1.5-10v-7-7l.5-7 .5-7-.5-5.5-.5-5.5-5-4-5-4-2-2-2-2-.5-6.5-.5-6.5-1.5-6-1.5-6 5-6 5-6-2-6-2-6 .5-3.5.5-3.5 6-4 6-4 2.5-7 2.5-7 2.5-3.5 2.5-3.5-6.5-.5-6.5-.5 5.5-3.5 5.5-3.5 5.5-2 5.5-2 6-4 6-4h2 2l3 1 3 1 3.5-4.5 3.5-4.5 4 1.5 4 1.5 6 4 6 4 6-2 6-2-5-4.5-5-4.5 7.5 1.5 7.5 1.5 8-3 8-3 1 4 1 4-1.5 3.5-1.5 3.5 8 1 8 1 4 6 4 6 .5 9 .5 9 1.5 4.5 1.5 4.5 2 6.5 2 6.5 4-7.5 4-7.5-4-2-4-2 3-5 3-5-2.5-.5-2.5-.5 2-3 2-3h6 6l-2.5 6.5-2.5 6.5 2 1 2 1 4.5 2 4.5 2 4.5-1.5 4.5-1.5 4.5-2.5 4.5-2.5 4 1 4 1h6 6l4.5-1 4.5-1 3-5 3-5 5.5-2.5 5.5-2.5 1.5-5.5 1.5-5.5 7.5-1.5 7.5-1.5 5.5-2 5.5-2 1-4 1-4 1.5-2.5 1.5-2.5 1 2 1 2 1-3 1-3-6-1-6-1 5-4.5 5-4.5 2.5-1.5 2.5-1.5h4 4l2-2 2-2 1-3 1-3 1.5-2 1.5-2-.5-3.5-.5-3.5-2.5-2.5-2.5-2.5 2.5-3.5 2.5-3.5 4.5 2.5 4.5 2.5 1.5-5 1.5-5 4-4 4-4 4-4 4-4 3.5-.5 3.5-.5 4-5 4-5 2-2 2-2 6-5.5 6-5.5 3.5-4.5 3.5-4.5 2-2 2-2 8-4 8-4-1-.5-1-.5v-1.5-1.5-.5-.5l-3.5-1.5-3.5-1.5 1-2 1-2 5.5-.5 5.5-.5 2-5 2-5 3.5-4.5 3.5-4.5-8.5-1.5-8.5-1.5 6.5-2.5 6.5-2.5 3 4 3 4 1-2.5 1-2.5 2.5-2.5 2.5-2.5 2.5 1.5 2.5 1.5 3.5-.5 3.5-.5 4-5 4-5-2 1.5-2 1.5v-7-7l2-4 2-4 3.5-2.5 3.5-2.5 3-1 3-1 4.5-6 4.5-6-3-1-3-1 .5-5.5.5-5.5 3-1 3-1v4 4l2-.5 2-.5 5.5-1.5 5.5-1.5-1-3-1-3 3.5-1.5 3.5-1.5 2-4 2-4 4-2.5 4-2.5 1.5-5 1.5-5v-2-2-2.5-2.5-2-2-2.5-2.5-2-2-2.5-2.5-2-2h-1-1l-7.5 2-7.5 2-4 4-4 4-4 2-4 2-2 3-2 3-3 3.5-3 3.5-4.5 2.5-4.5 2.5-1.5 5.5-1.5 5.5-3 2-3 2-6.5 2.5-6.5 2.5-3.5 3-3.5 3-1.5 8.5-1.5 8.5-6 4-6 4-6 3-6 3h-6-6v-5-5l-2-6-2-6v-5-5l-1-4-1-4 4-5 4-5 2.5-4.5 2.5-4.5h-6-6l.5-4 .5-4 2-2 2-2 7-1 7-1 1-2 1-2 3-3 3-3v-4-4h-12.5-12.5-11-11-11-11-11-11-11.5-11.5-11-11-11-11-11-11-11-11-11.5-11.5-11-11-11-11-11-11-11-11-11.5-11.5-11-11-11-11-11-11-11-11-11.5-11.5-11-11-11-11-11-11-11-11-11.5-11.5-11-11-11-11-6-6v5 5 11 11 11.5 11.5 6 6l5 .5 5 .5 5.5 1.5 5.5 1.5 2.5 2 2.5 2 2-2 2-2 3-2 3-2 7.5.5 7.5.5 2-1 2-1 5.5-2 5.5-2-3.5-1.5-3.5-1.5 1-2 1-2 5 4 5 4 3 1 3 1 3-4.5 3-4.5 2-1 2-1-1.5 6.5-1.5 6.5 3-2 3-2 1.5 2 1.5 2 3.5.5 3.5.5 2.5-5.5 2.5-5.5 3 2 3 2 4-1 4-1 1 3.5 1 3.5 1.5-3.5 1.5-3.5 4.5-2.5 4.5-2.5 3 5 3 5 4 2 4 2 4.5-3.5 4.5-3.5 8-.5 8-.5 3.5 2.5 3.5 2.5 5.5-.5 5.5-.5 4 1 4 1 3.5 2.5 3.5 2.5 6 2.5 6 2.5h2 2l1 6 1 6 .5 5.5.5 5.5 7-2 7-2v-4.5-4.5l4-1 4-1-2.5 5.5-2.5 5.5h6 6 1 1l-4.5 2.5-4.5 2.5-3.5 1-3.5 1-1.5 3.5-1.5 3.5 7.5-.5 7.5-.5 7 2 7 2 3 4 3 4 6 1.5 6 1.5h6 6l-4 5-4 5h4 4l-1 3-1 3 3.5-1 3.5-1 1 5 1 5 1.5 5.5 1.5 5.5 3.5 2.5 3.5 2.5 4 4 4 4 3.5-.5 3.5-.5h2.5 2.5l5 5 5 5-.5 3.5-.5 3.5.5 3.5.5 3.5h5 5l-4 3.5-4 3.5 2.5 1.5 2.5 1.5 4.5 1.5 4.5 1.5h-6-6l-1.5 3.5-1.5 3.5 1 1.5 1 1.5-2 3-2 3-4.5 4.5-4.5 4.5 2 2 2 2-1 4-1 4-6 1-6 1-7.5-1-7.5-1-6-3-6-3-2.5 1.5-2.5 1.5-6 3-6 3-4 1-4 1v4.5 4.5l-5 2-5 2-2-1-2-1-7 2-7 2-5.5.5-5.5.5-4 1.5-4 1.5-6 3.5-6 3.5-3.5-1.5-3.5-1.5-6-2-6-2-7-1-7-1h-5.5-5.5l-6.5-.5-6.5-.5-5.5.5-5.5.5h-9-9l-7.5-2.5-7.5-2.5-7-1.5-7-1.5-7.5-.5-7.5-.5-2 1-2 1-6.5-2.5-6.5-2.5-8.5.5-8.5.5-4-1.5-4-1.5-6.5-2.5-6.5-2.5-13 1-13 1v2 2 2 2 2.5 2.5 2 2 2.5 2.5 2 2 2.5 2.5 2 2 2 2 .5.5l11.5-.5 11.5-.5 5 .5 5 .5 6.5.5 6.5.5h7 7l7.5 1.5 7.5 1.5 4.5 1 4.5 1 7.5.5 7.5.5h6 6 6 6 5 5l7.5-2 7.5-2 2-1 2-1 1.5 2.5 1.5 2.5 4 2 4 2 5-1 5-1 6 .5 6 .5-3 4-3 4 2.5 1.5 2.5 1.5-8 1-8 1-7.5.5-7.5.5 2 6.5 2 6.5 3.5 4.5 3.5 4.5 9.5.5 9.5.5 10 1 10 1 9 2 9 2v8.5 8.5l-.5 10.5-.5 10.5v11 11 11 11 11 11 10.5 10.5 10 10 10 10l.5 9.5.5 9.5-.5 11-.5 11v10 10 10 10" />
            <path d="m502 587l2 1-1.5-1.5-1.5-1.5-1.5-.5-1.5-.5-1.5-1-1.5-1-1.5-1-1.5-1-1-.5-1-.5-8-4-8-4-10.5-5.5-10.5-5.5 9 5.5 9 5.5 7.5 4 7.5 4 8 4 8 4" />
        </g>
        <path d="m290 581h2l1.5-.5 1.5-.5 1-.5 1-.5h1 1l1.5.5 1.5.5 1 1 1 1-1-1.5-1-1.5-.5-1-.5-1-2.5.5-2.5.5-1.5-.5-1.5-.5h-2.5-2.5l-1.5.5-1.5.5-.5 1-.5 1h1 1l2 .5 2 .5" style="fill:#27383c;stroke:#27383c" />
        <path d="m494 580h27 9.5 9.5l-1.5-1-1.5-1-9.5-1-9.5-1-10-.5-10-.5-3 2.5-3 2.5h1 1" style="fill:#5c8fab;stroke:#5c8fab" />
        <path d="m490 579l2 1 3-2.5 3-2.5 10 .5 10 .5 9.5 1 9.5 1-1-.5-1-.5-1-1-1-1-1-.5-1-.5-2.5-.5-2.5-.5-1-1-1-1-1.5-.5-1.5-.5-9.5-2-9.5-2-8.5-1.5-8.5-1.5-7-4-7-4-7.5-7.5-7.5-7.5-1-.5-1-.5-1.5-.5-1.5-.5-2-.5-2-.5.5 1 .5 1 .5.5.5.5 1 .5 1 .5v1 1l-.5.5-.5.5-1 .5-1 .5-1 1-1 1-.5.5-.5.5v1 1 1 1h-1-1l-1-.5-1-.5-2-.5-2-.5 1 1 1 1 1 .5 1 .5 1 1 1 1 2 .5 2 .5.5.5.5.5h1 1l.5.5.5.5 1 1 1 1 10.5 5.5 10.5 5.5 8 4 8 4" style="fill:#5a7985;stroke:#5a7985" />
        <path d="m300 574l1 1 1-1.5 1-1.5 3-4 3-4-6-2-6-2-3-5-3-5-1.5-7.5-1.5-7.5 1-5 1-5 7.5-6 7.5-6v-2.5-2.5l1-1 1-1 1-1 1-1 1-.5 1-.5-3-3-3-3-9.5 4-9.5 4-1.5-.5-1.5-.5-2 8-2 8-4 6-4 6 1 6 1 6 3 6 3 6 2.5 5.5 2.5 5.5 8 3.5 8 3.5" style="fill:#27383c;stroke:#27383c" />
        <path d="m309 572l5-22-2-9.5-2-9.5-2.5-9-2.5-9-7.5 6-7.5 6-1 5-1 5 1.5 7.5 1.5 7.5 3 5 3 5 6 2 6 2-3 4-3 4h1.5 1.5 1.5 1.5" style="fill:#595948;stroke:#595948" />
        <path d="m321 571l4 1h2 2v-.5-.5l1-.5 1-.5h1 1v-1-1-1.5-1.5l.5-1.5.5-1.5.5-.5.5-.5-.5-1-.5-1 .5-.5.5-.5.5-.5.5-.5v-1-1l.5-1 .5-1 .5-11.5.5-11.5 1-8 1-8-.5-.5-.5-.5-1-8.5-1-8.5-.5-7.5-.5-7.5-2-6-2-6v-9-9l-2.5-6.5-2.5-6.5-1.5-6.5-1.5-6.5-1.5-5-1.5-5-4.5-5.5-4.5-5.5 2.5-8.5 2.5-8.5 3-10.5 3-10.5-2.5-6.5-2.5-6.5-5.5-4.5-5.5-4.5-2.5-.5-2.5-.5-7-1.5-7-1.5-7.5 2.5-7.5 2.5-7 4-7 4-1 6-1 6 1 8 1 8 6.5 6 6.5 6 7.5-4.5 7.5-4.5 3 7 3 7 1 1 1 1 1.5.5 1.5.5.5 2 .5 2 .5 1.5.5 1.5-.5 2-.5 2-.5 1.5-.5 1.5-.5 1.5-.5 1.5.5 2 .5 2v2 2l.5 1.5.5 1.5.5-1 .5-1 .5-.5.5-.5.5.5.5.5h1 1l1 .5 1 .5.5 1.5.5 1.5.5.5.5.5 1 .5 1 .5.5 1.5.5 1.5-.5.5-.5.5-.5 1-.5 1 1 1 1 1h-1-1l-1-.5-1-.5h-1.5-1.5l-1 1-1 1-2-.5-2-.5-1.5.5-1.5.5-1.5-.5-1.5-.5-.5-2-.5-2-.5.5-.5.5 6 3.5 6 3.5 6 .5 6 .5 3 13 3 13-.5 11-.5 11-5 7-5 7 1-.5 1-.5h1 1v1 1l-.5 1-.5 1 .5.5.5.5.5.5.5.5v1 1 1.5 1.5l-.5.5-.5.5v1 1 1 1l-.5.5-.5.5-.5-1-.5-1-.5-2-.5-2v-2-2l-.5-1.5-.5-1.5v-1.5-1.5l2 13 2 13 2 9 2 9 2 9 2 9v.5.5" style="fill:#b5c1be;stroke:#b5c1be" />
        <path d="m329 571v1h1.5 1.5l.5-.5.5-.5.5-.5.5-.5.5-.5.5-.5v-1.5-1.5l.5-.5.5-.5-.5-.5-.5-.5.5-.5.5-.5 1-.5 1-.5.5-.5.5-.5v-1-1l-.5-.5-.5-.5-.5-1-.5-1v-1.5-1.5l-.5 1-.5 1v1 1l-.5.5-.5.5-.5.5-.5.5.5 1 .5 1-.5.5-.5.5-.5 1.5-.5 1.5v1.5 1.5 1 1h-1-1l-1 .5-1 .5" style="fill:#8cb5c7;stroke:#8cb5c7" />
        <g style="fill:#39596c;stroke:#39596c">
            <path d="m521 570l3 1-10.5-5-10.5-5-8-3.5-8-3.5-7.5-3.5-7.5-3.5-8-3.5-8-3.5 7.5 7.5 7.5 7.5 7 4 7 4 8.5 1.5 8.5 1.5 9.5 2 9.5 2" />
            <path d="m646 562l9-5-1.5-6.5-1.5-6.5-7 .5-7 .5-2-4-2-4-9-2-9-2-.5 1.5-.5 1.5-1.5 6.5-1.5 6.5 7.5 3 7.5 3 8 3 8 3 1.5.5 1.5.5" />
        </g>
        <path d="m706 556l3 1h1.5 1.5v-1.5-1.5l-.5-1-.5-1h-1-1l-1.5-1-1.5-1h-2-2l-2 .5-2 .5-1.5-.5-1.5-.5-1 1-1 1 1.5 1 1.5 1 1.5.5 1.5.5 2 .5 2 .5h1.5 1.5" style="fill:#595948;stroke:#595948" />
        <path d="m443 552h2v-1-1-1-1l.5-.5.5-.5 1-1 1-1 1-.5 1-.5.5-.5.5-.5v-1-1l-1-.5-1-.5-.5-.5-.5-.5-.5-1-.5-1-1.5-.5-1.5-.5-1.5-.5-1.5-.5 1.5 1 1.5 1-.5 1.5-.5 1.5h-2.5-2.5l-1 1-1 1-1 1.5-1 1.5-.5.5-.5.5 1.5 1 1.5 1 .5 1 .5 1 2 .5 2 .5 1 .5 1 .5" style="fill:#5c8fab;stroke:#5c8fab" />
        <g style="fill:#39596c;stroke:#39596c">
            <path d="m687 551l-11-5 4.5 2.5 4.5 2.5h1 1" />
            <path d="m694 546l10-10-6.5 2.5-6.5 2.5-1 1.5-1 1.5 2.5 1 2.5 1" />
        </g>
        <path d="m430 545l3 1 .5-.5.5-.5 1-1.5 1-1.5 1-1 1-1h2.5 2.5l.5-1.5.5-1.5-1.5-1-1.5-1-1-.5-1-.5-1.5-.5-1.5-.5-1.5-1-1.5-1-.5 1.5-.5 1.5-2 .5-2 .5-1.5.5-1.5.5-2 .5-2 .5h-1.5-1.5v1.5 1.5l1.5.5 1.5.5 1.5 1 1.5 1 1.5.5 1.5.5 1.5.5 1.5.5" style="fill:#8cb5c7;stroke:#8cb5c7" />
        <path d="m357 540l5-15v-11-11-9.5-9.5l-1.5-8.5-1.5-8.5-.5 9.5-.5 9.5-.5 9.5-.5 9.5-.5 9.5-.5 9.5.5 8 .5 8" style="fill:#b5c1be;stroke:#b5c1be" />
        <path d="m245 538l2-1 .5-1 .5-1 .5-.5.5-.5v-2-2l.5-1 .5-1 1-1 1-1 .5-1.5.5-1.5v-.5-.5l.5-1.5.5-1.5-.5-1.5-.5-1.5-1.5-1-1.5-1-1-.5-1-.5-4.5 5.5-4.5 5.5 3 7 3 7" style="fill:#969686;stroke:#969686" />
        <path d="m451 538l3 1-1.5-1-1.5-1-1.5-.5-1.5-.5-1.5-.5-1.5-.5-1-.5-1-.5-1-.5-1-.5-1-.5-1-.5-1.5-.5-1.5-.5-1-1-1-1-1.5-.5-1.5-.5-2.5-1-2.5-1-1-.5-1-.5-7.5-4-7.5-4-7.5-3.5-7.5-3.5.5-16 .5-16-.5-.5-.5-.5v-12.5-12.5l1-10 1-10 .5-9.5.5-9.5 3.5-5 3.5-5 8 3.5 8 3.5 1.5-1 1.5-1 .5-1.5.5-1.5.5-2 .5-2 1-1 1-1 2-.5 2-.5.5-1.5.5-1.5.5-2 .5-2-1.5-.5-1.5-.5-2.5-1-2.5-1-1 4-1 4-3.5 7.5-3.5 7.5-3.5-5.5-3.5-5.5-5-3-5-3-2 10-2 10v3 3l-.5 1-.5 1v1.5 1.5 1.5 1.5 2.5 2.5 2.5 2.5l-.5 1.5-.5 1.5.5 1.5.5 1.5v2.5 2.5l-.5 1.5-.5 1.5v2.5 2.5 3 3 12.5 12.5l1 13.5 1 13.5 1.5.5 1.5.5 1.5 1 1.5 1 1.5.5 1.5.5 2 .5 2 .5 1 1 1 1 2 .5 2 .5 1.5.5 1.5.5 1 1 1 1 1.5.5 1.5.5 1 .5 1 .5h1 1l.5 1 .5 1-.5.5-.5.5h-1-1l-.5.5-.5.5h-1.5-1.5l-.5.5-.5.5h-1-1l-.5-.5-.5-.5-1 .5-1 .5-.5.5-.5.5h-1.5-1.5l1.5 1 1.5 1 2.5.5 2.5.5h1.5 1.5l2-.5 2-.5 1.5-.5 1.5-.5 2-.5 2-.5.5-1.5.5-1.5 1.5 1 1.5 1 1.5.5 1.5.5 1 .5 1 .5 1.5.5 1.5.5 1.5.5 1.5.5 2 .5 2 .5" style="fill:#9bd5e8;stroke:#9bd5e8" />
        <path d="m408 533l2 1h1.5 1.5l.5-.5.5-.5 1-.5 1-.5.5.5.5.5h1 1l.5-.5.5-.5h1.5 1.5l.5-.5.5-.5h1 1l.5-.5.5-.5-.5-1-.5-1h-1-1l-1-.5-1-.5-2 .5-2 .5h-2.5-2.5l-1.5.5-1.5.5h-1.5-1.5l-1.5.5-1.5.5h-1.5-1.5l1 1 1 1h1 1l1.5.5 1.5.5" style="fill:#baeaef;stroke:#baeaef" />
        <g style="fill:#39596c;stroke:#39596c">
            <path d="m441 533l2 1-5-7-5-7 2-4 2-4 3.5-5.5 3.5-5.5-7 1-7 1 2.5-3.5 2.5-3.5 3.5-5 3.5-5-4-2-4-2 3.5-6.5 3.5-6.5 3.5-7.5 3.5-7.5 3.5-6.5 3.5-6.5-3.5-3-3.5-3-3.5 5.5-3.5 5.5 2-5 2-5 3.5-6.5 3.5-6.5 2.5-6.5 2.5-6.5 4 3.5 4 3.5 4-4 4-4-4-3-4-3 1 1 1 1 4.5 4 4.5 4 5.5-2.5 5.5-2.5.5-3.5.5-3.5 4-4 4-4 3.5-.5 3.5-.5 5-1.5 5-1.5 5.5 1.5 5.5 1.5 4.5 3.5 4.5 3.5 2.5-.5 2.5-.5 4.5 1.5 4.5 1.5 5.5 3 5.5 3 6.5 3.5 6.5 3.5-3.5 5.5-3.5 5.5 6 4 6 4 5 1 5 1-4.5 4-4.5 4 .5 1.5.5 1.5-7-2-7-2-3.5-6-3.5-6 10 10 10 10 5.5 5 5.5 5 4 6 4 6 9 2 9 2 .5 7.5.5 7.5-5.5-5.5-5.5-5.5 1 4.5 1 4.5-.5 5.5-.5 5.5-6 3-6 3-.5-2.5-.5-2.5v4 4l8 1.5 8 1.5 2.5-6.5 2.5-6.5 2 4 2 4 3.5 1.5 3.5 1.5 7.5 3 7.5 3 7.5 1.5 7.5 1.5 2-6 2-6 3.5 2.5 3.5 2.5 4 5 4 5-1-7.5-1-7.5 5.5-3.5 5.5-3.5 7.5 2.5 7.5 2.5-4.5.5-4.5.5-7.5.5-7.5.5 3.5 3 3.5 3 4.5 1.5 4.5 1.5 3.5-1.5 3.5-1.5 6 1 6 1 2 7 2 7v-13.5-13.5-11-11-8.5-8.5l-.5-.5-.5-.5-1-.5-1-.5-.5-.5-.5-.5-1-.5-1-.5-1-1-1-1-.5.5-.5.5-.5.5-.5.5h-1-1l-.5-1-.5-1-1.5-.5-1.5-.5h-1-1-1.5-1.5l-1.5.5-1.5.5-.5-.5-.5-.5h-1.5-1.5l-1-1.5-1-1.5-6-4-6-4-3.5-.5-3.5-.5h-6-6l-4-2-4-2-6-1.5-6-1.5 8-2 8-2-4-1-4-1-9-1-9-1-5-6-5-6-6 2.5-6 2.5-4-2-4-2 1.5-.5 1.5-.5 1.5-.5 1.5-.5 1.5-.5 1.5-.5.5-1 .5-1-1-1.5-1-1.5h-1-1l-1 .5-1 .5-1.5-.5-1.5-.5-1.5-.5-1.5-.5-1-.5-1-.5 1-2 1-2-1-1-1-1v-1.5-1.5l-2-1-2-1h-2-2l-1 .5-1 .5-1.5-.5-1.5-.5-1 1.5-1 1.5h-1-1l-.5-1-.5-1v-1-1l1-1 1-1-2-9-2-9-1.5-6.5-1.5-6.5-4-2-4-2-5.5-4-5.5-4-7 1-7 1-5.5-5.5-5.5-5.5-7-4-7-4 1.5-2.5 1.5-2.5-6.5.5-6.5.5 5-4.5 5-4.5 9.5-6 9.5-6-8.5 2-8.5 2-6.5 1.5-6.5 1.5-8.5 2.5-8.5 2.5-8 1-8 1-4.5 4-4.5 4-4 6-4 6-4 6.5-4 6.5h1 1 8.5 8.5l-1.5 7.5-1.5 7.5-2 3-2 3-4.5 5-4.5 5 5.5 2 5.5 2 2 5 2 5h-5-5l-1.5-1-1.5-1-1.5 7.5-1.5 7.5-1.5 4.5-1.5 4.5-1 5-1 5-.5 7.5-.5 7.5-3 5.5-3 5.5-1.5 5.5-1.5 5.5 1.5 6.5 1.5 6.5-2 1-2 1-7-2-7-2-2.5 4-2.5 4-1 6-1 6 2 4 2 4 10 8.5 10 8.5 2.5 1 2.5 1 1.5.5 1.5.5 1 1 1 1 1.5.5 1.5.5 1 .5 1 .5" />
            <path d="m596 530h2l1.5.5 1.5.5 2-.5 2-.5-1.5-.5-1.5-.5-2-.5-2-.5-1-1-1-1-2-.5-2-.5-1.5.5-1.5.5.5 1.5.5 1.5 2 .5 2 .5h1 1" />
        </g>
        <path d="m401 529v1h1.5 1.5l1.5-.5 1.5-.5h1.5 1.5l1.5-.5 1.5-.5h2.5 2.5l2-.5 2-.5-1.5-.5-1.5-.5-1-1-1-1-1.5-.5-1.5-.5-2-.5-2-.5-1-1-1-1-2-.5-2-.5-1.5-.5-1.5-.5-1.5-1-1.5-1-1.5-.5-1.5-.5-1.5-.5-1.5-.5-2-.5-2-.5-1.5-.5-1.5-.5-2-.5-2-.5h-2-2l-2 .5-2 .5h-1-1l-2 .5-2 .5 10.5 4 10.5 4 6.5 4 6.5 4" style="fill:#d9fbf2;stroke:#d9fbf2" />
        <path d="m693 528l-12-4 4.5 1.5 4.5 1.5 1.5.5 1.5.5" style="fill:#39596c;stroke:#39596c" />
        <path d="m424 525l2 1-10-8.5-10-8.5-2-4-2-4 1-6 1-6 2.5-4 2.5-4 7 2 7 2 2-1 2-1-1.5-6.5-1.5-6.5 1.5-5.5 1.5-5.5 3-5.5 3-5.5.5-7.5.5-7.5 1-5 1-5 1.5-4.5 1.5-4.5 1.5-7.5 1.5-7.5 1.5 1 1.5 1h5 5l-2-5-2-5-5.5-2-5.5-2-2 10-2 10-3.5 7.5-3.5 7.5-4.5 4.5-4.5 4.5-4 6-4 6 5 2.5 5 2.5-5.5-1.5-5.5-1.5-5.5 2.5-5.5 2.5-2.5 14-2.5 14-.5 16-.5 16 7.5 3.5 7.5 3.5 7.5 4 7.5 4" style="fill:#5a7985;stroke:#5a7985" />
        <path d="m312 524l1-1v-1-1-1-1l.5-.5.5-.5v-1.5-1.5-1-1l-.5-.5-.5-.5-.5-.5-.5-.5.5-1 .5-1v-1-1h-1-1l-1 .5-1 .5v1.5 1.5l.5 1.5.5 1.5v2 2l.5 2 .5 2 .5 1 .5 1" style="fill:#baeaef;stroke:#baeaef" />
        <path d="m253 522v1l1-.5 1-.5 1-2.5 1-2.5-.5-1.5-.5-1.5-1.5-1-1.5-1-1.5-.5-1.5-.5-1-1.5-1-1.5-.5-1.5-.5-1.5-.5-1.5-.5-1.5v-2.5-2.5l.5-2 .5-2-1 1-1 1v2 2 3.5 3.5l1 2.5 1 2.5.5 1 .5 1 1 .5 1 .5 1.5 1 1.5 1 .5 1.5.5 1.5-.5 1.5-.5 1.5" style="fill:#27383c;stroke:#27383c" />
        <path d="m392 514l3 1-1-13.5-1-13.5v-12.5-12.5l-1.5 9.5-1.5 9.5-3.5 4.5-3.5 4.5v6 6l-6 2-6 2 2.5-9 2.5-9-3.5.5-3.5.5-.5-9-.5-9-.5-19.5-.5-19.5v-11.5-11.5-13.5-13.5l-.5 11-.5 11v11 11 21 21l.5 1 .5 1-.5 1.5-.5 1.5.5 2.5.5 2.5v2 2 2 2 2.5 2.5 2 2 2.5 2.5 1 1 2.5 2.5 2.5 2.5l2-.5 2-.5h1 1l2-.5 2-.5h2 2l2 .5 2 .5 1.5.5 1.5.5 2 .5 2 .5" style="fill:#baeaef;stroke:#baeaef" />
        <path d="m339 513l1 1v-10-10l.5-8.5.5-8.5-2-7-2-7-.5-8.5-.5-8.5v-7.5-7.5l-2-7-2-7-.5-7.5-.5-7.5-3-2-3-2-4-5.5-4-5.5-2.5 8.5-2.5 8.5 4.5 5.5 4.5 5.5 1.5 5 1.5 5 1.5 6.5 1.5 6.5 2.5 6.5 2.5 6.5v9 9l2 6 2 6 .5 7.5.5 7.5 1 8.5 1 8.5" style="fill:#8cb5c7;stroke:#8cb5c7" />
        <path d="m62 512l14-8-2-2-2-2v-2.5-2.5l-3.5-.5-3.5-.5v4 4l-1 4-1 4-.5 1-.5 1" style="fill:#595948;stroke:#595948" />
        <path d="m365 512l2 1v-2.5-2.5-2.5-2.5-1-1-2.5-2.5-2-2-2.5-2.5-2-2-2-2l-.5-2.5-.5-2.5v1.5 1.5 1 1 1.5 1.5 1 1 1 1 1 1 1.5 1.5l-.5.5-.5.5v1 1 1 1l-.5 2-.5 2 .5.5.5.5v1 1l-.5.5-.5.5.5 1 .5 1v1 1 2 2" style="fill:#9bd5e8;stroke:#9bd5e8" />
        <path d="m371 507l12-4v-6-6l3.5-4.5 3.5-4.5 1.5-9.5 1.5-9.5v-3-3-2.5-2.5l.5-1.5.5-1.5v-2.5-2.5l-.5-1.5-.5-1.5.5-1.5.5-1.5v-2.5-2.5-2.5-2.5l-.5 1-.5 1v1.5 1.5 2 2l-.5.5-.5.5v1.5 1.5l-1 1-1 1-.5.5-.5.5h-1.5-1.5l-1.5.5-1.5.5-1.5-.5-1.5-.5h-1.5-1.5l-1-.5-1-.5-.5-.5-.5-.5h-1.5-1.5l-1-1-1-1-.5-2-.5-2-.5-1.5-.5-1.5.5 19.5.5 19.5.5 9 .5 9 3.5-.5 3.5-.5-2.5 9-2.5 9" style="fill:#d9fbf2;stroke:#d9fbf2" />
        <path d="m244 505l1 1v-3.5-3.5-2-2l1-1 1-1 1.5-1 1.5-1 1-1 1-1-.5-1-.5-1v-1-1-2-2l.5-1.5.5-1.5.5-2 .5-2-.5-1.5-.5-1.5v-2.5-2.5l.5-2 .5-2-2 13.5-2 13.5-2.5 8-2.5 8" style="fill:#595948;stroke:#595948" />
        <path d="m265 505l3 1 1.5-.5 1.5-.5h2.5 2.5l1-1 1-1 1.5-1 1.5-1-.5-1.5-.5-1.5-.5-2-.5-2 1.5-.5 1.5-.5h2 2l1.5-1 1.5-1h3 3l6-3.5 6-3.5 1.5-6.5 1.5-6.5-3.5-7.5-3.5-7.5h-5-5l-4 1-4 1 2.5-12 2.5-12v-.5-.5l.5-1.5.5-1.5-.5-.5-.5-.5-.5-1-.5-1 .5-.5.5-.5-.5-.5-.5-.5.5-.5.5-.5.5-1 .5-1 1-1 1-1 .5-1 .5-1 .5-1.5.5-1.5v-.5-.5l-4-8-4-8-5 .5-5 .5-1 14-1 14-5 7-5 7-.5 8.5-.5 8.5 3.5 5.5 3.5 5.5-1 8.5-1 8.5 4 6 4 6-9.5-1.5-9.5-1.5 3.5 5 3.5 5" style="fill:#27383c;stroke:#27383c" />
        <path d="m286 505l19-8 3 3 3 3 3.5-16.5 3.5-16.5-4-7-4-7-2-2.5-2-2.5-5.5-2-5.5-2-2.5.5-2.5.5-1-1-1-1 .5-2 .5-2v-2-2l.5-2 .5-2-2.5 12-2.5 12 4-1 4-1h5 5l3.5 7.5 3.5 7.5-1.5 6.5-1.5 6.5-6 3.5-6 3.5 1.5.5 1.5.5 1.5 1 1.5 1v1 1l-.5 1-.5 1h-2-2l-.5.5-.5.5h-.5-.5l-1.5-.5-1.5-.5v1 1l-1 .5-1 .5-1.5.5-1.5.5-1.5-.5-1.5-.5v-.5-.5l-1.5-1-1.5-1 .5 1.5.5 1.5 1 1.5 1 1.5 1.5.5 1.5.5" style="fill:#595948;stroke:#595948" />
        <path d="m283 501l3 1 1.5-.5 1.5-.5 1-.5 1-.5v-1-1l1.5.5 1.5.5h.5.5l.5-.5.5-.5h2 2l.5-1 .5-1v-1-1l-1.5-1-1.5-1 .5 1 .5 1-1.5 1-1.5 1-1 1-1 1-2-.5-2-.5-.5 1.5-.5 1.5h-1.5-1.5-1-1-.5-.5v.5.5" style="fill:#6d7467;stroke:#6d7467" />
        <path d="m284 500h2 1.5 1.5l.5-1.5.5-1.5 2 .5 2 .5 1-1 1-1 1.5-1 1.5-1-.5-1-.5-1-1.5-.5-1.5-.5h-3-3l-1.5 1-1.5 1h-2-2l-1.5.5-1.5.5.5 2 .5 2 1.5 1 1.5 1h.5.5" style="fill:#969686;stroke:#969686" />
        <path d="m659 500l-1-3-.5-4.5-.5-4.5-6.5 4-6.5 4h-5-5l10 1 10 1 2.5 1 2.5 1" style="fill:#5a7985;stroke:#5a7985" />
        <path d="m364 495l1 1v-1-1-1-1l.5-.5.5-.5v-1.5-1.5-1-1-1-1-1-1-1.5-1.5-1-1-1.5-1.5l.5-1.5.5-1.5-.5-1-.5-1h-.5-.5l-.5 1.5-.5 1.5v1.5 1.5 1 1 1 1l.5.5.5.5v1 1l-.5 1-.5 1v1 1 1 1 1 1 2.5 2.5" style="fill:#8cb5c7;stroke:#8cb5c7" />
        <path d="m352 491l2-18 .5-10.5.5-10.5-1.5-8-1.5-8-1 7-1 7-1 7-1 7 2 7 2 7v6.5 6.5" style="fill:#5a7985;stroke:#5a7985" />
        <path d="m245 485h2l.5-1.5.5-1.5.5-2 .5-2v-1-1-1.5-1.5-1-1l-.5-1-.5-1-2 1-2 1 .5 1.5.5 1.5v1.5 1.5l.5 1.5.5 1.5-1.5 1-1.5 1 1 1.5 1 1.5" style="fill:#969686;stroke:#969686" />
        <path d="m691 485v-8l-7.5-.5-7.5-.5 2.5 2 2.5 2 5 2.5 5 2.5" style="fill:#27383c;stroke:#27383c" />
        <path d="m644 483l10-8-9.5-1.5-9.5-1.5-3 1.5-3 1.5 8.5.5 8.5.5-1 3.5-1 3.5" style="fill:#5a7985;stroke:#5a7985" />
        <path d="m394 477l1 1v-.5-.5-11.5-11.5l2-7 2-7 3-.5 3-.5 2.5-4.5 2.5-4.5 1.5-2.5 1.5-2.5-6.5.5-6.5.5 5-3 5-3 8-1.5 8-1.5-3-3.5-3-3.5-8-3.5-8-3.5-3.5 5-3.5 5-.5 9.5-.5 9.5-1 10-1 10v12.5 12.5" style="fill:#8cb5c7;stroke:#8cb5c7" />
        <path d="m395 477v1l2.5-14 2.5-14 5.5-2.5 5.5-2.5 5.5 1.5 5.5 1.5-5-2.5-5-2.5 4-6 4-6 4.5-4.5 4.5-4.5 3.5-7.5 3.5-7.5 2-10 2-10-.5-.5-.5-.5 2.5-7 2.5-7 4.5-3.5 4.5-3.5-7-4.5-7-4.5h-1-1-1.5-1.5-1-1l.5 1 .5 1 3 3.5 3 3.5-1.5 8.5-1.5 8.5.5 3.5.5 3.5-2.5 9-2.5 9-4 2.5-4 2.5-2-1-2-1 3 3.5 3 3.5-8 1.5-8 1.5-5 3-5 3 6.5-.5 6.5-.5-1.5 2.5-1.5 2.5-2.5 4.5-2.5 4.5-3 .5-3 .5-2 7-2 7v11.5 11.5" style="fill:#5c8fab;stroke:#5c8fab" />
        <path d="m409 477l10-10-1.5-3.5-1.5-3.5-5.5 5-5.5 5 2 3.5 2 3.5" style="fill:#39596c;stroke:#39596c" />
        <g style="fill:#362911;stroke:#362911">
            <path d="m120 473h2 2 2l1-1.5 1-1.5-1-1-1-1h-1.5-1.5l-1 1-1 1-1.5-1-1.5-1-1 1-1 1 1 1 1 1 1 .5 1 .5" />
            <path d="m93 472l11-5 5.5-.5 5.5-.5 1-5.5 1-5.5-5.5-3.5-5.5-3.5-.5 3-.5 3-2 4-2 4-.5-1-.5-1-.5 1-.5 1-1-.5-1-.5-1-1-1-1v2 2l-1.5 1-1.5 1 1 1 1 1-1.5 1-1.5 1h-1-1l.5 1 .5 1 1.5.5 1.5.5" />
        </g>
        <path d="m319 471l1 1-3-13-3-13-6-.5-6-.5-6-3.5-6-3.5h-.5-.5v2 2l-.5 2-.5 2 1 1 1 1 2.5-.5 2.5-.5 10.5 2 10.5 2 1.5 10 1.5 10" style="fill:#969686;stroke:#969686" />
        <path d="m639 469l20-2h8 8l2-6.5 2-6.5-9.5-.5-9.5-.5-10.5-.5-10.5-.5-10.5-.5-10.5-.5v5 5l8.5 3 8.5 3 2 1 2 1" style="fill:#27383c;stroke:#27383c" />
        <path d="m74 468l-1-9-4.5.5-4.5.5 3.5 4 3.5 4h1.5 1.5" style="fill:#362911;stroke:#362911" />
        <path d="m365 468v1h.5.5v-21-21-11-11l.5-11 .5-11v-3-3-.5-.5-1.5-1.5l-1 10.5-1 10.5v14.5 14.5 2 2 1 1 1 1 1 1 1.5 1.5 1 1l-.5.5-.5.5.5.5.5.5v1.5 1.5 1 1 1 1 1 1 2 2 1.5 1.5 1 1 1 1 1 1 1.5 1.5 1.5 1.5" style="fill:#b5c1be;stroke:#b5c1be" />
        <path d="m591 468l11-9-5.5-2.5-5.5-2.5v7 7" style="fill:#27383c;stroke:#27383c" />
        <path d="m43 467l3 1 1-1 1-1v-1.5-1.5l-1-1-1-1-1-1.5-1-1.5-1.5.5-1.5.5-.5 2-.5 2 1 1 1 1 .5 1 .5 1" style="fill:#595948;stroke:#595948" />
        <path d="m80 463l6-10-4-3-4-3-2.5 4-2.5 4 3.5 4 3.5 4" style="fill:#362911;stroke:#362911" />
        <path d="m101 462l4-8 .5-3 .5-3-3-6-3-6-1.5 2.5-1.5 2.5 1 4 1 4 .5 5.5.5 5.5.5 1 .5 1" style="fill:#7b5126;stroke:#7b5126" />
        <path d="m711 462l1 1v-3-3-1-1h-1-1l-5-2.5-5-2.5 1.5-3.5 1.5-3.5 4.5 4.5 4.5 4.5v-3-3-2-2-2.5-2.5-2-2-1.5-1.5h-1.5-1.5l-1.5-.5-1.5-.5-2-.5-2-.5-1 1-1 1-1-.5-1-.5h-2-2l-2 .5-2 .5-1.5.5-1.5.5h-1-1l1.5-1.5 1.5-1.5 12-1 12-1v-3-3-2.5-2.5l-5.5 1-5.5 1-3 1-3 1-1-5-1-5-3 4-3 4-6.5 5-6.5 5-1-1-1-1-.5-1.5-.5-1.5-.5-2-.5-2 .5.5.5.5 1.5-1 1.5-1 .5-1.5.5-1.5v-.5-.5l-4.5 6.5-4.5 6.5-5.5 5-5.5 5-4.5-4-4.5-4-5.5-1.5-5.5-1.5-3-6.5-3-6.5h-1-1l-1 .5-1 .5h-2.5-2.5l-1 1-1 1-1.5-.5-1.5-.5-2-.5-2-.5h-2.5-2.5l-1.5-.5-1.5-.5-1.5-1.5-1.5-1.5-.5.5-.5.5 1 1.5 1 1.5-.5 1-.5 1-1.5.5-1.5.5v1.5 1.5 1 1 1 1 1 1h-1-1l-1-.5-1-.5-.5-1.5-.5-1.5-.5-1.5-.5-1.5 4 2 4 2 6-2.5 6-2.5 5 6 5 6 9 1 9 1 4 1 4 1-8 2-8 2 6 1.5 6 1.5 4 2 4 2h6 6l3.5.5 3.5.5 6 4 6 4v-.5-.5l-.5-1.5-.5-1.5.5-1 .5-1v-1-1-1-1l.5-.5.5-.5h1 1l1 .5 1 .5v1 1h1 1 1 1v1.5 1.5l.5.5.5.5.5.5.5.5v1 1l-.5.5-.5.5h-1.5-1.5-1-1-1-1-1.5-1.5l1 1.5 1 1.5h1.5 1.5l.5.5.5.5 1.5-.5 1.5-.5h1.5 1.5 1 1l1.5.5 1.5.5.5 1 .5 1h1 1l.5-.5.5-.5.5-.5.5-.5 1 1 1 1 1 .5 1 .5.5.5.5.5 1 .5 1 .5" style="fill:#5a7985;stroke:#5a7985" />
        <path d="m0 460v1l8-5 8-5-6.5-2.5-6.5-2.5-1.5 4-1.5 4v2 2 1 1" style="fill:#595948;stroke:#595948" />
        <g style="fill:#39596c;stroke:#39596c">
            <path d="m710 455h2v-1.5-1.5l-4.5-4.5-4.5-4.5-1.5 3.5-1.5 3.5 5 2.5 5 2.5" />
            <path d="m682 452v1h1.5 1.5 1 1 1 1 1.5 1.5l.5-.5.5-.5v-1-1l-.5-.5-.5-.5-.5-.5-.5-.5v-1.5-1.5h-1-1-1-1v-1-1l-1-.5-1-.5h-1-1l-.5.5-.5.5v1 1 1 1l-.5 1-.5 1 .5 1.5.5 1.5" />
        </g>
        <path d="m599 447l15-9 8.5-2.5 8.5-2.5-8.5-1-8.5-1-10.5.5-10.5.5 4.5 3.5 4.5 3.5-1.5 4-1.5 4" style="fill:#27383c;stroke:#27383c" />
        <path d="m41 445l4-11 .5-5 .5-5v-1.5-1.5h-1.5-1.5-1-1l-.5 1-.5 1 .5 2.5.5 2.5-.5 1.5-.5 1.5-.5 2-.5 2 .5 1.5.5 1.5.5 1 .5 1-.5 1.5-.5 1.5.5 1 .5 1" style="fill:#595948;stroke:#595948" />
        <g style="fill:#fffff6;stroke:#fffff6">
            <path d="m380 444l3 1 1.5-.5 1.5-.5h1.5 1.5l.5-.5.5-.5 1-1 1-1v-1.5-1.5l.5-.5.5-.5v-2-2-1.5-1.5l.5-1 .5-1v-1.5-1.5-1.5-1.5-.5-.5-11.5-11.5-11-11l-13.5 3.5-13.5 3.5v13.5 13.5 11.5 11.5l.5 1.5.5 1.5.5 2 .5 2 1 1 1 1h1.5 1.5l.5.5.5.5 1 .5 1 .5h1.5 1.5" />
            <path d="m292 441l3 1 1.5-.5 1.5-.5 2 .5 2 .5 1-1 1-1h1.5 1.5l.5-2.5.5-2.5-1-1.5-1-1.5-1-1-1-1-2.5-.5-2.5-.5-.5 1-.5 1-.5.5-.5.5-.5.5-.5.5-1 .5-1 .5-.5.5-.5.5-1 1-1 1 .5 2 .5 2" />
        </g>
        <path d="m309 441h2l-1-1-1-1 .5-1 .5-1 .5-.5.5-.5-.5-1.5-.5-1.5-1-.5-1-.5-.5-.5-.5-.5-.5-1.5-.5-1.5-1-.5-1-.5h-1-1l-.5-.5-.5-.5-.5.5-.5.5-.5 1-.5 1 2.5.5 2.5.5 1 1 1 1 1 1.5 1 1.5-.5 2.5-.5 2.5 1 .5 1 .5" style="fill:#baeaef;stroke:#baeaef" />
        <path d="m261 438l3 1v-1-1-1.5-1.5l1-1 1-1 1 .5 1 .5 1-1 1-1 1.5-1 1.5-1-.5-1.5-.5-1.5-1-1-1-1-.5-2.5-.5-2.5-1-1-1-1-1 1.5-1 1.5-1 1-1 1v1.5 1.5l-1 1-1 1v2 2l-.5 2-.5 2 .5 1.5.5 1.5" style="fill:#b5c1be;stroke:#b5c1be" />
        <path d="m155 436l16-21-.5-8.5-.5-8.5v-9.5-9.5h-2.5-2.5l-1.5-.5-1.5-.5-2 .5-2 .5-1.5-.5-1.5-.5h-2.5-2.5-2-2-2-2l-2-.5-2-.5-1.5-.5-1.5-.5-2 1-2 1h-1.5-1.5-1.5-1.5l-1 1.5-1 1.5v2.5 2.5l.5 11.5.5 11.5-1 8-1 8 4.5 5.5 4.5 5.5h12 12" style="fill:#362911;stroke:#362911" />
        <path d="m655 436l11-10 4.5-6.5 4.5-6.5h-4.5-4.5v-3-3l5.5-.5 5.5-.5-.5-3.5-.5-3.5-3-4.5-3-4.5-6.5-.5-6.5-.5-5.5.5-5.5.5-8.5 11-8.5 11 3 6.5 3 6.5 5.5 1.5 5.5 1.5 4.5 4 4.5 4" style="fill:#5c8fab;stroke:#5c8fab" />
        <path d="m90 433l12-4-.5-2.5-.5-2.5 6-2.5 6-2.5 4-5 4-5-4.5-1.5-4.5-1.5-4.5-.5-4.5-.5-4.5-.5-4.5-.5 1.5-3.5 1.5-3.5 4.5-1.5 4.5-1.5 3.5 3.5 3.5 3.5 2-2 2-2 3-5.5 3-5.5v-2.5-2.5l1-1.5 1-1.5v-.5-.5l-2-3.5-2-3.5 4.5-.5 4.5-.5.5 4.5.5 4.5 2-1 2-1 1.5.5 1.5.5 2 .5 2 .5h2 2 2 2 2.5 2.5l1.5.5 1.5.5 2-.5 2-.5 1.5.5 1.5.5h2.5 2.5l4.5-.5 4.5-.5 4-2 4-2-3-4.5-3-4.5 2.5-4.5 2.5-4.5-2-4-2-4-4-2-4-2-4.5-1.5-4.5-1.5-6.5 1.5-6.5 1.5-5.5-1-5.5-1-7.5-1.5-7.5-1.5h-10-10-7-7-9-9l-9.5-1-9.5-1-6.5-.5-6.5-.5 1.5 6.5 1.5 6.5-3.5 10.5-3.5 10.5.5 9.5.5 9.5 1.5 6.5 1.5 6.5-1 10.5-1 10.5.5-1 .5-1h1 1 1.5 1.5v1.5 1.5l1.5-1 1.5-1h1.5 1.5l.5 1.5.5 1.5h1 1l.5 1 .5 1 .5-1 .5-1v-1.5-1.5-1.5-1.5l-.5-.5-.5-.5v-2-2-1.5-1.5l-1.5 1-1.5 1 .5.5.5.5-.5 1-.5 1 .5 1.5.5 1.5h-1-1l-1 .5-1 .5h-1.5-1.5l.5-1.5.5-1.5v-1-1l.5-.5.5-.5v-1-1-1-1l.5-1 .5-1 .5-.5.5-.5v-1-1-1-1l-1-.5-1-.5.5-.5.5-.5v-1-1l.5-.5.5-.5 2 .5 2 .5 2.5-3.5 2.5-3.5 6 1 6 1 .5 5 .5 5h-2-2l-3.5.5-3.5.5-.5 1.5-.5 1.5-2 5.5-2 5.5h9.5 9.5l2.5 2.5 2.5 2.5 4.5 4.5 4.5 4.5" style="fill:#7b5126;stroke:#7b5126" />
        <path d="m290 433v1l1-.5 1-.5 1-1.5 1-1.5 1-1 1-1v-2.5-2.5l-.5-1.5-.5-1.5-.5-1-.5-1-.5 1-.5 1-1 1-1 1-.5 1-.5 1-.5.5-.5.5.5.5.5.5-.5.5-.5.5.5 1 .5 1 .5.5.5.5-.5 1.5-.5 1.5" style="fill:#595948;stroke:#595948" />
        <g style="fill:#39596c;stroke:#39596c">
            <path d="m685 431h2l1.5-.5 1.5-.5 2-.5 2-.5h2 2l1 .5 1 .5 1-1 1-1 2 .5 2 .5 1.5.5 1.5.5h1.5 1.5v-2-2l-12 1-12 1-1.5 1.5-1.5 1.5" />
            <path d="m552 430l3 1 1-.5 1-.5-.5-2.5-.5-2.5v-2-2l-1-1.5-1-1.5-1 1-1 1v2.5 2.5 2.5 2.5" />
        </g>
        <path d="m674 427l13-10 3-4 3-4 1 5 1 5 3-1 3-1 5.5-1 5.5-1v-2-2-2-2-2.5-2.5-2-2-2.5-2.5-2-2-1.5-1.5h-.5-.5l-.5 1-.5 1h-1-1l-1 .5-1 .5h-2-2l-1.5-.5-1.5-.5h-1.5-1.5l-1.5-.5-1.5-.5h-2-2-2-2l-2-.5-2-.5h-1.5-1.5l8.5 2.5 8.5 2.5-2.5 7.5-2.5 7.5-3.5 8-3.5 8-2-1-2-1-1-1.5-1-1.5-1-1.5-1-1.5-.5 1.5-.5 1.5-1.5 1-1.5 1-.5-.5-.5-.5.5 2 .5 2 .5 1.5.5 1.5 1 1 1 1" style="fill:#5c8fab;stroke:#5c8fab" />
        <path d="m650 426l10-12-6 2-6 2 1 4 1 4" style="fill:#5a7985;stroke:#5a7985" />
        <path d="m595 425h2v-1-1-1-1-1-1-1.5-1.5l-1.5.5-1.5.5-1.5.5-1.5.5.5 1.5.5 1.5.5 1.5.5 1.5 1 .5 1 .5" style="fill:#5c8fab;stroke:#5c8fab" />
        <g style="fill:#8cb5c7;stroke:#8cb5c7">
            <path d="m364 422l1 1v-14.5-14.5l1-10.5 1-10.5 1-1 1-1v-.5-.5l1-.5 1-.5h1 1 1 1l1-.5 1-.5.5-.5.5-.5h-1-1l-.5.5-.5.5-1-.5-1-.5 1-1 1-1 .5-.5.5-.5h1 1l.5-.5.5-.5 2-.5 2-.5 1-.5 1-.5 8-3.5 8-3.5 14-4 14-4h-2-2l-.5.5-.5.5h-1.5-1.5-1-1-1-1l-.5.5-.5.5h-1.5-1.5l-.5.5-.5.5h-1-1-1-1l-.5.5-.5.5h-1.5-1.5l-1.5.5-1.5.5-11.5 5.5-11.5 5.5-6.5 4.5-6.5 4.5-3.5.5-3.5.5-.5 9.5-.5 9.5 1.5 10 1.5 10 2 5.5 2 5.5" />
            <path d="m683 422l7-16 2.5-7.5 2.5-7.5-8.5-2.5-8.5-2.5-1.5-.5-1.5-.5.5-1 .5-1h2 2l2-.5 2-.5 1.5-.5 1.5-.5h2 2l2-.5 2-.5h2 2l1-.5 1-.5-7.5-.5-7.5-.5 2-3 2-3-4.5.5-4.5.5-6 5-6 5-8-1.5-8-1.5-9 1.5-9 1.5-1-1.5-1-1.5-.5-1.5-.5-1.5.5-2 .5-2 2-.5 2-.5h-2-2-3-3l1 .5 1 .5.5 1 .5 1 .5.5.5.5-.5.5-.5.5v1 1l-1 .5-1 .5-.5.5-.5.5-.5.5-.5.5-.5.5-.5.5-.5 1-.5 1-1.5-.5-1.5-.5h-1-1l-1-1.5-1-1.5-.5-.5-.5-.5v-1-1l-.5-.5-.5-.5-.5-1-.5-1 .5-.5.5-.5 1-.5 1-.5-8.5 3-8.5 3 3 7 3 7 2.5-4 2.5-4 9 1 9 1-3.5 2.5-3.5 2.5-3.5 3.5-3.5 3.5 6 6.5 6 6.5h1 1l8.5-11 8.5-11 5.5-.5 5.5-.5 6.5.5 6.5.5 3 4.5 3 4.5.5 3.5.5 3.5-5.5.5-5.5.5v3 3h4.5 4.5v.5.5l1 1.5 1 1.5 1 1.5 1 1.5 2 1 2 1" />
        </g>
        <path d="m394 421v1l.5-1 .5-1v-3-3-.5-.5-12-12l1-11 1-11h-1.5-1.5l-.5.5-.5.5-.5.5-.5.5h-1-1l-1 .5-1 .5h-1-1l-.5-.5-.5-.5-1-.5-1-.5-.5 1.5-.5 1.5h-2-2l-1.5.5-1.5.5-2 .5-2 .5-1.5.5-1.5.5-.5 1.5-.5 1.5v3 3l13.5-3.5 13.5-3.5v11 11 11.5 11.5" style="fill:#d9fbf2;stroke:#d9fbf2" />
        <path d="m47 420h3l1-.5 1-.5h1 1l-.5-1.5-.5-1.5.5-1 .5-1-.5-.5-.5-.5 1.5-1 1.5-1v-2-2-1.5-1.5l-.5-2.5-.5-2.5-2-.5-2-.5-.5.5-.5.5v1 1l-.5.5-.5.5 1 .5 1 .5v1 1 1 1l-.5.5-.5.5-.5 1-.5 1v1 1 1 1l-.5.5-.5.5v1 1l-.5 1.5-.5 1.5" style="fill:#362911;stroke:#362911" />
        <g style="fill:#595948;stroke:#595948">
            <path d="m56 418l1 1 2-5.5 2-5.5.5-1.5.5-1.5 3.5-.5 3.5-.5h2 2l-.5-5-.5-5-6-1-6-1-2.5 3.5-2.5 3.5.5 2.5.5 2.5v1.5 1.5 2 2 1.5 1.5 2 2" />
            <path d="m295 414v1l-2.5-8-2.5-8h-6.5-6.5l5-.5 5-.5 4 8 4 8" />
        </g>
        <path d="m493 414l3 1 .5-1.5.5-1.5.5-2 .5-2 .5-1.5.5-1.5-1.5-1-1.5-1-1.5.5-1.5.5-.5 1-.5 1-.5 1.5-.5 1.5v1 1l1 1.5 1 1.5" style="fill:#39596c;stroke:#39596c" />
        <path d="m615 414l3 1 1-1 1-1h2.5 2.5l1-.5 1-.5-6-6.5-6-6.5 3.5-3.5 3.5-3.5 3.5-2.5 3.5-2.5-9-1-9-1-2.5 4-2.5 4-3-7-3-7 8.5-3 8.5-3h1.5 1.5l2-.5 2-.5h1.5 1.5 3 3 2 2l1.5-.5 1.5-.5.5-1.5.5-1.5-1-1-1-1h-3-3l-1.5.5-1.5.5-2 .5-2 .5h-2-2-2.5-2.5-1-1l-1.5 1-1.5 1-1.5.5-1.5.5-1.5.5-1.5.5h-2.5-2.5l-1 1-1 1-1.5 1-1.5 1-.5 1.5-.5 1.5-1 .5-1 .5-1-4.5-1-4.5-7-2-7-2 7.5-3.5 7.5-3.5v-.5-.5l-10 1.5-10 1.5 1.5 6.5 1.5 6.5-1.5 10-1.5 10h1.5 1.5.5.5l.5-.5.5-.5.5-.5.5-.5h1 1l1 .5 1 .5h-1-1l.5.5.5.5h1 1l1-.5 1-.5 1.5.5 1.5.5 1.5.5 1.5.5 2 .5 2 .5.5 1.5.5 1.5.5 2 .5 2 1 1 1 1 1 .5 1 .5-.5 1-.5 1 1.5 1.5 1.5 1.5 1.5.5 1.5.5h2.5 2.5l2 .5 2 .5" style="fill:#5c8fab;stroke:#5c8fab" />
        <path d="m395 413v1l2-10 2-10 5 3 5 3 3.5 5.5 3.5 5.5 3.5-7.5 3.5-7.5 1-4 1-4 .5-1 .5-1 1-.5 1-.5 1 .5 1 .5v-.5-.5l.5-1 .5-1 .5-1 .5-1 .5-.5.5-.5v-1.5-1.5l.5-1.5.5-1.5v-1-1-1-1l.5-.5.5-.5v-1.5-1.5l-.5-.5-.5-.5v-1-1l-.5-1.5-.5-1.5v-.5-.5l-.5 1-.5 1v2 2l-3 8-3 8-3 4-3 4-8 3-8 3-1.5-.5-1.5-.5-1-.5-1-.5-.5-1.5-.5-1.5v-1-1l.5-.5.5-.5.5-.5.5-.5.5-1 .5-1h-1-1v-1-1-1.5-1.5l-.5-1-.5-1 .5-2 .5-2 .5-1.5.5-1.5-1.5-1.5-1.5-1.5-1 11-1 11v12 12" style="fill:#baeaef;stroke:#baeaef" />
        <path d="m424 412l8-5 2.5-9 2.5-9-.5-3.5-.5-3.5 1.5-8.5 1.5-8.5-3-3.5-3-3.5v.5.5.5.5l.5 1 .5 1 1.5-.5 1.5-.5v2 2l-.5.5-.5.5v1.5 1.5l-.5 1.5-.5 1.5-.5 2-.5 2 .5 1.5.5 1.5-.5 2-.5 2-1 1-1 1-1 .5-1 .5-1-.5-1-.5-1 .5-1 .5-.5 1-.5 1 2.5 1 2.5 1 1.5.5 1.5.5-.5 2-.5 2-.5 1.5-.5 1.5-2 .5-2 .5-1 1-1 1-.5 2-.5 2-.5 1.5-.5 1.5-1.5 1-1.5 1 2 1 2 1" style="fill:#8cb5c7;stroke:#8cb5c7" />
        <path d="m592 410l3 1 1-.5 1-.5v-.5-.5-1.5-1.5l-1.5-.5-1.5-.5-.5-1-.5-1-1-1-1-1-1 1.5-1 1.5-1 2-1 2 1 .5 1 .5 1.5.5 1.5.5" style="fill:#5a7985;stroke:#5a7985" />
        <path d="m597 409v1h1 1l.5-.5.5-.5.5-1 .5-1-1-.5-1-.5-1-1-1-1-.5-2-.5-2-.5-1.5-.5-1.5-2-.5-2-.5h-2.5-2.5l-1.5.5-1.5.5 2 1 2 1v1.5 1.5l1 1 1 1 1-1.5 1-1.5 1 1 1 1 .5 1 .5 1 1.5.5 1.5.5v1.5 1.5" style="fill:#3b75a6;stroke:#3b75a6" />
        <path d="m570 400h2l1-1.5 1-1.5 1.5.5 1.5.5 1-.5 1-.5h2 2l1.5-.5 1.5-.5h2.5 2.5l-1.5-.5-1.5-.5-1.5-.5-1.5-.5-1 .5-1 .5h-1-1l-.5-.5-.5-.5h1 1l-1-.5-1-.5h-1-1l-.5.5-.5.5-.5.5-.5.5h-.5-.5-1.5-1.5l-.5-.5-.5-.5-1 1-1 1v1 1l.5 1 .5 1" style="fill:#5a7985;stroke:#5a7985" />
        <path d="m293 397v1l-3-7-3-7-7.5 4.5-7.5 4.5 2.5.5 2.5.5 1-1 1-1h2.5 2.5l1.5.5 1.5.5 1 .5 1 .5.5.5.5.5 1.5 1 1.5 1" style="fill:#fffff6;stroke:#fffff6" />
        <path d="m404 395l16-6 3-4 3-4 3-8 3-8-4.5 7.5-4.5 7.5-10 5.5-10 5.5-1-1.5-1-1.5 1-1 1-1-1-1.5-1-1.5-1-2-1-2v1.5 1.5 1 1h1 1l-.5 1-.5 1-.5.5-.5.5-.5.5-.5.5v1 1l.5 1.5.5 1.5 1 .5 1 .5 1.5.5 1.5.5" style="fill:#d9fbf2;stroke:#d9fbf2" />
        <path d="m571 394l1 1 1.5-10 1.5-10-1.5-6.5-1.5-6.5 10-1.5 10-1.5 1-.5 1-.5.5-.5.5-.5h1 1l.5-.5.5-.5h1 1l-1-.5-1-.5h-1-1l-.5.5-.5.5-.5.5-.5.5h-1-1l-1-.5-1-.5-.5.5-.5.5h-1-1-1.5-1.5-1.5-1.5l-2 .5-2 .5h-2-2l-1.5-.5-1.5-.5-3-7.5-3-7.5-4-7-4-7-2-4.5-2-4.5-6-1-6-1-7.5.5-7.5.5 7.5-6.5 7.5-6.5v-.5-.5h-1.5-1.5l-1 .5-1 .5-1.5.5-1.5.5-2 .5-2 .5-1.5 1-1.5 1-9.5 6-9.5 6-5 4.5-5 4.5 6.5-.5 6.5-.5-1.5 2.5-1.5 2.5 7 4 7 4 5.5 5.5 5.5 5.5 7-1 7-1 5.5 4 5.5 4 4 2 4 2 1.5 6.5 1.5 6.5 2 9 2 9" style="fill:#3b75a6;stroke:#3b75a6" />
        <path d="m403 391l20-11 4.5-7.5 4.5-7.5v-2-2l-5-2-5-2-2.5-2-2.5-2-14.5 4.5-14.5 4.5-1.5.5-1.5.5-1 .5-1 .5v2 2l1 .5 1 .5.5.5.5.5h1 1l1-.5 1-.5h1 1l.5-.5.5-.5.5-.5.5-.5h1.5 1.5l1.5 1.5 1.5 1.5-.5 1.5-.5 1.5-.5 2-.5 2 .5 1 .5 1 1 2 1 2 1 1.5 1 1.5-1 1-1 1 1 1.5 1 1.5" style="fill:#fffff6;stroke:#fffff6" />
        <path d="m699 388l3 1h2 2l1-.5 1-.5h1 1l.5-1 .5-1v-.5-.5l-1.5 1-1.5 1h-2-2-2.5-2.5l-1.5-.5-1.5-.5h-2-2-2.5-2.5-2-2l-2-.5-2-.5-.5.5-.5.5h1.5 1.5l2 .5 2 .5h2 2 2 2l1.5.5 1.5.5h1.5 1.5" style="fill:#3b75a6;stroke:#3b75a6" />
        <path d="m439 386l1 1 4.5-5 4.5-5 2-3 2-3 1.5-7.5 1.5-7.5h-8.5-8.5l7 4.5 7 4.5-4.5 3.5-4.5 3.5-2.5 7-2.5 7" style="fill:#5a7985;stroke:#5a7985" />
        <path d="m696 386l3 1h2.5 2.5 2 2l1.5-1 1.5-1v-2-2l-.5-.5-.5-.5-.5-.5-.5-.5-1 .5-1 .5-.5.5-.5.5h-1-1-1-1-1-1l-.5.5-.5.5h-1.5-1.5-1-1l-.5.5-.5.5h-1-1-1.5-1.5-1-1-1-1l-.5.5-.5.5-2 .5-2 .5 2 .5 2 .5h2 2 2.5 2.5 2 2" style="fill:#39596c;stroke:#39596c" />
        <path d="m430 385v1l1-.5 1-.5 1-1 1-1 .5-2 .5-2-.5-1.5-.5-1.5.5-2 .5-2 .5-1.5.5-1.5v-1.5-1.5l.5-.5.5-.5v-2-2l-1.5.5-1.5.5-.5-1-.5-1 .5 1.5.5 1.5v1 1l.5.5.5.5v1.5 1.5l-.5.5-.5.5v1 1 1 1l-.5 1.5-.5 1.5v1.5 1.5l-.5.5-.5.5-.5 1-.5 1-.5 1-.5 1" style="fill:#9bd5e8;stroke:#9bd5e8" />
        <path d="m675 385l3 1 .5-.5.5-.5 2-.5 2-.5.5-.5.5-.5h1 1 1 1 1.5 1.5 1 1l.5-.5.5-.5h1 1 1.5 1.5l.5-.5.5-.5h1 1 1 1 1 1l.5-.5.5-.5 1-.5 1-.5.5.5.5.5.5.5.5.5v2 2 .5.5h.5.5v-2.5-2.5-2.5-2.5-2-2-.5-.5l-1 .5-1 .5-1.5.5-1.5.5-1 1.5-1 1.5-1 1-1 1-1 .5-1 .5-1 .5-1 .5h-2-2l-2 .5-2 .5h-2-2l-1.5.5-1.5.5-2 .5-2 .5h-2-2l-.5 1-.5 1" style="fill:#5a7985;stroke:#5a7985" />
        <g style="fill:#9bd5e8;stroke:#9bd5e8">
            <path d="m619 384h2l1.5.5 1.5.5.5-1 .5-1 .5-.5.5-.5.5-.5.5-.5.5-.5.5-.5 1-.5 1-.5v-1-1l.5-.5.5-.5-.5-.5-.5-.5-.5-1-.5-1-1-.5-1-.5h-1.5-1.5l-2 .5-2 .5h-1.5-1.5l-1 .5-1 .5-.5.5-.5.5.5 1 .5 1 .5.5.5.5v1 1l.5.5.5.5 1 1.5 1 1.5" />
            <path d="m635 383l18-3 8 1.5 8 1.5 6-5 6-5 4.5-.5 4.5-.5-2 3-2 3 7.5.5 7.5.5 1-.5 1-.5 1-1 1-1 1-1.5 1-1.5 1.5-.5 1.5-.5 1-.5 1-.5v-3-3-1-1l-6.5 3-6.5 3-7-1-7-1-7 3.5-7 3.5-4.5-5-4.5-5-10.5 2-10.5 2-.5 1.5-.5 1.5-1.5.5-1.5.5-2 .5-2 .5-.5 2-.5 2 .5 1.5.5 1.5 1 1.5 1 1.5" />
        </g>
        <path d="m593 380l2-1 .5-1.5.5-1.5 1.5-1 1.5-1 1-1 1-1h2.5 2.5l1.5-.5 1.5-.5 1.5-.5 1.5-.5-1.5-.5-1.5-.5-1.5.5-1.5.5-2 .5-2 .5-1.5-.5-1.5-.5-1.5-1-1.5-1-1.5.5-1.5.5-1-1.5-1-1.5-1-1-1-1 1.5-2 1.5-2-7.5 3.5-7.5 3.5 7 2 7 2 1 4.5 1 4.5" style="fill:#8cb5c7;stroke:#8cb5c7" />
        <path d="m125 377v1h1.5 1.5 1.5 1.5l-.5-4.5-.5-4.5-4.5.5-4.5.5 2 3.5 2 3.5" style="fill:#595948;stroke:#595948" />
        <path d="m367 376v1l.5-1.5.5-1.5 1.5-.5 1.5-.5 2-.5 2-.5 1.5-.5 1.5-.5h2 2l.5-1.5.5-1.5v-2-2l1-.5 1-.5 1.5-.5 1.5-.5v-.5-.5h-1.5-1.5l-1 .5-1 .5-1 2.5-1 2.5-1 1-1 1-2 .5-2 .5-1.5.5-1.5.5h-1.5-1.5l-1 1-1 1v1.5 1.5" style="fill:#baeaef;stroke:#baeaef" />
        <path d="m156 374l-1-3 6.5-3.5 6.5-3.5.5-6 .5-6-5-1-5-1-6.5 2.5-6.5 2.5 1 3 1 3 3.5 2.5 3.5 2.5.5 4 .5 4" style="fill:#595948;stroke:#595948" />
        <path d="m671 374l14-7 7 1 7 1 6.5-3 6.5-3v-2-2l-1-1.5-1-1.5-3-1.5-3-1.5.5-3.5.5-3.5-5 2-5 2-2 5-2 5-1-3-1-3h-5-5l-5.5 3-5.5 3-3 1-3 1-10 2-10 2-1.5-8-1.5-8-7 2-7 2 2.5-4.5 2.5-4.5-9 .5-9 .5-6 1-6 1-4.5-2.5-4.5-2.5-3.5-5.5-3.5-5.5-4-6-4-6 3-7 3-7 8-3.5 8-3.5 13-4 13-4 1.5-1 1.5-1 1.5-.5 1.5-.5h1 1l1-.5 1-.5 1.5-.5 1.5-.5h1 1l1-.5 1-.5 1.5-.5 1.5-.5.5-.5.5-.5 1-.5 1-.5h1.5 1.5v-.5-.5l1.5-.5 1.5-.5h1 1l1-.5 1-.5 1.5-.5 1.5-.5 1-.5 1-.5h-1.5-1.5l-2 .5-2 .5h-1-1-2.5-2.5l-8.5 3.5-8.5 3.5-8.5 2.5-8.5 2.5-8.5 3-8.5 3-8 3-8 3-15.5 2-15.5 2-1-.5-1-.5v-.5-.5l1-1 1-1 .5-.5.5-.5 1-.5 1-.5 1-1 1-1 1.5-.5 1.5-.5.5-.5.5-.5 1-.5 1-.5 1-1 1-1h1 1l1-.5 1-.5 1.5-.5 1.5-.5v-.5-.5l8-3.5 8-3.5 7-4 7-4 7.5-3.5 7.5-3.5 8-3 8-3 7-4 7-4 7.5-3.5 7.5-3.5 8-3 8-3 8.5-2.5 8.5-2.5 9.5-4 9.5-4v-2.5-2.5-.5-.5l-9.5 3.5-9.5 3.5-7.5 3.5-7.5 3.5-7.5 3.5-7.5 3.5-8 3-8 3-8 3.5-8 3.5-7.5 3.5-7.5 3.5-7.5 3.5-7.5 3.5-7.5 3.5-7.5 3.5-7 4-7 4-10.5 7-10.5 7-1.5 1-1.5 1-2 .5-2 .5-.5.5-.5.5-.5.5-.5.5-1 .5-1 .5v.5.5l10 .5 10 .5 8.5-1.5 8.5-1.5-.5 5.5-.5 5.5 2 6 2 6 5.5 13 5.5 13 2-1 2-1 1.5-.5 1.5-.5 1 .5 1 .5 1 1 1 1 7-.5 7-.5 1.5 1.5 1.5 1.5 10 5.5 10 5.5 1 1 1 1 10.5-2 10.5-2 4.5 5 4.5 5" style="fill:#baeaef;stroke:#baeaef" />
        <g style="fill:#9bd5e8;stroke:#9bd5e8">
            <path d="m369 370v1h1.5 1.5l1.5-.5 1.5-.5 2-.5 2-.5 1-1 1-1 1-2.5 1-2.5-2 .5-2 .5-.5.5-.5.5h-1-1l-.5.5-.5.5-1 1-1 1 1 .5 1 .5.5-.5.5-.5h1 1l-.5.5-.5.5-1 .5-1 .5h-1-1-1-1l-1 .5-1 .5" />
            <path d="m599 370l3 1 2-.5 2-.5 1.5-.5 1.5-.5 1.5.5 1.5.5 1.5-1 1.5-1h1 1 2.5 2.5 2 2l2-.5 2-.5 1.5-.5 1.5-.5h3 3l-10-5.5-10-5.5-1.5-1.5-1.5-1.5-7 .5-7 .5v1.5 1.5l.5-1 .5-1 .5.5.5.5h1 1 1 1v1.5 1.5 1 1 1 1h-1-1l-1-.5-1-.5-.5.5-.5.5-.5.5-.5.5-.5.5-.5.5-1-.5-1-.5-1-1-1-1 1.5-1.5 1.5-1.5h-1.5-1.5l-1 1-1 1h-1.5-1.5l-1.5 2-1.5 2 1 1 1 1 1 1.5 1 1.5 1.5-.5 1.5-.5 1.5 1 1.5 1" />
        </g>
        <g style="fill:#5a7985;stroke:#5a7985">
            <path d="m459 368l3 1 1-1 1-1 .5-2 .5-2-1.5-.5-1.5-.5v-1.5-1.5l-1.5.5-1.5.5.5 2 .5 2-.5 1.5-.5 1.5v.5.5" />
            <path d="m470 366l11-11-5.5 3.5-5.5 3.5v2 2" />
        </g>
        <path d="m642 366l20-4 3-1 3-1 5.5-3 5.5-3h5 5l1 3 1 3 2-5 2-5 5-2 5-2-.5 3.5-.5 3.5 3 1.5 3 1.5 1 1.5 1 1.5v-1.5-1.5-2.5-2.5-2-2-2.5-2.5-2-2-2-2-.5-.5l-1 .5-1 .5-2-.5-2-.5h-2-2l-2 .5-2 .5-1.5.5-1.5.5-1.5-.5-1.5-.5.5-1 .5-1 2-.5 2-.5 1.5-.5 1.5-.5 2-.5 2-.5h2 2 2 2v-1.5-1.5-2.5-2.5l-9.5 2.5-9.5 2.5h-7-7l-5.5 4-5.5 4-.5 4.5-.5 4.5-6.5 4.5-6.5 4.5-7-2.5-7-2.5-5-3-5-3-6-1-6-1-6.5 1.5-6.5 1.5-4.5-2.5-4.5-2.5-5.5-4-5.5-4-2-9-2-9 6.5-4.5 6.5-4.5 15-5.5 15-5.5-13 4-13 4-8 3.5-8 3.5-3 7-3 7 4 6 4 6 3.5 5.5 3.5 5.5 4.5 2.5 4.5 2.5 6-1 6-1 9-.5 9-.5-2.5 4.5-2.5 4.5 7-2 7-2 1.5 8 1.5 8" style="fill:#d9fbf2;stroke:#d9fbf2" />
        <path d="m601 364l1-1 .5-.5.5-.5.5-.5.5-.5 1 .5 1 .5h1 1v-1-1-1-1-1.5-1.5h-1-1-1-1l-.5-.5-.5-.5-.5 1-.5 1-1 1-1 1-1.5 1.5-1.5 1.5 1 1 1 1 1 .5 1 .5" style="fill:#baeaef;stroke:#baeaef" />
        <path d="m388 361v1l14.5-4.5 14.5-4.5 2.5 2 2.5 2 5 2 5 2 .5-1 .5-1v-.5-.5l-.5-1-.5-1 .5-1.5.5-1.5v-.5-.5l-1-1-1-1 1-1 1-1 1-1 1-1-2-.5-2-.5-1 .5-1 .5-14 4-14 4-8 3.5-8 3.5h1.5 1.5" style="fill:#d9fbf2;stroke:#d9fbf2" />
        <path d="m592 359v1h1.5 1.5l1-1 1-1h1.5 1.5l1-1 1-1v-1.5-1.5l-1-1-1-1-1-.5-1-.5-1.5.5-1.5.5-2 1-2 1-1.5.5-1.5.5-1.5-.5-1.5-.5-5.5-5-5.5-5-2.5-10.5-2.5-10.5 2 6.5 2 6.5-.5 4.5-.5 4.5 6 6.5 6 6.5h1.5 1.5 1 1l.5-.5.5-.5 1 .5 1 .5h1 1l.5-.5.5-.5.5-.5.5-.5h1 1l1 .5 1 .5h-1-1l-.5.5-.5.5h-1-1l-.5.5-.5.5-1 .5-1 .5" style="fill:#8cb5c7;stroke:#8cb5c7" />
        <path d="m570 357l3 1h2 2l2-.5 2-.5h1.5 1.5l-6-6.5-6-6.5.5-4.5.5-4.5-2-6.5-2-6.5v-.5-.5l-6-4.5-6-4.5-9-2.5-9-2.5.5-.5.5-.5v-.5-.5l-7.5 6.5-7.5 6.5 7.5-.5 7.5-.5 6 1 6 1 2 4.5 2 4.5 4 7 4 7 3 7.5 3 7.5" style="fill:#5c8fab;stroke:#5c8fab" />
        <path d="m434 356h3l4-6.5 4-6.5 4-6 4-6 4.5-4 4.5-4 8-1 8-1 8.5-2.5 8.5-2.5 6.5-1.5 6.5-1.5 8.5-2 8.5-2 1.5-1 1.5-1 2-.5 2-.5 1.5-.5 1.5-.5 1-.5 1-.5h1.5 1.5l-.5-1-.5-1-1.5.5-1.5.5-2 .5-2 .5-1.5.5-1.5.5h-1-1l5-6.5 5-6.5 4.5-4.5 4.5-4.5 5.5-6 5.5-6 3.5-4.5 3.5-4.5 3.5-2.5 3.5-2.5 1-3 1-3 4.5-3.5 4.5-3.5 3-3 3-3 4-4.5 4-4.5 3-2.5 3-2.5 3-1.5 3-1.5v-4.5-4.5l4.5-3.5 4.5-3.5v-3-3l-4.5-4.5-4.5-4.5 5 1 5 1-1.5-6-1.5-6-3-3-3-3 3.5-4.5 3.5-4.5-3-1.5-3-1.5-8 4-8 4-2 2-2 2-3.5 4.5-3.5 4.5-6 5.5-6 5.5-2 2-2 2-4 5-4 5-3.5.5-3.5.5-4 4-4 4-4 4-4 4-1.5 5-1.5 5-4.5-2.5-4.5-2.5-2.5 3.5-2.5 3.5 2.5 2.5 2.5 2.5.5 3.5.5 3.5-1.5 2-1.5 2-1 3-1 3-2 2-2 2h-4-4l-2.5 1.5-2.5 1.5-5 4.5-5 4.5 6 1 6 1-1 3-1 3-1-2-1-2-1.5 2.5-1.5 2.5-1 4-1 4-5.5 2-5.5 2-7.5 1.5-7.5 1.5-1.5 5.5-1.5 5.5-5.5 2.5-5.5 2.5-3 5-3 5-4.5 1-4.5 1h-6-6l-4-1-4-1-4.5 2.5-4.5 2.5-4.5 1.5-4.5 1.5-4.5-2-4.5-2-2-1-2-1 2.5-6.5 2.5-6.5h-6-6l-2 3-2 3 2.5.5 2.5.5-3 5-3 5 4 2 4 2-4 7.5-4 7.5 5.5-2 5.5-2 4-1 4-1 6 .5 6 .5 8.5-.5 8.5-.5 3.5 4.5 3.5 4.5-.5 1.5-.5 1.5h1 1" style="fill:#5a7985;stroke:#5a7985" />
        <path d="m585 353l3 1 1.5-.5 1.5-.5-5.5-13-5.5-13-2-6-2-6 .5-5.5.5-5.5-8.5 1.5-8.5 1.5-10-.5-10-.5-.5.5-.5.5 9 1.5 9 1.5 6 6 6 6 2.5 10.5 2.5 10.5 5.5 5 5.5 5" style="fill:#9bd5e8;stroke:#9bd5e8" />
        <path d="m433 352v1l-3.5-4.5-3.5-4.5-8.5.5-8.5.5.5 1 .5 1-.5.5-.5.5h-1-1-1.5-1.5l-.5.5-.5.5-1 1-1 1 1.5-.5 1.5-.5h1.5 1.5l.5-.5.5-.5h1 1 1 1l.5-.5.5-.5h1.5 1.5l.5-.5.5-.5h1 1 1 1 1.5 1.5l.5-.5.5-.5h2 2l1-.5 1-.5 2 .5 2 .5-1 1-1 1-1 1-1 1 1 1 1 1" style="fill:#5c8fab;stroke:#5c8fab" />
        <path d="m654 352l13-9 .5-4.5.5-4.5 5.5-4 5.5-4h7 7l9.5-2.5 9.5-2.5v-11.5-11.5-11-11-6.5-6.5l-10 2.5-10 2.5-8 3-8 3-13 4-13 4h-1.5-1.5l-1 .5-1 .5-.5.5-.5.5-1.5.5-1.5.5-1 .5-1 .5h-1-1l-1.5.5-1.5.5-1 .5-1 .5h-1-1l-1.5.5-1.5.5-1.5 1-1.5 1-15 5.5-15 5.5-6.5 4.5-6.5 4.5 2 9 2 9 5.5 4 5.5 4 4.5 2.5 4.5 2.5 6.5-1.5 6.5-1.5 6 1 6 1 5 3 5 3 7 2.5 7 2.5" style="fill:#fffff6;stroke:#fffff6" />
        <path d="m692 334l3 1 1.5-.5 1.5-.5 2-.5 2-.5h2 2l2 .5 2 .5 1-.5 1-.5v-2-2h-2-2-2-2l-2 .5-2 .5-1.5.5-1.5.5-2 .5-2 .5-.5 1-.5 1" style="fill:#baeaef;stroke:#baeaef" />
        <path d="m569 321v1l-6-6-6-6-9-1.5-9-1.5 9 2.5 9 2.5 6 4.5 6 4.5" style="fill:#8cb5c7;stroke:#8cb5c7" />
        <path d="m349 320h2 1 1 1.5 1.5v-2-2l-2-.5-2-.5-1.5.5-1.5.5-1 1.5-1 1.5 1 .5 1 .5" style="fill:#6d7467;stroke:#6d7467" />
        <path d="m550 306l31-4 8-3 8-3 8.5-3 8.5-3 8.5-2.5 8.5-2.5 8.5-3.5 8.5-3.5 1-.5 1-.5.5-.5.5-.5 1-.5 1-.5 1.5-.5 1.5-.5h1 1l.5-.5.5-.5h1 1l1.5-.5 1.5-.5 2-.5 2-.5 1.5-.5 1.5-.5 2-.5 2-.5 1.5-.5 1.5-.5 1.5-1 1.5-1 1.5-.5 1.5-.5 1.5-.5 1.5-.5 2-.5 2-.5 1.5-.5 1.5-.5 1.5-1 1.5-1 1-.5 1-.5 1-.5 1-.5 1-.5 1-.5.5-.5.5-.5h1 1l.5-.5.5-.5 1-.5 1-.5 1.5-.5 1.5-.5v-2-2-2.5-2.5-2-2-2.5-2.5-1-1l-8 4-8 4-9 2.5-9 2.5-7.5 2.5-7.5 2.5-7.5 3.5-7.5 3.5-7.5 3.5-7.5 3.5-8 3-8 3-7.5 3.5-7.5 3.5-16 6.5-16 6.5-1.5.5-1.5.5-1 .5-1 .5h-1-1l-1 1-1 1-1 .5-1 .5-.5.5-.5.5-1.5.5-1.5.5-1 1-1 1-1 .5-1 .5-.5.5-.5.5-1 1-1 1v.5.5l1 .5 1 .5" style="fill:#fffff6;stroke:#fffff6" />
        <path d="m527 305h2l1.5-.5 1.5-.5 2-.5 2-.5 1.5-.5 1.5-.5.5 1 .5 1v.5.5l1-.5 1-.5.5-.5.5-.5.5-.5.5-.5 2-.5 2-.5v-.5-.5l.5-5 .5-5 5-5 5-5 7.5-4 7.5-4 6-5 6-5 5-3 5-3 5-4 5-4 6.5-8.5 6.5-8.5-.5-1-.5-1 .5-1 .5-1-1 .5-1 .5-1.5.5-1.5.5-1.5 1-1.5 1h-1-1l-1 1.5-1 1.5v1 1l-.5.5-.5.5-1.5-1-1.5-1-1-.5-1-.5h-1-1l-.5-1-.5-1h1 1l1.5-1 1.5-1h1 1v-1-1l-1.5-2-1.5-2-3 2.5-3 2.5-4 4.5-4 4.5-3 3-3 3-4.5 3.5-4.5 3.5-1 3-1 3-3.5 2.5-3.5 2.5-3.5 4.5-3.5 4.5-5.5 6-5.5 6-4.5 4.5-4.5 4.5-5 6.5-5 6.5" style="fill:#5c8fab;stroke:#5c8fab" />
        <path d="m548 300v1l1.5-1 1.5-1v-.5-.5l5.5-5.5 5.5-5.5 7-4 7-4 7.5-3.5 7.5-3.5 7-3 7-3 7.5-3.5 7.5-3.5 7.5-4 7.5-4 6-4 6-4 5.5-2.5 5.5-2.5 5-2 5-2 7-4 7-4 7.5-3.5 7.5-3.5 7.5-3 7.5-3v-1.5-1.5-2-2-2.5-2.5-2-2-2.5-2.5-2-2-2.5-2.5-2-2-2-2-2.5-2.5-1.5-1.5l-4.5 4.5-4.5 4.5-4.5 3.5-4.5 3.5-6 1-6 1-5 2-5 2-3.5 3.5-3.5 3.5-2 2-2 2-9.5 5.5-9.5 5.5-2 5.5-2 5.5-3 1-3 1-1-.5-1-.5h-2-2l.5 1 .5 1 .5.5.5.5-.5.5-.5.5v1 1h-1.5-1.5v1 1h-1-1-1.5-1.5l-6.5 8.5-6.5 8.5-5 4-5 4-5 3-5 3-6 5-6 5-7.5 4-7.5 4-5 5-5 5-.5 5-.5 5" style="fill:#8cb5c7;stroke:#8cb5c7" />
        <path d="m341 298h2l1.5-1 1.5-1 1.5-3.5 1.5-3.5-1-4-1-4-8 3-8 3-7.5-1.5-7.5-1.5 5 4.5 5 4.5 1.5 1 1.5 1 .5 1 .5 1 1.5-.5 1.5-.5 1.5.5 1.5.5.5-1 .5-1v-1-1l2 .5 2 .5v2 2" style="fill:#5a7985;stroke:#5a7985" />
        <path d="m551 298v1l10.5-7 10.5-7 7-4 7-4 7.5-3.5 7.5-3.5 7.5-3.5 7.5-3.5 7.5-3.5 7.5-3.5 8-3.5 8-3.5 8-3 8-3 7.5-3.5 7.5-3.5 7.5-3.5 7.5-3.5 9.5-3.5 9.5-3.5v-2.5-2.5-2-2l-7.5 3-7.5 3-7.5 3.5-7.5 3.5-7 4-7 4-5 2-5 2-5.5 2.5-5.5 2.5-6 4-6 4-7.5 4-7.5 4-7.5 3.5-7.5 3.5-7 3-7 3-7.5 3.5-7.5 3.5-7 4-7 4-5.5 5.5-5.5 5.5" style="fill:#9bd5e8;stroke:#9bd5e8" />
        <path d="m570 290v1l16-6.5 16-6.5 7.5-3.5 7.5-3.5 8-3 8-3 7.5-3.5 7.5-3.5 7.5-3.5 7.5-3.5 7.5-2.5 7.5-2.5 9-2.5 9-2.5 8-4 8-4v-2.5-2.5l-9.5 4-9.5 4-8.5 2.5-8.5 2.5-8 3-8 3-7.5 3.5-7.5 3.5-7 4-7 4-8 3-8 3-7.5 3.5-7.5 3.5-7 4-7 4-8 3.5-8 3.5" style="fill:#d9fbf2;stroke:#d9fbf2" />
        <path d="m360 281l-1-7-.5 3.5-.5 3.5h1 1" style="fill:#5a7985;stroke:#5a7985" />
        <path d="m650 281v1l13-4 13-4 8-3 8-3 10-2.5 10-2.5v-1.5-1.5l-9.5 3-9.5 3-15.5 5.5-15.5 5.5-1 .5-1 .5-1.5.5-1.5.5-1 .5-1 .5h-1-1l-1.5.5-1.5.5" style="fill:#d9fbf2;stroke:#d9fbf2" />
        <path d="m653 278h2l2-.5 2-.5h1.5 1.5l15.5-5.5 15.5-5.5 9.5-3 9.5-3v-2.5-2.5-1-1l-1.5.5-1.5.5-1 .5-1 .5-.5.5-.5.5h-1-1l-.5.5-.5.5-1 .5-1 .5-1 .5-1 .5-5.5 3-5.5 3-13 4-13 4 1-.5 1-.5-1.5.5-1.5.5h-1-1l-.5.5-.5.5h-1-1l-1.5.5-1.5.5-1 .5-1 .5-.5.5-.5.5-1 .5-1 .5h2.5 2.5" style="fill:#9bd5e8;stroke:#9bd5e8" />
        <path d="m211 275l12-7 4-1.5 4-1.5 5.5-.5 5.5-.5 7-2 7-2 2 1 2 1 5-2 5-2v-4.5-4.5l4-1 4-1 6-3 6-3 2.5-1.5 2.5-1.5 6 3 6 3 7.5 1 7.5 1 6-1 6-1 1-4 1-4-2-2-2-2 4.5-4.5 4.5-4.5 2-3 2-3-1-1.5-1-1.5 1.5-3.5 1.5-3.5h6 6l-4.5-1.5-4.5-1.5-2.5-1.5-2.5-1.5 4-3.5 4-3.5h-5-5l-.5-3.5-.5-3.5.5-3.5.5-3.5-5-5-5-5h-2.5-2.5l-3.5.5-3.5.5-4-4-4-4-3.5-2.5-3.5-2.5-1.5-5.5-1.5-5.5-1-5-1-5-3.5 1-3.5 1 1-3 1-3h-4-4l4-5 4-5h-6-6l-6-1.5-6-1.5-3-4-3-4-7-2-7-2-7.5.5-7.5.5 1.5-3.5 1.5-3.5 3.5-1 3.5-1 4.5-2.5 4.5-2.5h-1-1-6-6l2.5-5.5 2.5-5.5-4 1-4 1v4.5 4.5l-7 2-7 2-.5-5.5-.5-5.5-1-6-1-6h-2-2l-6-2.5-6-2.5-3.5-2.5-3.5-2.5-4-1-4-1-5.5.5-5.5.5-3.5-2.5-3.5-2.5-8 .5-8 .5-4.5 3.5-4.5 3.5-4-2-4-2-3-5-3-5-4.5 2.5-4.5 2.5-1.5 3.5-1.5 3.5-1-3.5-1-3.5-4 1-4 1-3-2-3-2-2.5 5.5-2.5 5.5-3.5-.5-3.5-.5-1.5-2-1.5-2-3 2-3 2 1.5-6.5 1.5-6.5-2 1-2 1-3 4.5-3 4.5-3-1-3-1-5-4-5-4-1 2-1 2 3.5 1.5 3.5 1.5-5.5 2-5.5 2-2 1-2 1-7.5-.5-7.5-.5-3 2-3 2-2 2-2 2-2.5-2-2.5-2-5.5-1.5-5.5-1.5-5-.5-5-.5v12.5 12.5 11 11 11.5 11.5 11 11 11 11 11 11 11 11 11.5 11.5.5.5l13-1 13-1 6.5 2.5 6.5 2.5 4 1.5 4 1.5 8.5-.5 8.5-.5 6.5 2.5 6.5 2.5 2-1 2-1 7.5.5 7.5.5 7 1.5 7 1.5 7.5 2.5 7.5 2.5h9 9l5.5-.5 5.5-.5 6.5.5 6.5.5h5.5 5.5l7 1 7 1 6 2 6 2 3.5 1.5 3.5 1.5" style="fill:#595948;stroke:#595948" />
        <path d="m662 273l26-8 5.5-3 5.5-3-1 .5-1 .5-1.5 1-1.5 1-1.5.5-1.5.5-2 .5-2 .5-1.5.5-1.5.5-1.5.5-1.5.5-1.5 1-1.5 1-1.5.5-1.5.5-2 .5-2 .5-1.5.5-1.5.5-2 .5-2 .5-1 .5-1 .5" style="fill:#baeaef;stroke:#baeaef" />
        <g style="fill:#595948;stroke:#595948">
            <path d="m425 254l3 1 1.5-.5 1.5-.5v-.5-.5l-.5-1.5-.5-1.5v-1.5-1.5l-1.5-.5-1.5-.5-1 1.5-1 1.5v1 1 1 1 .5.5" />
            <path d="m430 249v1l8-4.5 8-4.5 5.5-4.5 5.5-4.5 6-4.5 6-4.5 3.5-3.5 3.5-3.5 3.5-2.5 3.5-2.5 5-5 5-5-6 1-6 1-6 4-6 4-5 2.5-5 2.5 1.5 4.5 1.5 4.5-6-3-6-3-.5 1.5-.5 1.5-.5 2.5-.5 2.5-5 5.5-5 5.5-3.5 2.5-3.5 2.5-.5 3-.5 3" />
        </g>
        <path d="m606 237l1-1v-1-1l1-1.5 1-1.5h1 1l1.5-1 1.5-1 1.5-.5 1.5-.5 1-.5 1-.5-.5 1-.5 1 .5 1 .5 1h1.5 1.5 1 1v-1-1h1.5 1.5v-1-1l.5-.5.5-.5-.5-.5-.5-.5-.5-1-.5-1 1.5-5.5 1.5-5.5 6.5-.5 6.5-.5 9.5-5.5 9.5-5.5 2-2 2-2 3.5-3.5 3.5-3.5 5-2 5-2 6-1 6-1 4.5-3.5 4.5-3.5 4.5-4.5 4.5-4.5v-11.5-11.5-11.5-11.5-11-11-11-11-11-11-11-11-1-1l-1.5 5-1.5 5-4 2.5-4 2.5-2 4-2 4-3.5 1.5-3.5 1.5 1 3 1 3-5.5 1.5-5.5 1.5-2 .5-2 .5v-4-4l-3 1-3 1-.5 5.5-.5 5.5 3 1 3 1-4.5 6-4.5 6-3 1-3 1-3.5 2.5-3.5 2.5-2 4-2 4 1-.5 1-.5v-1-1l-1.5-.5-1.5-.5 2-.5 2-.5 1.5-.5 1.5-.5 1.5 1 1.5 1v1 1l-2 .5-2 .5-1 1-1 1-1.5-.5-1.5-.5v7 7l2-1.5 2-1.5-4 5-4 5-3.5.5-3.5.5-2.5-1.5-2.5-1.5-2.5 2.5-2.5 2.5-1 2.5-1 2.5-3-4-3-4-6.5 2.5-6.5 2.5 8.5 1.5 8.5 1.5-3.5 4.5-3.5 4.5-2 5-2 5-1 .5-1 .5 1 1 1 1-.5 2-.5 2-1.5.5-1.5.5-1 .5-1 .5v1.5 1.5l1 .5 1 .5 3 1.5 3 1.5-3.5 4.5-3.5 4.5 3 3 3 3 1.5 6 1.5 6-5-1-5-1 4.5 4.5 4.5 4.5v3 3l-4.5 3.5-4.5 3.5v4.5 4.5l-3 1.5-3 1.5 1.5 2 1.5 2v1 1h-1-1l-1.5 1-1.5 1h-1-1l.5 1 .5 1h1 1l1 .5 1 .5 1.5 1 1.5 1" style="fill:#969686;stroke:#969686" />
        <path d="m632 224l6-2 2-5.5 2-5.5-6.5.5-6.5.5-1.5 5.5-1.5 5.5h2 2l1 .5 1 .5" style="fill:#5c8fab;stroke:#5c8fab" />
        <path d="m315 166l3 1 1.5-.5 1.5-.5 2-.5 2-.5 1-1 1-1h-2.5-2.5l-1-1-1-1 1-1.5 1-1.5h-2-2l-.5 1.5-.5 1.5-1.5 1-1.5 1 .5 1.5.5 1.5" style="fill:#595948;stroke:#595948" />
        <g style="fill:#5a7985;stroke:#5a7985">
            <path d="m608 157v1l1-.5 1-.5 1.5-.5 1.5-.5.5-2 .5-2-1-1-1-1 1-.5 1-.5-5.5.5-5.5.5-1 2-1 2 3.5 1.5 3.5 1.5" />
            <path d="m545 130l9-7-6 2-6 2 1.5 1.5 1.5 1.5" />
        </g>
        <g style="fill:#969686;stroke:#969686">
            <path d="m624 105h2l.5-1.5.5-1.5-1-1.5-1-1.5-1-1-1-1-1 1.5-1 1.5-.5 1.5-.5 1.5 1.5 1 1.5 1h.5.5" />
            <path d="m640 103l-3-7-3.5 3.5-3.5 3.5h5 5" />
        </g>
        <path d="m650 101l3 1 1-1 1-1 2-.5 2-.5v-1-1l-1.5-1-1.5-1-1.5.5-1.5.5-2 .5-2 .5 1.5.5 1.5.5v1 1l-1 .5-1 .5" style="fill:#6d7467;stroke:#6d7467" />
        <path d="m592 91h12l6-3 6-3 6-4 6-4 1.5-8.5 1.5-8.5 3.5-3 3.5-3 6.5-2.5 6.5-2.5 3-2 3-2 1.5-5.5 1.5-5.5 4.5-2.5 4.5-2.5 3-3.5 3-3.5 2-3 2-3 4-2 4-2 4-4 4-4 7.5-2 7.5-2h-13.5-13.5-11-11-11-11-11-11-1.5-1.5v4 4l-3 3-3 3-1 2-1 2-7 1-7 1-2 2-2 2-.5 4-.5 4h6 6l-2.5 4.5-2.5 4.5-4 5-4 5 1 4 1 4v5 5l.5-2.5.5-2.5h1.5 1.5l-.5 1.5-.5 1.5h1.5 1.5l.5-1.5.5-1.5.5 2 .5 2-.5 1.5-.5 1.5-1.5-.5-1.5-.5-2-.5-2-.5 2 6 2 6v5 5" style="fill:#969686;stroke:#969686" />
        <path d="m613 83h2l1-1 1-1 1-1.5 1-1.5.5-1.5.5-1.5-1-1.5-1-1.5-1.5.5-1.5.5v1.5 1.5l-.5 1.5-.5 1.5-.5 1.5-.5 1.5v.5.5" style="fill:#b5c1be;stroke:#b5c1be" />
        <path d="m158 82l4-6-1-6-1-6v4.5 4.5l-1 4.5-1 4.5" style="fill:#6d7467;stroke:#6d7467" />
        <path d="m600 82l10-4-4-2-4-2-1 4-1 4" style="fill:#b5c1be;stroke:#b5c1be" />
        <path d="m234 81h2l1.5-.5 1.5-.5 1.5-1 1.5-1 1.5-.5 1.5-.5v-1.5-1.5h-1-1l-2 .5-2 .5-1 1-1 1h-1-1l-1 1.5-1 1.5.5.5.5.5" style="fill:#595948;stroke:#595948" />
        <path d="m592 70l3 1 .5-1.5.5-1.5-.5-2-.5-2-.5 1.5-.5 1.5h-1.5-1.5l.5-1.5.5-1.5h-1.5-1.5l-.5 2.5-.5 2.5 2 .5 2 .5" style="fill:#6d7467;stroke:#6d7467" />
        <path d="m151 62h2l.5-1.5.5-1.5 1.5-1 1.5-1-.5-1.5-.5-1.5h-1.5-1.5l-.5.5-.5.5-1 1.5-1 1.5-1.5.5-1.5.5.5 1.5.5 1.5h1.5 1.5" style="fill:#595948;stroke:#595948" />
    </g>
</svg>
