<svg xmlns="http://www.w3.org/2000/svg" viewBox="0 0 712 960"><g style="fill:#431d05"><path d="m0 0h712v960h-712z"/><path d="m0 959v1h28 28 27 27 22.5 22.5v-.5-.5l10 .5 10 .5h1.5 1.5 2.5 2.5 2 2 2 2 2.5 2.5 2 2 2.5 2.5 2 2 .5.5v-.5-.5l8 .5 8 .5h1.5 1.5 2.5 2.5 2 2 2.5 2.5 2 2 1.5 1.5v-.5-.5l3.5-4.5 3.5-4.5 5-5.5 5-5.5 10-4.5 10-4.5 2.5-6.5 2.5-6.5 2.5-6 2.5-6-2-4.5-2-4.5 5.5-5 5.5-5 6 4 6 4v-8.5-8.5l5.5-5 5.5-5 3-1 3-1 6-4.5 6-4.5 10-6.5 10-6.5 5.5-10 5.5-10 2.5-4.5 2.5-4.5 5 3.5 5 3.5 8-6.5 8-6.5 4.5-3.5 4.5-3.5 9.5-4 9.5-4 2-3.5 2-3.5 5-.5 5-.5-6-8-6-8-2.5-6-2.5-6 2-10 2-10-6 1.5-6 1.5-6.5-1-6.5-1 2.5-4 2.5-4-4.5-6.5-4.5-6.5 3.5-6 3.5-6-9 .5-9 .5-2-7-2-7-10.5-4-10.5-4-9-5.5-9-5.5-9.5 3-9.5 3-7.5-4.5-7.5-4.5-2.5-7-2.5-7-8-7.5-8-7.5-10-5-10-5-6-5.5-6-5.5-12-9.5-12-9.5-7.5-7-7.5-7-7.5-6.5-7.5-6.5-5.5-6-5.5-6-7-11.5-7-11.5-10.5-8.5-10.5-8.5-5.5-5-5.5-5-5.5-9-5.5-9-7.5-3-7.5-3 1-8 1-8-10.5-2-10.5-2-2-1.5-2-1.5-5.5-8.5-5.5-8.5-4.5-6-4.5-6-2.5-8-2.5-8-5.5-12-5.5-12-4.5-6.5-4.5-6.5-5.5-4-5.5-4-11-5.5-11-5.5-5-3-5-3-2.5-2.5-2.5-2.5-6.5.5-6.5.5v28.5 28.5 26.5 26.5 26.5 26.5 26.5 26.5 27 27 26.5 26.5 26.5 26.5 27 27 26.5 26.5 26.5 26.5 26.5 26.5 8 8" style="stroke:#431d05;stroke-linejoin:round;stroke-width:.7"/></g><g style="stroke-linejoin:round;stroke-width:.7"><g style="fill:#643316;stroke:#643316"><path d="m155 959v1h1.5 1.5 2 2 2.5 2.5 2 2 2 2l-10-.5-10-.5"/><path d="m210 959v1h1.5 1.5 2 2 2.5 2.5 2 2l-8-.5-8-.5"/><path d="m250 959v1h27.5 27.5v-.5-.5l12-9.5 12-9.5 13.5-7 13.5-7 11.5-13.5 11.5-13.5 8.5-13 8.5-13 7-15.5 7-15.5 8-6 8-6 8-7.5 8-7.5 16 .5 16 .5 9 4.5 9 4.5 2-9 2-9 14.5-9 14.5-9-11 11.5-11 11.5 5-1 5-1 12-9.5 12-9.5 16.5 3 16.5 3 7 8.5 7 8.5 4.5 10.5 4.5 10.5-1.5 9-1.5 9-7.5 8-7.5 8-12.5-8.5-12.5-8.5-10.5-15-10.5-15-15 7.5-15 7.5 9 1.5 9 1.5-4 13-4 13 3 11.5 3 11.5-10 35.5-10 35.5h2 2v-.5-.5l5.5-18.5 5.5-18.5 5.5-20.5 5.5-20.5 2.5-18 2.5-18 9.5 6 9.5 6 4.5 13 4.5 13 4 19.5 4 19.5 5.5 17 5.5 17-.5-18.5-.5-18.5 1-17.5 1-17.5 15-8 15-8 .5-1 .5-1v-2-2l-.5-2-.5-2-.5-1.5-.5-1.5v-2.5-2.5l-.5-.5-.5-.5-2-17-2-17-5.5-17-5.5-17-3.5-14.5-3.5-14.5 13 2.5 13 2.5 20.5 3 20.5 3 32.5-1 32.5-1v-28.5-28.5-26.5-26.5-26.5-26.5-16.5-16.5l-10.5 10.5-10.5 10.5-7 5.5-7 5.5-10.5 4-10.5 4-8 3-8 3-13 5.5-13 5.5-9 4.5-9 4.5-13 2-13 2-13.5 3-13.5 3-8.5-1-8.5-1h-15.5-15.5l-8 4-8 4-5.5 5-5.5 5-15 9-15 9-12.5-5.5-12.5-5.5-12-3.5-12-3.5-14.5-5-14.5-5-8.5-11.5-8.5-11.5-8-1.5-8-1.5 10-6.5 10-6.5-6.5-12-6.5-12-7.5-5.5-7.5-5.5-8 .5-8 .5-1.5 7-1.5 7-13-7-13-7-8-4.5-8-4.5-8-6.5-8-6.5-7.5-7-7.5-7-11-10-11-10-9.5-13-9.5-13-10.5-12-10.5-12-8-12-8-12-8.5-10-8.5-10-2-7.5-2-7.5v-9.5-9.5l-10.5-8.5-10.5-8.5-10-6.5-10-6.5-13.5-9-13.5-9-14.5-7.5-14.5-7.5-15.5-7.5-15.5-7.5v3 3 2.5 2.5 2 2 2.5 2.5 2 2 2 2 2.5 2.5 2 2 2.5 2.5l6.5-.5 6.5-.5 2.5 2.5 2.5 2.5 5 3 5 3-1 1-1 1-1.5-.5-1.5-.5-1-.5-1-.5-.5-1.5-.5-1.5 1.5-1 1.5-1 1.5-.5 1.5-.5 1-1.5 1-1.5h1 1l1-.5 1-.5v1 1l-.5.5-.5.5-.5 2-.5 2-1 1.5-1 1.5 11 5.5 11 5.5 5.5 4 5.5 4 4.5 6.5 4.5 6.5 5.5 12 5.5 12 2.5 8 2.5 8 4.5 6 4.5 6 5.5 8.5 5.5 8.5 2 1.5 2 1.5 10.5 2 10.5 2-1 8-1 8 7.5 3 7.5 3 5.5 9 5.5 9 5.5 5 5.5 5 10.5 8.5 10.5 8.5 7 11.5 7 11.5 5.5 6 5.5 6 7.5 6.5 7.5 6.5 7.5 7 7.5 7 12 9.5 12 9.5 6 5.5 6 5.5 10 5 10 5 8 7.5 8 7.5 2.5 7 2.5 7 7.5 4.5 7.5 4.5 9.5-3 9.5-3 9 5.5 9 5.5 10.5 4 10.5 4 2 7 2 7 9-.5 9-.5-3.5 6-3.5 6 4.5 6.5 4.5 6.5-2.5 4-2.5 4 6.5 1 6.5 1 6-1.5 6-1.5 5 5 5 5-2-1-2-1-1-1-1-1-1.5-1-1.5-1-.5-2-.5-2-2 10-2 10 2.5 6 2.5 6 6 8 6 8-5 .5-5 .5-2 3.5-2 3.5-9.5 4-9.5 4-4.5 3.5-4.5 3.5-8 6.5-8 6.5-5-3.5-5-3.5-2.5 4.5-2.5 4.5-5.5 10-5.5 10-10 6.5-10 6.5-6 4.5-6 4.5-3 1-3 1-5.5 5-5.5 5v8.5 8.5l-6-4-6-4-5.5 5-5.5 5 2 4.5 2 4.5-2.5 6-2.5 6-2.5 6.5-2.5 6.5-10 4.5-10 4.5-5 5.5-5 5.5-3.5 4.5-3.5 4.5"/></g><path d="m305 959v1h25 25v-.5-.5l7.5-10.5 7.5-10.5 5-11.5 5-11.5 9-11.5 9-11.5 9.5-14 9.5-14 9 2.5 9 2.5 5.5.5 5.5.5 1.5 8 1.5 8 9.5-10 9.5-10 9.5-7.5 9.5-7.5-2.5 9-2.5 9 10 2.5 10 2.5v14.5 14.5l-4 15-4 15-6 13.5-6 13.5h2.5 2.5 2 2 2 2l10-35.5 10-35.5-3-11.5-3-11.5 4-13 4-13-9-1.5-9-1.5 15-7.5 15-7.5 10.5 15 10.5 15 12.5 8.5 12.5 8.5 7.5-8 7.5-8 1.5-9 1.5-9-4.5-10.5-4.5-10.5-7-8.5-7-8.5-16.5-3-16.5-3-12 9.5-12 9.5-5 1-5 1 11-11.5 11-11.5-14.5 9-14.5 9-2 9-2 9-9-4.5-9-4.5-16-.5-16-.5-8 7.5-8 7.5-8 6-8 6-7 15.5-7 15.5-8.5 13-8.5 13-11.5 13.5-11.5 13.5-13.5 7-13.5 7-12 9.5-12 9.5" style="fill:#431d05;stroke:#431d05"/><path d="m355 959v1h28 28 27 27 8.5 8.5l6-13.5 6-13.5 4-15 4-15v-14.5-14.5l-10-2.5-10-2.5 2.5-9 2.5-9-9.5 7.5-9.5 7.5-9.5 10-9.5 10-1.5-8-1.5-8-5.5-.5-5.5-.5-9-2.5-9-2.5-9.5 14-9.5 14-9 11.5-9 11.5-5 11.5-5 11.5-7.5 10.5-7.5 10.5" style="fill:#191205;stroke:#191205"/><path d="m499 959v1h1.5 1.5v-.5-.5l6-22.5 6-22.5 8.5-22 8.5-22-2.5-12.5-2.5-12.5-2.5 18-2.5 18-5.5 20.5-5.5 20.5-5.5 18.5-5.5 18.5" style="fill:#736844;stroke:#736844"/><path d="m502 959v1h1.5 1.5v-.5-.5l5.5-20.5 5.5-20.5 8-18.5 8-18.5 4-8.5 4-8.5-.5 21.5-.5 21.5 11 26.5 11 26.5h1.5 1.5 2 2v-.5-.5l-5-15.5-5-15.5-3-14.5-3-14.5-4.5-15-4.5-15-6 .5-6 .5-8.5 22-8.5 22-6 22.5-6 22.5" style="fill:#b27c47;stroke:#b27c47"/><path d="m505 959v1h1.5 1.5 1.5 1.5v-.5-.5l6.5-13.5 6.5-13.5 2-9.5 2-9.5 4-9.5 4-9.5 6 33 6 33h3 3 2.5 2.5 1 1l-11-26.5-11-26.5.5-21.5.5-21.5-4 8.5-4 8.5-8 18.5-8 18.5-5.5 20.5-5.5 20.5" style="fill:#d2b569;stroke:#d2b569"/><path d="m511 959v1h1.5 1.5 2 2 2.5 2.5 2 2 2.5 2.5 2 2 2.5 2.5 2 2 1.5 1.5l-6-33-6-33-4 9.5-4 9.5-2 9.5-2 9.5-6.5 13.5-6.5 13.5" style="fill:#ebd581;stroke:#ebd581"/><path d="m568 959v1h1.5 1.5 2 2 2 2v-.5-.5l1-16.5 1-16.5-.5-14-.5-14 12-15 12-15-15 8-15 8-1 17.5-1 17.5.5 18.5.5 18.5-5.5-17-5.5-17-4-19.5-4-19.5-4.5-13-4.5-13-9.5-6-9.5-6 2.5 12.5 2.5 12.5 6-.5 6-.5 4.5 15 4.5 15 3 14.5 3 14.5 5 15.5 5 15.5" style="fill:#8f562e;stroke:#8f562e"/><path d="m579 959v1h1.5 1.5 2 2 1 1v-.5-.5l4-15 4-15-1-14.5-1-14.5 7-13.5 7-13.5-1.5-25.5-1.5-25.5-.5 1.5-.5 1.5v1 1l-.5.5-.5.5v1 1 1.5 1.5 1 1 1 1 1 1 1.5 1.5 1 1 1 1 2 2 2.5 2.5l.5 1.5.5 1.5.5 2 .5 2v2 2l-.5 1-.5 1-12 15-12 15 .5 14 .5 14-1 16.5-1 16.5" style="fill:#b27c47;stroke:#b27c47"/><path d="m588 959v1h1.5 1.5 2 2 2.5 2.5 2 2 2.5 2.5v-.5-.5l-1-15-1-15 8-9 8-9 .5 24.5.5 24.5h1 1v-.5-.5l1.5-29.5 1.5-29.5 24.5 13 24.5 13 17 3.5 17 3.5v-1-1l-.5-.5-.5-.5-21.5-6-21.5-6-18-9.5-18-9.5-1-.5-1-.5-1.5-1-1.5-1h-2-2l-.5.5-.5.5v1 1 1 1h-1-1l-4.5-12.5-4.5-12.5v-13.5-13.5l-1-18.5-1-18.5-.5 1-.5 1-.5 1-.5 1-.5 2-.5 2-.5 1-.5 1 1.5 25.5 1.5 25.5-7 13.5-7 13.5 1 14.5 1 14.5-4 15-4 15" style="fill:#d2b569;stroke:#d2b569"/><path d="m609 959v1h1.5 1.5 2 2 2.5 2.5 1.5 1.5l-.5-24.5-.5-24.5-8 9-8 9 1 15 1 15" style="fill:#ebd581;stroke:#ebd581"/><path d="m626 959v1h28 28 15 15v-11.5-11.5-2-2l-17-3.5-17-3.5.5 1.5.5 1.5-1 .5-1 .5-14-5.5-14-5.5h-3.5-3.5l-6.5-9.5-6.5-9.5-1.5 29.5-1.5 29.5" style="fill:#b27c47;stroke:#b27c47"/><path d="m677 930l2-1-.5-1.5-.5-1.5-24.5-13-24.5-13 6.5 9.5 6.5 9.5h3.5 3.5l14 5.5 14 5.5" style="fill:#736844;stroke:#736844"/><path d="m711 930l1 1v-3-3-2.5-2.5-2-2-2.5-2.5-2-2-2.5-2.5-2-2-2-2-1.5-1.5l-1-.5-1-.5-1-.5-1-.5-2-.5-2-.5-1.5-.5-1.5-.5-1-.5-1-.5-.5-.5-.5-.5-1-1-1-1h-1.5-1.5-1.5-1.5-1.5-1.5-1-1-1-1-1-1-1.5-1.5l-1.5.5-1.5.5h-1-1-1.5-1.5-2-2-1-1-1.5-1.5-2-2-1-1-1-1-1-1-1.5-1.5-1-1-1-1v1 1l-1.5-.5-1.5-.5-1-.5-1-.5h-2.5-2.5-2-2-1.5-1.5l-1-.5-1-.5-.5 1-.5 1 1.5 1 1.5 1 1.5.5 1.5.5-1 .5-1 .5v1 1l.5.5.5.5v1 1l.5 1 .5 1 .5.5.5.5.5 1 .5 1 18 9.5 18 9.5 21.5 6 21.5 6" style="fill:#fffdd0;stroke:#fffdd0"/><path d="m620 901h2v-1-1-1-1l.5-.5.5-.5h2 2l-.5-1-.5-1-.5-.5-.5-.5-1 .5-1 .5-1-1-1-1-.5-.5-.5-.5v-1.5-1.5l1.5-.5 1.5-.5 1 1 1 1 1-1 1-1-1.5-1-1.5-1 .5-1 .5-1 1 .5 1 .5 25.5-.5 25.5-.5h1.5 1.5 1 1 1 1 1 1 1.5 1.5 1.5 1.5l-6.5-30-6.5-30-.5-1-.5-1v-1-1l-.5-1-.5-1-.5-.5-.5-.5-.5-1.5-.5-1.5-.5-.5-.5-.5-12-13-12-13-10-3.5-10-3.5-11 16.5-11 16.5 1 18.5 1 18.5v13.5 13.5l4.5 12.5 4.5 12.5" style="fill:#ebd581;stroke:#ebd581"/><path d="m630 898l2 1-.5-1-.5-1-.5-.5-.5-.5-.5-1-.5-1v-1-1l-.5-.5-.5-.5v-1-1l1-.5 1-.5-1.5-.5-1.5-.5-1 1-1 1-1-1-1-1-1.5.5-1.5.5v1.5 1.5l.5.5.5.5 1 1 1 1 1-.5 1-.5.5.5.5.5.5 1 .5 1 1.5 1 1.5 1" style="fill:#ffed9d;stroke:#ffed9d"/><path d="m710 890l2 1v-2.5-2.5-2.5-2.5-2-2-2.5-2.5-2-2-1.5-1.5h-2.5-2.5-2.5-2.5v2 2 2.5 2.5l-.5 1.5-.5 1.5-.5.5-.5.5-1-1-1-1v-1-1l-.5-1-.5-1v-2-2-1-1l.5-1 .5-1-1 1.5-1 1.5v1 1 2.5 2.5l.5 1.5.5 1.5.5 2 .5 2 .5 2.5.5 2.5 1 .5 1 .5 1.5.5 1.5.5 2 .5 2 .5 1 .5 1 .5" style="fill:#736844;stroke:#736844"/><path d="m641 885l3 1v-1-1h1 1 1 1 1.5 1.5 1 1 1 1 1 1 2 2 1.5 1.5 1 1 2 2 1.5 1.5 1 1l1.5-.5 1.5-.5-25.5.5-25.5.5h1.5 1.5 2 2 2.5 2.5l1 .5 1 .5" style="fill:#ffed9d;stroke:#ffed9d"/><path d="m698 885l1 1-.5-2.5-.5-2.5-.5-2-.5-2-.5-1.5-.5-1.5v-2.5-2.5-1-1l1-1.5 1-1.5-9-20.5-9-20.5 6.5 30 6.5 30h1.5 1.5l1 1 1 1" style="fill:#d2b569;stroke:#d2b569"/><path d="m700 878l1-1 .5-1.5.5-1.5v-2.5-2.5-2-2h2.5 2.5 2.5 2.5v-2-2-2-2-2-2-2.5-2.5-2-2-2.5-2.5-2-2-2-2l-16-9-16-9-5-20.5-5-20.5-20.5-3-20.5-3-11 25-11 25 .5-1 .5-1 .5-1 .5-1 1-23 1-23 19 3.5 19 3.5 13.5 20 13.5 20 .5 1.5.5 1.5.5.5.5.5.5 1 .5 1v1 1l.5 1 .5 1 9 20.5 9 20.5-.5 1-.5 1v1 1 2 2l.5 1 .5 1v1 1l1 1 1 1" style="fill:#b27c47;stroke:#b27c47"/><path d="m627 870l18-17 4.5-11 4.5-11-6.5.5-6.5.5 2.5-15 2.5-15h-11.5-11.5l-2.5 17.5-2.5 17.5 4.5 15 4.5 15v1.5 1.5" style="fill:#ffed9d;stroke:#ffed9d"/><path d="m600 865l3 1 .5-1.5.5-1.5-1-1.5-1-1.5v-1-1l-2-.5-2-.5-1 1-1 1-.5 2-.5 2v1 1l1.5-.5 1.5-.5 1 .5 1 .5" style="fill:#431d05;stroke:#431d05"/><path d="m602 849l1 1v-2-2-1-1-1-1-1.5-1.5-1-1-1-1-1-1-1.5-1.5-1-1l.5-.5.5-.5v-1-1l.5-1.5.5-1.5.5-1 .5-1 .5-2 .5-2 11-25 11-25 20.5 3 20.5 3 5 20.5 5 20.5 16 9 16 9v-2.5-2.5-1.5-1.5h-2-2-1-1-1.5-1.5-2-2l-1.5-.5-1.5-.5 8-1.5 8-1.5v-1-1l-.5-.5-.5-.5-11.5-15.5-11.5-15.5 6-6.5 6-6.5 6 4.5 6 4.5v-1.5-1.5-2-2-2.5-2.5-2-2-2-2l-32.5 1-32.5 1-20.5-3-20.5-3-13-2.5-13-2.5 3.5 14.5 3.5 14.5 5.5 17 5.5 17 2 17 2 17" style="fill:#8f562e;stroke:#8f562e"/><path d="m696 822l3 1h2 2 1.5 1.5 1 1 2 2v-2-2l-8 1.5-8 1.5" style="fill:#643316;stroke:#643316"/><path d="m711 816l1 1v-3-3-2.5-2.5-2-2-2.5-2.5-2-2-2.5-2.5-2-2-.5-.5l-.5-.5-.5-.5-1-.5-1-.5-.5-1-.5-1-.5-.5-.5-.5-.5-.5-.5-.5-.5-.5-.5-.5-1-.5-1-.5-.5-.5-.5-.5-1-1-1-1-6 6.5-6 6.5 11.5 15.5 11.5 15.5" style="fill:#b27c47;stroke:#b27c47"/><path d="m675 812l1 1-13.5-20-13.5-20-19-3.5-19-3.5-1 23-1 23 11-16.5 11-16.5 10 3.5 10 3.5 12 13 12 13" style="fill:#d2b569;stroke:#d2b569"/><path d="m711 782l1 1v-1-1l-6-4.5-6-4.5 1 1 1 1 .5.5.5.5 1 .5 1 .5.5.5.5.5.5.5.5.5.5.5.5.5.5 1 .5 1 1 .5 1 .5" style="fill:#643316;stroke:#643316"/><path d="m446 747l-10-10 .5 2 .5 2 1.5 1 1.5 1 1 1 1 1 2 1 2 1" style="fill:#431d05;stroke:#431d05"/><path d="m438 675l30-18 5.5-5 5.5-5 8-4 8-4h15.5 15.5l8.5 1 8.5 1 13.5-3 13.5-3 13-2 13-2 9-4.5 9-4.5 13-5.5 13-5.5 8-3 8-3 10.5-4 10.5-4 7-5.5 7-5.5 10.5-10.5 10.5-10.5v-27.5-27.5-9-9l-13 3.5-13 3.5-6.5 3-6.5 3-8.5 4-8.5 4-3 6.5-3 6.5-10.5 1.5-10.5 1.5-4 5.5-4 5.5-7.5 5-7.5 5-6.5 5.5-6.5 5.5-14 4.5-14 4.5-15.5 3-15.5 3-10 4.5-10 4.5-8.5 2.5-8.5 2.5-11.5 4-11.5 4-12.5 5-12.5 5-11.5-1-11.5-1-6.5 1.5-6.5 1.5-11 9-11 9-5.5-9.5-5.5-9.5-4-13.5-4-13.5-10.5-2.5-10.5-2.5-10-11-10-11-14-8.5-14-8.5-12.5-12-12.5-12-16-8.5-16-8.5 3.5-6.5 3.5-6.5 15-.5 15-.5 9.5 2 9.5 2 16-2 16-2 .5-8 .5-8-11.5-9-11.5-9-12.5-6.5-12.5-6.5-8-3.5-8-3.5-14.5-6-14.5-6-16.5-5-16.5-5-10-6-10-6-14.5-7-14.5-7-15.5-5-15.5-5-11.5-10.5-11.5-10.5-10-13.5-10-13.5-3.5 5-3.5 5-12-2.5-12-2.5-12.5-9.5-12.5-9.5-15-9-15-9v3 3 2 2 2.5 2.5 2 2 1.5 1.5l15.5 7.5 15.5 7.5 14.5 7.5 14.5 7.5 13.5 9 13.5 9 10 6.5 10 6.5 10.5 8.5 10.5 8.5v9.5 9.5l2 7.5 2 7.5 8.5 10 8.5 10 8 12 8 12 10.5 12 10.5 12 9.5 13 9.5 13 11 10 11 10 7.5 7 7.5 7 8 6.5 8 6.5 8 4.5 8 4.5 13 7 13 7 1.5-7 1.5-7 8-.5 8-.5 7.5 5.5 7.5 5.5 6.5 12 6.5 12-10 6.5-10 6.5 8 1.5 8 1.5 8.5 11.5 8.5 11.5 14.5 5 14.5 5 12 3.5 12 3.5 12.5 5.5 12.5 5.5" style="fill:#8f562e;stroke:#8f562e"/><path d="m391 627l22-18 6.5-1.5 6.5-1.5 11.5 1 11.5 1 12.5-5 12.5-5 11.5-4 11.5-4 8.5-2.5 8.5-2.5 10-4.5 10-4.5 15.5-3 15.5-3 14-4.5 14-4.5 6.5-5.5 6.5-5.5 7.5-5 7.5-5 4-5.5 4-5.5 10.5-1.5 10.5-1.5 3-6.5 3-6.5 8.5-4 8.5-4 6.5-3 6.5-3 13-3.5 13-3.5v-27-27-.5-.5l-25 7-25 7h-.5-.5l-2.5.5-2.5.5-1.5.5-1.5.5-1 1.5-1 1.5-1.5-.5-1.5-.5-1 1.5-1 1.5-1.5-.5-1.5-.5h-.5-.5l-1 .5-1 .5-1.5 1-1.5 1-1.5.5-1.5.5-1 1.5-1 1.5-1.5.5-1.5.5-1.5 1-1.5 1-1.5.5-1.5.5-1.5 1-1.5 1h-1-1-2-2l-17 8-17 8-16 9-16 9-25 7.5-25 7.5-2 .5-2 .5-1.5-.5-1.5-.5h-1-1-1.5-1.5-1.5-1.5l-15.5-11-15.5-11-13.5-11-13.5-11-12.5-13-12.5-13-12-21-12-21-1 8-1 8 7 14.5 7 14.5 11 23 11 23-12.5-3.5-12.5-3.5-3-8.5-3-8.5-9-5-9-5-10.5-12-10.5-12 2.5-12.5 2.5-12.5-19.5-20.5-19.5-20.5 1 10.5 1 10.5-7 8.5-7 8.5-17.5-9-17.5-9-15.5-6-15.5-6-16.5-9-16.5-9-15-10-15-10-13-8.5-13-8.5-16-8.5-16-8.5-16-8.5-16-8.5-16-6-16-6-21.5-10-21.5-10v2.5 2.5 2 2 2.5 2.5 2 2 2.5 2.5 2 2 1 1l15 9 15 9 12.5 9.5 12.5 9.5 12 2.5 12 2.5 3.5-5 3.5-5 10 13.5 10 13.5 11.5 10.5 11.5 10.5 15.5 5 15.5 5 14.5 7 14.5 7 10 6 10 6 16.5 5 16.5 5 14.5 6 14.5 6 8 3.5 8 3.5 12.5 6.5 12.5 6.5 11.5 9 11.5 9-.5 8-.5 8-16 2-16 2-9.5-2-9.5-2-15 .5-15 .5-3.5 6.5-3.5 6.5 16 8.5 16 8.5 12.5 12 12.5 12 14 8.5 14 8.5 10 11 10 11 10.5 2.5 10.5 2.5 5.5-5 5.5-5-2.5 9-2.5 9-.5-1.5-.5-1.5.5-1.5.5-1.5v-1.5-1.5l-1-1-1-1-2 1.5-2 1.5 4 13.5 4 13.5 5.5 9.5 5.5 9.5" style="fill:#b27c47;stroke:#b27c47"/><path d="m378 589l5-18-5.5 5-5.5 5 2-1.5 2-1.5 1 1 1 1v1.5 1.5l-.5 1.5-.5 1.5.5 1.5.5 1.5" style="fill:#8f562e;stroke:#8f562e"/><path d="m640 570l23-10-6.5-.5-6.5-.5-7.5 5-7.5 5 1.5.5 1.5.5h1 1" style="fill:#d2b569;stroke:#d2b569"/><path d="m631 568l3 1h.5.5l7.5-5 7.5-5-12.5 4-12.5 4 3 .5 3 .5" style="fill:#b27c47;stroke:#b27c47"/><path d="m473 548l11-18-17-7-17-7-13.5-4-13.5-4-10-1.5-10-1.5h-10.5-10.5l-15 5-15 5 12 9.5 12 9.5 16 .5 16 .5 9.5.5 9.5.5 7.5 2 7.5 2h7.5 7.5l8 4 8 4" style="fill:#d2b569;stroke:#d2b569"/><path d="m236 519l-13-26-11-1-11-1 11.5 9 11.5 9 6 5 6 5" style="fill:#b27c47;stroke:#b27c47"/><path d="m483 519h3 1.5 1.5 1 1l1.5.5 1.5.5 2-.5 2-.5v-.5-.5l.5-1 .5-1 2 .5 2 .5 1.5-.5 1.5-.5-2-1-2-1-1.5-.5-1.5-.5-17-9-17-9-8-16.5-8-16.5-10-16.5-10-16.5-35-11-35-11h-.5-.5l-1 .5-1 .5-1.5.5-1.5.5-2 .5-2 .5h-2-2l-1.5-.5-1.5-.5-7-10.5-7-10.5-2.5-10-2.5-10 4.5-20.5 4.5-20.5 1.5-1.5 1.5-1.5 1.5-1 1.5-1v-.5-.5l6-7 6-7-10-11.5-10-11.5-5-14-5-14-9.5-3-9.5-3-4-15-4-15-1-.5-1-.5h-2.5-2.5l2.5 24 2.5 24 1 .5 1 .5h2 2l1 .5 1 .5 8 7 8 7 8.5 17.5 8.5 17.5-13 28-13 28 19.5 20.5 19.5 20.5 1-.5 1-.5 1.5-1 1.5-1 1.5-.5 1.5-.5 1.5-.5 1.5-.5h1 1l1-.5 1-.5h2 2l2-.5 2-.5 1.5-.5 1.5-.5h2.5 2.5l12 21 12 21 12.5 13 12.5 13 13.5 11 13.5 11 15.5 11 15.5 11" style="fill:#736844;stroke:#736844"/><path d="m498 518v1l25-7.5 25-7.5 16-9 16-9-1.5-.5-1.5-.5-1 .5-1 .5v-1-1l-36.5 15-36.5 15 2 1 2 1-1.5.5-1.5.5-2-.5-2-.5-.5 1-.5 1" style="fill:#8f562e;stroke:#8f562e"/><path d="m499 513l3 1 36.5-15 36.5-15 19-10.5 19-10.5h2 2l1.5.5 1.5.5.5-.5.5-.5 1-.5 1-.5 1.5-.5 1.5-.5.5-1.5.5-1.5h1 1l.5-1 .5-1 1-1 1-1 1-.5 1-.5 18.5-6.5 18.5-6.5v-1.5-1.5h1 1l.5.5.5.5 1-.5 1-.5 1-1 1-1 .5.5.5.5h1.5 1.5l1.5-.5 1.5-.5 1.5-.5 1.5-.5 1.5-1 1.5-1h1.5 1.5l1.5-.5 1.5-.5 1-1 1-1 1.5-1 1.5-1 2 .5 2 .5 1.5-.5 1.5-.5 1.5.5 1.5.5v-2.5-2.5-2-2-2-2-2.5-2.5-2-2-2.5-2.5-2-2-.5-.5l-20 6-20 6-23 14-23 14-1 .5-1 .5-.5.5-.5.5-1.5-.5-1.5-.5-1-27-1-27-.5 22-.5 22v15.5 15.5l-11 7.5-11 7.5-19 7-19 7-28 10.5-28 10.5-16.5-9.5-16.5-9.5-8.5-17-8.5-17-16-22.5-16-22.5-30-2-30-2v.5.5l35 11 35 11 10 16.5 10 16.5 8 16.5 8 16.5 17 9 17 9" style="fill:#643316;stroke:#643316"/><path d="m501 508l56-21 19-7 19-7 11-7.5 11-7.5v-15.5-15.5l.5-22 .5-22 1-.5 1-.5 1.5-.5 1.5-.5 1.5-1 1.5-1 1.5-.5 1.5-.5-12-11-12-11-2.5 3-2.5 3 .5 12 .5 12 5.5 10.5 5.5 10.5-3.5 11-3.5 11-3 10.5-3 10.5-11 9.5-11 9.5-7 1-7 1 1.5-16 1.5-16-6.5 15-6.5 15-9.5 2.5-9.5 2.5-8.5 13.5-8.5 13.5-20-5-20-5-10.5-15.5-10.5-15.5-18.5-25-18.5-25 16 22.5 16 22.5 8.5 17 8.5 17 16.5 9.5 16.5 9.5" style="fill:#431d05;stroke:#431d05"/><path d="m517 501l17-27 9.5-2.5 9.5-2.5 6.5-15 6.5-15-1.5 16-1.5 16 7-1 7-1 11-9.5 11-9.5 3-10.5 3-10.5 3.5-11 3.5-11-5.5-10.5-5.5-10.5-.5-12-.5-12 2.5-3 2.5-3 12 11 12 11h.5.5l20-6 20-6 12.5-14 12.5-14-5.5-14-5.5-14-8.5-6.5-8.5-6.5-9-1.5-9-1.5-14-.5-14-.5-15.5.5-15.5.5 1.5-1 1.5-1-2.5-14.5-2.5-14.5-8 12-8 12-8.5 15-8.5 15-10 8.5-10 8.5-18.5-4.5-18.5-4.5-16-5.5-16-5.5-17-9.5-17-9.5-11-15.5-11-15.5-12.5-11.5-12.5-11.5-2.5-15-2.5-15-4.5-20-4.5-20-4-20-4-20 2.5-17 2.5-17-1-9.5-1-9.5v-2-2l-5.5-4-5.5-4-4 3.5-4 3.5-5 16.5-5 16.5-1.5 16.5-1.5 16.5 4.5 10 4.5 10-5.5 15-5.5 15 2 13 2 13 1.5 8 1.5 8-2 11.5-2 11.5 5.5 10.5 5.5 10.5 11 12.5 11 12.5-5 8.5-5 8.5-12 9.5-12 9.5 1.5 5 1.5 5-3 7-3 7 6 5.5 6 5.5h.5.5l-1 7-1 7 8.5 10.5 8.5 10.5 30 2 30 2 18.5 25 18.5 25 10.5 15.5 10.5 15.5 20 5 20 5" style="fill:#191205;stroke:#191205"/><path d="m410 498l-22-46-7-14.5-7-14.5 1-8 1-8h-2.5-2.5l-1.5.5-1.5.5-2 .5-2 .5h-2-2l-1 .5-1 .5h-1-1l-1.5.5-1.5.5-1.5.5-1.5.5-1.5 1-1.5 1-1 .5-1 .5-2.5 12.5-2.5 12.5 10.5 12 10.5 12 9 5 9 5 3 8.5 3 8.5 12.5 3.5 12.5 3.5" style="fill:#d2b569;stroke:#d2b569"/><path d="m575 486l2-1 1.5.5 1.5.5 17-8 17-8-1.5-1-1.5-1h1 1v-2.5-2.5l-19 10.5-19 10.5v1 1" style="fill:#736844;stroke:#736844"/><path d="m618 470h2l1.5-1 1.5-1 1.5-.5 1.5-.5 1.5-1 1.5-1 1.5-.5 1.5-.5 1-1.5 1-1.5 1.5-.5 1.5-.5 1.5-1 1.5-1 1-.5 1-.5-2-.5-2-.5-1.5.5-1.5.5.5-1 .5-1-1-1-1-1-1 .5-1 .5-1 1-1 1-.5 1-.5 1h-1-1l-.5 1.5-.5 1.5-1.5.5-1.5.5-1 .5-1 .5-.5.5-.5.5-1.5-.5-1.5-.5h-2-2v2.5 2.5h-1-1l1.5 1 1.5 1h2 2" style="fill:#8f562e;stroke:#8f562e"/><path d="m643 457l3 1 1-1.5 1-1.5 1.5.5 1.5.5 1-1.5 1-1.5 1.5-.5 1.5-.5 2.5-.5 2.5-.5.5-1 .5-1v-1-1l.5-.5.5-.5 1-.5 1-.5h2 2l.5-.5.5-.5 1-.5 1-.5-.5-1.5-.5-1.5-18.5 6.5-18.5 6.5 1 1 1 1-.5 1-.5 1 1.5-.5 1.5-.5 2 .5 2 .5h.5.5" style="fill:#736844;stroke:#736844"/><path d="m662 451l50-14v-1.5-1.5-2-2-1-1l-1.5-.5-1.5-.5-1.5.5-1.5.5-1 .5-1 .5-.5.5-.5.5h1.5 1.5l1.5-.5 1.5-.5-.5 1-.5 1-1.5.5-1.5.5-1.5 1-1.5 1-.5.5-.5.5h-1-1-1-1l-1 .5-1 .5-2-.5-2-.5v-.5-.5h-1.5-1.5l-1.5.5-1.5.5-1.5.5-1.5.5h-1.5-1.5l-.5-.5-.5-.5-1 1-1 1-1 .5-1 .5-.5-.5-.5-.5h-1-1v1.5 1.5l.5 1.5.5 1.5-1 .5-1 .5-.5.5-.5.5h-2-2l-1 .5-1 .5-.5.5-.5.5v1 1l-.5 1-.5 1h.5.5" style="fill:#8f562e;stroke:#8f562e"/><path d="m620 437l3 1 .5-.5.5-.5 1-.5 1-.5v-.5-.5l-1.5-.5-1.5-.5 1-26 1-26 27-7 27-7 16.5 6.5 16.5 6.5v-2.5-2.5-2-2l-1-1-1-1-.5 2-.5 2 .5 1.5.5 1.5h-1-1l-13.5-7-13.5-7-19.5 9.5-19.5 9.5h-1.5-1.5l-1.5-1-1.5-1-1-1-1-1h-2-2-.5-.5l-1.5.5-1.5.5-1.5 1-1.5 1-1.5.5-1.5.5-1 .5-1 .5 1 27 1 27" style="fill:#736844;stroke:#736844"/><path d="m534 435l36-17 9-8 9-8-6.5-4-6.5-4-7.5-4-7.5-4 1-15.5 1-15.5-7.5-3.5-7.5-3.5-12 14.5-12 14.5-13 12.5-13 12.5-3 9-3 9 17 1.5 17 1.5 13-7.5 13-7.5-11 13-11 13 2.5.5 2.5.5" style="fill:#431d05;stroke:#431d05"/><path d="m626 435v1l23-14 23-14 20-6 20-6v-.5-.5l-20 5-20 5-18.5 12-18.5 12-1.5 1.5-1.5 1.5-1.5 1-1.5 1-1.5.5-1.5.5" style="fill:#8f562e;stroke:#8f562e"/><path d="m691 435l4 1 1-.5 1-.5h1 1 1 1l.5-.5.5-.5 1.5-1 1.5-1 1.5-.5 1.5-.5.5-1 .5-1-1.5.5-1.5.5h-1.5-1.5l.5-.5.5-.5 1-.5 1-.5-2-.5-2-.5-1.5 1-1.5 1-1 1-1 1-1.5.5-1.5.5h-1.5-1.5l-1.5 1-1.5 1h1.5 1.5v.5.5" style="fill:#736844;stroke:#736844"/><path d="m623 434l3 1 1.5-.5 1.5-.5 1.5-1 1.5-1 1.5-1.5 1.5-1.5-1 .5-1 .5-1.5.5-1.5.5h-1-1l-1.5-24.5-1.5-24.5-1 26-1 26" style="fill:#b27c47;stroke:#b27c47"/><g style="fill:#d2b569;stroke:#d2b569"><path d="m628 431h2l1.5-.5 1.5-.5 1-.5 1-.5 18.5-12 18.5-12 20-5 20-5v-3.5-3.5-2-2-.5-.5l-1.5.5-1.5.5-2-.5-2-.5-1.5-.5-1.5-.5-1.5-.5-1.5-.5-1-1-1-1-1.5-1-1.5-1-.5-1.5-.5-1.5v-1.5-1.5l-1.5-.5-1.5-.5-2-.5-2-.5h-2-2l-1.5-.5-1.5-.5-27 7-27 7 1.5 24.5 1.5 24.5"/><path d="m294 412l14-17-1-10.5-1-10.5 13-28 13-28-1.5.5-1.5.5-1.5-.5-1.5-.5-16-9-16-9 2.5-15.5 2.5-15.5-1-.5-1-.5h-2-2l-1-.5-1-.5-1-.5-1-.5-.5-20-.5-20-3-5.5-3-5.5 2.5-11 2.5-11-9.5-4-9.5-4 6.5-14.5 6.5-14.5-5-2.5-5-2.5 11.5-14 11.5-14 8-16.5 8-16.5v-1.5-1.5l.5-1 .5-1 1-1 1-1 .5-1.5.5-1.5v-1-1l1-.5 1-.5 1-1 1-1 .5-.5.5-.5.5-1 .5-1 14-14 14-14 18.5-8 18.5-8 21-5 21-5 19.5-4 19.5-4 17.5-1 17.5-1 9.5 14 9.5 14 13 14 13 14-1 6.5-1 6.5-15-11.5-15-11.5.5 15 .5 15 6 17 6 17 15 2.5 15 2.5v-8.5-8.5l4-3.5 4-3.5 3.5 14.5 3.5 14.5 11 15.5 11 15.5 6 17 6 17-1 1.5-1 1.5 6.5 14.5 6.5 14.5 11 16 11 16 33 16 33 16 .5 1.5.5 1.5v1 1l.5.5.5.5v1 1 1.5 1.5l.5.5.5.5.5.5.5.5.5-.5.5-.5 1-.5 1-.5v-2-2-1-1l-.5-.5-.5-.5-11-10-11-10-14.5-6-14.5-6-17.5-9-17.5-9 1.5-17.5 1.5-17.5-5-10.5-5-10.5-7.5-14-7.5-14-8-11.5-8-11.5 1.5-5.5 1.5-5.5-7-15.5-7-15.5-9-14.5-9-14.5-12.5-13.5-12.5-13.5-12-19-12-19h-28-28-20-20l-7.5 6.5-7.5 6.5-10 4-10 4-2.5 3-2.5 3-15 7.5-15 7.5-9 7-9 7-8 15.5-8 15.5-9 8.5-9 8.5-7.5 13.5-7.5 13.5-4 19.5-4 19.5-1 12.5-1 12.5-2.5 14-2.5 14 12 5 12 5 2.5 18 2.5 18 3 11.5 3 11.5-1 5-1 5 15.5 9 15.5 9-15 33-15 33-15-7.5-15-7.5-14.5-6-14.5-6-14-8.5-14-8.5-11.5-8-11.5-8-18.5-6.5-18.5-6.5-15-7.5-15-7.5-15-8.5-15-8.5-15.5-8.5-15.5-8.5-12-8.5-12-8.5-16.5-15.5-16.5-15.5v3 3 2.5 2.5 2 2 2.5 2.5 2 2 2.5 2.5 2 2 2 2 2.5 2.5 1.5 1.5l21.5 10 21.5 10 16 6 16 6 16 8.5 16 8.5 16 8.5 16 8.5 13 8.5 13 8.5 15 10 15 10 16.5 9 16.5 9 15.5 6 15.5 6 17.5 9 17.5 9"/></g><path d="m342 409l3 1h2 2l2-.5 2-.5 1.5-.5 1.5-.5 1-.5 1-.5-2.5.5-2.5.5-1.5-.5-1.5-.5-4-11-4-11 .5-1 .5-1 .5-.5.5-.5 1-.5 1-.5.5-.5.5-.5h-1-1l-1 .5-1 .5-1.5.5-1.5.5h-1-1l-1 .5-1 .5-1 1-1 1-1.5-.5-1.5-.5.5-1.5.5-1.5.5-.5.5-.5v-1-1l1-.5 1-.5h1 1l.5-.5.5-.5.5-.5.5-.5 1-.5 1-.5 1.5-.5 1.5-.5v-1-1h-.5-.5l-1.5.5-1.5.5-1.5.5-1.5.5-2 .5-2 .5-1.5-.5-1.5-.5 3.5-13.5 3.5-13.5-1 .5-1 .5-1 .5-1 .5-.5.5-.5.5h-1-1l-.5.5-.5.5-1.5-.5-1.5-.5 3-11 3-11-4.5 20.5-4.5 20.5 2.5 10 2.5 10 7 10.5 7 10.5" style="fill:#643316;stroke:#643316"/><g style="fill:#431d05;stroke:#431d05"><path d="m350 407l3 1 2.5-.5 2.5-.5h.5.5v-.5-.5l-8.5-10.5-8.5-10.5 4 11 4 11"/><path d="m479 401l3-24-6 3-6 3 4.5 9 4.5 9"/></g><g style="fill:#643316;stroke:#643316"><path d="m527 391h2v-1-1l.5-2 .5-2v-1-1-2.5-2.5l-1.5-.5-1.5-.5-1 1.5-1 1.5-.5 1.5-.5 1.5.5 1.5.5 1.5.5 2 .5 2 .5.5.5.5"/><path d="m541 387h2 1 1l1-1.5 1-1.5-.5-1.5-.5-1.5-1.5-1-1.5-1-1-1-1-1-2 .5-2 .5v2 2 1 1l1 1.5 1 1.5h1 1"/></g><path d="m295 386l30-66-15.5-9-15.5-9 1-5 1-5-3-11.5-3-11.5-2.5-18-2.5-18-12-5-12-5 2.5-14 2.5-14 1-12.5 1-12.5 4-19.5 4-19.5 7.5-13.5 7.5-13.5 9-8.5 9-8.5 8-15.5 8-15.5 9-7 9-7 15-7.5 15-7.5 2.5-3 2.5-3 10-4 10-4 7.5-6.5 7.5-6.5h-27.5-27.5-26.5-26.5-26.5-26.5-26.5-26.5-8.5-8.5l6 9.5 6 9.5 8.5 11 8.5 11 10 4.5 10 4.5 7.5 13 7.5 13 9.5 11.5 9.5 11.5-6 9.5-6 9.5-4 14.5-4 14.5-6.5 6.5-6.5 6.5-6 10.5-6 10.5-5-2.5-5-2.5-6.5 4.5-6.5 4.5-20.5-2-20.5-2-11.5 7-11.5 7 8 10.5 8 10.5-2 8-2 8h10.5 10.5l-5 3.5-5 3.5 10.5-2.5 10.5-2.5v6.5 6.5l13.5 2 13.5 2 14 .5 14 .5 6 9 6 9 7-.5 7-.5 5 11.5 5 11.5 8 10.5 8 10.5 5.5 4.5 5.5 4.5 9-.5 9-.5-8 8-8 8-20.5-2.5-20.5-2.5-15.5-6-15.5-6 1-6 1-6-7-7.5-7-7.5-8-9.5-8-9.5-9-1-9-1-9.5-8-9.5-8-12-6.5-12-6.5-6.5-2.5-6.5-2.5-3-5.5-3-5.5-12-5.5-12-5.5-17-5.5-17-5.5-29.5-11-29.5-11v2.5 2.5 2.5 2.5 2 2 2 2 2.5 2.5 2 2 2.5 2.5.5.5l16.5 15.5 16.5 15.5 12 8.5 12 8.5 15.5 8.5 15.5 8.5 15 8.5 15 8.5 15 7.5 15 7.5 18.5 6.5 18.5 6.5 11.5 8 11.5 8 14 8.5 14 8.5 14.5 6 14.5 6 15 7.5 15 7.5" style="fill:#ebd581;stroke:#ebd581"/><path d="m331 384l3 1 1-1 1-1 1-.5 1-.5h1 1l1.5-.5 1.5-.5 1-.5 1-.5h1 1l-.5.5-.5.5-1 .5-1 .5-.5.5-.5.5-.5 1-.5 1 1-7 1-7v1 1l-1.5.5-1.5.5-1 .5-1 .5-.5.5-.5.5-.5.5-.5.5h-1-1l-1 .5-1 .5v1 1l-.5.5-.5.5-.5 1.5-.5 1.5" style="fill:#431d05;stroke:#431d05"/><path d="m705 383l4 1 1.5-.5 1.5-.5v-1-1l-16.5-6.5-16.5-6.5 1.5.5 1.5.5h2 2l2 .5 2 .5 1.5.5 1.5.5v1.5 1.5l.5 1.5.5 1.5 1.5 1 1.5 1 1 1 1 1 1.5.5 1.5.5 1.5.5 1.5.5" style="fill:#b27c47;stroke:#b27c47"/><path d="m642 382l39-19 10.5-2 10.5-2 1.5-17 1.5-17-7-10-7-10-11.5-9-11.5-9-9.5-5-9.5-5-9 7.5-9 7.5-20.5 1-20.5 1 15.5-.5 15.5-.5 14 .5 14 .5 9 1.5 9 1.5 8.5 6.5 8.5 6.5 5.5 14 5.5 14-12.5 14-12.5 14-20 6-20 6h2 2l1 1 1 1 1.5 1 1.5 1h1.5 1.5" style="fill:#431d05;stroke:#431d05"/><path d="m708 377h2l-.5-1.5-.5-1.5.5-2 .5-2 1 1 1 1v-27-27-4.5-4.5l-1.5.5-1.5.5v1 1l-1.5-.5-1.5-.5-13-11-13-11-13.5-11-13.5-11-14.5.5-14.5.5-9-9.5-9-9.5-9-12.5-9-12.5-7 3-7 3-4 20.5-4 20.5-9 20-9 20-.5 2-.5 2-.5.5-.5.5-.5.5-.5.5-.5-.5-.5-.5-1 .5-1 .5v1 1l-.5.5-.5.5h-1-1-1-1l-1-.5-1-.5h-1-1l.5-1 .5-1 1-1 1-1-3.5-15.5-3.5-15.5-4.5-5-4.5-5 11.5-9.5 11.5-9.5-5.5-3-5.5-3 .5-1 .5-1h1.5 1.5l1-1.5 1-1.5v-1-1l-1-1-1-1-1-1.5-1-1.5-.5-1.5-.5-1.5-12-6-12-6-7 13-7 13-19 12-19 12-16-8-16-8-12-12.5-12-12.5-7-17.5-7-17.5-3-20-3-20-3-20.5-3-20.5 12-14.5 12-14.5 18-7.5 18-7.5 26-8.5 26-8.5.5-1 .5-1 .5-.5.5-.5 1-.5 1-.5.5-.5.5-.5-.5-.5-.5-.5-.5-.5-.5-.5h-1.5-1.5v-1-1-1-1l-.5-1-.5-1-.5-1.5-.5-1.5h1 1 1.5 1.5l-1.5-1-1.5-1-1.5.5-1.5.5-1.5-1-1.5-1-.5 1.5-.5 1.5h-1-1l-29.5-5-29.5-5-.5 2.5-.5 2.5v1 1l-.5 2-.5 2h-1-1-2.5-2.5l-1 1-1 1-1.5-.5-1.5-.5h-1-1l-11.5 4.5-11.5 4.5-1 .5-1 .5-.5.5-.5.5-.5.5-.5.5h-1-1-1-1l-1-.5-1-.5h-1-1l-.5-.5-.5-.5h-1.5-1.5-1-1v-1-1l-.5-.5-.5-.5.5-1 .5-1 .5-1.5.5-1.5-1-.5-1-.5-1 1-1 1-1.5.5-1.5.5-1.5.5-1.5.5-2 .5-2 .5-1 1-1 1v2.5 2.5l-.5 1.5-.5 1.5-.5 1-.5 1-1 1.5-1 1.5 14-2 14-2 17-2 17-2 13-5.5 13-5.5 12.5-4 12.5-4-1 10.5-1 10.5-8 5-8 5-18 5.5-18 5.5-12.5 12-12.5 12-2.5 17.5-2.5 17.5 2 19.5 2 19.5 4.5 19 4.5 19 10 17 10 17 10 14.5 10 14.5 11.5 13 11.5 13 15-.5 15-.5 13.5 10.5 13.5 10.5 16 3.5 16 3.5 13-13.5 13-13.5 5-20 5-20 4.5-8 4.5-8 4.5-7 4.5-7 3.5 13.5 3.5 13.5-2.5 17-2.5 17-1.5 1-1.5 1 20.5-1 20.5-1 9-7.5 9-7.5 9.5 5 9.5 5 11.5 9 11.5 9 7 10 7 10-1.5 17-1.5 17-10.5 2-10.5 2 13.5 7 13.5 7" style="fill:#643316;stroke:#643316"/><g style="fill:#431d05;stroke:#431d05"><path d="m330 373l3 1 2-.5 2-.5 1.5-.5 1.5-.5 1.5-.5 1.5-.5-6-5.5-6-5.5 3-7 3-7-3.5 13.5-3.5 13.5"/><path d="m23 365l3 1 1-1 1-1 1-1.5 1-1.5.5-2 .5-2 .5-.5.5-.5v-1-1l-1 .5-1 .5h-1-1l-1 1.5-1 1.5-1.5.5-1.5.5-1.5 1-1.5 1 .5 1.5.5 1.5 1 .5 1 .5"/><path d="m463 353l-7-14-12.5-8.5-12.5-8.5-6.5 4-6.5 4v5.5 5.5l17.5 5 17.5 5 5 1 5 1"/><path d="m326 349l3 1 .5-.5.5-.5h1 1l.5-.5.5-.5 1-.5 1-.5 1-.5 1-.5-1.5-5-1.5-5 12-9.5 12-9.5 5-8.5 5-8.5-11-12.5-11-12.5-5.5-10.5-5.5-10.5 2-11.5 2-11.5-1.5-8-1.5-8-2-13-2-13 5.5-15 5.5-15-4.5-10-4.5-10 1.5-16.5 1.5-16.5 5-16.5 5-16.5 4-3.5 4-3.5 5.5 4 5.5 4v2 2l1 9.5 1 9.5-2.5 17-2.5 17 4 20 4 20 4.5 20 4.5 20 2.5 15 2.5 15 12.5 11.5 12.5 11.5 11 15.5 11 15.5 17 9.5 17 9.5 16 5.5 16 5.5 18.5 4.5 18.5 4.5 10-8.5 10-8.5 8.5-15 8.5-15 8-12 8-12 2.5 14.5 2.5 14.5 2.5-17 2.5-17-3.5-13.5-3.5-13.5-4.5 7-4.5 7-4.5 8-4.5 8-5 20-5 20-13 13.5-13 13.5-16-3.5-16-3.5-13.5-10.5-13.5-10.5-15 .5-15 .5-11.5-13-11.5-13-10-14.5-10-14.5-10-17-10-17-4.5-19-4.5-19-2-19.5-2-19.5 2.5-17.5 2.5-17.5 12.5-12 12.5-12 18-5.5 18-5.5 8-5 8-5 1-10.5 1-10.5-12.5 4-12.5 4-13 5.5-13 5.5-17 2-17 2-14 2-14 2-1 .5-1 .5-1.5.5-1.5.5-4.5 13.5-4.5 13.5-3.5 12-3.5 12-10 12-10 12 6 1.5 6 1.5-2 11.5-2 11.5-2 9-2 9 7-1.5 7-1.5 1 17.5 1 17.5-9.5 12.5-9.5 12.5 9.5 6 9.5 6 9 13.5 9 13.5-1 22-1 22-1.5 1-1.5 1-1.5 1.5-1.5 1.5-3 11-3 11"/></g><path d="m297 337l16-16-9 .5-9 .5-5.5-4.5-5.5-4.5-8-10.5-8-10.5-5-11.5-5-11.5-7 .5-7 .5-6-9-6-9-14-.5-14-.5-13.5-2-13.5-2v-6.5-6.5l-10.5 2.5-10.5 2.5 5-3.5 5-3.5h-10.5-10.5l2-8 2-8-8-10.5-8-10.5 11.5-7 11.5-7 20.5 2 20.5 2 6.5-4.5 6.5-4.5 5 2.5 5 2.5 6-10.5 6-10.5 6.5-6.5 6.5-6.5 4-14.5 4-14.5 6-9.5 6-9.5-9.5-11.5-9.5-11.5-7.5-13-7.5-13-10-4.5-10-4.5-8.5-11-8.5-11-6-9.5-6-9.5h-28-28-26.5-26.5-26.5-26.5-10-10v16.5 16.5 1.5 1.5l1 2 1 2 1 1.5 1 1.5 1 1 1 1-.5 1.5-.5 1.5-1 .5-1 .5.5 1.5.5 1.5h-2-2v2.5 2.5.5.5 16.5 16.5 27 27 19 19l29.5 11 29.5 11 17 5.5 17 5.5 12 5.5 12 5.5 3 5.5 3 5.5 6.5 2.5 6.5 2.5 12 6.5 12 6.5 9.5 8 9.5 8 9 1 9 1 8 9.5 8 9.5 7 7.5 7 7.5-1 6-1 6 15.5 6 15.5 6 20.5 2.5 20.5 2.5" style="fill:#ffed9d;stroke:#ffed9d"/><path d="m338 321v1l1-22 1-22-9-13.5-9-13.5-9.5-6-9.5-6 9.5-12.5 9.5-12.5-1-17.5-1-17.5-7 1.5-7 1.5 2-9 2-9 2-11.5 2-11.5-6-1.5-6-1.5 10-12 10-12 3.5-12 3.5-12 4.5-13.5 4.5-13.5-12.5 13-12.5 13-10.5 21.5-10.5 21.5 2-.5 2-.5.5-.5.5-.5 1-.5 1-.5 1.5.5 1.5.5-.5.5-.5.5-.5 1-.5 1-1 1-1 1v1 1 .5.5l-.5 1-.5 1v1.5 1.5.5.5 1 1 1 1 1 1 1 1 1.5 1.5l-.5.5-.5.5v1.5 1.5l4.5 28.5 4.5 28.5v-2-2l-2 1-2 1-1 1-1 1-1.5 1-1.5 1-1.5 1-1.5 1 4 15 4 15 9.5 3 9.5 3 5 14 5 14 10 11.5 10 11.5-6 7-6 7" style="fill:#643316;stroke:#643316"/><path d="m537 320h2 1 1l.5-.5.5-.5v-1-1l1-.5 1-.5.5.5.5.5.5-.5.5-.5.5-.5.5-.5.5-2 .5-2h-2.5-2.5l-.5 1.5-.5 1.5-.5.5-.5.5h-2.5-2.5l-1 1-1 1-.5 1-.5 1h1 1l1 .5 1 .5" style="fill:#736844;stroke:#736844"/><path d="m326 318l3 1 1.5-.5 1.5-.5-8.5-17.5-8.5-17.5-8-7-8-7-2.5 15.5-2.5 15.5 16 9 16 9" style="fill:#b27c47;stroke:#b27c47"/><path d="m541 315l1-1 .5-1.5.5-1.5h2.5 2.5l1.5-11 1.5-11 5-12.5 5-12.5-8.5-11.5-8.5-11.5h-1-1v1 1l1 1.5 1 1.5 1.5.5 1.5.5.5 2 .5 2-1 1-1 1h-1-1l-1-1-1-1v-1-1h-1-1-1-1v.5.5h1 1v1 1h-1-1l-1-.5-1-.5-1 1-1 1h-1-1l-.5-.5-.5-.5.5-.5.5-.5 1 .5 1 .5.5-.5.5-.5-.5-.5-.5-.5-1-.5-1-.5 5.5 3 5.5 3-11.5 9.5-11.5 9.5 4.5 5 4.5 5 3.5 15.5 3.5 15.5h2.5 2.5" style="fill:#8f562e;stroke:#8f562e"/><path d="m706 311l3 1v-1-1l1.5-.5 1.5-.5v-1.5-1.5-2-2-1-1l-1 .5-1 .5-.5.5-.5.5-.5-.5-.5-.5-.5-.5-.5-.5v-1.5-1.5-1-1l-.5-.5-.5-.5v-1-1l-.5-1.5-.5-1.5v-.5-.5l-33-15.5-33-15.5-1-.5-1-.5-14.5-11.5-14.5-11.5-2-18.5-2-18.5 1-1.5 1-1.5-9-18.5-9-18.5-12.5-8-12.5-8 5.5 20 5.5 20-8 37-8 37-.5-2-.5-2-.5-.5-.5-.5h-1-1l-.5-.5-.5-.5-.5-1-.5-1-.5-.5-.5-.5v-1-1h-1-1l-1-.5-1-.5-1.5-.5-1.5-.5 8.5 11.5 8.5 11.5-5 12.5-5 12.5-1.5 11-1.5 11 9-20 9-20 4-20.5 4-20.5 7-3 7-3 9 12.5 9 12.5 9 9.5 9 9.5 14.5-.5 14.5-.5 13.5 11 13.5 11 13 11 13 11" style="fill:#736844;stroke:#736844"/><path d="m711 293l1 1v-27.5-27.5-26.5-26.5-16-16l-16.5 10-16.5 10 .5-6 .5-6-14 10-14 10 6.5-16.5 6.5-16.5-11 .5-11 .5h-9-9l-8-5.5-8-5.5-9.5-13-9.5-13-2.5-18-2.5-18 1.5-8.5 1.5-8.5 16 3.5 16 3.5 12.5-5 12.5-5 16-.5 16-.5 16-2 16-2-7.5 9-7.5 9 3 11.5 3 11.5-6.5 13-6.5 13h12.5 12.5v-27-27-26.5-26.5-2-2l-1.5-.5-1.5-.5-1.5.5-1.5.5-.5.5-.5.5-.5 1-.5 1 .5.5.5.5-.5.5-.5.5-13.5-6.5-13.5-6.5h-29-29-12.5-12.5v2 2l-.5.5-.5.5h-1-1l-.5-.5-.5-.5h-1-1l-1-.5-1-.5-.5.5-.5.5h-1-1v1 1l-1 .5-1 .5.5-.5.5-.5-.5-.5-.5-.5-.5-.5-.5-.5-1 .5-1 .5-.5-.5-.5-.5-.5.5-.5.5-.5.5-.5.5h-1-1l-.5-1-.5-1 1-.5 1-.5 1.5-1.5 1.5-1.5h-2-2-2.5-2.5-2-2-2.5-2.5-1.5-1.5l-.5 1-.5 1 .5 2 .5 2h-1-1l-1-1.5-1-1.5-.5-.5-.5-.5v1.5 1.5 1 1h-1-1l-1-1.5-1-1.5-1 1-1 1-1-1.5-1-1.5-.5-.5-.5-.5-1.5-1-1.5-1h-2-2-2.5-2.5-2-2-2-2-2.5-2.5-2-2-2-2l12 19 12 19 12.5 13.5 12.5 13.5 9 14.5 9 14.5 7 15.5 7 15.5-1.5 5.5-1.5 5.5 8 11.5 8 11.5 7.5 14 7.5 14 5 10.5 5 10.5-1.5 17.5-1.5 17.5 17.5 9 17.5 9 14.5 6 14.5 6 11 10 11 10" style="fill:#ebd581;stroke:#ebd581"/><path d="m705 288v1l-33-16-33-16 33 15.5 33 15.5" style="fill:#b27c47;stroke:#b27c47"/><path d="m492 275l40-11-13.5 2-13.5 2-6.5 3.5-6.5 3.5" style="fill:#431d05;stroke:#431d05"/><path d="m457 272l38-24 7-13 7-13 12 6 12 6h1.5 1.5 1 1l1 .5 1 .5 1-1 1-1h.5.5l-7.5-10.5-7.5-10.5-14.5 2-14.5 2-.5-7-.5-7-2-16.5-2-16.5-5.5-12.5-5.5-12.5-15 .5-15 .5-17 6.5-17 6.5-2.5-12-2.5-12-6-11-6-11 8.5-15 8.5-15 19.5-4 19.5-4 21.5-7.5 21.5-7.5h-1-1l-.5-.5-.5-.5-.5-1.5-.5-1.5-1.5 1-1.5 1-1 1-1 1-1 .5-1 .5-1-1-1-1-.5-.5-.5-.5v-1.5-1.5l-26 8.5-26 8.5-18 7.5-18 7.5-12 14.5-12 14.5 3 20.5 3 20.5 3 20 3 20 7 17.5 7 17.5 12 12.5 12 12.5 16 8 16 8" style="fill:#8f562e;stroke:#8f562e"/><g style="fill:#b27c47;stroke:#b27c47"><path d="m289 266l2 1-2.5-24-2.5-24 1-.5 1-.5 1.5-.5 1.5-.5 2-.5 2-.5 1.5-.5 1.5-.5v-1.5-1.5-1-1l2-1.5 2-1.5-6-25.5-6-25.5 1-1 1-1 1-1 1-1v-2.5-2.5l.5-1.5.5-1.5-1-1-1-1 1.5-1 1.5-1v-.5-.5h-1.5-1.5l-.5-.5-.5-.5h-1.5-1.5l-1 .5-1 .5-1.5.5-1.5.5 13-25 13-25-8 16.5-8 16.5-11.5 14-11.5 14 5 2.5 5 2.5-6.5 14.5-6.5 14.5 9.5 4 9.5 4-2.5 11-2.5 11 3 5.5 3 5.5.5 20 .5 20"/><path d="m637 256l2 1-11-16-11-16-6.5-14.5-6.5-14.5 2 18.5 2 18.5 14.5 11.5 14.5 11.5"/><path d="m558 254l16-74-5.5-20-5.5-20 12.5 8 12.5 8 9 18.5 9 18.5-6-17-6-17-11-15.5-11-15.5-3.5-14.5-3.5-14.5-4 3.5-4 3.5v8.5 8.5l-15-2.5-15-2.5-6-17-6-17-.5-15-.5-15 15 11.5 15 11.5 1-6.5 1-6.5-13-14-13-14-9.5-14-9.5-14-17.5 1-17.5 1-19.5 4-19.5 4-21 5-21 5-18.5 8-18.5 8-14 14-14 14 2-1 2-1 1-1 1-1 1.5-1 1.5-1 1-1 1-1 1.5-.5 1.5-.5 1.5-1 1.5-1 1.5-.5 1.5-.5 2.5-1 2.5-1 .5-1 .5-1 .5-1.5.5-1.5v-2.5-2.5l1-1 1-1 2-.5 2-.5 1.5-.5 1.5-.5 1.5-.5 1.5-.5 1-1 1-1 1 .5 1 .5 1 .5 1 .5-.5 1.5-.5 1.5.5.5.5.5h1.5 1.5 1 1v-1-1h1 1 1 1 1 1l1.5-.5 1.5-.5 1.5-.5 1.5-.5 2-.5 2-.5 1.5.5 1.5.5 1-1 1-1 .5.5.5.5.5-1 .5-1 1-1 1-1 .5-.5.5-.5h1.5 1.5l1-1 1-1 1.5-1 1.5-1 1.5-.5 1.5-.5-.5-2-.5-2h1.5 1.5l2-.5 2-.5 19-5 19-5 26 4.5 26 4.5-1 16.5-1 16.5-21.5 7.5-21.5 7.5-19.5 4-19.5 4-8.5 15-8.5 15 6 11 6 11 2.5 12 2.5 12 17-6.5 17-6.5 15-.5 15-.5 5.5 12.5 5.5 12.5 2 16.5 2 16.5.5 7 .5 7 14.5-2 14.5-2 7.5 10.5 7.5 10.5v1.5 1.5l.5 2.5.5 2.5 1.5.5 1.5.5 1 .5 1 .5h1 1v1 1l.5.5.5.5.5 1 .5 1 .5.5.5.5h1 1l.5.5.5.5.5 2 .5 2"/></g><path d="m544 253h2l1-1 1-1-.5-2-.5-2-1.5-.5-1.5-.5-1-1.5-1-1.5v-1-1h1 1l-.5-2.5-.5-2.5v-1.5-1.5h-.5-.5l-1 1-1 1-1-.5-1-.5h-1-1-1.5-1.5l.5 1.5.5 1.5 1 1.5 1 1.5 1 1 1 1v1 1l-1 1.5-1 1.5h-1.5-1.5l-.5 1-.5 1 1 .5 1 .5.5.5.5.5-.5.5-.5.5-1-.5-1-.5-.5.5-.5.5.5.5.5.5h1 1l1-1 1-1 1 .5 1 .5h1 1v-1-1h-1-1v-.5-.5h1 1 1 1v1 1l1 1 1 1" style="fill:#736844;stroke:#736844"/><path d="m560 241l8-37 1-19.5 1-19.5-10.5-.5-10.5-.5 2.5 17 2.5 17-.5 18-.5 18 3.5 3.5 3.5 3.5" style="fill:#d2b569;stroke:#d2b569"/><path d="m291 219l2 1 1.5-1 1.5-1 1.5-1 1.5-1 1-1 1-1 2-1 2-1 1-.5 1-.5.5-2 .5-2-.5-.5-.5-.5v-1-1l-1 .5-1 .5v1 1h-1.5-1.5l-2 1.5-2 1.5v1 1 1.5 1.5l-1.5.5-1.5.5-2 .5-2 .5-1.5.5-1.5.5-1 .5-1 .5h2.5 2.5" style="fill:#8f562e;stroke:#8f562e"/><path d="m305 216l-9-57h-.5-.5v-1.5-1.5h-1-1-1.5-1.5l6 25.5 6 25.5h1.5 1.5v-1-1l1-.5 1-.5v1 1l.5.5.5.5-.5 2-.5 2-1 .5-1 .5v2 2" style="fill:#736844;stroke:#736844"/><path d="m468 204l16-35-13.5-9-13.5-9-16.5 9.5-16.5 9.5-3 12.5-3 12.5 15.5-2 15.5-2 6.5-3 6.5-3 2 7.5 2 7.5 1 2 1 2" style="fill:#643316;stroke:#643316"/><path d="m171 202l-8-17 3 8.5 3 8.5h1 1" style="fill:#d2b569;stroke:#d2b569"/><path d="m451 191l3 1 1.5-.5 1.5-.5v-1.5-1.5l1.5-.5 1.5-.5 1-1 1-1-6.5 3-6.5 3h1 1" style="fill:#736844;stroke:#736844"/><path d="m652 182l28-20-.5 6-.5 6 16.5-10 16.5-10v-2.5-2.5-2.5-2.5-2-2-.5-.5l-26 16-26 16 26-21 26-21v-1.5-1.5-2.5-2.5-1-1h-12.5-12.5l6.5-13 6.5-13-3-11.5-3-11.5 7.5-9 7.5-9-16 2-16 2-16 .5-16 .5-12.5 5-12.5 5-16-3.5-16-3.5-1.5 8.5-1.5 8.5 2.5 18 2.5 18 9.5 13 9.5 13 8 5.5 8 5.5h9 9l11-.5 11-.5-6.5 16.5-6.5 16.5" style="fill:#ffed9d;stroke:#ffed9d"/><path d="m522 173l22-27-9-7.5-9-7.5-5.5 7.5-5.5 7.5 1-1 1-1 1.5.5 1.5.5 2 9.5 2 9.5-2-.5-2-.5-1 1-1 1 .5 1.5.5 1.5-.5 1-.5 1 2 1.5 2 1.5" style="fill:#736844;stroke:#736844"/><path d="m660 171l52-32v-2.5-2.5-2-2-.5-.5l-26 21-26 21" style="fill:#fffdd0;stroke:#fffdd0"/><path d="m512 169h2 1 1l1 .5 1 .5.5-1 .5-1-.5-1.5-.5-1.5 1-1 1-1-1-.5-1-.5v-1-1l-.5-.5-.5-.5-.5-.5-.5-.5-.5-.5-.5-.5-.5-1-.5-1v-1-1l.5-.5.5-.5.5-.5.5-.5.5-1 .5-1 1-1 1-1 .5-1 .5-1-1.5-.5-1.5-.5-1 1-1 1-2.5 8.5-2.5 8.5 1 3 1 3" style="fill:#8f562e;stroke:#8f562e"/><path d="m524 164l-4-19-.5 1-.5 1-1 1-1 1-.5 1-.5 1-.5.5-.5.5-.5.5-.5.5v1 1l.5 1 .5 1 .5.5.5.5.5.5.5.5.5.5.5.5v1 1l1 .5 1 .5 2 .5 2 .5" style="fill:#643316;stroke:#643316"/><path d="m295 159h1v-1.5-1.5l.5-.5.5-.5v-1.5-1.5-1-1-1-1-1-1-1-1-.5-.5-1.5-1.5h-.5-.5l-1.5 1-1.5 1 1 1 1 1-.5 1.5-.5 1.5v2.5 2.5l-1 1-1 1-1 1-1 1h1.5 1.5 1 1v1.5 1.5" style="fill:#8f562e;stroke:#8f562e"/><path d="m307 158l3 1 1-1 1-1 1-1.5 1-1.5.5-1.5.5-1.5-.5-2-.5-2-1-1-1-1h-2.5-2.5l-.5 1.5-.5 1.5-.5 1.5-.5 1.5.5 2 .5 2 .5 1.5.5 1.5" style="fill:#736844;stroke:#736844"/><path d="m153 143l3-16-1 6.5-1 6.5-.5 1.5-.5 1.5" style="fill:#fffdd0;stroke:#fffdd0"/><path d="m284 140l3-1 .5-1 .5-1 1.5-.5 1.5-.5 1-1 1-1-.5-1-.5-1 10.5-21.5 10.5-21.5 12.5-13 12.5-13 1.5-.5 1.5-.5 1-.5 1-.5 1-1.5 1-1.5-2.5 1-2.5 1-1.5.5-1.5.5-1.5 1-1.5 1-1.5.5-1.5.5-1 1-1 1-1.5 1-1.5 1-1 1-1 1-2 1-2 1-.5 1-.5 1-.5.5-.5.5-1 1-1 1-1 .5-1 .5v1 1l-.5 1.5-.5 1.5-1 1-1 1-.5 1-.5 1v1.5 1.5l-13 25-13 25" style="fill:#8f562e;stroke:#8f562e"/><path d="m296 139v1h.5.5l.5-1 .5-1v-.5-.5-1-1l1-1 1-1 .5-1 .5-1 .5-.5.5-.5-1.5-.5-1.5-.5-1 .5-1 .5-.5.5-.5.5-2 .5-2 .5.5 1 .5 1-1 1-1 1-1.5.5-1.5.5-.5 1-.5 1 1-.5 1-.5h1.5 1.5l.5.5.5.5h1.5 1.5" style="fill:#736844;stroke:#736844"/><path d="m609 126l33-6 9-14.5 9-14.5-9.5-6.5-9.5-6.5-18 6.5-18 6.5 1.5 17 1.5 17 .5.5.5.5" style="fill:#fffdd0;stroke:#fffdd0"/><path d="m542 123l7-32-11.5-15-11.5-15-4.5 9.5-4.5 9.5 7.5 18 7.5 18 5 3.5 5 3.5" style="fill:#ebd581;stroke:#ebd581"/><path d="m538 111v-35l-14-3.5-14-3.5 8.5 16.5 8.5 16.5 5.5 4.5 5.5 4.5" style="fill:#ffed9d;stroke:#ffed9d"/><path d="m0 90v1-16.5-16.5 2.5 2.5 2 2 2 2 2.5 2.5 2 2 2.5 2.5 2 2 .5.5" style="fill:#ebd581;stroke:#ebd581"/><g style="fill:#736844;stroke:#736844"><path d="m490 60l2-1 1-1 1-1 1.5-1 1.5-1 .5 1.5.5 1.5.5.5.5.5h1 1l1-16.5 1-16.5.5 1 .5 1-.5 1.5-.5 1.5-1 1.5-1 1.5h-1-1l-1 1-1 1-2 .5-2 .5-1.5.5-1.5.5h-1.5-1.5-1-1l.5 1.5.5 1.5.5 1 .5 1v1 1 1 1h1.5 1.5l.5.5.5.5.5.5.5.5-.5.5-.5.5-1 .5-1 .5-.5.5-.5.5-.5 1-.5 1v1.5 1.5l.5.5.5.5 1 1 1 1"/><path d="m372 52h2 1 1l.5-.5.5-.5.5-.5.5-.5 1-.5 1-.5-1-.5-1-.5h-1-1v-1.5-1.5h-1-1-1-1-1-1v1 1h-1-1-1.5-1.5l-.5-.5-.5-.5.5-1.5.5-1.5-1-.5-1-.5-.5 1.5-.5 1.5-.5 1-.5 1 .5.5.5.5v1 1h1 1 1.5 1.5l.5.5.5.5h1 1l1 .5 1 .5"/></g><path d="m0 51v1h2 2l-.5-1.5-.5-1.5 1-.5 1-.5.5-1.5.5-1.5-1-1-1-1-1-1.5-1-1.5-1-2-1-2v3 3 2.5 2.5 2 2" style="fill:#ebd581;stroke:#ebd581"/><path d="m376 48h2l1 .5 1 .5 11.5-4.5 11.5-4.5 1-1.5 1-1.5 1.5-.5 1.5-.5.5-1 .5-1-1-1-1-1-1.5.5-1.5.5-1.5 1-1.5 1-1 1-1 1h-1.5-1.5l-.5.5-.5.5-1 1-1 1-.5 1-.5 1-.5-.5-.5-.5-1 1-1 1-1.5-.5-1.5-.5-2 .5-2 .5-1.5.5-1.5.5-1.5.5-1.5.5v1.5 1.5" style="fill:#8f562e;stroke:#8f562e"/><path d="m405 40l3 1 1-1 1-1h2.5 2.5 1 1l.5-2 .5-2v-1-1l.5-2.5.5-2.5-1 .5-1 .5h-1-1l-1-1-1-1-2 .5-2 .5h-1.5-1.5l.5 2 .5 2 1 1 1 1-.5 1-.5 1-1.5.5-1.5.5-1 1.5-1 1.5h1 1" style="fill:#736844;stroke:#736844"/><path d="m478 38h2l.5-1.5.5-1.5 1.5 1 1.5 1 1.5-.5 1.5-.5 1.5 1 1.5 1 1.5-.5 1.5-.5 2-.5 2-.5 1-1 1-1h1 1l1-1.5 1-1.5.5-1.5.5-1.5-.5-1-.5-1-26-4.5-26-4.5-19 5-19 5 1 1 1 1h1 1l1-.5 1-.5 29.5 5 29.5 5" style="fill:#8f562e;stroke:#8f562e"/><g style="fill:#d2b569;stroke:#d2b569"><path d="m704 13l1-1-.5-.5-.5-.5.5-1 .5-1 .5-.5.5-.5 1.5-.5 1.5-.5 1.5.5 1.5.5v-2.5-2.5-1.5-1.5h-1-1-2-2-2-2-2.5-2.5-2-2-2.5-2.5-2-2-2.5-2.5-1-1l13.5 6.5 13.5 6.5"/><path d="m549 7h2v-1-1-1.5-1.5l.5.5.5.5 1 1.5 1 1.5h1 1l-.5-2-.5-2 .5-1 .5-1h-1.5-1.5-2.5-2.5-2-2-2.5-2.5l1.5 1 1.5 1 .5.5.5.5 1 1.5 1 1.5 1-1 1-1 1 1.5 1 1.5"/><path d="m573 6h2l.5-.5.5-.5.5-.5.5-.5.5.5.5.5 1-.5 1-.5.5.5.5.5.5.5.5.5-.5.5-.5.5 1-.5 1-.5v-1-1h1 1l.5-.5.5-.5 1 .5 1 .5h1 1l.5.5.5.5h1 1l.5-.5.5-.5v-2-2h-2.5-2.5-2.5-2.5-2-2-1.5-1.5l-1.5 1.5-1.5 1.5-1 .5-1 .5.5 1 .5 1"/></g></g></svg>